<svg width="6" height="6" viewBox="0 0 6 6" fill="none" xmlns="http://www.w3.org/2000/svg">
<path d="M0.766698 4.93347C0.735112 4.90337 0.709968 4.86716 0.692787 4.82706C0.675607 4.78695 0.666748 4.74377 0.666748 4.70014C0.666748 4.6565 0.675607 4.61332 0.692787 4.57322C0.709968 4.53311 0.735113 4.49691 0.766698 4.4668L2.40003 2.83347L0.766698 1.20014C0.705843 1.13804 0.671953 1.05444 0.672393 0.967493C0.672832 0.88055 0.707564 0.797295 0.769043 0.735816C0.830522 0.674337 0.913779 0.639603 1.00072 0.639164C1.08766 0.638725 1.17127 0.672614 1.23336 0.733469L2.8667 2.3668L4.50003 0.733469C4.56213 0.672614 4.64573 0.638725 4.73267 0.639165C4.81962 0.639604 4.90287 0.674338 4.96435 0.735816C5.02583 0.797295 5.06056 0.88055 5.061 0.967493C5.06144 1.05444 5.02755 1.13804 4.9667 1.20014L3.33336 2.83347L4.9667 4.4668C4.99785 4.49733 5.02264 4.53373 5.03964 4.5739C5.05663 4.61407 5.0655 4.65721 5.06572 4.70083C5.06594 4.74444 5.05751 4.78767 5.04092 4.82801C5.02433 4.86835 4.99991 4.905 4.96907 4.93584C4.93823 4.96668 4.90158 4.9911 4.86124 5.00769C4.8209 5.02428 4.77767 5.03271 4.73406 5.03249C4.69044 5.03227 4.6473 5.0234 4.60713 5.00641C4.56696 4.98941 4.53056 4.96462 4.50003 4.93347L2.8667 3.30014L1.23336 4.93347C1.20326 4.96506 1.16706 4.9902 1.12695 5.00738C1.08684 5.02456 1.04366 5.03342 1.00003 5.03342C0.956398 5.03342 0.91322 5.02456 0.873111 5.00738C0.833003 4.9902 0.796801 4.96506 0.766698 4.93347Z" fill="#8C9196"/>
</svg>
