<svg width="8" height="8" viewBox="0 0 8 8" fill="none" xmlns="http://www.w3.org/2000/svg">
<path d="M3.96664 6.39984C3.57174 6.39768 3.18329 6.29944 2.83485 6.1136C2.4864 5.92776 2.18843 5.65991 1.96664 5.33317C1.96664 4.6665 3.29997 4.29984 3.96664 4.29984C4.63331 4.29984 5.96664 4.6665 5.96664 5.33317C5.74485 5.65991 5.44686 5.92776 5.09842 6.1136C4.74997 6.29944 4.36154 6.39768 3.96664 6.39984ZM3.96664 1.6665C4.09863 1.66406 4.22975 1.68826 4.35218 1.73765C4.47461 1.78704 4.58584 1.86061 4.67919 1.95396C4.77254 2.04731 4.8461 2.15852 4.89549 2.28095C4.94488 2.40338 4.96908 2.53451 4.96664 2.6665C4.96664 2.93172 4.86127 3.18607 4.67373 3.37361C4.4862 3.56115 4.23186 3.6665 3.96664 3.6665C3.70142 3.6665 3.44706 3.56115 3.25953 3.37361C3.07199 3.18607 2.96664 2.93172 2.96664 2.6665C2.9642 2.53451 2.98838 2.40338 3.03777 2.28095C3.08716 2.15852 3.16073 2.04731 3.25408 1.95396C3.34743 1.86061 3.45865 1.78704 3.58108 1.73765C3.70351 1.68826 3.83465 1.66406 3.96664 1.6665ZM3.96664 0.666504C3.30737 0.666504 2.6629 0.862001 2.11473 1.22827C1.56657 1.59454 1.13932 2.11514 0.887031 2.72423C0.634738 3.33331 0.568736 4.00354 0.697354 4.65014C0.825971 5.29674 1.14343 5.89069 1.60961 6.35686C2.07578 6.82304 2.66973 7.1405 3.31633 7.26912C3.96293 7.39774 4.63315 7.33173 5.24224 7.07944C5.85132 6.82714 6.37193 6.3999 6.73821 5.85174C7.10448 5.30357 7.29997 4.65911 7.29997 3.99984C7.29742 3.11657 6.9454 2.2702 6.32083 1.64563C5.69626 1.02106 4.84991 0.669054 3.96664 0.666504V0.666504Z" fill="#8C9196"/>
</svg>
