<svg width="24" height="25" viewBox="0 0 24 25" fill="none" xmlns="http://www.w3.org/2000/svg">
<path d="M20 15.8907C18.75 15.8907 17.55 15.6907 16.43 15.3207C16.08 15.2107 15.69 15.2907 15.41 15.5607L13.21 17.7607C10.38 16.3207 8.06 14.0107 6.62 11.1707L8.82 8.96072C9.1 8.70072 9.18 8.31072 9.07 7.96072C8.7 6.84072 8.5 5.64072 8.5 4.39072C8.5 3.84072 8.05 3.39072 7.5 3.39072H4C3.45 3.39072 3 3.84072 3 4.39072C3 13.7807 10.61 21.3907 20 21.3907C20.55 21.3907 21 20.9407 21 20.3907V16.8907C21 16.3407 20.55 15.8907 20 15.8907ZM21 6.39072H18V3.39072H16V6.39072H13V8.39072H16V11.3907H18V8.39072H21V6.39072Z" fill="#0050FF"/>
</svg>
