<svg width="200" height="121" viewBox="0 0 200 121" fill="none" xmlns="http://www.w3.org/2000/svg">
<g clip-path="url(#clip0_2682_40200)">
<path d="M33.5612 114.264C33.4009 114.271 33.2423 114.229 33.1068 114.143C32.9712 114.057 32.8653 113.932 32.8035 113.784C32.7416 113.636 32.7267 113.473 32.7608 113.316C32.7949 113.159 32.8764 113.017 32.9942 112.908L33.0478 112.695C33.0407 112.678 33.0336 112.661 33.0265 112.643C32.865 112.262 32.5945 111.937 32.2489 111.709C31.9033 111.481 31.498 111.36 31.0839 111.362C30.6699 111.363 30.2655 111.487 29.9216 111.718C29.5776 111.948 29.3096 112.275 29.151 112.658C28.5171 114.184 27.7101 115.714 27.5114 117.328C27.4239 118.041 27.4608 118.765 27.6205 119.466C26.1317 116.218 25.3586 112.688 25.3537 109.116C25.3534 108.219 25.4032 107.323 25.5029 106.433C25.5853 105.702 25.6996 104.977 25.8458 104.257C26.6437 100.35 28.357 96.689 30.8448 93.5732C32.0489 92.9162 33.0226 91.9059 33.6349 90.6784C33.8567 90.2372 34.0134 89.7662 34.1003 89.28C33.9644 89.2979 33.5881 87.2292 33.6905 87.1023C33.5013 86.815 33.1625 86.6723 32.9557 86.392C31.9276 84.998 30.511 85.2414 29.7715 87.1357C28.1917 87.933 28.1765 89.2553 29.1458 90.527C29.7625 91.3361 29.8472 92.4308 30.3883 93.297C30.3326 93.3683 30.2747 93.4373 30.2191 93.5086C29.2014 94.8171 28.3145 96.2222 27.571 97.7038C27.7518 96.044 27.536 94.365 26.9413 92.805C26.3386 91.351 25.209 90.1265 24.2142 88.8696C23.0192 87.3598 20.569 88.0187 20.3584 89.9325C20.3564 89.9511 20.3544 89.9696 20.3525 89.9881C20.5002 90.0715 20.6449 90.16 20.7864 90.2536C20.9642 90.3723 21.1019 90.5421 21.1816 90.7405C21.2613 90.9389 21.2792 91.1568 21.2329 91.3655C21.1867 91.5743 21.0785 91.7642 20.9224 91.9104C20.7664 92.0566 20.5698 92.1522 20.3585 92.1848L20.3369 92.1881C20.3895 92.7207 20.4826 93.2485 20.6152 93.7669C19.339 98.7023 22.0943 100.5 26.0284 100.581C26.1152 100.625 26.1998 100.67 26.2867 100.712C25.5397 102.829 25.0711 105.034 24.8928 107.272C24.7918 108.592 24.7978 109.918 24.9106 111.238L24.9039 111.191C24.6189 109.724 23.8363 108.4 22.6883 107.443C20.9833 106.043 18.5744 105.527 16.735 104.401C16.5395 104.276 16.3122 104.209 16.0799 104.208C15.8476 104.208 15.62 104.273 15.4239 104.398C15.2278 104.523 15.0714 104.701 14.9731 104.911C14.8749 105.122 14.8389 105.356 14.8694 105.586C14.8719 105.603 14.8744 105.619 14.877 105.635C15.1512 105.747 15.4181 105.876 15.6763 106.021C15.8241 106.104 15.9688 106.192 16.1103 106.286C16.2881 106.405 16.4258 106.574 16.5055 106.773C16.5852 106.971 16.6031 107.189 16.5568 107.398C16.5106 107.607 16.4023 107.797 16.2463 107.943C16.0903 108.089 15.8937 108.185 15.6824 108.217L15.6607 108.221C15.6452 108.223 15.6318 108.225 15.6162 108.227C16.0848 109.346 16.7423 110.376 17.5601 111.271C18.3581 115.58 21.7855 115.988 25.4517 114.734H25.4539C25.8561 116.482 26.439 118.183 27.193 119.811H33.4055C33.4278 119.742 33.4478 119.67 33.4679 119.601C32.8928 119.637 32.3155 119.603 31.7488 119.499C32.2098 118.933 32.6707 118.363 33.1316 117.798C33.1419 117.787 33.1516 117.776 33.1606 117.764C33.3944 117.475 33.6304 117.188 33.8642 116.898L33.8644 116.898C33.8768 116.01 33.775 115.125 33.5614 114.264L33.5612 114.264Z" fill="#F2F2F2"/>
<path d="M163.321 114.264C163.481 114.271 163.64 114.229 163.775 114.143C163.911 114.057 164.017 113.932 164.079 113.784C164.14 113.636 164.155 113.473 164.121 113.316C164.087 113.159 164.006 113.017 163.888 112.908L163.834 112.695C163.841 112.678 163.848 112.661 163.856 112.643C164.017 112.262 164.287 111.937 164.633 111.709C164.979 111.481 165.384 111.36 165.798 111.362C166.212 111.363 166.617 111.487 166.96 111.718C167.304 111.948 167.572 112.275 167.731 112.658C168.365 114.184 169.172 115.714 169.371 117.328C169.458 118.041 169.421 118.765 169.262 119.466C170.75 116.218 171.523 112.688 171.528 109.116C171.529 108.219 171.479 107.323 171.379 106.433C171.297 105.702 171.182 104.977 171.036 104.257C170.238 100.35 168.525 96.689 166.037 93.5732C164.833 92.9162 163.859 91.9059 163.247 90.6784C163.025 90.2372 162.869 89.7662 162.782 89.28C162.918 89.2979 163.294 87.2292 163.191 87.1023C163.381 86.815 163.72 86.6723 163.926 86.392C164.954 84.998 166.371 85.2414 167.11 87.1357C168.69 87.933 168.706 89.2553 167.736 90.527C167.12 91.3361 167.035 92.4308 166.494 93.297C166.549 93.3683 166.607 93.4373 166.663 93.5086C167.681 94.8171 168.567 96.2222 169.311 97.7038C169.13 96.044 169.346 94.365 169.941 92.805C170.543 91.351 171.673 90.1265 172.668 88.8696C173.863 87.3598 176.313 88.0187 176.524 89.9325C176.526 89.9511 176.528 89.9696 176.53 89.9881C176.382 90.0715 176.237 90.16 176.096 90.2536C175.918 90.3723 175.78 90.5421 175.7 90.7405C175.621 90.9389 175.603 91.1568 175.649 91.3655C175.695 91.5743 175.804 91.7642 175.96 91.9104C176.116 92.0566 176.312 92.1522 176.523 92.1848L176.545 92.1881C176.492 92.7207 176.399 93.2485 176.267 93.7669C177.543 98.7023 174.788 100.5 170.854 100.581C170.767 100.625 170.682 100.67 170.595 100.712C171.342 102.829 171.811 105.034 171.989 107.272C172.09 108.592 172.084 109.918 171.971 111.238L171.978 111.191C172.263 109.724 173.046 108.4 174.194 107.443C175.899 106.043 178.308 105.527 180.147 104.401C180.343 104.276 180.57 104.209 180.802 104.208C181.034 104.208 181.262 104.273 181.458 104.398C181.654 104.523 181.811 104.701 181.909 104.911C182.007 105.122 182.043 105.356 182.013 105.586C182.01 105.603 182.008 105.619 182.005 105.635C181.731 105.747 181.464 105.876 181.206 106.021C181.058 106.104 180.913 106.192 180.772 106.286C180.594 106.405 180.456 106.574 180.377 106.773C180.297 106.971 180.279 107.189 180.325 107.398C180.371 107.607 180.48 107.797 180.636 107.943C180.792 108.089 180.988 108.185 181.2 108.217L181.221 108.221C181.237 108.223 181.25 108.225 181.266 108.227C180.797 109.346 180.14 110.376 179.322 111.271C178.524 115.58 175.097 115.988 171.43 114.734H171.428C171.026 116.482 170.443 118.183 169.689 119.811H163.476C163.454 119.742 163.434 119.67 163.414 119.601C163.989 119.637 164.566 119.603 165.133 119.499C164.672 118.933 164.211 118.363 163.75 117.798C163.74 117.787 163.73 117.776 163.721 117.764C163.488 117.475 163.252 117.188 163.018 116.898L163.018 116.898C163.005 116.01 163.107 115.125 163.321 114.264L163.321 114.264Z" fill="#F2F2F2"/>
<path d="M40.707 119.672H50.7321C52.4467 113.899 50.7413 100.255 53.0013 94.6781C57.3372 83.9855 62.8764 72.7034 73.2151 67.4824C77.6294 65.2532 82.4425 64.3824 87.3579 64.4298C94.1481 64.4942 101.129 66.317 107.521 68.7326C110.135 69.7186 112.726 70.8027 115.306 71.9106C125.028 76.088 134.644 80.6381 145.099 81.868C158.328 83.4231 173.882 77.5042 177.495 64.7551C180.253 54.9942 175.286 44.8607 170.078 36.1433C164.869 27.4259 159.047 18.0987 159.998 8.00581C160.002 7.97194 160.005 7.93466 160.012 7.90079C160.37 4.2756 162.534 1.67029 165.558 0H152.393C152.219 9.41529 157.667 17.726 162.568 25.9318C167.777 34.6458 172.743 44.7827 169.986 54.5436C166.372 67.2893 136.453 52.3487 123.224 50.7902C119.488 50.3532 125.422 51.9082 121.86 50.7902C116.273 49.0386 115.654 65.1041 110.217 62.746C106.832 61.2756 103.444 59.8154 100.011 58.5178C98.5897 57.9791 97.1376 57.4743 95.6684 57.0067C95.665 57.0067 95.665 57.0067 95.6616 57.0033C85.7967 53.8796 75.0081 52.6633 65.8931 57.1795C65.8318 57.21 65.767 57.2405 65.7056 57.271C55.3669 62.4885 49.8278 73.7706 45.4918 84.4632C41.9092 93.3025 42.4727 110.348 40.707 119.672Z" fill="#F2F2F2"/>
<path d="M96.4824 119.376C121.912 119.376 142.527 98.761 142.527 73.3314C142.527 47.9019 121.912 27.2871 96.4824 27.2871C71.0528 27.2871 50.438 47.9019 50.438 73.3314C50.438 98.761 71.0528 119.376 96.4824 119.376Z" fill="white"/>
<path d="M96.3506 119.672C50.7943 120.719 49.7954 99.0753 49.7954 73.3319C49.7954 47.5891 70.739 26.6455 96.4821 26.6455C122.225 26.6455 143.169 47.5891 143.169 73.3319C143.169 99.0753 122.094 119.672 96.3506 119.672ZM96.4821 27.9301C71.4472 27.9301 51.5016 48.3009 51.08 73.3319C50.6879 96.6139 75.4212 125.667 96.4821 118.734C107.776 106.295 139.709 92.8981 141.884 73.3319C144.651 48.4506 121.517 27.9301 96.4821 27.9301V27.9301Z" fill="#3F3D56"/>
<path d="M90.2009 97.2957C89.4058 97.2957 88.6216 97.1105 87.9105 96.7548C87.1993 96.3992 86.5808 95.8828 86.1039 95.2466L73.5423 78.4975C73.1384 77.9594 72.8444 77.347 72.6772 76.6954C72.5101 76.0437 72.4729 75.3654 72.5679 74.6994C72.6629 74.0333 72.8883 73.3925 73.231 72.8136C73.5737 72.2346 74.0272 71.7289 74.5654 71.3252C75.1037 70.9216 75.7162 70.6279 76.3679 70.4611C77.0197 70.2942 77.6979 70.2573 78.3639 70.3527C79.0299 70.448 79.6706 70.6736 80.2494 71.0166C80.8282 71.3596 81.3337 71.8133 81.7371 72.3517L89.9554 83.3085L111.063 51.6477C111.817 50.5182 112.988 49.7343 114.32 49.4684C115.652 49.2024 117.034 49.4761 118.164 50.2294C119.294 50.9826 120.079 52.1538 120.345 53.4853C120.612 54.8168 120.339 56.1997 119.586 57.33L94.463 95.0148C94.0085 95.6963 93.3973 96.259 92.6805 96.6555C91.9637 97.0521 91.1623 97.2711 90.3435 97.294C90.2959 97.2948 90.2484 97.2957 90.2009 97.2957Z" fill="#F2F2F2"/>
<path d="M1.46788e-06 119.708C-0.000128418 119.751 0.00836269 119.794 0.0249838 119.835C0.0416049 119.875 0.0660296 119.912 0.0968522 119.942C0.127675 119.973 0.164284 119.998 0.20458 120.014C0.244876 120.031 0.288064 120.039 0.331652 120.039H199.668C199.756 120.039 199.841 120.004 199.903 119.942C199.965 119.88 200 119.796 200 119.708C200 119.62 199.965 119.535 199.903 119.473C199.841 119.411 199.756 119.376 199.668 119.376H0.331652C0.288064 119.376 0.24488 119.384 0.204585 119.401C0.164289 119.418 0.127679 119.442 0.0968564 119.473C0.0660342 119.504 0.0416097 119.54 0.0249881 119.581C0.00836642 119.621 -0.000126938 119.664 1.46788e-06 119.708Z" fill="#CCCCCC"/>
<path d="M125.885 116.456H123.189L121.907 106.057L125.886 106.057L125.885 116.456Z" fill="#FFB6B6"/>
<path d="M125.98 119.269L117.689 119.269V119.164C117.69 118.308 118.03 117.487 118.635 116.882C119.24 116.277 120.061 115.937 120.916 115.937H120.917L122.431 114.788L125.257 115.937L125.98 115.937L125.98 119.269Z" fill="#2F2E41"/>
<path d="M114.164 103.568L111.674 104.601L106.505 95.486L110.181 93.9619L114.164 103.568Z" fill="#FFB6B6"/>
<path d="M115.329 106.13L107.671 109.305L107.63 109.208C107.303 108.418 107.302 107.529 107.629 106.739C107.957 105.948 108.585 105.319 109.375 104.991L109.375 104.991L110.334 103.35L113.384 103.329L114.053 103.052L115.329 106.13Z" fill="#2F2E41"/>
<path d="M128.968 57.2988L109.834 59.2979L107.275 67.9182L98.4111 82.1624C98.4111 82.1624 104.596 92.5723 104.015 92.4589C103.435 92.3455 104.595 95.1831 105.408 95.0184C106.221 94.8536 107.067 96.7038 106.505 97.0328C105.943 97.3617 108.198 100.143 108.198 100.143L111.644 97.0497C112.377 91.52 111.492 86.5985 108.336 82.53L118.211 71.8697L120.083 71.0928L121.569 110.65L127.067 110.741C128.584 102.937 129.346 95.9143 128.16 90.9041C128.16 90.9041 128.33 75.8529 128.98 76.0175C129.631 76.1821 129.079 74.2213 129.079 74.2213C129.079 74.2213 128.51 72.5514 129.21 71.8586C129.909 71.1659 129.472 67.0913 129.472 67.0913C130.628 63.2353 130.28 60.0515 128.968 57.2988Z" fill="#2F2E41"/>
<path d="M114.256 25.4871L119.546 24.1164L122.015 20.7109L127.879 21.4318L129.127 26.0769L133.301 28.5C133.301 28.5 130.994 52.9044 131.543 54.2444C132.092 55.5845 134.06 55.4738 132.379 57.2012C130.698 58.9286 130.476 58.2329 130.866 60.1135C131.256 61.9941 134.099 63.9843 130.866 63.9646C127.633 63.9449 108.125 63.6662 108.683 61.4367C109.24 59.2073 109.231 59.7734 110.072 58.3756C110.912 56.9779 111.478 57.759 111.195 55.6963C110.912 53.6337 111.191 52.2403 111.191 51.1256C111.191 50.0109 112.124 39.8813 112.124 39.8813L114.256 25.4871Z" fill="#E6E6E6"/>
<path d="M124.932 20.0821C128.364 20.0821 131.146 17.3 131.146 13.8682C131.146 10.4363 128.364 7.6543 124.932 7.6543C121.5 7.6543 118.718 10.4363 118.718 13.8682C118.718 17.3 121.5 20.0821 124.932 20.0821Z" fill="#FFB6B6"/>
<path d="M118.421 10.107C118.966 10.5479 118.842 12.6923 119.45 12.3427C120.058 11.9932 120.184 11.3673 120.884 11.3608C121.455 11.3923 121.993 11.6359 122.394 12.0439C122.468 12.1112 122.539 12.1818 122.608 12.2516C122.671 12.2295 122.733 12.2095 122.798 12.1931C123.289 12.0732 123.808 12.1462 124.247 12.397C123.841 12.426 123.455 12.5815 123.144 12.8418C123.277 12.9915 123.413 13.1421 123.555 13.2813C124.745 14.4475 127.186 13.2056 128.826 12.9253C127.46 14.4174 127.729 15.2503 128.069 17.2446L128.07 17.3535C128.14 16.8936 129.613 16.9165 129.37 17.5268C129.065 18.1297 128.684 18.6906 128.235 19.1957C130.242 17.8053 131.862 15.8888 132.22 13.5737C132.294 13.0869 132.437 12.5903 132.299 12.1157C132.24 11.8757 132.103 11.662 131.91 11.508C131.717 11.3539 131.478 11.2682 131.231 11.2643C131.454 10.5541 131.481 9.79663 131.309 9.07237C131.136 8.34812 130.771 7.68415 130.251 7.15106C129.731 6.61797 129.077 6.23569 128.357 6.04486C127.637 5.85402 126.88 5.86177 126.164 6.06728C125.511 6.29927 124.874 6.57409 124.258 6.88994C123.636 7.20702 122.931 7.32631 122.239 7.23185C121.808 7.1428 121.371 6.91959 120.949 7.04598C120.459 7.19282 120.249 7.70992 120.053 8.2091C120.421 8.34364 120.741 8.58495 120.971 8.9022C120.591 8.76166 120.175 8.74479 119.784 8.85397C119.777 8.85523 119.77 8.85715 119.763 8.8597C119.32 9.6541 119.294 9.84889 118.421 10.107Z" fill="#2F2E41"/>
<path d="M120.47 22.4521C117.287 22.1959 114.381 24.63 113.056 27.5351C111.731 30.4403 111.644 33.7359 111.58 36.9283L111.38 46.8517C111.351 48.3201 111.321 49.7888 111.248 51.2557C111.21 52.6831 111.031 54.1032 110.712 55.495C110.063 58.0491 108.636 60.3251 107.229 62.5535C110.83 63.642 114.493 64.5167 118.197 65.1729C120.047 59.1893 121.918 53.0337 121.463 46.7871C121.223 43.4817 120.334 40.2545 119.996 36.9575C119.517 32.2882 120.151 27.5844 120.785 22.9335" fill="#3F3D56"/>
<path d="M128.196 23.0107C131.348 23.5176 133.593 26.5722 134.19 29.7089C134.788 32.8455 134.089 36.0676 133.394 39.1839C132.673 42.4129 131.952 45.6419 131.231 48.8709C130.911 50.3043 130.591 51.738 130.314 53.1803C130.045 54.5815 131.173 56.3785 131.186 57.8052C131.21 60.4403 130.698 62.6106 131.535 65.1093C127.778 65.3116 124.013 65.2915 120.259 65.0492C119.883 58.7974 119.527 52.3736 121.452 46.4137C122.471 43.26 124.101 40.3362 125.212 37.2138C126.786 32.7917 127.287 28.0719 127.776 23.4036" fill="#3F3D56"/>
<path d="M130.297 68.0597C130.063 67.6517 129.997 67.1685 130.114 66.7128C130.231 66.2571 130.521 65.8649 130.922 65.6197C131.005 65.5712 131.091 65.5295 131.18 65.4952L130.778 51.8076L135.133 50.6992L133.472 66.6458C133.586 67.027 133.57 67.435 133.428 67.8063C133.285 68.1775 133.023 68.4912 132.684 68.6981C132.489 68.8141 132.274 68.8906 132.05 68.9233C131.826 68.956 131.598 68.9443 131.379 68.8888C131.159 68.8333 130.953 68.7352 130.771 68.6C130.59 68.4647 130.437 68.2951 130.321 68.1007C130.313 68.0872 130.305 68.0735 130.297 68.0597Z" fill="#FFB6B6"/>
<path d="M129.979 28.4788C129.979 28.4788 133.019 25.9082 135.577 31.048C138.135 36.1878 136.705 47.9297 136.345 48.5564C135.985 49.1831 135.765 48.3101 135.963 49.9806C136.123 51.3391 135.169 51.1692 135.512 51.4591C136.413 52.2236 133.888 52.3106 135.185 52.9842C136.482 53.6578 130.676 53.7839 130.676 53.7839C130.676 53.7839 129.974 53.2824 130.462 51.3913C130.736 50.3291 131.422 49.9405 130.69 49.449C129.959 48.9575 131.446 47.438 131.447 47.1046C131.448 46.7712 129.128 39.479 129.128 39.479L129.979 28.4788Z" fill="#3F3D56"/>
<path d="M104.826 91.7969C104.031 91.7969 103.247 91.6117 102.535 91.2561C101.824 90.9004 101.206 90.384 100.729 89.7478L88.1673 72.9987C87.7634 72.4606 87.4694 71.8483 87.3022 71.1966C87.1351 70.5449 87.0979 69.8666 87.1929 69.2006C87.2879 68.5346 87.5133 67.8938 87.856 67.3148C88.1987 66.7359 88.6522 66.2301 89.1904 65.8265C89.7287 65.4228 90.3411 65.1291 90.9929 64.9623C91.6447 64.7954 92.3229 64.7586 92.9889 64.8539C93.655 64.9492 94.2956 65.1748 94.8744 65.5178C95.4532 65.8608 95.9587 66.3145 96.3622 66.8529L104.58 77.8097L125.688 46.1489C126.061 45.5893 126.541 45.1086 127.099 44.7343C127.658 44.3601 128.285 44.0995 128.945 43.9676C129.605 43.8357 130.284 43.835 130.943 43.9655C131.603 44.0961 132.231 44.3553 132.791 44.7284C133.35 45.1015 133.831 45.5812 134.205 46.14C134.58 46.6989 134.84 47.326 134.972 47.9856C135.104 48.6451 135.105 49.3242 134.974 49.984C134.844 50.6439 134.584 51.2715 134.211 51.8312L109.088 89.516C108.634 90.1975 108.022 90.7602 107.305 91.1568C106.589 91.5533 105.787 91.7723 104.968 91.7952C104.921 91.7961 104.873 91.7969 104.826 91.7969Z" fill="#0050FF"/>
<path d="M114.401 65.6823C114.657 65.2878 114.75 64.8089 114.658 64.3475C114.567 63.886 114.299 63.4784 113.912 63.2115C113.832 63.1584 113.748 63.1121 113.661 63.0729L114.819 49.4285L110.532 48.0811L111.309 64.095C111.174 64.4693 111.168 64.8776 111.29 65.2562C111.411 65.6348 111.655 65.9624 111.983 66.1878C112.171 66.3143 112.381 66.4026 112.603 66.4476C112.825 66.4927 113.053 66.4936 113.276 66.4503C113.498 66.4071 113.709 66.3205 113.898 66.1955C114.087 66.0705 114.249 65.9096 114.375 65.7219C114.384 65.7088 114.393 65.6956 114.401 65.6823Z" fill="#FFB6B6"/>
<path d="M116.91 26.2076C116.91 26.2076 114.017 23.473 111.179 28.4636C108.341 33.4542 109.12 45.2572 109.445 45.9028C109.769 46.5484 110.037 45.6889 109.748 47.3459C109.513 48.6935 110.474 48.5766 110.117 48.8471C109.174 49.5606 111.691 49.7871 110.358 50.3879C109.026 50.9888 114.816 51.4356 114.816 51.4356C114.816 51.4356 115.545 50.9737 115.162 49.0585C114.947 47.9828 114.284 47.5569 115.042 47.1066C115.799 46.6562 114.398 45.0569 114.416 44.7239C114.433 44.391 117.152 37.2381 117.152 37.2381L116.91 26.2076Z" fill="#3F3D56"/>
</g>
<defs>
<clipPath id="clip0_2682_40200">
<rect width="200" height="120.039" fill="white"/>
</clipPath>
</defs>
</svg>
