<svg width="19" height="19" viewBox="0 0 19 19" fill="none" xmlns="http://www.w3.org/2000/svg">
<path d="M14.6923 6.59821C14.602 6.50345 14.4934 6.42801 14.3731 6.37646C14.2528 6.32492 14.1232 6.29834 13.9923 6.29834C13.8614 6.29834 13.7319 6.32492 13.6116 6.37646C13.4913 6.42801 13.3826 6.50345 13.2923 6.59821L9.39234 10.4982L5.49234 6.59821C5.30605 6.41564 5.05524 6.31393 4.79441 6.31525C4.53358 6.31656 4.28381 6.42079 4.09937 6.60522C3.91494 6.78966 3.81074 7.0394 3.80942 7.30023C3.8081 7.56106 3.90977 7.81188 4.09234 7.99817L8.69234 12.5982C8.78265 12.693 8.89125 12.7683 9.01158 12.8199C9.1319 12.8714 9.26144 12.898 9.39234 12.898C9.52324 12.898 9.65277 12.8714 9.7731 12.8199C9.89342 12.7683 10.002 12.693 10.0923 12.5982L14.6923 7.99817C14.7871 7.90786 14.8625 7.79928 14.9141 7.67896C14.9656 7.55863 14.9922 7.42906 14.9922 7.29816C14.9922 7.16726 14.9656 7.03774 14.9141 6.91742C14.8625 6.7971 14.7871 6.68851 14.6923 6.59821Z" fill="white"/>
</svg>
