<svg width="18" height="18" viewBox="0 0 18 18" fill="none" xmlns="http://www.w3.org/2000/svg">
<path d="M11.1741 5.02469C11.1064 4.95363 11.0249 4.89705 10.9347 4.85839C10.8444 4.81974 10.7473 4.7998 10.6491 4.7998C10.5509 4.7998 10.4538 4.81974 10.3635 4.85839C10.2733 4.89705 10.1918 4.95363 10.1241 5.02469L6.67412 8.47469C6.60305 8.54242 6.54647 8.62388 6.50781 8.71412C6.46916 8.80437 6.44922 8.90152 6.44922 8.99969C6.44922 9.09787 6.46916 9.19502 6.50781 9.28526C6.54647 9.37551 6.60305 9.45696 6.67412 9.52469L10.1241 12.9747C10.2638 13.1116 10.4519 13.1879 10.6476 13.1869C10.8432 13.1859 11.0305 13.1077 11.1688 12.9694C11.3071 12.8311 11.3853 12.6438 11.3863 12.4481C11.3873 12.2525 11.311 12.0644 11.1741 11.9247L8.2491 8.99969L11.1741 6.07469C11.2452 6.00696 11.3017 5.92551 11.3404 5.83526C11.379 5.74502 11.399 5.64787 11.399 5.54969C11.399 5.45152 11.379 5.35437 11.3404 5.26412C11.3017 5.17388 11.2452 5.09242 11.1741 5.02469Z" fill="#001e2d"/>
</svg>
