<svg width="32" height="32" viewBox="0 0 32 32" fill="none" xmlns="http://www.w3.org/2000/svg">
<ellipse cx="16.0142" cy="16" rx="15.9427" ry="16" fill="#0050FF" fill-opacity="0.1"/>
<path d="M17.0606 8.50096C12.8342 8.38429 9.37164 11.7926 9.37164 16.001H7.88532C7.51166 16.001 7.32899 16.451 7.5947 16.7093L9.91137 19.0426C10.0774 19.2093 10.3348 19.2093 10.5009 19.0426L12.8176 16.7093C13.075 16.451 12.8923 16.001 12.5187 16.001H11.0323C11.0323 12.751 13.6728 10.126 16.9278 10.1676C20.0167 10.2093 22.6157 12.8176 22.6572 15.9176C22.6987 19.176 20.0831 21.8343 16.8448 21.8343C15.5079 21.8343 14.2707 21.376 13.2909 20.601C12.9587 20.3426 12.4937 20.3676 12.1948 20.6676C11.8461 21.0176 11.871 21.6093 12.2612 21.9093C13.5234 22.9093 15.1093 23.501 16.8448 23.501C21.038 23.501 24.4341 20.026 24.3179 15.7843C24.2099 11.876 20.955 8.60929 17.0606 8.50096ZM16.6372 12.6676C16.2967 12.6676 16.0144 12.951 16.0144 13.2926V16.3593C16.0144 16.651 16.1722 16.926 16.4213 17.076L19.012 18.6176C19.3109 18.7926 19.6928 18.6926 19.8672 18.401C20.0416 18.101 19.9419 17.7176 19.6513 17.5426L17.2599 16.1176V13.2843C17.2599 12.951 16.9776 12.6676 16.6372 12.6676Z" fill="#0050FF"/>
</svg>
