<svg width="64" height="64" viewBox="0 0 64 64" fill="none" xmlns="http://www.w3.org/2000/svg">
<path fill-rule="evenodd" clip-rule="evenodd" d="M37.4011 15.355C35.7145 9.99278 28.2855 9.99278 26.5989 15.355C26.3584 16.1195 25.6959 16.5768 25.0135 16.5768C19.3893 16.5768 17.3544 23.8134 21.654 27.0403C22.2464 27.4849 22.5245 28.3084 22.281 29.0826C21.4546 31.7098 22.5145 34.1674 24.3226 35.5244C26.1401 36.8885 28.8098 37.1994 31.0416 35.5244C31.6176 35.0921 32.3824 35.0921 32.9585 35.5244C35.1902 37.1994 37.86 36.8885 39.6774 35.5244C41.4856 34.1674 42.5454 31.7098 41.7191 29.0826C41.4756 28.3084 41.7536 27.4849 42.3461 27.0403C46.6456 23.8134 44.6108 16.5768 38.9866 16.5768C38.3042 16.5768 37.6416 16.1195 37.4011 15.355ZM25.0135 20.5768C27.5136 20.5768 29.6716 18.9173 30.4146 16.5552C30.927 14.926 33.073 14.926 33.5855 16.5552C34.3284 18.9173 36.4865 20.5768 38.9866 20.5768C39.7601 20.5768 40.3373 21.0526 40.572 21.7987C40.8081 22.5494 40.6153 23.338 39.945 23.8411C37.9628 25.3288 37.1635 27.9304 37.9034 30.2828C38.1766 31.1513 37.8496 31.895 37.2764 32.3252C36.7125 32.7484 36.0064 32.8107 35.3595 32.3252C33.3608 30.8252 30.6392 30.8252 28.6405 32.3252C27.9936 32.8107 27.2875 32.7484 26.7236 32.3252C26.1504 31.895 25.8235 31.1513 26.0966 30.2828C26.8366 27.9304 26.0373 25.3288 24.055 23.8411C23.3848 23.338 23.1919 22.5494 23.428 21.7987C23.6627 21.0526 24.24 20.5768 25.0135 20.5768Z" fill="#D72C0D"/>
<path fill-rule="evenodd" clip-rule="evenodd" d="M32 0.666664C19.1134 0.666664 8.66669 11.1134 8.66669 24C8.66669 29.6392 10.6695 34.815 14.0001 38.8484L14 54.5038C13.9999 56.4518 13.9998 58.1392 14.1881 59.4047C14.3782 60.681 14.8651 62.2833 16.5141 63.0208C18.1379 63.7471 19.6624 63.0803 20.7655 62.4005C21.869 61.7205 23.1814 60.6264 24.7072 59.3545L27.3305 57.168C28.7893 55.952 29.7441 55.1609 30.5364 54.6521C31.2805 54.1741 31.68 54.0818 32 54.0818C32.32 54.0818 32.7195 54.1741 33.4637 54.6521C34.2559 55.1609 35.2107 55.952 36.6696 57.168L39.2928 59.3545C40.8186 60.6264 42.131 61.7205 43.2345 62.4005C44.3376 63.0803 45.8622 63.7471 47.486 63.0208C49.1349 62.2833 49.6219 60.681 49.8119 59.4047C50.0003 58.1392 50.0002 56.4518 50 54.5037L49.9999 38.8484C53.3305 34.815 55.3334 29.6392 55.3334 24C55.3334 11.1134 44.8867 0.666664 32 0.666664ZM12.6667 24C12.6667 13.3225 21.3225 4.66666 32 4.66666C42.6775 4.66666 51.3334 13.3225 51.3334 24C51.3334 28.9045 49.5097 33.3782 46.5005 36.7876C42.955 40.8046 37.7741 43.3333 32 43.3333C26.2265 43.3333 21.0459 40.8051 17.5005 36.7887C14.4907 33.3792 12.6667 28.905 12.6667 24ZM18.1445 58.8156C18.0054 57.8814 18 56.4985 18 54.3431V42.6681C21.899 45.5963 26.7474 47.3333 32 47.3333C37.2527 47.3333 42.1011 45.5963 46 42.6681V54.3431C46 56.4985 45.9946 57.8814 45.8555 58.8156C45.8284 58.9975 45.8001 59.1354 45.7741 59.2385C45.6659 59.1879 45.5212 59.1111 45.3331 58.9952C44.5043 58.4845 43.4139 57.5822 41.7341 56.182L39.1379 54.0181C37.7975 52.9007 36.6519 51.9458 35.6253 51.2864C34.527 50.5811 33.3711 50.0818 32 50.0818C30.6289 50.0818 29.473 50.5811 28.3748 51.2864C27.3481 51.9458 26.2026 52.9007 24.8621 54.0181L22.266 56.182C20.5862 57.5822 19.4957 58.4845 18.667 58.9952C18.4789 59.1111 18.3342 59.1879 18.226 59.2385C18.2 59.1354 18.1716 58.9975 18.1445 58.8156ZM45.6751 59.5127C45.6746 59.5115 45.6796 59.5015 45.6914 59.4866C45.6815 59.5065 45.6756 59.514 45.6751 59.5127ZM46.0175 59.33C46.034 59.3301 46.0433 59.3321 46.0438 59.333C46.0443 59.334 46.036 59.3339 46.0175 59.33ZM17.9563 59.333C17.9568 59.3321 17.966 59.3301 17.9825 59.33C17.964 59.3339 17.9557 59.334 17.9563 59.333ZM18.3249 59.5127C18.3254 59.5115 18.3205 59.5015 18.3086 59.4866C18.3099 59.4891 18.311 59.4914 18.3121 59.4935C18.3199 59.5082 18.3245 59.5138 18.3249 59.5127Z" fill="#D72C0D"/>
</svg>
