<svg width="336" height="311" viewBox="0 0 336 311" fill="none" xmlns="http://www.w3.org/2000/svg">
<g clip-path="url(#clip0_12887_189864)">
<path d="M130.62 251.131L220.52 273.931L229.21 251.131H130.62Z" fill="#9FA3CB"/>
<path d="M125.53 229.72C125.53 231.14 125.43 232.55 125.23 233.92H113.46C101.95 233.92 91.5296 229.26 83.9896 221.71C80.1096 217.83 76.9996 213.2 74.8896 208.04C80.2596 202.89 87.5396 199.75 95.5596 199.75C112.11 199.75 125.53 213.17 125.53 229.72Z" fill="#FFE2BB"/>
<path d="M259.229 233.92C259.229 228.76 255.709 224.28 250.699 223.05L248.959 222.63C248.079 219.8 247.609 216.81 247.609 213.71C247.609 197.15 261.029 183.73 277.579 183.73C278.389 183.73 279.199 183.76 279.989 183.83L283.629 204.96C286.239 220.09 274.589 233.92 259.229 233.92Z" fill="#FFE2BB"/>
<path d="M246.39 309.159H147.03C127.63 309.159 114.51 289.399 122.03 271.529L130.62 251.119H229.2L221.07 272.329C214.26 290.079 227.37 309.149 246.39 309.149V309.159Z" stroke="#0F197D" stroke-width="2" stroke-linecap="round" stroke-linejoin="round"/>
<path d="M334.53 251.13H18.5597L1.46973 17L326.38 50.72L334.53 251.13Z" stroke="#0F197D" stroke-width="2" stroke-linecap="round" stroke-linejoin="round"/>
<path d="M188.54 285.051C192.776 285.051 196.21 281.617 196.21 277.381C196.21 273.145 192.776 269.711 188.54 269.711C184.304 269.711 180.87 273.145 180.87 277.381C180.87 281.617 184.304 285.051 188.54 285.051Z" fill="#99DDD5"/>
<path d="M313.319 54.88V239.73H39.7793V53.75H212.639" stroke="#F7C4CA" stroke-width="2" stroke-linecap="round" stroke-linejoin="round"/>
<path d="M228.77 225.529L240.12 228.299C242.71 228.929 244.54 231.259 244.54 233.929" stroke="#180A00" stroke-linecap="round" stroke-linejoin="round"/>
<path d="M248.18 73.1192C248.18 73.1192 256.75 59.9692 272.74 50.8692C273.81 50.2592 275.17 50.4792 275.97 51.4192L284.66 60.7892" fill="white"/>
<path d="M248.18 73.1192C248.18 73.1192 256.75 59.9692 272.74 50.8692C273.81 50.2592 275.17 50.4792 275.97 51.4192L284.66 60.7892" stroke="#180A00" stroke-linecap="round" stroke-linejoin="round"/>
<path d="M194.979 75.0309V51.9609H180.059V47.2109H156.719V51.9609H147.449V80.8309C145.579 84.6309 144.529 88.9109 144.529 93.4309C144.529 109.221 157.329 122.021 173.119 122.021C188.909 122.021 201.709 109.221 201.709 93.4309C201.709 86.4209 199.179 80.0009 194.999 75.0309H194.979Z" fill="white" stroke="#180A00" stroke-linecap="round" stroke-linejoin="round"/>
<path d="M186.88 82.9703C188.509 82.9703 189.83 81.6495 189.83 80.0203C189.83 78.3911 188.509 77.0703 186.88 77.0703C185.25 77.0703 183.93 78.3911 183.93 80.0203C183.93 81.6495 185.25 82.9703 186.88 82.9703Z" fill="#180A00"/>
<path d="M165.54 80.06C167.351 80.06 168.82 78.5915 168.82 76.78C168.82 74.9685 167.351 73.5 165.54 73.5C163.728 73.5 162.26 74.9685 162.26 76.78C162.26 78.5915 163.728 80.06 165.54 80.06Z" fill="#180A00"/>
<path d="M184.52 68.5694L192.23 70.4994L188.37 65.3594L184.52 68.5694Z" fill="#180A00"/>
<path d="M168.22 65.2809L158.25 67.7709L163.23 61.1309L168.22 65.2809Z" fill="#180A00"/>
<path d="M178.59 73.5C178.59 73.5 177.35 80.98 178.59 85.66C178.59 85.66 181.92 85.14 182.18 88.27C182.44 91.4 177.92 92.97 177.92 92.97" stroke="#180A00" stroke-linecap="round" stroke-linejoin="round"/>
<path d="M177.92 111.521C177.92 111.521 161.73 114.391 161.46 96.8906" stroke="#180A00" stroke-linecap="round" stroke-linejoin="round"/>
<path d="M153.06 71.4406C152.48 64.0606 155.4 56.7106 161.19 52.1006C161.76 51.6406 162.35 51.2306 162.94 50.8606C167.94 47.7206 174.92 49.7306 182.88 57.0406C198.8 71.6706 211.6 71.1906 219.96 62.2906C224.78 57.1606 224.72 48.5706 221.24 42.7606C215.25 32.7506 197.23 35.1106 193.71 48.3806C193.71 48.3806 151.79 0.0105915 121.49 48.3806C108.71 68.7906 111.55 82.6206 119.51 90.0706C132.84 102.541 154.63 91.4906 153.21 73.2906L153.07 71.4506L153.06 71.4406Z" fill="#99B9FF"/>
<path d="M207.22 233.92H259.23C259.23 228.76 255.71 224.28 250.7 223.05L248.96 222.63L228.77 217.7L163.13 201.59C151.36 198.7 140.69 192.14 133.3 182.53C126.37 173.52 122.26 162.25 122.26 150.01" stroke="#180A00" stroke-linecap="round" stroke-linejoin="round"/>
<path d="M228.77 221.02L246.21 225.28C250.19 226.25 253 229.82 253 233.92" stroke="#180A00" stroke-linecap="round" stroke-linejoin="round"/>
<path d="M207.219 233.92H113.459C101.949 233.92 91.5293 229.26 83.9893 221.71C80.1093 217.83 76.9993 213.2 74.8893 208.04C72.8793 203.17 71.7793 197.83 71.7793 192.24C71.7793 148.08 104.489 111.55 146.999 105.58" stroke="#180A00" stroke-linecap="round" stroke-linejoin="round"/>
<path d="M228.769 217.701L183.489 120.061L201.689 128.961L192.749 140.051" stroke="#180A00" stroke-linecap="round" stroke-linejoin="round"/>
<path d="M246.3 100.369H265.61L279.99 183.829L283.63 204.959C286.24 220.089 274.59 233.919 259.23 233.919" stroke="#180A00" stroke-linecap="round" stroke-linejoin="round"/>
<path d="M241.86 100.369C242.45 103.379 242.76 106.489 242.76 109.679C242.76 136.119 221.33 157.549 194.89 157.549C168.45 157.549 147.02 136.119 147.02 109.679C147.02 108.299 147.08 106.939 147.19 105.589" stroke="#180A00" stroke-linecap="round" stroke-linejoin="round"/>
<path d="M241.86 100.37C233.57 93.8804 234.43 81.8604 238.07 75.4304L249.12 55.9004C252.16 57.8404 253.32 61.7304 251.83 65.0204L248.17 73.1204C248.17 73.1204 263.52 76.4804 263.59 92.6104" stroke="#180A00" stroke-linecap="round" stroke-linejoin="round"/>
<path d="M248.18 73.1192C248.18 73.1192 256.75 59.9692 272.74 50.8692C273.81 50.2592 275.17 50.4792 275.97 51.4192L284.66 60.7892C285.65 61.9392 285.44 63.6892 284.2 64.5592C281.65 66.3492 277.32 69.7792 272.53 75.2492C272.53 75.2492 277.57 71.1992 284.53 67.8492C285.78 67.2492 287.28 67.7692 287.91 69.0092C288.52 70.2092 288.11 71.6692 286.95 72.3692C281.18 75.8592 268.04 90.4993 265.56 100.369" stroke="#180A00" stroke-linecap="round" stroke-linejoin="round"/>
<path d="M277.58 53.4902C274.43 55.5902 269.06 59.6302 263.08 66.1302" stroke="#180A00" stroke-linecap="round" stroke-linejoin="round"/>
<path d="M281.729 57.9902C278.579 60.0902 273.209 64.1302 267.229 70.6302" stroke="#180A00" stroke-linecap="round" stroke-linejoin="round"/>
<path d="M242.9 187.38C226.42 187.38 180.27 181.9 183.29 120.26H183.08C181.33 130.66 173.99 191.72 242.54 196.82C244.92 197 247.06 195.34 247.51 192.99C248.06 190.09 245.85 187.39 242.89 187.39L242.9 187.38Z" fill="#180A00"/>
<path d="M168.22 122.02L182.19 136.99L183.28 120.27C183.28 120.27 175.86 123.06 168.21 122.03L168.22 122.02Z" fill="#180A00"/>
<path d="M150.13 87.3801C148.21 88.1201 145.62 88.4801 143.35 86.5901C138.23 82.3401 141.85 75.3201 147.33 75.7301C152.81 76.1401 155.3 81.3601 155.3 81.3601" fill="white"/>
<path d="M150.13 87.3801C148.21 88.1201 145.62 88.4801 143.35 86.5901C138.23 82.3401 141.85 75.3201 147.33 75.7301C152.81 76.1401 155.3 81.3601 155.3 81.3601" stroke="#180A00" stroke-linecap="round" stroke-linejoin="round"/>
<path d="M151.199 81.8493C151.199 81.8493 149.649 78.0193 145.919 79.6193C144.869 80.0693 144.069 81.2593 144.069 82.7293" fill="white"/>
<path d="M151.199 81.8493C151.199 81.8493 149.649 78.0193 145.919 79.6193C144.869 80.0693 144.069 81.2593 144.069 82.7293" stroke="#180A00" stroke-linecap="round" stroke-linejoin="round"/>
<path d="M283.77 83.1699C283.77 83.1699 287.78 78.3899 292.39 74.9199" stroke="#AFAFAF" stroke-linecap="round" stroke-linejoin="round"/>
<path d="M286 89.8492C286 89.8492 289.51 85.6992 293.54 82.6992" stroke="#FFB100" stroke-linecap="round" stroke-linejoin="round"/>
<path d="M257.29 55.9398C257.29 55.9398 261.43 51.3598 266.11 48.0898" stroke="#1CB0F6" stroke-linecap="round" stroke-linejoin="round"/>
<path d="M251.529 53.7503C251.529 53.7503 254.539 49.6403 258.109 46.5703" stroke="#AFAFAF" stroke-linecap="round" stroke-linejoin="round"/>
<path d="M192.52 100.409C195.779 100.409 198.42 97.7679 198.42 94.5094C198.42 91.2509 195.779 88.6094 192.52 88.6094C189.262 88.6094 186.62 91.2509 186.62 94.5094C186.62 97.7679 189.262 100.409 192.52 100.409Z" fill="#FDC2A6"/>
<path d="M161.04 95.3801C164.298 95.3801 166.94 92.7386 166.94 89.4801C166.94 86.2216 164.298 83.5801 161.04 83.5801C157.781 83.5801 155.14 86.2216 155.14 89.4801C155.14 92.7386 157.781 95.3801 161.04 95.3801Z" fill="#FDC2A6"/>
<path d="M196.739 135.109L213.629 153.749" stroke="#180A00" stroke-linecap="round" stroke-linejoin="round"/>
<path d="M212.75 233.92L215.42 214.42" stroke="#180A00" stroke-linecap="round" stroke-linejoin="round"/>
<path d="M122.26 150.01H155.15V198.99" stroke="#180A00" stroke-linecap="round" stroke-linejoin="round"/>
<path d="M259.379 114.88C261.898 114.88 263.939 112.838 263.939 110.32C263.939 107.801 261.898 105.76 259.379 105.76C256.861 105.76 254.819 107.801 254.819 110.32C254.819 112.838 256.861 114.88 259.379 114.88Z" fill="#BCA5E1"/>
<path d="M202.06 230.091C204.578 230.091 206.62 228.049 206.62 225.531C206.62 223.012 204.578 220.971 202.06 220.971C199.542 220.971 197.5 223.012 197.5 225.531C197.5 228.049 199.542 230.091 202.06 230.091Z" fill="#BCA5E1"/>
<path d="M189.83 165.821C161.61 163.261 139.5 139.541 139.5 110.651C139.5 109.471 139.54 108.301 139.61 107.141" stroke="#180A00" stroke-linecap="round" stroke-linejoin="round"/>
</g>
<defs>
<clipPath id="clip0_12887_189864">
<rect width="335.06" height="294.16" fill="white" transform="translate(0.469727 16)"/>
</clipPath>
</defs>
</svg>
