<svg width="64" height="64" viewBox="0 0 64 64" fill="none" xmlns="http://www.w3.org/2000/svg">
<path fill-rule="evenodd" clip-rule="evenodd" d="M32.0002 0.666664C24.2096 0.666664 17.7768 6.47599 16.7962 14L15.0294 14C12.3742 13.9999 10.1723 13.9998 8.44433 14.2413C6.62769 14.4951 4.99532 15.0556 3.75391 16.4426C2.5125 17.8296 2.13573 19.5138 2.08406 21.3474C2.03492 23.0915 2.27814 25.2799 2.57144 27.9188L3.39248 35.3081C4.00589 40.8292 4.48765 45.1652 5.30592 48.5354C6.14464 51.9899 7.39208 54.6858 9.70795 56.7586C12.026 58.8334 14.8566 59.7743 18.4017 60.2258C21.8628 60.6667 26.2579 60.6667 31.8575 60.6667H32.1428C37.7424 60.6667 42.1375 60.6667 45.5987 60.2258C49.1437 59.7743 51.9743 58.8334 54.2924 56.7586C56.6083 54.6858 57.8557 51.9899 58.6944 48.5354C59.5127 45.1653 59.9944 40.8293 60.6078 35.3084L61.4289 27.9187C61.7222 25.2799 61.9654 23.0915 61.9163 21.3474C61.8646 19.5138 61.4879 17.8296 60.2464 16.4426C59.005 15.0556 57.3727 14.4951 55.556 14.2413C53.828 13.9998 51.6262 13.9999 48.971 14L47.2043 14C46.2242 6.47662 39.7907 0.666664 32.0002 0.666664ZM32.0002 4.66666C37.577 4.66666 42.213 8.69464 43.1576 14H20.8426C21.7868 8.6952 26.4234 4.66666 32.0002 4.66666ZM6.73442 19.1103C7.08298 18.7208 7.63607 18.3931 8.99785 18.2028C10.4163 18.0046 12.3363 18 15.1769 18H48.8234C51.664 18 53.584 18.0046 55.0025 18.2028C56.3643 18.3931 56.9174 18.7208 57.2659 19.1103C57.6145 19.4997 57.8792 20.0856 57.9179 21.4601C57.9582 22.8918 57.7508 24.8005 57.4371 27.6237L56.6482 34.724C56.0154 40.4185 55.5581 44.4995 54.8074 47.5917C54.07 50.6286 53.1056 52.4526 51.6247 53.7781C50.146 55.1016 48.218 55.8599 45.0933 56.2579C41.914 56.6629 37.7736 56.6667 32.0002 56.6667C26.2268 56.6667 22.0863 56.6629 18.9071 56.2579C15.7824 55.8599 13.8543 55.1016 12.3756 53.7781C10.8947 52.4526 9.93033 50.6286 9.19299 47.5917C8.44222 44.4995 7.98491 40.4185 7.35219 34.724L6.56327 27.6237C6.24958 24.8005 6.04214 22.8918 6.08248 21.4601C6.1212 20.0856 6.38586 19.4997 6.73442 19.1103Z" fill="#00A0AC"/>
<path d="M48.0001 26.6667C48.0001 28.1394 46.8062 29.3333 45.3335 29.3333C43.8607 29.3333 42.6668 28.1394 42.6668 26.6667C42.6668 25.1939 43.8607 24 45.3335 24C46.8062 24 48.0001 25.1939 48.0001 26.6667Z" fill="#00A0AC"/>
<path d="M21.3335 26.6667C21.3335 28.1394 20.1395 29.3333 18.6668 29.3333C17.194 29.3333 16.0001 28.1394 16.0001 26.6667C16.0001 25.1939 17.194 24 18.6668 24C20.1395 24 21.3335 25.1939 21.3335 26.6667Z" fill="#00A0AC"/>
</svg>
