<svg width="36" height="36" viewBox="0 0 36 36" fill="none" xmlns="http://www.w3.org/2000/svg">
<path d="M25.7226 26.0028C25.1362 26.0028 24.5629 26.1786 24.0753 26.5081C23.5877 26.8376 23.2077 27.3059 22.9833 27.8539C22.7589 28.4018 22.7002 29.0047 22.8146 29.5864C22.929 30.1681 23.2114 30.7024 23.6261 31.1217C24.0408 31.5411 24.5689 31.8267 25.1441 31.9424C25.7192 32.0581 26.3155 31.9987 26.8573 31.7717C27.3991 31.5448 27.8622 31.1604 28.188 30.6673C28.5138 30.1742 28.6877 29.5944 28.6877 29.0014C28.6853 28.2068 28.3722 27.4455 27.8166 26.8836C27.2611 26.3218 26.5083 26.0051 25.7226 26.0028ZM2.00253 3.51307C1.99064 3.7131 2.02073 3.9134 2.09103 4.10076C2.16132 4.28811 2.27015 4.45825 2.41026 4.59995C2.55036 4.74165 2.71869 4.85168 2.90394 4.92277C3.0892 4.99386 3.28725 5.02441 3.48504 5.01238H4.96754L10.3045 16.4072L8.3772 20.0055C8.13144 20.4715 8.00933 20.994 8.0225 21.522C8.03568 22.05 8.18379 22.5656 8.45249 23.0185C8.72118 23.4714 9.10121 23.8462 9.55568 24.1064C10.0101 24.3667 10.5235 24.5034 11.0458 24.5034H27.3534C27.7465 24.5034 28.1237 24.3455 28.4017 24.0643C28.6797 23.7831 28.8359 23.4018 28.8359 23.0041C28.8359 22.6065 28.6797 22.2251 28.4017 21.944C28.1237 21.6628 27.7465 21.5048 27.3534 21.5048H11.0458L12.6765 18.5062H23.7953C24.33 18.5091 24.8564 18.3726 25.3238 18.11C25.7912 17.8474 26.1838 17.4675 26.4639 17.0069L31.8009 7.26135C31.9334 7.02966 32.0021 6.76634 32 6.49871C31.9978 6.23109 31.9249 5.96892 31.7888 5.73942C31.6526 5.50993 31.4583 5.32147 31.2258 5.19363C30.9933 5.06578 30.7311 5.0032 30.4666 5.01238H8.5256L7.48773 2.91335C7.35545 2.66415 7.16449 2.45173 6.93179 2.29484C6.69909 2.13794 6.43177 2.04141 6.15344 2.01376H3.78147C3.56575 1.98489 3.34642 2.00156 3.13739 2.06271C2.92837 2.12386 2.73414 2.22817 2.56698 2.36905C2.39981 2.50994 2.26348 2.68433 2.16631 2.88124C2.06914 3.07814 2.01335 3.29328 2.00253 3.51307ZM10.8976 26.0028C10.3111 26.0028 9.7378 26.1786 9.2502 26.5081C8.76261 26.8376 8.38264 27.3059 8.15823 27.8539C7.93381 28.4018 7.87516 29.0047 7.98956 29.5864C8.10397 30.1681 8.38637 30.7024 8.80103 31.1217C9.2157 31.5411 9.74385 31.8267 10.319 31.9424C10.8942 32.0581 11.4905 31.9987 12.0323 31.7717C12.574 31.5448 13.0371 31.1604 13.3629 30.6673C13.6887 30.1742 13.8626 29.5944 13.8626 29.0014C13.8602 28.2068 13.5471 27.4455 12.9916 26.8836C12.436 26.3218 11.6832 26.0051 10.8976 26.0028Z" fill="#335363"/>
</svg>
