<svg width="16" height="15" viewBox="0 0 16 15" fill="none" xmlns="http://www.w3.org/2000/svg">
<path d="M5.27048 7.19C5.42915 7.19 5.54582 7.18533 5.62048 7.176C5.78848 7.15733 5.91448 7.13867 5.99848 7.12C6.14782 7.10133 6.27382 7.08267 6.37648 7.064L6.54448 7.008L6.71248 6.966L6.82448 6.924C6.88048 6.90533 6.93182 6.88667 6.97848 6.868C7.03448 6.84933 7.10915 6.82133 7.20248 6.784L7.51048 6.63L7.72048 6.504H7.70648C7.78115 6.46667 7.85115 6.41533 7.91648 6.35L7.97248 6.294C8.01915 6.238 8.04715 6.196 8.05648 6.168C8.10315 6.10267 8.14982 6.028 8.19649 5.944C8.22448 5.89733 8.25715 5.82733 8.29448 5.734C8.30382 5.68733 8.32715 5.608 8.36448 5.496C8.38315 5.40267 8.39249 5.31867 8.39249 5.244L8.40648 5.216C8.42515 5.104 8.43448 5.02 8.43448 4.964L8.42048 4.264C8.42048 4.16133 8.41115 4.00733 8.39249 3.802C8.37382 3.56867 8.35515 3.39133 8.33648 3.27L8.26648 2.78L8.29448 2.85L8.11248 1.814C8.06582 1.57133 8.00048 1.27733 7.91648 0.931999L7.95848 1.128L7.13248 1.324C7.13248 1.38 7.14648 1.47333 7.17448 1.604L7.27248 2.08C7.33782 2.36 7.38915 2.63533 7.42648 2.906L7.56648 3.83V3.942C7.59449 4.09133 7.60849 4.24533 7.60849 4.404C7.61782 4.49733 7.62248 4.63267 7.62248 4.81V5.244L7.58048 5.426L7.55248 5.594L7.18848 5.804L7.09048 5.832C7.03448 5.86 6.95048 5.89267 6.83848 5.93L6.55848 6.014C6.50248 6.02333 6.40915 6.04667 6.27848 6.084C6.22248 6.10267 6.12915 6.12133 5.99848 6.14H5.97048C5.90515 6.14 5.80715 6.14933 5.67648 6.168C5.61115 6.17733 5.50848 6.182 5.36848 6.182C5.09782 6.182 4.85048 6.154 4.62648 6.098C4.41182 6.042 4.22515 5.95333 4.06648 5.832C3.91715 5.72933 3.79582 5.58467 3.70248 5.398C3.61848 5.21133 3.57648 5.00133 3.57648 4.768C3.57648 4.60933 3.59048 4.432 3.61848 4.236C3.64648 4.068 3.69782 3.858 3.77248 3.606C3.80982 3.45667 3.87515 3.22333 3.96848 2.906C4.05248 2.66333 4.13648 2.41133 4.22048 2.15L3.59048 1.912L3.28248 2.836L3.04448 3.634C3.01648 3.774 2.97915 3.97 2.93248 4.222L2.90448 4.348C2.87648 4.572 2.86248 4.79133 2.86248 5.006C2.86248 5.40733 2.91382 5.72933 3.01648 5.972C3.10982 6.23333 3.26848 6.462 3.49248 6.658C3.68848 6.826 3.94048 6.96133 4.24848 7.064C4.54715 7.148 4.88782 7.19 5.27048 7.19ZM5.64848 4.488L6.33448 3.802L5.64848 3.088L4.94848 3.802L5.64848 4.488ZM12.9285 6.56L13.6285 5.874L12.9285 5.174L12.2425 5.874L12.9285 6.56ZM6.85248 12.328C6.94582 12.328 7.02982 12.3093 7.10448 12.272C7.15115 12.2533 7.19782 12.23 7.24448 12.202L7.30048 12.16C7.38448 12.0947 7.44515 12.0293 7.48249 11.964C7.55715 11.8707 7.60848 11.796 7.63648 11.74C7.66448 11.684 7.69715 11.6 7.73449 11.488C7.76248 11.404 7.79048 11.306 7.81848 11.194C7.81848 11.1473 7.82782 11.0727 7.84648 10.97V10.928C7.85582 10.8627 7.86048 10.76 7.86048 10.62C7.86048 10.4147 7.85115 10.2653 7.83248 10.172L7.74848 9.752V9.78C7.70182 9.612 7.65515 9.486 7.60849 9.402L7.41249 9.066C7.36582 9.01 7.28648 8.926 7.17448 8.814C7.08115 8.73933 6.98782 8.674 6.89448 8.618H6.88048C6.83382 8.59 6.75915 8.55733 6.65648 8.52L6.57248 8.492C6.47915 8.47333 6.40448 8.464 6.34848 8.464L6.20848 8.45C6.15248 8.45 6.06382 8.464 5.94248 8.492L5.90048 8.506L5.71848 8.59L5.63448 8.646L5.35448 8.87L5.10248 9.136L4.62648 9.794C4.59848 9.84067 4.54248 9.91533 4.45848 10.018L4.12248 10.438C4.05715 10.5033 3.95915 10.592 3.82848 10.704C3.73515 10.7787 3.63248 10.8533 3.52048 10.928C3.40848 11.0027 3.29648 11.054 3.18448 11.082C3.07248 11.11 2.94648 11.124 2.80648 11.124H2.49848C2.38648 11.1053 2.30715 11.0867 2.26048 11.068C2.19515 11.068 2.12515 11.0447 2.05048 10.998L1.86848 10.886L1.74248 10.718C1.71448 10.6713 1.69115 10.6247 1.67248 10.578L1.65848 10.494C1.63982 10.4287 1.62115 10.34 1.60248 10.228L1.58848 9.92V5.468L0.804484 5.496V9.864C0.804484 10.1347 0.813818 10.326 0.832484 10.438C0.841818 10.578 0.865151 10.7367 0.902484 10.914L0.944484 11.04C0.991151 11.1707 1.02848 11.264 1.05648 11.32C1.13115 11.4413 1.20582 11.5393 1.28048 11.614C1.35515 11.7167 1.44848 11.796 1.56048 11.852C1.62582 11.8987 1.73315 11.95 1.88248 12.006C2.06915 12.062 2.21382 12.0947 2.31648 12.104C2.52182 12.1227 2.68515 12.132 2.80648 12.132C2.98382 12.132 3.13315 12.1133 3.25448 12.076C3.44115 12.02 3.57648 11.9687 3.66048 11.922C3.78182 11.866 3.90315 11.782 4.02448 11.67C4.15515 11.558 4.26248 11.446 4.34648 11.334C4.47715 11.446 4.57515 11.5253 4.64048 11.572C4.71515 11.6187 4.82715 11.6793 4.97648 11.754C5.08848 11.8193 5.20048 11.8753 5.31248 11.922L5.64848 12.076L5.99848 12.188L6.30648 12.272L6.65648 12.314C6.73115 12.3233 6.78715 12.328 6.82448 12.328H6.85248ZM12.9285 7.946L13.6285 7.246L12.9285 6.56L12.2425 7.246L12.9285 7.946ZM10.5345 11.11C10.4132 11.11 10.3245 11.11 10.2685 11.11C10.2218 11.1007 10.1518 11.0867 10.0585 11.068C10.0212 11.068 9.97448 11.0587 9.91848 11.04C9.86248 11.012 9.81582 10.9887 9.77848 10.97H9.80649C9.77848 10.9513 9.74582 10.9233 9.70848 10.886L9.65248 10.788L9.63848 10.676L9.61049 10.55C9.61049 10.4567 9.61982 10.382 9.63848 10.326V10.284C9.65715 10.2 9.67582 10.1347 9.69448 10.088L9.77848 9.878C9.83448 9.78467 9.87648 9.71933 9.90448 9.682C9.96048 9.60733 10.0025 9.556 10.0305 9.528L10.1985 9.402L10.3665 9.318L10.4645 9.304H10.5765C10.6698 9.304 10.7352 9.30867 10.7725 9.318L10.9545 9.402C11.0478 9.458 11.1178 9.50467 11.1645 9.542C11.2112 9.57933 11.2578 9.64 11.3045 9.724C11.3512 9.77067 11.3978 9.85467 11.4445 9.976C11.5005 10.088 11.5425 10.1907 11.5705 10.284C11.6078 10.396 11.6358 10.5173 11.6545 10.648L11.6965 11.068C11.4725 11.0867 11.2905 11.1007 11.1505 11.11C11.0198 11.11 10.8145 11.11 10.5345 11.11ZM5.28448 10.914L5.31248 10.928C5.23782 10.8907 5.15848 10.844 5.07448 10.788L4.97648 10.718L4.87848 10.634L4.94848 10.522L5.17248 10.2C5.24715 10.088 5.30315 10.0087 5.34048 9.962L5.49448 9.78C5.53182 9.724 5.58782 9.65867 5.66248 9.584L5.80248 9.458C5.87715 9.41133 5.93782 9.37867 5.98448 9.36C6.03115 9.34133 6.08248 9.332 6.13848 9.332C6.16648 9.332 6.20382 9.33667 6.25048 9.346L6.30648 9.36L6.47448 9.416C6.54915 9.472 6.59582 9.50933 6.61448 9.528C6.64248 9.54667 6.67982 9.57467 6.72648 9.612L6.78248 9.668C6.81048 9.70533 6.85248 9.77067 6.90848 9.864C6.94582 9.92 6.97848 9.99467 7.00648 10.088L7.09048 10.368C7.09982 10.4333 7.10448 10.536 7.10448 10.676L7.09048 10.886C7.09048 10.97 7.08582 11.0307 7.07648 11.068H7.06248C7.06248 11.124 7.04848 11.18 7.02048 11.236L6.95048 11.404L6.64248 11.362L6.34848 11.306L6.39048 11.32C6.18515 11.2733 5.99382 11.2173 5.81648 11.152C5.75115 11.1333 5.65782 11.096 5.53648 11.04L5.28448 10.914ZM15.2805 7.946L14.4265 8.114L14.5245 8.702C14.5618 8.954 14.5852 9.15933 14.5945 9.318C14.6132 9.46733 14.6318 9.69133 14.6505 9.99C14.6692 10.2047 14.6692 10.4333 14.6505 10.676L14.3565 10.83C14.3192 10.8487 14.2632 10.8673 14.1885 10.886L14.0905 10.914L13.9785 10.956L13.5725 11.012L13.1385 11.04H12.4525C12.4525 10.844 12.4385 10.6527 12.4105 10.466C12.3825 10.27 12.3405 10.088 12.2845 9.92L12.2985 9.948L12.1305 9.514C12.0372 9.32733 11.9625 9.192 11.9065 9.108V9.122C11.8318 9.00067 11.7525 8.898 11.6685 8.814C11.5378 8.702 11.4352 8.62267 11.3605 8.576H11.3465C11.2252 8.51067 11.1085 8.46867 10.9965 8.45C10.8938 8.422 10.7725 8.408 10.6325 8.408H10.6045C10.5018 8.408 10.4038 8.422 10.3105 8.45C10.2172 8.478 10.1145 8.52467 10.0025 8.59C9.89048 8.646 9.79248 8.71133 9.70848 8.786C9.59648 8.898 9.51715 8.98667 9.47048 9.052C9.39582 9.15467 9.32115 9.26667 9.24648 9.388C9.18115 9.50933 9.12515 9.64 9.07848 9.78V9.794C9.02248 9.91533 8.98048 10.0553 8.95248 10.214C8.93382 10.4193 8.92448 10.5733 8.92448 10.676C8.92448 10.8347 8.93382 10.9513 8.95248 11.026C8.97115 11.1567 9.00382 11.2593 9.05048 11.334C9.05982 11.418 9.09715 11.4973 9.16249 11.572L9.24648 11.67L9.34448 11.754C9.41915 11.81 9.49382 11.8567 9.56848 11.894C9.65248 11.9313 9.74115 11.9547 9.83448 11.964L10.1285 12.006C10.2032 12.0153 10.3152 12.02 10.4645 12.02H11.1365C11.3978 12.0013 11.5892 11.9827 11.7105 11.964L11.6685 11.992L11.6405 12.076V12.202L11.6265 12.23C11.5238 12.3887 11.3885 12.5473 11.2205 12.706C11.0525 12.8553 10.8938 12.9813 10.7445 13.084L10.7305 13.098C10.6372 13.154 10.5625 13.196 10.5065 13.224C10.3945 13.28 10.3105 13.3173 10.2545 13.336H10.2405C10.1565 13.3827 10.0818 13.4107 10.0165 13.42L9.82048 13.434C9.74582 13.434 9.68515 13.4293 9.63848 13.42C9.60115 13.42 9.54048 13.4107 9.45648 13.392H9.41449C9.31182 13.3827 9.19048 13.3593 9.05048 13.322C8.92915 13.294 8.82182 13.252 8.72848 13.196L8.74248 13.224L8.50448 13.784C8.60715 13.84 8.75648 13.9053 8.95248 13.98L9.05048 14.022L9.48449 14.176L9.55449 14.19C9.67582 14.218 9.76915 14.2367 9.83448 14.246L9.90448 14.26C9.99782 14.2693 10.0678 14.274 10.1145 14.274C10.1612 14.274 10.2405 14.2647 10.3525 14.246L10.6605 14.134C10.7538 14.0967 10.8612 14.0407 10.9825 13.966C11.1318 13.8727 11.2485 13.7933 11.3325 13.728C11.4818 13.5973 11.5938 13.4947 11.6685 13.42C11.7712 13.2987 11.8738 13.168 11.9765 13.028C12.0792 12.8973 12.1678 12.7433 12.2425 12.566C12.3172 12.3793 12.3685 12.202 12.3965 12.034V12.02H13.1385C13.3718 12.02 13.5398 12.0107 13.6425 11.992C13.7732 11.9827 13.9225 11.9593 14.0905 11.922C14.2678 11.8847 14.4032 11.8473 14.4965 11.81C14.5898 11.7727 14.6878 11.7213 14.7905 11.656C14.9305 11.572 15.0332 11.4833 15.0985 11.39C15.2105 11.2407 15.2852 11.1193 15.3225 11.026C15.3878 10.8767 15.4298 10.7367 15.4485 10.606C15.4765 10.466 15.4905 10.3167 15.4905 10.158C15.4905 9.71933 15.4718 9.332 15.4345 8.996C15.3972 8.688 15.3645 8.44067 15.3365 8.254L15.2805 7.946Z" fill="#0050FF"/>
</svg>
