<svg width="50" height="50" viewBox="0 0 50 50" fill="none" xmlns="http://www.w3.org/2000/svg">
<path d="M34.3266 20.5664V30.7864C34.2587 33.4421 33.156 35.9662 31.2536 37.8204C29.3513 39.6747 26.7998 40.7125 24.1433 40.7125C21.4867 40.7125 18.9353 39.6747 17.033 37.8204C15.1306 35.9662 14.0279 33.4421 13.96 30.7864H18C18.0524 32.3754 18.7205 33.8819 19.8631 34.9874C21.0058 36.0929 22.5334 36.711 24.1233 36.711C25.7132 36.711 27.2408 36.0929 28.3835 34.9874C29.5261 33.8819 30.1942 32.3754 30.2466 30.7864V28.7131C30.6321 28.4277 30.9954 28.1134 31.3333 27.7731C32.2841 26.8295 33.0382 25.7067 33.552 24.4696C34.0658 23.2326 34.3291 21.9059 34.3266 20.5664Z" fill="#0F197D"/>
<path opacity="0.6" d="M24.1402 23.8331V25.4864C22.8359 25.4846 21.5855 24.9657 20.6632 24.0434C19.7409 23.1211 19.222 21.8707 19.2202 20.5664H20.8735C20.8753 21.4322 21.22 22.2621 21.8323 22.8743C22.4445 23.4866 23.2744 23.8313 24.1402 23.8331Z" fill="#0F197D"/>
<path opacity="0.6" d="M35.5934 11.0929C35.4262 10.8865 35.2196 10.7155 34.9857 10.5898C34.7517 10.4641 34.4951 10.3862 34.2307 10.3608C33.9663 10.3353 33.6995 10.3628 33.4459 10.4416C33.1922 10.5203 32.9568 10.6488 32.7534 10.8196L30.5534 12.6663C29.0692 11.4643 27.2773 10.7035 25.3817 10.4705C23.4862 10.2375 21.5633 10.5417 19.8323 11.3485C18.1012 12.1552 16.6316 13.432 15.591 15.0334C14.5503 16.6348 13.9805 18.4963 13.9464 20.4058C13.9124 22.3153 14.4154 24.196 15.3983 25.8335C16.3811 27.471 17.8042 28.7994 19.5054 29.6674C21.2066 30.5354 23.1174 30.908 25.02 30.7428C26.9227 30.5776 28.7406 29.8812 30.2667 28.7329C30.646 28.4403 31.0026 28.1194 31.3334 27.7729C32.2817 26.8283 33.0334 25.7049 33.5449 24.468C34.0564 23.231 34.3176 21.9048 34.3134 20.5663C34.3147 18.8855 33.9026 17.2302 33.1134 15.7463L35.3334 13.9263C35.5378 13.7582 35.7069 13.5513 35.8308 13.3174C35.9547 13.0836 36.0309 12.8274 36.0551 12.5639C36.0793 12.3003 36.051 12.0346 35.9717 11.7821C35.8924 11.5296 35.7638 11.2954 35.5934 11.0929ZM30.26 20.7196C30.2343 21.7199 29.9639 22.6988 29.4725 23.5705C28.9811 24.4422 28.2837 25.1803 27.4412 25.7202C26.5987 26.2602 25.6368 26.5855 24.6395 26.6679C23.6422 26.7502 22.6399 26.587 21.7203 26.1925C20.8006 25.7981 19.9916 25.1843 19.3639 24.405C18.7362 23.6256 18.309 22.7044 18.1195 21.7218C17.9301 20.7393 17.9842 19.7252 18.2772 18.7684C18.5701 17.8115 19.093 16.941 19.8 16.2329C20.3742 15.6633 21.0534 15.2105 21.8 14.8996C22.9189 14.4396 24.1488 14.3208 25.335 14.558C26.5213 14.7953 27.6108 15.378 28.4667 16.2329C28.6 16.3663 28.72 16.5063 28.84 16.6463L28.8734 16.6863C29.7649 17.7773 30.2503 19.1439 30.2467 20.5529L30.26 20.7196Z" fill="#0F197D"/>
</svg>
