<?xml version="1.0" encoding="UTF-8"?>
<svg width="60px" height="60px" viewBox="0 0 60 60" version="1.1" xmlns="http://www.w3.org/2000/svg" xmlns:xlink="http://www.w3.org/1999/xlink">
    <title>Group 36</title>
    <g id="Website" stroke="none" stroke-width="1" fill="none" fill-rule="evenodd">
        <g id="Group-36">
            <circle id="Oval-Copy-4" fill="#FFFFFF" cx="30" cy="30" r="30"></circle>
            <g id="icons8-ringer_volume" transform="translate(13.000000, 13.000000)" fill-rule="nonzero">
                <path d="M3.02617289,2.69528428 C3.02617289,2.69528428 2.74299409,6.07332296 4.03956115,8.72019227 C5.33612821,11.3670616 8.90614012,16.8110157 10.3131291,15.8979589 C9.65059758,15.0057151 10.0949568,14.0012621 10.5936364,13.5117044 C10.9168877,13.1940801 12.4342986,11.7371708 13.4601538,10.7526259 C14.0300734,10.2060587 14.1645388,9.33824756 13.7878576,8.63965505 L10.1572917,1.90891524 C9.763691,1.17865078 8.91860711,0.832069262 8.13674868,1.0791104 L3.02617289,2.69528428 Z" id="Path" fill="#1A9BA1"></path>
                <path d="M32.3047157,31.9738271 C32.3047157,31.9738271 28.926677,32.2570059 26.2798077,30.9604389 C23.6329384,29.6638718 18.1889843,26.0938599 19.1020411,24.6868709 C19.9942849,25.3494024 20.9987379,24.9050432 21.4882956,24.4063636 C21.8059199,24.0831123 23.2628292,22.5657014 24.2473741,21.5398462 C24.7939413,20.9699266 25.6617524,20.8354612 26.360345,21.2121424 L33.0910848,24.8427083 C33.8213492,25.236309 34.1679307,26.0813929 33.9208896,26.8632513 L32.3047157,31.9738271 Z" id="Path" fill="#1A9BA1"></path>
                <path d="M14.1595937,20.8405081 C19.399582,26.0807865 25.4996157,29.9215314 32,32.4132324 L31.0522672,34.050155 C30.5881438,34.8517865 29.6058674,35.213185 28.7449363,34.8712737 C22.4633277,32.374258 16.5740981,28.5919746 11.4908844,23.5093653 C6.40767062,18.4267559 2.62559661,12.5363145 0.128719181,6.25435812 C-0.213173224,5.39426511 0.148205276,4.41193436 0.949792391,3.9477853 L2.58662442,3 C5.07907319,9.49985844 8.91960549,15.6011156 14.1595937,20.8405081 Z" id="Path" fill="#37C6D0"></path>
                <path d="M28.0902392,5.9092551 C30.3013613,8.12051536 31.250735,11.1149485 30.9427354,14 L33.1372325,14 C33.6088569,14 33.9938564,13.6193517 33.9991064,13.1476979 C34.0384813,9.7691162 32.776733,6.37828379 30.1989864,3.80125115 C27.6212399,1.22334346 24.2314944,-0.0384837228 20.8531239,0.000893685892 C20.3806245,0.00526895352 20,0.390292505 20,0.861946356 L20,3.0565806 C22.8848712,2.74768671 25.8791172,3.69711978 28.0902392,5.9092551 Z" id="Path" fill="#0078D4"></path>
                <path d="M25.841393,8.15829227 C27.4321138,9.74909884 28.0568524,11.9358016 27.7304834,14 L30.9434245,14 C31.2514189,11.1150224 30.3020613,8.12066594 28.0909768,5.90946231 C25.8790173,3.69738365 22.8848222,2.74797489 20,3.05686087 L20,6.26997513 C22.0640872,5.94271349 24.2506721,6.56748571 25.841393,8.15829227 Z" id="Path" fill="#199BE2"></path>
                <path d="M25.98013,8.01986997 C24.3516285,6.39136841 22.1131107,5.75179189 20,6.0859124 L20,9.41547251 C21.2567589,9.02581455 22.6828175,9.32679174 23.6780129,10.3219871 C24.6732083,11.3171825 24.9741855,12.7423453 24.5845275,14 L27.9140876,14 C28.2482081,11.8868893 27.6086316,9.64837153 25.98013,8.01986997 Z" id="Path" fill="#35C1F1"></path>
                <path d="M20.9260689,14 L24.8264976,14 C25.2367216,12.6769097 24.9198589,11.1755842 23.8721374,10.1278626 C22.8244158,9.08014109 21.3240333,8.76327841 20,9.17350241 L20,13.0739311 C20.000943,13.5860038 20.4149392,14 20.9260689,14 Z" id="Path" fill="#50E6FF"></path>
            </g>
        </g>
    </g>
</svg>