<svg width="24" height="25" viewBox="0 0 24 25" fill="none" xmlns="http://www.w3.org/2000/svg">
<path d="M20 6.39072H17.82C17.93 6.08072 18 5.74072 18 5.39072C18 3.73072 16.66 2.39072 15 2.39072C13.95 2.39072 13.04 2.93072 12.5 3.74072L12 4.41072L11.5 3.73072C10.96 2.93072 10.05 2.39072 9 2.39072C7.34 2.39072 6 3.73072 6 5.39072C6 5.74072 6.07 6.08072 6.18 6.39072H4C2.89 6.39072 2.01 7.28072 2.01 8.39072L2 19.3907C2 20.5007 2.89 21.3907 4 21.3907H20C21.11 21.3907 22 20.5007 22 19.3907V8.39072C22 7.28072 21.11 6.39072 20 6.39072ZM15 4.39072C15.55 4.39072 16 4.84072 16 5.39072C16 5.94072 15.55 6.39072 15 6.39072C14.45 6.39072 14 5.94072 14 5.39072C14 4.84072 14.45 4.39072 15 4.39072ZM9 4.39072C9.55 4.39072 10 4.84072 10 5.39072C10 5.94072 9.55 6.39072 9 6.39072C8.45 6.39072 8 5.94072 8 5.39072C8 4.84072 8.45 4.39072 9 4.39072ZM20 19.3907H4V17.3907H20V19.3907ZM20 14.3907H4V8.39072H9.08L7 11.2207L8.62 12.3907L11 9.15072L12 7.79072L13 9.15072L15.38 12.3907L17 11.2207L14.92 8.39072H20V14.3907Z" fill="#0050FF"/>
</svg>
