<svg width="18" height="18" viewBox="0 0 18 18" fill="none" xmlns="http://www.w3.org/2000/svg">
<g clip-path="url(#clip0)">
<path d="M17.25 9C17.25 11.688 15.063 13.875 12.375 13.875C9.687 13.875 7.5 11.688 7.5 9C7.5 6.312 9.687 4.125 12.375 4.125C15.063 4.125 17.25 6.312 17.25 9ZM12 8.12925C12 7.94775 12.1155 7.82175 12.219 7.82175H13.3125C13.623 7.82175 13.875 7.56975 13.875 7.25925C13.875 6.94875 13.623 6.69675 13.3125 6.69675H12.9375V6.5625C12.9375 6.252 12.6855 6 12.375 6C12.0645 6 11.8125 6.252 11.8125 6.5625V6.771C11.271 6.9555 10.875 7.491 10.875 8.12925C10.875 8.91975 11.478 9.5625 12.219 9.5625H12.5317C12.6352 9.5625 12.7507 9.68925 12.7507 9.87075C12.7507 10.0522 12.6352 10.1782 12.5317 10.1782H11.4375C11.127 10.1782 10.875 10.4302 10.875 10.7407C10.875 11.0512 11.127 11.3032 11.4375 11.3032H11.8125V11.4375C11.8125 11.748 12.0645 12 12.375 12C12.6855 12 12.9375 11.748 12.9375 11.4375V11.229C13.479 11.0445 13.875 10.509 13.875 9.87075C13.875 9.08025 13.272 8.4375 12.531 8.4375H12.2183C12.1155 8.4375 12 8.31075 12 8.12925Z" fill="#0050FF"/>
<path d="M11.25 2.73V2.25C11.25 1.8375 10.9125 1.5 10.5 1.5H10.125C9.7125 1.5 9.375 1.8375 9.375 2.25C9.375 2.6625 9.0375 3 8.625 3H4.875C4.4625 3 4.125 2.6625 4.125 2.25C4.125 1.8375 3.7875 1.5 3.375 1.5H3C2.5875 1.5 2.25 1.8375 2.25 2.25V15.75C2.25 16.1625 2.5875 16.5 3 16.5H10.5C10.9125 16.5 11.25 16.1625 11.25 15.75V15.2775C11.6175 15.3375 11.9925 15.375 12.375 15.375C12.5025 15.375 12.6225 15.375 12.75 15.3675V15.75C12.75 16.9875 11.7375 18 10.5 18H3C1.7625 18 0.75 16.9875 0.75 15.75V2.25C0.75 1.0125 1.7625 0 3 0H10.5C11.7375 0 12.75 1.0125 12.75 2.25V2.6325C12.6225 2.625 12.5025 2.625 12.375 2.625C11.9925 2.625 11.6175 2.6625 11.25 2.73Z" fill="#0050FF"/>
</g>
<defs>
<clipPath id="clip0">
<rect width="18" height="18" fill="white"/>
</clipPath>
</defs>
</svg>
