<svg width="122" height="26" viewBox="0 0 122 26" fill="none" xmlns="http://www.w3.org/2000/svg">
<g clip-path="url(#clip0_11402_166631)">
<path d="M52.8767 6.60941C51.594 6.61326 50.3304 6.9216 49.1901 7.50906C48.0497 8.09653 47.0651 8.94634 46.3173 9.98858C45.5695 11.0308 45.0798 12.2357 44.8885 13.5042C44.6972 14.7726 44.8097 16.0683 45.2169 17.2848C45.6241 18.5012 46.3143 19.6036 47.2307 20.5012C48.147 21.3989 49.2634 22.0662 50.488 22.4481C51.7126 22.8301 53.0104 22.9159 54.2746 22.6985C55.5388 22.4811 56.7333 21.9666 57.7599 21.1974V22.799H61.0023V14.6342C60.9816 12.4948 60.1157 10.4505 58.5935 8.9471C57.0712 7.44373 55.0162 6.60339 52.8767 6.60941ZM57.7599 14.959C57.7029 16.2309 57.1501 17.43 56.2201 18.2995C55.29 19.169 54.0565 19.6399 52.7836 19.6114C51.5107 19.5828 50.2996 19.0571 49.4094 18.1468C48.5193 17.2365 48.0208 16.0138 48.0208 14.7406C48.0208 13.4674 48.5193 12.2448 49.4094 11.3344C50.2996 10.4241 51.5107 9.89838 52.7836 9.86983C54.0565 9.84129 55.29 10.3122 56.2201 11.1817C57.1501 12.0512 57.7029 13.2503 57.7599 14.5222V14.959Z" fill="#00AB97"/>
<path d="M26.697 6.60938C25.4133 6.60967 24.148 6.91496 23.0054 7.5001C21.8628 8.08524 20.8755 8.93347 20.125 9.97493C19.3744 11.0164 18.882 12.2213 18.6884 13.4903C18.4948 14.7594 18.6054 16.0562 19.0112 17.2741C19.417 18.492 20.1064 19.5961 21.0225 20.4954C21.9387 21.3946 23.0553 22.0634 24.2806 22.4465C25.5058 22.8296 26.8045 22.9162 28.0697 22.699C29.335 22.4818 30.5305 21.9671 31.5578 21.1974V22.799H34.8002V14.6342C34.781 12.4982 33.9187 10.4564 32.4009 8.95334C30.8832 7.4503 28.8331 6.60781 26.697 6.60938ZM31.5578 14.959C31.5008 16.2309 30.948 17.43 30.018 18.2995C29.0879 19.169 27.8544 19.6399 26.5815 19.6114C25.3086 19.5828 24.0975 19.0571 23.2073 18.1468C22.3172 17.2364 21.8187 16.0138 21.8187 14.7406C21.8187 13.4674 22.3172 12.2447 23.2073 11.3344C24.0975 10.4241 25.3086 9.89835 26.5815 9.8698C27.8544 9.84126 29.0879 10.3121 30.018 11.1817C30.948 12.0512 31.5008 13.2502 31.5578 14.5222V14.959Z" fill="#00AB97"/>
<path d="M121.707 14.6356V0.148438H118.509V8.26844C117.308 7.35422 115.876 6.79369 114.374 6.65011C112.872 6.50652 111.359 6.78558 110.007 7.4558C108.655 8.12602 107.517 9.16074 106.722 10.4432C105.926 11.7257 105.505 13.2049 105.506 14.714V14.7532H105.534C105.534 16.8979 106.386 18.9547 107.902 20.4712C109.419 21.9877 111.476 22.8396 113.62 22.8396C115.765 22.8396 117.822 21.9877 119.338 20.4712C120.855 18.9547 121.707 16.8979 121.707 14.7532V14.6356ZM118.509 14.7588C118.509 16.0554 117.994 17.2989 117.077 18.2157C116.16 19.1326 114.917 19.6476 113.62 19.6476C112.324 19.6476 111.08 19.1326 110.163 18.2157C109.247 17.2989 108.731 16.0554 108.731 14.7588C108.731 14.7588 108.731 14.7308 108.731 14.7196C108.735 13.4504 109.235 12.2329 110.123 11.3268C111.012 10.4206 112.22 9.89749 113.489 9.869C114.757 9.84051 115.987 10.3089 116.916 11.1743C117.844 12.0396 118.398 13.2335 118.459 14.5012V14.7588H118.503H118.509Z" fill="#00AB97"/>
<path d="M44.51 9.85399V6.61719C43.4466 6.61792 42.3937 6.8281 41.4116 7.23572C40.4294 7.64335 39.5372 8.24043 38.7857 8.99288C38.0343 9.74533 37.4385 10.6384 37.0322 11.6211C36.626 12.6039 36.4172 13.657 36.418 14.7204V22.8012H39.6548V14.7204C39.6548 13.4317 40.1659 12.1956 41.0761 11.2833C41.9864 10.371 43.2213 9.85695 44.51 9.85399Z" fill="#00AB97"/>
<path d="M95.8003 6.60938C94.5163 6.60878 93.2506 6.91331 92.1074 7.49787C90.9642 8.08242 89.9763 8.93026 89.2251 9.97152C88.4739 11.0128 87.9808 12.2177 87.7866 13.4869C87.5924 14.756 87.7025 16.0532 88.108 17.2715C88.5135 18.4898 89.2026 19.5942 90.1187 20.4939C91.0348 21.3936 92.1515 22.0627 93.3769 22.4461C94.6023 22.8295 95.9012 22.9162 97.1667 22.6991C98.4322 22.482 99.628 21.9673 100.655 21.1974V22.799H103.898V14.6342C103.877 12.4997 103.015 10.4595 101.499 8.95693C99.9828 7.45436 97.9349 6.61075 95.8003 6.60938ZM100.655 14.959C100.598 16.2309 100.046 17.43 99.1156 18.2995C98.1856 19.169 96.9521 19.6399 95.6792 19.6114C94.4063 19.5828 93.1951 19.0571 92.305 18.1468C91.4148 17.2364 90.9164 16.0138 90.9164 14.7406C90.9164 13.4674 91.4148 12.2447 92.305 11.3344C93.1951 10.4241 94.4063 9.89835 95.6792 9.8698C96.9521 9.84126 98.1856 10.3121 99.1156 11.1817C100.046 12.0512 100.598 13.2502 100.655 14.5222V14.959Z" fill="#00AB97"/>
<path d="M79.5216 6.56055C78.5888 6.56135 77.667 6.76164 76.818 7.14798C75.9691 7.53432 75.2125 8.09778 74.5992 8.80055C73.5972 7.65793 72.2285 6.89992 70.7283 6.6567C69.2282 6.41349 67.6901 6.70026 66.3784 7.46775V6.62215H63.1416V12.5861C63.1416 12.7541 63.1416 12.9277 63.1416 13.1013V22.8005H66.412V13.1013C66.447 12.2537 66.8083 11.4525 67.4205 10.8651C68.0326 10.2778 68.8481 9.9498 69.6964 9.9498C70.5447 9.9498 71.3602 10.2778 71.9723 10.8651C72.5845 11.4525 72.9458 12.2537 72.9808 13.1013V22.8005H76.24V13.1013C76.24 12.231 76.5857 11.3963 77.2012 10.7809C77.8166 10.1655 78.6513 9.81975 79.5216 9.81975C80.3919 9.81975 81.2266 10.1655 81.842 10.7809C82.4575 11.3963 82.8032 12.231 82.8032 13.1013V22.8005H86.0792V13.1013C86.0733 11.3655 85.38 9.70275 84.151 8.47691C82.922 7.25107 81.2574 6.56202 79.5216 6.56055Z" fill="#00AB97"/>
<g opacity="0.5">
<path opacity="0.5" d="M10.1937 3.58594H6.99609V6.78354H10.1937V3.58594Z" fill="#00AB97"/>
<path opacity="0.5" d="M10.1937 22.6543H6.99609V25.8519H10.1937V22.6543Z" fill="#00AB97"/>
</g>
<path d="M13.4635 0.148438V8.24044C12.0044 7.14256 10.2173 6.56969 8.39181 6.61469C6.56636 6.65968 4.80961 7.31992 3.40638 8.48835C2.00315 9.65678 1.03569 11.2649 0.660857 13.052C0.286021 14.8391 0.525779 16.7005 1.34126 18.3343C2.15674 19.9681 3.50014 21.2785 5.15367 22.0532C6.80719 22.8279 8.6739 23.0214 10.4512 22.6023C12.2284 22.1833 13.8121 21.1762 14.9453 19.7444C16.0786 18.3126 16.695 16.54 16.6947 14.714V0.154038L13.4635 0.148438ZM8.59149 19.5916C7.6279 19.5916 6.68595 19.3059 5.88475 18.7706C5.08356 18.2352 4.4591 17.4743 4.09035 16.5841C3.7216 15.6938 3.62512 14.7142 3.8131 13.7692C4.00109 12.8241 4.4651 11.956 5.14647 11.2746C5.82783 10.5933 6.69593 10.1292 7.64101 9.94125C8.58609 9.75326 9.56568 9.84975 10.4559 10.2185C11.3462 10.5872 12.1071 11.2117 12.6424 12.0129C13.1778 12.8141 13.4635 13.756 13.4635 14.7196C13.4635 15.3594 13.3375 15.993 13.0926 16.5841C12.8478 17.1752 12.4889 17.7123 12.0365 18.1647C11.5841 18.6171 11.047 18.9759 10.4559 19.2208C9.86483 19.4656 9.23129 19.5916 8.59149 19.5916Z" fill="#00AB97"/>
</g>
<defs>
<clipPath id="clip0_11402_166631">
<rect width="122" height="26" fill="white"/>
</clipPath>
</defs>
</svg>
