<svg width="20" height="20" viewBox="0 0 20 20" fill="none" xmlns="http://www.w3.org/2000/svg">
<path d="M4.16732 5.83464C4.16732 4.91797 4.91732 4.16797 5.83398 4.16797H8.33398V5.83464H5.83398V8.04297L8.73398 11.668H11.6673V7.5013H15.0007C16.8423 7.5013 18.334 8.99297 18.334 10.8346V13.3346H16.6673C16.6673 14.718 15.5507 15.8346 14.1673 15.8346C12.784 15.8346 11.6673 14.718 11.6673 13.3346H7.93398L4.16732 8.6263V5.83464ZM14.1673 14.168C14.6257 14.168 15.0007 13.793 15.0007 13.3346H13.334C13.334 13.793 13.709 14.168 14.1673 14.168Z" fill="#001E2D"/>
<path d="M11.6673 5H15.834V6.66667H11.6673V5Z" fill="#001E2D"/>
<path d="M4.16797 10.8359C5.5513 10.8359 6.66797 11.9526 6.66797 13.3359C6.66797 14.7193 5.5513 15.8359 4.16797 15.8359C2.78464 15.8359 1.66797 14.7193 1.66797 13.3359C1.66797 11.9526 2.78464 10.8359 4.16797 10.8359ZM4.16797 14.1693C4.6263 14.1693 5.0013 13.7943 5.0013 13.3359C5.0013 12.8776 4.6263 12.5026 4.16797 12.5026C3.70964 12.5026 3.33464 12.8776 3.33464 13.3359C3.33464 13.7943 3.70964 14.1693 4.16797 14.1693Z" fill="#001E2D"/>
</svg>
