<svg width="24" height="24" viewBox="0 0 24 24" fill="none" xmlns="http://www.w3.org/2000/svg">
<path d="M4.566 9L4.551 9.111C4.09994 9.25842 3.70704 9.54469 3.42847 9.92886C3.1499 10.313 2.99993 10.7755 3 11.25V15.75C3 16.3467 3.23705 16.919 3.65901 17.341C4.08097 17.7629 4.65326 18 5.25 18H18.75C19.3467 18 19.919 17.7629 20.341 17.341C20.7629 16.919 21 16.3467 21 15.75V11.25C21.0001 10.7738 20.8491 10.3099 20.5688 9.92499C20.2884 9.54008 19.8932 9.25403 19.44 9.108L19.4265 9H20.25C20.4489 9 20.6397 8.92098 20.7803 8.78033C20.921 8.63968 21 8.44891 21 8.25C21 8.05109 20.921 7.86032 20.7803 7.71967C20.6397 7.57902 20.4489 7.5 20.25 7.5H19.2345L18.9945 5.6205C18.9022 4.89668 18.5493 4.23132 18.0017 3.74896C17.4542 3.26661 16.7497 3.00034 16.02 3H7.9785C7.24924 2.99984 6.54489 3.26531 5.99717 3.74678C5.44944 4.22825 5.09584 4.89274 5.0025 5.616L4.7595 7.5H3.75C3.55109 7.5 3.36032 7.57902 3.21967 7.71967C3.07902 7.86032 3 8.05109 3 8.25C3 8.44891 3.07902 8.63968 3.21967 8.78033C3.36032 8.92098 3.55109 9 3.75 9H4.566ZM7.9785 4.5H16.0185C16.3834 4.49996 16.7357 4.63291 17.0096 4.87395C17.2835 5.11499 17.4602 5.4476 17.5065 5.8095L17.9145 9H6.0795L6.4905 5.808C6.53717 5.44637 6.71397 5.11412 6.98783 4.87339C7.2617 4.63265 7.61387 4.49992 7.9785 4.5ZM7.875 14.6235C7.72746 14.6235 7.58136 14.5944 7.44506 14.538C7.30875 14.4815 7.18489 14.3988 7.08057 14.2944C6.97624 14.1901 6.89348 14.0663 6.83702 13.9299C6.78056 13.7936 6.7515 13.6475 6.7515 13.5C6.7515 13.3525 6.78056 13.2064 6.83702 13.0701C6.89348 12.9337 6.97624 12.8099 7.08057 12.7056C7.18489 12.6012 7.30875 12.5185 7.44506 12.462C7.58136 12.4056 7.72746 12.3765 7.875 12.3765C8.17297 12.3765 8.45874 12.4949 8.66943 12.7056C8.88013 12.9163 8.9985 13.202 8.9985 13.5C8.9985 13.798 8.88013 14.0837 8.66943 14.2944C8.45874 14.5051 8.17297 14.6235 7.875 14.6235V14.6235ZM16.122 14.6235C15.9745 14.6235 15.8284 14.5944 15.6921 14.538C15.5557 14.4815 15.4319 14.3988 15.3276 14.2944C15.2232 14.1901 15.1405 14.0663 15.084 13.9299C15.0276 13.7936 14.9985 13.6475 14.9985 13.5C14.9985 13.3525 15.0276 13.2064 15.084 13.0701C15.1405 12.9337 15.2232 12.8099 15.3276 12.7056C15.4319 12.6012 15.5557 12.5185 15.6921 12.462C15.8284 12.4056 15.9745 12.3765 16.122 12.3765C16.42 12.3765 16.7057 12.4949 16.9164 12.7056C17.1271 12.9163 17.2455 13.202 17.2455 13.5C17.2455 13.798 17.1271 14.0837 16.9164 14.2944C16.7057 14.5051 16.42 14.6235 16.122 14.6235Z" fill="#001E2D"/>
<path d="M18.7454 19.5H16.4954V19.875C16.4954 20.1734 16.6139 20.4595 16.8249 20.6705C17.0358 20.8815 17.322 21 17.6204 21C17.9187 21 18.2049 20.8815 18.4159 20.6705C18.6268 20.4595 18.7454 20.1734 18.7454 19.875V19.5Z" fill="#001E2D"/>
<path d="M7.5 19.5H5.25V19.875C5.25 20.1734 5.36853 20.4595 5.5795 20.6705C5.79048 20.8815 6.07663 21 6.375 21C6.67337 21 6.95952 20.8815 7.1705 20.6705C7.38147 20.4595 7.5 20.1734 7.5 19.875V19.5Z" fill="#001E2D"/>
</svg>
