<svg width="114" height="26" viewBox="0 0 114 26" fill="none" xmlns="http://www.w3.org/2000/svg">
<g clip-path="url(#clip0_11402_166681)">
<path d="M82.0035 16.5928C81.9839 14.52 81.2593 12.5143 79.9466 10.8995C78.6339 9.28465 76.8099 8.15499 74.7689 7.69291C72.728 7.23083 70.5893 7.46328 68.6982 8.35275C66.8071 9.24221 65.274 10.7368 64.3465 12.5951C63.4189 14.4534 63.151 16.567 63.586 18.5946C64.0211 20.6222 65.1337 22.4455 66.7441 23.77C68.3546 25.0945 70.3689 25.8429 72.4619 25.8945C74.5549 25.946 76.6043 25.2976 78.2793 24.054V25.8976H82.0115V16.5928H82.0035ZM72.7009 22.2182C71.611 22.2169 70.5454 21.8991 69.6361 21.3041C68.7269 20.7091 68.0138 19.8631 67.5854 18.8709C67.157 17.8786 67.032 16.7837 67.226 15.7219C67.4199 14.66 67.9242 13.6777 68.6764 12.8968C69.4286 12.1159 70.3956 11.5706 71.4578 11.3285C72.5199 11.0864 73.6305 11.1581 74.6518 11.5348C75.6732 11.9114 76.5605 12.5765 77.2039 13.4475C77.8473 14.3186 78.2184 15.3574 78.2714 16.4352V16.9316C78.2118 18.3543 77.5987 19.6991 76.5604 20.6845C75.5221 21.6698 74.1392 22.2194 72.7009 22.2182Z" fill="#87009B"/>
<path d="M93.5339 7.47656C92.3127 7.47656 91.1034 7.71485 89.9752 8.17781C88.847 8.64077 87.822 9.31932 86.9588 10.1747C86.0956 11.03 85.4111 12.0454 84.9445 13.1628C84.4779 14.2802 84.2382 15.4777 84.2393 16.6869V25.8972H87.9555V16.6869C87.9555 15.2242 88.5424 13.8214 89.5871 12.7871C90.6317 11.7528 92.0486 11.1717 93.526 11.1717V7.47656H93.5339Z" fill="#87009B"/>
<path d="M103.752 7.13087C102.073 7.1298 100.425 7.57837 98.9819 8.4291C97.5392 9.27983 96.3557 10.501 95.5568 11.9634C94.7579 13.4257 94.3733 15.0748 94.4437 16.7359C94.5142 18.397 95.0371 20.0083 95.9571 21.3992C96.877 22.79 98.1598 23.9087 99.6695 24.6366C101.179 25.3646 102.86 25.6748 104.533 25.5343C106.206 25.3938 107.81 24.8079 109.174 23.8386C110.538 22.8694 111.613 21.5528 112.283 20.0284H107.93C107.286 20.7505 106.462 21.2929 105.54 21.6017C104.619 21.9104 103.631 21.9748 102.677 21.7883C101.722 21.6018 100.833 21.171 100.099 20.5388C99.365 19.9066 98.8109 19.095 98.4921 18.1848H112.88C113.008 17.5786 113.072 16.9606 113.071 16.3412C113.071 15.1303 112.83 13.9314 112.361 12.8129C111.893 11.6944 111.206 10.6784 110.34 9.82293C109.475 8.96747 108.447 8.28937 107.317 7.82744C106.187 7.3655 104.975 7.1288 103.752 7.13087ZM98.4841 14.4975C98.8612 13.4111 99.5716 12.4684 100.516 11.801C101.46 11.1336 102.592 10.7748 103.752 10.7748C104.912 10.7748 106.044 11.1336 106.988 11.801C107.933 12.4684 108.643 13.4111 109.02 14.4975H98.4841Z" fill="#87009B"/>
<path d="M51.8591 7.46823C49.8511 7.47049 47.8975 8.11432 46.2887 9.30399V0.101562H42.5645V16.647C42.5634 17.7023 42.7465 18.7498 43.1056 19.7434C43.1931 19.9876 43.2886 20.224 43.4 20.4604C43.57 20.8296 43.764 21.1876 43.9809 21.5319L44.3311 22.0519C44.5746 22.3868 44.8405 22.7053 45.1269 23.0052L45.2462 23.1313C45.9243 23.8097 46.7057 24.3787 47.5619 24.8173C48.1679 25.1356 48.8087 25.384 49.4718 25.5579C50.2512 25.7601 51.0534 25.8634 51.8591 25.8652C52.2369 25.8657 52.6144 25.842 52.9891 25.7943C55.3498 25.5197 57.5147 24.3608 59.0396 22.5555C60.5645 20.7503 61.3335 18.4356 61.1889 16.0866C61.0443 13.7377 59.9971 11.5326 58.2621 9.92402C56.5271 8.31547 54.236 7.42547 51.8591 7.43671V7.46823ZM51.8591 22.2173C50.4627 22.2193 49.1165 21.7019 48.0871 20.7676C47.9366 20.633 47.7956 20.4883 47.6654 20.3343L47.4505 20.09C47.2875 19.8821 47.1386 19.6636 47.0049 19.4361C46.9492 19.3416 46.8935 19.2391 46.8457 19.1367C46.7172 18.8835 46.6107 18.62 46.5274 18.3488C46.3501 17.8096 46.2614 17.2456 46.2648 16.6785V16.4579C46.3178 15.3801 46.6889 14.3413 47.3323 13.4703C47.9756 12.5992 48.863 11.9342 49.8843 11.5575C50.9057 11.1809 52.0162 11.1091 53.0784 11.3512C54.1405 11.5933 55.1076 12.1386 55.8598 12.9195C56.612 13.7005 57.1163 14.6827 57.3102 15.7446C57.5041 16.8065 57.3791 17.9014 56.9507 18.8936C56.5223 19.8859 55.8093 20.7319 54.9 21.3269C53.9907 21.9219 52.9252 22.2397 51.8352 22.241L51.8591 22.2173Z" fill="#87009B"/>
<path d="M31.0098 25.8814C29.1708 25.8845 27.3722 25.3475 25.8416 24.3382C24.311 23.3289 23.1172 21.8928 22.4113 20.2115C21.7054 18.5303 21.519 16.6795 21.8759 14.8934C22.2327 13.1072 23.1167 11.466 24.4159 10.1775C25.7152 8.88891 27.3713 8.0109 29.1747 7.65454C30.9781 7.29819 32.8478 7.47951 34.5471 8.17555C36.2464 8.87159 37.699 10.0511 38.721 11.5648C39.743 13.0784 40.2885 14.8582 40.2885 16.679C40.2864 19.1162 39.3087 21.4533 37.5695 23.1782C35.8303 24.9031 33.4715 25.8751 31.0098 25.8814ZM31.0098 11.1166C29.8986 11.1166 28.8124 11.4428 27.8885 12.054C26.9646 12.6652 26.2445 13.5339 25.8193 14.5503C25.3941 15.5667 25.2828 16.6851 25.4996 17.7642C25.7164 18.8432 26.2514 19.8343 27.0371 20.6122C27.8229 21.3901 28.8239 21.9199 29.9137 22.1345C31.0036 22.3492 32.1332 22.239 33.1598 21.818C34.1864 21.397 35.0638 20.684 35.6811 19.7693C36.2985 18.8546 36.628 17.7791 36.628 16.679C36.6259 15.2044 36.0333 13.7908 34.9801 12.7481C33.927 11.7053 32.4992 11.1186 31.0098 11.1166Z" fill="#87009B"/>
<g opacity="0.6">
<path d="M15.7953 16.679C15.7994 16.7393 15.7994 16.7999 15.7953 16.8602H19.4717C19.4717 16.805 19.4717 16.742 19.4717 16.679C19.4696 14.239 18.4897 11.8995 16.7471 10.1742C15.0044 8.44886 12.6415 7.47865 10.1771 7.47656H10.1055V11.1087H10.1771C11.6679 11.1108 13.0968 11.6986 14.1502 12.743C15.2036 13.7874 15.7953 15.203 15.7953 16.679Z" fill="#87009B"/>
</g>
<path d="M15.7946 0.117188V16.6626C15.795 17.6773 15.5151 18.6727 14.9851 19.5411C14.4552 20.4095 13.6954 21.1179 12.788 21.5896C11.8807 22.0612 10.8603 22.2782 9.8374 22.2169C8.81447 22.1557 7.82793 21.8186 6.98459 21.2422C6.14125 20.6657 5.47322 19.8719 5.05281 18.9465C4.6324 18.0212 4.47563 16.9997 4.59947 15.9925C4.72331 14.9853 5.12305 14.0308 5.7554 13.2324C6.38775 12.4339 7.22864 11.8219 8.18704 11.4626V12.739C8.18727 12.8001 8.20588 12.8597 8.24049 12.9103C8.27511 12.9608 8.32417 13 8.38138 13.0228C8.4386 13.0457 8.50139 13.0511 8.56174 13.0384C8.62209 13.0258 8.67726 12.9956 8.7202 12.9517L11.9829 9.72143C12.0399 9.66508 12.0851 9.59815 12.116 9.52447C12.1469 9.45079 12.1628 9.3718 12.1628 9.29204C12.1628 9.21227 12.1469 9.13328 12.116 9.0596C12.0851 8.98592 12.0399 8.91899 11.9829 8.86264L8.7202 5.62446C8.67679 5.5801 8.62089 5.54972 8.55978 5.53729C8.49868 5.52486 8.4352 5.53095 8.37764 5.55476C8.32008 5.57858 8.27111 5.61902 8.23711 5.6708C8.20311 5.72259 8.18566 5.78332 8.18704 5.84507V7.68082C6.47533 8.05217 4.90452 8.89503 3.6558 10.1122C2.40707 11.3293 1.53129 12.8712 1.12949 14.5599C0.72768 16.2486 0.816214 18.0153 1.38488 19.6564C1.95354 21.2974 2.97916 22.7458 4.34344 23.8346C5.70773 24.9234 7.35508 25.6082 9.09551 25.81C10.8359 26.0117 12.5985 25.7223 14.1799 24.975C15.7614 24.2277 17.0972 23.053 18.0334 21.5865C18.9696 20.1199 19.468 18.4212 19.4711 16.6863V0.140824L15.7946 0.117188Z" fill="#87009B"/>
</g>
<defs>
<clipPath id="clip0_11402_166681">
<rect width="113" height="26" fill="white" transform="translate(0.5)"/>
</clipPath>
</defs>
</svg>
