<svg id="Layer_2" data-name="Layer 2" xmlns="http://www.w3.org/2000/svg" viewBox="0 0 75 75"><title>Brand architecture</title><rect width="75" height="75" style="fill:#87009b"/><g style="opacity:0.6000000000000001"><path d="M46.72,44h6.05c0-.14,0-.28,0-.42A15.31,15.31,0,0,0,37.54,28.33v6a9.27,9.27,0,0,1,9.21,9.25C46.75,43.76,46.73,43.9,46.72,44Z" style="fill:#fff"/></g><path d="M52.24,16.09h-5a.55.55,0,0,0-.54.55v27A9.25,9.25,0,1,1,34.23,35V37.1a.51.51,0,0,0,.87.36l5.37-5.38a1,1,0,0,0,0-1.43L35.1,25.28a.51.51,0,0,0-.87.36v3.05a15.29,15.29,0,1,0,18.56,15h0v-27A.55.55,0,0,0,52.24,16.09Z" style="fill:#fff"/></svg>