<svg width="200" height="160" viewBox="0 0 200 160" fill="none" xmlns="http://www.w3.org/2000/svg">
<g clip-path="url(#clip0_5481_88136)">
<path d="M116.718 18.8327C115.205 16.5645 113.413 14.1428 110.606 13.4022C107.355 12.5445 104.015 14.2484 101.182 15.9297C92.7111 20.9579 84.553 26.4071 76.7456 32.2523L76.7542 32.3403C82.8325 31.9603 88.9109 31.5803 94.9893 31.2003C99.3809 30.9257 103.923 30.6133 107.804 28.7299C109.277 28.0152 110.713 27.0605 112.381 26.994C114.455 26.9113 116.263 28.2241 117.683 29.5956C126.087 37.7085 128.519 50.1151 137.948 57.2429C132.002 43.9508 124.904 31.1071 116.718 18.8327Z" fill="#F2F2F2"/>
<path d="M168.376 87.6448C167.447 86.5809 167.067 86.3318 166.15 85.2581C158.686 76.5062 151.67 67.4587 145.103 58.1156C140.642 51.7701 136.403 45.3028 132.384 38.7136C130.471 35.581 128.611 32.4239 126.802 29.2421C125.399 26.7751 124.028 24.2933 122.687 21.7967C122.304 21.0836 121.931 20.3673 121.561 19.6493C120.687 17.9609 119.83 16.2643 118.91 14.5988C117.861 12.7006 116.585 10.7106 114.659 9.43524C113.782 8.83102 112.734 8.46544 111.637 8.38121C110.07 8.28941 108.623 8.87626 107.263 9.5172C97.3048 14.2632 88.0096 20.0742 79.5767 26.8259C71.1309 33.5503 63.5817 41.1474 57.083 49.4621C56.8842 49.7194 56.4141 49.4736 56.6147 49.2146C57.4049 48.2015 58.2108 47.1994 59.0323 46.2082C69.2471 33.892 81.7721 23.3007 96.0346 14.9185C98.4341 13.5087 100.879 12.1651 103.369 10.8876C104.623 10.2434 105.884 9.60736 107.166 9.01068C108.422 8.42548 109.757 7.89928 111.192 7.87961C116.078 7.81076 118.608 12.8268 120.345 16.202C120.892 17.2642 121.444 18.3232 122.004 19.3788C124.117 23.3868 126.312 27.3581 128.589 31.2928C129.994 33.7222 131.43 36.1373 132.896 38.5382C137.46 46.0148 142.31 53.34 147.448 60.5138C154.254 70.0165 161.006 78.411 168.759 87.2973C168.973 87.5432 168.591 87.894 168.376 87.6448Z" fill="#E4E4E4"/>
<path d="M79.094 24.3492C78.8101 24.0624 78.528 23.7755 78.2423 23.4886C75.9893 21.2298 73.5719 18.9971 70.478 17.7021C69.0029 17.0652 67.3925 16.7268 65.7587 16.7104C64.0699 16.7153 62.4191 17.1169 60.8586 17.6792C60.1209 17.9464 59.3994 18.2496 58.6888 18.5726C57.8769 18.943 57.0795 19.3381 56.2858 19.7364C54.7958 20.4839 53.3252 21.2642 51.8739 22.0772C48.9862 23.6952 46.1889 25.4366 43.4821 27.3015C42.0789 28.2686 40.7047 29.2675 39.3594 30.298C38.1082 31.2553 36.8823 32.2383 35.6816 33.247C35.4249 33.4617 35.0415 33.1142 35.2983 32.8995C35.6147 32.6323 35.9348 32.3667 36.2548 32.1045C37.1589 31.3635 38.0775 30.6368 39.0105 29.9243C40.7119 28.6227 42.4574 27.3714 44.247 26.1704C47.0298 24.3017 49.9083 22.5597 52.8827 20.9445C54.3691 20.138 55.8759 19.3654 57.4032 18.6267C57.8643 18.4037 58.3308 18.1857 58.8027 17.9792C59.8735 17.4895 60.9861 17.0789 62.1297 16.7514C63.7497 16.2763 65.4637 16.1236 67.1546 16.3039C68.7873 16.5192 70.3604 17.0125 71.7908 17.7579C74.8285 19.2971 77.1845 21.6773 79.4773 24.0001C79.7088 24.2361 79.3272 24.5853 79.094 24.3492Z" fill="#E4E4E4"/>
<path d="M141.335 47.7571L148.614 45.3435L152.228 44.1451C153.405 43.7548 154.579 43.3105 155.796 43.0311C156.854 42.7572 157.976 42.7702 159.026 43.0684C159.962 43.3824 160.818 43.8638 161.545 44.484C162.287 45.1036 162.978 45.7722 163.611 46.4842C164.398 47.3415 165.173 48.2078 165.952 49.0711C169.166 52.6344 172.358 56.2131 175.53 59.8073C178.702 63.4014 181.853 67.0109 184.982 70.6355C188.119 74.269 191.234 77.9178 194.328 81.5817C194.707 82.0305 195.086 82.4796 195.464 82.9289C195.673 83.1771 196.145 82.9324 195.933 82.6807C192.816 78.9799 189.678 75.2943 186.518 71.6238C183.35 67.9446 180.16 64.281 176.948 60.6329C173.736 56.985 170.503 53.3529 167.248 49.7365C166.437 48.8356 165.625 47.9357 164.811 47.0367C164.125 46.2784 163.446 45.5119 162.694 44.8062C161.312 43.5106 159.586 42.3657 157.519 42.3347C156.304 42.3164 155.128 42.6659 154 43.0361C152.783 43.4352 151.569 43.8418 150.353 44.2448L143.023 46.6753L141.191 47.2829C140.866 47.3908 141.006 47.8662 141.335 47.7571H141.335Z" fill="#E4E4E4"/>
<path d="M69.52 20.5439C65.8209 18.8204 61.0838 19.158 57.6846 21.3112C64.1683 22.3253 70.581 23.6822 76.89 25.3749C74.2702 23.983 72.2208 21.8023 69.52 20.5439Z" fill="#F2F2F2"/>
<path d="M57.6482 21.3057L56.936 21.8304C57.1769 21.6467 57.4273 21.4746 57.6846 21.3116C57.6724 21.3097 57.6603 21.3076 57.6482 21.3057Z" fill="#F2F2F2"/>
<path d="M161.271 47.7807C160.555 46.9899 159.78 46.162 158.708 45.8408L157.708 45.8766C165.325 58.0786 175.612 68.7407 187.938 77.2083C179.049 67.3991 170.16 57.5899 161.271 47.7807Z" fill="#F2F2F2"/>
<path d="M115.461 112.378C115.434 112.378 115.407 112.374 115.382 112.365L96.1011 105.944C96.0441 105.925 95.9978 105.886 95.9723 105.837C95.9468 105.787 95.9443 105.73 95.9652 105.678C95.9861 105.626 96.0288 105.584 96.0839 105.561C96.139 105.538 96.2019 105.536 96.2588 105.555L115.54 111.976C115.59 111.993 115.632 112.025 115.659 112.067C115.686 112.109 115.695 112.159 115.686 112.207C115.677 112.255 115.649 112.298 115.608 112.329C115.566 112.361 115.514 112.378 115.461 112.378Z" fill="black"/>
<path d="M80.222 100.347C80.195 100.347 80.1683 100.342 80.1431 100.334L60.8623 93.9128C60.8053 93.8939 60.759 93.8552 60.7336 93.8053C60.7081 93.7553 60.7055 93.6983 60.7264 93.6466C60.7474 93.595 60.79 93.553 60.8451 93.5299C60.9002 93.5068 60.9631 93.5045 61.0201 93.5235L80.3008 99.9445C80.3513 99.9613 80.3936 99.9937 80.4203 100.036C80.4471 100.078 80.4566 100.128 80.4472 100.176C80.4378 100.223 80.41 100.267 80.3689 100.298C80.3277 100.329 80.2757 100.347 80.2219 100.347H80.222Z" fill="black"/>
<path d="M44.2967 88.3144C44.2697 88.3144 44.243 88.3101 44.2178 88.3016L24.937 81.8806C24.9088 81.8712 24.8829 81.8569 24.8608 81.8384C24.8387 81.82 24.8209 81.7977 24.8083 81.773C24.7956 81.7483 24.7885 81.7216 24.7873 81.6944C24.7861 81.6671 24.7908 81.64 24.8011 81.6144C24.8115 81.5888 24.8273 81.5654 24.8477 81.5453C24.868 81.5253 24.8926 81.5091 24.9198 81.4977C24.9471 81.4862 24.9766 81.4798 25.0066 81.4787C25.0366 81.4776 25.0666 81.4818 25.0948 81.4912L44.3755 87.9123C44.426 87.9291 44.4683 87.9614 44.495 88.0037C44.5218 88.0459 44.5313 88.0953 44.5219 88.1433C44.5125 88.1913 44.4848 88.2347 44.4436 88.266C44.4024 88.2973 44.3504 88.3144 44.2967 88.3144Z" fill="black"/>
<path d="M40.6843 57.1269C39.8805 56.964 39.0665 56.8353 38.2626 56.7457L38.1457 56.7326C32.8092 56.1566 28.304 58.1759 27.6664 61.4301L27.5531 62.0188C27.4823 62.3912 27.406 62.7915 27.3152 63.2344C27.2713 63.453 27.5135 63.6767 27.866 63.7481L156.21 89.7576C165.273 91.5341 174.307 93.2891 183.059 94.9735C184.697 95.3091 186.356 95.5524 188.027 95.7019C190.528 95.894 192.358 95.6412 193.624 94.9292L193.625 94.9292C195.198 94.047 195.594 92.6148 195.917 90.9715C196.569 87.6531 197.262 84.1688 197.953 80.6951C198.562 77.6335 199.17 74.5802 199.745 71.6558C200.084 69.9197 200.267 68.3639 199.087 66.9072C197.806 65.331 195.064 64.1078 190.935 63.2712C190.886 63.2611 190.836 63.2511 190.785 63.241C177.836 60.6672 163.872 62.7121 156.038 68.3297C155.136 68.9766 154.268 69.689 153.429 70.3781C152.187 71.4455 150.864 72.4321 149.47 73.3305C148.7 73.8111 147.883 74.2268 147.029 74.5724C146.97 74.5982 146.904 74.6252 146.834 74.6496C146.673 74.7155 146.507 74.7768 146.346 74.8289C145.411 75.1558 144.44 75.3921 143.45 75.5337L143.351 75.5471C143.277 75.5587 143.196 75.5692 143.116 75.5775C142.549 75.6466 141.978 75.6874 141.405 75.6996C138.931 75.7637 136.237 75.3533 133.398 74.4795C130.779 73.6638 128.276 72.5669 125.944 71.2121C123.469 69.7777 121.221 68.159 119.047 66.5937C118.092 65.9059 117.104 65.1949 116.111 64.5097C115.925 64.3807 115.741 64.2545 115.555 64.1276C114.339 63.3041 113.226 62.6019 112.152 61.9809C109.515 60.4483 106.654 59.2588 103.652 58.4472C100.48 57.6112 97.559 57.3834 94.9729 57.7679C94.2547 57.8742 93.5468 58.0317 92.8557 58.2387C89.6699 59.1923 87.3831 61.089 85.1717 62.9235C82.421 65.2051 79.5764 67.5647 74.9637 68.1519C69.6407 68.831 62.6449 66.683 57.8724 64.4458C56.3719 63.7423 54.8875 62.9821 53.4519 62.2468C52.8721 61.9497 52.2916 61.6537 51.7103 61.3589C50.5677 60.7811 49.6284 60.3254 48.7543 59.9243L48.4779 59.7969C48.324 59.7269 48.1699 59.6569 48.0125 59.588C46.9712 59.1237 45.9931 58.7262 45.0205 58.3724L44.7906 58.2876C44.3281 58.1248 43.894 57.9793 43.4661 57.8442L43.2953 57.7905C42.4389 57.5266 41.5673 57.3051 40.6843 57.1269Z" fill="#F2F2F2"/>
<path d="M193.813 96.1931C193.797 96.1931 193.781 96.1916 193.765 96.1886L24.4366 63.7842C24.3775 63.7726 24.3259 63.7402 24.2931 63.6942C24.2602 63.6482 24.2488 63.5923 24.2613 63.5386C24.2738 63.485 24.3092 63.4381 24.3597 63.408C24.4103 63.3779 24.4719 63.3672 24.5311 63.3782L193.86 95.7827C193.915 95.7932 193.964 95.822 193.998 95.8635C194.031 95.9049 194.046 95.9561 194.04 96.0071C194.034 96.0581 194.008 96.1053 193.966 96.1397C193.924 96.174 193.869 96.1931 193.813 96.1931Z" fill="black"/>
<path d="M158.689 21.1593C165.134 21.1593 170.358 16.4226 170.358 10.5797C170.358 4.73667 165.134 0 158.689 0C152.243 0 147.019 4.73667 147.019 10.5797C147.019 16.4226 152.243 21.1593 158.689 21.1593Z" fill="#FF9A82"/>
<path d="M179.748 2.46268C174.093 1.76961 167.636 4.541 166.17 9.54141C165.8 8.65233 165.129 7.89274 164.252 7.37238C163.375 6.85201 162.339 6.59781 161.292 6.64649C160.245 6.69518 159.243 7.04424 158.429 7.64324C157.616 8.24224 157.034 9.06016 156.767 9.97885L157.414 10.3993C169.534 12.7754 182.081 12.724 194.176 10.2486C190.242 6.50029 185.404 3.15573 179.748 2.46268Z" fill="#F0F0F0"/>
<path d="M155.493 16.5691C149.837 15.8761 143.38 18.6474 141.914 23.6478C141.545 22.7588 140.873 21.9992 139.997 21.4788C139.12 20.9584 138.083 20.7042 137.037 20.7529C135.99 20.8016 134.988 21.1507 134.174 21.7497C133.361 22.3487 132.778 23.1666 132.511 24.0853L133.159 24.5057C145.279 26.8818 157.825 26.8304 169.921 24.355C165.987 20.6067 161.149 17.2622 155.493 16.5691Z" fill="#F0F0F0"/>
<path d="M165.643 101.457C165.413 101.247 165.236 100.994 165.125 100.716C165.014 100.437 164.972 100.14 165.002 99.8456C165.031 99.5508 165.132 99.2655 165.296 99.0098C165.461 98.754 165.685 98.5341 165.953 98.3654L162.397 82.3535L166.324 83.4965L169.171 98.984C169.453 99.4114 169.553 99.918 169.451 100.408C169.35 100.897 169.053 101.336 168.618 101.641C168.184 101.946 167.64 102.096 167.092 102.062C166.544 102.028 166.028 101.813 165.643 101.457Z" fill="#9E616A"/>
<path d="M160.392 67.5801L162.829 65.9128C162.829 65.9128 164.978 65.7749 165.359 69.2887C165.739 72.8026 166.521 79.6506 166.521 79.6506L170.249 95.3049L165.088 96.3319L161.095 79.4381L158.7 74.4213L160.392 67.5801Z" fill="#2F2E41"/>
<path d="M164.409 93.1423L150.68 92.9349L149.536 84.4297H164.409V93.1423Z" fill="#9E616A"/>
<path d="M151.717 145.176L148.548 145.176L147.04 134.093L151.717 134.093L151.717 145.176Z" fill="#9E616A"/>
<path d="M171.909 141.196L168.74 141.175L167.317 130.083L171.44 130.94L171.909 141.196Z" fill="#9E616A"/>
<path d="M161.996 77.1049L162.714 78.7976L162.571 80.4903L148.515 84.9037L149.213 77.4955L150.793 75.8027L161.996 77.1049Z" fill="#FFB6B6"/>
<path d="M155.966 61.8715C158.739 61.8715 160.986 59.834 160.986 57.3205C160.986 54.8071 158.739 52.7695 155.966 52.7695C153.194 52.7695 150.946 54.8071 150.946 57.3205C150.946 59.834 153.194 61.8715 155.966 61.8715Z" fill="#9E616A"/>
<path d="M153.134 150.632H150.885L150.484 148.707L149.456 150.632H143.491C143.205 150.632 142.926 150.549 142.696 150.395C142.466 150.242 142.296 150.025 142.211 149.778C142.126 149.53 142.13 149.265 142.223 149.02C142.316 148.775 142.494 148.563 142.729 148.416L147.492 145.433V143.487L152.503 143.758L153.134 150.632Z" fill="#2F2E41"/>
<path d="M173.572 146.662L171.323 146.648L170.937 144.721L169.894 146.639L163.929 146.601C163.643 146.599 163.365 146.515 163.136 146.36C162.907 146.205 162.738 145.987 162.655 145.739C162.572 145.491 162.578 145.226 162.674 144.981C162.769 144.737 162.947 144.526 163.184 144.381L167.97 141.428L167.985 139.482L172.993 139.785L173.572 146.662Z" fill="#2F2E41"/>
<path d="M172.895 133.307L170.587 120.525L167.842 102.892C169.852 99.5064 165.325 88.9932 165.325 88.9932L164.685 89.021L150.219 91.4951L150.222 91.4825C147.263 98.7987 146.283 102.413 146.445 110.204L147.028 138.211H146.845C146.542 138.211 146.251 138.32 146.036 138.515C145.822 138.709 145.701 138.973 145.701 139.248C145.701 139.523 145.822 139.787 146.036 139.982C146.251 140.176 146.542 140.285 146.845 140.285H152.566C152.869 140.285 153.16 140.176 153.375 139.982C153.589 139.787 153.71 139.523 153.71 139.248C153.71 138.973 153.589 138.709 153.375 138.515C153.16 138.32 152.869 138.211 152.566 138.211H152.418L157.669 104.863L162.121 118.865L167.155 133.179C165.325 132.764 165.609 133.725 165.609 134.27C165.609 134.545 165.729 134.808 165.944 135.003C166.158 135.198 166.449 135.307 166.753 135.307H172.473C172.739 135.307 172.997 135.223 173.202 135.07C173.408 134.916 173.547 134.702 173.597 134.465C173.647 134.228 173.604 133.983 173.476 133.772C173.348 133.56 173.143 133.396 172.895 133.307Z" fill="#2F2E41"/>
<path d="M166.451 89.5383L165.993 85.3894C165.946 85.2201 165.84 85.0688 165.692 84.9572C165.544 84.8456 165.36 84.7794 165.168 84.7681C164.977 82.7917 164.175 74.2655 164.127 73.8936L164.125 73.8779L163.761 66.8128C163.747 66.5562 163.63 66.3131 163.432 66.1298C163.233 65.9465 162.967 65.8359 162.685 65.8191L160.758 65.7049C160.731 65.7041 160.706 65.694 160.688 65.6768C160.669 65.6596 160.659 65.6365 160.659 65.6126C160.659 65.4196 160.617 65.2286 160.536 65.0504C160.454 64.8722 160.335 64.7102 160.185 64.5738C160.034 64.4374 159.855 64.3292 159.659 64.2554C159.462 64.1815 159.252 64.1436 159.039 64.1436H153.334C152.964 64.1437 152.608 64.2661 152.331 64.4878C152.054 64.7094 151.875 65.0151 151.829 65.3475C151.827 65.3704 151.815 65.3916 151.796 65.4068C151.777 65.422 151.752 65.4302 151.727 65.4297L151.726 65.4297C151.078 65.4176 150.446 65.6165 149.946 65.9905C149.446 66.3644 149.11 66.8885 149 67.4677C148.22 71.5815 146.657 80.9183 147.429 86.1091C147.698 87.916 147.119 86.4849 147.017 87.9968C147.007 88.1429 147.029 88.2893 147.081 88.4278C147.133 88.5663 147.215 88.694 147.322 88.8036C146.852 88.9277 146.669 89.3889 146.79 89.8235L146.689 89.801C146.749 90.0144 146.899 90.1976 147.108 90.3105C147.316 90.4233 147.565 90.4565 147.801 90.4027L165.329 86.3968C165.819 86.2848 166.574 89.9826 166.451 89.5383Z" fill="#2F2E41"/>
<path d="M147.158 101.457C147.388 101.247 147.565 100.994 147.675 100.716C147.786 100.437 147.828 100.14 147.798 99.8456C147.769 99.5508 147.668 99.2655 147.504 99.0098C147.34 98.754 147.115 98.5341 146.847 98.3654L150.403 82.3535L146.476 83.4965L143.63 98.984C143.347 99.4114 143.247 99.918 143.349 100.408C143.451 100.897 143.747 101.336 144.182 101.641C144.617 101.946 145.16 102.096 145.708 102.062C146.257 102.028 146.772 101.813 147.158 101.457Z" fill="#9E616A"/>
<path d="M152.408 67.5801L149.972 65.9128C149.972 65.9128 147.822 65.7749 147.442 69.2887C147.061 72.8026 146.279 79.6506 146.279 79.6506L142.551 95.3049L147.712 96.3319L151.705 79.4381L154.101 74.4213L152.408 67.5801Z" fill="#2F2E41"/>
<path d="M161.342 53.2745C162.277 53.5269 163.149 52.8177 163.8 52.1459L163.569 52.3947C165.1 53.3723 166.016 54.9649 166.61 56.577C167.204 58.1874 167.535 59.8742 168.206 61.4614C168.876 63.0469 169.959 64.5808 171.615 65.3718C173.835 66.4311 176.554 65.9494 178.915 65.1851C178.946 65.1745 178.976 65.1656 179.007 65.1549C178.051 63.5359 177.465 61.7584 177.286 59.9292C178.257 61.648 179.657 63.1373 181.375 64.2786C182.918 63.643 184.401 62.8952 185.81 62.0426C186.722 61.4898 187.683 60.7753 187.789 59.7853C187.896 58.8024 187.087 57.9048 186.132 57.432C185.177 56.9592 184.079 56.7992 183.036 56.5148C181.995 56.2322 180.932 55.7683 180.385 54.9151C179.125 52.9528 181.246 50.1853 179.893 48.2728C179.227 47.3326 177.933 46.9557 176.733 46.6945C174.901 46.2973 173.042 46.0129 171.168 45.8431C169.523 45.6938 167.824 45.6387 166.259 46.1186C164.694 46.5985 163.275 47.7129 162.94 49.1811C162.026 49.6166 161.059 50.0983 160.569 50.9248C160.079 51.7495 160.352 53.0079 161.342 53.2745Z" fill="#2F2E41"/>
<path d="M162.738 52.9436C163.633 53.9607 164.121 55.0605 164.121 55.7192C165.981 58.8016 163.321 61.4493 159.92 63.1358C158.564 63.812 156.998 64.0595 155.47 63.8392L155.328 63.2887L155.135 63.7846C155.135 63.7846 152.921 70.4132 152.191 70.8021C152.468 69.6224 152.785 64.1604 152.94 63.0091C153.153 61.4422 152.409 59.1094 151.872 57.6907C151.539 56.8164 151.368 55.8981 151.366 54.9732V54.9327L150.843 56.4554L148.939 55.7192C149.294 53.8776 148.939 51.7869 153.185 51.9682C155.482 50.5364 157.504 50.3183 159.165 50.7244C159.38 50.424 160.616 50.9867 160.973 50.8285" fill="#2F2E41"/>
<path d="M167.491 85.3069C167.411 85.9597 167.092 86.5695 166.585 87.0393C166.078 87.509 165.413 87.812 164.695 87.8999L154.359 89.1695C153.505 89.2736 152.639 89.0661 151.953 88.5924C151.267 88.1186 150.817 87.4175 150.7 86.6428L149.211 76.6564C149.114 76.0072 149.259 75.3472 149.623 74.7811L149.552 74.2957C149.258 74.1988 148.999 74.031 148.803 73.8105C148.608 73.5899 148.482 73.325 148.44 73.0443C148.398 72.7637 148.441 72.478 148.566 72.2182C148.69 71.9583 148.89 71.7341 149.144 71.5699L150.421 66.2075C150.404 66.0926 150.414 65.9758 150.449 65.8645C150.485 65.7531 150.546 65.6498 150.628 65.5611C150.711 65.4725 150.812 65.4003 150.927 65.3495C151.042 65.2986 151.168 65.27 151.295 65.2657C151.528 65.2634 151.753 65.339 151.927 65.478C152.101 65.617 152.213 65.8096 152.24 66.0187L152.357 66.807C152.513 67.8489 153.099 68.7983 153.998 69.4633C154.896 70.1282 156.04 70.4591 157.197 70.389C158.354 70.3189 159.439 69.8531 160.232 69.0857C161.025 68.3184 161.467 67.3067 161.469 66.2552C161.469 66.0672 161.455 65.8794 161.428 65.693L161.313 64.9172C161.276 64.7016 161.33 64.4812 161.465 64.3006C161.6 64.12 161.806 63.9927 162.041 63.9443C162.163 63.9232 162.289 63.925 162.41 63.9495C162.532 63.9739 162.646 64.0206 162.747 64.0866C162.848 64.1526 162.933 64.2366 162.997 64.3334C163.061 64.4302 163.102 64.5378 163.119 64.6496L163.858 69.5867C164.264 69.5613 164.667 69.668 164.995 69.8877C165.323 70.1073 165.553 70.4255 165.645 70.7854C165.738 71.1452 165.686 71.523 165.499 71.8511C165.311 72.1793 165.001 72.4363 164.624 72.576C164.994 72.8084 165.307 73.108 165.542 73.4559C165.777 73.8037 165.93 74.1922 165.99 74.5965L167.482 84.585C167.518 84.8243 167.521 85.0668 167.491 85.3069Z" fill="#0050FF"/>
<path d="M149.404 74.5147C149.392 74.433 149.416 74.3502 149.472 74.2846C149.527 74.2189 149.608 74.1758 149.699 74.1647L163.786 72.2069C163.831 72.2014 163.876 72.204 163.92 72.2144C163.964 72.2248 164.004 72.243 164.04 72.2677C164.076 72.2925 164.106 72.3234 164.129 72.3587C164.152 72.394 164.166 72.433 164.172 72.4735C164.179 72.514 164.176 72.5552 164.164 72.5947C164.153 72.6342 164.133 72.6713 164.105 72.7038C164.078 72.7363 164.044 72.7636 164.005 72.7842C163.966 72.8047 163.923 72.8181 163.878 72.8236L149.791 74.7814C149.7 74.7923 149.609 74.7704 149.537 74.7204C149.464 74.6705 149.417 74.5965 149.404 74.5147Z" fill="#3F3D56"/>
<path d="M151.05 79.7569L150.585 76.6377C150.549 76.3971 150.62 76.1534 150.782 75.9603C150.944 75.7671 151.185 75.6403 151.45 75.6077L164.905 74.0473C165.171 74.0148 165.439 74.0791 165.652 74.2262C165.866 74.3734 166.005 74.5912 166.041 74.8318L166.507 77.951C166.543 78.1916 166.472 78.4353 166.31 78.6285C166.147 78.8216 165.907 78.9485 165.642 78.981L160.267 79.6513C160.278 79.6846 160.287 79.7185 160.294 79.7527L160.77 82.9391L165.305 82.3826C165.335 82.3789 165.365 82.3806 165.394 82.3875C165.423 82.3944 165.451 82.4065 165.475 82.423C165.498 82.4395 165.519 82.4601 165.534 82.4837C165.549 82.5073 165.559 82.5333 165.563 82.5603C165.567 82.5874 165.565 82.6148 165.557 82.6412C165.55 82.6676 165.536 82.6923 165.518 82.714C165.5 82.7357 165.477 82.7539 165.451 82.7676C165.425 82.7812 165.396 82.7902 165.366 82.7938L160.831 83.3502L158.79 83.6006L154.482 84.1292C154.422 84.1365 154.361 84.1219 154.313 84.0885C154.265 84.0552 154.233 84.0059 154.225 83.9514C154.217 83.8969 154.233 83.8417 154.27 83.798C154.306 83.7542 154.361 83.7255 154.421 83.718L158.729 83.1894L158.253 80.0031C158.25 79.9685 158.249 79.9337 158.249 79.8989L152.187 80.5414C151.921 80.5739 151.652 80.5096 151.439 80.3625C151.226 80.2154 151.086 79.9975 151.05 79.7569Z" fill="#3F3D56"/>
<path d="M98.1646 160C98.108 160 98.0535 159.981 98.0115 159.946L0.0754157 79.9161C0.030428 79.8793 0.00341353 79.8277 0.000301844 79.7728C-0.00280984 79.7179 0.0182368 79.6641 0.0588203 79.6233C0.0994039 79.5825 0.156209 79.5579 0.216761 79.555C0.277313 79.5521 0.336664 79.5711 0.381782 79.6078L98.3179 159.638C98.3523 159.666 98.3765 159.703 98.3873 159.744C98.3981 159.785 98.395 159.827 98.3784 159.867C98.3618 159.906 98.3324 159.94 98.2943 159.963C98.2561 159.987 98.2109 160 98.1646 160Z" fill="black"/>
<path d="M149.433 79.158C149.437 79.0982 149.428 79.038 149.405 78.9817C149.382 78.9254 149.346 78.8742 149.3 78.8315C149.253 78.7889 149.197 78.7558 149.135 78.7345C149.073 78.7131 149.007 78.7041 148.941 78.7079C148.916 78.7087 148.892 78.7115 148.867 78.7162L145.971 79.3095C145.906 79.3237 145.845 79.3501 145.792 79.3869C145.739 79.4237 145.696 79.4701 145.664 79.5231C145.621 79.5246 145.579 79.5302 145.538 79.5397C145.356 79.5771 145.198 79.6786 145.098 79.8218C144.999 79.9649 144.966 80.1381 145.007 80.3031C145.048 80.4682 145.16 80.6116 145.318 80.7019C145.476 80.7921 145.667 80.8218 145.849 80.7844C145.953 80.7626 146.05 80.7201 146.133 80.6599L147.115 83.1659C147.164 83.2444 147.239 83.3064 147.331 83.3427C147.422 83.379 147.523 83.3875 147.62 83.3671L149.504 82.9812C149.6 82.9608 149.686 82.9133 149.751 82.8454C149.815 82.7776 149.855 82.693 149.863 82.6037L149.433 79.158ZM145.806 80.606C145.741 80.6193 145.675 80.6211 145.609 80.611C145.544 80.601 145.482 80.5794 145.426 80.5475C145.37 80.5157 145.321 80.4741 145.283 80.4252C145.245 80.3763 145.218 80.3211 145.203 80.2627C145.188 80.2042 145.186 80.1437 145.197 80.0847C145.208 80.0256 145.232 79.969 145.267 79.9183C145.302 79.8675 145.348 79.8235 145.402 79.7888C145.456 79.7541 145.517 79.7294 145.582 79.7161C145.591 79.714 145.6 79.7161 145.609 79.714C145.608 79.7896 145.63 79.864 145.671 79.9297L146.03 80.4981C145.967 80.5519 145.89 80.5892 145.806 80.606Z" fill="#CCCCCC"/>
<path d="M148.941 78.708C148.968 79.0399 148.341 79.4216 147.501 79.5731C146.73 79.7162 146.039 79.6166 145.845 79.3552C145.884 79.3342 145.926 79.3188 145.971 79.3096L148.867 78.7163C148.892 78.7116 148.916 78.7089 148.941 78.708Z" fill="#E6E6E6"/>
<path d="M147.427 85.3368L146.586 83.7506C146.093 82.8214 146.995 81.8327 148.597 81.5468L150.57 81.2451L151.395 86.4731L151.225 86.5036C149.623 86.7895 147.919 86.266 147.427 85.3368Z" fill="#0050FF"/>
<g opacity="0.2">
<path opacity="0.2" d="M167.491 85.3066C167.411 85.9594 167.092 86.5692 166.585 87.039C166.079 87.5087 165.413 87.8117 164.695 87.8996L154.359 89.1692C153.745 89.2444 153.12 89.1591 152.558 88.9231C151.996 88.6872 151.52 88.3105 151.186 87.8374C151.477 87.518 151.838 87.2566 152.246 87.0696C152.654 86.8826 153.1 86.7739 153.556 86.7504C154.444 86.7089 155.304 86.9765 156.174 87.1258C158.276 87.485 160.451 87.158 162.313 86.2027C163.121 85.7775 163.849 85.234 164.736 84.9311C165.624 84.6303 166.771 84.6407 167.414 85.2277C167.441 85.2525 167.467 85.2788 167.491 85.3066Z" fill="black"/>
</g>
</g>
<defs>
<clipPath id="clip0_5481_88136">
<rect width="200" height="160" fill="white"/>
</clipPath>
</defs>
</svg>
