<svg width="32" height="32" viewBox="0 0 32 32" fill="none" xmlns="http://www.w3.org/2000/svg">
<ellipse cx="16.033" cy="16" rx="15.9427" ry="16" fill="#0050FF" fill-opacity="0.1"/>
<path d="M23.8466 15.6493L16.3735 8.14935C16.0746 7.84935 15.6594 7.66602 15.2027 7.66602H9.39031C8.47693 7.66602 7.72961 8.41602 7.72961 9.33268V15.166C7.72961 15.6243 7.91229 16.041 8.21952 16.3493L15.6926 23.8493C15.9916 24.1493 16.4067 24.3327 16.8634 24.3327C17.3201 24.3327 17.7353 24.1493 18.0342 23.841L23.8466 18.0077C24.1539 17.7077 24.3365 17.291 24.3365 16.8327C24.3365 16.3743 24.1456 15.9493 23.8466 15.6493ZM10.6358 11.8327C9.94664 11.8327 9.39031 11.2743 9.39031 10.5827C9.39031 9.89102 9.94664 9.33268 10.6358 9.33268C11.325 9.33268 11.8813 9.89102 11.8813 10.5827C11.8813 11.2743 11.325 11.8327 10.6358 11.8327ZM20.409 18.7243L16.8634 22.2827L13.3178 18.7243C12.9442 18.341 12.7117 17.8243 12.7117 17.2493C12.7117 16.0993 13.6417 15.166 14.7876 15.166C15.3605 15.166 15.8836 15.3993 16.2573 15.7827L16.8634 16.3827L17.4696 15.7743C17.8432 15.3993 18.3664 15.166 18.9393 15.166C20.0852 15.166 21.0152 16.0993 21.0152 17.2493C21.0152 17.8243 20.7827 18.3493 20.409 18.7243Z" fill="#0050FF"/>
<rect width="8.94234" height="8.75295" transform="matrix(0.70474 -0.709465 0.70693 0.707283 10.3328 17.3535)" fill="#0050FF"/>
</svg>
