<svg width="16" height="16" viewBox="0 0 16 16" fill="none" xmlns="http://www.w3.org/2000/svg">
<path fill-rule="evenodd" clip-rule="evenodd" d="M2.63661 4.04055C2 4.91677 2 6.16668 2 8.6665C2 11.1663 2 12.4162 2.63661 13.2925C2.84221 13.5754 3.09107 13.8243 3.37405 14.0299C4.25027 14.6665 5.50018 14.6665 8 14.6665C10.4998 14.6665 11.7497 14.6665 12.626 14.0299C12.9089 13.8243 13.1578 13.5754 13.3634 13.2925C14 12.4162 14 11.1663 14 8.6665C14 6.16668 14 4.91677 13.3634 4.04055C13.1578 3.75757 12.9089 3.50871 12.626 3.30311C12.6106 3.29198 12.5952 3.28104 12.5796 3.27029C11.7056 2.6665 10.4561 2.6665 8 2.6665C5.54397 2.6665 4.29445 2.6665 3.42045 3.27024C3.40487 3.281 3.3894 3.29196 3.37405 3.30311C3.09107 3.50871 2.84221 3.75757 2.63661 4.04055ZM6 8.1665C5.72386 8.1665 5.5 8.39036 5.5 8.6665C5.5 8.94265 5.72386 9.1665 6 9.1665H10C10.2761 9.1665 10.5 8.94265 10.5 8.6665C10.5 8.39036 10.2761 8.1665 10 8.1665H6Z" fill="#D82C0D"/>
<path d="M7.99997 0.666504C9.24083 0.666504 9.86125 0.666504 10.3634 0.829649C11.2421 1.11516 11.9564 1.74997 12.3463 2.57393C11.9328 2.39634 11.468 2.29989 10.9346 2.24464C10.1802 2.1665 9.23245 2.1665 8.02852 2.1665H7.97143C6.76754 2.1665 5.81984 2.1665 5.06543 2.24463C4.532 2.29988 4.06715 2.39633 3.65365 2.57393C4.04351 1.74997 4.75788 1.11516 5.63658 0.829649C6.13869 0.666504 6.75912 0.666504 7.99997 0.666504Z" fill="#D82C0D"/>
</svg>
