<svg width="24" height="24" viewBox="0 0 24 24" fill="none" xmlns="http://www.w3.org/2000/svg">
<path d="M22.5 6.7353H17.754C18.0945 6.5028 18.387 6.2718 18.591 6.0648C19.8 4.8483 19.8 2.8683 18.591 1.6518C17.4165 0.469803 15.3675 0.468303 14.1915 1.6518C13.542 2.3043 11.8155 4.9608 12.054 6.7353H11.946C12.183 4.9608 10.458 2.3043 9.8085 1.6518C8.6325 0.468303 6.5835 0.469803 5.409 1.6518C4.2 2.8683 4.2 4.8483 5.4075 6.0648C5.613 6.2718 5.9055 6.5028 6.246 6.7353H1.5C0.6735 6.7353 0 7.4088 0 8.2353V11.9853C0 12.3993 0.336 12.7353 0.75 12.7353H1.5V21.7353C1.5 22.5618 2.1735 23.2353 3 23.2353H21C21.8265 23.2353 22.5 22.5618 22.5 21.7353V12.7353H23.25C23.664 12.7353 24 12.3993 24 11.9853V8.2353C24 7.4088 23.3265 6.7353 22.5 6.7353ZM6.4725 2.7093C6.777 2.4033 7.1805 2.2353 7.6095 2.2353C8.037 2.2353 8.4405 2.4033 8.745 2.7093C9.756 3.7263 10.761 6.3243 10.4115 6.6858C10.4115 6.6858 10.3485 6.7353 10.134 6.7353C9.0975 6.7353 7.119 5.6583 6.4725 5.0073C5.844 4.3743 5.844 3.3423 6.4725 2.7093ZM11.25 21.7353H3V12.7353H11.25V21.7353ZM11.25 11.2353H1.5V8.2353H10.134H11.25V11.2353ZM15.255 2.7093C15.864 2.0988 16.92 2.1003 17.5275 2.7093C18.156 3.3423 18.156 4.3743 17.5275 5.0073C16.881 5.6583 14.9025 6.7353 13.866 6.7353C13.6515 6.7353 13.5885 6.6873 13.587 6.6858C13.239 6.3243 14.244 3.7263 15.255 2.7093ZM21 21.7353H12.75V12.7353H21V21.7353ZM22.5 11.2353H12.75V8.2353H13.866H22.5V11.2353Z" fill="#0050FF"/>
</svg>
