<svg width="20" height="20" viewBox="0 0 20 20" fill="none" xmlns="http://www.w3.org/2000/svg">
<g clip-path="url(#clip0_5277_87759)">
<path d="M10.0001 1.6665C5.40008 1.6665 1.66675 5.39984 1.66675 9.99984C1.66675 14.5998 5.40008 18.3332 10.0001 18.3332C14.6001 18.3332 18.3334 14.5998 18.3334 9.99984C18.3334 5.39984 14.6001 1.6665 10.0001 1.6665ZM10.0001 14.1665C9.54175 14.1665 9.16675 13.7915 9.16675 13.3332V9.99984C9.16675 9.5415 9.54175 9.1665 10.0001 9.1665C10.4584 9.1665 10.8334 9.5415 10.8334 9.99984V13.3332C10.8334 13.7915 10.4584 14.1665 10.0001 14.1665ZM10.8334 7.49984H9.16675V5.83317H10.8334V7.49984Z" fill="#0050FF"/>
</g>
<defs>
<clipPath id="clip0_5277_87759">
<rect width="20" height="20" fill="#0050FF"/>
</clipPath>
</defs>
</svg>
