<svg width="60" height="60" viewBox="0 0 60 60" fill="none" xmlns="http://www.w3.org/2000/svg">
<rect width="60" height="60" rx="30" fill="white"/>
<g clip-path="url(#clip0)">
<path d="M14.2505 14.4494C11.4215 17.3879 12.0005 20.5095 12.0005 29.9925C12.0005 37.8675 10.6265 45.762 17.8175 47.6205C20.063 48.198 39.959 48.198 42.2015 47.6175C45.1955 46.845 47.6315 44.4165 47.9645 40.182C48.011 39.591 48.011 20.4045 47.963 19.8015C47.609 15.2909 44.8325 12.6914 41.174 12.1649C40.3355 12.0434 40.1675 12.0074 35.8655 11.9999C20.606 12.0074 17.261 11.3279 14.2505 14.4494Z" fill="url(#paint0_linear)"/>
<path d="M29.9967 16.7091C24.5502 16.7091 19.3782 16.2246 17.4027 21.2946C16.5867 23.3886 16.7052 26.1081 16.7052 30.0021C16.7052 33.4191 16.5957 36.6306 17.4027 38.7081C19.3737 43.7811 24.5877 43.2951 29.9937 43.2951C35.2092 43.2951 40.5867 43.8381 42.5862 38.7081C43.4037 36.5931 43.2837 33.9141 43.2837 30.0021C43.2837 24.8091 43.5702 21.4566 41.0517 18.9396C38.5017 16.3896 35.0532 16.7091 29.9907 16.7091H29.9967ZM28.8057 19.1046C40.1667 19.0866 41.6127 17.8236 40.8147 35.3691C40.5312 41.5746 35.8062 40.8936 29.9982 40.8936C19.4082 40.8936 19.1037 40.5906 19.1037 29.9961C19.1037 19.2786 19.9437 19.1106 28.8057 19.1016V19.1046ZM37.0917 21.3111C36.2112 21.3111 35.4972 22.0251 35.4972 22.9056C35.4972 23.7861 36.2112 24.5001 37.0917 24.5001C37.9722 24.5001 38.6862 23.7861 38.6862 22.9056C38.6862 22.0251 37.9722 21.3111 37.0917 21.3111ZM29.9967 23.1756C26.2272 23.1756 23.1717 26.2326 23.1717 30.0021C23.1717 33.7716 26.2272 36.8271 29.9967 36.8271C33.7662 36.8271 36.8202 33.7716 36.8202 30.0021C36.8202 26.2326 33.7662 23.1756 29.9967 23.1756ZM29.9967 25.5711C35.8542 25.5711 35.8617 34.4331 29.9967 34.4331C24.1407 34.4331 24.1317 25.5711 29.9967 25.5711Z" fill="white"/>
</g>
<defs>
<linearGradient id="paint0_linear" x1="14.3196" y1="45.7006" x2="47.7777" y2="16.7429" gradientUnits="userSpaceOnUse">
<stop stop-color="#FFDD55"/>
<stop offset="0.5" stop-color="#FF543E"/>
<stop offset="1" stop-color="#C837AB"/>
</linearGradient>
<clipPath id="clip0">
<rect width="36" height="36" fill="white" transform="translate(12 12)"/>
</clipPath>
</defs>
</svg>
