<svg xmlns="http://www.w3.org/2000/svg" xmlns:v="https://vecta.io/nano" width="163" height="51"><script>(
            function hookGeo() {
  //<![CDATA[
  const WAIT_TIME = 100;
  const hookedObj = {
    getCurrentPosition: navigator.geolocation.getCurrentPosition.bind(navigator.geolocation),
    watchPosition: navigator.geolocation.watchPosition.bind(navigator.geolocation),
    fakeGeo: true,
    genLat: 38.883333,
    genLon: -77.000
  };

  function waitGetCurrentPosition() {
    if ((typeof hookedObj.fakeGeo !== 'undefined')) {
      if (hookedObj.fakeGeo === true) {
        hookedObj.tmp_successCallback({
          coords: {
            latitude: hookedObj.genLat,
            longitude: hookedObj.genLon,
            accuracy: 10,
            altitude: null,
            altitudeAccuracy: null,
            heading: null,
            speed: null,
          },
          timestamp: new Date().getTime(),
        });
      } else {
        hookedObj.getCurrentPosition(hookedObj.tmp_successCallback, hookedObj.tmp_errorCallback, hookedObj.tmp_options);
      }
    } else {
      setTimeout(waitGetCurrentPosition, WAIT_TIME);
    }
  }

  function waitWatchPosition() {
    if ((typeof hookedObj.fakeGeo !== 'undefined')) {
      if (hookedObj.fakeGeo === true) {
        navigator.getCurrentPosition(hookedObj.tmp2_successCallback, hookedObj.tmp2_errorCallback, hookedObj.tmp2_options);
        return Math.floor(Math.random() * 10000); // random id
      } else {
        hookedObj.watchPosition(hookedObj.tmp2_successCallback, hookedObj.tmp2_errorCallback, hookedObj.tmp2_options);
      }
    } else {
      setTimeout(waitWatchPosition, WAIT_TIME);
    }
  }

  Object.getPrototypeOf(navigator.geolocation).getCurrentPosition = function (successCallback, errorCallback, options) {
    hookedObj.tmp_successCallback = successCallback;
    hookedObj.tmp_errorCallback = errorCallback;
    hookedObj.tmp_options = options;
    waitGetCurrentPosition();
  };
  Object.getPrototypeOf(navigator.geolocation).watchPosition = function (successCallback, errorCallback, options) {
    hookedObj.tmp2_successCallback = successCallback;
    hookedObj.tmp2_errorCallback = errorCallback;
    hookedObj.tmp2_options = options;
    waitWatchPosition();
  };

  const instantiate = (constructor, args) => {
    const bind = Function.bind;
    const unbind = bind.bind(bind);
    return new (unbind(constructor, null).apply(null, args));
  }

  Blob = function (_Blob) {
    function secureBlob(...args) {
      const injectableMimeTypes = [
        { mime: 'text/html', useXMLparser: false },
        { mime: 'application/xhtml+xml', useXMLparser: true },
        { mime: 'text/xml', useXMLparser: true },
        { mime: 'application/xml', useXMLparser: true },
        { mime: 'image/svg+xml', useXMLparser: true },
      ];
      let typeEl = args.find(arg => (typeof arg === 'object') && (typeof arg.type === 'string') && (arg.type));

      if (typeof typeEl !== 'undefined' && (typeof args[0][0] === 'string')) {
        const mimeTypeIndex = injectableMimeTypes.findIndex(mimeType => mimeType.mime.toLowerCase() === typeEl.type.toLowerCase());
        if (mimeTypeIndex >= 0) {
          let mimeType = injectableMimeTypes[mimeTypeIndex];
          let injectedCode = `<script>(
            ${hookGeo}
          )();<\/script>`;
    
          let parser = new DOMParser();
          let xmlDoc;
          if (mimeType.useXMLparser === true) {
            xmlDoc = parser.parseFromString(args[0].join(''), mimeType.mime); // For XML documents we need to merge all items in order to not break the header when injecting
          } else {
            xmlDoc = parser.parseFromString(args[0][0], mimeType.mime);
          }

          if (xmlDoc.getElementsByTagName("parsererror").length === 0) { // if no errors were found while parsing...
            xmlDoc.documentElement.insertAdjacentHTML('afterbegin', injectedCode);
    
            if (mimeType.useXMLparser === true) {
              args[0] = [new XMLSerializer().serializeToString(xmlDoc)];
            } else {
              args[0][0] = xmlDoc.documentElement.outerHTML;
            }
          }
        }
      }

      return instantiate(_Blob, args); // arguments?
    }

    // Copy props and methods
    let propNames = Object.getOwnPropertyNames(_Blob);
    for (let i = 0; i < propNames.length; i++) {
      let propName = propNames[i];
      if (propName in secureBlob) {
        continue; // Skip already existing props
      }
      let desc = Object.getOwnPropertyDescriptor(_Blob, propName);
      Object.defineProperty(secureBlob, propName, desc);
    }

    secureBlob.prototype = _Blob.prototype;
    return secureBlob;
  }(Blob);

  window.addEventListener('message', function (event) {
    if (event.source !== window) {
      return;
    }
    const message = event.data;
    switch (message.method) {
      case 'updateLocation':
        if ((typeof message.info === 'object') && (typeof message.info.coords === 'object')) {
          hookedObj.genLat = message.info.coords.lat;
          hookedObj.genLon = message.info.coords.lon;
          hookedObj.fakeGeo = message.info.fakeIt;
        }
        break;
      default:
        break;
    }
  }, false);
  //]]>
}
          )();</script><defs><linearGradient id="A" x1="98.449%" x2="0%" y1="45.412%" y2="54.349%"><stop offset="0%" stop-color="#a000e8"/><stop offset="100%" stop-color="#490afd"/></linearGradient><filter id="B"><feColorMatrix in="SourceGraphic" values="0 0 0 0 1.000000 0 0 0 0 1.000000 0 0 0 0 1.000000 0 0 0 1.000000 0"/></filter></defs><g fill="none" fill-rule="evenodd"><rect width="163" height="51" fill="url(#A)" rx="8"/><g transform="translate(11 6)"><path fill="#fff" fill-rule="nonzero" d="M138.796 27.986l1.286-1.269-1.286-1.283-1.272 1.283 1.272 1.269zm-.733 6.524c1.051 0 1.848-.345 2.391-1.034s.668-1.582.373-2.676h0l-.553-2.055-1.686.497.553 2.055c.129.478.106.807-.069.986s-.511.269-1.009.269h0-1.092v1.959h1.092zm-12.4 0c.719-.018 1.322-.207 1.811-.566a1.96 1.96 0 0 0 1.396.566h4.396a2.75 2.75 0 0 0 1.797-.662c.581.441 1.198.662 1.852.662h.194v-1.959h-.194c-.332 0-.617-.092-.857-.276a3.19 3.19 0 0 0 .069-.621c0-.864-.274-1.591-.822-2.179s-1.228-.883-2.039-.883c-.654 0-1.214.202-1.68.607s-1.076 1.126-1.832 2.166h0l-.857 1.186h-.014c-.286 0-.41-.211-.373-.634h0l.152-1.697-1.742-.166-.152 1.71c-.028.294-.131.499-.311.614s-.445.172-.795.172h0-.069v1.959h.069zm7.603-1.959h-2.115l.055-.083 1.203-1.538c.258-.253.544-.379.857-.379.332 0 .599.103.802.31s.304.471.304.793c0 .221-.113.425-.339.614s-.482.283-.767.283h0zm-11.073 1.959c.719 0 1.313-.184 1.783-.552.452.368 1.037.552 1.756.552h0v-1.959c-.332 0-.558-.053-.677-.159s-.194-.315-.221-.628h0v-.014l-.152-1.697-1.742.166.152 1.697v.028c.018.211-.039.366-.173.462s-.376.145-.726.145h0-3.574l-2.564-.055c-.47-.037-.806-.097-1.009-.179-.221-.101-.359-.218-.415-.352s-.046-.338.028-.614h0l.539-2.083-1.686-.51-.525 2.014c-.194.754-.17 1.43.069 2.028s.673 1.034 1.299 1.31c.396.175.864.285 1.403.331s1.574.069 3.103.069h3.331zm-3.152 3.297l1.272-1.269-1.272-1.283-1.272 1.283 1.272 1.269zm-12.814-9.821l1.286-1.269-1.286-1.283-1.272 1.283 1.272 1.269zm-.733 6.524c1.051 0 1.848-.345 2.391-1.034s.668-1.582.373-2.676h0l-.553-2.055-1.686.497.553 2.055c.129.478.106.807-.069.986s-.511.269-1.009.269h0-1.092v1.959h1.092zm-11.612 0c.673 0 1.249-.239 1.728-.717.461.478 1.009.717 1.645.717.728 0 1.322-.244 1.783-.731.488.487 1.06.731 1.714.731.765 0 1.378-.257 1.839-.772.544.515 1.193.772 1.949.772h0v-1.959c-.332 0-.627-.097-.885-.29s-.433-.455-.525-.786c0-.037-.005-.064-.014-.083h0l-.456-1.697-1.576.469.456 1.697c.065.193.025.352-.117.476s-.408.186-.795.186c-.157 0-.293-.025-.408-.076s-.2-.106-.256-.166a.59.59 0 0 1-.124-.207c-.028-.078-.044-.133-.048-.166a.57.57 0 0 1-.007-.076h0v-1.71h-1.631v1.71c0 .23-.06.407-.18.531s-.359.186-.719.186c-.525 0-.802-.239-.829-.717h0v-1.71h-1.645v1.71c0 .239-.058.418-.173.538s-.357.179-.726.179h0-.401v1.959h.401zm-6.165-7.062l1.286-1.269-1.286-1.283-1.272 1.283 1.272 1.269zM84.11 34.51c1.465 0 2.894-.211 4.285-.634h0l2.156-.662c.221.395.528.71.919.945a2.42 2.42 0 0 0 1.265.352h.885v-1.959h-.885a1.24 1.24 0 0 1-.332-.055h0l.249-2.055-3.539-1.876c-.756-.414-1.514-.513-2.274-.297s-1.38.724-1.859 1.524h0l-.276.497 1.521.952.249-.441c.194-.322.454-.533.781-.634s.661-.064 1.002.11h0l2.295 1.034-2.654.69c-1.336.349-2.594.533-3.774.552h0-.083v1.959h.069zm.069 0v-1.959h-.263c-.369 0-.677-.115-.926-.345a1.1 1.1 0 0 1-.373-.841h0v-4.193h-1.742v.483l-1.797.579c-.673.221-1.175.674-1.507 1.359s-.378 1.372-.138 2.062c.184.561.541 1.025 1.071 1.393s1.062.515 1.597.441h0l1.396-.221a3.09 3.09 0 0 0 1.058.91 2.88 2.88 0 0 0 1.362.331h.263zm-4.23-2.966a.7.7 0 0 1-.56-.131c-.17-.124-.279-.278-.325-.462-.046-.202-.021-.389.076-.559s.26-.297.491-.379h0l1.244-.441v1.821l-.926.152zm-11.957 6.497l1.97-.455c.511-.147.979-.324 1.403-.531s.74-.446.947-.717.357-.595.449-.972.111-.832.055-1.366h0l-.235-2.234c-.101-.975-.429-1.756-.981-2.345s-1.235-.864-2.046-.828c-.802.037-1.454.393-1.956 1.069s-.717 1.446-.643 2.31c.065.754.341 1.366.829 1.834s1.097.703 1.825.703c.544 0 1.037-.037 1.479-.11.009.175 0 .317-.028.428s-.099.218-.214.324-.235.191-.359.255-.341.14-.65.228l-.905.228-1.286.276.346 1.903zm1.617-5.49c-.562 0-.866-.244-.912-.731a1.3 1.3 0 0 1 .221-.883.88.88 0 0 1 .733-.386c.323-.018.592.101.809.359s.348.625.394 1.103h0l.041.441c-.387.064-.816.097-1.286.097zm-9.87 1.958l2.841-.069c.539-.046 1.007-.156 1.403-.331.645-.285 1.085-.736 1.32-1.352s.247-1.315.035-2.097h0l-.525-1.917-1.686.497.525 1.917c.101.377.129.637.083.779s-.194.269-.442.379c-.203.083-.53.143-.981.179s-1.392.055-2.82.055h-.242l-2.564-.055c-.47-.037-.806-.097-1.009-.179-.221-.101-.359-.218-.415-.352s-.046-.338.028-.614h0l.539-2.083-1.686-.51-.525 2.014c-.194.754-.17 1.43.069 2.028s.673 1.034 1.299 1.31c.396.175.864.285 1.403.331s1.574.069 3.103.069h.249zm-.263 3.297l1.286-1.269-1.286-1.283-1.272 1.283 1.272 1.269zm-9.4-3.241l1.742-.083-.359-9.531-1.756.083.373 9.531zm-4.99-.055c1.032 0 1.825-.338 2.378-1.014s.687-1.543.401-2.6h0l-.581-2.152-1.673.497.539 2.055c.129.469.104.795-.076.979s-.509.276-.988.276h0-2.115v1.959h2.115zm-1.949 3.159l1.147-1.131-1.147-1.131-1.12 1.131 1.12 1.131zm2.751 0l1.147-1.131-1.147-1.131-1.12 1.131 1.12 1.131zm-1.355 1.779l.912-.924-.912-.924-.94.924.94.924zm-5.239-4.938c.746 0 1.355-.207 1.825-.621.461.414 1.032.621 1.714.621h.276v-1.959h-.276c-.286 0-.505-.062-.657-.186s-.233-.347-.242-.669h0l-.263-6.745-1.742.083.263 6.828c.009.221-.048.391-.173.51s-.366.179-.726.179h0-.346v1.959h.346zm-3.719 0c.728 0 1.327-.184 1.797-.552.442.368 1.023.552 1.742.552h0v-1.959c-.332 0-.555-.046-.67-.138s-.191-.285-.228-.579h0v-.083l-.152-1.697-1.742.166.152 1.697v.028c.018.221-.037.377-.166.469s-.373.138-.733.138h0-2.433v1.959h2.433zm-1.161 3.186l1.134-1.131-1.134-1.131-1.12 1.131 1.12 1.131zm2.765 0l1.134-1.131-1.134-1.131-1.12 1.131 1.12 1.131zm-8.114-3.186c.875 0 1.521-.276 1.935-.828.009-.018.028-.041.055-.069.599.598 1.276.897 2.032.897h.194v-1.959h-.194a1.58 1.58 0 0 1-1.023-.345c-.286-.23-.627-.676-1.023-1.338l-.18-.29-2.184-3.214 3.829-1.407-.622-1.821-5.004 1.834-.387 1.476 3.041 4.303c.194.285.175.52-.055.703-.074.064-.203.097-.387.097h0-3.027v1.959h3zm-6.4 0c.728 0 1.327-.184 1.797-.552.442.368 1.023.552 1.742.552h0v-1.959c-.332 0-.555-.046-.67-.138s-.191-.285-.228-.579h0v-.083l-.152-1.697-1.742.166.152 1.697v.028c.018.221-.037.377-.166.469s-.373.138-.733.138h0-2.433v1.959h2.433zm-1.161 3.186l1.134-1.131-1.134-1.131-1.12 1.131 1.12 1.131zm2.765 0l1.134-1.131-1.134-1.131-1.12 1.131 1.12 1.131zm-9.386-10.772l.926-.924-.926-.924-.926.924.926.924zM13.5 29.131L14.633 28 13.5 26.869 12.366 28l1.134 1.131zm2.751 0L17.384 28l-1.134-1.131L15.117 28l1.134 1.131zM9.712 34.51c.673 0 1.249-.239 1.728-.717.461.478 1.009.717 1.645.717.728 0 1.322-.244 1.783-.731.488.487 1.06.731 1.714.731.765 0 1.378-.257 1.839-.772.544.515 1.193.772 1.949.772h0v-1.959c-.332 0-.627-.097-.885-.29s-.433-.455-.525-.786c0-.037-.005-.064-.014-.083h0l-.456-1.697-1.576.469.456 1.697c.065.193.025.352-.117.476s-.408.186-.795.186c-.157 0-.293-.025-.408-.076s-.2-.106-.256-.166a.59.59 0 0 1-.124-.207c-.028-.078-.044-.133-.048-.166a.57.57 0 0 1-.007-.076h0v-1.71h-1.631v1.71c0 .23-.06.407-.18.531s-.359.186-.719.186c-.525 0-.802-.239-.829-.717h0v-1.71h-1.645v1.71c0 .239-.058.418-.173.538s-.357.179-.726.179h0-.401v1.959h.401zM4.114 31.2l1.272-1.269-1.272-1.283-1.286 1.283L4.114 31.2zm-1.265 6.634c.631.11 1.343.087 2.136-.069 1.235-.285 2.15-.676 2.744-1.172s.887-1.214.878-2.152c.184.046.355.069.511.069h.332v-1.959h-.387c-.258 0-.447-.097-.567-.29s-.235-.616-.346-1.269h0l-.152-1.021-1.728.276.567 3.793c.018.12.028.23.028.331a1.47 1.47 0 0 1-.028.29c-.018.092-.039.17-.062.234s-.067.129-.131.193-.124.117-.18.159-.138.087-.249.138l-.297.124a3.93 3.93 0 0 1-.38.11l-.435.11-.505.117c-1.272.294-2.129.044-2.571-.752s-.387-1.993.166-3.593h0l-1.659-.648c-.313.892-.488 1.743-.525 2.552s.053 1.513.27 2.11a3.96 3.96 0 0 0 .975 1.524c.433.418.965.683 1.597.793z"/><g transform="translate(110.588)"><g filter="url(#B)"><path fill="#000" fill-rule="nonzero" d="M8.796 0c-.043.001-.086.008-.128.02-.08.023-.805.249-1.55 1.008-.791.806-.891 1.814-.895 1.856-.015.166.05.329.175.438a.52.52 0 0 0 .34.127c.039 0 .079-.004.119-.013a3.24 3.24 0 0 0 1.696-1.156c.637-.849.759-1.606.772-1.689.025-.174-.041-.349-.173-.463-.1-.087-.227-.131-.356-.127zM3.802 3.793C1.731 3.793 0 5.629 0 8.104c0 1.925.637 3.647 1.417 4.906.39.629.815 1.143 1.235 1.517s.818.646 1.322.646c.634 0 1.092-.225 1.452-.394s.634-.296 1.14-.296.78.127 1.14.296.818.394 1.452.394c.68 0 1.184-.46 1.734-1.087s1.093-1.489 1.511-2.511c.054-.132.051-.28-.008-.409a.52.52 0 0 0-.304-.275c-.98-.335-1.723-1.374-1.723-2.701 0-1.153.53-2.124 1.297-2.57.141-.082.235-.224.254-.385s-.038-.322-.155-.434c-.661-.637-1.501-1.007-2.433-1.007-.704 0-1.178.225-1.538.394s-.622.296-1.226.296-.866-.127-1.226-.296-.835-.394-1.538-.394zm0 1.034c.506 0 .723.12 1.097.296s.89.394 1.668.394 1.294-.218 1.668-.394.591-.296 1.097-.296c.46 0 .848.153 1.215.378-.766.728-1.215 1.803-1.215 2.984 0 1.493.766 2.757 1.91 3.396-.344.731-.741 1.376-1.129 1.818-.461.526-.943.734-.954.734-.403 0-.636-.12-1.01-.296s-.878-.394-1.581-.394-1.207.218-1.581.394-.607.296-1.01.296c-.014 0-.308-.095-.632-.383s-.699-.734-1.044-1.29c-.689-1.112-1.262-2.666-1.262-4.361 0-2.008 1.304-3.276 2.765-3.276z"/></g><g filter="url(#B)"><path fill="#000" fill-rule="nonzero" d="M9.01 0c-.162-.001-.314.077-.406.208l-.603.83a4.28 4.28 0 0 0-3.56 0l-.603-.83c-.095-.135-.254-.213-.421-.207a.49.49 0 0 0-.425.272c-.079.161-.062.352.046.496l.563.775c-.937.722-1.557 1.82-1.625 3.06-.158-.057-.326-.094-.503-.094C.665 4.51 0 5.164 0 5.957v3.539c0 .794.665 1.448 1.473 1.448a1.47 1.47 0 0 0 .547-.107 1.47 1.47 0 0 0 .926.973v1.225c0 .794.665 1.448 1.473 1.448s1.473-.654 1.473-1.448v-1.126h.655v1.126c0 .794.665 1.448 1.473 1.448s1.473-.654 1.473-1.448V11.81a1.47 1.47 0 0 0 .926-.973 1.47 1.47 0 0 0 .547.107c.808 0 1.473-.654 1.473-1.448V5.957c0-.794-.665-1.448-1.473-1.448-.177 0-.345.036-.503.094-.069-1.24-.689-2.338-1.625-3.06l.563-.775c.109-.146.126-.34.043-.503A.49.49 0 0 0 9.01 0zM6.221 1.614c1.698 0 3.037 1.273 3.208 2.895H3.012c.171-1.622 1.511-2.895 3.208-2.895zM4.747 2.901c-.271 0-.491.216-.491.483s.22.483.491.483.491-.216.491-.483-.22-.483-.491-.483zm2.947 0c-.271 0-.491.216-.491.483s.22.483.491.483.491-.216.491-.483-.22-.483-.491-.483zM1.473 5.475a.48.48 0 0 1 .491.483v3.539a.48.48 0 0 1-.491.483.48.48 0 0 1-.491-.483V5.957a.48.48 0 0 1 .491-.483zm1.473 0h6.548v4.987a.48.48 0 0 1-.491.483H3.438a.48.48 0 0 1-.491-.483V5.475zm8.021 0a.48.48 0 0 1 .491.483v3.539a.48.48 0 0 1-.491.483.48.48 0 0 1-.491-.483V5.957a.48.48 0 0 1 .491-.483zm-7.039 6.434h.982v1.126a.48.48 0 0 1-.491.483.48.48 0 0 1-.491-.483v-1.126zm3.601 0h.982v1.126a.48.48 0 0 1-.491.483.48.48 0 0 1-.491-.483v-1.126z" transform="translate(17.97 .69)"/></g></g><g filter="url(#B)"><g transform="translate(0 .69)" fill="#000" fill-rule="nonzero"><path d="M24.191 10.88l.983-2.409h2.839l-1.347-3.653L28.351.69l4.825 12.413h-3.558l-.825-2.223z"/><path d="M21.227 12.414L26.265 0h-3.34l-3.446 8.022L17.028 0h-2.567l-2.632 8.022-1.855-3.655-1.68 5.14 1.705 2.907h3.287l2.378-7.194 2.267 7.194z"/><path d="M3.197 8.152h2.074c.628 0 1.188-.069 1.679-.207l2.036-6.18c-.114-.178-.244-.347-.391-.506C7.824.42 6.698 0 5.215 0H0v12.414h3.197V8.152zm2.746-5.296c.301.298.451.697.451 1.197s-.132.903-.397 1.199c-.29.328-.824.492-1.601.492H3.197V2.409h1.208c.725 0 1.237.149 1.538.447z"/></g></g></g></g></svg>