<svg width="274" height="137" viewBox="0 0 274 137" fill="none" xmlns="http://www.w3.org/2000/svg">
<path d="M32.8115 123.271H258.615" stroke="#1A2E35" stroke-width="0.64" stroke-linecap="round" stroke-linejoin="round"/>
<path d="M131.298 102.847C131.298 102.847 128.128 116.384 129.509 118.61C131.311 121.521 150.531 123.272 150.531 123.272H108.157C108.157 123.272 102.849 121.792 104.443 117.553C105.677 114.275 111.605 102.847 111.605 102.847H131.303H131.298Z" fill="white" stroke="#1A2E35" stroke-width="0.77" stroke-linecap="round" stroke-linejoin="round"/>
<path d="M132.227 102.847C132.227 102.847 128.843 116.496 130.437 118.61C132.027 120.723 150.53 122.336 150.53 122.336H107.956C107.956 122.336 104.377 120.9 105.372 117.557C106.367 114.215 112.534 102.851 112.534 102.851H132.231L132.227 102.847Z" fill="white" stroke="#1A2E35" stroke-width="0.77" stroke-linecap="round" stroke-linejoin="round"/>
<path d="M112.535 102.847H132.232C132.232 102.847 130.23 110.933 130.034 115.621H106.115C108.052 111.119 112.539 102.847 112.539 102.847H112.535Z" fill="#1A2E35" stroke="#1A2E35" stroke-width="0.77" stroke-linecap="round" stroke-linejoin="round"/>
<path d="M108.156 123.271H150.53V122.4H108.156V123.271Z" fill="white" stroke="#1A2E35" stroke-width="0.77" stroke-linecap="round" stroke-linejoin="round"/>
<path d="M187.879 11.8002C187.879 10.2391 186.602 8.97119 185.03 8.97119H59.858C58.2857 8.97119 57.0088 10.2391 57.0088 11.8002V101.351C57.0088 102.912 58.2857 104.18 59.858 104.18H182.015C182.015 104.18 182.033 104.18 182.041 104.18H185.03C186.602 104.18 187.879 102.916 187.879 101.351V11.8002Z" fill="white" stroke="#1A2E35" stroke-width="0.77" stroke-linecap="round" stroke-linejoin="round"/>
<path d="M121.595 96.7836C121.595 95.4899 122.65 94.4419 123.953 94.4419C125.256 94.4419 126.312 95.4899 126.312 96.7836C126.312 98.0774 125.256 99.1254 123.953 99.1254C122.65 99.1254 121.595 98.0774 121.595 96.7836Z" fill="#1A2E35" stroke="#1A2E35" stroke-width="0.77" stroke-linecap="round" stroke-linejoin="round"/>
<path d="M63.6629 86.7012L184.86 86.7012V11.8004L63.6629 11.8004L63.6629 86.7012Z" fill="white" stroke="#1A2E35" stroke-width="0.77" stroke-linecap="round" stroke-linejoin="round"/>
<path d="M63.667 18.3554H184.864V11.8003H63.667V18.3554ZM63.667 18.3554V86.7011" stroke="#1A2E35" stroke-width="0.83" stroke-linecap="round" stroke-linejoin="round"/>
<path d="M181.519 38.1328H69.7949V60.4073H181.519V38.1328Z" fill="white" stroke="#1A2E35" stroke-width="0.66" stroke-linecap="round" stroke-linejoin="round"/>
<path d="M128.301 28.4126H121.481V30.3791H128.301V28.4126Z" fill="white" stroke="#1A2E35" stroke-width="0.83" stroke-linecap="round" stroke-linejoin="round"/>
<path d="M142.925 28.4126H136.105V30.3791H142.925V28.4126Z" fill="white" stroke="#1A2E35" stroke-width="0.83" stroke-linecap="round" stroke-linejoin="round"/>
<path d="M157.549 28.4126H150.729V30.3791H157.549V28.4126Z" fill="white" stroke="#1A2E35" stroke-width="0.83" stroke-linecap="round" stroke-linejoin="round"/>
<path d="M172.177 28.4126H165.358V30.3791H172.177V28.4126Z" fill="white" stroke="#1A2E35" stroke-width="0.83" stroke-linecap="round" stroke-linejoin="round"/>
<path d="M70.2344 34.5278H169.098" stroke="#1A2E35" stroke-width="0.66" stroke-linecap="round" stroke-linejoin="round"/>
<path d="M79.5631 31.1187C81.797 28.9006 81.797 25.3045 79.5631 23.0864C77.3292 20.8684 73.7074 20.8684 71.4735 23.0864C69.2396 25.3045 69.2396 28.9006 71.4735 31.1187C73.7074 33.3367 77.3292 33.3367 79.5631 31.1187Z" fill="white" stroke="#1A2E35" stroke-width="0.66" stroke-linecap="round" stroke-linejoin="round"/>
<path d="M136.014 65.2114H152.175" stroke="#1A2E35" stroke-width="0.8" stroke-linecap="round" stroke-linejoin="round"/>
<path d="M129.256 65.2114H134.915" stroke="#1A2E35" stroke-width="0.8" stroke-linecap="round" stroke-linejoin="round"/>
<path d="M147.22 70.4512H152.176" stroke="#1A2E35" stroke-width="0.8" stroke-linecap="round" stroke-linejoin="round"/>
<path d="M134.477 70.4512H145.791" stroke="#1A2E35" stroke-width="0.8" stroke-linecap="round" stroke-linejoin="round"/>
<path d="M129.256 70.4512H133.269" stroke="#1A2E35" stroke-width="0.8" stroke-linecap="round" stroke-linejoin="round"/>
<path d="M139.749 75.6909H152.175" stroke="#1A2E35" stroke-width="0.8" stroke-linecap="round" stroke-linejoin="round"/>
<path d="M129.256 75.6909H138.429" stroke="#1A2E35" stroke-width="0.8" stroke-linecap="round" stroke-linejoin="round"/>
<path d="M147.771 80.9307H152.176" stroke="#1A2E35" stroke-width="0.8" stroke-linecap="round" stroke-linejoin="round"/>
<path d="M132.17 80.9307H146.672" stroke="#1A2E35" stroke-width="0.8" stroke-linecap="round" stroke-linejoin="round"/>
<path d="M129.256 80.9307H130.958" stroke="#1A2E35" stroke-width="0.8" stroke-linecap="round" stroke-linejoin="round"/>
<path d="M106.283 65.2114H122.441" stroke="#1A2E35" stroke-width="0.8" stroke-linecap="round" stroke-linejoin="round"/>
<path d="M99.5254 65.2114H105.185" stroke="#1A2E35" stroke-width="0.8" stroke-linecap="round" stroke-linejoin="round"/>
<path d="M117.489 70.4512H122.441" stroke="#1A2E35" stroke-width="0.8" stroke-linecap="round" stroke-linejoin="round"/>
<path d="M104.746 70.4512H116.061" stroke="#1A2E35" stroke-width="0.8" stroke-linecap="round" stroke-linejoin="round"/>
<path d="M99.5254 70.4512H103.534" stroke="#1A2E35" stroke-width="0.8" stroke-linecap="round" stroke-linejoin="round"/>
<path d="M110.019 75.6909H122.441" stroke="#1A2E35" stroke-width="0.8" stroke-linecap="round" stroke-linejoin="round"/>
<path d="M99.5254 75.6909H108.699" stroke="#1A2E35" stroke-width="0.8" stroke-linecap="round" stroke-linejoin="round"/>
<path d="M118.041 80.9307H122.441" stroke="#1A2E35" stroke-width="0.8" stroke-linecap="round" stroke-linejoin="round"/>
<path d="M102.436 80.9307H116.942" stroke="#1A2E35" stroke-width="0.8" stroke-linecap="round" stroke-linejoin="round"/>
<path d="M99.5254 80.9307H101.228" stroke="#1A2E35" stroke-width="0.8" stroke-linecap="round" stroke-linejoin="round"/>
<path d="M76.5527 65.2114H92.7101" stroke="#1A2E35" stroke-width="0.8" stroke-linecap="round" stroke-linejoin="round"/>
<path d="M69.7949 65.2114H75.4543" stroke="#1A2E35" stroke-width="0.8" stroke-linecap="round" stroke-linejoin="round"/>
<path d="M87.7588 70.4512H92.7102" stroke="#1A2E35" stroke-width="0.8" stroke-linecap="round" stroke-linejoin="round"/>
<path d="M75.0117 70.4512H86.3305" stroke="#1A2E35" stroke-width="0.8" stroke-linecap="round" stroke-linejoin="round"/>
<path d="M69.7949 70.4512H73.8039" stroke="#1A2E35" stroke-width="0.8" stroke-linecap="round" stroke-linejoin="round"/>
<path d="M80.2881 75.6909H92.7101" stroke="#1A2E35" stroke-width="0.8" stroke-linecap="round" stroke-linejoin="round"/>
<path d="M69.7949 75.6909H78.9681" stroke="#1A2E35" stroke-width="0.8" stroke-linecap="round" stroke-linejoin="round"/>
<path d="M88.3066 80.9307H92.7108" stroke="#1A2E35" stroke-width="0.8" stroke-linecap="round" stroke-linejoin="round"/>
<path d="M72.7051 80.9307H87.2076" stroke="#1A2E35" stroke-width="0.8" stroke-linecap="round" stroke-linejoin="round"/>
<path d="M69.7949 80.9307H71.4975" stroke="#1A2E35" stroke-width="0.8" stroke-linecap="round" stroke-linejoin="round"/>
<path d="M165.362 65.2114H181.52" stroke="#1A2E35" stroke-width="0.8" stroke-linecap="round" stroke-linejoin="round"/>
<path d="M158.604 65.2114H164.264" stroke="#1A2E35" stroke-width="0.8" stroke-linecap="round" stroke-linejoin="round"/>
<path d="M176.568 70.4512H181.52" stroke="#1A2E35" stroke-width="0.8" stroke-linecap="round" stroke-linejoin="round"/>
<path d="M163.825 70.4512H175.14" stroke="#1A2E35" stroke-width="0.8" stroke-linecap="round" stroke-linejoin="round"/>
<path d="M158.604 70.4512H162.613" stroke="#1A2E35" stroke-width="0.8" stroke-linecap="round" stroke-linejoin="round"/>
<path d="M169.098 75.6909H181.52" stroke="#1A2E35" stroke-width="0.8" stroke-linecap="round" stroke-linejoin="round"/>
<path d="M158.604 75.6909H167.778" stroke="#1A2E35" stroke-width="0.8" stroke-linecap="round" stroke-linejoin="round"/>
<path d="M177.12 80.9307H181.52" stroke="#1A2E35" stroke-width="0.8" stroke-linecap="round" stroke-linejoin="round"/>
<path d="M161.515 80.9307H176.022" stroke="#1A2E35" stroke-width="0.8" stroke-linecap="round" stroke-linejoin="round"/>
<path d="M158.604 80.9307H160.307" stroke="#1A2E35" stroke-width="0.8" stroke-linecap="round" stroke-linejoin="round"/>
<path d="M132.531 42.2036H118.307V56.3273H132.531V42.2036Z" fill="#D7FFB8"/>
<path d="M110.515 42.2036H96.29V56.3273H110.515V42.2036Z" fill="#FFCE8E"/>
<path d="M88.2245 42.2036H74V56.3273H88.2245V42.2036Z" fill="#FFDFE0"/>
<path d="M149.323 44.4289L151.481 45.4079C155.851 38.2059 163.734 33.6992 172.351 33.6992C184.843 33.6992 195.167 43.0834 196.552 55.1284H192.713C191.349 45.1793 182.74 37.4857 172.351 37.4857C165.228 37.4857 158.7 41.1341 154.969 46.9949L156.958 47.8962C157.627 48.2024 157.718 49.1124 157.115 49.535L150.269 54.3694C149.67 54.792 148.832 54.4125 148.762 53.6837L147.967 45.382C147.898 44.6532 148.649 44.1227 149.318 44.4289H149.323Z" fill="#FDC2A6"/>
<path d="M249.91 123.272L250.992 102.701L211.133 101.571L213.565 123.272H249.91Z" fill="#1A2E35"/>
<path d="M210.473 106.185V113.806C210.473 113.806 220.488 118.455 230.765 118.972C241.041 119.49 252.36 117.165 252.36 117.165L252.49 49.0954C252.49 49.0954 245.337 45.4771 238.7 44.4464C232.064 43.4114 212.293 46.3828 212.293 46.3828L210.473 106.185Z" fill="white"/>
<path d="M261.546 111.632C261.546 111.632 258.984 117.217 258.797 118.131C258.61 119.045 258.797 122.159 258.615 123.807C258.432 125.454 257.047 126.006 257.967 126.735C258.888 127.468 260.365 126.002 260.734 125.359C261.103 124.717 261.564 123.436 262.024 122.431C262.484 121.422 263.04 123.255 263.314 123.802C263.592 124.35 263.405 129.844 263.497 130.763C263.588 131.677 262.389 135.067 262.758 135.709C263.127 136.352 263.957 136.352 264.326 135.433C264.695 134.519 265.803 132.686 265.803 132.686C265.803 132.686 270.689 128.658 271.154 128.016C271.614 127.373 269.217 118.675 269.034 117.208C268.852 115.742 268.018 111.624 268.018 111.624H261.546V111.632Z" fill="white" stroke="#1A2E35" stroke-width="0.79" stroke-linecap="round" stroke-linejoin="round"/>
<path d="M265.808 132.695C265.808 132.695 266.915 130.224 267.098 129.215C267.28 128.206 267.467 126.834 267.558 126.558" fill="white"/>
<path d="M265.808 132.695C265.808 132.695 266.915 130.224 267.098 129.215C267.28 128.206 267.467 126.834 267.558 126.558" stroke="#1A2E35" stroke-width="0.79" stroke-linecap="round" stroke-linejoin="round"/>
<path d="M266.823 131.776C266.823 131.776 268.669 129.762 268.852 128.848C269.034 127.934 269.221 126.834 269.221 126.834" fill="white"/>
<path d="M266.823 131.776C266.823 131.776 268.669 129.762 268.852 128.848C269.034 127.934 269.221 126.834 269.221 126.834" stroke="#1A2E35" stroke-width="0.79" stroke-linecap="round" stroke-linejoin="round"/>
<path d="M207.224 46.1929C207.224 46.1929 205.769 51.299 205.331 56.1851C204.892 61.0713 202.16 76.6052 202.16 76.6052C202.16 76.6052 198.876 75.3027 195.654 73.871C193.795 77.0192 192.535 83.9926 192.535 83.9926C192.535 83.9926 198.442 90.1855 200.41 91.4878C202.377 92.7902 203.58 93.3336 205.114 92.7902C206.647 92.2469 209.27 87.033 209.487 86.7095C209.704 86.3818 210.69 48.3664 210.473 47.2796C210.256 46.1929 207.224 46.1929 207.224 46.1929Z" fill="#FDC2A6"/>
<path d="M206.334 79.0029C204.97 77.2261 202.16 76.6094 202.16 76.6094C202.16 76.6094 204.38 78.6665 205.231 80.9478" stroke="#1A2E35" stroke-width="0.79" stroke-linecap="round" stroke-linejoin="round"/>
<path d="M240.122 39.4608C240.122 39.4608 235.526 54.1236 233.997 67.0484C232.464 79.9731 232.903 112.236 232.903 112.236C232.903 112.236 235.2 112.995 243.075 112.887C250.95 112.779 254.672 111.692 254.672 111.692L255.723 77.1958L261.235 87.145L260.032 111.257C260.032 111.257 261.139 112.714 263.971 112.995C267.65 113.357 270.417 112.076 270.417 112.076C270.417 112.076 281.627 84.9714 257.842 48.694C257 47.4046 243.184 40.7632 243.184 40.7632C243.184 40.7632 241.65 38.0463 240.122 39.4608Z" fill="#FDC2A6"/>
<path d="M225.462 39.4609C225.462 39.4609 224.15 56.6207 222.947 64.9871C221.744 73.3492 222.508 111.369 222.508 111.369C222.508 111.369 217.913 110.933 213.648 109.523C209.383 108.113 207.085 107.026 207.085 107.026L207.524 83.9969C207.524 83.9969 205.847 46.8872 207.228 46.1972C208.714 45.4554 221.744 41.4188 221.744 41.4188C221.744 41.4188 223.868 40.276 225.462 39.4652V39.4609Z" fill="#FDC2A6"/>
<path d="M207.52 83.9926C207.52 83.9926 205.843 46.8829 207.224 46.1929" stroke="#1A2E35" stroke-width="0.79" stroke-linecap="round" stroke-linejoin="round"/>
<path d="M192.874 82.0217L192.535 83.9926C192.987 83.9149 197.565 83.9926 198.907 78.77C199.45 76.6526 198.881 75.3027 198.881 75.3027" stroke="#1A2E35" stroke-width="0.79" stroke-linecap="round" stroke-linejoin="round"/>
<path d="M192.969 70.8521C192.969 70.8521 190.124 68.463 188.482 68.2474C186.841 68.0317 184.217 68.8985 181.92 68.8985C179.622 68.8985 178.089 67.5961 177.763 68.7907C177.433 69.9853 179.405 71.7233 180.499 72.051C181.594 72.3788 184.109 72.051 184.656 72.051C185.203 72.051 185.859 72.5944 185.859 72.5944C185.859 72.5944 184.699 75.3372 184.374 75.7728C184.043 76.2084 182.549 76.9803 182.549 76.9803C182.549 76.9803 176.89 74.5523 177.216 75.7469C177.546 76.9415 180.716 79.3307 182.467 80.0897C184.217 80.8487 188.044 81.612 189.907 82.0433C191.766 82.4788 193.299 82.8023 194.394 81.2843C195.488 79.7619 197.677 77.8083 197.456 74.768C197.239 71.7276 194.832 70.7486 192.969 70.8565V70.8521Z" fill="white" stroke="#1A2E35" stroke-width="0.79" stroke-linecap="round" stroke-linejoin="round"/>
<path d="M188.122 78.0844C188.122 78.0844 186.602 76.0877 184.7 75.1734C182.797 74.2548 180.951 74.2548 181.551 75.4451C182.15 76.6354 184.104 78.8434 185.025 79.8137C185.95 80.7841 186.385 81.1636 187.253 81.5388C188.122 81.914 188.991 81.6466 188.882 80.4606C188.774 79.2747 188.122 78.0887 188.122 78.0887V78.0844Z" fill="white" stroke="#1A2E35" stroke-width="0.79" stroke-linecap="round" stroke-linejoin="round"/>
<path d="M189.533 78.2483C189.533 78.2483 184.43 76.2516 184.156 77.761C183.882 79.2704 185.459 79.1626 187.361 80.5125C189.264 81.8623 190.619 82.1297 191.218 82.0779C191.818 82.0262 192.035 80.9998 192.035 80.9998L189.537 78.2483H189.533Z" fill="white" stroke="#1A2E35" stroke-width="0.79" stroke-linecap="round" stroke-linejoin="round"/>
<path d="M194.385 79.3263C194.385 79.3263 190.094 75.1733 189.607 76.8465C189.116 78.5198 192.213 81.4308 193.082 81.8621C193.95 82.2933 194.819 80.7839 195.362 80.0292" fill="white"/>
<path d="M194.385 79.3263C194.385 79.3263 190.094 75.1733 189.607 76.8465C189.116 78.5198 192.213 81.4308 193.082 81.8621C193.95 82.2933 194.819 80.7839 195.362 80.0292" stroke="#1A2E35" stroke-width="0.79" stroke-linecap="round" stroke-linejoin="round"/>
<path d="M240.986 32.3236C240.986 32.3236 240.278 39.2583 240.195 39.3661C240.169 39.3963 240.147 39.4265 240.121 39.461C239.691 40.0345 239.357 41.9623 238.775 44.0927L231.174 38.0982L237.98 34.7214L240.986 32.3193V32.3236Z" fill="#1A2E35"/>
<path d="M243.183 40.1167L242.853 56.953C242.853 56.953 240.446 56.3018 238.04 57.0608" stroke="white" stroke-width="0.79" stroke-linecap="round" stroke-linejoin="round"/>
<path d="M250.511 59.7734C250.511 59.7734 249.855 63.6849 249.416 67.2687C251.336 69.6018 261.23 87.1454 261.23 87.1454L260.791 95.9732" stroke="#1A2E35" stroke-width="0.79" stroke-linecap="round" stroke-linejoin="round"/>
<path d="M221.74 40.8237L217.366 56.5733C217.366 56.5733 220.354 55.4994 222.739 57.7377" stroke="white" stroke-width="0.79" stroke-linecap="round" stroke-linejoin="round"/>
<path d="M240.121 39.4609C240.121 39.4609 235.525 54.1237 233.996 67.0485C232.463 79.9733 232.902 112.236 232.902 112.236" stroke="#1A2E35" stroke-width="0.79" stroke-linecap="round" stroke-linejoin="round"/>
<path d="M225.461 39.4609C225.461 39.4609 224.15 56.6207 222.947 64.9871C221.744 73.3492 222.508 111.369 222.508 111.369" stroke="#1A2E35" stroke-width="0.79" stroke-linecap="round" stroke-linejoin="round"/>
<path d="M240.664 33.7036L240.191 39.366C240.165 39.3962 240.143 39.4264 240.117 39.4609C239.687 40.0345 239.352 41.9622 238.77 44.0926C238.145 46.3696 236.729 52.0881 236.729 52.0881C235.226 53.0714 233.241 53.4725 231.365 53.4725C227.534 53.4725 224.789 50.0483 224.789 48.8796C224.789 48.1076 225.436 39.2237 225.888 34.937" stroke="#1A2E35" stroke-width="0.79" stroke-linecap="round" stroke-linejoin="round"/>
<path d="M243.526 26.338C244.877 26.338 246.319 25.0701 246.67 23.9014C247.096 22.4869 246.523 20.2572 243.521 21.1974C243.508 21.1974 243.504 21.9262 243.491 21.9262C243.556 20.5074 243.561 19.6017 243.561 19.6017L243.435 9.92863C243.435 9.92863 240.876 8.6133 237.041 8.8548C233.206 9.09199 223.746 12.9129 223.746 12.9129L223.234 16.7339C223.234 16.7339 223.164 19.0842 223.164 21.9219V21.2233C221.813 21.2233 220.35 21.5898 220.35 23.5305C220.35 25.4712 221.813 26.3337 223.16 26.3337C223.186 26.3337 223.208 26.3337 223.234 26.3337" fill="white"/>
<path d="M243.526 26.338C244.877 26.338 246.319 25.0701 246.67 23.9014C247.096 22.4869 246.523 20.2572 243.521 21.1974C243.508 21.1974 243.504 21.9262 243.491 21.9262C243.556 20.5074 243.561 19.6017 243.561 19.6017L243.435 9.92863C243.435 9.92863 240.876 8.6133 237.041 8.8548C233.206 9.09199 223.746 12.9129 223.746 12.9129L223.234 16.7339C223.234 16.7339 223.164 19.0842 223.164 21.9219V21.2233C221.813 21.2233 220.35 21.5898 220.35 23.5305C220.35 25.4712 221.813 26.3337 223.16 26.3337C223.186 26.3337 223.208 26.3337 223.234 26.3337" stroke="#1A2E35" stroke-width="0.79" stroke-linecap="round" stroke-linejoin="round"/>
<path d="M223.177 24.958C223.177 24.958 222.456 30.0167 225.792 34.7993C227.672 37.499 231.025 38.7669 234.214 37.8914C237.914 36.878 242.457 33.8678 243.382 25.3246" fill="white"/>
<path d="M223.177 24.958C223.177 24.958 222.456 30.0167 225.792 34.7993C227.672 37.499 231.025 38.7669 234.214 37.8914C237.914 36.878 242.457 33.8678 243.382 25.3246" stroke="#1A2E35" stroke-width="0.79" stroke-linecap="round" stroke-linejoin="round"/>
<path d="M240.268 13.0249C240.268 13.0249 238.831 17.1736 235.569 18.2259C233.849 18.7822 233.54 16.2896 233.54 16.2896C233.54 16.2896 229.653 19.2609 224.12 20.4469C218.586 21.6328 214.1 21.9304 212.605 19.8518C211.111 17.7731 212.158 12.5764 215.893 8.56574C219.633 4.55505 230.491 -2.16826 237.298 0.686668C243.552 3.31303 241.615 7.97061 241.615 7.97061C241.615 7.97061 248.212 4.11948 248.173 13.0508C248.165 15.6082 247.109 17.9154 246.241 19.3084C245.215 20.9558 243.435 20.9773 243.435 20.9773C243.435 20.9773 241.311 21.18 240.416 18.062C239.517 14.944 240.268 13.012 240.268 13.012V13.0249Z" fill="#FCAD88"/>
<path d="M231.369 33.9192C231.969 33.9537 232.594 33.9278 233.176 33.7812C235.2 33.268 236.247 31.3618 236.247 31.3618" stroke="#1A2E35" stroke-width="0.79" stroke-linecap="round" stroke-linejoin="round"/>
<path d="M235.726 19.8258C236.442 19.5196 237.493 19.3471 238.614 20.1148" stroke="#1A2E35" stroke-width="0.79" stroke-linecap="round" stroke-linejoin="round"/>
<path d="M229.475 20.0758C228.88 19.7308 228.016 19.4548 227.056 19.8602" stroke="#1A2E35" stroke-width="0.79" stroke-linecap="round" stroke-linejoin="round"/>
<path d="M231.369 21.9219C232.016 24.738 231.369 26.7778 231.369 26.7778C231.369 26.7778 229.358 27.3773 229.931 28.8004C230.205 29.4775 231.143 29.6845 231.803 29.6069" stroke="#1A2E35" stroke-width="0.79" stroke-linecap="round" stroke-linejoin="round"/>
<path d="M237.293 22.3704C237.293 22.1227 237.091 21.9219 236.841 21.9219C236.592 21.9219 236.39 22.1227 236.39 22.3704V23.4485C236.39 23.6962 236.592 23.897 236.841 23.897C237.091 23.897 237.293 23.6962 237.293 23.4485V22.3704Z" fill="#1A2E35"/>
<path d="M228.793 22.3704C228.793 22.1227 228.591 21.9219 228.341 21.9219C228.092 21.9219 227.89 22.1227 227.89 22.3704V23.4485C227.89 23.6962 228.092 23.897 228.341 23.897C228.591 23.897 228.793 23.6962 228.793 23.4485V22.3704Z" fill="#1A2E35"/>
<path d="M207.094 68.0836H176.078V36.7959H207.094V68.0836Z" fill="white" stroke="#1A2E35" stroke-width="0.9" stroke-linecap="round" stroke-linejoin="round"/>
<path d="M195.272 42.4886C195.272 44.5069 193.621 46.1457 191.588 46.1457C189.556 46.1457 187.905 44.5069 187.905 42.4886C187.905 40.4703 189.556 38.8315 191.588 38.8315C193.621 38.8315 195.272 40.4703 195.272 42.4886Z" fill="#FCAD88"/>
<path d="M201.091 47.875H182.076V54.111H201.091V47.875Z" fill="#FCAD88"/>
<path d="M200.427 55.728H182.745V64.5084H200.427V55.728Z" stroke="#1A2E35" stroke-width="0.9" stroke-linecap="round" stroke-linejoin="round"/>
<path d="M182.745 64.5087L188.913 61.0327L192.044 61.947L196.926 58.1045L200.336 60.2996V64.5087H182.745Z" fill="#1A2E35" stroke="#1A2E35" stroke-width="0.9" stroke-linecap="round" stroke-linejoin="round"/>
<path d="M186.059 59.9327C186.822 59.9327 187.44 59.3187 187.44 58.5613C187.44 57.8039 186.822 57.1899 186.059 57.1899C185.296 57.1899 184.678 57.8039 184.678 58.5613C184.678 59.3187 185.296 59.9327 186.059 59.9327Z" fill="#1A2E35" stroke="#1A2E35" stroke-width="0.9" stroke-linecap="round" stroke-linejoin="round"/>
<path d="M12.4797 40.0734C12.4797 40.0734 10.8856 44.4334 7.49347 45.0243C4.10129 45.6194 -1.88387 39.0815 1.90789 35.7134C5.69965 32.3453 10.8856 37.6929 12.484 40.0734H12.4797Z" fill="#B7F18B"/>
<path d="M17.6663 18.6785C17.6663 18.6785 12.6801 30.7624 14.6737 36.7051C16.6673 42.6478 29.0372 47.0079 32.6292 39.2797C36.2211 31.5559 28.238 20.658 25.2455 18.2818C22.2529 15.9056 18.6609 16.6991 17.6619 18.6785H17.6663Z" fill="#B7F18B"/>
<path d="M46.7928 23.828C46.7928 23.828 38.2146 31.5518 37.2156 39.2799C36.2167 47.0038 42.002 49.7811 47.9872 48.7892C53.9724 47.7973 56.965 32.7421 55.1712 25.8118C53.3773 18.8772 46.7928 23.8323 46.7928 23.8323V23.828Z" fill="#B7F18B"/>
<path d="M48.3907 66.6171C48.3907 66.6171 38.8136 67.0139 38.414 71.5679C38.0144 76.122 42.6053 77.1139 47.1919 73.1507C51.7785 69.1874 52.3779 66.8112 48.3907 66.6128V66.6171Z" fill="#B7F18B"/>
<path d="M24.6504 76.1263C24.6504 76.1263 23.6514 80.8788 20.0638 82.6642C16.4718 84.4453 10.0871 80.6847 13.4793 74.9403C16.8714 69.196 22.8566 73.7501 24.6504 76.1306V76.1263Z" fill="#B7F18B"/>
<path d="M16.2716 61.2698C16.2716 61.2698 14.4778 57.3066 7.49364 59.8812C0.509498 62.4558 -2.28329 66.419 2.10786 67.8034C6.49901 69.192 16.2716 61.2655 16.2716 61.2655V61.2698Z" fill="#B7F18B"/>
<path d="M36.2207 13.7236C36.2207 13.7236 37.4195 16.4966 39.8127 15.9014C42.2059 15.3063 42.8052 11.7398 46.597 12.7317C50.3888 13.7236 53.5812 18.0793 53.5812 16.0998C53.5812 14.1203 48.7948 8.9668 43.4046 8.9668C38.0145 8.9668 36.4205 11.1446 36.2207 13.7193V13.7236Z" fill="#B7F18B"/>
<path d="M26.3525 43.6484C26.3525 43.6484 30.5265 55.784 31.4213 66.1428C32.316 76.5016 31.4213 93.0792 31.4213 93.0792" stroke="#1A2E35" stroke-width="0.75" stroke-linecap="round" stroke-linejoin="round"/>
<path d="M40.9591 47.793C40.9591 47.793 36.1901 61.7053 34.9956 70.5849C33.8012 79.4645 33.5059 93.0793 33.5059 93.0793" stroke="#1A2E35" stroke-width="0.75" stroke-linecap="round" stroke-linejoin="round"/>
<path d="M38.5751 72.6548C38.5751 72.6548 36.4903 73.2456 35.2959 93.3767" stroke="#1A2E35" stroke-width="0.75" stroke-linecap="round" stroke-linejoin="round"/>
<path d="M24.6504 76.1268C24.6504 76.1268 26.6483 74.4319 27.8428 78.2787C29.0372 82.1255 28.4378 92.7819 28.4378 92.7819" stroke="#1A2E35" stroke-width="0.75" stroke-linecap="round" stroke-linejoin="round"/>
<path d="M29.8057 74.2202C31.3649 82.8971 29.9273 92.4883 29.9273 92.4883" stroke="#1A2E35" stroke-width="0.75" stroke-linecap="round" stroke-linejoin="round"/>
<path d="M16.2715 61.2699C16.2715 61.2699 24.8627 59.6311 28.4416 69.1058C28.7934 70.0373 29.0888 71.0077 29.3363 72.0039" stroke="#1A2E35" stroke-width="0.75" stroke-linecap="round" stroke-linejoin="round"/>
<path d="M52.1221 52.0926C52.1221 52.0926 53.9159 48.1293 60.9 50.7039C67.8842 53.2785 70.677 57.2418 66.2858 58.6261C61.8947 60.0148 52.1221 52.0883 52.1221 52.0883V52.0926Z" fill="#B7F18B"/>
<path d="M44.4864 53.8262C42.7577 54.9992 41.0985 56.8924 39.9562 59.9242C36.3773 69.3946 36.7856 92.7817 36.7856 92.7817" stroke="#1A2E35" stroke-width="0.75" stroke-linecap="round" stroke-linejoin="round"/>
<path d="M52.1219 52.0925C52.1219 52.0925 49.2726 51.5491 46.1758 52.8989" stroke="#1A2E35" stroke-width="0.75" stroke-linecap="round" stroke-linejoin="round"/>
<path d="M21.8877 46.1152C23.751 48.2888 25.5578 51.2256 26.9477 55.1889C31.7167 68.8037 33.5062 86.2696 32.6115 92.7816" stroke="#1A2E35" stroke-width="0.75" stroke-linecap="round" stroke-linejoin="round"/>
<path d="M12.4795 40.0732C12.4795 40.0732 16.6404 40.7158 20.8492 44.9853" stroke="#1A2E35" stroke-width="0.75" stroke-linecap="round" stroke-linejoin="round"/>
<path d="M34.001 58.8589C33.71 76.0445 33.5059 93.0792 33.5059 93.0792" stroke="#1A2E35" stroke-width="0.75" stroke-linecap="round" stroke-linejoin="round"/>
<path d="M36.2208 13.7236C36.2208 13.7236 35.2957 12.8611 34.6963 28.2527C34.4661 34.2342 34.2316 45.3563 34.0361 56.7157" stroke="#1A2E35" stroke-width="0.75" stroke-linecap="round" stroke-linejoin="round"/>
<path d="M43.0576 123.271H23.6601C22.331 123.271 21.2147 122.267 21.0888 120.956L18.3047 92.4883H48.4129L45.6288 120.956C45.4985 122.271 44.3866 123.271 43.0576 123.271Z" fill="white" stroke="#1A2E35" stroke-width="0.75" stroke-linecap="round" stroke-linejoin="round"/>
<path d="M19.1992 101.666L19.5163 104.922H47.1966L47.5137 101.666H19.1992Z" fill="#1A2E35" stroke="#1A2E35" stroke-width="0.77" stroke-linecap="round" stroke-linejoin="round"/>
<path d="M46.5013 112.024L46.675 110.248H20.0371L20.2108 112.024H46.5013Z" fill="#1A2E35"/>
<path d="M44.239 100.182C45.5559 100.182 46.6235 99.122 46.6235 97.8144C46.6235 96.5068 45.5559 95.4468 44.239 95.4468C42.9221 95.4468 41.8545 96.5068 41.8545 97.8144C41.8545 99.122 42.9221 100.182 44.239 100.182Z" fill="#FDC2A6"/>
<path d="M22.7742 100.182C24.0902 100.182 25.1587 99.1211 25.1587 97.8144C25.1587 96.5077 24.0902 95.4468 22.7742 95.4468C21.4581 95.4468 20.3896 96.5077 20.3896 97.8144C20.3896 99.1211 21.4581 100.182 22.7742 100.182Z" fill="#FDC2A6"/>
<path d="M27.543 97.8144C27.543 99.1211 28.6114 100.182 29.9275 100.182C31.2435 100.182 32.312 99.1211 32.312 97.8144C32.312 96.5077 31.2435 95.4468 29.9275 95.4468C28.6114 95.4468 27.543 96.5077 27.543 97.8144Z" fill="#FDC2A6"/>
<path d="M37.0857 100.182C38.4026 100.182 39.4702 99.122 39.4702 97.8144C39.4702 96.5068 38.4026 95.4468 37.0857 95.4468C35.7687 95.4468 34.7012 96.5068 34.7012 97.8144C34.7012 99.122 35.7687 100.182 37.0857 100.182Z" fill="#FDC2A6"/>
</svg>
