<svg width="25" height="24" viewBox="0 0 25 24" fill="none" xmlns="http://www.w3.org/2000/svg">
<path d="M12.4 11.8014C11.9056 11.8014 11.4222 11.6548 11.0111 11.3801C10.6 11.1054 10.2796 10.7149 10.0903 10.2581C9.90112 9.80128 9.85161 9.29861 9.94807 8.81366C10.0445 8.32871 10.2826 7.88325 10.6323 7.53362C10.9819 7.18399 11.4274 6.94589 11.9123 6.84942C12.3973 6.75296 12.8999 6.80247 13.3568 6.99169C13.8136 7.18091 14.204 7.50134 14.4787 7.91246C14.7534 8.32358 14.9 8.80693 14.9 9.30138C14.8897 9.96121 14.623 10.5911 14.1564 11.0577C13.6898 11.5244 13.0599 11.7911 12.4 11.8014ZM12.4 2.30138C11.4792 2.29567 10.5664 2.47284 9.71452 2.8226C8.86266 3.17236 8.08872 3.68776 7.43757 4.33891C6.78642 4.99006 6.27101 5.764 5.92125 6.61586C5.57148 7.46772 5.39433 8.38054 5.40004 9.30138C5.40004 13.5014 9.80005 19.2014 11.6 21.4014C11.6874 21.5177 11.8007 21.6121 11.9309 21.6772C12.061 21.7422 12.2045 21.7761 12.35 21.7761C12.4956 21.7761 12.6391 21.7422 12.7692 21.6772C12.8994 21.6121 13.0127 21.5177 13.1 21.4014C14.9 19.2014 19.3 13.5014 19.3 9.30138C19.3254 8.38367 19.1651 7.47029 18.8286 6.6161C18.4921 5.76192 17.9865 4.98457 17.342 4.33075C16.6975 3.67693 15.9275 3.16012 15.0783 2.81138C14.229 2.46265 13.318 2.28917 12.4 2.30138Z" fill="#00283C"/>
</svg>
