<svg width="18" height="18" viewBox="0 0 18 18" fill="none" xmlns="http://www.w3.org/2000/svg">
<path fill-rule="evenodd" clip-rule="evenodd" d="M11.25 3C12.2295 3 13.0635 3.62625 13.3725 4.5H6.75C5.75544 4.5 4.80161 4.89509 4.09835 5.59835C3.39509 6.30161 3 7.25544 3 8.25V11.8725C2.56119 11.7172 2.18132 11.4298 1.91268 11.0496C1.64404 10.6695 1.49987 10.2155 1.5 9.75V5.25C1.5 4.65326 1.73705 4.08097 2.15901 3.65901C2.58097 3.23705 3.15326 3 3.75 3H11.25ZM14.25 6H6.75C6.15326 6 5.58097 6.23705 5.15901 6.65901C4.73705 7.08097 4.5 7.65326 4.5 8.25V12.75C4.5 13.3467 4.73705 13.919 5.15901 14.341C5.58097 14.7629 6.15326 15 6.75 15H14.25C14.8467 15 15.419 14.7629 15.841 14.341C16.2629 13.919 16.5 13.3467 16.5 12.75V8.25C16.5 7.65326 16.2629 7.08097 15.841 6.65901C15.419 6.23705 14.8467 6 14.25 6ZM12 10.5C12 10.8978 11.842 11.2794 11.5607 11.5607C11.2794 11.842 10.8978 12 10.5 12C10.1022 12 9.72064 11.842 9.43934 11.5607C9.15803 11.2794 9 10.8978 9 10.5C9 10.1022 9.15803 9.72064 9.43934 9.43934C9.72064 9.15803 10.1022 9 10.5 9C10.8978 9 11.2794 9.15803 11.5607 9.43934C11.842 9.72064 12 10.1022 12 10.5V10.5Z" fill="#0050FF"/>
</svg>
