<svg width="12" height="13" viewBox="0 0 12 13" fill="none" xmlns="http://www.w3.org/2000/svg">
<path d="M4.90954 3.77275C5.06076 3.77592 5.21109 3.74888 5.35172 3.6932C5.49236 3.63752 5.62046 3.55434 5.72853 3.44851C5.8366 3.34269 5.92246 3.21635 5.98107 3.07692C6.03968 2.93749 6.06988 2.78775 6.06988 2.6365C6.06988 2.48525 6.03968 2.33551 5.98107 2.19608C5.92246 2.05665 5.8366 1.93031 5.72853 1.82449C5.62046 1.71866 5.49236 1.63548 5.35172 1.5798C5.21109 1.52412 5.06076 1.49708 4.90954 1.50025C4.61231 1.50649 4.32936 1.62894 4.12136 1.84135C3.91336 2.05375 3.79688 2.33921 3.79688 2.6365C3.79688 2.93379 3.91336 3.21925 4.12136 3.43165C4.32936 3.64406 4.61231 3.76652 4.90954 3.77275Z" fill="#001E2D"/>
<path fill-rule="evenodd" clip-rule="evenodd" d="M1.68164 11.4991H3.27264L4.22714 9.99906L3.40864 8.72656L1.68164 11.4996V11.4991Z" fill="#335363"/>
<path fill-rule="evenodd" clip-rule="evenodd" d="M5.591 7.90719L7.8635 11.4982H6.227L3.7725 7.58819V6.04319H3.3635C3.091 6.04319 2.8635 6.27019 2.8635 6.54319V8.08819H1.5V6.54319C1.5 5.49819 2.3635 4.67969 3.3635 4.67969H6L8.1365 6.81619L7.227 7.67969L5.591 6.04369V7.90719Z" fill="#335363"/>
<path d="M10.3644 9.273L9.54644 10.091C9.41301 10.2221 9.23346 10.2955 9.04644 10.2955C8.85941 10.2955 8.67986 10.2221 8.54644 10.091L7.27344 8.773L7.95544 8.091L8.63744 7.4545L9.09194 7L10.3644 8.318C10.6829 8.5455 10.6374 9 10.3644 9.273Z" fill="#335363"/>
</svg>
