<svg width="200" height="200" viewBox="0 0 200 200" fill="none" xmlns="http://www.w3.org/2000/svg">
<g clip-path="url(#clip0_5375_96796)">
<path d="M126.968 46.3117H73.0766C71.8485 46.3132 70.6711 46.8015 69.8027 47.6696C68.9343 48.5377 68.4458 49.7147 68.4443 50.9423V170.675L67.8267 170.864L54.6063 174.911C53.9797 175.102 53.303 175.037 52.7246 174.729C52.1462 174.422 51.7135 173.898 51.5213 173.272L12.1967 44.8638C12.0053 44.2375 12.0705 43.5608 12.378 42.9825C12.6855 42.4042 13.2101 41.9716 13.8365 41.7798L34.2091 35.5439L93.27 17.472L113.643 11.2361C113.953 11.1407 114.278 11.1074 114.601 11.138C114.924 11.1686 115.238 11.2626 115.524 11.4146C115.811 11.5665 116.065 11.7735 116.271 12.0236C116.478 12.2738 116.633 12.5621 116.728 12.8722L126.78 45.6943L126.968 46.3117Z" fill="#F2F2F2"/>
<path d="M138.728 45.6944L126.613 6.13628C126.412 5.47717 126.082 4.86422 125.644 4.33246C125.205 3.8007 124.666 3.36055 124.057 3.03716C123.448 2.71378 122.781 2.51349 122.095 2.44775C121.409 2.38201 120.716 2.45211 120.057 2.65403L91.4145 11.4183L32.3567 29.4933L3.71411 38.2606C2.38352 38.6691 1.26941 39.5886 0.616305 40.8173C-0.0367959 42.0461 -0.175524 43.4837 0.230578 44.8145L41.6366 180.008C41.9665 181.082 42.6321 182.022 43.5359 182.691C44.4396 183.359 45.5338 183.721 46.658 183.722C47.1783 183.722 47.6957 183.644 48.1927 183.49L67.8272 177.483L68.4448 177.291V176.646L67.8272 176.834L48.0106 182.9C46.8361 183.258 45.5675 183.136 44.4832 182.56C43.3989 181.984 42.5873 181.002 42.2265 179.829L0.823631 44.6324C0.644854 44.0511 0.582546 43.4402 0.640271 42.8348C0.697997 42.2293 0.874618 41.6412 1.16003 41.1041C1.44544 40.567 1.83404 40.0915 2.30357 39.7047C2.77309 39.318 3.31431 39.0276 3.89625 38.8503L32.5389 30.0829L91.5968 12.011L120.239 3.24367C120.681 3.10901 121.14 3.04035 121.601 3.03992C122.592 3.04215 123.555 3.36134 124.351 3.95075C125.147 4.54016 125.733 5.36881 126.024 6.31533L138.083 45.6944L138.274 46.3118H138.917L138.728 45.6944Z" fill="#3F3D56"/>
<path d="M37.8858 41.8808C37.2905 41.8804 36.7111 41.6893 36.2325 41.3355C35.7539 40.9818 35.4013 40.4841 35.2264 39.9153L31.2488 26.9273C31.1419 26.5785 31.1048 26.212 31.1396 25.8488C31.1745 25.4855 31.2805 25.1327 31.4518 24.8105C31.623 24.4883 31.8561 24.2029 32.1376 23.9708C32.4192 23.7386 32.7438 23.5641 33.0928 23.4574L87.4255 6.8291C88.1303 6.61409 88.8916 6.68742 89.5425 7.03299C90.1933 7.37856 90.6803 7.96813 90.8968 8.67232L94.8744 21.6604C95.0894 22.365 95.0159 23.1261 94.6703 23.7766C94.3246 24.4272 93.7349 24.9141 93.0306 25.1306L38.6977 41.7588C38.4346 41.8396 38.161 41.8807 37.8858 41.8808Z" fill="#0050FF"/>
<path d="M58.7222 16.2986C62.1333 16.2986 64.8985 13.5343 64.8985 10.1244C64.8985 6.71448 62.1333 3.9502 58.7222 3.9502C55.3111 3.9502 52.5459 6.71448 52.5459 10.1244C52.5459 13.5343 55.3111 16.2986 58.7222 16.2986Z" fill="#0050FF"/>
<path d="M58.7225 14.0342C60.8826 14.0342 62.6336 12.2838 62.6336 10.1245C62.6336 7.96527 60.8826 6.21484 58.7225 6.21484C56.5625 6.21484 54.8115 7.96527 54.8115 10.1245C54.8115 12.2838 56.5625 14.0342 58.7225 14.0342Z" fill="white"/>
<path d="M186.103 182.144H81.7236C81.0276 182.143 80.3604 181.866 79.8683 181.374C79.3762 180.882 79.0994 180.215 79.0986 179.52V54.4922C79.0994 53.7965 79.3762 53.1295 79.8683 52.6376C80.3604 52.1456 81.0276 51.8689 81.7236 51.8682H186.103C186.799 51.869 187.466 52.1457 187.958 52.6376C188.45 53.1295 188.727 53.7965 188.728 54.4922V179.52C188.727 180.215 188.45 180.882 187.958 181.374C187.466 181.866 186.799 182.143 186.103 182.144Z" fill="#E6E6E6"/>
<path d="M138.083 45.6943H73.077C71.6853 45.6963 70.3511 46.2499 69.367 47.2336C68.3829 48.2174 67.8291 49.5511 67.8271 50.9424V176.834L68.4448 176.646V50.9424C68.4463 49.7147 68.9348 48.5378 69.8032 47.6697C70.6716 46.8016 71.8489 46.3132 73.077 46.3118H138.274L138.083 45.6943ZM194.75 45.6943H73.077C71.6853 45.6963 70.3511 46.2499 69.367 47.2336C68.3829 48.2174 67.8291 49.5511 67.8271 50.9424V192.332C67.8291 193.723 68.3829 195.057 69.367 196.04C70.3511 197.024 71.6853 197.578 73.077 197.58H194.75C196.142 197.578 197.476 197.024 198.46 196.04C199.444 195.057 199.998 193.723 200 192.332V50.9424C199.998 49.5511 199.444 48.2174 198.46 47.2336C197.476 46.2499 196.142 45.6963 194.75 45.6943ZM199.382 192.332C199.381 193.559 198.892 194.736 198.024 195.604C197.156 196.472 195.978 196.961 194.75 196.962H73.077C71.8489 196.961 70.6716 196.472 69.8032 195.604C68.9348 194.736 68.4463 193.559 68.4448 192.332V50.9424C68.4463 49.7147 68.9348 48.5378 69.8032 47.6697C70.6716 46.8016 71.8489 46.3132 73.077 46.3118H194.75C195.978 46.3132 197.156 46.8016 198.024 47.6697C198.892 48.5378 199.381 49.7147 199.382 50.9424V192.332Z" fill="#3F3D56"/>
<path d="M162.325 59.2767H105.503C104.766 59.2759 104.06 58.9829 103.539 58.462C103.018 57.9412 102.724 57.235 102.724 56.4983V42.9151C102.724 42.1785 103.018 41.4723 103.539 40.9514C104.06 40.4305 104.766 40.1375 105.503 40.1367H162.325C163.062 40.1375 163.768 40.4305 164.289 40.9514C164.81 41.4723 165.104 42.1785 165.104 42.9151V56.4983C165.104 57.235 164.81 57.9412 164.289 58.462C163.768 58.9829 163.062 59.2759 162.325 59.2767Z" fill="#0050FF"/>
<path d="M133.914 41.0632C137.325 41.0632 140.09 38.299 140.09 34.889C140.09 31.4791 137.325 28.7148 133.914 28.7148C130.503 28.7148 127.737 31.4791 127.737 34.889C127.737 38.299 130.503 41.0632 133.914 41.0632Z" fill="#0050FF"/>
<path d="M133.913 38.6502C135.991 38.6502 137.675 36.9665 137.675 34.8896C137.675 32.8126 135.991 31.1289 133.913 31.1289C131.836 31.1289 130.151 32.8126 130.151 34.8896C130.151 36.9665 131.836 38.6502 133.913 38.6502Z" fill="white"/>
</g>
<defs>
<clipPath id="clip0_5375_96796">
<rect width="200" height="195.158" fill="white" transform="translate(0 2.4209)"/>
</clipPath>
</defs>
</svg>
