<svg width="32" height="32" viewBox="0 0 32 32" fill="none" xmlns="http://www.w3.org/2000/svg">
<path d="M22.6109 28H24.4218C25.3382 28 26.0909 27.3015 26.2 26.4065L28 8.42019H22.5455V4H20.3964V8.42019H14.9745L15.3018 10.9741C17.1673 11.487 18.9127 12.4147 19.96 13.4407C21.5309 14.9904 22.6109 16.5948 22.6109 19.2142V28V28ZM4 26.9086V25.8281H20.3964V26.9086C20.3964 27.5089 19.9055 28 19.2945 28H5.10182C4.49091 28 4 27.5089 4 26.9086V26.9086ZM20.3964 19.2688C20.3964 10.5375 4 10.5375 4 19.2688H20.3964ZM4.02182 21.4625H20.3855V23.6453H4.02182V21.4625Z" fill="#BABEC3"/>
<path d="M4 0.5H28V-0.5H4V0.5ZM31.5 4V28H32.5V4H31.5ZM28 31.5H4V32.5H28V31.5ZM0.5 28V4H-0.5V28H0.5ZM4 31.5C2.067 31.5 0.5 29.933 0.5 28H-0.5C-0.5 30.4853 1.51472 32.5 4 32.5V31.5ZM31.5 28C31.5 29.933 29.933 31.5 28 31.5V32.5C30.4853 32.5 32.5 30.4853 32.5 28H31.5ZM28 0.5C29.933 0.5 31.5 2.067 31.5 4H32.5C32.5 1.51472 30.4853 -0.5 28 -0.5V0.5ZM4 -0.5C1.51472 -0.5 -0.5 1.51472 -0.5 4H0.5C0.5 2.067 2.067 0.5 4 0.5V-0.5Z" fill="#E4E6E7"/>
</svg>
