<svg width="200" height="124" viewBox="0 0 200 124" fill="none" xmlns="http://www.w3.org/2000/svg">
<g clip-path="url(#clip0_5442_88878)">
<path d="M166.936 116.694H159.589V123.177H166.936V116.694Z" fill="#F0F0F0"/>
<path d="M200 54.4575C200.003 64.2332 197.375 73.8295 192.39 82.2389C187.405 90.6484 180.249 97.5608 171.671 102.251C171.185 102.516 170.692 102.776 170.198 103.026C168.362 103.962 166.474 104.79 164.542 105.507C163.773 105.797 162.996 106.066 162.21 106.315C162.135 106.341 162.057 106.367 161.981 106.389C154.292 108.83 146.155 109.529 138.161 108.435C130.168 107.34 122.519 104.48 115.768 100.061C114.863 99.4693 113.976 98.8512 113.108 98.2073C112.617 97.842 112.133 97.4704 111.656 97.0879C110.305 96.016 109.008 94.88 107.766 93.6799C102.483 88.6057 98.2819 82.5149 95.4152 75.7742C92.5485 69.0336 91.0755 61.7825 91.085 54.4575C91.085 24.3806 115.466 0 145.543 0C175.62 0 200 24.3806 200 54.4575Z" fill="#0050FF" fill-opacity="0.08"/>
<path d="M158.548 79.8711L157.32 84.513L161.982 106.389C149.452 110.336 135.92 109.64 123.861 104.429L127.5 89.17L127.621 80.8933L128.017 53.6019L128.116 53.55C128.122 53.5462 128.129 53.5433 128.136 53.5414L137.407 48.7806L153.402 48.3809L165.338 54.194L165.247 54.5333L158.548 79.8711Z" fill="#3F3D56"/>
<path d="M165.088 119.751C164.72 119.314 164.453 118.801 164.305 118.25C164.158 117.698 164.133 117.121 164.232 116.558C164.331 115.996 164.553 115.462 164.881 114.995C165.209 114.527 165.636 114.137 166.131 113.852L163.534 100.215L170.193 102.99L171.638 115.515C172.061 116.378 172.153 117.367 171.896 118.293C171.639 119.22 171.052 120.02 170.244 120.542C169.437 121.064 168.466 121.272 167.516 121.126C166.565 120.981 165.701 120.491 165.088 119.751Z" fill="#9E616A"/>
<path d="M162.931 54.6185L164.64 54.0625C164.64 54.0625 170.06 57.5409 169.544 65.9507C169.544 65.9507 169.747 70.3024 169.553 73.1987C169.331 76.5206 172.313 109.531 172.313 109.531H162.655L158.516 79.6374L162.931 54.6185Z" fill="#3F3D56"/>
<path d="M157.329 33.4585C157.329 35.6516 156.679 37.7954 155.46 39.6189C154.242 41.4424 152.51 42.8636 150.484 43.7029C148.458 44.5421 146.228 44.7617 144.077 44.3338C141.927 43.906 139.951 42.8499 138.4 41.2992C136.849 39.7485 135.793 37.7727 135.365 35.6218C134.938 33.4708 135.157 31.2413 135.996 29.2152C136.836 27.1891 138.257 25.4573 140.08 24.2389C141.904 23.0205 144.048 22.3702 146.241 22.3702H146.241C147.693 22.3665 149.132 22.649 150.476 23.2015C151.819 23.754 153.04 24.5657 154.07 25.5902C155.1 26.6148 155.917 27.8321 156.477 29.1726C157.036 30.5132 157.325 31.9508 157.329 33.4033C157.329 33.4217 157.329 33.4401 157.329 33.4585Z" fill="#9E616A"/>
<path d="M135.19 18.5655C136.489 15.7723 139.002 16.3246 141.201 17.2714C143.985 16.6538 146.632 14.8051 149.632 15.8984C152.587 20.1959 162.507 18.9315 160.396 25.9277C160.394 27.6042 163.551 26.6284 163 29.374C164.672 34.658 156.963 44.665 152.537 42.5577C153.631 40.5516 156.132 35.995 152.339 35.543C144.181 43.1341 151.497 21.088 141.247 27.4993C137.853 30.6055 133.206 21.6724 135.19 18.5655Z" fill="#2F2E41"/>
<path d="M152.158 107.512L134.458 104.006L138.997 81.0908C145.259 83.4596 151.159 84.6282 156.697 84.5964C151.857 91.6934 149.659 99.3138 152.158 107.512Z" fill="#E4E4E4"/>
<path d="M149.584 108.857L131.884 105.352C130.431 94.9704 131.752 87.1543 136.423 82.4365C142.686 84.8053 148.586 85.9739 154.123 85.9422C151.197 93.2317 149.658 101.003 149.584 108.857Z" fill="#6C63FF"/>
<path d="M137.856 102.475C137.786 101.908 137.593 101.363 137.289 100.879C136.986 100.396 136.58 99.9841 136.101 99.674C135.621 99.3639 135.079 99.1628 134.514 99.0847C133.948 99.0066 133.372 99.0536 132.826 99.2222L124.606 88.0352L122.104 94.8016L130.294 104.388C130.638 105.286 131.3 106.026 132.153 106.469C133.007 106.912 133.993 107.026 134.925 106.79C135.857 106.554 136.67 105.985 137.211 105.189C137.751 104.394 137.981 103.428 137.856 102.475Z" fill="#9E616A"/>
<path d="M130.486 54.1922L128.997 53.1865C128.997 53.1865 120.137 54.0115 118.314 62.2374C118.314 62.2374 116.981 67.1796 116.369 70.017C116.054 71.4764 111.855 85.5764 111.855 85.5764L126.093 101.136L129.983 95.3009L126.093 85.5763L130.486 54.1922Z" fill="#3F3D56"/>
<path d="M27.2821 12.458C27.0643 12.458 26.8555 12.5445 26.7015 12.6985C26.5475 12.8525 26.4609 13.0614 26.4609 13.2792C26.4609 13.497 26.5475 13.7059 26.7015 13.8599C26.8555 14.0139 27.0643 14.1004 27.2821 14.1004H87.24C87.4575 14.0999 87.6659 14.0132 87.8195 13.8592C87.9731 13.7053 88.0594 13.4967 88.0594 13.2792C88.0594 13.0617 87.9731 12.8532 87.8195 12.6992C87.6659 12.5452 87.4575 12.4585 87.24 12.458H27.2821Z" fill="#E4E4E4"/>
<path d="M27.2817 17.3848C27.1738 17.3844 27.0669 17.4054 26.9671 17.4464C26.8673 17.4874 26.7765 17.5477 26.7 17.6238C26.6235 17.6999 26.5628 17.7903 26.5213 17.8899C26.4797 17.9895 26.4582 18.0963 26.458 18.2042C26.4578 18.3122 26.4788 18.419 26.5199 18.5188C26.561 18.6186 26.6214 18.7093 26.6976 18.7857C26.7738 18.8621 26.8642 18.9228 26.9639 18.9642C27.0635 19.0057 27.1703 19.0271 27.2782 19.0272H65.1842C65.402 19.0272 65.6109 18.9407 65.7649 18.7867C65.9189 18.6327 66.0054 18.4238 66.0054 18.206C66.0054 17.9882 65.9189 17.7793 65.7649 17.6253C65.6109 17.4713 65.402 17.3848 65.1842 17.3848H27.2817Z" fill="#E4E4E4"/>
<path d="M19.5028 71.4541C19.2851 71.4541 19.0762 71.5406 18.9222 71.6946C18.7682 71.8486 18.6816 72.0575 18.6816 72.2753C18.6816 72.4931 18.7682 72.702 18.9222 72.856C19.0762 73.01 19.2851 73.0965 19.5028 73.0965H79.4607C79.6782 73.096 79.8866 73.0093 80.0402 72.8553C80.1938 72.7014 80.2801 72.4928 80.2801 72.2753C80.2801 72.0578 80.1938 71.8492 80.0402 71.6953C79.8866 71.5413 79.6782 71.4546 79.4607 71.4541H19.5028Z" fill="#E4E4E4"/>
<path d="M19.5024 76.3809C19.3945 76.3805 19.2876 76.4015 19.1878 76.4425C19.088 76.4835 18.9972 76.5438 18.9207 76.6199C18.8442 76.696 18.7835 76.7864 18.742 76.886C18.7004 76.9856 18.6789 77.0924 18.6787 77.2003C18.6785 77.3082 18.6995 77.4151 18.7406 77.5149C18.7817 77.6147 18.8421 77.7054 18.9183 77.7818C18.9945 77.8582 19.0849 77.9189 19.1846 77.9603C19.2842 78.0018 19.391 78.0232 19.4989 78.0233H57.4049C57.6227 78.0233 57.8316 77.9368 57.9856 77.7828C58.1396 77.6287 58.2261 77.4199 58.2261 77.2021C58.2261 76.9843 58.1396 76.7754 57.9856 76.6214C57.8316 76.4674 57.6227 76.3809 57.4049 76.3809H19.5024Z" fill="#E4E4E4"/>
<path d="M53.6464 113.594C53.4286 113.594 53.2197 113.68 53.0657 113.834C52.9117 113.988 52.8252 114.197 52.8252 114.415C52.8252 114.633 52.9117 114.842 53.0657 114.996C53.2197 115.15 53.4286 115.236 53.6464 115.236H113.604C113.822 115.236 114.03 115.149 114.184 114.995C114.337 114.841 114.424 114.632 114.424 114.415C114.424 114.197 114.337 113.989 114.184 113.835C114.03 113.681 113.822 113.594 113.604 113.594H53.6464Z" fill="#E4E4E4"/>
<path d="M53.6469 118.521C53.539 118.52 53.4321 118.541 53.3323 118.582C53.2325 118.623 53.1418 118.683 53.0653 118.76C52.9888 118.836 52.928 118.926 52.8865 119.026C52.845 119.125 52.8235 119.232 52.8232 119.34C52.823 119.448 52.8441 119.555 52.8852 119.655C52.9263 119.754 52.9866 119.845 53.0628 119.921C53.139 119.998 53.2295 120.059 53.3291 120.1C53.4287 120.141 53.5356 120.163 53.6435 120.163H91.5495C91.7673 120.163 91.9761 120.076 92.1301 119.922C92.2841 119.768 92.3707 119.56 92.3707 119.342C92.3707 119.124 92.2841 118.915 92.1301 118.761C91.9761 118.607 91.7673 118.521 91.5495 118.521H53.6469Z" fill="#E4E4E4"/>
</g>
<defs>
<clipPath id="clip0_5442_88878">
<rect width="200" height="123.178" fill="white"/>
</clipPath>
</defs>
</svg>
