<svg width="32" height="32" viewBox="0 0 32 32" fill="none" xmlns="http://www.w3.org/2000/svg">
<ellipse cx="16.0335" cy="16" rx="15.9427" ry="16" fill="#0050FF" fill-opacity="0.1"/>
<path d="M24.9748 13.9486L24.1203 9.20502C23.9997 8.53565 23.4706 8.00465 22.8037 7.88368L18.0771 7.02608C17.5506 6.9307 17.0101 7.10026 16.6317 7.48002L7.54293 16.6014C6.90626 17.2405 6.90626 18.2803 7.54296 18.9194L13.1241 24.5206C13.4425 24.8402 13.8607 24.9999 14.2789 24.9999C14.6972 24.9999 15.1154 24.8402 15.4338 24.5206L24.5225 15.3993C24.901 15.0195 25.0701 14.4772 24.9748 13.9486ZM23.7787 14.6528L14.69 23.7742C14.4633 24.0017 14.0945 24.0017 13.8679 23.7742L8.2868 18.1729C8.06012 17.9454 8.06012 17.5754 8.28676 17.3479L17.3755 8.22645C17.4855 8.1161 17.6339 8.05559 17.7867 8.05559C17.821 8.05559 17.8556 8.05865 17.89 8.06488L22.6166 8.92251C22.854 8.96554 23.0423 9.15458 23.0852 9.39283L23.9398 14.1364C23.9737 14.3245 23.9135 14.5176 23.7787 14.6528Z" fill="#0050FF"/>
<path d="M21.7072 10.2917C21.1459 9.72827 20.2324 9.7283 19.6711 10.2917C19.1096 10.8551 19.1096 11.7718 19.6711 12.3352C19.9517 12.6169 20.3204 12.7578 20.6892 12.7578C21.0579 12.7578 21.4265 12.6169 21.7072 12.3353C21.9792 12.0623 22.1289 11.6995 22.1289 11.3135C22.129 10.9275 21.9792 10.5646 21.7072 10.2917ZM20.9635 11.5887V11.5888C20.8123 11.7406 20.5662 11.7406 20.4149 11.5888C20.2636 11.437 20.2636 11.19 20.4149 11.0382C20.4905 10.9622 20.5898 10.9243 20.6892 10.9243C20.7885 10.9243 20.8878 10.9623 20.9635 11.0382C21.0368 11.1117 21.0771 11.2095 21.0771 11.3135C21.0771 11.4175 21.0368 11.5152 20.9635 11.5887Z" fill="#0050FF"/>
<path d="M13.755 20.4146L12.9424 19.599L13.418 19.1217C13.4663 19.0732 13.4841 19.0174 13.4715 18.9542C13.4589 18.8909 13.4285 18.8351 13.3802 18.7866C13.3277 18.734 13.2694 18.7018 13.2054 18.6902C13.1413 18.6786 13.0862 18.696 13.04 18.7423L12.5644 19.2196L12.0321 18.6854L12.8479 17.8666C12.8941 17.8203 12.9093 17.7629 12.8936 17.6944C12.8779 17.6259 12.8395 17.5611 12.7786 17.5C12.7219 17.443 12.66 17.4062 12.5927 17.3893C12.5256 17.3725 12.4679 17.3883 12.4196 17.4367L11.3266 18.5336C11.2678 18.5927 11.2305 18.6564 11.2148 18.7249C11.199 18.7935 11.2153 18.8519 11.2636 18.9003L13.2637 20.9077C13.3121 20.9562 13.3735 20.9694 13.448 20.9473C13.5225 20.9252 13.5933 20.8804 13.6606 20.8129C13.7278 20.7454 13.7724 20.6744 13.7944 20.5995C13.8165 20.5247 13.8034 20.4631 13.755 20.4146Z" fill="#0050FF"/>
<path d="M16.3979 17.5914C16.3748 17.5682 16.3507 17.5545 16.3255 17.5503L15.2451 17.2373C15.4005 16.8833 15.3144 16.5419 14.9868 16.2131C14.5375 15.7622 14.0545 15.7959 13.5379 16.3143L12.8859 16.9687C12.8418 17.0129 12.8203 17.064 12.8213 17.122C12.8224 17.18 12.8429 17.229 12.8827 17.269L14.886 19.2794C14.9344 19.328 14.9957 19.3412 15.0702 19.319C15.1448 19.2969 15.2156 19.2521 15.2828 19.1847C15.35 19.1172 15.3946 19.0462 15.4167 18.9713C15.4388 18.8965 15.4257 18.8349 15.3773 18.7864L14.6182 18.0246L14.8261 17.8159L16.0955 18.2237C16.1879 18.2532 16.2708 18.2311 16.3443 18.1573C16.4178 18.0836 16.4604 17.9861 16.4719 17.8648C16.4835 17.7436 16.4588 17.6525 16.3979 17.5914ZM14.5522 17.3321L14.2403 17.6451L13.6545 17.0572L13.9664 16.7442C14.0587 16.6515 14.1517 16.6036 14.2451 16.6004C14.3385 16.5973 14.4377 16.6483 14.5427 16.7536C14.6478 16.8591 14.6987 16.9586 14.6955 17.0524C14.6923 17.1462 14.6446 17.2394 14.5522 17.3321Z" fill="#0050FF"/>
<path d="M18.2595 16.0698C18.2427 16.0024 18.206 15.9402 18.1493 15.8833C18.0884 15.8222 18.0238 15.7838 17.9555 15.7679C17.8873 15.7522 17.83 15.7674 17.7839 15.8137L16.9397 16.6609L16.4043 16.1236L16.8768 15.6494C16.9251 15.6009 16.9429 15.545 16.9303 15.4818C16.9177 15.4186 16.8873 15.3628 16.839 15.3143C16.7866 15.2616 16.7282 15.2295 16.6642 15.2179C16.6001 15.2063 16.5449 15.2237 16.4988 15.27L16.0263 15.7442L15.494 15.2099L16.3381 14.3627C16.3843 14.3164 16.3996 14.259 16.3838 14.1905C16.3681 14.122 16.3298 14.0572 16.2689 13.9961C16.2122 13.9391 16.1503 13.9023 16.083 13.8854C16.0159 13.8686 15.9581 13.8844 15.9098 13.9328L14.7885 15.0582C14.7298 15.1172 14.6924 15.181 14.6767 15.2494C14.661 15.318 14.6772 15.3764 14.7255 15.4249L16.7256 17.4322C16.774 17.4808 16.8322 17.4971 16.9004 17.4812C16.9687 17.4655 17.0321 17.428 17.0909 17.369L18.2122 16.2436C18.2605 16.1952 18.2763 16.1373 18.2595 16.0698Z" fill="#0050FF"/>
<path d="M19.9568 14.3666C19.94 14.2992 19.9032 14.237 19.8465 14.1801C19.7856 14.119 19.7211 14.0806 19.6528 14.0647C19.5845 14.049 19.5273 14.0642 19.4812 14.1106L18.637 14.9577L18.1016 14.4204L18.574 13.9462C18.6223 13.8978 18.6402 13.8419 18.6276 13.7787C18.615 13.7154 18.5846 13.6596 18.5363 13.6111C18.4838 13.5585 18.4254 13.5263 18.3614 13.5147C18.2973 13.5032 18.2422 13.5205 18.1961 13.5669L17.7236 14.041L17.1913 13.5068L18.0354 12.6596C18.0816 12.6132 18.0968 12.5559 18.0811 12.4873C18.0654 12.4189 18.0271 12.3541 17.9661 12.2929C17.9095 12.236 17.8475 12.1992 17.7803 12.1823C17.7131 12.1655 17.6553 12.1813 17.6071 12.2297L16.4858 13.3551C16.427 13.4141 16.3897 13.4778 16.374 13.5463C16.3582 13.6149 16.3745 13.6733 16.4228 13.7217L18.4229 15.7291C18.4713 15.7776 18.5295 15.794 18.5977 15.7781C18.6659 15.7623 18.7294 15.7249 18.7882 15.6659L19.9095 14.5405C19.9578 14.4921 19.9736 14.4341 19.9568 14.3666Z" fill="#0050FF"/>
</svg>
