<svg width="24" height="24" viewBox="0 0 24 24" fill="none" xmlns="http://www.w3.org/2000/svg">
<path d="M3 3V4V10.3828C2.79317 10.5218 2.598 10.6754 2.42188 10.8516L1 12H0V20H1C1 20 1.61316 20.3801 1.91016 20.5781C2.19016 20.7651 2.64958 20.9824 3.01758 20.9824H8.10547L8.26953 20.8945C14.9325 17.3555 15.2082 16.9416 15.3262 16.7656L15.7637 15H23V3H3ZM7.20117 5H18.8457C18.7692 5.22559 18.7475 5.46617 18.7826 5.70179C18.8176 5.93742 18.9082 6.16131 19.047 6.3549C19.1858 6.5485 19.3688 6.70623 19.5807 6.81502C19.7926 6.92381 20.0274 6.98052 20.2656 6.98047C20.523 6.98012 20.7759 6.91353 21 6.78711V11.1699C20.776 11.0428 20.5231 10.9756 20.2656 10.9746C20.0235 10.9748 19.785 11.0336 19.5706 11.1461C19.3562 11.2585 19.1722 11.4212 19.0344 11.6203C18.8966 11.8194 18.809 12.0488 18.7792 12.2891C18.7494 12.5294 18.7783 12.7733 18.8633 13H8.4082L9.90234 11.9453C10.7623 11.3713 11.062 10.2923 10.627 9.36133L10.5762 9.25977C10.1002 8.36877 9.07031 7.95406 8.07031 8.28906L5 9.49805V6.75977C5.23516 6.90379 5.50549 6.98016 5.78125 6.98047C6.01946 6.98052 6.25426 6.92381 6.46618 6.81502C6.6781 6.70623 6.86104 6.5485 6.99984 6.3549C7.13864 6.16131 7.22931 5.93742 7.26432 5.70179C7.29933 5.46617 7.27768 5.22559 7.20117 5ZM13 6C12.2 6 11.4775 6.31713 10.9395 6.82812C11.4995 7.19012 11.9775 7.68755 12.3105 8.31055L12.3926 8.47266C12.7796 9.29866 12.8631 10.177 12.7051 11H15.2207C15.6997 10.468 16 9.772 16 9C16 7.343 14.657 6 13 6Z" fill="#00283C"/>
</svg>
