<svg width="158" height="123" viewBox="0 0 158 123" fill="none" xmlns="http://www.w3.org/2000/svg">
<path d="M53.0739 37.4357C53.4912 36.116 54.655 35.337 55.8399 35.4867C56.3337 35.549 56.8271 35.5986 57.3232 35.5657C69.6951 34.7463 85.0189 42.7242 101.332 53.6496C86.3983 40.0411 72.7308 28.003 56.6559 40.3741C55.5077 41.2578 53.8809 40.9457 53.213 39.5719C52.9446 39.02 52.8477 38.3586 53.0077 37.6764C53.0266 37.5959 53.0487 37.5156 53.0739 37.4357L53.0739 37.4357Z" fill="#E6E6E6"/>
<path d="M135.589 4.79429C136.609 5.52651 137.028 6.91903 136.688 8.16041L136.65 8.30048C136.309 9.54666 135.567 10.5936 134.585 11.2828C120.517 21.1459 136.804 33.7684 110.769 54.1427C123.376 38.949 133.746 3.7636 135.322 4.62592C135.412 4.67558 135.502 4.73167 135.589 4.79429Z" fill="#E6E6E6"/>
<path d="M157.152 81.9219C156.627 83.1492 155.449 83.7837 154.315 83.5509L154.187 83.5247C153.047 83.2916 152.036 82.5863 151.312 81.569C140.946 67.0085 131.751 86.7203 110.697 60.0244H110.697C125.589 72.3194 157.842 79.7391 157.269 81.6032C157.236 81.7106 157.197 81.8169 157.152 81.9219L157.152 81.9219Z" fill="#E6E6E6"/>
<path d="M138.205 81.0123C137.665 81.3497 136.795 81.3024 136.092 80.9364L136.012 80.8951C135.307 80.528 134.761 80.013 134.452 79.4497C130.034 71.3879 120.86 76.6194 111.423 61.3374C119.159 69.6467 139.007 80.3527 138.333 80.9199C138.294 80.9525 138.251 80.9834 138.205 81.0123V81.0123Z" fill="#E6E6E6"/>
<path d="M142.463 48.8563C142.329 49.5352 141.721 50.2381 141.012 50.5882L140.931 50.6277C140.22 50.9794 139.515 51.0985 138.936 50.9855C130.648 49.3672 128.045 60.5706 111.629 58.3984C122.282 57.3829 142.556 47.7431 142.486 48.6876C142.482 48.742 142.474 48.7983 142.463 48.8563Z" fill="#E6E6E6"/>
<path d="M59.5124 90.9671C58.9174 89.7814 59.1275 88.33 59.9452 87.4138L60.0375 87.3104C60.8579 86.3903 61.9495 85.8583 63.1046 85.7697C79.6374 84.5014 70.5204 64.7435 102.002 60.5244C84.536 67.2711 60.7094 92.8515 59.678 91.257C59.6186 91.1652 59.5633 91.0685 59.5124 90.9671V90.9671Z" fill="#E6E6E6"/>
<path d="M126.001 90.7542C125.389 91.2137 124.604 91.1221 124.082 90.5868L124.023 90.5265C123.499 89.9895 123.172 89.2489 123.079 88.4472C121.759 76.9733 111.538 84.0736 108.059 62.293C112.348 74.2105 126.963 89.8488 126.149 90.6278C126.102 90.6727 126.053 90.7149 126 90.7542L126.001 90.7542Z" fill="#E6E6E6"/>
<path d="M107.484 109.626C106.547 109.635 105.758 108.926 105.522 107.952L105.495 107.843C105.258 106.866 105.356 105.828 105.743 104.908C111.293 91.7465 95.9885 91.2795 105.476 65.5361C102.849 81.4824 109.068 109.419 107.72 109.609C107.643 109.619 107.564 109.625 107.484 109.626V109.626Z" fill="#0050FF"/>
<path d="M73.5776 91.6395C72.974 90.8326 72.956 89.6963 73.4708 88.8704L73.5288 88.7772C74.0451 87.948 74.8177 87.3708 75.6938 87.1204C88.2337 83.5373 78.7898 69.9661 102.445 61.772C89.8657 69.6665 74.7298 92.8819 73.7406 91.8336C73.6837 91.7732 73.6292 91.7085 73.5776 91.6395V91.6395Z" fill="#0050FF"/>
<path d="M81.1857 79.8571C80.804 79.4555 80.7937 78.8512 81.1208 78.3875L81.1577 78.3352C81.4858 77.8696 81.976 77.5263 82.5316 77.3523C90.483 74.861 84.5113 68.0734 99.5126 62.6099C91.5316 67.3988 81.9147 80.4652 81.2888 79.9529C81.2528 79.9234 81.2183 79.8914 81.1857 79.8571Z" fill="#0050FF"/>
<path d="M92.306 88.4435C91.8234 88.2186 91.6252 87.657 91.7867 87.0934L91.8049 87.0298C91.9668 86.4641 92.3186 85.9486 92.7845 85.5658C99.4514 80.0864 91.7425 76.0952 104.082 65.043C98.1045 72.6852 93.1783 88.7243 92.4325 88.4924C92.3895 88.479 92.3473 88.4628 92.306 88.4435Z" fill="#E6E6E6"/>
<path d="M59.7735 50.376L60.9862 54.5791H64.9103L61.7356 57.1768L62.9483 61.38L59.7735 58.7823L56.5988 61.38L57.8114 57.1768L54.6367 54.5791H58.5609L59.7735 50.376Z" fill="#0050FF"/>
<path d="M113.851 0L115.064 4.20315H118.988L115.813 6.80083L117.026 11.004L113.851 8.40629L110.676 11.004L111.889 6.80083L108.714 4.20315H112.639L113.851 0Z" fill="#E6E6E6"/>
<path d="M142.559 45.1128L143.771 49.3159H147.695L144.521 51.9136L145.733 56.1168L142.559 53.5191L139.384 56.1168L140.597 51.9136L137.422 49.3159H141.346L142.559 45.1128Z" fill="#0050FF"/>
<path d="M84.4757 90.9775L85.6883 95.1807H89.6125L86.4378 97.7784L87.6504 101.982L84.4757 99.3838L81.3009 101.982L82.5136 97.7784L79.3389 95.1807H83.263L84.4757 90.9775Z" fill="#0050FF"/>
<path d="M106.507 45.1128L107.72 49.3159H111.644L108.47 51.9136L109.682 56.1168L106.507 53.5191L103.333 56.1168L104.545 51.9136L101.371 49.3159H105.295L106.507 45.1128Z" fill="#0050FF"/>
<path d="M136.804 0L138.017 4.20315H141.941L138.766 6.80083L139.979 11.004L136.804 8.40629L133.63 11.004L134.842 6.80083L131.667 4.20315H135.592L136.804 0Z" fill="#E6E6E6"/>
<path d="M57.7169 83.0698L59.2548 87.1358L63.1636 86.7451L60.2052 89.6487L61.743 93.7147L58.3768 91.4432L55.4184 94.3468L56.2964 90.0394L52.9302 87.7679L56.839 87.3772L57.7169 83.0698Z" fill="#E6E6E6"/>
<path d="M91.2871 5.41475C91.995 5.02228 92.7905 5.28703 93.2409 5.99811L93.2917 6.07833C93.7441 6.79179 93.9591 7.6944 93.9214 8.61753C93.3816 21.8301 105.116 15.924 105.096 41.2053C102.644 26.8819 90.1433 6.23804 91.1125 5.52671C91.1684 5.48574 91.2266 5.4483 91.2871 5.41473V5.41475Z" fill="#0050FF"/>
<path d="M81.054 24.9992C81.3677 24.558 81.8826 24.4972 82.3031 24.8086L82.3506 24.8437C82.7727 25.156 83.1028 25.6518 83.2935 26.2313C86.0223 34.5261 91.3616 27.5822 97.1614 43.1683C92.4696 35.0314 80.5904 25.8286 80.9801 25.1173C81.0025 25.0764 81.0271 25.0369 81.054 24.9992L81.054 24.9992Z" fill="#E6E6E6"/>
<path d="M72.0214 49.1091C72.0644 48.546 72.4623 48.173 72.9656 48.1686L73.0223 48.168C73.5274 48.1633 74.0466 48.3687 74.4911 48.731C80.8542 53.917 81.8643 44.802 94.3794 54.1256C86.4627 50.3 72.0456 50.0889 72.0183 49.2536C72.0167 49.2055 72.0177 49.1573 72.0214 49.1091V49.1091Z" fill="#E6E6E6"/>
<path d="M49.7057 27.5838C53.6732 27.5838 56.8894 24.3675 56.8894 20.4C56.8894 16.4326 53.6732 13.2163 49.7057 13.2163C45.7382 13.2163 42.522 16.4326 42.522 20.4C42.522 24.3675 45.7382 27.5838 49.7057 27.5838Z" fill="#F2F2F2"/>
<path d="M4 99.0195C6.47428 101.525 9.15071 119.591 12.0065 121.776L145.993 122.02C148.849 119.835 151.526 101.769 154 99.2628L4 99.0195H4Z" fill="#E6E6E6"/>
<path d="M54.064 78.5346V103.093H71.269V78.5346C71.2696 78.172 71.0335 77.8515 70.6871 77.7444C70.6076 77.7181 70.5242 77.7052 70.4405 77.7061H54.8949C54.4369 77.7052 54.0649 78.0758 54.064 78.5338V78.5346H54.064ZM60.7784 86.9731C60.7877 85.9588 61.6176 85.1441 62.6319 85.1534C63.6331 85.1627 64.4424 85.972 64.4516 86.9731V89.8227C64.4468 90.837 63.6206 91.6554 62.6063 91.6506C61.5987 91.6458 60.7831 90.8302 60.7784 89.8227V86.9731Z" fill="#3F3D56"/>
<path d="M27.1016 41.5341V86.3749C27.1025 87.5648 28.0668 88.5291 29.2567 88.53H95.7062C96.896 88.5291 97.8604 87.5648 97.8613 86.3749V41.5341C97.8585 40.3454 96.8949 39.3829 95.7062 39.3813H29.2567C28.068 39.3829 27.1044 40.3454 27.1016 41.5341Z" fill="#3F3D56"/>
<path d="M28.5571 42.0922V85.8219C28.5582 86.4576 29.0733 86.9726 29.7089 86.9737H95.0498C95.6854 86.9726 96.2004 86.4576 96.2015 85.8219V42.0922C96.2015 41.4557 95.6862 40.9394 95.0498 40.938H29.7089C29.0724 40.9394 28.5572 41.4557 28.5571 42.0922Z" fill="#0050FF"/>
<path d="M41.8806 105.699C42.0153 105.868 42.22 105.966 42.4361 105.965H81.3097C81.7047 105.964 82.0246 105.644 82.0241 105.249C82.024 105.2 82.0189 105.151 82.0089 105.103L81.4055 102.236C81.3546 101.999 81.187 101.803 80.9601 101.717C80.8792 101.685 80.7931 101.669 80.7062 101.669H43.0371C42.9503 101.669 42.8642 101.685 42.7833 101.717C42.5564 101.803 42.3887 101.999 42.3379 102.236L41.7345 105.103C41.691 105.313 41.7447 105.532 41.8806 105.699H41.8806Z" fill="#3F3D56"/>
<path d="M31.8092 46.9614H92.9484C93.0826 46.9584 93.1891 46.8472 93.1862 46.7129C93.1834 46.5828 93.0785 46.4779 92.9484 46.4751H31.8092C31.6749 46.478 31.5684 46.5892 31.5713 46.7235C31.5742 46.8537 31.679 46.9585 31.8092 46.9614Z" fill="#3F3D56"/>
<path d="M70.7786 70.4469C71.3076 70.4469 71.7365 70.0181 71.7365 69.4891C71.7365 68.9601 71.3076 68.5312 70.7786 68.5312C70.2496 68.5312 69.8208 68.9601 69.8208 69.4891C69.8208 70.0181 70.2496 70.4469 70.7786 70.4469Z" fill="#F2F2F2"/>
<path d="M74.1312 70.4469C74.6602 70.4469 75.089 70.0181 75.089 69.4891C75.089 68.9601 74.6602 68.5312 74.1312 68.5312C73.6022 68.5312 73.1733 68.9601 73.1733 69.4891C73.1733 70.0181 73.6022 70.4469 74.1312 70.4469Z" fill="#F2F2F2"/>
<path d="M77.4832 70.4469C78.0122 70.4469 78.4411 70.0181 78.4411 69.4891C78.4411 68.9601 78.0122 68.5312 77.4832 68.5312C76.9542 68.5312 76.5254 68.9601 76.5254 69.4891C76.5254 70.0181 76.9542 70.4469 77.4832 70.4469Z" fill="#F2F2F2"/>
<path d="M34.4584 44.8375C35.0559 44.8375 35.5402 44.3423 35.5402 43.7315C35.5402 43.1207 35.0559 42.6255 34.4584 42.6255C33.8608 42.6255 33.3765 43.1207 33.3765 43.7315C33.3765 44.3423 33.8608 44.8375 34.4584 44.8375Z" fill="#3F3D56"/>
<path d="M38.1957 44.8375C38.7932 44.8375 39.2775 44.3423 39.2775 43.7315C39.2775 43.1207 38.7932 42.6255 38.1957 42.6255C37.5981 42.6255 37.1138 43.1207 37.1138 43.7315C37.1138 44.3423 37.5981 44.8375 38.1957 44.8375Z" fill="#3F3D56"/>
<path d="M41.933 44.8375C42.5305 44.8375 43.0148 44.3423 43.0148 43.7315C43.0148 43.1207 42.5305 42.6255 41.933 42.6255C41.3355 42.6255 40.8511 43.1207 40.8511 43.7315C40.8511 44.3423 41.3355 44.8375 41.933 44.8375Z" fill="#3F3D56"/>
<path d="M46.1944 44.6056C46.1611 44.6056 46.128 44.5928 46.1029 44.5672L45.3729 43.8209C45.3243 43.7712 45.3243 43.6917 45.3729 43.642L46.1029 42.8958C46.1525 42.8454 46.2335 42.8446 46.2838 42.8938C46.3344 42.9433 46.3352 43.0243 46.2858 43.0747L45.6433 43.7315L46.2858 44.3883C46.3352 44.4387 46.3344 44.5197 46.2838 44.5692C46.259 44.5935 46.2267 44.6056 46.1944 44.6056V44.6056Z" fill="#3F3D56"/>
<path d="M47.4209 44.6057C47.3886 44.6057 47.3563 44.5936 47.3315 44.5693C47.2809 44.5198 47.28 44.4389 47.3295 44.3883L47.9719 43.7316L47.3295 43.0748C47.28 43.0244 47.2809 42.9433 47.3315 42.8939C47.3819 42.8445 47.4629 42.8454 47.5124 42.8959L48.2423 43.6421C48.291 43.6918 48.291 43.7713 48.2423 43.821L47.5124 44.5673C47.4873 44.5929 47.4541 44.6057 47.4209 44.6057L47.4209 44.6057Z" fill="#3F3D56"/>
<path d="M87.9979 42.7539H86.6405C86.4857 42.7539 86.3604 42.8793 86.3604 43.0341V44.3927C86.3604 44.5475 86.4857 44.6729 86.6405 44.6729H87.9979C88.1527 44.6729 88.2794 44.5475 88.2794 44.3927V43.0341C88.2794 42.8793 88.1527 42.7539 87.9979 42.7539Z" fill="#3F3D56"/>
<path d="M84.6717 42.7539H83.3144C83.1596 42.7539 83.0342 42.8793 83.0342 43.0341V44.3927C83.0342 44.5475 83.1596 44.6729 83.3144 44.6729H84.6717C84.8265 44.6729 84.9532 44.5475 84.9532 44.3927V43.0341C84.9532 42.8793 84.8265 42.7539 84.6717 42.7539Z" fill="#3F3D56"/>
<path d="M91.1317 42.8174H89.7743C89.6195 42.8174 89.4941 42.9428 89.4941 43.0976V44.4562C89.4941 44.611 89.6195 44.7364 89.7743 44.7364H91.1317C91.2865 44.7364 91.4131 44.611 91.4131 44.4562V43.0976C91.4131 42.9428 91.2865 42.8174 91.1317 42.8174Z" fill="#3F3D56"/>
<path d="M68.5805 43.334H56.6253C56.4359 43.334 56.2837 43.4875 56.2837 43.6756C56.2837 43.8636 56.4359 44.0172 56.6253 44.0172H68.5805C68.7686 44.0172 68.9221 43.8636 68.9221 43.6756C68.9221 43.4875 68.7686 43.334 68.5805 43.334Z" fill="#3F3D56"/>
<path d="M9.79895 50.5078C4.66359 53.0259 2.54192 59.2303 5.06004 64.3656C7.17773 68.6844 13.7217 72.4516 18.6298 73.4794C19.0709 73.5717 19.5122 73.5702 19.9343 73.4916L20.8986 74.5759C21.0991 74.8014 21.4253 74.8654 21.6961 74.7326L21.7403 74.711C22.0229 74.5724 22.1714 74.2561 22.0974 73.9502L21.7515 72.5198C22.0076 72.2577 22.2258 71.9521 22.392 71.6085C24.8396 66.549 25.8461 59.7115 23.6568 55.2467C21.1387 50.1114 14.9343 47.9897 9.79896 50.5078H9.79895Z" fill="#0050FF"/>
<path d="M22.6785 72.8531C22.6006 74.7758 22.016 75.8384 19.8608 74.2347L19.5845 73.6712L22.4022 72.2896L22.6785 72.8531Z" fill="#3F3D56"/>
<path d="M21.2734 73.1948L23.8151 78.5387L23.9007 78.7204L21.9542 98.2809L22.3742 99.1374L22.504 99.4093L22.2208 99.5482L22.0979 99.2904L21.671 98.4197L23.6189 78.8585L23.0106 77.5788L20.9902 73.3302L21.2734 73.1948Z" fill="#3F3D56"/>
<path d="M22.5341 99.394L22.2495 99.5335L22.097 99.2902L21.6645 98.4223L23.4842 78.924L20.1943 73.6832L20.4602 73.5161L23.0097 77.5786L23.7674 78.7852L21.8899 98.3118L22.0246 98.583L22.3733 99.1373L22.5341 99.394Z" fill="#3F3D56"/>
<path d="M22.0375 72.7788L24.1665 78.5889L22.0692 98.2233L22.612 99.3552L22.3542 99.4816L22.025 98.5823L21.8931 98.3097L23.8833 78.7278L23.8146 78.5378L21.7427 72.8867L22.0375 72.7788Z" fill="#3F3D56"/>
<path d="M91.7818 52.2756C90.8454 52.4298 90.2671 50.8568 89.6631 50.9558C88.5562 51.1372 89.015 56.7811 88.1497 56.8291C87.4121 56.87 86.4659 54.3795 85.6845 52.8853C85.2737 52.0999 85.0504 51.5413 85.0504 51.5413C85.0504 51.5413 85.3922 49.8538 85.8782 50.5199C86.5725 51.4713 87.0945 54.8034 87.4795 54.6513C88.0691 54.4185 87.4041 51.5536 88.8199 50.6698C90.0566 49.8979 92.4722 50.9946 92.4736 51.6817C92.4742 51.9456 92.1188 52.2201 91.7818 52.2756Z" fill="white"/>
</svg>
