<svg width="21" height="21" viewBox="0 0 21 21" fill="none" xmlns="http://www.w3.org/2000/svg">
<path d="M10.4998 2.09961C10.0372 2.09961 9.65984 2.47695 9.65984 2.93961C9.65984 3.40227 10.0372 3.77961 10.4998 3.77961C10.9625 3.77961 11.3398 3.40227 11.3398 2.93961C11.3398 2.47695 10.9625 2.09961 10.4998 2.09961ZM9.00359 3.70086L3.68797 7.13961H5.23672L9.56797 4.33086C9.32844 4.17172 9.13484 3.9568 9.00359 3.70086ZM11.9961 3.70086C11.8648 3.9568 11.6696 4.17172 11.4317 4.33086L15.763 7.13961H17.2986L11.9961 3.70086ZM1.25984 7.97961C1.02852 7.97961 0.839844 8.16828 0.839844 8.39961V18.4796C0.839844 18.7126 1.02852 18.8996 1.25984 18.8996H19.7398C19.9728 18.8996 20.1598 18.7126 20.1598 18.4796V8.39961C20.1598 8.16828 19.9728 7.97961 19.7398 7.97961H1.25984ZM4.82984 10.9196C5.64031 10.9196 6.29984 11.5791 6.29984 12.3896V14.4896C6.29984 15.3001 5.64031 15.9596 4.82984 15.9596C4.01938 15.9596 3.35984 15.3001 3.35984 14.4896V12.3896C3.35984 11.5791 4.01938 10.9196 4.82984 10.9196ZM7.13984 10.9196H8.39984C9.3268 10.9196 10.0798 11.6727 10.0798 12.5996C10.0798 13.5266 9.3268 14.2796 8.39984 14.2796H7.97984V15.9596H7.13984V10.9196ZM10.9198 10.9196H13.4398V11.7596H11.7598V13.0196H13.0198V13.8596H11.7598V15.1196H13.4398V15.9596H10.9198V10.9196ZM14.2798 10.9196H15.4348L16.3798 14.0827V10.9196H17.2198V15.9596H16.0648L15.1198 12.7965V15.9596H14.2798V10.9196ZM4.82984 11.7596C4.48203 11.7596 4.19984 12.0418 4.19984 12.3896V14.4896C4.19984 14.8374 4.48203 15.1196 4.82984 15.1196C5.17766 15.1196 5.45984 14.8374 5.45984 14.4896V12.3896C5.45984 12.0418 5.17766 11.7596 4.82984 11.7596ZM7.97984 11.7596V13.4396H8.39984C8.8625 13.4396 9.23984 13.0623 9.23984 12.5996C9.23984 12.137 8.8625 11.7596 8.39984 11.7596H7.97984Z" fill="#00C897"/>
</svg>
