<svg width="200" height="179" viewBox="0 0 200 179" fill="none" xmlns="http://www.w3.org/2000/svg">
<g clip-path="url(#clip0_4269_59019)">
<path d="M22.9396 178.142L22.7655 178.078C16.8696 175.854 12.2503 171.149 10.1349 165.213C9.56173 163.563 9.19857 161.848 9.05398 160.108L9.03978 159.942L9.2038 159.971C11.1618 160.322 13.2173 160.517 14.1332 160.593L8.99512 157.193L9.0044 157.016C9.0844 155.356 10.1662 153.912 11.7366 153.369C13.322 152.783 15.1041 153.221 16.2376 154.475C16.7484 155.029 17.2884 155.587 17.8106 156.127C19.6052 157.982 21.4608 159.9 22.6342 162.164C24.3989 165.652 24.4947 169.751 22.8949 173.318L22.9396 178.142H22.9396Z" fill="#F2F2F2"/>
<path d="M126.901 174.848L126.899 174.829C126.672 169.787 125.747 164.8 124.15 160.011L124.148 160.003C124.055 159.511 124.082 159.004 124.227 158.525C124.673 157.152 126.056 156.311 127.48 156.548C128.952 156.824 130.473 156.564 131.769 155.816C132.593 155.338 133.591 155.272 134.47 155.637C135.299 155.975 135.919 156.685 136.142 157.552C136.159 157.62 136.175 157.689 136.188 157.759C136.235 162.825 137.165 167.845 138.938 172.591L138.939 172.597C139.124 173.577 138.828 174.587 138.143 175.312C137.538 175.927 136.689 176.238 135.83 176.162C134.287 176.057 132.7 176.37 130.979 177.119C130.378 177.387 129.701 177.434 129.069 177.253C127.95 176.925 127.111 175.995 126.901 174.848Z" fill="#0050FF"/>
<path d="M77.5818 105.576V171.797H123.974V105.576C123.976 104.598 123.339 103.734 122.405 103.445C122.191 103.374 121.966 103.339 121.74 103.342H79.8223C78.5873 103.339 77.5842 104.339 77.5818 105.574V105.576ZM95.6867 128.33C95.7119 125.594 97.9496 123.398 100.685 123.423C103.384 123.448 105.567 125.63 105.592 128.33V136.013C105.579 138.748 103.351 140.955 100.616 140.942C97.8989 140.929 95.6996 138.73 95.6867 136.013V128.33Z" fill="#F2F2F2"/>
<path d="M77.4399 169.679V176.065C77.4421 176.753 77.9977 177.312 78.6861 177.318H122.87C123.56 177.314 124.117 176.754 124.116 176.065V169.679H77.4399Z" fill="#E6E6E6"/>
<path d="M4.60034 5.80473V126.715C4.60288 129.924 7.20314 132.524 10.4115 132.527H189.589C192.797 132.524 195.397 129.924 195.4 126.715V5.80473C195.392 2.59951 192.794 0.00406593 189.589 0H10.4115C7.20629 0.00408191 4.60798 2.59952 4.60034 5.80473H4.60034Z" fill="#E6E6E6"/>
<path d="M188.094 4.1969H11.9063C10.19 4.20064 8.80069 5.59288 8.80054 7.3091V125.224C8.80349 126.938 10.1922 128.327 11.9063 128.33H188.094C189.808 128.327 191.197 126.938 191.2 125.224V7.3091C191.199 5.59287 189.81 4.20064 188.094 4.1969V4.1969ZM143.65 87.97C143.123 89.0105 142.055 89.6652 140.889 89.6625L140.871 89.6611C139.182 89.4258 137.486 89.2707 135.785 89.1956C136.049 89.3848 136.282 89.6148 136.474 89.8768C136.967 90.5844 137.119 91.4756 136.887 92.3067C136.503 93.8044 136.521 95.4217 136.944 97.2509C137.097 97.8908 137.02 98.5643 136.727 99.1534C136.2 100.194 135.132 100.849 133.966 100.846L133.948 100.844C129.914 100.283 125.83 100.174 121.773 100.52C121.756 100.622 121.736 100.725 121.71 100.827C121.325 102.325 121.343 103.942 121.766 105.771C121.92 106.411 121.843 107.085 121.55 107.674C121.023 108.714 119.955 109.369 118.789 109.366L118.77 109.365C114.628 108.788 110.433 108.69 106.268 109.071C106.236 110.111 106.344 111.151 106.589 112.162C106.742 112.802 106.666 113.475 106.372 114.064C105.846 115.105 104.778 115.76 103.611 115.757L103.593 115.756C98.5934 115.059 93.5214 115.059 88.5218 115.756H88.5137C88.0132 115.757 87.5196 115.638 87.075 115.408C85.8062 114.719 85.2321 113.206 85.7244 111.849C85.8754 111.422 85.9877 110.982 86.0598 110.534C81.4779 110.006 76.8475 110.061 72.2793 110.696H72.2713C71.7707 110.698 71.2771 110.579 70.8325 110.349C69.5638 109.66 68.9896 108.147 69.4819 106.79C70.0221 105.394 70.0443 103.85 69.5444 102.439C69.3088 101.777 69.3087 101.055 69.5442 100.393C66.1003 100.218 62.6475 100.369 59.2321 100.844H59.2241C58.7235 100.846 58.2299 100.727 57.7853 100.497C56.5166 99.8083 55.9424 98.2951 56.4347 96.9378C56.975 95.5417 56.9971 93.9982 56.4972 92.5872C56.1778 91.6907 56.295 90.6965 56.8141 89.8988C57.2975 89.1456 58.1088 88.6656 59.0017 88.6046C59.072 88.5999 59.1424 88.5974 59.2137 88.5974C60.9635 88.9033 62.7303 89.1029 64.5043 89.195C63.3726 88.4512 62.8985 87.0285 63.3577 85.7545C63.898 84.3584 63.9201 82.8149 63.4202 81.4038C63.1008 80.5073 63.218 79.5132 63.7371 78.7155C63.7596 78.6812 63.7858 78.6507 63.8094 78.6175C62.547 78.7046 61.2875 78.8356 60.0309 79.0104H60.0229C59.5223 79.0123 59.0287 78.8932 58.5841 78.6633C57.3154 77.9742 56.7412 76.461 57.2336 75.1037C57.7738 73.7076 57.7959 72.1641 57.296 70.7531C56.9766 69.8566 57.0938 68.8624 57.6129 68.0648C58.0963 67.3115 58.9076 66.8315 59.8006 66.7705C59.8708 66.7658 59.9412 66.7633 60.0125 66.7633C62.1166 67.1317 64.2447 67.3459 66.38 67.4043C65.8352 66.6192 65.7014 65.62 66.0204 64.7192C66.5606 63.3231 66.5828 61.7796 66.0829 60.3686C65.7635 59.4721 65.8807 58.4779 66.3998 57.6802C66.8832 56.927 67.6945 56.4469 68.5874 56.386C68.6577 56.3813 68.7281 56.3788 68.7994 56.3788C70.5799 56.6902 72.378 56.8915 74.1833 56.9815C73.7955 56.2472 73.7321 55.3841 74.0085 54.601C74.5487 53.2048 74.5709 51.6614 74.0709 50.2503C73.7516 49.3538 73.8688 48.3596 74.3879 47.562C74.8713 46.8087 75.6826 46.3287 76.5755 46.2677C76.6457 46.263 76.7162 46.2606 76.7875 46.2606C78.8826 46.6273 81.0016 46.8413 83.1278 46.9007C82.8383 46.2168 82.8148 45.4494 83.0617 44.749C83.6019 43.3529 83.624 41.8094 83.1241 40.3983C82.8047 39.5018 82.922 38.5077 83.4411 37.71C83.9244 36.9568 84.7358 36.4767 85.6287 36.4157C85.6989 36.4111 85.7694 36.4086 85.8406 36.4086C90.8307 37.2869 95.9357 37.2876 100.926 36.4105H100.932C101.317 36.4899 101.715 36.4899 102.1 36.4105H102.106C107.096 37.2876 112.201 37.2869 117.191 36.4086C117.262 36.4086 117.333 36.4111 117.403 36.4157C118.296 36.4767 119.107 36.9568 119.591 37.71C120.11 38.5077 120.227 39.5018 119.908 40.3983C119.408 41.8094 119.43 43.3529 119.97 44.749C120.217 45.4494 120.194 46.2168 119.904 46.9007C122.03 46.8412 124.149 46.6273 126.244 46.2606C126.316 46.2606 126.386 46.263 126.456 46.2677C127.349 46.3287 128.161 46.8087 128.644 47.562C129.163 48.3596 129.28 49.3538 128.961 50.2503C128.461 51.6614 128.483 53.2048 129.023 54.601C129.3 55.3841 129.236 56.2472 128.849 56.9815C130.654 56.8915 132.452 56.6902 134.232 56.3788C134.304 56.3788 134.374 56.3813 134.444 56.386C135.337 56.4469 136.149 56.927 136.632 57.6802C137.151 58.4779 137.268 59.4721 136.949 60.3686C136.449 61.7796 136.471 63.3231 137.011 64.7192C137.331 65.6223 137.196 66.6242 136.648 67.41C136.886 67.5895 137.096 67.8027 137.272 68.0428C137.766 68.7503 137.918 69.6415 137.686 70.4726C137.301 71.9704 137.32 73.5876 137.742 75.4168C137.896 76.0567 137.819 76.7302 137.526 77.3193C137.418 77.529 137.288 77.7259 137.136 77.9063C138.383 77.7967 139.626 77.6333 140.866 77.416H140.873C141.87 77.4125 142.809 77.8876 143.397 78.6935C143.891 79.4011 144.042 80.2923 143.81 81.1234C143.426 82.6211 143.444 84.2384 143.867 86.0676C144.02 86.7075 143.943 87.381 143.65 87.9701L143.65 87.97Z" fill="white"/>
<path d="M182.379 20.4402H17.5212C17.1591 20.4322 16.8721 20.1323 16.88 19.7702C16.8878 19.4193 17.1704 19.1368 17.5212 19.129H182.379C182.741 19.137 183.028 19.437 183.02 19.7991C183.013 20.1499 182.73 20.4325 182.379 20.4402Z" fill="#E6E6E6"/>
<path d="M101.942 112.616L101.923 112.615C96.9238 111.918 91.8517 111.918 86.8521 112.615H86.844C86.3435 112.617 85.8499 112.497 85.4053 112.267C84.1366 111.578 83.5624 110.065 84.0547 108.708C84.5949 107.312 84.6171 105.768 84.1171 104.357C83.7978 103.461 83.915 102.467 84.4341 101.669C84.9174 100.916 85.7288 100.436 86.6217 100.375C86.6919 100.37 86.7624 100.368 86.8336 100.368C91.8237 101.246 96.9287 101.247 101.919 100.37H101.925C102.923 100.366 103.861 100.841 104.449 101.647C104.943 102.355 105.095 103.246 104.863 104.077C104.478 105.575 104.496 107.192 104.919 109.021C105.073 109.661 104.996 110.334 104.703 110.924C104.176 111.964 103.108 112.619 101.942 112.616Z" fill="#0050FF"/>
<path d="M117.317 86.5091L113.295 83.1807C110.279 84.7616 105.689 91.0733 105.689 91.0733L95.1011 98.6883C93.8296 98.7488 92.8479 99.8287 92.9084 101.1C92.969 102.372 94.0489 103.353 95.3204 103.293C96.1456 103.254 96.8866 102.776 97.2628 102.04L111.649 94.4383L117.317 86.5091V86.5091Z" fill="#FFB8B8"/>
<path d="M124.103 73.841C126.424 75.8071 126.712 79.2828 124.746 81.6043C124.526 81.8644 124.282 82.1035 124.018 82.3186L121.46 84.3978C121.46 84.3978 115.08 93.5824 111.759 94.6479L103.233 99.102L99.3889 95.2476L107.116 88.9505C107.116 88.9505 110.67 85.589 111.025 83.1283C111.243 81.6214 113.794 77.5164 116.35 74.4717C118.312 72.1571 121.779 71.8714 124.094 73.8335L124.103 73.841V73.841Z" fill="#3F3D56"/>
<path d="M115.837 173.52L112.203 173.52L110.475 159.504L115.838 159.504L115.837 173.52Z" fill="#FFB6B6"/>
<path d="M115.965 177.311L104.791 177.311V177.169C104.791 174.767 106.738 172.82 109.14 172.82H109.14L111.181 171.271L114.99 172.82L115.965 172.82L115.965 177.311Z" fill="#2F2E41"/>
<path d="M143.525 154.394L141.804 157.594L128.64 152.48L131.18 147.756L143.525 154.394Z" fill="#FFB6B6"/>
<path d="M146.924 156.076L141.632 165.918L141.508 165.852C139.392 164.714 138.599 162.077 139.737 159.961L139.737 159.961L139.339 157.43L142.507 154.809L142.969 153.95L146.924 156.076Z" fill="#2F2E41"/>
<path d="M108.967 109.333L105.76 134.991L107.363 143.593L136.228 156.238L137.832 151.027C130.453 146.512 122.566 139.679 117.596 139.177C117.596 139.177 117.184 134.623 120.744 131.813C121.463 131.247 121.306 130.479 121.596 129.784C121.796 129.306 122.591 128.808 122.794 128.318C123.058 127.682 122.731 127.05 122.997 126.404C123.146 126.041 123.711 126.018 123.859 125.655C124.112 125.035 123.946 124.075 124.193 123.462C124.719 122.153 125.225 120.873 125.687 119.673C127.125 115.938 128.137 112.979 128.009 112.34C127.609 110.335 108.967 109.333 108.967 109.333Z" fill="#2F2E41"/>
<path d="M108.414 134.916L106.737 145.752L110.971 167.864H116.584C118.6 160.434 118.704 150.669 116.784 142.407L108.414 134.916Z" fill="#2F2E41"/>
<path d="M112.02 77.9846L114.608 73.476L117.386 71.2475L122.597 70.4457L124.045 71.559C129.256 79.5232 131.199 89.1884 129.471 98.5477L129.065 100.751L128.807 102.149L128.918 103.821L128.049 106.254L128.168 108.036L128.232 108.988L128.296 109.943L128.386 111.276C128.546 112.037 127.739 111.937 127.853 112.608C128.054 113.785 128.953 115.531 127.587 115.537L113.475 112.608C109.89 112.622 106.552 108.347 110.013 104.886L112.02 77.9846H112.02Z" fill="#3F3D56"/>
<path d="M118.626 69.1897C122.411 69.1897 125.479 66.1216 125.479 62.3368C125.479 58.5521 122.411 55.484 118.626 55.484C114.841 55.484 111.773 58.5521 111.773 62.3368C111.773 66.1216 114.841 69.1897 118.626 69.1897Z" fill="#FFB8B8"/>
<path d="M118.742 68.995C119.745 69.0106 120.747 68.9406 121.738 68.7856C122.72 68.5859 124.917 66.976 125.529 66.0072C125.984 65.2873 126.275 64.1633 126.439 63.3472C126.886 61.163 126.386 58.892 125.063 57.0977C124.811 56.7266 124.464 56.4304 124.058 56.2404C124.022 56.2263 123.985 56.2138 123.948 56.2032C123.356 56.0475 122.824 55.7186 122.421 55.2586C122.343 55.1656 122.258 55.0783 122.167 54.9975C121.711 54.6128 121.171 54.3414 120.59 54.2056C119.653 53.9547 118.296 54.2038 116.558 54.9466C115.685 55.3197 114.73 55.1847 113.995 55.0253C113.911 55.0091 113.825 55.0386 113.769 55.1029C113.456 55.3963 113.044 55.5606 112.615 55.5626C112.353 55.5742 112.077 55.9378 111.744 56.4119C111.669 56.5195 111.58 56.6452 111.517 56.7216L111.508 56.5748L111.36 56.7385C110.596 57.5808 110.659 58.8832 111.501 59.6474C111.728 59.8527 111.997 60.0051 112.29 60.0935C112.554 60.1638 112.824 60.2069 113.097 60.2222C113.263 60.2371 113.434 60.2525 113.597 60.2809C114.667 60.5 115.543 61.2651 115.905 62.2957C116.056 62.7178 116.521 62.9373 116.943 62.7859C117.009 62.7622 117.072 62.7299 117.13 62.6899C117.477 62.4201 117.933 62.3369 118.353 62.4673C118.531 62.5666 118.67 62.7242 118.746 62.9138C118.839 63.125 118.992 63.3038 119.187 63.4276C119.852 63.7707 119.898 65.2907 119.659 66.5579C119.429 67.7793 118.973 68.6628 118.551 68.7065C118.227 68.7401 118.19 68.7632 118.166 68.8206L118.145 68.872L118.182 68.92C118.361 68.985 118.552 69.0106 118.742 68.995Z" fill="#2F2E41"/>
<path d="M104.871 64.9537L104.852 64.9524C99.8527 64.2558 94.7807 64.2558 89.7811 64.9524H89.773C89.2725 64.9543 88.7789 64.8352 88.3343 64.6053C87.0655 63.9162 86.4914 62.403 86.9837 61.0457C87.5239 59.6496 87.546 58.1061 87.0461 56.6951C86.7267 55.7986 86.844 54.8044 87.3631 54.0068C87.8464 53.2535 88.6578 52.7735 89.5507 52.7125C89.6209 52.7078 89.6914 52.7053 89.7626 52.7053C94.7526 53.5836 99.8577 53.5843 104.848 52.7073H104.854C105.852 52.7038 106.79 53.1789 107.378 53.9848C107.872 54.6923 108.024 55.5835 107.792 56.4146C107.407 57.9124 107.425 59.5296 107.848 61.3588C108.002 61.9988 107.925 62.6722 107.632 63.2613C107.105 64.3017 106.037 64.9565 104.871 64.9537Z" fill="#0050FF"/>
<path d="M111.279 81.0939L114.115 76.7103C112.192 73.8995 105.387 70.0789 105.387 70.0789L96.5873 60.4535C96.3786 59.1977 95.1914 58.3489 93.9356 58.5577C92.6799 58.7664 91.8311 59.9536 92.0399 61.2094C92.1753 62.0243 92.7365 62.7044 93.5109 62.9921L102.742 76.391L111.279 81.0939H111.279Z" fill="#FFB8B8"/>
<path d="M124.653 86.3529C122.972 88.8883 119.554 89.5806 117.019 87.8993C116.734 87.7109 116.468 87.4965 116.224 87.259L113.86 84.9617C113.86 84.9617 103.951 79.7875 102.505 76.6139L96.0117 67.4045L100.365 63.4772L107.932 70.356C107.932 70.356 111.416 74.3847 113.901 74.4505C115.424 74.4908 119.799 76.5441 123.121 78.7272C125.649 80.4054 126.338 83.8152 124.66 86.3432L124.653 86.3529Z" fill="#3F3D56"/>
<path d="M58.6428 177.271L58.6243 177.27C53.6247 176.573 48.5526 176.573 43.553 177.27H43.545C43.0444 177.272 42.5508 177.153 42.1062 176.923C40.8375 176.234 40.2633 174.72 40.7556 173.363C41.2959 171.967 41.318 170.424 40.8181 169.013C40.4987 168.116 40.6159 167.122 41.135 166.324C41.6184 165.571 42.4297 165.091 43.3226 165.03C43.3929 165.025 43.4633 165.023 43.5346 165.023C48.5246 165.901 53.6296 165.902 58.6199 165.025H58.6261C59.6237 165.021 60.5624 165.496 61.1502 166.302C61.6441 167.01 61.7958 167.901 61.5639 168.732C61.1791 170.23 61.1973 171.847 61.6201 173.676C61.7735 174.316 61.6968 174.99 61.4035 175.579C60.8769 176.619 59.8089 177.274 58.6428 177.271H58.6428Z" fill="#0050FF"/>
<path d="M62.903 166.088L62.8846 166.087C57.8849 165.39 52.8129 165.39 47.8133 166.087H47.8052C47.3047 166.088 46.8111 165.969 46.3665 165.739C45.0978 165.05 44.5236 163.537 45.0159 162.18C45.5561 160.784 45.5782 159.24 45.0783 157.829C44.759 156.933 44.8762 155.939 45.3953 155.141C45.8786 154.388 46.69 153.908 47.5829 153.847C47.6531 153.842 47.7236 153.839 47.7948 153.839C52.7848 154.718 57.8899 154.718 62.8801 153.841H62.8864C63.8839 153.838 64.8226 154.313 65.4105 155.119C65.9043 155.826 66.056 156.718 65.8242 157.549C65.4393 159.047 65.4575 160.664 65.8803 162.493C66.0337 163.133 65.9571 163.806 65.6637 164.395C65.1372 165.436 64.0691 166.091 62.903 166.088H62.903Z" fill="#0050FF"/>
<path d="M25.6219 169.137L25.6334 169.122C29.0117 165.371 31.8537 161.17 34.0781 156.639L34.0826 156.632C34.3615 156.217 34.7367 155.874 35.1763 155.635C36.4579 154.97 38.033 155.343 38.8814 156.511C39.7351 157.741 41.0011 158.624 42.4499 159C43.3714 159.238 44.1292 159.892 44.499 160.769C44.8521 161.592 44.795 162.533 44.3452 163.306C44.3098 163.367 44.2723 163.427 44.2324 163.486C40.7089 167.127 37.8479 171.355 35.7782 175.98L35.7747 175.985C35.2187 176.813 34.2992 177.324 33.3022 177.36C32.4395 177.372 31.6163 176.998 31.0579 176.341C30.0329 175.183 28.6832 174.292 26.9313 173.617C26.3153 173.385 25.8004 172.944 25.4768 172.371C24.9101 171.352 24.9663 170.101 25.6219 169.137Z" fill="#0050FF"/>
<path d="M199.685 177.677L0.31539 177.759C0.140294 177.758 -0.000911536 177.616 4.43116e-06 177.44C0.000909747 177.267 0.141585 177.126 0.31539 177.125L199.685 177.043C199.86 177.044 200.001 177.187 200 177.362C199.999 177.536 199.858 177.676 199.685 177.677Z" fill="#CACACA"/>
<path d="M42.6699 14.3541C43.9135 14.3541 44.9217 13.3235 44.9217 12.0522C44.9217 10.7808 43.9135 9.75024 42.6699 9.75024C41.4263 9.75024 40.4182 10.7808 40.4182 12.0522C40.4182 13.3235 41.4263 14.3541 42.6699 14.3541Z" fill="#3F3D56"/>
<path d="M50.4488 14.3541C51.6924 14.3541 52.7005 13.3235 52.7005 12.0522C52.7005 10.7808 51.6924 9.75024 50.4488 9.75024C49.2052 9.75024 48.197 10.7808 48.197 12.0522C48.197 13.3235 49.2052 14.3541 50.4488 14.3541Z" fill="#3F3D56"/>
<path d="M58.2273 14.3541C59.4709 14.3541 60.479 13.3235 60.479 12.0522C60.479 10.7808 59.4709 9.75024 58.2273 9.75024C56.9837 9.75024 55.9756 10.7808 55.9756 12.0522C55.9756 13.3235 56.9837 14.3541 58.2273 14.3541Z" fill="#3F3D56"/>
<path d="M67.0972 13.8715C67.028 13.8715 66.959 13.8447 66.9068 13.7914L65.3875 12.2383C65.2862 12.1348 65.2862 11.9694 65.3875 11.8659L66.9068 10.3129C67.0099 10.2078 67.1787 10.2061 67.2833 10.3087C67.3885 10.4116 67.3904 10.5802 67.2875 10.6852L65.9503 12.0521L67.2875 13.419C67.3903 13.5241 67.3885 13.6927 67.2833 13.7956C67.2316 13.8463 67.1644 13.8715 67.0972 13.8715Z" fill="#3F3D56"/>
<path d="M69.6503 13.8716C69.5831 13.8716 69.5159 13.8463 69.4641 13.7956C69.359 13.6928 69.3571 13.5243 69.46 13.4191L70.797 12.0521L69.46 10.6853C69.3571 10.5803 69.359 10.4116 69.4641 10.3088C69.5691 10.2058 69.7378 10.2078 69.8407 10.3129L71.3599 11.866C71.4612 11.9695 71.4612 12.1348 71.3599 12.2383L69.8407 13.7915C69.7885 13.8448 69.7195 13.8716 69.6503 13.8716Z" fill="#3F3D56"/>
<path d="M149.134 10.0167H146.309C145.987 10.0167 145.726 10.2777 145.726 10.5999V13.4276C145.726 13.7498 145.987 14.0108 146.309 14.0108H149.134C149.457 14.0108 149.72 13.7498 149.72 13.4276V10.5999C149.72 10.2777 149.457 10.0167 149.134 10.0167Z" fill="#3F3D56"/>
<path d="M142.211 10.0167H139.386C139.064 10.0167 138.803 10.2777 138.803 10.5999V13.4276C138.803 13.7498 139.064 14.0108 139.386 14.0108H142.211C142.534 14.0108 142.797 13.7498 142.797 13.4276V10.5999C142.797 10.2777 142.534 10.0167 142.211 10.0167Z" fill="#3F3D56"/>
<path d="M155.658 10.1499H152.833C152.511 10.1499 152.25 10.4108 152.25 10.733V13.5608C152.25 13.883 152.511 14.1439 152.833 14.1439H155.658C155.98 14.1439 156.244 13.883 156.244 13.5608V10.733C156.244 10.4108 155.98 10.1499 155.658 10.1499Z" fill="#3F3D56"/>
<path d="M113.076 11.2256H90.4934C90.0993 11.2256 89.7825 11.5451 89.7825 11.9365C89.7825 12.328 90.0993 12.6475 90.4934 12.6475H113.076C113.467 12.6475 113.787 12.3279 113.787 11.9365C113.787 11.5451 113.467 11.2256 113.076 11.2256Z" fill="#3F3D56"/>
</g>
<defs>
<clipPath id="clip0_4269_59019">
<rect width="200" height="178.142" fill="white"/>
</clipPath>
</defs>
</svg>
