<svg width="25" height="24" viewBox="0 0 25 24" fill="none" xmlns="http://www.w3.org/2000/svg">
<path d="M16.9277 1H8.92773C7.26773 1 5.92773 2.34 5.92773 4V20C5.92773 21.66 7.26773 23 8.92773 23H16.9277C18.5877 23 19.9277 21.66 19.9277 20V4C19.9277 2.34 18.5877 1 16.9277 1ZM14.4277 21H11.4277C11.1477 21 10.9277 20.78 10.9277 20.5C10.9277 20.22 11.1477 20 11.4277 20H14.4277C14.7077 20 14.9277 20.22 14.9277 20.5C14.9277 20.78 14.7077 21 14.4277 21ZM17.9277 18H7.92773V4H17.9277V18Z" fill="#0050FF"/>
</svg>
