<svg width="24" height="24" viewBox="0 0 24 24" fill="none" xmlns="http://www.w3.org/2000/svg">
<path d="M9.81908 6.5455C10.1215 6.55185 10.4222 6.49776 10.7034 6.3864C10.9847 6.27505 11.2409 6.10867 11.4571 5.89702C11.6732 5.68537 11.8449 5.43271 11.9621 5.15384C12.0794 4.87497 12.1398 4.57551 12.1398 4.273C12.1398 3.97049 12.0794 3.67103 11.9621 3.39216C11.8449 3.11329 11.6732 2.86063 11.4571 2.64898C11.2409 2.43733 10.9847 2.27095 10.7034 2.1596C10.4222 2.04824 10.1215 1.99416 9.81908 2.0005C9.22463 2.01297 8.65873 2.25787 8.24273 2.68269C7.82673 3.10751 7.59375 3.67842 7.59375 4.273C7.59375 4.86758 7.82673 5.43849 8.24273 5.86331C8.65873 6.28813 9.22463 6.53303 9.81908 6.5455Z" fill="#00283C"/>
<path fill-rule="evenodd" clip-rule="evenodd" d="M3.36328 21.9981H6.54528L8.45428 18.9981L6.81728 16.4531L3.36328 21.9991V21.9981Z" fill="#00283C"/>
<path fill-rule="evenodd" clip-rule="evenodd" d="M11.182 14.8183L15.727 22.0003H12.454L7.545 14.1803V11.0903H6.727C6.182 11.0903 5.727 11.5443 5.727 12.0903V15.1803H3V12.0903C3 10.0003 4.727 8.36328 6.727 8.36328H12L16.273 12.6363L14.454 14.3633L11.182 11.0913V14.8183Z" fill="#00283C"/>
<path d="M20.7289 17.546L19.0929 19.182C18.826 19.4441 18.4669 19.591 18.0929 19.591C17.7188 19.591 17.3597 19.4441 17.0929 19.182L14.5469 16.546L15.9109 15.182L17.2749 13.909L18.1839 13L20.7289 15.636C21.3659 16.091 21.2749 17 20.7289 17.546Z" fill="#00283C"/>
</svg>
