<svg width="21" height="21" viewBox="0 0 21 21" fill="none" xmlns="http://www.w3.org/2000/svg">
<path d="M9.65984 2.93961C9.65984 2.47695 10.0372 2.09961 10.4998 2.09961C10.9625 2.09961 11.3398 2.47695 11.3398 2.93961C11.3398 3.40227 10.9625 3.77961 10.4998 3.77961C10.0372 3.77961 9.65984 3.40227 9.65984 2.93961Z" fill="#00C897"/>
<path d="M3.68797 7.13961L9.00359 3.70086C9.13484 3.9568 9.32844 4.17172 9.56797 4.33086L5.23672 7.13961H3.68797Z" fill="#00C897"/>
<path d="M11.4317 4.33086C11.6696 4.17172 11.8648 3.9568 11.9961 3.70086L17.2986 7.13961H15.763L11.4317 4.33086Z" fill="#00C897"/>
<path d="M0.839844 8.39961C0.839844 8.16828 1.02852 7.97961 1.25984 7.97961H19.7398C19.9728 7.97961 20.1598 8.16828 20.1598 8.39961V18.4796C20.1598 18.7126 19.9728 18.8996 19.7398 18.8996H1.25984C1.02852 18.8996 0.839844 18.7126 0.839844 18.4796V8.39961Z" fill="#00C897"/>
<path d="M9.91166 10C9.78335 10.0242 9.69081 10.1378 9.69291 10.2692V10.5385C9.69291 10.6867 9.81385 10.8077 9.96214 10.8077V11.1274C8.58654 11.3819 7.53906 12.5913 7.53906 14.0385C7.53906 15.6696 8.87049 17 10.5006 17C12.1318 17 13.4621 15.6696 13.4621 14.0385C13.4621 13.195 13.1067 12.4336 12.5367 11.893L12.8227 11.5397C12.9153 11.424 12.8963 11.2536 12.7806 11.1611L12.4525 10.9087C12.4473 10.9023 12.442 10.8971 12.4357 10.8918C12.3179 10.814 12.1602 10.8392 12.0739 10.9507L11.7542 11.363C11.5291 11.2578 11.2904 11.1737 11.0391 11.1274V10.8077C11.1873 10.8077 11.3083 10.6867 11.3083 10.5385V10.2692C11.3083 10.1209 11.1873 10 11.0391 10H9.96214C9.95373 10 9.94531 10 9.9369 10C9.92849 10 9.92007 10 9.91166 10ZM10.5006 11.8846C11.6953 11.8846 12.6544 12.8448 12.6544 14.0385C12.6544 15.2321 11.6953 16.1923 10.5006 16.1923C9.30799 16.1923 8.34675 15.2321 8.34675 14.0385C8.34675 12.8448 9.30799 11.8846 10.5006 11.8846ZM8.85156 12.768C8.80213 12.7764 8.75586 12.8059 8.72536 12.8522C8.66331 12.9437 8.69907 13.0499 8.78425 13.1298C8.84841 13.1887 9.59721 13.7987 9.97055 14.1058C10.0042 14.3708 10.2261 14.5769 10.5006 14.5769C10.7982 14.5769 11.0391 14.3361 11.0391 14.0385C11.0391 13.7408 10.7982 13.5 10.5006 13.5C10.4512 13.5 10.4028 13.5042 10.3576 13.5168C9.91797 13.2844 9.04612 12.8248 9.003 12.8017C8.95463 12.7754 8.90099 12.7596 8.85156 12.768Z" fill="white"/>
</svg>
