<svg width="13" height="12" viewBox="0 0 13 12" fill="none" xmlns="http://www.w3.org/2000/svg">
<path d="M5.39303 7.87757L6.88457 3.40288C6.93982 3.2371 6.85023 3.05791 6.68446 3.00264C6.5187 2.9474 6.33949 3.03699 6.28422 3.20276L4.79268 7.67745C4.73744 7.84323 4.82702 8.02242 4.9928 8.07768C5.02598 8.08874 5.05973 8.09399 5.09289 8.09399C5.22536 8.09401 5.34882 8.01016 5.39303 7.87757Z" fill="#000000de"/>
<path d="M7.63074 6.48926C8.15414 6.48926 8.57996 6.06344 8.57996 5.54004C8.57996 5.01664 8.15414 4.59082 7.63074 4.59082C7.10734 4.59082 6.68152 5.01664 6.68152 5.54004C6.68152 6.06344 7.10734 6.48926 7.63074 6.48926ZM7.63074 5.22363C7.8052 5.22363 7.94714 5.36557 7.94714 5.54004C7.94714 5.71451 7.8052 5.85645 7.63074 5.85645C7.45627 5.85645 7.31433 5.71451 7.31433 5.54004C7.31433 5.36557 7.45627 5.22363 7.63074 5.22363Z" fill="#000000de"/>
<path d="M4.0487 4.59082C3.52531 4.59082 3.09949 5.01664 3.09949 5.54004C3.09949 6.06344 3.52531 6.48926 4.0487 6.48926C4.5721 6.48926 4.99792 6.06344 4.99792 5.54004C4.99792 5.01664 4.57212 4.59082 4.0487 4.59082ZM4.0487 5.85645C3.87424 5.85645 3.7323 5.71451 3.7323 5.54004C3.7323 5.36557 3.87424 5.22363 4.0487 5.22363C4.22317 5.22363 4.36511 5.36557 4.36511 5.54004C4.36511 5.71451 4.22319 5.85645 4.0487 5.85645Z" fill="#000000de"/>
<path d="M11.8367 4.52304L10.7333 3.0519L10.7764 2.75062C10.7905 2.65203 10.7573 2.55255 10.6869 2.48214L10.0157 1.81093L10.6869 1.13973C10.8104 1.01618 10.8104 0.815836 10.6869 0.692269C10.5633 0.568723 10.363 0.568723 10.2394 0.692269L9.56823 1.36347L8.89703 0.692269C8.82661 0.621837 8.72714 0.588804 8.62854 0.602768L5.49627 1.05023C5.42849 1.05991 5.3657 1.09132 5.31729 1.13973L1.43924 5.01778C0.986887 5.47011 0.986887 6.20616 1.43924 6.65849L4.72065 9.93992C4.78777 10.007 4.86126 10.064 4.93903 10.1112V10.2395C4.93903 10.8792 5.45948 11.3996 6.09919 11.3996H10.7398C11.3795 11.3996 11.9 10.8792 11.9 10.2395V4.71289C11.9 4.64444 11.8778 4.5778 11.8367 4.52304ZM1.8867 6.21103C1.68108 6.00541 1.68108 5.67086 1.8867 5.46524L5.69016 1.66178L8.5614 1.25161L9.12074 1.81096L8.67328 2.25842L8.44954 2.03468C8.326 1.91113 8.12565 1.91113 8.00208 2.03468C7.87851 2.15822 7.87851 2.35857 8.00208 2.48214L8.89703 3.37708C8.95881 3.43887 9.03979 3.46977 9.12074 3.46977C9.2017 3.46977 9.2827 3.43887 9.34447 3.37708C9.46803 3.25354 9.46803 3.05319 9.34447 2.92962L9.12072 2.70588L9.56819 2.25842L10.1275 2.81776L9.71734 5.689L5.9139 9.49246C5.8143 9.59206 5.68187 9.64691 5.54101 9.64691C5.40014 9.64691 5.26772 9.59204 5.16811 9.49246L1.8867 6.21103ZM11.2672 10.2395C11.2672 10.5302 11.0306 10.7668 10.7398 10.7668H6.09919C5.82151 10.7668 5.59345 10.551 5.57343 10.2784C5.85961 10.2705 6.14342 10.1579 6.36134 9.93992L10.2394 6.06187C10.2878 6.01346 10.3192 5.95067 10.3289 5.88289L10.6068 3.93784L11.2672 4.81836V10.2395Z" fill="#000000de"/>
</svg>
