<svg width="24" height="24" viewBox="0 0 24 24" fill="none" xmlns="http://www.w3.org/2000/svg">
<path d="M11.8985 19.2C10.7138 19.1935 9.54841 18.8988 8.50307 18.3413C7.45774 17.7838 6.56383 16.9802 5.89846 16C5.89846 14 9.89846 12.9 11.8985 12.9C13.8985 12.9 17.8985 14 17.8985 16C17.2331 16.9802 16.3391 17.7838 15.2938 18.3413C14.2484 18.8988 13.0832 19.1935 11.8985 19.2ZM11.8985 5C12.2944 4.99267 12.6878 5.06526 13.0551 5.21343C13.4224 5.3616 13.756 5.58231 14.0361 5.86236C14.3161 6.14241 14.5368 6.47605 14.685 6.84334C14.8332 7.21063 14.9058 7.60402 14.8985 8C14.8985 8.79565 14.5823 9.55871 14.0197 10.1213C13.4571 10.6839 12.6941 11 11.8985 11C11.1028 11 10.3397 10.6839 9.77712 10.1213C9.21451 9.55871 8.89846 8.79565 8.89846 8C8.89113 7.60402 8.96367 7.21063 9.11184 6.84334C9.26001 6.47605 9.48071 6.14241 9.76076 5.86236C10.0408 5.58231 10.3745 5.3616 10.7418 5.21343C11.1091 5.06526 11.5025 4.99267 11.8985 5ZM11.8985 2C9.92064 2 7.98722 2.58649 6.34273 3.6853C4.69824 4.78412 3.4165 6.3459 2.65963 8.17317C1.90275 10.0004 1.70474 12.0111 2.0906 13.9509C2.47645 15.8907 3.42883 17.6725 4.82735 19.0711C6.22588 20.4696 8.00772 21.422 9.94753 21.8079C11.8873 22.1937 13.898 21.9957 15.7252 21.2388C17.5525 20.4819 19.1143 19.2002 20.2132 17.5557C21.312 15.9112 21.8985 13.9778 21.8985 12C21.8908 9.35019 20.8347 6.81109 18.961 4.93738C17.0873 3.06368 14.5483 2.00765 11.8985 2V2Z" fill="#001e2d"/>
</svg>
