<svg width="32" height="32" viewBox="0 0 32 32" fill="none" xmlns="http://www.w3.org/2000/svg">
<ellipse cx="16.033" cy="16" rx="15.9427" ry="16" fill="#0050FF" fill-opacity="0.1"/>
<path d="M14.195 19.1306L16.672 11.6728C16.7637 11.3965 16.615 11.0978 16.3396 11.0057C16.0644 10.9136 15.7668 11.0629 15.675 11.3392L13.198 18.7971C13.1063 19.0733 13.255 19.372 13.5303 19.4641C13.5854 19.4825 13.6415 19.4913 13.6965 19.4913C13.9165 19.4913 14.1216 19.3516 14.195 19.1306Z" fill="#0050FF"/>
<path d="M17.9108 16.8164C18.78 16.8164 19.4872 16.1067 19.4872 15.2344C19.4872 14.362 18.78 13.6523 17.9108 13.6523C17.0416 13.6523 16.3345 14.362 16.3345 15.2344C16.3345 16.1067 17.0416 16.8164 17.9108 16.8164ZM17.9108 14.707C18.2006 14.707 18.4363 14.9436 18.4363 15.2344C18.4363 15.5252 18.2006 15.7617 17.9108 15.7617C17.6211 15.7617 17.3854 15.5252 17.3854 15.2344C17.3854 14.9436 17.6211 14.707 17.9108 14.707Z" fill="#0050FF"/>
<path d="M11.9621 13.6504C11.0929 13.6504 10.3857 14.3601 10.3857 15.2324C10.3857 16.1048 11.0929 16.8145 11.9621 16.8145C12.8313 16.8145 13.5385 16.1048 13.5385 15.2324C13.5385 14.3601 12.8313 13.6504 11.9621 13.6504ZM11.9621 15.7598C11.6724 15.7598 11.4366 15.5232 11.4366 15.2324C11.4366 14.9416 11.6724 14.7051 11.9621 14.7051C12.2518 14.7051 12.4876 14.9416 12.4876 15.2324C12.4876 15.5232 12.2519 15.7598 11.9621 15.7598Z" fill="#0050FF"/>
<path d="M24.8958 13.5391L23.0635 11.0872L23.135 10.585C23.1584 10.4207 23.1033 10.2549 22.9864 10.1375L21.8717 9.01887L22.9863 7.9002C23.1915 7.69429 23.1915 7.36038 22.9863 7.15443C22.7811 6.94852 22.4484 6.94852 22.2432 7.15443L21.1286 8.27311L20.0139 7.15443C19.897 7.03705 19.7318 6.98199 19.5681 7.00526L14.3663 7.75103C14.2538 7.76717 14.1495 7.81952 14.0691 7.9002L7.62885 14.3636C6.87762 15.1175 6.87762 16.3442 7.62885 17.0981L13.0783 22.5672C13.1897 22.6791 13.3118 22.7739 13.4409 22.8526V23.0664C13.4409 24.1326 14.3052 25 15.3676 25H23.0742C24.1366 25 25.0009 24.1326 25.0009 23.0664V13.8555C25.0009 13.7414 24.964 13.6303 24.8958 13.5391ZM8.37194 16.3524C8.03047 16.0097 8.03047 15.4521 8.37194 15.1094L14.6883 8.77029L19.4566 8.08667L20.3855 9.01891L19.6424 9.76468L19.2708 9.39178C19.0656 9.18587 18.7329 9.18587 18.5277 9.39178C18.3225 9.59769 18.3225 9.9316 18.5277 10.1375L20.0139 11.6291C20.1165 11.7321 20.251 11.7836 20.3855 11.7836C20.5199 11.7836 20.6544 11.7321 20.757 11.6291C20.9622 11.4232 20.9622 11.0893 20.757 10.8834L20.3854 10.5104L21.1285 9.76468L22.0574 10.6969L21.3762 15.4823L15.0599 21.8214C14.8945 21.9874 14.6746 22.0788 14.4406 22.0788C14.2067 22.0788 13.9868 21.9874 13.8214 21.8214L8.37194 16.3524ZM23.95 23.0664C23.95 23.551 23.5571 23.9453 23.0742 23.9453H15.3676C14.9065 23.9453 14.5277 23.5857 14.4945 23.1313C14.9697 23.1181 15.4411 22.9304 15.8029 22.5672L22.2432 16.1038C22.3236 16.0231 22.3757 15.9184 22.3918 15.8055L22.8533 12.5637L23.95 14.0312V23.0664Z" fill="#0050FF"/>
</svg>
