<?xml version="1.0" encoding="UTF-8"?>
<svg width="60px" height="60px" viewBox="0 0 60 60" version="1.1" xmlns="http://www.w3.org/2000/svg" xmlns:xlink="http://www.w3.org/1999/xlink">
    <title>raychat-logo-white</title>
    <defs>
        <linearGradient x1="64.6295745%" y1="2.14702128%" x2="35.3697872%" y2="97.8517021%" id="linearGradient-1">
            <stop stop-color="#D61395" offset="0%"></stop>
            <stop stop-color="#BB1089" offset="26.56%"></stop>
            <stop stop-color="#760769" offset="83.37%"></stop>
            <stop stop-color="#61045F" offset="99.87%"></stop>
        </linearGradient>
    </defs>
    <g id="Website" stroke="none" stroke-width="1" fill="none" fill-rule="evenodd">
        <g id="raychat-logo-white" fill-rule="nonzero">
            <g id="Group">
                <path d="M30,59.375 C13.75,59.375 0.625,46.25 0.625,30 C0.625,13.75 13.75,0.625 30,0.625 C46.25,0.625 59.375,13.75 59.375,30 C59.375,46.25 46.25,59.375 30,59.375 Z" id="Path" fill="url(#linearGradient-1)"></path>
                <path d="M30,1.25 C45.875,1.25 58.75,14.125 58.75,30 C58.75,45.875 45.875,58.75 30,58.75 C14.125,58.75 1.25,45.875 1.25,30 C1.25,14.125 14.125,1.25 30,1.25 M30,0 C13.5,0 0,13.5 0,30 C0,46.5 13.375,60 30,60 C46.625,60 60,46.625 60,30 C60,13.375 46.5,0 30,0 L30,0 Z" id="Shape" fill="#FFFFFF"></path>
            </g>
            <path d="M29.125,31.5 C28.625,31 28.625,30 29.125,29.5 C29.625,29 30.625,29 31.125,29.5 C35.375,33.75 42,34.125 46.625,30.625 C46.875,29.5 47,28.375 47,27.125 C47,25.625 46.75,24.25 46.5,22.875 C46.125,23.875 45.125,24.5 44,24.5 C42.5,24.5 41.25,23.25 41.25,21.75 C41.25,20.25 42.5,19 44,19 C44.375,19 44.75,19.125 45.125,19.25 C42.25,13.875 36.625,10.25 30.125,10.25 C20.75,10.25 13.125,17.875 13.125,27.25 C13.125,35.75 19.375,42.875 27.625,44 L25.875,47.5 C25,50.5 26.875,51.625 29.25,49.625 L41.25,40 L41.25,40 C42.875,38.5 44.25,36.75 45.25,34.75 C39.875,37 33.5,35.875 29.125,31.5 Z M33.25,19.125 C34.75,19.125 36,20.375 36,21.875 C36,23.375 34.75,24.625 33.25,24.625 C31.75,24.625 30.5,23.375 30.5,21.875 C30.5,20.25 31.75,19.125 33.25,19.125 Z" id="Shape" fill="#FFFFFF"></path>
        </g>
    </g>
</svg>