<svg width="20" height="20" viewBox="0 0 20 20" fill="none" xmlns="http://www.w3.org/2000/svg">
<path d="M4.66797 2.66804C3.57132 2.66804 2.66797 3.57139 2.66797 4.66804V15.3347C2.66797 16.4394 3.5633 17.3347 4.66797 17.3347H16.0013C16.738 17.3347 17.3346 16.738 17.3346 16.0014V6.66804C17.3346 5.93137 16.738 5.3347 16.0013 5.3347H10.668H4.66797C4.29128 5.3347 4.0013 5.04472 4.0013 4.66804C4.0013 4.29135 4.29128 4.00137 4.66797 4.00137H14.668C14.7563 4.00262 14.844 3.9863 14.926 3.95335C15.008 3.92041 15.0826 3.87151 15.1455 3.80948C15.2084 3.74745 15.2584 3.67353 15.2925 3.59203C15.3266 3.51052 15.3441 3.42305 15.3441 3.3347C15.3441 3.24635 15.3266 3.15888 15.2925 3.07738C15.2584 2.99587 15.2084 2.92196 15.1455 2.85993C15.0826 2.7979 15.008 2.74899 14.926 2.71605C14.844 2.68311 14.7563 2.66679 14.668 2.66804H4.66797ZM14.668 10.0014C15.4046 10.0014 16.0013 10.598 16.0013 11.3347C16.0013 12.0714 15.4046 12.668 14.668 12.668C13.9313 12.668 13.3346 12.0714 13.3346 11.3347C13.3346 10.598 13.9313 10.0014 14.668 10.0014Z" fill="#202223"/>
</svg>
