<svg width="20" height="20" viewBox="0 0 20 20" fill="none" xmlns="http://www.w3.org/2000/svg">
<path d="M2.5 2.5V3.33333V8.65234C2.32764 8.76817 2.165 8.8962 2.01823 9.04297L0.833333 10H0V16.6667H0.833333C0.833333 16.6667 1.3443 16.9834 1.5918 17.1484C1.82513 17.3043 2.20798 17.4854 2.51465 17.4854H6.75456L6.89128 17.4121C12.4438 14.4629 12.6735 14.118 12.7718 13.9714L13.1364 12.5H19.1667V2.5H2.5ZM6.00098 4.16667H15.7048C15.641 4.35466 15.623 4.55514 15.6521 4.75149C15.6813 4.94785 15.7569 5.13442 15.8725 5.29575C15.9882 5.45708 16.1406 5.58852 16.3172 5.67918C16.4938 5.76984 16.6895 5.8171 16.888 5.81706C17.1025 5.81677 17.3132 5.76127 17.5 5.65592V9.30827C17.3134 9.20235 17.1026 9.1463 16.888 9.14551C16.6863 9.14567 16.4875 9.1947 16.3089 9.2884C16.1302 9.38211 15.9768 9.5177 15.862 9.68358C15.7471 9.84947 15.6742 10.0407 15.6493 10.2409C15.6245 10.4412 15.6485 10.6444 15.7194 10.8333H7.00684L8.25195 9.95443C8.96862 9.47609 9.21829 8.57694 8.85579 7.80111L8.81348 7.71647C8.41681 6.97397 7.55859 6.62839 6.72526 6.90755L4.16667 7.91504V5.63314C4.36263 5.75316 4.58791 5.8168 4.81771 5.81706C5.01622 5.8171 5.21188 5.76984 5.38848 5.67918C5.56508 5.58852 5.71753 5.45708 5.8332 5.29575C5.94887 5.13442 6.02442 4.94785 6.0536 4.75149C6.08278 4.55514 6.06474 4.35466 6.00098 4.16667ZM10.8333 5C10.1667 5 9.56454 5.26427 9.11621 5.6901C9.58288 5.99177 9.98129 6.40629 10.2588 6.92546L10.3271 7.06055C10.6496 7.74888 10.7192 8.48083 10.5876 9.16667H12.6839C13.0831 8.72333 13.3333 8.14333 13.3333 7.5C13.3333 6.11917 12.2142 5 10.8333 5Z" fill="#8C9196"/>
</svg>
