<svg width="64" height="64" viewBox="0 0 64 64" fill="none" xmlns="http://www.w3.org/2000/svg">
<path fill-rule="evenodd" clip-rule="evenodd" d="M5.33333 26.6665C5.33333 13.4117 16.0785 2.6665 29.3333 2.6665C42.5882 2.6665 53.3333 13.4117 53.3333 26.6665C53.3333 39.9213 42.5882 50.6665 29.3333 50.6665C16.0785 50.6665 5.33333 39.9213 5.33333 26.6665ZM26.5562 10.5177C26.7289 11.6087 25.9846 12.6331 24.8936 12.8059C20.0442 13.574 16.2408 17.3774 15.4728 22.2268C15.3 23.3178 14.2755 24.0621 13.1845 23.8893C12.0936 23.7165 11.3492 22.6921 11.522 21.6011C12.5612 15.0401 17.7069 9.89435 24.2679 8.85519C25.3589 8.6824 26.3834 9.42673 26.5562 10.5177Z" fill="white"/>
<path d="M49.2525 46.5856C50.0335 45.8046 51.2998 45.8046 52.0809 46.5856L62.7473 57.2522C63.5283 58.0332 63.5283 59.2995 62.7473 60.0806C61.9662 60.8616 60.6999 60.8616 59.9188 60.0806L49.2524 49.414C48.4714 48.633 48.4714 47.3667 49.2525 46.5856Z" fill="white"/>
</svg>
