<svg width="24" height="24" viewBox="0 0 24 24" fill="none" xmlns="http://www.w3.org/2000/svg">
<path d="M11.9992 1C11.8631 1.00016 11.7284 1.02813 11.6034 1.08219C11.4784 1.13624 11.3658 1.21525 11.2725 1.31436C11.1791 1.41348 11.107 1.53061 11.0605 1.65858C11.014 1.78655 10.9942 1.92267 11.0021 2.05859C6.50752 2.55673 2.99921 6.37479 2.99921 11V11.5H2.24921C2.14982 11.4986 2.05115 11.517 1.95893 11.554C1.8667 11.5911 1.78276 11.6461 1.71198 11.7159C1.6412 11.7857 1.585 11.8688 1.54664 11.9605C1.50828 12.0522 1.48853 12.1506 1.48853 12.25C1.48853 12.3494 1.50828 12.4478 1.54664 12.5395C1.585 12.6312 1.6412 12.7143 1.71198 12.7841C1.78276 12.8539 1.8667 12.9089 1.95893 12.946C2.05115 12.983 2.14982 13.0014 2.24921 13H4.61444C4.53229 13.2514 4.49352 13.5124 4.49921 13.7666C4.51055 14.2658 4.70076 14.6287 4.82245 14.9004C5.14496 15.6199 5.19203 16.1656 5.28925 16.7598C5.36328 17.2123 5.50914 17.7452 5.86737 18.2021L5.19452 20.1064C5.05652 20.4969 5.26203 20.926 5.65253 21.0635C6.04203 21.202 10.6234 22.8195 11.0139 22.957C11.0964 22.986 11.1809 23 11.2639 23C11.5729 23 11.8629 22.8075 11.9719 22.5L12.7834 20.2021C12.8962 19.9624 13.3869 19.3523 13.9621 18.8018C14.5443 18.2446 15.2158 17.6952 15.6848 17.3603C17.3971 16.1373 19.0137 15.2232 19.0197 15.2197L19.0246 15.2178L19.0285 15.2148C19.7917 14.7568 20.146 13.8456 19.9279 13H21.7492C21.8486 13.0014 21.9473 12.983 22.0395 12.946C22.1317 12.9089 22.2157 12.8539 22.2864 12.7841C22.3572 12.7143 22.4134 12.6312 22.4518 12.5395C22.4901 12.4478 22.5099 12.3494 22.5099 12.25C22.5099 12.1506 22.4901 12.0522 22.4518 11.9605C22.4134 11.8688 22.3572 11.7857 22.2864 11.7159C22.2157 11.6461 22.1317 11.5911 22.0395 11.554C21.9473 11.517 21.8486 11.4986 21.7492 11.5H20.9992V11C20.9992 6.37479 17.4909 2.55673 12.9963 2.05859C13.0043 1.92267 12.9844 1.78655 12.9379 1.65858C12.8914 1.53061 12.8193 1.41348 12.7259 1.31436C12.6326 1.21525 12.52 1.13624 12.395 1.08219C12.27 1.02813 12.1354 1.00016 11.9992 1ZM6.67108 13H6.7746C6.95456 13.0168 7.12445 13.1016 7.25409 13.2393C7.27678 13.2768 7.30304 13.3205 7.33905 13.3799C7.42569 13.5228 7.54491 13.7179 7.68573 13.9346C7.96737 14.3679 8.3188 14.8801 8.71893 15.2803C9.40561 15.9669 10.2772 16 10.7492 16C11.5169 16 12.1924 15.6459 13.051 15.2363C13.9095 14.8268 14.8398 14.3218 15.6047 13.9102C15.8113 13.799 16.2098 13.5722 16.6828 13.3652C17.1558 13.1583 17.6979 13 17.9885 13C18.1986 13 18.3891 13.1217 18.466 13.3203C18.5548 13.5516 18.4689 13.8009 18.256 13.9287C18.2427 13.9364 16.5973 14.8656 14.8137 16.1396C14.2686 16.5288 13.566 17.1042 12.925 17.7178C12.482 18.1418 12.078 18.5579 11.7668 18.9961L7.11542 17.3525C6.88002 17.1446 6.84401 16.9777 6.76874 16.5176C6.6852 16.007 6.6106 15.2241 6.19061 14.2871H6.19159C6.06826 14.0118 6.00086 13.8062 5.99921 13.7334C5.99383 13.4933 6.06057 13.3233 6.21503 13.1895C6.35738 13.0662 6.51571 13.0085 6.67108 13ZM8.8703 13H14.1262C13.5518 13.3067 12.9597 13.6184 12.4055 13.8828C11.6 14.267 10.7925 14.5 10.7492 14.5C10.2772 14.5 10.0928 14.533 9.77948 14.2197C9.53861 13.9789 9.20041 13.5124 8.94354 13.1172C8.91431 13.0722 8.89762 13.0429 8.8703 13ZM10.2492 20C10.6632 20 10.9992 20.336 10.9992 20.75C10.9992 21.164 10.6632 21.5 10.2492 21.5C9.83521 21.5 9.49921 21.164 9.49921 20.75C9.49921 20.336 9.83521 20 10.2492 20Z" fill="#FFFFFF"/>
</svg>
