<?xml version="1.0" encoding="UTF-8"?>
<svg width="60px" height="60px" viewBox="0 0 60 60" version="1.1" xmlns="http://www.w3.org/2000/svg" xmlns:xlink="http://www.w3.org/1999/xlink">
    <title>Group 37</title>
    <defs>
        <linearGradient x1="23.3285664%" y1="6.61462228%" x2="81.0737919%" y2="103.452314%" id="linearGradient-1">
            <stop stop-color="#33BEF0" offset="0%"></stop>
            <stop stop-color="#0A85D9" offset="100%"></stop>
        </linearGradient>
        <radialGradient cx="50%" cy="50%" fx="50%" fy="50%" r="50%" id="radialGradient-2">
            <stop stop-color="#000000" offset="0%"></stop>
            <stop stop-color="#000000" stop-opacity="0" offset="100%"></stop>
        </radialGradient>
    </defs>
    <g id="Website" stroke="none" stroke-width="1" fill="none" fill-rule="evenodd">
        <g id="Group-37">
            <circle id="Oval-Copy-3" fill="#FFFFFF" cx="30" cy="30" r="30"></circle>
            <g id="icons8-chat_bubble" transform="translate(14.000000, 14.000000)" fill-rule="nonzero">
                <path d="M15.2380919,0 C23.6540901,0 30.4761839,6.78337327 30.4761839,15.1516044 C30.4761839,17.9069236 29.7249459,20.4826964 28.4327557,22.708467 L31.9100883,30.57518 C32.295612,31.4471549 31.3683741,32.3176145 30.515041,31.8857938 L23.0834236,28.1228929 C20.7893288,29.497901 18.1112342,30.3032087 15.2380919,30.3032087 C6.82209376,30.3032087 0,23.5198355 0,15.1516044 C0,6.78337327 6.82209376,0 15.2380919,0 Z" id="Path" fill="url(#linearGradient-1)"></path>
                <circle id="Oval" fill="url(#radialGradient-2)" opacity="0.3" cx="15.5" cy="15.5" r="2.5"></circle>
                <circle id="Oval" fill="#FFFFFF" cx="15.5" cy="15.5" r="1.5"></circle>
                <circle id="Oval" fill="url(#radialGradient-2)" opacity="0.3" cx="21.5" cy="15.5" r="2.5"></circle>
                <circle id="Oval" fill="#FFFFFF" cx="21.5" cy="15.5" r="1.5"></circle>
                <circle id="Oval" fill="url(#radialGradient-2)" opacity="0.3" cx="9.5" cy="15.5" r="2.5"></circle>
                <circle id="Oval" fill="#FFFFFF" cx="9.5" cy="15.5" r="1.5"></circle>
            </g>
        </g>
    </g>
</svg>