<svg width="64" height="64" viewBox="0 0 64 64" fill="none" xmlns="http://www.w3.org/2000/svg">
<path d="M39.2275 20.3878C38.8731 19.3416 37.7378 18.7808 36.6916 19.1351C35.6454 19.4895 35.0846 20.6249 35.439 21.6711C36.5886 25.0648 39.8491 27.2898 43.4465 27.2898C44.5511 27.2898 45.4465 26.3943 45.4465 25.2898C45.4465 24.1852 44.5511 23.2898 43.4465 23.2898C41.4745 23.2898 39.799 22.0748 39.2275 20.3878Z" fill="#FFC453"/>
<path fill-rule="evenodd" clip-rule="evenodd" d="M43.1049 11.4016C39.6095 0.643921 24.3903 0.643921 20.8949 11.4016C19.8673 14.5645 16.9198 16.7059 13.5942 16.7059C2.28291 16.7059 -2.42009 31.1802 6.73092 37.8288C9.42143 39.7836 10.5472 43.2485 9.51956 46.4114C6.02419 57.169 18.3368 66.1147 27.4878 59.4661C30.1783 57.5113 33.8215 57.5113 36.512 59.4661C45.6631 66.1147 57.9757 57.169 54.4803 46.4114C53.4526 43.2485 54.5784 39.7836 57.2689 37.8288C66.4199 31.1802 61.7169 16.7059 50.4057 16.7059C47.08 16.7059 44.1326 14.5645 43.1049 11.4016ZM24.6992 12.6377C26.9971 5.56523 37.0027 5.56523 39.3007 12.6377C40.8639 17.4486 45.3471 20.7059 50.4057 20.7059C57.8421 20.7059 60.9339 30.2218 54.9178 34.5928C50.8253 37.5661 49.1129 42.8365 50.6761 47.6475C52.974 54.7199 44.8793 60.601 38.8632 56.23C34.7707 53.2567 29.2291 53.2567 25.1367 56.23C19.1205 60.601 11.0258 54.7199 13.3238 47.6475C14.887 42.8365 13.1745 37.5661 9.08206 34.5928C3.06591 30.2218 6.1578 20.7059 13.5942 20.7059C18.6527 20.7059 23.136 17.4486 24.6992 12.6377Z" fill="#FFC453"/>
</svg>
