<svg width="200" height="120" viewBox="0 0 200 120" fill="none" xmlns="http://www.w3.org/2000/svg">
<g clip-path="url(#clip0_1765_5490)">
<path d="M183.872 65.9384C188.824 65.9384 192.838 61.9241 192.838 56.9721C192.838 52.0202 188.824 48.0059 183.872 48.0059C178.92 48.0059 174.905 52.0202 174.905 56.9721C174.905 61.9241 178.92 65.9384 183.872 65.9384Z" fill="#F2F2F2"/>
<path d="M183.872 59.3314C185.175 59.3314 186.231 58.275 186.231 56.9719C186.231 55.6687 185.175 54.6123 183.872 54.6123C182.569 54.6123 181.512 55.6687 181.512 56.9719C181.512 58.275 182.569 59.3314 183.872 59.3314Z" fill="#E6E6E6"/>
<path d="M183.441 57.022C184.435 57.8328 184.737 59.1108 184.552 60.3447C184.325 61.6982 183.623 62.9264 182.572 63.8088C181.39 64.8593 179.948 65.5692 178.557 66.2961C177.279 66.9484 176.051 67.6941 174.882 68.527C170.408 71.7787 167.028 76.4086 165.094 81.5753C163.163 86.7332 162.645 92.5877 164.112 97.9334C164.838 100.578 166.307 103.432 169.043 104.427C171.224 105.22 174.202 104.709 175.313 102.461C176.506 100.047 174.841 97.3325 172.697 96.1337C169.918 94.5798 166.598 95.7153 164.099 97.2882C161.347 99.0199 159.135 101.505 156.261 103.057C154.968 103.778 153.529 104.197 152.051 104.285C150.694 104.339 149.339 104.129 148.061 103.669C145.41 102.703 143.128 100.931 141.534 98.6025C139.71 95.9497 138.893 92.6978 138.744 89.5123C138.41 82.385 141.226 75.7172 143.485 69.1075C144.699 65.6656 145.608 62.1237 146.203 58.5227C146.768 54.9034 146.969 51.2365 146.803 47.5771C146.654 44.3413 146.335 40.9576 144.907 38.0023C143.651 35.4037 141.356 33.2768 138.454 32.7406C137.146 32.4839 135.791 32.6396 134.575 33.1862C134.161 33.375 134.521 33.9853 134.932 33.7974C137.5 32.626 140.535 33.7658 142.432 35.6572C144.647 37.8658 145.46 41.1275 145.821 44.1371C146.633 51.2695 145.993 58.4925 143.941 65.3714C141.972 72.0612 138.874 78.4718 138.159 85.4808C137.833 88.6791 138 91.9854 139.023 95.0523C139.9 97.7841 141.544 100.206 143.76 102.028C145.846 103.715 148.413 104.864 151.115 104.992C154.148 105.136 156.808 103.784 159.161 101.985C161.681 100.059 164 97.6816 167.053 96.6014C168.445 96.1089 170.03 95.8792 171.459 96.3532C172.685 96.772 173.725 97.6081 174.397 98.7155C175.018 99.7476 175.247 101.038 174.68 102.147C174.148 103.189 173.109 103.792 171.983 103.998C170.792 104.209 169.564 104 168.509 103.408C167.276 102.704 166.375 101.522 165.743 100.274C164.483 97.785 164.059 94.8219 163.995 92.059C163.939 89.3602 164.284 86.6681 165.021 84.0712C166.486 78.8179 169.444 74.1026 173.536 70.497C174.567 69.5989 175.67 68.7869 176.834 68.0692C178.103 67.2868 179.458 66.6616 180.752 65.9233C182.026 65.1969 183.281 64.3289 184.157 63.1335C184.905 62.109 185.309 60.8741 185.311 59.6059C185.324 59.0226 185.208 58.4435 184.971 57.9103C184.735 57.377 184.383 56.9028 183.941 56.5214C183.591 56.2358 183.087 56.7337 183.441 57.022V57.022Z" fill="#CCCCCC"/>
<path d="M99.7349 98.2637C102.87 100.29 106.497 101.427 110.228 101.553C110.161 101.711 110.086 101.865 110.004 102.015C109.569 102.817 108.956 103.508 108.21 104.033C107.328 104.654 106.292 105.021 105.215 105.093C104.139 105.166 103.063 104.941 102.105 104.444C101.148 103.947 100.345 103.196 99.7845 102.274C99.2242 101.352 98.9279 100.294 98.928 99.2146V98.2637H99.7349Z" fill="#3F3D56"/>
<path d="M121.742 98.542V99.2145C121.743 100.524 121.307 101.796 120.504 102.83C119.701 103.864 118.576 104.6 117.308 104.924C116.039 105.247 114.699 105.139 113.499 104.615C112.299 104.092 111.307 103.184 110.681 102.034C110.595 101.88 110.517 101.722 110.447 101.56C110.62 101.565 110.789 101.567 110.962 101.567C114.765 101.571 118.496 100.525 121.742 98.542Z" fill="#3F3D56"/>
<path d="M129.68 27.4302C129.503 27.4043 129.324 27.3878 129.144 27.376C131.182 32.0722 131.323 37.3747 129.538 42.1727C129.718 42.1515 129.895 42.1232 130.072 42.0901C131.8 41.7553 133.353 40.8181 134.454 39.4455C135.556 38.0728 136.135 36.3537 136.088 34.5942C136.041 32.8347 135.371 31.1489 134.198 29.8371C133.024 28.5252 131.423 27.6723 129.68 27.4302Z" fill="#3F3D56"/>
<path d="M92.779 27.376C92.5998 27.3878 92.4204 27.4043 92.2434 27.4302C90.5 27.6723 88.899 28.5252 87.7255 29.8371C86.5521 31.1489 85.8822 32.8347 85.8352 34.5942C85.7882 36.3537 86.3671 38.0728 87.4688 39.4455C88.5706 40.8181 90.1237 41.7553 91.8517 42.0901C92.0286 42.1232 92.2056 42.1515 92.385 42.1727C90.6001 37.3747 90.7413 32.0722 92.779 27.376Z" fill="#3F3D56"/>
<path d="M129.68 27.4307C127.736 22.787 124.135 19.0318 119.578 16.8944C115.02 14.757 109.83 14.3902 105.017 15.8651C100.204 17.34 96.1109 20.5514 93.5331 24.8754C90.9554 29.1994 90.0769 34.3272 91.0685 39.2627C92.06 44.1981 94.8507 48.5888 98.8985 51.5817C102.946 54.5746 107.962 55.9561 112.971 55.4576C117.981 54.9592 122.626 52.6166 126.005 48.8847C129.383 45.1529 131.254 40.2984 131.254 35.2644C131.253 32.5747 130.718 29.912 129.68 27.4307ZM129.538 42.1731C127.812 46.8129 124.412 50.6386 120.007 52.8972C115.602 55.1558 110.511 55.6837 105.736 54.3771C100.961 53.0704 96.848 50.0238 94.2066 45.8369C91.5653 41.65 90.5868 36.6261 91.4637 31.7539C92.3406 26.8818 95.0094 22.5143 98.9449 19.5111C102.88 16.508 107.797 15.0866 112.728 15.5269C117.659 15.9671 122.247 18.237 125.588 21.8899C128.929 25.5427 130.782 30.3139 130.782 35.2644C130.781 37.6229 130.36 39.9624 129.538 42.1731V42.1731Z" fill="#3F3D56"/>
<path d="M121.344 30.6631H100.58C99.4845 30.6631 98.4342 31.0981 97.6599 31.8725C96.8855 32.6469 96.4504 33.6972 96.4504 34.7923C96.4504 35.8874 96.8855 36.9377 97.6599 37.7121C98.4342 38.4865 99.4845 38.9215 100.58 38.9215H121.344C122.439 38.9215 123.489 38.4865 124.263 37.7121C125.038 36.9377 125.473 35.8874 125.473 34.7923C125.473 33.6972 125.038 32.6469 124.263 31.8725C123.489 31.0981 122.439 30.6631 121.344 30.6631Z" fill="#3F3D56"/>
<path d="M110.962 59.5674C105.414 59.5699 100.088 61.743 96.1226 65.622C92.157 69.5009 89.8667 74.7776 89.7415 80.3234C89.6163 85.8693 91.6663 91.244 95.4529 95.2978C99.2395 99.3517 104.462 101.763 110.004 102.016C110.228 102.027 110.454 102.035 110.681 102.035C110.775 102.039 110.867 102.039 110.962 102.039C116.594 102.039 121.995 99.8019 125.978 95.8194C129.96 91.8369 132.198 86.4354 132.198 80.8033C132.198 75.1712 129.96 69.7698 125.978 65.7872C121.995 61.8047 116.594 59.5674 110.962 59.5674ZM121.742 98.5424C118.496 100.525 114.765 101.572 110.962 101.567C110.789 101.567 110.619 101.565 110.447 101.56C110.374 101.56 110.301 101.558 110.228 101.553C105.242 101.38 100.484 99.4181 96.8255 96.0264C93.1665 92.6346 90.8503 88.0395 90.3001 83.0808C89.7499 78.1221 91.0025 73.1309 93.8289 69.0196C96.6554 64.9083 100.867 61.9514 105.694 60.6893C110.521 59.4272 115.64 59.9442 120.118 62.1458C124.595 64.3474 128.13 68.0866 130.077 72.6799C132.025 77.2733 132.254 82.4141 130.724 87.1627C129.194 91.9113 126.005 95.9506 121.742 98.5424Z" fill="#3F3D56"/>
<path d="M125.866 75.5728H116.585C115.939 75.5728 115.318 75.3159 114.861 74.8586C114.404 74.4014 114.147 73.7812 114.147 73.1345C114.147 72.4879 114.404 71.8677 114.861 71.4104C115.318 70.9532 115.939 70.6963 116.585 70.6963H125.866C126.513 70.6963 127.133 70.9532 127.59 71.4104C128.047 71.8677 128.304 72.4879 128.304 73.1345C128.304 73.7812 128.047 74.4014 127.59 74.8586C127.133 75.3159 126.513 75.5728 125.866 75.5728Z" fill="#3F3D56"/>
<path d="M117.204 74.3724C117.887 74.3724 118.441 73.8183 118.441 73.1349C118.441 72.4515 117.887 71.8975 117.204 71.8975C116.521 71.8975 115.967 72.4515 115.967 73.1349C115.967 73.8183 116.521 74.3724 117.204 74.3724Z" fill="#F2F2F2"/>
<path d="M121.226 74.3724C121.909 74.3724 122.463 73.8183 122.463 73.1349C122.463 72.4515 121.909 71.8975 121.226 71.8975C120.542 71.8975 119.988 72.4515 119.988 73.1349C119.988 73.8183 120.542 74.3724 121.226 74.3724Z" fill="#F2F2F2"/>
<path d="M125.247 74.3724C125.931 74.3724 126.485 73.8183 126.485 73.1349C126.485 72.4515 125.931 71.8975 125.247 71.8975C124.564 71.8975 124.01 72.4515 124.01 73.1349C124.01 73.8183 124.564 74.3724 125.247 74.3724Z" fill="#0050FF"/>
<path d="M38.8442 104.49C40.966 102.697 42.2548 99.8645 41.9168 97.1072C41.5788 94.35 39.4854 91.8152 36.7699 91.2297C34.0544 90.6441 30.9589 92.265 30.1341 94.9176C29.6802 89.8034 29.1571 84.4749 26.4381 80.1197C23.976 76.1761 19.7118 73.3544 15.0903 72.8496C10.4688 72.3448 5.60293 74.2514 2.72067 77.8991C-0.161593 81.5468 -0.867304 86.8498 1.15136 91.0376C2.63843 94.1227 5.37815 96.4186 8.2487 98.2864C17.4067 104.246 28.7672 106.259 39.577 104.668L38.8442 104.49Z" fill="#F2F2F2"/>
<path d="M7.29068 74.357C11.104 77.463 14.6023 80.9368 17.735 84.7282C20.8682 88.5157 23.6267 92.5982 25.9716 96.9183C27.2823 99.3417 28.4598 101.835 29.4987 104.387C29.7105 104.906 28.8676 105.132 28.6582 104.618C26.818 100.12 24.5413 95.812 21.8608 91.7574C19.1934 87.7175 16.1403 83.9459 12.7445 80.4956C10.8239 78.545 8.7974 76.7015 6.67431 74.9734C6.23914 74.6191 6.8591 74.0056 7.29068 74.357Z" fill="white"/>
<path d="M38.1247 29.9993C42.1644 29.9993 45.4393 26.7245 45.4393 22.6847C45.4393 18.645 42.1644 15.3701 38.1247 15.3701C34.0849 15.3701 30.8101 18.645 30.8101 22.6847C30.8101 26.7245 34.0849 29.9993 38.1247 29.9993Z" fill="#2F2E41"/>
<path d="M65.4052 49.469C65.265 49.6798 65.0941 49.8685 64.8982 50.0289C64.616 50.2615 64.2878 50.4319 63.9352 50.5289C63.5825 50.6259 63.2133 50.6473 62.8518 50.5917C62.4903 50.536 62.1447 50.4046 61.8375 50.2061C61.5303 50.0075 61.2686 49.7463 61.0694 49.4395C61.0233 49.3681 60.9809 49.2942 60.9426 49.2183L49.4163 48.1062C48.5066 48.015 47.6506 47.6328 46.9753 47.0165C46.3 46.4002 45.8414 45.5825 45.6677 44.6849L45.0134 41.2359L49.5118 40.5361L50.319 43.2988L61.557 46.0593C61.6441 45.9829 61.7364 45.9127 61.8332 45.8493C62.3345 45.5239 62.9327 45.3815 63.5268 45.4461C64.1209 45.5106 64.6746 45.7781 65.0943 46.2035C65.5141 46.6289 65.7743 47.186 65.8309 47.7809C65.8875 48.3759 65.7372 48.9721 65.4052 49.469L65.4052 49.469Z" fill="#FFB8B8"/>
<path d="M50.5953 42.8815L45.5704 44.2389C45.2986 44.312 45.0088 44.2743 44.7648 44.1341C44.5207 43.9938 44.3422 43.7625 44.2685 43.4908L42.5085 36.9756C42.3199 36.2778 42.3965 35.5348 42.7233 34.89C43.0501 34.2452 43.6041 33.7442 44.2784 33.4837C44.9527 33.2232 45.6996 33.2215 46.3751 33.4791C47.0505 33.7367 47.6067 34.2352 47.9364 34.8785L51.2634 41.3723C51.3356 41.5131 51.3754 41.6682 51.3799 41.8263C51.3844 41.9845 51.3535 42.1416 51.2894 42.2863C51.2254 42.4309 51.1298 42.5595 51.0097 42.6625C50.8896 42.7654 50.7481 42.8403 50.5953 42.8815Z" fill="#2F2E41"/>
<path d="M47.6845 102.706H50.5771L51.9534 91.5479L47.6838 91.5481L47.6845 102.706Z" fill="#FFB8B8"/>
<path d="M56.1562 105.391L47.0647 105.391L47.0646 101.878L52.6435 101.878C53.5751 101.878 54.4685 102.248 55.1273 102.907C55.7861 103.566 56.1562 104.459 56.1562 105.391Z" fill="#2F2E41"/>
<path d="M21.9019 99.8857L24.6083 100.907L29.8375 90.9553L25.8432 89.4473L21.9019 99.8857Z" fill="#FFB8B8"/>
<path d="M28.8787 105.392L20.3732 102.18L21.614 98.894L26.8333 100.865C27.7048 101.194 28.4099 101.856 28.7935 102.704C29.1771 103.553 29.2077 104.52 28.8787 105.392L28.8787 105.392Z" fill="#2F2E41"/>
<path d="M47.5933 100.113C47.3691 100.113 47.1507 100.042 46.9694 99.9098C46.7882 99.7778 46.6534 99.5917 46.5845 99.3783L39.2065 76.5935C39.1846 76.5259 39.1429 76.4665 39.0869 76.423C39.0308 76.3794 38.963 76.3537 38.8921 76.3492C38.8213 76.3447 38.7507 76.3617 38.6896 76.3978C38.6285 76.4339 38.5796 76.4875 38.5494 76.5518L28.3244 98.3071C28.2136 98.5423 28.0205 98.7287 27.7816 98.8312C27.5426 98.9336 27.2744 98.9449 27.0277 98.8629L23.0007 97.5204C22.7449 97.4346 22.5313 97.2549 22.4031 97.0175C22.2748 96.7802 22.2415 96.503 22.3099 96.242L28.5732 72.5175C29.2286 70.0044 29.702 67.4474 29.9897 64.8662C30.429 60.6158 32.4217 56.6772 35.5858 53.8054C36.9674 52.5396 37.8655 50.8326 38.1261 48.9771L38.143 48.8584L47.3154 50.3066L53.1255 97.7167C53.1555 97.9704 53.0935 98.2264 52.9507 98.4382C52.808 98.65 52.5939 98.8036 52.3476 98.8709L47.8706 100.076C47.7802 100.101 47.687 100.113 47.5933 100.113Z" fill="#2F2E41"/>
<path d="M41.0306 29.9646C44.2313 29.9646 46.8259 27.37 46.8259 24.1693C46.8259 20.9687 44.2313 18.374 41.0306 18.374C37.83 18.374 35.2354 20.9687 35.2354 24.1693C35.2354 27.37 37.83 29.9646 41.0306 29.9646Z" fill="#FFB8B8"/>
<path d="M46.7453 51.3179C46.7271 51.3179 46.709 51.3174 46.6907 51.3165L37.5979 50.8618C37.3441 50.8504 37.103 50.7478 36.9187 50.5729C36.7344 50.398 36.6194 50.1626 36.5947 49.9097L35.3525 37.7986C35.2616 36.9117 35.3889 36.016 35.7234 35.1896C36.0579 34.3631 36.5894 33.631 37.2717 33.0571C37.9539 32.4831 38.7662 32.0847 39.6377 31.8966C40.5091 31.7084 41.4134 31.7362 42.2717 31.9776H42.2717C42.9828 32.1724 43.6454 32.5132 44.2173 32.9785C50.6136 38.2313 48.5512 47.7488 47.7667 50.5406C47.7052 50.7643 47.572 50.9615 47.3874 51.1019C47.2028 51.2424 46.9772 51.3182 46.7453 51.3179Z" fill="#0050FF"/>
<path d="M38.8348 59.4501C38.5817 59.4502 38.3299 59.4124 38.0879 59.3381C37.7379 59.2321 37.4142 59.0532 37.1381 58.8133C36.862 58.5735 36.6397 58.2779 36.4858 57.9461C36.3318 57.6143 36.2498 57.2538 36.2449 56.8881C36.2401 56.5223 36.3126 56.1597 36.4576 55.8239C36.4916 55.7459 36.5296 55.6698 36.5716 55.5958L31.1128 45.3834C30.6848 44.5755 30.5288 43.6511 30.6679 42.7475C30.8069 41.8438 31.2337 41.0092 31.8847 40.3673L34.3938 37.9121L37.4682 41.2696L35.6153 43.472L39.5421 54.3575C39.6539 54.3877 39.7634 54.4256 39.8699 54.4711C40.4184 54.7083 40.8683 55.1274 41.1437 55.6578C41.4191 56.1882 41.503 56.7973 41.3814 57.3824C41.2598 57.9675 40.94 58.4928 40.4761 58.8695C40.0121 59.2462 39.4324 59.4513 38.8348 59.4501L38.8348 59.4501Z" fill="#FFB8B8"/>
<path d="M36.1156 43.4717L32.2021 40.0401C31.9906 39.8542 31.8615 39.5921 31.8431 39.3112C31.8247 39.0303 31.9184 38.7536 32.1038 38.5417L36.5532 33.4675C37.0298 32.9239 37.6907 32.5761 38.4086 32.491C39.1264 32.406 39.8504 32.5897 40.4408 33.0068C41.0312 33.4239 41.4463 34.0448 41.606 34.7498C41.7658 35.4549 41.6588 36.194 41.3058 36.8249L37.7423 43.192C37.665 43.33 37.5579 43.4491 37.4287 43.5404C37.2996 43.6317 37.1516 43.6931 36.9957 43.7199C36.8398 43.7467 36.6798 43.7383 36.5276 43.6954C36.3753 43.6525 36.2346 43.576 36.1156 43.4717V43.4717Z" fill="#2F2E41"/>
<path d="M37.3012 29.7988C37.83 29.9863 38.4782 30.1516 38.8943 29.7627C39.3005 29.3831 39.2265 28.6889 38.9872 28.1775C38.7479 27.666 38.3768 27.2109 38.263 26.6543C38.0999 25.8565 38.5216 25.0276 39.1235 24.5075C39.7254 23.9874 40.483 23.7142 41.2226 23.4512L45.2794 22.0091C46.2836 21.6522 47.3657 21.2329 47.9276 20.2935C48.7407 18.9342 47.9974 16.9913 46.6637 16.1981C45.3299 15.405 43.6453 15.5527 42.2063 16.1104C41.4104 16.4189 40.6534 16.8439 39.8303 17.0611C38.2059 17.4896 36.359 17.1052 34.9315 18.0211C33.689 18.8183 33.1126 20.4451 33.1545 21.9672C33.1963 23.4894 33.7568 24.939 34.3479 26.331C34.6996 27.1592 35.0753 27.9969 35.671 28.6557C36.2667 29.3144 37.1275 29.7752 37.9874 29.654L37.3012 29.7988Z" fill="#2F2E41"/>
<path d="M31.9898 23.865C34.5961 23.865 36.7089 21.7521 36.7089 19.1459C36.7089 16.5396 34.5961 14.4268 31.9898 14.4268C29.3836 14.4268 27.2708 16.5396 27.2708 19.1459C27.2708 21.7521 29.3836 23.865 31.9898 23.865Z" fill="#2F2E41"/>
<path d="M70.2645 46.3872L70.1808 46.3757L70.4961 44.0816C70.5445 43.7295 70.4511 43.3725 70.2363 43.0892C70.0215 42.806 69.703 42.6197 69.3508 42.5713L64.4903 41.9031C64.1381 41.8547 63.7811 41.9482 63.4979 42.163C63.2147 42.3777 63.0283 42.6962 62.9799 43.0484L61.2498 55.6344C61.2014 55.9865 61.2949 56.3435 61.5096 56.6267C61.7244 56.91 62.0429 57.0963 62.3951 57.1447L67.2557 57.8129C67.6078 57.8613 67.9648 57.7678 68.248 57.553C68.5313 57.3382 68.7176 57.0197 68.766 56.6676L69.9563 48.0087L70.04 48.0203L70.2645 46.3872Z" fill="#3F3D56"/>
<path d="M69.198 43.244L68.5929 43.1608C68.6113 43.2329 68.6118 43.3084 68.5942 43.3807C68.5766 43.4529 68.5415 43.5198 68.492 43.5753C68.4425 43.6308 68.3801 43.6733 68.3103 43.699C68.2405 43.7247 68.1654 43.7328 68.0917 43.7227L65.4357 43.3576C65.362 43.3474 65.2919 43.3193 65.2317 43.2758C65.1714 43.2322 65.1228 43.1744 65.0901 43.1076C65.0574 43.0408 65.0416 42.967 65.0442 42.8926C65.0467 42.8183 65.0675 42.7457 65.1047 42.6813L64.5395 42.6036C64.4153 42.5865 64.2889 42.5941 64.1676 42.6259C64.0464 42.6576 63.9325 42.713 63.8326 42.7887C63.7327 42.8645 63.6487 42.9592 63.5854 43.0674C63.5221 43.1756 63.4807 43.2952 63.4637 43.4194L61.8158 55.4069C61.7813 55.6578 61.8479 55.9121 62.0009 56.1138C62.1539 56.3156 62.3807 56.4483 62.6316 56.4828L67.2901 57.1232C67.541 57.1577 67.7952 57.0911 67.997 56.9381C68.1988 56.7851 68.3315 56.5582 68.366 56.3074L70.0138 44.3198C70.0483 44.069 69.9817 43.8147 69.8287 43.6129C69.6757 43.4112 69.4489 43.2785 69.198 43.244V43.244Z" fill="white"/>
<path d="M65.8943 53.1969C67.3278 53.1969 68.4898 52.0348 68.4898 50.6014C68.4898 49.1679 67.3278 48.0059 65.8943 48.0059C64.4609 48.0059 63.2988 49.1679 63.2988 50.6014C63.2988 52.0348 64.4609 53.1969 65.8943 53.1969Z" fill="#0050FF"/>
<path d="M65.637 51.5912C65.5786 51.5913 65.5218 51.5724 65.475 51.5374L65.4721 51.5352L64.8622 51.0682C64.8338 51.0466 64.8099 51.0196 64.7919 50.9888C64.774 50.9579 64.7623 50.9239 64.7575 50.8885C64.7528 50.8531 64.7551 50.8172 64.7642 50.7827C64.7734 50.7482 64.7893 50.7159 64.811 50.6876C64.8327 50.6593 64.8598 50.6355 64.8907 50.6177C64.9216 50.5999 64.9557 50.5883 64.9911 50.5837C65.0265 50.5791 65.0624 50.5815 65.0969 50.5908C65.1313 50.6001 65.1636 50.6161 65.1918 50.638L65.5869 50.9409L66.5205 49.7233C66.5422 49.695 66.5692 49.6713 66.6 49.6535C66.6308 49.6357 66.6648 49.6242 66.7001 49.6195C66.7354 49.6149 66.7713 49.6172 66.8056 49.6264C66.84 49.6356 66.8722 49.6515 66.9005 49.6731L66.8947 49.681L66.9006 49.6732C66.9576 49.717 66.9949 49.7816 67.0043 49.8529C67.0137 49.9241 66.9944 49.9961 66.9508 50.0532L65.8526 51.4854C65.8272 51.5184 65.7945 51.5451 65.7571 51.5635C65.7198 51.5818 65.6786 51.5913 65.637 51.5912Z" fill="white"/>
<path d="M199.719 105.574H1.68346C1.60908 105.573 1.53783 105.544 1.48532 105.491C1.43281 105.438 1.40332 105.367 1.40332 105.293C1.40332 105.218 1.43281 105.147 1.48532 105.094C1.53783 105.042 1.60908 105.012 1.68346 105.012H199.719C199.793 105.012 199.865 105.041 199.918 105.094C199.97 105.147 200 105.218 200 105.293C200 105.367 199.97 105.439 199.918 105.491C199.865 105.544 199.793 105.574 199.719 105.574Z" fill="#CCCCCC"/>
</g>
<defs>
<clipPath id="clip0_1765_5490">
<rect width="200" height="91.1465" fill="white" transform="translate(0 14.4268)"/>
</clipPath>
</defs>
</svg>
