<svg width="200" height="120" viewBox="0 0 200 120" fill="none" xmlns="http://www.w3.org/2000/svg">
<path d="M75.1815 109.438C70.6406 109.438 66.1065 109.321 61.5792 109.087C55.1103 108.754 48.421 108.409 42.2037 103.455C37.8543 99.9895 34.0023 94.43 31.0642 87.3767C29.1004 82.596 27.6604 77.4096 26.7949 71.9996C25.1804 62.1499 25.2354 51.8874 26.9553 42.0746C27.558 38.7102 28.3889 35.4388 29.436 32.3074C33.9701 18.8187 42.2399 9.76417 52.1251 7.46556C52.2067 7.45034 52.2893 7.4478 52.3713 7.458C52.4158 7.46143 52.4601 7.46509 52.5053 7.46237L52.5634 7.43581C52.7125 7.36137 52.8657 7.3049 53.0213 7.267C68.2669 4.00642 84.3837 10.6037 99.6281 26.3452C111.415 38.5181 127.036 45.073 147.384 46.3845L147.673 46.4063C153.337 46.8737 158.817 50.2286 163.519 56.1088C168.16 61.9124 171.645 69.6556 173.596 78.5016C173.836 79.5801 174.056 80.7027 174.25 81.8381C174.43 82.8933 174.418 83.9976 174.213 85.0436C174.008 86.0896 173.619 87.0417 173.082 87.8073V87.8094L173.031 87.8842C172.909 88.0585 172.781 88.2256 172.65 88.3812L172.495 88.564C171.195 90.1028 170.168 91.3185 168.939 92.2626C168.119 92.888 167.247 93.361 166.344 93.67C161.385 95.4067 156.35 97.0168 151.377 98.4561C141.72 101.253 131.809 103.561 121.919 105.314C106.413 108.061 90.8045 109.438 75.1815 109.438ZM52.2557 7.93574C52.2253 7.93533 52.195 7.93829 52.1649 7.94459C42.3722 10.2217 34.1806 19.1874 29.6915 32.5426C28.6547 35.6429 27.832 38.8819 27.2353 42.213C25.5311 51.9388 25.4768 62.1101 27.077 71.8723C27.934 77.2306 29.36 82.3673 31.3048 87.1023C34.2142 94.0865 38.0268 99.5903 42.3305 103.019C48.4921 107.928 55.1498 108.272 61.5883 108.604C81.7258 109.638 101.889 108.377 121.887 104.834C131.771 103.081 141.676 100.775 151.327 97.9797C156.296 96.5416 161.328 94.9326 166.283 93.1969C167.165 92.8956 168.016 92.4343 168.816 91.824C170.02 90.8989 171.037 89.6949 172.325 88.1706L172.48 87.9881C172.592 87.8543 172.703 87.7112 172.809 87.5625L172.839 87.5167C173.898 85.9842 174.309 83.9623 173.969 81.9696V81.9694C173.777 80.846 173.559 79.7354 173.322 78.6681C169.335 60.5974 159.022 47.8268 147.659 46.8893L147.372 46.8676C138.077 46.2684 129.943 44.6086 122.507 41.793C113.63 38.4319 105.881 33.3724 99.4733 26.7553C84.2869 11.0741 68.2375 4.50139 53.0585 7.74651C52.9167 7.78165 52.7772 7.83361 52.6414 7.90186L52.5366 7.944C52.477 7.94783 52.4174 7.9468 52.3579 7.94093C52.3229 7.93834 52.2889 7.93574 52.2557 7.93574H52.2557Z" fill="#F0F0F0"/>
<path d="M94.6448 29.9266C102.909 29.9266 109.608 23.2273 109.608 14.9633C109.608 6.69931 102.909 0 94.6448 0C86.3808 0 79.6815 6.69931 79.6815 14.9633C79.6815 23.2273 86.3808 29.9266 94.6448 29.9266Z" fill="#F0F0F0"/>
<path d="M83.4229 120C91.6869 120 98.3862 113.301 98.3862 105.037C98.3862 96.7726 91.6869 90.0733 83.4229 90.0733C75.1589 90.0733 68.4596 96.7726 68.4596 105.037C68.4596 113.301 75.1589 120 83.4229 120Z" fill="#F0F0F0"/>
<path d="M121.638 16.5955V50.5259C121.638 51.2307 121.36 51.907 120.864 52.408C120.368 52.909 119.695 53.1941 118.99 53.2015C118.98 53.2025 118.971 53.2029 118.961 53.2027H115.012C111.852 53.2027 108.822 51.9475 106.587 49.7132C104.353 47.4789 103.098 44.4485 103.098 41.2888V16.5955C103.098 15.8856 103.38 15.2047 103.882 14.7027C104.384 14.2007 105.065 13.9187 105.775 13.9187H107.375C106.633 16.0812 116.695 16.9917 117.247 13.9187H118.961C119.671 13.9187 120.352 14.2007 120.854 14.7027C121.356 15.2047 121.638 15.8856 121.638 16.5955Z" fill="#0050FF"/>
<path d="M109.919 11.3809C109.919 11.2879 109.956 11.1987 110.022 11.133C110.087 11.0672 110.176 11.0302 110.269 11.0301H112.655C112.748 11.0304 112.837 11.0674 112.902 11.1332C112.968 11.199 113.005 11.288 113.005 11.3809C113.005 11.4738 112.968 11.5628 112.902 11.6286C112.837 11.6943 112.748 11.7314 112.655 11.7317H110.269C110.176 11.7316 110.087 11.6946 110.022 11.6288C109.956 11.5631 109.919 11.4739 109.919 11.3809Z" fill="#3F3D56"/>
<path d="M119.781 57.5062H104.695C103.525 57.5049 102.403 57.0394 101.575 56.2118C100.748 55.3842 100.282 54.2622 100.281 53.0918V29.3731C100.198 29.3136 100.13 29.2352 100.084 29.1444C100.037 29.0537 100.013 28.9531 100.013 28.8512V26.4657C100.013 26.3638 100.037 26.2632 100.084 26.1725C100.13 26.0818 100.198 26.0034 100.281 25.944V25.3037C100.198 25.2443 100.13 25.1659 100.084 25.0752C100.037 24.9844 100.013 24.8839 100.013 24.782V22.3964C100.013 22.2944 100.037 22.1939 100.084 22.1032C100.13 22.0124 100.198 21.9341 100.281 21.8746V20.7175C100.178 20.6626 100.093 20.5809 100.034 20.4812C99.9742 20.3814 99.9429 20.2674 99.9432 20.1513V17.7659C99.9429 17.6498 99.9741 17.5358 100.034 17.436C100.093 17.3363 100.178 17.2545 100.281 17.1996V14.0289C100.282 12.8585 100.748 11.7365 101.575 10.9089C102.403 10.0813 103.525 9.61582 104.695 9.6145H119.781C120.951 9.61582 122.073 10.0813 122.901 10.9089C123.728 11.7365 124.194 12.8586 124.195 14.0289V20.9403C124.275 20.99 124.34 21.0591 124.386 21.1411C124.431 21.2232 124.455 21.3154 124.455 21.4092V25.9577C124.455 26.0515 124.431 26.1437 124.386 26.2258C124.34 26.3078 124.275 26.377 124.195 26.4267V53.0918C124.194 54.2621 123.728 55.3842 122.901 56.2118C122.073 57.0394 120.951 57.5049 119.781 57.5062ZM104.695 10.2013C103.681 10.2024 102.708 10.6061 101.99 11.3236C101.272 12.0412 100.869 13.0141 100.868 14.0289V17.6987L100.585 17.7096C100.571 17.7101 100.557 17.7163 100.546 17.7267C100.536 17.7372 100.53 17.7512 100.53 17.7659V20.1513C100.53 20.166 100.536 20.18 100.547 20.1904C100.557 20.2009 100.571 20.2071 100.585 20.2076L100.868 20.2184V22.2866L100.644 22.3416C100.632 22.3446 100.621 22.3516 100.613 22.3615C100.605 22.3714 100.601 22.3837 100.6 22.3964V24.782C100.601 24.7947 100.605 24.8069 100.613 24.8168C100.621 24.8267 100.632 24.8337 100.644 24.8367L100.868 24.8917V26.356L100.644 26.411C100.632 26.4139 100.621 26.4209 100.613 26.4308C100.605 26.4407 100.601 26.453 100.6 26.4657V28.8511C100.6 28.8639 100.605 28.8762 100.613 28.8861C100.621 28.896 100.632 28.903 100.644 28.906L100.868 28.961V53.0918C100.869 54.1066 101.272 55.0795 101.99 55.7971C102.708 56.5146 103.681 56.9183 104.695 56.9194H119.781C120.796 56.9182 121.768 56.5146 122.486 55.797C123.204 55.0795 123.607 54.1066 123.608 53.0918V25.9243H123.868V21.4427H123.608V14.0289C123.607 13.0141 123.204 12.0412 122.486 11.3237C121.768 10.6061 120.796 10.2025 119.781 10.2013L104.695 10.2013Z" fill="#3F3D56"/>
<path d="M113.988 11.7317C114.182 11.7317 114.339 11.5746 114.339 11.3809C114.339 11.1871 114.182 11.0301 113.988 11.0301C113.795 11.0301 113.638 11.1871 113.638 11.3809C113.638 11.5746 113.795 11.7317 113.988 11.7317Z" fill="#3F3D56"/>
<path d="M112.465 49.2922C113.846 49.2922 114.966 48.1725 114.966 46.7913C114.966 45.4101 113.846 44.2903 112.465 44.2903C111.083 44.2903 109.964 45.4101 109.964 46.7913C109.964 48.1725 111.083 49.2922 112.465 49.2922Z" fill="white"/>
<path d="M87.39 96.7421L80.7093 90.1465C80.3841 89.8229 79.9982 89.5666 79.5738 89.3924C79.1494 89.2182 78.6947 89.1295 78.236 89.1313H78.2125C77.7502 89.1327 77.2928 89.2257 76.8668 89.4049C76.4407 89.5842 76.0545 89.8462 75.7303 90.1758C74.2365 91.6876 73.387 93.7195 73.3602 95.8446C73.3333 97.9697 74.1314 100.022 75.5866 101.571C75.657 101.648 75.7303 101.721 75.8037 101.794C76.21 102.198 76.6585 102.557 77.1416 102.865C78.4623 103.719 80.0024 104.17 81.5748 104.165H81.6247C82.704 104.161 83.7718 103.944 84.7664 103.525C85.7611 103.106 86.6628 102.494 87.4193 101.724C88.0749 101.059 88.44 100.161 88.4345 99.227C88.429 98.2931 88.0534 97.3994 87.39 96.7421ZM87.0027 101.31C85.7623 102.56 84.1292 103.344 82.3784 103.53C80.6276 103.716 78.8662 103.292 77.391 102.331C76.969 102.052 76.575 101.733 76.2144 101.378C74.7749 99.9561 73.9591 98.0208 73.9465 95.9976C73.9338 93.9744 74.7254 92.0291 76.147 90.5895C76.4172 90.3141 76.7395 90.0953 77.0951 89.9457C77.4507 89.7961 77.8326 89.7187 78.2184 89.7181H78.236C78.618 89.7168 78.9965 89.7907 79.3499 89.9357C79.7033 90.0807 80.0246 90.2939 80.2956 90.5631L86.9763 97.1616C87.5294 97.7086 87.8428 98.4527 87.8477 99.2305C87.8527 100.008 87.5488 100.756 87.0027 101.31Z" fill="#3F3D56"/>
<path d="M65.4699 75.0952L58.7892 68.4966C58.1316 67.8442 57.2422 67.4791 56.3159 67.4815H56.2953C55.8325 67.4833 55.3745 67.5768 54.948 67.7566C54.5215 67.9364 54.1348 68.1989 53.8102 68.5289C52.5753 69.7831 51.7746 71.3998 51.5254 73.1422C51.2762 74.8846 51.5916 76.661 52.4254 78.211L52.4283 78.214C52.7723 78.848 53.1996 79.4331 53.6987 79.9538C53.7545 80.0184 53.819 80.0829 53.8836 80.1475C55.4178 81.6703 57.4931 82.5228 59.6547 82.5181H59.7076C60.787 82.5136 61.8548 82.2953 62.8494 81.8758C63.844 81.4563 64.7456 80.844 65.5022 80.0741C65.827 79.7451 66.0839 79.3553 66.258 78.927C66.4322 78.4987 66.5203 78.0403 66.5173 77.5779C66.5143 77.1156 66.4203 76.6584 66.2406 76.2323C66.0608 75.8063 65.799 75.4199 65.4699 75.0951V75.0952ZM65.0826 79.6634C64.3804 80.3778 63.5435 80.946 62.6205 81.3353C61.6974 81.7245 60.7064 81.9271 59.7046 81.9313H59.6547C58.1503 81.9308 56.6796 81.4853 55.4276 80.6511C54.1756 79.8169 53.1983 78.6311 52.6185 77.2429C52.0387 75.8546 51.8823 74.3259 52.169 72.8491C52.4557 71.3722 53.1727 70.013 54.2298 68.9426C54.7768 68.3896 55.5209 68.0762 56.2987 68.0712C57.0765 68.0663 57.8245 68.3702 58.3785 68.9162L65.0591 75.5118C65.6118 76.0597 65.9247 76.8045 65.9291 77.5827C65.9335 78.361 65.6291 79.1092 65.0826 79.6634L65.0826 79.6634Z" fill="#3F3D56"/>
<path d="M87.8171 98.8159L80.4519 91.5415C79.9689 91.0655 79.3169 90.8006 78.6388 90.8048C77.9607 90.809 77.312 91.082 76.835 91.5639C76.2383 92.1668 75.7662 92.8813 75.4458 93.6667C75.1254 94.4522 74.963 95.293 74.9678 96.1413C74.9725 96.9895 75.1445 97.8285 75.4737 98.6102C75.803 99.392 76.2831 100.101 76.8866 100.697C77.4901 101.293 78.2052 101.765 78.991 102.084C79.7768 102.404 80.6178 102.565 81.4661 102.559C82.3143 102.554 83.1531 102.381 83.9345 102.051C84.7159 101.721 85.4245 101.24 86.0199 100.635L87.8171 98.8159Z" fill="#0050FF"/>
<path d="M65.8985 77.1675L58.5333 69.8931C58.0503 69.4171 57.3983 69.1522 56.7202 69.1564C56.0422 69.1606 55.3935 69.4336 54.9164 69.9155C54.3197 70.5184 53.8476 71.233 53.5272 72.0184C53.2068 72.8038 53.0444 73.6447 53.0492 74.4929C53.054 75.3411 53.2259 76.1801 53.5552 76.9619C53.8844 77.7436 54.3645 78.4528 54.968 79.0489C55.5716 79.645 56.2867 80.1162 57.0724 80.4358C57.8582 80.7553 58.6993 80.9168 59.5475 80.9111C60.3957 80.9053 61.2345 80.7325 62.0159 80.4023C62.7973 80.0722 63.5059 79.5913 64.1013 78.9871L65.8985 77.1675Z" fill="#0050FF"/>
<path d="M79.723 103.346L79.547 103.81C78.7196 103.496 77.9176 103.181 77.1411 102.865C63.3866 97.2525 56.8203 90.6833 52.4281 78.2139L52.4252 78.211C52.2169 77.6242 52.0144 77.0237 51.8179 76.4095L52.2814 76.2599C52.4364 76.8506 52.6631 77.4201 52.9563 77.9557C53.1968 78.6393 53.4443 79.3054 53.6986 79.9538C57.8267 90.478 63.9147 96.4926 75.5861 101.571C76.1729 101.827 76.7744 102.08 77.3905 102.331C78.1059 102.797 78.8943 103.141 79.723 103.346Z" fill="#3F3D56"/>
<path d="M58.6671 81.9842L58.2546 82.4018L73.4932 97.4525L73.9056 97.0349L58.6671 81.9842Z" fill="#3F3D56"/>
</svg>
