<svg width="201" height="121" viewBox="0 0 201 121" fill="none" xmlns="http://www.w3.org/2000/svg">
<g clip-path="url(#clip0_1584_25064)">
<path d="M34.0612 114.264C33.9009 114.272 33.7423 114.229 33.6068 114.144C33.4712 114.058 33.3653 113.932 33.3035 113.784C33.2416 113.636 33.2267 113.473 33.2608 113.316C33.2949 113.159 33.3764 113.017 33.4942 112.908L33.5478 112.695C33.5407 112.678 33.5336 112.661 33.5265 112.644C33.365 112.263 33.0945 111.937 32.7489 111.709C32.4033 111.481 31.998 111.36 31.5839 111.362C31.1699 111.363 30.7655 111.487 30.4216 111.718C30.0776 111.949 29.8096 112.276 29.651 112.658C29.0171 114.185 28.2101 115.714 28.0114 117.328C27.9239 118.042 27.9608 118.765 28.1205 119.466C26.6317 116.218 25.8586 112.689 25.8537 109.116C25.8534 108.22 25.9032 107.324 26.0029 106.433C26.0853 105.703 26.1996 104.977 26.3458 104.257C27.1437 100.351 28.857 96.6893 31.3448 93.5735C32.5489 92.9165 33.5226 91.9062 34.1349 90.6788C34.3567 90.2376 34.5134 89.7665 34.6003 89.2804C34.4644 89.2982 34.0881 87.2296 34.1905 87.1026C34.0013 86.8154 33.6625 86.6726 33.4557 86.3923C32.4276 84.9983 31.011 85.2417 30.2715 87.1361C28.6917 87.9334 28.6765 89.2556 29.6458 90.5274C30.2625 91.3364 30.3472 92.4312 30.8883 93.2974C30.8326 93.3687 30.7747 93.4377 30.7191 93.509C29.7014 94.8175 28.8145 96.2226 28.071 97.7041C28.2518 96.0444 28.036 94.3654 27.4413 92.8053C26.8386 91.3514 25.709 90.1269 24.7142 88.8699C23.5192 87.3602 21.069 88.019 20.8584 89.9329C20.8564 89.9514 20.8544 89.97 20.8525 89.9885C21.0002 90.0719 21.1449 90.1603 21.2864 90.2539C21.4642 90.3727 21.6019 90.5424 21.6816 90.7408C21.7613 90.9393 21.7792 91.1571 21.7329 91.3659C21.6867 91.5746 21.5785 91.7646 21.4224 91.9107C21.2664 92.0569 21.0698 92.1526 20.8585 92.1852L20.8369 92.1885C20.8895 92.721 20.9826 93.2488 21.1152 93.7673C19.839 98.7027 22.5943 100.5 26.5284 100.581C26.6152 100.626 26.6998 100.67 26.7867 100.712C26.0397 102.829 25.5711 105.035 25.3928 107.272C25.2918 108.593 25.2978 109.919 25.4106 111.238L25.4039 111.191C25.1189 109.724 24.3363 108.401 23.1883 107.444C21.4833 106.043 19.0744 105.527 17.235 104.402C17.0395 104.276 16.8122 104.209 16.5799 104.209C16.3476 104.208 16.12 104.274 15.9239 104.398C15.7278 104.523 15.5714 104.701 15.4731 104.912C15.3749 105.122 15.3389 105.356 15.3694 105.587C15.3719 105.603 15.3744 105.619 15.377 105.636C15.6512 105.747 15.9181 105.876 16.1763 106.021C16.3241 106.104 16.4688 106.193 16.6103 106.286C16.7881 106.405 16.9258 106.575 17.0055 106.773C17.0852 106.972 17.1031 107.19 17.0568 107.398C17.0106 107.607 16.9023 107.797 16.7463 107.943C16.5903 108.089 16.3937 108.185 16.1824 108.218L16.1607 108.221C16.1452 108.223 16.1318 108.225 16.1162 108.228C16.5848 109.346 17.2423 110.376 18.0601 111.272C18.8581 115.58 22.2855 115.989 25.9517 114.734H25.9539C26.3561 116.482 26.939 118.184 27.693 119.811H33.9055C33.9278 119.742 33.9478 119.671 33.9679 119.602C33.3928 119.638 32.8155 119.603 32.2488 119.499C32.7098 118.934 33.1707 118.364 33.6316 117.798C33.6419 117.788 33.6516 117.776 33.6606 117.765C33.8944 117.475 34.1304 117.188 34.3642 116.898L34.3644 116.898C34.3768 116.011 34.275 115.126 34.0614 114.264L34.0612 114.264Z" fill="#F2F2F2"/>
<path d="M163.821 114.264C163.981 114.272 164.139 114.229 164.275 114.144C164.411 114.058 164.516 113.932 164.578 113.784C164.64 113.636 164.655 113.473 164.621 113.316C164.587 113.159 164.505 113.017 164.388 112.908L164.334 112.695C164.341 112.678 164.348 112.661 164.355 112.644C164.517 112.263 164.787 111.937 165.133 111.709C165.478 111.481 165.884 111.36 166.298 111.362C166.712 111.363 167.116 111.487 167.46 111.718C167.804 111.949 168.072 112.276 168.231 112.658C168.865 114.185 169.672 115.714 169.87 117.328C169.958 118.042 169.921 118.765 169.761 119.466C171.25 116.218 172.023 112.689 172.028 109.116C172.028 108.22 171.979 107.324 171.879 106.433C171.797 105.703 171.682 104.977 171.536 104.257C170.738 100.351 169.025 96.6893 166.537 93.5735C165.333 92.9165 164.359 91.9062 163.747 90.6788C163.525 90.2376 163.368 89.7665 163.281 89.2804C163.417 89.2982 163.794 87.2296 163.691 87.1026C163.88 86.8154 164.219 86.6726 164.426 86.3923C165.454 84.9983 166.871 85.2417 167.61 87.1361C169.19 87.9334 169.205 89.2556 168.236 90.5274C167.619 91.3364 167.535 92.4312 166.993 93.2974C167.049 93.3687 167.107 93.4377 167.163 93.509C168.18 94.8175 169.067 96.2226 169.811 97.7041C169.63 96.0444 169.846 94.3654 170.44 92.8053C171.043 91.3514 172.173 90.1269 173.168 88.8699C174.363 87.3602 176.813 88.019 177.023 89.9329C177.025 89.9514 177.027 89.97 177.029 89.9885C176.882 90.0719 176.737 90.1603 176.595 90.2539C176.418 90.3727 176.28 90.5424 176.2 90.7408C176.12 90.9393 176.103 91.1571 176.149 91.3659C176.195 91.5746 176.303 91.7646 176.459 91.9107C176.615 92.0569 176.812 92.1526 177.023 92.1852L177.045 92.1885C176.992 92.721 176.899 93.2488 176.767 93.7673C178.043 98.7027 175.288 100.5 171.353 100.581C171.267 100.626 171.182 100.67 171.095 100.712C171.842 102.829 172.311 105.035 172.489 107.272C172.59 108.593 172.584 109.919 172.471 111.238L172.478 111.191C172.763 109.724 173.546 108.401 174.693 107.444C176.399 106.043 178.807 105.527 180.647 104.402C180.842 104.276 181.07 104.209 181.302 104.209C181.534 104.208 181.762 104.274 181.958 104.398C182.154 104.523 182.31 104.701 182.409 104.912C182.507 105.122 182.543 105.356 182.512 105.587C182.51 105.603 182.507 105.619 182.505 105.636C182.231 105.747 181.964 105.876 181.705 106.021C181.558 106.104 181.413 106.193 181.272 106.286C181.094 106.405 180.956 106.575 180.876 106.773C180.797 106.972 180.779 107.19 180.825 107.398C180.871 107.607 180.979 107.797 181.135 107.943C181.291 108.089 181.488 108.185 181.699 108.218L181.721 108.221C181.737 108.223 181.75 108.225 181.766 108.228C181.297 109.346 180.639 110.376 179.822 111.272C179.024 115.58 175.596 115.989 171.93 114.734H171.928C171.526 116.482 170.943 118.184 170.189 119.811H163.976C163.954 119.742 163.934 119.671 163.914 119.602C164.489 119.638 165.066 119.603 165.633 119.499C165.172 118.934 164.711 118.364 164.25 117.798C164.24 117.788 164.23 117.776 164.221 117.765C163.987 117.475 163.751 117.188 163.518 116.898L163.517 116.898C163.505 116.011 163.607 115.126 163.82 114.264L163.821 114.264Z" fill="#F2F2F2"/>
<path d="M41.2068 119.672H51.2319C52.9465 113.899 51.241 100.255 53.501 94.6781C57.8369 83.9855 63.3761 72.7034 73.7148 67.4824C78.1292 65.2532 82.9423 64.3824 87.8577 64.4298C94.6479 64.4942 101.629 66.317 108.02 68.7326C110.635 69.7186 113.226 70.8027 115.806 71.9106C125.528 76.088 135.144 80.6381 145.598 81.868C158.828 83.4231 174.382 77.5042 177.995 64.7551C180.753 54.9942 175.786 44.8607 170.578 36.1433C165.369 27.4259 159.547 18.0987 160.498 8.00581C160.501 7.97194 160.505 7.93466 160.512 7.90079C160.869 4.2756 163.034 1.67029 166.058 0H152.893C152.719 9.41529 158.166 17.726 163.068 25.9318C168.277 34.6458 173.243 44.7827 170.486 54.5436C166.872 67.2893 136.953 52.3487 123.723 50.7902C119.987 50.3532 125.922 51.9082 122.36 50.7902C116.773 49.0386 116.154 65.1041 110.717 62.746C107.332 61.2756 103.944 59.8154 100.511 58.5178C99.0895 57.9791 97.6374 57.4743 96.1682 57.0067C96.1648 57.0067 96.1648 57.0067 96.1614 57.0033C86.2965 53.8796 75.5079 52.6633 66.3929 57.1795C66.3315 57.21 66.2668 57.2405 66.2054 57.271C55.8667 62.4885 50.3275 73.7706 45.9916 84.4632C42.409 93.3025 42.9725 110.348 41.2068 119.672Z" fill="#F2F2F2"/>
<path d="M96.9824 119.376C122.412 119.376 143.027 98.7615 143.027 73.3319C143.027 47.9023 122.412 27.2875 96.9824 27.2875C71.5528 27.2875 50.938 47.9023 50.938 73.3319C50.938 98.7615 71.5528 119.376 96.9824 119.376Z" fill="white"/>
<path d="M96.8508 119.672C51.2946 120.718 50.2957 99.0751 50.2957 73.3317C50.2957 47.5889 71.2393 26.6453 96.9823 26.6453C122.725 26.6453 143.669 47.5889 143.669 73.3317C143.669 99.0751 122.594 119.672 96.8508 119.672ZM96.9823 27.93C71.9474 27.93 52.0019 48.3007 51.5803 73.3317C51.1881 96.6137 75.9214 125.666 96.9823 118.734C108.277 106.295 140.209 92.8979 142.384 73.3317C145.151 48.4504 122.017 27.93 96.9823 27.93V27.93Z" fill="#3F3D56"/>
<path d="M90.7009 97.2958C89.9058 97.2958 89.1216 97.1106 88.4105 96.755C87.6993 96.3993 87.0808 95.8829 86.6039 95.2467L74.0423 78.4976C73.6384 77.9595 73.3444 77.3472 73.1772 76.6955C73.0101 76.0438 72.9729 75.3656 73.0679 74.6995C73.1629 74.0335 73.3883 73.3927 73.731 72.8137C74.0737 72.2348 74.5272 71.729 75.0654 71.3254C75.6037 70.9217 76.2162 70.6281 76.8679 70.4612C77.5197 70.2943 78.1979 70.2575 78.8639 70.3528C79.5299 70.4481 80.1706 70.6737 80.7494 71.0167C81.3282 71.3597 81.8337 71.8134 82.2371 72.3518L90.4554 83.3086L111.563 51.6479C112.317 50.5184 113.488 49.7345 114.82 49.4685C116.152 49.2025 117.534 49.4762 118.664 50.2295C119.794 50.9828 120.579 52.1539 120.845 53.4854C121.112 54.8169 120.839 56.1998 120.086 57.3301L94.963 95.0149C94.5085 95.6964 93.8973 96.2591 93.1805 96.6557C92.4637 97.0522 91.6623 97.2712 90.8435 97.2941C90.7959 97.295 90.7484 97.2958 90.7009 97.2958Z" fill="#F2F2F2"/>
<path d="M0.500001 119.708C0.499872 119.751 0.508363 119.794 0.524984 119.835C0.541605 119.875 0.56603 119.912 0.596852 119.942C0.627675 119.973 0.664284 119.998 0.70458 120.014C0.744876 120.031 0.788064 120.039 0.831652 120.039H200.168C200.256 120.039 200.341 120.004 200.403 119.942C200.465 119.88 200.5 119.795 200.5 119.708C200.5 119.62 200.465 119.535 200.403 119.473C200.341 119.411 200.256 119.376 200.168 119.376H0.831652C0.788064 119.376 0.74488 119.384 0.704585 119.401C0.664289 119.418 0.627679 119.442 0.596856 119.473C0.566034 119.504 0.54161 119.54 0.524988 119.58C0.508366 119.621 0.499873 119.664 0.500001 119.708Z" fill="#CCCCCC"/>
<path d="M126.385 116.457H123.689L122.407 106.057L126.386 106.057L126.385 116.457Z" fill="#FFB6B6"/>
<path d="M126.48 119.269L118.189 119.269V119.164C118.19 118.308 118.53 117.487 119.135 116.882C119.74 116.277 120.561 115.937 121.416 115.937H121.417L122.931 114.788L125.757 115.937L126.48 115.937L126.48 119.269Z" fill="#2F2E41"/>
<path d="M114.664 103.568L112.174 104.601L107.005 95.4862L110.681 93.9621L114.664 103.568Z" fill="#FFB6B6"/>
<path d="M115.829 106.13L108.171 109.306L108.13 109.209C107.803 108.418 107.802 107.53 108.129 106.739C108.457 105.948 109.085 105.32 109.875 104.992L109.875 104.992L110.834 103.35L113.884 103.329L114.553 103.052L115.829 106.13Z" fill="#2F2E41"/>
<path d="M129.468 57.2991L110.334 59.2982L107.775 67.9185L98.9114 82.1627C98.9114 82.1627 105.096 92.5726 104.516 92.4592C103.935 92.3458 105.096 95.1834 105.909 95.0187C106.722 94.8539 107.567 96.7041 107.005 97.0331C106.443 97.362 108.698 100.144 108.698 100.144L112.145 97.05C112.878 91.5203 111.992 86.5988 108.836 82.5303L118.711 71.87L120.583 71.0931L122.069 110.651L127.567 110.741C129.084 102.938 129.846 95.9146 128.66 90.9044C128.66 90.9044 128.831 75.8532 129.481 76.0178C130.131 76.1824 129.58 74.2216 129.58 74.2216C129.58 74.2216 129.01 72.5517 129.71 71.8589C130.409 71.1662 129.973 67.0916 129.973 67.0916C131.129 63.2356 130.781 60.0518 129.468 57.2991Z" fill="#2F2E41"/>
<path d="M114.756 25.4876L120.046 24.1169L122.515 20.7114L128.379 21.4323L129.627 26.0774L133.802 28.5005C133.802 28.5005 131.494 52.9049 132.043 54.2449C132.592 55.5849 134.56 55.4743 132.879 57.2017C131.199 58.9291 130.976 58.2333 131.366 60.114C131.756 61.9946 134.599 63.9848 131.366 63.9651C128.133 63.9453 108.625 63.6667 109.183 61.4372C109.74 59.2078 109.731 59.7739 110.572 58.3761C111.412 56.9784 111.978 57.7595 111.695 55.6968C111.412 53.6342 111.691 52.2408 111.691 51.1261C111.691 50.0114 112.625 39.8818 112.625 39.8818L114.756 25.4876Z" fill="#E6E6E6"/>
<path d="M125.432 20.0819C128.864 20.0819 131.646 17.2999 131.646 13.8681C131.646 10.4362 128.864 7.65417 125.432 7.65417C122 7.65417 119.218 10.4362 119.218 13.8681C119.218 17.2999 122 20.0819 125.432 20.0819Z" fill="#FFB6B6"/>
<path d="M118.921 10.1074C119.467 10.5483 119.342 12.6927 119.95 12.3432C120.558 11.9936 120.684 11.3677 121.384 11.3612C121.955 11.3927 122.493 11.6363 122.894 12.0443C122.968 12.1116 123.039 12.1822 123.108 12.252C123.171 12.23 123.233 12.21 123.299 12.1935C123.79 12.0737 124.308 12.1466 124.747 12.3974C124.342 12.4264 123.956 12.582 123.644 12.8422C123.777 12.9919 123.913 13.1425 124.056 13.2817C125.246 14.448 127.686 13.206 129.327 12.9257C127.96 14.4178 128.229 15.2507 128.569 17.245L128.571 17.354C128.641 16.8941 130.114 16.917 129.871 17.5272C129.566 18.1301 129.184 18.691 128.735 19.1961C130.742 17.8057 132.363 15.8892 132.721 13.5741C132.794 13.0873 132.938 12.5907 132.799 12.1161C132.74 11.8761 132.603 11.6624 132.41 11.5084C132.217 11.3544 131.978 11.2687 131.731 11.2647C131.955 10.5545 131.982 9.79706 131.809 9.0728C131.637 8.34854 131.271 7.68457 130.751 7.15149C130.231 6.6184 129.577 6.23612 128.857 6.04529C128.138 5.85445 127.38 5.8622 126.664 6.06771C126.011 6.2997 125.375 6.57452 124.758 6.89037C124.136 7.20744 123.431 7.32674 122.739 7.23228C122.308 7.14323 121.872 6.92002 121.449 7.0464C120.96 7.19324 120.749 7.71035 120.553 8.20953C120.921 8.34407 121.241 8.58538 121.472 8.90263C121.091 8.76209 120.675 8.74521 120.284 8.85439C120.277 8.85566 120.27 8.85758 120.263 8.86013C119.82 9.65452 119.794 9.84931 118.921 10.1074Z" fill="#2F2E41"/>
<path d="M120.97 22.4523C117.787 22.1961 114.881 24.6302 113.556 27.5353C112.231 30.4404 112.144 33.7361 112.08 36.9285L111.88 46.8519C111.851 48.3203 111.821 49.789 111.748 51.2559C111.71 52.6833 111.531 54.1034 111.212 55.4952C110.563 58.0493 109.136 60.3252 107.729 62.5537C111.33 63.6422 114.993 64.5169 118.697 65.1731C120.547 59.1894 122.418 53.0339 121.963 46.7873C121.723 43.4819 120.834 40.2546 120.496 36.9577C120.017 32.2884 120.651 27.5846 121.285 22.9337" fill="#3F3D56"/>
<path d="M128.696 23.0105C131.848 23.5174 134.093 26.5719 134.69 29.7086C135.288 32.8453 134.589 36.0673 133.894 39.1836C133.173 42.4126 132.452 45.6416 131.731 48.8706C131.411 50.3041 131.091 51.7378 130.814 53.1801C130.545 54.5812 131.673 56.3783 131.686 57.805C131.71 60.4401 131.198 62.6104 132.035 65.1091C128.278 65.3113 124.513 65.2913 120.759 65.049C120.383 58.7972 120.027 52.3734 121.952 46.4135C122.971 43.2597 124.601 40.3359 125.712 37.2136C127.286 32.7915 127.787 28.0716 128.276 23.4034" fill="#3F3D56"/>
<path d="M130.797 68.0594C130.563 67.6514 130.498 67.1681 130.614 66.7125C130.731 66.2568 131.021 65.8646 131.423 65.6194C131.505 65.5709 131.591 65.5292 131.68 65.4949L131.278 51.8073L135.633 50.6989L133.973 66.6455C134.086 67.0267 134.071 67.4347 133.928 67.806C133.785 68.1772 133.524 68.4908 133.184 68.6978C132.99 68.8138 132.774 68.8903 132.55 68.923C132.326 68.9557 132.098 68.944 131.879 68.8885C131.659 68.833 131.453 68.7349 131.272 68.5997C131.09 68.4644 130.937 68.2948 130.821 68.1004C130.813 68.0869 130.805 68.0732 130.797 68.0594Z" fill="#FFB6B6"/>
<path d="M130.479 28.4787C130.479 28.4787 133.519 25.9081 136.077 31.0479C138.635 36.1877 137.205 47.9297 136.845 48.5564C136.485 49.183 136.265 48.3101 136.463 49.9805C136.623 51.3391 135.669 51.1691 136.012 51.459C136.913 52.2235 134.388 52.3106 135.685 52.9841C136.982 53.6577 131.176 53.7839 131.176 53.7839C131.176 53.7839 130.474 53.2824 130.962 51.3912C131.236 50.3291 131.922 49.9405 131.19 49.449C130.459 48.9575 131.946 47.438 131.947 47.1045C131.948 46.7711 129.628 39.4789 129.628 39.4789L130.479 28.4787Z" fill="#3F3D56"/>
<path d="M105.326 91.7968C104.531 91.7968 103.747 91.6117 103.035 91.256C102.324 90.9003 101.706 90.3839 101.229 89.7477L88.6673 72.9986C88.2634 72.4606 87.9694 71.8482 87.8022 71.1965C87.6351 70.5448 87.5979 69.8666 87.6929 69.2005C87.7879 68.5345 88.0133 67.8937 88.356 67.3147C88.6987 66.7358 89.1522 66.2301 89.6904 65.8264C90.2287 65.4227 90.8411 65.1291 91.4929 64.9622C92.1447 64.7953 92.8229 64.7585 93.4889 64.8538C94.155 64.9491 94.7956 65.1747 95.3744 65.5178C95.9532 65.8608 96.4587 66.3144 96.8622 66.8529L105.08 77.8097L126.188 46.1489C126.561 45.5892 127.041 45.1085 127.599 44.7343C128.158 44.36 128.785 44.0995 129.445 43.9676C130.105 43.8357 130.784 43.8349 131.443 43.9655C132.103 44.096 132.731 44.3552 133.291 44.7283C133.85 45.1014 134.331 45.5811 134.705 46.14C135.08 46.6988 135.34 47.326 135.472 47.9855C135.604 48.6451 135.605 49.3241 135.474 49.984C135.344 50.6438 135.084 51.2715 134.711 51.8311L109.588 89.5159C109.134 90.1975 108.522 90.7601 107.805 91.1567C107.089 91.5533 106.287 91.7722 105.468 91.7952C105.421 91.796 105.373 91.7968 105.326 91.7968Z" fill="#0050FF"/>
<path d="M114.901 65.6819C115.158 65.2874 115.25 64.8085 115.159 64.3471C115.067 63.8856 114.799 63.478 114.412 63.211C114.332 63.158 114.249 63.1117 114.161 63.0725L115.319 49.428L111.032 48.0806L111.809 64.0946C111.675 64.4689 111.668 64.8772 111.79 65.2558C111.912 65.6344 112.155 65.9619 112.483 66.1874C112.671 66.3139 112.882 66.4022 113.103 66.4472C113.325 66.4923 113.554 66.4932 113.776 66.4499C113.998 66.4066 114.209 66.32 114.398 66.1951C114.587 66.0701 114.749 65.9091 114.875 65.7215C114.884 65.7084 114.893 65.6952 114.901 65.6819Z" fill="#FFB6B6"/>
<path d="M117.41 26.2073C117.41 26.2073 114.517 23.4726 111.679 28.4632C108.841 33.4538 109.619 45.2568 109.944 45.9024C110.269 46.5481 110.537 45.6885 110.248 47.3455C110.012 48.6932 110.974 48.5762 110.616 48.8468C109.673 49.5602 112.191 49.7867 110.858 50.3876C109.526 50.9884 115.316 51.4353 115.316 51.4353C115.316 51.4353 116.044 50.9733 115.662 49.0581C115.447 47.9824 114.784 47.5566 115.541 47.1062C116.299 46.6559 114.898 45.0565 114.916 44.7236C114.933 44.3906 117.652 37.2378 117.652 37.2378L117.41 26.2073Z" fill="#3F3D56"/>
</g>
<defs>
<clipPath id="clip0_1584_25064">
<rect width="200" height="120.039" fill="white" transform="translate(0.5)"/>
</clipPath>
</defs>
</svg>
