<svg width="200" height="120" viewBox="0 0 200 120" fill="none" xmlns="http://www.w3.org/2000/svg">
<path d="M24.9777 120.001H171.014C171.088 120.001 171.159 119.971 171.212 119.919C171.264 119.866 171.293 119.795 171.293 119.721C171.293 119.647 171.264 119.576 171.212 119.524C171.159 119.472 171.088 119.442 171.014 119.442H24.9777C24.9037 119.442 24.8327 119.472 24.7804 119.524C24.728 119.576 24.6986 119.647 24.6986 119.721C24.6986 119.795 24.728 119.866 24.7804 119.919C24.8327 119.971 24.9037 120.001 24.9777 120.001Z" fill="#CCCCCC"/>
<path d="M53.036 52.3928C44.4953 43.9851 40.888 35.2136 42.8786 27.6946C45.4331 18.0455 56.7814 11.3739 74.0137 9.39062L74.0774 9.94411C57.0849 11.8997 45.9097 18.4215 43.4171 27.8371C41.4799 35.1546 45.0347 43.7344 53.4269 51.996L53.036 52.3928Z" fill="#F0F0F0"/>
<path d="M135.44 82.238C124.781 82.238 113.197 80.654 101.692 77.608C87.4638 73.8413 74.4181 68.1558 63.9653 61.166L64.2748 60.7031C74.6773 67.659 87.6652 73.3185 101.834 77.0695C114.639 80.4595 127.54 82.0302 139.137 81.6157L139.157 82.1722C137.932 82.2163 136.693 82.2382 135.44 82.238Z" fill="#F0F0F0"/>
<path d="M159.894 78.7343L159.716 78.2067C169.249 74.9834 175.212 69.791 176.959 63.1905C179.181 54.7996 174.355 45.0625 163.371 35.7728C152.33 26.4359 136.41 18.6887 118.542 13.9585L118.685 13.4199C136.631 18.171 152.629 25.9583 163.73 35.3476C174.888 44.7838 179.777 54.7226 177.498 63.333C175.7 70.1229 169.613 75.4485 159.894 78.7343Z" fill="#F0F0F0"/>
<path d="M72.3545 82.4714C51.4094 73.182 35.2696 61.1301 26.9085 48.5357L27.3725 48.2275C35.6758 60.7348 51.7309 72.7152 72.5802 81.9622L72.3545 82.4714Z" fill="#F0F0F0"/>
<path d="M145.996 98.5633C143.835 98.5633 141.638 98.515 139.404 98.4186L139.428 97.8621C156.101 98.5839 170.812 96.5886 181.973 92.0908L182.181 92.6076C172.445 96.5307 160.035 98.5633 145.996 98.5633Z" fill="#F0F0F0"/>
<path d="M133.843 9.89005C130.381 8.76294 126.82 7.71348 123.26 6.77077C102.768 1.34601 82.6252 -0.580063 65.007 1.20186L64.951 0.647554C82.6348 -1.14021 102.847 0.790474 123.402 6.23224C126.973 7.17767 130.544 8.23011 134.016 9.36048L133.843 9.89005Z" fill="#F0F0F0"/>
<path d="M39.9455 53.2278C31.4047 44.82 27.7975 36.0486 29.788 28.5296C32.3425 18.8805 43.6908 12.2089 60.9232 10.2256L60.9868 10.7791C43.9944 12.7347 32.8192 19.2565 30.3266 28.6721C28.3893 35.9896 31.9442 44.5694 40.3363 52.8309L39.9455 53.2278Z" fill="#F0F0F0"/>
<path d="M122.35 83.074C111.69 83.074 100.107 81.4899 88.6014 78.4439C74.3733 74.6772 61.3276 68.9917 50.8748 62.002L51.1843 61.5391C61.5868 68.495 74.5747 74.1545 88.7439 77.9054C101.548 81.2954 114.449 82.8662 126.046 82.4517L126.066 83.0081C124.842 83.0522 123.603 83.0741 122.35 83.074Z" fill="#F0F0F0"/>
<path d="M146.804 79.5713L146.625 79.0436C156.159 75.8203 162.121 70.6279 163.869 64.0274C166.09 55.6365 161.264 45.8994 150.28 36.6097C139.24 27.2729 123.32 19.5256 105.452 14.7954L105.594 14.2568C123.54 19.0079 139.538 26.7952 150.64 36.1845C161.797 45.6208 166.687 55.5595 164.407 64.1699C162.61 70.9598 156.522 76.2854 146.804 79.5713Z" fill="#F0F0F0"/>
<path d="M59.2649 83.3063C38.3198 74.0169 22.1801 61.9651 13.8189 49.3707L14.283 49.0625C22.5863 61.5698 38.6413 73.5502 59.4907 82.7972L59.2649 83.3063Z" fill="#F0F0F0"/>
<path d="M132.906 99.3992C130.746 99.3992 128.548 99.351 126.314 99.2545L126.338 98.698C143.011 99.4199 157.722 97.4246 168.883 92.9268L169.092 93.4435C159.355 97.3666 146.946 99.3992 132.906 99.3992Z" fill="#F0F0F0"/>
<path d="M120.754 10.725C117.292 9.5979 113.731 8.54844 110.17 7.60574C89.6788 2.18098 69.5356 0.254907 51.9175 2.03682L51.8614 1.48252C69.5453 -0.305248 89.7574 1.62543 110.313 7.0672C113.883 8.01263 117.454 9.06507 120.926 10.1955L120.754 10.725Z" fill="#F0F0F0"/>
<path d="M23.3136 38.3097C27.3165 33.8217 33.7018 31.0864 39.4882 32.7238C34.15 36.5016 30.32 42.0458 28.676 48.3755C28.0508 50.819 27.6099 53.6017 25.5778 55.0957C24.3134 56.0253 22.6381 56.2473 21.0831 56.0356C19.5281 55.8239 18.0578 55.2192 16.6073 54.62L16.217 54.6538C17.3392 48.7457 19.3108 42.7977 23.3136 38.3097Z" fill="#F2F2F2"/>
<path d="M39.47 32.8474C34.6321 34.0188 30.2863 36.6848 27.0498 40.4666C26.3386 41.2684 25.7582 42.1773 25.3301 43.1598C24.9439 44.1303 24.8247 45.1866 24.9848 46.2188C25.1148 47.1843 25.3595 48.1568 25.2525 49.137C25.1903 49.6379 25.0229 50.1201 24.7613 50.5518C24.4997 50.9835 24.1497 51.355 23.7345 51.642C22.7183 52.384 21.4962 52.7166 20.2897 53.0004C18.9502 53.3154 17.5538 53.6215 16.4619 54.5117C16.3296 54.6196 16.1699 54.4079 16.302 54.3003C18.2018 52.7514 20.8421 52.9503 22.9441 51.8253C23.9249 51.3003 24.7534 50.4766 24.9549 49.3464C25.131 48.358 24.8795 47.3549 24.7395 46.3785C24.5685 45.3739 24.6462 44.3426 24.9656 43.3748C25.3424 42.3737 25.8868 41.444 26.5755 40.6255C28.0965 38.7581 29.9018 37.1415 31.925 35.8348C34.2259 34.3307 36.7671 33.2314 39.4387 32.5842C39.604 32.5442 39.6342 32.8077 39.4699 32.8474H39.47Z" fill="white"/>
<path d="M28.0202 39.188C27.4594 38.5588 27.1405 37.7508 27.1204 36.9083C27.1004 36.0657 27.3805 35.2434 27.9107 34.5883C28.0185 34.4562 28.2289 34.6174 28.121 34.7497C27.6262 35.3589 27.3653 36.1248 27.3856 36.9094C27.4059 37.6939 27.7059 38.4454 28.2316 39.0282C28.3457 39.1549 28.1336 39.314 28.0202 39.188Z" fill="white"/>
<path d="M24.8538 45.7383C26.5728 45.8525 28.2718 45.3145 29.6118 44.2317C29.7445 44.1243 29.9042 44.3359 29.7717 44.4432C28.3751 45.5674 26.6059 46.1236 24.8173 46.0008C24.6468 45.989 24.6842 45.7266 24.8538 45.7383Z" fill="white"/>
<path d="M34.2861 34.6773C34.4524 34.966 34.6877 35.2088 34.971 35.384C35.2543 35.5592 35.5767 35.6613 35.9092 35.6812C36.0798 35.6908 36.0422 35.9533 35.8728 35.9437C35.5055 35.9201 35.1496 35.8069 34.8362 35.614C34.5227 35.4211 34.2613 35.1544 34.0747 34.8372C34.0546 34.8087 34.0461 34.7737 34.0509 34.7393C34.0557 34.7048 34.0734 34.6734 34.1005 34.6515C34.1286 34.6305 34.1639 34.6214 34.1986 34.6263C34.2334 34.6311 34.2648 34.6495 34.2861 34.6773L34.2861 34.6773Z" fill="white"/>
<path d="M47.7017 51.3537C47.5951 51.3507 47.4884 51.3477 47.3804 51.3465C45.9462 51.3136 44.5117 51.3973 43.0911 51.5967C42.981 51.6104 42.8697 51.6259 42.7602 51.6427C39.3427 52.1597 36.0509 53.3067 33.0521 55.0253C31.8594 55.7103 30.7206 56.485 29.6455 57.3428C28.1608 58.5275 26.6452 59.9302 24.907 60.5373C24.7264 60.6027 24.5419 60.6568 24.3546 60.6994L16.288 55.1262C16.276 55.1043 16.2627 55.0842 16.2506 55.0623L15.9184 54.8545C15.9708 54.8064 16.0261 54.7576 16.0785 54.7095C16.1087 54.6815 16.1408 54.6547 16.171 54.6266C16.1918 54.6083 16.2126 54.5901 16.2303 54.5724C16.2371 54.5663 16.2441 54.5602 16.2497 54.5559C16.2674 54.5382 16.2857 54.5237 16.3021 54.5078C16.6107 54.2343 16.9217 53.9625 17.2352 53.6924C17.2365 53.6906 17.2365 53.6906 17.2395 53.69C19.6086 51.609 22.2161 49.8164 25.0075 48.3498C25.0914 48.3071 25.1765 48.2626 25.2641 48.2225C26.5243 47.5902 27.834 47.062 29.1803 46.6432C29.9182 46.4162 30.6671 46.2267 31.4241 46.0754C33.381 45.6883 35.3866 45.6115 37.3674 45.8477C41.3159 46.319 45.0698 48.048 47.517 51.1173C47.5796 51.1959 47.6405 51.2733 47.7017 51.3537Z" fill="#F2F2F2"/>
<path d="M47.6123 51.4426C43.0442 49.4651 37.9692 48.9772 33.1082 50.0483C32.0576 50.2602 31.047 50.6365 30.1136 51.1632C29.2209 51.7056 28.4898 52.4772 27.9962 53.3978C27.5187 54.2469 27.1286 55.1707 26.453 55.889C26.1017 56.2515 25.6777 56.5356 25.2089 56.7228C24.7401 56.91 24.2371 56.996 23.7327 56.9751C22.4746 56.9558 21.2986 56.4855 20.1644 55.9857C18.9052 55.4308 17.606 54.8344 16.1982 54.8878C16.0276 54.8943 16.0276 54.6292 16.1979 54.6227C18.6473 54.5299 20.6356 56.2783 22.9913 56.6456C24.0904 56.8169 25.2479 56.6581 26.0893 55.8769C26.825 55.1938 27.2281 54.2415 27.7041 53.3776C28.1725 52.4725 28.8554 51.6959 29.6931 51.1155C30.5967 50.543 31.5911 50.1284 32.6338 49.8895C34.9726 49.3143 37.3873 49.1104 39.7894 49.2852C42.5321 49.4696 45.223 50.1218 47.7458 51.2135C47.9019 51.2812 47.7674 51.5098 47.6123 51.4426H47.6123Z" fill="white"/>
<path d="M34.6539 49.612C34.5849 48.772 34.8168 47.9348 35.308 47.25C35.7993 46.5652 36.518 46.0773 37.3358 45.8735C37.5014 45.8328 37.5724 46.0883 37.4066 46.129C36.6447 46.3174 35.9753 46.7719 35.5191 47.4106C35.0629 48.0492 34.8501 48.8299 34.9189 49.6117C34.9337 49.7816 34.6686 49.7809 34.6539 49.612Z" fill="white"/>
<path d="M28.1819 52.9366C29.4857 54.0627 31.1661 54.6561 32.888 54.5983C33.0586 54.5925 33.0587 54.8575 32.8883 54.8634C31.0964 54.9201 29.3489 54.2991 27.9947 53.1242C27.8657 53.0121 28.0536 52.8251 28.1819 52.9366Z" fill="white"/>
<path d="M42.3714 49.7828C42.3303 50.1133 42.3721 50.4489 42.4928 50.7594C42.6135 51.0698 42.8094 51.3454 43.063 51.5615C43.1933 51.6719 43.0053 51.8588 42.8758 51.7491C42.5967 51.5091 42.3807 51.2045 42.2466 50.8618C42.1125 50.519 42.0643 50.1487 42.1063 49.7831C42.1074 49.7483 42.1217 49.7152 42.1463 49.6905C42.1708 49.6659 42.2039 49.6515 42.2387 49.6504C42.2738 49.6505 42.3074 49.6645 42.3322 49.6893C42.3571 49.7141 42.3711 49.7477 42.3714 49.7828H42.3714Z" fill="white"/>
<path d="M180.16 75.0996C177.899 69.5273 172.804 64.805 166.804 64.4023C170.562 69.7545 172.306 76.2635 171.727 82.7776C171.494 85.289 170.974 88.058 172.386 90.1481C173.264 91.4485 174.768 92.2208 176.303 92.544C177.839 92.8672 179.427 92.7919 180.995 92.715L181.351 92.878C182.28 86.9364 182.422 80.6719 180.16 75.0996Z" fill="#F2F2F2"/>
<path d="M166.779 64.5253C170.942 67.2545 174.139 71.226 175.916 75.8757C176.316 76.8698 176.558 77.9209 176.631 78.9901C176.668 80.034 176.425 81.0689 175.928 81.9873C175.481 82.8529 174.923 83.6866 174.695 84.6457C174.585 85.1384 174.581 85.6488 174.682 86.1433C174.783 86.6378 174.988 87.1053 175.283 87.5152C175.99 88.5556 177.029 89.2796 178.07 89.9524C179.226 90.6993 180.438 91.4568 181.168 92.6623C181.256 92.8084 181.477 92.6627 181.389 92.5169C180.12 90.4196 177.567 89.7195 175.965 87.9535C175.218 87.1294 174.715 86.0752 174.905 84.943C175.071 83.9529 175.645 83.0927 176.105 82.2202C176.604 81.3314 176.877 80.334 176.902 79.3152C176.883 78.2457 176.683 77.1871 176.309 76.1847C175.505 73.9147 174.348 71.7854 172.881 69.8747C171.22 67.6848 169.196 65.7953 166.897 64.2879C166.755 64.1946 166.638 64.4326 166.779 64.5253V64.5253Z" fill="white"/>
<path d="M175.431 74.3455C176.171 73.9415 176.742 73.2876 177.045 72.5008C177.347 71.714 177.359 70.8455 177.08 70.0502C177.023 69.8895 176.77 69.9706 176.828 70.1315C177.089 70.8716 177.077 71.6806 176.794 72.4127C176.512 73.1448 175.976 73.7518 175.285 74.1239C175.135 74.205 175.282 74.4261 175.431 74.3455Z" fill="white"/>
<path d="M176.211 81.5785C174.553 81.1083 173.134 80.0306 172.236 78.5604C172.147 78.4147 171.925 78.5603 172.014 78.7058C172.952 80.234 174.431 81.3525 176.157 81.8381C176.321 81.8842 176.374 81.6245 176.211 81.5785Z" fill="white"/>
<path d="M171.046 67.9912C170.793 68.2072 170.489 68.3568 170.164 68.4266C169.838 68.4964 169.5 68.4842 169.18 68.3911C169.016 68.3429 168.964 68.6027 169.126 68.6506C169.48 68.7518 169.854 68.7648 170.214 68.6885C170.574 68.6122 170.909 68.4489 171.192 68.2128C171.22 68.1928 171.24 68.1627 171.247 68.1286C171.254 68.0945 171.248 68.059 171.23 68.0293C171.21 68.0001 171.18 67.9796 171.146 67.9725C171.112 67.9654 171.076 67.9721 171.046 67.9912H171.046Z" fill="white"/>
<path d="M152.806 79.1885C152.907 79.2215 153.009 79.2546 153.111 79.2897C154.473 79.7408 155.795 80.3018 157.066 80.9671C157.165 81.017 157.265 81.069 157.363 81.1216C160.408 82.7571 163.122 84.9437 165.369 87.5703C166.262 88.6163 167.074 89.7287 167.799 90.8979C168.799 92.5127 169.755 94.3432 171.188 95.4992C171.336 95.6215 171.491 95.7345 171.654 95.8375L181.124 93.2997C181.143 93.2831 181.162 93.2687 181.181 93.2521L181.563 93.168C181.53 93.1051 181.495 93.0406 181.461 92.9777C181.442 92.9411 181.421 92.9051 181.402 92.8685C181.389 92.8443 181.375 92.8201 181.365 92.7975C181.36 92.7895 181.356 92.7814 181.352 92.7755C181.341 92.7529 181.329 92.733 181.319 92.7126C181.12 92.3513 180.918 91.9908 180.714 91.631C180.713 91.6289 180.713 91.6289 180.711 91.6272C179.179 88.8711 177.325 86.3064 175.189 83.9869C175.125 83.9185 175.059 83.848 174.99 83.7808C174.016 82.7618 172.96 81.8241 171.833 80.9771C171.214 80.5153 170.573 80.0851 169.91 79.6882C168.197 78.666 166.334 77.9195 164.389 77.4762C160.512 76.593 156.396 76.9597 153.059 79.028C152.974 79.081 152.89 79.1334 152.806 79.1885Z" fill="#F2F2F2"/>
<path d="M152.859 79.3028C157.826 78.9756 162.77 80.2219 166.988 82.8644C167.906 83.4172 168.732 84.1112 169.434 84.921C170.092 85.7319 170.521 86.7043 170.677 87.7372C170.841 88.6974 170.898 89.6986 171.293 90.6021C171.502 91.0616 171.806 91.4718 172.184 91.8056C172.563 92.1395 173.008 92.3895 173.49 92.5394C174.681 92.944 175.947 92.8964 177.183 92.8069C178.556 92.7074 179.98 92.5824 181.288 93.1058C181.446 93.1693 181.535 92.9196 181.377 92.8563C179.101 91.9456 176.641 92.924 174.299 92.4782C173.206 92.2702 172.169 91.7316 171.64 90.713C171.176 89.8224 171.117 88.79 170.959 87.8163C170.822 86.8065 170.44 85.8455 169.846 85.0173C169.187 84.1744 168.39 83.4498 167.488 82.8743C165.479 81.5465 163.273 80.5429 160.952 79.9002C158.307 79.152 155.553 78.8618 152.81 79.0422C152.641 79.0534 152.69 79.3139 152.859 79.3027V79.3028Z" fill="white"/>
<path d="M165.68 81.9338C166.027 81.1658 166.09 80.2995 165.858 79.4894C165.625 78.6793 165.112 77.9782 164.41 77.5114C164.268 77.4174 164.115 77.6342 164.258 77.7283C164.912 78.1618 165.39 78.8149 165.605 79.5697C165.82 80.3245 165.758 81.1312 165.43 81.8444C165.359 81.9995 165.609 82.088 165.68 81.9338L165.68 81.9338Z" fill="white"/>
<path d="M170.659 87.2396C169.052 87.862 167.27 87.8561 165.668 87.223C165.509 87.1601 165.42 87.4097 165.578 87.4725C167.247 88.1282 169.101 88.1306 170.772 87.4793C170.931 87.4171 170.817 87.1778 170.659 87.2396V87.2396Z" fill="white"/>
<path d="M158.353 79.5007C158.281 79.8259 158.129 80.1279 157.911 80.3797C157.693 80.6316 157.416 80.8253 157.104 80.9435C156.944 81.0037 157.059 81.2429 157.218 81.1832C157.561 81.0509 157.867 80.8366 158.108 80.5589C158.35 80.2812 158.52 79.9486 158.603 79.5901C158.614 79.557 158.611 79.521 158.596 79.4895C158.582 79.4581 158.555 79.4334 158.523 79.4207C158.49 79.409 158.453 79.4109 158.422 79.4259C158.39 79.4408 158.365 79.4678 158.353 79.5007V79.5007Z" fill="white"/>
<path d="M61.0887 32.2697C62.3192 32.2697 63.3168 31.2721 63.3168 30.0416C63.3168 28.811 62.3192 27.8135 61.0887 27.8135C59.8581 27.8135 58.8606 28.811 58.8606 30.0416C58.8606 31.2721 59.8581 32.2697 61.0887 32.2697Z" fill="#FD6584"/>
<path d="M146.376 54.2537C146.573 53.0391 145.748 51.8946 144.534 51.6975C143.319 51.5004 142.174 52.3253 141.977 53.5399C141.78 54.7546 142.605 55.899 143.82 56.0962C145.034 56.2933 146.179 55.4684 146.376 54.2537Z" fill="#E6E6E6"/>
<path d="M60.999 7.19646C62.2296 7.19646 63.2271 6.1989 63.2271 4.96835C63.2271 3.73779 62.2296 2.74023 60.999 2.74023C59.7684 2.74023 58.7709 3.73779 58.7709 4.96835C58.7709 6.1989 59.7684 7.19646 60.999 7.19646Z" fill="#E6E6E6"/>
<path d="M127.481 31.1875H126.845V13.7652C126.845 11.0909 125.783 8.52609 123.892 6.63506C122.001 4.74402 119.436 3.68165 116.762 3.68164H79.8505C78.5263 3.68164 77.215 3.94245 75.9917 4.44919C74.7683 4.95594 73.6567 5.69868 72.7203 6.63502C71.784 7.57136 71.0412 8.68296 70.5345 9.90635C70.0277 11.1297 69.7669 12.441 69.7669 13.7652V109.345C69.7669 112.019 70.8293 114.584 72.7203 116.475C74.6113 118.366 77.1761 119.429 79.8504 119.429H116.762C119.436 119.429 122.001 118.366 123.892 116.475C125.783 114.584 126.845 112.02 126.845 109.345V43.5889H127.481V31.1875Z" fill="#3F3D56"/>
<path d="M124.698 13.8354V109.275C124.698 110.264 124.503 111.243 124.125 112.157C123.747 113.07 123.192 113.9 122.493 114.599C121.794 115.298 120.964 115.853 120.051 116.232C119.138 116.61 118.159 116.805 117.17 116.805H80.0781C78.0812 116.805 76.1661 116.012 74.754 114.6C73.3419 113.188 72.5485 111.273 72.5484 109.276V13.8354C72.5484 12.8466 72.7431 11.8675 73.1214 10.954C73.4997 10.0405 74.0543 9.21045 74.7534 8.51125C75.4525 7.81205 76.2825 7.2574 77.196 6.87896C78.1095 6.50053 79.0885 6.30572 80.0773 6.30566H84.5794C84.3578 6.84884 84.2731 7.4382 84.3329 8.02181C84.3926 8.60542 84.595 9.16537 84.9222 9.65233C85.2494 10.1393 85.6914 10.5383 86.2091 10.8142C86.7268 11.0901 87.3045 11.2344 87.8911 11.2345H109.038C109.625 11.2341 110.202 11.0895 110.72 10.8135C111.237 10.5375 111.679 10.1385 112.006 9.65163C112.333 9.16479 112.536 8.60502 112.596 8.02156C112.655 7.43811 112.571 6.84886 112.35 6.30566H117.168C118.157 6.30562 119.136 6.50032 120.049 6.87866C120.963 7.257 121.793 7.81157 122.492 8.51069C123.191 9.20982 123.746 10.0398 124.124 10.9533C124.503 11.8668 124.698 12.8458 124.698 13.8346L124.698 13.8354Z" fill="#F2F2F2"/>
<path d="M86.8667 15.416H75.3605V15.931H86.8667V15.416Z" fill="white"/>
<path d="M104.377 15.416H92.8707V15.931H104.377V15.416Z" fill="white"/>
<path d="M116.661 77.0829H79.1537C79.0273 77.0829 78.9021 77.058 78.7854 77.0096C78.6686 76.9613 78.5625 76.8904 78.4732 76.801C78.3838 76.7117 78.3129 76.6056 78.2646 76.4888C78.2162 76.3721 78.1913 76.2469 78.1913 76.1205C78.1913 75.9942 78.2162 75.869 78.2646 75.7523C78.3129 75.6355 78.3838 75.5294 78.4732 75.4401C78.5625 75.3507 78.6686 75.2798 78.7854 75.2315C78.9021 75.1831 79.0273 75.1582 79.1537 75.1582H116.661C116.787 75.1582 116.912 75.1831 117.029 75.2315C117.146 75.2798 117.252 75.3507 117.341 75.4401C117.431 75.5294 117.502 75.6355 117.55 75.7523C117.598 75.869 117.623 75.9942 117.623 76.1205C117.623 76.2469 117.598 76.3721 117.55 76.4888C117.502 76.6056 117.431 76.7117 117.341 76.801C117.252 76.8904 117.146 76.9613 117.029 77.0096C116.912 77.058 116.787 77.0829 116.661 77.0829Z" fill="#CCCCCC"/>
<path d="M116.661 83.7792H79.1537C78.8984 83.7792 78.6537 83.6778 78.4732 83.4973C78.2927 83.3169 78.1913 83.0721 78.1913 82.8168C78.1913 82.5616 78.2927 82.3168 78.4732 82.1364C78.6537 81.9559 78.8984 81.8545 79.1537 81.8545H116.661C116.916 81.8545 117.161 81.9559 117.341 82.1364C117.522 82.3168 117.623 82.5616 117.623 82.8168C117.623 83.0721 117.522 83.3169 117.341 83.4973C117.161 83.6778 116.916 83.7792 116.661 83.7792Z" fill="#CCCCCC"/>
<path d="M116.661 90.4755H79.1537C78.8984 90.4755 78.6537 90.3741 78.4732 90.1936C78.2927 90.0131 78.1913 89.7684 78.1913 89.5131C78.1913 89.2579 78.2927 89.0131 78.4732 88.8326C78.6537 88.6522 78.8984 88.5508 79.1537 88.5508H116.661C116.916 88.5508 117.161 88.6522 117.341 88.8326C117.522 89.0131 117.623 89.2579 117.623 89.5131C117.623 89.7684 117.522 90.0131 117.341 90.1936C117.161 90.3741 116.916 90.4755 116.661 90.4755Z" fill="#CCCCCC"/>
<path d="M121.887 15.416H110.381V15.931H121.887V15.416Z" fill="white"/>
<path d="M86.8667 107.863H75.3605V108.378H86.8667V107.863Z" fill="white"/>
<path d="M104.377 107.863H92.8707V108.378H104.377V107.863Z" fill="white"/>
<path d="M121.887 107.863H110.381V108.378H121.887V107.863Z" fill="white"/>
<path d="M98.624 63.9009C108.256 63.9009 116.065 56.0922 116.065 46.4597C116.065 36.8272 108.256 29.0186 98.624 29.0186C88.9915 29.0186 81.1828 36.8272 81.1828 46.4597C81.1828 56.0922 88.9915 63.9009 98.624 63.9009Z" fill="#D1D3D4"/>
<path d="M98.6231 63.1435C107.411 63.1435 114.535 56.0196 114.535 47.2319C114.535 38.4442 107.411 31.3203 98.6231 31.3203C89.8354 31.3203 82.7115 38.4442 82.7115 47.2319C82.7115 56.0196 89.8354 63.1435 98.6231 63.1435Z" fill="#0050FF"/>
<path d="M97.2349 53.4692C97.2006 53.4692 97.1658 53.4684 97.131 53.4668C96.8259 53.4519 96.5275 53.3713 96.2564 53.2304C95.9853 53.0895 95.7479 52.8916 95.5604 52.6504L93.0526 49.4264C92.7078 48.9822 92.5533 48.4194 92.623 47.8614C92.6927 47.3033 92.9809 46.7958 93.4244 46.45L93.5142 46.3801C93.9585 46.0352 94.5215 45.8807 95.0796 45.9503C95.6377 46.0199 96.1454 46.308 96.4915 46.7514C96.604 46.8963 96.7466 47.0151 96.9093 47.0997C97.0721 47.1843 97.2512 47.2327 97.4345 47.2415C97.6179 47.2523 97.8014 47.2224 97.972 47.1539C98.1425 47.0855 98.2958 46.9803 98.421 46.8458L103.513 41.4708C103.9 41.0631 104.433 40.8256 104.995 40.8103C105.557 40.7951 106.102 41.0035 106.511 41.3896L106.594 41.4679C107.002 41.855 107.24 42.3882 107.255 42.9504C107.27 43.5126 107.062 44.0579 106.675 44.4667L98.7741 52.8069C98.5761 53.0162 98.3375 53.1829 98.0728 53.2968C97.8082 53.4107 97.5231 53.4694 97.2349 53.4692Z" fill="white"/>
<path d="M70.7566 22.0498H68.6965V33.1229H70.7566V22.0498Z" fill="#3F3D56"/>
<path d="M70.7566 34.4111H68.6965V40.849H70.7566V34.4111Z" fill="#3F3D56"/>
<path d="M70.7566 42.1367H68.6965V48.5746H70.7566V42.1367Z" fill="#3F3D56"/>
<path d="M88.525 8.91754C89.0939 8.91754 89.5551 8.45636 89.5551 7.88748C89.5551 7.31859 89.0939 6.85742 88.525 6.85742C87.9561 6.85742 87.495 7.31859 87.495 7.88748C87.495 8.45636 87.9561 8.91754 88.525 8.91754Z" fill="white"/>
<path opacity="0.16" d="M98.6231 60.94C94.5976 60.9395 90.7219 59.4129 87.7772 56.668C84.8326 53.9231 83.038 50.1641 82.7552 46.1484C82.7294 46.5189 82.7115 46.8915 82.7115 47.2685C82.7115 51.4885 84.3879 55.5357 87.372 58.5197C90.356 61.5037 94.4031 63.1801 98.6231 63.1801C102.843 63.1801 106.89 61.5037 109.874 58.5197C112.858 55.5357 114.535 51.4885 114.535 47.2685C114.535 46.8915 114.517 46.5189 114.491 46.1484C114.208 50.1641 112.414 53.9231 109.469 56.668C106.524 59.4129 102.649 60.9395 98.6231 60.94Z" fill="#231F20"/>
<path d="M121.057 60.0728L133.675 60.5878L135.22 52.0897L124.404 48.7422L121.057 60.0728Z" fill="#FFB8B8"/>
<path d="M125.825 41.6661L125.947 37.6514L119.832 36.1182L108.821 32.906C108.676 32.464 108.399 32.0766 108.028 31.7951C107.658 31.5137 107.21 31.3513 106.745 31.3296C106.281 31.308 105.82 31.4279 105.425 31.6737C105.029 31.9195 104.718 32.2794 104.532 32.706C104.346 33.1325 104.293 33.6056 104.382 34.0625C104.47 34.5195 104.695 34.9388 105.027 35.265C105.359 35.5913 105.782 35.809 106.241 35.8895C106.699 35.97 107.171 35.9095 107.595 35.7158L118.299 40.1158L125.825 41.6661Z" fill="#FFB8B8"/>
<path d="M121.885 41.6372L125.325 36.7305L125.411 36.7419C125.465 36.749 130.86 37.4708 134.396 38.524C134.794 38.6293 135.164 38.8201 135.48 39.083C135.796 39.3459 136.051 39.6746 136.227 40.0462C136.48 40.5655 136.576 41.1473 136.502 41.7202C136.429 42.2931 136.19 42.8321 135.815 43.271C135.433 43.7456 134.922 44.1001 134.344 44.2922C133.766 44.4842 133.145 44.5058 132.555 44.3542L121.885 41.6372Z" fill="#FF9A82"/>
<path d="M124.064 116.027L120.565 116.027L118.9 102.529L124.065 102.53L124.064 116.027Z" fill="#FFB8B8"/>
<path d="M151.311 114.513L147.851 115.036L144.187 101.939L148.723 101.167L151.311 114.513Z" fill="#FFB8B8"/>
<path d="M134.189 58.0113L122.086 55.9512L121.656 56.8385C119.339 61.6189 117.972 66.803 117.628 72.1039C117.336 76.5789 117.164 81.3052 117.158 86.2597C117.15 93.936 117.541 101.059 118.161 107.54L124.803 107.498C124.611 100.617 124.873 93.7308 125.585 86.8839C126.094 82.0015 126.801 77.4409 127.618 73.2325C129.134 79.4105 131.275 85.4185 134.006 91.1637C136.327 96.0728 141.102 101.747 143.423 106.656C145.802 106.371 148.18 106.085 150.559 105.8C148.684 100.843 145.34 93.6037 143.466 88.6464C140.786 81.5585 139.575 76.7525 136.895 69.6646C137.048 68.3322 137.077 66.9885 136.984 65.6506C136.859 63.4207 136.395 60.7447 135.039 58.9607L134.189 58.0113Z" fill="#2F2E41"/>
<path d="M136.058 54.317C136.663 55.4468 135.227 57.7874 134.188 58.0117L122.22 54.1428L128.246 36.6797L131.278 37.2308L136.128 38.0478L137.848 39.6113C138.281 40.0054 138.59 40.5168 138.738 41.0835C138.886 41.6501 138.867 42.2475 138.682 42.8032L136.058 54.317Z" fill="#FF9A82"/>
<path d="M127.82 47.568L124.434 45.4072L119.986 49.8749L111.588 57.6872C111.134 57.586 110.66 57.6251 110.228 57.7993C109.797 57.9736 109.428 58.2747 109.171 58.663C108.915 59.0512 108.782 59.5082 108.791 59.9736C108.799 60.439 108.949 60.8907 109.22 61.2691C109.491 61.6475 109.87 61.9347 110.308 62.0927C110.746 62.2507 111.222 62.2721 111.672 62.154C112.122 62.036 112.526 61.784 112.83 61.4314C113.133 61.0789 113.323 60.6424 113.374 60.1797L122.634 53.2388L127.82 47.568Z" fill="#FFB8B8"/>
<path d="M125.779 50.9379L123.326 45.4704L123.379 45.4025C123.413 45.3599 126.796 41.0953 129.512 38.5968C129.806 38.3093 130.159 38.0894 130.546 37.9525C130.934 37.8155 131.347 37.7648 131.757 37.8038C132.332 37.8528 132.881 38.0686 133.335 38.4249C133.79 38.7811 134.13 39.2623 134.315 39.8093C134.527 40.3804 134.57 41.0004 134.439 41.5953C134.308 42.1901 134.009 42.7347 133.576 43.1638L125.779 50.9379Z" fill="#FF9A82"/>
<path d="M133.407 35.5133C136.347 35.5133 138.73 33.1301 138.73 30.1902C138.73 27.2504 136.347 24.8672 133.407 24.8672C130.468 24.8672 128.084 27.2504 128.084 30.1902C128.084 33.1301 130.468 35.5133 133.407 35.5133Z" fill="#FFB8B8"/>
<path d="M137.706 37.9025L137.686 37.8973L129.95 35.9626C129.682 35.8955 129.434 35.7666 129.224 35.5862C129.015 35.4057 128.851 35.1787 128.745 34.9234C128.64 34.6681 128.595 34.3916 128.616 34.1161C128.636 33.8405 128.721 33.5736 128.863 33.3368L129.119 32.9116C129.368 32.4965 129.51 32.0255 129.531 31.5416C129.551 31.0577 129.451 30.5763 129.238 30.1413C128.871 29.431 128.241 28.8926 127.482 28.6418L127.456 28.6295L127.294 28.5284C127.134 28.453 126.992 28.3451 126.876 28.2116C126.761 28.0781 126.675 27.9219 126.623 27.7531C126.569 27.5781 126.553 27.3938 126.575 27.2122C126.597 27.0305 126.657 26.8555 126.751 26.6985C127.434 25.5562 128.456 24.6552 129.675 24.1209C131.215 23.458 132.949 23.4059 134.526 23.9752C134.631 23.8787 134.758 23.8098 134.897 23.7746C135.035 23.7395 135.18 23.7392 135.318 23.7739C139.324 24.7441 139.654 27.433 138.862 31.7494L139.799 35.5275C139.865 35.7943 139.873 36.0723 139.821 36.3421C139.769 36.612 139.658 36.8673 139.498 37.0903C139.337 37.3133 139.13 37.4986 138.89 37.6334C138.651 37.7681 138.384 37.8491 138.11 37.8707L137.706 37.9025ZM134.483 24.0177L134.483 24.0182L134.483 24.0177ZM134.58 23.9941L134.58 23.9943L134.58 23.9941Z" fill="#2F2E41"/>
<path d="M124.917 119.526H122.92L122.563 117.64L121.65 119.526H116.353C116.099 119.526 115.852 119.444 115.647 119.294C115.443 119.144 115.292 118.932 115.216 118.689C115.141 118.447 115.145 118.187 115.227 117.947C115.31 117.707 115.468 117.499 115.677 117.355L119.907 114.434V112.527L124.356 112.793L124.917 119.526Z" fill="#2F2E41"/>
<path d="M151.868 119.526H149.871L149.514 117.64L148.601 119.526H143.304C143.05 119.526 142.803 119.444 142.598 119.294C142.394 119.144 142.243 118.932 142.167 118.689C142.092 118.447 142.096 118.187 142.178 117.947C142.261 117.707 142.418 117.499 142.627 117.355L146.857 114.434V112.527L151.307 112.793L151.868 119.526Z" fill="#2F2E41"/>
</svg>
