<svg width="200" height="120" viewBox="0 0 200 120" fill="none" xmlns="http://www.w3.org/2000/svg">
<path d="M111.504 31.6091C116.265 31.6091 120.124 27.7496 120.124 22.9886C120.124 18.2277 116.265 14.3682 111.504 14.3682C106.743 14.3682 102.883 18.2277 102.883 22.9886C102.883 27.7496 106.743 31.6091 111.504 31.6091Z" fill="#F2F2F2"/>
<path d="M60.2589 14.3675C64.2264 14.3675 67.4427 11.1512 67.4427 7.18373C67.4427 3.21627 64.2264 0 60.2589 0C56.2915 0 53.0752 3.21627 53.0752 7.18373C53.0752 11.1512 56.2915 14.3675 60.2589 14.3675Z" fill="#F2F2F2"/>
<path d="M29.4907 86.2041C31.5716 88.6705 33.8225 106.452 36.2243 108.602L148.908 108.841C151.31 106.691 153.561 88.91 155.642 86.4436L29.4907 86.2041H29.4907Z" fill="#E6E6E6"/>
<path d="M64.6172 65.3178V89.8766H81.8222V65.3178C81.8228 64.9552 81.5868 64.6347 81.2403 64.5276C81.1608 64.5013 81.0775 64.4884 80.9937 64.4893H65.4481C64.9901 64.4884 64.6181 64.859 64.6172 65.317V65.3178H64.6172ZM71.3316 73.7563C71.3409 72.742 72.1708 71.9273 73.1852 71.9366C74.1863 71.9459 74.9956 72.7552 75.0049 73.7563V76.6059C75 77.6202 74.1738 78.4386 73.1595 78.4338C72.152 78.429 71.3364 77.6134 71.3316 76.6059V73.7563Z" fill="#3F3D56"/>
<path d="M37.6548 28.3178V73.1586C37.6557 74.3484 38.6201 75.3128 39.8099 75.3137H106.259C107.449 75.3128 108.414 74.3484 108.415 73.1586V28.3178C108.412 27.1291 107.448 26.1666 106.259 26.165H39.8099C38.6212 26.1666 37.6576 27.1291 37.6548 28.3178Z" fill="#3F3D56"/>
<path d="M39.1104 28.8759V72.6056C39.1114 73.2413 39.6265 73.7563 40.2621 73.7574H105.603C106.239 73.7563 106.754 73.2413 106.755 72.6056V28.8759C106.755 28.2394 106.239 27.7231 105.603 27.7217H40.2621C39.6257 27.7231 39.1104 28.2394 39.1104 28.8759Z" fill="#0050FF"/>
<path d="M52.4338 92.4822C52.5685 92.6512 52.7732 92.7491 52.9893 92.748H91.8629C92.258 92.7475 92.5778 92.4268 92.5773 92.0318C92.5773 91.9828 92.5722 91.9339 92.5621 91.886L91.9587 89.0197C91.9079 88.7822 91.7402 88.5866 91.5133 88.5C91.4324 88.4683 91.3463 88.4521 91.2595 88.4521H53.5904C53.5035 88.4521 53.4174 88.4683 53.3365 88.5C53.1096 88.5866 52.942 88.7822 52.8912 89.0197L52.2877 91.886C52.2442 92.0966 52.2979 92.3156 52.4338 92.4822H52.4338Z" fill="#3F3D56"/>
<path d="M42.3624 33.7451H103.502C103.636 33.7421 103.742 33.6309 103.739 33.4966C103.737 33.3665 103.632 33.2616 103.502 33.2588H42.3624C42.2281 33.2617 42.1217 33.3729 42.1246 33.5072C42.1274 33.6374 42.2322 33.7422 42.3624 33.7451Z" fill="#3F3D56"/>
<path d="M179.399 81.2544C179.395 81.2424 179.392 81.2328 179.387 81.2233C179.295 80.9741 179.187 80.731 179.064 80.4953C178.367 79.1855 179.105 77.1741 178.319 74.9519C177.05 71.3504 175.503 69.2265 173.236 67.3228C173.169 67.2653 173.102 67.2102 173.032 67.1528L173.03 67.1504C171.516 65.9076 169.692 64.7462 167.426 63.2999C166.955 62.9982 165.324 63.8698 165.362 62.3756C165.405 60.7161 165.451 58.9968 164.637 57.9241L164.584 57.8546L164.5 57.8331C161.709 57.2809 158.862 57.0615 156.019 57.1793H156.016C154.809 57.2242 153.61 57.4 152.441 57.7037C152.355 57.7277 152.269 57.7516 152.185 57.7804C152.12 57.7971 152.056 57.8187 151.991 57.8402L151.938 57.8594L151.898 57.8977C151.11 58.6855 150.928 60.0983 150.842 61.571V61.5734C150.825 61.8416 150.811 62.1098 150.799 62.378C150.731 63.8099 147.276 64.9665 145.959 65.6154C143.485 66.8367 143.859 69.6823 143.83 69.6823C143.83 69.6823 139.671 78.2205 139.621 86.8673C139.618 87.3486 139.615 87.8323 139.611 88.3184C139.582 92.3461 139.506 96.4432 139.204 100.176C139.072 101.781 138.902 103.316 138.675 104.75C137.568 111.735 132.557 105.935 130.16 110.583C130.238 111.04 130.371 111.486 130.555 111.912C130.83 112.075 131.113 112.233 131.393 112.391C132.636 113.083 133.902 113.729 135.191 114.328C135.263 114.362 135.334 114.395 135.406 114.426C137.771 115.52 140.208 116.45 142.7 117.209C143.186 117.357 143.672 117.499 144.163 117.633C148.505 118.832 152.977 119.501 157.479 119.627C157.498 119.625 157.516 119.625 157.534 119.625C162.86 119.478 168.15 118.715 173.3 117.353C173.372 117.333 173.444 117.314 173.516 117.295C173.854 117.204 174.189 117.113 174.524 117.017C177.488 116.174 180.392 115.132 183.216 113.9C183.219 114.005 183.23 114.11 183.247 114.213C183.25 114.247 183.255 114.281 183.262 114.314C183.267 114.276 183.271 114.237 183.274 114.199C183.288 114.086 183.3 113.972 183.312 113.857C184.778 99.5657 181.734 87.4324 179.399 81.2544V81.2544Z" fill="#CCCCCC"/>
<path d="M158.202 55.9379C165.882 55.9379 172.107 49.7122 172.107 42.0324C172.107 34.3526 165.882 28.127 158.202 28.127C150.522 28.127 144.296 34.3526 144.296 42.0324C144.296 49.7122 150.522 55.9379 158.202 55.9379Z" fill="#FFB6B6"/>
<path d="M159.231 56.1889C161.352 55.8101 163.435 55.2509 165.46 54.5174C167.448 53.6932 171.418 49.3973 172.312 47.1036C172.975 45.3995 173.127 42.9106 173.137 41.1229C173.182 36.3355 171.195 31.7536 167.669 28.5148C166.987 27.8358 166.133 27.3539 165.199 27.12C165.118 27.1052 165.035 27.0941 164.951 27.087C163.64 27.0018 162.385 26.5267 161.346 25.7228C161.143 25.5588 160.928 25.4096 160.704 25.2764C159.585 24.6528 158.334 24.3027 157.054 24.2549C154.975 24.1109 152.218 25.193 148.859 27.4725C147.171 28.6178 145.103 28.7252 143.488 28.691C143.305 28.6913 143.136 28.7889 143.043 28.9474C142.505 29.6943 141.704 30.2098 140.801 30.3902C140.252 30.5223 139.82 31.4019 139.313 32.5381C139.198 32.796 139.064 33.097 138.961 33.2842L138.883 32.9783L138.637 33.3844C137.372 35.4738 138.04 38.1931 140.13 39.458C140.691 39.798 141.321 40.0087 141.975 40.0748C142.56 40.1145 143.148 40.0943 143.73 40.0145C144.085 39.978 144.451 39.9402 144.808 39.9328C147.154 39.9553 149.315 41.2082 150.499 43.2324C150.991 44.06 152.062 44.3318 152.889 43.8394C153.019 43.7621 153.139 43.6682 153.244 43.5601C153.864 42.8491 154.792 42.4863 155.73 42.5889C156.147 42.7249 156.504 43.0001 156.743 43.3685C157.024 43.7757 157.421 44.0898 157.882 44.2706C159.426 44.7206 160.147 47.9059 160.163 50.6751C160.179 53.3444 159.582 55.3939 158.711 55.6592C158.04 55.8633 157.972 55.9271 157.946 56.0578L157.922 56.1748L158.019 56.2611C158.424 56.3245 158.837 56.2999 159.231 56.1889H159.231Z" fill="#2F2E41"/>
<path d="M106.316 79.4246C106.92 81.6346 109.201 82.9363 111.411 82.3322C111.647 82.2677 111.877 82.1826 112.097 82.0778L122.438 92.585L124.038 85.0933L113.973 76.264C112.849 74.2532 110.308 73.5339 108.297 74.6576C106.615 75.5978 105.796 77.5686 106.316 79.4246H106.316Z" fill="#FFB6B6"/>
<path d="M160.329 68.4531L160.263 68.4164L152.723 65.8236C150.787 65.1576 148.658 65.3554 146.877 66.3665C146.469 66.5978 146.084 66.8695 145.73 67.1778L145.728 67.1781C144.546 68.1988 143.732 69.5787 143.41 71.1063L139.45 89.908L131.488 85.6169L128.243 84.842L125.289 81.878L117.914 78.8749L117.505 79.3636L113.793 83.7995L113.502 84.1481L121.673 95.9701L125.336 96.3687L126.362 98.194L126.435 98.2273L129.438 99.5807L142.244 105.351L148.446 100.604L149.416 99.8593C157.44 92.4259 161.19 86.4462 162.756 81.8919C163.585 79.4862 163.803 77.4815 163.721 75.8655C163.466 70.871 160.456 68.5487 160.329 68.4531H160.329Z" fill="#CCCCCC"/>
<path d="M167.417 73.0352H163.826C153.444 73.0352 145.028 81.451 145.028 91.8326V91.8326C141.677 95.9762 141.883 101.179 145.028 107.258L134.733 102.966C133.266 102.359 131.585 103.055 130.978 104.521C130.372 105.982 131.062 107.659 132.521 108.271L145.028 113.485V114.456C145.028 117.501 147.496 119.969 150.541 119.969H180.702C183.747 119.969 186.215 117.501 186.215 114.456C188.451 106.252 189.85 98.2969 186.215 91.8325C186.215 81.451 177.799 73.0352 167.417 73.0352Z" fill="#3F3D56"/>
<path d="M81.3319 57.2301C81.8608 57.2301 82.2897 56.8013 82.2897 56.2723C82.2897 55.7433 81.8608 55.3145 81.3319 55.3145C80.8029 55.3145 80.374 55.7433 80.374 56.2723C80.374 56.8013 80.8029 57.2301 81.3319 57.2301Z" fill="#F2F2F2"/>
<path d="M84.6844 57.2301C85.2134 57.2301 85.6422 56.8013 85.6422 56.2723C85.6422 55.7433 85.2134 55.3145 84.6844 55.3145C84.1554 55.3145 83.7266 55.7433 83.7266 56.2723C83.7266 56.8013 84.1554 57.2301 84.6844 57.2301Z" fill="#F2F2F2"/>
<path d="M88.0364 57.2301C88.5654 57.2301 88.9943 56.8013 88.9943 56.2723C88.9943 55.7433 88.5654 55.3145 88.0364 55.3145C87.5074 55.3145 87.0786 55.7433 87.0786 56.2723C87.0786 56.8013 87.5074 57.2301 88.0364 57.2301Z" fill="#F2F2F2"/>
<path d="M31.7085 120H30.1089C30.5519 119.049 30.9901 118.127 31.4068 117.258C31.5121 118.156 31.6127 119.073 31.7085 120Z" fill="#2F2E41"/>
<path d="M45.0116 31.6212C45.6091 31.6212 46.0935 31.126 46.0935 30.5152C46.0935 29.9044 45.6091 29.4092 45.0116 29.4092C44.4141 29.4092 43.9297 29.9044 43.9297 30.5152C43.9297 31.126 44.4141 31.6212 45.0116 31.6212Z" fill="#3F3D56"/>
<path d="M48.7489 31.6212C49.3464 31.6212 49.8308 31.126 49.8308 30.5152C49.8308 29.9044 49.3464 29.4092 48.7489 29.4092C48.1514 29.4092 47.667 29.9044 47.667 30.5152C47.667 31.126 48.1514 31.6212 48.7489 31.6212Z" fill="#3F3D56"/>
<path d="M52.4862 31.6212C53.0837 31.6212 53.5681 31.126 53.5681 30.5152C53.5681 29.9044 53.0837 29.4092 52.4862 29.4092C51.8887 29.4092 51.4043 29.9044 51.4043 30.5152C51.4043 31.126 51.8887 31.6212 52.4862 31.6212Z" fill="#3F3D56"/>
<path d="M56.7476 31.3888C56.7144 31.3888 56.6812 31.376 56.6561 31.3504L55.9261 30.6041C55.8775 30.5544 55.8775 30.4749 55.9261 30.4252L56.6561 29.679C56.7057 29.6286 56.7868 29.6278 56.837 29.677C56.8876 29.7265 56.8885 29.8075 56.839 29.8579L56.1966 30.5147L56.839 31.1715C56.8885 31.2219 56.8876 31.303 56.837 31.3524C56.8122 31.3767 56.7799 31.3888 56.7476 31.3888V31.3888Z" fill="#3F3D56"/>
<path d="M57.9741 31.3889C57.9418 31.3889 57.9095 31.3768 57.8847 31.3525C57.8341 31.303 57.8333 31.2221 57.8827 31.1716L58.5251 30.5148L57.8827 29.858C57.8333 29.8076 57.8341 29.7265 57.8847 29.6771C57.9351 29.6277 58.0162 29.6286 58.0656 29.6791L58.7955 30.4253C58.8442 30.475 58.8442 30.5545 58.7955 30.6042L58.0656 31.3505C58.0405 31.3761 58.0074 31.3889 57.9741 31.3889L57.9741 31.3889Z" fill="#3F3D56"/>
<path d="M98.5511 29.5381H97.1937C97.0389 29.5381 96.9136 29.6635 96.9136 29.8183V31.1769C96.9136 31.3317 97.0389 31.4571 97.1937 31.4571H98.5511C98.7059 31.4571 98.8326 31.3317 98.8326 31.1769V29.8183C98.8326 29.6635 98.7059 29.5381 98.5511 29.5381Z" fill="#3F3D56"/>
<path d="M95.225 29.5381H93.8676C93.7128 29.5381 93.5874 29.6635 93.5874 29.8183V31.1769C93.5874 31.3317 93.7128 31.4571 93.8676 31.4571H95.225C95.3798 31.4571 95.5064 31.3317 95.5064 31.1769V29.8183C95.5064 29.6635 95.3798 29.5381 95.225 29.5381Z" fill="#3F3D56"/>
<path d="M101.685 29.6016H100.328C100.173 29.6016 100.048 29.7269 100.048 29.8817V31.2404C100.048 31.3952 100.173 31.5206 100.328 31.5206H101.685C101.84 31.5206 101.967 31.3952 101.967 31.2404V29.8817C101.967 29.7269 101.84 29.6016 101.685 29.6016Z" fill="#3F3D56"/>
<path d="M79.1338 30.1182H67.1785C66.9892 30.1182 66.8369 30.2717 66.8369 30.4598C66.8369 30.6478 66.9892 30.8013 67.1785 30.8013H79.1338C79.3218 30.8013 79.4754 30.6478 79.4754 30.4598C79.4754 30.2717 79.3218 30.1182 79.1338 30.1182Z" fill="#3F3D56"/>
<path d="M17.3522 36.2915C12.2168 38.8096 10.0951 45.014 12.6133 50.1493C14.731 54.4681 21.2749 58.2353 26.183 59.2631C26.6241 59.3554 27.0654 59.3539 27.4876 59.2753L28.4518 60.3596C28.6523 60.585 28.9785 60.6491 29.2493 60.5163L29.2935 60.4947C29.5761 60.3561 29.7246 60.0398 29.6506 59.7338L29.3048 58.3035C29.5608 58.0414 29.779 57.7358 29.9452 57.3922C32.3928 52.3326 33.3993 45.4952 31.21 41.0304C28.6919 35.895 22.4875 33.7734 17.3522 36.2915H17.3522Z" fill="#FF9A82"/>
<path d="M30.2315 58.6368C30.1536 60.5595 29.569 61.6221 27.4138 60.0184L27.1375 59.4549L29.9551 58.0732L30.2315 58.6368Z" fill="#3F3D56"/>
<path d="M28.8266 58.9785L31.3683 64.3224L31.4539 64.5041L29.5074 84.0645L29.9274 84.9211L30.0572 85.193L29.774 85.3319L29.6511 85.0741L29.2242 84.2034L31.1722 64.6422L30.5638 63.3624L28.5435 59.1139L28.8266 58.9785Z" fill="#3F3D56"/>
<path d="M30.0876 85.1777L29.803 85.3172L29.6505 85.0739L29.2179 84.206L31.0377 64.7077L27.7478 59.4669L28.0137 59.2998L30.5632 63.3623L31.3209 64.5689L29.4433 84.0955L29.5781 84.3667L29.9268 84.921L30.0876 85.1777Z" fill="#3F3D56"/>
<path d="M29.5908 58.5625L31.7197 64.3726L29.6224 84.007L30.1652 85.1389L29.9074 85.2653L29.5783 84.366L29.4463 84.0934L31.4366 64.5115L31.3679 64.3215L29.2959 58.6704L29.5908 58.5625Z" fill="#3F3D56"/>
<path d="M42.3746 49.2056L41.934 49.6462L41.4886 49.2056L41.934 48.7602L42.3746 49.2056ZM43.6485 50.1155H43.7826V50.7956H43.6677C43.6134 50.7956 43.5543 50.7876 43.4905 50.7717C43.4937 51.0973 43.3915 51.3464 43.184 51.5188C42.9796 51.6912 42.6636 51.8269 42.2357 51.9258C41.9611 51.9801 41.7137 51.9881 41.4934 51.9498C41.2763 51.9115 41.0927 51.8189 40.9427 51.672C40.7926 51.5283 40.6792 51.3527 40.6026 51.1452C40.5292 50.9377 40.4989 50.6934 40.5116 50.4125C40.5244 50.1315 40.5851 49.8362 40.6936 49.5265L41.2683 49.7516C41.0767 50.3071 41.0576 50.7222 41.2108 50.9967C41.3641 51.2745 41.661 51.3623 42.1016 51.2602C42.1751 51.2442 42.2325 51.2298 42.274 51.217C42.3187 51.2075 42.3698 51.1947 42.4273 51.1787C42.4848 51.166 42.5279 51.1532 42.5566 51.1404C42.5885 51.1308 42.6236 51.1165 42.662 51.0973C42.7003 51.0814 42.729 51.0654 42.7482 51.0494C42.7673 51.0367 42.7881 51.0191 42.8104 50.9967C42.8328 50.9744 42.8471 50.952 42.8535 50.9297C42.8631 50.9074 42.8711 50.8802 42.8775 50.8483C42.8839 50.8164 42.887 50.7828 42.887 50.7477C42.887 50.7126 42.8839 50.6743 42.8775 50.6328L42.6811 49.3158L43.2798 49.22L43.3324 49.5744C43.3708 49.8011 43.4107 49.9479 43.4522 50.015C43.4937 50.082 43.5591 50.1155 43.6485 50.1155Z" fill="white"/>
<path d="M43.7324 50.7956V50.1155H44.4651C44.6312 50.1155 44.7445 50.0836 44.8052 50.0198C44.869 49.9559 44.8786 49.8426 44.8339 49.6797L44.6471 48.9661L45.2266 48.7937L45.4278 49.5408C45.5267 49.908 45.4804 50.2097 45.2889 50.446C45.0973 50.6791 44.8227 50.7956 44.4651 50.7956H43.7324ZM43.7803 51.8923L43.3876 51.5044L43.7803 51.1117L44.173 51.5044L43.7803 51.8923ZM44.7333 51.8923L44.3454 51.5044L44.7333 51.1117L45.1308 51.5044L44.7333 51.8923Z" fill="white"/>
<path d="M47.3444 50.1155H47.3683V50.7956H47.3444C47.2901 50.7956 47.2502 50.794 47.2247 50.7908C47.2374 51.1292 47.1353 51.3863 46.9182 51.5619C46.7011 51.7375 46.3515 51.8907 45.8693 52.0216L45.7113 51.3655C46.1072 51.257 46.353 51.1724 46.4488 51.1117C46.5765 51.0319 46.6324 50.9026 46.6165 50.7238C46.6165 50.7142 46.6149 50.703 46.6117 50.6902L46.4201 49.3158L47.0187 49.2248L47.081 49.6845C47.1129 49.8729 47.1449 49.9926 47.1768 50.0437C47.2119 50.0916 47.2678 50.1155 47.3444 50.1155Z" fill="white"/>
<path d="M48.2487 48.4729L47.856 48.8656L47.4633 48.4729L47.856 48.0802L48.2487 48.4729ZM49.2065 48.4729L48.8138 48.8656L48.4211 48.4729L48.8138 48.0802L49.2065 48.4729ZM49.3885 50.1155V50.7956C49.1395 50.7956 48.9383 50.7317 48.7851 50.604C48.6222 50.7317 48.4147 50.7956 48.1625 50.7956H47.3196V50.1155H48.1625C48.287 50.1155 48.3716 50.0996 48.4163 50.0677C48.461 50.0357 48.4802 49.9814 48.4738 49.9048V49.8952L48.4211 49.3062L49.0245 49.2487L49.0772 49.8378V49.8665C49.09 49.9687 49.1155 50.0357 49.1538 50.0677C49.1953 50.0996 49.2736 50.1155 49.3885 50.1155Z" fill="white"/>
<path d="M49.34 50.7956V50.1155H50.0728C50.2388 50.1155 50.3521 50.0836 50.4128 50.0198C50.4766 49.9559 50.4862 49.8426 50.4415 49.6797L50.2548 48.9661L50.8342 48.7937L51.0354 49.5408C51.1344 49.908 51.0881 50.2097 50.8965 50.446C50.7049 50.6791 50.4304 50.7956 50.0728 50.7956H49.34ZM49.3879 51.8923L48.9952 51.5044L49.3879 51.1117L49.7806 51.5044L49.3879 51.8923ZM50.341 51.8923L49.953 51.5044L50.341 51.1117L50.7385 51.5044L50.341 51.8923Z" fill="white"/>
<path d="M53.6225 50.6184C53.6417 50.8036 53.6353 50.9616 53.6033 51.0925C53.5714 51.2234 53.5187 51.3352 53.4453 51.4278C53.3751 51.5236 53.2665 51.6066 53.1196 51.6768C52.9728 51.7502 52.8099 51.8125 52.6311 51.8636C52.4555 51.9147 52.2289 51.9674 51.9511 52.0216L51.8314 51.3607C52.0261 51.3192 52.1746 51.2873 52.2767 51.2649C52.3789 51.2426 52.4827 51.2155 52.588 51.1835C52.6966 51.1548 52.7716 51.1292 52.8131 51.1069C52.8578 51.0845 52.8993 51.0542 52.9376 51.0159C52.9792 50.9808 53.0047 50.9441 53.0143 50.9058C53.0239 50.8674 53.027 50.818 53.0239 50.7573C52.8706 50.7828 52.6998 50.7956 52.5114 50.7956C52.2592 50.7956 52.0485 50.7142 51.8792 50.5514C51.71 50.3885 51.6142 50.1762 51.5919 49.9144C51.5664 49.6143 51.6398 49.3477 51.8122 49.1146C51.9878 48.8783 52.2145 48.7538 52.4923 48.7411C52.7732 48.7283 53.0095 48.8241 53.2011 49.0284C53.3926 49.2327 53.506 49.5041 53.5411 49.8426L53.6225 50.6184ZM52.1953 49.8617C52.2113 50.0309 52.3167 50.1155 52.5114 50.1155C52.6742 50.1155 52.8227 50.1044 52.9568 50.082L52.9424 49.9288C52.9265 49.7627 52.8802 49.635 52.8036 49.5456C52.7301 49.4562 52.6375 49.4147 52.5258 49.4211C52.4172 49.4243 52.3326 49.469 52.272 49.5552C52.2113 49.6414 52.1858 49.7436 52.1953 49.8617Z" fill="white"/>
<path d="M56.596 49.6414L56.1554 49.2008L56.596 48.7554L57.0366 49.2008L56.596 49.6414ZM56.9025 51.9258C56.6279 51.9801 56.3805 51.9881 56.1602 51.9498C55.9431 51.9115 55.7595 51.8189 55.6094 51.672C55.4594 51.5283 55.346 51.3527 55.2694 51.1452C55.196 50.9377 55.1656 50.6934 55.1784 50.4125C55.1912 50.1315 55.2518 49.8362 55.3604 49.5265L55.9351 49.7516C55.7435 50.3071 55.7244 50.7222 55.8776 50.9967C56.0309 51.2745 56.3278 51.3623 56.7684 51.2602C56.8418 51.2442 56.8993 51.2298 56.9408 51.217C56.9855 51.2075 57.0366 51.1947 57.0941 51.1787C57.1515 51.166 57.1946 51.1532 57.2234 51.1404C57.2553 51.1308 57.2904 51.1165 57.3287 51.0973C57.3671 51.0814 57.3958 51.0654 57.4149 51.0494C57.4341 51.0367 57.4549 51.0191 57.4772 50.9967C57.4996 50.9744 57.5139 50.952 57.5203 50.9297C57.5299 50.9074 57.5379 50.8802 57.5443 50.8483C57.5506 50.8164 57.5538 50.7828 57.5538 50.7477C57.5538 50.7126 57.5506 50.6743 57.5443 50.6328L57.3479 49.3158L57.9465 49.22C58.0551 49.9447 58.119 50.3837 58.1381 50.537C58.1668 50.7477 58.1621 50.9297 58.1237 51.083C58.0854 51.2394 58.0088 51.3703 57.8939 51.4757C57.7821 51.5842 57.6464 51.672 57.4868 51.7391C57.3303 51.8093 57.1356 51.8716 56.9025 51.9258Z" fill="white"/>
<path d="M59.5674 50.7956C59.229 50.7956 58.988 50.7142 58.8443 50.5514C58.7006 50.3885 58.6208 50.1076 58.6048 49.7085L58.5186 47.5055L59.1221 47.4767L59.2083 49.7085C59.2115 49.8968 59.2306 50.0118 59.2657 50.0533C59.304 50.0948 59.4046 50.1155 59.5674 50.1155H59.6153V50.7956H59.5674Z" fill="white"/>
<path d="M59.5684 50.7956V50.1155H60.3012C60.4672 50.1155 60.5805 50.0836 60.6412 50.0198C60.705 49.9559 60.7146 49.8426 60.6699 49.6797L60.4831 48.9661L61.0626 48.7937L61.2638 49.5408C61.3628 49.908 61.3165 50.2097 61.1249 50.446C60.9333 50.6791 60.6588 50.7956 60.3012 50.7956H59.5684ZM59.6163 51.8923L59.2236 51.5044L59.6163 51.1117L60.009 51.5044L59.6163 51.8923ZM60.5694 51.8923L60.1814 51.5044L60.5694 51.1117L60.9669 51.5044L60.5694 51.8923Z" fill="white"/>
<path d="M63.1804 50.1155H63.2044V50.7956H63.1804C63.1261 50.7956 63.0862 50.794 63.0607 50.7908C63.0735 51.1292 62.9713 51.3863 62.7542 51.5619C62.5371 51.7375 62.1875 51.8907 61.7054 52.0216L61.5473 51.3655C61.9432 51.257 62.1891 51.1724 62.2848 51.1117C62.4126 51.0319 62.4684 50.9026 62.4525 50.7238C62.4525 50.7142 62.4509 50.703 62.4477 50.6902L62.2561 49.3158L62.8548 49.2248L62.917 49.6845C62.9489 49.8729 62.9809 49.9926 63.0128 50.0437C63.0479 50.0916 63.1038 50.1155 63.1804 50.1155Z" fill="white"/>
<path d="M64.0847 48.4729L63.692 48.8656L63.2993 48.4729L63.692 48.0802L64.0847 48.4729ZM65.0425 48.4729L64.6498 48.8656L64.2571 48.4729L64.6498 48.0802L65.0425 48.4729ZM65.2245 50.1155V50.7956C64.9755 50.7956 64.7743 50.7317 64.6211 50.604C64.4583 50.7317 64.2507 50.7956 63.9985 50.7956H63.1556V50.1155H63.9985C64.123 50.1155 64.2076 50.0996 64.2523 50.0677C64.297 50.0357 64.3162 49.9814 64.3098 49.9048V49.8952L64.2571 49.3062L64.8605 49.2487L64.9132 49.8378V49.8665C64.926 49.9687 64.9515 50.0357 64.9899 50.0677C65.0314 50.0996 65.1096 50.1155 65.2245 50.1155Z" fill="white"/>
<path d="M67.4269 47.8407L67.1061 48.1616L66.7852 47.8407L67.1061 47.5198L67.4269 47.8407ZM67.0199 48.5351L66.6271 48.9278L66.2344 48.5351L66.6271 48.1424L67.0199 48.5351ZM67.5802 48.9278L67.1875 48.5351L67.5802 48.1424L67.9729 48.5351L67.5802 48.9278ZM69.0074 50.1155V50.7956C68.7456 50.7956 68.5205 50.7062 68.3321 50.5274C68.1724 50.7062 67.9601 50.7956 67.6951 50.7956C67.4684 50.7956 67.2705 50.711 67.1013 50.5418C66.9416 50.711 66.7357 50.7956 66.4835 50.7956C66.2632 50.7956 66.0732 50.7126 65.9136 50.5466C65.7475 50.7126 65.548 50.7956 65.3149 50.7956H65.176V50.1155H65.3149C65.4426 50.1155 65.5256 50.0948 65.564 50.0533C65.6055 50.0118 65.6262 49.9495 65.6262 49.8665V49.2727H66.1961V49.8665C66.2057 50.0325 66.3015 50.1155 66.4835 50.1155C66.608 50.1155 66.691 50.0948 66.7325 50.0533C66.774 50.0086 66.7948 49.9463 66.7948 49.8665V49.2727H67.3599V49.8665C67.3599 49.8729 67.3599 49.8825 67.3599 49.8952C67.3631 49.9048 67.3695 49.924 67.379 49.9527C67.3886 49.9783 67.403 50.0022 67.4221 50.0245C67.4413 50.0437 67.47 50.0629 67.5084 50.082C67.5499 50.098 67.5977 50.106 67.652 50.106C67.7861 50.106 67.8771 50.0852 67.925 50.0437C67.9761 49.999 67.9905 49.9431 67.9681 49.8761L67.8101 49.287L68.356 49.1242L68.5141 49.7133C68.5173 49.7196 68.5189 49.7292 68.5189 49.742C68.5508 49.8569 68.6115 49.9479 68.7009 50.015C68.7902 50.082 68.8924 50.1155 69.0074 50.1155Z" fill="white"/>
<path d="M70.8178 48.8847C71.0605 49.0156 71.2106 49.2375 71.268 49.5504C71.3255 49.8601 71.2744 50.1634 71.1148 50.4604C71.0286 50.62 70.9056 50.7286 70.746 50.786C70.5864 50.8435 70.4219 50.8307 70.2527 50.7477L69.7163 50.4699C69.528 50.687 69.2933 50.7956 69.0123 50.7956H68.9597V50.1155H69.0123C69.1784 50.1155 69.2981 50.0533 69.3715 49.9288L69.7259 49.2439C69.8377 49.0332 69.9957 48.8943 70.2 48.8273C70.4076 48.757 70.6135 48.7762 70.8178 48.8847ZM70.6359 50.1874C70.7189 50.0405 70.7588 49.9 70.7556 49.7659C70.7556 49.6286 70.7045 49.5313 70.6023 49.4738C70.5193 49.4291 70.4395 49.4259 70.3629 49.4642C70.2862 49.4993 70.2192 49.5728 70.1617 49.6845L70.042 49.9144L70.5928 50.1922C70.5959 50.1954 70.6007 50.1986 70.6071 50.2017C70.6199 50.2081 70.6279 50.2065 70.6311 50.197C70.6343 50.1938 70.6359 50.1906 70.6359 50.1874Z" fill="white"/>
<path d="M74.5625 51.9258C74.2879 51.9801 74.0405 51.9881 73.8202 51.9498C73.6031 51.9115 73.4195 51.8189 73.2694 51.672C73.1194 51.5283 73.006 51.3527 72.9294 51.1452C72.856 50.9377 72.8256 50.6934 72.8384 50.4125C72.8512 50.1315 72.9118 49.8362 73.0204 49.5265L73.5951 49.7516C73.4035 50.3071 73.3844 50.7222 73.5376 50.9967C73.6909 51.2745 73.9878 51.3623 74.4284 51.2602C74.9648 51.1388 75.233 51.0478 75.233 50.9872C75.233 50.9744 75.2122 50.9616 75.1707 50.9489C75.1292 50.9361 75.0574 50.9153 74.9552 50.8866C74.8531 50.8579 74.7637 50.8307 74.687 50.8052C74.4029 50.7062 74.2081 50.5753 74.1028 50.4125C74.0006 50.2496 73.9974 50.0102 74.0932 49.6941C74.189 49.3716 74.3646 49.1162 74.62 48.9278C74.8754 48.7395 75.1659 48.69 75.4916 48.7794L75.8029 48.8656L75.6449 49.5217L75.3336 49.4355C75.2282 49.4067 75.1308 49.4067 75.0414 49.4355C74.9552 49.4642 74.8866 49.5121 74.8355 49.5792C74.7876 49.6462 74.7509 49.7037 74.7253 49.7516C74.6998 49.7995 74.6822 49.8426 74.6727 49.8809C74.6471 49.9735 74.6519 50.0373 74.687 50.0724C74.7222 50.1076 74.8163 50.1491 74.9696 50.197C75.2984 50.2991 75.5012 50.3726 75.5778 50.4173C75.7151 50.4971 75.8013 50.6264 75.8364 50.8052C75.8843 51.067 75.7949 51.2937 75.5682 51.4852C75.3415 51.6768 75.0063 51.8237 74.5625 51.9258Z" fill="white"/>
<path d="M76.6043 50.8148L76.475 47.5055L77.0832 47.4767L77.2077 50.786L76.6043 50.8148Z" fill="white"/>
<path d="M79.0164 50.1155H79.0404V50.7956H79.0164C78.9622 50.7956 78.9222 50.794 78.8967 50.7908C78.9095 51.1292 78.8073 51.3863 78.5902 51.5619C78.3731 51.7375 78.0235 51.8907 77.5414 52.0216L77.3833 51.3655C77.7792 51.257 78.0251 51.1724 78.1209 51.1117C78.2486 51.0319 78.3044 50.9026 78.2885 50.7238C78.2885 50.7142 78.2869 50.703 78.2837 50.6902L78.0921 49.3158L78.6908 49.2248L78.753 49.6845C78.785 49.8729 78.8169 49.9926 78.8488 50.0437C78.8839 50.0916 78.9398 50.1155 79.0164 50.1155Z" fill="white"/>
<path d="M78.9916 50.7956V50.1155H79.37C79.5424 50.1155 79.6589 50.0852 79.7196 50.0245C79.7802 49.9607 79.7882 49.8458 79.7435 49.6797L79.552 48.9661L80.1362 48.7937L80.3278 49.5073C80.43 49.8873 80.3869 50.197 80.1985 50.4364C80.0101 50.6759 79.7339 50.7956 79.37 50.7956H78.9916ZM79.3412 51.945L78.9006 51.4996L79.3412 51.059L79.7866 51.4996L79.3412 51.945Z" fill="white"/>
<path d="M83.3386 49.6414L82.898 49.2008L83.3386 48.7554L83.7792 49.2008L83.3386 49.6414ZM83.6451 51.9258C83.3705 51.9801 83.1231 51.9881 82.9027 51.9498C82.6856 51.9115 82.5021 51.8189 82.352 51.672C82.2019 51.5283 82.0886 51.3527 82.012 51.1452C81.9385 50.9377 81.9082 50.6934 81.921 50.4125C81.9337 50.1315 81.9944 49.8362 82.103 49.5265L82.6777 49.7516C82.4861 50.3071 82.4669 50.7222 82.6202 50.9967C82.7734 51.2745 83.0704 51.3623 83.511 51.2602C83.5844 51.2442 83.6419 51.2298 83.6834 51.217C83.7281 51.2075 83.7792 51.1947 83.8366 51.1787C83.8941 51.166 83.9372 51.1532 83.9659 51.1404C83.9979 51.1308 84.033 51.1165 84.0713 51.0973C84.1096 51.0814 84.1384 51.0654 84.1575 51.0494C84.1767 51.0367 84.1974 51.0191 84.2198 50.9967C84.2421 50.9744 84.2565 50.952 84.2629 50.9297C84.2724 50.9074 84.2804 50.8802 84.2868 50.8483C84.2932 50.8164 84.2964 50.7828 84.2964 50.7477C84.2964 50.7126 84.2932 50.6743 84.2868 50.6328L84.0905 49.3158L84.6891 49.22C84.7977 49.9447 84.8615 50.3837 84.8807 50.537C84.9094 50.7477 84.9046 50.9297 84.8663 51.083C84.828 51.2394 84.7514 51.3703 84.6364 51.4757C84.5247 51.5842 84.389 51.672 84.2293 51.7391C84.0729 51.8093 83.8781 51.8716 83.6451 51.9258Z" fill="white"/>
<path d="M86.31 50.7956C85.9716 50.7956 85.7305 50.7142 85.5868 50.5514C85.4432 50.3885 85.3634 50.1076 85.3474 49.7085L85.2612 47.5055L85.8646 47.4767L85.9508 49.7085C85.954 49.8968 85.9732 50.0118 86.0083 50.0533C86.0466 50.0948 86.1472 50.1155 86.31 50.1155H86.3579V50.7956H86.31Z" fill="white"/>
<path d="M87.9058 46.9978L86.7372 47.4193L86.5888 47.0074L87.7573 46.5859L87.9058 46.9978ZM88.7439 50.1155H88.8109V50.7956H88.7439C88.4821 50.7956 88.2474 50.6918 88.0399 50.4843C88.0303 50.4939 88.0239 50.5019 88.0207 50.5083C87.877 50.6998 87.6535 50.7956 87.3502 50.7956H86.311V50.1155H87.3598C87.4237 50.1155 87.4684 50.1044 87.4939 50.082C87.5737 50.0182 87.5801 49.9367 87.5131 49.8378L86.4594 48.3436L86.5935 47.8311L88.3272 47.1942L88.5427 47.8263L87.2161 48.3148L87.9728 49.4307C87.9888 49.453 88.0095 49.4866 88.0351 49.5313C88.1724 49.7611 88.2905 49.916 88.3895 49.9958C88.4885 50.0756 88.6066 50.1155 88.7439 50.1155Z" fill="white"/>
<path d="M88.7617 50.7956V50.1155H89.4944C89.6604 50.1155 89.7738 50.0836 89.8345 50.0198C89.8983 49.9559 89.9079 49.8426 89.8632 49.6797L89.6764 48.9661L90.2559 48.7937L90.457 49.5408C90.556 49.908 90.5097 50.2097 90.3182 50.446C90.1266 50.6791 89.852 50.7956 89.4944 50.7956H88.7617ZM88.8096 51.8923L88.4169 51.5044L88.8096 51.1117L89.2023 51.5044L88.8096 51.8923ZM89.7626 51.8923L89.3747 51.5044L89.7626 51.1117L90.1601 51.5044L89.7626 51.8923Z" fill="white"/>
<path d="M91.2243 50.8148L91.095 47.5055L91.7032 47.4767L91.8277 50.786L91.2243 50.8148Z" fill="white"/>
<path d="M92.1614 52.0216L92.0033 51.3655C92.3992 51.257 92.6451 51.1724 92.7409 51.1117C92.8686 51.0319 92.9245 50.9026 92.9085 50.7238C92.9085 50.7142 92.9069 50.703 92.9037 50.6902L92.7121 49.3158L93.3108 49.2248L93.5023 50.6088C93.5566 51.0143 93.4752 51.316 93.2581 51.514C93.0442 51.7119 92.6786 51.8811 92.1614 52.0216Z" fill="white"/>
<path d="M97.3523 50.1155H97.4433V50.7956H97.3523C97.1831 50.7956 97.025 50.7573 96.8782 50.6807C96.7345 50.604 96.6132 50.4987 96.5142 50.3646L96.0305 50.4412C95.8453 50.4667 95.6601 50.4157 95.475 50.288C95.293 50.1602 95.17 49.999 95.1062 49.8042C95.0232 49.5648 95.0391 49.3269 95.1541 49.0907C95.269 48.8512 95.443 48.6932 95.6761 48.6165L96.2987 48.4154V48.2478H96.9021V49.7037C96.9021 49.8186 96.9452 49.916 97.0314 49.9958C97.1176 50.0756 97.2246 50.1155 97.3523 50.1155ZM95.9778 49.7659C96.0225 49.7596 96.1295 49.742 96.2987 49.7133V49.0811L95.8677 49.2343C95.7878 49.2631 95.7304 49.3078 95.6953 49.3684C95.6633 49.4259 95.6553 49.4898 95.6713 49.56C95.6873 49.6239 95.724 49.6781 95.7815 49.7228C95.8421 49.7643 95.9076 49.7787 95.9778 49.7659Z" fill="white"/>
<path d="M98.5016 48.4681L98.0562 48.9135L97.6156 48.4681L98.0562 48.0275L98.5016 48.4681ZM98.923 50.1155V50.7956C98.674 50.7956 98.4728 50.7317 98.3196 50.604C98.1567 50.7317 97.9492 50.7956 97.697 50.7956H97.3953V50.1155H97.697C97.8215 50.1155 97.9061 50.0996 97.9508 50.0677C97.9955 50.0357 98.0147 49.9814 98.0083 49.9048V49.8952L97.9556 49.3062L98.559 49.2487L98.6117 49.8378V49.8426C98.6213 49.9511 98.6468 50.0246 98.6883 50.0629C98.7298 50.098 98.8081 50.1155 98.923 50.1155Z" fill="white"/>
<path d="M100.731 48.8847C100.974 49.0156 101.124 49.2375 101.182 49.5504C101.239 49.8601 101.188 50.1634 101.028 50.4604C100.942 50.62 100.819 50.7286 100.66 50.786C100.5 50.8435 100.335 50.8307 100.166 50.7477L99.6298 50.4699C99.4415 50.687 99.2068 50.7956 98.9258 50.7956H98.8732V50.1155H98.9258C99.0919 50.1155 99.2116 50.0533 99.285 49.9288L99.6394 49.2439C99.7512 49.0332 99.9092 48.8943 100.114 48.8273C100.321 48.757 100.527 48.7762 100.731 48.8847ZM100.549 50.1874C100.632 50.0405 100.672 49.9 100.669 49.7659C100.669 49.6286 100.618 49.5313 100.516 49.4738C100.433 49.4291 100.353 49.4259 100.276 49.4642C100.2 49.4993 100.133 49.5728 100.075 49.6845L99.9555 49.9144L100.506 50.1922C100.509 50.1954 100.514 50.1986 100.521 50.2017C100.533 50.2081 100.541 50.2065 100.545 50.197C100.548 50.1938 100.549 50.1906 100.549 50.1874Z" fill="white"/>
<path d="M101.93 50.8148L101.8 47.5055L102.409 47.4767L102.533 50.786L101.93 50.8148Z" fill="white"/>
<path d="M104.106 50.7956C103.857 50.7956 103.652 50.7317 103.493 50.604C103.336 50.4763 103.255 50.3183 103.248 50.1299L103.244 49.8186H103.799C103.799 49.9048 103.802 49.9703 103.809 50.015C103.815 50.082 103.879 50.1155 104 50.1155H104.546C104.773 50.1155 104.858 50.0277 104.8 49.8521C104.749 49.7085 104.661 49.5313 104.537 49.3205C104.415 49.1066 104.307 48.9278 104.211 48.7842L104.063 48.5734L104.556 48.1711C104.607 48.2382 104.671 48.3276 104.747 48.4393C104.827 48.5511 104.942 48.7427 105.092 49.014C105.242 49.2854 105.34 49.5121 105.384 49.6941C105.461 50.0038 105.416 50.2656 105.25 50.4795C105.084 50.6902 104.822 50.7956 104.465 50.7956H104.106Z" fill="white"/>
<path d="M102.335 39.0593C101.399 39.2135 100.82 37.6405 100.216 37.7395C99.1094 37.9209 99.5682 43.5648 98.7029 43.6128C97.9653 43.6537 97.0191 41.1632 96.2377 39.669C95.827 38.8836 95.6037 38.325 95.6037 38.325C95.6037 38.325 95.9454 36.6375 96.4314 37.3035C97.1257 38.255 97.6477 41.5871 98.0327 41.435C98.6223 41.2022 97.9573 38.3373 99.3732 37.4535C100.61 36.6816 103.025 37.7783 103.027 38.4654C103.027 38.7293 102.672 39.0038 102.335 39.0593Z" fill="white"/>
</svg>
