<svg width="64" height="64" viewBox="0 0 64 64" fill="none" xmlns="http://www.w3.org/2000/svg">
<path d="M32.6934 2.6665C33.7272 2.86786 34.697 3.31615 35.5201 3.97317C36.1692 4.48421 36.6746 5.15496 36.9868 5.91984C37.0246 6.06134 37.1139 6.18358 37.2373 6.26253C37.3607 6.34149 37.5091 6.37144 37.6534 6.3465H41.0401C41.3033 6.32599 41.5677 6.36319 41.815 6.45549C42.0624 6.54779 42.2865 6.69297 42.4719 6.88089C42.6573 7.06881 42.7994 7.29493 42.8883 7.54347C42.9773 7.79201 43.0108 8.05697 42.9868 8.31984C42.9868 10.6665 42.9868 13.0132 42.9868 15.3598C43.0063 15.6217 42.9695 15.8847 42.879 16.1311C42.7884 16.3776 42.6461 16.6018 42.4617 16.7888C42.2773 16.9757 42.0551 17.121 41.8099 17.2149C41.5646 17.3088 41.3022 17.3491 41.0401 17.3332H22.9601C22.698 17.3491 22.4355 17.3088 22.1903 17.2149C21.9451 17.121 21.7228 16.9757 21.5384 16.7888C21.354 16.6018 21.2118 16.3776 21.1212 16.1311C21.0307 15.8847 20.9939 15.6217 21.0134 15.3598C21.0134 13.0132 21.0134 10.6665 21.0134 8.31984C20.9893 8.05697 21.0229 7.79201 21.1119 7.54347C21.2008 7.29493 21.3429 7.06881 21.5283 6.88089C21.7137 6.69297 21.9378 6.54779 22.1851 6.45549C22.4324 6.36319 22.6969 6.32599 22.9601 6.3465H26.4534C26.552 6.36566 26.6542 6.34942 26.742 6.30065C26.8298 6.25187 26.8976 6.17367 26.9334 6.07984C27.2592 5.22506 27.7932 4.46516 28.4871 3.86908C29.1809 3.27301 30.0126 2.85965 30.9068 2.6665C30.9351 2.68289 30.9673 2.69151 31.0001 2.69151C31.0329 2.69151 31.065 2.68289 31.0934 2.6665H32.6934Z" fill="white"/>
<path d="M54.0001 13.9197C54.0395 13.3971 53.9661 12.8722 53.7848 12.3805C53.6035 11.8888 53.3185 11.4418 52.9492 11.07C52.5799 10.6982 52.1349 10.4101 51.6445 10.2255C51.154 10.0408 50.6296 9.96379 50.1067 9.99971H47.1201C46.7467 9.99971 46.6401 9.99971 46.6667 10.453V15.1997C46.6721 15.7564 46.6095 16.3116 46.4801 16.853C46.1989 18.0792 45.4934 19.1665 44.4882 19.9229C43.483 20.6792 42.2428 21.0559 40.9867 20.9864H22.9867C22.4734 21.0032 21.9607 20.9402 21.4667 20.7997C20.2556 20.4909 19.186 19.7783 18.4345 18.7795C17.6831 17.7808 17.2946 16.5556 17.3334 15.3064V10.4264C17.3334 10.0797 17.3334 9.97304 16.9067 9.99971H14.2401C13.6785 9.91972 13.1061 9.96874 12.5664 10.143C12.0266 10.3173 11.5337 10.6123 11.125 11.0056C10.7163 11.3989 10.4025 11.8801 10.2076 12.4128C10.0127 12.9454 9.94172 13.5155 10.0001 14.0797V57.2797C9.94037 57.8289 10.0051 58.3845 10.1894 58.9053C10.3738 59.426 10.673 59.8986 11.0649 60.2879C11.4568 60.6773 11.9313 60.9734 12.4533 61.1543C12.9753 61.3352 13.5313 61.3963 14.0801 61.333H49.8934C50.4482 61.397 51.0102 61.3347 51.5376 61.151C52.0649 60.9672 52.5439 60.6666 52.9388 60.2718C53.3337 59.8769 53.6342 59.3979 53.818 58.8705C54.0018 58.3432 54.064 57.7811 54.0001 57.2264V13.9197ZM26.3467 48.5864H19.3067C18.8187 48.5864 18.3507 48.3925 18.0056 48.0475C17.6606 47.7024 17.4667 47.2344 17.4667 46.7464C17.4667 46.2584 17.6606 45.7904 18.0056 45.4453C18.3507 45.1002 18.8187 44.9064 19.3067 44.9064H26.3201C26.8081 44.9064 27.2761 45.1002 27.6211 45.4453C27.9662 45.7904 28.1601 46.2584 28.1601 46.7464C28.1601 47.2344 27.9662 47.7024 27.6211 48.0475C27.2761 48.3925 26.8081 48.5864 26.3201 48.5864H26.3467ZM26.3467 33.9197H19.3067C19.0651 33.9197 18.8258 33.8721 18.6026 33.7796C18.3793 33.6872 18.1765 33.5516 18.0056 33.3808C17.8348 33.2099 17.6992 33.0071 17.6068 32.7838C17.5143 32.5606 17.4667 32.3213 17.4667 32.0797C17.4667 31.8381 17.5143 31.5988 17.6068 31.3756C17.6992 31.1523 17.8348 30.9495 18.0056 30.7786C18.1765 30.6078 18.3793 30.4722 18.6026 30.3798C18.8258 30.2873 19.0651 30.2397 19.3067 30.2397H26.3201C26.5617 30.2397 26.801 30.2873 27.0242 30.3798C27.2474 30.4722 27.4503 30.6078 27.6211 30.7786C27.792 30.9495 27.9275 31.1523 28.02 31.3756C28.1125 31.5988 28.1601 31.8381 28.1601 32.0797C28.1601 32.3213 28.1125 32.5606 28.02 32.7838C27.9275 33.0071 27.792 33.2099 27.6211 33.3808C27.4503 33.5516 27.2474 33.6872 27.0242 33.7796C26.801 33.8721 26.5617 33.9197 26.3201 33.9197H26.3467ZM46.0801 44.4264L38.8534 51.653C38.6858 51.8409 38.4804 51.9913 38.2506 52.0942C38.0208 52.1972 37.7718 52.2504 37.5201 52.2504C37.2683 52.2504 37.0193 52.1972 36.7895 52.0942C36.5598 51.9913 36.3543 51.8409 36.1867 51.653C34.9867 50.4797 33.7867 49.2797 32.6134 48.0797C32.2598 47.7261 32.0611 47.2465 32.0611 46.7464C32.0611 46.2463 32.2598 45.7667 32.6134 45.413C32.967 45.0594 33.4466 44.8608 33.9467 44.8608C34.4468 44.8608 34.9264 45.0594 35.2801 45.413C35.9201 46.0264 36.5601 46.613 37.1467 47.2797C37.7334 47.9464 37.6801 47.6797 38.0534 47.2797L43.6001 41.733C43.825 41.4848 44.1144 41.3037 44.436 41.2099C44.7576 41.1161 45.0989 41.1133 45.4221 41.2016C45.7452 41.29 46.0376 41.4662 46.2667 41.7106C46.4958 41.9551 46.6527 42.2582 46.7201 42.5864C46.7291 42.7018 46.7291 42.8177 46.7201 42.933C46.7227 43.201 46.6669 43.4663 46.5563 43.7105C46.4458 43.9546 46.2832 44.1716 46.0801 44.3464V44.4264ZM46.0801 29.7597L38.8534 36.9864C38.6858 37.1743 38.4804 37.3246 38.2506 37.4276C38.0208 37.5305 37.7718 37.5838 37.5201 37.5838C37.2683 37.5838 37.0193 37.5305 36.7895 37.4276C36.5598 37.3246 36.3543 37.1743 36.1867 36.9864C34.9867 35.813 33.7867 34.613 32.6134 33.413C32.2598 33.0594 32.0611 32.5798 32.0611 32.0797C32.0611 31.5796 32.2598 31.1 32.6134 30.7464C32.967 30.3928 33.4466 30.1941 33.9467 30.1941C34.4468 30.1941 34.9264 30.3928 35.2801 30.7464C35.9201 31.3597 36.5601 31.9464 37.1467 32.613C37.7334 33.2797 37.6801 33.013 38.0534 32.613C39.8934 30.7464 41.7334 28.9064 43.6001 27.0664C43.825 26.8181 44.1144 26.6371 44.436 26.5433C44.7576 26.4495 45.0989 26.4466 45.4221 26.535C45.7452 26.6234 46.0376 26.7995 46.2667 27.044C46.4958 27.2884 46.6527 27.5915 46.7201 27.9197C46.7291 28.0351 46.7291 28.151 46.7201 28.2664C46.7227 28.5343 46.6669 28.7997 46.5563 29.0438C46.4458 29.2879 46.2832 29.5049 46.0801 29.6797V29.7597Z" fill="white"/>
</svg>
