<svg width="50" height="70" viewBox="0 0 50 70" fill="none" xmlns="http://www.w3.org/2000/svg">
<path fill-rule="evenodd" clip-rule="evenodd" d="M0.0312507 7C0.0312507 3.15 2.8125 0 6.25 0H31.25L50 21V63C50 66.85 47.1875 70 43.75 70H6.21875C2.78125 70 0 66.85 0 63L0.0312507 7ZM29.375 5.25V19.5H42.8125L29.375 5.25ZM10.25 59.5C10.1119 59.5 10 59.6119 10 59.75C10 59.8881 10.1119 60 10.25 60H39.75C39.8881 60 40 59.8881 40 59.75C40 59.6119 39.8881 59.5 39.75 59.5H10.25ZM10 54.75C10 54.6119 10.1119 54.5 10.25 54.5H29.75C29.8881 54.5 30 54.6119 30 54.75C30 54.8881 29.8881 55 29.75 55H10.25C10.1119 55 10 54.8881 10 54.75ZM32.5 33.7738C33.8807 33.7738 35 32.6491 35 31.2619C35 29.8746 33.8807 28.75 32.5 28.75C31.1193 28.75 30 29.8746 30 31.2619C30 32.6491 31.1193 33.7738 32.5 33.7738ZM20 31.2619C20 32.6491 18.8807 33.7738 17.5 33.7738C16.1193 33.7738 15 32.6491 15 31.2619C15 29.8746 16.1193 28.75 17.5 28.75C18.8807 28.75 20 29.8746 20 31.2619ZM25.0005 38.2739C23.6213 38.2739 22.2557 38.5469 20.9816 39.0771C19.7075 39.6074 18.55 40.3845 17.5751 41.364C16.6002 42.3436 15.8269 43.5063 15.2995 44.7858C15.1942 45.0411 15.3159 45.3334 15.5711 45.4387C15.8264 45.5439 16.1187 45.4223 16.224 45.167C16.7016 44.0084 17.4016 42.9559 18.2838 42.0695C19.1661 41.183 20.2134 40.48 21.3658 40.0003C22.5182 39.5207 23.7533 39.2739 25.0005 39.2739C26.2477 39.2739 27.4828 39.5207 28.6352 40.0003C29.7877 40.48 30.8349 41.183 31.7172 42.0695C32.5995 42.9559 33.2994 44.0084 33.7771 45.167C33.8823 45.4223 34.1746 45.5439 34.4299 45.4387C34.6852 45.3334 34.8068 45.0411 34.7016 44.7858C34.1741 43.5063 33.4009 42.3436 32.426 41.364C31.4511 40.3845 30.2936 39.6074 29.0195 39.0771C27.7454 38.5469 26.3797 38.2739 25.0005 38.2739Z" fill="#8C9196"/>
</svg>
