<svg width="36" height="36" viewBox="0 0 36 36" fill="none" xmlns="http://www.w3.org/2000/svg">
<path d="M32.115 17.37L18.615 3.87C18.075 3.33 17.325 3 16.5 3H6C4.35 3 3 4.35 3 6V16.5C3 17.325 3.33 18.075 3.885 18.63L17.385 32.13C17.925 32.67 18.675 33 19.5 33C20.325 33 21.075 32.67 21.615 32.115L32.115 21.615C32.67 21.075 33 20.325 33 19.5C33 18.675 32.655 17.91 32.115 17.37ZM8.25 10.5C7.005 10.5 6 9.495 6 8.25C6 7.005 7.005 6 8.25 6C9.495 6 10.5 7.005 10.5 8.25C10.5 9.495 9.495 10.5 8.25 10.5ZM25.905 22.905L19.5 29.31L13.095 22.905C12.42 22.215 12 21.285 12 20.25C12 18.18 13.68 16.5 15.75 16.5C16.785 16.5 17.73 16.92 18.405 17.61L19.5 18.69L20.595 17.595C21.27 16.92 22.215 16.5 23.25 16.5C25.32 16.5 27 18.18 27 20.25C27 21.285 26.58 22.23 25.905 22.905Z" fill="#335363"/>
<rect x="7.70312" y="20.4365" width="16.125" height="15.7837" transform="rotate(-45.0886 7.70312 20.4365)" fill="#335363"/>
</svg>
