<svg width="41" height="40" viewBox="0 0 41 40" fill="none" xmlns="http://www.w3.org/2000/svg">
<rect x="7.99951" width="33" height="33" rx="8" fill="#0850EE"/>
<path d="M22.3482 24.1448C21.8831 25.5524 21.4131 26.9575 20.9528 28.3651C19.7936 31.9134 18.632 35.4591 17.485 39.0098C17.4533 39.1047 17.39 39.4579 17.1002 39.677C16.7714 39.923 16.2454 39.9425 15.9069 39.7136C15.5806 39.492 15.5099 39.0877 15.471 38.9538C14.3629 35.3276 13.2403 31.7063 12.1225 28.0851C12.103 28.0242 12.0957 27.9633 12.0811 27.9C12.0981 27.7344 12.2345 27.654 12.3368 27.5518C16.3453 23.5408 20.3562 19.5324 24.3646 15.5214C24.4596 15.4265 24.5814 15.3485 24.6252 15.2122C24.9564 15.463 25.0441 15.8015 24.8955 16.2764C24.6569 17.0435 24.4133 17.8106 24.1723 18.5777C23.9336 19.2011 23.7266 19.8343 23.5513 20.4748C23.3223 21.0715 23.1275 21.6803 22.9522 22.2964C22.75 22.9125 22.5479 23.5287 22.3482 24.1448Z" fill="#FA8750"/>
<path d="M22.3481 24.1448C22.5478 23.5287 22.75 22.9125 22.9497 22.2964C23.7046 22.4157 24.4571 22.4036 25.212 22.2648C28.8771 21.6024 31.254 17.8544 30.2896 14.2575C29.9852 13.1227 29.3983 12.1559 28.6117 11.2987C29.0306 10.8335 29.4738 10.3903 29.9389 9.97144C30.4723 10.4999 31.5413 11.698 32.0869 13.583C32.6275 15.4508 32.3815 17.0459 32.177 17.8934C31.97 18.7433 31.3928 20.5503 29.7149 22.0919C28.5727 23.1439 27.1091 23.8428 25.3289 24.1935C24.3451 24.3883 23.3393 24.3275 22.3481 24.1448Z" fill="#CCDCFF"/>
<path d="M24.6251 15.2096C24.5789 15.3484 24.4595 15.4239 24.3646 15.5189C20.3561 19.5298 16.3452 23.5383 12.3367 27.5492C12.2344 27.6515 12.098 27.7319 12.081 27.8975C11.477 27.615 10.8292 27.4737 10.1985 27.274C8.24297 26.6555 6.27769 26.0613 4.31972 25.4573C3.14348 25.0944 1.96724 24.7316 0.793434 24.3639C0.262542 24.1983 0.00196407 23.8841 -0.000471212 23.4287C-0.0029065 22.9758 0.255229 22.6616 0.786121 22.4863C5.62747 20.9033 10.4688 19.3204 15.3077 17.735C15.466 17.6839 15.6414 17.6741 15.7777 17.5621C16.4012 17.399 17.0124 17.1992 17.614 16.963C18.2301 16.7828 18.8486 16.6148 19.4429 16.3664C20.0858 16.1959 20.7189 15.9889 21.3399 15.7478C21.4617 15.7186 21.5859 15.6967 21.7052 15.6577C22.353 15.4483 22.9959 15.2242 23.6461 15.0245C23.992 14.9174 24.3426 14.8979 24.6251 15.2096Z" fill="#FFBA99"/>
<path d="M17.6114 16.9656C17.0123 17.2018 16.401 17.4015 15.7752 17.5647C15.4829 15.9428 15.6022 14.3574 16.2038 12.8134C18.3663 7.28047 25.5772 5.71458 29.8341 9.857C29.8706 9.89353 29.9022 9.93492 29.9363 9.97389C29.4688 10.3928 29.028 10.836 28.6091 11.3011C28.5239 11.2232 28.4386 11.1453 28.351 11.0698C26.6755 9.62321 24.7492 9.09717 22.5842 9.56718C19.3916 10.2612 17.0245 13.4028 17.6114 16.9656Z" fill="white"/>
<path d="M27.2919 12.6892C28.8529 14.1187 29.0721 16.7927 27.7497 18.5802C26.7098 19.9853 25.2949 20.6088 23.5488 20.4772C23.7242 19.8343 23.9312 19.2011 24.1698 18.5802C25.3461 18.4925 26.2812 17.74 26.5954 16.6198C26.8706 15.6359 26.6027 14.7836 25.9525 14.0262C26.1765 13.5976 26.5905 13.3419 26.9022 12.9912C27.0094 12.867 27.1043 12.7111 27.2919 12.6892Z" fill="white"/>
<path d="M25.9521 14.0238C24.8002 12.9912 23.3682 12.9181 22.265 13.8533C21.6854 14.3452 21.3615 14.9784 21.3347 15.7504C20.7138 15.9915 20.083 16.2009 19.4377 16.3689C19.3135 14.3939 20.0879 12.8792 21.7975 11.8782C23.5509 10.8554 25.8814 11.2134 27.289 12.6892C26.8458 13.1324 26.3977 13.5781 25.9521 14.0238Z" fill="#C0CEEE"/>
</svg>
