<svg width="16" height="22" viewBox="0 0 16 22" fill="none" xmlns="http://www.w3.org/2000/svg">
<path d="M8 0.899902C3.58871 0.899902 0 4.50672 0 8.94029C0 12.1314 3.96188 17.7842 6.32376 20.8703C6.72706 21.3977 7.33835 21.6999 8 21.6999C8.66165 21.6999 9.27294 21.3977 9.67624 20.8703C12.0381 17.7842 16 12.1314 16 8.94029C16 4.50672 12.4113 0.899902 8 0.899902ZM11.2941 11.7781C11.2941 12.0391 11.0833 12.251 10.8235 12.251H9.41177C9.152 12.251 8.94118 12.0391 8.94118 11.7781V9.88621C8.94118 9.62514 8.73035 9.41325 8.47059 9.41325H7.52941C7.26965 9.41325 7.05882 9.62514 7.05882 9.88621V11.7781C7.05882 12.0391 6.848 12.251 6.58824 12.251H5.17647C4.91671 12.251 4.70588 12.0391 4.70588 11.7781V8.0951C4.70588 7.80517 4.83812 7.53133 5.06447 7.35207L7.70306 5.26299C7.87718 5.12489 8.12282 5.12489 8.29694 5.26299L10.9355 7.35207C11.1619 7.53133 11.2941 7.80517 11.2941 8.0951V11.7781Z" fill="#202223"/>
</svg>
