<svg id="Layer_2" data-name="Layer 2" xmlns="http://www.w3.org/2000/svg" viewBox="0 0 232.66 262.02"><defs><style>.cls-1{fill:#848484;}.cls-2{fill:#5b5b5b;}.cls-3{fill:#c6c6c6;}.cls-4{fill:#fefefe;}</style></defs><path class="cls-1" d="M116.18,131l99.23-56.7V185a5,5,0,0,1-2.5,4.34L116,245.61Z"/><path class="cls-2" d="M116.18,131,17,74.31V185a5,5,0,0,0,2.49,4.33L116,245.61Z"/><path class="cls-3" d="M17,74.31,116.18,131l99.23-56.7L118.84,18.17a5,5,0,0,0-5,0Z"/><path class="cls-3" d="M116.33,258.18a9.53,9.53,0,0,1-4.77-1.28L9,197.42a9.56,9.56,0,0,1-4.75-8.24V72.84A9.53,9.53,0,0,1,9,64.61L111.56,5.13a9.51,9.51,0,0,1,9.54,0L223.71,64.61a9.52,9.52,0,0,1,4.74,8.23V189.18a9.52,9.52,0,0,1-4.74,8.23L121.1,256.9A9.53,9.53,0,0,1,116.33,258.18Zm0-248.33a3.44,3.44,0,0,0-1.76.47L12,69.8a3.54,3.54,0,0,0-1.76,3V189.18a3.55,3.55,0,0,0,1.76,3L114.57,251.7a3.47,3.47,0,0,0,3.52,0L220.7,192.22a3.51,3.51,0,0,0,1.75-3V72.84a3.53,3.53,0,0,0-1.75-3L118.09,10.32A3.44,3.44,0,0,0,116.33,9.85Z"/><path class="cls-4" d="M116,195.93a7.48,7.48,0,0,1-3.77-1L61.65,165.61a5,5,0,0,1-2.49-4.32V103.11a7.49,7.49,0,0,1,3.73-6.48L112.36,68a7.51,7.51,0,0,1,7.53,0l49.29,28.58a7.5,7.5,0,0,1,3.74,6.49v23.69a7.5,7.5,0,0,1-3.74,6.48l-50.73,29.41a4.92,4.92,0,0,1-4.23.37c-7.43-2.9-7.17-11.1-2-14.09l43.21-25a5,5,0,0,0,2.5-4.33v-9.28a5,5,0,0,0-2.5-4.33L118.63,84.57a5,5,0,0,0-5,0L76.65,106a5,5,0,0,0-2.49,4.33v42.32A5,5,0,0,0,76.65,157l36.82,21.34a5,5,0,0,0,5,0l43.17-25a7.5,7.5,0,0,1,7.53,13l-49.44,28.66A7.47,7.47,0,0,1,116,195.93Z"/></svg>