<svg width="300" height="190" viewBox="0 0 300 190" fill="none" xmlns="http://www.w3.org/2000/svg">
<g clip-path="url(#clip0_4508_63551)">
<path d="M113.696 29.9058C113.489 30.1726 113.203 30.3672 112.879 30.4617C112.555 30.5562 112.21 30.5458 111.892 30.4319C111.796 30.4033 111.701 30.3687 111.608 30.3283C111.713 29.2123 111.661 28.0873 111.455 26.9856C111.374 27.9325 111.143 28.8605 110.77 29.7345C110.465 29.4293 110.217 29.0736 110.034 28.6832C109.694 27.8754 109.468 27.0239 109.364 26.1534C108.86 23.1877 108.364 20.1024 109.185 17.2041C110.388 12.9703 114.183 9.92664 115.768 5.81885L116.549 5.11719C117.886 7.39558 117.945 10.2268 117.4 12.8103C116.858 15.399 115.766 17.8285 114.903 20.3249C114.039 22.8214 113.392 25.4768 113.793 28.089C113.885 28.7041 114.025 29.3801 113.696 29.9058Z" fill="#2F2E41"/>
<path d="M96.3404 65.7305L91.2515 89.0277L113.479 96.274L110.211 65.7305H96.3404Z" fill="#FFB6B6"/>
<path d="M253.194 189.369H263.266V143.149C263.253 131.22 258.513 119.785 250.086 111.35C241.659 102.915 230.234 98.1708 218.316 98.1572H124.706C112.788 98.1708 101.363 102.915 92.9362 111.35C84.5094 119.785 79.7693 131.22 79.7559 143.149V189.369H89.8283V157.793C89.8419 145.754 94.626 134.211 103.131 125.698C111.636 117.185 123.168 112.397 135.196 112.383H207.826C219.854 112.397 231.386 117.185 239.891 125.698C248.396 134.211 253.18 145.754 253.194 157.793V189.369Z" fill="#E6E6E6"/>
<path d="M130.796 165.189L120.061 161.936C119.363 159.065 119.011 156.12 119.012 153.165C119.017 152.498 119.212 151.845 119.574 151.285C119.936 150.724 120.45 150.278 121.056 149.999C121.662 149.72 122.334 149.62 122.995 149.71C123.656 149.799 124.277 150.076 124.787 150.506C130.545 155.449 138.978 158.087 144.421 163.719C146.673 166.087 148.365 168.931 149.369 172.041C150.374 175.152 150.667 178.449 150.226 181.688L152.576 189.295C147.317 188.915 142.203 187.399 137.586 184.85C132.969 182.301 128.959 178.781 125.832 174.532C124.102 172.131 122.68 169.521 121.601 166.764C126.154 166.247 130.796 165.189 130.796 165.189Z" fill="#F2F2F2"/>
<path d="M158.774 177.646L164.249 175.987C164.256 175.958 164.263 175.928 164.27 175.899C164.421 175.229 164.373 174.529 164.132 173.886C163.89 173.242 163.466 172.684 162.911 172.279C162.356 171.874 161.695 171.641 161.009 171.609C160.323 171.576 159.643 171.745 159.052 172.095C156.566 173.572 153.806 174.845 151.824 176.896C150.676 178.104 149.813 179.554 149.3 181.141C148.788 182.727 148.638 184.409 148.863 186.061L147.665 189.941C150.347 189.747 152.956 188.974 155.31 187.674C157.665 186.374 159.71 184.578 161.305 182.411C162.188 181.186 162.913 179.855 163.463 178.449C161.141 178.186 158.774 177.646 158.774 177.646Z" fill="#F2F2F2"/>
<path d="M203.094 64.0703H181.773C181.471 64.0708 181.182 64.1911 180.969 64.4049C180.756 64.6186 180.636 64.9083 180.637 65.2102V98.9227H204.233V65.2102C204.233 65.0605 204.203 64.9122 204.146 64.7739C204.089 64.6355 204.005 64.5099 203.899 64.404C203.794 64.2981 203.668 64.2142 203.53 64.1569C203.392 64.0997 203.244 64.0702 203.094 64.0703ZM192.505 83.2253C191.838 83.2222 191.2 82.9557 190.728 82.4838C190.257 82.0119 189.99 81.3727 189.987 80.7053V76.8169C189.988 76.1491 190.254 75.509 190.726 75.0371C191.198 74.5652 191.838 74.3001 192.505 74.3001C193.172 74.3001 193.812 74.5652 194.284 75.0371C194.756 75.509 195.022 76.1491 195.023 76.8169V80.7053C195.02 81.3727 194.753 82.0119 194.282 82.4838C193.81 82.9557 193.172 83.2222 192.505 83.2253Z" fill="#3F3D56"/>
<path d="M238.4 11.458H147.26C146.477 11.4593 145.726 11.7712 145.173 12.3254C144.619 12.8796 144.307 13.6309 144.306 14.4146V75.9732C144.307 76.7571 144.618 77.5087 145.172 78.063C145.726 78.6173 146.477 78.9291 147.26 78.9298H238.4C239.184 78.9291 239.934 78.6173 240.488 78.063C241.042 77.5087 241.354 76.7571 241.354 75.9732V14.4146C241.353 13.6309 241.041 12.8796 240.488 12.3254C239.934 11.7712 239.183 11.4593 238.4 11.458Z" fill="#3F3D56"/>
<path d="M237.64 13.5938H148.022C147.602 13.5947 147.201 13.762 146.904 14.059C146.608 14.3561 146.442 14.7586 146.442 15.1782V75.211C146.443 75.6302 146.609 76.0319 146.905 76.3283C147.202 76.6247 147.603 76.7915 148.022 76.7922H237.64C238.059 76.7915 238.46 76.6247 238.756 76.3283C239.052 76.0319 239.219 75.6302 239.22 75.211V15.1782C239.219 14.7586 239.053 14.3561 238.757 14.059C238.461 13.762 238.059 13.5947 237.64 13.5938Z" fill="white"/>
<path d="M180.563 97.8447V101.097C180.564 101.266 180.631 101.427 180.75 101.547C180.869 101.666 181.03 101.733 181.199 101.733H203.671C203.839 101.732 204 101.665 204.119 101.546C204.238 101.427 204.305 101.266 204.306 101.097V97.8447H180.563Z" fill="#3F3D56"/>
<path d="M220.183 102.864H166.866C166.72 102.864 166.576 102.831 166.444 102.769C166.312 102.706 166.196 102.614 166.104 102.501C166.012 102.387 165.946 102.255 165.912 102.113C165.878 101.971 165.876 101.823 165.906 101.68L166.733 97.7472C166.78 97.5272 166.901 97.3299 167.076 97.1881C167.25 97.0464 167.468 96.9686 167.693 96.9678H219.356C219.581 96.9686 219.799 97.0463 219.973 97.1881C220.148 97.3299 220.269 97.5272 220.316 97.7472L221.143 101.68C221.173 101.823 221.171 101.971 221.137 102.113C221.103 102.255 221.037 102.387 220.945 102.501C220.853 102.614 220.737 102.706 220.605 102.769C220.474 102.831 220.329 102.864 220.183 102.864Z" fill="#3F3D56"/>
<path d="M169.509 97.6768H168.275C168.163 97.6768 168.071 97.7682 168.071 97.881V98.4587C168.071 98.5715 168.163 98.6629 168.275 98.6629H169.509C169.622 98.6629 169.713 98.5715 169.713 98.4587V97.881C169.713 97.7682 169.622 97.6768 169.509 97.6768Z" fill="#E6E6E6"/>
<path d="M172.794 97.6768H171.56C171.447 97.6768 171.355 97.7682 171.355 97.881V98.4587C171.355 98.5715 171.447 98.6629 171.56 98.6629H172.794C172.906 98.6629 172.998 98.5715 172.998 98.4587V97.881C172.998 97.7682 172.906 97.6768 172.794 97.6768Z" fill="#E6E6E6"/>
<path d="M176.078 97.6768H174.844C174.732 97.6768 174.64 97.7682 174.64 97.881V98.4587C174.64 98.5715 174.732 98.6629 174.844 98.6629H176.078C176.191 98.6629 176.282 98.5715 176.282 98.4587V97.881C176.282 97.7682 176.191 97.6768 176.078 97.6768Z" fill="#E6E6E6"/>
<path d="M179.362 97.6768H178.128C178.016 97.6768 177.924 97.7682 177.924 97.881V98.4587C177.924 98.5715 178.016 98.6629 178.128 98.6629H179.362C179.475 98.6629 179.566 98.5715 179.566 98.4587V97.881C179.566 97.7682 179.475 97.6768 179.362 97.6768Z" fill="#E6E6E6"/>
<path d="M182.647 97.6768H181.413C181.3 97.6768 181.208 97.7682 181.208 97.881V98.4587C181.208 98.5715 181.3 98.6629 181.413 98.6629H182.647C182.759 98.6629 182.851 98.5715 182.851 98.4587V97.881C182.851 97.7682 182.759 97.6768 182.647 97.6768Z" fill="#E6E6E6"/>
<path d="M185.931 97.6768H184.697C184.584 97.6768 184.493 97.7682 184.493 97.881V98.4587C184.493 98.5715 184.584 98.6629 184.697 98.6629H185.931C186.043 98.6629 186.135 98.5715 186.135 98.4587V97.881C186.135 97.7682 186.043 97.6768 185.931 97.6768Z" fill="#E6E6E6"/>
<path d="M189.215 97.6768H187.981C187.868 97.6768 187.777 97.7682 187.777 97.881V98.4587C187.777 98.5715 187.868 98.6629 187.981 98.6629H189.215C189.328 98.6629 189.419 98.5715 189.419 98.4587V97.881C189.419 97.7682 189.328 97.6768 189.215 97.6768Z" fill="#E6E6E6"/>
<path d="M192.5 97.6768H191.266C191.153 97.6768 191.062 97.7682 191.062 97.881V98.4587C191.062 98.5715 191.153 98.6629 191.266 98.6629H192.5C192.612 98.6629 192.704 98.5715 192.704 98.4587V97.881C192.704 97.7682 192.612 97.6768 192.5 97.6768Z" fill="#E6E6E6"/>
<path d="M195.784 97.6768H194.55C194.437 97.6768 194.346 97.7682 194.346 97.881V98.4587C194.346 98.5715 194.437 98.6629 194.55 98.6629H195.784C195.896 98.6629 195.988 98.5715 195.988 98.4587V97.881C195.988 97.7682 195.896 97.6768 195.784 97.6768Z" fill="#E6E6E6"/>
<path d="M199.068 97.6768H197.834C197.721 97.6768 197.63 97.7682 197.63 97.881V98.4587C197.63 98.5715 197.721 98.6629 197.834 98.6629H199.068C199.181 98.6629 199.272 98.5715 199.272 98.4587V97.881C199.272 97.7682 199.181 97.6768 199.068 97.6768Z" fill="#E6E6E6"/>
<path d="M202.352 97.6768H201.118C201.005 97.6768 200.914 97.7682 200.914 97.881V98.4587C200.914 98.5715 201.005 98.6629 201.118 98.6629H202.352C202.465 98.6629 202.556 98.5715 202.556 98.4587V97.881C202.556 97.7682 202.465 97.6768 202.352 97.6768Z" fill="#E6E6E6"/>
<path d="M205.636 97.6768H204.402C204.29 97.6768 204.198 97.7682 204.198 97.881V98.4587C204.198 98.5715 204.29 98.6629 204.402 98.6629H205.636C205.749 98.6629 205.84 98.5715 205.84 98.4587V97.881C205.84 97.7682 205.749 97.6768 205.636 97.6768Z" fill="#E6E6E6"/>
<path d="M208.921 97.6768H207.687C207.574 97.6768 207.483 97.7682 207.483 97.881V98.4587C207.483 98.5715 207.574 98.6629 207.687 98.6629H208.921C209.034 98.6629 209.125 98.5715 209.125 98.4587V97.881C209.125 97.7682 209.034 97.6768 208.921 97.6768Z" fill="#E6E6E6"/>
<path d="M212.205 97.6768H210.971C210.858 97.6768 210.767 97.7682 210.767 97.881V98.4587C210.767 98.5715 210.858 98.6629 210.971 98.6629H212.205C212.318 98.6629 212.409 98.5715 212.409 98.4587V97.881C212.409 97.7682 212.318 97.6768 212.205 97.6768Z" fill="#E6E6E6"/>
<path d="M215.489 97.6768H214.255C214.143 97.6768 214.051 97.7682 214.051 97.881V98.4587C214.051 98.5715 214.143 98.6629 214.255 98.6629H215.489C215.602 98.6629 215.693 98.5715 215.693 98.4587V97.881C215.693 97.7682 215.602 97.6768 215.489 97.6768Z" fill="#E6E6E6"/>
<path d="M218.774 97.6768H217.54C217.427 97.6768 217.335 97.7682 217.335 97.881V98.4587C217.335 98.5715 217.427 98.6629 217.54 98.6629H218.774C218.886 98.6629 218.978 98.5715 218.978 98.4587V97.881C218.978 97.7682 218.886 97.6768 218.774 97.6768Z" fill="#E6E6E6"/>
<path d="M169.471 99.3203H168.237C168.124 99.3203 168.033 99.4118 168.033 99.5246V100.102C168.033 100.215 168.124 100.307 168.237 100.307H169.471C169.583 100.307 169.675 100.215 169.675 100.102V99.5246C169.675 99.4118 169.583 99.3203 169.471 99.3203Z" fill="#E6E6E6"/>
<path d="M172.755 99.3203H171.521C171.408 99.3203 171.317 99.4118 171.317 99.5246V100.102C171.317 100.215 171.408 100.307 171.521 100.307H172.755C172.868 100.307 172.959 100.215 172.959 100.102V99.5246C172.959 99.4118 172.868 99.3203 172.755 99.3203Z" fill="#E6E6E6"/>
<path d="M176.039 99.3203H174.805C174.692 99.3203 174.601 99.4118 174.601 99.5246V100.102C174.601 100.215 174.692 100.307 174.805 100.307H176.039C176.152 100.307 176.243 100.215 176.243 100.102V99.5246C176.243 99.4118 176.152 99.3203 176.039 99.3203Z" fill="#E6E6E6"/>
<path d="M179.323 99.3203H178.089C177.977 99.3203 177.885 99.4118 177.885 99.5246V100.102C177.885 100.215 177.977 100.307 178.089 100.307H179.323C179.436 100.307 179.527 100.215 179.527 100.102V99.5246C179.527 99.4118 179.436 99.3203 179.323 99.3203Z" fill="#E6E6E6"/>
<path d="M182.608 99.3203H181.374C181.261 99.3203 181.17 99.4118 181.17 99.5246V100.102C181.17 100.215 181.261 100.307 181.374 100.307H182.608C182.721 100.307 182.812 100.215 182.812 100.102V99.5246C182.812 99.4118 182.721 99.3203 182.608 99.3203Z" fill="#E6E6E6"/>
<path d="M185.892 99.3203H184.658C184.545 99.3203 184.454 99.4118 184.454 99.5246V100.102C184.454 100.215 184.545 100.307 184.658 100.307H185.892C186.005 100.307 186.096 100.215 186.096 100.102V99.5246C186.096 99.4118 186.005 99.3203 185.892 99.3203Z" fill="#E6E6E6"/>
<path d="M189.176 99.3203H187.942C187.83 99.3203 187.738 99.4118 187.738 99.5246V100.102C187.738 100.215 187.83 100.307 187.942 100.307H189.176C189.289 100.307 189.38 100.215 189.38 100.102V99.5246C189.38 99.4118 189.289 99.3203 189.176 99.3203Z" fill="#E6E6E6"/>
<path d="M192.461 99.3203H191.227C191.114 99.3203 191.022 99.4118 191.022 99.5246V100.102C191.022 100.215 191.114 100.307 191.227 100.307H192.461C192.573 100.307 192.665 100.215 192.665 100.102V99.5246C192.665 99.4118 192.573 99.3203 192.461 99.3203Z" fill="#E6E6E6"/>
<path d="M195.745 99.3203H194.511C194.398 99.3203 194.307 99.4118 194.307 99.5246V100.102C194.307 100.215 194.398 100.307 194.511 100.307H195.745C195.857 100.307 195.949 100.215 195.949 100.102V99.5246C195.949 99.4118 195.857 99.3203 195.745 99.3203Z" fill="#E6E6E6"/>
<path d="M199.029 99.3203H197.795C197.683 99.3203 197.591 99.4118 197.591 99.5246V100.102C197.591 100.215 197.683 100.307 197.795 100.307H199.029C199.142 100.307 199.233 100.215 199.233 100.102V99.5246C199.233 99.4118 199.142 99.3203 199.029 99.3203Z" fill="#E6E6E6"/>
<path d="M202.314 99.3203H201.08C200.967 99.3203 200.875 99.4118 200.875 99.5246V100.102C200.875 100.215 200.967 100.307 201.08 100.307H202.314C202.426 100.307 202.518 100.215 202.518 100.102V99.5246C202.518 99.4118 202.426 99.3203 202.314 99.3203Z" fill="#E6E6E6"/>
<path d="M205.598 99.3203H204.364C204.251 99.3203 204.16 99.4118 204.16 99.5246V100.102C204.16 100.215 204.251 100.307 204.364 100.307H205.598C205.71 100.307 205.802 100.215 205.802 100.102V99.5246C205.802 99.4118 205.71 99.3203 205.598 99.3203Z" fill="#E6E6E6"/>
<path d="M208.882 99.3203H207.648C207.535 99.3203 207.444 99.4118 207.444 99.5246V100.102C207.444 100.215 207.535 100.307 207.648 100.307H208.882C208.995 100.307 209.086 100.215 209.086 100.102V99.5246C209.086 99.4118 208.995 99.3203 208.882 99.3203Z" fill="#E6E6E6"/>
<path d="M212.166 99.3203H210.932C210.819 99.3203 210.728 99.4118 210.728 99.5246V100.102C210.728 100.215 210.819 100.307 210.932 100.307H212.166C212.279 100.307 212.37 100.215 212.37 100.102V99.5246C212.37 99.4118 212.279 99.3203 212.166 99.3203Z" fill="#E6E6E6"/>
<path d="M215.451 99.3203H214.217C214.104 99.3203 214.013 99.4118 214.013 99.5246V100.102C214.013 100.215 214.104 100.307 214.217 100.307H215.451C215.563 100.307 215.655 100.215 215.655 100.102V99.5246C215.655 99.4118 215.563 99.3203 215.451 99.3203Z" fill="#E6E6E6"/>
<path d="M218.735 99.3203H217.501C217.388 99.3203 217.297 99.4118 217.297 99.5246V100.102C217.297 100.215 217.388 100.307 217.501 100.307H218.735C218.848 100.307 218.939 100.215 218.939 100.102V99.5246C218.939 99.4118 218.848 99.3203 218.735 99.3203Z" fill="#E6E6E6"/>
<path d="M196.73 101.293H184.001C183.888 101.293 183.797 101.384 183.797 101.497V102.075C183.797 102.188 183.888 102.279 184.001 102.279H196.73C196.843 102.279 196.934 102.188 196.934 102.075V101.497C196.934 101.384 196.843 101.293 196.73 101.293Z" fill="#E6E6E6"/>
<path d="M224.277 28.6643V60.2622C224.277 62.3783 223.437 64.4076 221.942 65.9039C220.447 67.4002 218.42 68.2409 216.306 68.2412H176.794C175.239 68.2415 173.717 67.7866 172.417 66.9324C171.116 66.0783 170.094 64.8621 169.475 63.4337C169.267 62.9617 169.109 62.4696 169.002 61.9651C169.842 62.2904 170.735 62.4564 171.636 62.4547H211.147C213.095 62.4519 214.963 61.6761 216.341 60.2973C217.718 58.9184 218.493 57.0491 218.496 55.0991V23.5012C218.498 22.5998 218.332 21.7059 218.007 20.8652C218.511 20.9721 219.002 21.1305 219.474 21.338C220.901 21.9574 222.116 22.9809 222.97 24.2826C223.823 25.5843 224.277 27.1074 224.277 28.6643Z" fill="#F2F2F2"/>
<path d="M76.8724 154.38L72.9535 156.808L61.4082 142.604L67.1919 139.02L76.8724 154.38Z" fill="#FFB6B6"/>
<path d="M80.2559 159.454L77.1035 160.863L75.2122 158.135L75.0996 161.758L66.7387 165.494C66.3379 165.673 65.8904 165.719 65.4616 165.626C65.0328 165.532 64.645 165.304 64.3549 164.974C64.0649 164.645 63.8877 164.231 63.8492 163.793C63.8108 163.356 63.9131 162.917 64.1413 162.542L68.7596 154.943L67.4164 151.931L74.6264 149.213L80.2559 159.454Z" fill="#2F2E41"/>
<path d="M65.8943 151.648L72.5131 145.228C67.5957 133.082 67.2027 125.553 60.3855 110.864C76.5599 114.175 88.1237 113.974 101.5 111.005C106.029 110.015 117.713 100.981 116.753 96.3493C116.708 96.1328 116.655 95.9183 116.594 95.7058C115.158 90.8057 116.169 83.3019 113.061 77.8643C107.311 75.6946 98.5755 83.0214 91.742 87.4876C88.4469 89.6412 90.859 92.576 88.3979 93.3453L78.9636 96.4106L55.8168 92.6688C54.6981 92.4991 53.557 92.5527 52.4591 92.8264C51.3613 93.1002 50.3284 93.5888 49.42 94.2639C48.5117 94.9391 47.7458 95.7875 47.1666 96.7603C46.5873 97.7331 46.2062 98.8111 46.0451 99.932C46.0059 100.184 45.9775 100.436 45.96 100.691C47.025 106.592 48.1352 112.338 49.3304 117.792C49.7163 119.553 49.0649 122.928 50.5158 122.979C51.9667 123.029 51.3823 126.52 51.8341 128.227C54.616 138.734 56.3751 143.82 65.8943 151.648Z" fill="#2F2E41"/>
<path d="M53.2259 179.808L49.1431 177.675L55.6027 160.547L61.6285 163.695L53.2259 179.808Z" fill="#FFB6B6"/>
<path d="M52.5454 167.021L59.0921 171.532C67.1158 159.917 72.3256 144.397 76.2054 127.031C91.312 120.435 104.531 112.888 113.742 102.766C115.255 101.069 116.048 98.8491 115.954 96.5768C115.859 94.3044 114.885 92.1581 113.237 90.5926C113.075 90.4413 112.909 90.2964 112.737 90.1579C108.747 86.9768 99.8855 88.8072 94.2218 86.1484L84.104 100.165L85.267 103.429L81.7473 105.144L78.7755 106.593L75.3736 108.25L64.2217 113.684C63.2106 114.19 62.3096 114.891 61.5707 115.747C60.8317 116.603 60.2694 117.597 59.9162 118.672C59.563 119.747 59.4259 120.881 59.5127 122.009C59.5996 123.137 59.9087 124.236 60.4223 125.244C60.535 125.473 60.6573 125.696 60.7891 125.914L56.6474 146.566C56.6474 146.566 57.787 150.162 55.9938 149.825C54.2006 149.489 55.1778 153.894 55.1778 153.894L52.5454 167.021Z" fill="#2F2E41"/>
<path d="M50.7536 189.247L47.6931 187.648L48.6548 184.471L45.7477 186.632L37.6304 182.391C37.2413 182.188 36.9273 181.866 36.7343 181.471C36.5412 181.077 36.4792 180.631 36.5572 180.199C36.6353 179.766 36.8494 179.37 37.1683 179.068C37.4871 178.766 37.894 178.575 38.3296 178.521L47.1482 177.426L48.6728 174.502L55.2786 178.471L50.7536 189.247Z" fill="#2F2E41"/>
<path d="M139.991 99.4566L135.216 87.9062L131.454 89.9983L133.726 101.748C133.499 102.492 133.483 103.285 133.681 104.038C133.879 104.791 134.283 105.474 134.848 106.009C135.412 106.545 136.115 106.912 136.876 107.07C137.638 107.228 138.428 107.17 139.159 106.903C139.889 106.636 140.531 106.17 141.011 105.558C141.492 104.945 141.792 104.211 141.879 103.438C141.965 102.664 141.834 101.882 141.501 101.178C141.168 100.475 140.645 99.8788 139.991 99.4566Z" fill="#FFB6B6"/>
<path d="M59.8637 8.12004L67.1293 18.2871L70.3201 15.3963L65.4473 4.46743C65.5005 3.6908 65.3361 2.91474 64.9727 2.22648C64.6093 1.53823 64.0614 0.965072 63.3904 0.571449C62.7194 0.177827 61.952 -0.020657 61.1745 -0.00168662C60.397 0.0172837 59.6402 0.252956 58.9892 0.678834C58.3382 1.10471 57.8188 1.70391 57.4893 2.40907C57.1599 3.11423 57.0335 3.89738 57.1243 4.6705C57.2152 5.44362 57.5197 6.17605 58.0037 6.78543C58.4876 7.39482 59.1318 7.85701 59.8638 8.12004H59.8637Z" fill="#FFB6B6"/>
<path d="M92.6736 72.5603C87.9611 79.8767 105.226 95.8177 114.315 92.0901C115.907 91.4374 121.382 89.2815 117.639 86.2926C113.897 83.3036 118.073 86.6487 118.172 84.7029C118.238 83.4021 117.232 80.5485 118.282 80.6709C119.331 80.7932 119.934 77.754 117.648 76.9799C116.853 76.6957 116.155 76.1905 115.637 75.5235C115.118 74.8566 114.801 74.0555 114.721 73.2142C114.503 65.1949 117.216 56.8222 117.216 56.8222L128.293 85.1629C128.293 85.1629 128.211 90.0659 129.623 88.5676C131.036 87.0693 130.933 91.9187 130.933 91.9187C130.933 91.9187 133.034 93.3859 131.826 94.2024C130.618 95.019 133.126 97.5294 133.126 97.5294L138.978 97.111C138.978 97.111 138.887 92.7596 137.887 91.7973C136.888 90.8349 137.379 89.3207 137.379 89.3207C137.379 89.3207 135.319 87.4027 136.522 85.144C137.724 82.8852 127.764 42.4828 127.764 42.4828C127.365 40.5389 126.436 38.7434 125.081 37.2946C123.727 35.8459 121.998 34.8003 120.086 34.2735L113.765 32.5316L112.643 28.0742H103.743L102.193 31.003L87.98 29.7478C87.98 29.7478 73.9167 16.9405 74.6034 15.9405C75.29 14.9405 73.11 12.5992 73.11 12.5992C73.11 12.5992 71.2482 11.9893 72.2987 11.6636C73.3493 11.338 71.3635 10.5851 71.3635 10.5851C71.3635 10.5851 69.5244 10.1014 70.3918 9.4645C71.2592 8.82759 67.497 8.40918 67.497 8.40918L62.6157 12.3956L63.6023 14.07C63.6023 14.07 63.0008 16.35 63.7858 15.5177C64.5708 14.6853 64.7186 17.1009 64.7186 17.1009C64.7186 17.1009 65.1196 19.746 67.497 20.5429C69.8744 21.3399 71.6772 28.911 71.6772 28.911L91.7421 45.6472C88.6862 49.1581 89.4135 52.8296 92.1207 56.585L92.6736 72.5603Z" fill="#6C63FF"/>
<path d="M107.992 25.1126C113.315 25.1126 117.63 20.7936 117.63 15.466C117.63 10.1383 113.315 5.81934 107.992 5.81934C102.669 5.81934 98.3545 10.1383 98.3545 15.466C98.3545 20.7936 102.669 25.1126 107.992 25.1126Z" fill="#FFB6B6"/>
<path d="M116.405 12.5927C116.159 12.6638 112.539 13.1366 110.971 13.4295C109.433 13.7182 109.165 11.7559 107.907 12.1241C107.908 12.1155 107.906 12.1069 107.903 12.099C107.708 11.0593 107.375 10.0503 106.912 9.09904C107.08 10.0101 107.104 10.942 106.983 11.8605C106.983 11.8844 106.98 11.9082 106.975 11.9316C106.971 11.9735 106.962 12.0111 106.958 12.053C105.629 11.4672 104.784 11.9902 103.865 12.1743C102.836 12.3793 102.034 12.8312 102.611 16.3584C103.794 23.6135 109.947 26.2034 108.881 31.0025C108.672 31.9523 108.145 33.1406 107.485 33.4376C107.29 32.3979 106.957 31.389 106.494 30.4377C106.662 31.3488 106.686 32.2806 106.565 33.1992C105.541 32.0904 104.801 28.216 101.357 25.1449C100.508 24.3917 96.2569 19.9232 95.7469 18.8688C95.9034 19.7118 95.979 20.5678 95.9726 21.4252C95.9736 21.9991 95.9345 22.5723 95.8556 23.1407C95.8555 23.1773 95.8513 23.2138 95.843 23.2495C95.8389 23.3164 95.8263 23.375 95.8179 23.4378C95.8096 23.5089 95.797 23.5758 95.7845 23.647C94.3925 23.4461 93.1593 23.2035 92.5783 22.6344C89.7525 19.8813 93.2011 14.5174 95.0864 9.66388C97.7826 2.71418 105.612 1.78951 106.373 1.71419C109.725 1.37529 115.39 2.09494 117.241 5.89824C118.537 8.56348 117.71 12.2161 116.405 12.5927Z" fill="#2F2E41"/>
<path d="M96.0833 14.1614L103.065 3.29118C101.391 2.31898 99.4863 1.81875 97.5518 1.84366C96.5877 1.86372 95.6386 2.08689 94.7665 2.49864C93.8943 2.91038 93.1186 3.50147 92.4899 4.23335C91.0641 6.00706 90.8194 8.51439 91.3537 10.7273C91.5382 11.4915 95.0515 8.80246 94.2154 10.0577C93.5291 11.0404 92.4068 15.1712 92.1253 16.3337C91.6723 18.2048 90.4267 20.1254 91.5363 21.6979C92.8484 23.5575 95.1898 24.4818 97.4624 24.5757C99.7349 24.6696 101.972 24.0392 104.132 23.3252L96.0833 14.1614Z" fill="#2F2E41"/>
<path d="M98.7657 13.733C98.6649 13.7329 98.5675 13.6963 98.4915 13.63C98.4155 13.5637 98.366 13.4722 98.3521 13.3722C98.3382 13.2723 98.3609 13.1707 98.4159 13.0861C98.471 13.0016 98.5547 12.9398 98.6516 12.9121C98.7612 12.7311 98.7163 11.9693 98.6802 11.3537C98.5443 9.04251 98.3167 5.17433 102.069 2.56316C102.16 2.49982 102.272 2.47526 102.381 2.49487C102.49 2.51449 102.587 2.57668 102.65 2.66776C102.714 2.75884 102.738 2.87136 102.719 2.98055C102.699 3.08974 102.637 3.18667 102.546 3.25002C99.1788 5.59353 99.3809 9.03046 99.5148 11.3045C99.5912 12.6047 99.6465 13.5438 98.8586 13.7226C98.8281 13.7296 98.797 13.7331 98.7657 13.733Z" fill="#6C63FF"/>
<path d="M2.19224e-06 189.098C-0.000388639 189.23 0.0514925 189.357 0.144226 189.45C0.236959 189.543 0.36295 189.596 0.494487 189.596H299.503C299.634 189.596 299.761 189.544 299.854 189.451C299.948 189.357 300 189.231 300 189.098C300 188.966 299.948 188.84 299.854 188.746C299.761 188.653 299.634 188.601 299.503 188.601H0.497459C0.432326 188.6 0.367795 188.613 0.307546 188.638C0.247298 188.663 0.19251 188.699 0.146318 188.745C0.100126 188.791 0.063433 188.846 0.0383304 188.906C0.0132279 188.966 0.00020625 189.03 1.49492e-05 189.096L2.19224e-06 189.098Z" fill="#CCCCCC"/>
</g>
<defs>
<clipPath id="clip0_4508_63551">
<rect width="300" height="189.941" fill="white"/>
</clipPath>
</defs>
</svg>
