<svg width="201" height="108" viewBox="0 0 201 108" fill="none" xmlns="http://www.w3.org/2000/svg">
<g clip-path="url(#clip0_1114_14447)">
<path d="M13.168 90.1599L12.5442 93.2898C12.4972 93.5291 12.448 93.7726 12.3946 94.014C11.8732 93.9059 11.3326 93.9362 10.8265 94.1016C11.228 94.6754 11.5879 95.2773 11.9032 95.9027C11.5101 97.114 10.9333 98.2335 9.9676 99.0432C9.32264 99.572 8.55231 99.9257 7.73091 100.07C6.90951 100.215 6.06475 100.145 5.27809 99.8679L5.30586 99.744C4.26755 97.7293 4.83157 95.1891 6.12199 93.3282C6.78015 92.4102 7.55997 91.5858 8.44004 90.8777C9.3117 90.1513 10.2539 89.4997 11.1875 88.8566C11.3972 88.7124 11.6451 88.634 11.8996 88.6314C12.1541 88.6288 12.4036 88.7022 12.6161 88.842C12.8287 88.9819 12.9948 89.182 13.0931 89.4168C13.1914 89.6515 13.2175 89.9102 13.168 90.1599V90.1599Z" fill="#E4E4E4"/>
<path d="M5.50037 107.399C5.2378 105.486 4.96775 103.549 5.15191 101.616C5.31557 99.8989 5.83921 98.2219 6.90573 96.8469C7.47179 96.1185 8.16058 95.4943 8.94113 95.0025C9.14473 94.8743 9.33188 95.1967 9.12935 95.3245C7.77884 96.178 6.73427 97.4383 6.14622 98.9238C5.49674 100.576 5.39248 102.376 5.50529 104.131C5.57301 105.192 5.71637 106.246 5.861 107.3C5.87265 107.347 5.86564 107.397 5.84142 107.44C5.81719 107.483 5.77758 107.515 5.73068 107.529C5.68298 107.542 5.63213 107.535 5.58916 107.511C5.5462 107.487 5.5146 107.446 5.50123 107.399L5.50037 107.399Z" fill="#F2F2F2"/>
<path d="M7.75381 11.4587C16.9058 11.2995 26.0588 11.2767 35.2127 11.3901C44.3653 11.5042 53.5149 11.7551 62.6614 12.143C67.7938 12.3607 72.9242 12.6214 78.0525 12.9253C78.4646 12.9496 78.4631 12.3086 78.0525 12.2843C68.9152 11.7436 59.7711 11.339 50.6204 11.0706C41.471 10.8028 32.3189 10.672 23.1642 10.6781C18.0271 10.6815 12.8903 10.728 7.75381 10.8177C7.34183 10.8249 7.34053 11.4658 7.75381 11.4587V11.4587Z" fill="#E6E6E6"/>
<path d="M71.5344 7.43979L75.5363 7.14194C75.9451 7.11151 75.9485 6.47033 75.5363 6.50101L71.5344 6.79885C71.1256 6.82928 71.1223 7.47046 71.5344 7.43979Z" fill="#E6E6E6"/>
<path d="M71.5344 11.2854L75.5363 10.9876C75.9451 10.9572 75.9485 10.316 75.5363 10.3466L71.5344 10.6445C71.1256 10.6749 71.1223 11.3161 71.5344 11.2854Z" fill="#E6E6E6"/>
<path d="M71.2333 9.52922L76.9231 10.0461C77.3337 10.0834 77.3312 9.44227 76.9231 9.4052L71.2333 8.88828C70.8227 8.85098 70.8252 9.49214 71.2333 9.52922Z" fill="#E6E6E6"/>
<path d="M10.1222 6.57785C9.84394 6.57613 9.57129 6.65636 9.33829 6.80854C9.10528 6.96071 8.92222 7.1781 8.81191 7.43361C8.68853 7.68369 8.65044 7.96729 8.70347 8.24106C8.75651 8.51483 8.89775 8.76369 9.1056 8.9496C9.30099 9.11583 9.53534 9.22982 9.78675 9.28089C10.0382 9.33196 10.2984 9.31846 10.5432 9.24165C10.7935 9.15422 11.0106 8.99135 11.1645 8.77546C11.3184 8.55957 11.4017 8.30127 11.4027 8.03612C11.4139 7.74195 11.3342 7.45148 11.1745 7.20419C11.0148 6.95691 10.7828 6.76483 10.51 6.65405C10.4281 6.63179 10.3406 6.64283 10.2668 6.68475C10.193 6.72668 10.1387 6.7961 10.1158 6.87788C10.0956 6.95975 10.1075 7.04625 10.1492 7.11958C10.1908 7.19291 10.259 7.2475 10.3396 7.27209C10.3955 7.29367 10.2886 7.24464 10.3408 7.27305C10.3622 7.28473 10.384 7.29528 10.4051 7.30776C10.423 7.31836 10.4401 7.32996 10.4576 7.34133C10.5174 7.38037 10.4283 7.31267 10.4666 7.34776C10.4997 7.3782 10.5326 7.4079 10.5627 7.44149C10.5741 7.45419 10.6188 7.4895 10.5841 7.46482C10.5575 7.44594 10.5738 7.45038 10.5841 7.46554C10.5918 7.47705 10.6 7.48824 10.6077 7.49982C10.6327 7.53763 10.6554 7.57689 10.6757 7.6174C10.6804 7.62677 10.6847 7.63636 10.6895 7.64569C10.6985 7.66317 10.7115 7.66775 10.6904 7.64585C10.6703 7.62494 10.6831 7.62637 10.6903 7.6465C10.6951 7.65973 10.7002 7.67279 10.7048 7.68607C10.7199 7.7293 10.7325 7.77333 10.7426 7.81795C10.7473 7.83858 10.7511 7.85933 10.7551 7.88009C10.7695 7.95368 10.7531 7.83433 10.7565 7.889C10.7594 7.93465 10.7628 7.9798 10.762 8.02562C10.7616 8.04659 10.7607 8.06754 10.7592 8.08846C10.7585 8.09889 10.7573 8.1093 10.7566 8.11973C10.7533 8.17002 10.7532 8.10136 10.7603 8.09666C10.7456 8.13935 10.7359 8.18358 10.7313 8.22848C10.7256 8.2484 10.7187 8.26789 10.7123 8.2876C10.6901 8.35635 10.7333 8.25012 10.7095 8.29711C10.69 8.33748 10.6681 8.37669 10.6441 8.41455C10.6336 8.43041 10.5942 8.46623 10.6264 8.4413C10.6614 8.41425 10.6081 8.46083 10.5968 8.47282C10.5822 8.48821 10.567 8.50307 10.5513 8.5174C10.5413 8.52721 10.5306 8.53643 10.5195 8.54502C10.5175 8.544 10.5731 8.5079 10.5431 8.52701C10.505 8.55129 10.469 8.57728 10.4288 8.59842C10.4242 8.60088 10.3729 8.62465 10.3731 8.62549C10.3709 8.61684 10.439 8.60149 10.3922 8.61661C10.3824 8.61978 10.3728 8.62362 10.363 8.62692C10.3204 8.64126 10.2769 8.65284 10.2328 8.66159C10.2227 8.6636 10.212 8.66463 10.2021 8.6672C10.169 8.67577 10.2337 8.66217 10.2357 8.6633C10.2112 8.66224 10.1867 8.66441 10.1628 8.66975C10.1173 8.67235 10.0717 8.67235 10.0262 8.66974C10.0157 8.66914 10.0052 8.66809 9.99471 8.66748C9.97029 8.66606 9.95237 8.64846 9.98486 8.66756C10.0099 8.68231 10.0078 8.67155 9.98564 8.66745C9.97525 8.66552 9.96481 8.6639 9.95443 8.66196C9.90942 8.65353 9.86492 8.64263 9.82111 8.6293C9.79754 8.62212 9.77445 8.61377 9.75119 8.60564C9.74106 8.6027 9.7312 8.5989 9.72171 8.59429C9.72157 8.59165 9.78164 8.623 9.74993 8.6059C9.70989 8.58433 9.6685 8.56624 9.62941 8.54266C9.60855 8.53008 9.58852 8.5164 9.56823 8.50293C9.55931 8.49755 9.55083 8.49148 9.54287 8.48477C9.54354 8.48206 9.59256 8.52748 9.56683 8.50296C9.53429 8.47195 9.49948 8.44419 9.46866 8.41117C9.46161 8.40361 9.45495 8.39571 9.44792 8.38814L9.44112 8.38037C9.42375 8.35914 9.42343 8.35924 9.44016 8.38067C9.45714 8.38567 9.45637 8.40432 9.44025 8.38011C9.43451 8.37148 9.4284 8.3631 9.42267 8.35447C9.39665 8.31738 9.37445 8.27775 9.35643 8.23618C9.35799 8.23497 9.38419 8.31329 9.36416 8.25418C9.36037 8.24302 9.35612 8.23203 9.35241 8.22083C9.34504 8.19863 9.33856 8.17618 9.33297 8.15349C9.32743 8.131 9.32458 8.10781 9.319 8.08542C9.30958 8.04768 9.3245 8.11519 9.3228 8.11351C9.31746 8.10823 9.31973 8.0755 9.31933 8.06767C9.31677 8.01739 9.32249 7.96858 9.32339 7.9186C9.32409 7.87987 9.32019 7.94877 9.31938 7.94675C9.31957 7.93515 9.32163 7.92366 9.32546 7.91271C9.33126 7.88635 9.33666 7.86002 9.34376 7.83395C9.35189 7.8041 9.36125 7.77462 9.37185 7.7455C9.3758 7.73461 9.38063 7.72387 9.38431 7.71289C9.3978 7.67264 9.3576 7.76148 9.37977 7.7252C9.41025 7.67527 9.43296 7.62124 9.46534 7.57194C9.47301 7.56025 9.51964 7.49514 9.49489 7.52801C9.47024 7.56075 9.52023 7.4987 9.52969 7.48816C9.569 7.44439 9.61522 7.40845 9.65592 7.36654C9.68001 7.34173 9.63911 7.37876 9.6367 7.38048C9.6493 7.37148 9.66164 7.36213 9.6744 7.35334C9.69665 7.338 9.71945 7.3235 9.74279 7.30984C9.76908 7.29443 9.79881 7.28295 9.82429 7.26665C9.85439 7.24738 9.80127 7.2751 9.80031 7.27568C9.81406 7.26886 9.82844 7.26338 9.84325 7.25932C9.86806 7.25052 9.97598 7.20395 9.99862 7.21851C9.9976 7.21785 9.91668 7.22503 9.98209 7.22082C9.99755 7.21983 10.0129 7.21832 10.0284 7.21768C10.0598 7.21638 10.091 7.21717 10.1222 7.21879C10.2071 7.21824 10.2883 7.18429 10.3482 7.12432C10.4082 7.06434 10.4422 6.98315 10.4427 6.89832C10.4409 6.8139 10.4065 6.73344 10.3468 6.67373C10.2871 6.61402 10.2067 6.57967 10.1222 6.57786L10.1222 6.57785Z" fill="#E6E6E6"/>
<path d="M14.6086 6.57785C14.3303 6.57613 14.0576 6.65636 13.8246 6.80854C13.5916 6.96071 13.4085 7.1781 13.2982 7.43361C13.1749 7.68369 13.1368 7.96729 13.1898 8.24106C13.2428 8.51483 13.3841 8.76369 13.5919 8.9496C13.7873 9.11583 14.0217 9.22982 14.2731 9.28089C14.5245 9.33196 14.7847 9.31846 15.0295 9.24165C15.2798 9.15422 15.4969 8.99135 15.6508 8.77546C15.8048 8.55957 15.888 8.30127 15.8891 8.03612C15.9002 7.74195 15.8206 7.45148 15.6608 7.20419C15.5011 6.95691 15.2691 6.76483 14.9963 6.65405C14.9144 6.63179 14.827 6.64283 14.7531 6.68475C14.6793 6.72668 14.625 6.7961 14.6021 6.87788C14.5819 6.95975 14.5939 7.04625 14.6355 7.11958C14.6771 7.19291 14.7453 7.2475 14.826 7.27209C14.8818 7.29367 14.7749 7.24464 14.8271 7.27305C14.8485 7.28473 14.8704 7.29528 14.8914 7.30776C14.9093 7.31836 14.9265 7.32996 14.9439 7.34133C15.0037 7.38037 14.9147 7.31267 14.9529 7.34776C14.9861 7.3782 15.0189 7.4079 15.0491 7.44149C15.0605 7.45419 15.1051 7.4895 15.0704 7.46482C15.0439 7.44594 15.0602 7.45038 15.0704 7.46554C15.0782 7.47705 15.0864 7.48824 15.094 7.49982C15.119 7.53763 15.1417 7.57689 15.1621 7.6174C15.1668 7.62677 15.1711 7.63636 15.1759 7.64569C15.1848 7.66317 15.1978 7.66775 15.1767 7.64585C15.1566 7.62494 15.1694 7.62637 15.1766 7.6465C15.1814 7.65973 15.1866 7.67279 15.1912 7.68607C15.2062 7.7293 15.2188 7.77333 15.2289 7.81795C15.2336 7.83858 15.2374 7.85933 15.2415 7.88009C15.2558 7.95368 15.2394 7.83433 15.2428 7.889C15.2457 7.93465 15.2491 7.9798 15.2483 8.02562C15.2479 8.04659 15.247 8.06754 15.2456 8.08846C15.2448 8.09889 15.2437 8.1093 15.243 8.11973C15.2397 8.17002 15.2395 8.10136 15.2466 8.09666C15.2319 8.13935 15.2222 8.18358 15.2176 8.22848C15.2119 8.2484 15.2051 8.26789 15.1987 8.2876C15.1764 8.35635 15.2196 8.25012 15.1958 8.29711C15.1763 8.33748 15.1544 8.37669 15.1304 8.41455C15.1199 8.43041 15.0806 8.46623 15.1128 8.4413C15.1477 8.41425 15.0944 8.46083 15.0831 8.47282C15.0685 8.48821 15.0533 8.50307 15.0376 8.5174C15.0276 8.52721 15.017 8.53643 15.0058 8.54502C15.0038 8.544 15.0594 8.5079 15.0294 8.52701C14.9913 8.55129 14.9553 8.57728 14.9152 8.59842C14.9105 8.60088 14.8592 8.62465 14.8594 8.62549C14.8572 8.61684 14.9254 8.60149 14.8786 8.61661C14.8687 8.61978 14.8591 8.62362 14.8493 8.62692C14.8067 8.64126 14.7632 8.65284 14.7191 8.66159C14.709 8.6636 14.6984 8.66463 14.6884 8.6672C14.6553 8.67577 14.7201 8.66217 14.722 8.6633C14.6975 8.66224 14.673 8.66441 14.6491 8.66975C14.6036 8.67235 14.558 8.67235 14.5126 8.66974C14.502 8.66914 14.4916 8.66809 14.481 8.66748C14.4566 8.66606 14.4387 8.64846 14.4712 8.66756C14.4963 8.68231 14.4942 8.67155 14.472 8.66745C14.4616 8.66552 14.4511 8.6639 14.4408 8.66196C14.3957 8.65353 14.3512 8.64263 14.3074 8.6293C14.2839 8.62212 14.2608 8.61377 14.2375 8.60564C14.2274 8.6027 14.2175 8.5989 14.208 8.59429C14.2079 8.59165 14.268 8.623 14.2363 8.6059C14.1962 8.58433 14.1548 8.56624 14.1157 8.54266C14.0949 8.53008 14.0748 8.5164 14.0546 8.50293C14.0456 8.49755 14.0372 8.49148 14.0292 8.48477C14.0299 8.48206 14.0789 8.52748 14.0532 8.50296C14.0206 8.47195 13.9858 8.44419 13.955 8.41117C13.9479 8.40361 13.9413 8.39571 13.9342 8.38814L13.9274 8.38037C13.9101 8.35914 13.9098 8.35924 13.9265 8.38067C13.9435 8.38567 13.9427 8.40432 13.9266 8.38011C13.9208 8.37148 13.9147 8.3631 13.909 8.35447C13.883 8.31738 13.8608 8.27775 13.8428 8.23618C13.8443 8.23497 13.8705 8.31329 13.8505 8.25418C13.8467 8.24302 13.8424 8.23203 13.8387 8.22083C13.8314 8.19863 13.8249 8.17618 13.8193 8.15349C13.8138 8.131 13.8109 8.10781 13.8053 8.08542C13.7959 8.04768 13.8108 8.11519 13.8091 8.11351C13.8038 8.10823 13.8061 8.0755 13.8057 8.06767C13.8031 8.01739 13.8088 7.96858 13.8097 7.9186C13.8104 7.87987 13.8065 7.94877 13.8057 7.94675C13.8059 7.93515 13.808 7.92366 13.8118 7.91271C13.8176 7.88635 13.823 7.86002 13.8301 7.83395C13.8382 7.8041 13.8476 7.77462 13.8582 7.7455C13.8621 7.73461 13.867 7.72387 13.8706 7.71289C13.8841 7.67264 13.8439 7.76148 13.8661 7.7252C13.8966 7.67527 13.9193 7.62124 13.9517 7.57194C13.9593 7.56025 14.006 7.49514 13.9812 7.52801C13.9566 7.56075 14.0066 7.4987 14.016 7.48816C14.0553 7.44439 14.1016 7.40845 14.1423 7.36654C14.1663 7.34173 14.1254 7.37876 14.123 7.38048C14.1356 7.37148 14.148 7.36213 14.1607 7.35334C14.183 7.338 14.2058 7.3235 14.2291 7.30984C14.2554 7.29443 14.2851 7.28295 14.3106 7.26665C14.3407 7.24738 14.2876 7.2751 14.2866 7.27568C14.3004 7.26886 14.3148 7.26338 14.3296 7.25932C14.3544 7.25052 14.4623 7.20395 14.485 7.21851C14.4839 7.21785 14.403 7.22503 14.4684 7.22082C14.4839 7.21983 14.4993 7.21832 14.5148 7.21768C14.5461 7.21638 14.5773 7.21717 14.6086 7.21879C14.6934 7.21824 14.7746 7.18429 14.8346 7.12432C14.8945 7.06434 14.9285 6.98315 14.929 6.89832C14.9272 6.8139 14.8929 6.73344 14.8332 6.67373C14.7735 6.61402 14.693 6.57967 14.6086 6.57786L14.6086 6.57785Z" fill="#E6E6E6"/>
<path d="M19.0954 6.57785C18.8171 6.57613 18.5444 6.65636 18.3114 6.80854C18.0784 6.96071 17.8954 7.1781 17.7851 7.43361C17.6617 7.68369 17.6236 7.96729 17.6766 8.24106C17.7297 8.51483 17.8709 8.76369 18.0787 8.9496C18.2741 9.11583 18.5085 9.22982 18.7599 9.28089C19.0113 9.33196 19.2715 9.31846 19.5163 9.24165C19.7666 9.15422 19.9837 8.99135 20.1376 8.77546C20.2916 8.55957 20.3748 8.30127 20.3759 8.03612C20.3871 7.74195 20.3074 7.45148 20.1477 7.20419C19.9879 6.95691 19.7559 6.76483 19.4832 6.65405C19.4012 6.63179 19.3138 6.64283 19.2399 6.68475C19.1661 6.72668 19.1118 6.7961 19.0889 6.87788C19.0687 6.95975 19.0807 7.04625 19.1223 7.11958C19.164 7.19291 19.2321 7.2475 19.3128 7.27209C19.3686 7.29367 19.2618 7.24464 19.3139 7.27305C19.3353 7.28473 19.3572 7.29528 19.3782 7.30776C19.3961 7.31836 19.4133 7.32996 19.4307 7.34133C19.4905 7.38037 19.4015 7.31267 19.4397 7.34776C19.4729 7.3782 19.5057 7.4079 19.5359 7.44149C19.5473 7.45419 19.5919 7.4895 19.5572 7.46482C19.5307 7.44594 19.547 7.45038 19.5572 7.46554C19.565 7.47705 19.5732 7.48824 19.5809 7.49982C19.6058 7.53763 19.6286 7.57689 19.6489 7.6174C19.6536 7.62677 19.6579 7.63636 19.6627 7.64569C19.6717 7.66317 19.6847 7.66775 19.6636 7.64585C19.6434 7.62494 19.6562 7.62637 19.6635 7.6465C19.6682 7.65973 19.6734 7.67279 19.678 7.68607C19.693 7.7293 19.7056 7.77333 19.7158 7.81795C19.7205 7.83858 19.7242 7.85933 19.7283 7.88009C19.7426 7.95368 19.7262 7.83433 19.7297 7.889C19.7325 7.93465 19.7359 7.9798 19.7351 8.02562C19.7348 8.04659 19.7338 8.06754 19.7324 8.08846C19.7316 8.09889 19.7305 8.1093 19.7298 8.11973C19.7265 8.17002 19.7264 8.10136 19.7334 8.09666C19.7188 8.13935 19.709 8.18358 19.7044 8.22848C19.6987 8.2484 19.6919 8.26789 19.6855 8.2876C19.6632 8.35635 19.7064 8.25012 19.6827 8.29711C19.6631 8.33748 19.6413 8.37669 19.6172 8.41455C19.6068 8.43041 19.5674 8.46623 19.5996 8.4413C19.6345 8.41425 19.5813 8.46083 19.5699 8.47282C19.5553 8.48821 19.5402 8.50307 19.5245 8.5174C19.5144 8.52721 19.5038 8.53643 19.4927 8.54502C19.4906 8.544 19.5462 8.5079 19.5163 8.52701C19.4782 8.55129 19.4421 8.57728 19.402 8.59842C19.3973 8.60088 19.346 8.62465 19.3462 8.62549C19.344 8.61684 19.4122 8.60149 19.3654 8.61661C19.3556 8.61978 19.3459 8.62362 19.3361 8.62692C19.2935 8.64126 19.25 8.65284 19.2059 8.66159C19.1959 8.6636 19.1852 8.66463 19.1752 8.6672C19.1421 8.67577 19.2069 8.66217 19.2088 8.6633C19.1843 8.66224 19.1598 8.66441 19.1359 8.66975C19.0904 8.67235 19.0449 8.67235 18.9994 8.66974C18.9889 8.66914 18.9784 8.66809 18.9679 8.66748C18.9434 8.66606 18.9255 8.64846 18.958 8.66756C18.9831 8.68231 18.981 8.67155 18.9588 8.66745C18.9484 8.66552 18.938 8.6639 18.9276 8.66196C18.8826 8.65353 18.8381 8.64263 18.7943 8.6293C18.7707 8.62212 18.7476 8.61377 18.7243 8.60564C18.7142 8.6027 18.7043 8.5989 18.6949 8.59429C18.6947 8.59165 18.7548 8.623 18.7231 8.6059C18.683 8.58433 18.6416 8.56624 18.6026 8.54266C18.5817 8.53008 18.5617 8.5164 18.5414 8.50293C18.5325 8.49755 18.524 8.49148 18.516 8.48477C18.5167 8.48206 18.5657 8.52748 18.54 8.50296C18.5074 8.47195 18.4726 8.44419 18.4418 8.41117C18.4348 8.40361 18.4281 8.39571 18.4211 8.38814L18.4143 8.38037C18.3969 8.35914 18.3966 8.35924 18.4133 8.38067C18.4303 8.38567 18.4295 8.40432 18.4134 8.38011C18.4077 8.37148 18.4015 8.3631 18.3958 8.35447C18.3698 8.31738 18.3476 8.27775 18.3296 8.23618C18.3311 8.23497 18.3573 8.31329 18.3373 8.25418C18.3335 8.24302 18.3293 8.23203 18.3256 8.22083C18.3182 8.19863 18.3117 8.17618 18.3061 8.15349C18.3006 8.131 18.2977 8.10781 18.2921 8.08542C18.2827 8.04768 18.2976 8.11519 18.2959 8.11351C18.2906 8.10823 18.2929 8.0755 18.2925 8.06767C18.2899 8.01739 18.2956 7.96858 18.2965 7.9186C18.2972 7.87987 18.2933 7.94877 18.2925 7.94675C18.2927 7.93515 18.2948 7.92366 18.2986 7.91271C18.3044 7.88635 18.3098 7.86002 18.3169 7.83395C18.325 7.8041 18.3344 7.77462 18.345 7.7455C18.3489 7.73461 18.3538 7.72387 18.3575 7.71289C18.3709 7.67264 18.3307 7.76148 18.3529 7.7252C18.3834 7.67527 18.4061 7.62124 18.4385 7.57194C18.4462 7.56025 18.4928 7.49514 18.468 7.52801C18.4434 7.56075 18.4934 7.4987 18.5028 7.48816C18.5421 7.44439 18.5884 7.40845 18.6291 7.36654C18.6532 7.34173 18.6123 7.37876 18.6098 7.38048C18.6224 7.37148 18.6348 7.36213 18.6476 7.35334C18.6698 7.338 18.6926 7.3235 18.7159 7.30984C18.7422 7.29443 18.772 7.28295 18.7974 7.26665C18.8275 7.24738 18.7744 7.2751 18.7735 7.27568C18.7872 7.26886 18.8016 7.26338 18.8164 7.25932C18.8412 7.25052 18.9491 7.20395 18.9718 7.21851C18.9707 7.21785 18.8898 7.22503 18.9552 7.22082C18.9707 7.21983 18.9861 7.21832 19.0016 7.21768C19.0329 7.21638 19.0641 7.21717 19.0954 7.21879C19.1802 7.21824 19.2614 7.18429 19.3214 7.12432C19.3814 7.06434 19.4153 6.98315 19.4159 6.89832C19.414 6.8139 19.3797 6.73344 19.32 6.67373C19.2603 6.61402 19.1798 6.57967 19.0954 6.57786L19.0954 6.57785Z" fill="#E6E6E6"/>
<path d="M83.9097 77.5532H5.30848C4.31456 77.5521 3.36166 77.1568 2.65884 76.454C1.95603 75.7512 1.56069 74.7983 1.55957 73.8044V3.74891C1.56068 2.75498 1.95602 1.80208 2.65883 1.09926C3.36165 0.396445 4.31455 0.00111455 5.30848 0H83.9097C84.9036 0.00111455 85.8565 0.396445 86.5593 1.09926C87.2621 1.80208 87.6575 2.75498 87.6586 3.74891V73.8044C87.6575 74.7983 87.2621 75.7512 86.5593 76.454C85.8565 77.1568 84.9036 77.5521 83.9097 77.5532V77.5532ZM5.30848 0.42729C4.42784 0.428292 3.58356 0.77857 2.96085 1.40128C2.33814 2.02399 1.98786 2.86827 1.98686 3.74891V73.8044C1.98789 74.685 2.33817 75.5293 2.96088 76.152C3.58359 76.7747 4.42786 77.1249 5.30848 77.1259H83.9097C84.7903 77.1249 85.6346 76.7747 86.2573 76.152C86.88 75.5293 87.2303 74.685 87.2313 73.8044V3.74891C87.2303 2.86827 86.88 2.02399 86.2573 1.40128C85.6346 0.77857 84.7903 0.428293 83.9097 0.42729H5.30848Z" fill="#E6E6E6"/>
<path d="M5.17821 47.6655L32.8195 47.5815L60.3197 47.4978L75.8326 47.4506C75.9157 47.4477 75.9944 47.4127 76.0522 47.3529C76.1099 47.2932 76.1422 47.2133 76.1422 47.1302C76.1422 47.047 76.1099 46.9672 76.0522 46.9074C75.9944 46.8476 75.9157 46.8126 75.8326 46.8097L48.1914 46.8938L20.6912 46.9774L5.17821 47.0246C5.09514 47.0275 5.01643 47.0625 4.95868 47.1223C4.90093 47.1821 4.86865 47.262 4.86865 47.3451C4.86865 47.4282 4.90093 47.5081 4.95868 47.5679C5.01643 47.6276 5.09514 47.6627 5.17821 47.6655V47.6655Z" fill="#E6E6E6"/>
<path d="M19.1224 47.1459L19.2934 37.0539C19.3003 36.6413 18.6594 36.6412 18.6524 37.0539L18.4815 47.1459C18.4745 47.5585 19.1154 47.5586 19.1224 47.1459Z" fill="#E6E6E6"/>
<path d="M32.3335 47.2551L32.75 34.57L32.869 30.9457C32.8826 30.5332 32.2416 30.5336 32.2281 30.9457L31.8116 43.6308L31.6926 47.2551C31.679 47.6676 32.32 47.6671 32.3335 47.2551Z" fill="#E6E6E6"/>
<path d="M45.5085 24.9327C45.2572 29.4256 44.7924 42.678 44.5411 47.171C44.5181 47.5831 45.1591 47.5818 45.1821 47.171C45.4333 42.678 45.8982 29.4256 46.1494 24.9327C46.1725 24.5206 45.5315 24.5219 45.5085 24.9327Z" fill="#E6E6E6"/>
<path d="M58.6201 42.6626L58.5416 46.9811C58.5341 47.3937 59.175 47.3937 59.1825 46.9811C59.2753 41.8807 59.5133 42.047 59.5395 40.6075C59.547 40.1949 58.906 40.1948 58.8985 40.6075C58.8985 40.6075 58.7129 37.5623 58.6201 42.6626Z" fill="#E6E6E6"/>
<path d="M71.4629 31.318L71.5354 43.4335L71.5561 46.9027C71.559 46.9858 71.594 47.0645 71.6538 47.1222C71.7136 47.18 71.7935 47.2123 71.8766 47.2123C71.9597 47.2123 72.0396 47.18 72.0994 47.1222C72.1592 47.0645 72.1942 46.9858 72.1971 46.9027L72.1246 34.7872L72.1038 31.318C72.1009 31.2349 72.0659 31.1562 72.0061 31.0985C71.9464 31.0407 71.8665 31.0084 71.7834 31.0084C71.7002 31.0084 71.6204 31.0407 71.5606 31.0985C71.5008 31.1562 71.4658 31.2349 71.4629 31.318V31.318Z" fill="#E6E6E6"/>
<path d="M5.2297 47.3049C4.69917 45.847 5.8951 44.4448 7.12394 43.8148C8.59617 43.0599 10.2898 42.8888 11.7776 42.1611C13.9958 41.0762 15.6114 39.1291 17.049 37.1802C18.5286 35.1742 19.8825 33.0213 21.7627 31.3546C22.7534 30.4567 23.9236 29.7796 25.1957 29.3679C26.7985 28.8677 28.4984 28.8333 30.1545 29.0349C33.5768 29.4515 36.7493 30.865 40.0515 31.7634C43.1647 32.6104 46.5949 33.0867 49.6507 31.7695C51.2032 31.1003 52.4728 29.978 53.8364 29.0068C55.1561 28.0569 56.6317 27.3451 58.1966 26.9035C61.2641 26.0505 64.614 26.2783 67.4699 27.7203C70.095 29.0287 72.1736 31.2225 73.3387 33.9144C74.6926 37.1486 74.5163 40.7629 74.074 44.1672C73.9597 45.0471 73.8237 45.9241 73.6861 46.8007C73.6228 47.2042 74.2403 47.378 74.3042 46.9711C74.8549 43.4607 75.404 39.8392 74.7187 36.3068C74.1262 33.2223 72.4301 30.4594 69.9478 28.5351C67.455 26.6055 64.3561 25.6275 61.2073 25.7766C59.5572 25.8532 57.9328 26.2145 56.4058 26.8445C54.8207 27.5001 53.4784 28.4719 52.115 29.4945C50.7132 30.5458 49.2682 31.4155 47.5278 31.7584C45.8397 32.0909 44.0835 31.9663 42.4028 31.6523C38.9349 31.0043 35.7024 29.519 32.2638 28.7579C29.078 28.0528 25.6403 27.9824 22.7875 29.7821C20.593 31.1665 19.0424 33.3158 17.5543 35.3912C16.0792 37.4483 14.5855 39.6481 12.4285 41.0534C11.1127 41.9106 9.63363 42.2269 8.16172 42.709C6.68601 43.1923 5.26931 44.0077 4.6676 45.5196C4.40827 46.1423 4.38834 46.8388 4.61166 47.4753C4.7516 47.8599 5.37122 47.6938 5.2297 47.3049V47.3049Z" fill="#E6E6E6"/>
<path d="M18.9102 35.6584L18.9092 35.659L18.9112 35.6584H18.9102Z" fill="#E6E6E6"/>
<path d="M20.0213 35.0689C19.8732 34.8066 19.6369 34.6053 19.3543 34.5007C19.0718 34.3961 18.7614 34.3951 18.4781 34.4978C18.3373 34.5492 18.2083 34.6283 18.0986 34.7304C17.9889 34.8325 17.9008 34.9556 17.8395 35.0924C17.8273 35.1214 17.8201 35.152 17.8101 35.1818C17.7962 35.2042 17.7795 35.2245 17.767 35.248C17.6342 35.5127 17.5978 35.8155 17.6642 36.1041C17.7306 36.3927 17.8955 36.6492 18.1306 36.8293C18.3657 37.0094 18.6562 37.1019 18.9522 37.0909C19.2482 37.0798 19.531 36.9659 19.752 36.7687C19.9843 36.5588 20.1377 36.2756 20.1867 35.9664C20.2357 35.6571 20.1773 35.3404 20.0213 35.0689V35.0689ZM19.2186 35.6132C19.2212 35.6294 19.2203 35.6442 19.2186 35.6132V35.6132ZM19.137 35.4277C19.1339 35.4241 19.1343 35.4245 19.137 35.4277V35.4277ZM18.7774 35.5723C18.7726 35.5649 18.7721 35.5636 18.7774 35.5723V35.5723ZM18.8626 35.6446C18.8829 35.6515 18.8749 35.65 18.8626 35.6446V35.6446ZM18.9007 35.6627L18.9091 35.6588C18.907 35.659 18.905 35.6586 18.9031 35.6576L18.9034 35.6576L18.91 35.6584L18.9112 35.6579L18.9074 35.657C18.9107 35.6569 18.9111 35.6573 18.9113 35.6578C18.9495 35.6404 18.9236 35.6488 18.9015 35.6556L18.9001 35.6553C18.8863 35.6483 18.8714 35.6435 18.8561 35.6412C18.8547 35.6404 18.853 35.6398 18.8518 35.639C18.8396 35.6302 18.7776 35.5818 18.8351 35.6326C18.8226 35.6215 18.8102 35.6107 18.7984 35.5987C18.7915 35.5916 18.7852 35.5839 18.7796 35.5756C18.7721 35.5627 18.7648 35.5496 18.7577 35.5364L18.7566 35.5293C18.7557 35.5234 18.7549 35.521 18.7542 35.5174C18.7545 35.5138 18.7551 35.5098 18.7557 35.506C18.76 35.4945 18.7627 35.4824 18.7638 35.4702L18.7663 35.467C18.7755 35.4542 18.7836 35.4392 18.7924 35.4259C18.7459 35.4964 18.8105 35.4181 18.8154 35.4082C18.8162 35.4065 18.8147 35.4074 18.8151 35.4062C18.817 35.4052 18.8164 35.4059 18.8187 35.4046C18.8331 35.3961 18.8467 35.3866 18.8613 35.3785C18.8787 35.3689 18.9473 35.3494 18.8762 35.3697C18.8923 35.3651 18.9078 35.3593 18.9242 35.355C18.9271 35.3543 18.9511 35.3509 18.964 35.3486C18.9753 35.3483 18.9863 35.348 18.9874 35.348C18.9928 35.348 18.9981 35.3487 19.0034 35.3489C18.9916 35.3505 19.0439 35.3618 19.0594 35.3642C19.0617 35.366 19.0628 35.3671 19.0659 35.3693C19.079 35.3789 19.095 35.3874 19.1088 35.3964C19.0469 35.3563 19.1096 35.3996 19.1215 35.4114C19.1286 35.4185 19.1351 35.4261 19.1418 35.4335C19.1479 35.4406 19.1534 35.4482 19.1583 35.4562C19.1684 35.4748 19.1792 35.4936 19.1899 35.5119L19.1929 35.5166C19.1928 35.5172 19.1928 35.5178 19.1928 35.5185C19.1983 35.5482 19.2066 35.5773 19.2173 35.6056C19.2178 35.608 19.2183 35.6104 19.2185 35.6128C19.2195 35.6291 19.2209 35.6453 19.2209 35.6617L19.2208 35.665C19.1714 35.6392 19.1167 35.6256 19.061 35.6252C19.0053 35.6248 18.9504 35.6377 18.9007 35.6627H18.9007Z" fill="#E6E6E6"/>
<path d="M18.9118 35.6581C18.9129 35.6584 18.9119 35.6584 18.9116 35.6585L18.9118 35.6581Z" fill="#E6E6E6"/>
<path d="M18.9116 35.658L18.9127 35.6583L18.9116 35.658Z" fill="#E6E6E6"/>
<path d="M18.9118 35.6584L18.9106 35.6586C18.9121 35.6587 18.9116 35.6585 18.9118 35.6584Z" fill="#E6E6E6"/>
<path d="M18.9111 35.6578L18.9116 35.6581L18.9111 35.6578Z" fill="#E6E6E6"/>
<path d="M32.5835 29.6764L32.5825 29.6769L32.5846 29.6764H32.5835Z" fill="#E6E6E6"/>
<path d="M33.6946 29.0869C33.5465 28.8245 33.3102 28.6232 33.0277 28.5186C32.7451 28.4141 32.4347 28.413 32.1515 28.5157C32.0107 28.5671 31.8816 28.6462 31.7719 28.7483C31.6622 28.8505 31.5742 28.9735 31.5129 29.1103C31.5006 29.1394 31.4934 29.1699 31.4834 29.1997C31.4695 29.2222 31.4528 29.2425 31.4404 29.2659C31.3076 29.5306 31.2712 29.8334 31.3375 30.122C31.4039 30.4107 31.5688 30.6671 31.8039 30.8472C32.039 31.0274 32.3296 31.1198 32.6255 31.1088C32.9215 31.0977 33.2043 30.9838 33.4253 30.7867C33.6576 30.5767 33.811 30.2935 33.86 29.9843C33.909 29.675 33.8506 29.3583 33.6946 29.0869ZM32.8919 29.6311C32.8946 29.6473 32.8936 29.6622 32.8919 29.6311V29.6311ZM32.8103 29.4456C32.8072 29.442 32.8076 29.4424 32.8103 29.4456V29.4456ZM32.4507 29.5902C32.4459 29.5828 32.4454 29.5816 32.4507 29.5902V29.5902ZM32.5359 29.6625C32.5562 29.6694 32.5482 29.668 32.5359 29.6625V29.6625ZM32.574 29.6806L32.5824 29.6768C32.5804 29.677 32.5783 29.6766 32.5765 29.6756L32.5767 29.6755L32.5833 29.6764L32.5846 29.6758L32.5807 29.6749C32.584 29.6748 32.5844 29.6753 32.5846 29.6758C32.6228 29.6583 32.597 29.6667 32.5749 29.6736L32.5734 29.6732C32.5596 29.6662 32.5447 29.6615 32.5294 29.6591C32.528 29.6583 32.5263 29.6577 32.5252 29.6569C32.5129 29.6482 32.4509 29.5997 32.5084 29.6505C32.4959 29.6395 32.4835 29.6286 32.4717 29.6167C32.4648 29.6095 32.4585 29.6018 32.4529 29.5936C32.4454 29.5806 32.4381 29.5675 32.431 29.5544L32.4299 29.5473C32.429 29.5414 32.4283 29.5389 32.4275 29.5354C32.4279 29.5317 32.4284 29.5278 32.429 29.5239C32.4333 29.5124 32.436 29.5004 32.4372 29.4881L32.4396 29.485C32.4488 29.4721 32.4569 29.4572 32.4657 29.4438C32.4192 29.5144 32.4838 29.436 32.4887 29.4261C32.4895 29.4244 32.4881 29.4253 32.4884 29.4242C32.4903 29.4231 32.4897 29.4238 32.492 29.4225C32.5064 29.414 32.52 29.4046 32.5346 29.3965C32.552 29.3868 32.6206 29.3674 32.5495 29.3877C32.5657 29.3831 32.5812 29.3772 32.5975 29.373C32.6004 29.3722 32.6244 29.3689 32.6373 29.3665C32.6486 29.3662 32.6596 29.3659 32.6608 29.3659C32.6661 29.366 32.6714 29.3666 32.6767 29.3669C32.6649 29.3684 32.7172 29.3798 32.7328 29.3821C32.735 29.3839 32.7361 29.385 32.7392 29.3873C32.7523 29.3969 32.7683 29.4054 32.7822 29.4143C32.7202 29.3743 32.783 29.4175 32.7948 29.4294C32.8019 29.4364 32.8084 29.444 32.8151 29.4514C32.8212 29.4585 32.8267 29.4661 32.8316 29.4741C32.8417 29.4927 32.8526 29.5116 32.8632 29.5299L32.8662 29.5346C32.8661 29.5352 32.8661 29.5358 32.8661 29.5364C32.8717 29.5661 32.8799 29.5953 32.8906 29.6235C32.8912 29.6259 32.8916 29.6283 32.8919 29.6308C32.8928 29.647 32.8942 29.6632 32.8942 29.6796L32.8941 29.6829C32.8447 29.6572 32.79 29.6436 32.7343 29.6432C32.6787 29.6428 32.6237 29.6556 32.574 29.6806V29.6806Z" fill="#E6E6E6"/>
<path d="M32.5851 29.6763L32.584 29.6765C32.5855 29.6767 32.5849 29.6764 32.5851 29.6763Z" fill="#E6E6E6"/>
<path d="M32.5845 29.6757L32.585 29.676L32.5845 29.6757Z" fill="#E6E6E6"/>
<path d="M32.5852 29.676C32.5863 29.6763 32.5852 29.6763 32.585 29.6763L32.5852 29.676Z" fill="#E6E6E6"/>
<path d="M32.585 29.6759L32.5861 29.6762L32.585 29.6759Z" fill="#E6E6E6"/>
<path d="M45.8306 32.6667L45.8311 32.667L45.8306 32.6667Z" fill="#E6E6E6"/>
<path d="M46.9408 23.1047C46.7926 22.8424 46.5563 22.6411 46.2738 22.5365C45.9912 22.432 45.6808 22.4309 45.3976 22.5336C45.2568 22.585 45.1277 22.6641 45.018 22.7662C44.9083 22.8683 44.8202 22.9914 44.759 23.1282C44.7467 23.1573 44.7395 23.1878 44.7295 23.2176C44.7156 23.2401 44.6989 23.2603 44.6865 23.2838C44.5536 23.5485 44.5173 23.8513 44.5836 24.1399C44.65 24.4285 44.8149 24.685 45.05 24.8651C45.2851 25.0452 45.5757 25.1377 45.8716 25.1267C46.1676 25.1156 46.4504 25.0017 46.6714 24.8045C46.9037 24.5946 47.0571 24.3114 47.1061 24.0022C47.1551 23.6929 47.0967 23.3762 46.9408 23.1047V23.1047ZM46.138 23.649C46.1407 23.6652 46.1397 23.6801 46.138 23.649V23.649ZM46.0564 23.4635C46.0533 23.4599 46.0537 23.4603 46.0564 23.4635V23.4635ZM45.6968 23.6081C45.692 23.6007 45.6915 23.5995 45.6968 23.6081V23.6081ZM45.782 23.6804C45.8023 23.6873 45.7943 23.6858 45.782 23.6804V23.6804ZM45.8201 23.6985L45.8285 23.6947C45.8265 23.6948 45.8244 23.6944 45.8226 23.6935L45.8228 23.6934L45.8294 23.6942L45.8307 23.6937L45.8268 23.6928C45.8301 23.6927 45.8305 23.6931 45.8307 23.6937C45.8689 23.6762 45.8431 23.6846 45.821 23.6914L45.8195 23.6911C45.8057 23.6841 45.7908 23.6793 45.7755 23.677C45.7741 23.6762 45.7724 23.6756 45.7713 23.6748C45.759 23.6661 45.697 23.6176 45.7545 23.6684C45.742 23.6573 45.7296 23.6465 45.7178 23.6345C45.7109 23.6274 45.7046 23.6197 45.699 23.6114C45.6915 23.5985 45.6842 23.5854 45.6771 23.5723L45.676 23.5651C45.6751 23.5592 45.6744 23.5568 45.6736 23.5532C45.674 23.5496 45.6745 23.5456 45.6751 23.5418C45.6794 23.5303 45.6821 23.5182 45.6833 23.506L45.6857 23.5029C45.6949 23.49 45.703 23.475 45.7118 23.4617C45.6653 23.5322 45.7299 23.4539 45.7348 23.444C45.7356 23.4423 45.7342 23.4432 45.7345 23.442C45.7364 23.441 45.7358 23.4417 45.7381 23.4404C45.7525 23.4319 45.7661 23.4225 45.7807 23.4144C45.7981 23.4047 45.8667 23.3852 45.7956 23.4056C45.8118 23.401 45.8273 23.3951 45.8436 23.3909C45.8465 23.3901 45.8705 23.3867 45.8834 23.3844C45.8947 23.3841 45.9057 23.3838 45.9069 23.3838C45.9122 23.3839 45.9175 23.3845 45.9228 23.3848C45.911 23.3863 45.9633 23.3976 45.9789 23.4C45.9811 23.4018 45.9822 23.4029 45.9853 23.4051C45.9984 23.4147 46.0144 23.4233 46.0283 23.4322C45.9663 23.3922 46.0291 23.4354 46.0409 23.4473C46.048 23.4543 46.0545 23.4619 46.0612 23.4693C46.0673 23.4764 46.0728 23.484 46.0777 23.492C46.0878 23.5106 46.0987 23.5294 46.1093 23.5478L46.1123 23.5525C46.1122 23.5531 46.1122 23.5537 46.1122 23.5543C46.1178 23.584 46.126 23.6131 46.1367 23.6414C46.1373 23.6438 46.1377 23.6462 46.138 23.6486C46.1389 23.6649 46.1403 23.6811 46.1403 23.6975L46.1402 23.7008C46.0908 23.6751 46.0361 23.6614 45.9804 23.6611C45.9248 23.6607 45.8698 23.6735 45.8201 23.6985V23.6985Z" fill="#E6E6E6"/>
<path d="M45.8296 32.6674L45.8286 32.6679L45.8307 32.6674H45.8296Z" fill="#E6E6E6"/>
<path d="M45.8311 32.6669L45.8322 32.6673L45.8311 32.6669Z" fill="#E6E6E6"/>
<path d="M45.8312 32.6674L45.8301 32.6675C45.8315 32.6677 45.831 32.6674 45.8312 32.6674Z" fill="#E6E6E6"/>
<path d="M45.8313 32.667C45.8324 32.6673 45.8313 32.6673 45.8311 32.6674L45.8313 32.667Z" fill="#E6E6E6"/>
<path d="M60.4002 39.5554C60.2521 39.2931 60.0158 39.0918 59.7332 38.9872C59.4507 38.8826 59.1402 38.8816 58.857 38.9843C58.7162 39.0357 58.5872 39.1148 58.4775 39.2169C58.3678 39.319 58.2797 39.4421 58.2184 39.5789C58.2062 39.608 58.199 39.6385 58.189 39.6683C58.1751 39.6908 58.1584 39.711 58.146 39.7345C58.0131 39.9992 57.9767 40.302 58.0431 40.5906C58.1095 40.8792 58.2744 41.1357 58.5095 41.3158C58.7446 41.4959 59.0351 41.5884 59.3311 41.5773C59.627 41.5663 59.9099 41.4524 60.1309 41.2552C60.3632 41.0453 60.5165 40.7621 60.5655 40.4529C60.6145 40.1436 60.5562 39.8269 60.4002 39.5554ZM59.5975 40.0997C59.6001 40.1159 59.5992 40.1308 59.5975 40.0997V40.0997ZM59.5159 39.9142C59.5128 39.9106 59.5132 39.911 59.5159 39.9142V39.9142ZM59.1563 40.0588C59.1515 40.0514 59.151 40.0501 59.1563 40.0588V40.0588ZM59.2415 40.1311C59.2618 40.138 59.2538 40.1365 59.2415 40.1311V40.1311ZM59.2796 40.1492L59.288 40.1453C59.2859 40.1455 59.2839 40.1451 59.282 40.1442L59.2823 40.1441L59.2889 40.1449L59.2901 40.1444L59.2863 40.1435C59.2896 40.1434 59.29 40.1438 59.2902 40.1443C59.3283 40.1269 59.3025 40.1353 59.2804 40.1421L59.2789 40.1418C59.2651 40.1348 59.2503 40.13 59.235 40.1277C59.2336 40.1269 59.2319 40.1263 59.2307 40.1255C59.2185 40.1167 59.1564 40.0683 59.214 40.1191C59.2015 40.108 59.1891 40.0972 59.1773 40.0852C59.1704 40.0781 59.1641 40.0704 59.1585 40.0621C59.151 40.0492 59.1436 40.0361 59.1365 40.0229L59.1355 40.0158C59.1345 40.0099 59.1338 40.0075 59.1331 40.0039C59.1334 40.0003 59.134 39.9963 59.1346 39.9925C59.1389 39.981 59.1416 39.9689 59.1427 39.9567L59.1452 39.9536C59.1544 39.9407 59.1625 39.9257 59.1712 39.9124C59.1248 39.9829 59.1894 39.9046 59.1942 39.8947C59.1951 39.893 59.1936 39.8939 59.194 39.8927C59.1959 39.8917 59.1953 39.8924 59.1975 39.8911C59.2119 39.8826 59.2256 39.8731 59.2402 39.865C59.2576 39.8554 59.3262 39.8359 59.2551 39.8562C59.2712 39.8516 59.2867 39.8458 59.3031 39.8415C59.306 39.8408 59.33 39.8374 59.3429 39.8351C59.3542 39.8348 59.3652 39.8345 59.3663 39.8345C59.3716 39.8346 59.377 39.8352 59.3823 39.8354C59.3705 39.837 59.4228 39.8483 59.4383 39.8507C59.4406 39.8525 59.4417 39.8536 59.4448 39.8558C59.4579 39.8654 59.4739 39.874 59.4877 39.8829C59.4257 39.8429 59.4885 39.8861 59.5004 39.8979C59.5075 39.905 59.514 39.9126 59.5206 39.92C59.5267 39.9271 59.5323 39.9347 59.5371 39.9427C59.5473 39.9613 59.5581 39.9801 59.5688 39.9984L59.5718 40.0031C59.5717 40.0037 59.5717 40.0044 59.5717 40.005C59.5772 40.0347 59.5854 40.0638 59.5962 40.0921C59.5967 40.0945 59.5971 40.0969 59.5974 40.0993C59.5984 40.1156 59.5998 40.1318 59.5998 40.1482L59.5997 40.1515C59.5503 40.1258 59.4955 40.1121 59.4399 40.1117C59.3842 40.1113 59.3293 40.1242 59.2796 40.1492V40.1492Z" fill="#E6E6E6"/>
<path d="M59.2891 26.0444L59.2881 26.0449L59.2901 26.0444H59.2891Z" fill="#E6E6E6"/>
<path d="M59.2905 26.0439L59.2916 26.0443L59.2905 26.0439Z" fill="#E6E6E6"/>
<path d="M59.2912 26.0443L59.29 26.0445C59.2915 26.0446 59.291 26.0444 59.2912 26.0443Z" fill="#E6E6E6"/>
<path d="M59.2912 26.044C59.2923 26.0443 59.2913 26.0443 59.291 26.0444L59.2912 26.044Z" fill="#E6E6E6"/>
<path d="M59.29 26.0438L59.2905 26.044L59.29 26.0438Z" fill="#E6E6E6"/>
<path d="M71.896 30.3168L71.8971 30.3172L71.896 30.3168Z" fill="#E6E6E6"/>
<path d="M73.0052 29.7278C72.8571 29.4655 72.6207 29.2641 72.3382 29.1596C72.0557 29.055 71.7452 29.054 71.462 29.1566C71.3212 29.208 71.1922 29.2871 71.0825 29.3893C70.9728 29.4914 70.8847 29.6145 70.8234 29.7513C70.8111 29.7803 70.804 29.8109 70.794 29.8407C70.7801 29.8631 70.7634 29.8834 70.7509 29.9069C70.6181 30.1716 70.5817 30.4743 70.6481 30.763C70.7144 31.0516 70.8794 31.3081 71.1145 31.4882C71.3496 31.6683 71.6401 31.7608 71.9361 31.7497C72.232 31.7387 72.5149 31.6248 72.7359 31.4276C72.9682 31.2176 73.1215 30.9345 73.1705 30.6252C73.2195 30.316 73.1612 29.9993 73.0052 29.7278V29.7278ZM72.2025 30.2721C72.2051 30.2883 72.2042 30.3031 72.2025 30.2721V30.2721ZM72.1209 30.0865C72.1178 30.0829 72.1181 30.0833 72.1209 30.0865V30.0865ZM71.7613 30.2312C71.7564 30.2238 71.756 30.2225 71.7613 30.2312V30.2312ZM71.8465 30.3034C71.8668 30.3103 71.8588 30.3089 71.8465 30.3034V30.3034ZM71.8846 30.3216L71.893 30.3177C71.8909 30.3179 71.8888 30.3175 71.887 30.3165L71.8873 30.3165L71.8939 30.3173L71.8951 30.3167L71.8913 30.3159C71.8946 30.3157 71.895 30.3162 71.8952 30.3167C71.9333 30.2992 71.9075 30.3076 71.8854 30.3145L71.8839 30.3142C71.8701 30.3071 71.8553 30.3024 71.84 30.3001C71.8386 30.2993 71.8369 30.2987 71.8357 30.2978C71.8234 30.2891 71.7614 30.2407 71.819 30.2914C71.8064 30.2804 71.7941 30.2695 71.7823 30.2576C71.7754 30.2505 71.7691 30.2427 71.7635 30.2345C71.7559 30.2215 71.7486 30.2085 71.7415 30.1953L71.7405 30.1882C71.7395 30.1823 71.7388 30.1798 71.738 30.1763C71.7384 30.1726 71.739 30.1687 71.7396 30.1649C71.7439 30.1533 71.7466 30.1413 71.7477 30.129L71.7502 30.1259C71.7594 30.1131 71.7674 30.0981 71.7762 30.0847C71.7298 30.1553 71.7944 30.077 71.7992 30.067C71.8 30.0653 71.7986 30.0663 71.799 30.0651C71.8008 30.064 71.8003 30.0648 71.8025 30.0634C71.8169 30.055 71.8306 30.0455 71.8452 30.0374C71.8626 30.0278 71.9312 30.0083 71.8601 30.0286C71.8762 30.024 71.8917 30.0182 71.908 30.0139C71.911 30.0131 71.9349 30.0098 71.9478 30.0075C71.9592 30.0072 71.9702 30.0068 71.9713 30.0069C71.9766 30.0069 71.982 30.0076 71.9873 30.0078C71.9755 30.0094 72.0278 30.0207 72.0433 30.0231C72.0455 30.0248 72.0467 30.026 72.0497 30.0282C72.0629 30.0378 72.0789 30.0463 72.0927 30.0553C72.0307 30.0152 72.0935 30.0585 72.1054 30.0703C72.1124 30.0774 72.119 30.0849 72.1256 30.0924C72.1317 30.0995 72.1373 30.107 72.1421 30.115C72.1523 30.1336 72.1631 30.1525 72.1738 30.1708L72.1767 30.1755C72.1767 30.1761 72.1767 30.1767 72.1767 30.1773C72.1822 30.207 72.1904 30.2362 72.2012 30.2644C72.2017 30.2668 72.2021 30.2693 72.2024 30.2717C72.2034 30.288 72.2048 30.3042 72.2048 30.3205L72.2046 30.3239C72.1553 30.2981 72.1005 30.2845 72.0449 30.2841C71.9892 30.2837 71.9343 30.2965 71.8846 30.3216V30.3216Z" fill="#E6E6E6"/>
<path d="M71.8941 30.3173L71.8931 30.3178L71.8951 30.3173H71.8941Z" fill="#E6E6E6"/>
<path d="M71.8955 30.3167L71.896 30.317L71.8955 30.3167Z" fill="#E6E6E6"/>
<path d="M71.8962 30.3169C71.8973 30.3172 71.8963 30.3172 71.896 30.3173L71.8962 30.3169Z" fill="#E6E6E6"/>
<path d="M71.8962 30.3173L71.895 30.3174C71.8965 30.3176 71.896 30.3173 71.8962 30.3173Z" fill="#E6E6E6"/>
<path d="M68.4399 40.1083L58.5061 40.6604C58.4501 40.6635 58.395 40.6451 58.3523 40.6088C58.3095 40.5725 58.2823 40.5212 58.2762 40.4654C58.2701 40.4097 58.2857 40.3537 58.3196 40.3091C58.3536 40.2645 58.4034 40.2346 58.4587 40.2256L68.6121 38.5734L68.4399 40.1083Z" fill="#3F3D56"/>
<path d="M81.0643 62.224L84.8077 55.9261L87.5745 57.2329C87.5745 57.2329 82.8069 63.1876 82.655 63.3589C82.7201 63.6483 82.6957 63.9507 82.5852 64.2259C82.4746 64.5012 82.2831 64.7365 82.036 64.9005C81.7889 65.0646 81.4977 65.1498 81.2011 65.1448C80.9045 65.1399 80.6164 65.045 80.3749 64.8727C80.1334 64.7004 79.9499 64.4589 79.8487 64.18C79.7475 63.9012 79.7333 63.5982 79.808 63.3111C79.8827 63.024 80.0428 62.7664 80.2671 62.5723C80.4914 62.3782 80.7694 62.2567 81.0643 62.224V62.224Z" fill="#FFB6B6"/>
<path d="M82.6213 47.5945L88.6861 50.7588C89.0651 51.0318 89.383 51.3809 89.6194 51.7838C89.8558 52.1867 90.0056 52.6345 90.0591 53.0986C90.1125 53.5626 90.0686 54.0327 89.9301 54.4789C89.7915 54.925 89.5614 55.3373 89.2545 55.6894L85.0734 60.4856L83.252 58.0174L84.6559 55.0819L81.9375 54.3651L82.6213 47.5945Z" fill="#0050FF"/>
<path d="M65.3382 40.2112L64.6551 47.5057L61.5952 47.5108C61.5952 47.5108 63.3508 40.0875 63.4146 39.8676C63.2318 39.634 63.1242 39.3504 63.1061 39.0543C63.088 38.7582 63.1602 38.4636 63.3132 38.2094C63.4661 37.9552 63.6926 37.7535 63.9628 37.6309C64.2329 37.5083 64.5339 37.4705 64.8259 37.5227C65.1179 37.5749 65.3872 37.7144 65.5982 37.923C65.8092 38.1315 65.9519 38.3992 66.0074 38.6906C66.0629 38.982 66.0287 39.2834 65.9092 39.5549C65.7897 39.8264 65.5906 40.0553 65.3382 40.2112V40.2112Z" fill="#FFB6B6"/>
<path d="M71.4292 55.1283L64.3865 53.8367C61.4208 53.4801 60.2037 51.5288 60.7388 49.6254L62.4609 43.5002L65.1644 44.9496L65.154 48.2035L68.9383 47.6861L71.4292 55.1283Z" fill="#0050FF"/>
<path d="M68.5462 105.539H66.6097L65.6885 98.0696H68.5466L68.5462 105.539Z" fill="#FFB6B6"/>
<path d="M68.6147 107.559L62.6597 107.559V107.484C62.6597 106.869 62.9039 106.28 63.3386 105.845C63.7733 105.41 64.3628 105.166 64.9775 105.166H64.9777L66.0654 104.341L68.095 105.166L68.6148 105.166L68.6147 107.559Z" fill="#2F2E41"/>
<path d="M82.2485 105.539H84.185L85.1062 98.0696H82.248L82.2485 105.539Z" fill="#FFB6B6"/>
<path d="M82.1803 107.559L88.1353 107.559V107.484C88.1352 106.869 87.891 106.28 87.4564 105.845C87.0217 105.41 86.4322 105.166 85.8174 105.166H85.8173L84.7295 104.341L82.7 105.166L82.1802 105.166L82.1803 107.559Z" fill="#2F2E41"/>
<path d="M65.6033 92.5806C65.6319 92.1543 65.8593 89.7973 65.8593 89.7973L66.404 84.7985L67.364 71.5479L68.2197 68.0649L72.4554 69.715L75.8923 68.0674L79.9774 69.3732L83.1583 70.5661C83.1583 70.5661 83.1637 71.0767 83.1882 71.6936C83.2209 72.501 83.2781 73.491 83.4143 73.7484C83.6417 74.2032 83.5845 76.6447 83.5845 76.6447C83.5845 76.6447 83.8105 81.6121 84.0951 82.1568C84.3797 82.7015 84.4369 83.8358 84.3511 84.0632C84.2653 84.2906 84.6357 90.2562 84.6357 90.2562C84.6357 90.2562 85.5863 100.813 84.9899 102.405C84.3935 103.997 82.1397 102.954 82.1397 102.954C82.1397 102.954 82.2487 102.529 81.5951 102.329C80.9414 102.129 78.9506 87.1597 78.9506 87.1597C78.9506 87.1597 78.5803 84.0904 78.2398 83.2107C77.8994 82.3311 77.5862 79.8596 77.5862 79.8596C77.5862 79.8596 75.4838 75.7691 75.4565 74.8595C75.4565 74.8595 75.1815 74.0084 74.9214 74.9453C74.6613 75.8821 73.8947 78.1262 73.8947 78.1262L73.1471 80.8822L72.2675 85L71.6983 88.4669C71.6983 88.4669 70.8458 93.068 70.7097 93.2668C70.5735 93.4656 70.7097 97.6692 70.7097 97.6692C70.7097 97.6692 70.0506 101.249 69.1192 101.874C68.1878 102.499 65.7202 101.884 65.7202 101.884C65.7202 101.884 65.5747 93.0068 65.6033 92.5806Z" fill="#2F2E41"/>
<path d="M68.7698 56.8579L68.2286 63.8693L67.4154 64.7109C67.3421 64.7867 67.2849 64.8766 67.2471 64.9752C67.2094 65.0737 67.1919 65.1788 67.1957 65.2843C67.1995 65.3897 67.2246 65.4933 67.2694 65.5888C67.3142 65.6843 67.3779 65.7698 67.4565 65.8402V65.8402L67.0085 66.6084L66.8499 69.029C66.8047 69.2174 66.8016 69.4134 66.8408 69.6031C66.8801 69.7928 66.9608 69.9714 67.0771 70.1263C67.1934 70.2812 67.3425 70.4085 67.5137 70.4992C67.6849 70.5898 67.874 70.6415 68.0674 70.6506L82.0894 71.3093C82.2818 71.3184 82.4739 71.2851 82.652 71.2117C82.8301 71.1384 82.99 71.0269 83.1202 70.885C83.2505 70.7431 83.3481 70.5744 83.406 70.3907C83.4639 70.207 83.4807 70.0128 83.4554 69.8219L82.2631 60.8458V60.1746L81.7293 58.8785L82.0036 54.5363L82.6418 47.6444L78.9324 46.6863L76.9211 45.3025L73.427 45.3581L71.3069 47.0994L68.48 47.5421L66.3422 47.967L66.0698 48.5589L66.6145 48.4405L68.5887 56.1406L68.7698 56.8579Z" fill="#0050FF"/>
<path d="M75.0961 44.363C77.3693 44.363 79.2121 42.5201 79.2121 40.2469C79.2121 37.9736 77.3693 36.1308 75.0961 36.1308C72.8228 36.1308 70.98 37.9736 70.98 40.2469C70.98 42.5201 72.8228 44.363 75.0961 44.363Z" fill="#FFB6B6"/>
<path d="M74.1037 44.0974L77.0776 43.9458C77.4586 43.9263 77.8745 43.8927 78.1517 43.6304C78.3008 43.4685 78.4155 43.278 78.4888 43.0704C78.7637 42.4318 79.0387 41.7932 79.3066 41.1516C79.6771 40.2641 80.0411 39.3271 79.9465 38.37C79.9243 37.9329 79.741 37.5196 79.432 37.2097C79.2743 37.0604 79.0715 36.9675 78.8555 36.9456C78.6394 36.9237 78.4221 36.974 78.2377 37.0887C78.1918 36.786 78.0778 36.4976 77.9041 36.2455C77.7305 35.9933 77.5017 35.784 77.2353 35.6332C76.6971 35.3359 76.0826 35.2056 75.4701 35.259C74.5813 35.3163 73.7328 35.6507 73.0439 36.2152C72.8501 36.394 72.6432 36.5579 72.4249 36.7057C72.3151 36.7791 72.1915 36.8294 72.0616 36.8534C71.9317 36.8775 71.7983 36.8748 71.6695 36.8455C71.5419 36.8114 71.431 36.7323 71.3572 36.6227C71.2834 36.5132 71.2518 36.3806 71.2682 36.2496C71.0587 36.4062 70.9151 36.6352 70.8654 36.8919C70.8156 37.1487 70.8633 37.4147 70.9991 37.6382C70.8447 37.7029 70.6763 37.7266 70.51 37.7069C70.3438 37.6872 70.1855 37.6249 70.0505 37.526C69.9058 37.5978 69.7778 37.699 69.6745 37.8231C69.5712 37.9473 69.495 38.0916 69.4507 38.2469C69.4064 38.4022 69.3951 38.565 69.4174 38.725C69.4396 38.8849 69.4951 39.0384 69.5801 39.1757C69.6652 39.313 69.778 39.431 69.9113 39.5221C70.0445 39.6133 70.1954 39.6756 70.3542 39.7051C70.5129 39.7346 70.6761 39.7307 70.8333 39.6934C70.9904 39.6562 71.138 39.5866 71.2667 39.489C71.4472 39.7419 71.38 40.0854 71.3565 40.3951C71.333 40.7049 71.416 41.0898 71.7146 41.1754C72.1183 41.2911 72.4453 40.7476 72.8652 40.7534C72.9687 40.7618 73.0686 40.7957 73.156 40.852C73.2433 40.9083 73.3154 40.9852 73.3659 41.0761C73.4648 41.2586 73.5326 41.4564 73.5664 41.6613L74.1037 44.0806" fill="#2F2E41"/>
<path d="M190.058 81.1076C190.058 80.4702 189.844 79.9529 189.581 79.9517H117.936C117.672 79.9529 117.46 80.4702 117.458 81.1076V107.345C117.458 107.404 117.436 107.461 117.397 107.505C117.357 107.549 117.302 107.577 117.243 107.582C117.051 107.601 116.859 107.618 116.666 107.634C116.662 107.634 116.657 107.635 116.652 107.635C116.548 107.645 116.443 107.652 116.338 107.66H116.337C116.283 107.56 116.23 107.46 116.177 107.359C116.16 107.325 116.15 107.287 116.15 107.248V79.6081C116.15 79.4321 116.158 79.2549 116.169 79.0801C116.186 78.84 116.216 78.6011 116.259 78.3642C116.46 77.2595 116.914 76.5115 117.43 76.5092H190.087C190.162 76.5097 190.236 76.5254 190.305 76.5555C190.407 76.6004 190.499 76.6646 190.575 76.7446C190.68 76.853 190.769 76.975 190.841 77.1073C191.137 77.6973 191.307 78.3423 191.341 79.0016C191.341 79.0087 191.342 79.0159 191.342 79.023C191.359 79.2156 191.367 79.4118 191.366 79.6081L191.383 82.1564L191.394 83.6761L191.426 88.4446L191.438 90.1379L191.49 107.523C191.49 107.586 191.465 107.647 191.42 107.691C191.376 107.736 191.315 107.761 191.252 107.761H190.296C190.233 107.761 190.172 107.736 190.128 107.691C190.083 107.647 190.058 107.586 190.058 107.523V81.1076Z" fill="#E6E6E6"/>
<path d="M170.59 64.585H162.87C162.761 64.5851 162.656 64.6287 162.579 64.706C162.502 64.7833 162.459 64.8881 162.459 64.9973V77.1924H171.002V64.9973C171.002 64.9431 170.992 64.8895 170.971 64.8395C170.95 64.7894 170.92 64.744 170.882 64.7057C170.843 64.6674 170.798 64.637 170.748 64.6163C170.698 64.5956 170.644 64.5849 170.59 64.585V64.585ZM166.756 71.5141C166.515 71.5129 166.284 71.4165 166.113 71.2458C165.942 71.0751 165.846 70.8439 165.845 70.6025V69.1959C165.845 68.9541 165.941 68.7222 166.112 68.5513C166.283 68.3803 166.514 68.2843 166.756 68.2843C166.998 68.2843 167.23 68.3803 167.401 68.5513C167.572 68.7222 167.668 68.9541 167.668 69.1959V70.6025C167.667 70.8439 167.57 71.0751 167.399 71.2458C167.229 71.4165 166.998 71.5129 166.756 71.5141Z" fill="#CCCCCC"/>
<path d="M162.433 76.8023V77.9789C162.433 78.0398 162.457 78.0983 162.5 78.1414C162.543 78.1845 162.602 78.2088 162.663 78.2089H170.799C170.86 78.2086 170.918 78.1843 170.961 78.1412C171.004 78.0981 171.029 78.0398 171.029 77.9789V76.8023H162.433Z" fill="#3F3D56"/>
<path d="M183.374 45.5531H150.374C150.091 45.5536 149.819 45.6664 149.618 45.8669C149.418 46.0673 149.305 46.3391 149.305 46.6226V68.8907C149.305 69.1743 149.418 69.4462 149.618 69.6467C149.819 69.8472 150.091 69.96 150.374 69.9602H183.374C183.657 69.96 183.929 69.8472 184.13 69.6467C184.33 69.4462 184.443 69.1743 184.443 68.8907V46.6226C184.443 46.3391 184.33 46.0673 184.129 45.8669C183.929 45.6664 183.657 45.5536 183.374 45.5531V45.5531Z" fill="#E6E6E6"/>
<path d="M183.098 46.3256H150.65C150.498 46.326 150.352 46.3865 150.245 46.4939C150.138 46.6014 150.078 46.747 150.078 46.8988V68.615C150.078 68.7666 150.138 68.9119 150.245 69.0191C150.353 69.1263 150.498 69.1867 150.65 69.1869H183.098C183.249 69.1867 183.395 69.1263 183.502 69.0191C183.609 68.9119 183.67 68.7666 183.67 68.615V46.8988C183.67 46.747 183.61 46.6014 183.502 46.4939C183.395 46.3865 183.25 46.326 183.098 46.3256V46.3256Z" fill="white"/>
<path d="M176.778 78.6183H157.473C157.42 78.6183 157.368 78.6065 157.32 78.5838C157.272 78.5611 157.23 78.528 157.197 78.487C157.164 78.4459 157.14 78.398 157.128 78.3466C157.115 78.2952 157.114 78.2418 157.125 78.19L157.425 76.7674C157.442 76.6878 157.486 76.6164 157.549 76.5651C157.612 76.5138 157.691 76.4857 157.772 76.4854H176.478C176.56 76.4857 176.638 76.5138 176.702 76.5651C176.765 76.6164 176.809 76.6878 176.826 76.7674L177.125 78.19C177.136 78.2418 177.135 78.2952 177.123 78.3466C177.111 78.398 177.087 78.4459 177.053 78.487C177.02 78.528 176.978 78.5611 176.93 78.5838C176.883 78.6065 176.831 78.6183 176.778 78.6183V78.6183Z" fill="#CCCCCC"/>
<path d="M158.399 76.7416H158.013C157.956 76.7416 157.909 76.7883 157.909 76.8459V76.994C157.909 77.0516 157.956 77.0983 158.013 77.0983H158.399C158.457 77.0983 158.504 77.0516 158.504 76.994V76.8459C158.504 76.7883 158.457 76.7416 158.399 76.7416Z" fill="#E6E6E6"/>
<path d="M159.589 76.7416H159.203C159.145 76.7416 159.099 76.7883 159.099 76.8459V76.994C159.099 77.0516 159.145 77.0983 159.203 77.0983H159.589C159.647 77.0983 159.693 77.0516 159.693 76.994V76.8459C159.693 76.7883 159.647 76.7416 159.589 76.7416Z" fill="#E6E6E6"/>
<path d="M160.778 76.7416H160.392C160.334 76.7416 160.288 76.7883 160.288 76.8459V76.994C160.288 77.0516 160.334 77.0983 160.392 77.0983H160.778C160.835 77.0983 160.882 77.0516 160.882 76.994V76.8459C160.882 76.7883 160.835 76.7416 160.778 76.7416Z" fill="#E6E6E6"/>
<path d="M161.967 76.7416H161.581C161.523 76.7416 161.477 76.7883 161.477 76.8459V76.994C161.477 77.0516 161.523 77.0983 161.581 77.0983H161.967C162.024 77.0983 162.071 77.0516 162.071 76.994V76.8459C162.071 76.7883 162.024 76.7416 161.967 76.7416Z" fill="#E6E6E6"/>
<path d="M163.156 76.7416H162.77C162.713 76.7416 162.666 76.7883 162.666 76.8459V76.994C162.666 77.0516 162.713 77.0983 162.77 77.0983H163.156C163.214 77.0983 163.261 77.0516 163.261 76.994V76.8459C163.261 76.7883 163.214 76.7416 163.156 76.7416Z" fill="#E6E6E6"/>
<path d="M164.345 76.7416H163.959C163.902 76.7416 163.855 76.7883 163.855 76.8459V76.994C163.855 77.0516 163.902 77.0983 163.959 77.0983H164.345C164.403 77.0983 164.45 77.0516 164.45 76.994V76.8459C164.45 76.7883 164.403 76.7416 164.345 76.7416Z" fill="#E6E6E6"/>
<path d="M165.534 76.7416H165.148C165.091 76.7416 165.044 76.7883 165.044 76.8459V76.994C165.044 77.0516 165.091 77.0983 165.148 77.0983H165.534C165.592 77.0983 165.639 77.0516 165.639 76.994V76.8459C165.639 76.7883 165.592 76.7416 165.534 76.7416Z" fill="#E6E6E6"/>
<path d="M166.724 76.7416H166.338C166.28 76.7416 166.233 76.7883 166.233 76.8459V76.994C166.233 77.0516 166.28 77.0983 166.338 77.0983H166.724C166.781 77.0983 166.828 77.0516 166.828 76.994V76.8459C166.828 76.7883 166.781 76.7416 166.724 76.7416Z" fill="#E6E6E6"/>
<path d="M167.913 76.7416H167.527C167.469 76.7416 167.422 76.7883 167.422 76.8459V76.994C167.422 77.0516 167.469 77.0983 167.527 77.0983H167.913C167.97 77.0983 168.017 77.0516 168.017 76.994V76.8459C168.017 76.7883 167.97 76.7416 167.913 76.7416Z" fill="#E6E6E6"/>
<path d="M169.102 76.7416H168.716C168.659 76.7416 168.612 76.7883 168.612 76.8459V76.994C168.612 77.0516 168.659 77.0983 168.716 77.0983H169.102C169.16 77.0983 169.206 77.0516 169.206 76.994V76.8459C169.206 76.7883 169.16 76.7416 169.102 76.7416Z" fill="#E6E6E6"/>
<path d="M170.291 76.7416H169.905C169.847 76.7416 169.801 76.7883 169.801 76.8459V76.994C169.801 77.0516 169.847 77.0983 169.905 77.0983H170.291C170.349 77.0983 170.395 77.0516 170.395 76.994V76.8459C170.395 76.7883 170.349 76.7416 170.291 76.7416Z" fill="#E6E6E6"/>
<path d="M171.48 76.7416H171.094C171.036 76.7416 170.99 76.7883 170.99 76.8459V76.994C170.99 77.0516 171.036 77.0983 171.094 77.0983H171.48C171.538 77.0983 171.584 77.0516 171.584 76.994V76.8459C171.584 76.7883 171.538 76.7416 171.48 76.7416Z" fill="#E6E6E6"/>
<path d="M172.669 76.7416H172.284C172.226 76.7416 172.179 76.7883 172.179 76.8459V76.994C172.179 77.0516 172.226 77.0983 172.284 77.0983H172.669C172.727 77.0983 172.774 77.0516 172.774 76.994V76.8459C172.774 76.7883 172.727 76.7416 172.669 76.7416Z" fill="#E6E6E6"/>
<path d="M173.858 76.7416H173.472C173.415 76.7416 173.368 76.7883 173.368 76.8459V76.994C173.368 77.0516 173.415 77.0983 173.472 77.0983H173.858C173.916 77.0983 173.963 77.0516 173.963 76.994V76.8459C173.963 76.7883 173.916 76.7416 173.858 76.7416Z" fill="#E6E6E6"/>
<path d="M175.047 76.7416H174.661C174.604 76.7416 174.557 76.7883 174.557 76.8459V76.994C174.557 77.0516 174.604 77.0983 174.661 77.0983H175.047C175.105 77.0983 175.152 77.0516 175.152 76.994V76.8459C175.152 76.7883 175.105 76.7416 175.047 76.7416Z" fill="#E6E6E6"/>
<path d="M176.237 76.7416H175.851C175.793 76.7416 175.747 76.7883 175.747 76.8459V76.994C175.747 77.0516 175.793 77.0983 175.851 77.0983H176.237C176.294 77.0983 176.341 77.0516 176.341 76.994V76.8459C176.341 76.7883 176.294 76.7416 176.237 76.7416Z" fill="#E6E6E6"/>
<path d="M158.385 77.3361H157.999C157.942 77.3361 157.895 77.3828 157.895 77.4404V77.5886C157.895 77.6462 157.942 77.6929 157.999 77.6929H158.385C158.443 77.6929 158.49 77.6462 158.49 77.5886V77.4404C158.49 77.3828 158.443 77.3361 158.385 77.3361Z" fill="#E6E6E6"/>
<path d="M159.575 77.3361H159.189C159.131 77.3361 159.084 77.3828 159.084 77.4404V77.5886C159.084 77.6462 159.131 77.6929 159.189 77.6929H159.575C159.632 77.6929 159.679 77.6462 159.679 77.5886V77.4404C159.679 77.3828 159.632 77.3361 159.575 77.3361Z" fill="#E6E6E6"/>
<path d="M160.764 77.3361H160.378C160.32 77.3361 160.273 77.3828 160.273 77.4404V77.5886C160.273 77.6462 160.32 77.6929 160.378 77.6929H160.764C160.821 77.6929 160.868 77.6462 160.868 77.5886V77.4404C160.868 77.3828 160.821 77.3361 160.764 77.3361Z" fill="#E6E6E6"/>
<path d="M161.953 77.3361H161.567C161.51 77.3361 161.463 77.3828 161.463 77.4404V77.5886C161.463 77.6462 161.51 77.6929 161.567 77.6929H161.953C162.011 77.6929 162.057 77.6462 162.057 77.5886V77.4404C162.057 77.3828 162.011 77.3361 161.953 77.3361Z" fill="#E6E6E6"/>
<path d="M163.142 77.3361H162.756C162.699 77.3361 162.652 77.3828 162.652 77.4404V77.5886C162.652 77.6462 162.699 77.6929 162.756 77.6929H163.142C163.2 77.6929 163.246 77.6462 163.246 77.5886V77.4404C163.246 77.3828 163.2 77.3361 163.142 77.3361Z" fill="#E6E6E6"/>
<path d="M164.331 77.3361H163.945C163.888 77.3361 163.841 77.3828 163.841 77.4404V77.5886C163.841 77.6462 163.888 77.6929 163.945 77.6929H164.331C164.389 77.6929 164.435 77.6462 164.435 77.5886V77.4404C164.435 77.3828 164.389 77.3361 164.331 77.3361Z" fill="#E6E6E6"/>
<path d="M165.521 77.3361H165.135C165.077 77.3361 165.03 77.3828 165.03 77.4404V77.5886C165.03 77.6462 165.077 77.6929 165.135 77.6929H165.521C165.578 77.6929 165.625 77.6462 165.625 77.5886V77.4404C165.625 77.3828 165.578 77.3361 165.521 77.3361Z" fill="#E6E6E6"/>
<path d="M166.71 77.3361H166.324C166.266 77.3361 166.219 77.3828 166.219 77.4404V77.5886C166.219 77.6462 166.266 77.6929 166.324 77.6929H166.71C166.767 77.6929 166.814 77.6462 166.814 77.5886V77.4404C166.814 77.3828 166.767 77.3361 166.71 77.3361Z" fill="#E6E6E6"/>
<path d="M167.898 77.3361H167.513C167.455 77.3361 167.408 77.3828 167.408 77.4404V77.5886C167.408 77.6462 167.455 77.6929 167.513 77.6929H167.898C167.956 77.6929 168.003 77.6462 168.003 77.5886V77.4404C168.003 77.3828 167.956 77.3361 167.898 77.3361Z" fill="#E6E6E6"/>
<path d="M169.088 77.3361H168.702C168.644 77.3361 168.598 77.3828 168.598 77.4404V77.5886C168.598 77.6462 168.644 77.6929 168.702 77.6929H169.088C169.146 77.6929 169.192 77.6462 169.192 77.5886V77.4404C169.192 77.3828 169.146 77.3361 169.088 77.3361Z" fill="#E6E6E6"/>
<path d="M170.277 77.3361H169.891C169.833 77.3361 169.787 77.3828 169.787 77.4404V77.5886C169.787 77.6462 169.833 77.6929 169.891 77.6929H170.277C170.334 77.6929 170.381 77.6462 170.381 77.5886V77.4404C170.381 77.3828 170.334 77.3361 170.277 77.3361Z" fill="#E6E6E6"/>
<path d="M171.466 77.3361H171.08C171.023 77.3361 170.976 77.3828 170.976 77.4404V77.5886C170.976 77.6462 171.023 77.6929 171.08 77.6929H171.466C171.524 77.6929 171.571 77.6462 171.571 77.5886V77.4404C171.571 77.3828 171.524 77.3361 171.466 77.3361Z" fill="#E6E6E6"/>
<path d="M172.655 77.3361H172.269C172.212 77.3361 172.165 77.3828 172.165 77.4404V77.5886C172.165 77.6462 172.212 77.6929 172.269 77.6929H172.655C172.713 77.6929 172.76 77.6462 172.76 77.5886V77.4404C172.76 77.3828 172.713 77.3361 172.655 77.3361Z" fill="#E6E6E6"/>
<path d="M173.844 77.3361H173.458C173.401 77.3361 173.354 77.3828 173.354 77.4404V77.5886C173.354 77.6462 173.401 77.6929 173.458 77.6929H173.844C173.902 77.6929 173.949 77.6462 173.949 77.5886V77.4404C173.949 77.3828 173.902 77.3361 173.844 77.3361Z" fill="#E6E6E6"/>
<path d="M175.034 77.3361H174.648C174.59 77.3361 174.543 77.3828 174.543 77.4404V77.5886C174.543 77.6462 174.59 77.6929 174.648 77.6929H175.034C175.091 77.6929 175.138 77.6462 175.138 77.5886V77.4404C175.138 77.3828 175.091 77.3361 175.034 77.3361Z" fill="#E6E6E6"/>
<path d="M176.223 77.3361H175.837C175.779 77.3361 175.732 77.3828 175.732 77.4404V77.5886C175.732 77.6462 175.779 77.6929 175.837 77.6929H176.223C176.28 77.6929 176.327 77.6462 176.327 77.5886V77.4404C176.327 77.3828 176.28 77.3361 176.223 77.3361Z" fill="#E6E6E6"/>
<path d="M168.255 78.0496H163.707C163.65 78.0496 163.603 78.0963 163.603 78.1539V78.3021C163.603 78.3597 163.65 78.4064 163.707 78.4064H168.255C168.313 78.4064 168.36 78.3597 168.36 78.3021V78.1539C168.36 78.0963 168.313 78.0496 168.255 78.0496Z" fill="#E6E6E6"/>
<path d="M181.467 49.3177H151.105C151.074 49.3169 151.044 49.3039 151.022 49.2814C151 49.2588 150.987 49.2285 150.987 49.1969C150.987 49.1654 151 49.135 151.022 49.1125C151.044 49.0899 151.074 49.0769 151.105 49.0762H181.467C181.499 49.0769 181.529 49.0899 181.551 49.1125C181.573 49.135 181.585 49.1654 181.585 49.1969C181.585 49.2285 181.573 49.2588 181.551 49.2814C181.529 49.3039 181.499 49.3169 181.467 49.3177V49.3177Z" fill="#CACACA"/>
<path d="M153.172 48.4597C153.563 48.4597 153.88 48.1358 153.88 47.7363C153.88 47.3368 153.563 47.0129 153.172 47.0129C152.781 47.0129 152.464 47.3368 152.464 47.7363C152.464 48.1358 152.781 48.4597 153.172 48.4597Z" fill="#CCCCCC"/>
<path d="M155.616 48.4597C156.007 48.4597 156.324 48.1358 156.324 47.7363C156.324 47.3368 156.007 47.0129 155.616 47.0129C155.225 47.0129 154.909 47.3368 154.909 47.7363C154.909 48.1358 155.225 48.4597 155.616 48.4597Z" fill="#CCCCCC"/>
<path d="M158.061 48.4597C158.451 48.4597 158.768 48.1358 158.768 47.7363C158.768 47.3368 158.451 47.0129 158.061 47.0129C157.67 47.0129 157.353 47.3368 157.353 47.7363C157.353 48.1358 157.67 48.4597 158.061 48.4597Z" fill="#CCCCCC"/>
<path d="M179.995 47.1923H178.259C178.224 47.1929 178.192 47.2071 178.167 47.2317C178.143 47.2563 178.13 47.2893 178.13 47.3237C178.13 47.3582 178.143 47.3912 178.167 47.4158C178.192 47.4404 178.224 47.4545 178.259 47.4552H179.995C180.03 47.4545 180.062 47.4404 180.086 47.4158C180.111 47.3912 180.124 47.3582 180.124 47.3237C180.124 47.2893 180.111 47.2563 180.086 47.2317C180.062 47.2071 180.03 47.1929 179.995 47.1923H179.995Z" fill="#CCCCCC"/>
<path d="M179.995 47.6857H178.259C178.224 47.6864 178.192 47.7006 178.167 47.7252C178.143 47.7497 178.13 47.7828 178.13 47.8172C178.13 47.8516 178.143 47.8847 178.167 47.9092C178.192 47.9338 178.224 47.948 178.259 47.9487H179.995C180.03 47.948 180.062 47.9338 180.086 47.9092C180.11 47.8847 180.124 47.8516 180.124 47.8172C180.124 47.7828 180.11 47.7497 180.086 47.7252C180.062 47.7006 180.03 47.6864 179.995 47.6857H179.995Z" fill="#CCCCCC"/>
<path d="M179.995 48.1786H178.259C178.224 48.1793 178.192 48.1935 178.167 48.2181C178.143 48.2426 178.13 48.2757 178.13 48.3101C178.13 48.3445 178.143 48.3776 178.167 48.4022C178.192 48.4268 178.224 48.4409 178.259 48.4416H179.995C180.03 48.4409 180.062 48.4268 180.086 48.4022C180.111 48.3776 180.124 48.3445 180.124 48.3101C180.124 48.2757 180.111 48.2426 180.086 48.2181C180.062 48.1935 180.03 48.1793 179.995 48.1786H179.995Z" fill="#CCCCCC"/>
<path d="M168.738 55.8957H164.944C164.659 55.8957 164.428 56.1267 164.428 56.4117C164.428 56.6966 164.659 56.9276 164.944 56.9276H168.738C169.023 56.9276 169.254 56.6966 169.254 56.4117C169.254 56.1267 169.023 55.8957 168.738 55.8957Z" fill="#0050FF"/>
<path d="M171.188 57.9596H162.493C162.208 57.9596 161.977 58.1906 161.977 58.4756C161.977 58.7605 162.208 58.9915 162.493 58.9915H171.188C171.473 58.9915 171.704 58.7605 171.704 58.4756C171.704 58.1906 171.473 57.9596 171.188 57.9596Z" fill="#E6E6E6"/>
<path d="M171.188 60.0234H162.493C162.208 60.0234 161.977 60.2544 161.977 60.5394C161.977 60.8244 162.208 61.0554 162.493 61.0554H171.188C171.473 61.0554 171.704 60.8244 171.704 60.5394C171.704 60.2544 171.473 60.0234 171.188 60.0234Z" fill="#E6E6E6"/>
<path d="M112.605 92.1766L110.856 91.34L113.259 84.0297L115.84 85.2641L112.605 92.1766Z" fill="#FFB6B6"/>
<path d="M124.33 90.998C124.203 91.0776 124.076 91.156 123.948 91.2343C123.692 91.3911 123.434 91.5452 123.175 91.6968C123.046 91.7726 122.915 91.8484 122.785 91.9229V91.9268L122.777 91.9281L122.775 91.9293L122.577 91.9782L122.293 91.2279L122.162 90.8824L121.977 90.3929L121.638 89.4975L119.852 84.7828L122.628 84.098L122.732 84.5233H122.734L122.785 84.7339L123.755 88.6676L123.953 89.4718L123.959 89.4962L124.079 89.9767L124.181 90.3929L124.296 90.858L124.33 90.998Z" fill="#FFB6B6"/>
<path d="M140.891 74.4409C140.715 74.7235 140.536 75.0049 140.354 75.2837C140.018 75.8027 139.672 76.314 139.318 76.8176C139.318 76.8188 139.316 76.8188 139.315 76.8201C139.108 77.0117 138.88 77.1786 138.634 77.3173C138.624 77.325 138.612 77.3301 138.602 77.3366C138.421 77.4365 138.229 77.5137 138.029 77.5665C137.957 77.5845 137.884 77.6025 137.812 77.6205C137.553 77.6821 137.296 77.7348 137.04 77.781C136.585 77.862 136.136 77.9198 135.689 77.9558C135.653 77.9596 135.617 77.9622 135.581 77.9647C133.742 78.0996 131.953 77.8825 130.085 77.5267C129.162 77.352 128.221 77.1426 127.246 76.9255C126.927 76.8535 126.607 76.7829 126.283 76.7122C126.259 76.7071 126.233 76.7006 126.208 76.6955C125.745 76.594 125.275 76.4938 124.793 76.3949C124.187 76.2703 123.561 76.1495 122.911 76.0352L122.957 76.9511C122.996 77.6558 123.142 78.3503 123.392 79.0105C123.669 79.8224 123.889 80.4647 123.425 81.8021L123.202 82.4495C123.317 82.7711 123.357 83.115 123.318 83.4545C123.278 83.794 123.161 84.1197 122.974 84.4061L122.929 84.4742L124.793 89.1902L124.914 89.4959H123.959L122.785 89.4972H120.795L117.924 83.7368L117.787 83.4618V83.4477L118.083 72.3777C118.087 72.2801 118.095 72.1812 118.108 72.0835C118.16 71.6397 118.3 71.2107 118.52 70.8216C118.74 70.4325 119.035 70.0912 119.389 69.8174C119.727 69.5528 120.115 69.3582 120.529 69.2449C120.944 69.1315 121.376 69.1017 121.802 69.1571L122.785 69.2843L124.793 69.5438L126.208 69.7275L126.236 69.7313L130.407 70.2709L130.707 69.0504L130.762 69.0299L132.518 68.3863L138.592 66.1599L138.607 66.1548L139.007 66.0084L139.054 66.0854C139.068 66.1086 139.083 66.1317 139.095 66.1548C139.49 66.8627 139.812 67.6092 140.055 68.3824C140.464 69.6456 140.801 70.9311 141.064 72.2326C141.075 72.2891 141.085 72.3405 141.094 72.3867L141.098 72.4009C141.102 72.4227 141.105 72.4368 141.106 72.4407C141.226 73.1143 141.152 73.8082 140.891 74.4409V74.4409Z" fill="#2F2E41"/>
<path d="M141.148 70.3613C141.129 70.2791 141.104 70.1956 141.079 70.1146C140.875 69.5016 140.637 68.9004 140.367 68.3135C140.064 67.6455 139.7 66.9299 139.267 66.1553C139.058 65.7802 138.833 65.39 138.591 64.985C138.471 64.782 138.345 64.5751 138.215 64.3645C138.21 64.3548 138.204 64.3453 138.198 64.3362L138.161 64.2745L132.151 65.0787L129.914 65.3781L129.78 66.4932L129.748 66.7694C129.747 66.7694 129.747 66.7694 129.748 66.7706L129.658 67.5235V67.5247L129.538 68.5191L129.528 68.5178L126.207 68.0874L122.785 67.6442L120.947 67.4066C120.521 67.351 120.088 67.3808 119.673 67.4942C119.259 67.6076 118.871 67.8022 118.533 68.0669C118.179 68.3407 117.884 68.6821 117.664 69.0712C117.445 69.4603 117.304 69.8892 117.252 70.333C117.24 70.423 117.233 70.5155 117.229 70.6067L115.494 74.7163C114.457 77.1741 113.796 79.7744 113.534 82.4295L112.262 86.4954L112.443 86.5121L115.139 86.7627L115.85 86.8295L117.418 84.5415C117.596 84.2807 117.766 84.0122 117.924 83.7373C118.184 83.2882 118.415 82.8231 118.616 82.3447L122.006 74.277C122.268 74.3219 122.528 74.3648 122.785 74.4054C123.973 74.5981 125.114 74.7553 126.207 74.8769C129.762 75.2739 132.84 75.3047 135.58 74.9681C136.35 74.8743 137.094 74.751 137.812 74.5981C138.075 74.5429 138.335 74.4834 138.591 74.4196C138.652 74.4054 138.711 74.3913 138.77 74.3759C139.301 74.239 139.789 73.9711 140.19 73.5967C140.59 73.2224 140.891 72.7535 141.063 72.2331C141.269 71.63 141.299 70.9805 141.148 70.3613V70.3613Z" fill="#2F2E41"/>
<path d="M113.164 90.9828L111.271 90.0758L110.975 89.9332L110.501 91.0971L107.191 91.8255C107.028 91.8614 106.88 91.9487 106.769 92.0746C106.659 92.2005 106.591 92.3584 106.577 92.5253C106.563 92.6922 106.602 92.8593 106.69 93.0022C106.777 93.1451 106.908 93.2563 107.063 93.3196L110.296 94.639L111.323 93.7153L111.071 94.955L112.289 95.4522L113.624 91.2038L113.164 90.9828Z" fill="#2F2E41"/>
<path d="M124.793 89.1902L124.914 89.496H124.793V89.1902Z" fill="#2F2E41"/>
<path d="M124.134 89.5612L122.152 90.2482L121.84 90.3557L122.322 91.5163L120.484 94.3624C120.392 94.503 120.349 94.669 120.359 94.8363C120.369 95.0035 120.432 95.1631 120.539 95.2918C120.647 95.4205 120.792 95.5115 120.955 95.5516C121.118 95.5916 121.289 95.5786 121.443 95.5144L124.669 94.1768L124.749 92.7982L125.442 93.8563L126.657 93.3526L124.617 89.3947L124.134 89.5612Z" fill="#2F2E41"/>
<path d="M112.1 47.0552C112.194 47.2383 112.327 47.3986 112.49 47.5248C112.652 47.651 112.841 47.74 113.041 47.7855C113.242 47.831 113.451 47.832 113.652 47.7883C113.853 47.7446 114.042 47.6573 114.206 47.5326L118.375 50.3004L118.383 47.6998L114.423 45.4701C114.195 45.2088 113.879 45.0401 113.535 44.9961C113.192 44.952 112.844 45.0355 112.557 45.2309C112.271 45.4263 112.066 45.7199 111.982 46.0561C111.898 46.3924 111.94 46.7478 112.1 47.0552V47.0552Z" fill="#FFB6B6"/>
<path d="M115.214 48.2571L117.16 46.0441L125.08 50.7463L135.58 49.7847C136.099 49.7372 136.622 49.8045 137.112 49.9819C137.602 50.1593 138.047 50.4424 138.416 50.8111C138.784 51.1798 139.067 51.6251 139.244 52.1153C139.421 52.6055 139.487 53.1287 139.439 53.6477V53.6477C139.352 54.5849 138.896 55.449 138.171 56.0505C137.447 56.6519 136.514 56.9415 135.577 56.8558L123.751 55.7612L115.214 48.2571Z" fill="#CCCCCC"/>
<path d="M139.584 48.2913L139.566 48.2684C138.089 48.1227 136.601 48.4085 135.283 49.0914C133.966 49.7742 132.874 50.8247 132.141 52.1154L131.25 53.6851C128.368 57.2088 130.462 59.6388 130.588 60.0002L129.587 64.6131L129.812 66.1569L129.924 66.6155L141.344 72.5827C141.994 69.4588 141.365 66.7967 138.997 64.7631L141.288 57.632C141.797 56.0553 141.907 54.3773 141.61 52.7476C141.312 51.1179 140.617 49.587 139.584 48.2913V48.2913Z" fill="#CCCCCC"/>
<path d="M130.504 82.9354H126.841C126.639 82.9352 126.445 82.8624 126.293 82.7302C126.141 82.5981 126.041 82.4155 126.013 82.216C125.787 80.5515 125.787 78.8642 126.013 77.1997C126.041 77.0026 126.138 76.8219 126.287 76.6901C126.436 76.5583 126.628 76.484 126.827 76.4805C127.979 75.9638 129.221 75.9639 130.517 76.4804C130.637 76.482 130.756 76.51 130.865 76.5625C130.974 76.6149 131.07 76.6905 131.146 76.7839C131.226 76.8812 131.283 76.9949 131.313 77.1169C131.343 77.2389 131.346 77.3662 131.321 77.4893C131.026 78.9537 131.026 80.462 131.321 81.9264C131.346 82.0495 131.343 82.1768 131.313 82.2988C131.283 82.4208 131.226 82.5345 131.146 82.6318C131.068 82.7269 130.97 82.8035 130.859 82.856C130.748 82.9085 130.627 82.9356 130.504 82.9354V82.9354Z" fill="#0050FF"/>
<path d="M130.12 78.3929H127.037C127.012 78.3932 126.986 78.3883 126.963 78.3787C126.939 78.3692 126.918 78.355 126.9 78.3371C126.882 78.3192 126.867 78.2978 126.858 78.2744C126.848 78.2509 126.843 78.2257 126.843 78.2002C126.843 78.1748 126.848 78.1496 126.858 78.1261C126.867 78.1026 126.882 78.0813 126.9 78.0634C126.918 78.0454 126.939 78.0313 126.963 78.0217C126.986 78.0121 127.012 78.0073 127.037 78.0075H130.12C130.146 78.0073 130.171 78.0121 130.195 78.0217C130.218 78.0313 130.24 78.0454 130.258 78.0634C130.276 78.0813 130.29 78.1026 130.3 78.1261C130.31 78.1496 130.315 78.1748 130.315 78.2002C130.315 78.2257 130.31 78.2509 130.3 78.2744C130.29 78.2978 130.276 78.3192 130.258 78.3371C130.24 78.355 130.218 78.3692 130.195 78.3787C130.171 78.3883 130.146 78.3932 130.12 78.3929Z" fill="white"/>
<path d="M130.12 79.9345H127.037C127.012 79.9347 126.986 79.9299 126.963 79.9203C126.939 79.9107 126.918 79.8966 126.9 79.8786C126.882 79.8607 126.867 79.8394 126.858 79.8159C126.848 79.7924 126.843 79.7672 126.843 79.7418C126.843 79.7163 126.848 79.6911 126.858 79.6676C126.867 79.6441 126.882 79.6228 126.9 79.6049C126.918 79.587 126.939 79.5728 126.963 79.5633C126.986 79.5537 127.012 79.5489 127.037 79.5491H130.12C130.146 79.5489 130.171 79.5537 130.195 79.5633C130.218 79.5728 130.24 79.587 130.258 79.6049C130.276 79.6228 130.29 79.6441 130.3 79.6676C130.31 79.6911 130.315 79.7163 130.315 79.7418C130.315 79.7672 130.31 79.7924 130.3 79.8159C130.29 79.8394 130.276 79.8607 130.258 79.8786C130.24 79.8966 130.218 79.9107 130.195 79.9203C130.171 79.9299 130.146 79.9347 130.12 79.9345Z" fill="white"/>
<path d="M130.12 81.4761H127.037C127.011 81.4764 126.986 81.4716 126.963 81.462C126.939 81.4524 126.917 81.4382 126.899 81.4203C126.881 81.4024 126.867 81.3811 126.857 81.3576C126.847 81.3341 126.842 81.3089 126.842 81.2834C126.842 81.258 126.847 81.2327 126.857 81.2092C126.867 81.1857 126.881 81.1644 126.899 81.1465C126.917 81.1286 126.939 81.1144 126.963 81.1049C126.986 81.0953 127.011 81.0905 127.037 81.0907H130.12C130.145 81.0905 130.171 81.0953 130.194 81.1049C130.218 81.1144 130.239 81.1286 130.257 81.1465C130.276 81.1644 130.29 81.1857 130.3 81.2092C130.309 81.2327 130.315 81.258 130.315 81.2834C130.315 81.3089 130.309 81.3341 130.3 81.3576C130.29 81.3811 130.276 81.4024 130.257 81.4203C130.239 81.4382 130.218 81.4524 130.194 81.462C130.171 81.4716 130.145 81.4764 130.12 81.4761V81.4761Z" fill="white"/>
<path d="M112.771 48.3248H109.108C108.906 48.3247 108.712 48.2518 108.56 48.1197C108.408 47.9875 108.308 47.805 108.28 47.6055C108.054 45.941 108.054 44.2536 108.28 42.5892C108.308 42.3921 108.405 42.2114 108.554 42.0796C108.704 41.9478 108.895 41.8734 109.094 41.8699C110.246 41.3533 111.488 41.3534 112.784 41.8699C112.904 41.8715 113.023 41.8995 113.132 41.9519C113.241 42.0044 113.337 42.08 113.413 42.1734C113.493 42.2706 113.55 42.3844 113.58 42.5064C113.61 42.6284 113.613 42.7556 113.588 42.8788C113.294 44.3432 113.294 45.8515 113.588 47.3158C113.613 47.439 113.61 47.5662 113.58 47.6882C113.55 47.8103 113.493 47.924 113.413 48.0212C113.335 48.1163 113.237 48.1929 113.126 48.2454C113.015 48.298 112.894 48.3251 112.771 48.3248Z" fill="#0050FF"/>
<path d="M112.387 43.7824H109.304C109.279 43.7826 109.254 43.7778 109.23 43.7682C109.206 43.7586 109.185 43.7445 109.167 43.7265C109.149 43.7086 109.134 43.6873 109.125 43.6638C109.115 43.6403 109.11 43.6151 109.11 43.5897C109.11 43.5642 109.115 43.539 109.125 43.5155C109.134 43.492 109.149 43.4707 109.167 43.4528C109.185 43.4349 109.206 43.4207 109.23 43.4112C109.254 43.4016 109.279 43.3968 109.304 43.397H112.387C112.413 43.3968 112.438 43.4016 112.462 43.4112C112.485 43.4207 112.507 43.4349 112.525 43.4528C112.543 43.4707 112.557 43.492 112.567 43.5155C112.577 43.539 112.582 43.5642 112.582 43.5897C112.582 43.6151 112.577 43.6403 112.567 43.6638C112.557 43.6873 112.543 43.7086 112.525 43.7265C112.507 43.7445 112.485 43.7586 112.462 43.7682C112.438 43.7778 112.413 43.7826 112.387 43.7824V43.7824Z" fill="white"/>
<path d="M112.387 45.3239H109.304C109.279 45.3242 109.254 45.3194 109.23 45.3098C109.206 45.3002 109.185 45.286 109.167 45.2681C109.149 45.2502 109.134 45.2289 109.125 45.2054C109.115 45.1819 109.11 45.1567 109.11 45.1312C109.11 45.1058 109.115 45.0806 109.125 45.0571C109.134 45.0336 109.149 45.0123 109.167 44.9944C109.185 44.9765 109.206 44.9623 109.23 44.9527C109.254 44.9431 109.279 44.9383 109.304 44.9385H112.387C112.413 44.9383 112.438 44.9431 112.462 44.9527C112.485 44.9623 112.507 44.9765 112.525 44.9944C112.543 45.0123 112.557 45.0336 112.567 45.0571C112.577 45.0806 112.582 45.1058 112.582 45.1312C112.582 45.1567 112.577 45.1819 112.567 45.2054C112.557 45.2289 112.543 45.2502 112.525 45.2681C112.507 45.286 112.485 45.3002 112.462 45.3098C112.438 45.3194 112.413 45.3242 112.387 45.3239V45.3239Z" fill="white"/>
<path d="M112.388 46.8656H109.304C109.279 46.8658 109.254 46.861 109.23 46.8514C109.206 46.8419 109.185 46.8277 109.167 46.8098C109.149 46.7919 109.135 46.7705 109.125 46.747C109.115 46.7235 109.11 46.6983 109.11 46.6729C109.11 46.6474 109.115 46.6222 109.125 46.5987C109.135 46.5752 109.149 46.5539 109.167 46.536C109.185 46.5181 109.206 46.5039 109.23 46.4943C109.254 46.4847 109.279 46.4799 109.304 46.4802H112.388C112.413 46.4799 112.438 46.4847 112.462 46.4943C112.485 46.5039 112.507 46.5181 112.525 46.536C112.543 46.5539 112.557 46.5752 112.567 46.5987C112.577 46.6222 112.582 46.6474 112.582 46.6729C112.582 46.6983 112.577 46.7235 112.567 46.747C112.557 46.7705 112.543 46.7919 112.525 46.8098C112.507 46.8277 112.485 46.8419 112.462 46.8514C112.438 46.861 112.413 46.8658 112.388 46.8656V46.8656Z" fill="white"/>
<path d="M48.464 57.7252H44.8008C44.5993 57.7251 44.4047 57.6522 44.2526 57.5201C44.1005 57.3879 44.0012 57.2053 43.9729 57.0059C43.7467 55.3414 43.7467 53.654 43.9729 51.9896C44.0008 51.7925 44.0981 51.6118 44.2473 51.48C44.3965 51.3482 44.5877 51.2738 44.7868 51.2703C45.9393 50.7537 47.1805 50.7538 48.4766 51.2703C48.5973 51.2719 48.7162 51.2999 48.8249 51.3523C48.9337 51.4047 49.0296 51.4803 49.106 51.5738C49.1857 51.671 49.2427 51.7848 49.2729 51.9068C49.3031 52.0288 49.3058 52.156 49.2807 52.2792C48.9864 53.7436 48.9864 55.2519 49.2807 56.7162C49.3058 56.8394 49.3031 56.9666 49.2729 57.0886C49.2427 57.2106 49.1857 57.3244 49.106 57.4216C49.0283 57.5167 48.9303 57.5933 48.8193 57.6458C48.7082 57.6984 48.5869 57.7255 48.464 57.7252V57.7252Z" fill="#0050FF"/>
<path d="M48.0803 53.1828H44.9971C44.9717 53.183 44.9464 53.1782 44.9229 53.1686C44.8993 53.159 44.8779 53.1448 44.8598 53.1269C44.8417 53.109 44.8274 53.0877 44.8176 53.0642C44.8078 53.0407 44.8027 53.0155 44.8027 52.9901C44.8027 52.9646 44.8078 52.9394 44.8176 52.9159C44.8274 52.8924 44.8417 52.8711 44.8598 52.8532C44.8779 52.8353 44.8993 52.8211 44.9229 52.8115C44.9464 52.802 44.9717 52.7971 44.9971 52.7974H48.0803C48.1058 52.7971 48.131 52.802 48.1546 52.8115C48.1782 52.8211 48.1996 52.8353 48.2177 52.8532C48.2358 52.8711 48.2501 52.8924 48.2599 52.9159C48.2697 52.9394 48.2747 52.9646 48.2747 52.9901C48.2747 53.0155 48.2697 53.0407 48.2599 53.0642C48.2501 53.0877 48.2358 53.109 48.2177 53.1269C48.1996 53.1448 48.1782 53.159 48.1546 53.1686C48.131 53.1782 48.1058 53.183 48.0803 53.1828V53.1828Z" fill="white"/>
<path d="M48.0803 54.7243H44.9971C44.9717 54.7245 44.9464 54.7197 44.9229 54.7101C44.8993 54.7006 44.8779 54.6864 44.8598 54.6685C44.8417 54.6506 44.8274 54.6293 44.8176 54.6058C44.8078 54.5823 44.8027 54.5571 44.8027 54.5316C44.8027 54.5062 44.8078 54.481 44.8176 54.4575C44.8274 54.434 44.8417 54.4127 44.8598 54.3948C44.8779 54.3769 44.8993 54.3627 44.9229 54.3531C44.9464 54.3435 44.9717 54.3387 44.9971 54.3389H48.0803C48.1058 54.3387 48.131 54.3435 48.1546 54.3531C48.1782 54.3627 48.1996 54.3769 48.2177 54.3948C48.2358 54.4127 48.2501 54.434 48.2599 54.4575C48.2697 54.481 48.2747 54.5062 48.2747 54.5316C48.2747 54.5571 48.2697 54.5823 48.2599 54.6058C48.2501 54.6293 48.2358 54.6506 48.2177 54.6685C48.1996 54.6864 48.1782 54.7006 48.1546 54.7101C48.131 54.7197 48.1058 54.7245 48.0803 54.7243Z" fill="white"/>
<path d="M48.0805 56.266H44.9973C44.9718 56.2662 44.9465 56.2614 44.923 56.2518C44.8994 56.2422 44.8779 56.2281 44.8598 56.2102C44.8417 56.1922 44.8274 56.1709 44.8176 56.1474C44.8078 56.1239 44.8027 56.0987 44.8027 56.0733C44.8027 56.0478 44.8078 56.0226 44.8176 55.9991C44.8274 55.9756 44.8417 55.9543 44.8598 55.9364C44.8779 55.9184 44.8994 55.9043 44.923 55.8947C44.9465 55.8851 44.9718 55.8803 44.9973 55.8806H48.0805C48.1059 55.8803 48.1312 55.8851 48.1548 55.8947C48.1783 55.9043 48.1998 55.9184 48.2179 55.9364C48.236 55.9543 48.2503 55.9756 48.2601 55.9991C48.2699 56.0226 48.275 56.0478 48.275 56.0733C48.275 56.0987 48.2699 56.1239 48.2601 56.1474C48.2503 56.1709 48.236 56.1922 48.2179 56.2102C48.1998 56.2281 48.1783 56.2422 48.1548 56.2518C48.1312 56.2614 48.1059 56.2662 48.0805 56.266V56.266Z" fill="white"/>
<path d="M131.577 78.2526C131.754 78.1479 131.906 78.0056 132.023 77.8358C132.139 77.6659 132.217 77.4726 132.25 77.2694C132.284 77.0663 132.272 76.8583 132.217 76.6601C132.161 76.4618 132.063 76.2782 131.929 76.1221L134.444 71.7958L131.848 71.9421L129.857 76.028C129.61 76.2709 129.46 76.596 129.436 76.9418C129.413 77.2876 129.517 77.6301 129.729 77.9043C129.941 78.1785 130.246 78.3654 130.587 78.4296C130.927 78.4938 131.28 78.4309 131.577 78.2527V78.2526Z" fill="#FFB6B6"/>
<path d="M132.592 75.072L130.268 73.2614L134.492 65.0757L132.909 54.6515C132.831 54.1362 132.867 53.61 133.015 53.1103C133.163 52.6106 133.419 52.1496 133.765 51.76C134.111 51.3704 134.539 51.0619 135.018 50.8562C135.497 50.6505 136.015 50.5528 136.536 50.5699V50.5699C137.477 50.6019 138.366 51.0059 139.01 51.6931C139.653 52.3802 139.998 53.2946 139.968 54.2354L139.577 66.1048L132.592 75.072Z" fill="#CCCCCC"/>
<path d="M20.2377 72.8355C20.3841 72.6883 20.4965 72.5109 20.5669 72.3156C20.6373 72.1203 20.664 71.912 20.6452 71.7052C20.6263 71.4985 20.5624 71.2984 20.4579 71.1191C20.3534 70.9397 20.2108 70.7855 20.0402 70.6672L22.301 59.4379L19.8044 60.2395L17.9947 71.101C17.815 71.4008 17.7515 71.756 17.8162 72.0995C17.8809 72.4429 18.0693 72.7507 18.3458 72.9645C18.6223 73.1783 18.9676 73.2832 19.3162 73.2595C19.6649 73.2357 19.9928 73.0848 20.2377 72.8355H20.2377Z" fill="#9E616A"/>
<path d="M23.5759 49.0773L22.0269 47.908C22.0269 47.908 20.6604 47.8113 20.4184 50.2756C20.1764 52.7399 19.6794 57.5424 19.6794 57.5424L17.3091 68.5209L20.5903 69.2411L23.1291 57.3934L24.6521 53.8751L23.5759 49.0773Z" fill="#CCCCCC"/>
<path d="M21.022 67.004L29.7509 66.8586L30.4783 60.8938H21.022V67.004Z" fill="#9E616A"/>
<path d="M28.8779 103.709H30.893L31.8516 95.9365L28.8774 95.9367L28.8779 103.709Z" fill="#9E616A"/>
<path d="M16.2539 103.896L18.269 103.882L19.1732 96.1025L16.5524 96.7037L16.2539 103.896Z" fill="#9E616A"/>
<path d="M22.5562 55.7572L22.0996 56.9442L22.1908 58.1314L31.127 61.2265L30.6837 56.031L29.6791 54.8438L22.5562 55.7572Z" fill="#FFB6B6"/>
<path d="M26.3899 45.0739C28.1526 45.0739 29.5815 43.6449 29.5815 41.8822C29.5815 40.1196 28.1526 38.6906 26.3899 38.6906C24.6272 38.6906 23.1982 40.1196 23.1982 41.8822C23.1982 43.6449 24.6272 45.0739 26.3899 45.0739Z" fill="#9E616A"/>
<path d="M28.3782 102.715L31.5637 102.525V103.89L34.5922 105.981C34.7418 106.085 34.8545 106.233 34.9138 106.405C34.9731 106.577 34.9758 106.763 34.9217 106.937C34.8676 107.11 34.7595 107.262 34.6131 107.37C34.4666 107.477 34.2896 107.535 34.1078 107.535H30.3154L29.6617 106.185L29.4065 107.535H27.9766L28.3782 102.715Z" fill="#2F2E41"/>
<path d="M15.5642 102.907L18.7483 102.694L18.7578 104.059L21.8009 106.129C21.9512 106.231 22.0649 106.379 22.1254 106.55C22.1859 106.722 22.19 106.908 22.1371 107.082C22.0842 107.256 21.9771 107.409 21.8315 107.517C21.6858 107.626 21.5092 107.685 21.3274 107.687L17.535 107.713L16.8719 106.368L16.6262 107.72L15.1963 107.73L15.5642 102.907Z" fill="#2F2E41"/>
<path d="M15.6266 97.9364L17.094 86.2077L18.8397 73.8418C17.5613 71.4674 20.44 64.0945 20.44 64.0945L20.8464 64.114L30.0438 65.8491L30.0418 65.8403C31.923 70.9711 32.5463 73.5059 32.4432 78.9698L32.0726 98.6113H32.1888C32.3818 98.6113 32.5668 98.6879 32.7032 98.8243C32.8396 98.9607 32.9163 99.1457 32.9163 99.3387C32.9163 99.5316 32.8396 99.7166 32.7032 99.853C32.5668 99.9894 32.3818 100.066 32.1888 100.066H28.5518C28.4562 100.066 28.3614 100.048 28.273 100.011C28.1846 99.9746 28.1043 99.921 28.0366 99.8535C27.969 99.7859 27.9153 99.7057 27.8786 99.6173C27.842 99.529 27.8231 99.4343 27.8231 99.3387C27.8231 99.243 27.842 99.1483 27.8786 99.06C27.9153 98.9717 27.969 98.8914 28.0366 98.8239C28.1043 98.7563 28.1846 98.7027 28.273 98.6663C28.3614 98.6298 28.4562 98.6111 28.5518 98.6113H28.6456L25.3072 75.2241L22.4768 85.0439L19.2762 97.8463C20.44 97.5553 20.2593 98.2295 20.2593 98.6113C20.2593 98.8042 20.1827 98.9892 20.0463 99.1256C19.9099 99.262 19.7248 99.3387 19.5319 99.3387H15.8949C15.7257 99.3388 15.5618 99.28 15.4314 99.1723C15.301 99.0645 15.2122 98.9147 15.1804 98.7485C15.1486 98.5824 15.1758 98.4104 15.2573 98.2621C15.3387 98.1139 15.4694 97.9987 15.6266 97.9364H15.6266Z" fill="#2F2E41"/>
<path d="M19.7238 64.4764L20.0148 61.5667C20.045 61.448 20.112 61.342 20.2062 61.2637C20.3004 61.1854 20.417 61.139 20.5392 61.1311C20.6605 59.745 21.1705 53.7655 21.201 53.5047L21.2022 53.4937L21.4341 48.5389C21.4426 48.359 21.517 48.1884 21.6432 48.0599C21.7694 47.9313 21.9385 47.8538 22.1183 47.842L23.3433 47.7619C23.3602 47.7614 23.3761 47.7543 23.3878 47.7422C23.3995 47.7301 23.406 47.714 23.406 47.6972C23.406 47.5619 23.4326 47.4279 23.4844 47.3029C23.5362 47.1779 23.6121 47.0643 23.7077 46.9687C23.8034 46.873 23.917 46.7971 24.042 46.7454C24.1669 46.6936 24.3009 46.6669 24.4362 46.6669H28.0632C28.2982 46.667 28.525 46.7529 28.7011 46.9083C28.8772 47.0638 28.9906 47.2782 29.0199 47.5113C29.0215 47.5273 29.0291 47.5422 29.0412 47.5529C29.0532 47.5635 29.0689 47.5693 29.085 47.5689H29.0855C29.4976 47.5604 29.8991 47.7 30.2172 47.9622C30.5352 48.2244 30.7487 48.592 30.819 48.9982C31.3148 51.8832 32.3086 58.4312 31.8172 62.0715C31.6462 63.3387 32.0149 62.335 32.0796 63.3953C32.086 63.4978 32.0721 63.6005 32.0388 63.6976C32.0055 63.7947 31.9533 63.8843 31.8853 63.9612C32.0245 64.0118 32.1382 64.1153 32.2016 64.2492C32.265 64.3831 32.273 64.5366 32.224 64.6764L32.2877 64.6606C32.269 64.7347 32.236 64.8044 32.1903 64.8657C32.1447 64.927 32.0875 64.9788 32.0219 65.018C31.9563 65.0572 31.8836 65.083 31.808 65.0941C31.7324 65.1052 31.6553 65.1013 31.5812 65.0826L22.092 66.3684C21.7803 66.2899 19.6452 64.788 19.7238 64.4764Z" fill="#CCCCCC"/>
<path d="M45.0805 52.6464C45.0211 52.8453 44.9188 53.0288 44.7808 53.1838C44.6428 53.3389 44.4724 53.4618 44.2818 53.5439C44.0911 53.626 43.8848 53.6654 43.6773 53.6591C43.4698 53.6528 43.2662 53.6012 43.0808 53.5077L39.4124 56.8556L38.9253 54.2791L42.4859 51.5032C42.6635 51.2022 42.9454 50.9768 43.2781 50.8698C43.6108 50.7627 43.9712 50.7814 44.291 50.9223C44.6108 51.0633 44.8679 51.3166 45.0134 51.6344C45.1589 51.9521 45.1828 52.3122 45.0806 52.6464H45.0805Z" fill="#9E616A"/>
<path d="M32.3119 50.0874C32.3119 50.0874 31.0327 47.1966 29.4171 47.7712C27.8015 48.3459 28.6357 51.1507 28.6357 51.1507L34.7056 60.2971C34.7056 60.2971 43.4606 54.6809 42.396 54.6413C41.3314 54.6016 41.0129 52.6653 41.0129 52.6653L36.3857 54.9773L36.2292 54.1543L35.9782 54.4052L35.3307 53.8955L32.3119 50.0874Z" fill="#CCCCCC"/>
<path d="M136.952 46.9118C139.413 46.9118 141.408 44.9168 141.408 42.4558C141.408 39.9949 139.413 37.9999 136.952 37.9999C134.491 37.9999 132.496 39.9949 132.496 42.4558C132.496 44.9168 134.491 46.9118 136.952 46.9118Z" fill="#FFB6B6"/>
<path d="M151.252 49.0127C150.738 49.7414 149.987 50.2698 149.128 50.5083C148.784 50.6106 148.429 50.6709 148.07 50.6879C148.026 50.2825 147.92 49.8864 147.756 49.5131C147.773 49.9104 147.717 50.3075 147.593 50.6851C147.055 50.6546 146.528 50.5136 146.047 50.2709C145.574 50.033 145.163 49.6882 144.847 49.2638C144.53 48.8394 144.317 48.3471 144.224 47.826C144.035 46.6072 144.588 45.4104 144.788 44.1935C144.989 42.9765 144.612 41.4352 143.421 41.1153C142.513 40.8716 142.615 40.977 141.861 41.5369C142.645 42.6968 139.748 46.9477 138.562 46.577C137.891 46.3674 137.462 45.7522 137.324 45.7522C136.392 47.3577 138.147 50.0629 136.378 50.6246L136.524 50.4789C137.591 49.1658 135.36 46.3864 136.428 45.0732C136.725 44.7057 137.043 44.2704 136.955 43.8058C136.871 43.3641 136.17 43.1305 135.965 43.4933C136.334 42.6475 135.789 41.5185 134.886 41.3013C134.084 41.108 134.099 41.3462 133.295 41.4498C133.242 41.1021 133.144 40.7628 133.002 40.4409C133.017 40.7878 132.976 41.1348 132.882 41.469C132.598 41.4635 132.323 41.3643 132.101 41.1868C131.445 40.658 131.578 39.5474 132.164 38.9417C132.75 38.3359 133.622 38.1178 134.453 37.9767C134.694 36.2941 139.337 36.1186 139.952 37.7998C140.214 36.5444 141.786 35.8928 143.007 36.2823C144.229 36.6718 145.077 37.8127 145.523 39.015C145.969 40.2164 146.094 41.5094 146.369 42.7612C146.644 44.0129 147.108 45.2876 148.065 46.1408C149.022 46.993 150.58 47.2753 151.588 46.4835C151.735 46.9019 151.781 47.3489 151.722 47.7883C151.664 48.2277 151.503 48.6472 151.252 49.0127Z" fill="#2F2E41"/>
<path d="M193.058 59.1813L192.434 62.3112C192.387 62.5505 192.338 62.7941 192.284 63.0355C191.763 62.9274 191.222 62.9576 190.716 63.1231C191.118 63.6969 191.478 64.2988 191.793 64.9241C191.4 66.1355 190.823 67.255 189.857 68.0647C189.212 68.5935 188.442 68.9471 187.621 69.0916C186.799 69.236 185.954 69.1664 185.168 68.8894L185.196 68.7655C184.157 66.7508 184.721 64.2105 186.012 62.3497C186.67 61.4317 187.45 60.6073 188.33 59.8992C189.201 59.1728 190.144 58.5212 191.077 57.8781C191.287 57.7339 191.535 57.6555 191.789 57.6529C192.044 57.6503 192.293 57.7236 192.506 57.8635C192.718 58.0034 192.884 58.2035 192.983 58.4383C193.081 58.673 193.107 58.9317 193.058 59.1813V59.1813Z" fill="#E4E4E4"/>
<path d="M185.39 76.4203C185.127 74.5075 184.857 72.5704 185.041 70.6371C185.205 68.9203 185.728 67.2434 186.795 65.8684C187.361 65.1399 188.05 64.5157 188.83 64.024C189.034 63.8958 189.221 64.2182 189.018 64.3459C187.668 65.1994 186.623 66.4598 186.035 67.9452C185.386 69.5971 185.282 71.3979 185.394 73.1526C185.462 74.2138 185.606 75.2677 185.75 76.3209C185.762 76.3686 185.755 76.4189 185.731 76.4616C185.706 76.5042 185.667 76.536 185.62 76.5504C185.572 76.5633 185.521 76.5568 185.478 76.5324C185.435 76.508 185.404 76.4677 185.39 76.4201L185.39 76.4203Z" fill="#F2F2F2"/>
<path d="M200.246 107.888L0.754625 107.954C0.687286 107.954 0.622773 107.927 0.575226 107.879C0.527678 107.832 0.500977 107.767 0.500977 107.7C0.500977 107.632 0.527678 107.568 0.575226 107.52C0.622773 107.472 0.687286 107.445 0.754625 107.445L200.246 107.38C200.313 107.38 200.378 107.407 200.425 107.454C200.473 107.502 200.5 107.567 200.5 107.634C200.5 107.701 200.473 107.766 200.425 107.814C200.378 107.861 200.313 107.888 200.246 107.888V107.888Z" fill="#CACACA"/>
<path d="M22.6334 39.9281C22.1439 40.163 21.596 39.8096 21.1734 39.4594L21.3245 39.5899C20.5776 40.3166 20.2284 41.3621 20.0578 42.3913C19.887 43.4194 19.8679 44.4708 19.6529 45.4916C19.4377 46.5113 18.9912 47.5359 18.1573 48.1604C17.0402 48.9969 15.4994 48.9432 14.1284 48.6868C14.1102 48.6831 14.0932 48.6803 14.0749 48.6766C14.4438 47.6115 14.5937 46.4829 14.5157 45.3584C14.1483 46.4853 13.5227 47.5107 12.6888 48.353C11.7798 48.1028 10.8926 47.7795 10.0358 47.3863C9.48142 47.1311 8.88448 46.7822 8.73063 46.1914C8.57637 45.6051 8.93457 44.9901 9.41353 44.6199C9.89249 44.2496 10.4803 44.0565 11.026 43.7927C11.5707 43.5302 12.1098 43.1559 12.3279 42.5909C12.831 41.2911 11.3979 39.7996 11.9564 38.5218C12.2318 37.8935 12.9064 37.5517 13.5405 37.2883C14.5085 36.8871 15.5024 36.5518 16.5156 36.2847C17.4051 36.0501 18.3338 35.8678 19.2399 36.0216C20.146 36.1754 21.0336 36.7265 21.3598 37.587C21.9039 37.7709 22.4816 37.9781 22.8308 38.4362C23.1798 38.8931 23.1517 39.6797 22.6334 39.9281Z" fill="#2F2E41"/>
<path d="M26.9889 38.4218C25.5886 37.3163 24.4563 37.5051 23.5829 38.1919C23.4361 38.0285 22.8112 38.4779 22.5996 38.4133L21.8344 39.8499C21.4406 40.5448 21.279 41.2542 21.3427 41.6534C20.6183 43.6847 22.336 45.0564 24.3674 45.7807C25.1779 46.0717 26.0623 46.0845 26.8809 45.8171L26.9059 45.471L27.0597 45.7547C27.0597 45.7547 28.9167 49.5783 29.3555 49.75C29.0893 49.0593 28.387 45.7766 28.191 45.0923C27.9222 44.1612 28.1058 42.6821 28.2638 41.7752C28.3622 41.2161 28.3674 40.6445 28.279 40.0837L28.2751 40.0592L28.7096 40.9363L29.6845 40.3233C29.3119 39.2381 29.3045 37.9399 26.9889 38.4218Z" fill="#2F2E41"/>
<path d="M181.545 52.5579C180.704 52.697 180.185 51.2778 179.642 51.3671C178.648 51.5308 179.06 56.6229 178.283 56.6662C177.621 56.7032 176.771 54.4561 176.069 53.108C175.7 52.3993 175.5 51.8953 175.5 51.8953C175.5 51.8953 175.807 50.3728 176.243 50.9738C176.867 51.8322 177.336 54.8386 177.681 54.7014C178.211 54.4913 177.614 51.9064 178.885 51.1091C179.996 50.4126 182.165 51.4021 182.167 52.022C182.167 52.2601 181.848 52.5078 181.545 52.5579Z" fill="#0050FF"/>
</g>
<defs>
<clipPath id="clip0_1114_14447">
<rect width="200" height="107.954" fill="white" transform="translate(0.5)"/>
</clipPath>
</defs>
</svg>
