<svg width="241" height="160" viewBox="0 0 241 160" fill="none" xmlns="http://www.w3.org/2000/svg">
<g clip-path="url(#clip0_1269_13230)">
<path d="M182.948 63.5299C165.815 66.3025 155.234 38.0167 144.184 39.7969C123.932 43.0593 132.327 144.546 116.495 145.409C103 146.145 85.6883 101.361 71.391 74.4926C63.876 60.37 59.7907 50.3253 59.7907 50.3253C59.7907 50.3253 66.044 19.9814 74.9356 31.9581C87.6377 49.0675 97.1885 108.984 104.233 106.249C115.02 102.062 102.853 50.5462 128.757 34.6547C151.383 20.7741 195.579 40.4957 195.605 52.8501C195.616 57.5948 189.114 62.5321 182.948 63.5299Z" fill="#0050FF"/>
<path d="M169.245 140.862H165.865L164.258 127.827H169.245L169.245 140.862Z" fill="#FFB6B6"/>
<path d="M169.155 139.758L165.547 138.29L165.443 138.248L163.451 139.758C162.326 139.758 161.248 140.205 160.452 141C159.657 141.796 159.21 142.874 159.21 143.999V144.137H170.106V139.758H169.155Z" fill="#2F2E41"/>
<path d="M211.56 114.869L210.797 118.161L197.736 116.788L198.861 111.929L211.56 114.869Z" fill="#FFB6B6"/>
<path d="M210.679 113.779L210.483 114.62L210.463 114.707L208.226 117.889L208.158 117.984L209.178 120.265C209.052 120.807 209.035 121.369 209.126 121.919C209.218 122.468 209.417 122.994 209.712 123.466C210.007 123.939 210.392 124.349 210.846 124.672C211.299 124.995 211.812 125.226 212.354 125.352L212.487 125.382L214.946 114.769L210.679 113.779Z" fill="#2F2E41"/>
<path d="M166.953 70.8018L185.587 71.4539L185.717 71.2653C185.717 71.2653 187.307 74.974 187.307 78.1529C187.307 79.2099 186.571 86.1227 186.945 87.4306C186.992 87.5933 186.672 87.9919 186.777 88.7493C186.845 89.2408 187.22 88.8628 187.307 89.5441C187.368 90.0331 186.708 90.303 186.777 90.8686C186.852 91.4866 187.761 93.4883 187.843 94.1757C188.714 101.494 187.297 103.396 187.297 103.396C187.297 103.396 203.233 110.074 204.219 110.277C205.873 110.617 206.99 113.625 206.073 114.25C205.637 114.548 204.184 120.097 204.184 120.097C203.874 120.153 202.904 119.666 203.522 118.516C203.636 118.304 202.958 118.843 202.845 118.59C202.725 118.32 201.027 119.503 200.89 119.204C199.657 116.517 184.23 112.793 182.436 110.881C179.785 108.056 178.107 104.458 177.645 100.612L176.108 86.4964L174.698 92.8944L173.531 94.0475L173.851 96.7361L173.796 99.3458L170.882 110.207C170.882 110.207 170.445 130.491 171.147 131.135C171.527 131.484 173.14 135.781 170.087 136.168L164.541 135.74C164.541 135.74 163.793 134.165 164.167 133.605C164.541 133.044 164.518 133.197 164.062 132.28C163.606 131.363 163.793 129.809 163.793 129.809C163.067 122.504 162.78 115.162 162.935 107.823C163.213 95.7687 164.898 81.9208 164.898 81.6386C164.912 81.3501 164.859 81.0624 164.743 80.798V80.0372L165.458 77.3412L166.953 70.8018Z" fill="#2F2E41"/>
<path d="M177.703 29.2815C181.068 29.2815 183.795 26.5541 183.795 23.1896C183.795 19.8251 181.068 17.0977 177.703 17.0977C174.339 17.0977 171.611 19.8251 171.611 23.1896C171.611 26.5541 174.339 29.2815 177.703 29.2815Z" fill="#FFB6B6"/>
<path d="M184.077 18.6033C183.674 18.1686 183.157 17.8565 182.585 17.7031C182.013 17.5496 181.409 17.561 180.844 17.736C180.596 17.0262 180.158 16.3981 179.577 15.9201C178.997 15.442 178.297 15.1323 177.553 15.0247C176.808 14.9171 176.049 15.0157 175.357 15.3098C174.665 15.6039 174.067 16.0822 173.628 16.6926C173.428 16.6025 173.207 16.5657 172.988 16.5858C172.769 16.6059 172.559 16.6823 172.378 16.8075C172.019 17.0629 171.729 17.4044 171.536 17.8006C171.038 18.7468 170.806 19.8104 170.864 20.8781C170.923 21.9457 171.27 22.9776 171.868 23.8638C171.63 23.3824 172.3 24.2115 172.953 23.9943C173.514 23.8472 175.819 22.3691 176.395 22.4438C176.97 22.5186 177.157 22.0547 177.719 21.914C178.27 21.7377 179.677 24.0162 179.959 25.5238C180.013 25.8095 180.143 26.1645 180.433 26.171C180.791 26.179 180.898 25.6665 181.2 25.474C181.342 25.4016 181.507 25.3873 181.66 25.4341C181.812 25.4809 181.941 25.585 182.018 25.7247C182.089 25.8682 182.124 26.0265 182.121 26.1865C182.118 26.3464 182.077 26.5032 182.001 26.644C181.847 26.9239 181.648 27.177 181.413 27.3936L181.57 27.4795C181.724 27.5897 181.911 27.643 182.1 27.6302C182.289 27.6174 182.468 27.5392 182.605 27.4092C183.187 27.6717 184.77 26.1913 184.559 25.2957C185.001 24.1979 185.243 23.0298 185.273 21.8467C185.297 20.6534 184.87 19.495 184.077 18.6033Z" fill="#2F2E41"/>
<path d="M137.125 39.1308C137.351 39.3426 137.62 39.5025 137.914 39.5991C138.208 39.6957 138.519 39.7266 138.827 39.6898C139.134 39.653 139.429 39.5493 139.692 39.3859C139.955 39.2226 140.178 39.0037 140.347 38.7445L153.369 41.8608L152.069 38.1756L139.614 35.7158C139.16 35.4608 138.628 35.3812 138.119 35.4922C137.61 35.6032 137.16 35.897 136.853 36.3179C136.546 36.7389 136.405 37.2577 136.455 37.7761C136.505 38.2946 136.744 38.7765 137.125 39.1308Z" fill="#FFB8B8"/>
<path d="M211.285 136.88C211.52 136.888 211.752 136.824 211.95 136.696C212.148 136.568 212.302 136.383 212.39 136.165C212.479 135.947 212.499 135.707 212.446 135.477C212.394 135.247 212.273 135.039 212.098 134.881C212.068 134.766 212.047 134.684 212.017 134.569C212.236 133.995 212.622 133.5 213.125 133.147C213.628 132.794 214.225 132.599 214.84 132.587C215.454 132.576 216.058 132.748 216.574 133.081C217.09 133.415 217.494 133.896 217.736 134.461C219.127 137.633 220.92 140.914 220.077 144.431C225.747 132.113 223.634 116.878 214.983 106.473C212.607 105.193 210.669 102.898 210.145 100.217C211.318 100.602 212.767 99.6366 211.876 98.4127C211.491 97.9454 211.101 97.4819 210.715 97.0146C215.114 92.2399 220.479 99.6271 215.649 106.061C217.268 108.052 218.675 110.206 219.846 112.49C219.557 110.056 219.85 107.589 220.701 105.29C221.566 103.148 223.207 101.335 224.649 99.4761C226.403 97.2113 230.067 98.2135 230.333 101.064C228.7 101.618 228.509 103.987 230.387 104.293C229.946 109.604 226.526 114.514 221.773 116.887C223.583 121.818 224.322 127.078 223.94 132.317C224.724 126.191 231.277 124.644 235.844 122.169C236.135 121.979 236.474 121.877 236.821 121.877C237.168 121.876 237.508 121.977 237.799 122.166C238.09 122.355 238.32 122.625 238.46 122.942C238.6 123.26 238.645 123.611 238.589 123.954C237.957 124.217 237.354 124.543 236.787 124.926C236.522 125.108 236.319 125.368 236.207 125.67C236.095 125.972 236.079 126.301 236.162 126.612C236.244 126.924 236.421 127.202 236.667 127.409C236.914 127.616 237.219 127.741 237.54 127.768C235.28 133.517 229.335 137.419 223.191 137.456C222.625 140.027 221.794 142.533 220.71 144.932L211.591 145.019C211.557 144.918 211.527 144.814 211.496 144.713C212.341 144.758 213.188 144.699 214.018 144.538C211.76 141.916 210.02 140.583 211.285 136.88L211.285 136.88Z" fill="#F2F2F2"/>
<path d="M27.9385 111.101C27.7032 111.11 27.4709 111.046 27.2732 110.918C27.0754 110.79 26.9218 110.605 26.833 110.387C26.7442 110.168 26.7247 109.928 26.7769 109.699C26.8292 109.469 26.9508 109.261 27.1252 109.103C27.1552 108.988 27.1768 108.906 27.2068 108.791C26.9872 108.217 26.6011 107.722 26.0982 107.369C25.5952 107.015 24.9983 106.821 24.3838 106.809C23.7694 106.797 23.1655 106.969 22.6495 107.303C22.1335 107.637 21.7289 108.117 21.4877 108.683C20.0964 111.855 18.3036 115.136 19.1462 118.653C13.4768 106.335 15.5898 91.0999 24.2407 80.6943C26.6168 79.4147 28.5546 77.1197 29.0789 74.4384C27.9053 74.8236 26.4559 73.8582 27.3472 72.6344C27.7329 72.1671 28.1223 71.7036 28.508 71.2362C24.1095 66.4616 18.7442 73.8488 23.5745 80.2826C21.9553 82.2734 20.5488 84.428 19.3777 86.7113C19.6663 84.2776 19.373 81.8103 18.522 79.5121C17.6577 77.3697 16.0167 75.5566 14.5741 73.6978C12.8202 71.4329 9.15644 72.4352 8.89039 75.2856C10.5237 75.8397 10.714 78.2084 8.83675 78.5145C9.2771 83.826 12.6976 88.7359 17.4506 91.1088C15.6401 96.0397 14.9013 101.3 15.2836 106.539C14.499 100.413 7.94599 98.8657 3.37899 96.3905C3.08862 96.2003 2.7492 96.0988 2.40213 96.0983C2.05505 96.0977 1.71533 96.1982 1.42439 96.3875C1.13346 96.5768 0.903889 96.8466 0.763694 97.1641C0.623498 97.4816 0.578738 97.833 0.634867 98.1755C1.26595 98.4392 1.86928 98.7649 2.43597 99.1478C2.70149 99.33 2.90414 99.5898 3.01617 99.8918C3.1282 100.194 3.14411 100.523 3.06172 100.834C2.97933 101.145 2.80268 101.424 2.55598 101.631C2.30927 101.838 2.00459 101.963 1.68371 101.99C3.94291 107.739 9.88822 111.641 16.0322 111.678C16.5982 114.249 17.4298 116.754 18.5138 119.154L27.6325 119.241C27.6661 119.14 27.6965 119.035 27.7269 118.934C26.8824 118.979 26.0355 118.921 25.2052 118.76C27.4634 116.137 29.2033 114.805 27.9388 111.101L27.9385 111.101Z" fill="#F2F2F2"/>
<path d="M108.047 104.765C104.556 105.564 99.9709 108.033 100.22 110.309C100.486 112.749 106.311 115.009 110.982 113.571C114.815 112.391 118.302 108.588 117.505 106.396C116.683 104.132 111.442 103.988 108.047 104.765Z" fill="#0050FF"/>
<path d="M67.1609 30.918C67.0901 31.7687 67.0213 32.6193 66.9547 33.47C66.9038 34.4664 66.7647 35.4563 66.5391 36.4281C66.4875 36.6978 66.3714 36.951 66.2007 37.166C65.8978 37.5108 66.4585 39.528 66.0428 39.7213C65.6207 39.9224 65.1674 40.0499 64.7023 40.0983C64.683 39.9566 64.6572 39.8148 64.6282 39.6762C64.625 39.6601 64.6218 39.6472 64.6186 39.6311C64.4869 39.0021 64.2435 38.4019 63.9 37.8588C63.9809 38.5023 63.9092 39.1558 63.6905 39.7664C63.6551 39.8663 63.6132 39.9662 63.5681 40.0661C61.741 39.7954 60.1589 38.5613 58.9118 38.5742C58.1543 36.0339 57.6206 33.4321 57.3168 30.7987C57.2362 30.0963 57.1911 29.3165 57.6229 28.759C58.0064 28.2628 58.6605 28.0823 59.2727 27.9502C61.273 27.5181 63.317 27.3223 65.3629 27.367L61.8216 26.5421C62.8161 26.486 63.8134 26.5805 64.7797 26.8224C65.7302 27.1092 66.6293 27.7375 66.9966 28.6623C67.2769 29.368 67.2189 30.1607 67.1609 30.918Z" fill="#2F2E41"/>
<path d="M47.2162 138.031H43.8073L42.1855 124.883L47.2169 124.883L47.2162 138.031Z" fill="#FFB6B6"/>
<path d="M36.9274 143.062C36.9291 143.444 37.0813 143.81 37.3511 144.08C37.6208 144.35 37.9863 144.503 38.3682 144.506H44.7853L44.9841 144.094L45.8918 142.221L46.2433 144.094L46.3211 144.506H48.7416L48.707 144.091L48.0616 136.351L47.2173 136.299L43.5693 136.083L42.6731 136.028V138.339C41.9931 139.063 36.6566 141.797 36.9274 143.062Z" fill="#2F2E41"/>
<path d="M87.1526 134.322L84.1877 136.004L76.2886 125.368L80.6645 122.886L87.1526 134.322Z" fill="#FFB6B6"/>
<path d="M80.6856 143.773C80.8741 144.106 81.187 144.35 81.5555 144.452C81.9239 144.554 82.3178 144.506 82.6507 144.318L82.9879 144.128H82.9908L88.2322 141.151L88.0651 138.618L89.5692 140.393L90.6786 139.762L91.6727 139.198L90.7939 137.912L87.0566 132.44L86.2958 132.815L83.0138 134.426L82.2128 134.821L83.3509 136.829C83.1176 137.797 79.8269 142.805 80.6856 143.773Z" fill="#2F2E41"/>
<path d="M64.1329 73.4893C68.1258 73.6327 67.5127 83.0924 68.7591 91.3202C69.8712 98.6607 73.124 104.86 72.0361 105.123L82.803 125.189C78.5928 129.099 73.6525 131.693 67.478 132.059C60.7774 125.901 58.9399 111.732 57.4015 97.0707L55.722 109.946L57.9612 130.379L48.0554 132.775L41.2038 132.285C35.3966 108.861 46.3833 82.3704 51.1132 72.3057L64.1329 73.4893Z" fill="#2F2E41"/>
<path d="M68.3688 68.5945L70.1826 63.153L71.4782 61.3392L71.9964 56.1569C71.9964 42.1647 68.8754 44.4947 68.8754 44.4947L64.8043 39.5736L60.1727 39.4288L56.5127 39.3145L53.4697 44.3672C52.129 44.8404 50.9355 45.6563 50.0078 46.7338C49.0802 47.8113 48.4507 49.1128 48.182 50.509L47.3398 54.8847L50.4899 64.4486L50.351 63.7379C48.8681 66.4754 49.2453 66.8872 50.4732 68.9426L50.5343 69.6847C50.591 70.3524 50.8557 70.9855 51.2911 71.4948C51.7265 72.0041 52.3107 72.3639 52.9615 72.5237C66.0809 75.7933 67.4443 81.5128 69.131 79.1515C69.5229 78.6028 67.8597 72.0541 68.4269 72.1109C69.981 72.2663 68.3688 68.5945 68.3688 68.5945Z" fill="#E6E6E6"/>
<path d="M77.347 88.8463C77.0799 88.6004 76.8694 88.2995 76.73 87.9642C76.5906 87.629 76.5258 87.2675 76.5399 86.9047C76.554 86.5419 76.6467 86.1865 76.8116 85.8631C76.9766 85.5397 77.2098 85.2559 77.4952 85.0315L74.2446 72.9676L77.3605 71.248L81.1165 85.6048C81.4585 86.1133 81.6021 86.7296 81.5201 87.3369C81.4381 87.9442 81.1362 88.5003 80.6715 88.8999C80.2069 89.2994 79.6118 89.5147 78.9991 89.5048C78.3864 89.4949 77.7985 89.2606 77.347 88.8463H77.347Z" fill="#FFB6B6"/>
<path d="M68.3962 44.1436C68.3962 44.1436 74.1813 45.9052 74.6902 48.981C75.1992 52.0567 76.0884 54.7702 75.8585 56.0284C75.6287 57.2866 78.4985 65.7074 77.9392 66.6759C77.3798 67.6445 78.8843 67.8543 78.3649 69.442C77.8454 71.0298 77.5558 71.3593 77.8853 71.6489C78.2148 71.9385 79.6362 78.2348 79.6362 78.2348L75.302 79.494L67.3193 59.714L68.3962 44.1436Z" fill="#E6E6E6"/>
<path d="M45.6058 88.8463C45.8729 88.6004 46.0834 88.2995 46.2228 87.9642C46.3621 87.629 46.427 87.2675 46.4129 86.9047C46.3988 86.5419 46.3061 86.1865 46.1412 85.8631C45.9762 85.5397 45.743 85.2559 45.4576 85.0315L48.7082 72.9676L45.5923 71.248L41.8363 85.6048C41.4943 86.1133 41.3507 86.7296 41.4327 87.3369C41.5147 87.9442 41.8166 88.5003 42.2812 88.8999C42.7459 89.2994 43.341 89.5147 43.9537 89.5048C44.5664 89.4949 45.1543 89.2606 45.6058 88.8463L45.6058 88.8463Z" fill="#FFB6B6"/>
<path d="M54.5565 44.1436C54.5565 44.1436 48.7714 45.9052 48.2624 48.981C47.7534 52.0567 46.8643 54.7702 47.0941 56.0284C47.3239 57.2866 44.4541 65.7074 45.0135 66.6759C45.5728 67.6445 44.0683 67.8543 44.5878 69.442C45.1072 71.0298 45.3968 71.3593 45.0673 71.6489C44.7378 71.9385 43.3164 78.2348 43.3164 78.2348L47.6506 79.494L55.6333 59.714L54.5565 44.1436Z" fill="#E6E6E6"/>
<path d="M59.2935 38.6379C63.2763 38.6379 66.505 35.4092 66.505 31.4264C66.505 27.4435 63.2763 24.2148 59.2935 24.2148C55.3107 24.2148 52.082 27.4435 52.082 31.4264C52.082 35.4092 55.3107 38.6379 59.2935 38.6379Z" fill="#FFB6B6"/>
<path d="M66.6099 42.8641C63.8902 40.4458 68.5272 33.5383 64.9053 28.9284L64.4703 28.6028C64.1424 29.2267 63.61 29.7189 62.9622 29.9967C62.8271 29.3681 62.6001 28.7628 62.2888 28.2003C62.3669 28.8971 62.3045 29.6025 62.1051 30.2748C61.9021 30.3003 61.7571 30.2711 61.7055 30.1796C61.77 30.7394 60.0589 31.0174 60.4166 30.1467C60.4192 30.1379 60.4224 30.1294 60.4263 30.1211C59.9848 31.0101 59.0761 31.4236 58.2866 31.9175C57.4972 32.4077 56.6948 33.2273 56.7722 34.2444C56.8366 35.0676 57.465 35.6822 58.0965 36.092C58.7281 36.5054 59.437 36.8274 59.8946 37.4676C60.6647 38.5433 60.4843 40.1202 60.0944 41.43C60.0164 41.6391 59.8889 41.8263 59.7228 41.9754C59.5567 42.1245 59.3569 42.2311 59.1405 42.2861C59.012 41.5807 58.7693 40.901 58.422 40.2738C58.5031 41.0025 58.4318 41.7401 58.2125 42.4397C57.7429 42.4603 57.274 42.3854 56.8342 42.2193C56.3944 42.0533 55.9929 41.7997 55.654 41.4738L56.1406 43.6324C55.3576 43.4678 54.5681 43.6544 53.7722 43.7971C53.7516 43.5528 53.7182 43.3098 53.6723 43.069C53.5471 42.3452 53.3009 41.6476 52.944 41.0055C53.0437 41.8978 52.9139 42.8007 52.567 43.6288C52.5284 43.7239 52.4865 43.819 52.4414 43.9105C51.2169 43.8227 49.9956 43.1093 50.2276 41.2543C50.3297 40.6591 50.5777 40.0985 50.9494 39.6226C51.581 38.7372 48.3619 37.7896 48.5585 36.7213C48.8517 35.1371 51.7872 33.7358 51.5552 32.137C51.349 30.6882 51.3894 27.4177 52.1868 26.2905C53.3388 24.662 52.0609 21.2931 60.249 23.2063C63.2951 23.918 64.351 20.9299 68.9428 30.0546C69.7301 31.6189 66.8677 31.0812 68.5497 34.4346C70.2317 37.7881 65.4144 40.4458 66.6099 42.8641Z" fill="#2F2E41"/>
<path d="M0.500002 144.608C0.499123 144.424 0.737808 144.275 1.03315 144.274H239.964C240.26 144.274 240.5 144.424 240.5 144.608C240.5 144.793 240.26 144.942 239.964 144.942H1.03634C0.741002 144.943 0.500876 144.794 0.500002 144.61V144.608Z" fill="#CCCCCC"/>
<path d="M160.634 75.8632C160.926 75.7618 161.193 75.5975 161.415 75.3819C161.637 75.1664 161.809 74.9048 161.918 74.6156C162.028 74.3264 162.073 74.0166 162.051 73.7081C162.028 73.3995 161.938 73.0998 161.786 72.8299L170.588 62.7393L166.72 62.1816L158.763 72.0744C158.327 72.3585 158.009 72.7928 157.872 73.2951C157.734 73.7974 157.785 74.3328 158.016 74.7998C158.246 75.2668 158.64 75.633 159.123 75.829C159.605 76.025 160.143 76.0372 160.634 75.8632V75.8632Z" fill="#FFB8B8"/>
<path d="M164.486 70.2487L165.737 68.8693L166.943 68.7655L167.025 68.6628L167.341 68.2605L167.461 67.14L168.388 66.9226L170.453 64.2845L170.769 63.7595L179.439 53.6294L181.208 50.6841L181.486 50.0855L182.352 48.2223L182.238 43.5235C182.427 43.1177 182.534 42.6783 182.552 42.2308C182.57 41.7832 182.499 41.3366 182.343 40.9168C182.293 40.7808 182.235 40.648 182.168 40.5194L182.119 40.428C181.993 40.203 181.841 39.9932 181.667 39.8024L181.664 39.798C181.357 39.4619 180.984 39.1927 180.568 39.0074C180.244 38.8596 179.899 38.7639 179.545 38.7239C178.729 38.6334 177.907 38.8401 177.23 39.3061L176.166 40.0418L175.2 40.7147L172.989 44.7845L172.844 45.0498L172.839 45.0563L166.031 57.5817L163.979 61.3584L163.666 61.932L163.637 63.6099L162.65 63.7967L161.485 64.6692L161.368 66.155L160.819 68.5508L160.736 68.6858L161.246 68.9885L161.296 69.0167L161.389 69.0986L162.689 70.2144L163.477 70.8929L163.503 70.9141L163.708 71.107L164.486 70.2487Z" fill="#3F3D56"/>
<path d="M52.3627 27.1483C52.3789 27.1544 52.3931 27.1605 52.4093 27.1666C52.4402 27.1803 52.472 27.1919 52.5044 27.2013C52.7114 27.2773 52.9271 27.3269 53.1464 27.3488C53.2399 27.3589 53.334 27.3639 53.428 27.3637C53.5487 27.3641 53.6692 27.3563 53.7888 27.3403C53.9218 27.324 54.0533 27.2972 54.1821 27.2603C54.2432 27.2439 54.3035 27.2244 54.3626 27.202C54.7654 27.0589 55.1296 26.8243 55.4264 26.5167C55.7232 26.2091 55.9447 25.8368 56.0733 25.4291V25.4271C56.087 25.3873 56.0986 25.3467 56.1081 25.3056C56.1683 25.0776 56.1989 24.8427 56.199 24.6068V24.6027C56.2005 24.0275 56.0212 23.4663 55.6863 22.9985C55.4844 22.7123 55.2512 22.6645 55.382 22.3372C55.7994 21.2931 54.0918 20.4396 53.0837 20.8987C53.0473 20.8952 53.0108 20.8938 52.9743 20.8944C52.2954 20.8927 52.0437 21.8951 51.639 22.4594L51.6507 22.4632C51.7532 22.4991 51.8419 22.5661 51.9044 22.6549C51.9669 22.7437 52.0002 22.8497 51.9994 22.9583C51.9987 23.0669 51.964 23.1725 51.9003 23.2605C51.8366 23.3484 51.747 23.4142 51.6441 23.4487C51.3746 23.5365 51.1024 23.614 50.8273 23.6813C49.9203 24.7526 50.9601 27.8868 52.3627 27.1483Z" fill="#2F2E41"/>
<path d="M55.607 22.7271C55.6439 23.6899 55.3971 24.6423 54.8973 25.466C54.3974 26.2896 53.6664 26.9482 52.7953 27.3599C52.4415 27.5201 52.1335 26.9956 52.4898 26.8342C53.2682 26.4751 53.9222 25.8929 54.369 25.1614C54.8158 24.4298 55.0351 23.582 54.9991 22.7256C54.9788 22.3346 55.5868 22.3374 55.607 22.7272V22.7271Z" fill="#0050FF"/>
<path d="M187.256 75.1616C182.551 75.9753 179.396 75.6654 177.454 72.7774C174.921 69.5519 170.315 73.3605 166.428 74.7765L165.967 74.2785L165.183 73.4334L165.904 72.6175L165.183 71.0439L165.784 69.1021L166.553 68.9617L166.346 67.2902L166.023 66.3126L166.971 65.2715L167.777 62.6728L167.196 57.2341C166.402 49.7793 167.941 42.2619 171.599 35.7181L173.801 33.7419L174.715 32.9207L175.941 30.6318L177.237 30.7828L180.744 31.1881L180.863 31.4743L181.724 33.5511L184.852 36.9108C185.294 37.386 185.63 37.9499 185.838 38.5651C186.045 39.1802 186.119 39.8325 186.055 40.4786L185.965 41.3845L185.899 42.0362L185.586 45.1728L184.312 57.9865L184.217 58.6673L183.192 66.0345C184.858 67.6451 184.959 67.2937 185.667 70.1283C185.746 70.4435 186.668 71.1455 186.726 71.4528C186.808 71.8873 187.256 75.1616 187.256 75.1616Z" fill="#3F3D56"/>
<path d="M176.03 36.8643L174.987 36.3202L170.228 36.2454L170.054 36.2436L170.045 36.2445L166.396 36.1886L148.78 35.9127L148.072 36.5312L146.983 35.8845L145.748 35.2588L144.615 35.8474L143.646 35.8322L143.498 36.4823L143.497 36.4846L143.493 36.5034L142.837 39.3396L142.835 39.3419L142.844 40.0109L143.983 41.2391L144.588 41.7022L145.842 42.257L146.711 41.2225L147.729 42.2805L151.905 43.0492C158.886 44.9725 165.314 45.8981 170.247 44.1205L170.867 44.0915L175.763 43.8585C176.433 43.8274 177.078 43.5987 177.618 43.2014C178.157 42.804 178.567 42.2557 178.795 41.6257L178.797 41.6234C178.951 41.1954 179.018 40.7405 178.991 40.2862C178.97 39.8687 178.869 39.4591 178.695 39.0789C178.383 38.3874 177.848 37.8197 177.177 37.4656L176.03 36.8643Z" fill="#3F3D56"/>
</g>
<defs>
<clipPath id="clip0_1269_13230">
<rect width="240" height="130.038" fill="white" transform="translate(0.5 14.9814)"/>
</clipPath>
</defs>
</svg>
