<svg width="201" height="242" viewBox="0 0 201 242" fill="none" xmlns="http://www.w3.org/2000/svg">
<g clip-path="url(#clip0_1113_12388)">
<path d="M186.132 20.4639H28.371C22.5838 20.4639 17.8779 25.1698 17.8779 30.957V139.066C17.8779 144.853 22.5838 149.559 28.371 149.559H186.132C191.919 149.559 196.625 144.853 196.625 139.066V30.9569C196.625 25.1697 191.919 20.4639 186.132 20.4639V20.4639Z" fill="#F2F2F2"/>
<path d="M169.016 28.791H11.2553C5.46812 28.791 0.762207 33.4969 0.762207 39.2841V147.393C0.762207 153.18 5.46812 157.886 11.2553 157.886H169.016C174.803 157.886 179.509 153.18 179.509 147.393V39.2841C179.509 33.4969 174.803 28.791 169.016 28.791ZM178.406 115.574C178.406 138.333 159.956 156.783 137.197 156.783H11.2553C6.06951 156.783 1.86558 152.579 1.86558 147.393V39.2841C1.86558 34.0983 6.0695 29.8944 11.2553 29.8944H169.016C174.202 29.8944 178.406 34.0983 178.406 39.2841V115.574Z" fill="#3F3D56"/>
<path d="M23.2965 134.458L22.3628 133.87C22.9697 132.905 23.596 131.97 24.2237 131.091L25.1218 131.732C24.5062 132.594 23.8923 133.511 23.2965 134.458H23.2965Z" fill="#CCCCCC"/>
<path d="M29.3801 126.595L28.5903 125.824C30.274 124.099 32.0459 122.618 33.8567 121.422L34.4649 122.343C32.7196 123.495 31.0088 124.926 29.3801 126.595V126.595ZM56.9069 119.63C55.5894 119.63 54.389 119.462 53.4904 119.314L53.6687 118.226C54.5792 118.375 55.6758 118.527 56.9069 118.527C57.9941 118.527 59.0627 118.407 60.1737 118.162L60.4118 119.239C59.2217 119.502 58.0752 119.63 56.9069 119.63V119.63ZM40.3969 119.484L40.0651 118.432C41.2503 118.058 42.4782 117.778 43.7143 117.599C44.776 117.445 45.791 117.371 46.817 117.371H46.8849V118.474H46.817C45.8443 118.474 44.8813 118.545 43.8725 118.691C42.695 118.861 41.5254 119.128 40.3969 119.484H40.3969ZM66.6967 116.296L65.9914 115.447C67.514 114.182 68.6052 112.653 69.7609 111.034L70.2218 110.39L71.1172 111.035L70.659 111.675C69.4608 113.354 68.3288 114.94 66.6967 116.296V116.296ZM75.5452 106.179L74.8664 105.309C76.3536 104.148 78.034 103.208 80.0032 102.434C80.3386 102.302 80.6591 102.184 80.9668 102.079L81.3229 103.123C81.0303 103.223 80.7259 103.335 80.407 103.461C78.5378 104.195 76.9476 105.084 75.5452 106.179V106.179ZM88.8658 102.346C88.4946 102.346 88.1425 102.343 87.8041 102.339L87.8171 101.236C88.1629 101.24 88.5239 101.24 88.9059 101.243C90.2043 101.243 92.0126 101.206 94.4931 100.919L94.6202 102.015C92.0579 102.312 90.221 102.343 88.8658 102.346V102.346ZM101.332 100.901L101.113 99.82C103.095 99.4192 105.401 98.9421 107.683 98.3533L107.959 99.4216C105.65 100.017 103.328 100.498 101.332 100.901ZM114.458 97.3299L114.046 96.3065C116.258 95.4146 118.179 94.4088 119.919 93.231L120.537 94.1448C118.732 95.3667 116.744 96.4086 114.458 97.3299V97.3299ZM125.607 89.4457L124.711 88.8008C125.019 88.3736 125.285 87.9569 125.542 87.5539C126.302 86.3643 127.088 85.134 128.959 83.6239L129.09 83.5191L129.773 84.3849L129.652 84.4821C127.921 85.8797 127.217 86.9814 126.472 88.1479C126.207 88.5635 125.932 88.9934 125.607 89.4457V89.4457ZM135.505 81.1704L135.102 80.143C137.069 79.372 139.29 78.7517 141.704 78.2988L141.908 79.3833C139.562 79.8235 137.407 80.4248 135.505 81.1704V81.1704Z" fill="#CCCCCC"/>
<path d="M148.652 78.5728L148.583 77.4716C149.655 77.4045 150.776 77.3603 151.915 77.3398L151.935 78.4432C150.812 78.4632 149.708 78.5068 148.652 78.5728V78.5728Z" fill="#CCCCCC"/>
<path d="M35.6002 40.7471H20.1198C19.342 40.7471 18.7075 41.3815 18.7075 42.1594C18.7075 42.9428 19.342 43.5772 20.1198 43.5772H35.6002C36.3781 43.5772 37.0126 42.9428 37.0126 42.1594C37.0126 41.3815 36.3781 40.7471 35.6002 40.7471V40.7471Z" fill="#E6E6E6"/>
<path d="M61.5294 40.7471H46.049C45.2712 40.7471 44.6367 41.3815 44.6367 42.1594C44.6367 42.9428 45.2712 43.5772 46.049 43.5772H61.5294C62.3073 43.5772 62.9418 42.9428 62.9418 42.1594C62.9418 41.3815 62.3073 40.7471 61.5294 40.7471Z" fill="#E6E6E6"/>
<path d="M87.4591 40.7471H71.9787C71.2009 40.7471 70.5664 41.3815 70.5664 42.1594C70.5664 42.9428 71.2009 43.5772 71.9787 43.5772H87.4591C88.237 43.5772 88.8714 42.9428 88.8714 42.1594C88.8714 41.3815 88.237 40.7471 87.4591 40.7471Z" fill="#E6E6E6"/>
<path d="M159.372 133.612H18.6919V134.716H159.372V133.612Z" fill="#E6E6E6"/>
<path d="M151.941 53.0653C141.928 53.3246 134.458 56.2706 129.725 61.8095C127.976 63.8618 127.264 65.4783 126.514 67.1885C125.769 68.8766 125.008 70.6145 123.237 72.8819V71.0062C124.335 69.3952 124.925 68.0491 125.504 66.7416C126.288 64.9542 127.032 63.266 128.886 61.0979C133.829 55.3051 141.575 52.2322 151.908 51.9619L151.941 53.0653V53.0653Z" fill="#CCCCCC"/>
<path d="M126.514 67.1889C125.769 68.877 125.008 70.6149 123.237 72.8823C123.027 73.1526 122.801 73.434 122.558 73.7264C116.17 81.3231 107.635 83.8168 100.772 85.8249C100.342 85.9518 99.9227 86.0676 99.5145 86.178C93.4128 87.833 90.0696 87.7723 87.5814 87.7337C85.0823 87.6896 83.4327 87.662 80.4812 89.3502C75.0692 92.4341 72.8514 96.9469 70.7053 101.311C68.493 105.801 66.4076 110.044 61.0894 112.036C57.3986 113.415 54.8057 112.731 52.0638 112.014C49.708 111.39 45.4624 96.0455 41.7031 93.8078C33.9408 95.4353 29.2239 120.802 23.3374 134.384L22.3223 133.943C28.3633 120.019 33.3395 94.4367 41.4713 92.7265C45.0959 91.9652 49.868 110.292 52.3451 110.943C54.916 111.622 57.3379 112.256 60.7032 110.998C65.6132 109.167 67.511 105.299 69.7122 100.825C71.8307 96.5221 74.2306 91.6452 79.9295 88.3902C83.1459 86.5531 85.0161 86.5862 87.598 86.6303C90.0585 86.6745 93.3797 86.7296 99.5144 85.036C99.8234 84.9477 100.138 84.8595 100.463 84.7656C107.183 82.8016 115.541 80.3577 121.709 73.0202C122.316 72.2975 122.818 71.63 123.237 71.0065C124.335 69.3956 124.925 68.0495 125.504 66.742C126.288 64.9545 127.264 65.4787 126.514 67.1889V67.1889Z" fill="#FF9A82"/>
<path d="M67.6824 193.404C67.2456 191.883 66.4978 190.586 65.6074 189.661L62.3725 174.914L55.3213 176.641L59.362 191.414C59.0963 192.664 59.1494 194.156 59.5861 195.677C60.5838 199.151 63.205 201.458 65.4407 200.831C67.6764 200.203 68.68 196.878 67.6824 193.404L67.6824 193.404Z" fill="#FFB6B6"/>
<path d="M66.7069 96.6706C66.7069 96.6706 55.5715 96.4425 52.7401 104.552C50.1628 111.933 47.1076 132.211 48.7592 133.383L55.7892 183.302L65.8138 181.925L63.241 122.029L66.7069 96.6706V96.6706Z" fill="#0050FF"/>
<path d="M118.272 189.333L116.297 241.743H90.0914L89.0322 218.258L84.376 241.743H56.2896L59.7928 201.371L63.4118 192.88L65.8613 187.126L118.272 189.333Z" fill="#2F2E41"/>
<path d="M97.3078 86.7186L79.1021 85.6152L73.0335 93.3389L59.793 98.3041L65.8615 157.335L63.1031 192.643C63.1031 192.643 101.721 223.537 118.272 189.333L113.858 147.956L114.962 99.9591L102.273 94.4422L97.3078 86.7186Z" fill="#0050FF"/>
<path d="M132.356 73.2909C132.554 75.2036 132.303 77.0023 131.725 78.4445L134.758 96.5464L126.102 97.7375L123.958 79.2466C123.098 77.953 122.484 76.2435 122.287 74.3308C121.836 69.9613 123.724 66.1864 126.504 65.8992C129.285 65.612 131.905 68.9214 132.356 73.2909V73.2909H132.356Z" fill="#FFB6B6"/>
<path d="M117.28 102.032C114.296 96.9317 106.894 96.4509 103.579 101.342C102.672 102.679 102.925 104.183 102.709 105.988C101.79 113.655 116.481 136.309 126.646 138.918C127.98 139.26 128.74 140.699 130.087 140.988H130.087C134.075 141.845 137.789 138.68 137.573 134.606L134.812 82.3564L123.212 86.3132L123.954 113.44L117.28 102.032L117.28 102.032Z" fill="#0050FF"/>
<path d="M90.0944 84.1879C98.951 84.1879 106.131 77.0082 106.131 68.1516C106.131 59.2949 98.951 52.1152 90.0944 52.1152C81.2378 52.1152 74.0581 59.2949 74.0581 68.1516C74.0581 77.0082 81.2378 84.1879 90.0944 84.1879Z" fill="#FFB6B6"/>
<path d="M105.031 56.3761C104.893 56.4093 107.142 54.2173 107.238 54.1694C109.445 53.066 107.177 63.8515 105.583 63.5481C101.661 62.8033 99.9669 61.3247 98.4442 65.0155C98.0194 66.0417 97.7546 67.2002 96.9271 67.934C95.7906 68.9325 93.9039 68.8498 92.977 70.0414C92.2322 71.0014 92.4474 72.4137 92.9991 73.495C93.5508 74.5818 94.3894 75.5031 94.8914 76.612C95.4541 77.8589 93.0542 81.8255 92.1385 84.0543V84.0598L92.133 84.0729C91.8897 84.6575 91.3114 82.9734 90.7009 82.8053C89.9703 82.6041 88.8941 84.3292 87.7305 84.0157C87.725 84.0157 87.7194 84.0102 87.7139 84.0102C86.605 83.7012 85.3692 83.3702 84.1445 83.0392H84.139C80.6909 82.1013 79.8193 83.4474 79.6538 83.4088L77.5132 81.169C76.7786 80.6341 76.8616 78.9074 76.3436 78.4436C75.92 78.0644 74.8639 78.9408 74.5526 78.5762C73.0265 76.7887 72.6753 75.0006 71.7756 71.4703C70.9536 68.2429 69.2489 58.5829 72.7521 58.147C76.0567 57.7333 73.6404 53.1322 76.967 53.3032C76.7684 52.4646 77.1381 51.5654 77.7394 50.9475C78.3352 50.3241 79.1297 49.9379 79.9296 49.6069C83.8742 47.996 83.2177 46.6113 87.3774 47.5491C87.7912 46.9698 93.799 47.356 94.5493 47.5491C94.6045 47.5601 92.6901 48.0181 95.6527 47.5491C95.5424 48.2277 97.4181 48.5256 97.3078 49.2042C97.7215 48.647 102.168 51.8468 102.273 52.5143C102.411 53.3474 101.153 52.9225 101.992 53.0494C102.488 53.1267 103.338 54.1363 103.255 54.6383C103.614 54.1528 103.972 53.6728 104.336 53.1873C104.402 53.1929 104.463 53.2039 104.529 53.2149C106.206 53.5349 104.284 59.0176 104.353 57.3085C104.48 54.1694 106.703 56.0065 105.031 56.3761V56.3761Z" fill="#2F2E41"/>
<path d="M166.467 141.728C166.591 142.033 167.017 142.033 167.141 141.728C168.002 139.605 169.229 137.226 170.563 135.409C170.776 135.118 170.482 134.729 170.142 134.852L167.283 135.886V118.185H166.325V135.886L163.465 134.852C163.125 134.729 162.831 135.118 163.045 135.409C164.379 137.226 165.605 139.605 166.467 141.728V141.728Z" fill="#3F3D56"/>
<path d="M185.219 159.955C185.127 160.27 185.461 160.535 185.747 160.374C187.742 159.246 190.182 158.147 192.357 157.553C192.705 157.458 192.716 156.97 192.374 156.855L189.491 155.887L200.5 142.025L199.75 141.43L188.741 155.292L187.145 152.702C186.955 152.395 186.483 152.517 186.469 152.877C186.384 155.13 185.865 157.756 185.219 159.955V159.955Z" fill="#3F3D56"/>
<path d="M176.264 171.767H157.66C156.505 171.767 155.565 170.828 155.565 169.673C153.106 162.483 153.154 155.439 155.565 148.53C155.565 147.375 156.505 146.436 157.66 146.436H176.264C177.419 146.436 178.359 147.375 178.359 148.53V169.673C178.359 170.828 177.419 171.767 176.264 171.767Z" fill="#E6E6E6"/>
<path d="M161.646 147.06C158.632 147.06 156.189 149.503 156.189 152.516V169.224C156.189 170.284 157.049 171.143 158.109 171.143H168.397C173.554 171.143 177.734 166.962 177.734 161.805V148.979C177.734 147.919 176.875 147.06 175.815 147.06H161.646V147.06Z" fill="white"/>
<path d="M171.294 153.204H162.584C162.365 153.204 162.186 153.025 162.186 152.805C162.186 152.586 162.365 152.407 162.584 152.407H171.294C171.514 152.407 171.692 152.586 171.692 152.805C171.692 153.025 171.514 153.204 171.294 153.204Z" fill="#E6E6E6"/>
<path d="M171.294 161.696H162.584C162.365 161.696 162.186 161.517 162.186 161.298C162.186 161.078 162.365 160.899 162.584 160.899H171.294C171.514 160.899 171.692 161.078 171.692 161.298C171.692 161.517 171.514 161.696 171.294 161.696Z" fill="#E6E6E6"/>
<path d="M175.968 157.453H157.91C157.691 157.453 157.512 157.274 157.512 157.054C157.512 156.835 157.691 156.656 157.91 156.656H175.968C176.188 156.656 176.366 156.835 176.366 157.054C176.366 157.274 176.188 157.453 175.968 157.453Z" fill="#E6E6E6"/>
<path d="M176.181 165.148H168.646C168.427 165.148 168.248 164.969 168.248 164.75C168.248 164.53 168.427 164.352 168.646 164.352H176.181C176.401 164.352 176.579 164.53 176.579 164.75C176.579 164.969 176.401 165.148 176.181 165.148Z" fill="#E6E6E6"/>
<path d="M7.37584 13.6387C11.1733 13.6387 14.2517 10.6251 14.2517 6.90773C14.2517 3.19032 11.1733 0.176758 7.37584 0.176758C3.57842 0.176758 0.5 3.19032 0.5 6.90773C0.5 10.6251 3.57842 13.6387 7.37584 13.6387Z" fill="#0050FF"/>
<path d="M62.4967 4.6054H25.4868C24.2171 4.6054 23.1841 3.57237 23.1841 2.3027C23.1841 1.03303 24.2171 0 25.4868 0H62.4967C63.7664 0 64.7994 1.03303 64.7994 2.3027C64.7994 3.57237 63.7664 4.6054 62.4967 4.6054Z" fill="#F2F2F2"/>
<path d="M91.3794 12.3993H25.4868C24.2171 12.3993 23.1841 11.3663 23.1841 10.0966C23.1841 8.82698 24.2171 7.79395 25.4868 7.79395H91.3794C92.6491 7.79395 93.6821 8.82698 93.6821 10.0966C93.6821 11.3663 92.6491 12.3993 91.3794 12.3993V12.3993Z" fill="#F2F2F2"/>
</g>
<defs>
<clipPath id="clip0_1113_12388">
<rect width="200" height="241.743" fill="white" transform="translate(0.5)"/>
</clipPath>
</defs>
</svg>
