<?xml version="1.0" encoding="UTF-8"?>
<svg width="60px" height="60px" viewBox="0 0 60 60" version="1.1" xmlns="http://www.w3.org/2000/svg" xmlns:xlink="http://www.w3.org/1999/xlink">
    <title>Group 39</title>
    <g id="Website" stroke="none" stroke-width="1" fill="none" fill-rule="evenodd">
        <g id="Group-39">
            <circle id="Oval-Copy-5" fill="#40C351" cx="30" cy="30" r="30"></circle>
            <g id="icons8-whatsapp" transform="translate(13.000000, 13.000000)">
                <path d="M1,33 L3.33142758,24.5266428 C1.89310812,22.0470981 1.13673554,19.2332715 1.13760096,16.3513824 C1.14192803,7.33524789 8.51180081,0 17.5692325,0 C21.9646745,0.00172310263 26.0892416,1.70501005 29.1917538,4.79539462 C32.2934006,7.88664073 34.0017295,11.9945174 34,16.3643057 C33.996537,25.3804402 26.6249334,32.7165496 17.5692325,32.7165496 C17.5683671,32.7165496 17.5692325,32.7165496 17.5692325,32.7165496 L17.5623092,32.7165496 C14.8128863,32.7156881 12.1101957,32.0290317 9.71040037,30.7255045 L1,33 Z" id="Path" fill="#FFFFFF" fill-rule="nonzero"></path>
                <path d="M0.434052222,34 C0.3193622,34 0.208147633,33.9550162 0.125605571,33.8719691 C0.0169975958,33.7621047 -0.0255767306,33.602066 0.0152598682,33.4541384 L2.30819145,25.1182861 C0.886730264,22.6043813 0.136900801,19.7496374 0.138638528,16.8516398 C0.142113984,7.55901585 7.7368525,0 17.0693186,0 C21.596099,0.00173014783 25.8491874,1.75696512 29.0457373,4.94216726 C32.2422872,8.12823449 34.0017364,12.3619062 34,16.8637509 C33.9965233,26.1555098 26.4009159,33.7153907 17.0693186,33.7153907 C14.2985119,33.7145256 11.5572466,33.0337124 9.12442799,31.7456174 L0.544397925,33.9852937 C0.507905645,33.9956746 0.471413365,34 0.434052222,34 Z" id="Path" fill="#FFFFFF" fill-rule="nonzero"></path>
                <path d="M27.0494897,6.9572284 C24.5002217,4.4063302 21.1117483,3.00085543 17.5051329,3 C10.0592173,3 4.0034226,9.05303678 4,16.4935843 C3.99914531,19.043627 4.71259817,21.5260907 6.06422348,23.6757913 L6.38587609,24.1864842 L5.02141889,29.1659538 L10.1310758,27.8263473 L10.6246757,28.118905 C12.6965976,29.3490163 15.0730628,29.9991446 17.4957229,30 L17.5008556,30 C24.9416385,30 30.9974332,23.9461078 31,16.5047049 C31.0008551,12.899059 29.5987577,9.5081266 27.0494897,6.9572284 Z" id="Path" fill="#40C351" fill-rule="nonzero"></path>
                <path d="M13.3228111,9.74353833 C13.0098195,9.03670216 12.6800762,9.02238649 12.3811912,9.00986028 C12.1369696,8.99912353 11.8583629,9 11.5797563,9 C11.3011497,9 10.8479731,9.10649105 10.4644481,9.53148748 C10.0809232,9.95648391 9,10.9827384 9,13.0710367 C9,15.1593349 10.4988331,17.1778443 10.7077881,17.4605788 C10.9167431,17.7433132 13.6014177,22.1659603 17.8528138,23.8677355 C21.3856517,25.2814078 22.1050916,25.0004628 22.8721415,24.9297792 C23.6391914,24.8590956 25.3469795,23.9035247 25.6952377,22.9121646 C26.043496,21.9208045 26.043496,21.0717063 25.9394594,20.8945499 C25.8345411,20.7173935 25.5559344,20.6118155 25.1380245,20.3988699 C24.7201145,20.1859243 22.6631865,19.1596698 22.2796615,19.0183025 C21.8961366,18.8769353 21.61753,18.8062517 21.3380417,19.2312481 C21.059435,19.6553498 20.2580001,20.6118155 20.0137785,20.8945499 C19.7695569,21.1781791 19.5253352,21.2139683 19.1074253,21.0010227 C18.6895154,20.7880771 17.3423289,20.3407125 15.7438674,18.8948299 C14.5007176,17.7701551 13.661371,16.3806405 13.4171494,15.955644 C13.1729278,15.5315423 13.3906994,15.3015969 13.600536,15.0895461 C13.788331,14.8989687 14.018446,14.593866 14.2282826,14.346026 C14.4372376,14.098186 14.5068893,13.9210296 14.6461926,13.6382951 C14.7854959,13.3546659 14.7158442,13.1068259 14.6109259,12.894775 C14.5077709,12.6818294 13.6948744,10.5827944 13.3228111,9.74353833 Z" id="Path" fill="#FFFFFF"></path>
            </g>
        </g>
    </g>
</svg>