<svg width="19" height="20" viewBox="0 0 19 20" fill="none" xmlns="http://www.w3.org/2000/svg">
<path d="M19 12.6C19.001 12.4197 18.9555 12.2421 18.8679 12.0845C18.7803 11.9269 18.6536 11.7945 18.5 11.7L11 7V1.5C11 1.10218 10.842 0.720647 10.5607 0.439342C10.2794 0.158038 9.89784 0 9.50001 0C9.10219 0 8.72065 0.158038 8.43935 0.439342C8.15804 0.720647 8.00001 1.10218 8.00001 1.5V7L0.500015 11.7C0.346405 11.7945 0.21973 11.9269 0.132156 12.0845C0.0445816 12.2421 -0.000940777 12.4197 1.47378e-05 12.6C0.00465131 12.7666 0.0478216 12.9299 0.126144 13.077C0.204466 13.2241 0.315831 13.3511 0.451461 13.448C0.587092 13.5449 0.743305 13.609 0.907882 13.6354C1.07246 13.6618 1.2409 13.6497 1.40001 13.6L8.00001 11.5V17L6.20003 18.3C6.13903 18.3476 6.08942 18.4082 6.05482 18.4774C6.02023 18.5466 6.0015 18.6227 6.00001 18.7V19.3C5.9985 19.375 6.01387 19.4494 6.045 19.5176C6.07612 19.5859 6.1222 19.6462 6.17982 19.6942C6.23745 19.7423 6.30515 19.7767 6.37788 19.795C6.45062 19.8133 6.52653 19.815 6.60002 19.8L9.50001 19L12.4 19.8C12.4735 19.815 12.5494 19.8133 12.6222 19.795C12.6949 19.7767 12.7626 19.7423 12.8202 19.6942C12.8778 19.6462 12.9239 19.5859 12.955 19.5176C12.9862 19.4494 13.0015 19.375 13 19.3V18.7C12.9985 18.6227 12.9798 18.5466 12.9452 18.4774C12.9106 18.4082 12.861 18.3476 12.8 18.3L11 17V11.5L17.6 13.6C17.7591 13.6497 17.9276 13.6618 18.0921 13.6354C18.2567 13.609 18.413 13.5449 18.5486 13.448C18.6842 13.3511 18.7956 13.2241 18.8739 13.077C18.9522 12.9299 18.9954 12.7666 19 12.6Z" fill="#424242"/>
</svg>
