<svg width="24" height="24" viewBox="0 0 24 24" fill="none" xmlns="http://www.w3.org/2000/svg">
<path d="M23.4048 9.76761L21.263 9.51034C21.0442 8.69341 20.7235 7.9216 20.3107 7.20547L21.6422 5.51306C21.8458 5.25291 21.8227 4.85069 21.5875 4.61646L19.3805 2.40854C19.1482 2.17527 18.745 2.15031 18.4838 2.35383L16.7885 3.68721C16.0752 3.27443 15.3034 2.9538 14.4883 2.73685L14.232 0.595176C14.1926 0.267829 13.8902 0 13.56 0H10.4381C10.1078 0 9.80544 0.267829 9.76704 0.595176L9.50976 2.73685C8.69376 2.95476 7.92096 3.27635 7.20768 3.68817L5.51328 2.35671C5.25408 2.15319 4.85088 2.17719 4.6176 2.41046L2.4096 4.61934C2.17728 4.85165 2.15328 5.25483 2.35776 5.51594L3.68832 7.20931C3.27552 7.92352 2.95488 8.69629 2.73696 9.51322L0.59616 9.76953C0.2688 9.80793 0 10.1103 0 10.4415V13.5633C0 13.8935 0.26784 14.194 0.59616 14.2343L2.73792 14.4916C2.9568 15.3056 3.27648 16.0774 3.68928 16.7916L2.35872 18.4869C2.15616 18.7471 2.1792 19.1493 2.41344 19.3835L4.6176 21.5924C4.85088 21.8247 5.25408 21.8506 5.51328 21.6471L7.20864 20.3128C7.92288 20.7256 8.69472 21.0472 9.51072 21.2641L9.768 23.4048C9.80736 23.7331 10.1088 24 10.439 24H13.561C13.8922 24 14.1936 23.7331 14.232 23.4048L14.4893 21.2641C15.3062 21.0452 16.0781 20.7246 16.7914 20.3128L18.4867 21.6443C18.7469 21.8478 19.1491 21.8238 19.3824 21.5905L21.5894 19.3816C21.8237 19.1493 21.8477 18.7461 21.6432 18.4841L20.3107 16.7907C20.7245 16.0765 21.0442 15.3047 21.263 14.4897L23.4038 14.2324C23.7322 14.193 24 13.8935 24 13.5614V10.4396C24.001 10.1074 23.7341 9.80697 23.4048 9.76761ZM12.001 17.9993C8.68704 17.9993 6.00096 15.3133 6.00096 11.9995C6.00096 8.68573 8.68704 5.99976 12.001 5.99976C15.3149 5.99976 18.001 8.68573 18.001 11.9995C18.001 15.3133 15.3158 17.9993 12.001 17.9993Z" fill="#424242"/>
</svg>
