<svg width="20" height="13" viewBox="0 0 20 13" fill="none" xmlns="http://www.w3.org/2000/svg">
<path d="M10 0C4.48 0 0 2.24 0 5C0 7.14696 2.70083 8.97238 6.5 9.68384C6.66465 9.71468 6.83136 9.74342 7 9.77L10.5 10L13.2388 9.67135L14 9.58V7.53L13.1047 7.63519L10 8L7 7.73C6.8295 7.69969 6.6628 7.76468 6.5 7.73C3.65514 7.12402 2 5.78507 2 5C2 3.94 5.04 2 10 2C14.96 2 18 3.94 18 5C18 5.73 16.54 6.89 14 7.53V9.58C17.53 8.81 20 7.05 20 5C20 2.24 15.52 0 10 0Z" fill="black" fill-opacity="0.6"/>
<path d="M10 8L13.1047 7.63519L11.5 6H8.5L6.5 7.73C6.6628 7.76468 6.8295 7.69969 7 7.73L10 8Z" fill="black" fill-opacity="0.6"/>
<path d="M7 9.77C6.83136 9.74342 6.66465 9.71468 6.5 9.68384V10.5L8.5 12.5H11.5L13.2388 10.5V9.67135L10.5 10L7 9.77Z" fill="black" fill-opacity="0.6"/>
</svg>
