<svg width="21" height="18" viewBox="0 0 21 18" fill="none" xmlns="http://www.w3.org/2000/svg">
<path d="M12.3 17.1001C11.9314 17.4374 11.4497 17.6245 10.95 17.6245C10.4503 17.6245 9.96874 17.4374 9.60005 17.1001L9.50004 17.0001C4.30004 12.2001 0.800038 9.10012 0.900038 5.30012C0.937608 4.45704 1.16373 3.63311 1.56177 2.88896C1.9598 2.1448 2.51963 1.49936 3.20004 1.00012C4.39302 0.200951 5.83939 -0.128823 7.26088 0.0742469C8.68237 0.277317 9.97855 0.998883 10.9 2.10012C11.8192 0.995435 13.1157 0.271306 14.5383 0.0680747C15.9609 -0.135157 17.4084 0.196984 18.6 1.00012C19.2962 1.48386 19.8676 2.12585 20.2675 2.87336C20.6673 3.62086 20.8841 4.45255 20.9 5.30012C21 9.20012 17.6 12.3001 12.3 17.1001Z" fill="black" fill-opacity="0.54"/>
</svg>
