<svg id="Layer_1" data-name="Layer 1" xmlns="http://www.w3.org/2000/svg" xmlns:xlink="http://www.w3.org/1999/xlink" viewBox="0 0 400 300"><defs><linearGradient id="linear-gradient" x1="95.36" y1="158.56" x2="259.65" y2="158.56" gradientUnits="userSpaceOnUse"><stop offset="0" stop-color="#e0eaff"/><stop offset="0.99" stop-color="#6696ff"/></linearGradient></defs><title>corporate</title><path d="M100.11,280.68l154.78-89.41c6-3.46,10.85-12.74,10.85-20.73V29.74c0-8-4.85-11.67-10.85-8.21L100.11,111c-6,3.46-10.85,12.74-10.85,20.73v140.8C89.26,280.47,94.12,284.14,100.11,280.68Z" style="fill:#0050ff"/><path d="M95.82,108.73,250.6,19.32C253,18,255.17,17.7,257,18.38c.23.09,4.47,2.28,4.68,2.4h0c-1.84-.9-4.19-.73-6.75.74L100.11,111c-6,3.46-10.85,12.74-10.85,20.73v140.8c0,5,1.9,8.29,4.78,9.23a1.84,1.84,0,0,1-1-.32c-.14-.08-4.64-2.52-4.77-2.61-2.06-1.44-3.35-4.41-3.35-8.52V129.46C85,121.47,89.83,112.19,95.82,108.73Z" style="fill:#c2d5ff"/><path d="M97,109.31,251.82,19.9c2.37-1.37,4.56-1.62,6.35-.93.23.09,3.25,1.69,3.46,1.81h0c-1.84-.9-4.19-.73-6.75.74L100.11,111Z" style="fill:#c2d5ff"/><path d="M99.59,110.69,254.37,21.27c2.46-1.42,4.72-1.62,6.54-.83a8,8,0,0,0-5.23,1.22L100.9,111.08c-6,3.46-10.85,12.74-10.85,20.73v140.8c0,4.71,1.69,7.91,4.31,9-3.35-.53-5.62-4-5.62-9.43V131.42C88.74,123.43,93.6,114.15,99.59,110.69Z" style="fill:#0050ff"/><path d="M259.65,42.25V170.54c0,6.26-3,12.39-7.8,15.45L98.72,274.44l-.26.15a2.07,2.07,0,0,1-3.1-1.8V137.16Z" style="fill:url(#linear-gradient)"/><path d="M95.58,273.43l.25-.14L249,184.84c4.82-3.07,7.8-9.19,7.8-15.46V43.92l2.89-1.67V170.54c0,6.26-3,12.39-7.8,15.45L98.72,274.44l-.26.15a2.06,2.06,0,0,1-3-1.12Z" style="fill:#001a46"/><path d="M104,121.76a6.58,6.58,0,0,1-3,5.15c-1.65,1-3,.19-3-1.7a6.57,6.57,0,0,1,3-5.15C102.64,119.11,104,119.87,104,121.76Z" style="fill:#fc0"/><path d="M111.68,117.29a6.6,6.6,0,0,1-3,5.15c-1.65,1-3,.19-3-1.71a6.59,6.59,0,0,1,3-5.15C110.34,114.63,111.68,115.39,111.68,117.29Z" style="fill:#eb4680"/><path d="M119.38,112.81a6.6,6.6,0,0,1-3,5.15c-1.65,1-3,.19-3-1.7a6.58,6.58,0,0,1,3-5.15C118,110.16,119.38,110.92,119.38,112.81Z" style="fill:#0fbab8"/><path d="M156.6,112.08c0,1.3.92,1.83,2.06,1.17l11.23-6.48a4.54,4.54,0,0,0,2.05-3.55c0-1.3-.92-1.82-2.05-1.17l-11.23,6.49A4.51,4.51,0,0,0,156.6,112.08Zm-18.49,10.67c0,1.31.92,1.83,2.06,1.18l11.23-6.49a4.52,4.52,0,0,0,2-3.54c0-1.3-.92-1.83-2-1.17l-11.23,6.48A4.52,4.52,0,0,0,138.11,122.75Zm-18.49,10.68c0,1.3.92,1.83,2.06,1.17l11.23-6.48a4.54,4.54,0,0,0,2.05-3.55c0-1.3-.92-1.82-2.05-1.17l-11.23,6.49A4.51,4.51,0,0,0,119.62,133.43Zm-18.49,10.68c0,1.3.92,1.82,2.06,1.17l11.23-6.49a4.52,4.52,0,0,0,2-3.54c0-1.3-.92-1.83-2-1.17l-11.23,6.48A4.53,4.53,0,0,0,101.13,144.11Z" style="fill:#6696ff"/><polygon points="72.9 207.67 72.9 266.7 67.61 263.61 67.61 204.44 72.9 207.67" style="fill:#0050ff"/><polygon points="72.88 207.67 72.88 266.7 188.29 200.52 188.29 141.35 72.88 207.67" style="fill:#6696ff"/><polygon points="188.29 141.35 72.88 207.67 67.61 204.44 183.06 138.17 188.29 141.35" style="fill:#c2d5ff"/><polygon points="188.29 141.35 72.88 207.67 67.61 204.44 72.89 206.94 188.29 141.35" style="fill:#0050ff"/><ellipse cx="98" cy="223.06" rx="25.53" ry="14.74" transform="translate(-144.03 195.09) rotate(-59.69)" style="fill:#0050ff"/><path d="M96.26,242.33c10-5.78,18.12-19.76,18.12-31.24,0-4.28-1.13-7.61-3.07-9.8,3,2,4.8,5.88,4.8,11.32,0,11.47-8.11,25.46-18.11,31.23-6.27,3.63-11.8,3.16-15-.52C86.26,245.52,91,245.37,96.26,242.33Z" style="fill:#002880"/><path d="M148.83,217.65l3.89-2.25V171.52l-3.89,2.25Zm-5.61,3.19,3.89-2.25V169.32l-3.89,2.25Zm-5.77,3.3,3.89-2.25V179.23l-3.89,2.25Zm22.92-37.32v24l3.9-2.25v-24Zm-5.77,27.34,3.89-2.25V175.64l-3.89,2.25Zm-22.82,13.28,3.9-2.25V191.41l-3.9,2.25Zm-5.55,3.24,3.89-2.25V205.34l-3.89,2.25Zm39.92-23.3,3.89-2.25v-27l-3.89,2.24Zm11.54-23.14v16.35l3.9-2.25V182Zm-5.77,19.65,3.89-2.25v-28.3l-3.89,2.25Z" style="fill:#0050ff"/><path d="M148.83,217.65l3.89-2.25V188.74L148.83,191Zm-5.61,3.19,3.89-2.25v-42l-3.89,2.24Zm-5.77,3.3,3.89-2.25V187l-3.89,2.25Zm22.92-31.48v18.2l3.9-2.25v-18.2Zm-5.77,21.5,3.89-2.25V187.45l-3.89,2.25Zm11.55-6.78,3.89-2.25V180.36l-3.89,2.25Zm11.54-11.52v4.73l3.9-2.25v-4.73Zm-5.77,8,3.89-2.25V191.37l-3.89,2.25Zm-40.14,23.55,3.9-2.25V197.7l-3.9,2.25Zm-5.55,3.24,3.89-2.25V208.77L126.23,211Z" style="fill:#c2d5ff"/><polygon points="137.45 189.76 141.34 187.51 141.34 187.02 137.45 189.27 137.45 189.76" style="fill:#0050ff"/><polygon points="143.22 179.36 147.11 177.11 147.11 176.63 143.22 178.87 143.22 179.36" style="fill:#0050ff"/><polygon points="126.23 211.5 130.12 209.25 130.12 208.77 126.23 211.01 126.23 211.5" style="fill:#0050ff"/><polygon points="148.83 191.48 152.72 189.23 152.72 188.75 148.83 190.99 148.83 191.48" style="fill:#0050ff"/><polygon points="131.78 200.44 135.68 198.19 135.68 197.7 131.78 199.95 131.78 200.44" style="fill:#0050ff"/><polygon points="171.92 194.1 175.81 191.85 175.81 191.37 171.92 193.62 171.92 194.1" style="fill:#0050ff"/><polygon points="166.15 183.1 170.04 180.85 170.04 180.36 166.15 182.61 166.15 183.1" style="fill:#0050ff"/><polygon points="177.69 195.86 177.69 196.34 181.59 194.09 181.59 193.61 177.69 195.86" style="fill:#0050ff"/><polygon points="154.6 190.19 158.49 187.94 158.49 187.45 154.6 189.7 154.6 190.19" style="fill:#0050ff"/><polygon points="160.37 193.15 164.27 190.9 164.27 190.41 160.37 192.66 160.37 193.15" style="fill:#0050ff"/><path d="M115.81,215.39c-.24-8.68-6.54-12.12-14.28-7.66a29.39,29.39,0,0,0-10.18,10.79l-2.85-.72c3.25-5.9,7.89-11.1,13-14.07,9.74-5.62,17.67-1.18,17.79,9.89L117,215.7Z" style="fill:#fc0"/><path d="M94.36,242.46a12.31,12.31,0,0,0,7.17-1.91c7.33-4.23,13.38-14.08,14.2-22.71l3.49-1.76c0,.06,1.17.3,1.17.36-1,10.75-9.73,22.85-18.86,28.12-3.31,1.91-5.55,2.92-8.21,2.63-.11,0-1.08-.29-1.19-.3Z" style="fill:#fc0"/><path d="M90,221.14a27.35,27.35,0,0,0-2.77,11.26c0,5.19,2.11,8.59,5.4,9.7l-2.21,4.38c-4.07-1.4-6.68-5.63-6.68-12.07a34.06,34.06,0,0,1,3.42-14Z" style="fill:#fc0"/><path d="M96.62,228.33a12.22,12.22,0,0,0,2.51-3c.42-.7.4-1.45,0-1.68a3.26,3.26,0,0,1-1.28-1.43c-.44.12-1,0-1-.65A2.36,2.36,0,0,1,97.5,220a8,8,0,0,1,4-7.08,3.73,3.73,0,0,1,2.45-.69c.14,0,1.34.34,1.46.4.82.41.06,1.29.12,2.71.37-.08.64.28.64.89a2.88,2.88,0,0,1-1,1.78,14.22,14.22,0,0,1-1.28,2.91c-.4.7-.41,1.47,0,1.69a3.34,3.34,0,0,0,2.51.1,2,2,0,0,1,1,0c.08,0,1.16.31,1.24.35.56.28-.08.69-.08,1.64v2.71a1.84,1.84,0,0,1-.83,1.44l-11.63,7.69c-.2.12-1.34-.29-1.48-.34a.54.54,0,0,1-.3-.56v-2.71A6.45,6.45,0,0,1,96.62,228.33Z" style="fill:#fc0"/><path d="M116.59,215.61c-.23-8.67-6.54-12.12-14.28-7.65a29.36,29.36,0,0,0-10.18,10.78L89.28,218c3.25-5.9,7.89-11.1,13-14.07,9.74-5.62,17.67-1.17,17.79,9.9Z" style="fill:#0050ff"/><path d="M95.14,242.68a12.2,12.2,0,0,0,7.17-1.9c7.33-4.23,13.38-14.09,14.2-22.72l3.5-1.76c-.94,10.79-8.52,23.18-17.7,28.48-3.45,2-6.67,2.72-9.4,2.33Z" style="fill:#0050ff"/><path d="M90.78,221.36A27.38,27.38,0,0,0,88,232.62c0,5.19,2.12,8.59,5.4,9.71L91.2,246.7c-4.07-1.39-6.68-5.63-6.68-12.06a33.93,33.93,0,0,1,3.43-14Z" style="fill:#0050ff"/><path d="M97.4,228.55a11.86,11.86,0,0,0,2.51-3c.42-.69.4-1.45,0-1.68a3.21,3.21,0,0,1-1.28-1.43c-.44.12-1,0-1-.64a2.41,2.41,0,0,1,.64-1.63,8,8,0,0,1,4-7.08c3-1.75,3.93-.08,4,2.43.36-.08.63.27.63.89a2.92,2.92,0,0,1-1,1.78,14.38,14.38,0,0,1-1.28,2.9c-.41.7-.42,1.47,0,1.69a3.29,3.29,0,0,0,2.51.11c1.27-.39,2.21.38,2.21,1.94v2.72a1.84,1.84,0,0,1-.83,1.43L96,236.25c-.46.26-.83.05-.83-.48v-2.71A6.47,6.47,0,0,1,97.4,228.55Z" style="fill:#0050ff"/><path d="M117,215.72c-.24-8.67-6.54-12.12-14.28-7.65a29.43,29.43,0,0,0-10.18,10.78l-2.85-.72c3.25-5.89,7.89-11.09,13-14.07,9.74-5.62,17.67-1.17,17.79,9.9Z" style="fill:#ffbc33"/><path d="M95.59,242.79a12.21,12.21,0,0,0,7.17-1.9c7.33-4.23,13.38-14.08,14.2-22.72l3.49-1.76c-.94,10.79-8.51,23.18-17.69,28.48-3.45,2-6.67,2.72-9.41,2.33Z" style="fill:#ffbc33"/><path d="M91.23,221.47a27.39,27.39,0,0,0-2.77,11.27c0,5.18,2.11,8.58,5.4,9.7l-2.22,4.38c-4.06-1.4-6.67-5.64-6.67-12.07a33.91,33.91,0,0,1,3.42-14Z" style="fill:#ffbc33"/><path d="M97.85,228.67a12.3,12.3,0,0,0,2.51-3c.41-.69.4-1.44,0-1.68a3.15,3.15,0,0,1-1.28-1.43c-.44.12-1,0-1-.64a2.32,2.32,0,0,1,.64-1.62,8,8,0,0,1,4-7.09c3-1.74,3.92-.08,4,2.43.37-.08.64.27.64.89a2.93,2.93,0,0,1-1,1.78,14.47,14.47,0,0,1-1.28,2.91c-.4.7-.42,1.47,0,1.68a3.29,3.29,0,0,0,2.51.11c1.27-.39,2.21.38,2.21,1.95v2.71a1.81,1.81,0,0,1-.83,1.43l-12.58,7.27c-.46.26-.83,0-.83-.48v-2.71A6.45,6.45,0,0,1,97.85,228.67Z" style="fill:#ffbc33"/><polygon points="237.57 51.68 237.57 68.92 234.97 67.48 234.97 50.11 237.57 51.68" style="fill:#fc0"/><polygon points="237.55 51.68 237.55 68.92 252.9 60.05 252.9 42.68 237.55 51.68" style="fill:#ffd70f"/><polygon points="252.9 42.68 237.55 51.68 234.97 50.11 250.35 41.16 252.9 42.68" style="fill:#ffde17"/><polygon points="252.9 42.68 237.55 51.68 234.97 50.11 237.68 50.85 252.9 42.68" style="fill:#0050ff"/><polygon points="224.08 45.93 224.08 73.84 219.87 71.52 219.87 43.39 224.08 45.93" style="fill:#d62d69"/><polygon points="248.89 31.36 224.05 45.93 219.87 43.39 244.77 28.9 248.89 31.36" style="fill:#f76195"/><polygon points="248.89 31.36 224.05 45.93 219.87 43.39 223.93 45.33 248.89 31.36" style="fill:#0050ff"/><polygon points="248.89 31.36 248.89 42.93 235.74 50.65 235.74 67.08 224.05 73.84 224.05 45.93 248.89 31.36" style="fill:#eb4680"/><polygon points="170.97 127.28 170.97 146.55 168.06 144.95 168.06 125.53 170.97 127.28" style="fill:#0ba19f"/><polygon points="170.95 127.28 170.95 146.55 188.1 136.64 188.1 117.22 170.95 127.28" style="fill:#0fbab8"/><polygon points="188.1 117.22 170.95 127.28 168.06 125.53 185.25 115.52 188.1 117.22" style="fill:#3ecfcd"/><polygon points="188.1 117.22 170.95 127.28 168.06 125.53 171.09 126.35 188.1 117.22" style="fill:#0050ff"/><polygon points="148.46 140.27 148.46 159.54 145.55 157.94 145.55 138.52 148.46 140.27" style="fill:#0ba19f"/><polygon points="148.44 140.27 148.44 159.54 165.59 149.63 165.59 130.21 148.44 140.27" style="fill:#0fbab8"/><polygon points="165.59 130.21 148.44 140.27 145.55 138.52 162.74 128.51 165.59 130.21" style="fill:#3ecfcd"/><polygon points="165.59 130.21 148.44 140.27 145.55 138.52 148.58 139.34 165.59 130.21" style="fill:#0050ff"/><polygon points="126.09 153.11 126.09 172.38 123.19 170.78 123.19 151.36 126.09 153.11" style="fill:#0ba19f"/><polygon points="126.07 153.11 126.07 172.38 143.22 162.47 143.22 143.05 126.07 153.11" style="fill:#0fbab8"/><polygon points="143.22 143.05 126.07 153.11 123.19 151.36 140.38 141.35 143.22 143.05" style="fill:#3ecfcd"/><polygon points="143.22 143.05 126.07 153.11 123.19 151.36 126.22 152.18 143.22 143.05" style="fill:#0050ff"/><polygon points="104.01 165.67 104.01 184.94 101.11 183.34 101.11 163.92 104.01 165.67" style="fill:#0ba19f"/><polygon points="103.99 165.67 103.99 184.94 121.14 175.03 121.14 155.61 103.99 165.67" style="fill:#0fbab8"/><polygon points="121.14 155.61 103.99 165.67 101.11 163.92 118.3 153.91 121.14 155.61" style="fill:#3ecfcd"/><polygon points="121.14 155.61 103.99 165.67 101.11 163.92 104.14 164.74 121.14 155.61" style="fill:#0050ff"/><path d="M131.23,161.27a7.55,7.55,0,0,0,1.58-1.9c.27-.44.26-.91,0-1.06a2,2,0,0,1-.81-.9c-.28.07-.62,0-.62-.41a1.52,1.52,0,0,1,.4-1,5.07,5.07,0,0,1,2.55-4.48c1.92-1.11,2.49-.05,2.55,1.53.23-.05.41.18.41.57a1.82,1.82,0,0,1-.63,1.12,8.87,8.87,0,0,1-.81,1.84c-.25.45-.26.93,0,1.07a2.09,2.09,0,0,0,1.59.07c.8-.25,1.4.24,1.4,1.23v1.72a1.14,1.14,0,0,1-.53.9l-8,4.6c-.29.17-.52,0-.52-.3v-1.72A4.07,4.07,0,0,1,131.23,161.27Z" style="fill:#0050ff"/><path d="M118.05,168.68l-2.78,1.61v5l2.78-1.6Zm-4.41-1.61-2.78,1.61v9.14l2.78-1.61Zm-7.18,0v13.3l2.78-1.61V165.46Z" style="fill:#0050ff"/><path d="M152.59,148.41l-1.31,1.68a3.72,3.72,0,0,0,.6,1.3l1.49-1.27a2,2,0,0,0,.93.53l-.35,1.92a3.8,3.8,0,0,0,1.43-.14l.81-2a5.56,5.56,0,0,0,.65-.32,5.82,5.82,0,0,0,.66-.44l.81,1a12.08,12.08,0,0,0,1.43-1.51l-.36-1.51a10.35,10.35,0,0,0,.93-1.61l1.5-.45a12.55,12.55,0,0,0,.6-2l-1.32-.17a5.22,5.22,0,0,0,.06-.78,4.23,4.23,0,0,0-.06-.73l1.32-1.68a4,4,0,0,0-.6-1.3l-1.5,1.28a2.08,2.08,0,0,0-.93-.54l.36-1.92a4,4,0,0,0-1.43.14l-.81,2a4.82,4.82,0,0,0-.66.31,5.41,5.41,0,0,0-.65.45l-.81-1.05a11.51,11.51,0,0,0-1.43,1.52l.35,1.51a10.59,10.59,0,0,0-.93,1.6l-1.49.46a11.23,11.23,0,0,0-.6,2l1.31.17a7.13,7.13,0,0,0-.05.79A5.43,5.43,0,0,0,152.59,148.41Zm2.52-2.21a3.81,3.81,0,0,1,1.73-3c1-.55,1.73-.11,1.73,1a3.82,3.82,0,0,1-1.73,3C155.89,147.74,155.11,147.3,155.11,146.2Z" style="fill:#0050ff"/><path d="M184.92,124.89l-5.52,8.62-5.52-2.25h0a2.11,2.11,0,0,1,.66-.64l9.74-5.62a.79.79,0,0,1,.66-.12Z" style="fill:#0050ff"/><path d="M173.45,132.5v6.6c0,.68.48,1,1.08.61l9.74-5.62a2.38,2.38,0,0,0,1.08-1.87v-6.6a.7.7,0,0,0-.41-.73l-3.68,6.34,3.68,2.1,0,0L181,131.74l-1.57,2.71-5.54-3.16A2.25,2.25,0,0,0,173.45,132.5Zm.41,7.22,3.68-6.34.29.17-4,6.18Z" style="fill:#0050ff"/><path d="M307.82,158.21l14.8,8.39L320.38,170h-6.11c4.63,12.49,3.66,27.15,3.66,27.15l-53.37,30.81V168.61S299.72,155,307.82,158.21Z" style="fill:#2e3030"/><polygon points="256.46 187.68 256.46 181 248.43 183.27 256.46 187.68" style="fill:#825d53"/><path d="M237.42,184.59l13.38,8.26,3.79-7.16s-13.37-8.23-13.71-8.07C240,177.6,237.42,184.59,237.42,184.59Z" style="fill:#0050ff"/><path d="M185.17,274l13.48,8,57.72-86.06-19-11.34c-15.83,12.41-40,33.3-43.31,42.34C182.63,253.37,185.17,274,185.17,274Z" style="fill:#2e3030"/><path d="M218,135.58c-3-20,2.55-33.5,6.85-42C242.1,63.16,270.4,56,278,61.46l14,8.32L248.61,181.9l-4,0-14.24-8.52h0c-7.08-4.11-10-13-10.46-20.35C218.69,145.4,218,135.58,218,135.58Z" style="fill:#54403a"/><path d="M223.65,156l7.12,4.53L237,146.72l-12.36-7.45A18,18,0,0,0,221,149.86C221,154.57,223.65,156,223.65,156Z" style="fill:#c28b7c"/><polygon points="267.44 171.82 275.41 176.51 276.98 172.68 269.32 168.31 267.44 171.82" style="fill:#546662"/><polygon points="254.99 210.39 276 198.26 276 163.43 254.99 175.57 254.99 210.39" style="fill:#bd8779"/><path d="M255,194.79l8.84,7.43c.79.58,2.18-.21,3-1.69L276,182.77c.46-.85,1.06-.74,1.74-1h0a1.09,1.09,0,0,1,1.54.63L292,217.46c.45,1.23-.51,11-1.88,11.75l-51,29.47c-1.39.8-2.34-7.89-1.87-9.66L250.68,199a4.53,4.53,0,0,1,1.56-2.37l.92-.7C253.83,195.39,254.54,194.45,255,194.79Z" style="fill:#6696ff"/><path d="M278.86,235.68l53.37-30.81s2-24.2-8.46-37c-3.85-8-44.91,8.45-44.91,8.45Z" style="fill:#434747"/><path d="M252.08,251.15,198.65,282a113.58,113.58,0,0,1,8.94-47c2.91-10.11,44.49-43.24,44.49-43.24Z" style="fill:#434747"/><path d="M293.74,126.7c4.34-1.47,8.69-7.69,9.7-13.91s-1.69-10.06-6-8.59S289.38,128.17,293.74,126.7Z" style="fill:#ffb7a4"/><path d="M237.77,159c-4.34,3.55-8.69,2.34-9.7-2.71s1.69-12,6-15.56S242.12,155.45,237.77,159Z" style="fill:#ffb7a4"/><path d="M265.54,180.25c-36,20.81-30.27-53.91-30.27-53.91s1.48-24.26,29.49-40.43c24.42-14.1,30.44,6.41,30.44,6.41S301.83,159.3,265.54,180.25Z" style="fill:#ffb7a4"/><path d="M216.1,255.39l0-12.27a6.53,6.53,0,0,1,3.15-5l22.4-12.86A2.44,2.44,0,0,1,244,225h0l1.78,1-.6,1.93-.38-.32,0,11.25a6.54,6.54,0,0,1-3.15,5l-22.41,12.86-.26.12-.49,1.07-1.43-.83a2.07,2.07,0,0,1-.25-.15l-.12-.07h0A1.85,1.85,0,0,1,216.1,255.39Z" style="fill:#8a8a8a"/><path d="M220.8,257.63l22.41-12.86a6.48,6.48,0,0,0,3.15-5l0-12.27c0-1.73-1.4-2.34-3.14-1.34l-22.4,12.86a6.53,6.53,0,0,0-3.15,5l0,12.27C217.67,258,219.07,258.63,220.8,257.63Z" style="fill:#fff"/><polygon points="238.1 244.64 243.62 241.47 243.64 232.87 238.12 236.03 238.1 244.64" style="fill:#0050ff"/><polygon points="220.46 244.63 243.65 231.32 243.65 228.88 220.46 242.19 220.46 244.63" style="fill:#a8a8a8"/><path d="M299.1,103.9c-3,.94-6.11,9.25-6.11,9.25l-1.21-24.06s-16.67,20.29-34.21,27.06c2.95-8.1,1.75-12.25,1.75-12.25s-10.12,14.9-14.86,17.66c-1.21-2-4.73-2.5-4.73-2.5s-2.56,28.56-2.46,27.46c-1.55-6.08-5.83-2.89-5.83-2.89S222.25,99.26,265.3,74.4,299.17,102.45,299.1,103.9Z" style="fill:#89695e"/><path d="M272.91,239.13l-15.24,8.79,7.18-44.26c.31-.54.83-.82,1.13-.6Z" style="fill:#474747"/><path d="M271.08,189.27l-11.37,6.56c-.68.4-1,5.32-.55,5.61l5.67,1.71c.32.18.84-.14,1.13-.69l5.71-8.28C272.11,193.35,271.75,188.88,271.08,189.27Z" style="fill:#474747"/><path d="M264.77,193.49l-9.12,13.38c-.33.49-.82.59-.93.19l-4-13.59a.94.94,0,0,1,.08-.62l2.86-6.54c.21-.49.67-.8.93-.62l10.25,6.74C265.08,192.59,265.05,193.08,264.77,193.49Z" style="fill:#6696ff"/><path d="M266,192.79l9.11,2.85c.33.11.82-.36.94-.89l4-18.2A.67.67,0,0,0,280,176l-2.87-3.23c-.21-.25-.66,0-.93.45l-10.25,18.58C265.67,192.25,265.71,192.7,266,192.79Z" style="fill:#6696ff"/></svg>