<svg xmlns="http://www.w3.org/2000/svg" xmlns:xlink="http://www.w3.org/1999/xlink" viewBox="0 0 400 300"><defs><linearGradient id="linear-gradient" x1="310.08" y1="120.2" x2="367.76" y2="120.2" gradientUnits="userSpaceOnUse"><stop offset="0" stop-color="#6696ff"/><stop offset="0.99" stop-color="#0050ff"/></linearGradient><linearGradient id="linear-gradient-2" x1="300.88" y1="132.9" x2="358.56" y2="132.9" xlink:href="#linear-gradient"/><linearGradient id="Degradado_sin_nombre_77" x1="160.86" y1="158.26" x2="177.66" y2="182.63" gradientUnits="userSpaceOnUse"><stop offset="0" stop-color="#483778" stop-opacity="0.4"/><stop offset="1" stop-color="#d2c2ff" stop-opacity="0"/></linearGradient><linearGradient id="Degradado_sin_nombre_34" x1="8061" y1="182.52" x2="8095.05" y2="182.52" gradientTransform="matrix(-1, 0, 0, 1, 8410.95, 0)" gradientUnits="userSpaceOnUse"><stop offset="0" stop-color="#fddbd5"/><stop offset="1" stop-color="#fab2a5"/></linearGradient><linearGradient id="Degradado_sin_nombre_34-2" x1="49.86" y1="142.21" x2="114.3" y2="142.21" gradientTransform="matrix(1, 0, 0, 1, 0, 0)" xlink:href="#Degradado_sin_nombre_34"/><linearGradient id="Degradado_sin_nombre_64" x1="149.23" y1="105.3" x2="144.19" y2="95.51" gradientUnits="userSpaceOnUse"><stop offset="0" stop-color="#fba492"/><stop offset="0.25" stop-color="#fa9380"/><stop offset="1" stop-color="#f06146"/></linearGradient><linearGradient id="Degradado_sin_nombre_27" x1="99.19" y1="157.11" x2="116.09" y2="157.11" gradientUnits="userSpaceOnUse"><stop offset="0" stop-color="#fba492"/><stop offset="0.34" stop-color="#fab0a3"/><stop offset="0.96" stop-color="#fab2a5"/><stop offset="1" stop-color="#fa9380"/></linearGradient><linearGradient id="Degradado_sin_nombre_27-2" x1="99.2" y1="168.75" x2="116.09" y2="168.75" xlink:href="#Degradado_sin_nombre_27"/><linearGradient id="Degradado_sin_nombre_77-2" x1="199.09" y1="169.23" x2="215.89" y2="193.6" xlink:href="#Degradado_sin_nombre_77"/><linearGradient id="linear-gradient-3" x1="146.22" y1="93.47" x2="251.43" y2="93.47" xlink:href="#linear-gradient"/><linearGradient id="Degradado_sin_nombre_33" x1="245.81" y1="107.8" x2="208.42" y2="133.31" gradientUnits="userSpaceOnUse"><stop offset="0" stop-color="#fab0a3"/><stop offset="1" stop-color="#fa9380"/></linearGradient><linearGradient id="linear-gradient-4" x1="156.36" y1="145.08" x2="215.4" y2="114.52" xlink:href="#linear-gradient"/><linearGradient id="Degradado_sin_nombre_21" x1="239.48" y1="114.78" x2="263.63" y2="114.78" gradientUnits="userSpaceOnUse"><stop offset="0" stop-color="#fba492"/><stop offset="0.25" stop-color="#fa9380"/><stop offset="1" stop-color="#fa7961"/></linearGradient><linearGradient id="Degradado_sin_nombre_27-3" x1="279.03" y1="117.82" x2="293.31" y2="117.82" xlink:href="#Degradado_sin_nombre_27"/><linearGradient id="linear-gradient-5" x1="273.83" y1="133.7" x2="287.41" y2="133.7" xlink:href="#linear-gradient"/><linearGradient id="Degradado_sin_nombre_64-2" x1="285.82" y1="138.39" x2="311.25" y2="138.39" xlink:href="#Degradado_sin_nombre_64"/><linearGradient id="linear-gradient-6" x1="287.06" y1="135.34" x2="287.43" y2="135.34" xlink:href="#linear-gradient"/><linearGradient id="linear-gradient-7" x1="284.03" y1="130.81" x2="315.83" y2="141.73" xlink:href="#linear-gradient"/><linearGradient id="linear-gradient-8" x1="300.26" y1="139.14" x2="307.45" y2="142.25" xlink:href="#linear-gradient"/><linearGradient id="linear-gradient-9" x1="296.78" y1="138.25" x2="301.04" y2="138.25" xlink:href="#linear-gradient"/><linearGradient id="linear-gradient-10" x1="282.34" y1="132.78" x2="396.72" y2="162.89" xlink:href="#linear-gradient"/><linearGradient id="linear-gradient-11" x1="286.95" y1="138.94" x2="289.56" y2="138.94" xlink:href="#linear-gradient"/><linearGradient id="Degradado_sin_nombre_64-3" x1="112.77" y1="196.07" x2="114.45" y2="222.24" xlink:href="#Degradado_sin_nombre_64"/><linearGradient id="linear-gradient-12" x1="100.31" y1="195.72" x2="104.15" y2="230.78" xlink:href="#linear-gradient"/><linearGradient id="linear-gradient-13" x1="125.61" y1="182.63" x2="123.21" y2="221.29" xlink:href="#linear-gradient"/><linearGradient id="Degradado_sin_nombre_77-3" x1="115.77" y1="225.59" x2="129.54" y2="245.56" xlink:href="#Degradado_sin_nombre_77"/><linearGradient id="Degradado_sin_nombre_77-4" x1="265.49" y1="197.5" x2="278.21" y2="215.97" xlink:href="#Degradado_sin_nombre_77"/><linearGradient id="Degradado_sin_nombre_64-4" x1="264.54" y1="206.92" x2="268.5" y2="220" xlink:href="#Degradado_sin_nombre_64"/><linearGradient id="Degradado_sin_nombre_64-5" x1="250.29" y1="200.23" x2="276.64" y2="200.23" xlink:href="#Degradado_sin_nombre_64"/><linearGradient id="Degradado_sin_nombre_21-2" x1="265.07" y1="76.2" x2="282.59" y2="76.2" xlink:href="#Degradado_sin_nombre_21"/><linearGradient id="Degradado_sin_nombre_34-3" x1="222.39" y1="51.43" x2="233.33" y2="51.43" gradientTransform="matrix(1, 0, 0, 1, 0, 0)" xlink:href="#Degradado_sin_nombre_34"/><linearGradient id="Degradado_sin_nombre_64-6" x1="216.64" y1="58.64" x2="222.42" y2="58.64" xlink:href="#Degradado_sin_nombre_64"/><linearGradient id="Degradado_sin_nombre_21-3" x1="71.86" y1="174.65" x2="82.08" y2="174.65" xlink:href="#Degradado_sin_nombre_21"/><linearGradient id="Degradado_sin_nombre_21-4" x1="64.81" y1="174.65" x2="89.13" y2="174.65" xlink:href="#Degradado_sin_nombre_21"/><linearGradient id="Degradado_sin_nombre_64-7" x1="118.74" y1="78.58" x2="131.66" y2="78.58" xlink:href="#Degradado_sin_nombre_64"/><linearGradient id="linear-gradient-14" x1="102.25" y1="95.08" x2="118.98" y2="95.08" xlink:href="#linear-gradient"/><linearGradient id="Degradado_sin_nombre_21-5" x1="284.89" y1="71.03" x2="298.28" y2="71.03" xlink:href="#Degradado_sin_nombre_21"/><linearGradient id="Degradado_sin_nombre_21-6" x1="285.43" y1="75.56" x2="298.82" y2="75.56" xlink:href="#Degradado_sin_nombre_21"/><linearGradient id="Degradado_sin_nombre_21-7" x1="288.34" y1="71.52" x2="301.73" y2="71.52" xlink:href="#Degradado_sin_nombre_21"/><linearGradient id="Degradado_sin_nombre_21-8" x1="124.95" y1="87.87" x2="138.34" y2="87.87" xlink:href="#Degradado_sin_nombre_21"/><linearGradient id="Degradado_sin_nombre_21-9" x1="125.49" y1="92.4" x2="138.87" y2="92.4" xlink:href="#Degradado_sin_nombre_21"/><linearGradient id="Degradado_sin_nombre_21-10" x1="128.4" y1="88.36" x2="141.78" y2="88.36" xlink:href="#Degradado_sin_nombre_21"/><linearGradient id="Degradado_sin_nombre_21-11" x1="7661.66" y1="-2475.88" x2="7675.05" y2="-2475.88" gradientTransform="translate(7723.28 -2278.45) rotate(180)" xlink:href="#Degradado_sin_nombre_21"/><linearGradient id="Degradado_sin_nombre_21-12" x1="7662.2" y1="-2471.35" x2="7675.58" y2="-2471.35" gradientTransform="translate(7723.28 -2278.45) rotate(180)" xlink:href="#Degradado_sin_nombre_21"/><linearGradient id="Degradado_sin_nombre_21-13" x1="7665.11" y1="-2475.38" x2="7678.49" y2="-2475.38" gradientTransform="translate(7723.28 -2278.45) rotate(180)" xlink:href="#Degradado_sin_nombre_21"/><linearGradient id="Degradado_sin_nombre_21-14" x1="54.19" y1="167.9" x2="77.97" y2="167.9" xlink:href="#Degradado_sin_nombre_21"/><linearGradient id="Degradado_sin_nombre_21-15" x1="52.36" y1="161.59" x2="59.65" y2="161.59" xlink:href="#Degradado_sin_nombre_21"/><linearGradient id="Degradado_sin_nombre_21-16" x1="55.74" y1="163.68" x2="63.03" y2="163.68" xlink:href="#Degradado_sin_nombre_21"/><linearGradient id="Degradado_sin_nombre_77-5" x1="218.84" y1="251.8" x2="234.81" y2="281.24" xlink:href="#Degradado_sin_nombre_77"/><linearGradient id="Degradado_sin_nombre_27-4" x1="208.72" y1="248.27" x2="248.46" y2="248.27" xlink:href="#Degradado_sin_nombre_27"/><linearGradient id="Degradado_sin_nombre_64-8" x1="210.53" y1="242.71" x2="249.18" y2="242.71" xlink:href="#Degradado_sin_nombre_64"/><linearGradient id="linear-gradient-15" x1="209.45" y1="254.15" x2="250.26" y2="254.15" xlink:href="#linear-gradient"/><linearGradient id="Degradado_sin_nombre_64-9" x1="196.82" y1="262.38" x2="217.9" y2="262.38" xlink:href="#Degradado_sin_nombre_64"/><linearGradient id="linear-gradient-16" x1="185.61" y1="268.03" x2="210.61" y2="268.03" xlink:href="#linear-gradient"/><linearGradient id="linear-gradient-17" x1="184.62" y1="273.72" x2="191.41" y2="273.72" xlink:href="#linear-gradient"/><linearGradient id="Degradado_sin_nombre_77-6" x1="302.34" y1="210.37" x2="315.06" y2="228.84" xlink:href="#Degradado_sin_nombre_77"/><linearGradient id="Degradado_sin_nombre_64-10" x1="298.25" y1="215.11" x2="308.27" y2="215.11" xlink:href="#Degradado_sin_nombre_64"/><linearGradient id="linear-gradient-18" x1="294.59" y1="190.82" x2="312" y2="190.82" xlink:href="#linear-gradient"/><linearGradient id="linear-gradient-19" x1="302.87" y1="214.32" x2="311.47" y2="185.54" xlink:href="#linear-gradient"/><linearGradient id="linear-gradient-20" x1="297.46" y1="212.7" x2="306.07" y2="183.92" xlink:href="#linear-gradient"/><linearGradient id="linear-gradient-21" x1="288.35" y1="217.58" x2="296.03" y2="217.58" xlink:href="#linear-gradient"/><linearGradient id="Degradado_sin_nombre_64-11" x1="289.83" y1="180.82" x2="293.48" y2="220.96" xlink:href="#Degradado_sin_nombre_64"/><linearGradient id="Degradado_sin_nombre_77-7" x1="153.49" y1="261.42" x2="169.45" y2="284.62" xlink:href="#Degradado_sin_nombre_77"/><linearGradient id="linear-gradient-22" x1="135.18" y1="257.47" x2="149.45" y2="257.47" xlink:href="#linear-gradient"/><linearGradient id="linear-gradient-23" x1="149.43" y1="257.51" x2="163.68" y2="257.51" xlink:href="#linear-gradient"/><linearGradient id="linear-gradient-24" x1="135.2" y1="252.82" x2="163.68" y2="252.82" xlink:href="#linear-gradient"/><linearGradient id="Degradado_sin_nombre_33-2" x1="159.82" y1="256.94" x2="159.72" y2="260.2" xlink:href="#Degradado_sin_nombre_33"/><linearGradient id="Degradado_sin_nombre_33-3" x1="159.47" y1="260.9" x2="160.66" y2="249.53" xlink:href="#Degradado_sin_nombre_33"/><linearGradient id="Degradado_sin_nombre_64-12" x1="136.78" y1="251.48" x2="162.89" y2="275.81" xlink:href="#Degradado_sin_nombre_64"/><linearGradient id="Degradado_sin_nombre_64-13" x1="146.69" y1="245.56" x2="148.67" y2="254.47" xlink:href="#Degradado_sin_nombre_64"/><linearGradient id="linear-gradient-25" x1="153.38" y1="245.41" x2="155.17" y2="245.41" xlink:href="#linear-gradient"/><linearGradient id="Degradado_sin_nombre_47" x1="148.9" y1="261.92" x2="151.31" y2="220.6" gradientUnits="userSpaceOnUse"><stop offset="0" stop-color="#fba492"/><stop offset="1" stop-color="#fabdb2" stop-opacity="0"/></linearGradient><linearGradient id="linear-gradient-26" x1="144.63" y1="227.75" x2="146.41" y2="227.75" xlink:href="#linear-gradient"/><linearGradient id="linear-gradient-27" x1="150.49" y1="232.7" x2="152.27" y2="232.7" xlink:href="#linear-gradient"/><linearGradient id="linear-gradient-28" x1="144.63" y1="240.5" x2="146.41" y2="240.5" xlink:href="#linear-gradient"/><linearGradient id="linear-gradient-29" x1="147.96" y1="254.15" x2="149.74" y2="254.15" xlink:href="#linear-gradient"/><linearGradient id="linear-gradient-30" x1="154.28" y1="257.51" x2="156.06" y2="257.51" xlink:href="#linear-gradient"/><linearGradient id="Degradado_sin_nombre_77-8" x1="165.77" y1="227.27" x2="174.61" y2="240.09" xlink:href="#Degradado_sin_nombre_77"/><linearGradient id="Degradado_sin_nombre_64-14" x1="156.44" y1="229.48" x2="170.31" y2="229.48" xlink:href="#Degradado_sin_nombre_64"/><linearGradient id="linear-gradient-31" x1="151.38" y1="195.89" x2="175.46" y2="195.89" xlink:href="#linear-gradient"/><linearGradient id="linear-gradient-32" x1="146.83" y1="228.04" x2="170.54" y2="189.77" xlink:href="#linear-gradient"/><linearGradient id="Degradado_sin_nombre_77-9" x1="228.85" y1="217.68" x2="238.49" y2="231.67" xlink:href="#Degradado_sin_nombre_77"/><linearGradient id="linear-gradient-33" x1="223.12" y1="161.55" x2="234.07" y2="161.55" xlink:href="#linear-gradient"/><linearGradient id="Degradado_sin_nombre_77-10" x1="202.78" y1="201.07" x2="218.31" y2="219.74" xlink:href="#Degradado_sin_nombre_77"/><linearGradient id="linear-gradient-34" x1="180.19" y1="211.81" x2="203.46" y2="211.81" xlink:href="#linear-gradient"/><linearGradient id="linear-gradient-35" x1="180.2" y1="207.94" x2="203.46" y2="207.94" xlink:href="#linear-gradient"/><linearGradient id="Degradado_sin_nombre_77-11" x1="258.23" y1="172.94" x2="267.07" y2="185.76" xlink:href="#Degradado_sin_nombre_77"/><linearGradient id="linear-gradient-36" x1="249.99" y1="176.34" x2="260.01" y2="176.34" xlink:href="#linear-gradient"/><linearGradient id="Degradado_sin_nombre_21-17" x1="257.09" y1="128.01" x2="254.28" y2="175.73" xlink:href="#Degradado_sin_nombre_21"/><radialGradient id="Degradado_sin_nombre_78" cx="331.4" cy="4758.49" r="58.46" gradientTransform="translate(0 -860.07) scale(1 0.22)" xlink:href="#Degradado_sin_nombre_77"/><radialGradient id="Degradado_sin_nombre_78-2" cx="76.97" cy="4768.39" r="66.83" gradientTransform="translate(0 -860.07) scale(1 0.22)" xlink:href="#Degradado_sin_nombre_77"/><linearGradient id="Degradado_sin_nombre_64-15" x1="265.89" y1="103.86" x2="313.92" y2="103.86" xlink:href="#Degradado_sin_nombre_64"/><linearGradient id="linear-gradient-37" x1="76.01" y1="71.55" x2="128.49" y2="71.55" xlink:href="#linear-gradient"/><linearGradient id="linear-gradient-38" x1="165.59" y1="51.43" x2="218.07" y2="51.43" xlink:href="#linear-gradient"/><linearGradient id="Degradado_sin_nombre_64-16" x1="130.68" y1="175.52" x2="196.76" y2="175.52" xlink:href="#Degradado_sin_nombre_64"/></defs><title>L</title><g style="isolation:isolate"><g id="Layer_1" data-name="Layer 1"><path d="M310.08,120.2h0a3.21,3.21,0,0,1,3.21-3.2h51.26a3.21,3.21,0,0,1,3.21,3.2h0a3.21,3.21,0,0,1-3.21,3.21H313.29A3.21,3.21,0,0,1,310.08,120.2Z" style="opacity:0.14;fill:url(#linear-gradient)"/><path d="M300.88,132.9h0a3.21,3.21,0,0,1,3.21-3.21h51.27a3.21,3.21,0,0,1,3.2,3.21h0a3.2,3.2,0,0,1-3.2,3.2H304.09A3.21,3.21,0,0,1,300.88,132.9Z" style="opacity:0.14;fill:url(#linear-gradient-2)"/><polygon points="213.38 133.96 234.91 147.65 128.17 211.41 105.71 196.27 213.38 133.96" style="fill:url(#Degradado_sin_nombre_77)"/><path d="M167.19,44.46c3.58-2.07,6.55-.84,7.21,2.68a11.66,11.66,0,0,1,1.94-1.43c4-2.34,7.34-.46,7.35,4.19,0,4.27-2.75,9.4-6.34,12l.05.07L154.19,75.45c-2.51,1.44-4.54.28-4.55-2.59A10,10,0,0,1,154.16,65a5.56,5.56,0,0,1,.55-.27A12.58,12.58,0,0,1,160,55.3C160.72,51.08,163.66,46.5,167.19,44.46Z" style="fill:#c2d5ff"/><path d="M332.4,167.21c-3.58-2.06-6.56-.83-7.21,2.68a11.58,11.58,0,0,0-1.94-1.42c-4.05-2.34-7.34-.47-7.35,4.18,0,4.28,2.75,9.41,6.34,12l-.06.07,23.22,13.47c2.51,1.44,4.54.28,4.55-2.6a9.94,9.94,0,0,0-4.52-7.82,5.72,5.72,0,0,0-.55-.28,12.58,12.58,0,0,0-5.33-9.45C338.87,173.84,335.93,169.25,332.4,167.21Z" style="fill:url(#Degradado_sin_nombre_34)"/><path d="M83.07,113.25c6.77-3.9,12.4-1.58,13.65,5.06a22.74,22.74,0,0,1,3.66-2.69c7.67-4.43,13.9-.88,13.92,7.92,0,8.1-5.21,17.79-12,22.74l.1.14L58.47,171.9c-4.75,2.73-8.59.53-8.61-4.91s3.82-12.07,8.56-14.81a10,10,0,0,1,1-.52c.1-6.53,4.51-14.3,10.08-17.88C70.82,125.78,76.38,117.11,83.07,113.25Z" style="fill:url(#Degradado_sin_nombre_34-2)"/><path d="M193.62,64.19c2.91-1.68,5.27-.33,5.28,3l.22,78.07a11.56,11.56,0,0,1-5.24,9.08L99.2,209c-2.9,1.68-5.27.33-5.28-3l-.22-78.07A11.55,11.55,0,0,1,99,118.85Z" style="fill:#fbfaff"/><path d="M198.9,67.19c0-3.33-2.37-4.68-5.28-3L99,118.85a11.55,11.55,0,0,0-5.25,9.08l0,5.42L198.91,72.62Z" style="fill:url(#Degradado_sin_nombre_64)"/><path d="M100.83,122c.78-.45,1.42-.09,1.42.81a3.12,3.12,0,0,1-1.41,2.44c-.78.45-1.42.09-1.42-.81A3.08,3.08,0,0,1,100.83,122Z" style="fill:#facdc6"/><path d="M105.32,119.52c.78-.45,1.42-.09,1.42.81a3.11,3.11,0,0,1-1.41,2.44c-.78.45-1.42.09-1.42-.81A3.12,3.12,0,0,1,105.32,119.52Z" style="fill:#facdc6"/><path d="M109.81,117c.78-.45,1.42-.1,1.42.8a3.1,3.1,0,0,1-1.41,2.45c-.78.45-1.42.09-1.42-.81A3.11,3.11,0,0,1,109.81,117Z" style="fill:#facdc6"/><polygon points="173.55 93.49 173.65 130 122.37 159.61 122.27 123.1 173.55 93.49" style="fill:#c2d5ff"/><path d="M173.6,155.47V158a1.44,1.44,0,0,1-.71,1.23l-48.46,28a1.41,1.41,0,0,1-2.12-1.22v-2.52a1.41,1.41,0,0,1,.71-1.23l48.46-28A1.42,1.42,0,0,1,173.6,155.47Z" style="fill:#c2d5ff"/><path d="M166.65,141.7h0a1.41,1.41,0,0,1-.7,1.23L124.28,167a1.41,1.41,0,0,1-2.12-1.22h0a1.41,1.41,0,0,1,.71-1.23l41.66-24.06A1.42,1.42,0,0,1,166.65,141.7Z" style="fill:#c2d5ff"/><path d="M176.42,147.57h0a1.41,1.41,0,0,1-.71,1.23L124.4,178.42a1.41,1.41,0,0,1-2.12-1.22h0A1.42,1.42,0,0,1,123,176l51.3-29.62A1.42,1.42,0,0,1,176.42,147.57Z" style="fill:#c2d5ff"/><path d="M157.94,152.26h0a1.41,1.41,0,0,1-.7,1.23l-32.9,19a1.41,1.41,0,0,1-2.12-1.22h0a1.38,1.38,0,0,1,.7-1.23l32.9-19A1.42,1.42,0,0,1,157.94,152.26Z" style="fill:#c2d5ff"/><polygon points="116.05 126.07 116.1 144.32 99.23 154.07 99.18 135.81 116.05 126.07" style="fill:#c2d5ff"/><polygon points="116.06 146.68 116.09 157.8 99.22 167.54 99.19 156.42 116.06 146.68" style="fill:url(#Degradado_sin_nombre_27)"/><polygon points="116.05 170.14 116.11 192.93 99.24 202.67 99.17 179.88 116.05 170.14" style="fill:#c2d5ff"/><polygon points="116.07 160.58 116.09 167.17 99.22 176.91 99.2 170.32 116.07 160.58" style="fill:url(#Degradado_sin_nombre_27-2)"/><polygon points="251.61 144.93 273.13 158.62 166.4 222.38 143.94 207.24 251.61 144.93" style="fill:url(#Degradado_sin_nombre_77-2)"/><path d="M246.14,59.24c2.91-1.67,5.27-.33,5.28,3l.22,78.07a11.58,11.58,0,0,1-5.24,9.08l-94.68,54.66c-2.91,1.68-5.27.33-5.28-3L146.22,123a11.53,11.53,0,0,1,5.25-9.08Z" style="fill:#f5f5f5"/><path d="M251.42,62.25c0-3.34-2.37-4.68-5.28-3l-94.67,54.67a11.53,11.53,0,0,0-5.25,9.08l0,5.42L251.43,67.67Z" style="fill:url(#linear-gradient-3)"/><path d="M153.35,117.07c.78-.45,1.41-.08,1.42.81a3.13,3.13,0,0,1-1.41,2.45c-.79.45-1.42.09-1.43-.81A3.11,3.11,0,0,1,153.35,117.07Z" style="fill:#d2c2ff"/><path d="M157.84,114.58c.78-.45,1.42-.09,1.42.81a3.12,3.12,0,0,1-1.41,2.44c-.78.45-1.42.09-1.42-.81A3.11,3.11,0,0,1,157.84,114.58Z" style="fill:#d2c2ff"/><path d="M162.33,112.08c.78-.45,1.42-.09,1.42.81a3.08,3.08,0,0,1-1.41,2.44c-.78.46-1.42.1-1.42-.81A3.14,3.14,0,0,1,162.33,112.08Z" style="fill:#d2c2ff"/><polygon points="246.65 76.2 246.71 95.36 219.38 111.13 219.33 91.97 246.65 76.2" style="fill:#c2d5ff"/><polygon points="246.65 99.06 246.71 118.22 219.38 133.99 219.33 114.83 246.65 99.06" style="opacity:0.63;fill:url(#Degradado_sin_nombre_33)"/><path d="M206.87,144.5h0A1.69,1.69,0,0,1,206,146l-50.41,29.11a1.68,1.68,0,0,1-2.52-1.46h0a1.69,1.69,0,0,1,.84-1.46l50.41-29.1A1.68,1.68,0,0,1,206.87,144.5Z" style="fill:#c2d5ff"/><path d="M193.15,158.27h0a1.69,1.69,0,0,1-.84,1.46l-37,21.34a1.69,1.69,0,0,1-2.53-1.45h0a1.68,1.68,0,0,1,.85-1.46l37-21.35A1.69,1.69,0,0,1,193.15,158.27Z" style="fill:#c2d5ff"/><path d="M206.87,158.71h0a1.7,1.7,0,0,1-.84,1.47l-50.41,29.1a1.68,1.68,0,0,1-2.52-1.45h0a1.69,1.69,0,0,1,.84-1.46l50.41-29.1A1.67,1.67,0,0,1,206.87,158.71Z" style="fill:#c2d5ff"/><path d="M193.15,172.48h0a1.69,1.69,0,0,1-.84,1.46l-37,21.35a1.69,1.69,0,0,1-2.53-1.46h0a1.66,1.66,0,0,1,.85-1.46l37-21.35A1.69,1.69,0,0,1,193.15,172.48Z" style="fill:#c2d5ff"/><polygon points="246.65 123.16 246.71 142.32 219.38 158.09 219.33 138.93 246.65 123.16" style="fill:#c2d5ff"/><polygon points="214.64 94.78 214.75 131.29 152.95 166.97 152.84 130.46 214.64 94.78" style="fill:url(#linear-gradient-4)"/><polygon points="214.69 129.01 214.7 131.51 152.9 167.19 152.89 164.69 214.69 129.01" style="fill:#b89eff"/><path d="M181.78,125.27a.26.26,0,0,1,.18,0l6.79,1.41a.2.2,0,0,1,.14.19.62.62,0,0,1-.09.36l-6.65,11.39a.56.56,0,0,1-.23.23.31.31,0,0,1-.12,0c-.12,0-.2-.08-.2-.23l-.14-12.79a.74.74,0,0,1,.16-.43A.61.61,0,0,1,181.78,125.27Z" style="fill:#ebe3ff"/><polygon points="208.22 133.69 208.23 134.32 151.79 166.9 151.79 166.28 208.22 133.69" style="fill:#0050ff"/><path d="M251.52,100.92c6.66-3.84,12.09-.79,12.11,6.87s-5.37,17-12,20.85-12.1.79-12.12-6.91S244.83,104.78,251.52,100.92Z" style="fill:url(#Degradado_sin_nombre_21)"/><path d="M252.6,107.21c1.93-1.12,3.51-.23,3.52,2a7.73,7.73,0,0,1-3.5,6.05c-2,1.13-3.51.23-3.52-2A7.65,7.65,0,0,1,252.6,107.21Z" style="fill:#0050ff"/><path d="M252,116.76c-4.07,1.84-6.65,13.5-6.53,13.51a10.44,10.44,0,0,0,6.14-1.63,24,24,0,0,0,7.92-8l0-.08C258.36,118.7,255.81,115,252,116.76Z" style="fill:#0050ff"/><path d="M292.6,115.4l.7.42v7l-.73-.45a9.68,9.68,0,0,0-9.2-.66L279,114.27C282.45,112.12,287.27,112.32,292.6,115.4Z" style="fill:url(#Degradado_sin_nombre_27-3)"/><path d="M279,114.27l4.35,7.41c-1.91,1.22-3.37,3.59-3.5,7.9-.17,5.85,3.09,12.87,7.53,17.69l-1.59,5.86c-7-7.16-12-17.88-12-27C273.85,120.36,275.83,116.29,279,114.27Z" style="fill:url(#linear-gradient-5)"/><path d="M293.3,115.82c10,6.2,18,20.29,17.95,31.87,0,11.86-8.45,16.66-18.77,10.7a31.38,31.38,0,0,1-6.66-5.26c.55-1.93,1.09-3.88,1.59-5.86a22.36,22.36,0,0,0,5.08,4.17c7,4,12.69.78,12.71-7.24,0-7.74-5.25-17.13-11.89-21.41Z" style="fill:url(#Degradado_sin_nombre_64-2)"/><path d="M287.06,135.27v-.05a3.87,3.87,0,0,0,.37.24Z" style="fill:url(#linear-gradient-6)"/><path d="M288.83,129v0l0,7.19h0l-1.32-.76,0,0a3.87,3.87,0,0,1-.37-.24l-.09-.07a7,7,0,0,1-2.64-5.09c0-2,1.42-2.8,3.15-1.8Z" style="fill:url(#linear-gradient-7)"/><path d="M301,136.91a5,5,0,0,1,2,3.71c0,1.32-.87,1.91-2,1.42Z" style="fill:url(#linear-gradient-8)"/><path d="M298.93,130.62a4.62,4.62,0,0,1,2.11,3.65v10.4c0,1.34-.95,1.89-2.12,1.21a4.65,4.65,0,0,1-2.11-3.65v-.12l0-10.28a2.34,2.34,0,0,1,.12-.74C297.23,130.31,298,130.09,298.93,130.62Z" style="fill:url(#linear-gradient-9)"/><path d="M288.83,129.06c4.42,2.25,7.14,2.17,8.1,2a2.34,2.34,0,0,0-.12.74l0,10.28a60.51,60.51,0,0,0-7.22-5.38c-.28-.18-.54-.35-.78-.49Z" style="fill:url(#linear-gradient-10)"/><path d="M287,135.15l.09.07v.05l.37.19,0,0,1.32.76c.24.14.5.31.78.49v5.19c0,.72-.51,1-1.15.65a3.19,3.19,0,0,1-1.45-2.5Z" style="fill:url(#linear-gradient-11)"/><polygon points="135.46 166.74 135.6 217.04 90.42 243.12 90.28 192.82 135.46 166.74" style="fill:#c2d5ff"/><polygon points="117.28 194.47 117.36 222.45 110.11 226.63 110.03 198.65 117.28 194.47" style="fill:url(#Degradado_sin_nombre_64-3)"/><polygon points="105.83 193.84 105.93 228.96 98.68 233.14 98.58 198.02 105.83 193.84" style="fill:url(#linear-gradient-12)"/><polygon points="128.24 175.69 128.36 215.6 121.11 219.79 121 179.87 128.24 175.69" style="fill:url(#linear-gradient-13)"/><polygon points="135.9 216.31 157.42 230.01 112.06 258.77 89.6 243.63 135.9 216.31" style="fill:url(#Degradado_sin_nombre_77-3)"/><polygon points="271.03 195.27 292.55 208.96 274.95 221.6 252.49 206.46 271.03 195.27" style="fill:url(#Degradado_sin_nombre_77-4)"/><g style="isolation:isolate"><path d="M260.39,199v-2.54a3.4,3.4,0,0,0,1.86,2.8v2.54A3.4,3.4,0,0,1,260.39,199Z" style="fill:#fa7961"/><path d="M276.64,201.41V204a16.81,16.81,0,0,1-.23,2.71,16.57,16.57,0,0,1-.95,3.59,34.66,34.66,0,0,1-4.26.3c-1.3.06-2.62.09-3.93.07a45.82,45.82,0,0,1-9.73-1,19.41,19.41,0,0,1-5.08-1.79,3.93,3.93,0,0,1-2.09-2.33,3.08,3.08,0,0,1-.08-.68v-2.54a2.63,2.63,0,0,0,.08.68,4,4,0,0,0,2.09,2.33,19.28,19.28,0,0,0,5.08,1.79,46.41,46.41,0,0,0,9.73,1c1.31,0,2.63,0,3.93-.07a34.34,34.34,0,0,0,4.25-.3,16,16,0,0,0,1-3.59A18,18,0,0,0,276.64,201.41Z" style="fill:url(#Degradado_sin_nombre_64-4)"/><path d="M272.73,193.64a7.1,7.1,0,0,1,3.21,3.5,14,14,0,0,1,.47,7,16,16,0,0,1-1,3.59,34.34,34.34,0,0,1-4.25.3c-1.3.06-2.62.08-3.93.07a46.41,46.41,0,0,1-9.73-1,19.28,19.28,0,0,1-5.08-1.79,4,4,0,0,1-2.09-2.33c-.32-1.33.28-2.67,1.94-3.63a11.43,11.43,0,0,1,9.95-.13c-2.49-1.54-2.53-4.14.2-5.73s7.41-1.46,10.14.06Z" style="fill:url(#Degradado_sin_nombre_64-5)"/></g><polygon points="282.56 65.11 282.59 77.19 265.1 87.28 265.07 75.2 282.56 65.11" style="fill:url(#Degradado_sin_nombre_21-2)"/><path d="M282.56,65.36v-.25l-.47.27-7.57,12-9.23-2.29-.22.12v.49l7.57,1.88L265.1,86.8v.48l.7-.4,7.48-9.15,1.12.27a.19.19,0,0,0,.14,0,.43.43,0,0,0,.15-.15l.62-1,6.64.73.64-.37v-.51L275.87,76Z" style="fill:#0050ff"/><g style="isolation:isolate"><path d="M226.29,42.31a1.13,1.13,0,0,1,1-.11,7.28,7.28,0,0,1,.88,2.48,30.8,30.8,0,0,1-.59,3.54l5-2.79c.09,0,1.67.41,0,2.74.05,0,1,.49-.32,2.48.05,0,1.13.72-.46,2.56.06,0,1.27.95-.72,2.86l-7.45,4.37-.08.05c-.2.12-.75.38-1.12.11l0-7.47a9.12,9.12,0,0,0,.83-1.31l2.09-5.47-.14-2.77A3.34,3.34,0,0,1,226.29,42.31Z" style="fill:url(#Degradado_sin_nombre_34-3)"/><path d="M222.39,52.51v.62l0,7.47v.16a2.2,2.2,0,0,1-.81,1.4l-4.28,2.48c-.05,0-1,.53-.56-.51l0-7.66a.86.86,0,0,1,.42-.95Z" style="fill:url(#Degradado_sin_nombre_64-6)"/></g><path d="M77,168.78c2.83-1.63,5.12-.32,5.13,2.92A11.25,11.25,0,0,1,77,180.53c-2.83,1.63-5.12.32-5.13-2.92A11.23,11.23,0,0,1,77,168.78Z" style="fill:url(#Degradado_sin_nombre_21-3)"/><path d="M77,172c1.28-.74,2.32-.15,2.33,1.33a5.1,5.1,0,0,1-2.31,4c-1.28.74-2.33.14-2.33-1.33A5.1,5.1,0,0,1,77,172Z" style="fill:#0050ff"/><path d="M76.94,164.32c5-2.86,9-.56,9,5.15S82,182.11,77,185s-9,.56-9-5.14S72,167.19,76.94,164.32Zm0,16.21a11.25,11.25,0,0,0,5.09-8.83c0-3.24-2.3-4.55-5.13-2.92a11.23,11.23,0,0,0-5.09,8.83c0,3.24,2.3,4.55,5.13,2.92" style="fill:#0050ff"/><path d="M76.93,160.68c6.72-3.88,12.18-.76,12.2,7s-5.41,17.11-12.12,21-12.18.76-12.2-6.95S70.21,164.56,76.93,160.68ZM77,185c5-2.87,9-9.81,9-15.51s-4-8-9-5.15-9,9.82-9,15.52,4.06,8,9,5.14" style="fill:url(#Degradado_sin_nombre_21-4)"/><path d="M131.66,76.59l-1.18.68a7.68,7.68,0,0,1-.48,1.61l.78.51-2.21,3.85-.8-.49c-.29.33-.57.63-.84.89v1.14l-3.16,1.82V85.47a2.68,2.68,0,0,1-1.15.14l-1,1.61-2.24-1.3.93-1.64a2,2,0,0,1-.4-.92l-1.18.68V80.4l1.14-.65c.09-.36.23-.84.39-1.29l-.88-.43,2.25-3.87.84.45a9,9,0,0,1,1.25-1.32V71.76l3.16-1.82v1.53a5.5,5.5,0,0,1,1-.09l.64-1.2,2.24,1.26-.69,1.17a7.26,7.26,0,0,1,.47,1l1.13-.66Zm-6.45,5.33a6.42,6.42,0,0,0,2.93-5.08c0-1.86-1.32-2.61-2.94-1.68a6.46,6.46,0,0,0-2.94,5.08c0,1.87,1.33,2.62,2.95,1.68" style="fill:url(#Degradado_sin_nombre_64-7)"/><path d="M119,92.5l-1.53.88a9.59,9.59,0,0,1-.62,2.09l1,.66-2.86,5-1-.64c-.38.43-.74.82-1.09,1.16v1.47l-4.09,2.36V104a3.27,3.27,0,0,1-1.49.18L106,106.27l-2.9-1.68,1.2-2.13a2.67,2.67,0,0,1-.51-1.19l-1.53.88V97.44l1.46-.84c.13-.46.3-1.08.51-1.67l-1.13-.56,2.91-5,1.09.58a11.17,11.17,0,0,1,1.62-1.71v-2l4.1-2.37v2a9.07,9.07,0,0,1,1.24-.11l.84-1.55,2.9,1.63-.9,1.51a10.37,10.37,0,0,1,.61,1.29l1.46-.85Zm-8.35,6.91a8.36,8.36,0,0,0,3.79-6.58c0-2.41-1.72-3.39-3.82-2.18a8.43,8.43,0,0,0-3.8,6.58c0,2.42,1.72,3.4,3.83,2.18" style="fill:url(#linear-gradient-14)"/><path d="M298.28,67.35h0a.32.32,0,0,1-.17.29L285.39,75a.33.33,0,0,1-.5-.28h0a.34.34,0,0,1,.17-.29l12.72-7.34A.33.33,0,0,1,298.28,67.35Z" style="fill:url(#Degradado_sin_nombre_21-5)"/><path d="M298.82,71.88h0a.34.34,0,0,1-.17.29l-12.72,7.34a.33.33,0,0,1-.5-.28h0a.32.32,0,0,1,.17-.29l12.72-7.34A.33.33,0,0,1,298.82,71.88Z" style="fill:url(#Degradado_sin_nombre_21-6)"/><path d="M301.73,67.85h0a.34.34,0,0,1-.17.28l-12.72,7.35a.33.33,0,0,1-.5-.28h0a.32.32,0,0,1,.17-.29l12.72-7.35A.34.34,0,0,1,301.73,67.85Z" style="fill:url(#Degradado_sin_nombre_21-7)"/><path d="M138.34,84.19h0a.34.34,0,0,1-.17.29l-12.72,7.35a.34.34,0,0,1-.5-.29h0a.32.32,0,0,1,.17-.28l12.72-7.35A.33.33,0,0,1,138.34,84.19Z" style="fill:url(#Degradado_sin_nombre_21-8)"/><path d="M138.87,88.72h0a.34.34,0,0,1-.16.29L126,96.36a.33.33,0,0,1-.49-.29h0a.33.33,0,0,1,.16-.28l12.73-7.35A.32.32,0,0,1,138.87,88.72Z" style="fill:url(#Degradado_sin_nombre_21-9)"/><path d="M141.78,84.69h0a.34.34,0,0,1-.16.29l-12.73,7.34a.32.32,0,0,1-.49-.28h0a.34.34,0,0,1,.16-.29l12.73-7.34A.32.32,0,0,1,141.78,84.69Z" style="fill:url(#Degradado_sin_nombre_21-10)"/><path d="M48.23,201.1h0a.32.32,0,0,1,.17-.29l12.72-7.34a.33.33,0,0,1,.5.28h0a.32.32,0,0,1-.17.29l-12.72,7.35A.34.34,0,0,1,48.23,201.1Z" style="fill:url(#Degradado_sin_nombre_21-11)"/><path d="M47.69,196.57h0a.34.34,0,0,1,.17-.29l12.73-7.34a.33.33,0,0,1,.49.28h0a.32.32,0,0,1-.17.29l-12.72,7.35A.34.34,0,0,1,47.69,196.57Z" style="fill:url(#Degradado_sin_nombre_21-12)"/><path d="M44.78,200.6h0a.34.34,0,0,1,.17-.28L57.68,193a.33.33,0,0,1,.49.29h0a.32.32,0,0,1-.17.28l-12.72,7.35A.33.33,0,0,1,44.78,200.6Z" style="fill:url(#Degradado_sin_nombre_21-13)"/><line x1="76.97" y1="174.18" x2="55.19" y2="161.61" style="fill:none;stroke-linecap:round;stroke-linejoin:round;stroke-width:2px;stroke:url(#Degradado_sin_nombre_21-14)"/><polyline points="57.2 158.49 58.81 163.64 53.2 164.69" style="fill:none;stroke-linecap:round;stroke-linejoin:round;stroke-width:1.6782800000000002px;stroke:url(#Degradado_sin_nombre_21-15)"/><polyline points="60.59 160.58 62.19 165.72 56.58 166.78" style="fill:none;stroke-linecap:round;stroke-linejoin:round;stroke-width:1.6782800000000002px;stroke:url(#Degradado_sin_nombre_21-16)"/><path d="M268.58,257.51,248,243.58c2.28,6.22.74,9.42.06,10.53-2.61,4.3-9,4.77-18.71,5.49a93.64,93.64,0,0,1-10.88.18l-1.93-1.3-32,16.06L207,289.68l28.94-16.59,2.52,1.7Z" style="fill:url(#Degradado_sin_nombre_77-5)"/><g style="opacity:0.35000000000000003"><path d="M242.6,240.14c7.78,4.49,7.82,11.78.09,16.27s-20.32,4.5-28.1,0-7.83-11.78-.09-16.27S234.81,235.64,242.6,240.14Z" style="fill:url(#Degradado_sin_nombre_27-4)"/></g><g style="isolation:isolate"><path d="M249.18,245.47c0-2.89-1.89-5.78-5.7-8-.45-.26-.93-.5-1.41-.73l-.5-.22c-.29-.13-.57-.26-.87-.38l-.16-.06-.33-.12c-.39-.14-.78-.28-1.18-.4l-.4-.13-.27-.08c-.16-.05-.33-.08-.5-.12q-.59-.17-1.2-.3l-.32-.07-.48-.09-1-.18-.41-.07-.45,0-1-.11-.46,0-.43,0-1-.05c-.16,0-.32,0-.49,0h-1.46c-.17,0-.35,0-.52,0l-.31,0-1.32.09-.52,0-.25,0-.39.05c-.45,0-.89.11-1.33.19l-.34,0-.16,0c-.21,0-.42.09-.62.13-.36.07-.72.14-1.07.23l-.76.2-1,.28-.22.07c-.4.12-.78.26-1.17.41l-.15.06c-.42.17-.84.34-1.25.53l-.35.17c-.44.21-.88.44-1.3.68l-.23.14-.22.13-.35.23-.3.2-.33.23-.29.22-.3.23-.26.23-.28.24a.52.52,0,0,0-.11.1l-.1.09-.44.44-.14.15c-.18.19-.35.39-.5.58l0,0-.1.14-.28.38-.13.2c-.07.12-.15.23-.21.35l-.06.09-.07.14a2.7,2.7,0,0,0-.15.29l-.12.25-.12.29L211,243a.56.56,0,0,1,0,.12l-.09.28c0,.09,0,.17-.07.26a2.86,2.86,0,0,0-.07.28c0,.05,0,.1,0,.15a.41.41,0,0,0,0,.11,2.5,2.5,0,0,0,0,.29l0,.25c0,.1,0,.2,0,.29s0,.12,0,.17v5.9c0-.11,0-.22,0-.34s0-.19,0-.29l0-.25c0-.1,0-.2,0-.3a2.21,2.21,0,0,1,.05-.25c0-.09.05-.19.07-.28a2.58,2.58,0,0,1,.08-.26c0-.09.06-.19.09-.28l.09-.25a2.55,2.55,0,0,1,.13-.29,2.72,2.72,0,0,1,.11-.25l.15-.29.13-.23.21-.35.14-.2a3.37,3.37,0,0,1,.28-.38.91.91,0,0,1,.11-.16c.16-.2.33-.39.5-.58l.15-.15.43-.44.21-.19.28-.24.27-.23c.09-.08.19-.15.3-.23l.28-.22.33-.23a3.28,3.28,0,0,1,.31-.2l.35-.23.44-.27c.42-.24.86-.47,1.31-.68l.35-.17c.4-.19.82-.36,1.25-.53l.15-.06q.67-.25,1.38-.48l1-.28.77-.2c.35-.09.7-.16,1.06-.23l.79-.16.33-.05c.44-.08.89-.14,1.34-.19l.39-.05c.25,0,.51,0,.77-.06.43,0,.87-.07,1.31-.09l.84,0h1.06c.3,0,.59,0,.89,0l1,0,.89.07,1,.11.87.12,1,.18.8.16c.41.09.81.19,1.21.3l.76.2.4.13c.4.12.79.26,1.18.4l.34.12,1,.44.49.22c.49.23,1,.47,1.42.73a14.62,14.62,0,0,1,3.47,2.73,9.66,9.66,0,0,1,1.43,2c.09.18.17.35.24.53a7.08,7.08,0,0,1,.36,1.07c0,.18.08.36.11.54a6.54,6.54,0,0,1,.08,1.08h0Z" style="fill:url(#Degradado_sin_nombre_64-8)"/><path d="M250.26,245.47c0,.12,0,.24,0,.36s0,.21,0,.31l0,.27c0,.1,0,.2-.05.3l-.06.27c0,.1,0,.2-.07.3a2.76,2.76,0,0,1-.08.27l-.09.3a2.77,2.77,0,0,0-.1.26l-.13.31-.12.26a3,3,0,0,0-.16.31l-.14.24c-.07.13-.15.25-.23.37l-.14.21c-.09.14-.19.27-.29.41l-.12.16c-.17.21-.34.41-.53.62l-.15.16-.46.45-.22.21-.3.25-.28.24-.32.25-.3.22-.34.25-.33.22-.37.23-.47.29c-.44.26-.9.49-1.37.72l-.38.18c-.43.19-.86.38-1.31.56l-.17.06c-.47.19-1,.35-1.46.5q-.51.17-1.05.3l-.8.22c-.37.09-.75.16-1.12.24l-.83.17-.36,0c-.46.08-.93.15-1.41.2l-.41,0c-.55.06-1.1.11-1.66.14l-.31,0-1.11,0c-.38,0-.75,0-1.13,0l-.93,0c-.35,0-.7,0-1-.06l-.94-.08-1-.11-.91-.13-1.08-.19-1.12-.22-.27-.06c-.52-.13-1-.27-1.54-.42l-.42-.13c-.42-.13-.84-.27-1.24-.42l-.36-.13-1.08-.46-.53-.23c-.51-.25-1-.5-1.49-.78-4-2.32-6-5.37-6-8.42v5.73c0,3,2,6.1,6,8.42.48.27,1,.53,1.49.78l.53.23c.3.13.6.27.92.39l.16.07.36.13c.41.15.82.29,1.24.42l.43.13.28.09c.41.12.83.22,1.26.32l.27.07.6.13.51.09,1.08.19.44.07c.15,0,.32,0,.48.06l1,.11.48.06.46,0,1,.06.52,0h2.1l.55,0,.32,0c.46,0,.93-.06,1.4-.11l.25,0,.42-.05c.47-.05.94-.12,1.41-.2l.35-.05.17,0,.66-.14c.37-.08.75-.15,1.12-.24l.81-.22q.53-.13,1-.3l.23-.06c.41-.14.82-.28,1.23-.44l.16-.06c.45-.18.89-.37,1.32-.56l.37-.18q.7-.35,1.38-.72l.24-.15.23-.14.37-.23.32-.22.34-.24.31-.23.32-.25.28-.24.29-.25.12-.1.1-.11.46-.45.15-.16c.19-.21.37-.41.53-.62l0,0,.1-.14c.11-.14.21-.27.3-.41l.14-.21c.08-.12.15-.25.22-.37l.06-.09.08-.15.16-.31.12-.26.13-.31.06-.13a.5.5,0,0,1,0-.13c0-.1.07-.2.1-.3A2.76,2.76,0,0,1,250,253c0-.1.05-.2.07-.3s0-.1,0-.16,0-.07,0-.11,0-.2,0-.3a2.51,2.51,0,0,0,0-.27c0-.1,0-.21,0-.31s0-.12,0-.18v-.18h0Z" style="fill:url(#linear-gradient-15)"/><path d="M244.24,237.05c8,4.61,8,12.11.1,16.72s-20.88,4.61-28.86,0-8-12.11-.1-16.72S236.26,232.44,244.24,237.05Zm-28,16.28c7.56,4.36,19.82,4.36,27.34,0s7.46-11.47-.1-15.84-19.82-4.36-27.33,0-7.47,11.47.09,15.84" style="fill:#0050ff"/></g><g style="isolation:isolate"><path d="M217.9,258.46s0-.06,0-.1a.38.38,0,0,0,0-.1.34.34,0,0,0,0-.1s0-.07,0-.1h0s0-.07,0-.1,0-.07,0-.11l0-.11,0-.11a.24.24,0,0,0,0-.08h0v0l0-.1s0-.07,0-.11a549473562768.35,549473562768.35,0,0,0-.08-.2l0-.08h0v0l0-.1a.54.54,0,0,0-.05-.11l-.06-.13-.08-.13v0l0,0c0-.08-.1-.16-.15-.24s-.09-.13-.13-.19l-.09-.12-.08-.1-.08-.09-.08-.09,0,0h0l-.06-.06-.09-.09-.09-.08-.09-.08-.05,0h0l0,0-.09-.07-.09-.06-.09-.06-.09-.06h0l-.07,0-.08,0-.09,0-.08,0-.08,0h0l-.06,0-.08,0-.09,0h-.39l-.12,0h0l-.14,0-.17.08L196.82,265a1.15,1.15,0,0,1,.31-.11h0a1,1,0,0,1,.35,0h0a2.08,2.08,0,0,1,.39.08h0a2.67,2.67,0,0,1,.42.2,3.71,3.71,0,0,1,.41.28h0a3.24,3.24,0,0,1,.38.36h0a4.87,4.87,0,0,1,.35.42h0a3.64,3.64,0,0,1,.3.46v0c.09.16.18.32.25.48h0a5.27,5.27,0,0,1,.19.51h0c0,.18.09.35.12.52h0a2.89,2.89,0,0,1,0,.5,2.09,2.09,0,0,1,0,.45h0a1.79,1.79,0,0,1-.12.37h0a1.43,1.43,0,0,1-.16.24l-.06.07a1.06,1.06,0,0,1-.23.19h0l17.52-10.19a.83.83,0,0,0,.23-.19l.06-.07.07-.09a1,1,0,0,0,.08-.14h0a1,1,0,0,0,0-.1s0-.07,0-.11a.36.36,0,0,0,0-.11.06.06,0,0,0,0,0h0V259s0-.06,0-.1,0-.06,0-.1a.38.38,0,0,1,0-.1v-.1h0Z" style="fill:url(#Degradado_sin_nombre_64-9)"/><path d="M198.3,265.16a4.56,4.56,0,0,1,2.07,3.58c0,1.32-.94,1.85-2.08,1.19a4.54,4.54,0,0,1-2.07-3.58C196.22,265,197.15,264.5,198.3,265.16Z" style="fill:#4e4e4e"/></g><g style="isolation:isolate"><path d="M210.6,264.38v-.17a.17.17,0,0,1,0-.07v-.09a.88.88,0,0,0,0-.17.88.88,0,0,0,0-.17h0l0-.16a1.16,1.16,0,0,0,0-.18v-.1s0-.05,0-.08a1.21,1.21,0,0,0-.05-.18l0-.13v-.05c0-.06,0-.12-.05-.17l-.06-.18,0,0v0a.42.42,0,0,0,0-.1l-.06-.17A.61.61,0,0,1,210,262v0l-.08-.16a1.42,1.42,0,0,0-.08-.18l0,0,0,0-.07-.14-.1-.17a.41.41,0,0,0-.05-.09l0,0a1.19,1.19,0,0,0-.09-.15l-.14-.22,0,0-.21-.3h0l-.15-.2a1.83,1.83,0,0,1-.13-.16h0l-.13-.15-.14-.15,0,0,0,0-.1-.1-.14-.14,0,0,0,0-.07-.07-.15-.13-.07,0,0,0,0,0-.15-.12-.11-.07,0,0h0l-.14-.1-.15-.08,0,0-.11-.06-.14-.08-.09,0h0l-.14-.06-.14-.05h0l-.09,0-.14,0-.07,0h-.07l-.15,0h-.49a.58.58,0,0,0-.19,0h0l-.19.05h0a1.51,1.51,0,0,0-.26.12l-19.19,11.15.26-.12.21-.06h0a1.09,1.09,0,0,1,.26,0h.34l.28.05h0c.1,0,.2,0,.3.09h0l.32.12,0,0a2.7,2.7,0,0,1,.34.17l.34.22h0l.31.23,0,0a3.47,3.47,0,0,1,.29.25l0,0,.28.28,0,0c.1.1.19.21.29.32h0c.09.11.19.23.27.35h0l.23.34.14.22a1.74,1.74,0,0,1,.11.18l.05.09c.06.11.12.21.17.32l0,0c.07.13.13.26.19.4v0c.06.13.11.26.16.39v0c.05.14.1.27.14.41v0c0,.13.07.26.1.39v0c0,.13,0,.27.08.4h0c0,.13,0,.26.05.4v0c0,.13,0,.26,0,.39s0,.25,0,.37v0a2.91,2.91,0,0,1,0,.31v0c0,.1-.05.19-.07.28l0,.06a2.44,2.44,0,0,1-.1.24v0a2,2,0,0,1-.13.25,1.68,1.68,0,0,1-.24.29l-.06.06a1.58,1.58,0,0,1-.29.22l19.19-11.15a1.58,1.58,0,0,0,.29-.22l.06-.06a2.17,2.17,0,0,0,.24-.29h0a1.71,1.71,0,0,0,.13-.23h0l0,0,.06-.15,0-.09,0-.05s0,0,0,0,0-.12.05-.18,0,0,0-.06v0s0,0,0-.06a1,1,0,0,0,0-.16.34.34,0,0,0,0-.1v-.07a.81.81,0,0,0,0-.16v-.16h0S210.6,264.43,210.6,264.38Z" style="fill:url(#linear-gradient-16)"/><path d="M188,269.82a7.44,7.44,0,0,1,3.38,5.86c0,2.16-1.53,3-3.4,1.94a7.47,7.47,0,0,1-3.39-5.86C184.63,269.6,186.15,268.74,188,269.82Z" style="fill:url(#linear-gradient-17)"/></g><polygon points="307.88 208.14 329.4 221.84 311.8 234.47 289.34 219.33 307.88 208.14" style="fill:url(#Degradado_sin_nombre_77-6)"/><g style="isolation:isolate"><path d="M308.27,211.35c0,1.55,0,3.11,0,4.66a2.5,2.5,0,0,1-1.45,2,7.79,7.79,0,0,1-7.08,0,2.5,2.5,0,0,1-1.48-2.06v-4.66a2.51,2.51,0,0,0,1.48,2.06,7.79,7.79,0,0,0,7.08,0A2.46,2.46,0,0,0,308.27,211.35Z" style="fill:url(#Degradado_sin_nombre_64-10)"/><path d="M306.79,209.28c2,1.13,2,3,0,4.1a7.79,7.79,0,0,1-7.08,0c-2-1.13-2-3,0-4.1A7.8,7.8,0,0,1,306.79,209.28Z" style="fill:#fabdb2"/><path d="M306.1,209.69c1.57.9,1.58,2.38,0,3.29a6.25,6.25,0,0,1-5.68,0c-1.58-.91-1.59-2.38,0-3.29A6.25,6.25,0,0,1,306.1,209.69Z" style="fill:#5e3fd1"/></g><path d="M307.43,174.34c.05.5.1,1,.16,1.33,1.11,6.17,2.87,12.22,3.72,18.45.71,5.19,2,15.25-3.14,17.54-2.26,1-8.56.83-9.92-.38-5.79-5.2-3.36-15.35-1.77-21.7.65-2.62,1.34-5.24,2.06-7.84.77-2.77,2.08-12.41,6-12.41C306.88,169.33,307.21,172.22,307.43,174.34Z" style="fill:url(#linear-gradient-18)"/><g style="opacity:0.44;mix-blend-mode:multiply"><polygon points="303.35 212.95 302.82 212.97 302.83 213.31 303.62 213.3 303.61 212.96 303.35 212.95" style="fill:url(#linear-gradient-19)"/><path d="M303.61,212.94h0c0-2.76,0-6.11,0-9.63l3.85-5-.62-.49L303.59,202c0-3.44.06-7,.1-10.31l0,0,2-3-.66-.43-1.37,2c0-1.56.05-3,.07-4.42l.11.06,2.15-4-.7-.37-1.53,2.87c0-1,0-2,.05-2.83l.05,0-.05-.11c.05-2.59.08-4.23.08-4.29l-.79,0c0,.05,0,1,0,2.66l-.77-1.67-.72.33,1.45,3.16c-.05,3-.12,7.27-.18,11.86l-3.57-5.95-.68.4,4.23,7.06q0,1.77,0,3.57l-3-4.19-.65.45,3.43,4.86.17-.11c0,3.18,0,6.32,0,9.16l-5.52-6.67-.61.51,6.13,7.41c0,1,0,2,0,2.92h.79Z" style="fill:url(#linear-gradient-20)"/></g><g style="isolation:isolate"><path d="M296,214.7c0,1.19,0,2.38,0,3.57a1.9,1.9,0,0,1-1.11,1.56,6,6,0,0,1-5.43,0,1.94,1.94,0,0,1-1.13-1.59v-3.57a1.94,1.94,0,0,0,1.13,1.59,6,6,0,0,0,5.43,0A1.9,1.9,0,0,0,296,214.7Z" style="fill:url(#linear-gradient-21)"/><path d="M294.9,213.12c1.5.86,1.51,2.27,0,3.14a6,6,0,0,1-5.43,0c-1.5-.87-1.51-2.28,0-3.14A6,6,0,0,1,294.9,213.12Z" style="fill:#c2d5ff"/><path d="M294.36,213.42c1.21.7,1.22,1.83,0,2.53a4.8,4.8,0,0,1-4.35,0,1.33,1.33,0,0,1,0-2.52A4.83,4.83,0,0,1,294.36,213.42Z" style="fill:#e06c57"/></g><path d="M295.38,186.36c0,.38.08.73.13,1,.85,4.73,2.19,9.36,2.85,14.13.54,4,1.53,11.69-2.41,13.44-1.73.77-6.56.64-7.59-.3-4.44-4-2.58-11.75-1.36-16.62.5-2,1-4,1.58-6s1.59-9.5,4.6-9.5C295,182.52,295.21,184.73,295.38,186.36Z" style="fill:url(#Degradado_sin_nombre_64-11)"/><path d="M292.16,215.92v.28" style="fill:none;stroke:#e06c57;stroke-linecap:round;stroke-linejoin:round"/><path d="M292.41,188.54s-.39,18-.25,27.38" style="fill:none;stroke:#e06c57;stroke-linecap:round;stroke-linejoin:round"/><line x1="292.41" y1="195.11" x2="294.05" y2="192.05" style="fill:none;stroke:#e06c57;stroke-linecap:round;stroke-linejoin:round"/><line x1="292.19" y1="202.12" x2="288.91" y2="196.65" style="fill:none;stroke:#e06c57;stroke-linecap:round;stroke-linejoin:round"/><line x1="292.19" y1="208.37" x2="295.15" y2="204.53" style="fill:none;stroke:#e06c57;stroke-linecap:round;stroke-linejoin:round"/><line x1="292.08" y1="213.51" x2="287.37" y2="207.82" style="fill:none;stroke:#e06c57;stroke-linecap:round;stroke-linejoin:round"/><line x1="292.3" y1="199.49" x2="293.83" y2="197.19" style="fill:none;stroke:#e06c57;stroke-linecap:round;stroke-linejoin:round"/><line x1="292.41" y1="192.05" x2="291.21" y2="189.42" style="fill:none;stroke:#e06c57;stroke-linecap:round;stroke-linejoin:round"/><line x1="291.97" y1="205.63" x2="289.34" y2="201.9" style="fill:none;stroke:#e06c57;stroke-linecap:round;stroke-linejoin:round"/><polygon points="165.34 255.4 185.96 269.33 155.82 286.61 133.37 271.47 165.34 255.4" style="fill:url(#Degradado_sin_nombre_77-7)"/><g style="isolation:isolate"><polygon points="149.45 258.53 149.43 264.57 135.18 256.41 135.2 250.37 149.45 258.53" style="fill:url(#linear-gradient-22)"/><polygon points="163.68 250.43 163.67 256.47 149.43 264.58 149.45 258.54 163.68 250.43" style="fill:url(#linear-gradient-23)"/><path d="M135.2,250.37c7.89-4.5,20.64-4.43,28.48.06l-14.23,8.19Z" style="fill:url(#linear-gradient-24)"/><polygon points="169.91 259.27 169.89 265.31 149.42 264.76 149.43 258.73 169.91 259.27" style="fill:url(#Degradado_sin_nombre_33-2)"/><path d="M164,250.35c4.22,2.46,6.2,5.68,6,8.85v.07l-20.48-.54.46-.27Z" style="fill:url(#Degradado_sin_nombre_33-3)"/><path d="M129.5,264.52l0-6c0,3,1.95,6,5.92,8.34,8,4.59,20.76,4.61,28.66,0,3.69-2.14,5.71-4.94,5.83-7.68v6c-.13,2.74-2.15,5.54-5.84,7.68-7.89,4.59-20.7,4.57-28.65,0C131.46,270.57,129.49,267.54,129.5,264.52Z" style="fill:url(#Degradado_sin_nombre_64-12)"/><path d="M169.93,259.16c-.12,2.74-2.14,5.54-5.83,7.68-7.9,4.59-20.7,4.57-28.66,0s-7.84-12.12,0-16.67l14,8.47Z" style="fill:url(#Degradado_sin_nombre_64-13)"/></g><path d="M155.17,245.41a.9.9,0,1,1-.89-.89A.89.89,0,0,1,155.17,245.41Z" style="fill:url(#linear-gradient-25)"/><path d="M158.36,258.89c0,1.93-3.65,3.49-8.15,3.49s-8.14-1.56-8.14-3.49,3.64-3.49,8.14-3.49S158.36,257,158.36,258.89Z" style="fill:#0050ff"/><path d="M142.61,216.84v42.49a1,1,0,0,0-.13.46c0,1.43,3.46,2.59,7.73,2.59s7.73-1.16,7.73-2.59v-43Z" style="fill:url(#Degradado_sin_nombre_47)"/><path d="M146.41,227.75a.89.89,0,1,1-.89-.89A.89.89,0,0,1,146.41,227.75Z" style="fill:url(#linear-gradient-26)"/><path d="M152.27,232.7a.89.89,0,1,1-.89-.89A.89.89,0,0,1,152.27,232.7Z" style="fill:url(#linear-gradient-27)"/><path d="M146.41,240.5a.89.89,0,1,1-.89-.89A.89.89,0,0,1,146.41,240.5Z" style="fill:url(#linear-gradient-28)"/><circle cx="148.85" cy="254.15" r="0.89" style="fill:url(#linear-gradient-29)"/><circle cx="155.17" cy="257.51" r="0.89" style="fill:url(#linear-gradient-30)"/><polygon points="169.44 227.38 183.65 236.21 172.98 243.01 157.83 232.74 169.44 227.38" style="fill:url(#Degradado_sin_nombre_77-8)"/><g style="isolation:isolate"><path d="M170.31,224.28c0,2.15,0,4.3,0,6.45a3.41,3.41,0,0,1-2,2.81,10.76,10.76,0,0,1-9.79,0,3.47,3.47,0,0,1-2.05-2.85l0-6.45a3.46,3.46,0,0,0,2,2.85,10.79,10.79,0,0,0,9.79,0A3.43,3.43,0,0,0,170.31,224.28Z" style="fill:url(#Degradado_sin_nombre_64-14)"/><path d="M168.26,221.42c2.71,1.57,2.73,4.11,0,5.68a10.79,10.79,0,0,1-9.79,0c-2.72-1.56-2.73-4.1,0-5.67A10.82,10.82,0,0,1,168.26,221.42Z" style="fill:#fabdb2"/><path d="M167.3,222c2.18,1.26,2.19,3.3,0,4.56a8.68,8.68,0,0,1-7.86,0c-2.18-1.25-2.19-3.29,0-4.55A8.64,8.64,0,0,1,167.3,222Z" style="fill:#5e3fd1"/></g><path d="M169.14,173.1c.07.69.14,1.32.23,1.83,1.54,8.54,4,16.91,5.14,25.52,1,7.18,2.78,21.1-4.34,24.26-3.14,1.4-11.85,1.16-13.72-.52-8-7.2-4.66-21.24-2.46-30q1.37-5.44,2.86-10.84c1.06-3.83,2.87-17.16,8.31-17.16C168.38,166.17,168.83,170.16,169.14,173.1Z" style="fill:url(#linear-gradient-31)"/><path d="M163.69,213.09l5.34-6.92a.4.4,0,0,0-.63-.49l-4.72,6.13c0-4.9.08-10,.14-14.7,0,0,.06,0,.08-.07l2.77-4.15a.4.4,0,1,0-.66-.44l-2.17,3.26c0-2.27.07-4.44.1-6.45a.35.35,0,0,0,.18-.16l3-5.54a.4.4,0,0,0-.7-.37L164,187.71c0-1.47.05-2.83.07-4.05a.39.39,0,0,0,.09-.45l-.08-.18c.07-3.61.12-5.89.12-6a.4.4,0,0,0-.39-.4.39.39,0,0,0-.4.39c0,.07,0,1.68-.09,4.33L162,178.46a.4.4,0,0,0-.53-.19.38.38,0,0,0-.19.52l2,4.41c-.08,4.29-.19,10.4-.27,17l-5.21-8.69a.39.39,0,0,0-.54-.14.41.41,0,0,0-.14.55l5.88,9.79c0,1.8,0,3.63-.06,5.45L158.56,201a.41.41,0,0,0-.56-.1.4.4,0,0,0-.09.55l4.75,6.73a.37.37,0,0,0,.25.15c0,4.48,0,8.9,0,12.88l-7.9-9.55a.39.39,0,1,0-.61.5l8.5,10.29h0c0,1.44,0,2.82,0,4.1v.5a.4.4,0,0,0,.4.39h0a.4.4,0,0,0,.39-.41v-.49c-.05-3.84-.06-8.49,0-13.39Z" style="fill:url(#linear-gradient-32)"/><polygon points="234.2 219.44 247.43 228.07 235.67 235.55 223.51 226.5 227.52 218.59 234.2 219.44" style="fill:url(#Degradado_sin_nombre_77-9)"/><polygon points="236.56 185.49 233.79 188.12 234.58 190.76 237.09 186.28 236.56 185.49" style="fill:#fabcaf"/><path d="M238.2,173.84c-.84.9-1.85,1.26-2.48,2.56.39.95,1.07,2.73,1.44,3.61,0,0-1.78,5.74-1.46,5.94l1,2c1.67-.9,4.57-5.18,3.85-8.9A14.86,14.86,0,0,0,238.2,173.84Z" style="fill:#0050ff"/><path d="M207.62,167.4c-.09-.51-.54-1.58-.79-2.37-.33-1-.81-1.81-1.07-1.73s-.21,1,.12,2c-1.37-1-2.94-1.45-3.44-.74s0,2.16,1.36,3.13a11.17,11.17,0,0,0,2.37,1c.87.3.4,2,1.61,0C208.31,167.86,208,167.84,207.62,167.4Z" style="fill:#fbc9be"/><path d="M227.51,226.26c0,.68-.15,1.22-.95,1.42a6.88,6.88,0,0,1-1.78,0l-6.47,0c-.65-.13-1.5-.71-1.39-1.5s7-1.83,7-1.83a5.2,5.2,0,0,1,1-.16C227.92,224.19,227.51,225.25,227.51,226.26Z" style="fill:#223675"/><path d="M234.8,223c-.53.43-1.41.12-2.38-.51-.6-.39-4.79-3.84-5-4-.35-.48-.25-2.94,1-2.27s3.43,2.06,4.69,2.88a10.18,10.18,0,0,1,1,.71c.76.67,1.63,1.59,1,2.67A1.71,1.71,0,0,1,234.8,223Z" style="fill:#223675"/><path d="M232.68,167.63l.32,0Z" style="fill:#71207d"/><path d="M224.52,222.48l-.28,2.1s.69,1.62,2.76.59l.21-4Z" style="fill:#fabcaf"/><path d="M234.5,218.48l.41,2.32s-1.65,1.71-2.84-1.19l-.21-3.51Z" style="fill:#fabcaf"/><path d="M223.31,191.62s.5,21.65,1.14,31.27c0,0-.36.41,2.69.41,0,0,1.94-21.22,2.1-24.43,0,0,.4-5.41,1.45-2.37.42,1.18,1.09,19.68,1.27,21.67a2.15,2.15,0,0,0,2.62,1.27s.63-11.66.69-22c0-3.65,0-7.13-.19-9.86Z" style="fill:#fa9380"/><path d="M236.76,188.67a.8.8,0,0,1-.77-.6,2.41,2.41,0,0,0-.85-1.22.79.79,0,0,1-.22-1.09.78.78,0,0,1,1.08-.23,3.85,3.85,0,0,1,1.53,2.15.8.8,0,0,1-.57,1Z" style="fill:#223675"/><path d="M231.62,168.43c-2.48,0-.3,1-5.21,1.48-1.84.17-11.86,1.19-11.86,1.19a32,32,0,0,1-5.58-2.86c-.85.86-1.42.55-1.53,1.78,1.42,1.39,4.21,4.75,5.47,5.69,0,0,0,1.09,10.46-.44,0,0,0,.15,0,.4a110.65,110.65,0,0,0,.1,16.74s7.39,2.5,11.61-3c0,0,.19-5.08,0-14a6.19,6.19,0,0,1,.92,1.71,12.64,12.64,0,0,1,2.2-3.23C235.89,170.39,232.67,167.65,231.62,168.43Z" style="fill:#0050ff"/><path d="M233.77,161.51a4.7,4.7,0,1,0-9.38,0c0,2.76-.07,5.7,2.51,5.7a4.66,4.66,0,0,0,.95-.12l-.18,1.92s1.57,2.1,4-.58v-3.25C232.41,164.14,233.77,162.81,233.77,161.51Z" style="fill:#fbc9be"/><path d="M224.14,223.1c.25.17.94,1.53.12,2.19s-1.65,1-1.84.76.32-1,1.15-1.63S223.52,222.68,224.14,223.1Z" style="fill:#223675"/><path d="M231.08,217.16c.3.08,1.36,1.18.76,2.06s-1.29,1.44-1.54,1.26,0-1,.63-1.89S230.37,216.94,231.08,217.16Z" style="fill:#223675"/><path d="M231.54,156.43a8,8,0,0,0-5,.28c-2.86.87-2.93-2.35-3.35,0-.24,1.38,1.24,3,2.22,3.48.74.38,1.72.56,2.19,1.32a32.42,32.42,0,0,0,.19,3.81c.77-2.38.3-2.86.3-3,.5-.49,1.05-.51,1.3.47s.1,2.26.35,3.35c.07.3.24,1,.61,1.06.68.18,1.52-1,1.84-1.42a9.92,9.92,0,0,0,1.81-4,6.61,6.61,0,0,0,.11-1.65A4.21,4.21,0,0,0,231.54,156.43Z" style="fill:url(#linear-gradient-33)"/><path d="M228.43,170.61a3.45,3.45,0,0,1-1.54-.32.79.79,0,0,1-.32-1.07.78.78,0,0,1,1.05-.33c.08,0,1.62,1,3.6-.74.33-.29.57-.47.86-.14s0,.7-.3,1C230.33,170.27,229.37,170.61,228.43,170.61Z" style="fill:#223675"/><path d="M207.29,170.62l-.17,0a.8.8,0,0,1-.61-.94,3.2,3.2,0,0,1,1.58-2,.79.79,0,0,1,.77,1.39,1.61,1.61,0,0,0-.8,1A.8.8,0,0,1,207.29,170.62Z" style="fill:#223675"/><polygon points="215.6 196.75 228.84 205.37 203.66 223.58 191.51 214.54 195.52 206.63 215.6 196.75" style="fill:url(#Degradado_sin_nombre_77-10)"/><g style="isolation:isolate"><path d="M183.39,192.6c0-.68,0-1.36,0-2a.72.72,0,0,0,0,.19v2S183.39,192.71,183.39,192.6Z" style="fill:#c2d5ff"/><path d="M210.8,190.49c0,.68,0,1.35,0,2a2.18,2.18,0,0,1-.09.6v-2A2.3,2.3,0,0,0,210.8,190.49Z" style="fill:#c8b3ff"/><path d="M213.77,193.09v2a2.32,2.32,0,0,1,0,.44v-2A2.32,2.32,0,0,0,213.77,193.09Z" style="fill:#c8b3ff"/><path d="M216.8,195.16v2a2,2,0,0,1-.3.94v-2A1.89,1.89,0,0,0,216.8,195.16Z" style="fill:#c8b3ff"/><polygon points="187.98 193.32 183.41 190.76 183.4 192.79 187.97 195.35 190.69 201.55 190.69 199.52 187.98 193.32" style="fill:#cdc6e3"/><path d="M190.71,199.73v2a1.48,1.48,0,0,0,0-.21v-2A1.49,1.49,0,0,1,190.71,199.73Z" style="fill:#c2d5ff"/><path d="M219.05,199.09l-13.69,8.1a7.58,7.58,0,0,1-3.39,1v2a7.52,7.52,0,0,0,3.39-1L219,201.13a2.24,2.24,0,0,0,.66-1.35v-2A2.2,2.2,0,0,1,219.05,199.09Z" style="fill:#cdc6e3"/><path d="M210,189.11a1.6,1.6,0,0,1,.76,2,4.72,4.72,0,0,1,2.16.5,1.71,1.71,0,0,1,.86,1.94,5.54,5.54,0,0,1,2.35.55,1.29,1.29,0,0,1,.42,2,6.57,6.57,0,0,1,2.49.61c.74.43,1.11,1.16.06,2.38l-13.69,8.1a7.58,7.58,0,0,1-3.39,1l-11.81-6.82a3.35,3.35,0,0,0,.53-1.84l-2.71-6.2-4.57-2.56c0-.11-.36-2.16,3.61-2.37a35.1,35.1,0,0,1,6.26,1.8,32.11,32.11,0,0,1,4,3.55l9.1-5.15A7.19,7.19,0,0,1,210,189.11Z" style="fill:#ebe3ff"/><polygon points="201.97 208.18 201.96 210.21 190.15 203.4 190.16 201.37 201.97 208.18" style="fill:#c2d5ff"/><path d="M203.06,210.05l-7.72,4.49a2.58,2.58,0,0,1-2.12.05,1.36,1.36,0,0,1-.31-.24l-12.11-7-.22-.11c-.18-.1-.39-.26-.38-.47,0,.68,0,1.36,0,2,0,.2.21.36.38.46l.22.11,12.12,7a1.48,1.48,0,0,0,.31.25,2.59,2.59,0,0,0,2.11-.06l7.73-4.49c.29-.17.4-.35.4-.53v-2C203.46,209.69,203.36,209.88,203.06,210.05Z" style="fill:url(#linear-gradient-34)"/><path d="M202.63,208.56c.27.16,1.44.9.43,1.49l-7.72,4.49a2.58,2.58,0,0,1-2.12.05,1.36,1.36,0,0,1-.31-.24l-12.11-7-.22-.11c-.3-.17-.7-.53,0-.95l9-5.24.53.3L202,208.18l.6.35Z" style="fill:url(#linear-gradient-35)"/></g><polygon points="260.65 171.57 276.11 181.88 265.44 188.69 250.29 178.41 260.65 171.57" style="fill:url(#Degradado_sin_nombre_77-11)"/><g style="isolation:isolate"><path d="M260,172.58c0,1.55,0,3.11,0,4.66a2.5,2.5,0,0,1-1.46,2,7.82,7.82,0,0,1-7.08,0,2.5,2.5,0,0,1-1.47-2.07v-4.66a2.51,2.51,0,0,0,1.48,2.06,7.79,7.79,0,0,0,7.08,0A2.48,2.48,0,0,0,260,172.58Z" style="fill:url(#linear-gradient-36)"/><path d="M258.53,170.51c2,1.14,2,3,0,4.1a7.79,7.79,0,0,1-7.08,0c-2-1.13-2-3,0-4.1A7.82,7.82,0,0,1,258.53,170.51Z" style="fill:#c2d5ff"/><path d="M257.83,170.92c1.58.91,1.59,2.38,0,3.29a6.27,6.27,0,0,1-5.69,0c-1.57-.91-1.58-2.38,0-3.29A6.25,6.25,0,0,1,257.83,170.92Z" style="fill:#e06c57"/></g><path d="M259.17,135.57c.05.5.1,1,.16,1.33,1.11,6.18,2.86,12.22,3.72,18.45.71,5.19,2,15.26-3.14,17.54-2.27,1-8.57.84-9.92-.38-5.8-5.2-3.37-15.35-1.78-21.7.66-2.62,1.34-5.24,2.07-7.84.76-2.76,2.07-12.41,6-12.41C258.62,130.56,258.94,133.45,259.17,135.57Z" style="fill:url(#Degradado_sin_nombre_21-17)"/><path d="M255,174.18v.36" style="fill:none;stroke:#e06c57;stroke-linecap:round;stroke-linejoin:round"/><path d="M255.28,138.43s-.5,23.46-.32,35.75" style="fill:none;stroke:#e06c57;stroke-linecap:round;stroke-linejoin:round"/><line x1="255.28" y1="147.01" x2="257.43" y2="143" style="fill:none;stroke:#e06c57;stroke-linecap:round;stroke-linejoin:round"/><line x1="255" y1="156.16" x2="250.71" y2="149.01" style="fill:none;stroke:#e06c57;stroke-linecap:round;stroke-linejoin:round"/><line x1="255" y1="164.31" x2="258.86" y2="159.31" style="fill:none;stroke:#e06c57;stroke-linecap:round;stroke-linejoin:round"/><line x1="254.85" y1="171.03" x2="248.71" y2="163.6" style="fill:none;stroke:#e06c57;stroke-linecap:round;stroke-linejoin:round"/><line x1="255.14" y1="152.73" x2="257.14" y2="149.73" style="fill:none;stroke:#e06c57;stroke-linecap:round;stroke-linejoin:round"/><line x1="255.28" y1="143" x2="253.71" y2="139.57" style="fill:none;stroke:#e06c57;stroke-linecap:round;stroke-linejoin:round"/><line x1="254.71" y1="160.74" x2="251.28" y2="155.88" style="fill:none;stroke:#e06c57;stroke-linecap:round;stroke-linejoin:round"/><ellipse cx="331.4" cy="206.78" rx="58.46" ry="13.11" style="opacity:0.36;fill:url(#Degradado_sin_nombre_78)"/><ellipse cx="76.97" cy="209" rx="66.82" ry="14.98" style="opacity:0.36;fill:url(#Degradado_sin_nombre_78-2)"/><path d="M266,130.91a59.48,59.48,0,0,0,1.81-9L267,105.51a5.86,5.86,0,0,1,2.32-4.9L310.51,76c1.37-.82,2.54,0,2.63,1.94l.78,17.47a5.89,5.89,0,0,1-2.32,4.9l-39.5,23.6a24.2,24.2,0,0,1-5.39,7.89C266.17,132.33,265.7,131.75,266,130.91Z" style="fill:url(#Degradado_sin_nombre_64-15)"/><path d="M119.67,45.72,85.15,66.35c-4.58,2.74-8.07,10.09-7.78,16.43h0a10.74,10.74,0,0,0,1.19,4.76L76.16,96c-.6,2.11.74,3.28,2,1.75l6.27-7.63a7.36,7.36,0,0,0,1.74-.78l34.52-20.62c4.58-2.74,8.06-10.1,7.78-16.43h0C128.19,45.91,124.25,43,119.67,45.72Z" style="fill:url(#linear-gradient-37)"/><path d="M95.38,76.15a4.67,4.67,0,0,1-1.17.18l-.06-1.45.07,0a2.06,2.06,0,0,0,1.14.17,3.12,3.12,0,0,0,1.22-.42,3.66,3.66,0,0,0,1.23-1.13,2.31,2.31,0,0,0,.38-1.33.92.92,0,0,0-.26-.71.82.82,0,0,0-.73-.07l-.64.19c-.29.1-.56.18-.8.24a2.27,2.27,0,0,1-.63.1,1.05,1.05,0,0,1-.57-.15,1.09,1.09,0,0,1-.39-.47,2.45,2.45,0,0,1-.17-.81A3.59,3.59,0,0,1,94.27,69a5.44,5.44,0,0,1,.86-1.43,4.93,4.93,0,0,1,1.28-1.1,4.76,4.76,0,0,1,2.26-.77l.06,1.38-.08,0a1.86,1.86,0,0,0-1-.12,3.08,3.08,0,0,0-1.16.42,3.61,3.61,0,0,0-.8.65,3,3,0,0,0-.52.81,1.8,1.8,0,0,0-.16.83.88.88,0,0,0,.28.73.9.9,0,0,0,.76,0l.78-.24.18-.06a6.28,6.28,0,0,1,.69-.19,1.81,1.81,0,0,1,.57,0,.85.85,0,0,1,.5.22,1.61,1.61,0,0,1,.42,1.15,3.78,3.78,0,0,1-.14,1.12,4.7,4.7,0,0,1-.46,1.14,5.72,5.72,0,0,1-.81,1.09,5,5,0,0,1-1.11.87A5.74,5.74,0,0,1,95.38,76.15Z" style="fill:#fff"/><path d="M100.34,73.2,100,64.48l4.68-2.8,0,1L101,64.92l.1,2.39,3.44-2.06,0,1-3.44,2.06.14,3.23,3.69-2.2,0,1Z" style="fill:#fff"/><path d="M111.81,59.9a6.11,6.11,0,0,1,.32,1.79,8.74,8.74,0,0,1-.15,2.05,7.16,7.16,0,0,1-.61,1.83A5.94,5.94,0,0,1,109,68.2a3.25,3.25,0,0,1-1.38.52,1.49,1.49,0,0,1-1.08-.26,2.08,2.08,0,0,1-.73-1,5.67,5.67,0,0,1-.32-1.78,8.14,8.14,0,0,1,.75-3.89,6.53,6.53,0,0,1,1-1.51,6,6,0,0,1,1.35-1.12,3.36,3.36,0,0,1,1.38-.51,1.66,1.66,0,0,1,1.09.25A2.26,2.26,0,0,1,111.81,59.9Zm-1,1a1.78,1.78,0,0,0-.5-.85c-.42-.36-1-.33-1.7.09a3.8,3.8,0,0,0-.94.79A5,5,0,0,0,107,62a5.65,5.65,0,0,0-.4,1.39,7.18,7.18,0,0,0-.09,1.62,4.37,4.37,0,0,0,.36,1.75,1.21,1.21,0,0,0,.85.73A1.73,1.73,0,0,0,109,67.2a3.76,3.76,0,0,0,1.19-1.13,5.14,5.14,0,0,0,.74-1.68,7.33,7.33,0,0,0,.19-2.08A5.41,5.41,0,0,0,110.86,60.88Z" style="fill:#fff"/><path d="M209.25,25.6,174.73,46.22c-4.58,2.74-8.06,10.1-7.78,16.44h0a10.82,10.82,0,0,0,1.19,4.76l-2.4,8.42c-.6,2.1.74,3.27,2,1.74L174,70a7.78,7.78,0,0,0,1.74-.78l34.52-20.63c4.58-2.74,8.06-10.09,7.78-16.43h0C217.77,25.78,213.83,22.86,209.25,25.6Z" style="fill:url(#linear-gradient-38)"/><path d="M182.37,57.45a1.63,1.63,0,0,1-1.1-.22,2,2,0,0,1-.76-1,5.44,5.44,0,0,1-.33-1.79,8.46,8.46,0,0,1,.15-2,8.28,8.28,0,0,1,.64-1.85A6.84,6.84,0,0,1,182,49a5.75,5.75,0,0,1,1.35-1.12,4.68,4.68,0,0,1,1.33-.56,4.21,4.21,0,0,1,1-.09l.06,1.4-.08,0-.41-.15a1.9,1.9,0,0,0-.46-.08,2.25,2.25,0,0,0-.67.09,3.18,3.18,0,0,0-.76.33,4.06,4.06,0,0,0-.9.78,5.33,5.33,0,0,0-1.15,2.54,6.58,6.58,0,0,0-.11,1.61A2.82,2.82,0,0,0,182,56a1.11,1.11,0,0,0,.76.21,2.06,2.06,0,0,0,.91-.31,5.14,5.14,0,0,0,1.43-1.3,8.84,8.84,0,0,0,.77-1.18l.07,0,.06,1.38-.33.4-.12.13c-.14.17-.31.36-.52.57s-.41.39-.6.54a5.23,5.23,0,0,1-.72.5A3.44,3.44,0,0,1,182.37,57.45Z" style="fill:#fff"/><path d="M187.88,54.29l-.95.57-.4-9.11.94-.56Z" style="fill:#fff"/><path d="M193.52,49.48a5.42,5.42,0,0,1-.82,1.71,4.37,4.37,0,0,1-1.31,1.19,2.09,2.09,0,0,1-1.36.38,1.2,1.2,0,0,1-.92-.67,3.79,3.79,0,0,1-.38-1.65,6,6,0,0,1,.23-2,5.42,5.42,0,0,1,.82-1.71,4.39,4.39,0,0,1,1.31-1.2,2.23,2.23,0,0,1,1.34-.39,1.21,1.21,0,0,1,.92.67,3.8,3.8,0,0,1,.4,1.68A6.49,6.49,0,0,1,193.52,49.48Zm-1.23-3.11c-.28-.26-.66-.24-1.16.06A2.73,2.73,0,0,0,190,47.74a4.85,4.85,0,0,0-.31,2.11,2.47,2.47,0,0,0,.48,1.63c.29.26.68.25,1.17,0a2.67,2.67,0,0,0,1.11-1.31,4.85,4.85,0,0,0,.31-2.1A2.49,2.49,0,0,0,192.29,46.37Z" style="fill:#fff"/><path d="M199.24,47.51l-1,.56,0-.72a9.23,9.23,0,0,1-.82,1.19,3.55,3.55,0,0,1-.84.73,2,2,0,0,1-.71.27.87.87,0,0,1-.58-.1c-.36-.22-.55-.75-.59-1.59l-.19-4.24.95-.57.16,3.72a7.23,7.23,0,0,0,.08.88,1.18,1.18,0,0,0,.17.48.4.4,0,0,0,.33.18,1.37,1.37,0,0,0,.58-.22,3.37,3.37,0,0,0,.71-.65,8,8,0,0,0,.71-1L198,41.53,199,41Z" style="fill:#fff"/><path d="M204.93,44.1l-.94.57,0-.67c-.17.28-.31.49-.4.63a4.34,4.34,0,0,1-.34.44,2.86,2.86,0,0,1-.42.43,2.27,2.27,0,0,1-.49.35,1.73,1.73,0,0,1-.85.29,1,1,0,0,1-.69-.26,1.84,1.84,0,0,1-.48-.82,5,5,0,0,1-.21-1.36,6.19,6.19,0,0,1,.11-1.57,6.88,6.88,0,0,1,.49-1.45,5.37,5.37,0,0,1,.71-1.11,3.65,3.65,0,0,1,.9-.79,3.21,3.21,0,0,1,.73-.33,2.2,2.2,0,0,1,.69-.05l-.13-2.84.95-.56Zm-1.18-4.79a2.45,2.45,0,0,0-.64.1,2.81,2.81,0,0,0-.62.29A2.7,2.7,0,0,0,201.38,41a4.54,4.54,0,0,0-.33,2.08,2.72,2.72,0,0,0,.4,1.58c.24.27.58.27,1,0a2.93,2.93,0,0,0,.73-.63,6.6,6.6,0,0,0,.7-1Z" style="fill:#fff"/><path d="M138.48,178.3l47-28.52c4.58-2.74,8.52.18,8.8,6.52h0a19.38,19.38,0,0,1-.71,5.9l3,5.19c.75,1.3-.42,4-1.74,4l-6.61.07a10.72,10.72,0,0,1-1.72,1.29L139.5,201.26c-4.58,2.73-8.52-.19-8.8-6.52h0C130.42,188.4,133.9,181,138.48,178.3Z" style="fill:url(#Degradado_sin_nombre_64-16)"/><path d="M144.76,190l-1.29.77-2.53-2.05-1.13.68.15,3.47-1,.59-.38-8.71,1.93-1.16a7.63,7.63,0,0,1,1.12-.58,1.75,1.75,0,0,1,.8-.1c.59.09.9.56.94,1.4a4.14,4.14,0,0,1-.34,1.83,5.52,5.52,0,0,1-1.1,1.66Zm-2.95-5.86a1,1,0,0,0-.5.07,3.51,3.51,0,0,0-.71.35l-1,.59.14,3.29.88-.53a5.4,5.4,0,0,0,.79-.57,2.58,2.58,0,0,0,.54-.69,2.89,2.89,0,0,0,.29-.77,3.45,3.45,0,0,0,.07-.86C142.31,184.44,142.13,184.15,141.81,184.09Z" style="fill:#fff"/><path d="M146.18,188.85a1.19,1.19,0,0,1-1-.58,3.29,3.29,0,0,1-.41-1.63,6.28,6.28,0,0,1,.24-2,5.85,5.85,0,0,1,.87-1.77,4.47,4.47,0,0,1,1.33-1.24,2.71,2.71,0,0,1,.94-.37,1.07,1.07,0,0,1,.73.13,1.23,1.23,0,0,1,.51.65,3.73,3.73,0,0,1,.21,1.22l0,.59-3.9,2.33a1.75,1.75,0,0,0,.57,1.45c.34.21.81.14,1.39-.21a4,4,0,0,0,.6-.44,5.5,5.5,0,0,0,.54-.54,8.91,8.91,0,0,0,.71-.93l0,0,.05,1.2-.4.44a9.61,9.61,0,0,1-.93.88,6,6,0,0,1-.56.38A3,3,0,0,1,146.18,188.85Zm2.47-5.33a1.62,1.62,0,0,0-.38-1.12c-.24-.2-.61-.15-1.09.13a2.93,2.93,0,0,0-.63.51,3.54,3.54,0,0,0-.47.68,4.27,4.27,0,0,0-.3.76,3.61,3.61,0,0,0-.1.82Z" style="fill:#fff"/><path d="M151.22,186.09a3.35,3.35,0,0,1-.88.12l-.06-1.23.05,0a3.34,3.34,0,0,0,.35.08,1.66,1.66,0,0,0,.4,0,2.57,2.57,0,0,0,1.14-.34,4.68,4.68,0,0,0,.49-.36,2.53,2.53,0,0,0,.37-.38,1.67,1.67,0,0,0,.24-.45,1.2,1.2,0,0,0,.06-.49.76.76,0,0,0-.1-.39.35.35,0,0,0-.27-.13,2,2,0,0,0-.51.09l-.48.16-.54.17c-.83.22-1.27-.13-1.31-1a2.89,2.89,0,0,1,.22-1.2,4,4,0,0,1,.7-1.14,4.37,4.37,0,0,1,1.09-.91,5,5,0,0,1,.94-.43,2.43,2.43,0,0,1,.82-.13l.05,1.17-.05,0a1.81,1.81,0,0,0-.84,0,2.56,2.56,0,0,0-.9.34,2.61,2.61,0,0,0-.79.72,1.38,1.38,0,0,0-.28.86c0,.27.08.44.21.5a.89.89,0,0,0,.64,0l.48-.16.41-.14.14,0a1.06,1.06,0,0,1,1,.05,1.22,1.22,0,0,1,.37.95,3.1,3.1,0,0,1-.11.89,3.71,3.71,0,0,1-.39.89,4.6,4.6,0,0,1-.68.87,5.15,5.15,0,0,1-.93.71A4.19,4.19,0,0,1,151.22,186.09Z" style="fill:#fff"/><path d="M159.64,179.45a5.77,5.77,0,0,1-.79,1.76,3.71,3.71,0,0,1-1.2,1.17,2.75,2.75,0,0,1-.73.32,2,2,0,0,1-.69.06l.12,2.74-.94.56-.4-8.95.94-.56,0,.68a5.06,5.06,0,0,1,1.69-1.89,1.45,1.45,0,0,1,1.11-.26,1.24,1.24,0,0,1,.76.72,4.41,4.41,0,0,1,.32,1.59A6.69,6.69,0,0,1,159.64,179.45Zm-1.14-2.92c-.23-.27-.57-.28-1,0a4.71,4.71,0,0,0-1.45,1.64l.16,3.7a2.83,2.83,0,0,0,.65-.09,3,3,0,0,0,.61-.29,2.79,2.79,0,0,0,1.12-1.31,4.61,4.61,0,0,0,.32-2.07A2.83,2.83,0,0,0,158.5,176.53Z" style="fill:#fff"/><path d="M165.24,176.27a5.07,5.07,0,0,1-.82,1.7,4.33,4.33,0,0,1-1.3,1.19,2.18,2.18,0,0,1-1.36.39,1.27,1.27,0,0,1-.93-.68,3.79,3.79,0,0,1-.38-1.65,6.49,6.49,0,0,1,.23-2,5.19,5.19,0,0,1,.83-1.72,4.36,4.36,0,0,1,1.3-1.2,2.17,2.17,0,0,1,1.34-.38,1.24,1.24,0,0,1,.93.66,3.71,3.71,0,0,1,.39,1.68A6.31,6.31,0,0,1,165.24,176.27ZM164,173.16c-.28-.26-.67-.25-1.17.05a2.7,2.7,0,0,0-1.11,1.31,4.75,4.75,0,0,0-.31,2.12,2.35,2.35,0,0,0,.48,1.62c.28.27.67.25,1.17,0a2.74,2.74,0,0,0,1.1-1.31,4.86,4.86,0,0,0,.32-2.11A2.46,2.46,0,0,0,164,173.16Z" style="fill:#fff"/><path d="M171,174.27l-.94.56-.17-3.72a3.2,3.2,0,0,0-.24-1.36.41.41,0,0,0-.35-.17,1.22,1.22,0,0,0-.56.22,2.63,2.63,0,0,0-.7.63,8.34,8.34,0,0,0-.72,1l.21,4.88-.94.57-.29-6.54.94-.57,0,.73a8.66,8.66,0,0,1,.82-1.19,3.4,3.4,0,0,1,.85-.74c.56-.33,1-.38,1.33-.14a2,2,0,0,1,.54,1.56Z" style="fill:#fff"/><path d="M172.85,173.16a3.46,3.46,0,0,1-.88.13l-.06-1.24.05,0,.35.09a2.33,2.33,0,0,0,.39,0,2.58,2.58,0,0,0,1.15-.35,3.46,3.46,0,0,0,.49-.35,3.11,3.11,0,0,0,.37-.38,1.67,1.67,0,0,0,.24-.45,1.43,1.43,0,0,0,.06-.49.73.73,0,0,0-.1-.39.32.32,0,0,0-.27-.13,2,2,0,0,0-.51.09l-.48.16-.54.17c-.83.22-1.27-.13-1.31-1a2.72,2.72,0,0,1,.22-1.19,4,4,0,0,1,.7-1.15,4.33,4.33,0,0,1,1.09-.9,4,4,0,0,1,.94-.43,2.45,2.45,0,0,1,.81-.14l.06,1.18-.05,0a1.81,1.81,0,0,0-.84,0,2.38,2.38,0,0,0-.9.34,2.47,2.47,0,0,0-.79.71,1.43,1.43,0,0,0-.28.87c0,.27.08.43.21.5a1,1,0,0,0,.64,0c.15,0,.3-.1.47-.16l.42-.13.13,0a1.11,1.11,0,0,1,1,0,1.2,1.2,0,0,1,.36,1,2.56,2.56,0,0,1-.11.89,3.32,3.32,0,0,1-.38.89,4.6,4.6,0,0,1-.68.87,4.7,4.7,0,0,1-.93.7A3.83,3.83,0,0,1,172.85,173.16Z" style="fill:#fff"/><path d="M177.62,162.48l-1.08.64,0-1.14,1.08-.64Zm.27,7.67-.94.56-.29-6.53.94-.57Z" style="fill:#fff"/><path d="M183.41,160.14,181.58,168l-.85.5-2.39-5.28,1-.61,1.76,4.13,1.3-6Z" style="fill:#fff"/><path d="M185.31,165.47a1.22,1.22,0,0,1-1-.58,3.33,3.33,0,0,1-.41-1.64,6,6,0,0,1,.25-2,5.6,5.6,0,0,1,.86-1.77,4.5,4.5,0,0,1,1.34-1.24,2.6,2.6,0,0,1,.93-.37,1.12,1.12,0,0,1,.73.12,1.27,1.27,0,0,1,.51.65,3.78,3.78,0,0,1,.21,1.22l0,.6-3.89,2.33c0,.75.22,1.23.56,1.44s.81.15,1.4-.21a3.84,3.84,0,0,0,.59-.43,4,4,0,0,0,.54-.55,6.4,6.4,0,0,0,.71-.93l0,0,.06,1.2-.41.43a7.59,7.59,0,0,1-.92.88,4.69,4.69,0,0,1-.57.39A3,3,0,0,1,185.31,165.47Zm2.47-5.33a1.62,1.62,0,0,0-.38-1.12c-.24-.2-.61-.16-1.09.13a3.19,3.19,0,0,0-.63.51,3.54,3.54,0,0,0-.47.68,3.38,3.38,0,0,0-.29.76,3.44,3.44,0,0,0-.11.81Z" style="fill:#fff"/><path d="M286.4,102.09a4.71,4.71,0,0,1-.44,1.15,5.57,5.57,0,0,1-.9,1.23,5.94,5.94,0,0,1-1.29,1l-.85.51.15,3.25-1,.59-.39-8.71,1.89-1.13a5.86,5.86,0,0,1,1.13-.54,1.61,1.61,0,0,1,.85-.08c.61.12.94.63,1,1.55A4.11,4.11,0,0,1,286.4,102.09Zm-1.5-1.54a1.14,1.14,0,0,0-.56.07,4,4,0,0,0-.79.39l-.83.5.16,3.48.68-.41a5.82,5.82,0,0,0,1-.7,2.93,2.93,0,0,0,.59-.77,3.22,3.22,0,0,0,.3-.77,2.84,2.84,0,0,0,.06-.78C285.47,101,285.27,100.61,284.9,100.55Z" style="fill:#fff"/><path d="M295.76,92.69l-1.49,9.84-1.12.67-1.85-6.32L290.14,105l-1.1.66-2.31-7.57,1-.61,1.84,6.34,1.17-8.14,1-.6,1.84,6.41,1.18-8.21Z" style="fill:#fff"/><path d="M296.23,101.36l2.14-10.22,1.23-.74,2.91,7.21-1.05.63-.79-2-2.86,1.71-.57,2.84Zm4.12-6L299,92l-1,4.8Z" style="fill:#fff"/></g></g></svg>