<?xml version="1.0" encoding="utf-8"?>
<!-- Generator: Adobe Illustrator 26.0.3, SVG Export Plug-In . SVG Version: 6.00 Build 0)  -->
<svg version="1.1" id="Слой_1" xmlns="http://www.w3.org/2000/svg" xmlns:xlink="http://www.w3.org/1999/xlink" x="0px" y="0px"
	 viewBox="0 0 3200 2000" style="enable-background:new 0 0 3200 2000;" xml:space="preserve">
<style type="text/css">
	.st0{fill:#ABC5F4;}
	.st1{fill:#FFFFFF;}
	.st2{fill:url(#SVGID_1_);}
	.st3{fill:#09005D;}
	.st4{fill:#7D97F4;}
	.st5{fill:url(#SVGID_00000145769980673287660730000016863104632553591455_);}
	.st6{fill:#BDD0FB;}
	.st7{fill:url(#SVGID_00000161591701299338794680000016758172252994187193_);}
	.st8{fill:#91B3FA;}
	.st9{fill:url(#SVGID_00000157275632744010184580000008505637487050372511_);}
	.st10{fill:#E1473D;}
	.st11{fill:url(#SVGID_00000090994766804603639140000008440056409700916397_);}
	.st12{fill:#FE7062;}
	.st13{fill:#1A0F91;}
	.st14{fill:url(#SVGID_00000059992867833173296040000006566867068152020667_);}
	.st15{fill:url(#SVGID_00000156581077918724693010000016807683934652896393_);}
	.st16{fill:url(#SVGID_00000012462263741514310430000003300103803432649117_);}
	.st17{fill:url(#SVGID_00000098187381696352402990000004384405820077200553_);}
	.st18{fill:url(#SVGID_00000096780583568576046570000014467443846659383230_);}
	.st19{fill:url(#SVGID_00000137124746484623114540000013560088800693854623_);}
	.st20{fill:url(#SVGID_00000039107492243697740190000018414628529759704453_);}
	.st21{fill:url(#SVGID_00000165930790737186578340000004888746311527447456_);}
	.st22{fill:url(#SVGID_00000002355529185872216690000000910284800685897109_);}
	.st23{fill:#F3F8FF;}
	.st24{fill:#B7D3F3;}
	.st25{fill:#FCECDB;}
	.st26{fill:#F4D2B8;}
	.st27{fill:#E9605A;}
	.st28{fill:#FF928E;}
	.st29{fill:url(#SVGID_00000042016757051583454680000010132574307608990350_);}
	.st30{fill:url(#SVGID_00000016075100936574053130000014290709716499927206_);}
	.st31{fill:url(#SVGID_00000150103746580171744510000008938763604832183742_);}
	.st32{fill:url(#SVGID_00000010997436656153542050000018118196264034312327_);}
	.st33{fill:url(#SVGID_00000183967504549592257370000017237913745987860650_);}
	.st34{fill:url(#SVGID_00000101102128990183820600000017029424828851324319_);}
	.st35{fill:url(#SVGID_00000010304976310149631990000002650571325943309994_);}
	.st36{fill:url(#SVGID_00000082343228720000033150000013043715036065729165_);}
	.st37{fill:url(#SVGID_00000091722664038987864860000003907390411474814120_);}
	.st38{fill:url(#SVGID_00000100351731903809309770000017027554687671646114_);}
	.st39{fill:url(#SVGID_00000112630508274266042190000003095344250562585749_);}
	.st40{fill:url(#SVGID_00000055673238788778078130000000844956848561493930_);}
	.st41{opacity:0.81;}
	.st42{fill:#DCE5FE;}
	.st43{opacity:0.88;}
	.st44{display:none;fill:url(#SVGID_00000030486854061778306030000008192589684676786846_);}
	.st45{fill:url(#SVGID_00000093134624867517815690000015211297017752856497_);}
	.st46{display:none;fill:url(#SVGID_00000103254466388248729030000017434982074964616621_);}
	.st47{fill:url(#SVGID_00000043457133817556366710000010940968909899497101_);}
	.st48{fill:url(#SVGID_00000106833004549764446670000014434931825013558958_);}
	.st49{opacity:0.8;}
	.st50{fill:url(#SVGID_00000072258547529729856830000008890214696693015470_);}
	.st51{fill:url(#SVGID_00000019678988246739052170000007440269152453680820_);}
	.st52{fill:url(#SVGID_00000040541047526174826610000004943913218974117001_);}
	.st53{fill:url(#SVGID_00000059298372387564942010000009975210961097127060_);}
	.st54{fill:url(#SVGID_00000016771316501413133210000002720917885833386370_);}
	.st55{fill:url(#SVGID_00000082352049479325921140000013627294993447975832_);}
	.st56{display:none;fill:url(#SVGID_00000005961816764009565690000005246681287317495188_);}
	.st57{display:none;fill:url(#SVGID_00000158748627670254413820000000116166502204165296_);}
	.st58{display:none;opacity:0.81;}
	.st59{display:inline;fill:#91B3FA;}
	.st60{display:inline;fill:#DCE5FE;}
	.st61{display:inline;fill:#BDD0FB;}
	.st62{fill:url(#SVGID_00000055669453897526034740000014922314478871016127_);}
	.st63{fill:url(#SVGID_00000023279848411126645070000000209461593273647018_);}
	.st64{fill:url(#SVGID_00000158030431580453227330000003538155573144087170_);}
	.st65{fill:url(#SVGID_00000178922223993464048900000001725652817800852655_);}
	.st66{fill:url(#SVGID_00000158747641164893659010000005066472723469648567_);}
	.st67{fill:url(#SVGID_00000047061856977689201580000012749362136160716199_);}
	.st68{fill:url(#SVGID_00000150061376584100767740000008270681739672137876_);}
	.st69{fill:url(#SVGID_00000142168183141679354740000009611397046928478376_);}
	.st70{fill:url(#SVGID_00000132809571370836813100000004460301385619153800_);}
	.st71{fill:url(#SVGID_00000146471967344226121500000009004038913824668582_);}
	.st72{fill:url(#SVGID_00000013900540345987284560000005763434718981004964_);}
	.st73{fill:url(#SVGID_00000076562187566655944820000010092201323860224180_);}
	.st74{fill:url(#SVGID_00000124881861200895523730000004262171518952758682_);}
	.st75{fill:url(#SVGID_00000134954301208688997920000007399864925814248346_);}
	.st76{fill:url(#SVGID_00000083047574847876016900000007985037505137269130_);}
	.st77{fill:url(#SVGID_00000060744244846059370380000017828236381256746115_);}
	.st78{fill:url(#SVGID_00000065076257546090760920000014160344045809211795_);}
	.st79{fill:url(#SVGID_00000123433644583047788140000008729580462000574598_);}
	.st80{fill:url(#SVGID_00000054979200220084964500000000882076839448391063_);}
	.st81{fill:url(#SVGID_00000181067772815690837460000006694555168948612992_);}
	.st82{fill:url(#SVGID_00000145047077265591282550000004759148020425513892_);}
	.st83{fill:url(#SVGID_00000173845360872949302510000016862189215235499681_);}
	.st84{fill:url(#SVGID_00000146487089125677834710000010091502327421712545_);}
	.st85{fill:url(#SVGID_00000165209394520899727720000005409037169710300068_);}
	.st86{fill:url(#SVGID_00000150781932045483310300000018303005354618043810_);}
	.st87{fill:url(#SVGID_00000133502955392380661240000014755309191009417651_);}
	.st88{fill:url(#SVGID_00000160905043425096132270000001089418018496271527_);}
	.st89{fill:url(#SVGID_00000023981153281489216820000006491700962552039058_);}
	.st90{fill:url(#SVGID_00000158708836215341385250000017704175860917334206_);}
	.st91{fill:url(#SVGID_00000147202770023757004910000000436671994364483486_);}
	.st92{fill:url(#SVGID_00000173154813887102067090000007230457399627550375_);}
	.st93{fill:url(#SVGID_00000159434094217537235420000007404905957912591771_);}
	.st94{fill:url(#SVGID_00000174564173592488587790000013078684771193884851_);}
	.st95{fill:url(#SVGID_00000098182022657597377260000013121277305634921110_);}
	.st96{fill:url(#SVGID_00000015335663579992617900000005720396573707341749_);}
	.st97{fill:url(#SVGID_00000113335387195534684100000000334324802773025436_);}
	.st98{opacity:0.6;fill:#FFFFFF;}
	.st99{opacity:0.78;fill:#FFFFFF;}
	.st100{fill:url(#SVGID_00000155123512045000295270000014058034523360951431_);}
	.st101{fill:url(#SVGID_00000088129953878590245790000001995457635021147548_);}
	.st102{fill:url(#SVGID_00000063601844290184186760000006405626900133570458_);}
	.st103{fill:url(#SVGID_00000004539844025127052340000004761958450338090655_);}
	.st104{fill:url(#SVGID_00000163780974258393892630000017403724270532191921_);}
	.st105{fill:url(#SVGID_00000080924934678059134070000018098243296856972682_);}
	.st106{fill:url(#SVGID_00000054951085660070161610000006775638565975965626_);}
	.st107{display:none;}
	.st108{display:inline;fill:url(#SVGID_00000170975861357757604920000002940349296250100381_);}
	.st109{display:inline;fill:url(#SVGID_00000026854437236848024910000007048094266179484341_);}
	.st110{display:inline;opacity:0.6;fill:#FFFFFF;}
	.st111{display:inline;opacity:0.78;fill:#FFFFFF;}
	.st112{display:inline;}
	.st113{fill:url(#SVGID_00000090989005897198944730000018100245171376458131_);}
	.st114{fill:url(#SVGID_00000142881726569413615730000007633337481075329700_);}
	.st115{fill:url(#SVGID_00000037671764519826671290000005012737955944532405_);}
	.st116{fill:url(#SVGID_00000107558108491694243390000001591538689908220801_);}
	.st117{fill:url(#SVGID_00000009577309790967085580000009803092630025801871_);}
	.st118{fill:url(#SVGID_00000060029246354120068130000011641199848924570768_);}
	.st119{fill:url(#SVGID_00000008142504940969873780000013317292112729500554_);}
	.st120{fill:url(#SVGID_00000156583914638182860700000016293606431310480031_);}
	.st121{fill:url(#SVGID_00000025418280887338622540000006092898023067144838_);}
	.st122{fill:url(#SVGID_00000081633735916882545430000005785917265830275505_);}
	.st123{fill:url(#SVGID_00000110444055755119625870000016772937863490739107_);}
	.st124{fill:url(#SVGID_00000096042842951197663790000003916286477716737441_);}
	.st125{fill:url(#SVGID_00000047034179049319343610000003921962881002916507_);}
	.st126{fill:url(#SVGID_00000170246919083494066350000017091689323597972382_);}
	.st127{fill:url(#SVGID_00000140729258383308154200000008914018758363345324_);}
	.st128{fill:url(#SVGID_00000003808167085388032020000010517715450643760516_);}
	.st129{fill:url(#SVGID_00000047021918294313301350000015028398329605216417_);}
	.st130{fill:url(#SVGID_00000019644840999845885130000000984707490542243483_);}
	.st131{fill:url(#SVGID_00000080899362720947851050000009797898472528411568_);}
	.st132{fill:#153CBB;}
	.st133{fill:#1447D7;}
	.st134{fill:#CBE3FC;}
	.st135{fill:#BBDCF8;}
	.st136{fill:#C8E6FA;}
	.st137{fill:#FF9490;}
	.st138{fill:#AB221C;}
	.st139{fill:#003261;}
	.st140{fill:#1F3765;}
	.st141{fill:#00448C;}
	.st142{fill:#FF8585;}
	.st143{fill:#2E49D2;}
	.st144{fill:#86BADE;}
	.st145{fill:#FF5549;}
	.st146{fill:#004D99;}
	.st147{fill:#FF8484;}
	.st148{fill:#A49E56;}
	.st149{fill:#B5BE6F;}
	.st150{fill:#C1C9EF;}
	.st151{fill:#8A98CE;}
	.st152{fill:#53619F;}
	.st153{fill:#FDC970;}
	.st154{fill:#B5D6F6;}
	.st155{fill:#7280C4;}
	.st156{fill:#FCDCA0;}
	.st157{fill:#C75138;}
	.st158{fill:#8A3927;}
	.st159{fill:#FDA889;}
	.st160{fill:#4A569C;}
	.st161{fill:#BF5638;}
	.st162{fill:#D6415D;}
	.st163{fill:#A34F14;}
	.st164{clip-path:url(#SVGID_00000124870661203522032180000014867394451664366721_);}
	.st165{fill:#E4E8FD;}
	.st166{fill:#713D2F;}
	.st167{fill:#B74B2F;}
	.st168{fill:#D89F78;}
	.st169{clip-path:url(#SVGID_00000013871282856417662990000001920862490362953151_);}
	.st170{fill:#84303A;}
	.st171{clip-path:url(#SVGID_00000117665257298142372950000003058974914736446604_);}
	.st172{clip-path:url(#SVGID_00000073679120687314632790000005068629458977603490_);}
	.st173{fill:#FDDFE6;}
	.st174{clip-path:url(#SVGID_00000143584536958648160140000009776405596357030022_);}
	.st175{clip-path:url(#SVGID_00000103948513591788662150000015734323614793464997_);}
	.st176{clip-path:url(#SVGID_00000065760265570393480370000004751088723602479771_);}
	.st177{clip-path:url(#SVGID_00000125561409286040066620000003161284816487747717_);}
	.st178{clip-path:url(#SVGID_00000055709503395890380850000001590666487663518398_);}
	.st179{fill:#D9844A;}
	.st180{fill:#902B15;}
	.st181{fill:#A31C35;}
	.st182{fill:url(#SVGID_00000004521719254933675950000010339870195055549570_);}
	.st183{fill:#FFFAF7;}
	.st184{opacity:0.5;fill:#FF928E;}
	.st185{fill:url(#SVGID_00000056393551420437485170000003862372433775934869_);}
	.st186{fill:#5F89D3;}
	.st187{fill:url(#SVGID_00000005967023559898219240000004905441905149904525_);}
	.st188{fill:url(#SVGID_00000016056148531889143450000000487866183532417412_);}
	.st189{fill:url(#SVGID_00000007407659023622774340000009468153337078574730_);}
	.st190{fill:url(#SVGID_00000074427074708584132460000005553356199206826674_);}
	.st191{fill:url(#SVGID_00000011017677373952432900000017219816074126090655_);}
	.st192{fill:#9FC6AF;}
	.st193{fill:#E25B7E;}
	.st194{opacity:0.6;fill:#BDD0FB;}
	.st195{fill:url(#SVGID_00000169518045096751336990000007210858747576699024_);}
	.st196{opacity:0.7;fill:#BDD0FB;}
	.st197{fill:url(#SVGID_00000170254314586897375660000007930327224530555814_);}
	.st198{fill:url(#SVGID_00000076596267790776381720000009341061697761064350_);}
	.st199{fill:url(#SVGID_00000137093805027110773890000005318837921148247703_);}
	.st200{fill:url(#SVGID_00000047020795804683166390000002170626863126213054_);}
	.st201{fill:url(#SVGID_00000049926739032572440920000001597531466300866713_);}
	.st202{fill:url(#SVGID_00000011720547353347256170000005837714248793151891_);}
	.st203{fill:url(#SVGID_00000036234893732687736410000013613161216931861412_);}
	.st204{fill:url(#SVGID_00000021806977536867864830000012082865537753603460_);}
	.st205{fill:url(#SVGID_00000168803727713875015690000003374115801687533481_);}
	.st206{fill:url(#SVGID_00000045578536159449390050000008550287390472752830_);}
	.st207{fill:url(#SVGID_00000045611231111195868120000001818265613233795736_);}
	.st208{fill:none;stroke:#FFFFFF;stroke-width:10;stroke-linecap:round;stroke-miterlimit:10;}
	.st209{fill:url(#SVGID_00000152260201523904218670000007634398061616371637_);}
	.st210{fill:url(#SVGID_00000018226635277670402770000001662310960929651116_);}
	.st211{fill:#D2E9FF;}
	.st212{opacity:0.4;fill:#3892DF;}
	.st213{fill:url(#SVGID_00000146501467241653398200000004839420783039987618_);}
	.st214{opacity:0.8;fill:#7D97F4;}
	.st215{fill:url(#SVGID_00000071552546487427117520000006963186794337633451_);}
	.st216{fill:url(#SVGID_00000153672690129841596920000016512594865609084826_);}
	.st217{fill:url(#SVGID_00000019680666512257666340000013600064818514309284_);}
	.st218{fill:url(#SVGID_00000111191040993705638560000016734639309628368263_);}
	.st219{fill:#FF7E58;}
	.st220{fill:url(#SVGID_00000026148049557391296980000012554847165550919331_);}
	.st221{fill:url(#SVGID_00000021816338666223727410000006798021918675928233_);}
	.st222{fill:url(#SVGID_00000016759687226568823370000005645250636028738196_);}
	.st223{fill:url(#SVGID_00000117664087521605596290000018068104851415285661_);}
	.st224{fill:url(#SVGID_00000096027359723880607040000003455979554398226582_);}
	.st225{fill:url(#SVGID_00000176040134282129145110000018348953326680384161_);}
	.st226{fill:url(#SVGID_00000016765767065668514820000000306586777336191416_);}
	.st227{fill:url(#SVGID_00000054226204363354366350000014997310974925043613_);}
	.st228{fill:url(#SVGID_00000020370831476310015400000006045333216399434174_);}
	.st229{fill:url(#SVGID_00000077305875184000567780000005205381632289569920_);}
	.st230{fill:url(#SVGID_00000129203981491775618180000013745519921510485409_);}
	.st231{fill:url(#SVGID_00000026132253013223604800000012820541362259170200_);}
</style>
<linearGradient id="SVGID_1_" gradientUnits="userSpaceOnUse" x1="302.1398" y1="922.2866" x2="2980.9109" y2="922.2866">
	<stop  offset="0" style="stop-color:#DAE3FE"/>
	<stop  offset="1" style="stop-color:#E9EFFD"/>
</linearGradient>
<path class="st2" d="M848.26,160.88C694.67,257.97,586.11,183,493.28,285.83c-289.61,320.79,77.39,442.37-93.09,491.58
	c-185.13,53.43-69.96,289.22,34.21,357.37c104.17,68.15,181.64,109.14,33.64,178.8c-148.01,69.66-173.86,146.69-111.81,272.04
	c62.06,125.35,179.63,164.85,668.25,172.28c488.61,7.43,1434.87-8.33,1693.01-79.65c258.14-71.33,69.95-254.85,178.48-391.94
	c108.53-137.09,129.88-217.58-36.34-350.57c-166.21-132.99-71.52-270.6-21.62-367.66c49.9-97.06,88.29-273.09-112.01-323.3
	c-200.3-50.21-433.2,150.13-533.94,48.36c-100.74-101.78-56.39-236.76-276.4-202.78c-220,33.98-293.98,297.01-485.83,282.55
	C1237.99,358.43,1173.85-44.93,848.26,160.88z"/>
<g class="st41">
	<path class="st6" d="M1021.62,1862.27c0,0-25.53-293.46-412.22-395.93c-258.04-68.38-330.84-146.2-350.69-178.44
		c-2.31-3.76-8.08-2.19-8.13,2.22c-0.58,54.51,16.63,226.08,238.95,361.2C757.49,1814.16,916.2,1746.85,1021.62,1862.27z"/>
</g>
<g class="st41">
	<path class="st6" d="M2102.48,1805.4c0,0-645.16-667.78,346.85-1561.17c0,0,59,383.89-181.11,767.18
		C2028.12,1394.7,2001.67,1623.53,2102.48,1805.4z"/>
	<path class="st42" d="M2284.73,610.64c-33.27,37.23-62.86,77.77-89.83,119.73c-13.54,20.97-26.46,42.33-38.56,64.14
		c-12.2,21.75-23.71,43.88-34.47,66.36c-43.17,89.83-74.96,185.09-93.02,282.99c-4.56,24.46-8.31,49.08-11.01,73.81
		c-2.74,24.73-4.78,49.55-5.78,74.42c-0.71,12.43-0.72,24.88-1.02,37.32c0.12,12.45-0.05,24.9,0.48,37.34
		c0.58,24.9,2.26,49.76,4.55,74.58c9.56,99.26,32.74,197.13,66.14,291.51c0.27,0.76-0.13,1.6-0.89,1.86
		c-0.74,0.26-1.55-0.11-1.84-0.82c-18.98-46.47-34.61-94.33-47.53-142.94c-12.83-48.65-21.95-98.3-27.77-148.36
		c-11.49-100.14-8.1-202.12,10.15-301.4c4.48-24.83,9.91-49.5,16.35-73.89c6.39-24.41,13.59-48.6,21.6-72.51
		c7.99-23.93,17.07-47.47,26.77-70.74c9.75-23.25,20.19-46.21,31.55-68.7c11.32-22.51,23.38-44.64,36.14-66.35
		c12.81-21.68,26.43-42.87,40.64-63.63c14.3-20.7,29.37-40.87,45.13-60.45c15.78-19.58,32.18-38.63,50.13-56.34
		c0.57-0.57,1.5-0.56,2.06,0.01c0.54,0.55,0.56,1.43,0.05,1.99L2284.73,610.64z"/>
</g>
<g class="st43">
	<path class="st6" d="M868.11,388.17c-12.41-19.68-42.9-8.59-39.81,14.47c15.95,118.85,34.9,326.29-2.48,461.87
		c-54.96,199.35-153.75,785.73,403.45,934.18C1229.28,1798.69,1176.21,876.88,868.11,388.17z"/>
	<path class="st42" d="M917.57,633.31c6.27,11.56,10.95,23.68,15.24,35.98c4.28,12.3,7.74,24.85,10.98,37.47
		c6.16,25.31,10.32,51.07,13.26,76.96l1.85,19.46c0.59,6.49,0.81,12.99,1.23,19.5c0.93,13.01,1.07,26.03,1.27,39.06
		c0.02,3.26,0.14,6.52,0.07,9.77l-0.24,9.76l-0.47,19.54c-0.04,6.52-0.68,13-1,19.51l-1.19,19.5c-1.84,26.08-5.53,51.89-9.14,77.49
		l-11.24,76.45c-7.27,50.75-12.38,101.55-12.47,152.26c-0.23,50.71,5.79,101.18,17.76,150.25c3.42,12.15,6.35,24.46,10.59,36.38
		c2.03,5.98,3.83,12.05,6.05,17.97l6.88,17.68c1.17,2.94,2.24,5.92,3.48,8.83l3.85,8.68l7.7,17.37c2.78,5.69,5.72,11.31,8.58,16.98
		c2.95,5.61,5.56,11.42,8.87,16.84l9.52,16.51c1.6,2.74,3.13,5.53,4.8,8.24l5.18,8.01l10.3,16.08l2.57,4.03l2.76,3.9l5.54,7.79
		l11.09,15.6c3.74,5.17,7.84,10.08,11.74,15.13l11.86,15.07c4.03,4.96,8.28,9.75,12.41,14.64c33.2,39.01,69.81,75.21,108,109.86
		c0.6,0.54,0.66,1.46,0.12,2.06c-0.51,0.57-1.37,0.64-1.98,0.19c-41.14-31.28-80.15-65.61-115.92-103.34
		c-4.45-4.74-9.07-9.33-13.38-14.19l-12.72-14.8c-4.2-4.98-8.59-9.8-12.63-14.91l-12.01-15.43l-6.01-7.73l-3-3.87l-2.81-4.01
		l-11.22-16.07l-5.58-8.06c-1.8-2.73-3.46-5.55-5.2-8.32l-10.32-16.7c-27.16-44.81-47.57-93.82-61.6-144.54
		c-13.75-50.85-19.94-103.62-20.11-156.05c-0.54-52.52,5.59-104.59,13.2-155.86c7.69-51.28,18.04-101.79,23.46-152.36l1.86-19.06
		c0.55-6.36,1.41-12.71,1.68-19.08l1.16-19.12l0.58-9.56c0.18-3.19,0.18-6.38,0.28-9.57c0.3-12.76,0.93-25.53,0.62-38.29
		c-0.09-6.38,0.03-12.78-0.24-19.16l-0.85-19.14c-1.44-25.49-3.82-50.98-8.17-76.19c-2.21-12.59-4.64-25.17-7.89-37.54
		c-3.08-12.4-6.76-24.77-11.58-36.51l-0.04-0.1c-0.31-0.74,0.05-1.6,0.79-1.9C916.43,632.37,917.22,632.67,917.57,633.31z"/>
</g>
<linearGradient id="SVGID_00000002373023019652682770000008234756128836606852_" gradientUnits="userSpaceOnUse" x1="1180.2164" y1="588.2041" x2="846.7206" y2="1982.8247">
	<stop  offset="0" style="stop-color:#FE7062"/>
	<stop  offset="1" style="stop-color:#FF928E"/>
</linearGradient>
<path style="display:none;fill:url(#SVGID_00000002373023019652682770000008234756128836606852_);" d="M1082.85,1078.9
	c0-12.39-10.04-22.43-22.43-22.43H883.26c-12.39,0-22.43,10.04-22.43,22.43v761.42c0,12.39,10.04,22.43,22.43,22.43h177.16
	c12.39,0,22.43-10.04,22.43-22.43V1078.9z"/>
<linearGradient id="SVGID_00000030475986181751261910000011088610189677356202_" gradientUnits="userSpaceOnUse" x1="1706.2947" y1="715.3396" x2="1373.1125" y2="2108.6482">
	<stop  offset="0" style="stop-color:#FE7062"/>
	<stop  offset="1" style="stop-color:#FF928E"/>
</linearGradient>
<path style="fill:url(#SVGID_00000030475986181751261910000011088610189677356202_);" d="M1626.93,960.07H1450.2
	c-12.39,0-22.64,11.92-22.64,25.79v850.21c0,13.88,10.26,26.67,22.64,26.67h176.73c12.39,0,25.57-12.79,25.57-26.67V985.86
	C1652.5,971.99,1639.32,960.07,1626.93,960.07z"/>
<linearGradient id="SVGID_00000181766824067451815450000016598005794529989550_" gradientUnits="userSpaceOnUse" x1="1414.2939" y1="644.2642" x2="1080.9214" y2="2038.3694">
	<stop  offset="0" style="stop-color:#FE7062"/>
	<stop  offset="1" style="stop-color:#FF928E"/>
</linearGradient>
<path style="display:none;fill:url(#SVGID_00000181766824067451815450000016598005794529989550_);" d="M1360.37,827.67
	c0-12.39-10.04-22.43-22.43-22.43h-177.16c-12.39,0-22.43,10.04-22.43,22.43v1012.65c0,12.39,10.04,22.43,22.43,22.43h177.16
	c12.39,0,22.43-10.04,22.43-22.43V827.67z"/>
<linearGradient id="SVGID_00000083811188660471576080000016794462643390637500_" gradientUnits="userSpaceOnUse" x1="2282.4109" y1="853.4476" x2="1949.3424" y2="2246.2805">
	<stop  offset="0" style="stop-color:#FE7062"/>
	<stop  offset="1" style="stop-color:#FF928E"/>
</linearGradient>
<path style="fill:url(#SVGID_00000083811188660471576080000016794462643390637500_);" d="M2321.47,468.35
	c0-12.39-10.04-22.43-22.43-22.43h-177.16c-12.39,0-22.43,10.04-22.43,22.43v1371.97c0,12.39,10.04,22.43,22.43,22.43h177.16
	c12.39,0,22.43-10.04,22.43-22.43V468.35z"/>
<linearGradient id="SVGID_00000160885461937237436310000007331881436670348966_" gradientUnits="userSpaceOnUse" x1="1924.757" y1="1066.5171" x2="1591.4025" y2="2460.5466">
	<stop  offset="0" style="stop-color:#FE7062"/>
	<stop  offset="1" style="stop-color:#FF928E"/>
</linearGradient>
<path style="fill:url(#SVGID_00000160885461937237436310000007331881436670348966_);" d="M1991.36,664.08
	c0-12.39-10.04-22.43-22.43-22.43h-177.16c-12.39,0-22.43,10.04-22.43,22.43v1176.24c0,12.39,10.04,22.43,22.43,22.43h177.16
	c12.39,0,22.43-10.04,22.43-22.43V664.08z"/>
<g class="st49">
	<path class="st8" d="M1060.43,1849.25c0,0-250.25,86.64-437.2-187.14c-175.62-257.17-70.1-578.73,7.39-762.43
		c4.04-9.57,18.1-7.79,19.64,2.48c23.25,154.67,131.37,759.48,423.54,946.61L1060.43,1849.25z"/>
	<path class="st1" d="M1033.9,1855.41c-31.89-4.46-62.56-14.44-92.36-26.41c-29.72-12.23-58.15-27.68-84.91-45.68
		c-26.71-18.08-51.56-38.97-74.15-62.09c-22.49-23.23-42.64-48.69-60.49-75.69c-17.34-27.33-32.14-56.16-44.93-85.84l-8.69-22.61
		l-4.24-11.34l-3.58-11.56l-7.16-23.11c-2.05-7.79-3.9-15.64-5.76-23.48c-14.78-62.72-20.27-127.31-17.21-191.15
		c0.04-0.81,0.72-1.43,1.53-1.39c0.73,0.04,1.31,0.6,1.39,1.31l0,0.04c1.66,15.88,3.15,31.7,4.46,47.51l3.09,23.6
		c1.04,7.86,1.78,15.74,3.05,23.55c1.4,7.79,2.68,15.59,3.97,23.39c1.33,7.79,2.41,15.62,4.3,23.29
		c3.52,15.39,6.14,30.96,10.66,46.07l6.07,22.82l7.2,22.46l3.6,11.23l4.23,11l8.35,22.03c12.28,28.91,26.54,56.92,43.14,83.55
		c16.9,26.42,36.04,51.4,57.52,74.28c21.34,23.01,45.03,43.86,70.53,62.28c25.45,18.51,52.81,34.43,81.31,48.04
		c28.64,13.23,58.59,24.33,89.49,31l0.1,0.02c0.79,0.17,1.29,0.95,1.12,1.73C1035.36,1855.03,1034.65,1855.52,1033.9,1855.41z"/>
</g>
<g>
	
		<linearGradient id="SVGID_00000037654938763664692600000016355818739588550575_" gradientUnits="userSpaceOnUse" x1="2327.2346" y1="1020.3328" x2="2342.0691" y2="1771.9399">
		<stop  offset="0" style="stop-color:#4042E2"/>
		<stop  offset="1" style="stop-color:#4F52FF"/>
	</linearGradient>
	<path style="fill:url(#SVGID_00000037654938763664692600000016355818739588550575_);" d="M1927.46,1709.1l408.55-782.69h-83.7
		c-15.44,0-23.92-17.95-14.13-29.88l435.43-530.7c18.87-23,56.15-8.41,54.4,21.29l-30.61,518.96c-1.75,29.71-28.1,51.85-57.66,48.47
		l-58.36-6.68l-405.36,877.87c-10.55,22.85-33.43,37.49-58.6,37.49h-140.49L1927.46,1709.1z"/>
	
		<linearGradient id="SVGID_00000123442913274240734890000014977835087511975607_" gradientUnits="userSpaceOnUse" x1="1868.1094" y1="1199.9298" x2="1912.6132" y2="2085.05">
		<stop  offset="0" style="stop-color:#4042E2"/>
		<stop  offset="1" style="stop-color:#4F52FF"/>
	</linearGradient>
	<path style="fill:url(#SVGID_00000123442913274240734890000014977835087511975607_);" d="M1589.68,1160.16l288.43,640.71
		c17.08,37.95,54.83,62.35,96.45,62.35h148.69c19.73,0,37.9-10.7,47.47-27.95l5.29-9.53l0,0c-15.98,0-30.6-8.96-37.87-23.19
		l-384.3-752.97L1589.68,1160.16z"/>
	
		<linearGradient id="SVGID_00000155841473316028775890000002907729591344082581_" gradientUnits="userSpaceOnUse" x1="1024.9872" y1="1817.5919" x2="1043.1841" y2="1711.6606">
		<stop  offset="0" style="stop-color:#4042E2"/>
		<stop  offset="1" style="stop-color:#4F52FF"/>
	</linearGradient>
	<path style="fill:url(#SVGID_00000155841473316028775890000002907729591344082581_);" d="M1037.66,1686.48
		c5.09,46.02,9.78,93.17,12.91,131.47l-34.31-98.84C1016.26,1719.11,1024.03,1707.2,1037.66,1686.48z"/>
	
		<linearGradient id="SVGID_00000039856514389806822780000013829897063094346377_" gradientUnits="userSpaceOnUse" x1="1372.4441" y1="1926.114" x2="1508.6526" y2="1133.1868">
		<stop  offset="0" style="stop-color:#4042E2"/>
		<stop  offset="1" style="stop-color:#4F52FF"/>
	</linearGradient>
	<path style="fill:url(#SVGID_00000039856514389806822780000013829897063094346377_);" d="M1792.66,1125.63
		c-28.92-22.84-71.18-16.13-91.6,14.55l-71.81,107.89l-21.52,32.33l-27.43,41.22l-95.53,143.53l-23.73,35.63v0.01l-100.72,151.33
		l-45.89,68.95l-9.74,14.64l-0.01,0.01l-27.69,41.6c-8.07,12.13-17.46,23.11-27.91,32.8c-0.65,0.61-1.3,1.21-1.96,1.8
		c-22.91,20.63-50.7,35.18-80.75,42.23c-5.9,1.39-11.88,2.48-17.93,3.27c-2.18-2.26-3.74-5.12-4.46-8.25
		c-0.65-2.83-0.64-5.88,0.27-8.93l8.86-29.96c0.51,0.08,1.01,0.15,1.51,0.22l7.46-25.88c0.34-2.79,0.78-6.52,1.3-11.08
		c4.84-42.16,16.72-154.53,16.14-235.76c-9.15-18.12-13.83-31.23-16.22-39.91c0-0.01,0-0.01,0-0.01c4.1-6.08,8.25-12.22,12.44-18.41
		c12.43-18.38,25.23-37.23,38.25-56.31c7.41-10.87,14.9-21.82,22.44-32.79c16.11-23.49,32.44-47.12,48.72-70.49
		c7.25-10.4,14.49-20.75,21.7-31.01c2.53-3.61,5.06-7.2,7.59-10.78c0.79-1.13,1.58-2.26,2.37-3.38c2.12-3,4.24-5.99,6.34-8.97
		l0.01-0.02c0.4-0.56,0.8-1.12,1.2-1.68c0.19-0.28,0.39-0.56,0.59-0.84c5.66-8,11.29-15.92,16.88-23.75
		c72.09-101,136.94-186.25,170.28-216.25c0,0,101.19-91.2,200.97-22.25c26.35,18.22,46.37,44.22,58.59,73.84l20.94,50.74l0.01,0.03
		L1792.66,1125.63z"/>
	
		<linearGradient id="SVGID_00000021097229655424776660000003192700693508761233_" gradientUnits="userSpaceOnUse" x1="855.1876" y1="1532.4669" x2="887.1971" y2="1762.9343">
		<stop  offset="0" style="stop-color:#4042E2"/>
		<stop  offset="1" style="stop-color:#4F52FF"/>
	</linearGradient>
	<path style="fill:url(#SVGID_00000021097229655424776660000003192700693508761233_);" d="M976.71,1527.13l-172.1-2.98l-12.35,80.65
		c-10.29-13.48-20.68-26.97-31.06-40.32c2.28-16.51,4.4-30.54,6.22-40.98l-2.41-0.04c-21.28-0.37-38.27-16.87-38.09-36.97l0.03-2.8
		c0.18-20.4,17.96-36.74,39.55-36.35l16.53,0.3c-13.27-13.27-21.59-31.55-21.84-51.79c-0.28-21.87,4.81-39.59,7.19-46.65
		c-2.96-0.62-4.56-1.02-4.56-1.02c5.24-33.51,12.41-64.75,21.03-93.83c17,13.91,44.17,41,81.48,92.91c2.27,3.16,4.58,6.4,6.92,9.75
		c7.14,10.19,14.64,21.25,22.48,33.27c5.06,7.76,10.27,15.92,15.62,24.49c6.96,11.15,14.17,23.01,21.63,35.61
		c4.6,7.79,9.3,15.86,14.09,24.23c3.93,6.87,7.93,13.94,11.99,21.21C965.03,1506.53,970.92,1516.96,976.71,1527.13z"/>
	
		<linearGradient id="SVGID_00000089537963622521165530000009027218699975015823_" gradientUnits="userSpaceOnUse" x1="1149.1149" y1="1801.0811" x2="1181.3563" y2="2033.2192">
		<stop  offset="0" style="stop-color:#4042E2"/>
		<stop  offset="1" style="stop-color:#4F52FF"/>
	</linearGradient>
	<path style="fill:url(#SVGID_00000089537963622521165530000009027218699975015823_);" d="M1276.99,1777.32l-8.39,13.93
		c-3.99,6.63-8.44,12.89-13.3,18.74c-3.38,4.08-6.95,7.96-10.71,11.63c-15.62,15.3-34.32,27.03-54.78,34.45
		c-7.7,2.81-15.66,5-23.79,6.53c-9.27,1.76-18.77,2.66-28.39,2.66h-56.07c-9.39,0-18.69-0.69-27.83-2.03
		c-7.87-1.15-15.63-2.78-23.24-4.89l-49.58-323.87c16.83,29.36,32.94,56.4,48.46,81.01c2.76,22.35,5.58,46.51,8.29,71
		c5.09,46.02,9.78,93.17,12.91,131.47l14.25,41.05h59.67c8.07,0,16.07-0.53,23.95-1.58c-2.18-2.26-3.74-5.12-4.46-8.25
		c-0.65-2.83-0.64-5.88,0.27-8.93l8.86-29.96c0.51,0.08,1.01,0.15,1.51,0.22l7.46-25.88c0.34-2.79,0.78-6.52,1.3-11.08
		c3.7,2.36,7.38,4.5,11.06,6.43c9.2,4.83,18.34,8.32,27.49,10.45c2.74,0.65,5.48,1.16,8.22,1.55c14.31,2.07,28.66,0.77,43.24-4
		C1261.18,1785.42,1269.04,1781.88,1276.99,1777.32z"/>
	<path class="st8" d="M2678.87,551.54c-0.17,0-0.33-0.01-0.5-0.03c-2.41-0.27-4.13-2.44-3.86-4.85l2.87-25.34
		c0.27-2.4,2.44-4.16,4.85-3.86c2.4,0.27,4.13,2.44,3.86,4.85l-2.87,25.34C2682.97,549.89,2681.07,551.54,2678.87,551.54z"/>
	<path class="st8" d="M2315.38,871.41c-0.93,0-1.87-0.3-2.67-0.91c-1.92-1.48-2.28-4.23-0.8-6.15l359.56-467.2
		c4.27-5.55,11.5-7.51,18-4.89c6.49,2.63,10.33,9.07,9.54,16.03l-6.34,56c-0.27,2.4-2.44,4.14-4.85,3.86
		c-2.4-0.27-4.13-2.44-3.86-4.85l6.34-56c0.42-3.7-1.85-6-4.12-6.92c-2.26-0.92-5.49-0.84-7.77,2.11l-359.56,467.2
		C2317.99,870.82,2316.7,871.41,2315.38,871.41z"/>
	
		<linearGradient id="SVGID_00000072274509288017577280000014522881944082842046_" gradientUnits="userSpaceOnUse" x1="1495.3057" y1="1212.6522" x2="1739.8141" y2="1212.6522">
		<stop  offset="0" style="stop-color:#4042E2"/>
		<stop  offset="1" style="stop-color:#4F52FF"/>
	</linearGradient>
	<path style="display:none;fill:url(#SVGID_00000072274509288017577280000014522881944082842046_);" d="M1499.68,1361.19
		c-0.84,0-1.69-0.24-2.45-0.75c-2.01-1.35-2.54-4.08-1.18-6.08l185.96-275.64c6.74-9.99,17.92-15.42,29.95-14.5
		c12.02,0.91,22.27,7.96,27.43,18.85c1.04,2.19,0.1,4.8-2.09,5.83c-2.19,1.04-4.8,0.1-5.84-2.09c-3.79-8.01-11.33-13.19-20.17-13.86
		c-8.85-0.67-17.07,3.32-22.02,10.66l-185.96,275.64C1502.47,1360.51,1501.09,1361.19,1499.68,1361.19z"/>
	
		<linearGradient id="SVGID_00000157307909975210594460000002400194170757656721_" gradientUnits="userSpaceOnUse" x1="1446.9818" y1="1419.5962" x2="1467.671" y2="1419.5962">
		<stop  offset="0" style="stop-color:#4042E2"/>
		<stop  offset="1" style="stop-color:#4F52FF"/>
	</linearGradient>
	<path style="display:none;fill:url(#SVGID_00000157307909975210594460000002400194170757656721_);" d="M1451.36,1432.82
		c-0.84,0-1.69-0.24-2.45-0.75c-2.01-1.35-2.54-4.08-1.18-6.08l11.92-17.67c1.36-2.01,4.08-2.54,6.08-1.18
		c2.01,1.35,2.54,4.08,1.18,6.08l-11.92,17.67C1454.15,1432.14,1452.77,1432.82,1451.36,1432.82z"/>
</g>
<g class="st58">
	<path class="st59" d="M2923.39,858.26c-162.27,71.95-593.32,320.9-779.42,991.98c0,0,251.05,4.21,439.4-398.4
		c161.08-344.31,253.71-483.41,352.35-574.99C2945.07,868.17,2935.05,853.09,2923.39,858.26z"/>
	<path class="st60" d="M2175.12,1812.66c7.1-20.14,14.92-39.97,23.04-59.7c8.14-19.71,16.62-39.28,25.45-58.7
		c8.79-19.43,17.83-38.76,27.3-57.88c4.65-9.6,9.41-19.15,14.24-28.66c4.78-9.54,9.73-18.99,14.73-28.42
		c19.79-37.82,40.82-74.98,62.69-111.65c22-36.6,45.17-72.49,69.09-107.86c48.09-70.58,100.51-138.33,158.04-201.53l21.85-23.43
		c7.33-7.77,14.98-15.23,22.45-22.86l11.27-11.38l11.61-11.04c7.82-7.27,15.49-14.7,23.43-21.84
		c31.76-28.56,64.86-55.58,99.44-80.53c0.65-0.47,1.57-0.33,2.04,0.33c0.46,0.63,0.33,1.5-0.26,1.99l-0.02,0.02
		c-33.04,26.78-65.15,54.58-95.57,84.19c-30.1,29.92-59.61,60.4-87.31,92.53c-55.74,63.94-106.77,131.88-154.12,202.25
		c-23.68,35.19-46.38,71.05-68.35,107.35c-21.93,36.33-43,73.17-63.55,110.32c-40.92,74.38-79.48,150.18-114.75,227.57l-0.01,0.03
		c-0.33,0.73-1.2,1.06-1.94,0.72C2175.2,1814.16,2174.87,1813.37,2175.12,1812.66z"/>
</g>
<g class="st58">
	<path class="st61" d="M2143.97,1856.41c0,0,71.66-280.96,463.61-318.75c261.55-25.21,344.69-89.18,369.12-117.32
		c2.85-3.28,8.2-0.84,7.54,3.45c-8.14,53.04-52.26,216.94-289.78,312.68C2408.21,1851.86,2264.8,1761.14,2143.97,1856.41z"/>
	<path class="st60" d="M2164.6,1802.14c24.15-23.75,50.96-44.52,78.81-63.8c13.97-9.58,28.22-18.8,42.92-27.3
		c14.64-8.59,29.56-16.75,44.84-24.24c15.24-7.56,30.89-14.32,46.65-20.83c15.86-6.28,31.98-11.95,48.36-16.83
		c4.1-1.21,8.17-2.51,12.29-3.64l12.41-3.27c8.23-2.35,16.68-3.88,25.03-5.75c8.42-1.6,16.86-3.08,25.33-4.42l12.76-1.69l6.38-0.84
		l6.41-0.58l12.83-1.13c4.27-0.44,8.58-0.44,12.86-0.68l12.87-0.51l12.89,0.13c8.6-0.07,17.18,0.69,25.75,1.21l12.59,0.88
		l12.38,0.92c8.25,0.42,16.51,0.8,24.77,0.98c8.25-0.01,16.52,0.26,24.76-0.05c16.51-0.22,32.95-1.53,49.27-3.66
		c32.64-4.12,64.78-12.55,94.5-26.6c7.34-3.66,14.65-7.44,21.57-11.87c6.98-4.34,13.75-9.04,20.12-14.25
		c6.42-5.16,12.44-10.81,18.06-16.86c5.56-6.04,10.86-12.61,14.82-19.68l0.06-0.11c0.39-0.7,1.28-0.95,1.98-0.56
		c0.66,0.37,0.92,1.18,0.62,1.86c-3.51,8-8.22,15.08-13.38,21.94c-5.17,6.83-11.04,13.11-17.24,19.03
		c-12.36,11.94-26.62,21.76-41.52,30.31c-14.99,8.44-30.91,15.15-47.2,20.57c-16.3,5.44-33.01,9.61-49.93,12.38
		c-16.9,2.85-33.94,4.85-51.01,5.72c-17.08,1.17-34.17,0.89-51.22,0.41l-12.77-0.66l-12.57-0.59c-8.2-0.3-16.38-0.86-24.59-0.59
		l-12.3,0.06l-12.3,0.58c-4.1,0.26-8.2,0.28-12.29,0.74l-12.26,1.18c-32.71,3.31-64.99,10.42-96.69,19.51
		c-31.67,9.28-62.74,20.86-93,34.45c-7.58,3.36-15.09,6.91-22.61,10.41c-7.46,3.65-14.95,7.25-22.3,11.14
		c-14.73,7.7-29.44,15.54-43.81,24.01c-14.35,8.49-28.69,17.07-42.64,26.28c-14.03,9.08-27.9,18.54-41.33,28.51l-0.04,0.03
		c-0.65,0.48-1.56,0.35-2.05-0.3C2164.01,1803.46,2164.09,1802.64,2164.6,1802.14z"/>
</g>
<g>
	<polygon class="st6" points="1112.83,612.88 1108.62,605.19 1404.1,443.75 1678.78,564.49 1914.64,333.13 1915.1,332.86 
		2192.04,169.42 2196.49,176.97 1920.01,340.14 1680.69,574.89 1404.52,453.5 	"/>
	<path class="st6" d="M1142.5,609.04c0,17.55-14.23,31.78-31.78,31.78c-17.55,0-31.78-14.23-31.78-31.78
		c0-17.55,14.23-31.78,31.78-31.78C1128.28,577.26,1142.5,591.48,1142.5,609.04z"/>
	
		<ellipse transform="matrix(0.2298 -0.9732 0.9732 0.2298 645.044 1712.2944)" class="st6" cx="1404.31" cy="448.62" rx="31.78" ry="31.78"/>
	
		<ellipse transform="matrix(0.7071 -0.7071 0.7071 0.7071 93.432 1352.8372)" class="st6" cx="1679.73" cy="563.64" rx="31.78" ry="31.78"/>
	<circle class="st6" cx="1909.76" cy="336.64" r="31.78"/>
	
		<ellipse transform="matrix(0.3827 -0.9239 0.9239 0.3827 1194.5444 2134.1562)" class="st6" cx="2194.27" cy="173.2" rx="31.78" ry="31.78"/>
</g>
<g>
	<g>
		
			<linearGradient id="SVGID_00000087395095988126755850000005062060212677537921_" gradientUnits="userSpaceOnUse" x1="1936.5541" y1="1407.9373" x2="2057.7532" y2="1267.2599">
			<stop  offset="0" style="stop-color:#E1473D"/>
			<stop  offset="1" style="stop-color:#E9605A"/>
		</linearGradient>
		<circle style="fill:url(#SVGID_00000087395095988126755850000005062060212677537921_);" cx="2060.2" cy="1264.42" r="90.36"/>
		
			<linearGradient id="SVGID_00000098926948377674280510000004491264804015563967_" gradientUnits="userSpaceOnUse" x1="2126.2388" y1="1164.6549" x2="1767.8495" y2="1706.0787">
			<stop  offset="0" style="stop-color:#FF928E"/>
			<stop  offset="1" style="stop-color:#FEB3B1"/>
		</linearGradient>
		<circle style="fill:url(#SVGID_00000098926948377674280510000004491264804015563967_);" cx="2060.2" cy="1264.42" r="87.35"/>
		<path class="st98" d="M1988.17,1231.05c-0.44,0-0.89-0.1-1.31-0.31c-1.44-0.73-2.02-2.48-1.29-3.92
			c14.31-28.35,42.91-45.96,74.64-45.96c5.06,0,10.13,0.46,15.07,1.36c1.59,0.29,2.64,1.81,2.35,3.39c-0.29,1.59-1.8,2.65-3.4,2.35
			c-4.59-0.83-9.31-1.26-14.02-1.26c-29.51,0-56.11,16.38-69.42,42.74C1990.26,1230.47,1989.24,1231.05,1988.17,1231.05z"/>
		<circle class="st99" cx="2062.1" cy="1266.32" r="73.93"/>
		<g>
			
				<linearGradient id="SVGID_00000170245966969029699830000005770372666684804789_" gradientUnits="userSpaceOnUse" x1="2115.5476" y1="1180.1686" x2="1924.7133" y2="1500.5477">
				<stop  offset="0" style="stop-color:#E1473D"/>
				<stop  offset="1" style="stop-color:#E9605A"/>
			</linearGradient>
			<path style="fill:url(#SVGID_00000170245966969029699830000005770372666684804789_);" d="M2054.85,1321.29v-8.04
				c-8.39-0.34-16.68-2.31-22.57-4.89c-2.1-0.92-3.18-3.28-2.57-5.5l2.04-7.49c0.75-2.75,3.74-4.17,6.37-3.07
				c5.84,2.45,13.06,4.39,20.84,4.39c8.08,0,14.1-2.74,14.1-8.35c0-5.06-4.65-8.08-15.88-11.09c-16.02-4.38-27.52-11.36-27.52-25.46
				c0-12.73,9.31-22.45,25.46-25.05v-8.04c0-2.59,2.1-4.69,4.69-4.69h4.73c2.59,0,4.69,2.1,4.69,4.69v7.22
				c7.76,0.31,13.41,1.64,17.89,3.21c2.3,0.81,3.55,3.28,2.91,5.63l-1.88,6.93c-0.72,2.67-3.58,4.14-6.17,3.16
				c-4.13-1.56-9.96-3.19-17.55-3.19c-9.58,0-12.32,3.97-12.32,7.53c0,4.38,5.75,7.39,18.21,11.23
				c17.8,5.34,25.19,12.73,25.19,26.01c0,12.18-9.03,23.13-26.56,25.87v9c0,2.59-2.1,4.69-4.69,4.69h-4.73
				C2056.95,1325.97,2054.85,1323.87,2054.85,1321.29z"/>
		</g>
	</g>
	<g>
		
			<linearGradient id="SVGID_00000168115141264041553300000007013519439372553615_" gradientUnits="userSpaceOnUse" x1="2102.1599" y1="1407.1056" x2="2313.1467" y2="1162.2106">
			<stop  offset="0" style="stop-color:#E1473D"/>
			<stop  offset="1" style="stop-color:#E9605A"/>
		</linearGradient>
		<circle style="fill:url(#SVGID_00000168115141264041553300000007013519439372553615_);" cx="2317.41" cy="1157.26" r="157.3"/>
		
			<linearGradient id="SVGID_00000013901500545908743380000009616696215274645677_" gradientUnits="userSpaceOnUse" x1="2432.3682" y1="983.5929" x2="1808.4742" y2="1926.1185">
			<stop  offset="0" style="stop-color:#FF928E"/>
			<stop  offset="1" style="stop-color:#FEB3B1"/>
		</linearGradient>
		<circle style="fill:url(#SVGID_00000013901500545908743380000009616696215274645677_);" cx="2317.41" cy="1157.26" r="152.07"/>
		<path class="st98" d="M2192.01,1097.02c-0.44,0-0.89-0.1-1.31-0.31c-1.44-0.73-2.02-2.48-1.29-3.92
			c24.54-48.61,73.59-78.81,128-78.81c8.68,0,17.38,0.78,25.85,2.33c1.59,0.29,2.64,1.81,2.35,3.4c-0.29,1.59-1.81,2.66-3.4,2.35
			c-8.12-1.48-16.47-2.23-24.8-2.23c-52.2,0-99.25,28.97-122.79,75.6C2194.11,1096.43,2193.08,1097.02,2192.01,1097.02z"/>
		<circle class="st99" cx="2320.72" cy="1160.58" r="128.71"/>
		<g>
			
				<linearGradient id="SVGID_00000138548347211359337680000016094982560131784596_" gradientUnits="userSpaceOnUse" x1="2413.7566" y1="1010.5991" x2="2081.5461" y2="1568.3258">
				<stop  offset="0" style="stop-color:#E1473D"/>
				<stop  offset="1" style="stop-color:#E9605A"/>
			</linearGradient>
			<path style="fill:url(#SVGID_00000138548347211359337680000016094982560131784596_);" d="M2308.09,1256.26v-14
				c-14.6-0.58-29.04-4.03-39.29-8.52c-3.66-1.6-5.53-5.71-4.48-9.57l3.56-13.04c1.3-4.78,6.51-7.26,11.08-5.34
				c10.17,4.26,22.73,7.64,36.28,7.64c14.06,0,24.55-4.77,24.55-14.54c0-8.82-8.1-14.06-27.64-19.3
				c-27.88-7.63-47.9-19.78-47.9-44.32c0-22.16,16.21-39.08,44.32-43.61v-14c0-4.51,3.65-8.16,8.16-8.16h8.23
				c4.51,0,8.16,3.65,8.16,8.16v12.57c13.51,0.54,23.34,2.85,31.14,5.59c4,1.4,6.18,5.71,5.07,9.8l-3.27,12.06
				c-1.26,4.65-6.23,7.2-10.74,5.49c-7.18-2.72-17.34-5.55-30.54-5.55c-16.68,0-21.45,6.91-21.45,13.11
				c0,7.63,10.01,12.87,31.69,19.54c30.98,9.29,43.85,22.16,43.85,45.28c0,21.21-15.73,40.27-46.23,45.04v15.67
				c0,4.51-3.65,8.16-8.16,8.16h-8.23C2311.74,1264.42,2308.09,1260.77,2308.09,1256.26z"/>
		</g>
	</g>
	<g>
		
			<linearGradient id="SVGID_00000103266996887485836270000005134506804907764144_" gradientUnits="userSpaceOnUse" x1="2219.6355" y1="1671.8297" x2="2381.2798" y2="1484.207">
			<stop  offset="0" style="stop-color:#E1473D"/>
			<stop  offset="1" style="stop-color:#E9605A"/>
		</linearGradient>
		<circle style="fill:url(#SVGID_00000103266996887485836270000005134506804907764144_);" cx="2384.54" cy="1480.42" r="120.51"/>
		
			<linearGradient id="SVGID_00000122706967824474152000000007399849464386598314_" gradientUnits="userSpaceOnUse" x1="2472.6194" y1="1347.3618" x2="1994.6331" y2="2069.4629">
			<stop  offset="0" style="stop-color:#FF928E"/>
			<stop  offset="1" style="stop-color:#FEB3B1"/>
		</linearGradient>
		<circle style="fill:url(#SVGID_00000122706967824474152000000007399849464386598314_);" cx="2384.54" cy="1480.42" r="116.5"/>
		<path class="st98" d="M2288.47,1434.2c-0.33,0-0.66-0.07-0.98-0.23c-1.07-0.54-1.5-1.85-0.96-2.92
			c18.79-37.22,56.34-60.35,98.01-60.35c6.65,0,13.31,0.6,19.79,1.78c1.18,0.21,1.97,1.35,1.75,2.53c-0.22,1.18-1.34,1.97-2.53,1.75
			c-6.23-1.13-12.63-1.71-19.01-1.71c-40.02,0-76.08,22.21-94.13,57.96C2290.04,1433.76,2289.27,1434.2,2288.47,1434.2z"/>
		
			<ellipse transform="matrix(0.2323 -0.9726 0.9726 0.2323 390.102 3460.1736)" class="st99" cx="2387.08" cy="1482.96" rx="98.61" ry="98.61"/>
		<g>
			
				<linearGradient id="SVGID_00000161589962574030856090000001962316155201624203_" gradientUnits="userSpaceOnUse" x1="2458.3606" y1="1368.0524" x2="2203.8425" y2="1795.3458">
				<stop  offset="0" style="stop-color:#E1473D"/>
				<stop  offset="1" style="stop-color:#E9605A"/>
			</linearGradient>
			<path style="fill:url(#SVGID_00000161589962574030856090000001962316155201624203_);" d="M2377.41,1556.26v-10.73
				c-11.18-0.45-22.25-3.09-30.1-6.53c-2.81-1.23-4.24-4.38-3.43-7.33l2.73-9.99c1-3.67,4.99-5.56,8.49-4.09
				c7.79,3.27,17.42,5.85,27.79,5.85c10.77,0,18.8-3.65,18.8-11.14c0-6.75-6.21-10.77-21.18-14.79
				c-21.36-5.84-36.7-15.15-36.7-33.96c0-16.98,12.42-29.94,33.96-33.41v-10.73c0-3.45,2.8-6.25,6.25-6.25h6.3
				c3.45,0,6.25,2.8,6.25,6.25v9.63c10.35,0.41,17.88,2.18,23.86,4.28c3.06,1.08,4.74,4.38,3.89,7.51l-2.51,9.24
				c-0.97,3.56-4.78,5.52-8.23,4.21c-5.5-2.08-13.29-4.25-23.4-4.25c-12.78,0-16.43,5.29-16.43,10.04c0,5.84,7.67,9.86,24.28,14.97
				c23.73,7.12,33.59,16.98,33.59,34.69c0,16.25-12.05,30.85-35.42,34.51v12.01c0,3.45-2.8,6.25-6.25,6.25h-6.3
				C2380.21,1562.51,2377.41,1559.71,2377.41,1556.26z"/>
		</g>
	</g>
	<g class="st107">
		
			<linearGradient id="SVGID_00000045608521821408695200000004948374389658302650_" gradientUnits="userSpaceOnUse" x1="2471.251" y1="1476.4795" x2="2630.3208" y2="1291.8452">
			<stop  offset="0" style="stop-color:#E1473D"/>
			<stop  offset="1" style="stop-color:#E9605A"/>
		</linearGradient>
		
			<circle style="display:inline;fill:url(#SVGID_00000045608521821408695200000004948374389658302650_);" cx="2633.53" cy="1288.12" r="118.59"/>
		
			<linearGradient id="SVGID_00000077290663295952783510000001747735977965820292_" gradientUnits="userSpaceOnUse" x1="2720.2053" y1="1157.1799" x2="2249.8323" y2="1867.7792">
			<stop  offset="0" style="stop-color:#FF928E"/>
			<stop  offset="1" style="stop-color:#FEB3B1"/>
		</linearGradient>
		
			<circle style="display:inline;fill:url(#SVGID_00000077290663295952783510000001747735977965820292_);" cx="2633.53" cy="1288.12" r="114.65"/>
		<path class="st110" d="M2538.99,1243.41c-0.44,0-0.89-0.1-1.31-0.31c-1.44-0.73-2.02-2.48-1.29-3.92
			c18.62-36.9,55.85-59.81,97.15-59.81c6.58,0,13.18,0.59,19.62,1.77c1.59,0.29,2.64,1.81,2.35,3.39c-0.29,1.59-1.8,2.66-3.4,2.35
			c-6.09-1.11-12.34-1.67-18.57-1.67c-39.08,0-74.31,21.69-91.93,56.6C2541.09,1242.82,2540.06,1243.41,2538.99,1243.41z"/>
		
			<ellipse transform="matrix(0.7071 -0.7071 0.7071 0.7071 -140.5261 2241.968)" class="st111" cx="2636.03" cy="1290.61" rx="97.04" ry="97.04"/>
		<g class="st112">
			
				<linearGradient id="SVGID_00000084528319905538639030000011696280559253702792_" gradientUnits="userSpaceOnUse" x1="2706.1738" y1="1177.5405" x2="2455.7097" y2="1598.0283">
				<stop  offset="0" style="stop-color:#E1473D"/>
				<stop  offset="1" style="stop-color:#E9605A"/>
			</linearGradient>
			<path style="fill:url(#SVGID_00000084528319905538639030000011696280559253702792_);" d="M2626.51,1362.75v-10.56
				c-11.01-0.44-21.89-3.04-29.62-6.42c-2.76-1.21-4.17-4.31-3.38-7.21l2.68-9.83c0.98-3.61,4.91-5.47,8.36-4.03
				c7.67,3.22,17.14,5.76,27.35,5.76c10.6,0,18.51-3.59,18.51-10.96c0-6.65-6.11-10.6-20.84-14.55
				c-21.02-5.75-36.11-14.91-36.11-33.42c0-16.71,12.22-29.47,33.42-32.88v-10.56c0-3.4,2.75-6.15,6.15-6.15h6.2
				c3.4,0,6.15,2.75,6.15,6.15v9.48c10.18,0.41,17.6,2.15,23.48,4.22c3.01,1.06,4.66,4.31,3.82,7.39l-2.47,9.09
				c-0.95,3.51-4.7,5.43-8.1,4.14c-5.42-2.05-13.07-4.18-23.03-4.18c-12.58,0-16.17,5.21-16.17,9.88c0,5.75,7.55,9.7,23.9,14.73
				c23.36,7.01,33.06,16.71,33.06,34.14c0,15.99-11.86,30.36-34.85,33.96v11.81c0,3.4-2.75,6.15-6.15,6.15h-6.2
				C2629.26,1368.9,2626.51,1366.15,2626.51,1362.75z"/>
		</g>
	</g>
</g>
<path class="st3" d="M2880.44,1872H319.56c-2.06,0-3.75-1.69-3.75-3.75v-3.8c0-2.06,1.69-3.75,3.75-3.75h2560.88
	c2.06,0,3.75,1.69,3.75,3.75v3.8C2884.19,1870.32,2882.5,1872,2880.44,1872z"/>
<g>
	<g>
		<g>
			<path class="st4" d="M806.49,1511.85l-1.88,12.3l-12.35,80.65l-40.33,263.43c-0.41,2.73-1.78,5.1-3.71,6.79
				c-1.94,1.69-4.45,2.7-7.16,2.7c-6.29,0-11.31-5.34-10.99-11.74c3.32-67.46,19.43-217.03,31.13-301.5
				c2.28-16.51,4.4-30.54,6.22-40.98c1.93-11.08,3.53-18.12,4.64-19.8L806.49,1511.85z"/>
			<path class="st4" d="M1053.87,1865.98c0.31,6.4-4.71,11.74-11,11.74c-2.71,0-5.22-1.01-7.15-2.7c-1.94-1.69-3.3-4.06-3.72-6.79
				l-1.51-9.89l-49.58-323.87l-1.11-7.29l-2.35-15.33l34.42-8.15c1.24,1.88,3.11,10.55,5.39,24.13
				c3.38,20.31,7.67,51.62,12.11,87.65c2.76,22.35,5.58,46.51,8.29,71c5.09,46.02,9.78,93.17,12.91,131.47
				c1.4,17.17,2.49,32.56,3.16,45.28C1053.78,1864.16,1053.83,1865.08,1053.87,1865.98z"/>
			
				<linearGradient id="SVGID_00000000903778123433603100000007947797806463017118_" gradientUnits="userSpaceOnUse" x1="826.1561" y1="1802.7482" x2="872.0597" y2="1582.4111">
				<stop  offset="0" style="stop-color:#E1473D"/>
				<stop  offset="1" style="stop-color:#E9605A"/>
			</linearGradient>
			<path style="fill:url(#SVGID_00000000903778123433603100000007947797806463017118_);" d="M1056.77,1490.39l-0.13,2.56
				c-1.02,19.76-18.45,35.2-39.38,34.88h-0.09l-37.37-0.65l-3.09-0.05l-172.1-2.98l-37.19-0.65l-2.41-0.04
				c-21.28-0.37-38.27-16.87-38.09-36.97l0.03-2.8c0.18-20.4,17.96-36.74,39.55-36.35l16.53,0.3l149.95,2.74l85.79,1.57
				c17.94,0.33,32.74,12.1,36.89,27.71C1056.56,1483.08,1056.96,1486.68,1056.77,1490.39z"/>
		</g>
		<g>
			<g>
				
					<linearGradient id="SVGID_00000045603086677935010490000013475081560717097617_" gradientUnits="userSpaceOnUse" x1="1143.98" y1="1855.885" x2="1326.828" y2="1855.885">
					<stop  offset="0" style="stop-color:#4042E2"/>
					<stop  offset="1" style="stop-color:#4F52FF"/>
				</linearGradient>
				<path style="fill:url(#SVGID_00000045603086677935010490000013475081560717097617_);" d="M1319.12,1862.6h-158.58
					c-4.82,0-9.07-2.01-12.1-5.18c-2.18-2.26-3.74-5.12-4.46-8.25c4.33,1.74,11.24,3.57,22.39,4.98c6.34,0.81,14.06,1.48,23.44,1.92
					c7.97,0.38,17.14,0.6,27.7,0.6c6.33,0,12.45-0.04,18.35-0.1c14.66-0.17,27.99-0.52,39.82-0.97c23.02-0.86,40.38-2.07,50.88-2.93
					C1327.83,1857.39,1324.46,1862.6,1319.12,1862.6z"/>
				
					<linearGradient id="SVGID_00000164513428581641909770000000442543862638334094_" gradientUnits="userSpaceOnUse" x1="1285.5858" y1="1499.1011" x2="1234.9117" y2="1849.2133">
					<stop  offset="0" style="stop-color:#09005D"/>
					<stop  offset="1" style="stop-color:#1A0F91"/>
				</linearGradient>
				<path style="fill:url(#SVGID_00000164513428581641909770000000442543862638334094_);" d="M1326.56,1852.67
					c-10.5,0.86-27.86,2.07-50.88,2.93c-11.83,0.45-25.16,0.8-39.82,0.97c-5.9,0.06-12.02,0.1-18.35,0.1
					c-10.56,0-19.73-0.22-27.7-0.6c-9.38-0.44-17.1-1.11-23.44-1.92c-11.15-1.41-18.06-3.24-22.39-4.98
					c-0.65-2.83-0.64-5.88,0.27-8.93l8.86-29.96c0.51,0.08,1.01,0.15,1.51,0.22c17.45,2.58,30.46,2.73,44.48,2.1
					c13.56-0.59,28.08-1.9,48.49-2.45c0.49-0.01,0.99-0.03,1.49-0.03c2.01-0.06,4.09-0.1,6.22-0.13c0.2,0,0.4-0.01,0.6-0.01
					c10.72-0.15,20.52,2.35,29.28,6.34c18.21,8.28,31.92,22.99,40.08,33.6C1325.92,1850.79,1326.3,1851.72,1326.56,1852.67z"/>
			</g>
			
				<linearGradient id="SVGID_00000052100740442871744240000001042905389975059125_" gradientUnits="userSpaceOnUse" x1="1153.11" y1="1799.7195" x2="1202.5901" y2="1799.7195">
				<stop  offset="0" style="stop-color:#FF928E"/>
				<stop  offset="1" style="stop-color:#FEB3B1"/>
			</linearGradient>
			<path style="fill:url(#SVGID_00000052100740442871744240000001042905389975059125_);" d="M1202.59,1785.25l-0.66,5.17l-0.67,5.27
				l-2.16,16.91l-0.68,5.34c-21.2,8.98-45.31-2.21-45.31-2.21l1.51-5.23l7.46-25.88l1.91-6.61l10.45,1.96L1202.59,1785.25z"/>
			<g>
				
					<linearGradient id="SVGID_00000040570882367354627870000006671251037308937892_" gradientUnits="userSpaceOnUse" x1="1096.9246" y1="1818.949" x2="1244.553" y2="1818.949" gradientTransform="matrix(1 0 0 1 333.8425 0)">
					<stop  offset="0" style="stop-color:#4042E2"/>
					<stop  offset="1" style="stop-color:#4F52FF"/>
				</linearGradient>
				<path style="fill:url(#SVGID_00000040570882367354627870000006671251037308937892_);" d="M1492.67,1832.91
					c-34.94,28.62-52.8,38.24-61.9,41.13c5.93,4.72,14.67,5.13,21.12-0.16l123.62-101.25c4.16-3.41,3.6-9.61-0.28-12.45
					C1562.05,1772.87,1533.66,1799.34,1492.67,1832.91z"/>
				
					<linearGradient id="SVGID_00000065040724976948470140000006526874188050399392_" gradientUnits="userSpaceOnUse" x1="1199.0905" y1="1534.741" x2="1148.2993" y2="1885.6625" gradientTransform="matrix(1 0 0 1 333.8425 0)">
					<stop  offset="0" style="stop-color:#09005D"/>
					<stop  offset="1" style="stop-color:#1A0F91"/>
				</linearGradient>
				<path style="fill:url(#SVGID_00000065040724976948470140000006526874188050399392_);" d="M1575.23,1760.18
					c-0.78-0.57-1.65-1.06-2.69-1.31c-19.03-4.48-53.04-8.15-78.49,13.3c-37.27,31.41-47.14,46.33-79.95,65.87l11.41,28.9
					c1.16,2.95,3.02,5.32,5.26,7.1c9.1-2.89,26.96-12.51,61.9-41.13C1533.66,1799.34,1562.05,1772.87,1575.23,1760.18z"/>
			</g>
			
				<linearGradient id="SVGID_00000109014193172869278260000000206429183328687525_" gradientUnits="userSpaceOnUse" x1="1073.303" y1="1475.4701" x2="1035.5763" y2="1652.0315">
				<stop  offset="0" style="stop-color:#09005D"/>
				<stop  offset="1" style="stop-color:#1A0F91"/>
			</linearGradient>
			<path style="fill:url(#SVGID_00000109014193172869278260000000206429183328687525_);" d="M1269.27,1493.62
				c-3.87,43.95-13.14,96.84-23.23,145.88c-15.47,75.14-32.89,141.26-35.89,152.47c-0.29,1.1-0.44,1.67-0.44,1.67
				s-2.73,1.34-8.45,2.05c-7.68,0.96-20.76,0.79-39.88-5.27c0,0,0.25-2.04,0.7-5.8c0.34-2.79,0.78-6.52,1.3-11.08
				c4.84-42.16,16.72-154.53,16.14-235.76c-0.16-22.57-1.28-42.74-3.78-58.33c-1.41-8.75-3.26-16.06-5.61-21.54l-258.78-43.14
				l-31.8-5.3l16.18-19.19l35.49-42.1c0,0,224.98,18.73,305.21,42.17c7.4,2.16,13.56,4.36,18.21,6.59
				C1271.08,1404.83,1273.69,1443.4,1269.27,1493.62z"/>
			
				<linearGradient id="SVGID_00000041975284185568803160000018237712312903948698_" gradientUnits="userSpaceOnUse" x1="1053.598" y1="1803.9617" x2="1112.6621" y2="1803.9617" gradientTransform="matrix(1 0 0 1 333.8425 0)">
				<stop  offset="0" style="stop-color:#FF928E"/>
				<stop  offset="1" style="stop-color:#FEB3B1"/>
			</linearGradient>
			<path style="fill:url(#SVGID_00000041975284185568803160000018237712312903948698_);" d="M1387.44,1786.02
				c2.49,2.32,26.66,52.01,26.66,52.01s26.91-5.94,32.4-23.3l-24.21-44.86L1387.44,1786.02z"/>
			
				<linearGradient id="SVGID_00000047036939748942312360000003217111262571714956_" gradientUnits="userSpaceOnUse" x1="1155.8588" y1="1199.0388" x2="1121.0076" y2="1420.2675">
				<stop  offset="0" style="stop-color:#09005D"/>
				<stop  offset="1" style="stop-color:#1A0F91"/>
			</linearGradient>
			<path style="fill:url(#SVGID_00000047036939748942312360000003217111262571714956_);" d="M1428.2,1780.84
				c-0.11,0.09-0.22,0.16-0.34,0.24l-25.36,16.33c-2.31,1.49-4.91,2.23-7.49,2.25H1395c-3.75,0.05-7.46-1.39-10.26-4.23
				c-26.44-26.74-49.75-51.49-70.31-74.36c-1.65-1.83-3.28-3.65-4.88-5.45c-10.23-11.47-19.75-22.45-28.62-32.95
				c-12.98-15.39-24.56-29.77-34.89-43.17c-33.82-43.88-54.22-77.33-66.52-101.72c-9.15-18.12-13.83-31.23-16.22-39.91
				c0-0.01,0-0.01,0-0.01c-0.22-0.78-0.41-1.52-0.59-2.22c-1.68-6.62-7.35-11.35-14.05-11.66l-93-4.32l-108.59-5.05l-115.66-5.38
				c-18.79-0.95-35.81-9.02-48.38-21.59c-13.27-13.27-21.59-31.55-21.84-51.79c-0.28-21.87,4.81-39.59,7.19-46.65
				c0.73-2.15,1.2-3.31,1.2-3.31l96.75,1.37l64.89,0.92l270.4,70.46c4.28,1.11,8.42,2.62,12.37,4.5
				c12.8,6.04,23.65,15.87,31.07,28.34l24.21,42.14l41.99,73.1l24.14,42.03v0.01l24.92,43.36l69.46,120.92
				C1431.3,1775.69,1430.59,1779.06,1428.2,1780.84z"/>
			
				<linearGradient id="SVGID_00000028286963849439848130000008553142080454876606_" gradientUnits="userSpaceOnUse" x1="1109.3622" y1="914.2768" x2="1200.2001" y2="859.1785">
				<stop  offset="0" style="stop-color:#FF928E"/>
				<stop  offset="1" style="stop-color:#FEB3B1"/>
			</linearGradient>
			<path style="fill:url(#SVGID_00000028286963849439848130000008553142080454876606_);" d="M1137.63,850.8
				c0,0-89.38,54.04-124.03,83.72l71.62,40.74c0,0,38.7-45.57,75.57-64.57L1137.63,850.8z"/>
			
				<linearGradient id="SVGID_00000170271142119066669490000012254394610899825324_" gradientUnits="userSpaceOnUse" x1="1079.6647" y1="1192.4771" x2="887.9288" y2="1670.0732">
				<stop  offset="0" style="stop-color:#09005D"/>
				<stop  offset="1" style="stop-color:#1A0F91"/>
			</linearGradient>
			<path style="fill:url(#SVGID_00000170271142119066669490000012254394610899825324_);" d="M1326.35,1258.44l-2.08,4.74l-0.37,0.84
				l-0.73,1.67l-0.02,0.03l-3.93,8.97l-1.63,3.71c-1.05-0.11-2.1-0.22-3.15-0.33c-7.93-0.89-15.64-2.02-23.12-3.38
				c-13.24-2.39-25.79-5.47-37.65-9.1h-0.01c-112.49-34.31-163.79-116.84-163.79-116.84c-44.26,42.67-158.65,199.43-158.65,199.43
				c-19.51,5.08-39.23,7.73-57.97,8.83c-49.06,2.88-91.31-4.92-104.87-7.81c-2.96-0.62-4.56-1.02-4.56-1.02
				c5.24-33.51,12.41-64.75,21.03-93.83c62.6-211.29,201.74-308.12,234.42-328.43c2.17-1.35,4.66-1.87,7.06-1.59
				c2.06,0.22,4.07,1.04,5.77,2.42c6.76,5.48,19.82,15.5,41.64,30.18c5.82,3.92,11.1,8.24,16.04,13.16
				c24.77,24.64,40.86,63.94,72.97,139.25c29.62,69.46,110.44,120.27,146.19,140.02C1319.68,1255.3,1326.35,1258.44,1326.35,1258.44
				z"/>
			<g>
				
					<linearGradient id="SVGID_00000168819278051945865910000005393672866174205317_" gradientUnits="userSpaceOnUse" x1="1108.2432" y1="1054.5974" x2="876.9498" y2="1306.3589">
					<stop  offset="0" style="stop-color:#4042E2"/>
					<stop  offset="1" style="stop-color:#4F52FF"/>
				</linearGradient>
				<path style="fill:url(#SVGID_00000168819278051945865910000005393672866174205317_);" d="M1085.22,1142.84
					c0.39,0,0.79-0.13,1.13-0.39c0.82-0.64,0.97-1.83,0.35-2.66c-26.63-35.4-41.92-75.61-42.07-76.02
					c-0.37-0.98-1.44-1.46-2.41-1.09c-0.96,0.37-1.44,1.47-1.07,2.45c0.15,0.41,15.63,41.13,42.59,76.97
					C1084.11,1142.58,1084.66,1142.84,1085.22,1142.84z"/>
			</g>
			
				<linearGradient id="SVGID_00000060007807824242672200000003634126771207619744_" gradientUnits="userSpaceOnUse" x1="974.2949" y1="1246.6316" x2="1110.726" y2="1246.6316" gradientTransform="matrix(1 0 0 1 333.8425 0)">
				<stop  offset="0" style="stop-color:#FF928E"/>
				<stop  offset="1" style="stop-color:#FEB3B1"/>
			</linearGradient>
			<path style="fill:url(#SVGID_00000060007807824242672200000003634126771207619744_);" d="M1308.14,1248.01l17.69-4.81l53.7-12.68
				c6.46-1.53,13.26-0.36,18.87,3.24l46.17,29.61l-127.51-0.22L1308.14,1248.01z"/>
		</g>
		<g>
			<g>
				<path class="st6" d="M1258.88,1288.89c0.21,0.01,0.42,0.02,0.63,0.01l272.4-0.28c6.73-0.01,12.19-5.57,12.18-12.42
					c-0.01-6.85-5.49-12.52-12.21-12.39l-272.4,0.28c-6.73,0.01-12.19,5.57-12.18,12.42
					C1247.3,1283.14,1252.43,1288.56,1258.88,1288.89z"/>
			</g>
			<g>
				<path class="st6" d="M1637.39,1016.95c-0.1,0.19-0.19,0.38-0.28,0.57l-114.61,251.9c-2.83,6.23-0.19,13.61,5.91,16.49
					c6.1,2.88,13.45,0.2,16.17-6.06l114.61-251.9c2.83-6.23,0.19-13.61-5.91-16.49C1647.38,1008.67,1640.39,1011.13,1637.39,1016.95
					z"/>
			</g>
		</g>
		<g>
			<path class="st8" d="M1380.17,1302.82c-1.19,5.02-114.85,439.57-143.67,549.73c-3.32,12.7,5.95,25.16,18.7,25.16l0,0
				c8.89,0,16.63-6.24,18.79-15.14l126.17-521.47L1380.17,1302.82z"/>
			<path class="st8" d="M1442.4,1302.82c1.19,5.02,114.85,439.57,143.67,549.73c3.32,12.7-5.95,25.16-18.7,25.16l0,0
				c-8.89,0-16.63-6.24-18.79-15.14l-126.17-521.47L1442.4,1302.82z"/>
			<path class="st8" d="M1447.14,1288.61h-70.79v57.95c0,8.33,6.54,15.08,14.62,15.08h9.71v1.11c0,6.31,4.95,11.42,11.07,11.42l0,0
				c6.11,0,11.07-5.11,11.07-11.42v-1.11h4.93c10.71,0,19.4-8.96,19.4-20.02V1288.61z"/>
			
				<linearGradient id="SVGID_00000077304288995973389180000006130828762875441318_" gradientUnits="userSpaceOnUse" x1="1424.4493" y1="708.8987" x2="1409.4302" y2="1081.3691">
				<stop  offset="0" style="stop-color:#09005D"/>
				<stop  offset="1" style="stop-color:#1A0F91"/>
			</linearGradient>
			<path style="fill:url(#SVGID_00000077304288995973389180000006130828762875441318_);" d="M1202.3,1274.69h395.26
				c5.52,0,10.35,3.86,11.73,9.37l5.52,22.06c1.99,7.94-3.85,15.67-11.8,15.62l-405.57-2.41c-7.86-0.05-13.6-7.69-11.68-15.55
				l4.8-19.65C1191.91,1278.58,1196.75,1274.69,1202.3,1274.69z"/>
		</g>
	</g>
	<g>
		
			<linearGradient id="SVGID_00000103952859927692682330000009896516782381409157_" gradientUnits="userSpaceOnUse" x1="1202.2467" y1="846.4349" x2="1094.7827" y2="918.0777">
			<stop  offset="0" style="stop-color:#FF928E"/>
			<stop  offset="1" style="stop-color:#FEB3B1"/>
		</linearGradient>
		<path style="fill:url(#SVGID_00000103952859927692682330000009896516782381409157_);" d="M1198.79,829.49
			c0,0,0.83,64.67-9.42,94.04c-10.25,29.37-11.85,50.59-46.79,42.44c-34.93-8.15-55.55-36.42-58.63-71.37c0,0-5.14-54.01,7.52-69.82
			C1104.12,808.98,1198.79,829.49,1198.79,829.49z"/>
		
			<linearGradient id="SVGID_00000150073475375950235330000018112389005529331645_" gradientUnits="userSpaceOnUse" x1="321.2936" y1="-404.6692" x2="455.101" y2="-232.3925" gradientTransform="matrix(0.922 0.3871 -0.3871 0.922 670.7195 1006.2692)">
			<stop  offset="0" style="stop-color:#09005D"/>
			<stop  offset="1" style="stop-color:#1A0F91"/>
		</linearGradient>
		<path style="fill:url(#SVGID_00000150073475375950235330000018112389005529331645_);" d="M1103.54,878.81l4.12,1.76
			c0,0-2.35-42.71,15.11-42.56c17.46,0.15,81.53,13.14,103.06-2.76c20.75-15.33,20.75-46.59,7.44-61.04
			c-0.84-0.91-2.27-0.94-3.22-0.15l-2.43,2.04c-1.67,1.39-4.15,0.01-3.9-2.17l0,0c0.24-2.07-2.04-3.52-3.71-2.31
			c-6.53,4.72-21.36,10.58-51.86,3.79c-43.28-9.63-76.66-4.43-88.96,23.59c-0.78,1.78-3.07,1.96-4.18,0.38
			c-2.21-3.11-6.6-6.01-15.18-3.28c-14.92,4.73-20.51,31.19-4.64,61.71c0.75,1.45-0.01,3.27-1.59,3.57
			c-5.58,1.03-14.96,5.16-1.83,21.63c13.43,16.85,24.1,20.21,28.39,20.85c1.15,0.17,2.25-0.49,2.63-1.61l8.81-25.73
			c0.46-1.33,1.92-1.99,3.19-1.45L1103.54,878.81z"/>
		
			<linearGradient id="SVGID_00000145742500423275829240000008404522609808557742_" gradientUnits="userSpaceOnUse" x1="1180.7926" y1="812.5559" x2="1072.8048" y2="884.5479">
			<stop  offset="0" style="stop-color:#FF928E"/>
			<stop  offset="1" style="stop-color:#FEB3B1"/>
		</linearGradient>
		<path style="fill:url(#SVGID_00000145742500423275829240000008404522609808557742_);" d="M1102.39,884.49
			c0,0,5.48-38.74-13.92-35.52c-19.4,3.22-8.15,42.55,3.67,49.14L1102.39,884.49z"/>
	</g>
</g>
</svg>
