<svg id="Layer_1" data-name="Layer 1" xmlns="http://www.w3.org/2000/svg" xmlns:xlink="http://www.w3.org/1999/xlink" viewBox="0 0 400 300"><defs><linearGradient id="linear-gradient" x1="227.34" y1="200.17" x2="254.07" y2="200.17" gradientUnits="userSpaceOnUse"><stop offset="0" stop-color="#ff7466"/><stop offset="0.59" stop-color="#ed6554"/><stop offset="0.99" stop-color="#de5846"/></linearGradient><linearGradient id="linear-gradient-2" x1="300.29" y1="106.44" x2="304.02" y2="106.44" xlink:href="#linear-gradient"/><linearGradient id="linear-gradient-3" x1="341.08" y1="145.82" x2="373.44" y2="145.82" xlink:href="#linear-gradient"/><linearGradient id="linear-gradient-4" x1="341.08" y1="158.26" x2="343.46" y2="158.26" xlink:href="#linear-gradient"/><linearGradient id="linear-gradient-5" x1="96.57" y1="236.8" x2="102.29" y2="236.8" xlink:href="#linear-gradient"/><linearGradient id="linear-gradient-6" x1="69.01" y1="236.91" x2="78.86" y2="236.91" xlink:href="#linear-gradient"/><linearGradient id="linear-gradient-7" x1="223.27" y1="248.86" x2="269.66" y2="248.86" xlink:href="#linear-gradient"/></defs><title>L</title><path d="M83.67,64.11V166.58a9.24,9.24,0,0,0,9.24,9.24H219.72a9.24,9.24,0,0,0,9.24-9.24V64.11a9.24,9.24,0,0,0-9.24-9.24H92.91A9.24,9.24,0,0,0,83.67,64.11Zm136.17,107h-127a3.42,3.42,0,0,1-3.42-3.42V63a3.42,3.42,0,0,1,3.42-3.42H219.84A3.43,3.43,0,0,1,223.27,63V167.66A3.43,3.43,0,0,1,219.84,171.08Z" style="fill:#fadb96"/><path d="M315.15,231.18a20.91,20.91,0,1,0,20.9,20.9A20.91,20.91,0,0,0,315.15,231.18Zm0,36.61a15.71,15.71,0,1,1,15.71-15.71A15.71,15.71,0,0,1,315.15,267.79Z" style="fill:#fadb96"/><path d="M316.78,112.6v133a6.19,6.19,0,0,1-6.19,6.19H107.8a6.19,6.19,0,0,1-6.19-6.19v-133a14.3,14.3,0,0,1,14.3-14.3H302.49A14.29,14.29,0,0,1,316.78,112.6Z" style="fill:#fbf8ff;stroke:#a6a4f7;stroke-miterlimit:10"/><path d="M316.78,112.6v.6H101.61v-.6a14.3,14.3,0,0,1,14.3-14.3H302.49A14.29,14.29,0,0,1,316.78,112.6Z" style="fill:#0050ff"/><path d="M139.28,124.49H113.45a3.13,3.13,0,0,1-3.13-3.12h0a3.13,3.13,0,0,1,3.13-3.13h25.83a3.13,3.13,0,0,1,3.12,3.13h0A3.12,3.12,0,0,1,139.28,124.49Z" style="fill:#ffb450"/><path d="M234.66,123.83H223.28a1.83,1.83,0,0,1-1.83-1.83h0a1.83,1.83,0,0,1,1.83-1.83h11.38A1.83,1.83,0,0,1,236.5,122h0A1.83,1.83,0,0,1,234.66,123.83Z" style="fill:#6696ff"/><path d="M256.18,123.83H244.8A1.83,1.83,0,0,1,243,122h0a1.83,1.83,0,0,1,1.83-1.83h11.38A1.83,1.83,0,0,1,258,122h0A1.83,1.83,0,0,1,256.18,123.83Z" style="fill:#6696ff"/><path d="M278,123.83H266.64a1.83,1.83,0,0,1-1.83-1.83h0a1.83,1.83,0,0,1,1.83-1.83H278a1.84,1.84,0,0,1,1.84,1.83h0A1.84,1.84,0,0,1,278,123.83Z" style="fill:#6696ff"/><path d="M299.54,123.83H288.16a1.83,1.83,0,0,1-1.83-1.83h0a1.83,1.83,0,0,1,1.83-1.83h11.38a1.83,1.83,0,0,1,1.83,1.83h0A1.83,1.83,0,0,1,299.54,123.83Z" style="fill:#6696ff"/><rect x="120.65" y="143.23" width="88.54" height="57.91" rx="2.16" style="fill:#6696ff"/><rect x="227.34" y="143.23" width="51.18" height="9.13" rx="1.68" style="fill:#6696ff"/><path d="M263.19,163.39H229a1.62,1.62,0,0,1-1.62-1.62h0a1.62,1.62,0,0,1,1.62-1.63h34.23a1.63,1.63,0,0,1,1.62,1.63h0A1.63,1.63,0,0,1,263.19,163.39Z" style="fill:#c2d5ff"/><path d="M297.44,171.23H229a1.62,1.62,0,0,1-1.62-1.63h0A1.62,1.62,0,0,1,229,168h68.48a1.63,1.63,0,0,1,1.62,1.62h0A1.63,1.63,0,0,1,297.44,171.23Z" style="fill:#c2d5ff"/><path d="M297.44,179.07H229a1.62,1.62,0,0,1-1.62-1.63h0a1.62,1.62,0,0,1,1.62-1.62h68.48a1.63,1.63,0,0,1,1.62,1.62h0A1.63,1.63,0,0,1,297.44,179.07Z" style="fill:#c2d5ff"/><path d="M297.44,186.9H229a1.61,1.61,0,0,1-1.62-1.62h0a1.62,1.62,0,0,1,1.62-1.62h68.48a1.63,1.63,0,0,1,1.62,1.62h0A1.62,1.62,0,0,1,297.44,186.9Z" style="fill:#c2d5ff"/><path d="M250.54,203.69H230.87a3.53,3.53,0,0,1-3.53-3.52h0a3.53,3.53,0,0,1,3.53-3.53h19.67a3.53,3.53,0,0,1,3.53,3.53h0A3.53,3.53,0,0,1,250.54,203.69Z" style="fill:url(#linear-gradient)"/><path d="M316.78,223.13v22.46a6.19,6.19,0,0,1-6.19,6.19H107.8a6.19,6.19,0,0,1-6.19-6.19V223.13Z" style="fill:#6696ff"/><path d="M259.6,236.13v15.65H158.8V236.13a3.26,3.26,0,0,1,3.27-3.27h94.25A3.27,3.27,0,0,1,259.6,236.13Z" style="fill:#0050ff"/><path d="M284.1,106.44a1.86,1.86,0,1,1-1.86-1.86A1.86,1.86,0,0,1,284.1,106.44Z" style="fill:#ffb450"/><path d="M294.29,106.44a1.87,1.87,0,1,1-1.87-1.86A1.87,1.87,0,0,1,294.29,106.44Z" style="fill:#ffb450"/><path d="M304,106.44a1.87,1.87,0,1,1-1.87-1.86A1.87,1.87,0,0,1,304,106.44Z" style="fill:url(#linear-gradient-2)"/><path d="M316.78,112.6v133a6.19,6.19,0,0,1-6.19,6.19H107.8a6.19,6.19,0,0,1-6.19-6.19v-133a14.3,14.3,0,0,1,14.3-14.3H302.49A14.29,14.29,0,0,1,316.78,112.6Z" style="fill:none;stroke:#c2d5ff;stroke-miterlimit:10"/><rect x="60.05" y="92.39" width="87.62" height="67.01" rx="2.58" style="fill:#c2d5ff"/><rect x="49.99" y="83.07" width="87.62" height="67" rx="2.58" style="fill:#ffcc4d"/><path d="M137.61,125.05v22.44a2.58,2.58,0,0,1-2.57,2.58H52.56A2.57,2.57,0,0,1,50,147.49V125.9S64.06,101.64,74,101.64c12.44,0,19.51,28.3,25.69,28.3s14.23-19.47,22.41-19.47C127.05,110.47,133.35,118.56,137.61,125.05Z" style="fill:#ffe7b0"/><path d="M126.36,96.93a5.71,5.71,0,1,1-5.71-5.71A5.71,5.71,0,0,1,126.36,96.93Z" style="fill:#ffe7b0"/><rect x="290.56" y="146.02" width="51.05" height="68.2" rx="1.66" style="fill:#6696ff"/><rect x="298.99" y="138.41" width="51.05" height="68.2" rx="1.66" style="fill:#003cbf"/><rect x="307.86" y="145.82" width="33.3" height="4.5" style="fill:#c2d5ff"/><path d="M331.49,199.37H317.54a2.52,2.52,0,0,1-2.52-2.52h0a2.51,2.51,0,0,1,2.52-2.51h13.95a2.51,2.51,0,0,1,2.51,2.51h0A2.51,2.51,0,0,1,331.49,199.37Z" style="fill:#ffcc4d"/><rect x="310.89" y="156.87" width="15.5" height="2.13" rx="0.98" style="fill:#c2d5ff"/><rect x="310.89" y="162.1" width="33.01" height="2.13" rx="0.98" style="fill:#c2d5ff"/><rect x="310.89" y="167.33" width="33.01" height="2.13" rx="0.98" style="fill:#c2d5ff"/><path d="M305.51,157.93a1.06,1.06,0,1,1-1.06-1.06A1.05,1.05,0,0,1,305.51,157.93Z" style="fill:#c2d5ff"/><rect x="310.89" y="174.24" width="15.5" height="2.13" rx="0.98" style="fill:#c2d5ff"/><rect x="310.89" y="179.48" width="33.01" height="2.13" rx="0.98" style="fill:#c2d5ff"/><rect x="310.89" y="184.71" width="33.01" height="2.13" rx="0.98" style="fill:#c2d5ff"/><path d="M305.51,175.31a1.06,1.06,0,1,1-1.06-1.07A1.05,1.05,0,0,1,305.51,175.31Z" style="fill:#c2d5ff"/><path d="M372.46,137,348,157.1a5.53,5.53,0,0,1-.61.43,6,6,0,0,1-1.67.76l-4,1.12a.57.57,0,0,1-.66-.81l1.85-3.66a6.41,6.41,0,0,1,1.05-1.48,5.64,5.64,0,0,1,.56-.53l24.31-20a2.8,2.8,0,0,1,3.82.16A2.7,2.7,0,0,1,372.46,137Z" style="fill:url(#linear-gradient-3)"/><path d="M347.43,157.53a6,6,0,0,1-1.67.76l-2.32.66-1.64.46a.57.57,0,0,1-.66-.81l.77-1.51,1.08-2.15a6.41,6.41,0,0,1,1.05-1.48A4.77,4.77,0,0,1,347.43,157.53Z" style="fill:#ffe7b0"/><path d="M343.44,159l-1.64.46a.57.57,0,0,1-.66-.81l.77-1.51A1.52,1.52,0,0,1,343.44,159Z" style="fill:url(#linear-gradient-4)"/><rect x="200.04" y="44.1" width="70.03" height="50.4" rx="4.01" style="fill:#c2d5ff"/><rect x="194.96" y="38.79" width="70.03" height="50.4" rx="4.01" style="fill:#0050ff"/><path d="M265,79.51v5.66a4,4,0,0,1-4,4H199a4,4,0,0,1-4-4V79.51Z" style="fill:#003cbf"/><path d="M232.15,84.82a2.24,2.24,0,0,0,.39,1.27H201.22a1.27,1.27,0,1,1,0-2.54h31.32A2.24,2.24,0,0,0,232.15,84.82Z" style="fill:#0050ff"/><path d="M243,84.82a1.27,1.27,0,0,1-1.27,1.27h-9.16a2.26,2.26,0,0,1,0-2.54h9.16A1.28,1.28,0,0,1,243,84.82Z" style="fill:#c2d5ff"/><path d="M236.64,84.82a2.24,2.24,0,1,1-.39-1.27A2.24,2.24,0,0,1,236.64,84.82Z" style="fill:#0050ff"/><path d="M235.5,84.82a1.11,1.11,0,1,1-2.21,0,1.11,1.11,0,0,1,2.21,0Z" style="fill:#0050ff"/><path d="M252.42,85.94V83.83a.38.38,0,0,1,.54-.34l2.11,1.06a.37.37,0,0,1,0,.66L253,86.27A.38.38,0,0,1,252.42,85.94Z" style="fill:#c2d5ff"/><path d="M258.11,85.53V84.24c0-.17.14-.28.26-.21l1,.65a.26.26,0,0,1,0,.41l-1,.64C258.25,85.81,258.11,85.7,258.11,85.53Z" style="fill:#c2d5ff"/><path d="M259.49,85.53V84.24c0-.17.14-.28.26-.21l1,.65a.26.26,0,0,1,0,.41l-1,.64C259.63,85.81,259.49,85.7,259.49,85.53Z" style="fill:#c2d5ff"/><path d="M249.82,85.53V84.24c0-.17-.14-.28-.26-.21l-1,.65a.26.26,0,0,0,0,.41l1,.64C249.68,85.81,249.82,85.7,249.82,85.53Z" style="fill:#c2d5ff"/><path d="M248.44,85.53V84.24c0-.17-.14-.28-.26-.21l-1,.65a.26.26,0,0,0,0,.41l1,.64C248.3,85.81,248.44,85.7,248.44,85.53Z" style="fill:#c2d5ff"/><circle cx="229.98" cy="59.79" r="12.48" transform="translate(118.69 269.74) rotate(-76.64)" style="fill:#fbf8ff"/><path d="M226.68,63.63V56a1.08,1.08,0,0,1,1.66-.9l5.9,3.84a1.07,1.07,0,0,1,0,1.79l-5.9,3.84A1.07,1.07,0,0,1,226.68,63.63Z" style="fill:#0050ff"/><rect x="61.23" y="221.64" width="57.81" height="48.17" rx="5.09" style="fill:#c2d5ff"/><rect x="54.77" y="214.82" width="57.81" height="48.17" rx="5.09" style="fill:#fcfaff"/><path d="M79.39,255.36H77.17a.65.65,0,0,1-.64-.8l2.4-10.62a.66.66,0,0,1,.64-.52H83.3a.67.67,0,0,1,.65.81l-2.07,9.15A2.56,2.56,0,0,1,79.39,255.36Z" style="fill:#0050ff"/><path d="M98.68,240.41H96.57v-7.22h2.11a3.61,3.61,0,0,1,3.61,3.61h0A3.61,3.61,0,0,1,98.68,240.41Z" style="fill:url(#linear-gradient-5)"/><path d="M73.18,229.08h5.68a0,0,0,0,1,0,0v15.65a0,0,0,0,1,0,0H73.18A4.17,4.17,0,0,1,69,240.56v-7.31A4.17,4.17,0,0,1,73.18,229.08Z" style="fill:url(#linear-gradient-6)"/><path d="M78.86,229.08l19-3.11a1.55,1.55,0,0,1,1.81,1.53v18.6a1.56,1.56,0,0,1-1.79,1.54l-19-2.91Z" style="fill:#ffe7b0"/><path d="M76.29,232.82H72.48a.43.43,0,0,1-.43-.43h0a.42.42,0,0,1,.43-.42h3.81a.42.42,0,0,1,.42.42h0A.42.42,0,0,1,76.29,232.82Z" style="fill:#ffe7b0"/><path d="M76.29,234.41H72.48a.43.43,0,0,1-.43-.43h0a.42.42,0,0,1,.43-.42h3.81a.42.42,0,0,1,.42.42h0A.42.42,0,0,1,76.29,234.41Z" style="fill:#ffe7b0"/><path d="M230.26,224.27h35.39l9.24,9.33v48.88a1.44,1.44,0,0,1-1.43,1.44H229.94a1.45,1.45,0,0,1-1.44-1.44V226A1.76,1.76,0,0,1,230.26,224.27Z" style="fill:#c2d5ff"/><path d="M225,219h35.38l9.25,9.32v48.89a1.43,1.43,0,0,1-1.44,1.43H224.7a1.43,1.43,0,0,1-1.43-1.43V220.8A1.76,1.76,0,0,1,225,219Z" style="fill:url(#linear-gradient-7)"/><path d="M260.41,219v7.73a1.6,1.6,0,0,0,1.6,1.59h7.65Z" style="fill:#ffe7b0"/><path d="M229,245.94a5.27,5.27,0,0,1,2-2,5.74,5.74,0,0,1,2.87-.72,5.67,5.67,0,0,1,3.25,1,5,5,0,0,1,2,2.64h-2.55a2.62,2.62,0,0,0-1.08-1.19,3.05,3.05,0,0,0-1.59-.4,3.27,3.27,0,0,0-1.72.45,3.11,3.11,0,0,0-1.18,1.28,4.23,4.23,0,0,0-.42,1.94,4.18,4.18,0,0,0,.42,1.92,3.08,3.08,0,0,0,1.18,1.29,3.27,3.27,0,0,0,1.72.45,3.05,3.05,0,0,0,1.59-.4,2.69,2.69,0,0,0,1.08-1.2h2.55a5,5,0,0,1-1.94,2.64,6,6,0,0,1-6.13.22,5.29,5.29,0,0,1-2-2,6.15,6.15,0,0,1,0-5.85Z" style="fill:#fff"/><path d="M253.9,243.34v11.08h-2.22v-7.2l-3,7.2H247l-3-7.2v7.2h-2.22V243.34h2.52l3.53,8.24,3.52-8.24Z" style="fill:#fff"/><path d="M258.62,254.14a3.46,3.46,0,0,1-1.47-1.15,3,3,0,0,1-.55-1.76H259a1.52,1.52,0,0,0,.48,1.08,1.74,1.74,0,0,0,1.2.4,1.82,1.82,0,0,0,1.22-.38,1.19,1.19,0,0,0,.45-1,1.09,1.09,0,0,0-.31-.81,2.1,2.1,0,0,0-.75-.5,13.14,13.14,0,0,0-1.25-.41,14.71,14.71,0,0,1-1.75-.62,3.16,3.16,0,0,1-1.16-.94,2.69,2.69,0,0,1-.48-1.67,3,3,0,0,1,.49-1.72,3.21,3.21,0,0,1,1.38-1.12,5,5,0,0,1,2-.39,4.39,4.39,0,0,1,2.79.84,3.08,3.08,0,0,1,1.18,2.32h-2.44a1.27,1.27,0,0,0-.49-.94,1.81,1.81,0,0,0-1.2-.37,1.56,1.56,0,0,0-1,.33,1.22,1.22,0,0,0-.38,1,1,1,0,0,0,.29.73,2.21,2.21,0,0,0,.73.48q.43.18,1.23.42a11.4,11.4,0,0,1,1.76.64,3.17,3.17,0,0,1,1.18,1,2.69,2.69,0,0,1,.49,1.67,3.21,3.21,0,0,1-.46,1.65,3.32,3.32,0,0,1-1.35,1.21,4.62,4.62,0,0,1-2.11.45A5.33,5.33,0,0,1,258.62,254.14Z" style="fill:#fff"/><path d="M72.42,187.29a1.85,1.85,0,1,1,1.85-1.85A1.85,1.85,0,0,1,72.42,187.29Z" style="fill:#a6a4f7"/><path d="M63.56,187.29a1.85,1.85,0,1,1,1.85-1.85A1.85,1.85,0,0,1,63.56,187.29Z" style="fill:#a6a4f7"/><path d="M54.69,187.29a1.85,1.85,0,1,1,1.85-1.85A1.85,1.85,0,0,1,54.69,187.29Z" style="fill:#a6a4f7"/><path d="M45.83,187.29a1.85,1.85,0,1,1,1.85-1.85A1.85,1.85,0,0,1,45.83,187.29Z" style="fill:#a6a4f7"/><path d="M37,187.29a1.85,1.85,0,1,1,1.85-1.85A1.85,1.85,0,0,1,37,187.29Z" style="fill:#a6a4f7"/><path d="M78,195.18a1.85,1.85,0,1,1,1.85-1.85A1.85,1.85,0,0,1,78,195.18Z" style="fill:#a6a4f7"/><path d="M69.18,195.18A1.85,1.85,0,1,1,71,193.33,1.85,1.85,0,0,1,69.18,195.18Z" style="fill:#a6a4f7"/><path d="M60.32,195.18a1.85,1.85,0,1,1,1.85-1.85A1.85,1.85,0,0,1,60.32,195.18Z" style="fill:#a6a4f7"/><circle cx="51.46" cy="193.33" r="1.85" style="fill:#a6a4f7"/><circle cx="42.59" cy="193.33" r="1.85" style="fill:#a6a4f7"/><circle cx="83.13" cy="201.22" r="1.85" style="fill:#a6a4f7"/><circle cx="74.27" cy="201.22" r="1.85" style="fill:#a6a4f7"/><path d="M65.41,203.07a1.85,1.85,0,1,1,1.85-1.85A1.85,1.85,0,0,1,65.41,203.07Z" style="fill:#a6a4f7"/><path d="M56.54,203.07a1.85,1.85,0,1,1,1.85-1.85A1.85,1.85,0,0,1,56.54,203.07Z" style="fill:#a6a4f7"/><path d="M47.68,203.07a1.85,1.85,0,1,1,1.85-1.85A1.85,1.85,0,0,1,47.68,203.07Z" style="fill:#a6a4f7"/><path d="M169.15,269H139.94a2.08,2.08,0,0,1-2.08-2.08h0a2.09,2.09,0,0,1,2.08-2.09h29.21a2.1,2.1,0,0,1,2.09,2.09h0A2.09,2.09,0,0,1,169.15,269Z" style="fill:#fadb96"/><path d="M169.15,279.42H139.94a2.09,2.09,0,0,1-2.08-2.09h0a2.09,2.09,0,0,1,2.08-2.09h29.21a2.1,2.1,0,0,1,2.09,2.09h0A2.1,2.1,0,0,1,169.15,279.42Z" style="fill:#fadb96"/><path d="M334.22,70.68l6.38-1.2V63.76l-6.38-1.1h0a18.71,18.71,0,0,0-2.7-6.5l3.66-5.37-4-4-5.29,3.73a19.09,19.09,0,0,0-6.51-2.69h0l-1.2-6.38h-5.72l-1.1,6.38h0a18.71,18.71,0,0,0-6.5,2.7h0l-5.36-3.66-4.05,4.05,3.74,5.29a19,19,0,0,0-2.69,6.5h0l-6.38,1.21V69.6l6.38,1.1a18.79,18.79,0,0,0,2.7,6.5l-3.66,5.36,4,4,5.3-3.74a19,19,0,0,0,6.5,2.69h0l1.2,6.38h5.73l1.09-6.38a18.84,18.84,0,0,0,6.51-2.7l5.36,3.66,4-4-3.74-5.3a19,19,0,0,0,2.69-6.5Zm-18.89,7.84a11.84,11.84,0,1,1,11.84-11.85A11.85,11.85,0,0,1,315.33,78.52Z" style="fill:#6696ff"/><path d="M356.24,107.91l3.68,1.29,1.72-3-3-2.49h0a11.34,11.34,0,0,0,.55-4.19l3.51-1.69-.89-3.32L358,94.9a11.44,11.44,0,0,0-2.58-3.36h0l1.29-3.67-3-1.72-2.49,3h0a11.34,11.34,0,0,0-4.19-.55h0l-1.69-3.51L342,86l.36,3.87A11.4,11.4,0,0,0,339,92.41h0l-3.67-1.29-1.72,3,3,2.48a11.42,11.42,0,0,0-.55,4.2l-3.51,1.69.88,3.31,3.88-.35a11.4,11.4,0,0,0,2.57,3.35h0l-1.29,3.68,3,1.72,2.49-3a11.56,11.56,0,0,0,4.19.55l1.69,3.51,3.31-.89-.35-3.87a11.44,11.44,0,0,0,3.35-2.58Zm-12.17-1.59a7.11,7.11,0,1,1,9.71-2.61A7.11,7.11,0,0,1,344.07,106.32Z" style="fill:none;stroke:#fadb96;stroke-miterlimit:10"/></svg>