<svg id="Layer_1" data-name="Layer 1" xmlns="http://www.w3.org/2000/svg" viewBox="0 0 400 300"><title>L</title><path d="M170.39,193.68h0a12.32,12.32,0,0,0-6.9,10,11.86,11.86,0,0,0,.68,4.6,204,204,0,0,1-18.42-23.8,13,13,0,0,0,7.54-8.68,12,12,0,0,0-3-11.29h0a12.32,12.32,0,0,0-8.65,8.6,11.91,11.91,0,0,0-.18,4.65l-2.7-4.58c-.92-1.52-1.7-3.11-2.56-4.66a1,1,0,0,0-1.29-.39.94.94,0,0,0-.37,1.29,206.93,206.93,0,0,0,16.79,26.23A13.09,13.09,0,0,0,147,194a12.18,12.18,0,0,0-11.61,4h0A13.81,13.81,0,0,0,137,201a14.49,14.49,0,0,0,2.45,2.5,12.5,12.5,0,0,0,6.12,2.77A11.8,11.8,0,0,0,156.31,202a205.42,205.42,0,0,0,19.07,20.39,14.16,14.16,0,0,0-4.61-.92A12.21,12.21,0,0,0,160,227.44h0a13.78,13.78,0,0,0,5,4.77,13.24,13.24,0,0,0,6.54,1.65,11.77,11.77,0,0,0,9.79-6.1l3.34,2.81a.93.93,0,0,0,1.33-.1,1,1,0,0,0-.14-1.35,215.69,215.69,0,0,1-16.3-15,13,13,0,0,0,5.8-9.93,12,12,0,0,0-5-10.54Z" style="fill:#d9d9ff"/><path d="M134.76,128.23h0a12.36,12.36,0,0,0-10.28,6.59,10.66,10.66,0,0,0-1.14,4.49,198.42,198.42,0,0,1-7.7-29.09,13,13,0,0,0,10.31-5,11.82,11.82,0,0,0,2.35-5.62,11.21,11.21,0,0,0-.63-5.93h0a12.37,12.37,0,0,0-11.34,4.52,10.83,10.83,0,0,0-2,4.2c-.3-1.75-.45-3.51-.68-5.27s-.45-3.51-.56-5.28a.93.93,0,0,0-1-.87,1,1,0,0,0-.87,1,203.25,203.25,0,0,0,5.18,30.71,12.79,12.79,0,0,0-3.35-3.29,12.32,12.32,0,0,0-12.29-.88h0A13.62,13.62,0,0,0,107,130.22a11.68,11.68,0,0,0,11.5.24,202,202,0,0,0,9.72,26.17A13,13,0,0,0,124.3,154a12.17,12.17,0,0,0-12.2,1.31h0a13.43,13.43,0,0,0,1,3.35,14.9,14.9,0,0,0,1.83,3,12.4,12.4,0,0,0,5.38,4.05,11.78,11.78,0,0,0,11.39-1.82c.65,1.3,1.27,2.61,2,3.88a1,1,0,0,0,1.29.41,1,1,0,0,0,.38-1.29c-.91-1.61-1.67-3.29-2.5-4.94s-1.66-3.29-2.38-5l-2.26-5.05-2.08-5.14a12.94,12.94,0,0,0,9.16-6.89,11.85,11.85,0,0,0,1.24-6,11.34,11.34,0,0,0-1.74-5.69Z" style="fill:#d9d9ff"/><path d="M127.56,54.07h0a12.43,12.43,0,0,0-12.06,2.07,11.82,11.82,0,0,0-2.78,3.7,203.58,203.58,0,0,1,4.2-29.8,12.93,12.93,0,0,0,11.44-.65,12.62,12.62,0,0,0,4.36-4.26,11.59,11.59,0,0,0,1.2-2.75,10.48,10.48,0,0,0,.5-2.95h0a12.45,12.45,0,0,0-12.24-.24,11.61,11.61,0,0,0-3.41,3.11c.84-3.44,1.9-6.82,2.93-10.21a1,1,0,0,0-.62-1.21.94.94,0,0,0-1.18.64,200.54,200.54,0,0,0-7.1,30.33A14.25,14.25,0,0,0,111,37.51,12.25,12.25,0,0,0,100,32h0a14.07,14.07,0,0,0-1.12,6.84,13.17,13.17,0,0,0,2.31,6.33,11.73,11.73,0,0,0,10.54,4.68,201.54,201.54,0,0,0-1.31,27.89,12.72,12.72,0,0,0-2.54-4,12.3,12.3,0,0,0-11.79-3.56h0a14.46,14.46,0,0,0,.12,6.92,12.59,12.59,0,0,0,3.38,5.83,11.69,11.69,0,0,0,11.16,2.79l.34,4.35a1,1,0,0,0,1,.88,1,1,0,0,0,.86-1c-.35-3.67-.47-7.36-.63-11,0-1.84,0-3.69,0-5.54V70.56l.08-2.77A12.94,12.94,0,0,0,123.47,65,12.68,12.68,0,0,0,127,60a11.08,11.08,0,0,0,.66-2.94,10.78,10.78,0,0,0-.06-3Z" style="fill:#c2d5ff"/><path d="M159.51,196.62h0a12.28,12.28,0,0,0-4.24,11.42,12.06,12.06,0,0,0,1.77,4.3,203.19,203.19,0,0,1-23.65-18.62,13,13,0,0,0,5.21-10.25A12,12,0,0,0,133,173.25h0a12.29,12.29,0,0,0-6.29,10.44,11.78,11.78,0,0,0,1,4.55l-3.73-3.78c-1.26-1.25-2.41-2.6-3.62-3.89a.94.94,0,1,0-1.39,1.27,206.14,206.14,0,0,0,22.66,21.36,13,13,0,0,0-4.69-.57,12.17,12.17,0,0,0-10.3,6.66h0a13.7,13.7,0,0,0,2.37,2.56,15.19,15.19,0,0,0,3,1.83,12.48,12.48,0,0,0,6.62,1.2,11.78,11.78,0,0,0,9.35-6.76,206.66,206.66,0,0,0,23.46,15.15,14.29,14.29,0,0,0-4.71.23,12.22,12.22,0,0,0-9,8.38h0a14,14,0,0,0,6,3.4,13.31,13.31,0,0,0,6.75,0,11.77,11.77,0,0,0,8-8.3l3.91,1.92a.93.93,0,0,0,1.27-.42,1,1,0,0,0-.46-1.28,213.47,213.47,0,0,1-19.45-10.56,13.05,13.05,0,0,0,3.22-11,12,12,0,0,0-7.42-9Z" style="fill:#d9d9ff"/><path d="M109.05,141.78h0a12.41,12.41,0,0,0-8.37,8.9,10.64,10.64,0,0,0,0,4.63A195.72,195.72,0,0,1,86.13,129a13,13,0,0,0,8.77-7.38,11.77,11.77,0,0,0,.92-6,11.22,11.22,0,0,0-2-5.6h0a12.35,12.35,0,0,0-9.9,7.15,10.8,10.8,0,0,0-.91,4.55c-.71-1.62-1.29-3.3-1.93-5s-1.29-3.3-1.83-5a1,1,0,0,0-1.2-.6,1,1,0,0,0-.58,1.22A203.84,203.84,0,0,0,89.9,140.88a12.62,12.62,0,0,0-4.05-2.38,12.31,12.31,0,0,0-12.13,2.13h0a13.61,13.61,0,0,0,8.88,9.82,11.69,11.69,0,0,0,11.22-2.56,202.06,202.06,0,0,0,15.79,23,13,13,0,0,0-4.45-1.59,12.23,12.23,0,0,0-11.52,4.24h0a13.25,13.25,0,0,0,1.76,3A15.18,15.18,0,0,0,97.9,179a12.53,12.53,0,0,0,6.2,2.63,11.77,11.77,0,0,0,10.61-4.55c.94,1.11,1.87,2.23,2.86,3.29a1,1,0,0,0,1.35.08.94.94,0,0,0,.06-1.33c-1.27-1.34-2.42-2.79-3.63-4.19s-2.4-2.79-3.52-4.26l-3.42-4.36-3.26-4.47a13,13,0,0,0,7.21-8.92,11.79,11.79,0,0,0-.25-6.08,11.29,11.29,0,0,0-3.06-5.09Z" style="fill:#c2d5ff"/><path d="M84.05,71.6h0a12.44,12.44,0,0,0-11.2,4.94,11.51,11.51,0,0,0-1.79,4.26,203.12,203.12,0,0,1-3.17-29.93,12.91,12.91,0,0,0,10.94-3.41A12.67,12.67,0,0,0,82,42.27a11,11,0,0,0,.48-3,10.29,10.29,0,0,0-.22-3h0a12.46,12.46,0,0,0-11.93,2.75,11.54,11.54,0,0,0-2.56,3.84c0-3.54.19-7.08.36-10.61a1,1,0,0,0-.89-1,.93.93,0,0,0-1,.9,201.08,201.08,0,0,0,.48,31.14,14.13,14.13,0,0,0-2.83-3.76,12.27,12.27,0,0,0-12-2.73h0a14.07,14.07,0,0,0,.57,6.9,13.33,13.33,0,0,0,3.78,5.58,11.77,11.77,0,0,0,11.37,2,201.86,201.86,0,0,0,5.5,27.37,12.75,12.75,0,0,0-3.42-3.21,12.31,12.31,0,0,0-12.31-.59h0a14.23,14.23,0,0,0,1.79,6.68,12.57,12.57,0,0,0,4.7,4.84,11.67,11.67,0,0,0,11.5,0l1.38,4.14a1,1,0,0,0,1.2.6,1,1,0,0,0,.59-1.21c-1.24-3.48-2.24-7-3.29-10.57-.5-1.77-.93-3.57-1.4-5.35l-.68-2.69-.59-2.7a12.89,12.89,0,0,0,10.11-5.39,12.65,12.65,0,0,0,2.17-5.71,12.36,12.36,0,0,0-.86-5.9Z" style="fill:#c2d5ff"/><path d="M156.34,197.4h0a12.29,12.29,0,0,0-1,12.14,12,12,0,0,0,2.86,3.67,203.82,203.82,0,0,1-27.78-11.59,13,13,0,0,0,2.27-11.27A12.07,12.07,0,0,0,124.5,182h0a12.33,12.33,0,0,0-3.26,11.75,11.89,11.89,0,0,0,2.14,4.13l-4.61-2.65c-1.55-.86-3-1.85-4.53-2.78a1,1,0,0,0-1.32.29.94.94,0,0,0,.32,1.31,206.19,206.19,0,0,0,27.56,14.5,13,13,0,0,0-4.67.71,12.19,12.19,0,0,0-8.14,9.18h0a13.72,13.72,0,0,0,3,1.83,15.17,15.17,0,0,0,3.36,1,12.46,12.46,0,0,0,6.7-.62,11.78,11.78,0,0,0,7.2-9,204.67,204.67,0,0,0,26.66,8.3,14.35,14.35,0,0,0-4.47,1.48A12.23,12.23,0,0,0,164,231.88h0a13.88,13.88,0,0,0,6.73,1.65,13.2,13.2,0,0,0,6.51-1.79,11.8,11.8,0,0,0,5.5-10.15l4.28.8a.94.94,0,0,0,1.11-.75,1,1,0,0,0-.79-1.11,212.25,212.25,0,0,1-21.56-4.95,13.05,13.05,0,0,0,.13-11.5,12,12,0,0,0-9.56-6.68Z" style="fill:#d9d9ff"/><path d="M93,158.11h0a12.36,12.36,0,0,0-5.68,10.81,10.71,10.71,0,0,0,1.23,4.47,198,198,0,0,1-21.07-21.49A13,13,0,0,0,74,142.45a11.73,11.73,0,0,0-.74-6,11.18,11.18,0,0,0-3.47-4.85h0a12.36,12.36,0,0,0-7.62,9.54,11,11,0,0,0,.36,4.63c-1.13-1.37-2.13-2.83-3.2-4.25s-2.13-2.83-3.1-4.31a.93.93,0,0,0-1.31-.26,1,1,0,0,0-.23,1.33,202.48,202.48,0,0,0,19.68,24.14,12.73,12.73,0,0,0-4.54-1.2,12.3,12.3,0,0,0-11.12,5.31h0a13.64,13.64,0,0,0,11.2,7.08A11.67,11.67,0,0,0,80,168.09,203.64,203.64,0,0,0,101.37,186a12.67,12.67,0,0,0-4.71-.34,12.2,12.2,0,0,0-10,7.17h0a12.84,12.84,0,0,0,2.51,2.43A14.72,14.72,0,0,0,92.27,197a12.36,12.36,0,0,0,6.68.87,11.8,11.8,0,0,0,9-7.22c1.2.82,2.4,1.65,3.64,2.4a1,1,0,0,0,1.32-.29.93.93,0,0,0-.3-1.3c-1.59-.95-3.08-2-4.62-3s-3.07-2.05-4.54-3.17L99,182l-4.34-3.44A13,13,0,0,0,99.2,168a11.85,11.85,0,0,0-1.86-5.8A11.39,11.39,0,0,0,93,158.12Z" style="fill:#c2d5ff"/><path d="M50.1,97.21h0A12.42,12.42,0,0,0,40.64,105a11.67,11.67,0,0,0-.59,4.59A204,204,0,0,1,29,81.58a12.93,12.93,0,0,0,9.62-6.22,12.55,12.55,0,0,0,1.69-5.86,11,11,0,0,0-.32-3,10.25,10.25,0,0,0-1-2.82h0a12.48,12.48,0,0,0-10.76,5.85,11.53,11.53,0,0,0-1.43,4.39c-1-3.41-1.72-6.87-2.5-10.33a1,1,0,0,0-1.13-.74A.93.93,0,0,0,22.41,64a201.57,201.57,0,0,0,8.81,29.88A14.2,14.2,0,0,0,27.49,91a12.27,12.27,0,0,0-12.28.59h0a14.09,14.09,0,0,0,2.41,6.49,13.25,13.25,0,0,0,5.14,4.36,11.76,11.76,0,0,0,11.48-1.13,202.63,202.63,0,0,0,12.64,24.89A12.46,12.46,0,0,0,42.71,124a12.31,12.31,0,0,0-12,2.73h0a14.3,14.3,0,0,0,3.52,6,12.67,12.67,0,0,0,5.82,3.4A11.69,11.69,0,0,0,51.12,133l2.44,3.62a.94.94,0,1,0,1.56-1.06c-2.12-3-4-6.18-6-9.3-1-1.58-1.85-3.19-2.78-4.79L45,119.1l-1.29-2.45a12.87,12.87,0,0,0,8.29-7.9,12.62,12.62,0,0,0,.56-6.08,11,11,0,0,0-.88-2.88,10.52,10.52,0,0,0-1.53-2.58Z" style="fill:#c2d5ff"/><rect x="10.56" y="163.15" width="26.9" height="0.94" transform="translate(-108.66 64.9) rotate(-45)" style="fill:#d9d9ff"/><rect x="-1.2" y="168.09" width="17.21" height="0.94" transform="translate(-117.02 54.61) rotate(-45)" style="fill:#d9d9ff"/><path d="M12.39,188.88,12,188a1.55,1.55,0,0,0,.22-.12l.2-.11,16.26-16.26.66.67L12.87,188.61l-.21.13Z" style="fill:#d9d9ff"/><rect x="362.61" y="182.26" width="26.9" height="0.94" transform="translate(-19.07 319.44) rotate(-45)" style="fill:#d9d9ff"/><rect x="350.85" y="187.2" width="17.21" height="0.94" transform="translate(-27.42 309.14) rotate(-45)" style="fill:#d9d9ff"/><path d="M364.44,208l-.42-.84.21-.13.2-.11,16.26-16.26.66.67-16.43,16.4-.21.12Z" style="fill:#d9d9ff"/><path d="M160.35,61.82a6.28,6.28,0,1,1,6.28-6.28A6.29,6.29,0,0,1,160.35,61.82Zm0-11.62a5.34,5.34,0,1,0,5.34,5.34A5.35,5.35,0,0,0,160.35,50.2Z" style="fill:#d9d9ff"/><path d="M348.56,43.36a6.28,6.28,0,1,1,6.27-6.28A6.28,6.28,0,0,1,348.56,43.36Zm0-11.61a5.34,5.34,0,1,0,5.33,5.33A5.34,5.34,0,0,0,348.56,31.75Z" style="fill:#d9d9ff"/><path d="M15.2,223.64a6.28,6.28,0,1,1,6.28-6.28A6.29,6.29,0,0,1,15.2,223.64Zm0-11.62a5.34,5.34,0,1,0,5.34,5.34A5.35,5.35,0,0,0,15.2,212Z" style="fill:#d9d9ff"/><path d="M346.88,170.84a6.28,6.28,0,1,1,6.28-6.28A6.29,6.29,0,0,1,346.88,170.84Zm0-11.62a5.34,5.34,0,1,0,5.34,5.34A5.35,5.35,0,0,0,346.88,159.22Z" style="fill:#d9d9ff"/><path d="M155.53,21.51a3.33,3.33,0,1,1-3.33-3.33A3.34,3.34,0,0,1,155.53,21.51Z" style="fill:#d9d9ff"/><path d="M35.63,37.08a3.33,3.33,0,1,1-3.33-3.33A3.34,3.34,0,0,1,35.63,37.08Z" style="fill:#d9d9ff"/><path d="M55,174.64a3.34,3.34,0,1,1-3.34-3.33A3.34,3.34,0,0,1,55,174.64Z" style="fill:#d9d9ff"/><path d="M146.85,243.27a3.33,3.33,0,1,1-3.33-3.33A3.33,3.33,0,0,1,146.85,243.27Z" style="fill:#d9d9ff"/><path d="M340.49,214.11a3.33,3.33,0,1,1-3.33-3.33A3.33,3.33,0,0,1,340.49,214.11Z" style="fill:#d9d9ff"/><path d="M306.87,14.17a3.33,3.33,0,1,1-3.33-3.33A3.33,3.33,0,0,1,306.87,14.17Z" style="fill:#d9d9ff"/><rect x="169.35" y="225.59" width="41.57" height="35.37" style="fill:#003cbf"/><path d="M228.08,262.2H152.2a10.27,10.27,0,0,1,10.27-10.28H217.8a10.28,10.28,0,0,1,10.28,10.28Z" style="fill:#003cbf"/><rect x="169.35" y="225.59" width="41.57" height="13.53" style="fill:#26244a"/><rect x="82.9" y="82.97" width="214.48" height="144.73" rx="11.77" style="fill:#003cbf"/><rect x="124.37" y="54.69" width="131.54" height="201.29" rx="6.21" transform="translate(345.47 -34.81) rotate(90)" style="fill:#0050ff"/><rect x="60.72" y="41.79" width="63.6" height="45.02" style="fill:#6696ff"/><rect x="65.87" y="46.32" width="63.6" height="45.02" style="fill:#0050ff"/><polygon points="68.92 87.58 82.39 70.11 92.49 82.67 108.19 53.6 126.28 87.58 68.92 87.58" style="fill:none;stroke:#fff;stroke-linecap:round;stroke-linejoin:round"/><path d="M95.36,59.36A5.77,5.77,0,1,1,89.6,53.6,5.76,5.76,0,0,1,95.36,59.36Z" style="fill:none;stroke:#fff;stroke-miterlimit:10"/><rect x="49.09" y="175.95" width="60.8" height="91.94" rx="2.54" transform="translate(301.41 142.43) rotate(90)" style="fill:#0050ff"/><rect x="53.63" y="180.32" width="51.73" height="86.89" rx="1.58" transform="translate(303.25 144.27) rotate(90)" style="fill:#f2f2ff"/><path d="M48.25,194.66a1.44,1.44,0,1,1-1.44-1.44A1.43,1.43,0,0,1,48.25,194.66Z" style="fill:#f2f2ff"/><circle cx="42.15" cy="194.66" r="1.44" style="fill:#f2f2ff"/><path d="M38.92,194.66a1.44,1.44,0,1,1-1.43-1.44A1.43,1.43,0,0,1,38.92,194.66Z" style="fill:#f2f2ff"/><rect x="36.05" y="244.15" width="86.89" height="2.24" style="fill:#0050ff"/><rect x="36.05" y="244.15" width="31.59" height="2.24" style="fill:#ff5e63"/><path d="M70.44,245.27a2.81,2.81,0,1,1-2.81-2.81A2.81,2.81,0,0,1,70.44,245.27Z" style="fill:#ff5e63"/><circle cx="79.49" cy="221.92" r="9.31" transform="translate(-133.64 121.21) rotate(-45)" style="fill:#0050ff"/><polygon points="84.44 221.92 80.2 224.37 75.97 226.81 75.97 221.92 75.97 217.03 80.2 219.48 84.44 221.92" style="fill:#f2f2ff"/><rect x="135.43" y="72.6" width="109.42" height="165.46" rx="6.21" transform="translate(345.47 -34.81) rotate(90)" style="fill:#0050ff"/><rect x="142.52" y="79.9" width="95.23" height="159.61" rx="4.24" transform="translate(349.84 -30.43) rotate(90)" style="fill:#f2f2ff"/><path d="M266.64,106.27a2.59,2.59,0,1,1-2.59-2.59A2.59,2.59,0,0,1,266.64,106.27Z" style="fill:#f2f2ff"/><path d="M258.25,106.27a2.59,2.59,0,1,1-2.59-2.59A2.59,2.59,0,0,1,258.25,106.27Z" style="fill:#f2f2ff"/><path d="M249.86,106.27a2.59,2.59,0,1,1-2.59-2.59A2.59,2.59,0,0,1,249.86,106.27Z" style="fill:#f2f2ff"/><rect x="115.41" y="117.97" width="34.92" height="34.92" rx="2.12" style="fill:#ffcd6e"/><circle cx="132.87" cy="128.63" r="7.37" style="fill:#f2f2ff"/><path d="M145.29,152.89H120.46V150a12.41,12.41,0,0,1,12.41-12.41h0A12.41,12.41,0,0,1,145.29,150Z" style="fill:#f2f2ff"/><rect x="156.86" y="119.45" width="64.21" height="6.29" style="fill:#0050ff"/><rect x="115.41" y="158.76" width="48.09" height="25.05" style="fill:#c2d5ff"/><rect x="156.86" y="130.89" width="107.19" height="2.63" style="fill:#0050ff"/><rect x="156.86" y="136.22" width="77.83" height="2.63" style="fill:#0050ff"/><rect x="115.41" y="187.77" width="28.11" height="2.63" style="fill:#0050ff"/><rect x="115.41" y="193.57" width="48.09" height="2.63" style="fill:#0050ff"/><rect x="115.41" y="199.36" width="39.53" height="2.63" style="fill:#0050ff"/><rect x="167.38" y="187.77" width="48.09" height="2.63" style="fill:#0050ff"/><rect x="167.38" y="193.57" width="33.67" height="2.63" style="fill:#0050ff"/><rect x="167.38" y="199.36" width="17.43" height="2.63" style="fill:#0050ff"/><rect x="218.75" y="187.77" width="29.75" height="2.63" style="fill:#0050ff"/><rect x="218.75" y="193.57" width="41.31" height="2.63" style="fill:#0050ff"/><rect x="218.75" y="199.36" width="16.11" height="2.63" style="fill:#0050ff"/><rect x="156.86" y="141.55" width="77.83" height="2.63" style="fill:#0050ff"/><rect x="156.86" y="146.88" width="44.31" height="2.63" style="fill:#0050ff"/><rect x="117.7" y="161.31" width="43.58" height="2.63" style="fill:#f2f2ff"/><rect x="117.7" y="166.31" width="21.22" height="2.63" style="fill:#f2f2ff"/><rect x="140.07" y="166.31" width="21.22" height="2.63" style="fill:#f2f2ff"/><rect x="117.7" y="169.97" width="21.22" height="2.63" style="fill:#f2f2ff"/><rect x="166.78" y="158.76" width="48.09" height="25.05" style="fill:#c2d5ff"/><rect x="169.06" y="161.31" width="43.58" height="2.63" style="fill:#f2f2ff"/><rect x="169.06" y="166.31" width="21.22" height="2.63" style="fill:#f2f2ff"/><rect x="191.43" y="166.31" width="21.22" height="2.63" style="fill:#f2f2ff"/><rect x="169.06" y="169.97" width="21.22" height="2.63" style="fill:#f2f2ff"/><rect x="218.14" y="158.76" width="48.09" height="25.05" style="fill:#c2d5ff"/><rect x="220.43" y="161.31" width="43.58" height="2.63" style="fill:#f2f2ff"/><rect x="220.43" y="166.31" width="21.22" height="2.63" style="fill:#f2f2ff"/><rect x="242.79" y="166.31" width="21.22" height="2.63" style="fill:#f2f2ff"/><rect x="220.43" y="169.97" width="21.22" height="2.63" style="fill:#f2f2ff"/><polyline points="103.17 215.7 101.67 215.7 101.67 214.2" style="fill:none;stroke:#38356e;stroke-linecap:round;stroke-linejoin:round;stroke-width:0.5px"/><line x1="101.67" y1="211.18" x2="101.67" y2="97.97" style="fill:none;stroke:#38356e;stroke-linecap:round;stroke-linejoin:round;stroke-width:0.5px;stroke-dasharray:3.01883602142334,3.01883602142334"/><polyline points="101.67 96.46 101.67 94.96 103.17 94.96" style="fill:none;stroke:#38356e;stroke-linecap:round;stroke-linejoin:round;stroke-width:0.5px"/><line x1="106.22" y1="94.96" x2="275.58" y2="94.96" style="fill:none;stroke:#38356e;stroke-linecap:round;stroke-linejoin:round;stroke-width:0.5px;stroke-dasharray:3.051610231399536,3.051610231399536"/><polyline points="277.11 94.96 278.61 94.96 278.61 96.46" style="fill:none;stroke:#38356e;stroke-linecap:round;stroke-linejoin:round;stroke-width:0.5px"/><line x1="278.61" y1="99.48" x2="278.61" y2="212.69" style="fill:none;stroke:#38356e;stroke-linecap:round;stroke-linejoin:round;stroke-width:0.5px;stroke-dasharray:3.01883602142334,3.01883602142334"/><polyline points="278.61 214.2 278.61 215.7 277.11 215.7" style="fill:none;stroke:#38356e;stroke-linecap:round;stroke-linejoin:round;stroke-width:0.5px"/><line x1="274.06" y1="215.7" x2="104.69" y2="215.7" style="fill:none;stroke:#38356e;stroke-linecap:round;stroke-linejoin:round;stroke-width:0.5px;stroke-dasharray:3.051610231399536,3.051610231399536"/><rect x="100" y="93.3" width="3.32" height="3.32" style="fill:#003cbf"/><rect x="100" y="214.04" width="3.32" height="3.32" style="fill:#003cbf"/><rect x="276.95" y="93.3" width="3.32" height="3.32" style="fill:#003cbf"/><rect x="276.95" y="214.04" width="3.32" height="3.32" style="fill:#003cbf"/><polygon points="256.77 141.56 251.97 140.28 247.18 138.99 248.47 143.79 249.75 148.58 252.38 145.96 257.85 151.43 259.62 149.66 254.14 144.19 256.77 141.56" style="fill:#3da0b8"/><path d="M172.58,211.37H144.2A9.93,9.93,0,0,0,136,226.82a15.67,15.67,0,0,1-4.39,7.18,1.11,1.11,0,0,0,.88,1.9,18.61,18.61,0,0,0,10.79-4.72c.32,0,.64,0,1,0h28.38a9.93,9.93,0,0,0,0-19.86Z" style="fill:#ffcd6e"/><path d="M147.19,221.38a2.84,2.84,0,1,1-2.83-2.83A2.83,2.83,0,0,1,147.19,221.38Z" style="fill:#0050ff"/><path d="M156.87,221.38a2.84,2.84,0,1,1-2.84-2.83A2.83,2.83,0,0,1,156.87,221.38Z" style="fill:#0050ff"/><path d="M166.55,221.38a2.84,2.84,0,1,1-2.84-2.83A2.83,2.83,0,0,1,166.55,221.38Z" style="fill:#0050ff"/><path d="M176.23,221.38a2.84,2.84,0,1,1-2.84-2.83A2.83,2.83,0,0,1,176.23,221.38Z" style="fill:#0050ff"/><rect x="258.75" y="203.93" width="52.37" height="29" style="fill:#c2d5ff"/><polygon points="258.75 233.04 284.93 218.49 311.12 233.04 258.75 233.04" style="fill:#6696ff"/><polygon points="311.12 203.93 284.93 218.49 258.75 203.93 311.12 203.93" style="fill:#6696ff"/><rect x="263.96" y="199.14" width="52.37" height="29" style="fill:#6696ff"/><polygon points="263.96 228.24 290.14 213.69 316.32 228.24 263.96 228.24" style="fill:#0050ff"/><polygon points="316.32 199.14 290.14 213.69 263.96 199.14 316.32 199.14" style="fill:#0050ff"/><rect x="270.71" y="192.28" width="52.37" height="29" style="fill:#0050ff"/><polygon points="270.71 192.28 296.89 176.26 323.07 192.28 270.71 192.28" style="fill:#aaa5fa"/><polygon points="270.71 221.39 296.89 206.83 323.07 221.39 270.71 221.39" style="fill:#c2d5ff"/><rect x="275.91" y="160.39" width="41.96" height="33.73" style="fill:#c2d5ff"/><polygon points="323.07 192.28 296.89 206.83 270.71 192.28 323.07 192.28" style="fill:#6696ff"/><rect x="277.99" y="163.26" width="31.93" height="3.02" style="fill:#f2f2ff"/><rect x="277.99" y="169.01" width="38.14" height="1.51" style="fill:#f2f2ff"/><rect x="277.99" y="172.64" width="30.78" height="1.51" style="fill:#f2f2ff"/><rect x="277.99" y="176.26" width="30.78" height="1.51" style="fill:#f2f2ff"/><rect x="277.99" y="179.89" width="21.52" height="1.51" style="fill:#f2f2ff"/><rect x="277.99" y="183.52" width="12.15" height="1.51" style="fill:#f2f2ff"/><path d="M326.66,192.28a3.59,3.59,0,1,1-3.59-3.59A3.58,3.58,0,0,1,326.66,192.28Z" style="fill:#ff5e63"/><path d="M302.24,78.81a17.27,17.27,0,0,0-13.71,27.77,14.78,14.78,0,0,1-3.92,6.06,1,1,0,0,0,.84,1.79,17.69,17.69,0,0,0,8.55-3.16,17.28,17.28,0,1,0,8.24-32.46Z" style="fill:#ff5e63"/><path d="M309.48,88.63c-2.5-1.27-6.07-.29-7.24,2.26-1.16-2.55-4.73-3.53-7.23-2.26a7.3,7.3,0,0,0-3.62,7.06,11.21,11.21,0,0,0,3.92,7.22,24.89,24.89,0,0,0,6.93,4.12,24.8,24.8,0,0,0,6.94-4.12,11.21,11.21,0,0,0,3.92-7.22A7.3,7.3,0,0,0,309.48,88.63Z" style="fill:#0050ff"/><path d="M259.26,75.41H170.57A14.76,14.76,0,0,1,177.83,61a14.51,14.51,0,0,1,15.89,1.73c1.6-7.2,6-13.89,12.64-17.07a24.43,24.43,0,0,1,34.47,17,13.73,13.73,0,0,1,12.84.89C257.37,66,259.33,71,259.26,75.41Z" style="fill:#0050ff"/><polygon points="226.91 61.81 222.12 55.12 217.32 48.43 212.53 55.12 207.73 61.81 213.09 61.81 213.09 71.9 221.56 71.9 221.56 61.81 226.91 61.81" style="fill:#0050ff"/><path d="M22.47,110H63.82a14.47,14.47,0,0,1,12,22.51,22.63,22.63,0,0,0,6.4,10.45A1.62,1.62,0,0,1,81,145.69a27.06,27.06,0,0,1-15.72-6.87,13.31,13.31,0,0,1-1.41.07H22.47a14.47,14.47,0,1,1,0-28.93Z" style="fill:#3da0b8"/><path d="M297.11,159.28a40.55,40.55,0,0,0,3.74-9.65V129.06a4.29,4.29,0,0,1,4.29-4.29h71.37a4.29,4.29,0,0,1,4.29,4.29V151a4.29,4.29,0,0,1-4.29,4.28H308a18.51,18.51,0,0,1-9.7,5.7A1.11,1.11,0,0,1,297.11,159.28Z" style="fill:#ff5e63"/><path d="M340.39,34.2H280.52a14.38,14.38,0,0,0-14.39,14.38h0a14.33,14.33,0,0,0,1.65,6.68l-4.68,8.53a2.56,2.56,0,0,0,3.25,3.59l11.17-4.74a14.14,14.14,0,0,0,3,.32h59.87a14.38,14.38,0,0,0,14.38-14.38h0A14.38,14.38,0,0,0,340.39,34.2Z" style="fill:#ffcd6e"/><path d="M289,43.53l1.71-.21v7.9h-1.44Z" style="fill:#0050ff"/><path d="M294.42,49.85h1.78v1.72h-.59a3.1,3.1,0,0,1-.69-.08,7,7,0,0,1-.69-.23,4.62,4.62,0,0,1-.74,1.49,3.48,3.48,0,0,1-1.15,1,3.07,3.07,0,0,1-1.42.35,4.24,4.24,0,0,1-1-.14V52.32h.75a2.61,2.61,0,0,0,1.51-.42,3,3,0,0,0,1-1.29l-.64-3.69,1.68-.41Z" style="fill:#0050ff"/><path d="M299,49.05a8.13,8.13,0,0,0,0-.88.51.51,0,0,0-.15-.33,2.12,2.12,0,0,0-.51-.23L296,46.78l.47-3,2.82-.87v.88l1.69-.34-.18,1.73-3.55.45,1.3.39a7.63,7.63,0,0,1,1.33.5.83.83,0,0,1,.41.58,9.76,9.76,0,0,1,.08,1.54v1.05a7.86,7.86,0,0,0,1.37.14h.53v1.72h-.53a3.33,3.33,0,0,1-1.14-.2,3.58,3.58,0,0,1-1-.55,6.05,6.05,0,0,1-3.46.75h-.53V49.85h.53c.61,0,1.12,0,1.5-.05a7.38,7.38,0,0,0,1.25-.18Z" style="fill:#0050ff"/><path d="M314.6,49.85v1.72h-.51a3.65,3.65,0,0,1-1-.13,3.86,3.86,0,0,1-.88-.36,2,2,0,0,1-.69.39,2.57,2.57,0,0,1-.85.14A3.33,3.33,0,0,1,309,51a3,3,0,0,1-.94.42,4.22,4.22,0,0,1-1.13.15,4.66,4.66,0,0,1-1.13-.13,3.63,3.63,0,0,1-1-.38,3.32,3.32,0,0,1-1,.35,7.14,7.14,0,0,1-1.44.13h-.53V49.85H304v-3h1.51l0,3a6.16,6.16,0,0,0,1.37.13,7.26,7.26,0,0,0,1.25-.1v-3h1.51l0,3a6.2,6.2,0,0,0,.86,0c.37,0,.66,0,.88,0l-.21-3,1.69-.25v3.26Zm-6.25-4-1.11-1.12,1.11-1.13,1,1,1-1,1.12,1.12-1.12,1.12-1-1Zm1-1.72L308.24,43l1.11-1.12L310.47,43Z" style="fill:#0050ff"/><path d="M317.76,49.65a3.78,3.78,0,0,0,1.28.2h.52v1.72h-.68a2.4,2.4,0,0,1-.87-.17,7.87,7.87,0,0,1-1-.51,4.47,4.47,0,0,1-1.21.5,5.11,5.11,0,0,1-1.35.18h-.37V49.85h.53a8,8,0,0,0,.95-.05,3.56,3.56,0,0,0,.68-.13v-3h1.5Zm-.84-5.76,1.2,1.21-1.2,1.2-1.2-1.2Z" style="fill:#0050ff"/><path d="M319,51.57V49.85h.53c.63,0,1.15,0,1.56,0a10.05,10.05,0,0,0,1.26-.18V48.47a8.36,8.36,0,0,0,0-.89.46.46,0,0,0-.15-.32,1.77,1.77,0,0,0-.5-.24l-2.24-.82.47-2.4,4.51-.92-.18,1.74-3.49.44,1.24.4a4.58,4.58,0,0,1,1.28.54,1.24,1.24,0,0,1,.4.84,21.43,21.43,0,0,1,.13,2.38,2,2,0,0,1-.58,1.51,2.84,2.84,0,0,1-1.45.67,12.49,12.49,0,0,1-2.23.17Z" style="fill:#0050ff"/><path d="M325.25,43.53l1.71-.21v7.9h-1.44Z" style="fill:#0050ff"/><path d="M329.62,52.33a7.82,7.82,0,0,0,.9,0,1.91,1.91,0,0,0,.71-.23.89.89,0,0,0,.42-.56,12.56,12.56,0,0,1-1.43.07,3,3,0,0,1-1.3-.24,1.52,1.52,0,0,1-.74-.74,3.07,3.07,0,0,1-.24-1.31,10.17,10.17,0,0,1,.16-2,1.88,1.88,0,0,1,2.1-1.63,2.35,2.35,0,0,1,2.14,1.12,6.42,6.42,0,0,1,.71,3.38,5.89,5.89,0,0,1-.35,2.2,2.35,2.35,0,0,1-1.07,1.24,3.93,3.93,0,0,1-1.91.4,11.42,11.42,0,0,1-1.71-.15V52.33Zm-.24-2.81a.5.5,0,0,0,.32.26,2.46,2.46,0,0,0,.7.07h1.15a6.35,6.35,0,0,0-.18-1.47,1.26,1.26,0,0,0-.47-.74,1.52,1.52,0,0,0-.89-.22,4.65,4.65,0,0,0-.66,0c0,.5-.07,1-.07,1.49A1.19,1.19,0,0,0,329.38,49.52Z" style="fill:#0050ff"/><path d="M294.71,229.9H261.88a14.38,14.38,0,0,0-14.38,14.38h0a14.27,14.27,0,0,0,1.65,6.68l-4.68,8.53a2.56,2.56,0,0,0,3.24,3.59l11.18-4.73a14.72,14.72,0,0,0,3,.32h32.83a14.38,14.38,0,0,0,14.38-14.39h0A14.38,14.38,0,0,0,294.71,229.9Z" style="fill:#ffcd6e"/><path d="M268,244.61a.82.82,0,0,0,.32.71,1.68,1.68,0,0,0,1,.23h.53v1.72h-.53A2.86,2.86,0,0,1,268,247a2,2,0,0,1-.88-.91l-.23.62h-3.76l-.06-1c0-.36,0-.69,0-1a4.26,4.26,0,0,1,.28-1.74,2.13,2.13,0,0,1,1-1,8.79,8.79,0,0,1,2.06-.7l-.1-.81,1.78-.22Zm-1.35.37-.12-2c-.7.19-1.18.33-1.46.43a1.23,1.23,0,0,0-.6.43,1.38,1.38,0,0,0-.19.81c0,.16,0,.28,0,.37Z" style="fill:#0050ff"/><path d="M273,245.35a3.76,3.76,0,0,0,1.27.2h.53v1.72h-.68a2.26,2.26,0,0,1-.88-.17,6.51,6.51,0,0,1-1-.5,5.22,5.22,0,0,1-1.21.5,5.55,5.55,0,0,1-1.35.17h-.38v-1.72h.54a8.42,8.42,0,0,0,1,0,3.56,3.56,0,0,0,.68-.14v-3H273Zm-.84-5.76,1.2,1.21-1.2,1.21-1.2-1.21Z" style="fill:#0050ff"/><path d="M274.78,245.55a2.78,2.78,0,0,0,.85-.11,1.41,1.41,0,0,0,.58-.4,4.51,4.51,0,0,0,.55-.84l1.55-2.93,1.29.67a7.2,7.2,0,0,1,1.29.8,2,2,0,0,1,.6.81,3.28,3.28,0,0,1,.17,1.15,3.76,3.76,0,0,1-.35,1.61,2.92,2.92,0,0,1-.93,1.16,2.07,2.07,0,0,1-1.27.43,2,2,0,0,1-.86-.2,2.54,2.54,0,0,1-.75-.56,2.7,2.7,0,0,1-.54-.83,3.15,3.15,0,0,1-1,.71,2.9,2.9,0,0,1-1.22.25h-.53v-1.72Zm4.13-2.06-1,1.7a1.93,1.93,0,0,0,.58.62,1.27,1.27,0,0,0,.74.23.93.93,0,0,0,.64-.23,1.46,1.46,0,0,0,.42-.63,2.78,2.78,0,0,0,.16-.9Z" style="fill:#0050ff"/><path d="M282.87,239.24l1.71-.22v7.9h-1.44Z" style="fill:#0050ff"/><path d="M290.69,242.93a6.26,6.26,0,0,1,.5,2.4,1.82,1.82,0,0,1-.39,1.18,2.27,2.27,0,0,1-1.11.74,5.52,5.52,0,0,1-1.79.25,3.93,3.93,0,0,1-1.42-.2,1.39,1.39,0,0,1-.76-.64,2.76,2.76,0,0,1-.23-1.22v-1.25H287v1.47a4.4,4.4,0,0,0,1.14.1c.35,0,.69,0,1,0a3.74,3.74,0,0,0,.74-.13,4.15,4.15,0,0,0-.49-1.68,7.79,7.79,0,0,0-1.16-1.68l1.13-1.4A7,7,0,0,1,290.69,242.93Z" style="fill:#0050ff"/><path d="M310.92,139.55a1.36,1.36,0,0,0-.62.46,2.16,2.16,0,0,0-.14.84h1.73A2.42,2.42,0,0,1,313,141a1.07,1.07,0,0,1,.54.65,4.49,4.49,0,0,1,.15,1.33,2.56,2.56,0,0,1-.22,1.15,1.69,1.69,0,0,1-.71.72,5.77,5.77,0,0,1-1.43.51q-.63.15-1.29.24a8.79,8.79,0,0,1-1.18.09,3.59,3.59,0,0,1-2.41-.7,2.7,2.7,0,0,1-.78-2.13,19.08,19.08,0,0,1,.25-2.47h1.42c-.08.44-.14.85-.19,1.24s-.07.66-.07.84a1.61,1.61,0,0,0,.2.86,1.07,1.07,0,0,0,.64.45,4.62,4.62,0,0,0,1.26.13,15.21,15.21,0,0,0,3.18-.43v-1H309V142a11.37,11.37,0,0,1,.18-2.47,1.84,1.84,0,0,1,.8-1.09,17.66,17.66,0,0,1,2.44-1.12l.52,1.5C311.92,139.14,311.25,139.4,310.92,139.55Z" style="fill:#0050ff"/><path d="M315,144a2.54,2.54,0,0,0,1.47-.42,3,3,0,0,0,1-1.29l-.64-3.68,1.68-.42c.06.61.11,1.25.15,1.91s.06,1.27.06,1.82a4.14,4.14,0,0,1-.46,2,3.55,3.55,0,0,1-1.25,1.38,3.24,3.24,0,0,1-1.78.51,3.5,3.5,0,0,1-1-.15V144Zm2.59-8.53,1.21,1.22-1.21,1.2-1.2-1.2Z" style="fill:#0050ff"/><path d="M321.35,141.16a1.84,1.84,0,0,0,.63.25,4,4,0,0,0,.87.09h.29v1.72h-.53a3,3,0,0,1-2.09-.65,2.68,2.68,0,0,1-.73-2l-.13-5.35,1.69-.27Z" style="fill:#0050ff"/><path d="M333.74,141.19a2.07,2.07,0,0,1-.28,1.08,1.94,1.94,0,0,1-.77.73,2.53,2.53,0,0,1-1.15.26,3.4,3.4,0,0,1-1.75-.57,3.25,3.25,0,0,1-.94.41,4.22,4.22,0,0,1-1.13.15,4.66,4.66,0,0,1-1.13-.13,3.63,3.63,0,0,1-1-.38,3.32,3.32,0,0,1-1,.35,7.14,7.14,0,0,1-1.44.13h-.53V141.5h2.27v-3h1.51l0,3a6.22,6.22,0,0,0,1.37.13,7.26,7.26,0,0,0,1.25-.1v-3h1.51l0,3a4.73,4.73,0,0,0,.52.07c.21,0,.43,0,.65,0a4.45,4.45,0,0,0,.57,0l-.27-3.8,1.69-.24Z" style="fill:#0050ff"/><path d="M336.11,141.68a4.69,4.69,0,0,0-.08.84,1.55,1.55,0,0,0,.48,1.25,2.39,2.39,0,0,0,1.51.4,12.26,12.26,0,0,0,1.37-.1,14.62,14.62,0,0,0,1.46-.27v-.7h-2.27l.37-1.6h3.94v1.72h-.78a4.6,4.6,0,0,1-.08.84,1.52,1.52,0,0,1-.24.6,1.48,1.48,0,0,1-.54.47,5.32,5.32,0,0,1-1.55.54,8.62,8.62,0,0,1-1.91.22,2.78,2.78,0,0,1-3.18-3.19,13.92,13.92,0,0,1,.35-2.56h1.43C336.25,140.83,336.16,141.35,336.11,141.68Z" style="fill:#0050ff"/><path d="M342.37,141.5h.52c.41,0,.74,0,1,0a3.87,3.87,0,0,0,.65-.1V138.3H346l0,3,.5.09a16.46,16.46,0,0,1,1.8-2.37,5.91,5.91,0,0,1,1.68-1.29,3.92,3.92,0,0,1,1.79-.41,2.55,2.55,0,0,1,2,.72,3.17,3.17,0,0,1,.65,2.16,3.9,3.9,0,0,1-.18,1.26h1.61v1.72h-.52a4,4,0,0,1-1.07-.17,6.5,6.5,0,0,1-1.06-.42,3.79,3.79,0,0,1-1.23.44,10.22,10.22,0,0,1-1.88.15h-2.81a4.1,4.1,0,0,1-1.06-.15,3.93,3.93,0,0,1-1-.39,3.77,3.77,0,0,1-1,.41,6.77,6.77,0,0,1-1.34.13h-.52Zm7.95,0H351a7.57,7.57,0,0,0,1.1-.07,1.15,1.15,0,0,0,.64-.32,1.07,1.07,0,0,0,.24-.76v-.88a2,2,0,0,0-.65-.27,2.88,2.88,0,0,0-.78-.1,3,3,0,0,0-1.7.6,6.88,6.88,0,0,0-1.69,1.8Z" style="fill:#0050ff"/><path d="M355.36,141.5h1.42a6.92,6.92,0,0,0,1.36-.09A2,2,0,0,0,359,141c.29-.23.79-.7,1.51-1.42-.66-.25-1.13-.41-1.42-.5a2.5,2.5,0,0,0-.72-.13,1.06,1.06,0,0,0-.4.08,1.67,1.67,0,0,0-.37.24l-.52.49-.64-1.57a4,4,0,0,1,1-.75,1.94,1.94,0,0,1,.92-.24,2.75,2.75,0,0,1,.8.14c.29.09.66.23,1.13.42l.15.06c.48.18.83.29,1,.36a3.3,3.3,0,0,0,.57.13,4,4,0,0,0,.66,0h.58l-.27,1.82-1.34-.14.1.13c.42.49.71.82.88,1a1.09,1.09,0,0,0,.53.31,5.05,5.05,0,0,0,1,.07h.27v1.72h-.27a3.37,3.37,0,0,1-1.24-.19,2.6,2.6,0,0,1-.92-.65,10.77,10.77,0,0,1-1.08-1.41,13.28,13.28,0,0,1-1.45,1.38,4.07,4.07,0,0,1-1.26.67,5.23,5.23,0,0,1-1.52.2h-1.25Zm3.31-7.11,1.2,1.22-1.2,1.2-1.2-1.2Z" style="fill:#0050ff"/><path d="M374.94,137.51v3.68a2.16,2.16,0,0,1-.27,1.08,2,2,0,0,1-.78.73,2.46,2.46,0,0,1-1.14.26,3.4,3.4,0,0,1-1.76-.57,3.31,3.31,0,0,1-.93.41,4.33,4.33,0,0,1-1.13.15,4.69,4.69,0,0,1-1.14-.13,3.63,3.63,0,0,1-1-.38,3.32,3.32,0,0,1-1,.35,7,7,0,0,1-1.43.13h-.53V141.5h2.26v-3h1.51l0,3a6.32,6.32,0,0,0,1.38.13,7.35,7.35,0,0,0,1.25-.1v-3h1.51l0,3a4.13,4.13,0,0,0,.52.07c.21,0,.42,0,.64,0a4.73,4.73,0,0,0,.58,0l-.28-3.8Zm-4.58-.26-1.12-1.12,1.12-1.13,1,1,1-1,1.12,1.12-1.12,1.12-1-1Zm1-1.72-1.11-1.12,1.11-1.12,1.12,1.12Z" style="fill:#0050ff"/><path d="M39,126.37v1.72h-.53a2.78,2.78,0,0,1-1.13-.22,2.51,2.51,0,0,1-.9-.64,4.6,4.6,0,0,1-1.35.54,12.6,12.6,0,0,1-1.79.36,13.17,13.17,0,0,1-1.64.12,4.22,4.22,0,0,1-2-.4,2.05,2.05,0,0,1-1-1.07,4.6,4.6,0,0,1-.26-1.65c0-.28,0-.75.07-1.39h1.46l0,.41c0,.29,0,.54,0,.74a2.17,2.17,0,0,0,.16.92,1,1,0,0,0,.62.53,3.73,3.73,0,0,0,1.37.19,16.53,16.53,0,0,0,2-.14,12,12,0,0,0,1.68-.3l-.35-2.8,1.61-.24.13,1.71a4.64,4.64,0,0,0,.16,1,.68.68,0,0,0,.38.44,2,2,0,0,0,.81.12Zm-7.46-3.14-1.09-1,1.09-1,1,.9,1-.89,1.1,1-1.1,1-1-.9Z" style="fill:#fff"/><path d="M49.55,126.07a2.11,2.11,0,0,1-.28,1.07,1.89,1.89,0,0,1-.78.73,2.34,2.34,0,0,1-1.14.26,3.43,3.43,0,0,1-1.76-.57,3.32,3.32,0,0,1-.93.42,4.28,4.28,0,0,1-1.13.15,5.31,5.31,0,0,1-1.14-.13,3.65,3.65,0,0,1-1-.39,3.22,3.22,0,0,1-1,.36,7.87,7.87,0,0,1-1.43.12h-.53v-1.72h2.26v-3h1.51l0,3a5.76,5.76,0,0,0,1.38.13,6.45,6.45,0,0,0,1.25-.1v-3h1.51l0,3a4.13,4.13,0,0,0,.52.07l.64,0a4.89,4.89,0,0,0,.58,0l-.28-3.8,1.7-.25Z" style="fill:#fff"/><path d="M52.14,126a2.07,2.07,0,0,0,.63.24,3.94,3.94,0,0,0,.87.09h.29v1.72H53.4a3,3,0,0,1-2.1-.65,2.68,2.68,0,0,1-.72-2l-.13-5.35,1.69-.26Z" style="fill:#fff"/><path d="M53.41,126.37h1.77a2.26,2.26,0,0,1-.77-.83,2.21,2.21,0,0,1-.26-1.08,3,3,0,0,1,.26-1.28,2.87,2.87,0,0,1,.75-1,3.25,3.25,0,0,1,1.16-.63l.2-.91.24.08q2,.65,2.91,1.05a4.24,4.24,0,0,1,1.5,1,2.36,2.36,0,0,1,.54,1.61,1.42,1.42,0,0,1,0,.23L61.56,127H57.17a4,4,0,0,1-.93.65,3.91,3.91,0,0,1-1,.32,9.68,9.68,0,0,1-1.29.08h-.52ZM57.28,123l-.35,0a1.74,1.74,0,0,0-.77.17,1.28,1.28,0,0,0-.54.46,1.21,1.21,0,0,0-.19.65,1.23,1.23,0,0,0,.16.61,1.09,1.09,0,0,0,.46.41,1.74,1.74,0,0,0,.75.12l.48,0Zm3.11,2.51,0-.69a1.24,1.24,0,0,0-.68-1.27A5.83,5.83,0,0,0,58.6,123l0,2.47Z" style="fill:#fff"/></svg>