<svg id="Layer_1" data-name="Layer 1" xmlns="http://www.w3.org/2000/svg" viewBox="0 0 400 300"><title>L</title><path d="M38.38,266.93l0,.1a21.09,21.09,0,0,0,18.5,11.24H319.39a20.86,20.86,0,0,0,20.85-20.85v-150c.79-4.63-5-7.72-9.7-7.52s-9.52,2-14,.52c-11.14-3.78-7.32-21.36-14.54-30.65-7-9-21.76-6.49-30.64.64S256.77,88,248,95.21c-17.18,14.19-45.34,12.35-60.53-4C177.55,80.61,173.13,65.4,162,56.09,148.18,44.61,126,45.87,112.55,57.7s-17.87,32.35-12,49.29c4.4,12.59,13.54,22.83,21.31,33.67s14.54,23.6,13,36.85c-1.9,16.53-18.49,29.9-35,28.25-13.08-1.3-24.22-10.41-37.17-12.66a37.16,37.16,0,0,0-35,13.63,37.14,37.14,0,0,0-4.25,37.32C27.25,252.34,34,258.92,38.38,266.93Z" style="fill:#e0eaff"/><polygon points="45.6 226.17 44.36 230.8 43.12 235.43 39.73 232.04 36.34 228.65 40.97 227.41 45.6 226.17" style="fill:#c2d5ff"/><polygon points="164.47 67.71 163.23 72.34 161.99 76.97 158.6 73.58 155.21 70.19 159.84 68.95 164.47 67.71" style="fill:#c2d5ff"/><polygon points="52.63 55.16 51.39 59.79 50.15 64.42 46.76 61.03 43.38 57.65 48.01 56.41 52.63 55.16" style="fill:#c2d5ff"/><polygon points="264.6 276.87 263.36 281.5 262.12 286.13 258.73 282.74 255.34 279.35 259.97 278.11 264.6 276.87" style="fill:#c2d5ff"/><polygon points="292.58 30.75 291.34 35.38 290.1 40.01 286.71 36.62 283.32 33.23 287.95 31.99 292.58 30.75" style="fill:#c2d5ff"/><polygon points="348.87 217.08 347.63 221.71 346.39 226.34 343 222.95 339.61 219.56 344.24 218.32 348.87 217.08" style="fill:#c2d5ff"/><polygon points="142.71 242.6 141.47 247.23 140.23 251.86 136.84 248.47 133.45 245.08 138.08 243.84 142.71 242.6" style="fill:#c2d5ff"/><circle cx="109.86" cy="227.19" r="52.68" transform="translate(-128.47 144.23) rotate(-45)" style="fill:none;stroke:#6696ff;stroke-miterlimit:10"/><circle cx="175.92" cy="92.81" r="52.68" style="fill:none;stroke:#6696ff;stroke-miterlimit:10"/><circle cx="220.7" cy="250.12" r="26.34" style="fill:none;stroke:#6696ff;stroke-miterlimit:10"/><circle cx="313.36" cy="204.13" r="52.68" transform="translate(62.56 481.55) rotate(-80.97)" style="fill:none;stroke:#6696ff;stroke-miterlimit:10"/><path d="M99.59,52.59a1.22,1.22,0,0,0,0-2.43,1.22,1.22,0,0,0,0,2.43Z" style="fill:#c2d5ff"/><path d="M339.13,67.31a1.22,1.22,0,0,0,0-2.44,1.22,1.22,0,0,0,0,2.44Z" style="fill:#c2d5ff"/><path d="M299.48,280.69a1.22,1.22,0,0,0,0-2.43,1.22,1.22,0,0,0,0,2.43Z" style="fill:#c2d5ff"/><path d="M228.35,252.08a1.22,1.22,0,0,0,0-2.44,1.22,1.22,0,0,0,0,2.44Z" style="fill:#c2d5ff"/><path d="M102,267.61a1.22,1.22,0,0,0,0-2.44,1.22,1.22,0,0,0,0,2.44Z" style="fill:#c2d5ff"/><path d="M206.69,78.34a1.22,1.22,0,0,0,0-2.43,1.22,1.22,0,0,0,0,2.43Z" style="fill:#c2d5ff"/><path d="M33.77,164.18c3.14,0,3.14-4.87,0-4.87s-3.14,4.87,0,4.87Z" style="fill:#c2d5ff"/><path d="M230.81,46c3.13,0,3.14-4.87,0-4.87s-3.14,4.87,0,4.87Z" style="fill:#c2d5ff"/><path d="M349.35,142.1c3.14,0,3.14-4.87,0-4.87s-3.14,4.87,0,4.87Z" style="fill:#c2d5ff"/><path d="M151.5,285.21h-.41a1.87,1.87,0,0,0-.93.21,2.2,2.2,0,0,0-1.29,1.29,1.88,1.88,0,0,0-.21.94l.09.65a2.36,2.36,0,0,0,.62,1.07l.49.38a2.41,2.41,0,0,0,1.23.33h.41a1.69,1.69,0,0,0,.94-.21,1.72,1.72,0,0,0,.78-.5,1.83,1.83,0,0,0,.51-.78,1.91,1.91,0,0,0,.21-.94l-.09-.65a2.38,2.38,0,0,0-.63-1.07l-.49-.38a2.53,2.53,0,0,0-1.23-.34Z" style="fill:#c2d5ff"/><path d="M118,135c1.78-15,3.56-30.21.61-45-1.12-5.59-3.77-11.89-9.32-13.2-3.06-.72-6.33.37-8.9,2.2s-4.84,3.26-6.79,5.73c-1.78-4.49-2.58-9.3-3.93-13.94s-3.4-9.27-7.06-12.41S73.37,54,69.22,56.47c-2.86,1.72-4.56,4.83-5.86,7.9-6.44,15.22-5.12,31.95,2,46.85-2-3.13-4.09-6.34-7.11-8.51s-7.26-3.07-10.5-1.24c-3.64,2.07-4.83,6.71-5.24,10.87-2.12,21.52,7.83,43.51,25.64,55.77-4.7-6.72-16.09-7.08-21.2-.67s-3.17,16.2.42,23.75a74.92,74.92,0,0,0,52.67,40.68c7.47-14.88,13.29-31,18.59-46.74C123.89,169.53,116.09,151.34,118,135Z" style="fill:#c2d5ff"/><path d="M96.33,215.58a765,765,0,0,1-21-138.16" style="fill:none;stroke:#fff;stroke-linecap:round;stroke-linejoin:round"/><path d="M55.81,116.6A44.36,44.36,0,0,0,82,143.8" style="fill:none;stroke:#fff;stroke-linecap:round;stroke-linejoin:round"/><path d="M105.85,88.74A53.64,53.64,0,0,1,79.26,124" style="fill:none;stroke:#fff;stroke-linecap:round;stroke-linejoin:round"/><path d="M56.05,176.25A43.54,43.54,0,0,0,91.2,194.87" style="fill:none;stroke:#fff;stroke-linecap:round;stroke-linejoin:round"/><path d="M267.5,135c-1.78-15-3.55-30.21-.6-45,1.11-5.59,3.76-11.89,9.31-13.2a11.3,11.3,0,0,1,8.91,2.2c2.57,1.82,4.83,3.26,6.79,5.73,1.77-4.49,2.57-9.3,3.93-13.94s3.39-9.27,7.05-12.41,9.28-4.4,13.43-1.93c2.86,1.72,4.56,4.83,5.86,7.9,6.44,15.22,5.12,31.95-2,46.85,2-3.13,4.09-6.34,7.12-8.51s7.26-3.07,10.49-1.24c3.64,2.07,4.84,6.71,5.25,10.87,2.12,21.52-7.84,43.51-25.65,55.77,4.7-6.72,16.1-7.08,21.21-.67s3.16,16.2-.43,23.75a74.92,74.92,0,0,1-52.66,40.68c-7.48-14.88-13.3-31-18.59-46.74C261.65,169.53,269.45,151.34,267.5,135Z" style="fill:#c2d5ff"/><path d="M289.21,215.58a764.09,764.09,0,0,0,21-138.16" style="fill:none;stroke:#fff;stroke-linecap:round;stroke-linejoin:round"/><path d="M329.73,116.6a44.34,44.34,0,0,1-26.2,27.2" style="fill:none;stroke:#fff;stroke-linecap:round;stroke-linejoin:round"/><path d="M279.7,88.74A53.57,53.57,0,0,0,306.29,124" style="fill:none;stroke:#fff;stroke-linecap:round;stroke-linejoin:round"/><path d="M329.49,176.25a43.53,43.53,0,0,1-35.15,18.62" style="fill:none;stroke:#fff;stroke-linecap:round;stroke-linejoin:round"/><path d="M249.08,126.78l10.24-10.24-6.26-6.25a.39.39,0,0,1,.06-.11h8.63V95.72h-8.7c0-.08-.07-.15-.09-.2l6-6L248.75,79.26l-6,6a2.68,2.68,0,0,0-.34-.16v-8.3H227.91V85.2a2.83,2.83,0,0,0-.43.2l-5.79-5.79L211.46,89.84l5.9,5.91a3.43,3.43,0,0,1-.16.45H209v14.48h8.52a2.52,2.52,0,0,1,.15.33l-5.89,5.88,10.24,10.23,6.16-6.16a1.5,1.5,0,0,0,.2.07l0,8.53h14.48V120.7l.09,0Zm-22.67-15a12.45,12.45,0,1,1,17.62,0A12.44,12.44,0,0,1,226.41,111.82Z" style="fill:#6696ff"/><path d="M250.73,79.9h7.74V75.17l.06,0,3.27,3.26L267.27,73,264,69.66a.76.76,0,0,0,0-.11h4.55V61.81H264a1.46,1.46,0,0,0-.07-.19l3.14-3.14L261.61,53l-3.16,3.16a2.34,2.34,0,0,0-.24-.09V51.71h-7.74v4.47l-.23.11-3.09-3.09-5.47,5.47,3.22,3.22a1.34,1.34,0,0,1-.07.18h-4.45v7.74H245l.05.1-3.23,3.22,5.47,5.48,3.35-3.36,0,0Zm-2.91-14.22a6.66,6.66,0,1,1,6.66,6.66A6.65,6.65,0,0,1,247.82,65.68Z" style="fill:#6696ff"/><rect x="171.59" y="230.8" width="35.53" height="39.9" style="fill:#003cbf"/><rect x="171.59" y="230.8" width="35.53" height="13.87" style="fill:#002880"/><path d="M164.33,261h50.05a8.29,8.29,0,0,1,8.29,8.29v2.85a0,0,0,0,1,0,0H156a0,0,0,0,1,0,0v-2.85A8.29,8.29,0,0,1,164.33,261Z" style="fill:#002880"/><rect x="90.76" y="106.66" width="197.19" height="128.73" rx="8.01" style="fill:#003cbf"/><rect x="130.21" y="77.65" width="118.29" height="186.75" rx="3.23" transform="translate(360.38 -18.33) rotate(90)" style="fill:#0050ff"/><rect x="48" y="87.58" width="91.93" height="58.27" rx="2.2" style="fill:#6696ff"/><rect x="67.94" y="73.65" width="52.06" height="89.4" rx="1.74" transform="translate(212.32 24.38) rotate(90)" style="fill:#0050ff"/><circle cx="136.91" cy="89.95" r="1.16" style="fill:#0050ff"/><circle cx="133.07" cy="89.95" r="1.16" style="fill:#0050ff"/><path d="M130.38,90a1.16,1.16,0,1,1-1.16-1.16A1.16,1.16,0,0,1,130.38,90Z" style="fill:#0050ff"/><path d="M61.89,101.64a4.71,4.71,0,1,1-4.71-4.71A4.7,4.7,0,0,1,61.89,101.64Z" style="fill:#ffcd6e"/><rect x="64.05" y="96.97" width="70.18" height="2.22" style="fill:#d5d4eb"/><rect x="64.05" y="100.53" width="47.77" height="2.22" style="fill:#d5d4eb"/><rect x="64.05" y="104.3" width="24.84" height="2.22" style="fill:#d5d4eb"/><path d="M61.89,116.63a4.71,4.71,0,1,1-4.71-4.71A4.7,4.7,0,0,1,61.89,116.63Z" style="fill:#3da0b8"/><rect x="64.05" y="111.96" width="70.18" height="2.22" style="fill:#d5d4eb"/><rect x="64.05" y="115.52" width="47.77" height="2.22" style="fill:#d5d4eb"/><rect x="64.05" y="119.29" width="24.84" height="2.22" style="fill:#d5d4eb"/><path d="M61.89,131.62a4.71,4.71,0,1,1-4.71-4.71A4.7,4.7,0,0,1,61.89,131.62Z" style="fill:#ff5e63"/><rect x="64.05" y="126.95" width="70.18" height="2.22" style="fill:#d5d4eb"/><rect x="64.05" y="130.5" width="47.77" height="2.22" style="fill:#d5d4eb"/><rect x="64.05" y="134.28" width="24.84" height="2.22" style="fill:#d5d4eb"/><polyline points="144.3 149.91 144.3 151.41 142.8 151.41" style="fill:none;stroke:#38356e;stroke-linejoin:round;stroke-width:0.5px"/><line x1="139.82" y1="151.41" x2="45.94" y2="151.41" style="fill:none;stroke:#38356e;stroke-linejoin:round;stroke-width:0.5px;stroke-dasharray:2.980163097381592,2.980163097381592"/><polyline points="44.45 151.41 42.95 151.41 42.95 149.91" style="fill:none;stroke:#38356e;stroke-linejoin:round;stroke-width:0.5px"/><line x1="42.95" y1="146.78" x2="42.95" y2="85.65" style="fill:none;stroke:#38356e;stroke-linejoin:round;stroke-width:0.5px;stroke-dasharray:3.134732723236084,3.134732723236084"/><polyline points="42.95 84.08 42.95 82.58 44.45 82.58" style="fill:none;stroke:#38356e;stroke-linejoin:round;stroke-width:0.5px"/><line x1="47.43" y1="82.58" x2="141.31" y2="82.58" style="fill:none;stroke:#38356e;stroke-linejoin:round;stroke-width:0.5px;stroke-dasharray:2.980163097381592,2.980163097381592"/><polyline points="142.8 82.58 144.3 82.58 144.3 84.08" style="fill:none;stroke:#38356e;stroke-linejoin:round;stroke-width:0.5px"/><line x1="144.3" y1="87.22" x2="144.3" y2="148.35" style="fill:none;stroke:#38356e;stroke-linejoin:round;stroke-width:0.5px;stroke-dasharray:3.134732723236084,3.134732723236084"/><rect x="40.97" y="80.6" width="3.97" height="3.97" style="fill:#003cbf"/><rect x="40.97" y="149.43" width="3.97" height="3.97" style="fill:#003cbf"/><rect x="142.31" y="80.6" width="3.97" height="3.97" style="fill:#003cbf"/><rect x="142.31" y="149.43" width="3.97" height="3.97" style="fill:#003cbf"/><rect x="252.5" y="202.12" width="70.9" height="49.24" rx="2.2" style="fill:#6696ff"/><rect x="265.95" y="193.74" width="43.99" height="68.76" rx="1.4" transform="translate(516.07 -59.83) rotate(90)" style="fill:#0050ff"/><path d="M321.83,204.13a1,1,0,1,1-1-1A1,1,0,0,1,321.83,204.13Z" style="fill:#0050ff"/><path d="M318.58,204.13a1,1,0,1,1-1-1A1,1,0,0,1,318.58,204.13Z" style="fill:#0050ff"/><path d="M315.33,204.13a1,1,0,1,1-1-1A1,1,0,0,1,315.33,204.13Z" style="fill:#0050ff"/><circle cx="287.95" cy="228.12" r="10.21" transform="translate(-3.99 451.12) rotate(-75.76)" style="fill:#0050ff"/><polygon points="293.92 228.12 289.19 230.85 284.47 233.58 284.47 228.12 284.47 222.66 289.19 225.39 293.92 228.12" style="fill:#0050ff"/><rect x="253.57" y="245.51" width="68.76" height="1.35" style="fill:#d5d4eb"/><rect x="253.57" y="245.51" width="15.49" height="1.35" style="fill:#ff5e63"/><circle cx="269.06" cy="246.19" r="1.04" style="fill:#ff5e63"/><polyline points="327.19 254.03 327.19 255.53 325.69 255.53" style="fill:none;stroke:#38356e;stroke-linejoin:round;stroke-width:0.5px"/><line x1="322.67" y1="255.52" x2="251.72" y2="255.52" style="fill:none;stroke:#38356e;stroke-linejoin:round;stroke-width:0.5px;stroke-dasharray:3.0195155143737793,3.0195155143737793"/><polyline points="250.21 255.53 248.71 255.53 248.71 254.03" style="fill:none;stroke:#38356e;stroke-linejoin:round;stroke-width:0.5px"/><line x1="248.71" y1="250.87" x2="248.71" y2="201.93" style="fill:none;stroke:#38356e;stroke-linejoin:round;stroke-width:0.5px;stroke-dasharray:3.1570732593536377,3.1570732593536377"/><polyline points="248.71 200.35 248.71 198.85 250.21 198.85" style="fill:none;stroke:#38356e;stroke-linejoin:round;stroke-width:0.5px"/><line x1="253.22" y1="198.85" x2="324.18" y2="198.85" style="fill:none;stroke:#38356e;stroke-linejoin:round;stroke-width:0.5px;stroke-dasharray:3.0195155143737793,3.0195155143737793"/><polyline points="325.69 198.85 327.19 198.85 327.19 200.35" style="fill:none;stroke:#38356e;stroke-linejoin:round;stroke-width:0.5px"/><line x1="327.19" y1="203.51" x2="327.19" y2="252.45" style="fill:none;stroke:#38356e;stroke-linejoin:round;stroke-width:0.5px;stroke-dasharray:3.1570732593536377,3.1570732593536377"/><rect x="247.17" y="197.32" width="3.07" height="3.07" style="fill:#003cbf"/><rect x="247.17" y="253.99" width="3.07" height="3.07" style="fill:#003cbf"/><rect x="325.66" y="197.32" width="3.07" height="3.07" style="fill:#003cbf"/><rect x="325.66" y="253.99" width="3.07" height="3.07" style="fill:#003cbf"/><path d="M311.76,124.82H278.19a1.18,1.18,0,0,1-1.19-1.18v-24a1.18,1.18,0,0,1,1.19-1.18h13.64a1.18,1.18,0,0,1,.84.34l2.22,2.22a1.19,1.19,0,0,0,.84.35h16a1.18,1.18,0,0,1,1.18,1.19v21.07A1.18,1.18,0,0,1,311.76,124.82Z" style="fill:#6696ff"/><polygon points="308.71 84.41 308.71 114.59 280.22 114.59 280.22 79.9 304.21 79.9 308.71 84.41" style="fill:#d5d4eb"/><polygon points="304.21 84.41 304.21 79.9 308.71 84.41 304.21 84.41" style="fill:#cbcae0"/><polygon points="310.48 85.99 310.48 116.17 281.98 116.17 281.98 81.48 305.98 81.48 310.48 85.99" style="fill:#e7e6ff"/><path d="M313,124.82H279.45a1.18,1.18,0,0,1-1.19-1.18V103.06a1.19,1.19,0,0,1,1.19-1.19h13.64a1.19,1.19,0,0,1,.84.35l2.22,2.22a1.19,1.19,0,0,0,.84.35h16A1.18,1.18,0,0,1,314.2,106v17.67A1.18,1.18,0,0,1,313,124.82Z" style="fill:#0050ff"/><polygon points="305.98 85.99 305.98 81.48 310.48 85.99 305.98 85.99" style="fill:#cbcae0"/><rect x="283.2" y="83.46" width="21.58" height="1.17" style="fill:#cbcae0"/><rect x="283.27" y="87.88" width="25.92" height="0.74" style="fill:#cbcae0"/><rect x="283.27" y="89.97" width="25.92" height="0.74" style="fill:#cbcae0"/><rect x="283.27" y="92.07" width="21.3" height="0.74" style="fill:#cbcae0"/><rect x="283.27" y="94.16" width="21.3" height="0.74" style="fill:#cbcae0"/><rect x="283.27" y="96.25" width="14.4" height="0.74" style="fill:#cbcae0"/><rect x="283.27" y="98.35" width="14.4" height="0.74" style="fill:#cbcae0"/><rect x="102.57" y="120.35" width="173.56" height="101.36" rx="4.57" style="fill:#e0eaff"/><rect x="144.54" y="89.71" width="89.63" height="168.78" rx="2.76" transform="translate(363.46 -15.25) rotate(90)" style="fill:#0050ff"/><path d="M272.62,124.82a2.2,2.2,0,1,1-2.2-2.2A2.19,2.19,0,0,1,272.62,124.82Z" style="fill:#0050ff"/><path d="M265.36,124.82a2.2,2.2,0,1,1-2.2-2.2A2.19,2.19,0,0,1,265.36,124.82Z" style="fill:#0050ff"/><path d="M258.1,124.82a2.2,2.2,0,1,1-2.2-2.2A2.2,2.2,0,0,1,258.1,124.82Z" style="fill:#0050ff"/><polyline points="173.46 178.83 173.46 180.33 171.96 180.33" style="fill:none;stroke:#38356e;stroke-linejoin:round;stroke-width:0.5px"/><line x1="169.05" y1="180.33" x2="112.28" y2="180.33" style="fill:none;stroke:#38356e;stroke-linejoin:round;stroke-width:0.5px;stroke-dasharray:2.9114108085632324,2.9114108085632324"/><polyline points="110.82 180.33 109.32 180.33 109.32 178.83" style="fill:none;stroke:#38356e;stroke-linejoin:round;stroke-width:0.5px"/><line x1="109.32" y1="175.96" x2="109.32" y2="137.22" style="fill:none;stroke:#38356e;stroke-linejoin:round;stroke-width:0.5px;stroke-dasharray:2.8696250915527344,2.8696250915527344"/><polyline points="109.32 135.79 109.32 134.29 110.82 134.29" style="fill:none;stroke:#38356e;stroke-linejoin:round;stroke-width:0.5px"/><line x1="113.73" y1="134.29" x2="170.5" y2="134.29" style="fill:none;stroke:#38356e;stroke-linejoin:round;stroke-width:0.5px;stroke-dasharray:2.9114108085632324,2.9114108085632324"/><polyline points="171.96 134.29 173.46 134.29 173.46 135.79" style="fill:none;stroke:#38356e;stroke-linejoin:round;stroke-width:0.5px"/><line x1="173.46" y1="138.66" x2="173.46" y2="177.4" style="fill:none;stroke:#38356e;stroke-linejoin:round;stroke-width:0.5px;stroke-dasharray:2.8696250915527344,2.8696250915527344"/><rect x="116.82" y="141.71" width="64.14" height="46.04" style="fill:#e0eaff"/><polygon points="176.81 184.06 120.84 184.06 138.48 150.79 151.73 173.66 160.72 164.17 176.81 184.06" style="fill:none;stroke:#fff;stroke-linecap:round;stroke-linejoin:round;stroke-width:2px"/><circle cx="154.37" cy="152.63" r="5.48" style="fill:none;stroke:#fff;stroke-linecap:round;stroke-linejoin:round;stroke-width:2px"/><rect x="188.33" y="135" width="79.89" height="4.91" style="fill:#d5d4eb"/><rect x="188.33" y="144.05" width="22.96" height="2.46" style="fill:#d5d4eb"/><rect x="214.42" y="144.05" width="9.32" height="2.46" style="fill:#d5d4eb"/><rect x="227.32" y="144.05" width="24.45" height="2.46" style="fill:#d5d4eb"/><rect x="253.7" y="144.05" width="14.52" height="2.46" style="fill:#d5d4eb"/><rect x="188.33" y="150.17" width="30.27" height="2.46" style="fill:#d5d4eb"/><rect x="221.95" y="150.17" width="11.78" height="2.46" style="fill:#d5d4eb"/><rect x="236.42" y="150.17" width="11.78" height="2.46" style="fill:#d5d4eb"/><rect x="250.01" y="150.17" width="14.95" height="2.46" style="fill:#d5d4eb"/><rect x="188.33" y="156.29" width="8.42" height="2.46" style="fill:#d5d4eb"/><rect x="227.84" y="156.29" width="15.13" height="2.46" style="fill:#d5d4eb"/><rect x="198.69" y="156.29" width="26.61" height="2.46" style="fill:#d5d4eb"/><rect x="188.33" y="162.42" width="19.08" height="2.46" style="fill:#d5d4eb"/><rect x="210.7" y="162.42" width="6.41" height="2.46" style="fill:#d5d4eb"/><rect x="220.09" y="162.42" width="12.6" height="2.46" style="fill:#d5d4eb"/><rect x="188.33" y="168.54" width="7.3" height="2.46" style="fill:#d5d4eb"/><rect x="198.4" y="168.54" width="16.03" height="2.46" style="fill:#d5d4eb"/><rect x="109.32" y="192.64" width="71.64" height="21.31" style="fill:#d5d4eb"/><rect x="111.22" y="194.09" width="13.6" height="12.65" style="fill:#0050ff"/><rect x="111.22" y="208.61" width="13.6" height="3.76" style="fill:#0050ff"/><rect x="128.55" y="199.73" width="13.6" height="12.65" transform="translate(270.69 412.1) rotate(180)" style="fill:#0050ff"/><rect x="128.55" y="194.09" width="13.6" height="3.76" transform="translate(270.69 391.94) rotate(180)" style="fill:#0050ff"/><rect x="147.22" y="194.09" width="13.6" height="12.65" style="fill:#0050ff"/><rect x="147.22" y="208.61" width="13.6" height="3.76" style="fill:#0050ff"/><rect x="164.54" y="199.73" width="13.6" height="12.65" transform="translate(342.68 412.1) rotate(180)" style="fill:#0050ff"/><rect x="164.54" y="194.09" width="13.6" height="3.76" transform="translate(342.68 391.94) rotate(180)" style="fill:#0050ff"/><path d="M270.63,179.79H190v-2.34a2.06,2.06,0,0,1,2.06-2.06h76.51a2.06,2.06,0,0,1,2.06,2.06Z" style="fill:#e0eaff"/><path d="M269.82,178.94v33.4a1.39,1.39,0,0,1-1.39,1.39H192.2a1.39,1.39,0,0,1-1.39-1.39v-33.4h79m.81-.81H190v34.21a2.2,2.2,0,0,0,2.2,2.2h76.23a2.2,2.2,0,0,0,2.2-2.2V178.13Z" style="fill:#e0eaff"/><rect x="192.8" y="182.51" width="10.15" height="29.27" style="fill:#d5d4eb"/><rect x="218.09" y="182.51" width="49.02" height="29.27" style="fill:#d5d4eb"/><rect x="220.7" y="184.06" width="44.01" height="2.98" style="fill:#0050ff"/><rect x="220.7" y="188.84" width="44.01" height="1.49" style="fill:#0050ff"/><rect x="205.08" y="188.84" width="10.15" height="3.49" style="fill:#d5d4eb"/><rect x="220.7" y="191.68" width="9.47" height="17.9" style="fill:#0050ff"/><rect x="243.94" y="191.68" width="9.47" height="17.9" style="fill:#0050ff"/><path d="M242.51,210H232.23V191.28h10.28Zm-9.46-.81h8.65V192.09h-8.65Z" style="fill:#0050ff"/><path d="M265.11,210H254.83V191.28h10.28Zm-9.46-.81h8.65V192.09h-8.65Z" style="fill:#0050ff"/><rect x="205.08" y="195.17" width="10.15" height="3.49" style="fill:#d5d4eb"/><rect x="205.08" y="201.51" width="10.15" height="3.49" style="fill:#d5d4eb"/><rect x="205.08" y="207.84" width="10.15" height="3.49" style="fill:#d5d4eb"/><path d="M192.34,84.15H163.05a7,7,0,0,0-7,7h0a6.88,6.88,0,0,0,.81,3.26l-2.29,4.18a1.25,1.25,0,0,0,1.58,1.75l5.47-2.31a7,7,0,0,0,1.47.15h29.29a7,7,0,0,0,7-7h0A7,7,0,0,0,192.34,84.15Z" style="fill:#6696ff"/><path d="M166.84,91.23a2.49,2.49,0,1,1-2.49-2.49A2.49,2.49,0,0,1,166.84,91.23Z" style="fill:#fff"/><path d="M175.92,91.23a2.49,2.49,0,1,1-2.49-2.49A2.48,2.48,0,0,1,175.92,91.23Z" style="fill:#fff"/><path d="M185,91.23a2.49,2.49,0,1,1-2.49-2.49A2.49,2.49,0,0,1,185,91.23Z" style="fill:#fff"/><path d="M194.1,91.23a2.49,2.49,0,1,1-2.49-2.49A2.49,2.49,0,0,1,194.1,91.23Z" style="fill:#fff"/><path d="M122,211.77l-1.73,1.47a47.74,47.74,0,0,1-20,10l-2.48.58a26.53,26.53,0,1,0,5.37,16c0-.41,0-.82,0-1.23L105.6,237a47.7,47.7,0,0,0,18.05-24.08A1,1,0,0,0,122,211.77Z" style="fill:#ffcd6e"/><rect x="51.77" y="164.91" width="47.14" height="12.17" style="fill:#0050ff"/><path d="M68.36,166.85,65.42,175H63.16l-1.82-5-1.88,5H57.2l-2.92-8.1h2.21l1.92,5.48,2-5.48h2l1.93,5.48,2-5.48Z" style="fill:#0050ff"/><path d="M82.27,166.85,79.33,175H77.07l-1.82-5-1.88,5H71.11l-2.92-8.1H70.4l1.92,5.48,2-5.48h2l1.93,5.48,2-5.48Z" style="fill:#0050ff"/><path d="M96.18,166.85,93.24,175H91l-1.83-5-1.88,5H85l-2.92-8.1h2.22l1.91,5.48,2-5.48h2l1.93,5.48,2-5.48Z" style="fill:#0050ff"/><line x1="49.27" y1="164.91" x2="54.27" y2="164.91" style="fill:none;stroke:#38356e;stroke-miterlimit:10"/><line x1="49.27" y1="177.08" x2="54.27" y2="177.08" style="fill:none;stroke:#38356e;stroke-miterlimit:10"/><line x1="51.77" y1="164.91" x2="51.77" y2="177.08" style="fill:none;stroke:#38356e;stroke-miterlimit:10"/><polygon points="182.93 165.39 178.8 164.29 174.67 163.18 175.78 167.31 176.89 171.44 179.15 169.18 183.87 173.9 185.39 172.37 180.67 167.66 182.93 165.39" style="fill:#002880"/><path d="M55.42,239.48a5.13,5.13,0,0,0-.08.79,1.43,1.43,0,0,0,.45,1.16,2.18,2.18,0,0,0,1.41.37,10.49,10.49,0,0,0,1.28-.09,13.18,13.18,0,0,0,1.36-.25v-.65H57.72l.35-1.5h3.67v1.61H61a5,5,0,0,1-.07.78,1.47,1.47,0,0,1-.23.56,1.45,1.45,0,0,1-.5.44,5.34,5.34,0,0,1-1.45.51,8.5,8.5,0,0,1-1.77.2,2.58,2.58,0,0,1-3-3,12.46,12.46,0,0,1,.33-2.39h1.33C55.55,238.7,55.47,239.17,55.42,239.48Z" style="fill:#0050ff"/><path d="M65.19,237.21c0,.65,0,1.16,0,1.52a1.69,1.69,0,0,1-.44,1.15,2.85,2.85,0,0,1-1.22.77,5.64,5.64,0,0,1-1.83.27h-.49v-1.61h.49a8,8,0,0,0,1.25-.09,3.38,3.38,0,0,0,.9-.25l-.36-3.11,1.57-.33C65.14,236,65.16,236.57,65.19,237.21ZM64,233l1.12,1.13L64,235.21l-1.12-1.12Z" style="fill:#0050ff"/><path d="M67.65,239a1.56,1.56,0,0,0,.58.23,4.12,4.12,0,0,0,.81.08h.27v1.61h-.49a2.73,2.73,0,0,1-1.95-.61,2.48,2.48,0,0,1-.68-1.86l-.12-5,1.58-.25Z" style="fill:#0050ff"/><path d="M72.25,239.13a3.51,3.51,0,0,0,1.19.18h.48v1.61h-.63a2.29,2.29,0,0,1-.81-.16,7.33,7.33,0,0,1-.92-.47,4.19,4.19,0,0,1-1.13.46,4.85,4.85,0,0,1-1.26.17h-.35v-1.61h.5a7.13,7.13,0,0,0,.88,0,3.16,3.16,0,0,0,.64-.12v-2.81h1.4Zm-.85,2.18,1.12,1.13-1.12,1.12-1.12-1.12Z" style="fill:#0050ff"/><path d="M78.53,239.31v1.61H77.9a2.29,2.29,0,0,1-.81-.16,7.33,7.33,0,0,1-.92-.47,4.19,4.19,0,0,1-1.13.46,4.85,4.85,0,0,1-1.26.17h-.35v-1.61h.5a7.13,7.13,0,0,0,.88,0,3.16,3.16,0,0,0,.64-.12v-2.81h1.4v2.79a3.51,3.51,0,0,0,1.19.18Zm-1.62,2,1,.94-1,.93-.91-.84-.91.83-1-.93,1-.94.91.84Z" style="fill:#0050ff"/><path d="M83.14,239.31v1.61h-.63a2.39,2.39,0,0,1-.82-.16,8,8,0,0,1-.91-.47,4.33,4.33,0,0,1-1.13.46,4.85,4.85,0,0,1-1.26.17H78v-1.61h.5a7.13,7.13,0,0,0,.88,0,3.16,3.16,0,0,0,.64-.12v-2.81h1.4v2.79a3.51,3.51,0,0,0,1.19.18Zm-3.3-3.4-1-.93,1-.94.92.84.9-.84,1,.94-1,.94-.92-.84Z" style="fill:#0050ff"/><path d="M94.61,239.31v1.61h-.49a3.46,3.46,0,0,1-.89-.12,3.08,3.08,0,0,1-.83-.34,2,2,0,0,1-.63.37,2.58,2.58,0,0,1-.8.13,3.17,3.17,0,0,1-1.64-.54,3.18,3.18,0,0,1-.87.39,4.09,4.09,0,0,1-1,.14,4.44,4.44,0,0,1-1-.12,3.2,3.2,0,0,1-.91-.36,3.22,3.22,0,0,1-1,.33,6.88,6.88,0,0,1-1.34.12h-.49v-1.61h2.11v-2.83h1.41l0,2.79a5.49,5.49,0,0,0,1.28.12,6.47,6.47,0,0,0,1.17-.09v-2.82h1.41l0,2.82a5.35,5.35,0,0,0,.8,0c.34,0,.61,0,.82,0l-.2-2.8,1.58-.24v3Zm-5.83-3.76-1-1,1-1,.94.94.93-1,1,1.05-1,1-.93-.93Zm.93-1.6-1-1,1-1,1,1Z" style="fill:#0050ff"/><path d="M97.67,239.88a2.89,2.89,0,0,1-1.23.77,5.58,5.58,0,0,1-1.82.27h-.5v-1.61h.5a7.85,7.85,0,0,0,1.24-.09,3.17,3.17,0,0,0,.9-.25l-.36-3.11,1.57-.33c0,.47.07,1,.09,1.68s0,1.16,0,1.52A1.68,1.68,0,0,1,97.67,239.88Zm-.56,1.5,1,1-1,.94-.88-.83-.88.84-1-.95,1-1,.88.84Zm-.87,1.5,1,1-1,.95-1-.95Z" style="fill:#0050ff"/><path d="M64,46.38h45.34a10.89,10.89,0,0,1,10.9,10.89h0A10.89,10.89,0,0,1,119,62.33l3.54,6.46a1.94,1.94,0,0,1-2.45,2.72l-8.47-3.59a10.6,10.6,0,0,1-2.27.24H64a10.89,10.89,0,0,1-10.9-10.89h0A10.89,10.89,0,0,1,64,46.38Z" style="fill:#3da0b8"/><path d="M280.4,193a30.62,30.62,0,0,0,2.83-7.3V170.08a3.25,3.25,0,0,1,3.25-3.25h54.06a3.24,3.24,0,0,1,3.25,3.25v16.57a3.24,3.24,0,0,1-3.25,3.25H288.66a14.08,14.08,0,0,1-7.35,4.32A.84.84,0,0,1,280.4,193Z" style="fill:#ff5e63"/><path d="M327.48,62.94H282.13a10.88,10.88,0,0,0-10.89,10.89h0a10.77,10.77,0,0,0,1.25,5.06l-3.55,6.46a1.94,1.94,0,0,0,2.46,2.72l8.46-3.59a10.6,10.6,0,0,0,2.27.24h45.35a10.89,10.89,0,0,0,10.89-10.89h0A10.89,10.89,0,0,0,327.48,62.94Z" style="fill:#ffcd6e"/><path d="M274.65,74.9c0-.29.07-.75.15-1.4h1.34c-.08.57-.13,1-.15,1.27s0,.52,0,.71a1.15,1.15,0,0,0,.37,1,2,2,0,0,0,1.21.29,6.61,6.61,0,0,0,1.21-.12,6.9,6.9,0,0,0,1.26-.34l-.25-4.66,1.6-.23v3.08h1.89v1.63h-.81a2.36,2.36,0,0,1-1.13-.27,2.9,2.9,0,0,1-.43,1.3,2.2,2.2,0,0,1-1.11.79,7.82,7.82,0,0,1-1.29.37,5.74,5.74,0,0,1-1.18.13,2.65,2.65,0,0,1-2-.7,2.87,2.87,0,0,1-.68-2.06Q274.62,75.33,274.65,74.9Zm2.78-5.18,1.13,1.15L277.43,72l-1.14-1.13Z" style="fill:#0050ff"/><path d="M294.88,74.46v1.63h-.49a3.6,3.6,0,0,1-.9-.12,4,4,0,0,1-.84-.34A2.08,2.08,0,0,1,292,76a2.63,2.63,0,0,1-.8.13,3.17,3.17,0,0,1-1.67-.55,2.86,2.86,0,0,1-.88.4,4.24,4.24,0,0,1-1.07.14,4.68,4.68,0,0,1-1.07-.12,3.61,3.61,0,0,1-.92-.37,2.94,2.94,0,0,1-1,.34,7.17,7.17,0,0,1-1.36.12h-.5V74.46h2.14V71.59h1.43l0,2.82a5,5,0,0,0,1.29.13,6.61,6.61,0,0,0,1.19-.1V71.59h1.43l0,2.86a7.4,7.4,0,0,0,.81,0,6.28,6.28,0,0,0,.83,0l-.2-2.84,1.6-.24v3.08ZM289,70.64l-1.05-1.06L289,68.52l.95,1,.95-1,1.06,1.06-1.06,1.06-.94-.94Zm.95-1.62L288.86,68l1.06-1.07L291,68Z" style="fill:#0050ff"/><path d="M299.57,74.46v1.63h-.64a2.24,2.24,0,0,1-.83-.17,5.8,5.8,0,0,1-.93-.47,4.8,4.8,0,0,1-1.14.47,5,5,0,0,1-1.28.17h-.36V74.46h.51a7.6,7.6,0,0,0,.9,0,4,4,0,0,0,.64-.13V71.44h1.42v2.83a3.42,3.42,0,0,0,1.21.19Zm-1.64,2,1,1-1,.94-.93-.84-.92.84-1-1,1-1,.93.85Z" style="fill:#0050ff"/><path d="M299.07,74.46h.5c.62,0,1.12,0,1.51,0a7.55,7.55,0,0,0,1.16-.17V73.16a8.41,8.41,0,0,0,0-.85.47.47,0,0,0-.14-.3,2.25,2.25,0,0,0-.48-.22L299.46,71l.46-2.27,4.27-.87L304,69.51l-3.3.43,1.17.37a6.51,6.51,0,0,1,1.2.47.87.87,0,0,1,.38.58,12.82,12.82,0,0,1,.12,1.56v1.39l.7.11a4.29,4.29,0,0,0,.56,0h.5v1.63h-.5a3.23,3.23,0,0,1-1.08-.19,3.56,3.56,0,0,1-.93-.53,3.06,3.06,0,0,1-1.33.56,9.85,9.85,0,0,1-1.94.16h-.5Z" style="fill:#0050ff"/><path d="M310,74.46v1.63h-.65a2.19,2.19,0,0,1-.82-.17,5.08,5.08,0,0,1-.93-.47,4.7,4.7,0,0,1-1.15.47,4.94,4.94,0,0,1-1.28.17h-.35V74.46h.5a7.38,7.38,0,0,0,.9,0,3.81,3.81,0,0,0,.64-.13l0-2.85h1.41v2.83a3.45,3.45,0,0,0,1.21.19Zm-1.65,2,1,1-1,.94-.93-.84-.92.84-1-1,1-1,.93.85Z" style="fill:#0050ff"/><path d="M309.53,74.46h.57a6.05,6.05,0,0,0,1.63-.16l-.3-5.82,1.63-.2v6a3,3,0,0,0,.63.14,6.61,6.61,0,0,0,.76,0H315v1.63h-.49a4,4,0,0,1-1.07-.16,4.25,4.25,0,0,1-1-.41,3.94,3.94,0,0,1-1.05.43,5,5,0,0,1-1.21.14h-.57Z" style="fill:#0050ff"/><path d="M318.05,75a2.76,2.76,0,0,1-1.24.78,5.55,5.55,0,0,1-1.86.28h-.5V74.46h.5a8.15,8.15,0,0,0,1.27-.09,3.33,3.33,0,0,0,.91-.26L316.77,71l1.59-.34q.06.72.09,1.71c0,.65,0,1.17,0,1.54A1.71,1.71,0,0,1,318.05,75Zm-.57,1.52,1,1-1,1-.89-.85-.89.85-1-1,1-1,.89.85Zm-.88,1.53,1,1-1,1-1-1Z" style="fill:#0050ff"/><path d="M319.34,68.49l1.62-.21v7.48h-1.36Z" style="fill:#0050ff"/><path d="M330.06,72.14c0,.66,0,1.15,0,1.48a2.77,2.77,0,0,1-.15,1,1.42,1.42,0,0,1-.46.65,2.93,2.93,0,0,1-.87.45,13.09,13.09,0,0,1-1.76.39,13.23,13.23,0,0,1-1.92.15,4.26,4.26,0,0,1-1.94-.37,2,2,0,0,1-.92-1,4.16,4.16,0,0,1-.25-1.55c0-.28,0-.72.07-1.33h1.38l0,.46c0,.25,0,.47,0,.64a2.07,2.07,0,0,0,.15.86,1,1,0,0,0,.6.5,3.81,3.81,0,0,0,1.29.17,15.24,15.24,0,0,0,1.93-.14,11.91,11.91,0,0,0,1.57-.29L328.4,71l1.57-.37C330,71,330,71.47,330.06,72.14Zm-4.48,4.62,1.14,1.15-1.14,1.14-1.14-1.14Z" style="fill:#0050ff"/><path d="M332.6,76.81c.33,0,.62,0,.86,0a1.66,1.66,0,0,0,.66-.22.86.86,0,0,0,.41-.52c-.41,0-.87.06-1.36.06a2.91,2.91,0,0,1-1.23-.22,1.55,1.55,0,0,1-.7-.71,2.91,2.91,0,0,1-.22-1.23,9.41,9.41,0,0,1,.15-1.86,1.8,1.8,0,0,1,2-1.54,2.24,2.24,0,0,1,2,1.06,6.16,6.16,0,0,1,.66,3.2,5.6,5.6,0,0,1-.32,2.09,2.25,2.25,0,0,1-1,1.17,3.8,3.8,0,0,1-1.81.38,11.56,11.56,0,0,1-1.62-.14V76.81Zm-.23-2.66a.5.5,0,0,0,.31.25,2.62,2.62,0,0,0,.66.06h1.09a5.81,5.81,0,0,0-.17-1.39,1.2,1.2,0,0,0-.44-.7,1.51,1.51,0,0,0-.85-.21,4.1,4.1,0,0,0-.62,0q-.06.72-.06,1.41A1.25,1.25,0,0,0,332.37,74.15Z" style="fill:#0050ff"/><path d="M310.88,179.16v1.73h-.53a2.82,2.82,0,0,1-1.13-.23,2.44,2.44,0,0,1-.89-.64,5.15,5.15,0,0,1-1.35.55,14,14,0,0,1-1.8.35,13.23,13.23,0,0,1-1.63.13,4.35,4.35,0,0,1-2.05-.4,2.07,2.07,0,0,1-1-1.07,4.68,4.68,0,0,1-.26-1.65c0-.29,0-.76.07-1.4h1.46l0,.41c0,.3,0,.54,0,.74a2.3,2.3,0,0,0,.16.92,1.15,1.15,0,0,0,.63.54,3.94,3.94,0,0,0,1.36.18,16.59,16.59,0,0,0,2.05-.13,14.07,14.07,0,0,0,1.68-.31l-.35-2.79,1.6-.24.13,1.7a4.53,4.53,0,0,0,.17,1.06.72.72,0,0,0,.37.44,2.12,2.12,0,0,0,.81.11ZM303.43,176l-1.1-1,1.1-1,1,.91,1-.9,1.09,1-1.09,1-1-.9Z" style="fill:#0050ff"/><path d="M315.83,179.16v1.73h-.68a2.27,2.27,0,0,1-.88-.18,7,7,0,0,1-1-.5,4.82,4.82,0,0,1-1.21.5,5.11,5.11,0,0,1-1.35.18h-.38v-1.73h.54a8.42,8.42,0,0,0,.95,0,3.56,3.56,0,0,0,.68-.13v-3H314v3a3.79,3.79,0,0,0,1.28.19Zm-1.74,2.16,1.09,1-1.09,1-1-.89-1,.89-1.1-1,1.1-1,1,.9Z" style="fill:#0050ff"/><path d="M319,179a3.83,3.83,0,0,0,1.28.19h.52v1.73h-.68a2.26,2.26,0,0,1-.87-.18,6.07,6.07,0,0,1-1-.5,4.82,4.82,0,0,1-1.21.5,5.11,5.11,0,0,1-1.35.18h-.38v-1.73h.53a8.2,8.2,0,0,0,.95,0,3.28,3.28,0,0,0,.68-.13v-3H319Zm-.83-5.76,1.2,1.21-1.2,1.2-1.21-1.2Z" style="fill:#0050ff"/><path d="M320.77,179.16a2.57,2.57,0,0,0,.86-.11,1.36,1.36,0,0,0,.58-.39,4.32,4.32,0,0,0,.55-.85l1.55-2.93,1.29.67a7.77,7.77,0,0,1,1.29.81,2,2,0,0,1,.59.8,3.12,3.12,0,0,1,.17,1.16,3.7,3.7,0,0,1-.34,1.6,3,3,0,0,1-.93,1.17,2.16,2.16,0,0,1-1.28.42,1.83,1.83,0,0,1-.85-.2,2.53,2.53,0,0,1-.76-.56,3.13,3.13,0,0,1-.54-.83,2.82,2.82,0,0,1-1,.72,3,3,0,0,1-1.22.25h-.52v-1.73Zm4.14-2.06-1,1.71a1.92,1.92,0,0,0,.58.62,1.34,1.34,0,0,0,.73.23,1,1,0,0,0,.65-.23,1.36,1.36,0,0,0,.41-.63,2.83,2.83,0,0,0,.17-.91Z" style="fill:#0050ff"/><path d="M328.86,172.85l1.72-.21v7.9h-1.44Z" style="fill:#0050ff"/><path d="M57.36,58.12a4.23,4.23,0,0,0-.06.65,1.18,1.18,0,0,0,.37,1,1.8,1.8,0,0,0,1.17.31A8.71,8.71,0,0,0,59.9,60,8.92,8.92,0,0,0,61,59.75v-.54H59.27L59.56,58h3v1.33H62a5.17,5.17,0,0,1-.06.65,1.44,1.44,0,0,1-.19.46,1.21,1.21,0,0,1-.41.36,4.33,4.33,0,0,1-1.21.42,6.84,6.84,0,0,1-1.47.17,2.49,2.49,0,0,1-1.85-.6,2.54,2.54,0,0,1-.6-1.86,10.47,10.47,0,0,1,.27-2h1.1C57.47,57.46,57.4,57.86,57.36,58.12Z" style="fill:#fff"/><path d="M70.84,58H72.1v1.33h-.4a3.21,3.21,0,0,1-.74-.1,2.62,2.62,0,0,1-.68-.28,1.73,1.73,0,0,1-.53.3,2,2,0,0,1-.66.11,2.63,2.63,0,0,1-1.36-.45,2.16,2.16,0,0,1-.72.32,3.15,3.15,0,0,1-.87.12,3.65,3.65,0,0,1-.88-.1,2.87,2.87,0,0,1-.74-.3,2.72,2.72,0,0,1-.81.28,6.18,6.18,0,0,1-1.11.1h-.4V58h1.74V55.63h1.17l0,2.31a4.37,4.37,0,0,0,1.06.1,5.34,5.34,0,0,0,1-.08V55.63h1.17l0,2.34A5.39,5.39,0,0,0,69,58a6.13,6.13,0,0,0,.68,0l-.17-2.32,1.31-.2Z" style="fill:#fff"/><path d="M74.63,58.44a2.23,2.23,0,0,1-1,.64,4.61,4.61,0,0,1-1.51.23H71.7V58h.41a6.53,6.53,0,0,0,1-.08,2.84,2.84,0,0,0,.75-.21l-.3-2.57,1.3-.28c0,.4,0,.86.07,1.4s0,.95,0,1.26A1.38,1.38,0,0,1,74.63,58.44Zm-.42,2.77-.76-.69-.75.69-.85-.77.85-.78.76.7.75-.7.84.78Z" style="fill:#fff"/><path d="M75.87,56a1.46,1.46,0,0,1,1.62-1.26,1.83,1.83,0,0,1,1.61.8,4.54,4.54,0,0,1,.58,2.4h1.16v1.33H79.6a2.28,2.28,0,0,1-.78,1.46,2.77,2.77,0,0,1-1.7.45,8.35,8.35,0,0,1-1.32-.11V59.89H77c.27,0,.5,0,.7,0a1.37,1.37,0,0,0,.54-.17.68.68,0,0,0,.33-.43c-.34,0-.7.05-1.1.05a2.28,2.28,0,0,1-1-.19,1.17,1.17,0,0,1-.57-.57,2.44,2.44,0,0,1-.18-1A7.73,7.73,0,0,1,75.87,56Zm1,1.69a.37.37,0,0,0,.25.2,1.82,1.82,0,0,0,.54.06h.89a4.5,4.5,0,0,0-.14-1.14,1,1,0,0,0-.36-.57,1.26,1.26,0,0,0-.69-.17,3.9,3.9,0,0,0-.5,0,11.22,11.22,0,0,0-.06,1.15A1,1,0,0,0,76.85,57.72Z" style="fill:#fff"/><path d="M83.72,56.24q0,.8,0,1.26a1.38,1.38,0,0,1-.36.94,2.29,2.29,0,0,1-1,.64,4.71,4.71,0,0,1-1.52.23h-.41V58h.41a6.43,6.43,0,0,0,1-.08,2.84,2.84,0,0,0,.75-.21l-.3-2.57,1.3-.28C83.67,55.24,83.7,55.7,83.72,56.24Zm-1-3.53.92.94-.92.92-.93-.92Z" style="fill:#fff"/><path d="M89.86,59.31a2.22,2.22,0,0,1-1.43-.53,3.13,3.13,0,0,1-.94.5,3.8,3.8,0,0,1-1.19.18,3.27,3.27,0,0,1-1.1-.15,1.06,1.06,0,0,1-.58-.5,1.93,1.93,0,0,1-.17-.94v-1h1.13V58a3,3,0,0,0,.78.08c.27,0,.55,0,.85,0a4.11,4.11,0,0,0,.71-.12l-.57-3,1.25-.33.22,2.36a3.53,3.53,0,0,0,.11.63.58.58,0,0,0,.28.32,1.49,1.49,0,0,0,.65.11h.4v1.33Z" style="fill:#fff"/><path d="M89.86,59.31V58h.41q.74,0,1.2,0a7.22,7.22,0,0,0,1-.14v-.9c0-.34,0-.57,0-.68a.39.39,0,0,0-.12-.25,2.35,2.35,0,0,0-.39-.19l-1.73-.63.37-1.85L94,52.6l-.14,1.34-2.7.34,1,.31a3.23,3.23,0,0,1,1,.42,1,1,0,0,1,.31.64,16.87,16.87,0,0,1,.1,1.84,1.56,1.56,0,0,1-.45,1.17,2.25,2.25,0,0,1-1.12.52,10.14,10.14,0,0,1-1.72.13Z" style="fill:#fff"/><path d="M99.93,61.1a4.92,4.92,0,0,1-1,.1,2.2,2.2,0,0,1-1.63-.57A2.35,2.35,0,0,1,96.78,59c0-.17,0-.38,0-.61s0-.62.11-1.15H98c-.06.47-.1.82-.12,1s0,.42,0,.58a.94.94,0,0,0,.3.78,1.6,1.6,0,0,0,1,.24,5.87,5.87,0,0,0,1-.09,6.32,6.32,0,0,0,1-.29l-.21-3.8,1.31-.19v2.91a4.94,4.94,0,0,1-.1,1.09,1.76,1.76,0,0,1-.38.79,1.86,1.86,0,0,1-.81.54A6.32,6.32,0,0,1,99.93,61.1Zm-.79-6.77.92.94-.92.92-.93-.92Z" style="fill:#fff"/><path d="M104.37,59.89a7,7,0,0,0,.7,0,1.47,1.47,0,0,0,.55-.17.7.7,0,0,0,.32-.43c-.33,0-.7.05-1.1.05a2.23,2.23,0,0,1-1-.19,1.13,1.13,0,0,1-.57-.57,2.28,2.28,0,0,1-.19-1A7.73,7.73,0,0,1,103.2,56a1.62,1.62,0,0,1,.5-.92,1.64,1.64,0,0,1,1.13-.34,1.81,1.81,0,0,1,1.65.87,5,5,0,0,1,.54,2.61,4.75,4.75,0,0,1-.26,1.7,1.92,1.92,0,0,1-.83,1,3.15,3.15,0,0,1-1.47.3,8.47,8.47,0,0,1-1.33-.11V59.89Zm-.18-2.17a.35.35,0,0,0,.24.2A1.85,1.85,0,0,0,105,58h.88a4.58,4.58,0,0,0-.13-1.14,1,1,0,0,0-.37-.57,1.21,1.21,0,0,0-.69-.17,4,4,0,0,0-.5,0,11.18,11.18,0,0,0,0,1.15A1,1,0,0,0,104.19,57.72Z" style="fill:#fff"/><path d="M113.25,59.31a2.22,2.22,0,0,1-1.43-.53,3.13,3.13,0,0,1-.94.5,3.8,3.8,0,0,1-1.19.18,3.27,3.27,0,0,1-1.1-.15,1.06,1.06,0,0,1-.58-.5,2,2,0,0,1-.18-.94v-1H109V58a3,3,0,0,0,.78.08c.27,0,.55,0,.85,0a4.11,4.11,0,0,0,.71-.12l-.58-3,1.26-.33.22,2.36a3.53,3.53,0,0,0,.11.63.58.58,0,0,0,.28.32,1.49,1.49,0,0,0,.65.11h.4v1.33Z" style="fill:#fff"/><path d="M116.51,56.24q0,.8,0,1.26a1.38,1.38,0,0,1-.36.94,2.23,2.23,0,0,1-1,.64,4.61,4.61,0,0,1-1.51.23h-.41V58h.41a6.53,6.53,0,0,0,1-.08,2.84,2.84,0,0,0,.75-.21l-.3-2.57,1.3-.28C116.47,55.24,116.49,55.7,116.51,56.24ZM115,59.66l.93.93-.93.93-.92-.93Z" style="fill:#fff"/></svg>