<?xml version="1.0" encoding="utf-8"?>
<!-- Generator: Adobe Illustrator 26.0.3, SVG Export Plug-In . SVG Version: 6.00 Build 0)  -->
<svg version="1.1" id="Слой_1" xmlns="http://www.w3.org/2000/svg" xmlns:xlink="http://www.w3.org/1999/xlink" x="0px" y="0px"
	 viewBox="0 0 3200 2000" style="enable-background:new 0 0 3200 2000;" xml:space="preserve">
<style type="text/css">
	.st0{fill:#ABC5F4;}
	.st1{fill:#FFFFFF;}
	.st2{fill:url(#SVGID_1_);}
	.st3{fill:#09005D;}
	.st4{fill:#7D97F4;}
	.st5{fill:url(#SVGID_00000122715356048067915930000005793145355031659680_);}
	.st6{fill:#BDD0FB;}
	.st7{fill:url(#SVGID_00000163752595839069039520000010316306022376694711_);}
	.st8{fill:#91B3FA;}
	.st9{fill:url(#SVGID_00000016043689713061183520000003013247336696881303_);}
	.st10{fill:#E1473D;}
	.st11{fill:url(#SVGID_00000020361521985122417690000001676954719717184415_);}
	.st12{fill:#FE7062;}
	.st13{fill:#1A0F91;}
	.st14{fill:url(#SVGID_00000093857738385608622640000001323421971179210424_);}
	.st15{fill:url(#SVGID_00000017510466358019995660000009801108307054332300_);}
	.st16{fill:url(#SVGID_00000124882583140989083510000000417089485909598651_);}
	.st17{fill:url(#SVGID_00000170259090970908477430000013133259025526673062_);}
	.st18{fill:url(#SVGID_00000065781511294675960660000008871133714317000885_);}
	.st19{fill:url(#SVGID_00000153694686540314751360000002204037552324211080_);}
	.st20{fill:url(#SVGID_00000168106611695785501560000001328270156559236740_);}
	.st21{fill:url(#SVGID_00000170239142938617826130000017426329589948178581_);}
	.st22{fill:url(#SVGID_00000130631374818754876150000006851348774390131881_);}
	.st23{fill:#F3F8FF;}
	.st24{fill:#B7D3F3;}
	.st25{fill:#FCECDB;}
	.st26{fill:#F4D2B8;}
	.st27{fill:#E9605A;}
	.st28{fill:#FF928E;}
	.st29{fill:url(#SVGID_00000076581744976271785520000007841406030444632747_);}
	.st30{fill:url(#SVGID_00000052063944660848083910000012659675711468327082_);}
	.st31{fill:url(#SVGID_00000162327153442690362600000010195504142891924392_);}
	.st32{fill:url(#SVGID_00000063616141731609826560000017396954127736126339_);}
	.st33{fill:url(#SVGID_00000044176004225627742460000010021611197043300534_);}
	.st34{fill:url(#SVGID_00000057132859774407325230000003563658489676121785_);}
	.st35{fill:url(#SVGID_00000044145508754117587820000012668761065533528711_);}
	.st36{fill:url(#SVGID_00000067915860233439894120000002010990314396563360_);}
	.st37{fill:url(#SVGID_00000018224140419105583340000017685223807474835389_);}
	.st38{fill:url(#SVGID_00000116924974009092932640000012208926980465175702_);}
	.st39{fill:url(#SVGID_00000178892166473263155740000001607891896453799856_);}
	.st40{fill:url(#SVGID_00000003806138250163983470000002866811141019982754_);}
	.st41{opacity:0.81;}
	.st42{fill:#DCE5FE;}
	.st43{opacity:0.88;}
	.st44{display:none;fill:url(#SVGID_00000042717246995284008970000007702689957999448465_);}
	.st45{fill:url(#SVGID_00000166635338049025033790000011186560951660540296_);}
	.st46{display:none;fill:url(#SVGID_00000038404335754881370040000017733832666536978622_);}
	.st47{fill:url(#SVGID_00000067932818171745558290000016350572897003357112_);}
	.st48{fill:url(#SVGID_00000088090483030413277250000007403658800092266167_);}
	.st49{opacity:0.8;}
	.st50{fill:url(#SVGID_00000016758354503406041890000014943767682325391235_);}
	.st51{fill:url(#SVGID_00000039128923301163344490000009355922883048374456_);}
	.st52{fill:url(#SVGID_00000158029118195032555260000016877229781708747430_);}
	.st53{fill:url(#SVGID_00000180331464958470405920000000382565660852557223_);}
	.st54{fill:url(#SVGID_00000005968066411647866840000008216454393401546404_);}
	.st55{fill:url(#SVGID_00000062186789174610755620000003858661786126848688_);}
	.st56{display:none;fill:url(#SVGID_00000083786126025019277730000017061287454125126033_);}
	.st57{display:none;fill:url(#SVGID_00000098216079023026054590000004505110998695843004_);}
	.st58{display:none;opacity:0.81;}
	.st59{display:inline;fill:#91B3FA;}
	.st60{display:inline;fill:#DCE5FE;}
	.st61{display:inline;fill:#BDD0FB;}
	.st62{fill:url(#SVGID_00000146492658653353050640000010128748068882635446_);}
	.st63{fill:url(#SVGID_00000076584411341813275030000009694053402150901675_);}
	.st64{fill:url(#SVGID_00000158029677813517790960000002031973357223422648_);}
	.st65{fill:url(#SVGID_00000015337543615290241330000000526800311413909634_);}
	.st66{fill:url(#SVGID_00000118358970479855729990000008089103090791896737_);}
	.st67{fill:url(#SVGID_00000108282545572278954690000002706285223587869071_);}
	.st68{fill:url(#SVGID_00000108302707506248787780000004741855336212645788_);}
	.st69{fill:url(#SVGID_00000087375057571201526850000004713224165871330962_);}
	.st70{fill:url(#SVGID_00000132779747807836510230000010996102078432913837_);}
	.st71{fill:url(#SVGID_00000147938518175524018070000002633019878251514256_);}
	.st72{fill:url(#SVGID_00000142173159864933394140000007252060242340769462_);}
	.st73{fill:url(#SVGID_00000165936340918085318130000000556999651436476566_);}
	.st74{fill:url(#SVGID_00000122715930639401084130000010159736223510596020_);}
	.st75{fill:url(#SVGID_00000013151917067247352580000007529078310660903606_);}
	.st76{fill:url(#SVGID_00000156553761296077502930000013698763164437573534_);}
	.st77{fill:url(#SVGID_00000135652463495804562460000012428260223682710699_);}
	.st78{fill:url(#SVGID_00000076591595816868522840000017035438523554753446_);}
	.st79{fill:url(#SVGID_00000029017918511293772790000012191149335892762559_);}
	.st80{fill:url(#SVGID_00000013185409099714603880000010564264029072677029_);}
	.st81{fill:url(#SVGID_00000106858958890738639410000001184679914363062931_);}
	.st82{fill:url(#SVGID_00000109000589749721981790000010531646738734452146_);}
	.st83{fill:url(#SVGID_00000099642619913930409070000003124450412100116651_);}
	.st84{fill:url(#SVGID_00000052098982517625816920000000053293095523749789_);}
	.st85{fill:url(#SVGID_00000061465969553330577960000007562096939194405036_);}
	.st86{fill:url(#SVGID_00000016065874539200555890000015907798502003977647_);}
	.st87{fill:url(#SVGID_00000179634370541637838900000006724975297403498912_);}
	.st88{fill:url(#SVGID_00000083793867408487734470000014151196011409454781_);}
	.st89{fill:url(#SVGID_00000170255817084919955920000016244185308354208162_);}
	.st90{fill:url(#SVGID_00000028301370321621217980000011613167115837095576_);}
	.st91{fill:url(#SVGID_00000178904130566370769250000011935995145447856039_);}
	.st92{fill:url(#SVGID_00000029022775170930920170000005493398903637294255_);}
	.st93{fill:url(#SVGID_00000145019818604177260330000016039508999412763293_);}
	.st94{fill:url(#SVGID_00000092431826689732105940000002151282134779293110_);}
	.st95{fill:url(#SVGID_00000103238046144746112130000015485798936650296706_);}
	.st96{fill:url(#SVGID_00000085221731867451386670000004657555967720188593_);}
	.st97{fill:url(#SVGID_00000156560329476547840730000011012761211395488437_);}
	.st98{opacity:0.6;fill:#FFFFFF;}
	.st99{opacity:0.78;fill:#FFFFFF;}
	.st100{fill:url(#SVGID_00000083071740671941216340000000466547308511568290_);}
	.st101{fill:url(#SVGID_00000178189242090638120180000002245159009540413875_);}
	.st102{fill:url(#SVGID_00000067919707684543317660000007705371128676940721_);}
	.st103{fill:url(#SVGID_00000051347869094283495830000012749844502640144790_);}
	.st104{fill:url(#SVGID_00000043439356715788394020000014106921828183627138_);}
	.st105{fill:url(#SVGID_00000171680831680740170750000005166915514694360989_);}
	.st106{fill:url(#SVGID_00000049180544730641738760000017499916638421562295_);}
	.st107{display:none;}
	.st108{display:inline;fill:url(#SVGID_00000083047029019312017750000011625145596264392846_);}
	.st109{display:inline;fill:url(#SVGID_00000091694908029532442440000001506578611787852730_);}
	.st110{display:inline;opacity:0.6;fill:#FFFFFF;}
	.st111{display:inline;opacity:0.78;fill:#FFFFFF;}
	.st112{display:inline;}
	.st113{fill:url(#SVGID_00000103972963742273473290000007101799302419739297_);}
	.st114{fill:url(#SVGID_00000061447984124899801100000006444124750543257250_);}
	.st115{fill:url(#SVGID_00000143584600738509517340000017700983188541184396_);}
	.st116{fill:url(#SVGID_00000013151071234162759740000015796042414330619789_);}
	.st117{fill:url(#SVGID_00000076585157587881357660000002160310166102678192_);}
	.st118{fill:url(#SVGID_00000129909872437625753080000006273241978069952176_);}
	.st119{fill:url(#SVGID_00000079450675790927348590000013275339133575075458_);}
	.st120{fill:url(#SVGID_00000123411554783258613410000013242264086618283165_);}
	.st121{fill:url(#SVGID_00000181805162336749204810000012044833397112681864_);}
	.st122{fill:url(#SVGID_00000133499994238637295050000001890919689172964233_);}
	.st123{fill:url(#SVGID_00000087381581713515828030000009576614132806567346_);}
	.st124{fill:url(#SVGID_00000123437439108268137290000017758922765198696334_);}
	.st125{fill:url(#SVGID_00000125576717619816515020000008891211805443776387_);}
	.st126{fill:url(#SVGID_00000019676846288210638930000017635382826791274395_);}
	.st127{fill:url(#SVGID_00000034082697232747571370000010745000696409951906_);}
	.st128{fill:url(#SVGID_00000099633050066859781930000005522757847803340444_);}
	.st129{fill:url(#SVGID_00000091701940924660286800000006297998484769985165_);}
	.st130{fill:url(#SVGID_00000125575498627343102190000005195938842552337327_);}
	.st131{fill:url(#SVGID_00000105417485138442953360000015961761919360491950_);}
	.st132{fill:#153CBB;}
	.st133{fill:#1447D7;}
	.st134{fill:#CBE3FC;}
	.st135{fill:#BBDCF8;}
	.st136{fill:#C8E6FA;}
	.st137{fill:#FF9490;}
	.st138{fill:#AB221C;}
	.st139{fill:#003261;}
	.st140{fill:#1F3765;}
	.st141{fill:#00448C;}
	.st142{fill:#FF8585;}
	.st143{fill:#2E49D2;}
	.st144{fill:#86BADE;}
	.st145{fill:#FF5549;}
	.st146{fill:#004D99;}
	.st147{fill:#FF8484;}
	.st148{fill:#A49E56;}
	.st149{fill:#B5BE6F;}
	.st150{fill:#C1C9EF;}
	.st151{fill:#8A98CE;}
	.st152{fill:#53619F;}
	.st153{fill:#FDC970;}
	.st154{fill:#B5D6F6;}
	.st155{fill:#7280C4;}
	.st156{fill:#FCDCA0;}
	.st157{fill:#C75138;}
	.st158{fill:#8A3927;}
	.st159{fill:#FDA889;}
	.st160{fill:#4A569C;}
	.st161{fill:#BF5638;}
	.st162{fill:#D6415D;}
	.st163{fill:#A34F14;}
	.st164{clip-path:url(#SVGID_00000046314030543934478000000004235880301942248341_);}
	.st165{fill:#E4E8FD;}
	.st166{fill:#713D2F;}
	.st167{fill:#B74B2F;}
	.st168{fill:#D89F78;}
	.st169{clip-path:url(#SVGID_00000074407340903271193740000007865780121522757523_);}
	.st170{fill:#84303A;}
	.st171{clip-path:url(#SVGID_00000074403402870929697770000012099401153489648016_);}
	.st172{clip-path:url(#SVGID_00000038370925795632569730000017435631547022441622_);}
	.st173{fill:#FDDFE6;}
	.st174{clip-path:url(#SVGID_00000070120818506516775230000002520104336518182025_);}
	.st175{clip-path:url(#SVGID_00000025409175718337795240000016488931178309473934_);}
	.st176{clip-path:url(#SVGID_00000107550187601748955640000003363141562149120393_);}
	.st177{clip-path:url(#SVGID_00000035525730301417286180000015499337908998796193_);}
	.st178{clip-path:url(#SVGID_00000088833341959752778460000007044268293062576317_);}
	.st179{fill:#D9844A;}
	.st180{fill:#902B15;}
	.st181{fill:#A31C35;}
	.st182{fill:url(#SVGID_00000152960433323705938030000004158730581884667803_);}
	.st183{fill:#FFFAF7;}
	.st184{opacity:0.5;fill:#FF928E;}
	.st185{fill:url(#SVGID_00000044861520444487205930000014869795190356270266_);}
	.st186{fill:#5F89D3;}
	.st187{fill:url(#SVGID_00000091004145746860957500000006415757455348767621_);}
	.st188{fill:url(#SVGID_00000036942787013026897380000012817653340257126590_);}
	.st189{fill:url(#SVGID_00000023247039973078970400000015363025187818263187_);}
	.st190{fill:url(#SVGID_00000103958265009249253230000015978278952397012114_);}
	.st191{fill:url(#SVGID_00000176002823766490072220000003462549413321190587_);}
	.st192{fill:#9FC6AF;}
	.st193{fill:#E25B7E;}
	.st194{opacity:0.6;fill:#BDD0FB;}
	.st195{fill:url(#SVGID_00000081631313701218535280000009396768520684427194_);}
	.st196{opacity:0.7;fill:#BDD0FB;}
	.st197{fill:url(#SVGID_00000109721117060753695020000001463231339591204246_);}
	.st198{fill:url(#SVGID_00000099648105197837372940000001525947684810791843_);}
	.st199{fill:url(#SVGID_00000109021463138231121580000011174253801082047391_);}
	.st200{fill:url(#SVGID_00000137124641649242722520000003542294653306986376_);}
	.st201{fill:url(#SVGID_00000042713595730349478340000002387372477710069136_);}
	.st202{fill:url(#SVGID_00000067922867627312876380000009537778209685573250_);}
	.st203{fill:url(#SVGID_00000021108886983823983790000015209838701509900441_);}
	.st204{fill:url(#SVGID_00000044149106810255815910000003298043194766347658_);}
	.st205{fill:url(#SVGID_00000160878430975933938790000007926239346689830831_);}
	.st206{fill:url(#SVGID_00000104682960516828102700000006650857770030518924_);}
	.st207{fill:url(#SVGID_00000168082547981462221210000010742634641818433214_);}
	.st208{fill:none;stroke:#FFFFFF;stroke-width:10;stroke-linecap:round;stroke-miterlimit:10;}
	.st209{fill:url(#SVGID_00000081644620687242070290000017066859112931106221_);}
	.st210{fill:url(#SVGID_00000165935153586091801970000006239020415024124074_);}
	.st211{fill:#D2E9FF;}
	.st212{opacity:0.4;fill:#3892DF;}
	.st213{fill:url(#SVGID_00000009552484795895399680000006998765744920021663_);}
	.st214{opacity:0.8;fill:#7D97F4;}
	.st215{fill:url(#SVGID_00000089567857106418904450000017418901054328980358_);}
	.st216{fill:url(#SVGID_00000116948725504481765530000003064525488250317751_);}
	.st217{fill:url(#SVGID_00000029006386890284209090000015898625295451561879_);}
	.st218{fill:url(#SVGID_00000170976033220595789340000008721176822394051740_);}
	.st219{fill:#FF7E58;}
	.st220{fill:url(#SVGID_00000021107588699364512090000011821967370101279660_);}
	.st221{fill:url(#SVGID_00000083060753015102084500000001896538247148753546_);}
	.st222{fill:url(#SVGID_00000168802126176976161950000013574473755625323173_);}
	.st223{fill:url(#SVGID_00000088099625246887176510000013233406848227986587_);}
	.st224{fill:url(#SVGID_00000008128187327085406080000013715958477225600187_);}
	.st225{fill:url(#SVGID_00000175310717146094738150000014663262993197362059_);}
	.st226{fill:url(#SVGID_00000015335260986578151630000013463030490222822557_);}
	.st227{fill:url(#SVGID_00000022558045521247349730000001057492962355421887_);}
	.st228{fill:url(#SVGID_00000154416187885292968230000003729398091586436536_);}
	.st229{fill:url(#SVGID_00000100343007364347992780000003368415617529434256_);}
	.st230{fill:url(#SVGID_00000106107125788102844450000008563119503716694149_);}
	.st231{fill:url(#SVGID_00000140693356648289575910000012879732597240348051_);}
</style>
<linearGradient id="SVGID_1_" gradientUnits="userSpaceOnUse" x1="231.4049" y1="996.7326" x2="2896.4932" y2="996.7326">
	<stop  offset="0" style="stop-color:#DAE3FE"/>
	<stop  offset="1" style="stop-color:#E9EFFD"/>
</linearGradient>
<path class="st2" d="M385.66,1748.85c0,0-262.02-380.03-103.08-771.26c103.6-255.01,492.2-394.75,711.52-255.01
	c93.41,59.52,393.08,2.01,553.09-244.39C1858.12-0.63,2943.3,290.16,2745.74,1025.31c-95.61,355.76,290.97,368.69,93.99,724.3
	L385.66,1748.85z"/>
<path class="st3" d="M3056.57,1756.14H195.27c-2.18,0-3.96-1.78-3.96-3.96v-3.37c0-2.18,1.78-3.96,3.96-3.96h2861.29
	c2.18,0,3.96,1.78,3.96,3.96v3.37C3060.53,1754.36,3058.75,1756.14,3056.57,1756.14z"/>
<g>
	<path class="st4" d="M2091.09,594.92h-197.57c-9.07,0-16.49-7.42-16.49-16.49V387.74c0-9.07,7.42-16.49,16.49-16.49h197.57
		c9.07,0,16.49,7.42,16.49,16.49v190.69C2107.58,587.5,2100.16,594.92,2091.09,594.92z"/>
	
		<linearGradient id="SVGID_00000181807120595632108270000014836219469866641793_" gradientUnits="userSpaceOnUse" x1="1887.0234" y1="483.0867" x2="2097.5947" y2="483.0867">
		<stop  offset="0" style="stop-color:#DAE3FE"/>
		<stop  offset="1" style="stop-color:#E9EFFD"/>
	</linearGradient>
	<path style="fill:url(#SVGID_00000181807120595632108270000014836219469866641793_);" d="M2082.53,585.23h-180.45
		c-8.28,0-15.06-6.78-15.06-15.06V396c0-8.28,6.78-15.06,15.06-15.06h180.45c8.28,0,15.06,6.78,15.06,15.06v174.16
		C2097.59,578.45,2090.82,585.23,2082.53,585.23z"/>
	<g>
		<g>
			<g>
				<path class="st6" d="M1987.53,401.36c0-2.64,2.14-4.78,4.78-4.78s4.78,2.14,4.78,4.78c0,2.64-2.14,4.78-4.78,4.78
					S1987.53,403.99,1987.53,401.36z"/>
				<path class="st6" d="M2026.07,408.11c1.28-2.31,4.19-3.14,6.49-1.85c2.31,1.28,3.14,4.19,1.85,6.49
					c-1.28,2.31-4.19,3.14-6.49,1.85C2025.62,413.32,2024.79,410.41,2026.07,408.11z"/>
				<path class="st6" d="M2059.08,434.34c2.22-1.43,5.17-0.79,6.6,1.42c1.43,2.22,0.79,5.17-1.42,6.6c-2.22,1.43-5.17,0.79-6.6-1.42
					S2056.87,435.77,2059.08,434.34z"/>
				<path class="st6" d="M2075.44,474.93c2.64,0,4.78,2.14,4.78,4.78c0,2.64-2.14,4.78-4.78,4.78s-4.78-2.14-4.78-4.78
					C2070.66,477.07,2072.8,474.93,2075.44,474.93z"/>
				<path class="st6" d="M2067.09,522.04c1.87,1.87,1.87,4.89,0,6.75c-1.87,1.87-4.89,1.87-6.75,0c-1.87-1.87-1.87-4.89,0-6.75
					C2062.2,520.18,2065.22,520.18,2067.09,522.04z"/>
				<path class="st6" d="M2037.1,552.11c1.87,1.87,1.87,4.89,0,6.75c-1.86,1.86-4.89,1.86-6.75,0c-1.87-1.87-1.87-4.89,0-6.75
					C2032.21,550.25,2035.23,550.25,2037.1,552.11z"/>
				<path class="st6" d="M1987.53,567.61c0-2.64,2.14-4.78,4.78-4.78s4.78,2.14,4.78,4.78c0,2.64-2.14,4.78-4.78,4.78
					S1987.53,570.25,1987.53,567.61z"/>
			</g>
			<g>
				<path class="st6" d="M1958.4,408.11c-1.28-2.31-4.19-3.14-6.5-1.85c-2.3,1.28-3.13,4.19-1.85,6.49
					c1.28,2.31,4.19,3.14,6.49,1.85C1958.85,413.32,1959.68,410.41,1958.4,408.11z"/>
				<path class="st6" d="M1925.38,434.34c-2.22-1.43-5.17-0.79-6.6,1.42c-1.43,2.22-0.79,5.17,1.42,6.6
					c2.22,1.43,5.17,0.79,6.6-1.42S1927.6,435.77,1925.38,434.34z"/>
				<path class="st6" d="M1909.03,474.93c-2.64,0-4.78,2.14-4.78,4.78c0,2.64,2.14,4.78,4.78,4.78c2.64,0,4.78-2.14,4.78-4.78
					C1913.81,477.07,1911.67,474.93,1909.03,474.93z"/>
				<path class="st6" d="M1917.38,522.04c-1.86,1.87-1.86,4.89,0,6.75c1.87,1.87,4.89,1.87,6.75,0c1.87-1.87,1.87-4.89,0-6.75
					C1922.27,520.18,1919.24,520.18,1917.38,522.04z"/>
				<path class="st6" d="M1947.37,552.11c-1.87,1.87-1.87,4.89,0,6.75c1.87,1.86,4.89,1.86,6.75,0c1.87-1.87,1.87-4.89,0-6.75
					C1952.26,550.25,1949.23,550.25,1947.37,552.11z"/>
			</g>
		</g>
		<g>
			<circle class="st6" cx="1995.8" cy="479.71" r="4.78"/>
			<g>
				<rect x="1995.14" y="420.05" class="st6" width="1.3" height="59.66"/>
			</g>
			<g>
				
					<rect x="1990.9" y="465.25" transform="matrix(0.7866 -0.6175 0.6175 0.7866 140.6549 1341.4036)" class="st6" width="40.21" height="3.91"/>
			</g>
		</g>
	</g>
</g>
<g>
	<g>
		<path class="st4" d="M2244.38,1197.18c0,0-36.3-99.88,42.5-124.98c0,0,54.47-10.15,89.83,5.64c0,0-83.62,66.65-70.25,81.45
			c13.36,14.79,87.82-80.99,87.82-80.99s104.64,28.22,131.24,56.06c0,0-112.89,38.13-96.3,49.18
			c16.59,11.05,135.91-23.18,135.91-23.18s87.94,51.37,61.35,106.8c-26.59,55.43-65.63,60.94-79.29,54.06s-84.93-70-91.13-59.02
			s29.56,67.94,63.97,82.94c0,0-93.75,48.12-129.84,10.46s-27.26-72.5-49.99-95.36c-22.72-22.87-46.16-31.66-39.65-14.61
			c6.52,17.05,51.51,48.17,56.75,81.84c5.24,33.67,12.27,57.7-30.7,33.69c-42.97-24-104.46-85.21-93.34-124.6
			C2244.38,1197.18,2244.38,1197.18,2244.38,1197.18z"/>
		<g>
			<path class="st4" d="M2579.72,1251.33c0,0-251.5-105.92-335.34-54.15c0,0-26.52,32.64-77.67,52.19l-12.11,14.04
				c0,0,61.78-29.98,78.66-26.84C2233.26,1236.57,2242.56,1136.83,2579.72,1251.33z"/>
			<path class="st4" d="M2166.71,1249.37c0,0-70.03,19.89-101.09,90.84l9.61,4.63c0,0,45.67-68.26,88.31-85.62
				C2206.19,1241.85,2166.71,1249.37,2166.71,1249.37z"/>
		</g>
	</g>
	<g>
		<path class="st4" d="M2056.15,1146.04c0,0,91.77-51.39,48.94-121.13c0,0-34.26-42.82-70.97-53.84c0,0,19.58,104,0,106.45
			c-19.58,2.45-13.46-117.46-13.46-117.46s-96.66-46.5-134.59-42.82c0,0,59.95,101.55,40.38,99.11
			c-19.58-2.45-86.87-105.23-86.87-105.23s-99.11-18.35-115.01,40.38c-15.91,58.73,9.79,88.1,24.47,91.77
			c14.68,3.67,108.9,2.45,106.45,14.68s-66.07,31.81-101.55,20.8c0,0,39.15,96.66,90.54,91.77c51.39-4.89,67.29-36.71,99.11-39.15
			c31.81-2.45,55.06,6.12,39.15,14.68c-15.91,8.57-69.74,2.81-95.44,24.65s-46.5,35.3,1.22,45.09
			c47.72,9.79,133.37,3.67,150.5-33.04C2056.15,1146.04,2056.15,1146.04,2056.15,1146.04z"/>
		<g>
			<path class="st4" d="M1769.84,969.85c0,0,256.95,83.2,286.31,176.19c0,0-1.22,41.6,24.47,89.32v18.35c0,0-26.92-62.4-41.6-70.97
				C2039.02,1182.74,2096.53,1101.99,1769.84,969.85z"/>
			<path class="st4" d="M2080.62,1235.36c0,0,39.63,60.17,17.04,133.42l-10.19-2.74c0,0,9.9-80.68-10.84-121.25
				S2080.62,1235.36,2080.62,1235.36z"/>
		</g>
	</g>
	<g>
		<path class="st6" d="M2162.38,1014.75c0,0-133.78-74.92-71.35-176.59c0,0,49.95-62.43,103.46-78.49c0,0-28.54,151.62,0,155.19
			c28.54,3.57,19.62-171.24,19.62-171.24s140.92-67.78,196.22-62.43c0,0-87.41,148.05-58.87,144.49
			c28.54-3.57,126.65-153.41,126.65-153.41s144.49-26.76,167.68,58.86s-14.27,128.43-35.68,133.78
			c-21.41,5.35-158.76,3.57-155.19,21.41s96.32,46.38,148.05,30.32c0,0-57.08,140.92-132,133.78
			c-74.92-7.13-98.11-53.51-144.49-57.08c-46.38-3.57-80.27,8.92-57.08,21.4c23.19,12.49,101.67,4.09,139.13,35.94
			c37.46,31.85,67.78,51.47-1.78,65.74s-194.43,5.35-219.41-48.16S2162.38,1014.75,2162.38,1014.75z"/>
		<g>
			<path class="st6" d="M2579.78,757.89c0,0-374.59,121.3-417.4,256.86c0,0,1.78,60.65-35.68,130.22v26.76
				c0,0,39.24-90.97,60.65-103.46C2187.35,1068.26,2103.51,950.53,2579.78,757.89z"/>
			<path class="st6" d="M2126.7,1144.97c0,0-57.77,87.72-24.83,194.51l14.86-3.99c0,0-14.43-117.62,15.8-176.77
				C2162.75,1099.56,2126.7,1144.97,2126.7,1144.97z"/>
		</g>
	</g>
</g>
<path class="st6" d="M2068.18,1314.27c-4.96,11.76-52.56,22.68-123.21,32.33c-12.45,1.71-25.61,3.37-39.39,5
	c-240.46,28.32-899.04,44.13-939.63,35.78c-56.09-11.54-167.72-575.62-167.72-575.62s328.66-5.7,589.66-8.47
	c89.29-0.94,399.88-3.3,457.47-3.3C1934.57,799.98,2076.18,1295.22,2068.18,1314.27z"/>
<path class="st1" d="M1977.21,1241.87c0,0-100.9-386.51-108.18-418.99c-3.24-14.48-13.24-19.71-23.32-21.06
	c17.73-1.71,30.64-1.83,30.64-1.83c34.91,0,65.94,23.49,77.14,58.41c24.44,76.16,72.99,222.48,118.57,365.53
	C2069.75,1223.88,1977.21,1241.87,1977.21,1241.87z"/>
<path class="st6" d="M2588.79,1586.15c-16.09,96.95-121.32,158.7-229.25,158.7h-213.77l16.57-560.15c0,0,204.11-66.52,255.34-7.96
	c44.88,51.3,166.59,254.36,172.99,374.55C2591.31,1563.35,2590.65,1574.99,2588.79,1586.15z"/>
<path class="st4" d="M2588.79,1586.15c-16.09,96.95-121.32,158.7-229.25,158.7h-104.86
	C2324.61,1700.29,2387.83,1562.95,2588.79,1586.15z"/>
<linearGradient id="SVGID_00000115509266100339941940000008471971945913654913_" gradientUnits="userSpaceOnUse" x1="2021.3135" y1="1452.8928" x2="2479.2363" y2="1452.8928">
	<stop  offset="0" style="stop-color:#4042E2"/>
	<stop  offset="1" style="stop-color:#4F52FF"/>
</linearGradient>
<path style="fill:url(#SVGID_00000115509266100339941940000008471971945913654913_);" d="M2021.31,1239.58
	c0,0,288.38-138.4,343-47.99c29,48,108.81,239.51,114.71,359.7c5.73,116.78-101.88,193.56-212.56,193.56h-196.59L2021.31,1239.58z"
	/>
<path class="st0" d="M2401.28,1648.42c-3.19,2.56-6.47,5.06-9.82,7.54c-41.65,30.7-95.98,55.12-158.12,70.27
	c-46.96,11.44-98.38,17.58-152.16,17.11l-93.48,0.03h-1.27l-442.48,0.12l-253.63,0.07h-3.75l-0.02-0.11l-8.8-46.03l-80.31-464.25
	c0,0,1111.42-25.03,1201.8,26.56c41.96,23.95,65.78,123.17,78.98,232.5C2485.25,1550.44,2455.46,1605.09,2401.28,1648.42z"/>
<path class="st8" d="M2401.28,1648.42c-3.19,2.56-6.47,5.06-9.82,7.54c-41.65,30.7-95.98,55.12-158.12,70.27
	c-46.96,11.44-98.38,17.58-152.16,17.11l-93.48,0.03h-1.27l-442.48,0.12l-253.63,0.07l-3.77-0.11l-8.8-46.03
	c155.46-30.04,370.57-60.55,594.97-58.19C2087.03,1641.49,2266.47,1641.2,2401.28,1648.42z"/>
<g>
	
		<linearGradient id="SVGID_00000033345428172629541880000001941879481525342080_" gradientUnits="userSpaceOnUse" x1="1149.4766" y1="770.9261" x2="1837.9307" y2="770.9261">
		<stop  offset="0" style="stop-color:#FF928E"/>
		<stop  offset="1" style="stop-color:#FEB3B1"/>
	</linearGradient>
	<path style="fill:url(#SVGID_00000033345428172629541880000001941879481525342080_);" d="M1787.39,808.16
		c-2.17-0.68-5.31-2.47-7.99-4.14h58.53c0,0-22.46-12.71-37.06-19.19c-14.6-6.48-50.36,0-50.36,0s-132.43-19.7-206.67-17.86
		c-19.92,0.5-161.56-22.59-202.37-14.41c-21.51,4.31-41,7.72-53.54,9.77c-7.65,1.25-14.75-4.27-15.44-12l-0.01-0.13
		c-2.32-26.76-5.66-41.76-5.66-41.76l-49.82-24.11c-10.29,5.47-19.92,10.59-25.02,13.3c0.24,2.76,0.41,5.47,0.5,8.13
		c0.46,13.67-0.99,25.94-3.41,36.62c-4.46,19.74-19.8,35.18-39.36,40.37l-0.25,0.07c37.35,32.16,227.36,88.19,230.59,71.76
		c4.34-22.1,370.44-50.6,370.44-50.6v0.05c0,0,10.2,3.85,12.73,7.51s22.97,3.09,26.79,3.65
		C1793.85,815.74,1791.88,809.56,1787.39,808.16z"/>
	<path class="st10" d="M1917.34,1620.82c0,0,38.61,69.65,55.72,77.5c13.59,6.24,50.35,12.41,70.83,28.18
		c23.76,18.29-17.38,17.32-26.42,17.32c0,0-46.03-5.48-67.84-5.02c-12.56,0.27-50.01,5.02-50.01,5.02
		c-29.5,0-51.95-26.78-46.44-55.75c0.05-0.27,0.1-0.54,0.16-0.81c5.34-26.91,9.49-61.63,9.49-61.63L1917.34,1620.82z"/>
	
		<linearGradient id="SVGID_00000116920585863978924630000007518581688847242158_" gradientUnits="userSpaceOnUse" x1="1286.2793" y1="834.4484" x2="1436.2788" y2="834.4484">
		<stop  offset="0" style="stop-color:#4042E2"/>
		<stop  offset="1" style="stop-color:#4F52FF"/>
	</linearGradient>
	<path style="fill:url(#SVGID_00000116920585863978924630000007518581688847242158_);" d="M1436.16,793.62
		c-0.81,18.11-5.85,37.95-21.98,48.42c-25.47,16.52-19.02,59.65-18.86,76.58l-109.03-156.13c0,0,30.23-7.72,66.39-11.69
		c22.01-2.41,79.92,4.21,79.92,4.21S1437.07,773.21,1436.16,793.62z"/>
	<path class="st12" d="M1748.68,1648.08c0,0,38.48,42.39,55.59,50.24c12.22,5.61,45.12,8.88,64.7,23.1
		c20.68,15.02,4.83,22.41-7.18,22.41c0,0-54.99,4.38-90.02-5.49c-9.55-2.69-35.68,2.66-44.99,4.73c-2.82,0.62-20.79,2.1-23.65,1.73
		c-21.35-2.73-22.34-23.2-20.32-45.23c0.37-4.09,0.94-8.22,1.75-12.3c5.34-26.91,8.55-51.94,8.55-51.94L1748.68,1648.08z"/>
	<path class="st3" d="M1938.32,1624.77c0,0-13.9,9.72-26.12,13.78c-19.24,6.41-55.12,3.44-55.12,3.44s-91.58-177.67-110.92-222.61
		c-18.32-42.6-33.66-136.02-33.66-136.02c-13.98-0.75-118.61,14.06-210.54,4.12c-48.9-5.28-90.26-17.35-104.28-42.05
		c-40.39-71.14,88.63-150.48,88.63-150.48s252.27,45.47,307.7,85.73C1846.56,1218.85,1938.32,1624.77,1938.32,1624.77z"/>
	<path class="st13" d="M1762.42,1645.99c0,0-19.61,10.28-32.31,12.43c-23.08,3.91-47.93-3.81-47.93-3.81s-14.09-85.11-71.84-221.3
		c-14.49-34.17-12.26-104.22-14.2-105.1c0,0-315.57,2.69-352.22-68.17c-5.94-11.49-12.57-43.91-11.83-54.44
		c3.83-56.05,76.61-77.67,76.61-77.67s328.95,58.17,385.42,96.97C1750.57,1263.68,1762.42,1645.99,1762.42,1645.99z"/>
	
		<linearGradient id="SVGID_00000126294089419407565370000008974137637397164216_" gradientUnits="userSpaceOnUse" x1="1080.566" y1="988.7091" x2="1513.2386" y2="988.7091">
		<stop  offset="0" style="stop-color:#4042E2"/>
		<stop  offset="1" style="stop-color:#4F52FF"/>
	</linearGradient>
	<path style="fill:url(#SVGID_00000126294089419407565370000008974137637397164216_);" d="M1512.87,1097.28
		c-19.17,34.22-39.12,61.28-112.51,73.98c-92.47,16.01-143.13,35.58-168.76,43.32c-19.59,5.91-75.9-65.85-102.73-129.88
		c-25.98-62-48.1-158.62-48.25-166.08c-2.32-115.11,85.19-142.75,85.23-143.05c0,0,64.99,44.2,100.37,28.84
		c34.86-15.13,20.52-41.17,20.07-41.92l93.78,92.08c0,0,21.13,80.82,46.58,139.48C1465.23,1082.97,1518.15,1087.87,1512.87,1097.28z
		"/>
	
		<linearGradient id="SVGID_00000137839194770457088120000016846396457608410040_" gradientUnits="userSpaceOnUse" x1="1196.4775" y1="717.2593" x2="1272.4849" y2="717.2593">
		<stop  offset="0" style="stop-color:#FE7062"/>
		<stop  offset="1" style="stop-color:#FF928E"/>
	</linearGradient>
	<path style="fill:url(#SVGID_00000137839194770457088120000016846396457608410040_);" d="M1266.83,708.44c0,0,3.33,15,5.66,41.76
		c-42.29-1.38-75.77-45.23-76.01-47.99c5.1-2.71,10.24-12.41,20.53-17.88L1266.83,708.44z"/>
	
		<linearGradient id="SVGID_00000008113994136067883400000004589592060730176174_" gradientUnits="userSpaceOnUse" x1="1190.1038" y1="659.5315" x2="1310.9214" y2="659.5315">
		<stop  offset="0" style="stop-color:#FF928E"/>
		<stop  offset="1" style="stop-color:#FEB3B1"/>
	</linearGradient>
	<path style="fill:url(#SVGID_00000008113994136067883400000004589592060730176174_);" d="M1276.69,735.36
		c0,0-88.97-2.54-86.54-57.92c2.43-55.38-7.41-93.01,49.5-93.73c56.91-0.72,67.01,20.9,70.69,39.58
		C1314.02,641.98,1299.89,734.6,1276.69,735.36z"/>
	<path class="st3" d="M1194.95,699.84c0,0-3.55-18.4,6.42-30.59c0,0-6.54-18.03,0.39-22.11c6.93-4.08,10.61,11.34,13.64,8.42
		c3.03-2.91,16.44-16.62,20.51-34.66c4.07-18.04,65.8-5.37,73.09-3.23c1.21,0.36,2.8,0.26,4.6-0.21c15.46-3.96,20.05-24.03,8.1-34.6
		c-0.73-0.64-1.41-1.28-2.03-1.91c-6.53-6.59-51.96-50.9-103.93-29.38c-51.97,21.52-55.78,48.26-49.68,69.89
		C1172.18,643.09,1171.85,695.48,1194.95,699.84z"/>
	<path class="st1" d="M1257.99,701.33c0,0,5.78,8.03,17.81,10.15c12.03,2.11,14.67-7.27,14.67-7.27S1279.43,700.56,1257.99,701.33z"
		/>
	
		<linearGradient id="SVGID_00000117641899256427133450000005870687638095988355_" gradientUnits="userSpaceOnUse" x1="1095.553" y1="970.8393" x2="1302.2249" y2="970.8393">
		<stop  offset="0" style="stop-color:#FF928E"/>
		<stop  offset="1" style="stop-color:#FEB3B1"/>
	</linearGradient>
	<path style="fill:url(#SVGID_00000117641899256427133450000005870687638095988355_);" d="M1102.66,839.45c0,0-15.3,30.38-1,85.95
		c28.21,109.65,141.42,198.66,157.76,190.41s59.28-7.03,36.07-56.85c-23.21-49.81-117.15-233.64-117.15-233.64L1102.66,839.45z"/>
	
		<linearGradient id="SVGID_00000132057598651878296410000010946150619911808147_" gradientUnits="userSpaceOnUse" x1="1071.7218" y1="875.8346" x2="1253.1715" y2="875.8346">
		<stop  offset="0" style="stop-color:#4042E2"/>
		<stop  offset="1" style="stop-color:#4F52FF"/>
	</linearGradient>
	<path style="fill:url(#SVGID_00000132057598651878296410000010946150619911808147_);" d="M1240.23,946.45
		c-29.65,16.54-51.43,29.75-96.81,29.65c-34.17-0.08-62.32-6.75-62.32-6.75s-35.09-142.7,30.48-172.08
		c22.58-10.11,54.26-21.69,54.26-21.69S1293.33,916.82,1240.23,946.45z"/>
	
		<linearGradient id="SVGID_00000006681816434745580820000012397790698308626609_" gradientUnits="userSpaceOnUse" x1="1253.5957" y1="1087.7642" x2="1473.1499" y2="1087.7642">
		<stop  offset="0" style="stop-color:#FF928E"/>
		<stop  offset="1" style="stop-color:#FEB3B1"/>
	</linearGradient>
	<path style="fill:url(#SVGID_00000006681816434745580820000012397790698308626609_);" d="M1473.15,1071.24
		c0,0-158.22-16.87-179.46-16.09c-21.24,0.78-42.82,57.85-39.82,60.85s66.67,6.08,106.04,3.35c43.21-3,98.26-16.95,98.26-16.95
		L1473.15,1071.24z"/>
</g>
<path class="st1" d="M1505.95,1589.16c-17.34,94.03-112.46,153.63-209.96,153.63H1099.4l15.38-565.11c0,0,187.57-61.56,234.68-3
	c41.28,51.3,153.2,254.36,159.1,374.55C1509.22,1563.12,1508.31,1576.46,1505.95,1589.16z"/>
<path class="st4" d="M1505.95,1589.16c-17.34,94.03-112.46,153.63-209.96,153.63h-157.32
	C1212.3,1695.86,1311.45,1566.19,1505.95,1589.16z"/>
<linearGradient id="SVGID_00000125566559153469489860000009193150102209166223_" gradientUnits="userSpaceOnUse" x1="608.4202" y1="1273.3319" x2="1397.1201" y2="1273.3319">
	<stop  offset="0" style="stop-color:#4042E2"/>
	<stop  offset="1" style="stop-color:#4F52FF"/>
</linearGradient>
<path style="fill:url(#SVGID_00000125566559153469489860000009193150102209166223_);" d="M854.42,1744.85
	c-49.32-0.3-102.3-10.89-142.38-41.02c-38.98-29.27-62.1-73.83-76.15-119.57c-30.05-97.77-29.15-204.99-25.91-306.28
	c3.49-109.63,13.39-219.29,26.07-328.21c4.19-36,5.35-82.52,23.97-114.86c14.58-25.33,69.22-33.75,95.54-33.06
	c21.93,0.58,43.09,19.47,61.6,30.33c12.42,7.29,24.83,14.57,37.25,21.86c12.07,7.08,12.51,19.51,16.73,32.71
	c35.43,110.81,70.21,221.84,106.01,332.53c42.07-17.68,84.93-33.63,128.98-45.66c41.44-11.32,88.81-22.36,131.77-13.43
	c44.7,9.29,58.29,52.37,74.63,89.99c21.62,49.77,40.34,100.95,55.73,152.98c14.98,50.64,30.03,105.49,28.79,158.77
	c-1.12,48.02-23.13,92.48-58.73,124.34c-45.43,40.67-105.11,58.58-164.94,58.58C1067.05,1744.85,960.73,1744.85,854.42,1744.85z"/>
<path class="st1" d="M885.84,1241.87c0,0-100.9-386.51-108.18-418.99c-3.24-14.48-13.24-19.71-23.32-21.06
	c17.73-1.71,30.64-1.83,30.64-1.83c34.91,0,65.94,23.49,77.14,58.41c24.44,76.16,69.43,216.61,115.02,359.66
	C974.83,1218,885.84,1241.87,885.84,1241.87z"/>
<g>
	<path class="st10" d="M1485.85,1146.77h-205.15l0,0c0-9.03,7.32-16.35,16.35-16.35h188.8V1146.77z"/>
	
		<linearGradient id="SVGID_00000044872589401415422320000004176838925559400850_" gradientUnits="userSpaceOnUse" x1="1435.969" y1="1183.9226" x2="1733.2483" y2="923.3418">
		<stop  offset="0" style="stop-color:#E1473D"/>
		<stop  offset="0.3231" style="stop-color:#E6564F"/>
		<stop  offset="0.6223" style="stop-color:#E9605A"/>
	</linearGradient>
	<polygon style="fill:url(#SVGID_00000044872589401415422320000004176838925559400850_);" points="1485.26,923.33 1802.44,923.33 
		1726.36,1146.77 1407.12,1146.77 	"/>
	<polygon class="st12" points="1807.11,923.33 1731.03,1146.76 1411.79,1146.76 1489.93,923.33 	"/>
	<path class="st1" d="M1636.1,1032.98c-1.97,8.54-10.49,15.46-19.03,15.46c-8.54,0-13.86-6.92-11.89-15.46
		c1.97-8.54,10.49-15.46,19.03-15.46C1632.75,1017.53,1638.08,1024.45,1636.1,1032.98z"/>
</g>
<g>
	<path class="st6" d="M967.57,1221.31v13.29c0,4.65-1.51,8.45-3.34,8.45H479.29c-1.84,0-3.34-3.8-3.34-8.45v-13.29
		c0-4.64,1.51-8.45,3.34-8.45h484.94C966.06,1212.86,967.57,1216.67,967.57,1221.31z"/>
	
		<linearGradient id="SVGID_00000133517293715960516830000000529943180591911609_" gradientUnits="userSpaceOnUse" x1="576.4424" y1="1227.9546" x2="967.5674" y2="1227.9546">
		<stop  offset="0" style="stop-color:#DAE3FE"/>
		<stop  offset="1" style="stop-color:#E9EFFD"/>
	</linearGradient>
	<path style="fill:url(#SVGID_00000133517293715960516830000000529943180591911609_);" d="M967.57,1221.31v13.29
		c0,4.65-1.38,8.45-3.07,8.45H579.51c-1.69,0-3.07-3.8-3.07-8.45v-13.29c0-4.64,1.38-8.45,3.07-8.45H964.5
		C966.18,1212.86,967.57,1216.67,967.57,1221.31z"/>
	<rect x="500.56" y="1243.05" class="st6" width="344.27" height="501.8"/>
	<rect x="597.04" y="1243.05" class="st23" width="344.27" height="501.8"/>
	<g>
		<g>
			<path class="st24" d="M922.81,1717.15H615.54v-459.92h307.27V1717.15z M618.86,1713.83H919.5v-453.28H618.86V1713.83z"/>
		</g>
		<g>
			<rect x="617.2" y="1409.37" class="st24" width="303.96" height="3.32"/>
		</g>
		<g>
			<rect x="617.2" y="1564.48" class="st24" width="303.96" height="3.32"/>
		</g>
		<path class="st24" d="M800.32,1286.89h-56.4c-2.74,0-4.98-2.24-4.98-4.98l0,0c0-2.74,2.24-4.98,4.98-4.98h56.4
			c2.74,0,4.98,2.24,4.98,4.98l0,0C805.3,1284.65,803.06,1286.89,800.32,1286.89z"/>
		<path class="st24" d="M800.32,1438.57h-56.4c-2.74,0-4.98-2.24-4.98-4.98l0,0c0-2.74,2.24-4.98,4.98-4.98h56.4
			c2.74,0,4.98,2.24,4.98,4.98l0,0C805.3,1436.33,803.06,1438.57,800.32,1438.57z"/>
		<path class="st24" d="M800.32,1596.69h-56.4c-2.74,0-4.98-2.24-4.98-4.98l0,0c0-2.74,2.24-4.98,4.98-4.98h56.4
			c2.74,0,4.98,2.24,4.98,4.98l0,0C805.3,1594.45,803.06,1596.69,800.32,1596.69z"/>
	</g>
</g>
<g>
	<path class="st6" d="M1757.81,533.33l22.48,78.55c0.33,1.16,0.44,2.33,0.37,3.46c-0.27,4.13-3.1,7.83-7.3,9.04l-136.42,39.04
		c-4.23,1.21-8.59-0.47-11-3.86c-0.65-0.91-1.16-1.95-1.49-3.08l-22.47-78.52c-1.54-5.37,1.57-10.96,6.93-12.5l136.42-39.04
		C1750.67,524.89,1756.25,527.97,1757.81,533.33z"/>
	<g>
		<path class="st4" d="M1780.65,615.35c-0.27,4.13-3.1,7.83-7.3,9.04l-136.42,39.04c-4.23,1.21-8.59-0.47-11-3.86l69.48-63.3
			L1780.65,615.35z"/>
		<path class="st23" d="M1757.81,533.33l-61.08,75.84l-93.62-27.19l-1.15-4.02c-1.54-5.37,1.57-10.96,6.93-12.5l136.42-39.04
			C1750.67,524.89,1756.25,527.97,1757.81,533.33z"/>
	</g>
</g>
<g>
	<g>
		<g>
			<path class="st25" d="M625.62,1212.86H525.16v-35.48h100.78c7.84,0,14.19,6.35,14.19,14.19v6.79
				C640.13,1206.36,633.63,1212.86,625.62,1212.86z"/>
			<path class="st13" d="M725.88,1191.98v5.34c0,2.85-0.77,5.52-2.11,7.82c-2.69,4.62-7.7,7.73-13.44,7.73H522.08
				c-1.25,0-2.25-1.01-2.25-2.25v-0.8c0-1.24,1.01-2.25,2.25-2.25h114.75c0.61-0.75,1.15-1.56,1.61-2.42
				c1.07-2.02,1.68-4.33,1.68-6.78v-6.79c0-1.25-0.16-2.46-0.46-3.61c-0.51-1.95-1.43-3.74-2.66-5.27H522.08
				c-1.25,0-2.25-1.01-2.25-2.25v-0.8c0-1.25,1.01-2.25,2.25-2.25h189.19c6.67,0,12.29,4.47,14.04,10.58
				C725.68,1189.23,725.88,1190.58,725.88,1191.98z"/>
			<path class="st3" d="M725.31,1187.95h-85.65c-0.51-1.95-1.43-3.74-2.66-5.27H522.08c-1.25,0-2.25-1.01-2.25-2.25v-0.8
				c0-1.25,1.01-2.25,2.25-2.25h189.19C717.94,1177.38,723.57,1181.85,725.31,1187.95z"/>
		</g>
		<polygon class="st26" points="525.16,1195.12 539.1,1195.71 525.16,1196.07 		"/>
		<polygon class="st26" points="525.16,1200.68 558.32,1201.28 525.16,1201.64 		"/>
	</g>
	<g>
		<g>
			<g>
				<path class="st25" d="M637.48,1177.45h109.26v-40.55H637.12c-8.75,0-15.84,7.09-15.84,15.84v8.5
					C621.27,1170.2,628.53,1177.45,637.48,1177.45z"/>
				<path class="st27" d="M623.84,1152.64v8.73c0.03,3.73,2.09,6.96,5.12,8.69c1.49,0.85,3.22,1.33,5.05,1.33h118.66
					c1.39,0,2.52,1.13,2.52,2.52v1.03c0,1.39-1.13,2.52-2.52,2.52H547.69c-5.88,0-11.08-2.92-14.22-7.4
					c-1.98-2.82-3.14-6.25-3.14-9.96v-6.88c0-2.54,0.58-4.95,1.62-7.09c2.64-5.45,8.22-9.21,14.68-9.21h206.04
					c1.39,0,2.52,1.12,2.52,2.52v1.03c0,1.39-1.13,2.52-2.52,2.52H633.65c-2.84,0-5.42,1.21-7.22,3.15
					C624.84,1147.83,623.86,1150.12,623.84,1152.64z"/>
			</g>
			<polygon class="st26" points="746.74,1157.18 731.53,1157.86 746.74,1158.27 			"/>
			<polygon class="st26" points="746.74,1147.85 710.55,1148.53 746.74,1148.94 			"/>
		</g>
		<g>
			<path class="st28" d="M710.92,1148.39c0,0,2.39,1.29,3.18,3.4c0.14,0.37,0.23,0.77,0.25,1.18c0.13,2.81,0,9.16,0,9.16l7.05-3.18
				l7.03,3.18v-8.61c0-1.63-0.6-3.21-1.72-4.25c-0.54-0.5-1.2-0.88-1.95-0.88H710.92z"/>
			<path class="st10" d="M710.92,1148.39c0,0,2.39,1.29,3.18,3.4l14.13,0.13c0,0-0.55-3.03-3.47-3.52H710.92z"/>
		</g>
	</g>
</g>
<g>
	<path class="st28" d="M936.2,1125.85H824.79c-0.28,2.31-0.47,4.63-0.47,7.01v10.76c-7.41-1.56-17.68-2.82-22.94,0.42
		c-8.83,5.47-6.13,21.45,2.19,31.33c8.32,9.9,34.82,16.42,34.82,16.42c8.43,9.55,20.01,16.23,33.08,18.35
		c2.93,0.49,5.94,0.75,9.01,0.75c30.91,0,56.16-25.27,56.16-56.16v-21.87C936.64,1130.48,936.47,1128.15,936.2,1125.85z
		 M807.27,1164.25c-3.56-9.2-1.16-12.6,2.82-13.32c4.45-0.79,10.53,2.28,14.37,7.55c0.44,6.52,2,12.74,4.5,18.47
		C822.71,1175.44,810.09,1171.52,807.27,1164.25z"/>
	<polygon class="st12" points="853.51,1212.86 904.52,1212.86 901.57,1205.99 855.74,1204.28 	"/>
	<path class="st12" d="M872.16,1204.9c-33.69-39-26.41-57.93-20.38-79.05h-27c-0.28,2.31-0.47,4.63-0.47,7.01v10.76
		c-7.41-1.56-17.68-2.82-22.94,0.42c-8.83,5.47-6.13,21.45,2.19,31.33c8.32,9.9,34.82,16.42,34.82,16.42
		c4.8,5.44,10.64,9.9,17.18,13.17l-2.05,7.91h17.27l0.48-2.76c0.07,0.01,0.13,0.03,0.2,0.04L872.16,1204.9z M807.27,1164.25
		c-3.56-9.2-1.16-12.6,2.82-13.32c4.45-0.79,10.53,2.28,14.37,7.55c0.44,6.52,2,12.74,4.5,18.47
		C822.71,1175.44,810.09,1171.52,807.27,1164.25z"/>
</g>
<path class="st4" d="M669.67,411.17H919.3c19.9,0,36.18,16.28,36.18,36.18v109.52c0,18.28-14.95,33.23-33.23,33.23h-6.41l12.03,50.8
	l-75.51-50.8H667.52c-19.88,0-36.15-16.27-36.15-36.15V449.47C631.37,428.4,648.6,411.17,669.67,411.17z"/>
<g>
	
		<linearGradient id="SVGID_00000040554340119455147080000003977930129157939338_" gradientUnits="userSpaceOnUse" x1="667.0278" y1="502.2202" x2="905.9863" y2="502.2202">
		<stop  offset="0" style="stop-color:#DAE3FE"/>
		<stop  offset="1" style="stop-color:#E9EFFD"/>
	</linearGradient>
	<path style="fill:url(#SVGID_00000040554340119455147080000003977930129157939338_);" d="M672.75,508.03h227.51
		c3.15,0,5.73-2.58,5.73-5.73v-0.18c0-3.15-2.58-5.73-5.73-5.73H672.75c-3.15,0-5.73,2.58-5.73,5.73v0.18
		C667.03,505.46,669.6,508.03,672.75,508.03z"/>
	
		<linearGradient id="SVGID_00000137094466963657369180000004460866017829035437_" gradientUnits="userSpaceOnUse" x1="667.0278" y1="528.2446" x2="776.4829" y2="528.2446">
		<stop  offset="0" style="stop-color:#DAE3FE"/>
		<stop  offset="1" style="stop-color:#E9EFFD"/>
	</linearGradient>
	<path style="fill:url(#SVGID_00000137094466963657369180000004460866017829035437_);" d="M670.9,534.06h101.71
		c2.13,0,3.88-1.74,3.88-3.88v-3.88c0-2.13-1.74-3.88-3.88-3.88H670.9c-2.13,0-3.88,1.74-3.88,3.88v3.88
		C667.03,532.31,668.77,534.06,670.9,534.06z"/>
	
		<linearGradient id="SVGID_00000084515614498060544040000000112924734773300643_" gradientUnits="userSpaceOnUse" x1="787.3301" y1="528.2446" x2="883.2109" y2="528.2446">
		<stop  offset="0" style="stop-color:#DAE3FE"/>
		<stop  offset="1" style="stop-color:#E9EFFD"/>
	</linearGradient>
	<path style="fill:url(#SVGID_00000084515614498060544040000000112924734773300643_);" d="M790.96,534.06h88.63
		c1.99,0,3.63-1.63,3.63-3.63v-4.37c0-1.99-1.63-3.63-3.63-3.63h-88.63c-1.99,0-3.63,1.63-3.63,3.63v4.37
		C787.33,532.43,788.96,534.06,790.96,534.06z"/>
	
		<linearGradient id="SVGID_00000005966721752207251180000004003690169135631767_" gradientUnits="userSpaceOnUse" x1="736.0049" y1="455.4802" x2="828.9893" y2="455.4802">
		<stop  offset="0" style="stop-color:#DAE3FE"/>
		<stop  offset="1" style="stop-color:#E9EFFD"/>
	</linearGradient>
	<path style="fill:url(#SVGID_00000005966721752207251180000004003690169135631767_);" d="M741.67,461.15h81.65
		c3.12,0,5.67-2.55,5.67-5.67l0,0c0-3.12-2.55-5.67-5.67-5.67h-81.65c-3.12,0-5.67,2.55-5.67,5.67l0,0
		C736,458.6,738.56,461.15,741.67,461.15z"/>
	
		<linearGradient id="SVGID_00000114787146863156170600000006000347091908404911_" gradientUnits="userSpaceOnUse" x1="667.0278" y1="455.4802" x2="725.1187" y2="455.4802">
		<stop  offset="0" style="stop-color:#DAE3FE"/>
		<stop  offset="1" style="stop-color:#E9EFFD"/>
	</linearGradient>
	<path style="fill:url(#SVGID_00000114787146863156170600000006000347091908404911_);" d="M671.51,461.15h49.13
		c2.46,0,4.48-2.02,4.48-4.48v-2.38c0-2.46-2.02-4.48-4.48-4.48h-49.13c-2.46,0-4.48,2.02-4.48,4.48v2.38
		C667.03,459.13,669.04,461.15,671.51,461.15z"/>
</g>
</svg>
