<svg id="Layer_1" data-name="Layer 1" xmlns="http://www.w3.org/2000/svg" viewBox="0 0 400 300"><title>L</title><path d="M281.61,151.22C226,119.14,136.24,119.14,81,151.22s-54.92,84.1.65,116.19,145.38,32.08,200.59,0S337.18,183.3,281.61,151.22Z" style="fill:#f5f5f5"/><path d="M304.59,213.67c5-2.88,13-2.88,18,0s4.92,7.53-.06,10.4-13,2.88-18,0S299.61,216.54,304.59,213.67Z" style="fill:#e7e7e7"/><path d="M116.81,189.82c-12.47-7.2-32.62-7.2-45,0s-12.33,18.87.14,26.07,32.62,7.2,45,0S129.28,197,116.81,189.82Z" style="fill:#e7e7e7"/><path d="M140.12,243.55c14-8.08,36.61-8.08,50.52,0s13.83,21.18-.16,29.26-36.62,8.08-50.53,0S126.12,251.64,140.12,243.55Z" style="fill:#e7e7e7"/><polygon points="135.31 161.97 290.34 250.85 298.29 246.22 143.23 157.35 135.31 161.97" style="fill:#e7e7e7"/><path d="M301.49,197.13l12.06.35,12.05-.35c.52,8.14-1.07,16.43-3.26,20.48h0a5.48,5.48,0,0,1-2.39,2.43,14.15,14.15,0,0,1-12.83,0,5.33,5.33,0,0,1-2.39-2.49C302.55,213.48,301,205.23,301.49,197.13Z" style="fill:#fff"/><path d="M305.05,192.19c-4.72,2.73-4.75,7.15-.06,9.87s12.33,2.73,17.05,0,4.75-7.14.06-9.87S309.77,189.47,305.05,192.19Z" style="fill:#ececec"/><path d="M306.92,193.28c-3.69,2.12-3.71,5.57-.05,7.7a14.64,14.64,0,0,0,13.3,0c3.69-2.13,3.71-5.58.05-7.7A14.64,14.64,0,0,0,306.92,193.28Z" style="fill:#e1e1e1"/><g style="opacity:0.15"><path d="M306.92,193.28c-3.69,2.12-3.71,5.57-.05,7.7a14.64,14.64,0,0,0,13.3,0c3.69-2.13,3.71-5.58.05-7.7A14.64,14.64,0,0,0,306.92,193.28Z" style="fill:#003cbf"/></g><path d="M319.69,172.46c2-2.43,4.24-4.62,6-7.18,1.22-1.74,2.25-3.88,1.73-5.95a5.31,5.31,0,0,0-4.22-3.71,8,8,0,0,0-5.66,1.26A17.61,17.61,0,0,0,313.3,161a42.55,42.55,0,0,0-9,30.38,6.35,6.35,0,0,0,1.12,3.49,3.53,3.53,0,0,0,3.6,1.1c3.29-1,2.85-5.41,3.39-8a36.52,36.52,0,0,1,7.24-15.44Z" style="fill:#375a64"/><path d="M319.69,172.46c2-2.43,4.24-4.62,6-7.18,1.22-1.74,2.25-3.88,1.73-5.95a5.31,5.31,0,0,0-4.22-3.71,8,8,0,0,0-5.66,1.26A17.61,17.61,0,0,0,313.3,161a42.55,42.55,0,0,0-9,30.38,6.35,6.35,0,0,0,1.12,3.49,3.53,3.53,0,0,0,3.6,1.1c3.29-1,2.85-5.41,3.39-8a36.52,36.52,0,0,1,7.24-15.44Z" style="fill:#fff;opacity:0.2"/><path d="M308.86,192.61a.28.28,0,0,0,.23-.27c.23-5.27,1.94-23.26,14.34-33.47a.28.28,0,1,0-.36-.44c-12.59,10.36-14.32,28.56-14.55,33.89a.28.28,0,0,0,.27.3Z" style="fill:#f0f0f0"/><path d="M307.05,193.18a8.77,8.77,0,0,0,4,5.58,11.28,11.28,0,0,0,6.09,1,26.94,26.94,0,0,0,6.19-1.46c1-.34,2.1-.79,2.2-2a2.16,2.16,0,0,0-.7-1.73,6.93,6.93,0,0,0-.64-.56.63.63,0,0,1,.34-1.14,13,13,0,0,0,1.76-.22A7.72,7.72,0,0,0,330,191a6.19,6.19,0,0,0,1.71-2.53,2.38,2.38,0,0,0-.25-2.49,2.74,2.74,0,0,0-1.37-.59c-.44-.1-.88-.18-1.32-.25a.59.59,0,0,1-.14-1.12l1.87-.78a3.59,3.59,0,0,0,1.42-.88,3.12,3.12,0,0,0,.36-2.58c-.23-1.17-.63-2.3-.91-3.46a7.45,7.45,0,0,1-.12-3.54,30,30,0,0,0-10.48.7,7.62,7.62,0,0,0-2.85,1.25,4.21,4.21,0,0,0-1.35,3.85.27.27,0,0,1-.51.15l-1.19-2.21a1.42,1.42,0,0,0-1.86-.59,8.53,8.53,0,0,0-2.73,2.15,4.68,4.68,0,0,0-1.17,3.5,30.72,30.72,0,0,0,.87,5.13.47.47,0,0,1-.74.5l-.06,0a1.66,1.66,0,0,0-1.13-.33c-1.05.13-1.32,1.2-1.39,2.12A17.16,17.16,0,0,0,307.05,193.18Z" style="fill:#375a64"/><path d="M307.05,193.18a8.77,8.77,0,0,0,4,5.58,11.28,11.28,0,0,0,6.09,1,26.94,26.94,0,0,0,6.19-1.46c1-.34,2.1-.79,2.2-2a2.16,2.16,0,0,0-.7-1.73,6.93,6.93,0,0,0-.64-.56.63.63,0,0,1,.34-1.14,13,13,0,0,0,1.76-.22A7.72,7.72,0,0,0,330,191a6.19,6.19,0,0,0,1.71-2.53,2.38,2.38,0,0,0-.25-2.49,2.74,2.74,0,0,0-1.37-.59c-.44-.1-.88-.18-1.32-.25a.59.59,0,0,1-.14-1.12l1.87-.78a3.59,3.59,0,0,0,1.42-.88,3.12,3.12,0,0,0,.36-2.58c-.23-1.17-.63-2.3-.91-3.46a7.45,7.45,0,0,1-.12-3.54,30,30,0,0,0-10.48.7,7.62,7.62,0,0,0-2.85,1.25,4.21,4.21,0,0,0-1.35,3.85.27.27,0,0,1-.51.15l-1.19-2.21a1.42,1.42,0,0,0-1.86-.59,8.53,8.53,0,0,0-2.73,2.15,4.68,4.68,0,0,0-1.17,3.5,30.72,30.72,0,0,0,.87,5.13.47.47,0,0,1-.74.5l-.06,0a1.66,1.66,0,0,0-1.13-.33c-1.05.13-1.32,1.2-1.39,2.12A17.16,17.16,0,0,0,307.05,193.18Z" style="fill:#003cbf"/><path d="M307.05,193.18a8.77,8.77,0,0,0,4,5.58,11.28,11.28,0,0,0,6.09,1,26.94,26.94,0,0,0,6.19-1.46c1-.34,2.1-.79,2.2-2a2.16,2.16,0,0,0-.7-1.73,6.93,6.93,0,0,0-.64-.56.63.63,0,0,1,.34-1.14,13,13,0,0,0,1.76-.22A7.72,7.72,0,0,0,330,191a6.19,6.19,0,0,0,1.71-2.53,2.38,2.38,0,0,0-.25-2.49,2.74,2.74,0,0,0-1.37-.59c-.44-.1-.88-.18-1.32-.25a.59.59,0,0,1-.14-1.12l1.87-.78a3.59,3.59,0,0,0,1.42-.88,3.12,3.12,0,0,0,.36-2.58c-.23-1.17-.63-2.3-.91-3.46a7.45,7.45,0,0,1-.12-3.54,30,30,0,0,0-10.48.7,7.62,7.62,0,0,0-2.85,1.25,4.21,4.21,0,0,0-1.35,3.85.27.27,0,0,1-.51.15l-1.19-2.21a1.42,1.42,0,0,0-1.86-.59,8.53,8.53,0,0,0-2.73,2.15,4.68,4.68,0,0,0-1.17,3.5,30.72,30.72,0,0,0,.87,5.13.47.47,0,0,1-.74.5l-.06,0a1.66,1.66,0,0,0-1.13-.33c-1.05.13-1.32,1.2-1.39,2.12A17.16,17.16,0,0,0,307.05,193.18Z" style="fill:#fff;opacity:0.2"/><path d="M312.6,198.48a42.87,42.87,0,0,1,2.82-8.17.25.25,0,0,1,.1-.21l.19-.43a26.1,26.1,0,0,0-2.79-9.35.29.29,0,0,1,.11-.39.28.28,0,0,1,.39.11,26.64,26.64,0,0,1,2.75,8.69,38.31,38.31,0,0,1,12.06-14.47.29.29,0,0,1,.33.48,37.89,37.89,0,0,0-12.2,14.9,17.63,17.63,0,0,1,10-1.35.29.29,0,0,1,0,.57h-.11A17.06,17.06,0,0,0,316,190.5a42.68,42.68,0,0,0-2.8,8.09.27.27,0,0,1-.22.22h-.11A.28.28,0,0,1,312.6,198.48Z" style="fill:#f0f0f0"/><path d="M289,216l.2-116.45a9,9,0,0,0-4.07-7.06L140.77,9.38a2.9,2.9,0,0,0-2.88-.29l4.27-2.48h0a2.85,2.85,0,0,1,3,.24L289.53,90a9,9,0,0,1,4.07,7.06l-.2,116.45a2.93,2.93,0,0,1-1.09,2.54h0l-.23.13-4.21,2.45A2.88,2.88,0,0,0,289,216Z" style="fill:#0050ff"/><path d="M142.16,6.61h0a2.85,2.85,0,0,1,3,.24L289.53,90a8.62,8.62,0,0,1,3.12,3.48L288.29,96a8.66,8.66,0,0,0-3.12-3.47L140.77,9.38a2.9,2.9,0,0,0-2.88-.29Z" style="fill:#fff;opacity:0.30000000000000004"/><path d="M293.6,97.06l-.2,116.45a2.93,2.93,0,0,1-1.09,2.54h0l-.23.13-4.21,2.45A2.88,2.88,0,0,0,289,216l.2-116.45a8.06,8.06,0,0,0-.95-3.59l4.36-2.52A7.89,7.89,0,0,1,293.6,97.06Z" style="fill:#fff;opacity:0.2"/><path d="M289.23,104.88,289,216a2.88,2.88,0,0,1-1.17,2.6l-.07,0h0a2.9,2.9,0,0,1-2.83-.32l-144.4-83.15a9,9,0,0,1-4.07-7.05l.19-111.3Z" style="fill:#0050ff"/><path d="M289.23,104.88,289,216a2.88,2.88,0,0,1-1.17,2.6l-.07,0h0a2.9,2.9,0,0,1-2.83-.32l-144.4-83.15a9,9,0,0,1-4.07-7.05l.19-111.3Z" style="fill:#0050ff"/><polygon points="154.62 131.76 154.78 39.38 278.98 110.78 278.82 203.03 154.62 131.76" style="fill:#fff"/><polygon points="206.04 123.95 206.12 76.19 261.18 107.85 261.11 155.55 206.04 123.95" style="fill:#003cbf"/><path d="M136.67,11.72a2.88,2.88,0,0,1,1.17-2.61h0a2.9,2.9,0,0,1,2.88.29l144.4,83.15a9,9,0,0,1,4.07,7.06v5.29l-152.57-88Z" style="fill:#0050ff"/><path d="M136.67,11.72a2.88,2.88,0,0,1,1.17-2.61h0a2.9,2.9,0,0,1,2.88.29l144.4,83.15a9,9,0,0,1,4.07,7.06v5.29l-152.57-88Z" style="fill:#6696ff"/><g style="opacity:0.39"><path d="M147.48,17.34c-.61-.35-1.11-.07-1.11.64a2.4,2.4,0,0,0,1.11,1.92c.61.36,1.11.07,1.11-.63A2.43,2.43,0,0,0,147.48,17.34Z" style="fill:#fff"/><path d="M144.44,15.59c-.61-.36-1.11-.07-1.12.63a2.48,2.48,0,0,0,1.11,1.93c.62.35,1.12.07,1.12-.64A2.42,2.42,0,0,0,144.44,15.59Z" style="fill:#fff"/><path d="M141.4,13.83c-.62-.36-1.12-.07-1.12.64a2.48,2.48,0,0,0,1.11,1.92c.62.35,1.12.07,1.12-.64A2.46,2.46,0,0,0,141.4,13.83Z" style="fill:#fff"/></g><polygon points="147.03 55.31 147.01 61.11 147.03 55.31 147.03 55.31" style="fill:#fff"/><polygon points="147 63.34 141.96 60.42 141.96 60.42 147 63.34 146.99 69.14 146.99 69.14 147 63.34" style="fill:#fff"/><polygon points="141.93 68.45 146.98 71.36 146.98 71.36 141.93 68.45 141.93 68.45" style="fill:#fff"/><polygon points="146.9 100.56 141.85 97.65 141.85 97.65 146.9 100.56 146.9 100.56" style="fill:#fff"/><polygon points="142.01 42.14 147.06 45.05 142.01 42.14 142.01 42.14" style="fill:#fff"/><polygon points="144.14 45.6 147.05 47.28 147.03 53.08 147.05 47.28 144.14 45.6" style="fill:#fff"/><polygon points="141.99 50.16 147.03 53.08 141.99 50.16 141.99 50.16" style="fill:#fff"/><polygon points="141.96 58.2 147.01 61.11 141.96 58.2 141.96 58.2" style="fill:#fff"/><polygon points="143.96 106.91 146.88 108.59 146.86 114.39 146.86 114.39 146.88 108.59 143.96 106.91" style="fill:#fff"/><polygon points="141.9 81.59 146.94 84.5 146.94 84.5 141.9 81.59 141.9 81.59" style="fill:#fff"/><polygon points="141.87 89.62 146.92 92.53 146.92 92.53 141.87 89.62 141.87 89.62" style="fill:#fff"/><polygon points="141.98 52.4 147.03 55.31 147.01 61.11 141.96 58.2 141.98 52.4" style="fill:#fff"/><polygon points="146.99 69.14 141.94 66.22 141.96 60.42 147 63.34 146.99 69.14" style="fill:#fff"/><polygon points="141.87 89.62 146.92 92.53 146.91 98.33 141.86 95.42 141.87 89.62" style="fill:#fff"/><polygon points="146.88 106.36 141.84 103.45 141.85 97.65 146.9 100.56 146.88 106.36" style="fill:#fff"/><polygon points="141.9 81.59 146.94 84.5 146.93 90.31 141.88 87.39 141.9 81.59" style="fill:#fff"/><path d="M140.16,120.44l8.3,4.79.12-41.65-8.3-4.8Zm1.69-22.79,5.05,2.91h0l0,5.8-5-2.91v-5.8Zm5.08-7.34-5.05-2.92,0-5.8h0l5,2.91h0Zm0,8-5-2.92v-5.8h0l5,2.91h0Zm0,16h0l-5.05-2.91,0-5.8,2.13,1.23,2.92,1.68,0,5.8Zm-5.07,5.11,0-5.8,5,2.92v5.8Z" style="fill:#0050ff"/><path d="M140.29,75.18l8.3,4.8.12-41.66-8.3-4.79Zm6.77-30.13L142,42.14h0l0-5.8,5,2.91Zm0,8-5-2.91h0V44.36l2.14,1.24,2.91,1.68Zm0,8-5-2.91h0l0-5.81L147,55.31h0Zm0,8h0l-5.05-2.92,0-5.8h0l5,2.92Zm0,8-5.05-2.91v-5.8h0l5,2.91h0Z" style="fill:#0050ff"/><path d="M140.16,120.44l8.3,4.79.12-41.65-8.3-4.8Zm1.69-22.79,5.05,2.91h0l0,5.8-5-2.91v-5.8Zm5.08-7.34-5.05-2.92,0-5.8h0l5,2.91h0Zm0,8-5-2.92v-5.8h0l5,2.91h0Zm0,16h0l-5.05-2.91,0-5.8,2.13,1.23,2.92,1.68,0,5.8Zm-5.07,5.11,0-5.8,5,2.92v5.8Z" style="fill:#003cbf"/><path d="M140.29,75.18l8.3,4.8.12-41.66-8.3-4.79Zm6.77-30.13L142,42.14h0l0-5.8,5,2.91Zm0,8-5-2.91h0V44.36l2.14,1.24,2.91,1.68Zm0,8-5-2.91h0l0-5.81L147,55.31h0Zm0,8h0l-5.05-2.92,0-5.8h0l5,2.92Zm0,8-5.05-2.91v-5.8h0l5,2.91h0Z" style="fill:#003cbf"/><polygon points="141.99 50.16 142 44.37 144.14 45.6 147.05 47.28 147.03 53.08 141.99 50.16 141.99 50.16" style="fill:#fff"/><polygon points="140.41 33.53 140.41 30.29 148.72 35.09 148.71 38.32 140.41 33.53 140.41 33.53" style="fill:#fff"/><polygon points="142.01 42.14 142.03 36.34 147.07 39.25 147.06 45.05 142.01 42.14 142.01 42.14" style="fill:#fff"/><polygon points="141.93 68.45 141.93 68.45 146.98 71.36 146.98 71.36 146.97 77.17 141.92 74.25 141.93 68.45" style="fill:#fff"/><polygon points="141.81 111.48 141.83 105.68 143.96 106.91 146.88 108.59 146.86 114.39 146.86 114.39 141.81 111.48" style="fill:#fff"/><polygon points="146.85 116.62 146.84 122.42 141.79 119.5 141.81 113.7 146.85 116.62" style="fill:#fff"/><polygon points="248.41 157.27 248.4 159.91 205.88 135.01 205.89 132.36 248.41 157.27" style="fill:#003cbf"/><g style="isolation:isolate"><polygon points="235.57 166.78 235.57 169.42 205.84 151.9 205.84 149.25 235.57 166.78" style="fill:#003cbf"/><polygon points="228.09 153.63 228.09 156.28 205.86 143.09 205.87 140.44 228.09 153.63" style="fill:#003cbf"/><polygon points="248.37 170.12 248.36 172.77 205.85 147.86 205.85 145.21 248.37 170.12" style="fill:#003cbf"/><polygon points="248.39 161.31 248.39 163.95 205.87 139.04 205.88 136.4 248.39 161.31" style="fill:#003cbf"/></g><path d="M168.28,119.81a11.18,11.18,0,0,1,5.07,8.79c0,3.22-2.3,4.53-5.11,2.9a11.16,11.16,0,0,1-5.07-8.78C163.18,119.49,165.47,118.19,168.28,119.81Z" style="fill:#e1e1e1"/><path d="M168.32,105a11.16,11.16,0,0,1,5.07,8.78c0,3.23-2.29,4.54-5.1,2.91a11.17,11.17,0,0,1-5.08-8.78C163.22,104.67,165.51,103.37,168.32,105Z" style="fill:#e1e1e1"/><path d="M182.15,113a11.18,11.18,0,0,1,5.07,8.79c0,3.23-2.3,4.53-5.11,2.91a11.19,11.19,0,0,1-5.07-8.79C177.05,112.65,179.34,111.35,182.15,113Z" style="fill:#e1e1e1"/><path d="M195.93,135.77a11.19,11.19,0,0,1,5.07,8.79c0,3.23-2.29,4.53-5.11,2.91a11.18,11.18,0,0,1-5.07-8.79C190.83,135.45,193.12,134.15,195.93,135.77Z" style="fill:#e1e1e1"/><ellipse cx="195.95" cy="126.8" rx="4.16" ry="7.17" transform="translate(-37.18 115.62) rotate(-30.16)" style="fill:#e1e1e1"/><path d="M182.1,127.79a11.16,11.16,0,0,1,5.08,8.79c0,3.23-2.3,4.53-5.11,2.91A11.18,11.18,0,0,1,177,130.7C177,127.47,179.29,126.17,182.1,127.79Z" style="fill:#e1e1e1"/><path d="M303.88,72.66,249.4,41.2a1.1,1.1,0,0,0-1.1-.11h0L244.22,44h0a1.13,1.13,0,0,1,1.1.12L299.8,75.58a3.45,3.45,0,0,1,1.55,2.69l-.21,48.65a1.12,1.12,0,0,1-.43,1h0l4.12-3h0a1.13,1.13,0,0,0,.39-1l.21-48.64A3.39,3.39,0,0,0,303.88,72.66Z" style="fill:#0050ff"/><path d="M301.14,126.92l.21-48.65a3.45,3.45,0,0,0-1.55-2.69L245.32,44.13a1,1,0,0,0-1.57.89l-.21,48.64a3.42,3.42,0,0,0,1.55,2.69l54.49,31.46a1.07,1.07,0,0,0,1.13.09A1.12,1.12,0,0,0,301.14,126.92Z" style="fill:#6696ff"/><g style="opacity:0.30000000000000004"><polygon points="252.04 79.77 252.02 85.53 247 82.63 247.02 76.87 252.04 79.77" style="fill:#003cbf"/></g><g style="opacity:0.30000000000000004"><polygon points="252.04 90.56 252.02 96.33 247 93.43 247.02 87.66 252.04 90.56" style="fill:#003cbf"/></g><polygon points="257.06 93.46 257.04 99.22 252.02 96.33 252.04 90.56 257.06 93.46" style="fill:#0050ff"/><g style="opacity:0.5"><polygon points="284.87 100.48 284.86 102.73 255 85.49 255 83.24 284.87 100.48" style="fill:#0050ff"/></g><g style="opacity:0.30000000000000004"><polygon points="252.06 70.92 252.04 76.69 247.03 73.79 247.04 68.02 252.06 70.92" style="fill:#003cbf"/></g><g style="opacity:0.5"><polygon points="284.92 82.78 284.91 85.04 255.05 67.8 255.05 65.54 284.92 82.78" style="fill:#0050ff"/></g><g style="opacity:0.5"><polygon points="284.89 91.64 284.89 93.89 255.02 76.64 255.03 74.39 284.89 91.64" style="fill:#0050ff"/></g><g style="opacity:0.30000000000000004"><polygon points="252.09 62.07 252.07 67.84 247.05 64.94 247.07 59.17 252.09 62.07" style="fill:#003cbf"/></g><polygon points="297.89 88.51 297.88 94.29 287.57 88.33 287.58 82.56 297.89 88.51" style="fill:#0050ff"/><polygon points="297.84 106.21 297.83 111.98 287.52 106.03 287.53 100.26 297.84 106.21" style="fill:#0050ff"/><polygon points="297.87 97.36 297.85 103.13 287.54 97.18 287.56 91.41 297.87 97.36" style="fill:#0050ff"/><g style="opacity:0.30000000000000004"><path d="M299.8,75.58a3.43,3.43,0,0,1,1.55,2.69v4.65L267.83,63.58l0-6.45Z" style="fill:#003cbf"/></g><polygon points="264.83 58.27 246.15 47.48 246.14 49.62 264.82 60.4 264.83 58.27" style="fill:#fff"/><polygon points="295.19 74.53 295.19 75.13 298.95 77.3 298.95 76.7 295.19 74.53" style="fill:#fff"/><polygon points="295.18 78.22 298.94 80.39 298.94 79.79 295.18 77.62 295.18 78.22" style="fill:#fff"/><polygon points="295.18 76.16 298.95 78.33 298.95 77.73 295.18 75.56 295.18 76.16" style="fill:#fff"/><polygon points="295.18 77.19 298.94 79.36 298.94 78.76 295.18 76.59 295.18 77.19" style="fill:#fff"/><path d="M303.88,72.66,249.4,41.2a1.1,1.1,0,0,0-1.1-.11h0L244.22,44h0a1.13,1.13,0,0,1,1.1.12L299.8,75.58A3.32,3.32,0,0,1,301,76.92l4.28-2.46A3.39,3.39,0,0,0,303.88,72.66Z" style="fill:#003cbf"/><path d="M301,76.92a3.13,3.13,0,0,1,.36,1.35l-.21,48.65a1.12,1.12,0,0,1-.43,1h0l4.12-3h0a1.13,1.13,0,0,0,.39-1l.21-48.64a2.84,2.84,0,0,0-.16-.89Z" style="fill:#003cbf"/><path d="M219.74,37.69,165.26,6.23a1.08,1.08,0,0,0-1.11-.1h0l-4.07,2.92h0a1.08,1.08,0,0,1,1.09.11l54.49,31.46a3.42,3.42,0,0,1,1.55,2.69L217,65.55a1.1,1.1,0,0,1-.44,1h0l4.13-3h0a1.13,1.13,0,0,0,.39-.95l.21-22.25A3.43,3.43,0,0,0,219.74,37.69Z" style="fill:#0050ff"/><path d="M217,65.55l.21-22.24a3.42,3.42,0,0,0-1.55-2.69L161.17,9.16a1,1,0,0,0-1.56.89L159.4,32.3A3.43,3.43,0,0,0,161,35l54.49,31.46a1,1,0,0,0,1.12.08A1.1,1.1,0,0,0,217,65.55Z" style="fill:#6696ff"/><g style="opacity:0.5"><polygon points="169.9 27.02 169.88 34.98 162.96 30.98 162.98 23.03 169.9 27.02" style="fill:#0050ff"/></g><g style="opacity:0.5"><polygon points="180.69 32.99 180.66 40.95 173.75 36.96 173.77 29 180.69 32.99" style="fill:#0050ff"/></g><g style="opacity:0.5"><polygon points="191.47 38.97 191.45 46.92 184.53 42.93 184.55 34.98 191.47 38.97" style="fill:#0050ff"/></g><g style="opacity:0.5"><polygon points="202.25 44.94 202.23 52.9 195.32 48.9 195.34 40.95 202.25 44.94" style="fill:#0050ff"/></g><g style="opacity:0.5"><polygon points="213.04 50.91 213.02 58.87 206.1 54.88 206.12 46.92 213.04 50.91" style="fill:#0050ff"/></g><g style="opacity:0.30000000000000004"><path d="M215.66,40.61a3.45,3.45,0,0,1,1.55,2.69l0,4.66-33.5-19.35,0-6.44Z" style="fill:#003cbf"/></g><polygon points="180.69 23.3 162 12.51 162 14.65 180.68 25.43 180.69 23.3" style="fill:#fff"/><polygon points="211.04 39.56 211.04 40.16 214.81 42.34 214.81 41.73 211.04 39.56" style="fill:#fff"/><polygon points="211.03 43.25 214.8 45.42 214.8 44.83 211.03 42.65 211.03 43.25" style="fill:#fff"/><polygon points="211.04 41.19 214.8 43.37 214.8 42.77 211.04 40.59 211.04 41.19" style="fill:#fff"/><polygon points="211.04 42.22 214.8 44.39 214.8 43.8 211.04 41.62 211.04 42.22" style="fill:#fff"/><path d="M219.74,37.69,165.26,6.23a1.08,1.08,0,0,0-1.11-.1h0l-4.07,2.92h0a1.08,1.08,0,0,1,1.09.11l54.49,31.46A3.14,3.14,0,0,1,216.84,42l4.29-2.46A3.48,3.48,0,0,0,219.74,37.69Z" style="fill:#003cbf"/><path d="M216.84,42a3,3,0,0,1,.37,1.36L217,65.55a1.1,1.1,0,0,1-.44,1h0l4.13-3h0a1.13,1.13,0,0,0,.39-.95l.21-22.25a2.84,2.84,0,0,0-.16-.89Z" style="fill:#003cbf"/><path d="M303.88,135.74,249.4,104.28a1.1,1.1,0,0,0-1.1-.11h0l-4.08,2.92h0a1.1,1.1,0,0,1,1.1.11l54.48,31.45a3.45,3.45,0,0,1,1.55,2.69l-.21,74.44a1.11,1.11,0,0,1-.43,1h0l4.12-3h0a1.12,1.12,0,0,0,.39-.95l.21-74.43A3.39,3.39,0,0,0,303.88,135.74Z" style="fill:#0050ff"/><path d="M301.14,215.79l.21-74.44a3.45,3.45,0,0,0-1.55-2.69l-54.48-31.45a1,1,0,0,0-1.57.89l-.21,74.44a3.45,3.45,0,0,0,1.55,2.69l54.49,31.45a1.07,1.07,0,0,0,1.13.09A1.11,1.11,0,0,0,301.14,215.79Z" style="fill:#6696ff"/><g style="opacity:0.30000000000000004"><path d="M299.8,138.66a3.43,3.43,0,0,1,1.55,2.69V146l-33.51-19.34,0-6.44Z" style="fill:#003cbf"/></g><polygon points="297.3 189.24 297.3 189.24 296.94 188.6 296.25 189 296.94 188.6 297.3 189.24" style="fill:none"/><polygon points="297.35 172.97 297.35 172.97 296.98 172.33 296.29 172.73 296.98 172.33 297.35 172.97" style="fill:none"/><polygon points="295.63 164.97 295.26 165.18 295.63 164.97 295.63 164.97" style="fill:none"/><polygon points="266.66 166.18 265.61 164.35 265.98 164.15 265.61 164.35 266.66 166.18 266.66 166.18" style="fill:none"/><polygon points="295.76 207.71 295.51 207.27 295.14 207.49 295.51 207.27 295.76 207.71" style="fill:none"/><polygon points="296.25 189 295.56 187.81 295.19 188.02 295.56 187.81 296.25 189" style="fill:none"/><polygon points="265.96 170.72 266.65 171.91 267.34 171.51 267.7 172.15 267.7 172.15 267.34 171.51 266.65 171.91 265.96 170.72 265.59 170.93 265.59 170.93 265.96 170.72" style="fill:none"/><polygon points="266.01 154.45 266.01 154.45 265.64 154.66 265.64 154.66 266.01 154.45" style="fill:none"/><polygon points="267.65 191.62 267.65 191.62 267.28 190.98 266.59 191.38 267.28 190.98 267.65 191.62" style="fill:none"/><polygon points="265.54 190.4 265.91 190.19 265.91 190.19 265.54 190.4 266.21 191.55 265.54 190.4" style="fill:none"/><polygon points="296.88 208.07 297.25 208.7 296.88 208.07 296.19 208.47 296.19 208.47 296.88 208.07" style="fill:none"/><polygon points="295.24 171.75 295.24 171.75 295.61 171.54 295.24 171.75" style="fill:none"/><polygon points="297.02 157.24 296.34 157.64 297.02 157.24 297.02 157.24" style="fill:none"/><polygon points="249.84 159.8 246.02 157.59 246 162.24 249.83 164.44 249.84 159.8" style="fill:#fff"/><polygon points="249.86 153.22 246.04 151.01 246.02 155.66 249.85 157.87 249.86 153.22" style="fill:#fff"/><polygon points="264.83 121.34 246.15 110.56 246.14 112.7 264.82 123.48 264.83 121.34" style="fill:#fff"/><polygon points="297.39 157.88 297.02 157.24 296.34 157.64 295.65 156.45 295.28 156.66 296.33 158.48 297.39 157.88" style="fill:#fff"/><polygon points="249.89 143.53 246.06 141.32 246.05 145.97 249.88 148.18 249.89 143.53" style="fill:#fff"/><polygon points="249.91 136.96 246.08 134.75 246.07 139.4 249.9 141.6 249.91 136.96" style="fill:#fff"/><polygon points="246.11 126.23 246.09 130.88 293.76 158.4 293.78 153.75 246.11 126.23" style="fill:#0050ff"/><path d="M293.77,158.4l5.12,3,0-4.65-5.13-3Zm1.88-2,.69,1.19.68-.4h0l.37.63-1.06.61-1.05-1.82Z" style="fill:#0050ff"/><polygon points="246.13 119.31 246.11 123.95 293.79 151.48 293.8 146.83 246.13 119.31" style="fill:#0050ff"/><polygon points="297.41 150.95 297.04 150.32 296.36 150.71 295.67 149.52 295.3 149.73 296.35 151.55 297.41 150.95" style="fill:#fff"/><path d="M293.78,151.48l5.13,3,0-4.65-5.13-3Zm1.89-2,.69,1.19.68-.39.37.63-1.06.6-1.05-1.82Z" style="fill:#0050ff"/><polygon points="267.77 149.31 267.4 148.67 266.71 149.07 266.03 147.88 265.66 148.09 266.71 149.91 267.77 149.31" style="fill:#fff"/><path d="M269.27,152.79v-4.65l-5.12-3,0,4.65ZM266,147.88l.68,1.19.69-.4.37.64-1.06.6-1-1.82Z" style="fill:#0050ff"/><polygon points="251.82 149.3 264.12 156.41 264.12 156.41 264.12 156.41 264.14 151.76 251.84 144.66 251.82 149.3" style="fill:#0050ff"/><polygon points="264.16 145.18 251.85 138.08 251.84 142.73 264.14 149.83 264.16 145.18" style="fill:#0050ff"/><polygon points="266.69 156.49 267.75 155.88 267.38 155.24 266.69 155.64 266.01 154.45 265.64 154.66 266.69 156.49" style="fill:#fff"/><path d="M264.12,156.41l5.13,3v-4.65l-5.12-3h0l0,4.65Zm1.89-2h0l.68,1.19.69-.4.37.64-1.06.6-1.05-1.82h0Z" style="fill:#0050ff"/><path d="M293.72,173.49l5.13,3v-4.64l-5.12-3Zm1.52-1.74.37-.21.68,1.19.69-.4.37.64h0l-1.06.6-1.05-1.82Z" style="fill:#0050ff"/><path d="M293.7,183.19l5.12,3,0-4.65-5.13-3Zm1.88-1.95.69,1.18L297,182l.37.63-1.06.6-1.05-1.82Z" style="fill:#0050ff"/><path d="M293.68,189.76l5.12,3,0-4.65-5.13-3Zm1.88-1.95.69,1.19.69-.4.36.63h0l-1.06.61L295.19,188Z" style="fill:#0050ff"/><polygon points="281.39 178.01 281.38 182.66 293.68 189.76 293.68 189.76 293.69 185.11 281.39 178.01" style="fill:#0050ff"/><polygon points="281.41 171.44 281.39 176.08 293.69 183.19 293.71 178.54 281.41 171.44" style="fill:#0050ff"/><polygon points="281.44 161.75 281.42 166.39 293.72 173.49 293.74 168.85 281.44 161.75" style="fill:#0050ff"/><polygon points="281.45 155.17 281.44 159.82 293.74 166.92 293.75 162.27 281.45 155.17" style="fill:#0050ff"/><polygon points="297.37 166.4 297 165.76 296.31 166.16 295.63 164.97 295.26 165.18 296.31 167 297.37 166.4" style="fill:#fff"/><path d="M293.75,162.27v4.65l5.13,3v-4.65l-5.13-3Zm1.88,2.7h0l.68,1.19.69-.4.37.64-1.06.6-1.05-1.82Z" style="fill:#0050ff"/><polygon points="275.65 163.06 279.47 165.27 279.49 160.62 275.66 158.41 275.65 163.06" style="fill:#fff"/><polygon points="279.51 154.05 275.68 151.84 275.67 156.49 279.49 158.69 279.51 154.05" style="fill:#fff"/><polygon points="296.29 173.57 297.35 172.97 297.35 172.97 296.98 172.33 296.29 172.73 295.61 171.54 295.24 171.75 295.24 171.75 296.29 173.57" style="fill:#fff"/><polygon points="251.8 159 264.1 166.1 264.1 166.1 264.1 166.1 264.11 161.45 251.81 154.35 251.8 159" style="fill:#0050ff"/><path d="M264.1,166.1l5.12,3,0-4.65-5.13-3v4.65Zm1.88-1.95.69,1.18.69-.39.36.63-1.06.61h0l-1.05-1.83Z" style="fill:#0050ff"/><polygon points="266.66 166.18 266.66 166.18 267.72 165.57 267.36 164.94 266.67 165.33 265.98 164.15 265.61 164.35 266.66 166.18" style="fill:#fff"/><polygon points="266.65 171.91 265.96 170.72 265.59 170.93 266.65 172.75 267.7 172.15 267.34 171.51 266.65 171.91" style="fill:#fff"/><path d="M264.08,172.67h0l5.13,3V171l-5.13-3h0Zm1.88-1.95.69,1.19.69-.4.36.64h0l-1.05.6-1.06-1.82h0Z" style="fill:#0050ff"/><polygon points="256.49 177.54 256.5 172.9 252.68 170.69 252.66 175.34 256.49 177.54" style="fill:#fff"/><polygon points="251.78 165.57 264.08 172.67 264.08 172.67 264.09 168.02 264.09 168.02 251.79 160.92 251.78 165.57" style="fill:#0050ff"/><polygon points="264.04 187.49 264.04 187.49 245.96 177.06 245.95 181.7 264.02 192.14 264.04 187.49 264.04 187.49" style="fill:#0050ff"/><polygon points="266.21 191.55 266.59 192.22 267.65 191.62 267.28 190.98 266.59 191.38 265.91 190.19 265.54 190.4 266.21 191.55" style="fill:#fff"/><path d="M264,187.49l0,4.65h0l5.13,3v-4.65l-5.12-3Zm1.87,2.7h0l.68,1.19.69-.4.37.63h0l-1.06.61-.38-.67-.67-1.15Z" style="fill:#0050ff"/><polygon points="293.63 204.58 275.56 194.15 275.55 198.79 293.62 209.23 293.62 209.23 293.62 209.23 293.63 204.58" style="fill:#0050ff"/><polygon points="246.11 126.23 246.09 130.88 293.76 158.4 293.78 153.75 246.11 126.23" style="fill:#003cbf"/><polygon points="246.13 119.31 246.11 123.95 293.79 151.48 293.8 146.83 246.13 119.31" style="fill:#003cbf"/><polygon points="251.82 149.3 264.12 156.41 264.12 156.41 264.12 156.41 264.14 151.76 251.84 144.66 251.82 149.3" style="fill:#003cbf"/><polygon points="264.16 145.18 251.85 138.08 251.84 142.73 264.14 149.83 264.16 145.18" style="fill:#003cbf"/><polygon points="281.39 178.01 281.38 182.66 293.68 189.76 293.68 189.76 293.69 185.11 281.39 178.01" style="fill:#003cbf"/><polygon points="281.41 171.44 281.39 176.08 293.69 183.19 293.71 178.54 281.41 171.44" style="fill:#003cbf"/><polygon points="281.44 161.75 281.42 166.39 293.72 173.49 293.74 168.85 281.44 161.75" style="fill:#003cbf"/><polygon points="281.45 155.17 281.44 159.82 293.74 166.92 293.75 162.27 281.45 155.17" style="fill:#003cbf"/><polygon points="251.8 159 264.1 166.1 264.1 166.1 264.1 166.1 264.11 161.45 251.81 154.35 251.8 159" style="fill:#003cbf"/><polygon points="251.78 165.57 264.08 172.67 264.08 172.67 264.09 168.02 264.09 168.02 251.79 160.92 251.78 165.57" style="fill:#003cbf"/><polygon points="264.04 187.49 264.04 187.49 245.96 177.06 245.95 181.7 264.02 192.14 264.04 187.49 264.04 187.49" style="fill:#003cbf"/><polygon points="293.63 204.58 275.56 194.15 275.55 198.79 293.62 209.23 293.62 209.23 293.62 209.23 293.63 204.58" style="fill:#003cbf"/><path d="M293.63,204.58v4.65h0l5.13,3v-4.65l-5.13-3Zm1.88,2.69.25.44.43.75.69-.39.37.63-1.06.61-1.05-1.83Z" style="fill:#0050ff"/><path d="M293.77,158.4l5.12,3,0-4.65-5.13-3Zm1.88-2,.69,1.19.68-.4h0l.37.63-1.06.61-1.05-1.82Z" style="fill:#003cbf"/><path d="M293.78,151.48l5.13,3,0-4.65-5.13-3Zm1.89-2,.69,1.19.68-.39.37.63-1.06.6-1.05-1.82Z" style="fill:#003cbf"/><path d="M269.27,152.79v-4.65l-5.12-3,0,4.65ZM266,147.88l.68,1.19.69-.4.37.64-1.06.6-1-1.82Z" style="fill:#003cbf"/><path d="M264.12,156.41l5.13,3v-4.65l-5.12-3h0l0,4.65Zm1.89-2h0l.68,1.19.69-.4.37.64-1.06.6-1.05-1.82h0Z" style="fill:#003cbf"/><path d="M293.72,173.49l5.13,3v-4.64l-5.12-3Zm1.52-1.74.37-.21.68,1.19.69-.4.37.64h0l-1.06.6-1.05-1.82Z" style="fill:#003cbf"/><path d="M293.7,183.19l5.12,3,0-4.65-5.13-3Zm1.88-1.95.69,1.18L297,182l.37.63-1.06.6-1.05-1.82Z" style="fill:#003cbf"/><path d="M293.68,189.76l5.12,3,0-4.65-5.13-3Zm1.88-1.95.69,1.19.69-.4.36.63h0l-1.06.61L295.19,188Z" style="fill:#003cbf"/><path d="M293.75,162.27v4.65l5.13,3v-4.65l-5.13-3Zm1.88,2.7h0l.68,1.19.69-.4.37.64-1.06.6-1.05-1.82Z" style="fill:#003cbf"/><path d="M264.1,166.1l5.12,3,0-4.65-5.13-3v4.65Zm1.88-1.95.69,1.18.69-.39.36.63-1.06.61h0l-1.05-1.83Z" style="fill:#003cbf"/><path d="M264.08,172.67h0l5.13,3V171l-5.13-3h0Zm1.88-1.95.69,1.19.69-.4.36.64h0l-1.05.6-1.06-1.82h0Z" style="fill:#003cbf"/><path d="M264,187.49l0,4.65h0l5.13,3v-4.65l-5.12-3Zm1.87,2.7h0l.68,1.19.69-.4.37.63h0l-1.06.61-.38-.67-.67-1.15Z" style="fill:#003cbf"/><path d="M293.63,204.58v4.65h0l5.13,3v-4.65l-5.13-3Zm1.88,2.69.25.44.43.75.69-.39.37.63-1.06.61-1.05-1.83Z" style="fill:#003cbf"/><polygon points="297.25 208.7 296.88 208.07 296.19 208.47 296.19 208.47 295.76 207.71 295.51 207.27 295.14 207.49 296.19 209.31 297.25 208.7" style="fill:#fff"/><polygon points="275.6 179.32 279.43 181.53 279.44 176.88 275.62 174.68 275.6 179.32" style="fill:#fff"/><polygon points="275.62 172.75 279.45 174.96 279.46 170.31 275.63 168.1 275.62 172.75" style="fill:#fff"/><polygon points="297.32 182.66 296.95 182.03 296.26 182.42 295.58 181.24 295.21 181.44 296.26 183.26 297.32 182.66" style="fill:#fff"/><polygon points="297.3 189.24 297.3 189.24 296.94 188.6 296.25 189 295.56 187.81 295.19 188.02 296.24 189.84 297.3 189.24" style="fill:#fff"/><polygon points="249.82 169.04 245.99 166.83 245.98 171.48 249.8 173.68 249.82 169.04" style="fill:#fff"/><polygon points="267.71 184.02 271.53 186.23 271.55 181.58 267.72 179.38 267.71 184.02" style="fill:#fff"/><polygon points="274.39 187.88 278.22 190.09 278.23 185.44 274.4 183.23 274.39 187.88" style="fill:#fff"/><polygon points="288.28 191.25 288.27 195.89 292.1 198.1 292.11 193.45 288.28 191.25" style="fill:#fff"/><polygon points="294.95 199.75 298.78 201.96 298.79 197.31 294.96 195.1 294.95 199.75" style="fill:#fff"/><polygon points="295.19 137.61 295.19 138.21 298.95 140.38 298.95 139.78 295.19 137.61" style="fill:#fff"/><polygon points="295.18 141.3 298.94 143.47 298.94 142.87 295.18 140.7 295.18 141.3" style="fill:#fff"/><polygon points="295.18 139.24 298.95 141.41 298.95 140.81 295.18 138.64 295.18 139.24" style="fill:#fff"/><polygon points="295.18 140.27 298.94 142.44 298.94 141.84 295.18 139.67 295.18 140.27" style="fill:#fff"/><path d="M303.88,135.74,249.4,104.28a1.1,1.1,0,0,0-1.1-.11h0l-4.08,2.92h0a1.1,1.1,0,0,1,1.1.11l54.48,31.45A3.32,3.32,0,0,1,301,140l4.28-2.46A3.39,3.39,0,0,0,303.88,135.74Z" style="fill:#003cbf"/><path d="M301,140a3.13,3.13,0,0,1,.36,1.35l-.21,74.44a1.11,1.11,0,0,1-.43,1h0l4.12-3h0a1.12,1.12,0,0,0,.39-.95l.21-74.43a2.84,2.84,0,0,0-.16-.89Z" style="fill:#003cbf"/><path d="M140.79,75.12s.45-1.9-.74-2.15c0,0,1-2.16-.27-2.59S136.86,74.28,135,76c-.34.39-2.56,2.4-2.85,1.75h0L129,79a5.75,5.75,0,0,1-.86,2.44c-3.27,5-7,7.38-9.78,10.93l-2.71-2.63-5.14,7.15,5,3.77a5.64,5.64,0,0,0,8.05-1.36l9.29-13.81A4.75,4.75,0,0,1,134.48,84c1.47-.88,4.32-2.65,5.37-4C141.3,78.28,141.5,76.36,140.79,75.12Z" style="fill:#ffc3c2"/><path d="M100,77.52c5.14-.22,12.13,8.13,16.06,12.06-.3,4.81-5.48,8-5.48,8A113.57,113.57,0,0,1,100,89.28Z" style="fill:#0050ff"/><path d="M100,77.52c5.14-.22,12.13,8.13,16.06,12.06-.3,4.81-5.48,8-5.48,8A113.57,113.57,0,0,1,100,89.28Z" style="fill:#fff;opacity:0.30000000000000004"/><polygon points="146.64 41.35 162.64 75.63 134.61 83.22 118.61 48.94 146.64 41.35" style="fill:#0050ff"/><g style="opacity:0.30000000000000004"><polygon points="146.64 41.35 162.64 75.63 134.61 83.22 118.61 48.94 146.64 41.35" style="fill:#0050ff"/></g><path d="M155.08,66.94l.4.86a1.31,1.31,0,0,1-.39,1,1.8,1.8,0,0,1-.92.56,1.88,1.88,0,0,1-1.49-.21,3.35,3.35,0,0,1-.75-.61,3.13,3.13,0,0,1-.54,1.17,2.07,2.07,0,0,1-1.12.71A3,3,0,0,1,148,70c-.1,0-.2-.12-.3-.18a6.39,6.39,0,0,1-2.14-2.66,5,5,0,0,1-.59-3.08,2.17,2.17,0,0,1,1.75-1.66,4,4,0,0,1,1.13-.12,3.31,3.31,0,0,1,1.09.19l-1.68-3.59a3.51,3.51,0,0,0-1.07-1.46l-.1-.06a1.32,1.32,0,0,0-1.05-.16.94.94,0,0,0-.72.68,1.56,1.56,0,0,1,.39.15,1.76,1.76,0,0,1,.36.28,3,3,0,0,1,.57.83,2.4,2.4,0,0,1,.26,1.51,1,1,0,0,1-.75.81A1.42,1.42,0,0,1,144,61.3a1.37,1.37,0,0,1-.2-.13,3.71,3.71,0,0,1-1.12-1.44,4.29,4.29,0,0,1-.42-1.89,2.75,2.75,0,0,1,.63-1.69,3.5,3.5,0,0,1,1.87-1.08,3.76,3.76,0,0,1,3,.33l.1.06a6.65,6.65,0,0,1,2.37,3l3.34,7.16a2.56,2.56,0,0,0,.95,1.18A1.31,1.31,0,0,0,155.08,66.94Zm-4.27.68a1.11,1.11,0,0,0,.28-.43l-1.22-2.62a2.43,2.43,0,0,0-.61-.2,1.36,1.36,0,0,0-.57,0,.77.77,0,0,0-.57.69,2.61,2.61,0,0,0,.33,1.45,2.77,2.77,0,0,0,.87,1.11,1,1,0,0,0,.17.12,1.14,1.14,0,0,0,.87.14,1,1,0,0,0,.45-.26" style="fill:#fff"/><path d="M147,70.17A2.4,2.4,0,0,1,147,71l-4.65,1.26a3.72,3.72,0,0,1-.66-.7,5.68,5.68,0,0,1-.54-.92c.65-.18.78-.69.37-1.56a11.63,11.63,0,0,0-.71-1.24l-.37-.54-3.85,1,.16.59a8.38,8.38,0,0,0,.4,1.23,2.14,2.14,0,0,0,.79,1,1.19,1.19,0,0,0,.95.1,4.16,4.16,0,0,1,.34,1,2.76,2.76,0,0,1,.08.87l-3.84,1a4.13,4.13,0,0,1-.65-.71,4.77,4.77,0,0,1-.55-.92,1,1,0,0,0,.67-.68,2.83,2.83,0,0,0,0-1.47l-3.29-13.84a4.15,4.15,0,0,0-1.89.12,4.45,4.45,0,0,1-.5-2.06L134,53.33l10.34,14.43A4.11,4.11,0,0,0,145.52,69a1.44,1.44,0,0,0,1.11.24A4.92,4.92,0,0,1,147,70.17Zm-11-4,3.1-.83L134.76,59a10.6,10.6,0,0,0-1-1.28L136,66.16" style="fill:#fff"/><path d="M102.65,187.07c-.1,2.19,0,4.76,0,4.76l-1.28.07a3.08,3.08,0,0,0-2.72,2l0,.08a1.2,1.2,0,0,1-1.49.73h0a1.2,1.2,0,0,1-.72-.62l-.65-5.5Z" style="fill:#ffc3c2"/><path d="M104.51,206.12c3.33,1.43,8.43,1.7,10.55-1.7v.92c-2.12,3.4-7.22,3.13-10.55,1.7s-2.6-3.74-5.59-5A8.15,8.15,0,0,1,96,200.21c0-.27-.06-.61-.1-1a10.14,10.14,0,0,0,3,1.92C101.91,202.38,101.18,204.7,104.51,206.12Z" style="fill:#2b454e"/><path d="M95.91,196.18a4.74,4.74,0,0,0,0-2,1.07,1.07,0,0,1,.15-.87l.25-.25.12,1a1.2,1.2,0,0,0,2.21-.11l0-.08a3.08,3.08,0,0,1,2.72-2l1.3-.07a.94.94,0,0,1,.91.57,21.1,21.1,0,0,0,7.25,8.4c1.89,0,4.23,1.53,4.23,3.43v.19c-2.12,3.4-7.22,3.13-10.55,1.7s-2.6-3.74-5.59-5a10.14,10.14,0,0,1-3-1.92A10.49,10.49,0,0,1,95.91,196.18Z" style="fill:#0050ff"/><path d="M102.35,198.81a.42.42,0,1,1-.65-.53,4.85,4.85,0,0,1,4.35-1.91c.17.22.36.44.54.65A4.7,4.7,0,0,0,102.35,198.81Z" style="fill:#fff"/><path d="M101,197.34a.42.42,0,0,1-.66-.53,5.12,5.12,0,0,1,4.54-2c.16.24.33.48.5.71A4.72,4.72,0,0,0,101,197.34Z" style="fill:#fff"/><path d="M103.72,200.25a.42.42,0,0,1-.66-.53,4.85,4.85,0,0,1,4.24-1.92c.21.23.43.45.65.66A4.67,4.67,0,0,0,103.72,200.25Z" style="fill:#fff"/><path d="M110.83,200.8c1.89,0,4.23,1.53,4.23,3.43v.19c-2.09,3.35-7.06,3.13-10.4,1.76C104.92,201.61,109.31,200.78,110.83,200.8Z" style="fill:#fff"/><path d="M105.12,201.62a.41.41,0,0,1-.58.06.42.42,0,0,1-.07-.59,4.81,4.81,0,0,1,4.24-1.91l.79.66A4.73,4.73,0,0,0,105.12,201.62Z" style="fill:#fff"/><path d="M84.94,191.12c-.09,2.19,0,4.76,0,4.76l-1.27.07a3.08,3.08,0,0,0-2.73,2l0,.08a1.19,1.19,0,0,1-1.48.73h0a1.18,1.18,0,0,1-.73-.62l-.65-5.5Z" style="fill:#ffc3c2"/><path d="M86.8,210.17c3.33,1.43,8.44,1.7,10.55-1.7v.92c-2.11,3.4-7.22,3.13-10.55,1.7s-2.6-3.74-5.58-5a8.14,8.14,0,0,1-2.92-1.84c0-.27,0-.61-.1-1a10.22,10.22,0,0,0,3,1.92C84.2,206.43,83.47,208.75,86.8,210.17Z" style="fill:#2b454e"/><path d="M78.2,200.23a4.74,4.74,0,0,0,0-2,1.07,1.07,0,0,1,.15-.87l.25-.25.12,1a1.21,1.21,0,0,0,2.21-.11l0-.08a3.08,3.08,0,0,1,2.73-2l1.29-.07a.93.93,0,0,1,.91.57,21.1,21.1,0,0,0,7.25,8.4c1.89,0,4.23,1.53,4.23,3.43v.19c-2.11,3.4-7.22,3.13-10.55,1.7s-2.6-3.74-5.58-5a10.22,10.22,0,0,1-3-1.92A10.86,10.86,0,0,1,78.2,200.23Z" style="fill:#0050ff"/><path d="M84.65,202.86a.42.42,0,0,1-.66-.53,4.86,4.86,0,0,1,4.35-1.91l.54.66A4.65,4.65,0,0,0,84.65,202.86Z" style="fill:#fff"/><path d="M83.33,201.39a.42.42,0,0,1-.65-.53,5.06,5.06,0,0,1,4.53-2l.5.7A4.72,4.72,0,0,0,83.33,201.39Z" style="fill:#fff"/><path d="M86,204.3a.42.42,0,0,1-.59.06.44.44,0,0,1-.07-.59,4.85,4.85,0,0,1,4.24-1.92c.21.23.43.45.65.66A4.68,4.68,0,0,0,86,204.3Z" style="fill:#fff"/><path d="M93.12,204.85c1.89,0,4.23,1.53,4.23,3.43v.19c-2.08,3.35-7.06,3.13-10.39,1.76C87.21,205.66,91.61,204.83,93.12,204.85Z" style="fill:#fff"/><path d="M87.42,205.67a.43.43,0,0,1-.59.06.42.42,0,0,1-.07-.58A4.82,4.82,0,0,1,91,203.23c.26.23.53.46.79.67A4.68,4.68,0,0,0,87.42,205.67Z" style="fill:#fff"/><path d="M107,118l-.62,42.51-2,29.75c-5.08,3.21-10.33.17-10.33.17-1.93-14.1-2-22.81-1-28.68L92.43,139l-1,23.48-4.78,30c-5.21,3.38-10.87-.1-10.87-.1,0-10.81-1.11-23.65,1.86-31.44a171.44,171.44,0,0,1,1.44-42.58Z" style="fill:#40d1b7"/><path d="M94.53,130.48,92.43,139l.3,11,3.15-17.66c4.53-1.77,5.12-4.27,5.12-4.27A14,14,0,0,1,94.53,130.48Z" style="fill:#40d1b7"/><path d="M81.08,81.65C88.45,78.19,94,77.79,100,77.53c9,5.8,5.64,10.64,5.49,18.38a107,107,0,0,0,2.78,25.33c-11.81,9.43-27.44,7.21-31,5C78.09,103.11,77.08,83.3,81.08,81.65Z" style="fill:#0050ff"/><path d="M81.08,81.65C88.45,78.19,94,77.79,100,77.53c9,5.8,5.64,10.64,5.49,18.38a107,107,0,0,0,2.78,25.33c-11.81,9.43-27.44,7.21-31,5C78.09,103.11,77.08,83.3,81.08,81.65Z" style="fill:#fff;opacity:0.6000000000000001"/><path d="M103.44,66.13a6.18,6.18,0,0,0,2.42-3.72,6.12,6.12,0,0,0-.71-4.37,3.28,3.28,0,0,0,1.61-1.53,1.78,1.78,0,0,0-2.31-2.37,2.51,2.51,0,0,0-1-2.93,2.36,2.36,0,0,0-2.94.55,1.6,1.6,0,0,0-1.09-1.58,3.33,3.33,0,0,0-2,.13c-.65.23-1.27.55-1.93.76a15,15,0,0,1-3.47.44,7.06,7.06,0,0,0-3.36.9,3,3,0,0,0-1.32,3.4,1.93,1.93,0,0,0-1.39-.74,1.86,1.86,0,0,0-1.43.61c.73.45,1.44.94,2.17,1.39a2,2,0,0,0-2.23.89A4.36,4.36,0,0,0,84,60.31a31.45,31.45,0,0,0,1.61,9c.5,1.5,1.89,4.05,3.31,4.74Z" style="fill:#1a2e35"/><path d="M103.45,58.2a7.79,7.79,0,0,1-5.16,2.18A19.27,19.27,0,0,1,93,59.31a4.08,4.08,0,0,1-1.2,2.23,4.72,4.72,0,0,1-2.48,1.08,16.11,16.11,0,0,1,0,4.95,1,1,0,0,1-.63.76c-.59.17-1-.44-1.26-.92A4.11,4.11,0,0,0,86.09,66a2,2,0,0,0-1.85-.19,1.92,1.92,0,0,0-1,1.19,3.57,3.57,0,0,0-.07,1.56,4.68,4.68,0,0,0,1,2.4,3.21,3.21,0,0,0,2.28,1.17A2.32,2.32,0,0,0,88.67,71l0,.16A6.27,6.27,0,0,0,89,72a6.55,6.55,0,0,0,4.78,4.09c1.11.24,2.35.46,3.6.65.62.09,1.24.18,1.86.25a4.49,4.49,0,0,0,5-3.66C105,68.51,105.27,62.94,103.45,58.2Z" style="fill:#ffc3c2"/><path d="M89,72v8.33A9.18,9.18,0,0,0,95.66,84a3.2,3.2,0,0,0,2.4-.61,2,2,0,0,0,.6-1.88,2,2,0,0,0-.84-1.21,1.08,1.08,0,0,1-.49-.89V76.7c-1.25-.19-2.49-.41-3.6-.65A6.55,6.55,0,0,1,89,72Z" style="fill:#ffc3c2"/><path d="M94.52,77.89a19,19,0,0,0,2.81.5V76.7c-1.25-.19-2.49-.41-3.6-.65a6.53,6.53,0,0,1-4.62-3.73,6.7,6.7,0,0,0,1.69,3.49A8.08,8.08,0,0,0,94.52,77.89Z" style="fill:#ffaaa8"/><polygon points="99.28 65.33 102.34 69.03 99.54 70.02 99.28 65.33" style="fill:#ffaaa8"/><path d="M95,65.79a.84.84,0,0,0,.84.84.83.83,0,0,0,.84-.83.85.85,0,0,0-.83-.85A.86.86,0,0,0,95,65.79Z" style="fill:#1a2e35"/><path d="M102,65.56a.84.84,0,1,0,.84-.83A.83.83,0,0,0,102,65.56Z" style="fill:#1a2e35"/><path d="M101.57,61.83l2.25.26a1.18,1.18,0,0,0-.94-1A1.44,1.44,0,0,0,101.57,61.83Z" style="fill:#1a2e35"/><path d="M96.55,61.83l-2.17.65a1.2,1.2,0,0,1,.76-1.14A1.39,1.39,0,0,1,96.55,61.83Z" style="fill:#1a2e35"/><path d="M96.06,71.24l2.35,1.14a1.54,1.54,0,0,1-1.78.5A1.37,1.37,0,0,1,96.06,71.24Z" style="fill:#ffaaa8"/><path d="M96.06,71.24l2.35,1.14a1.54,1.54,0,0,1-1.78.5A1.37,1.37,0,0,1,96.06,71.24Z" style="fill:#003cbf"/><path d="M97.44,73a1.38,1.38,0,0,1-.81-.08A1.23,1.23,0,0,1,96,71.65a1.45,1.45,0,0,1,.92.32A1.47,1.47,0,0,1,97.44,73Z" style="fill:#ffaaa8"/><path d="M74.66,129.69l-10.4-18.25a7.32,7.32,0,0,1-.18-6.14l5.78-13.61a17.73,17.73,0,0,1,10.08-9.64l1.45-.55c.83,8.16-1.63,12.09-9.1,26.26,0,0,3.94,13.22,7,19.1a22.06,22.06,0,0,1,6.58,4.77A1.2,1.2,0,0,1,86,133.2h0a1.1,1.1,0,0,1-1.37.3c-1-.52-2-1-3-1.56a32.66,32.66,0,0,0,3.9,6.46,1.22,1.22,0,0,1-.07,1.59h0a1.23,1.23,0,0,1-1.07.37L81,139.9a5.86,5.86,0,0,1-4.42-3.23A20.11,20.11,0,0,1,74.66,129.69Z" style="fill:#ffc3c2"/><path d="M81.39,81.5c-6.32,2.17-9.91,3.61-14.93,17.24,2.51,3.89,9.44,3.37,9.44,3.37C84.89,88.52,81.39,81.5,81.39,81.5Z" style="fill:#0050ff"/><path d="M81.39,81.5c-6.32,2.17-9.91,3.61-14.93,17.24,2.51,3.89,9.44,3.37,9.44,3.37C84.89,88.52,81.39,81.5,81.39,81.5Z" style="fill:#fff;opacity:0.30000000000000004"/><path d="M132.1,77.79a.93.93,0,0,1,0-.59c.49-1.69,1-3.3.05-4a.53.53,0,0,0-.78.24c-.37.8-1.24,2.22-1.74,3.17A9.12,9.12,0,0,0,129,79l3.05-1.17Z" style="fill:#ffc3c2"/><polygon points="152.85 82.81 155.13 84.92 151.22 106.67 148.8 120.86 140.5 121.82 143.89 106.67 150.32 81.59 152.85 82.81" style="fill:#b05655"/><path d="M149.56,119.12c-5.73-2.14-9.48.87-9.48.87l-.93,24.3,10.22-5.85Z" style="fill:#0050ff"/><path d="M149.56,119.12c-5.73-2.14-9.48.87-9.48.87l-.93,24.3,10.22-5.85Z" style="fill:#1a2e35"/><path d="M149.56,119.12c-5.73-2.14-9.48.87-9.48.87l-.93,24.3,10.22-5.85Z" style="fill:#40d1b7"/><path d="M154.66,49.25c-.95-.54-1.71-.11-1.71,1l-.31,34.92a3.78,3.78,0,0,0,1.7,2.95l42,24.26c.94.55,1.71.11,1.71-1l.31-34.92a3.75,3.75,0,0,0-1.7-2.94Z" style="fill:#0050ff"/><g style="isolation:isolate"><polygon points="167.96 67.03 156.54 76.02 156.51 84.8 194.49 106.73 194.52 97.95 187.28 83.57 180.78 88.62 183.08 95.76 179.74 89.42 167.96 67.03" style="fill:#fff"/><path d="M180.43,71.46c-1.79-1-3.24-.21-3.25,1.85a7.15,7.15,0,0,0,3.23,5.59c1.79,1,3.24.2,3.25-1.86A7.11,7.11,0,0,0,180.43,71.46Z" style="fill:#fff"/></g><path d="M179.52,132.87l9-3,5.94-22.44a3.37,3.37,0,0,0-.16-2l-.63-1.56a6.43,6.43,0,0,1-.45-2.6l.11-3.43a1,1,0,0,1,1-1h0a1,1,0,0,1,1,.86l.54,3,1.26,1.44,1-4.08V92.74l2.69,3.88a4.68,4.68,0,0,1,.76,3.43l-1.07,6.51-2.89,25.23a10.07,10.07,0,0,1-6.38,8.24l-9.48,3.66Z" style="fill:#b05655"/><path d="M160.18,269.38a4.21,4.21,0,0,0,3.79,2.55,18.62,18.62,0,0,0,4.79-.61c3.56-.65,7,0,10.54-.09a14.94,14.94,0,0,0,3.47-.38,5.62,5.62,0,0,0,3-1.75,3.9,3.9,0,0,0,.86-1.85,3.69,3.69,0,0,1-.86,2.9,5.67,5.67,0,0,1-3,1.74,14.94,14.94,0,0,1-3.47.38c-3.55.08-7-.56-10.54.09A18.62,18.62,0,0,1,164,273a4.21,4.21,0,0,1-3.79-2.55,3.94,3.94,0,0,1-.12-1.64A3.19,3.19,0,0,0,160.18,269.38Z" style="fill:#1a2e35"/><path d="M160.27,266.43l.66-3.23a4.73,4.73,0,0,1,.55-1.65,1.63,1.63,0,0,1,1.44-.82c2-.26,4.69-1,6.31.15a14.52,14.52,0,0,0,8.71,2.53,30,30,0,0,1,4.82-.19,4.29,4.29,0,0,1,3.74,2.62,3.2,3.2,0,0,1,.09,1.41,3.9,3.9,0,0,1-.86,1.85,5.62,5.62,0,0,1-3,1.75,14.94,14.94,0,0,1-3.47.38c-3.55.08-7-.56-10.54.09a18.62,18.62,0,0,1-4.79.61,4.21,4.21,0,0,1-3.79-2.55,3.19,3.19,0,0,1-.12-.6A7.81,7.81,0,0,1,160.27,266.43Z" style="fill:#050c30"/><path d="M169.7,257.49l.14,4.21a1.68,1.68,0,0,1-1.55,1.73,27.34,27.34,0,0,1-4.25,0,2.4,2.4,0,0,1-2.17-2.26l-.16-3.11Z" style="fill:#b05655"/><path d="M142.19,255.25a3.31,3.31,0,0,0,.57,1.74,3.11,3.11,0,0,0,2,1.12,5,5,0,0,0,4.93-2c.53-.77.83-1.67,1.33-2.46a11.25,11.25,0,0,1,2.77-2.69,11.8,11.8,0,0,0,2.79-2.67,4,4,0,0,0,.53-3.56,2.51,2.51,0,0,1,.26.45,4,4,0,0,1-.5,3.79A12.2,12.2,0,0,1,154,251.7a11.29,11.29,0,0,0-2.83,2.77c-.51.81-.82,1.74-1.36,2.53a5.1,5.1,0,0,1-5,2.09,3.2,3.2,0,0,1-2-1.15,3.89,3.89,0,0,1-.59-2.42C142.18,255.43,142.19,255.34,142.19,255.25Z" style="fill:#1a2e35"/><path d="M143.47,250c1.28-2.24,3.92-3.87,6-5.46a7.61,7.61,0,0,1,3.95-1.8,3.71,3.71,0,0,1,3.68,1.88.56.56,0,0,0,0,.12,4,4,0,0,1-.53,3.56,11.8,11.8,0,0,1-2.79,2.67,11.25,11.25,0,0,0-2.77,2.69c-.5.79-.8,1.69-1.33,2.46a5,5,0,0,1-4.93,2,3.11,3.11,0,0,1-2-1.12,3.31,3.31,0,0,1-.57-1.74c0-.2,0-.41,0-.61A9.88,9.88,0,0,1,143.47,250Z" style="fill:#050c30"/><path d="M149,248v3.83a6.39,6.39,0,0,1-6-.27l-.36-3.44Z" style="fill:#b05655"/><path d="M141.7,178.55c-1.15,3.45.27,19.82.94,35.51-2.49,5.94-1.82,22.78-.39,34.75,0,0,5,1.63,9.5.1l3.14-33.12.78-18.67s1.42,16.56,3.05,27.18c-1.54,8.14-2.15,9.28.27,34.87,0,0,6.23,2.08,10.83-.17,2.14-35.16,1.35-67.2.94-78.72Z" style="fill:#0050ff"/><path d="M141.7,178.55c-1.15,3.45.27,19.82.94,35.51-2.49,5.94-1.82,22.78-.39,34.75,0,0,5,1.63,9.5.1l3.14-33.12.78-18.67s1.42,16.56,3.05,27.18c-1.54,8.14-2.15,9.28.27,34.87,0,0,6.23,2.08,10.83-.17,2.14-35.16,1.35-67.2.94-78.72Z" style="opacity:0.30000000000000004"/><path d="M155.19,208.49l.64-15.22c-3.93,0-7.58-2.94-10.36-5.73a17.58,17.58,0,0,0,7.84,6.85Z" style="opacity:0.30000000000000004"/><path d="M171.36,181.21c-17.55,7.35-28.92.71-30.47-2.75.81-12.13-2.06-26.32-1.83-32.35s1-12.83,10.31-11.47l9.94,1,5,1.23,6.05,12.57Z" style="fill:#40d1b7"/><path d="M149.37,129.88a2.66,2.66,0,0,1-2-.66,2,2,0,0,1-.46-1.67,1.79,1.79,0,0,1-1.33-1.08,2.06,2.06,0,0,1,.31-1.82,3,3,0,0,1-2-1.61,3.23,3.23,0,0,1-.09-2.62,2.84,2.84,0,0,1-2-1.93,3.08,3.08,0,0,1,.57-2.83,3.82,3.82,0,0,1-.45-3.81,4,4,0,0,1,3.27-2.21,3.93,3.93,0,0,1,1.29-3.52,3.77,3.77,0,0,1,3.61-.71,3.47,3.47,0,0,1,5.79-1,2.63,2.63,0,0,1,2.34-.87,2.74,2.74,0,0,1,2.12,1.4,3.55,3.55,0,0,1,5,3.4,2.1,2.1,0,0,1,1.5,2.07,2.22,2.22,0,0,1-1.73,2,49.83,49.83,0,0,1-4.66,13.66c-1,1.91-2.19,3.86-4.1,4.85C154.38,132,151.14,131.39,149.37,129.88Z" style="fill:#1a2e35"/><path d="M149.37,129.88a2.66,2.66,0,0,1-2-.66,2,2,0,0,1-.46-1.67,1.79,1.79,0,0,1-1.33-1.08,2.06,2.06,0,0,1,.31-1.82,3,3,0,0,1-2-1.61,3.23,3.23,0,0,1-.09-2.62,2.84,2.84,0,0,1-2-1.93,3.08,3.08,0,0,1,.57-2.83,3.82,3.82,0,0,1-.45-3.81,4,4,0,0,1,3.27-2.21,3.93,3.93,0,0,1,1.29-3.52,3.77,3.77,0,0,1,3.61-.71,3.47,3.47,0,0,1,5.79-1,2.63,2.63,0,0,1,2.34-.87,2.74,2.74,0,0,1,2.12,1.4,3.55,3.55,0,0,1,5,3.4,2.1,2.1,0,0,1,1.5,2.07,2.22,2.22,0,0,1-1.73,2,49.83,49.83,0,0,1-4.66,13.66c-1,1.91-2.19,3.86-4.1,4.85C154.38,132,151.14,131.39,149.37,129.88Z" style="fill:#1a2e35"/><polygon points="165.92 118.65 167.98 122.23 165.73 123.06 165.92 118.65" style="fill:#ff9090"/><polygon points="165.92 118.65 167.98 122.23 165.73 123.06 165.92 118.65" style="fill:#923534"/><path d="M165.21,112.42a33.14,33.14,0,0,1,.59,15.21,5.17,5.17,0,0,1-.94,2.41,3.81,3.81,0,0,1-2.62,1.2,11.17,11.17,0,0,1-2.93-.28v4.65c-3.54.84-7.17,1.17-9.94-1v-4.76a12.67,12.67,0,0,0,6.17.38c2.44-1.31,2.93-5.78,2.59-6.95a1.85,1.85,0,0,1-1.91.67,2.6,2.6,0,0,1-1.59-1.26,5.41,5.41,0,0,1-.59-2,3.64,3.64,0,0,1,.36-2.46,2.57,2.57,0,0,1,2.77-.93,4,4,0,0,1,2.33,2,6.56,6.56,0,0,1,.41.89.55.55,0,0,0,1.07-.14,7.39,7.39,0,0,0-.7-3.9,2.7,2.7,0,0,0,2-1.22,2.56,2.56,0,0,0,.39-2.24A7.43,7.43,0,0,0,165.21,112.42Z" style="fill:#b05655"/><path d="M152.66,83.62l1.82-4.71.82-3.7a.94.94,0,0,0-.62-1.1h0a1,1,0,0,0-1.2.59l-.69,2V71.05l-2.36,4.22a3.66,3.66,0,0,0-.45,2.1l-.48,7.45Z" style="fill:#b05655"/><path d="M164.33,136.83c5.59-1.85,15.55-4.86,15.55-4.86,4.47,4.51,4.1,11.78,4.1,11.78l-13.58,5.66C157.46,153.51,155.57,139.73,164.33,136.83Z" style="fill:#1a2e35"/><path d="M164.33,136.83c5.59-1.85,15.55-4.86,15.55-4.86,4.47,4.51,4.1,11.78,4.1,11.78l-13.58,5.66C157.46,153.51,155.57,139.73,164.33,136.83Z" style="fill:#40d1b7"/></svg>