<svg id="Layer_1" data-name="Layer 1" xmlns="http://www.w3.org/2000/svg" viewBox="0 0 400 300"><title>L</title><path id="Shadow" d="M181.31,297.82,213,279.52a1,1,0,0,0,0-1.82L192.82,266a3.52,3.52,0,0,0-3.16,0L158,284.25a1,1,0,0,0,0,1.82l20.19,11.75A3.52,3.52,0,0,0,181.31,297.82Z" style="fill:#e1e1e1"/><path id="Shadow-2" data-name="Shadow" d="M225.91,272.17l31.7-18.29a1,1,0,0,0,0-1.83L237.42,240.3a3.52,3.52,0,0,0-3.16,0l-31.71,18.3a1,1,0,0,0,0,1.82l20.2,11.75A3.52,3.52,0,0,0,225.91,272.17Z" style="fill:#e1e1e1"/><path id="Shadow-3" data-name="Shadow" d="M270.5,246.52l31.71-18.29a1,1,0,0,0,0-1.83L282,214.65a3.49,3.49,0,0,0-3.15,0L247.15,233a1,1,0,0,0,0,1.82l20.19,11.75A3.45,3.45,0,0,0,270.5,246.52Z" style="fill:#e1e1e1"/><polygon id="Shadow-4" data-name="Shadow" points="135.32 281.11 79.04 248.61 259.72 144.3 315.99 176.79 135.32 281.11" style="fill:#e1e1e1"/><path d="M310.07,17.27l-176.64,102V275a2.16,2.16,0,0,0,3.24,1.88l3-1.74L306.9,178.6a7,7,0,0,0,3.17-5.47Z" style="fill:#6696ff"/><polygon points="306.04 14.95 129.39 116.94 133.43 119.27 310.07 17.27 306.04 14.95" style="fill:#6696ff"/><path d="M134.56,276.92a2.17,2.17,0,0,1-1.13-1.91V119.27l-4-2.33V272a3.44,3.44,0,0,0,0,.46,3.33,3.33,0,0,0,1.65,2.45l3.33,1.93.16.09Z" style="fill:#2672ab"/><path d="M129.39,113.52v-8.44a3.53,3.53,0,0,1,1.58-2.74L304.47,2.19a3.43,3.43,0,0,1,3.15,0l.87.5a3.49,3.49,0,0,1,1.58,2.73v8.45l-176.64,102Z" style="fill:#00dfbf"/><path d="M129.39,113.52v-8.44a3.53,3.53,0,0,1,1.58-2.74L304.47,2.19a3.43,3.43,0,0,1,3.15,0l.87.5a3.49,3.49,0,0,1,1.58,2.73v8.45l-176.64,102Z" style="fill:#fff;opacity:0.4"/><path d="M133.43,107.41a3.52,3.52,0,0,1,1.57-2.74L308.49,4.51c.87-.51,1.58-.1,1.58.9v8.45l-176.64,102Z" style="fill:#00dfbf"/><path d="M133.89,105.85a3.22,3.22,0,0,0-.46,1.56v8.44l-4-2.33v-8.44a3.24,3.24,0,0,1,.45-1.55Z" style="fill:#00dfbf"/><path d="M133.89,105.85a3.22,3.22,0,0,0-.46,1.56v8.44l-4-2.33v-8.44a3.24,3.24,0,0,1,.45-1.55Z" style="fill:#003cbf"/><path d="M302.66,13.48c0,.95.67,1.33,1.48.86a3.28,3.28,0,0,0,1.48-2.57c0-.94-.66-1.33-1.48-.85A3.29,3.29,0,0,0,302.66,13.48Z" style="fill:#fafafa"/><path d="M296.74,16.9c0,1,.66,1.33,1.48.86a3.28,3.28,0,0,0,1.48-2.57c0-.94-.66-1.33-1.48-.85A3.26,3.26,0,0,0,296.74,16.9Z" style="fill:#fafafa"/><path d="M290.82,20.32c0,.95.66,1.33,1.48.86a3.31,3.31,0,0,0,1.48-2.57c0-.94-.67-1.33-1.48-.85A3.26,3.26,0,0,0,290.82,20.32Z" style="fill:#fafafa"/><path d="M297.43,33.6,278.28,44.66a1.74,1.74,0,0,0-.79,1.37v2.45c0,.5.35.71.79.46l19.15-11.06a1.74,1.74,0,0,0,.79-1.37V34.06C298.22,33.56,297.87,33.35,297.43,33.6Z" style="fill:#fafafa"/><path d="M279.88,46.58s0,0,0-.06a.06.06,0,0,0-.06,0,.3.3,0,0,0-.12,0l-.19,0a.38.38,0,0,1-.18,0,.14.14,0,0,1-.11-.07.37.37,0,0,1-.07-.14,1.15,1.15,0,0,1,0-.2,1.13,1.13,0,0,1,0-.25,1.86,1.86,0,0,1,.1-.25,1.43,1.43,0,0,1,.16-.24,1.24,1.24,0,0,1,.22-.18.85.85,0,0,1,.22-.08.21.21,0,0,1,.16,0,.24.24,0,0,1,.11.09.42.42,0,0,1,0,.16.15.15,0,0,1,0,.09.1.1,0,0,1,0,.06l-.19.11s0,0-.05,0l-.05,0h-.06l-.11,0a.49.49,0,0,0-.13.12.2.2,0,0,0-.06.15.14.14,0,0,0,0,.07s0,0,0,0l.11,0,.17,0a.3.3,0,0,1,.32.05.5.5,0,0,1,.09.33.77.77,0,0,1,0,.25,1,1,0,0,1-.11.26,1.18,1.18,0,0,1-.17.24,1.08,1.08,0,0,1-.24.18.48.48,0,0,1-.23.09.31.31,0,0,1-.17,0,.32.32,0,0,1-.11-.12.42.42,0,0,1,0-.16.29.29,0,0,1,0-.09s0,0,.05-.05l.19-.12h.06l0,0,.07,0a.28.28,0,0,0,.12,0l.08,0,.08-.07a.22.22,0,0,0,.05-.08A.11.11,0,0,0,279.88,46.58Z" style="fill:#e1e1e1"/><path d="M280.54,45.78a2.18,2.18,0,0,1,0-.44,2.64,2.64,0,0,1,.12-.4,1.81,1.81,0,0,1,.2-.33.9.9,0,0,1,.25-.23.53.53,0,0,1,.25-.07.38.38,0,0,1,.2.1.67.67,0,0,1,.12.24,1.29,1.29,0,0,1,0,.35v.18a.24.24,0,0,1,0,.08s0,.05-.05.06l-.84.48a.33.33,0,0,0,0,.15A.11.11,0,0,0,281,46a.15.15,0,0,0,.09,0l.11,0,.13-.1a.76.76,0,0,0,.08-.11l.05-.07a.1.1,0,0,1,0,0l.2-.12a0,0,0,0,1,0,0s0,0,0,.06a.41.41,0,0,1,0,.16,1.46,1.46,0,0,1-.1.23,1.88,1.88,0,0,1-.18.24,1,1,0,0,1-.25.2.43.43,0,0,1-.25.07.28.28,0,0,1-.2-.1.7.7,0,0,1-.12-.26A1.51,1.51,0,0,1,280.54,45.78Zm.61-.94A.43.43,0,0,0,281,45a.38.38,0,0,0-.09.13.88.88,0,0,0-.05.15.79.79,0,0,0,0,.13l.57-.32s0-.08,0-.11a.13.13,0,0,0-.05-.09.08.08,0,0,0-.08,0A.27.27,0,0,0,281.15,44.84Z" style="fill:#e1e1e1"/><path d="M282.16,44.33a1.94,1.94,0,0,1,0-.2.94.94,0,0,1,.1-.23,1.88,1.88,0,0,1,.16-.23,1,1,0,0,1,.23-.18.46.46,0,0,1,.23-.08.2.2,0,0,1,.17.05.41.41,0,0,1,.12.18,1.06,1.06,0,0,1,0,.33V45.1a.29.29,0,0,1,0,.09.12.12,0,0,1-.05.05l-.19.11H283a.08.08,0,0,1,0-.06v-.13a.85.85,0,0,1-.15.28.67.67,0,0,1-.25.22.32.32,0,0,1-.19.07.2.2,0,0,1-.14,0,.28.28,0,0,1-.09-.14.73.73,0,0,1,0-.22,1,1,0,0,1,.12-.49,1.23,1.23,0,0,1,.33-.39l.4-.35q0-.15-.06-.18a.19.19,0,0,0-.17,0,.27.27,0,0,0-.1.08l-.07.11a.21.21,0,0,1,0,.07.08.08,0,0,1,0,0l-.23.13h0S282.16,44.36,282.16,44.33Zm.42.84a.44.44,0,0,0,.15-.12.57.57,0,0,0,.11-.16.67.67,0,0,0,.07-.18.52.52,0,0,0,0-.17v0l-.34.29a.94.94,0,0,0-.14.16.34.34,0,0,0-.05.17c0,.05,0,.08.05.09A.24.24,0,0,0,282.58,45.17Z" style="fill:#e1e1e1"/><path d="M284.32,43.05a.47.47,0,0,0-.21.23.76.76,0,0,0-.07.37v1a.19.19,0,0,1,0,.08.1.1,0,0,1,0,.06l-.19.11h0s0,0,0-.06V43a.12.12,0,0,1,0-.08.15.15,0,0,1,0-.06l.19-.11h0a.14.14,0,0,1,0,.06v.09a1.18,1.18,0,0,1,.14-.22.6.6,0,0,1,.19-.16l.12-.07s0,0,0,0,0,0,0,.06v.25a.15.15,0,0,1,0,.09.09.09,0,0,1,0,.06Z" style="fill:#e1e1e1"/><path d="M285.13,43v.27c0,.07,0,.14,0,.18a.29.29,0,0,0,.07.1.12.12,0,0,0,.1,0l.1,0a.39.39,0,0,0,.1-.08.3.3,0,0,0,.08-.08s0-.07.05-.1a.42.42,0,0,1,0-.1l0-.09s0-.06,0-.07l.19-.11s0,0,0,0a.08.08,0,0,1,0,.06,1.31,1.31,0,0,1,0,.22,1.24,1.24,0,0,1-.11.28,1.32,1.32,0,0,1-.19.29,1,1,0,0,1-.27.23.43.43,0,0,1-.25.07A.27.27,0,0,1,285,44a.44.44,0,0,1-.13-.21,1.33,1.33,0,0,1-.06-.3v-.31a2.38,2.38,0,0,1,.06-.37,1.4,1.4,0,0,1,.13-.36,1.53,1.53,0,0,1,.19-.3.86.86,0,0,1,.25-.22.45.45,0,0,1,.27-.08.25.25,0,0,1,.19.07.33.33,0,0,1,.11.15.74.74,0,0,1,0,.18.24.24,0,0,1,0,.08.1.1,0,0,1,0,.06l-.19.11a0,0,0,0,1,0,0l0,0,0-.06-.05,0h-.08a.26.26,0,0,0-.1,0,.28.28,0,0,0-.1.09.45.45,0,0,0-.1.13s-.05.11-.07.17Z" style="fill:#e1e1e1"/><path d="M287.66,42.56a.29.29,0,0,1,0,.09l-.05.06-.19.1a0,0,0,0,1,0,0,.08.08,0,0,1,0-.06v-1a.58.58,0,0,0-.07-.33c-.05-.06-.12-.07-.21,0a.51.51,0,0,0-.21.26,1.07,1.07,0,0,0-.08.41v1a.19.19,0,0,1,0,.08.1.1,0,0,1-.05.06l-.19.11a0,0,0,0,1,0,0s0,0,0-.06V40.74a.11.11,0,0,1,0-.08.15.15,0,0,1,0-.06l.19-.11a0,0,0,0,1,.05,0,.11.11,0,0,1,0,.06v.82a1.28,1.28,0,0,1,.15-.25.76.76,0,0,1,.21-.19.48.48,0,0,1,.26-.07.23.23,0,0,1,.16.1.67.67,0,0,1,.09.24,1.69,1.69,0,0,1,0,.33Z" style="fill:#e1e1e1"/><path d="M302.63,34.91l-.7-.67a3,3,0,0,0,.22-1.11,1.31,1.31,0,0,0-.52-1.19.82.82,0,0,0-.84,0,2.76,2.76,0,0,0-1.09,2.25,1.34,1.34,0,0,0,.52,1.2.79.79,0,0,0,.37.1,1,1,0,0,0,.47-.14,2.07,2.07,0,0,0,.62-.63l.57.54a.27.27,0,0,0,.19.08.32.32,0,0,0,.2-.08A.28.28,0,0,0,302.63,34.91Zm-1.84,0c-.12.07-.22.09-.3,0s-.24-.29-.24-.72a2.27,2.27,0,0,1,.81-1.78.45.45,0,0,1,.2-.06l.1,0a.86.86,0,0,1,.25.72A2.26,2.26,0,0,1,300.79,34.91Z" style="fill:#fafafa"/><polygon points="173.82 101.55 144.2 118.65 144.2 139.17 173.82 122.07 173.82 101.55" style="fill:none;stroke:#d1ebff;stroke-miterlimit:10;stroke-width:0.75px"/><path d="M183.5,99.38,199.69,90c.43-.25.79,0,.79.46v1.6a1.75,1.75,0,0,1-.79,1.36L183.5,102.8c-.44.26-.79,0-.79-.45v-1.6A1.76,1.76,0,0,1,183.5,99.38Z" style="fill:#ff7d61"/><path d="M207.19,85.7l16.19-9.35c.44-.25.79,0,.79.46v1.6a1.72,1.72,0,0,1-.79,1.36l-16.19,9.35c-.43.26-.79,0-.79-.45v-1.6A1.74,1.74,0,0,1,207.19,85.7Z" style="fill:#ff7d61"/><path d="M230.89,72l16.19-9.35c.43-.25.79,0,.79.46v1.6a1.75,1.75,0,0,1-.79,1.36l-16.19,9.35c-.44.25-.79,0-.79-.45v-1.6A1.74,1.74,0,0,1,230.89,72Z" style="fill:#ff7d61"/><path d="M203.44,93.27a.27.27,0,0,1-.27-.27V86.16a.27.27,0,0,1,.54,0V93A.27.27,0,0,1,203.44,93.27Z" style="fill:none;stroke:#03336e;stroke-linecap:round;stroke-linejoin:round"/><path d="M227.14,79.59a.27.27,0,0,1-.28-.27V72.48a.28.28,0,1,1,.55,0v6.84A.27.27,0,0,1,227.14,79.59Z" style="fill:none;stroke:#03336e;stroke-linecap:round;stroke-linejoin:round"/><polygon points="182.71 116.94 182.71 110.1 301.18 41.7 301.18 48.54 182.71 116.94" style="fill:none;stroke:#d1ebff;stroke-miterlimit:10;stroke-width:0.75px"/><path d="M151.61,147.67A1.66,1.66,0,0,0,151,149c0,.54.28.81.63.61a1.69,1.69,0,0,0,.63-1.34C152.24,147.74,152,147.47,151.61,147.67Z" style="fill:#00dfbf"/><path d="M153,145.93l-.5.29V146c0-.17-.08-.25-.19-.19l-1.42.82a.52.52,0,0,0-.2.42v.26l-.5.29a1.05,1.05,0,0,0-.41.86V151c0,.34.18.52.41.39l2.81-1.63a1.05,1.05,0,0,0,.41-.86v-2.55C153.42,146,153.24,145.8,153,145.93Zm-1.4,4.23c-.54.31-1-.11-1-.95a2.62,2.62,0,0,1,1-2.08c.54-.31,1,.11,1,1A2.62,2.62,0,0,1,151.61,150.16Z" style="fill:#00dfbf"/><polygon points="144.2 146.01 159.01 137.46 159.01 151.14 144.2 159.69 144.2 146.01" style="fill:none;stroke:#d1ebff;stroke-miterlimit:10;stroke-width:0.75px"/><line x1="149.14" y1="152.28" x2="144.2" y2="159.69" style="fill:none;stroke:#d1ebff;stroke-miterlimit:10;stroke-width:0.75px"/><line x1="159.01" y1="137.46" x2="154.07" y2="144.87" style="fill:none;stroke:#d1ebff;stroke-miterlimit:10;stroke-width:0.75px"/><line x1="154.37" y1="149.53" x2="159.01" y2="151.14" style="fill:none;stroke:#d1ebff;stroke-miterlimit:10;stroke-width:0.75px"/><line x1="144.2" y1="146.01" x2="148.89" y2="147.64" style="fill:none;stroke:#d1ebff;stroke-miterlimit:10;stroke-width:0.75px"/><path d="M162.29,139l8.25-4.77c.18-.1.32,0,.32.19v1a.68.68,0,0,1-.32.54l-8.25,4.77c-.18.1-.32,0-.32-.18v-1A.68.68,0,0,1,162.29,139Z" style="fill:#00dfbf"/><path d="M162.29,142.41l14.18-8.19c.17-.1.31,0,.31.19v1a.69.69,0,0,1-.31.54l-14.18,8.19c-.18.1-.32,0-.32-.18v-1A.68.68,0,0,1,162.29,142.41Z" style="fill:#fafafa"/><path d="M162.29,145.83l14.18-8.19c.17-.1.31,0,.31.19v1a.69.69,0,0,1-.31.54l-14.18,8.19c-.18.1-.32,0-.32-.18v-1A.68.68,0,0,1,162.29,145.83Z" style="fill:#fafafa"/><path d="M293.78,102.18a2.33,2.33,0,0,0-.89,1.87c0,.75.4,1.14.89.85a2.32,2.32,0,0,0,.88-1.87C294.66,102.28,294.27,101.9,293.78,102.18Z" style="fill:#c2d5ff"/><path d="M295.75,99.74l-.7.41v-.37c0-.23-.12-.35-.28-.26l-2,1.15a.73.73,0,0,0-.27.58v.37l-.7.4a1.49,1.49,0,0,0-.57,1.21v3.57c0,.48.25.72.57.54l3.94-2.27a1.51,1.51,0,0,0,.57-1.21v-3.57C296.32,99.81,296.06,99.56,295.75,99.74Zm-2,5.92c-.76.44-1.38-.16-1.38-1.32a3.61,3.61,0,0,1,1.38-2.91c.76-.44,1.37.15,1.37,1.32A3.62,3.62,0,0,1,293.78,105.66Z" style="fill:#c2d5ff"/><polygon points="283.41 99.86 304.14 87.89 304.14 107.04 283.41 119.01 283.41 99.86" style="fill:none;stroke:#d1ebff;stroke-miterlimit:10;stroke-width:0.75px"/><line x1="290.32" y1="108.63" x2="283.41" y2="119.01" style="fill:none;stroke:#d1ebff;stroke-miterlimit:10;stroke-width:0.75px"/><line x1="304.14" y1="87.89" x2="297.23" y2="98.26" style="fill:none;stroke:#d1ebff;stroke-miterlimit:10;stroke-width:0.75px"/><line x1="297.64" y1="104.79" x2="304.14" y2="107.04" style="fill:none;stroke:#d1ebff;stroke-miterlimit:10;stroke-width:0.75px"/><line x1="283.41" y1="99.86" x2="289.98" y2="102.13" style="fill:none;stroke:#d1ebff;stroke-miterlimit:10;stroke-width:0.75px"/><path d="M283.73,121.89l8.25-4.77c.18-.1.32,0,.32.18v1a.68.68,0,0,1-.32.54l-8.25,4.77c-.18.1-.32,0-.32-.18v-1A.68.68,0,0,1,283.73,121.89Z" style="fill:#00dfbf"/><path d="M283.73,125.31l20.1-11.64c.17-.1.31,0,.31.19v1a.69.69,0,0,1-.31.54L283.73,127c-.18.1-.32,0-.32-.18v-1A.68.68,0,0,1,283.73,125.31Z" style="fill:#fafafa"/><path d="M283.73,128.73l20.1-11.64c.17-.1.31,0,.31.19v1a.69.69,0,0,1-.31.54l-20.1,11.64c-.18.1-.32,0-.32-.18v-1A.68.68,0,0,1,283.73,128.73Z" style="fill:#fafafa"/><path d="M151.61,168.19a1.68,1.68,0,0,0-.63,1.34c0,.54.28.81.63.61a1.69,1.69,0,0,0,.63-1.34C152.24,168.27,152,168,151.61,168.19Z" style="fill:#00dfbf"/><path d="M153,166.45l-.5.29v-.26c0-.17-.08-.25-.19-.19l-1.42.82a.53.53,0,0,0-.2.42v.26l-.5.29a1.05,1.05,0,0,0-.41.86v2.55c0,.34.18.52.41.39l2.81-1.63a1.05,1.05,0,0,0,.41-.86v-2.55C153.42,166.5,153.24,166.32,153,166.45Zm-1.4,4.23c-.54.31-1-.11-1-1a2.62,2.62,0,0,1,1-2.08c.54-.31,1,.12,1,.95A2.6,2.6,0,0,1,151.61,170.68Z" style="fill:#00dfbf"/><polygon points="144.2 166.53 159.01 157.98 159.01 171.66 144.2 180.21 144.2 166.53" style="fill:none;stroke:#d1ebff;stroke-miterlimit:10;stroke-width:0.75px"/><line x1="149.14" y1="172.8" x2="144.2" y2="180.21" style="fill:none;stroke:#d1ebff;stroke-miterlimit:10;stroke-width:0.75px"/><line x1="159.01" y1="157.98" x2="154.07" y2="165.39" style="fill:none;stroke:#d1ebff;stroke-miterlimit:10;stroke-width:0.75px"/><line x1="154.37" y1="170.05" x2="159.01" y2="171.66" style="fill:none;stroke:#d1ebff;stroke-miterlimit:10;stroke-width:0.75px"/><line x1="144.2" y1="166.53" x2="148.89" y2="168.16" style="fill:none;stroke:#d1ebff;stroke-miterlimit:10;stroke-width:0.75px"/><path d="M162.29,159.51l8.25-4.77c.18-.1.32,0,.32.19v1a.68.68,0,0,1-.32.54l-8.25,4.77c-.18.1-.32,0-.32-.18v-1A.68.68,0,0,1,162.29,159.51Z" style="fill:#00dfbf"/><path d="M162.29,162.93l14.18-8.19c.17-.1.31,0,.31.19v1a.69.69,0,0,1-.31.54l-14.18,8.19c-.18.1-.32,0-.32-.18v-1A.68.68,0,0,1,162.29,162.93Z" style="fill:#fafafa"/><path d="M162.29,166.35l14.18-8.19c.17-.1.31,0,.31.19v1a.69.69,0,0,1-.31.54l-14.18,8.19c-.18.1-.32,0-.32-.18v-1A.68.68,0,0,1,162.29,166.35Z" style="fill:#fafafa"/><path d="M151.61,188.71a1.69,1.69,0,0,0-.63,1.34c0,.54.28.81.63.61a1.69,1.69,0,0,0,.63-1.34C152.24,188.79,152,188.51,151.61,188.71Z" style="fill:#00dfbf"/><path d="M153,187l-.5.29V187c0-.17-.08-.25-.19-.19l-1.42.82a.53.53,0,0,0-.2.42v.26l-.5.29a1.05,1.05,0,0,0-.41.86V192c0,.35.18.52.41.39l2.81-1.63a1.05,1.05,0,0,0,.41-.86v-2.55C153.42,187,153.24,186.84,153,187Zm-1.4,4.23c-.54.31-1-.11-1-.95a2.62,2.62,0,0,1,1-2.08c.54-.31,1,.12,1,1A2.6,2.6,0,0,1,151.61,191.2Z" style="fill:#00dfbf"/><polygon points="144.2 187.05 159.01 178.5 159.01 192.18 144.2 200.73 144.2 187.05" style="fill:none;stroke:#d1ebff;stroke-miterlimit:10;stroke-width:0.75px"/><line x1="149.14" y1="193.32" x2="144.2" y2="200.73" style="fill:none;stroke:#d1ebff;stroke-miterlimit:10;stroke-width:0.75px"/><line x1="159.01" y1="178.5" x2="154.07" y2="185.91" style="fill:none;stroke:#d1ebff;stroke-miterlimit:10;stroke-width:0.75px"/><line x1="154.37" y1="190.57" x2="159.01" y2="192.18" style="fill:none;stroke:#d1ebff;stroke-miterlimit:10;stroke-width:0.75px"/><line x1="144.2" y1="187.05" x2="148.89" y2="188.68" style="fill:none;stroke:#d1ebff;stroke-miterlimit:10;stroke-width:0.75px"/><path d="M162.29,180l8.25-4.77c.18-.1.32,0,.32.19v1a.68.68,0,0,1-.32.54l-8.25,4.77c-.18.1-.32,0-.32-.18v-1A.69.69,0,0,1,162.29,180Z" style="fill:#00dfbf"/><path d="M162.29,183.45l14.18-8.19c.17-.1.31,0,.31.19v1a.69.69,0,0,1-.31.54l-14.18,8.19c-.18.1-.32,0-.32-.18v-1A.69.69,0,0,1,162.29,183.45Z" style="fill:#fafafa"/><path d="M162.29,186.87l14.18-8.19c.17-.1.31,0,.31.19v1a.69.69,0,0,1-.31.54l-14.18,8.19c-.18.1-.32,0-.32-.18v-1A.69.69,0,0,1,162.29,186.87Z" style="fill:#fafafa"/><line x1="141.24" y1="164.82" x2="179.74" y2="142.59" style="fill:none;stroke:#03336e;stroke-linecap:round;stroke-linejoin:round"/><line x1="141.24" y1="185.34" x2="179.74" y2="163.11" style="fill:none;stroke:#03336e;stroke-linecap:round;stroke-linejoin:round"/><line x1="182.71" y1="123.78" x2="182.71" y2="188.76" style="fill:none;stroke:#03336e;stroke-linecap:round;stroke-linejoin:round"/><path d="M178,185.63V187c0,.33.19.4.41.17l2-2.09c.23-.23.15-.38-.17-.34l-1.7.23A.68.68,0,0,0,178,185.63Z" style="fill:#00dfbf"/><path d="M174.63,187.55v1.37a.62.62,0,0,1-.41.65l-2,.27c-.23,0-.15-.22.17-.54l1.7-1.74C174.37,187.23,174.63,187.23,174.63,187.55Z" style="fill:#00dfbf"/><path d="M144.52,204.84l14.18-8.19c.17-.1.31,0,.31.19v1a.69.69,0,0,1-.31.54l-14.18,8.19c-.18.1-.32,0-.32-.18v-1A.68.68,0,0,1,144.52,204.84Z" style="fill:#fafafa"/><path d="M215.82,130.14a3.49,3.49,0,0,0-1.32,2.8c0,1.12.59,1.7,1.32,1.27a3.48,3.48,0,0,0,1.33-2.8C217.15,130.29,216.55,129.72,215.82,130.14Z" style="fill:#c2d5ff"/><path d="M218.53,127l-1,.56V127c0-.32-.17-.48-.38-.36l-2.73,1.58a1,1,0,0,0-.38.8v.5l-1,.56a2,2,0,0,0-.79,1.65v4.9c0,.67.35,1,.79.76l5.41-3.13a2.07,2.07,0,0,0,.78-1.66v-4.9C219.31,127.05,219,126.71,218.53,127Zm-2.71,8.13c-1,.6-1.88-.22-1.88-1.82a5,5,0,0,1,1.88-4c1.05-.6,1.89.21,1.89,1.82A5,5,0,0,1,215.82,135.09Z" style="fill:#c2d5ff"/><polygon points="188.63 123.78 241.94 93 241.94 137.46 188.63 168.24 188.63 123.78" style="fill:none;stroke:#d1ebff;stroke-miterlimit:10;stroke-width:0.75px"/><line x1="221.75" y1="132.33" x2="241.94" y2="137.46" style="fill:none;stroke:#d1ebff;stroke-miterlimit:10;stroke-width:0.75px"/><line x1="188.63" y1="123.78" x2="210.5" y2="129.39" style="fill:none;stroke:#d1ebff;stroke-miterlimit:10;stroke-width:0.75px"/><line x1="209.36" y1="139.17" x2="188.63" y2="168.24" style="fill:none;stroke:#d1ebff;stroke-miterlimit:10;stroke-width:0.75px"/><line x1="241.94" y1="93" x2="221.85" y2="121.7" style="fill:none;stroke:#d1ebff;stroke-miterlimit:10;stroke-width:0.75px"/><line x1="277.49" y1="68.99" x2="277.49" y2="133.97" style="fill:none;stroke:#03336e;stroke-linecap:round;stroke-linejoin:round"/><path d="M245.7,90.83l19.15-11.06c.44-.25.79,0,.79.46v1.6a1.72,1.72,0,0,1-.79,1.36L245.7,94.25c-.44.26-.79,0-.79-.45V92.2A1.76,1.76,0,0,1,245.7,90.83Z" style="fill:#ff7d61"/><path d="M245.22,96.24l14.18-8.19c.17-.1.32,0,.32.18v1a.71.71,0,0,1-.32.55L245.22,98c-.17.1-.31,0-.31-.19v-1A.69.69,0,0,1,245.22,96.24Z" style="fill:#ff7d61"/><line x1="244.91" y1="101.55" x2="273" y2="85.33" style="fill:none;stroke:#03336e;stroke-linecap:round;stroke-linejoin:round"/><line x1="244.91" y1="103.26" x2="273" y2="87.04" style="fill:none;stroke:#03336e;stroke-linecap:round;stroke-linejoin:round"/><line x1="244.91" y1="104.97" x2="273" y2="88.75" style="fill:none;stroke:#03336e;stroke-linecap:round;stroke-linejoin:round"/><line x1="244.91" y1="106.68" x2="273" y2="90.46" style="fill:none;stroke:#03336e;stroke-linecap:round;stroke-linejoin:round"/><line x1="244.91" y1="108.39" x2="273" y2="92.17" style="fill:none;stroke:#03336e;stroke-linecap:round;stroke-linejoin:round"/><line x1="244.91" y1="110.1" x2="258.23" y2="102.4" style="fill:none;stroke:#03336e;stroke-linecap:round;stroke-linejoin:round"/><line x1="244.91" y1="113.52" x2="273" y2="97.3" style="fill:none;stroke:#03336e;stroke-linecap:round;stroke-linejoin:round"/><line x1="244.91" y1="115.23" x2="273" y2="99.01" style="fill:none;stroke:#03336e;stroke-linecap:round;stroke-linejoin:round"/><line x1="244.91" y1="116.94" x2="273" y2="100.72" style="fill:none;stroke:#03336e;stroke-linecap:round;stroke-linejoin:round"/><line x1="244.91" y1="118.65" x2="273" y2="102.43" style="fill:none;stroke:#03336e;stroke-linecap:round;stroke-linejoin:round"/><line x1="244.91" y1="120.36" x2="273" y2="104.14" style="fill:none;stroke:#03336e;stroke-linecap:round;stroke-linejoin:round"/><line x1="244.91" y1="122.07" x2="258.23" y2="114.37" style="fill:none;stroke:#03336e;stroke-linecap:round;stroke-linejoin:round"/><line x1="244.91" y1="125.49" x2="273" y2="109.27" style="fill:none;stroke:#03336e;stroke-linecap:round;stroke-linejoin:round"/><line x1="244.91" y1="127.2" x2="273" y2="110.98" style="fill:none;stroke:#03336e;stroke-linecap:round;stroke-linejoin:round"/><line x1="244.91" y1="128.91" x2="273" y2="112.69" style="fill:none;stroke:#03336e;stroke-linecap:round;stroke-linejoin:round"/><line x1="244.91" y1="130.62" x2="273" y2="114.4" style="fill:none;stroke:#03336e;stroke-linecap:round;stroke-linejoin:round"/><line x1="244.91" y1="132.33" x2="273" y2="116.11" style="fill:none;stroke:#03336e;stroke-linecap:round;stroke-linejoin:round"/><line x1="244.91" y1="134.04" x2="258.23" y2="126.35" style="fill:none;stroke:#03336e;stroke-linecap:round;stroke-linejoin:round"/><path d="M298,64.32a.58.58,0,0,0-.53.06l-10.27,5.93a1.65,1.65,0,0,0-.53.55l5.67,2.08Z" style="fill:#00dfbf"/><path d="M298.22,64.84a.56.56,0,0,0-.23-.51l-5.69,9.86-5.7-3.29a1.66,1.66,0,0,0-.23.78v8.44c0,.5.36.7.79.45l10.27-5.93a1.72,1.72,0,0,0,.79-1.36Z" style="fill:#00dfbf"/><path d="M284.08,68.85a.19.19,0,0,1-.16-.09.18.18,0,0,1,.07-.25l.47-.27a.18.18,0,0,1,.18.32l-.47.27A.15.15,0,0,1,284.08,68.85Z" style="fill:#00dfbf"/><path d="M285.46,68.06a.18.18,0,0,1-.15-.1.18.18,0,0,1,.06-.24l.91-.53a.18.18,0,0,1,.25.07.18.18,0,0,1-.07.25l-.91.52A.14.14,0,0,1,285.46,68.06ZM287.28,67a.16.16,0,0,1-.15-.09.19.19,0,0,1,.06-.25l.91-.52a.18.18,0,0,1,.25.07.18.18,0,0,1-.06.24l-.92.53A.13.13,0,0,1,287.28,67Zm1.82-1a.16.16,0,0,1-.15-.09.19.19,0,0,1,.06-.25l.91-.52a.18.18,0,0,1,.19.31l-.91.53A.16.16,0,0,1,289.1,66Zm1.82-1a.16.16,0,0,1-.15-.09.19.19,0,0,1,.06-.25l.91-.52a.18.18,0,1,1,.19.31l-.91.53Zm1.83-1.05a.17.17,0,0,1-.16-.09.19.19,0,0,1,.06-.25l.91-.52a.18.18,0,0,1,.25.06.19.19,0,0,1-.06.25l-.91.53Zm1.82-1.05a.17.17,0,0,1-.16-.09.19.19,0,0,1,.06-.25l.91-.52a.17.17,0,0,1,.25.06.19.19,0,0,1-.06.25l-.91.53Zm1.82-1a.17.17,0,0,1-.16-.09.19.19,0,0,1,.06-.25l.91-.53a.18.18,0,0,1,.25.07.19.19,0,0,1-.06.25l-.91.53Zm1.82-1a.17.17,0,0,1-.16-.09.19.19,0,0,1,.06-.25l.91-.53a.18.18,0,0,1,.25.07.19.19,0,0,1-.06.25l-.91.52A.16.16,0,0,1,298.21,60.7Z" style="fill:#00dfbf"/><path d="M300,59.65a.17.17,0,0,1-.16-.09.18.18,0,0,1,.07-.25l.47-.28a.18.18,0,0,1,.25.07.18.18,0,0,1-.07.25l-.47.27A.16.16,0,0,1,300,59.65Z" style="fill:#00dfbf"/><path d="M283.41,85.57a.18.18,0,0,1-.18-.18v-.55a.18.18,0,0,1,.36,0v.55A.18.18,0,0,1,283.41,85.57Z" style="fill:#00dfbf"/><path d="M283.41,83.91a.18.18,0,0,1-.18-.18V82.62a.18.18,0,1,1,.36,0v1.11A.18.18,0,0,1,283.41,83.91Zm0-2.22a.19.19,0,0,1-.18-.19V80.39a.18.18,0,0,1,.36,0V81.5A.19.19,0,0,1,283.41,81.69Zm0-2.23a.18.18,0,0,1-.18-.18V78.17a.18.18,0,1,1,.36,0v1.11A.18.18,0,0,1,283.41,79.46Zm0-2.22a.19.19,0,0,1-.18-.19V75.94a.18.18,0,1,1,.36,0v1.11A.19.19,0,0,1,283.41,77.24Zm0-2.23a.18.18,0,0,1-.18-.18V73.72a.18.18,0,1,1,.36,0v1.11A.18.18,0,0,1,283.41,75Zm0-2.23a.18.18,0,0,1-.18-.18V71.49a.18.18,0,1,1,.36,0V72.6A.18.18,0,0,1,283.41,72.78Z" style="fill:#00dfbf"/><path d="M283.41,70.56a.18.18,0,0,1-.18-.18v-.55a.18.18,0,1,1,.36,0v.55A.18.18,0,0,1,283.41,70.56Z" style="fill:#00dfbf"/><path d="M300,76.74a.19.19,0,0,1-.16-.09.18.18,0,0,1,.07-.25l.47-.27a.19.19,0,0,1,.25.06.18.18,0,0,1-.07.25l-.47.28Z" style="fill:#00dfbf"/><path d="M285.46,85.16a.18.18,0,0,1-.09-.34l.91-.53a.18.18,0,0,1,.25.07.19.19,0,0,1-.06.25l-.91.52A.17.17,0,0,1,285.46,85.16Zm1.83-1.06a.17.17,0,0,1-.16-.09.18.18,0,0,1,.07-.25l.91-.52a.18.18,0,1,1,.18.31l-.91.53A.15.15,0,0,1,287.29,84.1Zm1.82-1a.18.18,0,0,1-.09-.34l.91-.52a.19.19,0,0,1,.25.06.18.18,0,0,1-.07.25l-.91.53Zm1.82-1a.19.19,0,0,1-.16-.09.18.18,0,0,1,.07-.25l.91-.53a.18.18,0,0,1,.18.32L291,82Zm1.82-1a.19.19,0,0,1-.16-.09.18.18,0,0,1,.07-.25l.91-.53a.18.18,0,0,1,.18.32l-.91.52A.16.16,0,0,1,292.75,81Zm1.82-1a.18.18,0,0,1-.09-.34l.91-.53a.18.18,0,0,1,.25.07.19.19,0,0,1-.06.25l-.92.52A.14.14,0,0,1,294.57,79.9Zm1.83-1.06a.17.17,0,0,1-.16-.09.19.19,0,0,1,.06-.25l.92-.52a.17.17,0,0,1,.24.07.18.18,0,0,1-.06.24l-.91.53A.15.15,0,0,1,296.4,78.84Zm1.82-1a.18.18,0,0,1-.09-.34l.91-.52a.19.19,0,0,1,.25.06.18.18,0,0,1-.07.25l-.91.53Z" style="fill:#00dfbf"/><path d="M284.08,86a.2.2,0,0,1-.16-.1.17.17,0,0,1,.07-.24l.47-.28a.18.18,0,1,1,.18.32l-.47.27A.16.16,0,0,1,284.08,86Z" style="fill:#00dfbf"/><path d="M301.18,60.3a.18.18,0,0,1-.18-.18v-.55a.18.18,0,1,1,.36,0v.55A.18.18,0,0,1,301.18,60.3Z" style="fill:#00dfbf"/><path d="M301.18,73.65a.18.18,0,0,1-.18-.18V72.35a.18.18,0,0,1,.36,0v1.12A.18.18,0,0,1,301.18,73.65Zm0-2.23a.18.18,0,0,1-.18-.18V70.13a.18.18,0,0,1,.36,0v1.11A.18.18,0,0,1,301.18,71.42Zm0-2.22A.18.18,0,0,1,301,69V67.9a.18.18,0,1,1,.36,0V69A.18.18,0,0,1,301.18,69.2Zm0-2.23a.18.18,0,0,1-.18-.18V65.68a.18.18,0,1,1,.36,0v1.11A.18.18,0,0,1,301.18,67Zm0-2.22a.18.18,0,0,1-.18-.18V63.45a.18.18,0,1,1,.36,0v1.12A.18.18,0,0,1,301.18,64.75Zm0-2.23a.18.18,0,0,1-.18-.18V61.23a.18.18,0,1,1,.36,0v1.11A.18.18,0,0,1,301.18,62.52Z" style="fill:#00dfbf"/><path d="M301.18,75.31a.18.18,0,0,1-.18-.18v-.55a.18.18,0,0,1,.36,0v.55A.18.18,0,0,1,301.18,75.31Z" style="fill:#00dfbf"/><path d="M300.51,60.14a.16.16,0,0,1-.09,0,.19.19,0,0,1-.09-.15V58.41a.22.22,0,0,1,.09-.16l1.34-.77a.19.19,0,0,1,.18,0,.17.17,0,0,1,.09.16v1.54a.17.17,0,0,1-.09.16l-1.34.77A.12.12,0,0,1,300.51,60.14Zm.19-1.62v1.12l1-.56V58Z" style="fill:#00dfbf"/><path d="M300.51,77.24a.16.16,0,0,1-.09,0,.19.19,0,0,1-.09-.15V75.51a.22.22,0,0,1,.09-.16l1.34-.77a.18.18,0,0,1,.27.16v1.54a.17.17,0,0,1-.09.16l-1.34.77A.12.12,0,0,1,300.51,77.24Zm.19-1.62v1.12l1-.56V75.06Z" style="fill:#00dfbf"/><path d="M282.74,70.4a.16.16,0,0,1-.09,0,.16.16,0,0,1-.09-.15V68.67a.19.19,0,0,1,.09-.16l1.34-.77a.19.19,0,0,1,.18,0,.18.18,0,0,1,.09.16v1.54a.17.17,0,0,1-.09.16l-1.34.77A.16.16,0,0,1,282.74,70.4Zm.18-1.62V69.9l1-.56V68.22Z" style="fill:#00dfbf"/><path d="M282.74,87.5l-.09,0a.19.19,0,0,1-.09-.16V85.77a.16.16,0,0,1,.09-.15l1.34-.78a.18.18,0,0,1,.27.16v1.55a.16.16,0,0,1-.09.15l-1.34.78Zm.18-1.62V87l1-.56V85.32Z" style="fill:#00dfbf"/><path d="M301.86,68a1.61,1.61,0,0,1-.68,1.28c-.37.22-.67,0-.67-.51a1.6,1.6,0,0,1,.67-1.28C301.55,67.28,301.86,67.51,301.86,68Z" style="fill:#00dfbf"/><path d="M293,63.54a1.62,1.62,0,0,1-.67,1.29c-.37.21-.67,0-.67-.51a1.62,1.62,0,0,1,.67-1.29C292.66,62.82,293,63,293,63.54Z" style="fill:#00dfbf"/><path d="M293,80.64a1.62,1.62,0,0,1-.67,1.29c-.37.21-.67,0-.67-.51a1.62,1.62,0,0,1,.67-1.29C292.66,79.92,293,80.14,293,80.64Z" style="fill:#00dfbf"/><path d="M284.08,78.3a1.62,1.62,0,0,1-.67,1.29c-.37.21-.67,0-.67-.51a1.61,1.61,0,0,1,.67-1.29C283.78,77.58,284.08,77.8,284.08,78.3Z" style="fill:#00dfbf"/><path d="M281.24,90.83l22.11-12.77c.44-.25.79,0,.79.46v1.6a1.72,1.72,0,0,1-.79,1.36L281.24,94.25c-.44.26-.79,0-.79-.45V92.2A1.76,1.76,0,0,1,281.24,90.83Z" style="fill:#fafafa"/><path d="M193.17,172.46l11.65-6.73c.88-.5,1.58-.09,1.58.91v3.2a3.45,3.45,0,0,1-1.58,2.73l-11.65,6.73c-.87.5-1.58.1-1.58-.91v-3.2A3.49,3.49,0,0,1,193.17,172.46Z" style="fill:none;stroke:#fafafa;stroke-miterlimit:10;stroke-width:0.5px"/><path d="M194.47,173.53l1.38-.8c.44-.25.79,0,.79.46v1.59a1.73,1.73,0,0,1-.79,1.37l-1.38.8c-.44.25-.79.05-.79-.46V174.9A1.73,1.73,0,0,1,194.47,173.53Z" style="fill:none;stroke:#fafafa;stroke-miterlimit:10;stroke-width:0.5px"/><path d="M198.44,172.18l5.69-3.28c.18-.11.32,0,.32.18v.71a.68.68,0,0,1-.32.54l-5.69,3.28c-.18.1-.32,0-.32-.18v-.71A.68.68,0,0,1,198.44,172.18Z" style="fill:#fafafa"/><path d="M214,160.46l11.66-6.73c.87-.5,1.57-.1,1.57.91v3.19a3.49,3.49,0,0,1-1.57,2.74L214,167.3c-.87.5-1.58.09-1.58-.92v-3.19A3.48,3.48,0,0,1,214,160.46Z" style="fill:none;stroke:#fafafa;stroke-miterlimit:10;stroke-width:0.5px"/><path d="M215.26,161.53l1.38-.8c.44-.25.79,0,.79.45v1.6a1.74,1.74,0,0,1-.79,1.37l-1.38.8c-.44.25-.79,0-.79-.46v-1.6A1.72,1.72,0,0,1,215.26,161.53Z" style="fill:none;stroke:#fafafa;stroke-miterlimit:10;stroke-width:0.5px"/><path d="M219.23,160.17l5.69-3.28c.18-.1.32,0,.32.18v.71a.69.69,0,0,1-.32.55l-5.69,3.28c-.17.1-.32,0-.32-.18v-.71A.72.72,0,0,1,219.23,160.17Z" style="fill:#fafafa"/><path d="M234.76,148.45l11.65-6.73c.87-.5,1.58-.09,1.58.92v3.19a3.48,3.48,0,0,1-1.58,2.73l-11.65,6.73c-.88.5-1.58.1-1.58-.91v-3.19A3.47,3.47,0,0,1,234.76,148.45Z" style="fill:none;stroke:#d1ebff;stroke-miterlimit:10;stroke-width:0.75px"/><path d="M236.05,149.52l1.39-.8c.43-.25.79-.05.79.46v1.6a1.75,1.75,0,0,1-.79,1.36l-1.39.8c-.43.25-.79.05-.79-.45v-1.6A1.75,1.75,0,0,1,236.05,149.52Z" style="fill:none;stroke:#d1ebff;stroke-miterlimit:10;stroke-width:0.75px"/><path d="M240,148.17l5.7-3.28c.17-.1.31,0,.31.18v.71a.69.69,0,0,1-.31.54L240,149.6c-.17.11-.31,0-.31-.18v-.71A.69.69,0,0,1,240,148.17Z" style="fill:#00dfbf"/><path d="M255.55,136.45l11.65-6.73c.87-.5,1.58-.1,1.58.91v3.2a3.49,3.49,0,0,1-1.58,2.73l-11.65,6.73c-.87.5-1.58.09-1.58-.91v-3.2A3.48,3.48,0,0,1,255.55,136.45Z" style="fill:none;stroke:#fafafa;stroke-miterlimit:10;stroke-width:0.5px"/><path d="M256.85,137.52l1.38-.8c.43-.25.79-.05.79.45v1.6a1.77,1.77,0,0,1-.79,1.37l-1.38.8c-.44.25-.79,0-.79-.46v-1.6A1.72,1.72,0,0,1,256.85,137.52Z" style="fill:none;stroke:#fafafa;stroke-miterlimit:10;stroke-width:0.5px"/><path d="M260.81,136.16l5.7-3.28c.17-.1.32,0,.32.18v.71a.72.72,0,0,1-.32.55l-5.7,3.28c-.17.1-.31,0-.31-.18v-.71A.71.71,0,0,1,260.81,136.16Z" style="fill:#fafafa"/><polygon points="144.2 216.12 182.71 193.89 182.71 241.77 144.2 264 144.2 216.12" style="fill:none;stroke:#d1ebff;stroke-miterlimit:10;stroke-width:0.75px"/><polygon points="147.16 217.83 179.75 199.02 179.75 222.96 147.16 241.77 147.16 217.83" style="fill:none;stroke:#d1ebff;stroke-miterlimit:10;stroke-width:0.75px"/><path d="M147.48,245l8.25-4.76c.18-.1.32,0,.32.18v1a.69.69,0,0,1-.32.55l-8.25,4.76c-.17.1-.32,0-.32-.18v-1A.72.72,0,0,1,147.48,245Z" style="fill:#00dfbf"/><path d="M147.48,248.43l26.12-15.08c.18-.1.32,0,.32.18v1a.71.71,0,0,1-.31.55l-26.13,15.08c-.17.1-.32,0-.32-.18v-1A.72.72,0,0,1,147.48,248.43Z" style="fill:#fafafa"/><path d="M147.48,255.27l26.12-15.08c.18-.1.32,0,.32.18v1a.71.71,0,0,1-.31.55L147.48,257c-.17.1-.32,0-.32-.18v-1A.72.72,0,0,1,147.48,255.27Z" style="fill:#fafafa"/><path d="M147.48,251.85l26.12-15.08c.18-.1.32,0,.32.18v1a.71.71,0,0,1-.31.55l-26.13,15.08c-.17.1-.32,0-.32-.18v-1A.72.72,0,0,1,147.48,251.85Z" style="fill:#fafafa"/><line x1="168.41" y1="221.18" x2="179.75" y2="222.96" style="fill:none;stroke:#d1ebff;stroke-miterlimit:10;stroke-width:0.75px"/><line x1="147.16" y1="217.83" x2="158.51" y2="219.62" style="fill:none;stroke:#d1ebff;stroke-miterlimit:10;stroke-width:0.75px"/><line x1="158.5" y1="226.9" x2="147.16" y2="241.77" style="fill:none;stroke:#d1ebff;stroke-miterlimit:10;stroke-width:0.75px"/><line x1="179.74" y1="199.02" x2="168.39" y2="213.92" style="fill:none;stroke:#d1ebff;stroke-miterlimit:10;stroke-width:0.75px"/><path d="M163.45,218.69a3.17,3.17,0,0,0-1.19,2.52c0,1,.54,1.53,1.19,1.15a3.14,3.14,0,0,0,1.2-2.52C164.65,218.82,164.11,218.31,163.45,218.69Z" style="fill:#c2d5ff"/><path d="M166,215.59l-.92.53v-.48c0-.3-.15-.46-.35-.34l-2.59,1.49a.93.93,0,0,0-.36.76V218l-.91.53a2,2,0,0,0-.74,1.56v4.64c0,.63.34.95.74.71l5.13-3a2,2,0,0,0,.74-1.56V216.3C166.76,215.67,166.42,215.35,166,215.59Zm-2.57,7.68c-1,.57-1.78-.2-1.78-1.71a4.74,4.74,0,0,1,1.78-3.79c1-.56,1.79.21,1.79,1.72A4.69,4.69,0,0,1,163.45,223.27Z" style="fill:#c2d5ff"/><polygon points="191.59 188.76 230.1 166.53 230.1 214.41 191.59 236.64 191.59 188.76" style="fill:none;stroke:#d1ebff;stroke-miterlimit:10;stroke-width:0.75px"/><polygon points="194.55 190.47 227.13 171.66 227.13 195.6 194.56 214.41 194.55 190.47" style="fill:none;stroke:#d1ebff;stroke-miterlimit:10;stroke-width:0.75px"/><path d="M194.87,217.65l8.25-4.76c.18-.11.32,0,.32.18v1a.69.69,0,0,1-.32.55l-8.25,4.76c-.17.1-.32,0-.32-.18v-1A.72.72,0,0,1,194.87,217.65Z" style="fill:#00dfbf"/><path d="M194.87,221.07,221,206c.17-.1.31,0,.31.18v1a.71.71,0,0,1-.31.55l-26.13,15.08c-.17.1-.32,0-.32-.18v-1A.72.72,0,0,1,194.87,221.07Z" style="fill:#fafafa"/><path d="M194.87,227.91,221,212.83c.17-.1.31,0,.31.18v1a.71.71,0,0,1-.31.55l-26.13,15.08c-.17.1-.32,0-.32-.18v-1A.72.72,0,0,1,194.87,227.91Z" style="fill:#fafafa"/><path d="M194.87,224.49,221,209.41c.17-.1.31,0,.31.18v1a.71.71,0,0,1-.31.55L194.87,226.2c-.17.1-.32,0-.32-.18v-1A.72.72,0,0,1,194.87,224.49Z" style="fill:#fafafa"/><line x1="215.8" y1="193.82" x2="227.14" y2="195.6" style="fill:none;stroke:#d1ebff;stroke-miterlimit:10;stroke-width:0.75px"/><line x1="194.55" y1="190.47" x2="205.9" y2="192.26" style="fill:none;stroke:#d1ebff;stroke-miterlimit:10;stroke-width:0.75px"/><line x1="205.89" y1="199.54" x2="194.55" y2="214.41" style="fill:none;stroke:#d1ebff;stroke-miterlimit:10;stroke-width:0.75px"/><line x1="227.14" y1="171.66" x2="215.78" y2="186.56" style="fill:none;stroke:#d1ebff;stroke-miterlimit:10;stroke-width:0.75px"/><path d="M210.85,191.33a3.14,3.14,0,0,0-1.2,2.52c0,1,.54,1.53,1.2,1.15a3.17,3.17,0,0,0,1.19-2.52C212,191.46,211.5,191,210.85,191.33Z" style="fill:#c2d5ff"/><path d="M213.41,188.23l-.91.52v-.47c0-.3-.16-.46-.36-.34l-2.59,1.49a.93.93,0,0,0-.36.76v.47l-.91.53a2,2,0,0,0-.74,1.56v4.64c0,.63.34.94.74.71l5.13-3a2,2,0,0,0,.74-1.56v-4.64C214.15,188.31,213.81,188,213.41,188.23Zm-2.56,7.68c-1,.57-1.79-.2-1.79-1.72a4.72,4.72,0,0,1,1.79-3.78c1-.56,1.78.21,1.78,1.72A4.72,4.72,0,0,1,210.85,195.91Z" style="fill:#c2d5ff"/><polygon points="238.98 161.4 277.49 139.17 277.49 187.05 238.98 209.28 238.98 161.4" style="fill:none;stroke:#d1ebff;stroke-miterlimit:10;stroke-width:0.75px"/><polygon points="241.94 163.11 274.53 144.3 274.53 168.24 241.94 187.05 241.94 163.11" style="fill:none;stroke:#d1ebff;stroke-miterlimit:10;stroke-width:0.75px"/><path d="M242.26,190.29l8.25-4.77c.18-.1.32,0,.32.19v1a.68.68,0,0,1-.32.54L242.26,192c-.17.1-.32,0-.32-.18v-1A.72.72,0,0,1,242.26,190.29Z" style="fill:#00dfbf"/><path d="M242.26,193.71l26.13-15.08c.17-.1.31,0,.31.18v1a.71.71,0,0,1-.31.55l-26.13,15.08c-.17.1-.32,0-.32-.18v-1A.72.72,0,0,1,242.26,193.71Z" style="fill:#fafafa"/><path d="M242.26,200.55l26.13-15.08c.17-.1.31,0,.31.18v1a.71.71,0,0,1-.31.55l-26.13,15.08c-.17.1-.32,0-.32-.18v-1A.72.72,0,0,1,242.26,200.55Z" style="fill:#fafafa"/><path d="M242.26,197.13l26.13-15.08c.17-.1.31,0,.31.18v1a.71.71,0,0,1-.31.55l-26.13,15.08c-.17.1-.32,0-.32-.18v-1A.72.72,0,0,1,242.26,197.13Z" style="fill:#fafafa"/><path d="M258.24,160.55a9.8,9.8,0,0,0-4.45,7.69c0,2.84,2,4,4.45,2.57a9.83,9.83,0,0,0,4.44-7.7C262.68,160.28,260.69,159.13,258.24,160.55Zm2.32,4.15-3.32,4c-.32.38-.58.29-.58-.22v-3.71a.87.87,0,0,1,.91-.88l2.66.11C260.74,164,260.88,164.32,260.56,164.7Z" style="fill:#00dfbf"/><path d="M289.34,138.37v5a1.77,1.77,0,0,1-.79,1.37l-4.35,2.51c-.44.25-.79,0-.79-.46v-5a1.72,1.72,0,0,1,.79-1.36l4.35-2.51C289,137.66,289.34,137.87,289.34,138.37Z" style="fill:#00dfbf"/><path d="M292.61,137.29l7.07-4.09c.17-.1.31,0,.31.18v1a.71.71,0,0,1-.31.55L292.61,139c-.17.1-.31,0-.31-.18v-1A.71.71,0,0,1,292.61,137.29Z" style="fill:#00dfbf"/><path d="M292.61,140.71l11.22-6.49c.17-.1.31,0,.31.19v1a.73.73,0,0,1-.31.55l-11.22,6.48c-.17.1-.31,0-.31-.18v-1A.71.71,0,0,1,292.61,140.71Z" style="fill:#fafafa"/><path d="M289.34,150.33v5a1.75,1.75,0,0,1-.79,1.37l-4.35,2.51c-.44.25-.79.05-.79-.46v-5a1.73,1.73,0,0,1,.79-1.37l4.35-2.51C289,149.62,289.34,149.82,289.34,150.33Z" style="fill:#00dfbf"/><path d="M292.61,149.25l7.07-4.1c.17-.1.31,0,.31.18v1a.69.69,0,0,1-.31.54l-7.07,4.1c-.17.1-.31,0-.31-.19v-1A.69.69,0,0,1,292.61,149.25Z" style="fill:#00dfbf"/><path d="M292.61,152.67l11.22-6.49c.17-.1.31,0,.31.18v1a.71.71,0,0,1-.31.55l-11.22,6.49c-.17.1-.31,0-.31-.19v-1A.69.69,0,0,1,292.61,152.67Z" style="fill:#fafafa"/><path d="M289.34,162.28v5a1.75,1.75,0,0,1-.79,1.36l-4.35,2.51c-.44.25-.79.05-.79-.45v-5a1.73,1.73,0,0,1,.79-1.37l4.35-2.51C289,161.57,289.34,161.77,289.34,162.28Z" style="fill:#00dfbf"/><path d="M292.61,161.2l7.07-4.09c.17-.11.31,0,.31.18v1a.73.73,0,0,1-.31.55l-7.07,4.09c-.17.1-.31,0-.31-.18v-1A.7.7,0,0,1,292.61,161.2Z" style="fill:#00dfbf"/><path d="M292.61,164.62l11.22-6.49c.17-.1.31,0,.31.18v1a.7.7,0,0,1-.31.55l-11.22,6.49c-.17.1-.31,0-.31-.18v-1A.7.7,0,0,1,292.61,164.62Z" style="fill:#fafafa"/><path d="M95.43,150.61l23.5-13.56a3.51,3.51,0,0,0,1.58-2.74V114c0-1-.71-1.42-1.58-.91l-23.5,13.56a3.51,3.51,0,0,0-1.58,2.74V149.7C93.85,150.71,94.56,151.12,95.43,150.61Z" style="fill:#fafafa;stroke:#e1e1e1;stroke-miterlimit:10"/><path d="M97.6,128.06l7.31-4.22c.43-.25.79,0,.79.46v8.44a1.75,1.75,0,0,1-.79,1.36l-7.31,4.22c-.44.25-.79.05-.79-.45v-8.44A1.74,1.74,0,0,1,97.6,128.06Z" style="fill:#00dfbf"/><path d="M109,121.49l8.26-4.76c.17-.1.31,0,.31.18V118a.73.73,0,0,1-.31.55L109,123.33c-.17.1-.31,0-.31-.18V122A.73.73,0,0,1,109,121.49Z" style="fill:#00dfbf"/><path d="M109,125.71l8.26-4.77c.17-.1.31,0,.31.18v1.11a.71.71,0,0,1-.31.55L109,127.54c-.17.1-.31,0-.31-.18v-1.11A.69.69,0,0,1,109,125.71Z" style="fill:#00dfbf"/><path d="M109,129.92l8.26-4.77c.17-.1.31,0,.31.19v1.1a.71.71,0,0,1-.31.55L109,131.75c-.17.11-.31,0-.31-.18v-1.1A.7.7,0,0,1,109,129.92Z" style="fill:#00dfbf"/><path d="M97.13,140.94l20.1-11.57c.17-.11.31,0,.31.18v1.1a.7.7,0,0,1-.31.55l-20.1,11.58c-.18.1-.32,0-.32-.18v-1.11A.69.69,0,0,1,97.13,140.94Z" style="fill:#00dfbf"/><path d="M97.13,145.16l20.1-11.58c.17-.1.31,0,.31.18v1.11a.69.69,0,0,1-.31.54L97.13,147c-.18.1-.32,0-.32-.18V145.7A.68.68,0,0,1,97.13,145.16Z" style="fill:#00dfbf"/><path d="M92.41,125.22a.29.29,0,0,1-.24-.13.29.29,0,0,1,.1-.38l.79-.45a.27.27,0,1,1,.28.47l-.79.46A.35.35,0,0,1,92.41,125.22Z" style="fill:#00dfbf"/><path d="M94.86,123.81a.29.29,0,0,1-.24-.14.27.27,0,0,1,.1-.37l1.67-1a.27.27,0,0,1,.27.47l-1.66,1A.23.23,0,0,1,94.86,123.81Zm3.32-1.92a.27.27,0,0,1-.13-.51l1.66-1a.27.27,0,1,1,.27.47l-1.66,1A.23.23,0,0,1,98.18,121.89Zm3.33-1.92a.27.27,0,0,1-.14-.51l1.66-1a.27.27,0,0,1,.37.1.26.26,0,0,1-.1.37l-1.66,1A.22.22,0,0,1,101.51,120Zm3.32-1.92a.28.28,0,0,1-.24-.13.29.29,0,0,1,.1-.38l1.66-1a.28.28,0,1,1,.28.48L105,118A.35.35,0,0,1,104.83,118.05Zm3.32-1.92a.29.29,0,0,1-.24-.13.29.29,0,0,1,.1-.38l1.67-1a.28.28,0,0,1,.37.1.29.29,0,0,1-.1.38l-1.66,1A.35.35,0,0,1,108.15,116.13Zm3.32-1.91a.27.27,0,0,1-.13-.51l1.66-1a.27.27,0,0,1,.27.47l-1.66,1A.33.33,0,0,1,111.47,114.22Zm3.33-1.92a.27.27,0,0,1-.24-.14.27.27,0,0,1,.1-.37l1.66-1a.27.27,0,1,1,.27.47l-1.66,1A.22.22,0,0,1,114.8,112.3Zm3.32-1.92a.27.27,0,0,1-.24-.14.27.27,0,0,1,.1-.37l1.66-1a.28.28,0,0,1,.38.1.27.27,0,0,1-.1.37l-1.66,1A.27.27,0,0,1,118.12,110.38Z" style="fill:#00dfbf"/><path d="M121.44,108.46a.28.28,0,0,1-.24-.14.28.28,0,0,1,.1-.37l.79-.45a.27.27,0,0,1,.38.1.28.28,0,0,1-.1.37l-.79.45A.25.25,0,0,1,121.44,108.46Z" style="fill:#00dfbf"/><path d="M91.2,155.36a.28.28,0,0,1-.28-.27v-.91a.28.28,0,0,1,.28-.27.27.27,0,0,1,.27.27v.91A.27.27,0,0,1,91.2,155.36Z" style="fill:#00dfbf"/><path d="M91.2,152.7a.28.28,0,0,1-.28-.27v-1.75a.28.28,0,0,1,.28-.27.27.27,0,0,1,.27.27v1.75A.27.27,0,0,1,91.2,152.7Zm0-3.49a.28.28,0,0,1-.28-.27v-1.75a.29.29,0,0,1,.28-.28.28.28,0,0,1,.27.28v1.75A.27.27,0,0,1,91.2,149.21Zm0-3.5a.28.28,0,0,1-.28-.27v-1.75a.28.28,0,0,1,.28-.27.27.27,0,0,1,.27.27v1.75A.27.27,0,0,1,91.2,145.71Zm0-3.49a.28.28,0,0,1-.28-.27V140.2a.28.28,0,1,1,.55,0V142A.27.27,0,0,1,91.2,142.22Zm0-3.5a.27.27,0,0,1-.28-.27V136.7a.28.28,0,0,1,.55,0v1.75A.27.27,0,0,1,91.2,138.72Zm0-3.49a.27.27,0,0,1-.28-.28v-1.74a.28.28,0,1,1,.55,0V135A.27.27,0,0,1,91.2,135.23Zm0-3.5a.27.27,0,0,1-.28-.27v-1.75a.28.28,0,0,1,.55,0v1.75A.27.27,0,0,1,91.2,131.73Z" style="fill:#00dfbf"/><path d="M91.2,128.24a.28.28,0,0,1-.28-.28v-.91a.28.28,0,0,1,.55,0V128A.28.28,0,0,1,91.2,128.24Z" style="fill:#00dfbf"/><path d="M121.46,139.29a.27.27,0,0,1-.13-.51l.79-.46a.28.28,0,0,1,.27.48l-.79.45A.23.23,0,0,1,121.46,139.29Z" style="fill:#00dfbf"/><path d="M94.86,154.65a.27.27,0,0,1-.23-.14.26.26,0,0,1,.1-.37l1.66-1a.27.27,0,0,1,.37.1.27.27,0,0,1-.1.37l-1.66,1A.23.23,0,0,1,94.86,154.65Zm3.33-1.92a.27.27,0,0,1-.24-.14.27.27,0,0,1,.1-.37l1.66-1a.29.29,0,0,1,.38.1.27.27,0,0,1-.1.37l-1.67,1A.22.22,0,0,1,98.19,152.73Zm3.32-1.92a.27.27,0,0,1-.23-.14.26.26,0,0,1,.1-.37l1.66-1a.27.27,0,0,1,.37.1.27.27,0,0,1-.1.37l-1.66,1A.23.23,0,0,1,101.51,150.81Zm3.33-1.92a.27.27,0,0,1-.24-.14.27.27,0,0,1,.1-.37l1.66-1a.28.28,0,0,1,.38.1.27.27,0,0,1-.1.37l-1.67,1A.2.2,0,0,1,104.84,148.89Zm3.32-1.92a.27.27,0,0,1-.13-.51l1.66-1a.27.27,0,0,1,.27.47l-1.66,1A.23.23,0,0,1,108.16,147Zm3.33-1.92a.27.27,0,0,1-.24-.14.27.27,0,0,1,.1-.37l1.66-1a.28.28,0,0,1,.38.1.27.27,0,0,1-.1.37l-1.66,1A.25.25,0,0,1,111.49,145.05Zm3.32-1.92a.27.27,0,0,1-.13-.51l1.66-1a.27.27,0,0,1,.27.47l-1.66,1A.23.23,0,0,1,114.81,143.13Zm3.33-1.92a.27.27,0,0,1-.24-.14.27.27,0,0,1,.1-.37l1.66-1a.28.28,0,0,1,.38.1.27.27,0,0,1-.1.37l-1.66,1A.25.25,0,0,1,118.14,141.21Z" style="fill:#00dfbf"/><path d="M92.41,156.06a.27.27,0,0,1-.24-.13.29.29,0,0,1,.1-.38l.79-.45a.29.29,0,0,1,.38.1.27.27,0,0,1-.1.37l-.79.46A.35.35,0,0,1,92.41,156.06Z" style="fill:#00dfbf"/><path d="M123.47,109.6a.28.28,0,0,1-.28-.27v-.91a.28.28,0,0,1,.28-.27.27.27,0,0,1,.27.27v.91A.27.27,0,0,1,123.47,109.6Z" style="fill:#00dfbf"/><path d="M123.47,134.07a.27.27,0,0,1-.27-.27v-1.75a.27.27,0,0,1,.54,0v1.75A.27.27,0,0,1,123.47,134.07Zm0-3.49a.28.28,0,0,1-.27-.28v-1.75a.27.27,0,0,1,.54,0v1.75A.28.28,0,0,1,123.47,130.58Zm0-3.5a.27.27,0,0,1-.27-.27v-1.75a.27.27,0,0,1,.54,0v1.75A.27.27,0,0,1,123.47,127.08Zm0-3.49a.28.28,0,0,1-.27-.28v-1.75a.28.28,0,0,1,.28-.27.27.27,0,0,1,.27.27v1.75A.28.28,0,0,1,123.47,123.59Zm0-3.5a.28.28,0,0,1-.28-.27v-1.75a.28.28,0,0,1,.28-.27.27.27,0,0,1,.27.27v1.75A.27.27,0,0,1,123.47,120.09Zm0-3.5a.28.28,0,0,1-.28-.27v-1.75a.28.28,0,0,1,.28-.27.27.27,0,0,1,.27.27v1.75A.27.27,0,0,1,123.47,116.59Zm0-3.49a.28.28,0,0,1-.28-.27v-1.75a.29.29,0,0,1,.28-.28.28.28,0,0,1,.27.28v1.75A.27.27,0,0,1,123.47,113.1Z" style="fill:#00dfbf"/><path d="M123.47,136.73a.27.27,0,0,1-.27-.27v-.91a.27.27,0,1,1,.54,0v.91A.27.27,0,0,1,123.47,136.73Z" style="fill:#00dfbf"/><path d="M122.25,109.39a.31.31,0,0,1-.13,0,.27.27,0,0,1-.14-.24v-2.8a.27.27,0,0,1,.14-.24l2.43-1.4a.26.26,0,0,1,.27,0,.29.29,0,0,1,.14.23v2.81a.26.26,0,0,1-.14.23l-2.43,1.41A.32.32,0,0,1,122.25,109.39Zm.28-2.92v2.18l1.88-1.09v-2.17Z" style="fill:#00dfbf"/><path d="M122.25,140.24a.33.33,0,0,1-.13,0A.27.27,0,0,1,122,140v-2.8a.27.27,0,0,1,.14-.24l2.43-1.4a.26.26,0,0,1,.27,0,.29.29,0,0,1,.14.24v2.8a.29.29,0,0,1-.14.24l-2.43,1.4A.33.33,0,0,1,122.25,140.24Zm.28-2.92v2.17l1.88-1.09v-2.17Z" style="fill:#00dfbf"/><path d="M90,128a.37.37,0,0,1-.14,0,.28.28,0,0,1-.13-.24V125a.28.28,0,0,1,.13-.24l2.43-1.4a.27.27,0,0,1,.41.24v2.8a.28.28,0,0,1-.13.24L90.12,128A.33.33,0,0,1,90,128Zm.27-2.92v2.17l1.89-1.09V124Z" style="fill:#00dfbf"/><path d="M90,158.87a.25.25,0,0,1-.14,0,.28.28,0,0,1-.13-.23v-2.81a.28.28,0,0,1,.13-.24l2.43-1.4a.27.27,0,0,1,.41.24v2.8a.28.28,0,0,1-.13.24l-2.43,1.4A.23.23,0,0,1,90,158.87Zm.27-2.92v2.17L92.14,157v-2.17Z" style="fill:#00dfbf"/><path d="M124.69,123.46a3,3,0,0,1-1.22,2.34c-.68.39-1.22,0-1.22-.93a2.92,2.92,0,0,1,1.22-2.34C124.14,122.14,124.69,122.56,124.69,123.46Z" style="fill:#00dfbf"/><path d="M108.54,115.63a2.9,2.9,0,0,1-1.22,2.33c-.68.39-1.22,0-1.22-.92a2.92,2.92,0,0,1,1.22-2.34C108,114.31,108.54,114.73,108.54,115.63Z" style="fill:#00dfbf"/><path d="M108.54,146.47a2.92,2.92,0,0,1-1.22,2.34c-.68.39-1.22,0-1.22-.93a2.92,2.92,0,0,1,1.22-2.34C108,145.15,108.54,145.57,108.54,146.47Z" style="fill:#00dfbf"/><path d="M92.42,142.13a2.93,2.93,0,0,1-1.23,2.34c-.67.39-1.22,0-1.22-.92a3,3,0,0,1,1.22-2.34C91.87,140.82,92.42,141.23,92.42,142.13Z" style="fill:#00dfbf"/><path d="M95.43,191.58,118.93,178a3.51,3.51,0,0,0,1.58-2.74V155c0-1-.71-1.42-1.58-.92l-23.5,13.57a3.51,3.51,0,0,0-1.58,2.74v20.29C93.85,191.68,94.56,192.09,95.43,191.58Z" style="fill:#fafafa;stroke:#e1e1e1;stroke-miterlimit:10"/><path d="M107.18,167.7a9.81,9.81,0,0,0-4.45,7.69c0,2.84,2,4,4.45,2.57a9.83,9.83,0,0,0,4.44-7.7C111.62,167.43,109.63,166.28,107.18,167.7Zm2.32,4.16-3.31,4c-.33.38-.59.29-.59-.21v-3.72a.87.87,0,0,1,.91-.88l2.67.11C109.68,171.14,109.82,171.47,109.5,171.86Z" style="fill:#00dfbf"/><path d="M92.41,166.19a.28.28,0,0,1-.24-.14.27.27,0,0,1,.1-.37l.79-.46a.28.28,0,1,1,.28.48l-.79.45A.25.25,0,0,1,92.41,166.19Z" style="fill:#00dfbf"/><path d="M94.86,164.78a.29.29,0,0,1-.24-.14.29.29,0,0,1,.1-.38l1.67-.95a.26.26,0,0,1,.37.1.27.27,0,0,1-.1.37l-1.66,1A.33.33,0,0,1,94.86,164.78Zm3.32-1.92a.27.27,0,0,1-.13-.51l1.66-1a.27.27,0,0,1,.27.47l-1.66,1A.33.33,0,0,1,98.18,162.86Zm3.33-1.92a.27.27,0,0,1-.24-.14.27.27,0,0,1,.1-.37l1.66-1a.27.27,0,0,1,.37.1.26.26,0,0,1-.1.37l-1.66,1A.22.22,0,0,1,101.51,160.94Zm3.32-1.92a.27.27,0,0,1-.24-.14.28.28,0,0,1,.1-.37l1.66-1a.28.28,0,0,1,.28.48L105,159A.25.25,0,0,1,104.83,159Zm3.32-1.92a.29.29,0,0,1-.24-.13.29.29,0,0,1,.1-.38l1.67-1a.28.28,0,0,1,.37.1.29.29,0,0,1-.1.38l-1.66,1A.35.35,0,0,1,108.15,157.1Zm3.32-1.92a.26.26,0,0,1-.23-.13.28.28,0,0,1,.1-.38l1.66-1a.27.27,0,0,1,.37.1.28.28,0,0,1-.1.38l-1.66,1A.32.32,0,0,1,111.47,155.18Zm3.33-1.91a.27.27,0,0,1-.24-.14.27.27,0,0,1,.1-.37l1.66-1a.27.27,0,1,1,.27.47l-1.66,1A.33.33,0,0,1,114.8,153.27Zm3.32-1.92a.27.27,0,0,1-.24-.14.27.27,0,0,1,.1-.37l1.66-1a.29.29,0,0,1,.38.1.27.27,0,0,1-.1.37l-1.66,1A.27.27,0,0,1,118.12,151.35Z" style="fill:#00dfbf"/><path d="M121.44,149.43a.28.28,0,0,1-.24-.14.27.27,0,0,1,.1-.37l.79-.46a.28.28,0,0,1,.28.48l-.79.45A.25.25,0,0,1,121.44,149.43Z" style="fill:#00dfbf"/><path d="M91.2,196.33a.28.28,0,0,1-.28-.27v-.91a.29.29,0,0,1,.28-.28.28.28,0,0,1,.27.28v.91A.27.27,0,0,1,91.2,196.33Z" style="fill:#00dfbf"/><path d="M91.2,193.67a.28.28,0,0,1-.28-.27v-1.75a.28.28,0,0,1,.28-.27.27.27,0,0,1,.27.27v1.75A.27.27,0,0,1,91.2,193.67Zm0-3.49a.29.29,0,0,1-.28-.28v-1.74a.29.29,0,0,1,.28-.28.28.28,0,0,1,.27.28v1.74A.28.28,0,0,1,91.2,190.18Zm0-3.5a.28.28,0,0,1-.28-.27v-1.75a.28.28,0,0,1,.28-.27.27.27,0,0,1,.27.27v1.75A.27.27,0,0,1,91.2,186.68Zm0-3.49a.29.29,0,0,1-.28-.28v-1.74a.28.28,0,1,1,.55,0v1.74A.28.28,0,0,1,91.2,183.19Zm0-3.5a.27.27,0,0,1-.28-.27v-1.75a.28.28,0,0,1,.55,0v1.75A.27.27,0,0,1,91.2,179.69Zm0-3.49a.28.28,0,0,1-.28-.28v-1.75a.28.28,0,0,1,.55,0v1.75A.28.28,0,0,1,91.2,176.2Zm0-3.5a.27.27,0,0,1-.28-.27v-1.75a.28.28,0,0,1,.55,0v1.75A.27.27,0,0,1,91.2,172.7Z" style="fill:#00dfbf"/><path d="M91.2,169.2a.27.27,0,0,1-.28-.27V168a.28.28,0,0,1,.55,0v.91A.27.27,0,0,1,91.2,169.2Z" style="fill:#00dfbf"/><path d="M121.46,180.26a.27.27,0,0,1-.13-.51l.79-.46a.28.28,0,0,1,.27.48l-.79.45A.23.23,0,0,1,121.46,180.26Z" style="fill:#00dfbf"/><path d="M94.86,195.62a.27.27,0,0,1-.23-.14.26.26,0,0,1,.1-.37l1.66-1a.26.26,0,0,1,.37.1.27.27,0,0,1-.1.37l-1.66,1A.33.33,0,0,1,94.86,195.62Zm3.33-1.92a.27.27,0,0,1-.24-.14.27.27,0,0,1,.1-.37l1.66-1a.28.28,0,0,1,.38.1.27.27,0,0,1-.1.37l-1.67,1A.33.33,0,0,1,98.19,193.7Zm3.32-1.92a.27.27,0,0,1-.23-.14.26.26,0,0,1,.1-.37l1.66-1a.27.27,0,0,1,.27.47l-1.66,1A.33.33,0,0,1,101.51,191.78Zm3.33-1.92a.27.27,0,0,1-.24-.14.27.27,0,0,1,.1-.37l1.66-1a.27.27,0,0,1,.38.1.28.28,0,0,1-.1.37l-1.67,1A.2.2,0,0,1,104.84,189.86Zm3.32-1.92a.27.27,0,0,1-.13-.51l1.66-1a.27.27,0,0,1,.27.47l-1.66,1A.33.33,0,0,1,108.16,187.94Zm3.33-1.92a.27.27,0,0,1-.24-.14.27.27,0,0,1,.1-.37l1.66-1a.27.27,0,1,1,.28.47l-1.66,1A.25.25,0,0,1,111.49,186Zm3.32-1.92a.27.27,0,0,1-.13-.51l1.66-1a.27.27,0,0,1,.27.47l-1.66,1A.23.23,0,0,1,114.81,184.1Zm3.33-1.92a.27.27,0,0,1-.24-.14.27.27,0,0,1,.1-.37l1.66-1a.28.28,0,0,1,.38.1.27.27,0,0,1-.1.37l-1.66,1A.25.25,0,0,1,118.14,182.18Z" style="fill:#00dfbf"/><path d="M92.41,197a.29.29,0,0,1-.24-.13.29.29,0,0,1,.1-.38l.79-.45a.27.27,0,1,1,.28.47l-.79.46A.35.35,0,0,1,92.41,197Z" style="fill:#00dfbf"/><path d="M123.47,150.57a.28.28,0,0,1-.28-.27v-.91a.29.29,0,0,1,.28-.28.28.28,0,0,1,.27.28v.91A.27.27,0,0,1,123.47,150.57Z" style="fill:#00dfbf"/><path d="M123.47,175a.27.27,0,0,1-.27-.27V173a.27.27,0,1,1,.54,0v1.75A.27.27,0,0,1,123.47,175Zm0-3.5a.27.27,0,0,1-.27-.27v-1.75a.27.27,0,0,1,.54,0v1.75A.27.27,0,0,1,123.47,171.54Zm0-3.49a.27.27,0,0,1-.27-.27V166a.27.27,0,1,1,.54,0v1.75A.27.27,0,0,1,123.47,168.05Zm0-3.5a.27.27,0,0,1-.27-.27v-1.75a.28.28,0,0,1,.28-.27.27.27,0,0,1,.27.27v1.75A.27.27,0,0,1,123.47,164.55Zm0-3.49a.29.29,0,0,1-.28-.28V159a.29.29,0,0,1,.28-.28.28.28,0,0,1,.27.28v1.74A.28.28,0,0,1,123.47,161.06Zm0-3.5a.28.28,0,0,1-.28-.27v-1.75a.28.28,0,0,1,.28-.27.27.27,0,0,1,.27.27v1.75A.27.27,0,0,1,123.47,157.56Zm0-3.49a.29.29,0,0,1-.28-.28v-1.74a.29.29,0,0,1,.28-.28.28.28,0,0,1,.27.28v1.74A.28.28,0,0,1,123.47,154.07Z" style="fill:#00dfbf"/><path d="M123.47,177.7a.27.27,0,0,1-.27-.28v-.91a.27.27,0,1,1,.54,0v.91A.27.27,0,0,1,123.47,177.7Z" style="fill:#00dfbf"/><path d="M122.25,150.36a.31.31,0,0,1-.13,0,.27.27,0,0,1-.14-.24v-2.81a.27.27,0,0,1,.14-.23l2.43-1.41a.32.32,0,0,1,.27,0,.29.29,0,0,1,.14.24v2.81a.29.29,0,0,1-.14.23l-2.43,1.41A.32.32,0,0,1,122.25,150.36Zm.28-2.92v2.18l1.88-1.09v-2.18Z" style="fill:#00dfbf"/><path d="M122.25,181.2a.31.31,0,0,1-.13,0,.27.27,0,0,1-.14-.24v-2.8a.27.27,0,0,1,.14-.24l2.43-1.4a.26.26,0,0,1,.27,0,.29.29,0,0,1,.14.23v2.81a.29.29,0,0,1-.14.24l-2.43,1.4A.32.32,0,0,1,122.25,181.2Zm.28-2.92v2.18l1.88-1.09V177.2Z" style="fill:#00dfbf"/><path d="M90,169a.35.35,0,0,1-.14,0,.28.28,0,0,1-.13-.24v-2.8a.28.28,0,0,1,.13-.24l2.43-1.4a.28.28,0,0,1,.28,0,.28.28,0,0,1,.13.23v2.81a.28.28,0,0,1-.13.24L90.12,169A.32.32,0,0,1,90,169Zm.27-2.92v2.18l1.89-1.09V165Z" style="fill:#00dfbf"/><path d="M90,199.84a.37.37,0,0,1-.14,0,.28.28,0,0,1-.13-.24v-2.8a.28.28,0,0,1,.13-.24l2.43-1.4a.27.27,0,0,1,.41.24v2.8a.28.28,0,0,1-.13.24l-2.43,1.4A.33.33,0,0,1,90,199.84Zm.27-2.92v2.17L92.14,198v-2.17Z" style="fill:#00dfbf"/><path d="M124.69,164.43a2.93,2.93,0,0,1-1.22,2.33c-.68.39-1.22,0-1.22-.92a2.92,2.92,0,0,1,1.22-2.34C124.14,163.11,124.69,163.53,124.69,164.43Z" style="fill:#00dfbf"/><path d="M108.54,156.6a2.9,2.9,0,0,1-1.22,2.33c-.68.39-1.22,0-1.22-.92a2.92,2.92,0,0,1,1.22-2.34C108,155.28,108.54,155.69,108.54,156.6Z" style="fill:#00dfbf"/><path d="M108.54,187.44a2.9,2.9,0,0,1-1.22,2.33c-.68.39-1.22,0-1.22-.92a2.92,2.92,0,0,1,1.22-2.34C108,186.12,108.54,186.54,108.54,187.44Z" style="fill:#00dfbf"/><path d="M92.42,183.1a2.93,2.93,0,0,1-1.23,2.34c-.67.39-1.22,0-1.22-.93a2.93,2.93,0,0,1,1.22-2.33C91.87,181.79,92.42,182.2,92.42,183.1Z" style="fill:#00dfbf"/><path d="M95.43,232.55,118.93,219a3.48,3.48,0,0,0,1.58-2.73V196c0-1-.71-1.41-1.58-.91l-23.5,13.57a3.49,3.49,0,0,0-1.58,2.73v20.3C93.85,232.65,94.56,233.05,95.43,232.55Z" style="fill:#fafafa;stroke:#e1e1e1;stroke-miterlimit:10"/><polygon points="96.86 228.45 117.78 216.37 113.78 209.25 111.47 214.8 112.33 216.92 105.06 209.25 96.86 228.45" style="fill:#00dfbf"/><path d="M111.44,204.25a3.88,3.88,0,0,0-1.77,3.05c0,1.13.79,1.59,1.77,1a3.9,3.9,0,0,0,1.76-3C113.2,204.14,112.41,203.68,111.44,204.25Z" style="fill:#00dfbf;opacity:0.9"/><path d="M92.41,207.16a.28.28,0,0,1-.24-.14.27.27,0,0,1,.1-.37l.79-.46a.28.28,0,1,1,.28.48l-.79.45A.25.25,0,0,1,92.41,207.16Z" style="fill:#00dfbf"/><path d="M94.86,205.74a.31.31,0,0,1-.24-.13.29.29,0,0,1,.1-.38l1.67-1a.28.28,0,0,1,.27.48l-1.66,1A.32.32,0,0,1,94.86,205.74Zm3.32-1.92a.26.26,0,0,1-.23-.13.28.28,0,0,1,.1-.38l1.66-1a.28.28,0,0,1,.27.48l-1.66,1A.32.32,0,0,1,98.18,203.82Zm3.33-1.91a.27.27,0,0,1-.24-.14.27.27,0,0,1,.1-.37l1.66-1a.27.27,0,0,1,.37.1.26.26,0,0,1-.1.37l-1.66,1A.33.33,0,0,1,101.51,201.91Zm3.32-1.92a.27.27,0,0,1-.24-.14.27.27,0,0,1,.1-.37l1.66-1a.29.29,0,0,1,.38.1.27.27,0,0,1-.1.37L105,200A.25.25,0,0,1,104.83,200Zm3.32-1.92a.28.28,0,0,1-.24-.14.28.28,0,0,1,.1-.37l1.67-1a.27.27,0,0,1,.27.47l-1.66,1A.25.25,0,0,1,108.15,198.07Zm3.32-1.92a.27.27,0,0,1-.13-.51l1.66-1a.27.27,0,0,1,.37.1.28.28,0,0,1-.1.38l-1.66,1A.32.32,0,0,1,111.47,196.15Zm3.33-1.92a.27.27,0,0,1-.14-.51l1.66-1a.27.27,0,0,1,.37.1.28.28,0,0,1-.1.38l-1.66,1A.31.31,0,0,1,114.8,194.23Zm3.32-1.91a.27.27,0,0,1-.24-.14.29.29,0,0,1,.1-.38l1.66-1a.27.27,0,1,1,.28.47l-1.66,1A.43.43,0,0,1,118.12,192.32Z" style="fill:#00dfbf"/><path d="M121.44,190.4a.28.28,0,0,1-.24-.14.27.27,0,0,1,.1-.37l.79-.46a.28.28,0,1,1,.28.48l-.79.45A.25.25,0,0,1,121.44,190.4Z" style="fill:#00dfbf"/><path d="M91.2,237.3a.28.28,0,0,1-.28-.27v-.91a.28.28,0,0,1,.28-.28.27.27,0,0,1,.27.28V237A.27.27,0,0,1,91.2,237.3Z" style="fill:#00dfbf"/><path d="M91.2,234.64a.28.28,0,0,1-.28-.27v-1.75a.28.28,0,0,1,.28-.27.27.27,0,0,1,.27.27v1.75A.27.27,0,0,1,91.2,234.64Zm0-3.5a.28.28,0,0,1-.28-.27v-1.75a.28.28,0,0,1,.28-.27.27.27,0,0,1,.27.27v1.75A.27.27,0,0,1,91.2,231.14Zm0-3.49a.28.28,0,0,1-.28-.27v-1.75a.28.28,0,0,1,.28-.27.27.27,0,0,1,.27.27v1.75A.27.27,0,0,1,91.2,227.65Zm0-3.5a.28.28,0,0,1-.28-.27v-1.75a.28.28,0,0,1,.55,0v1.75A.27.27,0,0,1,91.2,224.15Zm0-3.49a.27.27,0,0,1-.28-.27v-1.75a.28.28,0,1,1,.55,0v1.75A.27.27,0,0,1,91.2,220.66Zm0-3.5a.27.27,0,0,1-.28-.27v-1.75a.28.28,0,0,1,.55,0v1.75A.27.27,0,0,1,91.2,217.16Zm0-3.49a.27.27,0,0,1-.28-.28v-1.74a.28.28,0,1,1,.55,0v1.74A.27.27,0,0,1,91.2,213.67Z" style="fill:#00dfbf"/><path d="M91.2,210.17a.27.27,0,0,1-.28-.27V209a.28.28,0,0,1,.55,0v.91A.27.27,0,0,1,91.2,210.17Z" style="fill:#00dfbf"/><path d="M121.46,221.23a.27.27,0,0,1-.13-.51l.79-.46a.28.28,0,0,1,.37.1.27.27,0,0,1-.1.37l-.79.46A.33.33,0,0,1,121.46,221.23Z" style="fill:#00dfbf"/><path d="M94.86,236.58a.26.26,0,0,1-.23-.13.27.27,0,0,1,.1-.38l1.66-1a.28.28,0,0,1,.27.48l-1.66,1A.32.32,0,0,1,94.86,236.58Zm3.33-1.92a.26.26,0,0,1-.24-.13.28.28,0,0,1,.1-.38l1.66-1a.28.28,0,0,1,.28.48l-1.67,1A.31.31,0,0,1,98.19,234.66Zm3.32-1.92a.26.26,0,0,1-.23-.13.27.27,0,0,1,.1-.38l1.66-1a.27.27,0,0,1,.37.1.28.28,0,0,1-.1.38l-1.66,1A.32.32,0,0,1,101.51,232.74Zm3.33-1.91a.27.27,0,0,1-.24-.14.29.29,0,0,1,.1-.38l1.66-1a.28.28,0,0,1,.28.48l-1.67,1A.28.28,0,0,1,104.84,230.83Zm3.32-1.93a.26.26,0,0,1-.23-.13.28.28,0,0,1,.1-.38l1.66-1a.27.27,0,0,1,.37.1.28.28,0,0,1-.1.38l-1.66,1A.32.32,0,0,1,108.16,228.9Zm3.33-1.92a.26.26,0,0,1-.24-.13.29.29,0,0,1,.1-.38l1.66-1a.28.28,0,1,1,.28.48l-1.66,1A.35.35,0,0,1,111.49,227Zm3.32-1.91a.27.27,0,0,1-.23-.14.28.28,0,0,1,.1-.38l1.66-1a.28.28,0,0,1,.27.48L115,225A.33.33,0,0,1,114.81,225.07Zm3.33-1.92a.27.27,0,0,1-.24-.14.29.29,0,0,1,.1-.38l1.66-.95a.27.27,0,1,1,.28.47l-1.66,1A.37.37,0,0,1,118.14,223.15Z" style="fill:#00dfbf"/><path d="M92.41,238a.28.28,0,0,1-.24-.14.28.28,0,0,1,.1-.37l.79-.46a.28.28,0,1,1,.28.48l-.79.45A.25.25,0,0,1,92.41,238Z" style="fill:#00dfbf"/><path d="M123.47,191.54a.28.28,0,0,1-.28-.27v-.91a.28.28,0,0,1,.28-.28.27.27,0,0,1,.27.28v.91A.27.27,0,0,1,123.47,191.54Z" style="fill:#00dfbf"/><path d="M123.47,216a.27.27,0,0,1-.27-.28V214a.27.27,0,1,1,.54,0v1.74A.27.27,0,0,1,123.47,216Zm0-3.5a.27.27,0,0,1-.27-.27v-1.75a.27.27,0,0,1,.54,0v1.75A.27.27,0,0,1,123.47,212.51Zm0-3.49a.28.28,0,0,1-.27-.28V207a.27.27,0,1,1,.54,0v1.74A.28.28,0,0,1,123.47,209Zm0-3.5a.27.27,0,0,1-.27-.27V203.5a.28.28,0,0,1,.28-.27.27.27,0,0,1,.27.27v1.75A.27.27,0,0,1,123.47,205.52Zm0-3.49a.29.29,0,0,1-.28-.28V200a.28.28,0,0,1,.28-.28.27.27,0,0,1,.27.28v1.74A.28.28,0,0,1,123.47,202Zm0-3.5a.28.28,0,0,1-.28-.27v-1.75a.28.28,0,0,1,.28-.27.27.27,0,0,1,.27.27v1.75A.27.27,0,0,1,123.47,198.53Zm0-3.49a.29.29,0,0,1-.28-.28V193a.28.28,0,0,1,.28-.27.27.27,0,0,1,.27.27v1.75A.28.28,0,0,1,123.47,195Z" style="fill:#00dfbf"/><path d="M123.47,218.67a.28.28,0,0,1-.27-.28v-.91a.27.27,0,0,1,.54,0v.91A.28.28,0,0,1,123.47,218.67Z" style="fill:#00dfbf"/><path d="M122.25,191.33a.22.22,0,0,1-.13,0,.27.27,0,0,1-.14-.23v-2.81a.24.24,0,0,1,.14-.23l2.43-1.41a.26.26,0,0,1,.27,0,.29.29,0,0,1,.14.24v2.8a.29.29,0,0,1-.14.24l-2.43,1.4A.23.23,0,0,1,122.25,191.33Zm.28-2.92v2.17l1.88-1.08v-2.18Z" style="fill:#00dfbf"/><path d="M122.25,222.17a.31.31,0,0,1-.13,0,.27.27,0,0,1-.14-.24v-2.81a.27.27,0,0,1,.14-.23l2.43-1.41a.32.32,0,0,1,.27,0,.29.29,0,0,1,.14.24v2.81a.29.29,0,0,1-.14.23l-2.43,1.41A.32.32,0,0,1,122.25,222.17Zm.28-2.92v2.18l1.88-1.09v-2.17Z" style="fill:#00dfbf"/><path d="M90,210a.35.35,0,0,1-.14,0,.28.28,0,0,1-.13-.24v-2.81a.28.28,0,0,1,.13-.23l2.43-1.4a.28.28,0,0,1,.28,0,.25.25,0,0,1,.13.23v2.81a.26.26,0,0,1-.13.23l-2.43,1.41A.32.32,0,0,1,90,210Zm.27-2.92v2.18l1.89-1.09V206Z" style="fill:#00dfbf"/><path d="M90,240.8a.35.35,0,0,1-.14,0,.28.28,0,0,1-.13-.24v-2.8a.28.28,0,0,1,.13-.24l2.43-1.4a.28.28,0,0,1,.28,0,.28.28,0,0,1,.13.23v2.81a.28.28,0,0,1-.13.24l-2.43,1.4A.32.32,0,0,1,90,240.8Zm.27-2.92v2.18L92.14,239V236.8Z" style="fill:#00dfbf"/><path d="M124.69,205.4a2.93,2.93,0,0,1-1.22,2.33c-.68.39-1.22,0-1.22-.92a2.92,2.92,0,0,1,1.22-2.34C124.14,204.08,124.69,204.49,124.69,205.4Z" style="fill:#00dfbf"/><path d="M108.54,197.56a2.92,2.92,0,0,1-1.22,2.34c-.68.39-1.22,0-1.22-.92a2.92,2.92,0,0,1,1.22-2.34C108,196.25,108.54,196.66,108.54,197.56Z" style="fill:#00dfbf"/><path d="M108.54,228.41a2.9,2.9,0,0,1-1.22,2.33c-.68.39-1.22,0-1.22-.92a2.92,2.92,0,0,1,1.22-2.34C108,227.09,108.54,227.51,108.54,228.41Z" style="fill:#00dfbf"/><path d="M92.42,224.07a2.93,2.93,0,0,1-1.23,2.34c-.67.39-1.22,0-1.22-.93a2.93,2.93,0,0,1,1.22-2.33C91.87,222.76,92.42,223.17,92.42,224.07Z" style="fill:#00dfbf"/><path d="M95.43,273.52,118.93,260a3.49,3.49,0,0,0,1.58-2.73v-20.3c0-1-.71-1.41-1.58-.91l-23.5,13.57a3.49,3.49,0,0,0-1.58,2.73v20.3C93.85,273.61,94.56,274,95.43,273.52Z" style="fill:#fafafa;stroke:#e1e1e1;stroke-miterlimit:10"/><path d="M92.41,248.13a.28.28,0,0,1-.24-.14.27.27,0,0,1,.1-.37l.79-.46a.29.29,0,0,1,.38.1.27.27,0,0,1-.1.37l-.79.46A.37.37,0,0,1,92.41,248.13Z" style="fill:#00dfbf"/><path d="M94.86,246.71a.29.29,0,0,1-.24-.14.28.28,0,0,1,.1-.37l1.67-1a.28.28,0,0,1,.27.48l-1.66,1A.32.32,0,0,1,94.86,246.71Zm3.32-1.92a.27.27,0,0,1-.13-.51l1.66-1a.27.27,0,0,1,.37.1.28.28,0,0,1-.1.38l-1.66,1A.32.32,0,0,1,98.18,244.79Zm3.33-1.92a.26.26,0,0,1-.24-.13.28.28,0,0,1,.1-.38l1.66-1a.27.27,0,0,1,.37.1.26.26,0,0,1-.1.37l-1.66,1A.31.31,0,0,1,101.51,242.87Zm3.32-1.91a.27.27,0,0,1-.24-.14.27.27,0,0,1,.1-.37l1.66-1a.28.28,0,0,1,.38.1.27.27,0,0,1-.1.37l-1.67,1A.33.33,0,0,1,104.83,241Zm3.32-1.92a.28.28,0,0,1-.24-.14.27.27,0,0,1,.1-.37l1.67-1a.27.27,0,0,1,.27.47l-1.66,1A.25.25,0,0,1,108.15,239Zm3.32-1.92a.27.27,0,0,1-.13-.51l1.66-1a.27.27,0,0,1,.37.1.27.27,0,0,1-.1.37l-1.66,1A.23.23,0,0,1,111.47,237.12Zm3.33-1.92a.27.27,0,0,1-.14-.51l1.66-1a.27.27,0,0,1,.37.1.28.28,0,0,1-.1.38l-1.66,1A.31.31,0,0,1,114.8,235.2Zm3.32-1.92a.28.28,0,0,1-.24-.13.29.29,0,0,1,.1-.38l1.66-1a.28.28,0,1,1,.28.48l-1.66,1A.35.35,0,0,1,118.12,233.28Z" style="fill:#00dfbf"/><path d="M121.44,231.37a.28.28,0,0,1-.24-.14.27.27,0,0,1,.1-.37l.79-.46a.29.29,0,0,1,.38.1.27.27,0,0,1-.1.37l-.79.46A.37.37,0,0,1,121.44,231.37Z" style="fill:#00dfbf"/><path d="M91.2,278.27a.28.28,0,0,1-.28-.28v-.91a.28.28,0,0,1,.28-.27.27.27,0,0,1,.27.27V278A.27.27,0,0,1,91.2,278.27Z" style="fill:#00dfbf"/><path d="M91.2,275.61a.28.28,0,0,1-.28-.27v-1.75a.29.29,0,0,1,.28-.28.28.28,0,0,1,.27.28v1.75A.27.27,0,0,1,91.2,275.61Zm0-3.5a.28.28,0,0,1-.28-.27v-1.75a.28.28,0,0,1,.28-.27.27.27,0,0,1,.27.27v1.75A.27.27,0,0,1,91.2,272.11Zm0-3.49a.28.28,0,0,1-.28-.27V266.6a.29.29,0,0,1,.28-.28.28.28,0,0,1,.27.28v1.75A.27.27,0,0,1,91.2,268.62Zm0-3.5a.28.28,0,0,1-.28-.27V263.1a.28.28,0,0,1,.55,0v1.75A.27.27,0,0,1,91.2,265.12Zm0-3.49a.27.27,0,0,1-.28-.28v-1.74a.28.28,0,1,1,.55,0v1.74A.27.27,0,0,1,91.2,261.63Zm0-3.5a.27.27,0,0,1-.28-.27v-1.75a.28.28,0,0,1,.55,0v1.75A.27.27,0,0,1,91.2,258.13Zm0-3.49a.28.28,0,0,1-.28-.28v-1.74a.28.28,0,1,1,.55,0v1.74A.28.28,0,0,1,91.2,254.64Z" style="fill:#00dfbf"/><path d="M91.2,251.14a.27.27,0,0,1-.28-.27V250a.28.28,0,1,1,.55,0v.91A.27.27,0,0,1,91.2,251.14Z" style="fill:#00dfbf"/><path d="M121.46,262.19a.26.26,0,0,1-.23-.13.28.28,0,0,1,.1-.38l.79-.45a.28.28,0,0,1,.37.1.27.27,0,0,1-.1.37l-.79.46A.32.32,0,0,1,121.46,262.19Z" style="fill:#00dfbf"/><path d="M94.86,277.55a.28.28,0,0,1-.23-.13.27.27,0,0,1,.1-.38l1.66-1a.28.28,0,0,1,.27.48l-1.66,1A.32.32,0,0,1,94.86,277.55Zm3.33-1.92a.27.27,0,0,1-.14-.51l1.66-1a.28.28,0,0,1,.28.48l-1.67,1A.31.31,0,0,1,98.19,275.63Zm3.32-1.92a.28.28,0,0,1-.23-.13.27.27,0,0,1,.1-.38l1.66-1a.27.27,0,0,1,.37.1.28.28,0,0,1-.1.38l-1.66,1A.32.32,0,0,1,101.51,273.71Zm3.33-1.92a.28.28,0,0,1-.24-.13.29.29,0,0,1,.1-.38l1.66-1a.28.28,0,1,1,.28.48l-1.67,1A.28.28,0,0,1,104.84,271.79Zm3.32-1.92a.27.27,0,0,1-.13-.51l1.66-1a.27.27,0,0,1,.37.1.28.28,0,0,1-.1.38l-1.66,1A.32.32,0,0,1,108.16,269.87Zm3.33-1.92a.28.28,0,0,1-.24-.13.29.29,0,0,1,.1-.38l1.66-1a.28.28,0,1,1,.28.48l-1.66,1A.35.35,0,0,1,111.49,268Zm3.32-1.92a.27.27,0,0,1-.13-.51l1.66-1a.27.27,0,0,1,.37.1.28.28,0,0,1-.1.38L115,266A.32.32,0,0,1,114.81,266Zm3.33-1.92a.28.28,0,0,1-.24-.13.29.29,0,0,1,.1-.38l1.66-1a.28.28,0,0,1,.28.48l-1.66,1A.35.35,0,0,1,118.14,264.11Z" style="fill:#00dfbf"/><path d="M92.41,279a.28.28,0,0,1-.24-.14.27.27,0,0,1,.1-.37l.79-.46a.28.28,0,1,1,.28.48l-.79.45A.25.25,0,0,1,92.41,279Z" style="fill:#00dfbf"/><path d="M123.47,232.51a.28.28,0,0,1-.28-.27v-.92a.28.28,0,0,1,.28-.27.27.27,0,0,1,.27.27v.92A.27.27,0,0,1,123.47,232.51Z" style="fill:#00dfbf"/><path d="M123.47,257a.28.28,0,0,1-.27-.28V255a.27.27,0,0,1,.54,0v1.75A.28.28,0,0,1,123.47,257Zm0-3.5a.27.27,0,0,1-.27-.27v-1.75a.27.27,0,0,1,.54,0v1.75A.27.27,0,0,1,123.47,253.48Zm0-3.49a.28.28,0,0,1-.27-.28V248a.27.27,0,1,1,.54,0v1.75A.28.28,0,0,1,123.47,250Zm0-3.5a.27.27,0,0,1-.27-.27v-1.75a.28.28,0,0,1,.28-.27.27.27,0,0,1,.27.27v1.75A.27.27,0,0,1,123.47,246.49Zm0-3.5a.28.28,0,0,1-.28-.27V241a.28.28,0,0,1,.28-.27.27.27,0,0,1,.27.27v1.75A.27.27,0,0,1,123.47,243Zm0-3.49a.28.28,0,0,1-.28-.27v-1.75a.29.29,0,0,1,.28-.28.28.28,0,0,1,.27.28v1.75A.27.27,0,0,1,123.47,239.5Zm0-3.5a.28.28,0,0,1-.28-.27V234a.28.28,0,0,1,.28-.27.27.27,0,0,1,.27.27v1.75A.27.27,0,0,1,123.47,236Z" style="fill:#00dfbf"/><path d="M123.47,259.63a.27.27,0,0,1-.27-.27v-.91a.27.27,0,0,1,.54,0v.91A.27.27,0,0,1,123.47,259.63Z" style="fill:#00dfbf"/><path d="M122.25,232.3a.22.22,0,0,1-.13,0A.27.27,0,0,1,122,232v-2.81a.27.27,0,0,1,.14-.24l2.43-1.4a.26.26,0,0,1,.27,0,.29.29,0,0,1,.14.24v2.8a.29.29,0,0,1-.14.24l-2.43,1.4A.23.23,0,0,1,122.25,232.3Zm.28-2.92v2.17l1.88-1.09v-2.17Z" style="fill:#00dfbf"/><path d="M122.25,263.14a.22.22,0,0,1-.13,0,.25.25,0,0,1-.14-.23v-2.81a.24.24,0,0,1,.14-.23l2.43-1.41a.26.26,0,0,1,.27,0,.29.29,0,0,1,.14.24v2.8a.29.29,0,0,1-.14.24l-2.43,1.4A.23.23,0,0,1,122.25,263.14Zm.28-2.92v2.17l1.88-1.08v-2.18Z" style="fill:#00dfbf"/><path d="M90,250.93a.35.35,0,0,1-.14,0,.28.28,0,0,1-.13-.24v-2.81a.28.28,0,0,1,.13-.23l2.43-1.41a.27.27,0,0,1,.41.24v2.81a.28.28,0,0,1-.13.23l-2.43,1.41A.32.32,0,0,1,90,250.93Zm.27-2.92v2.17l1.89-1.08v-2.18Z" style="fill:#00dfbf"/><path d="M90,281.77a.35.35,0,0,1-.14,0,.28.28,0,0,1-.13-.24v-2.8a.28.28,0,0,1,.13-.24l2.43-1.4a.28.28,0,0,1,.28,0,.25.25,0,0,1,.13.23v2.81a.26.26,0,0,1-.13.23l-2.43,1.41A.32.32,0,0,1,90,281.77Zm.27-2.92V281l1.89-1.09v-2.17Z" style="fill:#00dfbf"/><path d="M124.69,246.36a3,3,0,0,1-1.22,2.34c-.68.39-1.22,0-1.22-.92a2.92,2.92,0,0,1,1.22-2.34C124.14,245.05,124.69,245.46,124.69,246.36Z" style="fill:#00dfbf"/><path d="M108.54,238.53a2.92,2.92,0,0,1-1.22,2.34c-.68.39-1.22,0-1.22-.93a2.9,2.9,0,0,1,1.22-2.33C108,237.22,108.54,237.63,108.54,238.53Z" style="fill:#00dfbf"/><path d="M108.54,269.37a2.92,2.92,0,0,1-1.22,2.34c-.68.39-1.22,0-1.22-.92a2.92,2.92,0,0,1,1.22-2.34C108,268.06,108.54,268.47,108.54,269.37Z" style="fill:#00dfbf"/><path d="M92.42,265a2.93,2.93,0,0,1-1.23,2.34c-.67.39-1.22,0-1.22-.93a3,3,0,0,1,1.22-2.34C91.87,263.72,92.42,264.14,92.42,265Z" style="fill:#00dfbf"/><path d="M113.51,252.05v-1.87a.12.12,0,0,0-.19-.12l-1.44.65a.18.18,0,0,1-.24-.11,3,3,0,0,0-.32-.72.39.39,0,0,1,0-.35l1-1.93a.21.21,0,0,0-.09-.28l-1-.61a.23.23,0,0,0-.29.07l-1.19,1.8a.41.41,0,0,1-.31.16,3,3,0,0,0-.78.08.18.18,0,0,1-.22-.16l-.16-1.57a.12.12,0,0,0-.19-.1l-1.62.94a.41.41,0,0,0-.19.3L106,250a.57.57,0,0,1-.16.33,8.23,8.23,0,0,0-.9,1,.34.34,0,0,1-.32.09l-1-.37a.25.25,0,0,0-.29.11l-1.19,2.06a.26.26,0,0,0,0,.31l.83.72a.29.29,0,0,1,.08.32,9.39,9.39,0,0,0-.37,1.25.62.62,0,0,1-.21.32l-1.48,1a.41.41,0,0,0-.16.31v1.87c0,.11.08.17.18.12l1.44-.65a.17.17,0,0,1,.24.11,3.41,3.41,0,0,0,.33.72.43.43,0,0,1,0,.35l-1,1.93a.22.22,0,0,0,.08.28l1,.61a.23.23,0,0,0,.29-.07l1.2-1.8a.41.41,0,0,1,.31-.16,3,3,0,0,0,.78-.08.19.19,0,0,1,.22.16l.15,1.57a.12.12,0,0,0,.2.1l1.62-.94a.44.44,0,0,0,.19-.3l.16-1.8a.59.59,0,0,1,.17-.33,8.23,8.23,0,0,0,.9-1,.34.34,0,0,1,.32-.09l1,.37a.26.26,0,0,0,.29-.11l1.19-2.06a.27.27,0,0,0,0-.31l-.84-.72a.31.31,0,0,1-.08-.32,9.44,9.44,0,0,0,.38-1.25.6.6,0,0,1,.2-.32l1.48-1A.42.42,0,0,0,113.51,252.05Zm-6.33,5.87c-1.51.87-2.74.17-2.74-1.58a6,6,0,0,1,2.74-4.73c1.51-.87,2.73-.17,2.73,1.58A6,6,0,0,1,107.18,257.92Z" style="fill:#00dfbf"/><path d="M211.39,274.26a1.11,1.11,0,0,0-.66-.91L193.16,263.2a3.52,3.52,0,0,0-3.16,0l-29.42,17a1.11,1.11,0,0,0-.66.91v3.42a1.13,1.13,0,0,0,.66.92l17.57,10.14a3.45,3.45,0,0,0,3.16,0l29.42-17a1.13,1.13,0,0,0,.66-.92C211.38,277.35,211.39,274.59,211.39,274.26Z" style="fill:#00dfbf"/><path d="M210.73,273.35,193.16,263.2a3.52,3.52,0,0,0-3.16,0l-10.27,5.93V296a3.16,3.16,0,0,0,1.58-.38l29.42-17a1.13,1.13,0,0,0,.66-.92c0-.33,0-3.09,0-3.42A1.11,1.11,0,0,0,210.73,273.35Z" style="fill:#fc0"/><path d="M179.73,269.13l-19.15,11.06a1.11,1.11,0,0,0-.66.91v3.42a1.13,1.13,0,0,0,.66.92l17.57,10.14a3.16,3.16,0,0,0,1.58.38Z" style="fill:#f7a40f"/><path d="M181.31,292.16l29.42-17a1,1,0,0,0,0-1.82L193.16,263.2a3.52,3.52,0,0,0-3.16,0l-29.42,17a1,1,0,0,0,0,1.82l17.57,10.15A3.52,3.52,0,0,0,181.31,292.16Z" style="fill:#ffbc33"/><polygon points="179.73 289.65 206.39 274.26 190.81 272.11 191.99 277.19 195.56 278.27 173.31 277.68 179.73 289.65" style="fill:#fafafa"/><path d="M183.39,271.81a3.48,3.48,0,0,1,3.09-.26c.73.43.53,1.23-.45,1.8a3.51,3.51,0,0,1-3.09.26C182.21,273.19,182.41,272.38,183.39,271.81Z" style="fill:#fafafa"/><path d="M255.82,248.6a1.13,1.13,0,0,0-.66-.91l-17.57-10.14a3.45,3.45,0,0,0-3.16,0l-29.43,17a1.14,1.14,0,0,0-.65.91v3.42a1.11,1.11,0,0,0,.65.92l17.58,10.15a3.52,3.52,0,0,0,3.16,0l29.42-17a1.11,1.11,0,0,0,.66-.92C255.81,251.7,255.82,248.93,255.82,248.6Z" style="fill:#00dfbf"/><path d="M255.16,247.69l-17.57-10.14a3.45,3.45,0,0,0-3.16,0l-10.27,5.92v26.84a3.27,3.27,0,0,0,1.58-.38l29.42-17a1.11,1.11,0,0,0,.66-.92c0-.32,0-3.09,0-3.42A1.13,1.13,0,0,0,255.16,247.69Z" style="fill:#f76195"/><path d="M224.16,243.47,205,254.53a1.14,1.14,0,0,0-.65.91v3.42a1.11,1.11,0,0,0,.65.92l17.58,10.15a3.27,3.27,0,0,0,1.58.38Z" style="fill:#d62d69"/><path d="M225.74,266.5l29.42-17a1,1,0,0,0,0-1.83l-17.57-10.14a3.45,3.45,0,0,0-3.16,0l-29.43,17a1,1,0,0,0,0,1.83l17.58,10.14A3.45,3.45,0,0,0,225.74,266.5Z" style="fill:#eb4680"/><polygon points="224.16 264 250.82 248.6 235.24 246.45 236.42 251.53 239.99 252.61 217.74 252.03 224.16 264" style="fill:#fafafa"/><path d="M227.82,246.16a3.45,3.45,0,0,1,3.09-.26c.73.42.53,1.23-.45,1.79a3.45,3.45,0,0,1-3.09.26C226.64,247.53,226.84,246.73,227.82,246.16Z" style="fill:#fafafa"/><path d="M300.24,223a1.09,1.09,0,0,0-.65-.91L282,211.89a3.49,3.49,0,0,0-3.15,0l-29.43,17a1.11,1.11,0,0,0-.65.91v3.42a1.14,1.14,0,0,0,.65.92L267,244.28a3.52,3.52,0,0,0,3.16,0l29.42-17a1.1,1.1,0,0,0,.65-.92Z" style="fill:#00dfbf"/><path d="M299.59,222,282,211.89a3.49,3.49,0,0,0-3.15,0l-10.27,5.93v26.83a3.26,3.26,0,0,0,1.58-.37l29.42-17a1.1,1.1,0,0,0,.65-.92V223A1.09,1.09,0,0,0,299.59,222Z" style="fill:#003cbf"/><path d="M268.59,217.82l-19.16,11.06a1.11,1.11,0,0,0-.65.91v3.42a1.14,1.14,0,0,0,.65.92L267,244.28a3.26,3.26,0,0,0,1.58.37Z" style="fill:#003cbf"/><path d="M270.17,240.85l29.42-17a1,1,0,0,0,0-1.82L282,211.89a3.49,3.49,0,0,0-3.15,0l-29.43,17a1,1,0,0,0,0,1.82L267,240.85A3.52,3.52,0,0,0,270.17,240.85Z" style="fill:#00dfbf"/><path d="M269.18,223.29c-3.92,2.27-4.72,5.48-1.78,7.18s8.52,1.24,12.44-1,4.72-5.48,1.78-7.18S273.11,221,269.18,223.29Zm9.43,1.16-3.17,4.29a1.19,1.19,0,0,1-1.51.21l-3.86-2.23c-.53-.31,0-.78,1.09-1.05l6-1.48C278.26,223.91,278.92,224,278.61,224.45Z" style="fill:#fafafa"/><g id="Tab"><path d="M266,168.12l-.51-.29a3.26,3.26,0,0,1-1.47-2.55v-41a3.26,3.26,0,0,1,1.47-2.55L316,92.41a3.24,3.24,0,0,1,2.94,0l.51.29A3.26,3.26,0,0,1,321,95.25v41a3.26,3.26,0,0,1-1.47,2.55l-50.56,29.31A3.24,3.24,0,0,1,266,168.12Z" style="fill:#ffbc33"/><polygon points="270.87 161.52 315.31 135.88 306.4 120.48 299.64 135.37 301.67 139.97 285.68 122.64 270.87 161.52" style="fill:#fafafa"/><path d="M300.51,113.8c1.64-1,3-.2,3,1.69a6.57,6.57,0,0,1-3,5.13c-1.64.95-3,.2-3-1.68A6.64,6.64,0,0,1,300.51,113.8Z" style="fill:#fafafa"/><path d="M321,95c-.1-.76-.72-1-1.46-.61l-50.56,29.32a3,3,0,0,0-1,1.09l-3.45-2a3.15,3.15,0,0,1,1-1.1L316,92.41a3.24,3.24,0,0,1,2.94,0l.51.29A3.35,3.35,0,0,1,321,95Z" style="fill:#fff;opacity:0.4"/><path d="M268.68,168.24a3.27,3.27,0,0,1-2.69-.12l-.51-.29a3.26,3.26,0,0,1-1.47-2.55v-41a3,3,0,0,1,.43-1.45l3.45,2a3,3,0,0,0-.43,1.45v41C267.46,168.11,268,168.51,268.68,168.24Z" style="fill:#003cbf"/></g></svg>