<svg width="41" height="40" viewBox="0 0 41 40" fill="none" xmlns="http://www.w3.org/2000/svg">
<path d="M35.5 30V31.6667C35.5 33.5 34 35 32.1667 35H8.83333C6.98333 35 5.5 33.5 5.5 31.6667V8.33333C5.5 6.5 6.98333 5 8.83333 5H32.1667C34 5 35.5 6.5 35.5 8.33333V10H20.5C18.65 10 17.1667 11.5 17.1667 13.3333V26.6667C17.1667 28.5 18.65 30 20.5 30H35.5ZM20.5 26.6667H37.1667V13.3333H20.5V26.6667ZM27.1667 22.5C25.7833 22.5 24.6667 21.3833 24.6667 20C24.6667 18.6167 25.7833 17.5 27.1667 17.5C28.55 17.5 29.6667 18.6167 29.6667 20C29.6667 21.3833 28.55 22.5 27.1667 22.5Z" fill="#6494FF"/>
</svg>
