<svg width="40" height="40" viewBox="0 0 40 40" fill="none" xmlns="http://www.w3.org/2000/svg">
<path d="M11.6667 29.9999C9.83332 29.9999 8.34999 31.4999 8.34999 33.3333C8.34999 35.1666 9.83332 36.6666 11.6667 36.6666C13.5 36.6666 15 35.1666 15 33.3333C15 31.4999 13.5 29.9999 11.6667 29.9999ZM1.66666 3.33325V6.66659H4.99999L11 19.3166L8.74999 23.3999C8.48332 23.8666 8.33332 24.4166 8.33332 24.9999C8.33332 26.8333 9.83332 28.3333 11.6667 28.3333H31.6667V24.9999H12.3667C12.1333 24.9999 11.95 24.8166 11.95 24.5833L12 24.3833L13.5 21.6666H25.9167C27.1667 21.6666 28.2667 20.9833 28.8333 19.9499L34.8 9.13325C34.9333 8.89992 35 8.61659 35 8.33325C35 7.41659 34.25 6.66659 33.3333 6.66659H8.68332L7.11666 3.33325H1.66666ZM28.3333 29.9999C26.5 29.9999 25.0167 31.4999 25.0167 33.3333C25.0167 35.1666 26.5 36.6666 28.3333 36.6666C30.1667 36.6666 31.6667 35.1666 31.6667 33.3333C31.6667 31.4999 30.1667 29.9999 28.3333 29.9999Z" fill="#0050FF"/>
</svg>
