<svg width="60" height="61" viewBox="0 0 60 61" fill="none" xmlns="http://www.w3.org/2000/svg">
<path d="M45 23.3311V18.3311H40V7.93105C36.925 6.58105 33.55 5.83105 29.975 5.83105C16.175 5.83105 5 17.0311 5 30.8311C5 44.6311 16.175 55.8311 29.975 55.8311C43.8 55.8311 55 44.6311 55 30.8311C55 28.2061 54.575 25.7061 53.825 23.3311H45ZM38.75 20.8311C40.825 20.8311 42.5 22.5061 42.5 24.5811C42.5 26.6561 40.825 28.3311 38.75 28.3311C36.675 28.3311 35 26.6561 35 24.5811C35 22.5061 36.675 20.8311 38.75 20.8311ZM21.25 20.8311C23.325 20.8311 25 22.5061 25 24.5811C25 26.6561 23.325 28.3311 21.25 28.3311C19.175 28.3311 17.5 26.6561 17.5 24.5811C17.5 22.5061 19.175 20.8311 21.25 20.8311ZM30 44.5811C24.175 44.5811 19.225 40.9311 17.225 35.8311H42.775C40.775 40.9311 35.825 44.5811 30 44.5811ZM55 8.33105H60V13.3311H55V18.3311H50V13.3311H45V8.33105H50V3.33105H55V8.33105Z" fill="#FA8750" fill-opacity="0.85"/>
</svg>
