<svg width="40" height="40" viewBox="0 0 40 40" fill="none" xmlns="http://www.w3.org/2000/svg">
<path d="M18.3334 15.0003H21.6667V10.0003H26.6667V6.66699H21.6667V1.66699H18.3334V6.66699H13.3334V10.0003H18.3334V15.0003ZM11.6667 30.0003C9.83341 30.0003 8.35008 31.5003 8.35008 33.3337C8.35008 35.167 9.83341 36.667 11.6667 36.667C13.5001 36.667 15.0001 35.167 15.0001 33.3337C15.0001 31.5003 13.5001 30.0003 11.6667 30.0003ZM28.3334 30.0003C26.5001 30.0003 25.0167 31.5003 25.0167 33.3337C25.0167 35.167 26.5001 36.667 28.3334 36.667C30.1667 36.667 31.6667 35.167 31.6667 33.3337C31.6667 31.5003 30.1667 30.0003 28.3334 30.0003ZM11.9501 24.5837L12.0001 24.3837L13.5001 21.667H25.9167C27.1667 21.667 28.2667 20.9837 28.8334 19.9503L35.2667 8.26699L32.3667 6.66699H32.3501L30.5167 10.0003L25.9167 18.3337H14.2167L14.0001 17.8837L10.2667 10.0003L8.68341 6.66699L7.11675 3.33366H1.66675V6.66699H5.00008L11.0001 19.317L8.75008 23.4003C8.48341 23.867 8.33341 24.417 8.33341 25.0003C8.33341 26.8337 9.83341 28.3337 11.6667 28.3337H31.6667V25.0003H12.3667C12.1501 25.0003 11.9501 24.817 11.9501 24.5837Z" fill="#6494FF"/>
</svg>
