<svg width="41" height="40" viewBox="0 0 41 40" fill="none" xmlns="http://www.w3.org/2000/svg">
<path d="M4.41644 23.048C4.0431 23.048 3.72844 22.92 3.47244 22.664C3.21644 22.408 3.08844 22.0933 3.08844 21.72C3.08844 21.3573 3.21644 21.0533 3.47244 20.808C3.72844 20.552 4.0431 20.424 4.41644 20.424C4.76844 20.424 5.07244 20.552 5.32844 20.808C5.58444 21.0533 5.71244 21.3573 5.71244 21.72C5.71244 22.0827 5.58444 22.3973 5.32844 22.664C5.07244 22.92 4.76844 23.048 4.41644 23.048ZM12.3801 23.272C11.1321 23.272 10.1134 22.9147 9.32406 22.2C8.53473 21.4853 8.14006 20.6267 8.14006 19.624V15.624C8.14006 14.6107 8.53473 13.7467 9.32406 13.032C10.1134 12.3067 11.1321 11.944 12.3801 11.944C13.6281 11.944 14.6467 12.3067 15.4361 13.032C16.2254 13.7467 16.6201 14.6107 16.6201 15.624V15.8L14.1721 15.928L14.1401 15.384C14.1401 15.0427 13.9854 14.7227 13.6761 14.424C13.3774 14.1253 12.9454 13.976 12.3801 13.976C11.8254 13.976 11.3881 14.1307 11.0681 14.44C10.7481 14.7387 10.5881 15.0533 10.5881 15.384V19.736C10.5881 20.0773 10.7481 20.4133 11.0681 20.744C11.3987 21.0747 11.8361 21.24 12.3801 21.24C12.9454 21.24 13.3774 21.1067 13.6761 20.84C13.9854 20.5627 14.1454 20.2587 14.1561 19.928L14.2041 19.384L16.6201 19.464V19.624C16.6201 20.6587 16.2521 21.528 15.5161 22.232C14.7801 22.9253 13.7347 23.272 12.3801 23.272ZM25.8423 22.2C25.053 22.9147 24.0343 23.272 22.7863 23.272C21.5383 23.272 20.5196 22.9147 19.7303 22.2C18.941 21.4853 18.5463 20.6267 18.5463 19.624V15.624C18.5463 14.6107 18.941 13.7467 19.7303 13.032C20.5196 12.3067 21.5383 11.944 22.7863 11.944C24.0343 11.944 25.053 12.3067 25.8423 13.032C26.6316 13.7467 27.0263 14.6107 27.0263 15.624V19.624C27.0263 20.6267 26.6316 21.4853 25.8423 22.2ZM22.7863 21.24C23.341 21.24 23.773 21.08 24.0823 20.76C24.3916 20.4293 24.5463 20.088 24.5463 19.736V15.384C24.5463 15.0427 24.3916 14.7227 24.0823 14.424C23.7836 14.1253 23.3516 13.976 22.7863 13.976C22.2316 13.976 21.7943 14.1307 21.4743 14.44C21.165 14.7387 21.0103 15.0533 21.0103 15.384V19.736C21.0103 20.0773 21.1703 20.4133 21.4903 20.744C21.8103 21.0747 22.2423 21.24 22.7863 21.24ZM36.0261 12.056H38.3461V23H35.9621V15.336L34.2821 18.712H32.9861L31.2901 15.32V23H28.9221V12.056H31.2421L33.6421 15.912L36.0261 12.056Z" fill="#6494FF"/>
</svg>
