<svg width="41" height="40" viewBox="0 0 41 40" fill="none" xmlns="http://www.w3.org/2000/svg">
<path d="M28.8333 18.3333C29.4 18.3333 29.95 18.4 30.5 18.4833V10.45L18 5L5.5 10.45V18.6333C5.5 26.2 10.8333 33.2833 18 35C18.9167 34.7833 19.8 34.4667 20.6667 34.0833C19.5167 32.45 18.8333 30.4667 18.8333 28.3333C18.8333 22.8167 23.3167 18.3333 28.8333 18.3333Z" fill="#6494FF"/>
<path d="M28.8334 21.667C25.1501 21.667 22.1667 24.6503 22.1667 28.3337C22.1667 32.017 25.1501 35.0003 28.8334 35.0003C32.5167 35.0003 35.5001 32.017 35.5001 28.3337C35.5001 24.6503 32.5167 21.667 28.8334 21.667ZM28.8334 23.967C29.8667 23.967 30.7001 24.817 30.7001 25.8337C30.7001 26.8503 29.8501 27.7003 28.8334 27.7003C27.8167 27.7003 26.9667 26.8503 26.9667 25.8337C26.9667 24.817 27.8001 23.967 28.8334 23.967ZM28.8334 32.917C27.2834 32.917 25.9334 32.1503 25.1001 30.967C25.1834 29.767 27.6167 29.167 28.8334 29.167C30.0501 29.167 32.4834 29.767 32.5667 30.967C31.7334 32.1503 30.3834 32.917 28.8334 32.917Z" fill="#6494FF"/>
</svg>
