<svg width="24" height="24" viewBox="0 0 24 24" fill="none" xmlns="http://www.w3.org/2000/svg">
<path d="M7.04973 0.0012667C5.22298 -0.0452368 3.55797 1.19277 3.13097 3.04359L2.5087 5.73862C4.24418 2.90935 7.2314 1.04295 10.5346 0.723229L7.83961 0.100961C7.57521 0.0398911 7.31069 0.00791004 7.04973 0.0012667ZM11.7847 2.46405C7.72051 2.55446 4.01355 5.25788 2.83408 9.37144C1.38243 14.4343 4.31 19.7144 9.37228 21.166C14.4346 22.6177 19.7152 19.6907 21.1669 14.6278C22.6185 9.56501 19.6915 4.2849 14.6287 2.83324C13.6794 2.56106 12.7225 2.44318 11.7847 2.46405ZM18.2615 2.50787C21.0908 4.24335 22.9572 7.23056 23.2769 10.5338L23.8992 7.83877C24.3877 5.72355 23.0718 3.61813 20.9565 3.13013L18.2615 2.50787ZM9.86417 5.59949C10.0127 5.61098 10.1624 5.63793 10.3112 5.68056C11.502 6.02159 12.1903 7.26364 11.8493 8.45447C11.5083 9.6453 10.2651 10.3336 9.07429 9.99261C7.88346 9.65157 7.19564 8.40952 7.53724 7.2187C7.83614 6.17672 8.82431 5.51903 9.86417 5.59949ZM16.3344 7.45534C16.483 7.46687 16.6326 7.4937 16.7814 7.5364C17.9723 7.87744 18.6612 9.11949 18.3196 10.3103C17.9785 11.5006 16.7354 12.1895 15.5446 11.8485C14.3537 11.5074 13.6654 10.2654 14.0064 9.07455C14.3048 8.03257 15.2942 7.37461 16.3344 7.45534ZM12.0202 10.8789C12.6395 10.8896 13.1319 11.3995 13.1212 12.0194C13.1106 12.6386 12.6006 13.131 11.9808 13.1204C11.3615 13.1097 10.8691 12.5997 10.8797 11.9799C10.8904 11.3607 11.4004 10.8682 12.0202 10.8789ZM8.00942 12.0709C8.15802 12.0823 8.30755 12.1082 8.4564 12.1508C9.64723 12.4919 10.3361 13.735 9.99454 14.9258C9.65294 16.1167 8.4098 16.8045 7.21953 16.4629C6.02871 16.1218 5.3398 14.8798 5.68139 13.689C5.9798 12.647 6.96919 11.9904 8.00942 12.0709ZM0.724066 13.4666L0.101798 16.1616C-0.3862 18.2768 0.929204 20.3817 3.04442 20.8702L5.73946 21.4925C2.91075 19.757 1.04379 16.7698 0.724066 13.4666ZM14.4786 13.9256C14.6272 13.9371 14.7778 13.964 14.9267 14.0067C16.1175 14.3477 16.8053 15.5898 16.4637 16.7806C16.1221 17.9714 14.8806 18.6598 13.6898 18.3187C12.499 17.9777 11.8106 16.7356 12.1517 15.5448C12.4501 14.5028 13.4384 13.8452 14.4786 13.9256ZM21.4934 18.2607C19.7579 21.0894 16.7707 22.9563 13.4674 23.2761L16.1624 23.8983C18.2777 24.3863 20.3825 23.0709 20.8711 20.9557L21.4934 18.2607Z" fill="#5C5F62"/>
</svg>
