<svg width="36" height="37" viewBox="0 0 36 37" fill="none" xmlns="http://www.w3.org/2000/svg">
<g clip-path="url(#clip0_4024_16671)">
<path d="M32.3194 10.3064C31.1751 8.85459 29.2491 7.32163 26.1823 7.19578C27.6474 4.74025 27.4855 1.75753 27.4763 1.60903L27.4124 0.573533L26.3769 0.509689C26.2006 0.49858 22.0256 0.272174 19.4849 2.81271C18.8188 3.47878 18.3432 4.25714 18.0038 5.04639C17.6501 4.00689 17.3027 3.17081 17.0997 2.70653L14.9486 3.64731C15.2952 4.43967 16.2588 6.78114 16.6533 9.13352C15.6064 8.53642 14.3154 7.81389 12.8107 7.48392C7.94364 6.41678 5.15842 8.42969 3.67926 10.3064C2.008 12.4267 1.08775 15.5855 1.08789 19.2011C1.08803 22.6102 1.88298 26.1264 3.32636 29.1018C4.39054 31.2957 5.72971 33.0521 7.30689 34.3221C9.10133 35.7673 11.104 36.5 13.2593 36.5C15.6194 36.5 16.5685 36.0714 17.2614 35.7585C17.6181 35.5974 17.7432 35.5465 17.9994 35.5465C18.2556 35.5465 18.3807 35.5975 18.7374 35.7585C19.4304 36.0714 20.3795 36.5 22.7394 36.5C24.8948 36.5 26.8974 35.7673 28.6917 34.3223C30.2688 33.0522 31.6081 31.2958 32.6723 29.102C34.1156 26.1264 34.9106 22.6104 34.9107 19.2012C34.911 15.5855 33.9907 12.4267 32.3194 10.3064ZM21.1452 4.47278C22.2652 3.35285 23.9704 3.00002 25.093 2.89286C24.9858 4.01624 24.6329 5.72111 23.5131 6.84077C23.0757 7.27825 22.5488 7.59824 22.0023 7.83274C21.8604 7.88456 21.7205 7.93877 21.5833 7.99537C20.8624 8.24716 20.138 8.36606 19.5653 8.42069C19.6724 7.29738 20.0254 5.59251 21.1452 4.47278ZM30.5599 28.0772C27.9959 33.3629 24.5595 34.1521 22.7394 34.1521C20.8849 34.1521 20.2573 33.8688 19.7035 33.6187C19.2675 33.4218 18.7733 33.1986 17.9994 33.1986C17.2254 33.1986 16.7312 33.4218 16.2952 33.6187C15.7414 33.8687 15.1139 34.152 13.2593 34.152C11.4392 34.152 8.00291 33.3628 5.43883 28.0771C4.16603 25.4532 3.43584 22.2179 3.43577 19.2011C3.43562 16.1105 4.177 13.4678 5.5232 11.7598C7.07071 9.79635 9.3534 9.12944 12.3079 9.77737C13.5051 10.0398 14.6545 10.6959 15.5782 11.2231C16.5213 11.7616 17.2664 12.1868 17.9994 12.1868C18.7324 12.1868 19.4774 11.7615 20.4206 11.2231C21.3442 10.696 22.4936 10.0398 23.6908 9.77737C26.6453 9.12944 28.928 9.79642 30.4756 11.7598C31.8218 13.4678 32.5631 16.1105 32.563 19.2011C32.5629 22.218 31.8327 25.4533 30.5599 28.0772Z" fill="#6494FF"/>
</g>
<defs>
<clipPath id="clip0_4024_16671">
<rect width="36" height="36" fill="white" transform="translate(0 0.5)"/>
</clipPath>
</defs>
</svg>
