<svg width="40" height="40" viewBox="0 0 40 40" fill="none" xmlns="http://www.w3.org/2000/svg">
<path fill-rule="evenodd" clip-rule="evenodd" d="M20 1.66675C15.6277 1.66675 12.0833 5.21116 12.0833 9.58341V10.3097C11.4489 10.4349 10.8625 10.6137 10.2994 10.8718C8.62363 11.64 7.20502 12.8752 6.2136 14.4294C5.61353 15.37 5.25747 16.4222 4.97776 17.7059C4.70371 18.9635 4.48596 20.5314 4.20892 22.5261L4.19358 22.6366C3.83707 25.2034 3.55837 27.2099 3.47373 28.8262C3.38778 30.4672 3.49175 31.8348 3.98542 33.0903C4.79229 35.1423 6.2821 36.8533 8.20362 37.9348C9.37927 38.5965 10.7195 38.8876 12.3568 39.0283C13.9693 39.1668 15.9951 39.1668 18.5866 39.1667H21.4134C24.0049 39.1668 26.0307 39.1668 27.6432 39.0283C29.2805 38.8876 30.6207 38.5965 31.7964 37.9348C33.7179 36.8533 35.2077 35.1423 36.0146 33.0903C36.5082 31.8348 36.6122 30.4672 36.5263 28.8262C36.4416 27.2099 36.1629 25.2033 35.8064 22.6364L35.7911 22.526C35.514 20.5314 35.2963 18.9635 35.0222 17.7059C34.7425 16.4222 34.3865 15.37 33.7864 14.4294C32.795 12.8752 31.3764 11.64 29.7006 10.8718C29.1375 10.6137 28.5511 10.4349 27.9167 10.3097V9.58341C27.9167 5.21116 24.3722 1.66675 20 1.66675ZM13.3333 19.1667C12.643 19.1667 12.0833 18.6071 12.0833 17.9167V12.8761C11.8119 12.9514 11.5685 13.0402 11.3412 13.1444C10.1026 13.7122 9.05404 14.6252 8.32126 15.7739C7.94299 16.3668 7.66836 17.1004 7.42044 18.2381C7.16918 19.3912 6.96373 20.8642 6.67805 22.9211C6.31155 25.56 6.04868 27.4605 5.9703 28.957C5.89258 30.4411 6.00647 31.3984 6.31202 32.1754C6.9084 33.6922 8.00957 34.9568 9.42982 35.7562C10.1575 36.1657 11.09 36.4102 12.5707 36.5374C14.0637 36.6657 15.9823 36.6667 18.6465 36.6667H21.3535C24.0177 36.6667 25.9363 36.6657 27.4293 36.5374C28.91 36.4102 29.8425 36.1657 30.5702 35.7562C31.9904 34.9568 33.0916 33.6922 33.688 32.1754C33.9935 31.3984 34.1074 30.4411 34.0297 28.957C33.9513 27.4605 33.6884 25.56 33.3219 22.9211C33.0363 20.8642 32.8308 19.3912 32.5796 18.2381C32.3316 17.1004 32.057 16.3668 31.6787 15.7739C30.946 14.6252 29.8974 13.7122 28.6588 13.1444C28.4315 13.0402 28.1881 12.9514 27.9167 12.8761V17.9167C27.9167 18.6071 27.357 19.1667 26.6667 19.1667C25.9763 19.1667 25.4167 18.6071 25.4167 17.9167V12.5501C24.3602 12.5009 23.0564 12.5001 21.3535 12.5001H18.6465C16.9436 12.5001 15.6398 12.5009 14.5833 12.5501V17.9167C14.5833 18.6071 14.0237 19.1667 13.3333 19.1667ZM21.429 10.0001C22.9954 10.0001 24.3035 10.0001 25.4167 10.0478V9.58341C25.4167 6.59187 22.9915 4.16675 20 4.16675C17.0085 4.16675 14.5833 6.59187 14.5833 9.58341V10.0478C15.6965 10.0001 17.0046 10.0001 18.571 10.0001H21.429Z" fill="#5C5F62"/>
</svg>
