<svg width="41" height="40" viewBox="0 0 41 40" fill="none" xmlns="http://www.w3.org/2000/svg">
<path fill-rule="evenodd" clip-rule="evenodd" d="M21.9287 10.0001C24.1949 10.0001 25.9204 10.0001 27.2971 10.1447C28.3845 10.259 29.3208 10.4686 30.2004 10.8718C31.8761 11.64 33.2947 12.8752 34.2862 14.4294C34.8862 15.37 35.2423 16.4222 35.522 17.7059C35.796 18.9634 36.0138 20.5312 36.2908 22.5258L36.3061 22.6364C36.6627 25.2033 36.9414 27.2099 37.026 28.8262C37.112 30.4672 37.008 31.8348 36.5143 33.0903C35.7075 35.1423 34.2177 36.8533 32.2961 37.9348C31.1205 38.5965 29.7803 38.8876 28.143 39.0283C26.5304 39.1668 24.5046 39.1668 21.9132 39.1667H19.0863C16.4949 39.1668 14.4691 39.1668 12.8565 39.0283C11.2193 38.8876 9.87903 38.5965 8.70338 37.9348C6.78185 36.8533 5.29204 35.1423 4.48517 33.0903C3.99151 31.8348 3.88754 30.4672 3.97348 28.8262C4.05813 27.2099 4.33683 25.2034 4.69334 22.6366L4.70868 22.5261C4.98571 20.5314 5.20347 18.9635 5.47752 17.7059C5.75723 16.4222 6.11329 15.37 6.71336 14.4294C7.70477 12.8752 9.12338 11.64 10.7991 10.8718C11.6787 10.4686 12.6151 10.259 13.7024 10.1447C15.0791 10.0001 16.8046 10.0001 19.0708 10.0001H21.9287ZM12.5832 9.58341C12.5832 5.21116 16.1276 1.66675 20.4998 1.66675C24.8721 1.66675 28.4165 5.21116 28.4165 9.58341V17.9167C28.4165 18.6071 27.8569 19.1667 27.1665 19.1667C26.4761 19.1667 25.9165 18.6071 25.9165 17.9167V9.58341C25.9165 6.59187 23.4914 4.16675 20.4998 4.16675C17.5083 4.16675 15.0832 6.59187 15.0832 9.58341V17.9167C15.0832 18.6071 14.5235 19.1667 13.8332 19.1667C13.1428 19.1667 12.5832 18.6071 12.5832 17.9167V9.58341Z" fill="white"/>
</svg>
