<svg width="36" height="37" viewBox="0 0 36 37" fill="none" xmlns="http://www.w3.org/2000/svg">
<path d="M19.5 12.245C20.775 11.795 21.795 10.775 22.245 9.5H27L22.5 20C22.5 22.49 24.855 24.5 27.75 24.5C30.645 24.5 33 22.49 33 20L28.5 9.5H31.5V6.5H22.245C21.63 4.745 19.965 3.5 18 3.5C16.035 3.5 14.37 4.745 13.755 6.5H4.5V9.5H7.5L3 20C3 22.49 5.355 24.5 8.25 24.5C11.145 24.5 13.5 22.49 13.5 20L9 9.5H13.755C14.205 10.775 15.225 11.795 16.5 12.245V29H3V32H33V29H19.5V12.245ZM30.555 20H24.945L27.75 13.46L30.555 20ZM11.055 20H5.445L8.25 13.46L11.055 20ZM18 9.5C17.175 9.5 16.5 8.825 16.5 8C16.5 7.175 17.175 6.5 18 6.5C18.825 6.5 19.5 7.175 19.5 8C19.5 8.825 18.825 9.5 18 9.5Z" fill="#6494FF"/>
</svg>
