<svg width="36" height="37" viewBox="0 0 36 37" fill="none" xmlns="http://www.w3.org/2000/svg">
<path d="M25.815 14.0003L19.245 4.16027C18.96 3.74027 18.48 3.53027 18 3.53027C17.52 3.53027 17.04 3.74027 16.755 4.17527L10.185 14.0003H3C2.175 14.0003 1.5 14.6753 1.5 15.5003C1.5 15.6353 1.515 15.7703 1.56 15.9053L5.37 29.8103C5.715 31.0703 6.87 32.0003 8.25 32.0003H27.75C29.13 32.0003 30.285 31.0703 30.645 29.8103L34.455 15.9053L34.5 15.5003C34.5 14.6753 33.825 14.0003 33 14.0003H25.815ZM13.5 14.0003L18 7.40027L22.5 14.0003H13.5ZM18 26.0003C16.35 26.0003 15 24.6503 15 23.0003C15 21.3503 16.35 20.0003 18 20.0003C19.65 20.0003 21 21.3503 21 23.0003C21 24.6503 19.65 26.0003 18 26.0003Z" fill="#6494FF"/>
</svg>
