<svg width="1440" height="436" viewBox="0 0 1440 436" fill="none" xmlns="http://www.w3.org/2000/svg">
<g clip-path="url(#clip0_3900_52542)">
<g filter="url(#filter0_d_3900_52542)">
<path d="M-2 0V320.845C50.5597 344.965 107.098 366.896 163.613 356.2C219.731 345.578 267.126 300.327 278.823 246.178C283.88 222.761 282.728 198.539 284.499 174.72C286.269 150.901 291.57 126.117 307.246 107.612C322.921 89.1067 351.411 79.0572 373.398 90.0311C410.458 108.525 406.457 169.117 444.255 186.159C466.06 195.987 492.774 186.777 511.224 171.839C569.641 124.512 616.934 69.0021 703.5 95.8895C748.081 109.733 1072.4 219.653 1440.01 150.98V0H-2Z" fill="#F6F9FF"/>
</g>
<path d="M417.144 359.994C413.477 369.614 408.039 378.463 401.111 386.082C397.947 389.561 394.533 392.804 390.895 395.785C389.147 397.209 387.428 398.547 385.702 399.789C383.977 401.031 382.235 402.154 380.56 403.192C377.493 405.131 374.317 406.894 371.048 408.472C368.51 409.74 365.907 410.876 363.25 411.874C358.801 413.576 356.099 414.285 356.099 414.285C356.099 414.285 355.68 411.449 355.311 406.816C355.146 404.491 354.953 401.712 354.743 398.592C354.533 395.473 354.465 392.048 354.34 388.344C354.3 386.501 354.283 384.607 354.306 382.673C354.329 380.739 354.306 378.703 354.357 376.724C354.522 372.726 354.652 368.529 355.135 364.372C355.929 355.967 357.518 347.455 360.577 339.203C363.636 330.951 367.887 323.414 372.723 316.518C375.044 313.036 377.666 309.752 380.101 306.599C381.355 305.028 382.643 303.503 383.909 302.028C385.174 300.554 386.378 299.113 387.604 297.735C390.089 294.99 392.382 292.444 394.545 290.181L400.305 284.277C403.591 280.982 405.742 279.094 405.742 279.094C405.742 279.094 407.337 281.362 409.635 285.559C411.014 288.041 412.265 290.593 413.381 293.204C414.854 296.518 416.133 299.915 417.212 303.378C417.81 305.268 418.377 307.246 418.915 309.31C419.425 311.369 419.868 313.507 420.277 315.718C421.129 320.346 421.64 325.03 421.803 329.732C422.156 340.022 420.575 350.286 417.144 359.994Z" fill="url(#paint0_linear_3900_52542)"/>
<path d="M421.775 335.035L421.832 333.413C419.732 334.496 417.03 335.971 414.017 337.808C411.003 339.645 407.53 341.778 404.102 344.313C397.087 349.315 389.913 355.593 384.119 363.385C387.717 354.958 390.861 346.338 393.665 337.615C394.225 335.866 394.912 334.161 395.719 332.511C396.462 330.887 397.309 329.313 398.256 327.798C400.115 324.867 402.221 322.099 404.55 319.524C406.766 317.115 409.114 314.829 411.582 312.679C413.937 310.637 416.304 308.851 418.392 307.308C418.256 306.832 418.126 306.355 417.989 305.884C411.344 310.762 402.45 318.157 396.627 327.923C401.124 312.222 404.373 296.191 406.344 279.978L405.776 279.116L404.998 279.819C403.047 295.959 399.821 311.918 395.35 327.549C395.572 316.132 390.56 305.947 386.071 299.572L385.14 300.576C386.696 302.829 388.073 305.199 389.261 307.665C390.663 310.487 391.773 313.443 392.575 316.49C393.481 319.769 393.948 323.154 393.966 326.556C393.974 328.329 393.862 330.101 393.631 331.859C393.348 333.667 392.927 335.451 392.371 337.195C389.601 345.884 386.451 354.453 382.87 362.864C384.516 353.336 382.779 343.961 380.072 336.345C378.779 332.851 377.221 329.462 375.413 326.205C374.031 323.771 372.515 321.416 370.872 319.15L370.129 320.318C374.769 326.778 378.217 334.015 380.311 341.687C382.859 351.141 383.239 362.58 378.29 373.174C376.752 376.503 375.106 379.787 373.489 383.082C371.752 386.314 370.14 389.615 368.307 392.796C371.565 381.165 369.72 369.38 366.746 360.589C364.825 354.874 362.153 349.439 358.801 344.426L358.353 346.037C359.954 348.54 361.38 351.151 362.62 353.852C364.66 358.186 366.222 362.729 367.28 367.401C369.664 377.853 369.55 391.084 362.654 402.562C360.521 406.209 358.188 409.731 355.912 413.287L356.048 414.324L357.042 414.035C359.312 410.462 361.678 406.929 363.818 403.26C370.702 391.855 381.145 384.119 391.06 378.374C395.477 375.84 400.023 373.538 404.681 371.478C408.653 369.72 411.894 368.552 413.619 367.922L414.488 366.096C408.421 368.224 402.511 370.777 396.803 373.735C387.933 378.272 377.637 384.567 369.527 393.471C371.366 390.278 372.984 386.966 374.726 383.717C376.355 380.41 378.006 377.11 379.55 373.769C384.488 363.198 392.388 355.173 400.452 348.759C407.138 343.561 414.274 338.968 421.775 335.035Z" fill="url(#paint1_linear_3900_52542)"/>
<path d="M643.194 359.659C640.593 366.768 637.114 373.524 632.836 379.77C630.872 382.883 628.613 385.843 626.542 388.707C625.475 390.137 624.374 391.543 623.296 392.876C622.217 394.209 621.213 395.547 620.174 396.846C618.052 399.375 616.128 401.74 614.3 403.855L609.442 409.402C606.672 412.521 604.845 414.336 604.845 414.336C604.845 414.336 603.29 412.379 601.008 408.75C599.635 406.595 598.388 404.363 597.274 402.063C595.791 399.14 594.493 396.126 593.386 393.04C592.779 391.339 592.183 389.581 591.616 387.726C591.048 385.872 590.617 383.955 590.174 381.959C589.257 377.773 588.669 373.521 588.415 369.244C587.758 359.837 589.056 350.395 592.228 341.514C595.399 332.632 600.375 324.502 606.843 317.635C609.746 314.483 612.894 311.564 616.258 308.907C617.864 307.637 619.442 306.446 621.026 305.351C622.609 304.257 624.221 303.276 625.759 302.357C628.57 300.663 631.485 299.148 634.487 297.82C638.874 295.835 643.433 294.258 648.108 293.107C648.108 293.107 648.369 295.671 648.54 299.833C648.608 301.926 648.693 304.421 648.789 307.206C648.886 309.99 648.852 313.047 648.892 316.348C648.892 317.993 648.892 319.671 648.812 321.378C648.733 323.085 648.767 324.872 648.687 326.653C648.477 330.18 648.352 333.906 647.898 337.558C647.258 345.093 645.678 352.517 643.194 359.659Z" fill="url(#paint2_linear_3900_52542)"/>
<path d="M647.451 341.54L647.615 340.326C645.185 340.88 642.788 341.571 640.436 342.396C637.317 343.538 634.294 344.926 631.395 346.547C625.152 350.154 618.546 355.621 614.295 363.164C616.581 355.301 619.311 347.574 622.473 340.02C623.115 338.504 623.874 337.04 624.743 335.641C625.616 334.31 626.579 333.041 627.627 331.842C629.626 329.544 631.933 327.533 634.482 325.864C636.817 324.278 639.315 322.947 641.934 321.894C644.189 320.949 646.518 320.191 648.898 319.626C648.898 319.223 648.898 318.821 648.898 318.424C642.087 319.932 632.678 323.772 626.123 331.666C632.244 318.416 639.644 305.795 648.217 293.98C648.16 293.379 648.132 293.045 648.132 293.045L647.229 293.266C638.605 305.158 631.164 317.864 625.01 331.201C626.775 321.157 625.226 310.864 623.75 303.565L622.615 304.285C623.058 306.554 623.569 309.196 623.932 311.987C624.295 314.777 624.499 317.726 624.585 320.805C624.625 323.929 624.416 327.05 623.96 330.14C623.717 331.728 623.37 333.299 622.922 334.842C622.505 336.444 621.978 338.014 621.344 339.543C618.165 347.133 615.42 354.896 613.12 362.795C613.523 354.101 612.195 345.623 610.283 338.074C609.409 334.337 608.336 330.838 607.326 327.775C606.315 324.713 605.402 322.104 604.624 320.131L603.699 321.265C606.449 328.403 608.63 335.748 610.22 343.23C612.036 352.349 612.922 362.41 610.447 372.584C609.647 375.8 608.972 379.038 608.274 382.276C607.706 385.537 606.997 388.775 606.571 392.059C605.714 381.284 602.031 371.075 598.421 362.818C596.107 357.469 593.453 352.273 590.475 347.262L590.021 349.054C590.844 350.494 592.433 353.2 594.176 356.704C595.918 360.209 597.95 364.553 599.766 369.346C603.449 378.987 606.508 390.25 605.226 402.137C604.755 405.92 604.545 409.725 604.261 413.525L604.829 414.262L605.487 413.593C605.771 409.816 605.981 406.027 606.452 402.25C607.74 390.295 615.061 380.892 622.581 375.028C625.937 372.385 629.585 370.136 633.455 368.325C635.84 367.18 638.306 366.212 640.833 365.427L641.435 364.088C636.268 365.571 631.335 367.772 626.781 370.627C619.766 374.994 611.855 382.208 607.763 392.252C608.2 388.991 608.898 385.77 609.465 382.526C610.163 379.31 610.833 376.083 611.628 372.885C614.108 362.676 620.93 354.969 628.126 350.001C633.975 345.986 640.532 343.115 647.451 341.54Z" fill="url(#paint3_linear_3900_52542)"/>
<path d="M598.348 369.947C595.922 375.645 592.824 381.033 589.119 385.997C587.417 388.498 585.459 390.874 583.688 393.193C582.78 394.328 581.832 395.462 580.913 396.596C579.993 397.73 579.142 398.774 578.257 399.812L573.296 405.579L571.083 408.052L569.216 410.19C566.9 412.799 565.374 414.336 565.374 414.336C564.216 412.834 563.138 411.272 562.144 409.657C561.66 408.901 561.145 408.046 560.601 407.094C560.056 406.141 559.53 405.114 559.023 404.014C557.785 401.534 556.719 398.972 555.833 396.347C555.345 394.912 554.868 393.403 554.414 391.81C553.96 390.216 553.648 388.594 553.319 386.887C552.632 383.297 552.243 379.657 552.156 376.004C551.89 367.943 553.361 359.92 556.47 352.477C559.579 345.035 564.253 338.347 570.175 332.868C572.831 330.37 575.688 328.094 578.716 326.063C580.169 325.099 581.554 324.197 582.996 323.38C584.437 322.564 585.833 321.866 587.212 321.202C589.705 319.989 592.276 318.945 594.908 318.078C596.083 317.681 597.178 317.329 598.211 317.034C599.244 316.739 600.237 316.524 601.117 316.325C602.965 315.896 604.835 315.564 606.719 315.333C606.719 315.333 606.719 317.499 606.475 321.004C606.407 321.872 606.338 322.819 606.265 323.84C606.191 324.86 606.134 325.983 606.06 327.152C605.873 329.488 605.663 332.046 605.447 334.734C605.328 336.09 605.192 337.479 605.027 338.88C604.863 340.281 604.761 341.766 604.579 343.224C604.17 346.116 603.864 349.179 603.279 352.139C602.347 358.249 600.692 364.227 598.348 369.947Z" fill="url(#paint4_linear_3900_52542)"/>
<path d="M602.689 355.349L602.887 354.368C600.832 354.655 598.797 355.068 596.792 355.604C594.133 356.36 591.541 357.337 589.045 358.525C583.671 361.179 577.87 365.427 574.056 371.62C576.244 365.114 578.868 358.763 581.911 352.61C582.523 351.377 583.226 350.192 584.017 349.065C584.827 348.008 585.706 347.006 586.65 346.065C588.455 344.268 590.51 342.74 592.751 341.528C594.798 340.369 596.97 339.448 599.227 338.783C601.167 338.17 603.157 337.727 605.174 337.462L605.282 336.469C599.522 337.15 591.378 339.662 585.419 345.884C591.316 335.161 598.46 325.171 606.701 316.121C606.701 315.616 606.701 315.333 606.701 315.333L605.935 315.429C597.646 324.537 590.461 334.59 584.527 345.379C586.599 337.082 586.054 328.365 585.424 322.087L584.414 322.615C584.596 324.56 584.828 326.817 584.919 329.193C585.01 331.57 584.964 334.048 584.834 336.64C584.65 339.262 584.271 341.866 583.699 344.432C583.406 345.746 583.026 347.04 582.564 348.305C582.129 349.624 581.604 350.91 580.992 352.156C577.923 358.347 575.282 364.74 573.086 371.291C573.595 364.295 573.165 357.263 571.809 350.381C571.281 347.194 570.583 344.177 569.919 341.528C569.255 338.88 568.67 336.64 568.148 334.91L567.291 335.84C569.125 342.039 570.528 348.356 571.491 354.748C572.552 362.523 572.893 370.973 570.543 379.435C569.789 382.106 569.153 384.817 568.489 387.511C567.967 390.239 567.297 392.938 566.9 395.689C566.332 386.649 563.495 377.966 560.753 370.86C559.012 366.256 557.009 361.755 554.754 357.379L554.289 358.894C554.913 360.147 556.134 362.512 557.462 365.546C558.79 368.58 560.333 372.352 561.712 376.429C564.516 384.703 566.82 394.174 565.725 404.139C565.299 407.309 565.157 410.502 564.913 413.689L565.384 414.307L565.952 413.74C566.185 410.576 566.338 407.4 566.758 404.252C567.893 394.22 574.244 386.462 580.685 381.805C583.559 379.713 586.679 377.982 589.976 376.65C591.999 375.797 594.086 375.105 596.219 374.58L596.786 373.514C592.411 374.483 588.204 376.094 584.3 378.295C578.313 381.664 571.48 387.482 567.921 395.876C568.319 393.148 568.988 390.46 569.505 387.755C570.163 385.072 570.793 382.384 571.548 379.73C573.898 371.223 579.942 365.03 586.179 361.27C591.23 358.211 596.844 356.197 602.689 355.349Z" fill="url(#paint5_linear_3900_52542)"/>
<path d="M251.786 202.192C251.788 198.813 251.419 195.445 250.685 192.148C250.432 191.065 250.533 189.93 250.973 188.909C251.413 187.889 252.17 187.036 253.131 186.476L257.671 183.845C258.263 183.505 258.781 183.052 259.197 182.511C259.612 181.97 259.917 181.353 260.094 180.695C260.27 180.036 260.315 179.349 260.226 178.673C260.136 177.998 259.914 177.346 259.573 176.756L254.783 168.436C254.442 167.846 253.988 167.329 253.447 166.914C252.906 166.499 252.288 166.194 251.629 166.018C250.971 165.842 250.283 165.796 249.607 165.885C248.931 165.974 248.279 166.196 247.688 166.536L243.12 169.173C242.154 169.724 241.037 169.952 239.932 169.823C238.827 169.695 237.793 169.217 236.979 168.459C231.997 163.864 226.055 160.434 219.584 158.415C218.521 158.092 217.59 157.436 216.927 156.545C216.264 155.654 215.905 154.574 215.901 153.464V148.196C215.901 146.819 215.354 145.499 214.38 144.526C213.406 143.553 212.085 143.006 210.708 143.006H201.094C199.716 143.006 198.395 143.553 197.422 144.526C196.448 145.499 195.901 146.819 195.901 148.196V153.464C195.897 154.574 195.537 155.654 194.874 156.545C194.211 157.436 193.28 158.092 192.217 158.415C185.745 160.435 179.801 163.865 174.817 168.459C174.004 169.217 172.971 169.695 171.867 169.824C170.763 169.953 169.646 169.725 168.682 169.173L164.113 166.536C163.522 166.196 162.87 165.974 162.194 165.885C161.518 165.796 160.831 165.842 160.172 166.018C159.513 166.194 158.896 166.499 158.355 166.914C157.814 167.329 157.36 167.846 157.019 168.436L152.212 176.756C151.87 177.346 151.648 177.998 151.558 178.673C151.469 179.349 151.514 180.036 151.69 180.695C151.867 181.353 152.172 181.97 152.588 182.511C153.003 183.052 153.522 183.505 154.113 183.845L158.653 186.476C159.615 187.036 160.372 187.888 160.813 188.909C161.254 189.93 161.357 191.065 161.105 192.148C159.629 198.762 159.629 205.621 161.105 212.235C161.357 213.318 161.254 214.453 160.813 215.474C160.372 216.495 159.615 217.347 158.653 217.907L154.113 220.532C152.919 221.221 152.049 222.356 151.692 223.686C151.336 225.017 151.523 226.434 152.212 227.627L157.019 235.924C157.708 237.115 158.843 237.984 160.173 238.34C161.503 238.696 162.92 238.511 164.113 237.824L168.682 235.187C169.649 234.638 170.766 234.413 171.871 234.546C172.975 234.678 174.007 235.162 174.817 235.924C179.802 240.517 185.745 243.947 192.217 245.968C193.28 246.29 194.211 246.945 194.874 247.835C195.536 248.725 195.896 249.804 195.901 250.913V256.182C195.9 256.863 196.034 257.539 196.294 258.169C196.555 258.798 196.938 259.371 197.42 259.853C197.902 260.335 198.475 260.717 199.105 260.978C199.736 261.238 200.411 261.372 201.094 261.371H210.708C212.085 261.371 213.406 260.824 214.38 259.851C215.354 258.878 215.901 257.558 215.901 256.182V250.913C215.905 249.804 216.265 248.725 216.928 247.835C217.591 246.945 218.522 246.29 219.584 245.968C226.054 243.946 231.995 240.516 236.979 235.924C237.792 235.165 238.827 234.686 239.932 234.557C241.037 234.428 242.154 234.657 243.12 235.21L247.688 237.847C248.882 238.533 250.299 238.719 251.629 238.363C252.959 238.007 254.093 237.138 254.783 235.947L259.59 227.627C260.279 226.434 260.465 225.017 260.109 223.686C259.752 222.356 258.882 221.221 257.688 220.532L253.148 217.907C252.188 217.346 251.432 216.494 250.991 215.473C250.551 214.452 250.45 213.318 250.702 212.235C251.43 208.937 251.794 205.569 251.786 202.192ZM205.901 225.653C201.257 225.653 196.717 224.277 192.856 221.699C188.995 219.121 185.986 215.457 184.209 211.17C182.432 206.883 181.967 202.165 182.873 197.614C183.779 193.063 186.015 188.883 189.298 185.601C192.582 182.32 196.766 180.086 201.32 179.18C205.875 178.275 210.595 178.74 214.886 180.515C219.176 182.291 222.843 185.298 225.423 189.157C228.003 193.015 229.38 197.551 229.38 202.192C229.38 205.273 228.772 208.323 227.592 211.17C226.413 214.017 224.683 216.603 222.503 218.782C220.323 220.96 217.734 222.688 214.886 223.868C212.037 225.047 208.984 225.653 205.901 225.653Z" fill="url(#paint6_linear_3900_52542)"/>
<path d="M382.87 106.313C382.871 103.702 382.585 101.099 382.018 98.5494C381.822 97.7077 381.901 96.825 382.244 96.0316C382.587 95.2382 383.177 94.5761 383.925 94.1429L387.45 92.1125C388.371 91.58 389.043 90.7041 389.318 89.677C389.594 88.65 389.45 87.5557 388.92 86.6341L385.202 80.1973C384.668 79.2765 383.791 78.6049 382.762 78.3296C381.733 78.0543 380.637 78.1977 379.714 78.7284L376.184 80.7644C375.436 81.1889 374.572 81.3628 373.718 81.2608C372.865 81.1587 372.066 80.786 371.439 80.1973C367.586 76.6468 362.992 73.9951 357.989 72.4333C357.169 72.1815 356.451 71.674 355.94 70.9852C355.43 70.2964 355.153 69.4624 355.151 68.6052V64.5333C355.152 64.0065 355.049 63.4848 354.847 62.998C354.646 62.5112 354.35 62.0689 353.978 61.6964C353.605 61.3239 353.162 61.0286 352.675 60.8274C352.188 60.6261 351.666 60.5229 351.139 60.5237H343.704C343.176 60.5229 342.654 60.6261 342.167 60.8273C341.679 61.0284 341.236 61.3237 340.863 61.6961C340.49 62.0685 340.194 62.5107 339.992 62.9975C339.79 63.4844 339.686 64.0062 339.686 64.5333V68.6222C339.684 69.4796 339.408 70.3141 338.897 71.0031C338.387 71.692 337.668 72.1993 336.848 72.4503C331.844 74.0107 327.25 76.6626 323.397 80.2143C322.771 80.803 321.972 81.1757 321.118 81.2778C320.265 81.3799 319.4 81.2059 318.653 80.7814L315.117 78.7454C314.195 78.215 313.1 78.0717 312.072 78.3471C311.044 78.6224 310.168 79.2939 309.635 80.2143L305.917 86.6455C305.653 87.1018 305.481 87.6059 305.412 88.1287C305.342 88.6515 305.377 89.1828 305.514 89.6923C305.65 90.2017 305.886 90.6792 306.207 91.0974C306.529 91.5156 306.93 91.8664 307.387 92.1296L310.906 94.1599C311.649 94.5929 312.233 95.2519 312.574 96.0407C312.915 96.8294 312.995 97.7065 312.801 98.5437C311.666 103.658 311.666 108.958 312.801 114.072C312.995 114.909 312.915 115.786 312.574 116.575C312.233 117.363 311.649 118.023 310.906 118.456L307.387 120.486C306.93 120.749 306.529 121.1 306.207 121.518C305.886 121.936 305.65 122.414 305.514 122.923C305.377 123.433 305.342 123.964 305.412 124.487C305.481 125.01 305.653 125.514 305.917 125.97L309.578 132.407C310.111 133.327 310.987 133.999 312.015 134.274C313.043 134.549 314.138 134.406 315.06 133.876L318.596 131.84C319.344 131.415 320.208 131.241 321.062 131.343C321.916 131.445 322.714 131.818 323.341 132.407C327.203 135.956 331.807 138.602 336.82 140.154C337.64 140.406 338.357 140.913 338.868 141.602C339.379 142.291 339.655 143.125 339.657 143.982V148.054C339.657 149.119 340.081 150.14 340.834 150.893C341.588 151.646 342.61 152.069 343.676 152.069H351.11C351.638 152.069 352.16 151.965 352.647 151.763C353.134 151.561 353.577 151.266 353.95 150.893C354.322 150.52 354.618 150.077 354.819 149.59C355.02 149.103 355.123 148.581 355.123 148.054V143.982C355.126 143.125 355.403 142.291 355.913 141.603C356.424 140.914 357.141 140.406 357.96 140.154C362.974 138.596 367.578 135.944 371.439 132.39C372.066 131.801 372.865 131.428 373.718 131.326C374.572 131.224 375.436 131.398 376.184 131.823L379.714 133.859C380.637 134.389 381.733 134.533 382.762 134.257C383.791 133.982 384.668 133.31 385.202 132.39L388.92 125.959C389.451 125.036 389.594 123.941 389.319 122.913C389.043 121.885 388.371 121.008 387.45 120.474L383.925 118.461C383.184 118.027 382.601 117.367 382.261 116.579C381.922 115.79 381.842 114.914 382.035 114.077C382.596 111.528 382.876 108.924 382.87 106.313ZM347.393 124.461C343.801 124.461 340.29 123.397 337.303 121.403C334.316 119.409 331.989 116.574 330.614 113.258C329.24 109.942 328.88 106.293 329.581 102.773C330.281 99.2525 332.011 96.0188 334.551 93.4808C337.091 90.9427 340.327 89.2143 343.85 88.5141C347.373 87.8138 351.024 88.1732 354.343 89.5468C357.661 90.9204 360.498 93.2464 362.493 96.2309C364.489 99.2153 365.554 102.724 365.554 106.313C365.553 111.126 363.639 115.74 360.233 119.142C356.827 122.544 352.209 124.456 347.393 124.456V124.461Z" fill="url(#paint7_linear_3900_52542)"/>
<path d="M620.3 46.459H525.918C524.31 46.459 523.007 47.7615 523.007 49.3683V178.48C523.007 180.087 524.31 181.389 525.918 181.389H620.3C621.908 181.389 623.211 180.087 623.211 178.48V49.3683C623.211 47.7615 621.908 46.459 620.3 46.459Z" fill="url(#paint8_linear_3900_52542)"/>
<path d="M597.405 82.6699H538.853V87.4678H597.405V82.6699Z" fill="url(#paint9_linear_3900_52542)"/>
<path d="M597.405 101.147H538.853V105.945H597.405V101.147Z" fill="url(#paint10_linear_3900_52542)"/>
<path d="M597.405 119.624H538.853V124.422H597.405V119.624Z" fill="url(#paint11_linear_3900_52542)"/>
<path d="M597.405 138.101H538.853V142.898H597.405V138.101Z" fill="url(#paint12_linear_3900_52542)"/>
<path d="M597.405 156.578H538.853V161.376H597.405V156.578Z" fill="url(#paint13_linear_3900_52542)"/>
<path d="M548.582 61.7415V58.8367H562.268V61.7415H557.166V75.5007H553.684V61.7415H548.582ZM579.075 67.1687C579.075 68.9859 578.73 70.5319 578.041 71.8067C577.358 73.0814 576.425 74.0551 575.242 74.7277C574.065 75.395 572.742 75.7286 571.271 75.7286C569.791 75.7286 568.462 75.3922 567.284 74.7196C566.107 74.047 565.177 73.0733 564.494 71.7985C563.81 70.5238 563.468 68.9805 563.468 67.1687C563.468 65.3515 563.81 63.8055 564.494 62.5308C565.177 61.256 566.107 60.2851 567.284 59.6178C568.462 58.9452 569.791 58.6089 571.271 58.6089C572.742 58.6089 574.065 58.9452 575.242 59.6178C576.425 60.2851 577.358 61.256 578.041 62.5308C578.73 63.8055 579.075 65.3515 579.075 67.1687ZM575.503 67.1687C575.503 65.9916 575.326 64.9989 574.974 64.1907C574.627 63.3824 574.136 62.7695 573.501 62.3518C572.866 61.9341 572.123 61.7253 571.271 61.7253C570.42 61.7253 569.677 61.9341 569.042 62.3518C568.407 62.7695 567.914 63.3824 567.561 64.1907C567.214 64.9989 567.04 65.9916 567.04 67.1687C567.04 68.3458 567.214 69.3385 567.561 70.1468C567.914 70.955 568.407 71.568 569.042 71.9857C569.677 72.4034 570.42 72.6122 571.271 72.6122C572.123 72.6122 572.866 72.4034 573.501 71.9857C574.136 71.568 574.627 70.955 574.974 70.1468C575.326 69.3385 575.503 68.3458 575.503 67.1687ZM555.124 103.501H549.217V86.8367H555.173C556.849 86.8367 558.292 87.1703 559.502 87.8375C560.711 88.4993 561.642 89.4513 562.293 90.6935C562.949 91.9357 563.277 93.422 563.277 95.1525C563.277 96.8883 562.949 98.38 562.293 99.6277C561.642 100.875 560.706 101.833 559.485 102.5C558.27 103.167 556.817 103.501 555.124 103.501ZM552.74 100.482H554.978C556.019 100.482 556.895 100.298 557.606 99.9287C558.322 99.5544 558.859 98.9767 559.217 98.1956C559.58 97.409 559.762 96.3947 559.762 95.1525C559.762 93.9211 559.58 92.9149 559.217 92.1337C558.859 91.3526 558.325 90.7776 557.614 90.4087C556.903 90.0399 556.027 89.8554 554.986 89.8554H552.74V100.482ZM581.2 95.1687C581.2 96.9859 580.856 98.5319 580.167 99.8067C579.483 101.081 578.55 102.055 577.368 102.728C576.191 103.395 574.867 103.729 573.397 103.729C571.916 103.729 570.587 103.392 569.41 102.72C568.233 102.047 567.303 101.073 566.619 99.7985C565.936 98.5238 565.594 96.9805 565.594 95.1687C565.594 93.3515 565.936 91.8055 566.619 90.5308C567.303 89.256 568.233 88.2851 569.41 87.6178C570.587 86.9452 571.916 86.6089 573.397 86.6089C574.867 86.6089 576.191 86.9452 577.368 87.6178C578.55 88.2851 579.483 89.256 580.167 90.5308C580.856 91.8055 581.2 93.3515 581.2 95.1687ZM577.628 95.1687C577.628 93.9916 577.452 92.9989 577.099 92.1907C576.752 91.3824 576.261 90.7695 575.627 90.3518C574.992 89.9341 574.249 89.7253 573.397 89.7253C572.546 89.7253 571.802 89.9341 571.168 90.3518C570.533 90.7695 570.039 91.3824 569.687 92.1907C569.34 92.9989 569.166 93.9916 569.166 95.1687C569.166 96.3458 569.34 97.3385 569.687 98.1468C570.039 98.955 570.533 99.568 571.168 99.9857C571.802 100.403 572.546 100.612 573.397 100.612C574.249 100.612 574.992 100.403 575.627 99.9857C576.261 99.568 576.752 98.955 577.099 98.1468C577.452 97.3385 577.628 96.3458 577.628 95.1687Z" fill="#F6F9FF"/>
<path d="M612.331 80.4297H604.153C603.849 80.4297 603.603 80.676 603.603 80.9798V89.1521C603.603 89.4559 603.849 89.7022 604.153 89.7022H612.331C612.635 89.7022 612.882 89.4559 612.882 89.1521V80.9798C612.882 80.676 612.635 80.4297 612.331 80.4297Z" fill="url(#paint14_linear_3900_52542)"/>
<path d="M612.331 98.9065H604.153C603.849 98.9065 603.603 99.1528 603.603 99.4566V107.629C603.603 107.933 603.849 108.179 604.153 108.179H612.331C612.635 108.179 612.882 107.933 612.882 107.629V99.4566C612.882 99.1528 612.635 98.9065 612.331 98.9065Z" fill="url(#paint15_linear_3900_52542)"/>
<path d="M612.331 117.384H604.153C603.849 117.384 603.603 117.63 603.603 117.934V126.106C603.603 126.41 603.849 126.656 604.153 126.656H612.331C612.635 126.656 612.882 126.41 612.882 126.106V117.934C612.882 117.63 612.635 117.384 612.331 117.384Z" fill="url(#paint16_linear_3900_52542)"/>
<path d="M612.331 135.86H604.153C603.849 135.86 603.603 136.107 603.603 136.41V144.583C603.603 144.887 603.849 145.133 604.153 145.133H612.331C612.635 145.133 612.882 144.887 612.882 144.583V136.41C612.882 136.107 612.635 135.86 612.331 135.86Z" fill="url(#paint17_linear_3900_52542)"/>
<path d="M612.331 154.337H604.153C603.849 154.337 603.603 154.584 603.603 154.887V163.06C603.603 163.364 603.849 163.61 604.153 163.61H612.331C612.635 163.61 612.882 163.364 612.882 163.06V154.887C612.882 154.584 612.635 154.337 612.331 154.337Z" fill="url(#paint18_linear_3900_52542)"/>
<path d="M605.282 87.9725L605.333 82.1084L611.202 82.1651L611.151 87.9725H605.282Z" fill="url(#paint19_linear_3900_52542)"/>
<path d="M605.282 106.449L605.333 100.585L611.202 100.642L611.151 106.449H605.282Z" fill="url(#paint20_linear_3900_52542)"/>
<path d="M605.282 124.926L605.333 119.062L611.202 119.119L611.151 124.926H605.282Z" fill="url(#paint21_linear_3900_52542)"/>
<path d="M614.051 230.809H446.236C437.814 230.809 430.986 237.631 430.986 246.047V373.248C430.986 381.664 437.814 388.486 446.236 388.486H614.051C622.473 388.486 629.301 381.664 629.301 373.248V246.047C629.301 237.631 622.473 230.809 614.051 230.809Z" fill="white"/>
<path d="M430.986 254.446C430.989 248.179 433.483 242.17 437.919 237.739C442.355 233.309 448.37 230.82 454.641 230.82H605.652C611.925 230.82 617.942 233.31 622.378 237.743C626.815 242.176 629.307 248.188 629.307 254.458L430.986 254.446Z" fill="url(#paint22_linear_3900_52542)"/>
<path d="M483.012 272.039H460.168C459.642 272.039 459.215 272.465 459.215 272.991V288.377C459.215 288.904 459.642 289.33 460.168 289.33H483.012C483.538 289.33 483.965 288.904 483.965 288.377V272.991C483.965 272.465 483.538 272.039 483.012 272.039Z" fill="#CFDEFF"/>
<path d="M512.291 272.039H489.448C488.921 272.039 488.494 272.465 488.494 272.991V288.377C488.494 288.904 488.921 289.33 489.448 289.33H512.291C512.818 289.33 513.244 288.904 513.244 288.377V272.991C513.244 272.465 512.818 272.039 512.291 272.039Z" fill="#CFDEFF"/>
<path d="M541.57 272.039H518.727C518.2 272.039 517.773 272.465 517.773 272.991V288.377C517.773 288.904 518.2 289.33 518.727 289.33H541.57C542.097 289.33 542.524 288.904 542.524 288.377V272.991C542.524 272.465 542.097 272.039 541.57 272.039Z" fill="#CFDEFF"/>
<path d="M570.845 272.039H548.001C547.475 272.039 547.048 272.465 547.048 272.991V288.377C547.048 288.904 547.475 289.33 548.001 289.33H570.845C571.371 289.33 571.798 288.904 571.798 288.377V272.991C571.798 272.465 571.371 272.039 570.845 272.039Z" fill="#CFDEFF"/>
<path d="M600.123 272.039H577.28C576.753 272.039 576.326 272.465 576.326 272.991V288.377C576.326 288.904 576.753 289.33 577.28 289.33H600.123C600.65 289.33 601.076 288.904 601.076 288.377V272.991C601.076 272.465 600.65 272.039 600.123 272.039Z" fill="#CFDEFF"/>
<path d="M483.012 296.249H460.168C459.642 296.249 459.215 296.676 459.215 297.202V312.588C459.215 313.114 459.642 313.541 460.168 313.541H483.012C483.538 313.541 483.965 313.114 483.965 312.588V297.202C483.965 296.676 483.538 296.249 483.012 296.249Z" fill="#CFDEFF"/>
<path d="M512.291 296.249H489.448C488.921 296.249 488.494 296.676 488.494 297.202V312.588C488.494 313.114 488.921 313.541 489.448 313.541H512.291C512.818 313.541 513.244 313.114 513.244 312.588V297.202C513.244 296.676 512.818 296.249 512.291 296.249Z" fill="url(#paint23_linear_3900_52542)"/>
<path d="M541.57 296.249H518.727C518.2 296.249 517.773 296.676 517.773 297.202V312.588C517.773 313.114 518.2 313.541 518.727 313.541H541.57C542.097 313.541 542.524 313.114 542.524 312.588V297.202C542.524 296.676 542.097 296.249 541.57 296.249Z" fill="#CFDEFF"/>
<path d="M570.845 296.249H548.001C547.475 296.249 547.048 296.676 547.048 297.202V312.588C547.048 313.114 547.475 313.541 548.001 313.541H570.845C571.371 313.541 571.798 313.114 571.798 312.588V297.202C571.798 296.676 571.371 296.249 570.845 296.249Z" fill="#CFDEFF"/>
<path d="M600.123 296.249H577.28C576.753 296.249 576.326 296.676 576.326 297.202V312.588C576.326 313.114 576.753 313.541 577.28 313.541H600.123C600.65 313.541 601.076 313.114 601.076 312.588V297.202C601.076 296.676 600.65 296.249 600.123 296.249Z" fill="#CFDEFF"/>
<path d="M483.012 320.46H460.168C459.642 320.46 459.215 320.886 459.215 321.412V336.799C459.215 337.325 459.642 337.751 460.168 337.751H483.012C483.538 337.751 483.965 337.325 483.965 336.799V321.412C483.965 320.886 483.538 320.46 483.012 320.46Z" fill="#CFDEFF"/>
<path d="M512.291 320.46H489.448C488.921 320.46 488.494 320.886 488.494 321.412V336.799C488.494 337.325 488.921 337.751 489.448 337.751H512.291C512.818 337.751 513.244 337.325 513.244 336.799V321.412C513.244 320.886 512.818 320.46 512.291 320.46Z" fill="#CFDEFF"/>
<path d="M541.57 320.46H518.727C518.2 320.46 517.773 320.886 517.773 321.412V336.799C517.773 337.325 518.2 337.751 518.727 337.751H541.57C542.097 337.751 542.524 337.325 542.524 336.799V321.412C542.524 320.886 542.097 320.46 541.57 320.46Z" fill="#CFDEFF"/>
<path d="M570.845 320.46H548.001C547.475 320.46 547.048 320.886 547.048 321.412V336.799C547.048 337.325 547.475 337.751 548.001 337.751H570.845C571.371 337.751 571.798 337.325 571.798 336.799V321.412C571.798 320.886 571.371 320.46 570.845 320.46Z" fill="url(#paint24_linear_3900_52542)"/>
<path d="M600.123 320.46H577.28C576.753 320.46 576.326 320.886 576.326 321.412V336.799C576.326 337.325 576.753 337.751 577.28 337.751H600.123C600.65 337.751 601.076 337.325 601.076 336.799V321.412C601.076 320.886 600.65 320.46 600.123 320.46Z" fill="#CFDEFF"/>
<path d="M483.012 344.67H460.168C459.642 344.67 459.215 345.097 459.215 345.623V361.009C459.215 361.535 459.642 361.962 460.168 361.962H483.012C483.538 361.962 483.965 361.535 483.965 361.009V345.623C483.965 345.097 483.538 344.67 483.012 344.67Z" fill="#CFDEFF"/>
<path d="M512.291 344.67H489.448C488.921 344.67 488.494 345.097 488.494 345.623V361.009C488.494 361.535 488.921 361.962 489.448 361.962H512.291C512.818 361.962 513.244 361.535 513.244 361.009V345.623C513.244 345.097 512.818 344.67 512.291 344.67Z" fill="#CFDEFF"/>
<path d="M541.57 344.67H518.727C518.2 344.67 517.773 345.097 517.773 345.623V361.009C517.773 361.535 518.2 361.962 518.727 361.962H541.57C542.097 361.962 542.524 361.535 542.524 361.009V345.623C542.524 345.097 542.097 344.67 541.57 344.67Z" fill="#CFDEFF"/>
<path d="M570.845 344.67H548.001C547.475 344.67 547.048 345.097 547.048 345.623V361.009C547.048 361.535 547.475 361.962 548.001 361.962H570.845C571.371 361.962 571.798 361.535 571.798 361.009V345.623C571.798 345.097 571.371 344.67 570.845 344.67Z" fill="#CFDEFF"/>
<path d="M600.123 344.67H577.28C576.753 344.67 576.326 345.097 576.326 345.623V361.009C576.326 361.535 576.753 361.962 577.28 361.962H600.123C600.65 361.962 601.076 361.535 601.076 361.009V345.623C601.076 345.097 600.65 344.67 600.123 344.67Z" fill="#CFDEFF"/>
<path d="M580.77 246.036C579.211 246.036 577.715 245.417 576.613 244.315C575.51 243.213 574.891 241.719 574.891 240.16V221.445C574.891 219.887 575.51 218.393 576.613 217.291C577.715 216.189 579.211 215.57 580.77 215.57C581.543 215.569 582.308 215.721 583.022 216.015C583.736 216.31 584.385 216.743 584.932 217.289C585.478 217.834 585.912 218.482 586.208 219.196C586.503 219.909 586.656 220.673 586.656 221.445V240.16C586.656 240.932 586.503 241.697 586.208 242.41C585.912 243.123 585.478 243.771 584.932 244.317C584.385 244.863 583.736 245.295 583.022 245.59C582.308 245.885 581.543 246.037 580.77 246.036Z" fill="#CFDEFF"/>
<path d="M535.328 288.536L524.97 278.192C524.258 277.48 523.858 276.515 523.858 275.509C523.858 274.503 524.258 273.538 524.97 272.827L535.328 283.177C535.68 283.529 535.96 283.946 536.15 284.406C536.341 284.866 536.439 285.359 536.439 285.857C536.439 286.354 536.341 286.847 536.15 287.307C535.96 287.767 535.68 288.184 535.328 288.536Z" fill="url(#paint25_linear_3900_52542)"/>
<path d="M522.286 285.859L532.621 275.509C532.973 275.157 533.391 274.878 533.851 274.688C534.311 274.497 534.805 274.399 535.303 274.399C535.801 274.399 536.294 274.497 536.754 274.688C537.214 274.878 537.632 275.157 537.984 275.509L527.632 285.859C526.921 286.564 525.961 286.959 524.959 286.959C523.958 286.959 522.997 286.564 522.286 285.859Z" fill="url(#paint26_linear_3900_52542)"/>
<path d="M476.769 336.963L466.417 326.613C466.065 326.261 465.785 325.843 465.594 325.384C465.404 324.924 465.306 324.431 465.306 323.933C465.306 323.436 465.404 322.943 465.594 322.483C465.785 322.023 466.065 321.605 466.417 321.254L476.769 331.598C477.481 332.31 477.881 333.274 477.881 334.281C477.881 335.287 477.481 336.251 476.769 336.963Z" fill="url(#paint27_linear_3900_52542)"/>
<path d="M463.732 334.281L474.09 323.931C474.442 323.578 474.86 323.299 475.32 323.109C475.78 322.918 476.274 322.82 476.772 322.82C477.27 322.82 477.763 322.918 478.223 323.109C478.683 323.299 479.101 323.578 479.453 323.931L469.096 334.281C468.744 334.633 468.326 334.912 467.865 335.102C467.405 335.293 466.912 335.391 466.414 335.391C465.916 335.391 465.423 335.293 464.963 335.102C464.503 334.912 464.084 334.633 463.732 334.281Z" fill="url(#paint28_linear_3900_52542)"/>
<path d="M593.881 361.173L583.523 350.823C583.171 350.472 582.892 350.054 582.701 349.594C582.51 349.134 582.412 348.641 582.412 348.144C582.412 347.646 582.51 347.153 582.701 346.693C582.892 346.234 583.171 345.816 583.523 345.464L593.881 355.814C594.233 356.166 594.513 356.584 594.703 357.043C594.894 357.503 594.992 357.996 594.992 358.494C594.992 358.991 594.894 359.484 594.703 359.944C594.513 360.404 594.233 360.822 593.881 361.173Z" fill="url(#paint29_linear_3900_52542)"/>
<path d="M580.861 358.491L591.219 348.147C591.57 347.793 591.988 347.513 592.448 347.321C592.908 347.13 593.402 347.031 593.9 347.031C594.399 347.031 594.893 347.13 595.353 347.321C595.813 347.513 596.231 347.793 596.582 348.147L586.23 358.491C585.518 359.202 584.553 359.602 583.546 359.602C582.539 359.602 581.573 359.202 580.861 358.491Z" fill="url(#paint30_linear_3900_52542)"/>
<path d="M522.433 240.379C565.732 197.111 565.732 126.961 522.433 83.6933C479.134 40.4257 408.932 40.4257 365.633 83.6933C322.334 126.961 322.334 197.111 365.633 240.379C408.932 283.647 479.134 283.647 522.433 240.379Z" fill="url(#paint31_linear_3900_52542)"/>
<path d="M505.963 223.921C540.166 189.743 540.166 134.329 505.963 100.151C471.76 65.9729 416.306 65.9729 382.103 100.151C347.9 134.329 347.9 189.743 382.103 223.921C416.306 258.099 471.76 258.099 505.963 223.921Z" fill="white"/>
<path d="M448.335 80.3672H439.737C439.433 80.3672 439.187 80.6135 439.187 80.9173V93.6719C439.187 93.9758 439.433 94.222 439.737 94.222H448.335C448.639 94.222 448.886 93.9758 448.886 93.6719V80.9173C448.886 80.6135 448.639 80.3672 448.335 80.3672Z" fill="#CFDEFF"/>
<path d="M406.897 89.1568L399.45 93.4527C399.187 93.6046 399.097 93.9411 399.249 94.2042L405.631 105.25C405.783 105.513 406.12 105.603 406.383 105.451L413.829 101.155C414.092 101.004 414.183 100.667 414.031 100.404L407.649 89.3581C407.497 89.095 407.16 89.0048 406.897 89.1568Z" fill="#CFDEFF"/>
<path d="M375.4 117.473L371.1 124.913C370.948 125.177 371.039 125.513 371.302 125.665L382.356 132.042C382.619 132.194 382.956 132.104 383.108 131.841L387.407 124.4C387.559 124.137 387.469 123.801 387.205 123.649L376.152 117.271C375.888 117.119 375.552 117.21 375.4 117.473Z" fill="#CFDEFF"/>
<path d="M362.309 157.74V166.332C362.309 166.636 362.555 166.882 362.859 166.882H375.623C375.927 166.882 376.174 166.636 376.174 166.332V157.74C376.174 157.436 375.927 157.19 375.623 157.19H362.859C362.555 157.19 362.309 157.436 362.309 157.74Z" fill="#CFDEFF"/>
<path d="M371.111 199.147L375.41 206.588C375.562 206.851 375.899 206.941 376.162 206.789L387.216 200.412C387.479 200.26 387.57 199.923 387.418 199.66L383.119 192.22C382.967 191.956 382.63 191.866 382.367 192.018L371.313 198.395C371.049 198.547 370.959 198.884 371.111 199.147Z" fill="#CFDEFF"/>
<path d="M399.451 230.606L406.897 234.902C407.161 235.054 407.497 234.963 407.649 234.7L414.031 223.655C414.183 223.391 414.093 223.055 413.83 222.903L406.383 218.607C406.12 218.455 405.783 218.545 405.631 218.808L399.249 229.854C399.097 230.117 399.188 230.454 399.451 230.606Z" fill="#CFDEFF"/>
<path d="M439.737 243.705H448.335C448.639 243.705 448.886 243.459 448.886 243.155V230.4C448.886 230.096 448.639 229.85 448.335 229.85H439.737C439.433 229.85 439.187 230.096 439.187 230.4V243.155C439.187 243.459 439.433 243.705 439.737 243.705Z" fill="#CFDEFF"/>
<path d="M481.179 234.916L488.625 230.62C488.888 230.468 488.978 230.132 488.826 229.869L482.444 218.823C482.292 218.56 481.956 218.469 481.692 218.621L474.246 222.917C473.983 223.069 473.893 223.406 474.045 223.669L480.427 234.715C480.579 234.978 480.915 235.068 481.179 234.916Z" fill="#CFDEFF"/>
<path d="M512.66 206.585L516.959 199.144C517.111 198.881 517.021 198.545 516.758 198.393L505.704 192.015C505.44 191.863 505.104 191.954 504.952 192.217L500.653 199.658C500.501 199.921 500.591 200.257 500.854 200.409L511.908 206.786C512.171 206.938 512.508 206.848 512.66 206.585Z" fill="#CFDEFF"/>
<path d="M525.759 166.332V157.74C525.759 157.436 525.512 157.19 525.208 157.19H512.444C512.14 157.19 511.894 157.436 511.894 157.74V166.332C511.894 166.636 512.14 166.882 512.444 166.882H525.208C525.512 166.882 525.759 166.636 525.759 166.332Z" fill="#CFDEFF"/>
<path d="M516.964 124.922L512.665 117.481C512.513 117.218 512.176 117.128 511.913 117.279L500.859 123.657C500.596 123.809 500.505 124.145 500.658 124.408L504.957 131.849C505.109 132.112 505.445 132.202 505.709 132.05L516.763 125.673C517.026 125.521 517.116 125.185 516.964 124.922Z" fill="#CFDEFF"/>
<path d="M488.619 93.4614L481.173 89.1654C480.91 89.0135 480.573 89.1037 480.421 89.3668L474.039 100.413C473.887 100.676 473.977 101.012 474.241 101.164L481.687 105.46C481.95 105.612 482.287 105.522 482.439 105.259L488.821 94.2129C488.973 93.9498 488.883 93.6133 488.619 93.4614Z" fill="#CFDEFF"/>
<path d="M444.033 74.5146C455.594 74.4216 467.06 76.6167 477.768 80.9734C488.476 85.3301 498.215 91.7621 506.423 99.8984C514.631 108.035 521.146 117.715 525.592 128.379C530.037 139.044 532.326 150.483 532.326 162.036C532.326 173.589 530.037 185.028 525.592 195.693C521.146 206.358 514.631 216.037 506.423 224.174C498.215 232.31 488.476 238.742 477.768 243.099C467.06 247.456 455.594 249.651 444.033 249.558" stroke="url(#paint32_linear_3900_52542)" stroke-miterlimit="10"/>
<path d="M444.033 51.2397C505.271 51.2397 554.907 100.846 554.907 162.033C554.907 223.22 505.271 272.827 444.033 272.827" stroke="url(#paint33_linear_3900_52542)" stroke-miterlimit="10"/>
<path d="M456.128 161.103C453.857 160.156 451.501 159.429 449.091 158.931C452.615 135.231 447.485 103.449 445.118 92.2429C445.048 92.0095 444.904 91.805 444.708 91.6597C444.512 91.5143 444.275 91.4358 444.031 91.4358C443.787 91.4358 443.55 91.5143 443.354 91.6597C443.158 91.805 443.015 92.0095 442.944 92.2429C440.629 103.228 435.657 133.989 438.784 157.519C420.413 156.175 397.922 159.549 390.09 161.2C389.899 161.241 389.728 161.347 389.605 161.499C389.483 161.651 389.416 161.841 389.416 162.036C389.416 162.231 389.483 162.421 389.605 162.573C389.728 162.725 389.899 162.831 390.09 162.873C398.137 164.574 421.809 168.102 440.464 166.411C441.067 168.811 441.855 171.16 442.819 173.438C442.921 173.674 443.09 173.875 443.305 174.016C443.52 174.157 443.771 174.232 444.028 174.232C444.285 174.232 444.537 174.157 444.752 174.016C444.967 173.875 445.135 173.674 445.237 173.438C446.333 170.835 447.205 168.142 447.842 165.391C450.681 164.881 453.457 164.069 456.123 162.969C456.303 162.889 456.457 162.759 456.566 162.594C456.674 162.429 456.732 162.235 456.732 162.038C456.733 161.84 456.676 161.647 456.569 161.481C456.462 161.315 456.309 161.184 456.128 161.103Z" fill="url(#paint34_linear_3900_52542)"/>
<path d="M285.946 139.275L293.075 119.238H314.312L309.516 136.263L285.946 139.275Z" fill="url(#paint35_linear_3900_52542)"/>
<path d="M310.219 127.802L309.516 136.263L311.791 128.159L310.219 127.802Z" fill="#00030E" stroke="#00030E" stroke-width="0.25" stroke-miterlimit="10"/>
<path d="M316.291 111.612C318.359 102.857 312.933 94.0845 304.172 92.0181C295.41 89.9518 286.631 95.3739 284.564 104.129C282.496 112.884 287.922 121.656 296.683 123.723C305.444 125.789 314.223 120.367 316.291 111.612Z" fill="url(#paint36_linear_3900_52542)"/>
<path d="M315.072 100.699C318.846 108.344 319.459 120.65 315.56 125.981C311.661 131.312 306.531 125.567 305.407 122.698C305.407 122.698 301.866 119.493 302.428 116.958C303.086 113.998 306.911 114.429 307.456 117.673" fill="url(#paint37_linear_3900_52542)"/>
<path d="M304.142 121.365C305.753 122.885 307.621 121.557 307.326 119.521" stroke="#00030E" stroke-width="0.25" stroke-linecap="round" stroke-linejoin="round"/>
<path d="M305.753 115.223C307.422 116.125 308.154 118.699 310.293 118.302C311.9 118.007 312.342 116.102 312.041 114.764C311.741 113.425 311.36 111.52 312.11 110.612C312.859 109.705 315.282 107.981 313.727 105.775C312.172 103.568 315.43 101.385 315.889 98.7309C316.746 93.9103 310.634 85.7778 299.329 87.9555C285.339 90.6777 285.991 100.325 285.991 100.325C285.991 100.325 283.239 101.459 281.775 105.803C280.492 109.608 281.888 113.901 286.587 118.45C291.287 122.998 290.146 124.325 289.215 125.46C288.284 126.594 288.903 127.938 292.422 128.148C295.94 128.358 303.772 128.148 304.147 121.342C303.374 120.375 302.796 119.268 302.444 118.081C301.911 116.074 303.903 114.202 305.753 115.223Z" fill="#004ED8"/>
<path d="M316.655 104.759C318.925 112.172 318.823 121.518 315.56 125.981C313.636 128.613 311.411 128.545 309.51 127.456" stroke="#00030E" stroke-width="0.25" stroke-linecap="round" stroke-linejoin="round"/>
<path d="M285.883 134.55C285.957 134.499 290.004 132.628 299.283 132.628C303.306 132.65 307.324 132.94 311.309 133.496H311.349L312.626 136.331L283.188 139.967L285.883 134.55Z" fill="url(#paint38_linear_3900_52542)"/>
<path d="M334.754 125.794C333.318 124.719 331.572 124.138 329.777 124.138H327.336L322.115 122.663C321.736 122.555 321.335 122.543 320.95 122.631C320.565 122.718 320.208 122.901 319.913 123.162C318.46 124.45 315.747 126.871 314.425 128.102C314.107 128.397 314.516 129.049 314.811 129.146C315.409 129.307 316.037 129.327 316.644 129.205C317.252 129.083 317.823 128.822 318.313 128.442L318.613 128.227L320.804 130.779C322.191 132.401 323.256 134.271 323.943 136.291C326.78 144.668 332.212 143.568 335.293 145.796L342.07 131.448C338.943 128.964 336.423 127.036 334.754 125.794ZM321.786 127.121L323.835 127.802L324.147 129.253L321.786 127.121Z" fill="url(#paint39_linear_3900_52542)"/>
<path d="M335.248 137.879C334.499 138.832 330.293 138.072 325.662 139.275V139.887C328.636 144.373 332.745 143.959 335.265 145.796L342.041 131.448C338.568 133.501 335.997 136.932 335.248 137.879Z" fill="#00030E" stroke="#00030E" stroke-width="0.25" stroke-linecap="round" stroke-linejoin="round"/>
<path d="M278.631 244.476C260.776 235.969 244.187 208.18 242.978 199.48C241.871 191.49 258.188 146.5 278.892 141.027H278.988L274.936 187.531C266.616 195.953 265.469 201.085 265.458 201.142C264.891 208.515 284.187 228.512 284.368 228.716H284.397L278.721 244.516L278.631 244.476Z" fill="#FC6B10"/>
<path d="M279.028 224.525C279.167 230.919 278.446 237.304 276.883 243.506C277.45 243.824 278.063 244.13 278.659 244.414L284.335 228.727C284.335 228.727 281.911 226.232 278.801 222.67C278.911 223.284 278.987 223.903 279.028 224.525Z" fill="#00030E" stroke="#00030E" stroke-width="0.25" stroke-linecap="round" stroke-linejoin="round"/>
<path d="M274.862 187.491L278.091 158.965C266.417 161.177 263.454 170.166 265.753 177.624C268.261 185.773 268.693 186.641 270.622 192.21C271.774 190.786 273.165 189.216 274.862 187.491Z" fill="#00030E" stroke="#00030E" stroke-width="0.25" stroke-linecap="round" stroke-linejoin="round"/>
<path d="M279.238 270.366C275.384 261.167 276.729 254.146 278.284 246.013C280.129 236.372 282.217 225.444 276.655 207.556C270.815 188.779 267.166 173.342 265.134 163.701C264.15 158.883 265.02 153.873 267.57 149.668C270.12 145.463 274.163 142.373 278.891 141.016C286.57 138.804 298.307 136.172 310.622 136.172C316.729 136.123 322.817 136.865 328.733 138.379C332.204 139.296 335.351 141.161 337.821 143.766C340.291 146.37 341.986 149.611 342.717 153.124C343.114 154.961 343.591 157.031 344.141 159.43C348.54 178.491 356.729 213.976 353.63 270.349V270.417H279.283L279.238 270.366Z" fill="#FC6B10"/>
<path d="M279.3 270.337C270.957 250.414 287.047 240.727 276.723 207.534C271.048 189.329 267.421 174.209 265.202 163.689" stroke="#00030E" stroke-width="0.25" stroke-linecap="round" stroke-linejoin="round"/>
<path d="M335.821 181.083C335.821 181.083 347.671 225.977 338.886 270.337" stroke="#00030E" stroke-width="0.25" stroke-miterlimit="10" stroke-linecap="round"/>
<path d="M326.195 176.438C334.833 185.586 351.735 203.297 351.735 203.297C351.735 203.297 350.435 187.86 346.854 174.198L326.195 176.438Z" fill="#00030E" stroke="#00030E" stroke-width="0.25" stroke-miterlimit="10" stroke-linecap="round"/>
<path d="M299.59 270.343C299.59 270.343 294.579 259.21 298.642 246.399C305.748 223.958 270.174 145.728 288.744 138.645" stroke="#00030E" stroke-width="0.25" stroke-miterlimit="10" stroke-linecap="round"/>
<path d="M335.191 145.83V145.802C335.082 143.03 335.645 140.272 336.83 137.763C338.016 135.255 339.79 133.069 342.001 131.391L342.041 131.363L342.081 131.391C342.444 131.658 378.165 158.421 373.136 176.455V176.557L335.191 145.83Z" fill="#FC6B10"/>
<path d="M335.265 145.796L347.467 155.687L359.386 155.222C352.076 147.957 341.264 140.341 337.053 137.465C335.747 140.041 335.131 142.912 335.265 145.796Z" fill="#00030E" stroke="#00030E" stroke-width="0.25" stroke-miterlimit="10"/>
<path d="M355.492 184.594C345.118 184.594 333.114 181.265 326.304 176.495C317.756 170.518 314.669 154.672 317.711 145.025C319.187 140.347 321.956 137.766 325.515 137.766C325.787 137.766 326.082 137.766 326.349 137.811C338.631 139.116 362.013 154.383 370.237 166.48C372.91 170.41 373.886 173.762 373.137 176.455C371.701 181.628 365.271 184.594 355.492 184.594Z" fill="#FC6B10"/>
<path d="M317.269 159.929C318.494 166.616 321.525 173.075 326.349 176.444C339.187 185.427 369.618 188.881 373.075 176.444" stroke="#00030E" stroke-width="0.25" stroke-miterlimit="10" stroke-linecap="round"/>
<path d="M364.579 159.929C353.92 149.318 336.117 138.946 326.344 137.885" stroke="#00030E" stroke-width="0.25" stroke-miterlimit="10" stroke-linecap="round"/>
<path d="M373.069 176.438C378.143 158.239 342.042 131.448 342.042 131.448C338.998 133.731 336.802 136.962 335.799 140.63" stroke="#00030E" stroke-width="0.25" stroke-miterlimit="10" stroke-linecap="round"/>
<path d="M278.932 141.095C289.397 138.084 303.483 135.373 317.326 136.524" stroke="#00030E" stroke-width="0.25" stroke-linecap="round" stroke-linejoin="round"/>
<path d="M280.901 410.117C278.466 410.117 276.502 409.646 275.061 408.716H275.032V408.682C270.214 365.092 274.862 347.58 277.637 337.122C278.245 334.814 278.772 332.823 279.096 330.963C281.025 319.876 282.019 276.286 282.024 275.85C280.971 274.094 280.042 272.267 279.243 270.383L279.198 270.281H312.586V286.342L293.687 407.445H293.648C288.585 409.203 284.3 410.1 280.906 410.1L280.901 410.117Z" fill="#0034B5"/>
<path d="M304.794 274.613L303.682 342.923L312.518 286.341V274.613H304.794Z" fill="#00030E" stroke="#00030E" stroke-width="0.25" stroke-miterlimit="10" stroke-linecap="round"/>
<path d="M319.646 412.589C315.407 412.589 311.939 411.194 310.134 408.767C310.31 389.439 311.758 354.351 319.306 336.044C325.276 321.554 310.668 281.033 310.185 279.712C309.714 279.519 303.903 277.097 299.527 270.382L299.459 270.269H348.171V270.343C345.901 312.146 340.049 358.763 330.867 408.908C328.21 411.177 323.914 412.595 319.629 412.595L319.646 412.589Z" fill="#0034B5"/>
<path d="M348.119 270.337H279.3C279.646 271.154 280.038 271.993 280.463 272.85H347.966C348.017 272.016 348.074 271.165 348.119 270.337Z" fill="#00030E" stroke="#00030E" stroke-width="0.25" stroke-miterlimit="10"/>
<path d="M344.891 417.671C344.09 416.468 343.007 415.481 341.735 414.795L330.816 408.897C325.657 413.304 314.261 414.217 310.191 408.738C310.157 412.203 310.163 415.135 310.191 417.33C310.202 418.496 310.673 419.609 311.503 420.429C312.332 421.248 313.452 421.706 314.618 421.703H345.078C345.322 421.707 345.563 421.644 345.774 421.521C345.985 421.398 346.158 421.219 346.275 421.005C346.392 420.791 346.448 420.548 346.437 420.305C346.426 420.061 346.349 419.824 346.213 419.621L344.891 417.671Z" fill="url(#paint40_linear_3900_52542)"/>
<path d="M275.101 408.659C275.479 412.198 275.935 415.916 276.468 419.814C276.538 420.333 276.793 420.808 277.187 421.153C277.58 421.498 278.085 421.689 278.608 421.692H296.695C297.03 421.694 297.361 421.618 297.661 421.471C297.961 421.323 298.223 421.107 298.425 420.841C298.628 420.574 298.765 420.264 298.826 419.935C298.887 419.607 298.871 419.268 298.778 418.947C297.382 414.359 293.619 407.394 293.619 407.394C287.677 409.464 279.499 411.478 275.101 408.659Z" fill="url(#paint41_linear_3900_52542)"/>
<path d="M302.541 274.613C304.673 276.879 307.313 278.607 310.243 279.655C310.243 279.655 325.47 321.22 319.369 336.073" stroke="#00030E" stroke-width="0.25" stroke-miterlimit="10" stroke-linecap="round"/>
<path d="M338.886 270.337C337.847 316.841 333.715 347.653 323.097 412.215" stroke="#00030E" stroke-width="0.25" stroke-miterlimit="10"/>
<path d="M338.256 289.052L342.126 270.337" stroke="#00030E" stroke-width="0.25" stroke-miterlimit="10"/>
<path d="M308.103 293.629L291.939 407.95" stroke="#00030E" stroke-width="0.25" stroke-miterlimit="10"/>
<path d="M477.569 59.8203L479.357 64.6465C480.155 66.8017 481.41 68.7589 483.036 70.3839C484.663 72.0089 486.621 73.2632 488.778 74.0608L493.608 75.8473L488.778 77.6337C486.621 78.4291 484.662 79.6819 483.035 81.3061C481.409 82.9303 480.154 84.8872 479.357 87.0423L477.569 91.8742L475.781 87.048C474.984 84.8937 473.73 82.9372 472.105 81.3131C470.48 79.689 468.522 78.4358 466.366 77.6394L461.536 75.8529L466.366 74.0665C468.524 73.2692 470.483 72.0151 472.11 70.3901C473.737 68.7652 474.994 66.8078 475.793 64.6522L477.569 59.8203Z" fill="#FC6B10"/>
<path d="M660.924 73.2441L662.711 78.0704C663.51 80.2252 664.766 82.1821 666.392 83.8069C668.018 85.4318 669.976 86.6864 672.132 87.4847L676.962 89.2654L672.132 91.0519C669.976 91.8502 668.018 93.1047 666.392 94.7296C664.766 96.3545 663.51 98.3113 662.711 100.466L660.924 105.292L659.142 100.466C658.343 98.3113 657.087 96.3545 655.461 94.7296C653.835 93.1047 651.877 91.8502 649.72 91.0519L644.891 89.2654L649.72 87.4847C651.877 86.6864 653.835 85.4318 655.461 83.8069C657.087 82.1821 658.343 80.2252 659.142 78.0704L660.924 73.2441Z" fill="url(#paint42_linear_3900_52542)"/>
<path d="M245.378 260.622L247.161 265.449C247.959 267.603 249.215 269.56 250.841 271.185C252.467 272.81 254.425 274.065 256.582 274.863L261.411 276.649L256.582 278.458C254.425 279.251 252.466 280.5 250.838 282.12C249.21 283.74 247.951 285.693 247.149 287.844L245.367 292.671L243.579 287.844C242.78 285.695 241.525 283.744 239.901 282.124C238.277 280.504 236.322 279.254 234.17 278.458L229.34 276.672L234.17 274.886C236.326 274.087 238.284 272.833 239.91 271.208C241.536 269.583 242.792 267.626 243.591 265.471L245.378 260.622Z" fill="url(#paint43_linear_3900_52542)"/>
<path d="M576.321 167.591L577.864 171.754C578.553 173.614 579.635 175.303 581.038 176.706C582.441 178.109 584.131 179.192 585.992 179.881L590.163 181.423L585.992 182.966C584.131 183.654 582.441 184.735 581.038 186.137C579.635 187.539 578.553 189.228 577.864 191.087L576.321 195.255L574.777 191.087C574.091 189.23 573.011 187.544 571.612 186.142C570.214 184.74 568.529 183.657 566.673 182.966L562.507 181.423L566.673 179.881C568.534 179.192 570.225 178.109 571.628 176.706C573.032 175.303 574.116 173.614 574.805 171.754L576.321 167.591Z" fill="#FC6B10"/>
<path d="M565.833 198.692L567.002 201.851C567.524 203.261 568.345 204.542 569.409 205.605C570.473 206.668 571.755 207.488 573.166 208.01L576.327 209.178L573.166 210.347C571.755 210.868 570.473 211.689 569.409 212.752C568.345 213.815 567.524 215.096 567.002 216.506L565.833 219.664L564.664 216.506C564.142 215.096 563.321 213.815 562.257 212.752C561.193 211.689 559.912 210.868 558.5 210.347L555.322 209.178L558.483 208.01C559.895 207.488 561.176 206.668 562.24 205.605C563.304 204.542 564.125 203.261 564.647 201.851L565.833 198.692Z" fill="#FC6B10"/>
<path d="M373.018 265.585L373.943 268.086C374.356 269.202 375.006 270.216 375.848 271.057C376.691 271.898 377.706 272.546 378.824 272.957L381.321 273.882L378.824 274.806C377.707 275.219 376.692 275.869 375.849 276.711C375.007 277.553 374.357 278.567 373.943 279.683L373.018 282.184L372.093 279.683C371.679 278.567 371.029 277.553 370.186 276.711C369.344 275.869 368.329 275.219 367.212 274.806L364.715 273.882L367.212 272.957C368.33 272.546 369.345 271.898 370.188 271.057C371.03 270.216 371.68 269.202 372.093 268.086L373.018 265.585Z" fill="#FC6B10"/>
<path d="M590.85 194.308L591.576 196.282C591.903 197.163 592.417 197.964 593.082 198.628C593.747 199.293 594.548 199.806 595.43 200.133L597.405 200.864L595.43 201.59C594.549 201.918 593.749 202.432 593.084 203.096C592.419 203.761 591.905 204.561 591.576 205.441L590.85 207.415L590.118 205.441C589.791 204.56 589.278 203.759 588.612 203.094C587.947 202.43 587.146 201.917 586.264 201.59L584.295 200.864L586.264 200.133C587.147 199.808 587.949 199.295 588.614 198.631C589.28 197.966 589.793 197.164 590.118 196.282L590.85 194.308Z" fill="#FC6B10"/>
<path d="M518.091 88.8684L518.597 90.2295C518.824 90.8373 519.179 91.3892 519.639 91.8481C520.098 92.3069 520.65 92.662 521.258 92.8893L522.62 93.3941L521.258 93.8988C520.649 94.1239 520.095 94.4781 519.636 94.9373C519.176 95.3964 518.822 95.9495 518.597 96.5586L518.091 97.9197L517.586 96.5586C517.363 95.9494 517.01 95.3959 516.551 94.9366C516.093 94.4773 515.54 94.1232 514.93 93.8988L513.562 93.3941L514.93 92.8893C515.539 92.6639 516.092 92.3094 516.55 91.8503C517.009 91.3911 517.362 90.8382 517.586 90.2295L518.091 88.8684Z" fill="#FC6B10"/>
<path d="M467.251 350.035C468.928 358.411 468.977 367.031 467.393 375.425C466.667 379.247 465.646 383.007 464.34 386.672C463.716 388.424 463.074 390.103 462.388 391.713C461.701 393.324 460.929 394.849 460.191 396.301C458.837 398.966 457.321 401.546 455.651 404.026C454.388 405.98 453.016 407.862 451.542 409.663C449.084 412.703 447.467 414.307 447.467 414.307C447.467 414.307 446.008 412.47 443.84 409.345C442.756 407.763 441.468 405.88 440.044 403.787C438.619 401.695 437.138 399.307 435.503 396.772C434.703 395.502 433.903 394.192 433.114 392.842C432.325 391.492 431.457 390.108 430.656 388.69C429.096 385.855 427.399 382.894 425.974 379.826C419.54 367.433 416.58 353.532 417.41 339.594C417.456 336.22 417.807 332.829 418.074 329.602C418.227 327.98 418.432 326.369 418.642 324.804C418.852 323.239 419.011 321.73 419.209 320.267C419.669 317.284 420.061 314.528 420.498 312.009C420.935 309.491 421.36 307.274 421.701 305.391C422.41 301.654 422.995 299.38 422.995 299.38C422.995 299.38 425.129 300.191 428.608 301.966C430.69 303.013 432.711 304.175 434.663 305.448C437.19 307.035 439.617 308.778 441.928 310.665C443.193 311.686 444.493 312.792 445.804 313.966C447.115 315.14 448.358 316.427 449.646 317.771C452.333 320.59 454.799 323.61 457.024 326.806C461.894 333.821 465.366 341.708 467.251 350.035Z" fill="url(#paint44_linear_3900_52542)"/>
<path d="M459.409 330.498L458.722 329.364C457.763 331.065 456.565 333.288 455.317 335.903C454.068 338.517 452.615 341.574 451.344 344.818C448.699 351.391 446.469 358.888 445.805 366.794C444.66 359.376 443.118 352.025 441.185 344.772C440.8 343.316 440.519 341.834 440.345 340.338C440.132 338.887 440.015 337.425 439.993 335.959C439.972 333.112 440.181 330.267 440.618 327.452C441.052 324.803 441.62 322.178 442.32 319.586C443.007 317.119 443.813 314.817 444.511 312.821L443.586 312.021C441.316 318.401 438.557 327.481 438.892 336.776C435.01 323.976 429.952 311.562 423.784 299.692L423.001 299.368L422.797 300.202C428.938 312.008 433.975 324.356 437.842 337.088C432.916 329.148 424.902 324.452 418.96 322.184L418.824 323.273C420.902 324.089 422.911 325.073 424.829 326.216C427.063 327.506 429.155 329.026 431.072 330.753C433.157 332.59 434.986 334.7 436.509 337.026C437.3 338.242 438.011 339.51 438.637 340.82C439.233 342.187 439.727 343.598 440.112 345.039C442.033 352.249 443.565 359.556 444.704 366.93C441.753 359.586 436.446 353.886 431.247 349.826C428.826 347.994 426.264 346.356 423.586 344.926C421.559 343.88 419.475 342.951 417.343 342.141V343.275C423.393 345.601 428.957 349.032 433.75 353.393C439.647 358.775 444.885 366.567 445.941 376.078C446.287 379.055 446.509 382.055 446.787 385.044C446.929 388.044 447.201 391.038 447.235 394.039C444.653 384.494 438.336 377.025 432.479 372.25C428.692 369.122 424.49 366.532 419.993 364.554L420.379 365.841C422.571 366.862 424.686 368.041 426.707 369.369C429.996 371.474 433.033 373.947 435.759 376.741C441.877 382.98 447.428 392.298 447.28 403.266C447.28 406.725 447.076 410.173 446.923 413.627L447.451 414.302L448.018 413.695C448.171 410.224 448.387 406.754 448.376 403.277C448.518 392.383 452.57 382.56 457.025 374.269C459.233 370.157 461.605 366.476 463.569 363.527C465.532 360.578 467.326 358.327 468.245 357.13L468.052 355.468C464.759 359.612 461.744 363.97 459.028 368.512C454.795 375.528 450.283 384.335 448.296 393.988C448.296 390.97 447.995 387.959 447.854 384.948C447.587 381.942 447.349 378.93 447.002 375.93C445.947 366.448 447.95 357.459 450.708 349.451C453.086 342.907 455.996 336.568 459.409 330.498Z" fill="white"/>
<path d="M528.647 350.585C529.607 352.116 532.433 353.665 535.52 356.33C538.608 358.996 542.013 362.744 543.795 367.951C545.946 374.336 545.747 380.705 544.873 385.753C543.999 390.8 542.603 394.639 542.66 396.999C542.615 394.628 540.957 390.891 538.84 386.575C536.724 382.259 534.113 377.371 532.263 371.869C530.725 367.378 530.401 362.988 530.117 359.143C529.834 355.298 529.618 352.122 528.647 350.585Z" fill="url(#paint45_linear_3900_52542)"/>
<path d="M660.316 330.067C658.444 332.052 656.565 336.158 654.493 341.33C652.422 346.502 650.021 352.599 646.548 359.018C644.471 362.988 642.354 366.703 640.305 370.247C638.256 373.792 636.378 377.161 634.754 380.32C631.412 386.598 629.079 392.002 628.568 395.541C629.062 392.019 628.381 386.178 628.886 378.686C629.14 374.577 629.759 370.498 630.736 366.499C631.893 361.911 633.586 357.476 635.782 353.285C639.198 347.093 643.938 341.729 649.664 337.575C654.352 334.037 658.432 332.063 660.316 330.067Z" fill="white"/>
<path d="M520.611 363.227C520.083 364.276 520.611 366.59 521.179 369.238C521.746 371.887 522.314 374.819 521.599 377.677C520.742 381.182 518.761 384.227 517.098 387.063C515.435 389.898 513.965 392.365 514.045 393.868C513.971 392.348 512.342 389.984 511.02 386.66C509.697 383.337 508.704 379.072 509.782 374.711C510.679 371.144 513.188 368.592 515.549 366.896C517.91 365.2 520.089 364.27 520.611 363.227Z" fill="url(#paint46_linear_3900_52542)"/>
<path d="M426.253 327.583C425.089 329.891 424.55 334.161 424.176 339.441C423.801 344.721 423.319 350.909 421.906 357.652C420.231 365.915 418.126 373.475 416.718 380.093C415.311 386.711 414.448 392.229 414.942 395.575C414.465 392.241 412.229 387.114 410.629 380.167C409.726 376.359 409.17 372.477 408.966 368.569C408.766 364.085 409.105 359.594 409.976 355.19C411.427 348.633 414.337 342.487 418.489 337.207C421.866 332.761 425.101 329.885 426.253 327.583Z" fill="url(#paint47_linear_3900_52542)"/>
<path d="M392.592 352.428C393.25 353.897 395.696 355.542 398.301 358.1C400.906 360.657 403.733 364.185 404.97 368.875C406.462 374.592 405.889 380.189 404.873 384.658C403.857 389.127 402.495 392.558 402.569 394.657C402.495 392.553 400.827 389.258 398.823 385.378C396.82 381.499 394.51 377.036 393.188 371.966C392.092 367.82 392.331 363.799 392.62 360.294C392.91 356.79 393.256 353.886 392.592 352.428Z" fill="url(#paint48_linear_3900_52542)"/>
<path d="M189.187 105.797L191.411 111.803C192.406 114.486 193.969 116.923 195.994 118.947C198.018 120.97 200.457 122.532 203.142 123.525L209.153 125.749L203.142 127.972C200.457 128.965 198.018 130.527 195.994 132.551C193.969 134.574 192.406 137.011 191.411 139.694L189.187 145.7L186.99 139.694C185.996 137.011 184.433 134.574 182.408 132.551C180.383 130.527 177.945 128.965 175.259 127.972L169.249 125.749L175.259 123.525C177.945 122.532 180.383 120.97 182.408 118.947C184.433 116.923 185.996 114.486 186.99 111.803L189.187 105.797Z" fill="url(#paint49_linear_3900_52542)"/>
<path d="M131.978 100.948L133.42 104.85C134.062 106.594 135.073 108.179 136.385 109.497C137.696 110.814 139.277 111.833 141.019 112.484L144.924 113.924L141.019 115.37C139.276 116.016 137.693 117.031 136.379 118.344C135.064 119.658 134.049 121.239 133.403 122.981L131.961 126.883L130.514 122.981C129.869 121.238 128.855 119.656 127.54 118.342C126.225 117.028 124.642 116.014 122.898 115.37L118.993 113.924L122.898 112.484C124.642 111.839 126.225 110.825 127.54 109.512C128.855 108.198 129.869 106.615 130.514 104.873L131.978 100.948Z" fill="url(#paint50_linear_3900_52542)"/>
<path d="M229.38 144.356L230.01 146.057C230.29 146.814 230.731 147.501 231.302 148.072C231.873 148.643 232.561 149.083 233.318 149.364L235.021 149.993L233.318 150.623C232.561 150.903 231.873 151.344 231.302 151.914C230.731 152.485 230.29 153.172 230.01 153.929L229.38 155.63L228.75 153.929C228.469 153.172 228.028 152.485 227.457 151.914C226.886 151.344 226.198 150.903 225.441 150.623L223.738 149.993L225.441 149.364C226.198 149.083 226.886 148.643 227.457 148.072C228.028 147.501 228.469 146.814 228.75 146.057L229.38 144.356Z" fill="#FC6B10"/>
</g>
<defs>
<filter id="filter0_d_3900_52542" x="-10" y="0" width="1458.01" height="376.982" filterUnits="userSpaceOnUse" color-interpolation-filters="sRGB">
<feFlood flood-opacity="0" result="BackgroundImageFix"/>
<feColorMatrix in="SourceAlpha" type="matrix" values="0 0 0 0 0 0 0 0 0 0 0 0 0 0 0 0 0 0 127 0" result="hardAlpha"/>
<feOffset dy="10"/>
<feGaussianBlur stdDeviation="4"/>
<feColorMatrix type="matrix" values="0 0 0 0 0 0 0 0 0 0 0 0 0 0 0 0 0 0 0.25 0"/>
<feBlend mode="normal" in2="BackgroundImageFix" result="effect1_dropShadow_3900_52542"/>
<feBlend mode="normal" in="SourceGraphic" in2="effect1_dropShadow_3900_52542" result="shape"/>
</filter>
<linearGradient id="paint0_linear_3900_52542" x1="388.058" y1="252.904" x2="388.058" y2="411.069" gradientUnits="userSpaceOnUse">
<stop stop-color="#ADD6FD"/>
<stop offset="1" stop-color="#A1C3FF"/>
</linearGradient>
<linearGradient id="paint1_linear_3900_52542" x1="355.946" y1="346.706" x2="421.832" y2="346.706" gradientUnits="userSpaceOnUse">
<stop stop-color="#ADD6FD"/>
<stop offset="1" stop-color="#A1C3FF"/>
</linearGradient>
<linearGradient id="paint2_linear_3900_52542" x1="618.608" y1="252.904" x2="618.608" y2="411.069" gradientUnits="userSpaceOnUse">
<stop stop-color="#ADD6FD"/>
<stop offset="1" stop-color="#A1C3FF"/>
</linearGradient>
<linearGradient id="paint3_linear_3900_52542" x1="590.05" y1="353.704" x2="648.892" y2="353.704" gradientUnits="userSpaceOnUse">
<stop stop-color="#ADD6FD"/>
<stop offset="1" stop-color="#A1C3FF"/>
</linearGradient>
<linearGradient id="paint4_linear_3900_52542" x1="579.431" y1="252.904" x2="579.431" y2="411.069" gradientUnits="userSpaceOnUse">
<stop stop-color="#EB8859"/>
<stop offset="0.99" stop-color="#FAB081"/>
</linearGradient>
<linearGradient id="paint5_linear_3900_52542" x1="554.278" y1="364.814" x2="606.718" y2="364.814" gradientUnits="userSpaceOnUse">
<stop stop-color="#EB8859"/>
<stop offset="0.99" stop-color="#FAB081"/>
</linearGradient>
<linearGradient id="paint6_linear_3900_52542" x1="151.513" y1="202.192" x2="260.288" y2="202.192" gradientUnits="userSpaceOnUse">
<stop stop-color="#C6D9FA"/>
<stop offset="1" stop-color="#FEFEFE"/>
</linearGradient>
<linearGradient id="paint7_linear_3900_52542" x1="305.344" y1="106.313" x2="389.442" y2="106.313" gradientUnits="userSpaceOnUse">
<stop stop-color="#ADD6FD"/>
<stop offset="1" stop-color="#A1C3FF"/>
</linearGradient>
<linearGradient id="paint8_linear_3900_52542" x1="523.007" y1="113.924" x2="623.211" y2="113.924" gradientUnits="userSpaceOnUse">
<stop stop-color="#EB8859"/>
<stop offset="0.99" stop-color="#FAB081"/>
</linearGradient>
<linearGradient id="paint9_linear_3900_52542" x1="538.853" y1="85.0689" x2="597.405" y2="85.0689" gradientUnits="userSpaceOnUse">
<stop stop-color="#FEFEFE"/>
<stop offset="1" stop-color="#C6D9FA"/>
</linearGradient>
<linearGradient id="paint10_linear_3900_52542" x1="538.853" y1="103.546" x2="597.405" y2="103.546" gradientUnits="userSpaceOnUse">
<stop stop-color="#FEFEFE"/>
<stop offset="1" stop-color="#C6D9FA"/>
</linearGradient>
<linearGradient id="paint11_linear_3900_52542" x1="538.853" y1="122.023" x2="597.405" y2="122.023" gradientUnits="userSpaceOnUse">
<stop stop-color="#FEFEFE"/>
<stop offset="1" stop-color="#C6D9FA"/>
</linearGradient>
<linearGradient id="paint12_linear_3900_52542" x1="538.853" y1="140.5" x2="597.405" y2="140.5" gradientUnits="userSpaceOnUse">
<stop stop-color="#FEFEFE"/>
<stop offset="1" stop-color="#C6D9FA"/>
</linearGradient>
<linearGradient id="paint13_linear_3900_52542" x1="538.853" y1="158.977" x2="597.405" y2="158.977" gradientUnits="userSpaceOnUse">
<stop stop-color="#FEFEFE"/>
<stop offset="1" stop-color="#C6D9FA"/>
</linearGradient>
<linearGradient id="paint14_linear_3900_52542" x1="603.603" y1="85.0688" x2="612.882" y2="85.0688" gradientUnits="userSpaceOnUse">
<stop stop-color="#FEFEFE"/>
<stop offset="1" stop-color="#C6D9FA"/>
</linearGradient>
<linearGradient id="paint15_linear_3900_52542" x1="603.603" y1="103.546" x2="612.882" y2="103.546" gradientUnits="userSpaceOnUse">
<stop stop-color="#FEFEFE"/>
<stop offset="1" stop-color="#C6D9FA"/>
</linearGradient>
<linearGradient id="paint16_linear_3900_52542" x1="603.603" y1="122.023" x2="612.882" y2="122.023" gradientUnits="userSpaceOnUse">
<stop stop-color="#FEFEFE"/>
<stop offset="1" stop-color="#C6D9FA"/>
</linearGradient>
<linearGradient id="paint17_linear_3900_52542" x1="603.603" y1="140.499" x2="612.882" y2="140.499" gradientUnits="userSpaceOnUse">
<stop stop-color="#FEFEFE"/>
<stop offset="1" stop-color="#C6D9FA"/>
</linearGradient>
<linearGradient id="paint18_linear_3900_52542" x1="603.603" y1="158.976" x2="612.882" y2="158.976" gradientUnits="userSpaceOnUse">
<stop stop-color="#FEFEFE"/>
<stop offset="1" stop-color="#C6D9FA"/>
</linearGradient>
<linearGradient id="paint19_linear_3900_52542" x1="605.282" y1="85.0404" x2="611.202" y2="85.0404" gradientUnits="userSpaceOnUse">
<stop stop-color="#13469F"/>
<stop offset="1" stop-color="#0E55CB"/>
</linearGradient>
<linearGradient id="paint20_linear_3900_52542" x1="605.282" y1="103.517" x2="611.202" y2="103.517" gradientUnits="userSpaceOnUse">
<stop stop-color="#13469F"/>
<stop offset="1" stop-color="#0E55CB"/>
</linearGradient>
<linearGradient id="paint21_linear_3900_52542" x1="605.282" y1="121.994" x2="611.202" y2="121.994" gradientUnits="userSpaceOnUse">
<stop stop-color="#13469F"/>
<stop offset="1" stop-color="#0E55CB"/>
</linearGradient>
<linearGradient id="paint22_linear_3900_52542" x1="430.986" y1="242.627" x2="629.307" y2="242.627" gradientUnits="userSpaceOnUse">
<stop stop-color="#ADD6FD"/>
<stop offset="1" stop-color="#A1C3FF"/>
</linearGradient>
<linearGradient id="paint23_linear_3900_52542" x1="488.494" y1="304.898" x2="513.244" y2="304.898" gradientUnits="userSpaceOnUse">
<stop stop-color="#EB8859"/>
<stop offset="0.99" stop-color="#FAB081"/>
</linearGradient>
<linearGradient id="paint24_linear_3900_52542" x1="547.048" y1="329.108" x2="571.798" y2="329.108" gradientUnits="userSpaceOnUse">
<stop stop-color="#EB8859"/>
<stop offset="0.99" stop-color="#FAB081"/>
</linearGradient>
<linearGradient id="paint25_linear_3900_52542" x1="523.858" y1="280.682" x2="536.434" y2="280.682" gradientUnits="userSpaceOnUse">
<stop stop-color="#EB8859"/>
<stop offset="0.99" stop-color="#FAB081"/>
</linearGradient>
<linearGradient id="paint26_linear_3900_52542" x1="522.286" y1="280.682" x2="538.007" y2="280.682" gradientUnits="userSpaceOnUse">
<stop stop-color="#EB8859"/>
<stop offset="0.99" stop-color="#FAB081"/>
</linearGradient>
<linearGradient id="paint27_linear_3900_52542" x1="465.305" y1="329.108" x2="477.881" y2="329.108" gradientUnits="userSpaceOnUse">
<stop stop-color="#EB8859"/>
<stop offset="0.99" stop-color="#FAB081"/>
</linearGradient>
<linearGradient id="paint28_linear_3900_52542" x1="463.732" y1="329.108" x2="479.453" y2="329.108" gradientUnits="userSpaceOnUse">
<stop stop-color="#EB8859"/>
<stop offset="0.99" stop-color="#FAB081"/>
</linearGradient>
<linearGradient id="paint29_linear_3900_52542" x1="582.411" y1="353.319" x2="594.993" y2="353.319" gradientUnits="userSpaceOnUse">
<stop stop-color="#EB8859"/>
<stop offset="0.99" stop-color="#FAB081"/>
</linearGradient>
<linearGradient id="paint30_linear_3900_52542" x1="580.839" y1="353.319" x2="596.559" y2="353.319" gradientUnits="userSpaceOnUse">
<stop stop-color="#EB8859"/>
<stop offset="0.99" stop-color="#FAB081"/>
</linearGradient>
<linearGradient id="paint31_linear_3900_52542" x1="444.035" y1="272.828" x2="444.035" y2="51.2406" gradientUnits="userSpaceOnUse">
<stop stop-color="#FEFEFE"/>
<stop offset="1" stop-color="#C6D9FA"/>
</linearGradient>
<linearGradient id="paint32_linear_3900_52542" x1="444.033" y1="162.033" x2="531.582" y2="162.033" gradientUnits="userSpaceOnUse">
<stop stop-color="#E0EEFC"/>
<stop offset="1" stop-color="#8EACE1"/>
</linearGradient>
<linearGradient id="paint33_linear_3900_52542" x1="444.033" y1="162.033" x2="554.873" y2="162.033" gradientUnits="userSpaceOnUse">
<stop stop-color="#E0EEFC"/>
<stop offset="1" stop-color="#8EACE1"/>
</linearGradient>
<linearGradient id="paint34_linear_3900_52542" x1="389.414" y1="132.792" x2="456.736" y2="132.792" gradientUnits="userSpaceOnUse">
<stop stop-color="#EB8859"/>
<stop offset="0.99" stop-color="#FAB081"/>
</linearGradient>
<linearGradient id="paint35_linear_3900_52542" x1="285.946" y1="129.253" x2="314.312" y2="129.253" gradientUnits="userSpaceOnUse">
<stop stop-color="#EB8859"/>
<stop offset="0.99" stop-color="#FAB081"/>
</linearGradient>
<linearGradient id="paint36_linear_3900_52542" x1="284.122" y1="107.881" x2="316.722" y2="107.881" gradientUnits="userSpaceOnUse">
<stop stop-color="#EB8859"/>
<stop offset="0.99" stop-color="#FAB081"/>
</linearGradient>
<linearGradient id="paint37_linear_3900_52542" x1="302.371" y1="114.429" x2="318.211" y2="114.429" gradientUnits="userSpaceOnUse">
<stop stop-color="#EB8859"/>
<stop offset="0.99" stop-color="#FAB081"/>
</linearGradient>
<linearGradient id="paint38_linear_3900_52542" x1="287.143" y1="147.56" x2="347.826" y2="86.8338" gradientUnits="userSpaceOnUse">
<stop stop-color="#13469F"/>
<stop offset="1" stop-color="#0E55CB"/>
</linearGradient>
<linearGradient id="paint39_linear_3900_52542" x1="314.311" y1="134.182" x2="342.041" y2="134.182" gradientUnits="userSpaceOnUse">
<stop stop-color="#EB8859"/>
<stop offset="0.99" stop-color="#FAB081"/>
</linearGradient>
<linearGradient id="paint40_linear_3900_52542" x1="310.163" y1="415.209" x2="346.412" y2="415.209" gradientUnits="userSpaceOnUse">
<stop stop-color="#ADD6FD"/>
<stop offset="1" stop-color="#A1C3FF"/>
</linearGradient>
<linearGradient id="paint41_linear_3900_52542" x1="275.101" y1="414.546" x2="298.869" y2="414.546" gradientUnits="userSpaceOnUse">
<stop stop-color="#ADD6FD"/>
<stop offset="1" stop-color="#A1C3FF"/>
</linearGradient>
<linearGradient id="paint42_linear_3900_52542" x1="644.891" y1="89.2654" x2="676.962" y2="89.2654" gradientUnits="userSpaceOnUse">
<stop stop-color="#FEFEFE"/>
<stop offset="1" stop-color="#C6D9FA"/>
</linearGradient>
<linearGradient id="paint43_linear_3900_52542" x1="229.34" y1="276.649" x2="261.411" y2="276.649" gradientUnits="userSpaceOnUse">
<stop stop-color="#EB8859"/>
<stop offset="0.99" stop-color="#FAB081"/>
</linearGradient>
<linearGradient id="paint44_linear_3900_52542" x1="442.949" y1="252.904" x2="442.949" y2="411.069" gradientUnits="userSpaceOnUse">
<stop stop-color="#C6D9FA"/>
<stop offset="1" stop-color="#FEFEFE"/>
</linearGradient>
<linearGradient id="paint45_linear_3900_52542" x1="528.653" y1="373.792" x2="545.503" y2="373.792" gradientUnits="userSpaceOnUse">
<stop stop-color="#ADD6FD"/>
<stop offset="1" stop-color="#A1C3FF"/>
</linearGradient>
<linearGradient id="paint46_linear_3900_52542" x1="509.311" y1="378.562" x2="521.928" y2="378.562" gradientUnits="userSpaceOnUse">
<stop stop-color="#EB8859"/>
<stop offset="0.99" stop-color="#FAB081"/>
</linearGradient>
<linearGradient id="paint47_linear_3900_52542" x1="408.909" y1="361.576" x2="426.253" y2="361.576" gradientUnits="userSpaceOnUse">
<stop stop-color="#EB8859"/>
<stop offset="0.99" stop-color="#FAB081"/>
</linearGradient>
<linearGradient id="paint48_linear_3900_52542" x1="392.376" y1="373.548" x2="405.878" y2="373.548" gradientUnits="userSpaceOnUse">
<stop stop-color="#EB8859"/>
<stop offset="0.99" stop-color="#FAB081"/>
</linearGradient>
<linearGradient id="paint49_linear_3900_52542" x1="169.221" y1="125.749" x2="209.153" y2="125.749" gradientUnits="userSpaceOnUse">
<stop stop-color="#EB8859"/>
<stop offset="0.99" stop-color="#FAB081"/>
</linearGradient>
<linearGradient id="paint50_linear_3900_52542" x1="119.01" y1="113.924" x2="144.941" y2="113.924" gradientUnits="userSpaceOnUse">
<stop stop-color="#EB8859"/>
<stop offset="0.99" stop-color="#FAB081"/>
</linearGradient>
<clipPath id="clip0_3900_52542">
<rect width="1442" height="436" fill="white" transform="translate(-2)"/>
</clipPath>
</defs>
</svg>
