<svg width="375" height="199" viewBox="0 0 375 199" fill="none" xmlns="http://www.w3.org/2000/svg">
<g clip-path="url(#clip0_3900_52666)">
<g filter="url(#filter0_d_3900_52666)">
<path d="M0 0.776367V145.384C23.6719 156.256 49.1366 166.14 74.587 161.319C99.8621 156.531 121.208 136.137 126.476 111.743C128.755 101.19 128.233 90.2715 129.041 79.5359C129.85 68.8004 132.226 57.6319 139.287 49.2903C146.347 40.9488 159.176 36.4077 169.078 41.3639C185.772 49.7019 183.968 77.0095 200.991 84.6926C210.81 89.1228 222.845 84.9717 231.151 78.2513C257.456 56.9233 278.745 31.9023 317.751 44.0227C337.83 50.2601 354.141 66.6461 375.007 68.8505V0.776367H0Z" fill="#F6F9FF"/>
</g>
<path d="M188.773 163.03C187.123 167.367 184.674 171.356 181.552 174.789C180.126 176.359 178.586 177.821 176.943 179.162C176.155 179.803 175.382 180.407 174.606 180.969C173.829 181.531 173.042 182.043 172.29 182.508C170.905 183.381 169.471 184.176 167.996 184.888C166.852 185.459 165.679 185.971 164.482 186.423C162.478 187.189 161.261 187.496 161.261 187.496C161.261 187.496 161.075 186.219 160.904 184.129C160.828 183.08 160.743 181.824 160.646 180.422C160.549 179.019 160.521 177.473 160.463 175.802C160.446 174.972 160.438 174.12 160.463 173.25C160.489 172.381 160.463 171.461 160.485 170.57C160.56 168.781 160.617 166.877 160.843 165.002C161.419 157.211 164.162 149.737 168.762 143.423C169.811 141.852 170.991 140.374 172.101 138.95C172.663 138.234 173.246 137.558 173.815 136.893C174.384 136.227 174.924 135.579 175.479 134.957C176.599 133.718 177.626 132.57 178.603 131.55L181.197 128.891C182.679 127.406 183.649 126.554 183.649 126.554C183.649 126.554 184.364 127.588 185.402 129.467C186.023 130.585 186.585 131.734 187.088 132.91C187.748 134.404 188.324 135.934 188.812 137.494C189.081 138.345 189.339 139.24 189.582 140.17C189.825 141.101 190.011 142.06 190.197 143.058C190.58 145.143 190.81 147.253 190.884 149.371C191.042 154.016 190.326 158.649 188.773 163.03Z" fill="url(#paint0_linear_3900_52666)"/>
<path d="M190.86 151.79L190.885 151.074C189.941 151.561 188.738 152.226 187.364 153.053C185.99 153.879 184.448 154.842 182.898 155.987C179.742 158.238 176.5 161.069 173.902 164.576C175.519 160.775 176.936 156.893 178.196 152.96C178.45 152.169 178.759 151.398 179.123 150.652C179.457 149.919 179.838 149.209 180.264 148.526C181.102 147.205 182.05 145.958 183.098 144.797C184.097 143.712 185.154 142.682 186.265 141.712C187.339 140.793 188.413 139.988 189.325 139.293L189.143 138.649C186.151 140.832 182.147 144.167 179.527 148.569C181.55 141.493 183.012 134.268 183.9 126.962L183.642 126.572L183.285 126.89C182.401 134.163 180.943 141.354 178.926 148.397C179.026 143.255 176.779 138.664 174.746 135.786L174.349 136.252C175.051 137.267 175.672 138.335 176.206 139.447C176.839 140.718 177.339 142.05 177.698 143.423C178.323 145.679 178.489 148.037 178.185 150.358C178.058 151.173 177.868 151.977 177.616 152.763C176.36 156.678 174.95 160.546 173.322 164.329C174.066 160.034 173.283 155.812 172.062 152.376C171.486 150.8 170.789 149.27 169.98 147.8C169.358 146.704 168.677 145.643 167.94 144.622L167.603 145.144C169.692 148.057 171.244 151.32 172.188 154.778C173.336 159.04 173.508 164.196 171.279 168.97C170.584 170.469 169.847 171.951 169.114 173.432C168.38 174.914 167.607 176.378 166.78 177.813C168.248 172.57 167.417 167.26 166.065 163.298C165.2 160.722 163.996 158.272 162.486 156.012L162.282 156.728C163.005 157.855 163.647 159.031 164.204 160.249C165.124 162.202 165.828 164.249 166.304 166.354C167.378 171.067 167.339 177.029 164.222 182.196C163.259 183.842 162.207 185.417 161.184 187.031L161.244 187.5L161.692 187.367C162.722 185.757 163.782 184.147 164.744 182.515C167.847 177.372 172.549 173.887 177.008 171.3C179 170.155 181.051 169.116 183.152 168.186C184.941 167.396 186.401 166.869 187.178 166.587L187.572 165.764C184.832 166.721 182.163 167.871 179.584 169.203C175.591 171.242 170.953 174.084 167.299 178.099C168.129 176.667 168.86 175.164 169.643 173.701C170.427 172.237 171.118 170.724 171.815 169.217C174.038 164.454 177.598 160.836 181.23 157.945C184.251 155.611 187.474 153.551 190.86 151.79Z" fill="url(#paint1_linear_3900_52666)"/>
<path d="M290.576 162.883C289.409 166.086 287.846 169.129 285.924 171.944C285.04 173.351 284.024 174.685 283.086 175.974C282.607 176.618 282.109 177.244 281.626 177.852C281.143 178.461 280.689 179.058 280.22 179.642C279.264 180.783 278.398 181.849 277.575 182.805L275.385 185.31C274.14 186.716 273.317 187.536 273.317 187.536C273.317 187.536 272.601 186.652 271.588 185.031C270.971 184.059 270.409 183.053 269.907 182.018C269.236 180.7 268.651 179.341 268.153 177.949C267.881 177.19 267.613 176.392 267.359 175.555C267.105 174.717 266.908 173.855 266.707 172.957C266.297 171.071 266.033 169.157 265.917 167.231C265.621 162.991 266.205 158.736 267.633 154.733C269.061 150.73 271.302 147.066 274.215 143.971C275.523 142.549 276.941 141.233 278.456 140.035C279.171 139.466 279.887 138.925 280.603 138.435C281.318 137.945 282.034 137.497 282.75 137.086C284.018 136.323 285.333 135.641 286.686 135.042C287.735 134.56 288.81 134.137 289.907 133.776C291.736 133.16 292.838 132.92 292.838 132.92C292.838 132.92 292.956 134.076 293.031 135.951C293.063 136.896 293.103 138.02 293.142 139.272C293.181 140.525 293.171 141.906 293.188 143.395C293.188 144.132 293.188 144.891 293.156 145.66C293.124 146.429 293.135 147.234 293.099 148.036C293.006 149.629 292.949 151.307 292.741 152.953C292.436 156.34 291.709 159.676 290.576 162.883Z" fill="url(#paint2_linear_3900_52666)"/>
<path d="M292.501 154.71L292.576 154.166C291.486 154.415 290.41 154.726 289.355 155.096C287.951 155.612 286.589 156.238 285.283 156.968C282.474 158.592 279.496 161.047 277.582 164.458C278.612 160.913 279.844 157.43 281.271 154.026C281.554 153.343 281.891 152.682 282.277 152.051C282.672 151.453 283.106 150.881 283.576 150.34C284.478 149.306 285.517 148.399 286.664 147.646C287.715 146.93 288.841 146.33 290.021 145.856C291.037 145.433 292.087 145.094 293.159 144.844V144.3C290.096 144.98 285.852 146.712 282.899 150.269C285.657 144.298 288.989 138.61 292.848 133.285C292.826 133.013 292.812 132.863 292.812 132.863L292.404 132.963C288.517 138.316 285.161 144.035 282.384 150.04C283.179 145.513 282.481 140.875 281.815 137.583L281.307 137.909C281.504 138.936 281.736 140.124 281.901 141.38C282.066 142.636 282.155 143.967 282.194 145.355C282.213 146.763 282.118 148.171 281.912 149.564C281.804 150.28 281.648 150.988 281.443 151.682C281.254 152.404 281.015 153.112 280.727 153.801C279.3 157.232 278.069 160.743 277.041 164.314C277.159 160.558 276.731 156.804 275.771 153.171C275.374 151.485 274.894 149.907 274.436 148.519C273.978 147.13 273.57 145.971 273.22 145.073L272.804 145.595C274.043 148.812 275.026 152.122 275.742 155.493C276.558 159.605 276.956 164.139 275.843 168.734C275.485 170.183 275.177 171.643 274.862 173.103C274.608 174.574 274.29 176.03 274.089 177.512C273.703 172.656 272.046 168.05 270.421 164.332C269.377 161.923 268.182 159.581 266.843 157.322L266.639 158.131C266.997 158.778 267.712 159.999 268.51 161.577C269.308 163.155 270.206 165.116 271.015 167.274C272.676 171.629 274.053 176.696 273.474 182.053C273.263 183.76 273.166 185.474 273.041 187.185L273.291 187.521L273.588 187.217C273.717 185.514 273.81 183.807 274.021 182.114C274.601 176.725 277.9 172.488 281.286 169.829C282.804 168.64 284.456 167.63 286.206 166.819C287.279 166.302 288.389 165.864 289.527 165.51L289.799 164.908C287.472 165.577 285.251 166.568 283.2 167.854C280.04 169.825 276.476 173.075 274.633 177.601C274.83 176.131 275.148 174.678 275.402 173.218C275.714 171.768 276.018 170.312 276.376 168.873C277.492 164.279 280.563 160.797 283.805 158.557C286.434 156.736 289.385 155.431 292.501 154.71Z" fill="url(#paint3_linear_3900_52666)"/>
<path d="M270.385 167.514C269.296 170.082 267.905 172.511 266.241 174.749C265.479 175.877 264.595 176.947 263.797 177.991C263.385 178.51 262.96 179.019 262.548 179.512C262.137 180.006 261.75 180.493 261.353 180.944L259.116 183.545L258.121 184.658L257.277 185.624C256.236 186.798 255.549 187.492 255.549 187.492C255.026 186.815 254.54 186.11 254.092 185.381C253.877 185.023 253.645 184.665 253.398 184.225C253.151 183.785 252.933 183.341 252.682 182.837C252.127 181.72 251.649 180.566 251.251 179.384C251.032 178.736 250.818 178.056 250.614 177.34C250.41 176.624 250.256 175.891 250.12 175.122C249.808 173.507 249.632 171.87 249.594 170.226C249.474 166.593 250.137 162.977 251.537 159.622C252.937 156.268 255.043 153.254 257.71 150.784C258.906 149.657 260.193 148.63 261.557 147.714C262.212 147.281 262.849 146.873 263.482 146.504C264.115 146.136 264.77 145.821 265.382 145.524C266.505 144.976 267.664 144.505 268.85 144.114C269.379 143.935 269.873 143.777 270.339 143.645C270.804 143.512 271.251 143.412 271.648 143.326C272.475 143.132 273.311 142.982 274.153 142.875C274.153 142.875 274.153 143.852 274.042 145.42C274.014 145.809 273.981 146.235 273.946 146.697C273.917 147.163 273.888 147.664 273.856 148.186C273.77 149.242 273.677 150.394 273.577 151.607C273.527 152.219 273.463 152.842 273.387 153.475C273.312 154.108 273.269 154.778 273.187 155.433C273.005 156.735 272.865 158.116 272.6 159.451C272.187 162.218 271.443 164.924 270.385 167.514Z" fill="url(#paint4_linear_3900_52666)"/>
<path d="M272.325 160.937L272.415 160.493C271.489 160.623 270.572 160.809 269.67 161.051C268.472 161.392 267.305 161.831 266.181 162.364C263.762 163.563 261.149 165.478 259.432 168.269C260.415 165.336 261.597 162.474 262.971 159.702C263.242 159.145 263.559 158.611 263.919 158.106C264.282 157.627 264.678 157.174 265.104 156.75C265.917 155.94 266.841 155.249 267.848 154.699C268.771 154.179 269.749 153.765 270.765 153.465C271.639 153.189 272.536 152.989 273.445 152.867L273.495 152.423C270.901 152.727 267.233 153.855 264.549 156.664C267.205 151.831 270.422 147.328 274.132 143.248C274.132 143.023 274.132 142.89 274.132 142.89L273.774 142.937C270.033 147.041 266.79 151.573 264.112 156.438C265.043 152.699 264.796 148.762 264.513 145.939L264.062 146.179C264.141 147.056 264.245 148.075 264.288 149.142C264.331 150.208 264.309 151.332 264.248 152.502C264.167 153.683 264 154.856 263.747 156.013C263.611 156.605 263.437 157.188 263.228 157.759C263.03 158.353 262.79 158.933 262.513 159.494C261.126 162.285 259.93 165.166 258.934 168.119C259.164 164.965 258.971 161.795 258.362 158.693C258.122 157.261 257.807 155.894 257.51 154.703C257.213 153.511 256.948 152.498 256.712 151.718L256.401 152.148C257.226 154.942 257.858 157.791 258.294 160.672C258.77 164.175 258.924 167.986 257.864 171.797C257.506 173.003 257.238 174.224 256.941 175.44C256.705 176.668 256.404 177.884 256.225 179.126C255.961 175.05 254.694 171.135 253.456 167.933C252.67 165.855 251.765 163.824 250.747 161.849L250.539 162.529C250.818 163.094 251.369 164.161 251.97 165.528C252.572 166.895 253.262 168.584 253.885 170.43C255.145 174.163 256.197 178.432 255.674 182.919C255.481 184.351 255.413 185.782 255.316 187.214L255.528 187.493L255.774 187.235C255.878 185.804 255.95 184.372 256.132 182.941C256.64 178.421 259.503 174.925 262.402 172.824C263.698 171.882 265.104 171.101 266.589 170.498C267.502 170.115 268.443 169.804 269.405 169.568L269.652 169.088C267.686 169.522 265.794 170.246 264.041 171.236C261.343 172.753 258.265 175.376 256.665 179.151C256.841 177.92 257.141 176.711 257.381 175.49C257.675 174.281 257.961 173.071 258.297 171.873C259.371 168.051 262.08 165.249 264.889 163.552C267.168 162.193 269.697 161.303 272.325 160.937Z" fill="url(#paint5_linear_3900_52666)"/>
<path d="M114.302 91.9069C114.301 90.3828 114.131 88.8634 113.797 87.3764C113.684 86.8887 113.73 86.3775 113.928 85.9177C114.126 85.4579 114.467 85.0737 114.899 84.8214L116.953 83.6369C117.49 83.3257 117.881 82.8146 118.041 82.2157C118.201 81.6168 118.118 80.9788 117.809 80.4413L115.644 76.691C115.49 76.4248 115.286 76.1914 115.042 76.0043C114.798 75.8172 114.52 75.68 114.223 75.6006C113.926 75.5211 113.617 75.501 113.312 75.5414C113.008 75.5817 112.714 75.6817 112.448 75.8357L110.39 77.0238C109.955 77.2724 109.452 77.3752 108.954 77.3173C108.457 77.2593 107.99 77.0436 107.624 76.7017C105.38 74.6313 102.705 73.0851 99.7907 72.1749C99.3117 72.0289 98.8921 71.7333 98.5933 71.3315C98.2945 70.9296 98.1322 70.4427 98.1303 69.9419V67.5694C98.1308 67.2622 98.0707 66.9579 97.9535 66.674C97.8362 66.3901 97.6642 66.1321 97.4471 65.9147C97.2301 65.6973 96.9723 65.5249 96.6886 65.4072C96.4049 65.2896 96.1007 65.229 95.7935 65.229H91.4635C90.8428 65.229 90.2475 65.4756 89.8086 65.9145C89.3697 66.3534 89.1232 66.9487 89.1232 67.5694V69.9419C89.1212 70.4427 88.959 70.9296 88.6602 71.3315C88.3614 71.7333 87.9417 72.0289 87.4627 72.1749C84.549 73.086 81.8736 74.6321 79.6294 76.7017C79.263 77.0436 78.7969 77.2593 78.2992 77.3173C77.8015 77.3752 77.2983 77.2724 76.8632 77.0238L74.8055 75.8357C74.5396 75.6817 74.246 75.5817 73.9413 75.5414C73.6367 75.501 73.3272 75.5211 73.0303 75.6006C72.7335 75.68 72.4553 75.8172 72.2115 76.0043C71.9678 76.1914 71.7634 76.4248 71.6099 76.691L69.4628 80.4413C69.1531 80.979 69.0695 81.6176 69.2306 82.2169C69.3917 82.8162 69.7841 83.3269 70.3216 83.6369L72.3721 84.8214C72.8047 85.0737 73.1451 85.4579 73.3434 85.9177C73.5417 86.3775 73.5876 86.8887 73.4743 87.3764C72.8111 90.3567 72.8111 93.4463 73.4743 96.4265C73.5876 96.9143 73.5417 97.4255 73.3434 97.8853C73.1451 98.3451 72.8047 98.7293 72.3721 98.9816L70.3216 100.166C69.7841 100.476 69.3917 100.987 69.2306 101.586C69.0695 102.185 69.1531 102.824 69.4628 103.362L71.6099 107.112C71.9199 107.65 72.4306 108.042 73.0299 108.203C73.6292 108.364 74.2678 108.281 74.8055 107.971L76.8632 106.783C77.2983 106.534 77.8015 106.431 78.2992 106.489C78.7969 106.547 79.263 106.763 79.6294 107.105C81.8738 109.173 84.5492 110.718 87.4627 111.628C87.9417 111.774 88.3614 112.07 88.6602 112.471C88.959 112.873 89.1212 113.36 89.1232 113.861V116.234C89.1232 116.854 89.3697 117.45 89.8086 117.888C90.2475 118.327 90.8428 118.574 91.4635 118.574H95.7935C96.1007 118.574 96.4049 118.513 96.6886 118.396C96.9723 118.278 97.2301 118.106 97.4471 117.888C97.6642 117.671 97.8362 117.413 97.9535 117.129C98.0707 116.845 98.1308 116.541 98.1303 116.234V113.857C98.1322 113.357 98.2945 112.87 98.5933 112.468C98.8921 112.066 99.3117 111.771 99.7907 111.624C102.705 110.716 105.38 109.171 107.624 107.101C107.99 106.759 108.457 106.544 108.954 106.486C109.452 106.428 109.955 106.531 110.39 106.779L112.448 107.967C112.986 108.277 113.624 108.36 114.224 108.199C114.823 108.038 115.334 107.646 115.644 107.108L117.809 103.358C118.118 102.821 118.201 102.183 118.041 101.584C117.881 100.985 117.49 100.474 116.953 100.162L114.899 98.978C114.468 98.7261 114.129 98.3431 113.93 97.8848C113.732 97.4265 113.685 96.9168 113.797 96.4301C114.131 94.9455 114.3 93.4286 114.302 91.9069ZM93.6357 102.481C91.5432 102.482 89.4976 101.862 87.7575 100.7C86.0174 99.5381 84.661 97.886 83.8599 95.953C83.0588 94.0199 82.849 91.8927 83.2571 89.8405C83.6651 87.7882 84.6727 85.903 86.1523 84.4234C87.6319 82.9438 89.517 81.9363 91.5693 81.5283C93.6216 81.1202 95.7488 81.33 97.6818 82.1311C99.6149 82.9321 101.267 84.2885 102.429 86.0286C103.591 87.7687 104.211 89.8144 104.21 91.9069C104.21 94.7114 103.096 97.4011 101.113 99.3842C99.1299 101.367 96.4402 102.481 93.6357 102.481Z" fill="url(#paint6_linear_3900_52666)"/>
<path d="M173.34 48.6928C173.341 47.5155 173.211 46.3417 172.953 45.193C172.867 44.8156 172.903 44.4205 173.057 44.0652C173.211 43.7099 173.474 43.413 173.808 43.2177L175.394 42.3016C175.599 42.183 175.78 42.025 175.924 41.8367C176.069 41.6484 176.175 41.4335 176.236 41.2042C176.298 40.9749 176.313 40.7357 176.282 40.5003C176.251 40.265 176.174 40.038 176.056 39.8324L174.381 36.9195C174.264 36.7121 174.107 36.5301 173.919 36.3841C173.731 36.2382 173.515 36.1313 173.285 36.0696C173.056 36.008 172.816 35.9928 172.58 36.0251C172.344 36.0573 172.117 36.1364 171.912 36.2575L170.337 37.1879C170.001 37.3865 169.61 37.4698 169.222 37.4252C168.835 37.3807 168.472 37.2106 168.19 36.941C166.455 35.3396 164.386 34.1441 162.132 33.4412C161.762 33.3281 161.438 33.0997 161.208 32.7893C160.977 32.4789 160.852 32.103 160.851 31.7163V29.8806C160.845 29.4041 160.652 28.949 160.313 28.614C159.974 28.2791 159.516 28.0913 159.04 28.0913H155.694C155.217 28.0913 154.76 28.2791 154.421 28.614C154.082 28.949 153.889 29.4041 153.883 29.8806V31.7163C153.882 32.103 153.757 32.4789 153.526 32.7893C153.296 33.0997 152.972 33.3281 152.602 33.4412C150.348 34.1449 148.279 35.3403 146.544 36.941C146.262 37.2106 145.899 37.3807 145.512 37.4252C145.124 37.4698 144.732 37.3865 144.397 37.1879L142.804 36.2718C142.599 36.1507 142.372 36.0717 142.136 36.0394C141.9 36.0071 141.66 36.0223 141.43 36.0839C141.2 36.1456 140.985 36.2525 140.797 36.3985C140.609 36.5444 140.452 36.7264 140.335 36.9338L138.66 39.8324C138.541 40.038 138.464 40.265 138.433 40.5003C138.402 40.7357 138.418 40.9749 138.48 41.2042C138.541 41.4335 138.647 41.6484 138.792 41.8367C138.936 42.025 139.117 42.183 139.322 42.3016L140.907 43.2177C141.242 43.413 141.505 43.7099 141.659 44.0652C141.813 44.4205 141.849 44.8156 141.763 45.193C141.247 47.4978 141.247 49.8879 141.763 52.1926C141.85 52.57 141.814 52.9654 141.66 53.3208C141.506 53.6763 141.242 53.9731 140.907 54.168L139.322 55.0841C139.117 55.2027 138.936 55.3606 138.792 55.5489C138.647 55.7372 138.541 55.9522 138.48 56.1815C138.418 56.4108 138.402 56.65 138.433 56.8853C138.464 57.1207 138.541 57.3477 138.66 57.5532L140.335 60.4518C140.452 60.6593 140.609 60.8413 140.797 60.9872C140.985 61.1331 141.2 61.2401 141.43 61.3017C141.66 61.3634 141.9 61.3785 142.136 61.3463C142.372 61.314 142.599 61.235 142.804 61.1139L144.397 60.1978C144.734 60.0038 145.124 59.9231 145.511 59.9675C145.897 60.0119 146.259 60.1792 146.544 60.4447C148.279 62.0454 150.348 63.2408 152.602 63.9445C152.972 64.0575 153.296 64.286 153.526 64.5963C153.757 64.9067 153.882 65.2827 153.883 65.6693V67.5051C153.884 67.985 154.075 68.4451 154.415 68.7844C154.754 69.1238 155.214 69.3149 155.694 69.3158H159.04C159.52 69.3149 159.98 69.1238 160.319 68.7844C160.659 68.4451 160.85 67.985 160.851 67.5051V65.6693C160.852 65.2827 160.977 64.9067 161.208 64.5963C161.438 64.286 161.762 64.0575 162.132 63.9445C164.385 63.2408 166.455 62.0454 168.19 60.4447C168.474 60.1792 168.836 60.0119 169.223 59.9675C169.609 59.9231 170 60.0038 170.337 60.1978L171.93 61.1139C172.135 61.235 172.362 61.314 172.598 61.3463C172.833 61.3785 173.073 61.3634 173.303 61.3017C173.533 61.2401 173.749 61.1331 173.937 60.9872C174.125 60.8413 174.282 60.6593 174.399 60.4518L176.074 57.5532C176.192 57.3477 176.269 57.1207 176.3 56.8853C176.331 56.65 176.316 56.4108 176.254 56.1815C176.193 55.9522 176.087 55.7372 175.942 55.5489C175.797 55.3606 175.617 55.2027 175.412 55.0841L173.826 54.168C173.492 53.9731 173.228 53.6763 173.074 53.3208C172.92 52.9654 172.884 52.57 172.971 52.1926C173.223 51.0433 173.347 49.8695 173.34 48.6928ZM157.362 56.8697C155.744 56.8705 154.163 56.3915 152.818 55.4934C151.473 54.5954 150.424 53.3186 149.804 51.8245C149.185 50.3304 149.023 48.6862 149.338 47.0998C149.653 45.5134 150.431 44.0561 151.575 42.9121C152.718 41.7682 154.175 40.9891 155.761 40.6733C157.348 40.3575 158.992 40.5192 160.486 41.138C161.981 41.7568 163.258 42.8048 164.157 44.1496C165.055 45.4944 165.535 47.0754 165.535 48.6928C165.535 50.8609 164.674 52.9401 163.141 54.4735C161.608 56.0069 159.53 56.8688 157.362 56.8697Z" fill="url(#paint7_linear_3900_52666)"/>
<path d="M279.752 21.7178H238.291C237.277 21.7178 236.455 22.5397 236.455 23.5536V80.6989C236.455 81.7128 237.277 82.5347 238.291 82.5347H279.752C280.765 82.5347 281.587 81.7128 281.587 80.6989V23.5536C281.587 22.5397 280.765 21.7178 279.752 21.7178Z" fill="url(#paint8_linear_3900_52666)"/>
<path d="M269.96 38.0361H243.59V40.1976H269.96V38.0361Z" fill="url(#paint9_linear_3900_52666)"/>
<path d="M269.96 46.3633H243.59V48.5247H269.96V46.3633Z" fill="url(#paint10_linear_3900_52666)"/>
<path d="M269.96 54.6938H243.59V56.8553H269.96V54.6938Z" fill="url(#paint11_linear_3900_52666)"/>
<path d="M269.96 63.021H243.59V65.1824H269.96V63.021Z" fill="url(#paint12_linear_3900_52666)"/>
<path d="M269.96 71.3481H243.59V73.5096H269.96V71.3481Z" fill="url(#paint13_linear_3900_52666)"/>
<path d="M264.123 34.9382C264.123 36.2362 263.877 37.3405 263.385 38.251C262.897 39.1616 262.23 39.8571 261.386 40.3375C260.545 40.8141 259.599 41.0524 258.549 41.0524C257.492 41.0524 256.542 40.8122 255.701 40.3317C254.861 39.8512 254.196 39.1557 253.708 38.2452C253.22 37.3347 252.976 36.2323 252.976 34.9382C252.976 33.6402 253.22 32.5359 253.708 31.6254C254.196 30.7149 254.861 30.0213 255.701 29.5447C256.542 29.0643 257.492 28.824 258.549 28.824C259.599 28.824 260.545 29.0643 261.386 29.5447C262.23 30.0213 262.897 30.7149 263.385 31.6254C263.877 32.5359 264.123 33.6402 264.123 34.9382ZM261.572 34.9382C261.572 34.0974 261.446 33.3884 261.194 32.811C260.946 32.2337 260.595 31.7959 260.142 31.4975C259.688 31.1992 259.158 31.05 258.549 31.05C257.941 31.05 257.41 31.1992 256.957 31.4975C256.504 31.7959 256.151 32.2337 255.899 32.811C255.651 33.3884 255.527 34.0974 255.527 34.9382C255.527 35.779 255.651 36.4881 255.899 37.0654C256.151 37.6427 256.504 38.0805 256.957 38.3789C257.41 38.6772 257.941 38.8264 258.549 38.8264C259.158 38.8264 259.688 38.6772 260.142 38.3789C260.595 38.0805 260.946 37.6427 261.194 37.0654C261.446 36.4881 261.572 35.779 261.572 34.9382ZM257.404 60.8896H253.185V48.9868H257.439C258.637 48.9868 259.667 49.2251 260.531 49.7016C261.395 50.1743 262.06 50.8543 262.525 51.7416C262.994 52.6289 263.228 53.6906 263.228 54.9266C263.228 56.1665 262.994 57.232 262.525 58.1232C262.06 59.0143 261.391 59.6982 260.52 60.1748C259.652 60.6514 258.613 60.8896 257.404 60.8896ZM255.701 58.7334H257.3C258.044 58.7334 258.669 58.6017 259.177 58.3382C259.688 58.0709 260.072 57.6582 260.328 57.1003C260.587 56.5384 260.717 55.8139 260.717 54.9266C260.717 54.047 260.587 53.3283 260.328 52.7703C260.072 52.2124 259.69 51.8017 259.183 51.5382C258.675 51.2747 258.05 51.143 257.306 51.143H255.701V58.7334ZM264.123 74.9382C264.123 76.2362 263.877 77.3405 263.385 78.251C262.897 79.1616 262.23 79.8571 261.386 80.3375C260.545 80.8141 259.599 81.0524 258.549 81.0524C257.492 81.0524 256.542 80.8122 255.701 80.3317C254.861 79.8512 254.196 79.1557 253.708 78.2452C253.22 77.3347 252.976 76.2323 252.976 74.9382C252.976 73.6402 253.22 72.5359 253.708 71.6254C254.196 70.7149 254.861 70.0213 255.701 69.5447C256.542 69.0643 257.492 68.824 258.549 68.824C259.599 68.824 260.545 69.0643 261.386 69.5447C262.23 70.0213 262.897 70.7149 263.385 71.6254C263.877 72.5359 264.123 73.6402 264.123 74.9382ZM261.572 74.9382C261.572 74.0974 261.446 73.3884 261.194 72.811C260.946 72.2337 260.595 71.7959 260.142 71.4975C259.688 71.1992 259.158 71.05 258.549 71.05C257.941 71.05 257.41 71.1992 256.957 71.4975C256.504 71.7959 256.151 72.2337 255.899 72.811C255.651 73.3884 255.527 74.0974 255.527 74.9382C255.527 75.779 255.651 76.4881 255.899 77.0654C256.151 77.6427 256.504 78.0805 256.957 78.3789C257.41 78.6772 257.941 78.8264 258.549 78.8264C259.158 78.8264 259.688 78.6772 260.142 78.3789C260.595 78.0805 260.946 77.6427 261.194 77.0654C261.446 76.4881 261.572 75.779 261.572 74.9382Z" fill="#F6F9FF"/>
<path d="M276.585 37.0269H273.099C272.907 37.0269 272.752 37.1823 272.752 37.374V40.8594C272.752 41.0512 272.907 41.2066 273.099 41.2066H276.585C276.776 41.2066 276.932 41.0512 276.932 40.8594V37.374C276.932 37.1823 276.776 37.0269 276.585 37.0269Z" fill="url(#paint14_linear_3900_52666)"/>
<path d="M276.585 45.354H273.099C272.907 45.354 272.752 45.5094 272.752 45.7011V49.1866C272.752 49.3783 272.907 49.5337 273.099 49.5337H276.585C276.776 49.5337 276.932 49.3783 276.932 49.1866V45.7011C276.932 45.5094 276.776 45.354 276.585 45.354Z" fill="url(#paint15_linear_3900_52666)"/>
<path d="M276.585 53.6846H273.099C272.907 53.6846 272.752 53.84 272.752 54.0317V57.5172C272.752 57.7089 272.907 57.8643 273.099 57.8643H276.585C276.776 57.8643 276.932 57.7089 276.932 57.5172V54.0317C276.932 53.84 276.776 53.6846 276.585 53.6846Z" fill="url(#paint16_linear_3900_52666)"/>
<path d="M276.585 62.0117H273.099C272.907 62.0117 272.752 62.1671 272.752 62.3588V65.8443C272.752 66.036 272.907 66.1914 273.099 66.1914H276.585C276.776 66.1914 276.932 66.036 276.932 65.8443V62.3588C276.932 62.1671 276.776 62.0117 276.585 62.0117Z" fill="url(#paint17_linear_3900_52666)"/>
<path d="M276.585 70.3394H273.099C272.907 70.3394 272.752 70.4948 272.752 70.6865V74.1719C272.752 74.3637 272.907 74.5191 273.099 74.5191H276.585C276.776 74.5191 276.932 74.3637 276.932 74.1719V70.6865C276.932 70.4948 276.776 70.3394 276.585 70.3394Z" fill="url(#paint18_linear_3900_52666)"/>
<path d="M273.51 40.4261L273.535 37.7852L276.176 37.8066L276.151 40.4261H273.51Z" fill="url(#paint19_linear_3900_52666)"/>
<path d="M273.51 48.7537L273.535 46.1128L276.176 46.1378L276.151 48.7537H273.51Z" fill="url(#paint20_linear_3900_52666)"/>
<path d="M273.51 57.0809L273.535 54.4399L276.176 54.465L276.151 57.0809H273.51Z" fill="url(#paint21_linear_3900_52666)"/>
<path d="M274.716 104.804H204.627C199.317 104.804 195.012 109.109 195.012 114.419V166.254C195.012 171.564 199.317 175.869 204.627 175.869H274.716C280.027 175.869 284.332 171.564 284.332 166.254V114.419C284.332 109.109 280.027 104.804 274.716 104.804Z" fill="white"/>
<path d="M195.029 115.457C195.029 112.632 196.152 109.922 198.15 107.924C200.147 105.926 202.857 104.804 205.683 104.804H273.674C276.5 104.804 279.209 105.926 281.207 107.924C283.205 109.922 284.328 112.632 284.328 115.457H195.029Z" fill="url(#paint22_linear_3900_52666)"/>
<path d="M218.269 123.387H208.324C207.992 123.387 207.723 123.656 207.723 123.988V130.58C207.723 130.912 207.992 131.181 208.324 131.181H218.269C218.601 131.181 218.87 130.912 218.87 130.58V123.988C218.87 123.656 218.601 123.387 218.269 123.387Z" fill="#CFDEFF"/>
<path d="M231.454 123.387H221.509C221.177 123.387 220.908 123.656 220.908 123.988V130.58C220.908 130.912 221.177 131.181 221.509 131.181H231.454C231.786 131.181 232.055 130.912 232.055 130.58V123.988C232.055 123.656 231.786 123.387 231.454 123.387Z" fill="#CFDEFF"/>
<path d="M244.642 123.387H234.697C234.365 123.387 234.096 123.656 234.096 123.988V130.58C234.096 130.912 234.365 131.181 234.697 131.181H244.642C244.974 131.181 245.243 130.912 245.243 130.58V123.988C245.243 123.656 244.974 123.387 244.642 123.387Z" fill="#CFDEFF"/>
<path d="M257.829 123.387H247.884C247.552 123.387 247.283 123.656 247.283 123.988V130.58C247.283 130.912 247.552 131.181 247.884 131.181H257.829C258.161 131.181 258.43 130.912 258.43 130.58V123.988C258.43 123.656 258.161 123.387 257.829 123.387Z" fill="#CFDEFF"/>
<path d="M271.013 123.387H261.068C260.736 123.387 260.467 123.656 260.467 123.988V130.58C260.467 130.912 260.736 131.181 261.068 131.181H271.013C271.345 131.181 271.614 130.912 271.614 130.58V123.988C271.614 123.656 271.345 123.387 271.013 123.387Z" fill="#CFDEFF"/>
<path d="M218.269 134.298H208.324C207.992 134.298 207.723 134.567 207.723 134.899V141.491C207.723 141.823 207.992 142.092 208.324 142.092H218.269C218.601 142.092 218.87 141.823 218.87 141.491V134.899C218.87 134.567 218.601 134.298 218.269 134.298Z" fill="#CFDEFF"/>
<path d="M231.454 134.298H221.509C221.177 134.298 220.908 134.567 220.908 134.899V141.491C220.908 141.823 221.177 142.092 221.509 142.092H231.454C231.786 142.092 232.055 141.823 232.055 141.491V134.899C232.055 134.567 231.786 134.298 231.454 134.298Z" fill="url(#paint23_linear_3900_52666)"/>
<path d="M244.642 134.298H234.697C234.365 134.298 234.096 134.567 234.096 134.899V141.491C234.096 141.823 234.365 142.092 234.697 142.092H244.642C244.974 142.092 245.243 141.823 245.243 141.491V134.899C245.243 134.567 244.974 134.298 244.642 134.298Z" fill="#CFDEFF"/>
<path d="M257.829 134.298H247.884C247.552 134.298 247.283 134.567 247.283 134.899V141.491C247.283 141.823 247.552 142.092 247.884 142.092H257.829C258.161 142.092 258.43 141.823 258.43 141.491V134.899C258.43 134.567 258.161 134.298 257.829 134.298Z" fill="#CFDEFF"/>
<path d="M271.013 134.298H261.068C260.736 134.298 260.467 134.567 260.467 134.899V141.491C260.467 141.823 260.736 142.092 261.068 142.092H271.013C271.345 142.092 271.614 141.823 271.614 141.491V134.899C271.614 134.567 271.345 134.298 271.013 134.298Z" fill="#CFDEFF"/>
<path d="M218.269 145.212H208.324C207.992 145.212 207.723 145.482 207.723 145.814V152.405C207.723 152.737 207.992 153.006 208.324 153.006H218.269C218.601 153.006 218.87 152.737 218.87 152.405V145.814C218.87 145.482 218.601 145.212 218.269 145.212Z" fill="#CFDEFF"/>
<path d="M231.454 145.212H221.509C221.177 145.212 220.908 145.482 220.908 145.814V152.405C220.908 152.737 221.177 153.006 221.509 153.006H231.454C231.786 153.006 232.055 152.737 232.055 152.405V145.814C232.055 145.482 231.786 145.212 231.454 145.212Z" fill="#CFDEFF"/>
<path d="M244.642 145.212H234.697C234.365 145.212 234.096 145.482 234.096 145.814V152.405C234.096 152.737 234.365 153.006 234.697 153.006H244.642C244.974 153.006 245.243 152.737 245.243 152.405V145.814C245.243 145.482 244.974 145.212 244.642 145.212Z" fill="#CFDEFF"/>
<path d="M257.829 145.212H247.884C247.552 145.212 247.283 145.482 247.283 145.814V152.405C247.283 152.737 247.552 153.006 247.884 153.006H257.829C258.161 153.006 258.43 152.737 258.43 152.405V145.814C258.43 145.482 258.161 145.212 257.829 145.212Z" fill="url(#paint24_linear_3900_52666)"/>
<path d="M271.013 145.212H261.068C260.736 145.212 260.467 145.482 260.467 145.814V152.405C260.467 152.737 260.736 153.006 261.068 153.006H271.013C271.345 153.006 271.614 152.737 271.614 152.405V145.814C271.614 145.482 271.345 145.212 271.013 145.212Z" fill="#CFDEFF"/>
<path d="M218.269 156.124H208.324C207.992 156.124 207.723 156.393 207.723 156.725V163.316C207.723 163.648 207.992 163.918 208.324 163.918H218.269C218.601 163.918 218.87 163.648 218.87 163.316V156.725C218.87 156.393 218.601 156.124 218.269 156.124Z" fill="#CFDEFF"/>
<path d="M231.454 156.124H221.509C221.177 156.124 220.908 156.393 220.908 156.725V163.316C220.908 163.648 221.177 163.918 221.509 163.918H231.454C231.786 163.918 232.055 163.648 232.055 163.316V156.725C232.055 156.393 231.786 156.124 231.454 156.124Z" fill="#CFDEFF"/>
<path d="M244.642 156.124H234.697C234.365 156.124 234.096 156.393 234.096 156.725V163.316C234.096 163.648 234.365 163.918 234.697 163.918H244.642C244.974 163.918 245.243 163.648 245.243 163.316V156.725C245.243 156.393 244.974 156.124 244.642 156.124Z" fill="#CFDEFF"/>
<path d="M257.829 156.124H247.884C247.552 156.124 247.283 156.393 247.283 156.725V163.316C247.283 163.648 247.552 163.918 247.884 163.918H257.829C258.161 163.918 258.43 163.648 258.43 163.316V156.725C258.43 156.393 258.161 156.124 257.829 156.124Z" fill="#CFDEFF"/>
<path d="M271.013 156.124H261.068C260.736 156.124 260.467 156.393 260.467 156.725V163.316C260.467 163.648 260.736 163.918 261.068 163.918H271.013C271.345 163.918 271.614 163.648 271.614 163.316V156.725C271.614 156.393 271.345 156.124 271.013 156.124Z" fill="#CFDEFF"/>
<path d="M262.47 111.668C261.768 111.668 261.094 111.389 260.598 110.892C260.101 110.395 259.822 109.722 259.822 109.02V100.589C259.822 99.8862 260.101 99.2127 260.598 98.716C261.094 98.2194 261.768 97.9404 262.47 97.9404C263.173 97.9404 263.846 98.2194 264.343 98.716C264.839 99.2127 265.118 99.8862 265.118 100.589V109.02C265.118 109.722 264.839 110.395 264.343 110.892C263.846 111.389 263.173 111.668 262.47 111.668Z" fill="#CFDEFF"/>
<path d="M242 130.823L237.348 126.171C237.189 126.012 237.063 125.824 236.976 125.616C236.89 125.409 236.846 125.186 236.846 124.961C236.846 124.737 236.89 124.514 236.976 124.307C237.063 124.099 237.189 123.911 237.348 123.752L242 128.404C242.16 128.562 242.287 128.751 242.373 128.958C242.46 129.166 242.504 129.389 242.504 129.614C242.504 129.838 242.46 130.061 242.373 130.269C242.287 130.476 242.16 130.665 242 130.823Z" fill="url(#paint25_linear_3900_52666)"/>
<path d="M236.129 129.603L240.781 124.951C241.102 124.631 241.537 124.451 241.991 124.451C242.444 124.451 242.879 124.631 243.2 124.951L238.548 129.603C238.39 129.762 238.201 129.889 237.994 129.976C237.786 130.062 237.563 130.107 237.338 130.107C237.114 130.107 236.891 130.062 236.683 129.976C236.476 129.889 236.287 129.762 236.129 129.603Z" fill="url(#paint26_linear_3900_52666)"/>
<path d="M215.63 152.649L210.978 147.997C210.658 147.675 210.479 147.241 210.479 146.787C210.479 146.334 210.658 145.899 210.978 145.578L215.63 150.23C215.789 150.389 215.915 150.577 216.001 150.785C216.087 150.992 216.131 151.215 216.131 151.439C216.131 151.664 216.087 151.886 216.001 152.094C215.915 152.301 215.789 152.49 215.63 152.649Z" fill="url(#paint27_linear_3900_52666)"/>
<path d="M209.758 151.432L214.41 146.78C214.568 146.621 214.756 146.495 214.964 146.408C215.171 146.322 215.393 146.278 215.618 146.278C215.842 146.278 216.064 146.322 216.272 146.408C216.479 146.495 216.667 146.621 216.825 146.78L212.173 151.432C212.015 151.591 211.827 151.718 211.62 151.804C211.412 151.89 211.19 151.934 210.966 151.934C210.741 151.934 210.519 151.89 210.312 151.804C210.104 151.718 209.916 151.591 209.758 151.432Z" fill="url(#paint28_linear_3900_52666)"/>
<path d="M268.39 163.56L263.738 158.908C263.418 158.587 263.238 158.153 263.238 157.7C263.238 157.247 263.418 156.813 263.738 156.492L268.39 161.144C268.709 161.465 268.889 161.899 268.889 162.352C268.889 162.805 268.709 163.239 268.39 163.56Z" fill="url(#paint29_linear_3900_52666)"/>
<path d="M262.502 162.353L267.154 157.701C267.475 157.382 267.909 157.202 268.362 157.202C268.815 157.202 269.249 157.382 269.57 157.701L264.917 162.353C264.597 162.673 264.162 162.853 263.71 162.853C263.257 162.853 262.823 162.673 262.502 162.353Z" fill="url(#paint30_linear_3900_52666)"/>
<path d="M236.195 109.115C255.696 89.6146 255.696 57.9977 236.195 38.497C216.694 18.9964 185.077 18.9964 165.577 38.497C146.076 57.9977 146.076 89.6146 165.577 109.115C185.077 128.616 216.694 128.616 236.195 109.115Z" fill="url(#paint31_linear_3900_52666)"/>
<path d="M228.777 101.699C244.182 86.2941 244.182 61.3183 228.777 45.9136C213.373 30.509 188.397 30.509 172.992 45.9136C157.588 61.3182 157.588 86.2941 172.992 101.699C188.397 117.103 213.373 117.103 228.777 101.699Z" fill="white"/>
<path d="M202.723 36.998H199.048C198.857 36.998 198.701 37.1535 198.701 37.3452V42.8954C198.701 43.0871 198.857 43.2426 199.048 43.2426H202.723C202.915 43.2426 203.071 43.0871 203.071 42.8954V37.3452C203.071 37.1535 202.915 36.998 202.723 36.998Z" fill="#CFDEFF"/>
<path d="M184.073 41.006L180.89 42.8435C180.724 42.9394 180.668 43.1517 180.763 43.3177L183.539 48.1244C183.634 48.2904 183.847 48.3473 184.013 48.2514L187.195 46.4139C187.361 46.318 187.418 46.1057 187.323 45.9397L184.547 41.133C184.452 40.967 184.239 40.9101 184.073 41.006Z" fill="#CFDEFF"/>
<path d="M169.927 53.8101L168.09 56.9928C167.994 57.1589 168.051 57.3712 168.217 57.467L173.023 60.2422C173.189 60.338 173.402 60.2811 173.497 60.1151L175.335 56.9323C175.431 56.7663 175.374 56.554 175.208 56.4582L170.401 53.683C170.235 53.5872 170.023 53.6441 169.927 53.8101Z" fill="#CFDEFF"/>
<path d="M164.078 71.9675V75.6426C164.078 75.8343 164.234 75.9897 164.425 75.9897H169.976C170.167 75.9897 170.323 75.8343 170.323 75.6426V71.9675C170.323 71.7758 170.167 71.6204 169.976 71.6204H164.425C164.234 71.6204 164.078 71.7758 164.078 71.9675Z" fill="#CFDEFF"/>
<path d="M168.09 90.6206L169.928 93.8034C170.024 93.9694 170.236 94.0263 170.402 93.9304L175.209 91.1553C175.375 91.0595 175.432 90.8472 175.336 90.6811L173.498 87.4984C173.402 87.3323 173.19 87.2755 173.024 87.3713L168.217 90.1465C168.051 90.2423 167.995 90.4546 168.09 90.6206Z" fill="#CFDEFF"/>
<path d="M180.892 104.763L184.074 106.6C184.24 106.696 184.453 106.639 184.549 106.473L187.324 101.667C187.42 101.501 187.363 101.288 187.197 101.192L184.014 99.3549C183.848 99.259 183.636 99.3159 183.54 99.482L180.765 104.289C180.669 104.455 180.726 104.667 180.892 104.763Z" fill="#CFDEFF"/>
<path d="M199.048 110.615H202.723C202.915 110.615 203.07 110.46 203.07 110.268V104.718C203.07 104.526 202.915 104.371 202.723 104.371H199.048C198.856 104.371 198.701 104.526 198.701 104.718V110.268C198.701 110.46 198.856 110.615 199.048 110.615Z" fill="#CFDEFF"/>
<path d="M217.7 106.604L220.883 104.766C221.049 104.67 221.106 104.458 221.01 104.292L218.235 99.4855C218.139 99.3195 217.927 99.2626 217.761 99.3584L214.578 101.196C214.412 101.292 214.355 101.504 214.451 101.67L217.226 106.477C217.322 106.643 217.534 106.7 217.7 106.604Z" fill="#CFDEFF"/>
<path d="M231.842 93.8037L233.68 90.6209C233.776 90.4549 233.719 90.2426 233.553 90.1468L228.746 87.3716C228.58 87.2758 228.368 87.3327 228.272 87.4987L226.434 90.6814C226.339 90.8475 226.396 91.0598 226.562 91.1556L231.368 93.9307C231.534 94.0266 231.747 93.9697 231.842 93.8037Z" fill="#CFDEFF"/>
<path d="M237.691 75.6463V71.9711C237.691 71.7794 237.536 71.624 237.344 71.624H231.794C231.602 71.624 231.447 71.7794 231.447 71.9711V75.6463C231.447 75.838 231.602 75.9934 231.794 75.9934H237.344C237.536 75.9934 237.691 75.838 237.691 75.6463Z" fill="#CFDEFF"/>
<path d="M233.681 56.9971L231.843 53.8143C231.748 53.6483 231.535 53.5914 231.369 53.6872L226.563 56.4624C226.397 56.5582 226.34 56.7705 226.436 56.9366L228.273 60.1193C228.369 60.2853 228.581 60.3422 228.747 60.2464L233.554 57.4712C233.72 57.3754 233.777 57.1631 233.681 56.9971Z" fill="#CFDEFF"/>
<path d="M220.882 42.8505L217.699 41.0129C217.533 40.9171 217.321 40.9739 217.225 41.14L214.45 45.9466C214.354 46.1127 214.411 46.325 214.577 46.4208L217.76 48.2584C217.926 48.3542 218.138 48.2974 218.234 48.1313L221.009 43.3246C221.105 43.1586 221.048 42.9463 220.882 42.8505Z" fill="#CFDEFF"/>
<path d="M200.887 34.3608C211.348 34.3608 221.382 38.5167 228.779 45.9143C236.177 53.3119 240.333 63.3451 240.333 73.8068C240.333 84.2686 236.177 94.3018 228.779 101.699C221.382 109.097 211.348 113.253 200.887 113.253" stroke="url(#paint32_linear_3900_52666)" stroke-miterlimit="10"/>
<path d="M200.887 23.8721C214.13 23.8721 226.831 29.133 236.196 38.4976C245.56 47.8621 250.821 60.5632 250.821 73.8067C250.821 87.0502 245.56 99.7513 236.196 109.116C226.831 118.48 214.13 123.741 200.887 123.741" stroke="url(#paint33_linear_3900_52666)" stroke-miterlimit="10"/>
<path d="M206.33 73.3879C205.309 72.9601 204.248 72.6318 203.163 72.4074C204.749 61.7255 202.448 47.4007 201.374 42.3478C201.352 42.2343 201.292 42.1319 201.202 42.0583C201.113 41.9846 201.001 41.9443 200.886 41.9443C200.77 41.9443 200.658 41.9846 200.569 42.0583C200.48 42.1319 200.419 42.2343 200.397 42.3478C199.352 47.2969 197.116 61.1637 198.522 71.7704C190.248 71.1621 180.111 72.6829 176.593 73.4273C176.507 73.4461 176.43 73.4938 176.374 73.5625C176.319 73.6312 176.289 73.7167 176.289 73.8048C176.289 73.8929 176.319 73.9784 176.374 74.0471C176.43 74.1158 176.507 74.1635 176.593 74.1823C180.218 74.9445 190.878 76.5406 199.281 75.7748C199.555 76.857 199.914 77.916 200.354 78.9417C200.402 79.0434 200.478 79.1292 200.573 79.1893C200.668 79.2494 200.779 79.2813 200.891 79.2813C201.003 79.2813 201.114 79.2494 201.209 79.1893C201.304 79.1292 201.38 79.0434 201.428 78.9417C201.921 77.7692 202.313 76.5564 202.598 75.3167C203.876 75.0855 205.126 74.7197 206.327 74.2253C206.408 74.1897 206.477 74.1313 206.526 74.0571C206.574 73.983 206.6 73.8964 206.601 73.8077C206.601 73.7191 206.576 73.6322 206.528 73.5577C206.48 73.4832 206.411 73.4242 206.33 73.3879Z" fill="url(#paint34_linear_3900_52666)"/>
<path d="M129.686 63.5472L132.895 54.5186H142.461L140.299 62.1909L129.686 63.5472Z" fill="url(#paint35_linear_3900_52666)"/>
<path d="M140.617 58.3799L140.299 62.191L141.326 58.5373L140.617 58.3799Z" fill="#00030E" stroke="#00030E" stroke-width="0.25" stroke-miterlimit="10"/>
<path d="M143.353 51.0842C144.285 47.1372 141.84 43.1823 137.893 42.2507C133.946 41.3191 129.991 43.7636 129.06 47.7107C128.128 51.6577 130.573 55.6126 134.52 56.5442C138.467 57.4758 142.422 55.0313 143.353 51.0842Z" fill="url(#paint36_linear_3900_52666)"/>
<path d="M142.801 46.1626C144.505 49.6087 144.78 55.1518 143.023 57.5566C141.266 59.9614 138.958 57.3705 138.45 56.0787C138.45 56.0787 136.857 54.6473 137.111 53.4914C137.405 52.1566 139.126 52.3499 139.373 53.8135" fill="url(#paint37_linear_3900_52666)"/>
<path d="M137.881 55.4669C138.597 56.154 139.448 55.5528 139.312 54.6367" stroke="#00030E" stroke-width="0.25" stroke-linecap="round" stroke-linejoin="round"/>
<path d="M138.607 52.7077C139.358 53.1121 139.68 54.2751 140.65 54.0962C141.366 53.9638 141.573 53.1049 141.437 52.5002C141.301 51.8954 141.129 51.0401 141.466 50.6322C141.802 50.2242 142.897 49.4441 142.182 48.4493C141.466 47.4545 142.94 46.474 143.155 45.2752C143.541 43.103 140.786 39.4386 135.697 40.4263C129.395 41.6537 129.689 46.0016 129.689 46.0016C129.689 46.0016 128.451 46.5133 127.789 48.4708C127.213 50.1849 127.842 52.1209 129.957 54.1713C132.072 56.2218 131.56 56.8159 131.142 57.3312C130.723 57.8465 131.002 58.4477 132.573 58.5407C134.144 58.6338 137.683 58.5407 137.852 55.4668C137.5 55.0318 137.237 54.5321 137.079 53.996C136.875 53.0942 137.773 52.2497 138.607 52.7077Z" fill="#004ED8"/>
<path d="M143.516 47.9912C144.539 51.3335 144.493 55.5455 143.022 57.5566C142.156 58.7447 141.154 58.7124 140.299 58.2222" stroke="#00030E" stroke-width="0.25" stroke-linecap="round" stroke-linejoin="round"/>
<path d="M129.646 61.4143C129.685 61.3857 131.51 60.5376 135.693 60.5376C137.506 60.5485 139.316 60.68 141.111 60.9312H141.136L141.72 62.241L128.422 63.8835L129.646 61.4143Z" fill="url(#paint38_linear_3900_52666)"/>
<path d="M151.669 57.4707C151.02 56.9879 150.234 56.7269 149.425 56.7264H148.327L145.976 56.0607C145.805 56.0135 145.625 56.0094 145.452 56.0487C145.279 56.088 145.118 56.1696 144.984 56.2862C144.333 56.8695 143.109 57.9574 142.515 58.512C142.372 58.648 142.554 58.9379 142.687 58.9844C142.957 59.0561 143.239 59.0646 143.513 59.0094C143.787 58.9541 144.044 58.8366 144.265 58.6659L144.401 58.5693L145.385 59.7216C146.018 60.4494 146.504 61.2927 146.816 62.2051C148.105 65.9804 150.542 65.483 151.916 66.4993L154.95 60.0222C153.555 58.9021 152.42 58.0325 151.669 57.4707ZM145.829 58.0719L146.752 58.3796L146.892 59.0345L145.829 58.0719Z" fill="url(#paint39_linear_3900_52666)"/>
<path d="M151.89 62.9211C151.55 63.3469 149.657 63.0069 147.574 63.5473V63.8228C148.913 65.8447 150.763 65.6586 151.897 66.4888L154.95 60.0225C153.386 60.9457 152.23 62.4952 151.89 62.9211Z" fill="#00030E" stroke="#00030E" stroke-width="0.25" stroke-linecap="round" stroke-linejoin="round"/>
<path d="M126.383 110.995C118.339 107.159 110.867 94.6268 110.323 90.7047C109.822 87.1012 117.176 66.811 126.505 64.3418H126.569L124.741 85.3191C120.994 89.1194 120.475 91.4312 120.472 91.4526C120.203 94.7592 128.895 103.777 128.985 103.867L129.003 103.888L126.43 111.045L126.383 110.995Z" fill="#FC6B10"/>
<path d="M126.568 101.973C126.632 104.854 126.308 107.731 125.605 110.526C125.87 110.672 126.135 110.808 126.403 110.937L128.951 103.866C128.951 103.866 127.86 102.739 126.446 101.136C126.503 101.412 126.544 101.692 126.568 101.973Z" fill="#00030E" stroke="#00030E" stroke-width="0.25" stroke-linecap="round" stroke-linejoin="round"/>
<path d="M124.693 85.2831L126.145 72.4219C120.889 73.4203 119.554 77.4712 120.595 80.835C121.73 84.5065 121.923 84.8966 122.789 87.4087C123.387 86.6681 124.022 85.9586 124.693 85.2831Z" fill="#00030E" stroke="#00030E" stroke-width="0.25" stroke-linecap="round" stroke-linejoin="round"/>
<path d="M126.652 122.636C124.916 118.488 125.521 115.321 126.222 111.653C127.053 107.309 127.994 102.388 125.489 94.3295C122.859 85.8627 121.216 78.9061 120.3 74.5618C119.858 72.3881 120.251 70.1278 121.401 68.2311C122.551 66.3344 124.373 64.9405 126.505 64.3272C129.965 63.3288 135.251 62.1407 140.801 62.1407C143.552 62.1179 146.295 62.4523 148.96 63.1356C150.524 63.5496 151.943 64.3902 153.057 65.5637C154.171 66.7372 154.937 68.1973 155.269 69.7809C155.445 70.6111 155.659 71.5451 155.91 72.6222C157.892 81.2107 161.578 97.2102 160.186 122.621V122.664H126.68L126.652 122.636Z" fill="#FC6B10"/>
<path d="M126.68 122.621C122.919 113.639 130.165 109.274 125.517 94.3154C122.965 86.1099 121.327 79.2856 120.328 74.5513" stroke="#00030E" stroke-width="0.25" stroke-linecap="round" stroke-linejoin="round"/>
<path d="M152.148 82.3916C152.148 82.3916 157.488 102.625 153.53 122.618" stroke="#00030E" stroke-width="0.25" stroke-miterlimit="10" stroke-linecap="round"/>
<path d="M147.814 80.2982C151.704 84.4207 159.323 92.4043 159.323 92.4043C159.323 92.4043 158.74 85.4477 157.126 79.2891L147.814 80.2982Z" fill="#00030E" stroke="#00030E" stroke-width="0.25" stroke-miterlimit="10" stroke-linecap="round"/>
<path d="M135.829 122.621C134.478 119.175 134.328 115.374 135.403 111.832C138.603 101.715 122.582 66.4564 130.945 63.2715" stroke="#00030E" stroke-width="0.25" stroke-miterlimit="10" stroke-linecap="round"/>
<path d="M151.853 66.5101V66.4922C151.805 65.2401 152.06 63.9949 152.595 62.8618C153.13 61.7288 153.93 60.7413 154.927 59.9829H154.952L154.977 60.0044C155.142 60.1225 171.238 72.1713 168.969 80.3268L168.952 80.3948L151.853 66.5101Z" fill="#FC6B10"/>
<path d="M151.898 66.4889L157.395 70.9477L162.763 70.7366C159.47 67.4622 154.604 64.0304 152.707 62.7314C152.118 63.8934 151.84 65.1877 151.898 66.4889Z" fill="#00030E" stroke="#00030E" stroke-width="0.25" stroke-miterlimit="10"/>
<path d="M161.008 83.9876C156.334 83.9876 150.923 82.4846 147.853 80.3339C143.999 77.6357 142.607 70.4894 143.978 66.1379C144.647 64.023 145.899 62.8564 147.506 62.8564C147.633 62.8567 147.759 62.8638 147.885 62.8779C153.418 63.4648 163.953 70.3499 167.66 75.8035C168.866 77.5928 169.306 79.0922 168.966 80.3089C168.319 82.6456 165.416 83.9876 161.008 83.9876Z" fill="#FC6B10"/>
<path d="M143.795 72.855C144.346 75.8681 145.709 78.781 147.878 80.2983C153.661 84.3456 167.367 85.9058 168.923 80.2983" stroke="#00030E" stroke-width="0.25" stroke-miterlimit="10" stroke-linecap="round"/>
<path d="M165.099 72.8549C160.318 68.074 152.284 63.4004 147.879 62.9209" stroke="#00030E" stroke-width="0.25" stroke-miterlimit="10" stroke-linecap="round"/>
<path d="M168.925 80.2983C171.211 72.0964 154.95 60.0225 154.95 60.0225C153.583 61.0518 152.597 62.5073 152.148 64.1592" stroke="#00030E" stroke-width="0.25" stroke-miterlimit="10" stroke-linecap="round"/>
<path d="M126.518 64.3703C131.227 63.0105 137.572 61.7902 143.809 62.3091" stroke="#00030E" stroke-width="0.25" stroke-linecap="round" stroke-linejoin="round"/>
<path d="M127.413 185.632C126.491 185.678 125.576 185.458 124.775 184.998H124.757V184.977C122.589 165.327 124.679 157.422 125.931 152.72C126.207 151.682 126.443 150.784 126.59 149.943C127.459 144.933 127.903 125.305 127.906 125.105C127.431 124.316 127.013 123.494 126.654 122.646L126.629 122.585H141.709V129.846L133.181 184.426H133.156C130.873 185.22 128.941 185.621 127.413 185.621V185.632Z" fill="#0034B5"/>
<path d="M138.173 124.546L137.672 155.336L141.651 129.832V124.546H138.173Z" fill="#00030E" stroke="#00030E" stroke-width="0.25" stroke-miterlimit="10" stroke-linecap="round"/>
<path d="M144.863 186.748C142.948 186.748 141.384 186.118 140.568 185.02C140.647 176.299 141.284 160.482 144.698 152.23C147.378 145.72 140.844 127.538 140.593 126.854C138.62 125.944 136.953 124.483 135.791 122.646L135.748 122.578H157.734V122.625C156.697 141.462 154.074 162.475 149.94 185.07C148.738 186.111 146.799 186.745 144.866 186.745L144.863 186.748Z" fill="#0034B5"/>
<path d="M157.688 122.621H126.68C126.834 122.979 127.009 123.365 127.202 123.752H157.62C157.641 123.376 157.666 122.993 157.688 122.621Z" fill="#00030E" stroke="#00030E" stroke-width="0.25" stroke-miterlimit="10"/>
<path d="M156.235 189.024C155.871 188.482 155.38 188.037 154.804 187.729L149.894 185.07C147.572 187.056 142.44 187.467 140.59 184.995C140.59 186.558 140.59 187.879 140.59 188.87C140.595 189.395 140.807 189.897 141.18 190.267C141.554 190.636 142.058 190.843 142.583 190.842H156.303C156.412 190.841 156.519 190.811 156.613 190.754C156.706 190.698 156.783 190.617 156.835 190.521C156.886 190.425 156.911 190.316 156.906 190.207C156.901 190.098 156.867 189.992 156.808 189.901L156.235 189.024Z" fill="url(#paint40_linear_3900_52666)"/>
<path d="M124.801 184.963C124.977 186.559 125.182 188.229 125.416 189.973C125.447 190.207 125.562 190.421 125.739 190.577C125.916 190.733 126.143 190.819 126.379 190.821H134.527C134.678 190.822 134.827 190.787 134.962 190.721C135.097 190.654 135.215 190.557 135.306 190.437C135.397 190.316 135.459 190.177 135.486 190.028C135.514 189.88 135.506 189.728 135.465 189.583C134.835 187.514 133.142 184.376 133.142 184.376C130.466 185.324 126.769 186.233 124.801 184.963Z" fill="url(#paint41_linear_3900_52666)"/>
<path d="M137.16 124.546C138.119 125.568 139.308 126.347 140.628 126.819C140.628 126.819 147.495 145.552 144.739 152.248" stroke="#00030E" stroke-width="0.25" stroke-miterlimit="10" stroke-linecap="round"/>
<path d="M153.519 122.618C153.05 143.581 151.189 157.469 146.408 186.566" stroke="#00030E" stroke-width="0.25" stroke-miterlimit="10"/>
<path d="M153.246 131.056L154.989 122.618" stroke="#00030E" stroke-width="0.25" stroke-miterlimit="10"/>
<path d="M139.662 133.117L132.387 184.644" stroke="#00030E" stroke-width="0.25" stroke-miterlimit="10"/>
<path d="M215.997 27.7368L216.802 29.9126C217.161 30.8839 217.726 31.7661 218.458 32.4986C219.189 33.2312 220.071 33.7968 221.042 34.1567L223.218 34.9618L221.042 35.767C220.071 36.125 219.188 36.6896 218.456 37.4217C217.724 38.1538 217.16 39.0361 216.802 40.0076L215.997 42.1833L215.191 40.0076C214.833 39.0357 214.268 38.1532 213.535 37.4211C212.802 36.689 211.919 36.1246 210.947 35.767L208.771 34.9618L210.947 34.1567C211.919 33.7974 212.802 33.2321 213.534 32.4995C214.267 31.7669 214.832 30.8843 215.191 29.9126L215.997 27.7368Z" fill="#FC6B10"/>
<path d="M298.569 33.7881L299.374 35.9638C299.732 36.9353 300.297 37.8176 301.029 38.5497C301.761 39.2818 302.643 39.8463 303.615 40.2044L305.791 41.0095L303.615 41.8147C302.643 42.1731 301.761 42.7382 301.028 43.471C300.296 44.2037 299.732 45.0867 299.374 46.0588L298.569 48.231L297.764 46.0588C297.406 45.0867 296.842 44.2037 296.11 43.471C295.378 42.7382 294.495 42.1731 293.523 41.8147L291.348 41.0095L293.523 40.2044C294.495 39.8463 295.377 39.2818 296.109 38.5497C296.841 37.8176 297.406 36.9353 297.764 35.9638L298.569 33.7881Z" fill="url(#paint42_linear_3900_52666)"/>
<path d="M111.413 118.241L112.218 120.417C112.578 121.388 113.143 122.27 113.874 123.003C114.606 123.735 115.488 124.301 116.459 124.661L118.634 125.463L116.459 126.268C115.488 126.628 114.606 127.194 113.874 127.926C113.143 128.659 112.578 129.541 112.218 130.512L111.413 132.688L110.608 130.512C110.248 129.541 109.683 128.659 108.951 127.926C108.219 127.194 107.338 126.628 106.367 126.268L104.191 125.463L106.367 124.661C107.338 124.301 108.219 123.735 108.951 123.003C109.683 122.27 110.248 121.388 110.608 120.417L111.413 118.241Z" fill="url(#paint43_linear_3900_52666)"/>
<path d="M260.467 76.3115L261.165 78.1867C261.473 79.024 261.958 79.785 262.587 80.4174C263.217 81.0499 263.975 81.5389 264.811 81.8511L266.686 82.5453L264.811 83.2395C263.973 83.5491 263.211 84.0367 262.579 84.6686C261.947 85.3006 261.46 86.062 261.15 86.9004L260.453 88.7791L259.758 86.9004C259.449 86.062 258.961 85.3006 258.329 84.6686C257.697 84.0367 256.936 83.5491 256.097 83.2395L254.219 82.5453L256.097 81.8511C256.936 81.5407 257.697 81.0524 258.329 80.4199C258.961 79.7873 259.449 79.0255 259.758 78.1867L260.467 76.3115Z" fill="#FC6B10"/>
<path d="M255.742 90.3286L256.268 91.76C256.503 92.3958 256.873 92.9732 257.353 93.4525C257.832 93.9319 258.409 94.3018 259.045 94.537L260.477 95.063L259.045 95.589C258.409 95.8238 257.832 96.1936 257.352 96.6729C256.873 97.1523 256.503 97.7299 256.268 98.366L255.742 99.7974L255.216 98.366C254.981 97.7302 254.611 97.1528 254.132 96.6735C253.652 96.1941 253.075 95.8242 252.439 95.589L251.008 95.063L252.439 94.537C253.075 94.3012 253.652 93.931 254.131 93.4518C254.61 92.9725 254.98 92.3955 255.216 91.76L255.742 90.3286Z" fill="#FC6B10"/>
<path d="M168.907 120.478L169.322 121.605C169.508 122.108 169.801 122.564 170.18 122.944C170.56 123.323 171.016 123.616 171.519 123.802L172.646 124.217L171.519 124.636C171.016 124.822 170.559 125.114 170.18 125.494C169.8 125.873 169.508 126.33 169.322 126.833L168.907 127.96L168.488 126.833C168.303 126.329 168.011 125.872 167.631 125.493C167.252 125.113 166.794 124.821 166.291 124.636L165.16 124.235L166.287 123.82C166.791 123.634 167.247 123.341 167.627 122.962C168.006 122.583 168.299 122.126 168.485 121.623L168.907 120.478Z" fill="#FC6B10"/>
<path d="M267.007 88.3535L267.336 89.2446C267.483 89.6413 267.715 90.0016 268.014 90.3005C268.314 90.5995 268.675 90.8301 269.072 90.9766L269.959 91.3058L269.072 91.635C268.674 91.7816 268.313 92.0127 268.014 92.3124C267.714 92.612 267.483 92.973 267.336 93.3706L267.007 94.2581L266.678 93.3706C266.531 92.973 266.3 92.612 266 92.3124C265.701 92.0127 265.34 91.7816 264.942 91.635L264.055 91.3058L264.942 90.9766C265.339 90.8301 265.7 90.5995 266 90.3005C266.299 90.0016 266.53 89.6413 266.678 89.2446L267.007 88.3535Z" fill="#FC6B10"/>
<path d="M234.239 40.8306L234.468 41.4461C234.569 41.7202 234.729 41.9691 234.936 42.1754C235.143 42.3818 235.392 42.5408 235.667 42.6413L236.279 42.8703L235.667 43.0958C235.392 43.1975 235.143 43.3573 234.936 43.5642C234.73 43.7711 234.57 44.0202 234.468 44.2946L234.239 44.9101L234.014 44.2946C233.911 44.0206 233.751 43.7718 233.544 43.565C233.338 43.3582 233.089 43.1981 232.815 43.0958L232.199 42.8703L232.815 42.6413C233.089 42.5401 233.338 42.381 233.545 42.1747C233.752 41.9684 233.912 41.7199 234.014 41.4461L234.239 40.8306Z" fill="#FC6B10"/>
<path d="M211.343 158.539C212.099 162.317 212.119 166.205 211.404 169.99C211.078 171.71 210.619 173.402 210.03 175.05C209.747 175.838 209.461 176.596 209.149 177.319C208.838 178.042 208.494 178.751 208.162 179.391C207.556 180.591 206.878 181.753 206.129 182.869C205.558 183.751 204.939 184.6 204.275 185.414C203.17 186.781 202.44 187.507 202.44 187.507C202.44 187.507 201.785 186.677 200.808 185.271L199.097 182.766C198.457 181.807 197.787 180.744 197.05 179.602C196.692 179.03 196.335 178.439 195.977 177.813C195.619 177.187 195.225 176.578 194.867 175.941C194.152 174.66 193.4 173.329 192.76 171.948C189.866 166.361 188.533 160.097 188.902 153.815C188.923 152.291 189.081 150.763 189.203 149.31C189.271 148.577 189.364 147.854 189.453 147.163C189.543 146.472 189.618 145.775 189.714 145.105C189.925 143.763 190.101 142.518 190.298 141.384C190.494 140.249 190.684 139.237 190.842 138.403C191.16 136.717 191.421 135.694 191.421 135.694C191.421 135.694 192.384 136.052 193.951 136.857C194.888 137.33 195.799 137.855 196.678 138.428C197.816 139.143 198.909 139.928 199.949 140.779C200.521 141.242 201.104 141.738 201.695 142.268C202.275 142.801 202.844 143.377 203.424 143.982C204.634 145.252 205.744 146.613 206.745 148.054C208.936 151.222 210.497 154.781 211.343 158.539Z" fill="url(#paint44_linear_3900_52666)"/>
<path d="M207.805 149.736L207.494 149.217C207.061 149.979 206.524 150.985 205.959 152.166C205.393 153.347 204.742 154.714 204.17 156.181C202.85 159.341 202.006 162.679 201.665 166.086C201.151 162.743 200.457 159.431 199.585 156.163C199.413 155.506 199.286 154.837 199.206 154.163C199.111 153.509 199.059 152.851 199.049 152.191C199.039 150.908 199.133 149.626 199.328 148.358C199.528 147.164 199.788 145.98 200.108 144.812C200.416 143.699 200.777 142.665 201.096 141.763L200.677 141.405C199.643 144.268 198.412 148.373 198.562 152.563C196.813 146.794 194.537 141.199 191.763 135.848L191.405 135.705L191.316 136.062C194.078 141.385 196.344 146.952 198.083 152.692C195.867 149.113 192.257 146.995 189.58 145.975L189.519 146.465C190.455 146.834 191.36 147.278 192.224 147.793C193.228 148.37 194.167 149.053 195.026 149.829C195.966 150.657 196.791 151.608 197.478 152.656C197.835 153.204 198.154 153.775 198.433 154.367C198.705 154.984 198.929 155.622 199.102 156.274C199.967 159.527 200.657 162.824 201.171 166.151C199.843 162.84 197.449 160.26 195.109 158.442C194.019 157.616 192.866 156.878 191.659 156.235C190.748 155.763 189.812 155.344 188.854 154.978V155.483C191.577 156.533 194.083 158.079 196.243 160.042C198.898 162.468 201.253 165.979 201.733 170.269C201.89 171.611 201.997 172.961 202.116 174.31C202.176 175.662 202.298 177.011 202.316 178.364C201.153 174.07 198.308 170.706 195.681 168.545C193.975 167.136 192.083 165.968 190.059 165.073L190.231 165.657C191.223 166.116 192.18 166.647 193.094 167.246C194.577 168.198 195.947 169.315 197.177 170.577C199.933 173.386 202.43 177.591 202.366 182.537C202.366 184.093 202.273 185.646 202.205 187.189C202.359 187.386 202.441 187.496 202.441 187.496L202.706 187.221C202.774 185.657 202.874 184.093 202.867 182.526C202.931 177.616 204.756 173.19 206.764 169.454C207.755 167.596 208.825 165.939 209.709 164.608C210.593 163.277 211.402 162.268 211.813 161.728L211.727 160.976C210.246 162.849 208.89 164.816 207.666 166.866C205.758 170.03 203.729 173.998 202.831 178.35C202.831 176.99 202.695 175.634 202.631 174.274C202.513 172.918 202.405 171.561 202.248 170.212C201.772 165.936 202.677 161.885 203.919 158.278C204.979 155.329 206.278 152.472 207.805 149.736Z" fill="white"/>
<path d="M238.998 158.79C239.427 159.477 240.701 160.178 242.09 161.38C243.783 162.757 245.071 164.566 245.819 166.616C246.641 169.209 246.809 171.965 246.305 174.639C245.926 176.929 245.286 178.647 245.307 179.71C245.286 178.636 244.548 176.954 243.586 175.011C242.623 173.068 241.46 170.863 240.626 168.38C239.932 166.358 239.785 164.379 239.657 162.654C239.528 160.929 239.431 159.48 238.998 158.79Z" fill="url(#paint45_linear_3900_52666)"/>
<path d="M298.287 149.55C297.443 150.444 296.598 152.295 295.664 154.624C294.621 157.346 293.426 160.008 292.085 162.597C291.151 164.386 290.196 166.061 289.287 167.657C288.378 169.253 287.519 170.774 286.782 172.198C285.279 175.025 284.216 177.466 283.998 179.058C284.216 177.473 283.912 174.839 284.138 171.461C284.253 169.609 284.532 167.771 284.971 165.968C285.497 163.903 286.263 161.907 287.254 160.021C288.795 157.231 290.929 154.813 293.506 152.939C295.607 151.339 297.446 150.441 298.287 149.55Z" fill="white"/>
<path d="M235.378 164.486C235.138 164.959 235.378 166.004 235.628 167.195C235.879 168.387 236.144 169.7 235.818 170.999C235.432 172.581 234.551 173.952 233.789 175.229C233.027 176.507 232.379 177.619 232.415 178.31C232.383 177.623 231.649 176.557 231.051 175.061C230.454 173.565 230.01 171.64 230.497 169.693C230.898 168.086 232.036 166.934 233.091 166.168C234.147 165.402 235.142 164.955 235.378 164.486Z" fill="url(#paint46_linear_3900_52666)"/>
<path d="M192.883 148.419C192.357 149.464 192.128 151.386 191.945 153.765C191.78 156.521 191.438 159.263 190.922 161.974C190.167 165.696 189.218 169.103 188.585 172.087C187.952 175.072 187.565 177.559 187.787 179.065C187.569 177.562 186.563 175.251 185.84 172.119C185.436 170.404 185.185 168.655 185.092 166.895C185.005 164.874 185.157 162.85 185.547 160.865C186.204 157.909 187.519 155.138 189.394 152.76C190.9 150.756 192.357 149.46 192.883 148.419Z" fill="url(#paint47_linear_3900_52666)"/>
<path d="M177.717 159.62C178.014 160.282 179.116 161.022 180.29 162.185C181.711 163.5 182.749 165.176 183.292 167.034C183.847 169.375 183.832 171.815 183.249 174.148C182.802 176.174 182.175 177.709 182.211 178.654C182.179 177.705 181.428 176.224 180.526 174.474C179.624 172.724 178.579 170.713 177.985 168.426C177.491 166.558 177.599 164.748 177.727 163.17C177.856 161.591 178.017 160.282 177.717 159.62Z" fill="url(#paint48_linear_3900_52666)"/>
<path d="M86.1061 48.46L87.1081 51.1689C87.5559 52.3779 88.2597 53.4758 89.1714 54.3875C90.083 55.2991 91.181 56.003 92.39 56.4508L95.0989 57.4528L92.39 58.4548C91.181 58.9026 90.083 59.6064 89.1714 60.5181C88.2597 61.4297 87.5559 62.5277 87.1081 63.7367L86.1061 66.4456L85.1041 63.7367C84.6563 62.5277 83.9525 61.4297 83.0408 60.5181C82.1291 59.6064 81.0312 58.9026 79.8222 58.4548L77.1133 57.4528L79.8222 56.4508C81.0312 56.003 82.1291 55.2991 83.0408 54.3875C83.9525 53.4758 84.6563 52.3779 85.1041 51.1689L86.1061 48.46Z" fill="url(#paint49_linear_3900_52666)"/>
<path d="M60.3414 46.2842L60.9927 48.0412C61.282 48.8271 61.7383 49.541 62.3301 50.1334C62.922 50.7259 63.6353 51.183 64.4209 51.473L66.1816 52.1243L64.4138 52.7756C63.6287 53.0655 62.9157 53.5221 62.3238 54.1139C61.732 54.7057 61.2755 55.4187 60.9856 56.2038L60.3343 57.9645L59.683 56.2038C59.3931 55.4187 58.9365 54.7057 58.3447 54.1139C57.7529 53.5221 57.0399 53.0655 56.2548 52.7756L54.4941 52.1243L56.2548 51.473C57.0404 51.183 57.7537 50.7259 58.3456 50.1334C58.9375 49.541 59.3937 48.8271 59.683 48.0412L60.3414 46.2842Z" fill="url(#paint50_linear_3900_52666)"/>
<path d="M104.211 65.8408L104.493 66.6209C104.619 66.9633 104.817 67.2741 105.075 67.5319C105.332 67.7896 105.643 67.988 105.986 68.1132L106.748 68.3959L105.986 68.6786C105.644 68.8052 105.334 69.0041 105.076 69.2617C104.819 69.5192 104.62 69.8293 104.493 70.1708L104.211 70.9366L103.928 70.1708C103.801 69.8297 103.602 69.5199 103.344 69.2624C103.087 69.005 102.777 68.8059 102.436 68.6786L101.67 68.3959L102.436 68.1132C102.778 67.988 103.089 67.7896 103.347 67.5319C103.604 67.2741 103.803 66.9633 103.928 66.6209L104.211 65.8408Z" fill="#FC6B10"/>
</g>
<defs>
<filter id="filter0_d_3900_52666" x="-8" y="0.776367" width="391.008" height="179.797" filterUnits="userSpaceOnUse" color-interpolation-filters="sRGB">
<feFlood flood-opacity="0" result="BackgroundImageFix"/>
<feColorMatrix in="SourceAlpha" type="matrix" values="0 0 0 0 0 0 0 0 0 0 0 0 0 0 0 0 0 0 127 0" result="hardAlpha"/>
<feOffset dy="10"/>
<feGaussianBlur stdDeviation="4"/>
<feColorMatrix type="matrix" values="0 0 0 0 0 0 0 0 0 0 0 0 0 0 0 0 0 0 0.25 0"/>
<feBlend mode="normal" in2="BackgroundImageFix" result="effect1_dropShadow_3900_52666"/>
<feBlend mode="normal" in="SourceGraphic" in2="effect1_dropShadow_3900_52666" result="shape"/>
</filter>
<linearGradient id="paint0_linear_3900_52666" x1="175.676" y1="114.763" x2="175.676" y2="186.051" gradientUnits="userSpaceOnUse">
<stop stop-color="#ADD6FD"/>
<stop offset="1" stop-color="#A1C3FF"/>
</linearGradient>
<linearGradient id="paint1_linear_3900_52666" x1="161.212" y1="157.039" x2="190.885" y2="157.039" gradientUnits="userSpaceOnUse">
<stop stop-color="#ADD6FD"/>
<stop offset="1" stop-color="#A1C3FF"/>
</linearGradient>
<linearGradient id="paint2_linear_3900_52666" x1="279.511" y1="114.763" x2="279.511" y2="186.051" gradientUnits="userSpaceOnUse">
<stop stop-color="#ADD6FD"/>
<stop offset="1" stop-color="#A1C3FF"/>
</linearGradient>
<linearGradient id="paint3_linear_3900_52666" x1="266.649" y1="160.192" x2="293.152" y2="160.192" gradientUnits="userSpaceOnUse">
<stop stop-color="#ADD6FD"/>
<stop offset="1" stop-color="#A1C3FF"/>
</linearGradient>
<linearGradient id="paint4_linear_3900_52666" x1="261.868" y1="114.763" x2="261.868" y2="186.05" gradientUnits="userSpaceOnUse">
<stop stop-color="#EB8859"/>
<stop offset="0.99" stop-color="#FAB081"/>
</linearGradient>
<linearGradient id="paint5_linear_3900_52666" x1="250.539" y1="165.202" x2="274.157" y2="165.202" gradientUnits="userSpaceOnUse">
<stop stop-color="#EB8859"/>
<stop offset="0.99" stop-color="#FAB081"/>
</linearGradient>
<linearGradient id="paint6_linear_3900_52666" x1="69.1407" y1="91.9068" x2="118.131" y2="91.9068" gradientUnits="userSpaceOnUse">
<stop stop-color="#C6D9FA"/>
<stop offset="1" stop-color="#FEFEFE"/>
</linearGradient>
<linearGradient id="paint7_linear_3900_52666" x1="138.42" y1="48.6928" x2="176.299" y2="48.6928" gradientUnits="userSpaceOnUse">
<stop stop-color="#ADD6FD"/>
<stop offset="1" stop-color="#A1C3FF"/>
</linearGradient>
<linearGradient id="paint8_linear_3900_52666" x1="236.455" y1="52.1244" x2="281.587" y2="52.1244" gradientUnits="userSpaceOnUse">
<stop stop-color="#EB8859"/>
<stop offset="0.99" stop-color="#FAB081"/>
</linearGradient>
<linearGradient id="paint9_linear_3900_52666" x1="243.59" y1="39.1168" x2="269.96" y2="39.1168" gradientUnits="userSpaceOnUse">
<stop stop-color="#FEFEFE"/>
<stop offset="1" stop-color="#C6D9FA"/>
</linearGradient>
<linearGradient id="paint10_linear_3900_52666" x1="243.59" y1="47.444" x2="269.96" y2="47.444" gradientUnits="userSpaceOnUse">
<stop stop-color="#FEFEFE"/>
<stop offset="1" stop-color="#C6D9FA"/>
</linearGradient>
<linearGradient id="paint11_linear_3900_52666" x1="243.59" y1="55.7746" x2="269.96" y2="55.7746" gradientUnits="userSpaceOnUse">
<stop stop-color="#FEFEFE"/>
<stop offset="1" stop-color="#C6D9FA"/>
</linearGradient>
<linearGradient id="paint12_linear_3900_52666" x1="243.59" y1="64.1017" x2="269.96" y2="64.1017" gradientUnits="userSpaceOnUse">
<stop stop-color="#FEFEFE"/>
<stop offset="1" stop-color="#C6D9FA"/>
</linearGradient>
<linearGradient id="paint13_linear_3900_52666" x1="243.59" y1="72.4289" x2="269.96" y2="72.4289" gradientUnits="userSpaceOnUse">
<stop stop-color="#FEFEFE"/>
<stop offset="1" stop-color="#C6D9FA"/>
</linearGradient>
<linearGradient id="paint14_linear_3900_52666" x1="272.752" y1="39.1167" x2="276.932" y2="39.1167" gradientUnits="userSpaceOnUse">
<stop stop-color="#FEFEFE"/>
<stop offset="1" stop-color="#C6D9FA"/>
</linearGradient>
<linearGradient id="paint15_linear_3900_52666" x1="272.752" y1="47.4439" x2="276.932" y2="47.4439" gradientUnits="userSpaceOnUse">
<stop stop-color="#FEFEFE"/>
<stop offset="1" stop-color="#C6D9FA"/>
</linearGradient>
<linearGradient id="paint16_linear_3900_52666" x1="272.752" y1="55.7744" x2="276.932" y2="55.7744" gradientUnits="userSpaceOnUse">
<stop stop-color="#FEFEFE"/>
<stop offset="1" stop-color="#C6D9FA"/>
</linearGradient>
<linearGradient id="paint17_linear_3900_52666" x1="272.752" y1="64.1016" x2="276.932" y2="64.1016" gradientUnits="userSpaceOnUse">
<stop stop-color="#FEFEFE"/>
<stop offset="1" stop-color="#C6D9FA"/>
</linearGradient>
<linearGradient id="paint18_linear_3900_52666" x1="272.752" y1="72.4292" x2="276.932" y2="72.4292" gradientUnits="userSpaceOnUse">
<stop stop-color="#FEFEFE"/>
<stop offset="1" stop-color="#C6D9FA"/>
</linearGradient>
<linearGradient id="paint19_linear_3900_52666" x1="273.51" y1="39.1056" x2="276.176" y2="39.1056" gradientUnits="userSpaceOnUse">
<stop stop-color="#13469F"/>
<stop offset="1" stop-color="#0E55CB"/>
</linearGradient>
<linearGradient id="paint20_linear_3900_52666" x1="273.51" y1="47.4333" x2="276.176" y2="47.4333" gradientUnits="userSpaceOnUse">
<stop stop-color="#13469F"/>
<stop offset="1" stop-color="#0E55CB"/>
</linearGradient>
<linearGradient id="paint21_linear_3900_52666" x1="273.51" y1="55.7604" x2="276.176" y2="55.7604" gradientUnits="userSpaceOnUse">
<stop stop-color="#13469F"/>
<stop offset="1" stop-color="#0E55CB"/>
</linearGradient>
<linearGradient id="paint22_linear_3900_52666" x1="195.011" y1="110.129" x2="284.328" y2="110.129" gradientUnits="userSpaceOnUse">
<stop stop-color="#ADD6FD"/>
<stop offset="1" stop-color="#A1C3FF"/>
</linearGradient>
<linearGradient id="paint23_linear_3900_52666" x1="220.908" y1="138.195" x2="232.055" y2="138.195" gradientUnits="userSpaceOnUse">
<stop stop-color="#EB8859"/>
<stop offset="0.99" stop-color="#FAB081"/>
</linearGradient>
<linearGradient id="paint24_linear_3900_52666" x1="247.283" y1="149.109" x2="258.43" y2="149.109" gradientUnits="userSpaceOnUse">
<stop stop-color="#EB8859"/>
<stop offset="0.99" stop-color="#FAB081"/>
</linearGradient>
<linearGradient id="paint25_linear_3900_52666" x1="236.836" y1="127.284" x2="242.501" y2="127.284" gradientUnits="userSpaceOnUse">
<stop stop-color="#EB8859"/>
<stop offset="0.99" stop-color="#FAB081"/>
</linearGradient>
<linearGradient id="paint26_linear_3900_52666" x1="236.129" y1="127.284" x2="243.211" y2="127.284" gradientUnits="userSpaceOnUse">
<stop stop-color="#EB8859"/>
<stop offset="0.99" stop-color="#FAB081"/>
</linearGradient>
<linearGradient id="paint27_linear_3900_52666" x1="210.463" y1="149.11" x2="216.131" y2="149.11" gradientUnits="userSpaceOnUse">
<stop stop-color="#EB8859"/>
<stop offset="0.99" stop-color="#FAB081"/>
</linearGradient>
<linearGradient id="paint28_linear_3900_52666" x1="209.758" y1="149.11" x2="216.836" y2="149.11" gradientUnits="userSpaceOnUse">
<stop stop-color="#EB8859"/>
<stop offset="0.99" stop-color="#FAB081"/>
</linearGradient>
<linearGradient id="paint29_linear_3900_52666" x1="263.208" y1="160.021" x2="268.873" y2="160.021" gradientUnits="userSpaceOnUse">
<stop stop-color="#EB8859"/>
<stop offset="0.99" stop-color="#FAB081"/>
</linearGradient>
<linearGradient id="paint30_linear_3900_52666" x1="262.502" y1="160.02" x2="269.58" y2="160.02" gradientUnits="userSpaceOnUse">
<stop stop-color="#EB8859"/>
<stop offset="0.99" stop-color="#FAB081"/>
</linearGradient>
<linearGradient id="paint31_linear_3900_52666" x1="200.888" y1="123.741" x2="200.888" y2="23.8722" gradientUnits="userSpaceOnUse">
<stop stop-color="#FEFEFE"/>
<stop offset="1" stop-color="#C6D9FA"/>
</linearGradient>
<linearGradient id="paint32_linear_3900_52666" x1="200.887" y1="73.8068" x2="240.365" y2="73.8068" gradientUnits="userSpaceOnUse">
<stop stop-color="#E0EEFC"/>
<stop offset="1" stop-color="#8EACE1"/>
</linearGradient>
<linearGradient id="paint33_linear_3900_52666" x1="200.887" y1="73.8067" x2="250.857" y2="73.8067" gradientUnits="userSpaceOnUse">
<stop stop-color="#E0EEFC"/>
<stop offset="1" stop-color="#8EACE1"/>
</linearGradient>
<linearGradient id="paint34_linear_3900_52666" x1="176.285" y1="60.6269" x2="206.606" y2="60.6269" gradientUnits="userSpaceOnUse">
<stop stop-color="#EB8859"/>
<stop offset="0.99" stop-color="#FAB081"/>
</linearGradient>
<linearGradient id="paint35_linear_3900_52666" x1="129.686" y1="59.0346" x2="142.461" y2="59.0346" gradientUnits="userSpaceOnUse">
<stop stop-color="#EB8859"/>
<stop offset="0.99" stop-color="#FAB081"/>
</linearGradient>
<linearGradient id="paint36_linear_3900_52666" x1="128.863" y1="49.4002" x2="143.546" y2="49.4002" gradientUnits="userSpaceOnUse">
<stop stop-color="#EB8859"/>
<stop offset="0.99" stop-color="#FAB081"/>
</linearGradient>
<linearGradient id="paint37_linear_3900_52666" x1="137.083" y1="52.3499" x2="144.215" y2="52.3499" gradientUnits="userSpaceOnUse">
<stop stop-color="#EB8859"/>
<stop offset="0.99" stop-color="#FAB081"/>
</linearGradient>
<linearGradient id="paint38_linear_3900_52666" x1="130.208" y1="67.3082" x2="157.658" y2="39.8538" gradientUnits="userSpaceOnUse">
<stop stop-color="#13469F"/>
<stop offset="1" stop-color="#0E55CB"/>
</linearGradient>
<linearGradient id="paint39_linear_3900_52666" x1="142.461" y1="61.2532" x2="154.95" y2="61.2532" gradientUnits="userSpaceOnUse">
<stop stop-color="#EB8859"/>
<stop offset="0.99" stop-color="#FAB081"/>
</linearGradient>
<linearGradient id="paint40_linear_3900_52666" x1="140.593" y1="187.915" x2="156.919" y2="187.915" gradientUnits="userSpaceOnUse">
<stop stop-color="#ADD6FD"/>
<stop offset="1" stop-color="#A1C3FF"/>
</linearGradient>
<linearGradient id="paint41_linear_3900_52666" x1="124.801" y1="187.615" x2="135.504" y2="187.615" gradientUnits="userSpaceOnUse">
<stop stop-color="#ADD6FD"/>
<stop offset="1" stop-color="#A1C3FF"/>
</linearGradient>
<linearGradient id="paint42_linear_3900_52666" x1="291.348" y1="41.0095" x2="305.791" y2="41.0095" gradientUnits="userSpaceOnUse">
<stop stop-color="#FEFEFE"/>
<stop offset="1" stop-color="#C6D9FA"/>
</linearGradient>
<linearGradient id="paint43_linear_3900_52666" x1="104.191" y1="125.463" x2="118.634" y2="125.463" gradientUnits="userSpaceOnUse">
<stop stop-color="#EB8859"/>
<stop offset="0.99" stop-color="#FAB081"/>
</linearGradient>
<linearGradient id="paint44_linear_3900_52666" x1="200.396" y1="114.763" x2="200.396" y2="186.051" gradientUnits="userSpaceOnUse">
<stop stop-color="#C6D9FA"/>
<stop offset="1" stop-color="#FEFEFE"/>
</linearGradient>
<linearGradient id="paint45_linear_3900_52666" x1="238.998" y1="169.25" x2="246.584" y2="169.25" gradientUnits="userSpaceOnUse">
<stop stop-color="#ADD6FD"/>
<stop offset="1" stop-color="#A1C3FF"/>
</linearGradient>
<linearGradient id="paint46_linear_3900_52666" x1="230.289" y1="171.396" x2="235.968" y2="171.396" gradientUnits="userSpaceOnUse">
<stop stop-color="#EB8859"/>
<stop offset="0.99" stop-color="#FAB081"/>
</linearGradient>
<linearGradient id="paint47_linear_3900_52666" x1="185.067" y1="163.742" x2="192.879" y2="163.742" gradientUnits="userSpaceOnUse">
<stop stop-color="#EB8859"/>
<stop offset="0.99" stop-color="#FAB081"/>
</linearGradient>
<linearGradient id="paint48_linear_3900_52666" x1="177.62" y1="169.138" x2="183.7" y2="169.138" gradientUnits="userSpaceOnUse">
<stop stop-color="#EB8859"/>
<stop offset="0.99" stop-color="#FAB081"/>
</linearGradient>
<linearGradient id="paint49_linear_3900_52666" x1="77.1133" y1="57.4528" x2="95.0989" y2="57.4528" gradientUnits="userSpaceOnUse">
<stop stop-color="#EB8859"/>
<stop offset="0.99" stop-color="#FAB081"/>
</linearGradient>
<linearGradient id="paint50_linear_3900_52666" x1="54.5013" y1="52.1243" x2="66.1816" y2="52.1243" gradientUnits="userSpaceOnUse">
<stop stop-color="#EB8859"/>
<stop offset="0.99" stop-color="#FAB081"/>
</linearGradient>
<clipPath id="clip0_3900_52666">
<rect width="375" height="197.949" fill="white" transform="translate(0 0.776367)"/>
</clipPath>
</defs>
</svg>
