<svg width="10" height="7" viewBox="0 0 10 7" fill="none" xmlns="http://www.w3.org/2000/svg">
<path d="M1.5 1C1.5 0.45 1.95 0 2.5 0H4V1H2.5V2.325L4.24 4.5H6V2H8C9.105 2 10 2.895 10 4V5.5H9C9 6.33 8.33 7 7.5 7C6.67 7 6 6.33 6 5.5H3.76L1.5 2.675V1ZM7.5 6C7.775 6 8 5.775 8 5.5H7C7 5.775 7.225 6 7.5 6Z" fill="#335363"/>
<path d="M6 0.5H8.5V1.5H6V0.5Z" fill="#335363"/>
<path d="M1.5 4C2.33 4 3 4.67 3 5.5C3 6.33 2.33 7 1.5 7C0.67 7 0 6.33 0 5.5C0 4.67 0.67 4 1.5 4ZM1.5 6C1.775 6 2 5.775 2 5.5C2 5.225 1.775 5 1.5 5C1.225 5 1 5.225 1 5.5C1 5.775 1.225 6 1.5 6Z" fill="#335363"/>
</svg>
