<svg xmlns="http://www.w3.org/2000/svg" viewBox="0 0 847.21 847.21"><title>blog</title><g style="isolation:isolate"><g id="Layer_1" data-name="Layer 1"><rect width="847.21" height="847.21" style="fill:#b0ddfd"/><path d="M699,732.75H151c-79.15,0,33.94-35.43,33.94-35.43H648.12S770.17,732.75,699,732.75Z" style="fill:#7bc0f5"/><rect x="253.08" y="637.62" width="59.05" height="75.83" style="fill:#f3b28f"/><polygon points="312.13 713.44 312.13 637.62 346.81 637.62 346.26 713.44 312.13 713.44" style="fill:#e6956a"/><rect x="275.14" y="637.62" width="8.82" height="17.26" transform="translate(559.1 1292.49) rotate(180)" style="fill:#fff;mix-blend-mode:soft-light"/><polygon points="225.82 713.44 225.82 637.62 253.08 637.62 252.66 713.44 225.82 713.44" style="fill:#e6956a"/><rect x="212.57" y="578.47" width="43.75" height="59.15" style="fill:#f3ac88"/><polygon points="217.68 637.62 217.68 578.47 183.21 578.47 183.66 637.62 217.68 637.62" style="fill:#e6956a"/><rect x="232.23" y="578.47" width="6.88" height="13.46" style="fill:#fff;mix-blend-mode:soft-light"/><rect x="285.4" y="578.47" width="43.75" height="59.15" style="fill:#f3b28f"/><polygon points="285.4 637.62 285.4 578.47 256.04 578.47 256.5 637.62 285.4 637.62" style="fill:#e6956a"/><rect x="251.03" y="519.95" width="43.75" height="59.15" style="fill:#f3b28f"/><polygon points="251.03 579.1 251.03 519.95 221.67 519.95 222.13 579.1 251.03 579.1" style="fill:#e6956a"/><polygon points="305.34 536.89 261.59 536.89 251.03 519.95 294.78 519.95 305.34 536.89" style="fill:#f8dfd2"/><polygon points="265.1 519.95 221.35 519.95 210.79 503.01 254.54 503.01 265.1 519.95" style="fill:#f3b28f"/><polygon points="212.11 536.14 241.47 536.14 251.03 519.95 221.67 519.95 212.11 536.14" style="fill:#f8dfd2"/><polygon points="173.64 594.66 208.11 594.66 217.68 578.47 183.21 578.47 173.64 594.66" style="fill:#f8dfd2"/><rect x="302.91" y="578.47" width="26.24" height="59.15" style="fill:#e6956a"/><polygon points="357.21 595.41 313.46 595.41 302.91 578.47 346.65 578.47 357.21 595.41" style="fill:#f8dfd2"/><rect x="176.88" y="637.62" width="61.17" height="75.83" style="fill:#f8bd9e"/><rect x="203.06" y="637.62" width="8.82" height="17.26" transform="translate(414.94 1292.49) rotate(180)" style="fill:#fff;mix-blend-mode:soft-light"/><rect x="182.06" y="335.97" width="156.33" height="96.84" rx="12.05" style="fill:#004fff"/><path d="M208.48,360.44H220v-4.6a2.78,2.78,0,0,0-2.77-2.78H201.12v11.11c0,.66-.35,1.2-1,1.2h0c-.66,0-.92-.54-.92-1.2V353.06H196.4a2.79,2.79,0,0,0-2.78,2.78v13.45h15.07a.92.92,0,0,1,.94.8.89.89,0,0,1-.89,1H193.62v5.55a2.78,2.78,0,0,0,2.78,2.77h20.79a2.77,2.77,0,0,0,2.77-2.77V362.26H208.43a.92.92,0,0,1-.91-1A1,1,0,0,1,208.48,360.44Z" style="fill:#ebcd83"/><rect x="294.8" y="405.84" width="31.85" height="16.07" style="fill:#ebeae9"/><rect x="193.62" y="389.2" width="29.72" height="7.5" style="fill:#ebeae9"/><rect x="227.52" y="389.2" width="30.27" height="7.5" style="fill:#ebeae9"/><rect x="295.55" y="389.2" width="30.92" height="7.5" style="fill:#ebeae9"/><rect x="262.53" y="389.2" width="28.61" height="7.5" style="fill:#ebeae9"/><rect x="193.8" y="405.84" width="91.65" height="9.68" style="fill:#ebcd83"/><rect x="287.22" y="345.08" width="39.43" height="11.29" style="fill:#ebeae9"/><path d="M332.75,219.46c4.22-25.05,42.8-36.36,42-20l176.85,1c12.24.07,22.18,11.09,22.19,24.62l.36,465.09c0,14-10.09,25.48-22.57,25.59l-180.53,1.55a14.49,14.49,0,0,1-6.52,6.28c-20.7.44-30.63-9.78-34.26-21.34a27.85,27.85,0,0,1-1.8-10.15C329.24,686.08,331.44,225.33,332.75,219.46Z" style="fill:#0386e6"/><path d="M366.5,723.7l207.22-1.34c12.93-.08,23.39-11.86,23.36-26.28l-.78-478.31c0-13.91-10.31-25.21-23-25.25l-203.19-.66c-12.79,0-23.24,11.24-23.34,25.22l-3.69,480.51C343,712.09,353.46,723.78,366.5,723.7Z" style="fill:#88caf9"/><path d="M363.64,720.22a19,19,0,0,0,2.62.16l207.15-1.57c11.11-.08,20.19-10.4,20.17-23L592.87,218c0-12.15-9-22.06-19.86-22.1l-203.18-.89-.95,0a19.26,19.26,0,0,0-13.46,6.55,23,23,0,0,0-5.73,15.21l-3.63,481C346,709.24,353.5,718.86,363.64,720.22Z" style="fill:#0033e6"/><polygon points="356.82 219.25 353.32 698.58 586.69 697.18 586.1 219.25 356.82 219.25" style="fill:#fff"/><path d="M424.39,219.25l55.34,75.16a.31.31,0,0,0,0,.1c-.54,14.75,31,14.78,32,0a.34.34,0,0,0,0-.1l-54.58-75.19Z" style="fill:#65bcff"/><path d="M457.13,219.25l54.58,75.19v.1c-.7,14.75,30.85,14.78,32,0a.31.31,0,0,0,0-.1l-53.82-75.22Z" style="fill:#004fff"/><path d="M391.64,219.25l56.09,75.13v.09c0,.06,0,.12,0,.17-.49,13.74,31.16,15.41,32-.13a.31.31,0,0,1,0-.1l-55.34-75.16Z" style="fill:#004fff"/><path d="M356.61,219.25l58.11,75.09v.1c-.37,19.14,32.07,16.88,33,.2,0-.05,0-.11,0-.17v-.09l-56.09-75.13Z" style="fill:#65bcff"/><path d="M588,219.26h-32.7l52.29,75.28a.31.31,0,0,0,0,.1c-1.14,14.74,31.48,14.78,33.06,0,0,0,0-.06,0-.1Z" style="fill:#65bcff"/><path d="M489.86,219.25l53.82,75.22v.1c-.85,14.75,30.69,14.78,32,0a.28.28,0,0,0,0-.09l-53-75.25Z" style="fill:#65bcff"/><path d="M522.59,219.26l53,75.25v.09c-1,14.75,30.53,14.78,31.94,0,0,0,0-.07,0-.1l-52.29-75.28Z" style="fill:#004fff"/><path d="M479.72,294.51l32,0C510.74,309.29,479.18,309.26,479.72,294.51Z" style="fill:#23a0ff"/><path d="M511.71,294.54l32,0C542.56,309.32,511,309.29,511.71,294.54Z" style="fill:#0033e6"/><path d="M447.71,295l32,0C478.56,309.79,447,309.76,447.71,295Z" style="fill:#0033e6"/><path d="M415.22,295l32.45,0C446.54,312.34,414.52,312.31,415.22,295Z" style="fill:#23a0ff"/><path d="M543.68,294.57l32,0C574.37,309.35,542.83,309.32,543.68,294.57Z" style="fill:#23a0ff"/><path d="M575.64,294.6l31.94,0C606.17,309.38,574.64,309.35,575.64,294.6Z" style="fill:#0033e6"/><path d="M640.65,294.67c-1.58,14.75-34.2,14.71-33.06,0Z" style="fill:#23a0ff"/><polygon points="575.06 669.39 371.46 669.39 371.46 661.51 575.06 661.54 575.06 669.39" style="fill:#0191f9"/><polygon points="575.06 592.75 371.46 592.45 371.46 584.57 575.06 584.9 575.06 592.75" style="fill:#0191f9"/><polygon points="575.06 516.11 371.46 515.51 371.46 507.63 575.06 508.26 575.06 516.11" style="fill:#0191f9"/><polygon points="575.06 439.47 371.46 438.56 371.46 430.68 575.06 431.62 575.06 439.47" style="fill:#0191f9"/><path d="M556.87,348.14l-166.87-1A11.1,11.1,0,0,1,379.1,336,10.93,10.93,0,0,1,390,325l166.87,1.1a11,11,0,0,1,10.77,11.11A10.85,10.85,0,0,1,556.87,348.14ZM390,325.69A10.21,10.21,0,0,0,379.82,336,10.36,10.36,0,0,0,390,346.42l166.87,1a10.12,10.12,0,0,0,10-10.24,10.28,10.28,0,0,0-10-10.38Z" style="fill:#0191f9"/><path d="M556.87,326.42l-17.36-.12v21.37l17.36.1a10.47,10.47,0,0,0,10.41-10.61A10.62,10.62,0,0,0,556.87,326.42Z" style="fill:#0191f9"/><path d="M550.44,340.15a5.35,5.35,0,0,1-3.82-1.64,5.64,5.64,0,0,1,0-7.82,5.27,5.27,0,0,1,3.82-1.6,5.33,5.33,0,0,1,3.81,1.65h0a5.62,5.62,0,0,1,0,7.82A5.28,5.28,0,0,1,550.44,340.15Zm0-9.72a4,4,0,0,0-2.9,1.21,4.26,4.26,0,0,0,0,5.93,4,4,0,0,0,5.79,0,4.28,4.28,0,0,0,0-5.94A4,4,0,0,0,550.44,330.43Z" style="fill:#fff"/><polygon points="557.42 342.8 553.33 338.55 554.25 337.61 558.34 341.87 557.42 342.8" style="fill:#fff"/><path d="M559.25,343.74h0a1.15,1.15,0,0,1-1.66,0l-3.42-3.53,1.65-1.69,3.43,3.53A1.22,1.22,0,0,1,559.25,343.74Z" style="fill:#fff"/><polygon points="436.2 424.26 379.1 423.99 379.1 365.67 436.2 366 436.2 424.26" style="fill:#7dbcf9"/><polygon points="502.67 424.57 445.71 424.3 445.71 366.06 502.67 366.39 502.67 424.57" style="fill:#7dbcf9"/><polygon points="567.48 424.88 510.66 424.61 510.66 366.44 567.48 366.77 567.48 424.88" style="fill:#7dbcf9"/><polygon points="436.2 502.47 379.1 502.28 379.1 443.96 436.2 444.21 436.2 502.47" style="fill:#7dbcf9"/><polygon points="502.67 502.68 445.71 502.5 445.71 444.25 502.67 444.5 502.67 502.68" style="fill:#7dbcf9"/><polygon points="567.48 502.89 510.66 502.71 510.66 444.53 567.48 444.78 567.48 502.89" style="fill:#7dbcf9"/><polygon points="436.2 579.31 379.1 579.22 379.1 520.89 436.2 521.06 436.2 579.31" style="fill:#7dbcf9"/><polygon points="502.67 579.43 445.71 579.33 445.71 521.08 502.67 521.25 502.67 579.43" style="fill:#7dbcf9"/><polygon points="567.48 579.54 510.66 579.44 510.66 521.27 567.48 521.43 567.48 579.54" style="fill:#7dbcf9"/><polygon points="436.2 656.16 379.1 656.14 379.1 597.82 436.2 597.9 436.2 656.16" style="fill:#7dbcf9"/><polygon points="502.67 656.18 445.71 656.16 445.71 597.91 502.67 597.99 502.67 656.18" style="fill:#7dbcf9"/><polygon points="567.48 656.19 510.66 656.18 510.66 598 567.48 598.08 567.48 656.19" style="fill:#7dbcf9"/><path d="M423.3,409.82l-1.27-.38c0-.1,2.23-9.75,2.41-13.43a15.2,15.2,0,0,0-3.92-11.33,18.16,18.16,0,0,0-13.25-5.42c-5.13,0-9.6,1.72-12.58,4.91-2.74,2.94-4.05,7-3.79,11.66.2,3.71,2.06,13,2.08,13.13l-1.3.27c-.08-.39-1.9-9.52-2.11-13.33-.27-5.07,1.16-9.45,4.16-12.66,3.23-3.47,8-5.37,13.54-5.34a19.48,19.48,0,0,1,14.21,5.86,16.51,16.51,0,0,1,4.28,12.33C425.58,399.92,423.41,409.44,423.3,409.82Z" style="fill:#3a8ad9"/><path d="M391.76,402.93l1.73,9.45a2,2,0,0,0,2.08,1.65l-2.44-13.4A2,2,0,0,0,391.76,402.93Z" style="fill:#3a8ad9"/><path d="M395.81,414l3.73-.69-2.47-13.43-3.73.7-.21.05,2.44,13.4Z" style="fill:#3a8ad9"/><path d="M400.53,414.63h0a2.11,2.11,0,0,1-2.45-1.72l-2.23-12.13a2.13,2.13,0,0,1,1.68-2.49h0A2.12,2.12,0,0,1,400,400l2.22,12.13A2.12,2.12,0,0,1,400.53,414.63Z" style="fill:#bfddf9"/><path d="M423.36,403.23l-2,9.37a2,2,0,0,1-2.12,1.58l2.76-13.3A2,2,0,0,1,423.36,403.23Z" style="fill:#3a8ad9"/><path d="M419,414.15l-3.71-.83,2.8-13.33,3.71.83.2.06-2.76,13.3Z" style="fill:#3a8ad9"/><path d="M414.31,414.61h0A2.09,2.09,0,0,0,416.8,413l2.53-12a2.15,2.15,0,0,0-1.62-2.55h0a2.08,2.08,0,0,0-2.49,1.63l-2.52,12A2.16,2.16,0,0,0,414.31,414.61Z" style="fill:#bfddf9"/><polygon points="481.4 386.86 480.06 389.3 455.6 389.16 455.6 410.55 492.79 410.74 492.79 389.62 491.32 386.91 481.4 386.86" style="fill:#c9e2f9"/><polygon points="478.49 390.37 469.92 390.32 469.92 386.79 478.49 386.84 478.49 390.37" style="fill:#c9e2f9"/><polygon points="467.06 390.3 458.48 390.26 458.48 386.73 467.06 386.78 467.06 390.3" style="fill:#c9e2f9"/><polygon points="492.79 406.59 455.6 406.4 455.6 394.06 492.79 394.26 492.79 406.59" style="fill:#3a8ad9"/><path d="M490.21,400.41a8.57,8.57,0,0,1-8.53,8.67,8.66,8.66,0,0,1-8.52-8.76,8.57,8.57,0,0,1,8.52-8.67A8.69,8.69,0,0,1,490.21,400.41Z" style="fill:#3a8ad9"/><path d="M488.29,400.4a6.64,6.64,0,0,1-6.61,6.72,6.71,6.71,0,0,1-6.61-6.79,6.64,6.64,0,0,1,6.61-6.72A6.73,6.73,0,0,1,488.29,400.4Z" style="fill:#c9e2f9"/><path d="M484.84,400.38a3.17,3.17,0,0,1-3.16,3.22,3.22,3.22,0,0,1-3.16-3.25,3.18,3.18,0,0,1,3.16-3.21A3.21,3.21,0,0,1,484.84,400.38Z" style="fill:#3a8ad9"/><path d="M429.76,567.15c-.29-5.87-13.41-9.56-13.41-9.56s-12-13.22-17-19.85c-8.55,3.34-10.59,7.47-9.31,14.67,4.16-3.54,11.27,3,19.92,14.7Z" style="fill:#3a8ad9"/><path d="M390,552.41l2.85,15.3h1.37c.39-6.89,1.24-14.69,5.8-12.19C400,549.38,390,549.36,390,552.41Z" style="fill:#3a8ad9"/><path d="M411.52,453.14a10.52,10.52,0,0,1-.5-2.37h-.64a9,9,0,0,1-.29,1.91,3.74,3.74,0,0,1-3.19,3,3.82,3.82,0,0,1-3.2-3,9,9,0,0,1-.29-1.91h-.64a9.53,9.53,0,0,1-.5,2.37,12.31,12.31,0,0,1-3,4.74l1,9.56,6.38,0h.56l6.37,0,1-9.55A12.58,12.58,0,0,1,411.52,453.14Z" style="fill:#d3e7f9"/><path d="M421.73,492.51c-2.83,2.9-26.15,3.11-29.68-.11,1.6-9,3.68-17.77,8.19-25l13.31.05C417.59,473.72,419.89,482.74,421.73,492.51Z" style="fill:#d3e7f9"/><path d="M408.05,469.72c-5.39,0-7.94-2.33-8.05-2.43a.2.2,0,0,1,0-.28.19.19,0,0,1,.28,0s2.56,2.3,7.78,2.32h0c4.66,0,5.3-1.9,5.3-1.92a.21.21,0,0,1,.25-.13.19.19,0,0,1,.13.25c0,.09-.69,2.22-5.68,2.21Z" style="fill:#3a8ad9"/><path d="M407.51,473.39a.55.55,0,0,1-.43-.25c-1-1.22,1.45-3.51,1.73-3.77l.44-.4-.11.59c-.15.84-.71,3.6-1.52,3.81Zm1.11-3.26c-.75.8-1.75,2.12-1.24,2.76,0,0,.1.1.14.09C407.86,472.89,408.31,471.53,408.62,470.13Z" style="fill:#3a8ad9"/><path d="M408.73,470l0-.5c0-.12.08-3,1.17-3.93a1.26,1.26,0,0,1,1-.31.72.72,0,0,1,.65.47c.34,1.05-2,3.45-2.5,3.92Zm2-4.34a.83.83,0,0,0-.57.22c-.7.61-.93,2.25-1,3.1,1-1.05,2.2-2.57,2-3.12,0,0-.05-.16-.32-.19Z" style="fill:#3a8ad9"/><path d="M412.72,473a.19.19,0,0,1-.18-.11,6.23,6.23,0,0,0-3.65-3.15.19.19,0,0,1-.14-.24.2.2,0,0,1,.24-.15,6.55,6.55,0,0,1,3.9,3.36.2.2,0,0,1-.09.27A.11.11,0,0,1,412.72,473Z" style="fill:#3a8ad9"/><path d="M479.52,613.47a11.86,11.86,0,0,1-.57-2.72h-.73a10.5,10.5,0,0,1-.33,2.19,3.67,3.67,0,0,1-7.33,0,10.59,10.59,0,0,1-.32-2.19h-.74a11.86,11.86,0,0,1-.57,2.72,14.4,14.4,0,0,1-3.49,5.45l1.16,11h15.25l1.16-11A14.32,14.32,0,0,1,479.52,613.47Z" style="fill:#d3e7f9"/><path d="M486.06,638.57a45.26,45.26,0,0,0-4.21-8.69H466.6a51.39,51.39,0,0,0-4.26,8.68C465.75,642.11,483,642.71,486.06,638.57Z" style="fill:#d3e7f9"/><path d="M475.55,632.5c-6.18,0-9.1-2.64-9.22-2.76a.23.23,0,0,1,0-.32.22.22,0,0,1,.32,0s2.93,2.63,8.92,2.63h0c5.33,0,6.07-2.19,6.07-2.21a.23.23,0,0,1,.29-.16.24.24,0,0,1,.15.29c0,.1-.79,2.55-6.51,2.55Z" style="fill:#3a8ad9"/><path d="M474.93,636.71a.63.63,0,0,1-.5-.28c-1.11-1.4,1.67-4,2-4.34l.5-.46-.13.68c-.17,1-.81,4.14-1.73,4.38ZM476.2,633c-.86.92-2,2.44-1.42,3.16.05.06.11.13.16.11C475.32,636.14,475.85,634.58,476.2,633Z" style="fill:#3a8ad9"/><path d="M476.33,632.83v-.57c0-.14.1-3.41,1.35-4.51a1.42,1.42,0,0,1,1.16-.36.82.82,0,0,1,.74.53c.39,1.2-2.31,4-2.86,4.51Zm2.31-5a1,1,0,0,0-.65.26c-.81.7-1.07,2.59-1.15,3.56,1.14-1.21,2.52-3,2.32-3.59,0,0-.06-.17-.37-.22Z" style="fill:#3a8ad9"/><path d="M480.89,636.22a.23.23,0,0,1-.2-.13,7.1,7.1,0,0,0-4.18-3.6.23.23,0,0,1,.12-.45,7.49,7.49,0,0,1,4.47,3.84.24.24,0,0,1-.11.31A.17.17,0,0,1,480.89,636.22Z" style="fill:#3a8ad9"/><path d="M467.63,459.43a18.84,18.84,0,0,0,9.87-.17c3.76,4.65-2.86,6.86-7,5.85S467.63,459.43,467.63,459.43Z" style="fill:#c9e2f9"/><path d="M477.5,459.26a4.74,4.74,0,0,1-2.17,3.08c-2.82,1.66-6.45-.12-7.7-2.91a26.11,26.11,0,0,0-5.58,1.24v32l22.12.07v-32A25.66,25.66,0,0,0,477.5,459.26Z" style="fill:#3a8ad9"/><polygon points="462.06 460.67 452.52 468.17 458.79 476.57 468.12 469.49 462.06 460.67" style="fill:#3a8ad9"/><polygon points="484.25 460.76 493.77 468.33 487.51 476.67 478.18 469.53 484.25 460.76" style="fill:#3a8ad9"/><path d="M517.92,487.56h-.44v1.9s23.81,1.73,33.18.12,10-4.77,10-4.77v-2h-.32Z" style="fill:#3a8ad9"/><path d="M560.3,483.78c-2.45,3.24-9.89,4.21-19.21,4.34-3.83.05-8,0-12.24-.18-3.61-.12-7.3-.27-10.93-.38-.36-2.72.59-7.79,1.33-10.58a10.47,10.47,0,0,1,.61-1.84l.13-.05c1.25,1.72,4.29,2.76,6.09,2.73,2.95-.06,6.27-2.12,5.32-4.6a6.62,6.62,0,0,1-.36-.92c-.76-2.48,1.32-2.49,4.42-.56a36.59,36.59,0,0,0,14.35,5.41c.82.14,1.59.24,2.33.33C557.68,478.2,560.8,478.23,560.3,483.78Z" style="fill:#d3e7f9"/><path d="M560,483.78c-2.46,3.24-9.9,4.21-19.21,4.34-.27-1.37-.5-5,4.29-5.85a9.9,9.9,0,0,0,6.76-4.79C557.37,478.2,560.49,478.23,560,483.78Z" style="fill:#3a8ad9"/><path d="M528.54,487.94c-3.61-.12-7.31-.27-10.93-.38-.36-2.72.59-7.79,1.33-10.58C522,478.08,527.51,481,528.54,487.94Z" style="fill:#3a8ad9"/><path d="M549.81,477.15A2.89,2.89,0,0,1,547,478.3c-9.42-.66-14.19-4.41-15.93-6-.76-2.48,1.32-2.49,4.42-.56A36.59,36.59,0,0,0,549.81,477.15Z" style="fill:#3a8ad9"/><path d="M538.62,488.47c-4.83,0-9.66-.29-13.61-.51a65.31,65.31,0,0,0-7.34-.22l-.18,0,0-.37.18,0a63.82,63.82,0,0,1,7.4.22c11.06.62,31.62,1.78,35.16-4.83l.09-.16.32.18-.09.16C558.07,487.5,548.36,488.51,538.62,488.47Z" style="fill:#d3e7f9"/><polygon points="545.58 414.88 533.61 414.83 533.61 377.58 545.58 377.65 545.58 414.88" style="fill:#3a8ad9"/><path d="M549.67,395.73a10.64,10.64,0,0,1-10.58,10.77,10.77,10.77,0,0,1-10.59-10.88,10.64,10.64,0,0,1,10.59-10.78A10.79,10.79,0,0,1,549.67,395.73Z" style="fill:#c9e2f9"/><path d="M547.6,395.72a8.56,8.56,0,0,1-8.51,8.67,8.68,8.68,0,0,1-8.53-8.76,8.58,8.58,0,0,1,8.53-8.68A8.68,8.68,0,0,1,547.6,395.72Z" style="fill:#3a8ad9"/><polygon points="530.46 390.83 529.1 389.85 530.72 387.51 532.07 388.49 530.46 390.83" style="fill:#c9e2f9"/><rect x="527.75" y="395.68" width="1.66" height="2.87" transform="translate(-47.4 72.54) rotate(-7.51)" style="fill:#c9e2f9"/><polygon points="547.64 390.87 549.01 389.92 547.43 387.54 546.06 388.48 547.64 390.87" style="fill:#c9e2f9"/><polygon points="548.54 398.66 550.18 398.89 550.56 396.05 548.91 395.82 548.54 398.66" style="fill:#c9e2f9"/><path d="M539.11,396.14,535,393.93a.41.41,0,0,1-.17-.55.38.38,0,0,1,.53-.17l3.75,2,5.29-3.43a.39.39,0,0,1,.55.12.41.41,0,0,1-.12.56Z" style="fill:#c9e2f9"/><path d="M453.72,559.25a45.82,45.82,0,0,0,8.07,1.48,122.75,122.75,0,0,0,17.31.58c5.45-.22,10-.86,11.72-2,0,0,3.64-22.08-17.81-22.62h-.74C450,536.64,453.72,559.25,453.72,559.25Z" style="fill:#3a8ad9"/><path d="M461.79,560.73a122.75,122.75,0,0,0,17.31.58c3-20.06-5.63-24.38-6.09-24.6h-.74C461,543.12,461.52,557.53,461.79,560.73Z" style="fill:#c9e2f9"/><path d="M488.5,560.17s-6.07,10.3-34.23,7.92c-12.06-1-.55-8.84-.55-8.84C461.31,561.12,475.92,562,488.5,560.17Z" style="fill:#599ddf"/><path d="M532.32,542.89l13,0a13.6,13.6,0,0,1,13.5,13.65c0,3-.95,5.69-3.22,7.09l-34.22-.07c-2.16-1-3-4.62-2.41-8.91A13.51,13.51,0,0,1,532.32,542.89Z" style="fill:#3a8ad9"/><path d="M534.29,543.24v-.11a4.93,4.93,0,0,1,9.83,0v.12h1.68l0-.26a6.6,6.6,0,0,0-13.17,0l0,.26Z" style="fill:#3a8ad9"/><polygon points="537.64 563.62 534.43 563.62 534.43 550.77 537.64 550.78 537.64 563.62" style="fill:#d3e7f9"/><polygon points="544 563.63 540.79 563.63 540.79 550.79 544 550.79 544 563.63" style="fill:#d3e7f9"/><path d="M425.91,641.16c-5,4.31-31,4.3-35.26,0A51.44,51.44,0,0,1,393,619a75,75,0,0,1,30.54,0C425.92,625,427,634.55,425.91,641.16Z" style="fill:#3a8ad9"/><path d="M393,619s2,12.44,16.17,12.36S423.55,619,423.55,619A73.39,73.39,0,0,0,393,619Z" style="fill:#599ddf"/><path d="M408.28,635.77h0a1.4,1.4,0,0,1-1.38-1.41v-5.11a1.4,1.4,0,0,1,1.38-1.41h0a1.4,1.4,0,0,1,1.38,1.41v5.11A1.4,1.4,0,0,1,408.28,635.77Z" style="fill:#c9e2f9"/><path d="M535.32,612.87a17,17,0,0,0,9-.18c3.42,4.22-2.6,6.26-6.36,5.35S535.32,612.87,535.32,612.87Z" style="fill:#3a8ad9"/><path d="M544.3,612.69a4.38,4.38,0,0,1-2,2.82c-2.56,1.51-5.86-.1-7-2.64a25,25,0,0,0-5.08,1.14V643.2h20.13V614A23.47,23.47,0,0,0,544.3,612.69Z" style="fill:#d3e7f9"/><polygon points="530.24 614.01 521.57 620.88 527.27 628.51 535.76 622.04 530.24 614.01" style="fill:#d3e7f9"/><polygon points="550.44 614.04 559.11 620.91 553.41 628.53 544.92 622.05 550.44 614.04" style="fill:#d3e7f9"/><rect x="541.37" y="622.5" width="5.89" height="6.03" style="fill:#3a8ad9"/><circle cx="458.6" cy="169.04" r="9.73" style="fill:#004fff"/><path d="M493,138.56l4.13-4.7c-23.15-23.25-59.24-22.39-81.27,1.91l4.36,4.49C440,118.55,472.27,117.79,493,138.56Z" style="fill:#004fff"/><path d="M484.45,148.32l4.13-4.7c-18.17-18.11-46.36-17.44-63.65,1.48l4.35,4.49C444.29,133.26,468.68,132.69,484.45,148.32Z" style="fill:#004fff"/><path d="M476.15,157.76l4.13-4.7a32,32,0,0,0-46.6,1.07l4.35,4.49A26.33,26.33,0,0,1,476.15,157.76Z" style="fill:#004fff"/><rect x="453.95" y="419.27" width="166.39" height="33.09" rx="16.55" style="fill:#0191f9"/><polygon points="480.52 428.8 482.26 434.15 487.9 434.15 483.34 437.47 485.08 442.82 480.52 439.51 475.96 442.82 477.71 437.47 473.15 434.15 478.78 434.15 480.52 428.8" style="fill:#b7e5ff"/><polygon points="508.22 428.8 509.96 434.15 515.59 434.15 511.03 437.47 512.77 442.82 508.22 439.51 503.66 442.82 505.4 437.47 500.84 434.15 506.48 434.15 508.22 428.8" style="fill:#b7e5ff"/><polygon points="535.91 428.8 537.65 434.15 543.29 434.15 538.73 437.47 540.47 442.82 535.91 439.51 531.36 442.82 533.1 437.47 528.54 434.15 534.17 434.15 535.91 428.8" style="fill:#b7e5ff"/><polygon points="563.61 428.8 565.35 434.15 570.98 434.15 566.42 437.47 568.17 442.82 563.61 439.51 559.05 442.82 560.79 437.47 556.23 434.15 561.87 434.15 563.61 428.8" style="fill:#b7e5ff"/><polygon points="591.3 428.8 593.04 434.15 598.68 434.15 594.12 437.47 595.86 442.82 591.3 439.51 586.75 442.82 588.49 437.47 583.93 434.15 589.56 434.15 591.3 428.8" style="fill:#b7e5ff"/><rect x="612.76" y="160.79" width="111.56" height="69.1" rx="12.52" style="fill:#004fff"/><path d="M631.62,178.25h8.19V175a2,2,0,0,0-2-2H626.37v7.92c0,.48-.26.86-.73.86h0c-.48,0-.66-.38-.66-.86V173h-2a2,2,0,0,0-2,2v9.6h10.76a.66.66,0,0,1,.67.57.64.64,0,0,1-.64.71H621v4a2,2,0,0,0,2,2h14.84a2,2,0,0,0,2-2V179.56h-8.23a.65.65,0,0,1-.65-.72A.69.69,0,0,1,631.62,178.25Z" style="fill:#fde3a4"/><rect x="693.22" y="210.65" width="22.73" height="11.47" style="fill:#0191f9"/><rect x="621.01" y="198.78" width="21.21" height="5.35" style="fill:#0191f9"/><rect x="645.2" y="198.78" width="21.6" height="5.35" style="fill:#0191f9"/><rect x="693.75" y="198.78" width="22.07" height="5.35" style="fill:#0191f9"/><rect x="670.19" y="198.78" width="20.41" height="5.35" style="fill:#0191f9"/><rect x="621.14" y="210.65" width="65.4" height="6.91" style="fill:#0191f9"/><rect x="687.8" y="167.29" width="28.14" height="8.06" style="fill:#0191f9"/><path d="M315.28,183.52c-7.45-19-18.07-18.74-99.79-18.74a13.6,13.6,0,0,1-13.6-13.61v-23.1a13.6,13.6,0,0,1,13.6-13.6h86.18a13.6,13.6,0,0,1,13.61,13.6Z" style="fill:#fff"/><circle cx="220.64" cy="138.67" r="4.62" transform="translate(46.25 332.31) rotate(-80.14)" style="fill:#004fff"/><circle cx="244.77" cy="138.67" r="4.62" transform="translate(33.01 323.87) rotate(-70.7)" style="fill:#004fff"/><circle cx="268.9" cy="138.67" r="4.62" transform="translate(72.16 368.52) rotate(-76.72)" style="fill:#004fff"/><circle cx="293.03" cy="138.67" r="4.62" style="fill:#004fff"/><circle cx="644.07" cy="435.81" r="15.56" transform="translate(71.94 962.52) rotate(-76.72)" style="fill:#0033e6"/><polygon points="643.13 443.11 636.03 431.69 637.27 430.42 643.2 436.18 661.58 420.25 662.74 421.77 643.13 443.11" style="fill:#23a0ff"/></g></g></svg>