<svg xmlns="http://www.w3.org/2000/svg" xmlns:xlink="http://www.w3.org/1999/xlink" viewBox="0 0 847.21 847.21"><defs><clipPath id="clip-path"><rect x="83.94" y="223.69" width="679.32" height="366.8" rx="25.85" style="fill:none"/></clipPath><clipPath id="clip-path-2"><rect x="71.85" y="169.98" width="703" height="438.67" style="fill:none"/></clipPath><linearGradient id="linear-gradient" x1="810.74" y1="42.78" x2="272.82" y2="539.57" gradientUnits="userSpaceOnUse"><stop offset="0" stop-color="#b5e5f7"/><stop offset="0.99" stop-color="#fff"/></linearGradient></defs><title>blog</title><g style="isolation:isolate"><g id="Layer_1" data-name="Layer 1"><rect width="847.21" height="847.21" style="fill:#b0ddfd"/><path d="M679.05,760.84l-36-38.26c-6.74-7.16-16.6-11.92-24.65-11.92H228.85c-8,0-17.91,4.76-24.65,11.92l-36,38.26C157.09,772.6,159.36,785,172.6,785h502C687.85,785,690.13,772.6,679.05,760.84Z" style="fill:#7bc0f5"/><polygon points="347.6 585.11 331.77 727.09 515.45 727.09 491.52 585.11 347.6 585.11" style="fill:#0033e6"/><rect x="54.96" y="195.23" width="737.3" height="423.72" rx="47.03" style="fill:#004fff"/><path d="M547.9,710.66H299.31A11,11,0,0,0,289,717.92l-8.41,23.33A11,11,0,0,0,290.91,756h265.4a11,11,0,0,0,10.34-14.73l-8.41-23.33A11,11,0,0,0,547.9,710.66Z" style="fill:#004fff"/><g style="clip-path:url(#clip-path)"><g style="clip-path:url(#clip-path-2)"><rect x="14.29" y="151.6" width="833.39" height="483.8" style="fill:url(#linear-gradient)"/><path d="M599.93,484.57c-31.28-12.86-72.08-4.58-95.53-28.95-14.51-15.07-17-38-28.21-55.66-17-26.87-50.88-37.5-82.47-40.9-28.63-3.09-60.18-2.87-82.22-21.4-20.05-16.85-27.44-45.16-47.29-62.26-26-22.4-49.74-34.22-85-25.4-20,5-48,31-77,71-5.3,7.32-17.35,15.84-29,18L68.05,631.48H594.59c3-2.32,6-4.69,8.9-7.14,16.16-13.59,31.16-29.77,37.78-49.82C652.66,540.05,633.51,498.38,599.93,484.57Z" style="fill:#b7e5ff"/><circle cx="62.23" cy="232.86" r="14.62" transform="translate(-146.43 112.2) rotate(-45)" style="fill:#54a7e8"/><circle cx="671.19" cy="558.56" r="20.26" transform="translate(-105.92 956.79) rotate(-66.9)" style="fill:#23a0ff"/><path d="M650.23,616a68.51,68.51,0,0,0-75.08-75.26A32.83,32.83,0,0,0,517,528.27a49.94,49.94,0,0,0-34.38,13.15A19,19,0,0,0,450,550.63a26.52,26.52,0,0,0-33.69-3.19,32.83,32.83,0,0,0-57.17,2.91,42.47,42.47,0,0,0-52-2.53,19,19,0,0,0-35.53.19,32.83,32.83,0,0,0-37.43-8.82,32.81,32.81,0,0,0-26.83-19.85,32.45,32.45,0,0,0-12.05,1,68.62,68.62,0,0,0-35.83-31.5,21.4,21.4,0,0,0-9.72-29.39,32.82,32.82,0,0,0-1.47-51.55,19,19,0,0,0,9.34-34.61,19,19,0,0,0-16.61-33,33.35,33.35,0,0,0-18.41-47.21,27.91,27.91,0,0,0,.66-3.71A26.56,26.56,0,1,0,71,292.82L-9.82,315.71,25.37,644.33,588,696.9l-2.31-19.66A68.51,68.51,0,0,0,650.23,616Z" style="fill:#94d4ff"/><rect x="137.44" y="401.71" width="18.75" height="334.1" transform="translate(420.98 49.26) rotate(42.3)" style="fill:#23a0ff"/><rect x="157.79" y="415.51" width="8.39" height="334.1" transform="translate(434.21 42.65) rotate(42.3)" style="fill:#23a0ff"/><rect x="127.46" y="387.91" width="8.39" height="334.1" transform="translate(407.75 55.88) rotate(42.3)" style="fill:#23a0ff"/><path d="M691.21,599.34A29.43,29.43,0,0,0,645,574.11a57.4,57.4,0,0,0-83.57,7,57.54,57.54,0,0,0-38.75-11.65A16.9,16.9,0,0,0,492.05,562a29.4,29.4,0,0,0-38.89-3.25,29.42,29.42,0,0,0-48.52,19c-.63-.32-1.27-.63-1.94-.91a29.29,29.29,0,0,0-21.26-.59,20.38,20.38,0,0,0-34.15-12.86,29.42,29.42,0,0,0-45.57,11,33.13,33.13,0,0,0-25.18-2.12A48.1,48.1,0,0,0,211,543a16.14,16.14,0,0,0-15.5-14.82,16.83,16.83,0,0,0-2.57.13A21.82,21.82,0,0,0,174.16,516a22.42,22.42,0,0,0-5.21.46,29.42,29.42,0,0,0-16.23-23.21,29.37,29.37,0,0,0-2.8-25.87,11.77,11.77,0,0,0-4.64-19.88,20.34,20.34,0,0,0-3.94-31.24,29.41,29.41,0,0,0-8.25-45.16,16.92,16.92,0,0,0-12-28.16c-.37,0-.74,0-1.11,0a33.1,33.1,0,0,0-18.73-40.13,57.45,57.45,0,1,0-49.11,44.64L35.59,554.64l143,140.85,475.8-10,11-58A29.43,29.43,0,0,0,691.21,599.34Z" style="fill:#65bcff"/><path d="M555.58,645.09a59.13,59.13,0,0,0-63.38-66.26,28.33,28.33,0,0,0-49.93-11.77,43.1,43.1,0,0,0-29.88,10.72,16.36,16.36,0,0,0-28.31,7.36,22.88,22.88,0,0,0-29-3.36,28.31,28.31,0,0,0-49.35,1.47,36.64,36.64,0,0,0-44.82-3.12,16.36,16.36,0,0,0-30.64-.48,28.33,28.33,0,0,0-32.13-8.28,28.31,28.31,0,0,0-33.18-17,59.14,59.14,0,0,0-30.33-27.81,18.14,18.14,0,0,0,2.2-6.69,18.5,18.5,0,0,0-10.05-18.83,28.3,28.3,0,0,0-.34-44.48,16.38,16.38,0,0,0,8.68-29.68,16.36,16.36,0,0,0-13.73-28.74,28.75,28.75,0,0,0-15-41,23.7,23.7,0,0,0,.64-3.19,22.91,22.91,0,1,0-45.12,2L-8.19,374.25l24.42,284,484.25,55.5-1.64-17A59.11,59.11,0,0,0,555.58,645.09Z" style="fill:#23a0ff"/><path d="M550,610.35a24.57,24.57,0,0,0-36.32-24.75,47.89,47.89,0,0,0-70-1,47.64,47.64,0,0,0-26.24-12.44,49.82,49.82,0,0,0-5-.42A14.11,14.11,0,0,0,387.63,563a24.54,24.54,0,0,0-32-5.89,24.55,24.55,0,0,0-41.86,11.83c-.5-.32-1-.63-1.54-.92a24.54,24.54,0,0,0-17.61-2.24,17,17,0,0,0-27.31-13.48,24.58,24.58,0,0,0-38.76,5.42,27.69,27.69,0,0,0-20.75-3.82,40.16,40.16,0,0,0-52-29.78,13.46,13.46,0,0,0-11.66-13.57,14.15,14.15,0,0,0-2.15-.11,18.05,18.05,0,0,0-19-11.74,24.59,24.59,0,0,0-11.57-20.62,24.52,24.52,0,0,0-.21-21.71,9.82,9.82,0,0,0-2.23-16.9,17,17,0,0,0-.7-26.27A24.56,24.56,0,0,0,105.12,375a14.13,14.13,0,0,0-7.68-24.38c-.31,0-.62-.06-.92-.08a27.64,27.64,0,0,0-12.27-34.87,47.52,47.52,0,0,0,1.93-8.42,47.92,47.92,0,1,0-53.92,41.05,49.18,49.18,0,0,0,7.53.42L9.08,519.42,116.32,648.15l396,30.73,13.85-47.27A24.57,24.57,0,0,0,550,610.35Z" style="fill:#0033e6"/><path d="M243.7,454.09a113.57,113.57,0,0,0-6.61-12.6c-2.54-4.2-5.45-8.73-6-13.44l-10.33,8.52a2.16,2.16,0,0,0-.33.27c-2.73,3,6.42,15.77,20.43,28.51,1.29,1.18,2.58,2.31,3.85,3.4a13.73,13.73,0,0,0,1.36-4.9C246.35,460.47,245.08,457.18,243.7,454.09Z" style="fill:#00ffd8"/><path d="M271.21,483a1.8,1.8,0,0,0,.24-.35l29.38-43.37-39.62-36-30.08,24.81c.51,4.71,3.42,9.24,6,13.44a113.57,113.57,0,0,1,6.61,12.6c1.38,3.09,2.65,6.38,2.41,9.76a13.73,13.73,0,0,1-1.36,4.9C257.32,479.46,268.73,485.73,271.21,483Z" style="fill:#00c2ae"/><path d="M299.15,319.09c-17.84,21.92-36.64,43.16-59.57,59.53-9.18,6.54-19.06,12.3-29.85,15.55a59.64,59.64,0,0,1-23.31,2.43L172,413.44h0c12,10.92,29,12.84,41.25,4.56l111.45-75.63Z" style="fill:#002a9c"/><path d="M209.73,394.17c10.79-3.25,20.67-9,29.85-15.55,22.93-16.37,41.73-37.61,59.57-59.53l-1.88-1.71c-13.41-12.19-33.27-11.55-44.25,1.3l-66.6,77.92A59.64,59.64,0,0,0,209.73,394.17Z" style="fill:#0033e6"/><path d="M358.78,446.7l34.59-32.65a33.12,33.12,0,0,0-10.47-18.76l-27.46-25-62.56,114a68.8,68.8,0,0,0,28.51-8.21C335.45,468.68,347.21,457.62,358.78,446.7Z" style="fill:#0033e6"/><path d="M393.37,414.05,358.78,446.7c-11.57,10.92-23.33,22-37.39,29.42a68.8,68.8,0,0,1-28.51,8.21l-2.23,4.06c-7.1,12.93-3.58,29.72,8.42,40.64l86.71-89.56A29,29,0,0,0,393.37,414.05Z" style="fill:#002a9c"/><path d="M292.55,457.46a41.37,41.37,0,0,0,6.05,2.28A41.37,41.37,0,0,1,292.55,457.46Z" style="fill:none"/><path d="M280.79,450.73q2.5,1.68,4.9,3.11Q283.29,452.42,280.79,450.73Z" style="fill:none"/><path d="M285.69,453.84c1.6.94,3.15,1.8,4.65,2.56C288.84,455.64,287.29,454.78,285.69,453.84Z" style="fill:none"/><path d="M255.81,429c-8.67-9.53-14.45-18.71-15.79-25l-6.54,8.69c-2.47,3.14.07,10.17,6,18.47a33.11,33.11,0,0,1,8.06-1.91A74.09,74.09,0,0,1,255.81,429Z" style="fill:#00ffd8"/><path d="M292.55,457.46c-.72-.33-1.46-.68-2.21-1.06-1.5-.76-3-1.62-4.65-2.56s-3.23-2-4.9-3.11a138.48,138.48,0,0,1-15.47-12.22c-3.45-3.14-6.63-6.33-9.51-9.49a74.09,74.09,0,0,0-8.3.24,33.11,33.11,0,0,0-8.06,1.91,115.92,115.92,0,0,0,16.22,17.95C272,464,289.15,472.4,294,467.78l8-7.33a21.64,21.64,0,0,1-3.45-.71A41.37,41.37,0,0,1,292.55,457.46Z" style="fill:#00c2ae"/><path d="M267.09,428.23c7.58-1.69,13.93-6.73,19.9-11.7A848.48,848.48,0,0,0,393,311.17c-2.24-1.79-4.48-3.69-6.68-5.69-12-11-21-23.08-25.92-33.28C333.58,289.1,311,309.72,294,332.26L240,404c1.34,6.3,7.12,15.48,15.79,25A49.4,49.4,0,0,0,267.09,428.23Z" style="fill:#fff"/><path d="M421.93,328.14c-8.67-3.21-18.88-9-28.89-17A848.48,848.48,0,0,1,287,416.53c-6,5-12.32,10-19.9,11.7a49.4,49.4,0,0,1-11.28.79c2.88,3.16,6.06,6.35,9.51,9.49a138.48,138.48,0,0,0,15.47,12.22q2.5,1.68,4.9,3.11c1.6.94,3.15,1.8,4.65,2.56.75.38,1.49.73,2.21,1.06a41.37,41.37,0,0,0,6.05,2.28,21.64,21.64,0,0,0,3.45.71l66.35-60.52C389.24,380.92,407.64,356.48,421.93,328.14Z" style="fill:#d2d3d3"/><path d="M393,311.17a849.1,849.1,0,0,0,57.18-76.07,291.32,291.32,0,0,0-89.78,37.1c4.92,10.2,13.89,22.33,25.92,33.28C388.56,307.48,390.8,309.38,393,311.17Z" style="fill:#00ffd8"/><path d="M421.93,328.14a291.37,291.37,0,0,0,28.51-93.09h0l-.22,0A849.1,849.1,0,0,1,393,311.17C403.05,319.14,413.26,324.93,421.93,328.14Z" style="fill:#00c2ae"/><path d="M380.55,355.73a36.13,36.13,0,1,0-9.21,28A36,36,0,0,0,380.55,355.73Z" style="opacity:0.21;mix-blend-mode:multiply"/><path d="M350,364.83c12.42-1.93,23.57-9.19,31.88-18.64a36.14,36.14,0,0,0-71.71-1.48,46.82,46.82,0,0,0,4.74,7.54C323,362.45,337.15,366.83,350,364.83Z" style="fill:#00ffd8"/><path d="M381.89,346.19c-8.31,9.45-19.46,16.71-31.88,18.64-12.86,2-27-2.38-35.09-12.58a46.82,46.82,0,0,1-4.74-7.54,36.14,36.14,0,1,0,71.71,1.48Z" style="fill:#00c2ae"/><path d="M369.54,334.47l-47.09-.14a27.87,27.87,0,0,0-2.67,5.1l52.39.15A27.76,27.76,0,0,0,369.54,334.47Z" style="fill:#b7e5ff"/><path d="M372.17,339.58l-52.39-.15a28,28,0,0,0-1.84,7.43l56,.16A28.3,28.3,0,0,0,372.17,339.58Z" style="fill:#0033e6"/><path d="M364.91,329.05a28.19,28.19,0,0,0-39.81,1.88,29.35,29.35,0,0,0-2.65,3.4l47.09.14A28.14,28.14,0,0,0,364.91,329.05Z" style="fill:#0033e6"/><path d="M361.69,373.27l-31.62-.1A28.2,28.2,0,0,0,361.69,373.27Z" style="fill:#b7e5ff"/><path d="M366.79,368.86a28.22,28.22,0,0,0,5-7.69L320.06,361a28,28,0,0,0,6.92,9.72,29.43,29.43,0,0,0,3.09,2.43l31.62.1A28.63,28.63,0,0,0,366.79,368.86Z" style="fill:#0033e6"/><path d="M374,347l-56-.16A28.25,28.25,0,0,0,320.06,361l51.71.15A28.34,28.34,0,0,0,374,347Z" style="fill:#b7e5ff"/><circle cx="629.53" cy="508.45" r="12.01" transform="translate(-167.54 368.75) rotate(-28.99)" style="fill:#23a0ff"/><path d="M502.88,501a3.92,3.92,0,1,1-3.91-3.92A3.91,3.91,0,0,1,502.88,501Z" style="fill:#23a0ff"/><path d="M172.16,315.37a6.27,6.27,0,1,1-6.26-6.27A6.27,6.27,0,0,1,172.16,315.37Z" style="fill:#23a0ff"/><path d="M157,235.18a6.82,6.82,0,1,1-6.81-6.82A6.82,6.82,0,0,1,157,235.18Z" style="fill:#23a0ff"/><circle cx="419.52" cy="519.3" r="14.6" transform="translate(-246.17 468.95) rotate(-46.74)" style="fill:#23a0ff"/><circle cx="694.19" cy="603.67" r="13.11" transform="translate(-155.39 250.78) rotate(-18.45)" style="fill:#3b8dd1"/><path d="M202,475.47a6.85,6.85,0,1,1-7-6.68A6.86,6.86,0,0,1,202,475.47Z" style="fill:#23a0ff"/><circle cx="294.19" cy="512.27" r="3.87" transform="translate(-272.84 677.94) rotate(-76.42)" style="fill:#23a0ff"/><path d="M193.86,440.61a3.87,3.87,0,1,1-4-3.77A3.86,3.86,0,0,1,193.86,440.61Z" style="fill:#23a0ff"/><circle cx="114.02" cy="263.13" r="10.72" transform="translate(-172.66 270.05) rotate(-67.95)" style="fill:#0033e6"/><path d="M137.1,365.07a4.47,4.47,0,1,1-4.58-4.36A4.47,4.47,0,0,1,137.1,365.07Z" style="fill:#0033e6"/><path d="M508.31,542.44a10.72,10.72,0,1,1-11-10.46A10.71,10.71,0,0,1,508.31,542.44Z" style="fill:#0033e6"/><circle cx="569.46" cy="508.74" r="3.87" transform="translate(-65.98 932.2) rotate(-75.46)" style="fill:#0033e6"/><circle cx="614.99" cy="542.19" r="5.36" transform="translate(-116.7 912.06) rotate(-68.22)" style="fill:#0033e6"/><circle cx="166.18" cy="468.65" r="14.9" transform="translate(-92.54 44.02) rotate(-11.83)" style="fill:#0033e6"/><path d="M232.53,524.82a6.55,6.55,0,1,1-6.71-6.39A6.55,6.55,0,0,1,232.53,524.82Z" style="fill:#0033e6"/><path d="M270.19,517.33a5.06,5.06,0,1,0-4.94,5.19A5.06,5.06,0,0,0,270.19,517.33Z" style="fill:#0033e6"/></g></g></g></g></svg>