<svg id="Layer_1" data-name="Layer 1" xmlns="http://www.w3.org/2000/svg" xmlns:xlink="http://www.w3.org/1999/xlink" viewBox="0 0 847.21 847.21"><defs><linearGradient id="linear-gradient" x1="-348.82" y1="557.03" x2="1002.33" y2="299.66" gradientUnits="userSpaceOnUse"><stop offset="0" stop-color="#b5e5f7"/><stop offset="0.99" stop-color="#fff"/></linearGradient></defs><title>blog</title><rect width="847.21" height="847.21" style="fill:#b0ddfd"/><path d="M679.05,760.84l-36-38.26c-6.74-7.16-16.6-11.92-24.65-11.92H228.85c-8,0-17.91,4.76-24.65,11.92l-36,38.26C157.09,772.6,159.36,785,172.6,785h502C687.85,785,690.13,772.6,679.05,760.84Z" style="fill:#7bc0f5"/><polygon points="362.32 585.11 346.49 727.09 530.16 727.09 506.24 585.11 362.32 585.11" style="fill:#0033e6"/><rect x="69.68" y="195.23" width="737.3" height="423.72" rx="47.03" style="fill:#004fff"/><rect x="98.66" y="223.69" width="679.32" height="366.8" rx="25.85" style="fill:url(#linear-gradient)"/><path d="M185.51,468.93H126.34a7.36,7.36,0,0,1-7.36-7.36h0a7.37,7.37,0,0,1,7.36-7.36h59.17a7.36,7.36,0,0,1,7.36,7.36h0A7.35,7.35,0,0,1,185.51,468.93Z" style="fill:#65bcff"/><path d="M316.67,495.71H126.47a7.36,7.36,0,0,1-7.35-7.36h0a7.36,7.36,0,0,1,7.35-7.36h190.2a7.36,7.36,0,0,1,7.36,7.36h0A7.36,7.36,0,0,1,316.67,495.71Z" style="fill:#65bcff"/><path d="M339.52,524.54H149.33a7.36,7.36,0,0,1-7.36-7.36h0a7.35,7.35,0,0,1,7.36-7.36H339.52a7.35,7.35,0,0,1,7.36,7.36h0A7.36,7.36,0,0,1,339.52,524.54Z" style="fill:#65bcff"/><path d="M285.44,582.2H149.33a7.36,7.36,0,0,1-7.36-7.36h0a7.35,7.35,0,0,1,7.36-7.36H285.44a7.36,7.36,0,0,1,7.36,7.36h0A7.37,7.37,0,0,1,285.44,582.2Z" style="fill:#65bcff"/><path d="M360.85,553.37H170.66A7.36,7.36,0,0,1,163.3,546h0a7.35,7.35,0,0,1,7.36-7.36H360.85a7.35,7.35,0,0,1,7.36,7.36h0A7.36,7.36,0,0,1,360.85,553.37Z" style="fill:#65bcff"/><path d="M562.62,710.66H314a11,11,0,0,0-10.34,7.26l-8.41,23.33A11,11,0,0,0,305.63,756H571a11,11,0,0,0,10.34-14.73L573,717.92A11,11,0,0,0,562.62,710.66Z" style="fill:#004fff"/><path d="M322.45,344a13,13,0,1,0-9-4.24A12.9,12.9,0,0,0,322.45,344Z" style="fill:#23a0ff"/><path d="M394,324.93l-3.19-15.79a1.11,1.11,0,0,0-.94-.87l-13.3-1.78A58.44,58.44,0,0,0,366,290.77l3.37-13a1.09,1.09,0,0,0-.45-1.19l-13.42-8.91a1.1,1.1,0,0,0-1.28,0l-10.67,8.16a58.45,58.45,0,0,0-18.6-3.65l-6.8-11.57a1.09,1.09,0,0,0-1.17-.52l-15.79,3.19a1.09,1.09,0,0,0-.87.93l-1.78,13.3a58.47,58.47,0,0,0-15.72,10.59l-13-3.38a1.1,1.1,0,0,0-1.19.46l-8.91,13.42a1.1,1.1,0,0,0,0,1.28l8.16,10.67a58.33,58.33,0,0,0-3.65,18.59L252.68,336a1.09,1.09,0,0,0-.52,1.17l3.19,15.79a1.11,1.11,0,0,0,.93.88l13.3,1.77a58.52,58.52,0,0,0,10.59,15.73l-3.38,13a1.11,1.11,0,0,0,.46,1.2l13.42,8.91a1.1,1.1,0,0,0,1.28-.05l10.67-8.15a58.61,58.61,0,0,0,18.59,3.65l6.8,11.57a1.12,1.12,0,0,0,1.17.52L345,398.77a1.11,1.11,0,0,0,.88-.94l1.77-13.3A58.49,58.49,0,0,0,363.35,374l13,3.37a1.1,1.1,0,0,0,1.2-.45l8.91-13.42a1.1,1.1,0,0,0-.05-1.28l-8.15-10.67a58.72,58.72,0,0,0,3.65-18.6l11.57-6.8A1.12,1.12,0,0,0,394,324.93ZM356.77,353a40.23,40.23,0,0,1-46.88,15.67l.88-2.49a37.55,37.55,0,1,0-24.29-28c.15.75.33,1.49.52,2.23a37.36,37.36,0,0,0,1.26,3.88l0,.08.21.51c.12.31.25.62.38.93l-2.42,1.05a41,41,0,0,1-2.57-8.16,40.29,40.29,0,0,1,20-43.17c1.18-.64,2.4-1.24,3.65-1.77a40.67,40.67,0,0,1,7.78-2.41A40.19,40.19,0,0,1,356.77,353Zm-49.3-22.71a15.65,15.65,0,0,1,8.08-12.94,15.62,15.62,0,0,1,23.13,14.44,15.62,15.62,0,1,1-31.21-1.5Z" style="fill:#23a0ff"/><path d="M214.11,415.35a7.9,7.9,0,1,0-4.33-4.22A7.85,7.85,0,0,0,214.11,415.35Z" style="fill:#23a0ff"/><path d="M264.44,408.19l-8.06-4a39.27,39.27,0,0,0-3.28-12.31l5-7.51a.72.72,0,0,0,0-.86l-6.57-8.6a.74.74,0,0,0-.82-.25l-8.56,2.84a39.43,39.43,0,0,0-11-6.39l-1.78-8.83a.76.76,0,0,0-.63-.59L218,360.22a.75.75,0,0,0-.76.4l-4,8.06a39.46,39.46,0,0,0-12.3,3.27l-7.51-5a.75.75,0,0,0-.86,0l-8.6,6.57a.74.74,0,0,0-.25.82l2.84,8.56a39.57,39.57,0,0,0-6.39,11l-8.83,1.79a.73.73,0,0,0-.59.63l-1.43,10.72a.73.73,0,0,0,.4.76l8.06,4a39.12,39.12,0,0,0,3.27,12.3l-5,7.52a.75.75,0,0,0,0,.86l6.57,8.59a.74.74,0,0,0,.82.26l8.56-2.85A39.33,39.33,0,0,0,203,445l1.79,8.84a.73.73,0,0,0,.62.59l10.73,1.43a.75.75,0,0,0,.76-.4l4-8.06a39.21,39.21,0,0,0,12.3-3.28l7.51,5a.74.74,0,0,0,.86,0l8.6-6.57a.76.76,0,0,0,.25-.83l-2.84-8.56a39,39,0,0,0,6.39-11l8.84-1.78a.76.76,0,0,0,.59-.63L264.84,409A.74.74,0,0,0,264.44,408.19Zm-19.64,3.39a27.82,27.82,0,0,1-44.89,18.08L202,427a24.39,24.39,0,0,0,39.37-15.86,24,24,0,0,0-.14-7.39,24.4,24.4,0,0,0-48.38,5.84,2.46,2.46,0,0,0,0,.28l-3.41.27a27.94,27.94,0,0,1,.16-5.92c0-.16,0-.31.07-.47a27.88,27.88,0,0,1,22.77-23.26c.92-.16,1.85-.27,2.8-.34h0a27.82,27.82,0,0,1,29.48,31.44Zm-38.27-7.76a11.22,11.22,0,0,1,6.05-6.2,11.58,11.58,0,0,1,2.54-.76,11.32,11.32,0,1,1-8.59,7Z" style="fill:#23a0ff"/><path d="M711.67,348.65l-2.23-11.06a.78.78,0,0,0-.66-.61l-9.32-1.25a40.88,40.88,0,0,0-7.41-11l2.36-9.11a.76.76,0,0,0-.32-.84l-9.4-6.24a.78.78,0,0,0-.9,0l-7.47,5.72a40.78,40.78,0,0,0-13-2.56l-4.76-8.11a.77.77,0,0,0-.82-.36l-11.06,2.23a.79.79,0,0,0-.62.66l-1.24,9.32a40.94,40.94,0,0,0-11,7.41l-9.1-2.36a.77.77,0,0,0-.84.32l-6.24,9.4a.77.77,0,0,0,0,.9l5.71,7.47a40.77,40.77,0,0,0-2.55,13l-8.11,4.77a.78.78,0,0,0-.37.82l2.24,11.06a.76.76,0,0,0,.65.61l9.32,1.24a41,41,0,0,0,7.42,11l-2.37,9.11a.77.77,0,0,0,.32.83l9.41,6.25a.77.77,0,0,0,.89,0l7.48-5.72a41.06,41.06,0,0,0,13,2.56l4.76,8.1a.78.78,0,0,0,.82.37l11.06-2.24a.78.78,0,0,0,.62-.65l1.24-9.32a41.33,41.33,0,0,0,11-7.41l9.1,2.36a.79.79,0,0,0,.84-.32l6.24-9.4a.78.78,0,0,0,0-.9l-5.71-7.47a41.1,41.1,0,0,0,2.55-13l8.11-4.77A.77.77,0,0,0,711.67,348.65Zm-25.36,20.14a29,29,0,0,1-33.84,11.31l1.19-3.36a25.44,25.44,0,1,0-14.95-14.05c0,.09.07.18.11.27l-3.27,1.42a29.21,29.21,0,0,1-1.85-5.89l-.09-.48a29.06,29.06,0,0,1,14.54-30.68A25,25,0,0,1,650.8,326a0,0,0,0,0,0,0,28.7,28.7,0,0,1,5.58-1.72,29,29,0,0,1,29.92,44.48ZM650.2,352.37a11.73,11.73,0,0,1,3.85-8.17,12.64,12.64,0,0,1,2.26-1.62,11.81,11.81,0,1,1-6.11,9.79Z" style="fill:#23a0ff"/><path d="M661.59,361.16a8.24,8.24,0,1,0-5.7-2.69A8.15,8.15,0,0,0,661.59,361.16Z" style="fill:#23a0ff"/><path d="M528.07,451.49a16.88,16.88,0,0,0,8.1,2h0a16.81,16.81,0,1,0-8.1-2Z" style="fill:#23a0ff"/><path d="M625.72,447.69l-14.31-9.46a74.66,74.66,0,0,0-3.41-24l11.12-13.07a1.4,1.4,0,0,0,.14-1.63l-10.47-17.73a1.41,1.41,0,0,0-1.5-.66l-16.82,3.43A74.63,74.63,0,0,0,571.11,370l-1.37-17.1a1.42,1.42,0,0,0-1.06-1.25l-19.94-5.13a1.4,1.4,0,0,0-1.53.59l-9.46,14.31a74.92,74.92,0,0,0-24,3.41l-13.08-11.12a1.4,1.4,0,0,0-1.63-.14l-17.73,10.47a1.43,1.43,0,0,0-.66,1.5l3.44,16.82a74.89,74.89,0,0,0-14.57,19.36l-17.1,1.38a1.4,1.4,0,0,0-1.25,1.05l-5.13,19.94a1.41,1.41,0,0,0,.59,1.53L461,435.1a74.88,74.88,0,0,0,3.41,24l-11.12,13.08a1.4,1.4,0,0,0-.14,1.63l10.47,17.73a1.41,1.41,0,0,0,1.5.66l16.82-3.43a74.85,74.85,0,0,0,19.36,14.56l1.38,17.1a1.41,1.41,0,0,0,1.05,1.25l19.95,5.13a1.4,1.4,0,0,0,1.52-.59l9.46-14.31a74.94,74.94,0,0,0,24-3.41l13.07,11.12a1.4,1.4,0,0,0,1.63.14L591,509.27a1.42,1.42,0,0,0,.67-1.5L588.27,491a74.63,74.63,0,0,0,14.56-19.36l17.1-1.38a1.41,1.41,0,0,0,1.25-1l5.13-19.94A1.4,1.4,0,0,0,625.72,447.69ZM519,427.28a19.6,19.6,0,0,1,36,3.85,18.14,18.14,0,0,1-1.59,14.38c-3.44,6.3-10,9.68-17.23,9.68h0c-3.25,0-6.49-.29-9.37-1.85A19,19,0,0,1,519,427.28ZM585.78,449h0s.38.42.38.44l.39.36v0h0l-.4,0H586s-.11-.44-.11-.43l-.07-.46h0s0,.48,0,.49v.24a1.49,1.49,0,0,1,0,.21s0,.1,0,.12v0a1.46,1.46,0,0,0-.05.2v0s-.1.08-.11.12l-.1,0H586l.52,0h0c-5.64,22.15-27.16,36.84-50.14,36.84h0c-4.27,0-8.56,0-12.74-1.69h0c-22.55-5.08-38.31-25.7-38.31-49A49.45,49.45,0,0,1,487,424.15a50.56,50.56,0,0,1,13.53-23.46,1.31,1.31,0,0,1,1.86.06,1.35,1.35,0,0,1,.38.95,1.33,1.33,0,0,1-.39.95A48.35,48.35,0,0,0,489.54,425,46.7,46.7,0,0,0,488,436.84c0,22.06,14.94,41.48,36.33,46.56h0l.55.26a50.11,50.11,0,0,0,12.58,1.85v0h0c22.57,0,40.64-14.85,46.22-36.1,0,0-.25,0-.25-.05l-.12,0-.07-.13a.75.75,0,0,0,0-.16h0l.27.1.27,0v0h-.13s.13,0,.13,0h0A43.73,43.73,0,0,0,585,437a48.44,48.44,0,0,0-36.46-46.8,46.59,46.59,0,0,0-10-1.5,1.18,1.18,0,0,1-1.09-1.32v0c.57-.73.4-1.29,1.13-1.27a49.93,49.93,0,0,1,10.62,1.58,50.48,50.48,0,0,1,38.25,49A47.07,47.07,0,0,1,585.78,449Z" style="fill:#23a0ff"/><circle cx="359.04" cy="445.84" r="48.27" transform="translate(-135.86 733.51) rotate(-81.32)" style="fill:#f99000"/><circle cx="359.04" cy="445.84" r="46.67" transform="translate(-157.36 692.84) rotate(-76.72)" style="fill:#f99000"/><path d="M320.56,427a.46.46,0,0,1-.23-.06.51.51,0,0,1-.23-.69,43.41,43.41,0,0,1,38.94-24,43.85,43.85,0,0,1,7.86.71.51.51,0,0,1,.42.59.52.52,0,0,1-.6.42A42.57,42.57,0,0,0,321,426.68.52.52,0,0,1,320.56,427Z" style="fill:#fff;opacity:0.65"/><circle cx="360.06" cy="446.86" r="39.5" transform="translate(-143.6 171.8) rotate(-22.5)" style="fill:#fff;opacity:0.65"/><path d="M356.18,476.22v-4.3a35.27,35.27,0,0,1-12.06-2.61,2.5,2.5,0,0,1-1.37-2.94l1.09-4a2.5,2.5,0,0,1,3.4-1.64,29.13,29.13,0,0,0,11.14,2.34c4.31,0,7.53-1.46,7.53-4.46,0-2.7-2.49-4.31-8.48-5.92-8.56-2.34-14.7-6.07-14.7-13.6,0-6.81,5-12,13.6-13.39v-4.29a2.5,2.5,0,0,1,2.5-2.51h2.53a2.5,2.5,0,0,1,2.5,2.51v3.85a32.14,32.14,0,0,1,9.56,1.72,2.49,2.49,0,0,1,1.55,3l-1,3.7a2.5,2.5,0,0,1-3.3,1.69,25.88,25.88,0,0,0-9.37-1.71c-5.12,0-6.58,2.12-6.58,4,0,2.34,3.07,3.95,9.73,6,9.5,2.86,13.45,6.8,13.45,13.9,0,6.51-4.83,12.36-14.19,13.82v4.81a2.5,2.5,0,0,1-2.5,2.5h-2.52A2.5,2.5,0,0,1,356.18,476.22Z" style="fill:#f99000"/><circle cx="437.57" cy="512.75" r="40.92" transform="translate(-138.65 862.54) rotate(-80.78)" style="fill:#f99000"/><circle cx="437.57" cy="512.75" r="39.55" transform="translate(-203.6 720.79) rotate(-67.5)" style="fill:#f99000"/><path d="M405,496.75a.35.35,0,0,1-.2-.05.42.42,0,0,1-.19-.58,36.79,36.79,0,0,1,33-20.32,37.18,37.18,0,0,1,6.67.6.44.44,0,0,1,.35.5.43.43,0,0,1-.51.35,37.17,37.17,0,0,0-6.51-.58,35.93,35.93,0,0,0-32.23,19.84A.43.43,0,0,1,405,496.75Z" style="fill:#fff;opacity:0.65"/><circle cx="438.43" cy="513.61" r="33.48" transform="translate(-89.22 92.18) rotate(-10.9)" style="fill:#fff;opacity:0.65"/><path d="M435.15,538.5v-3.64a29.83,29.83,0,0,1-10.22-2.22,2.12,2.12,0,0,1-1.17-2.49l.93-3.39a2.12,2.12,0,0,1,2.88-1.39,24.7,24.7,0,0,0,9.44,2c3.66,0,6.38-1.24,6.38-3.78,0-2.29-2.1-3.65-7.19-5-7.25-2-12.46-5.14-12.46-11.53,0-5.76,4.22-10.16,11.53-11.34V492a2.12,2.12,0,0,1,2.13-2.12h2.14a2.12,2.12,0,0,1,2.12,2.12v3.27a27.2,27.2,0,0,1,8.1,1.45,2.12,2.12,0,0,1,1.32,2.55l-.85,3.14a2.12,2.12,0,0,1-2.8,1.43,22,22,0,0,0-7.94-1.44c-4.34,0-5.58,1.79-5.58,3.41,0,2,2.6,3.34,8.24,5.08,8.06,2.42,11.41,5.76,11.41,11.78,0,5.51-4.09,10.47-12,11.71v4.08a2.12,2.12,0,0,1-2.12,2.12h-2.14A2.12,2.12,0,0,1,435.15,538.5Z" style="fill:#f99000"/><circle cx="282.9" cy="399.17" r="29" transform="translate(-138.25 648.18) rotate(-85.27)" style="fill:#f99000"/><circle cx="282.9" cy="399.17" r="28.04" transform="matrix(0.16, -0.99, 0.99, 0.16, -156.43, 614.47)" style="fill:#f99000"/><path d="M259.77,387.83a.31.31,0,0,1-.27-.45A26.08,26.08,0,0,1,282.9,373a26.64,26.64,0,0,1,4.72.42.31.31,0,0,1-.11.61,25.58,25.58,0,0,0-27.46,13.65A.3.3,0,0,1,259.77,387.83Z" style="fill:#fff;opacity:0.65"/><circle cx="283.51" cy="399.78" r="23.73" style="fill:#fff;opacity:0.65"/><path d="M281.18,417.42v-2.58a21.09,21.09,0,0,1-7.25-1.57,1.49,1.49,0,0,1-.82-1.76l.65-2.41a1.5,1.5,0,0,1,2.05-1,17.57,17.57,0,0,0,6.69,1.4c2.59,0,4.52-.87,4.52-2.68,0-1.62-1.49-2.59-5.1-3.56-5.14-1.4-8.83-3.64-8.83-8.17,0-4.08,3-7.2,8.18-8v-2.58a1.51,1.51,0,0,1,1.5-1.51h1.52a1.51,1.51,0,0,1,1.5,1.51v2.32a19.07,19.07,0,0,1,5.74,1,1.5,1.5,0,0,1,.94,1.81l-.6,2.22a1.5,1.5,0,0,1-2,1,15.74,15.74,0,0,0-5.64-1c-3.07,0-3.95,1.27-3.95,2.42,0,1.4,1.84,2.37,5.84,3.6,5.71,1.71,8.09,4.09,8.09,8.35,0,3.91-2.9,7.42-8.53,8.3v2.89a1.51,1.51,0,0,1-1.5,1.51h-1.52A1.51,1.51,0,0,1,281.18,417.42Z" style="fill:#f99000"/><circle cx="273" cy="508.93" r="26.34" transform="translate(-247.77 758.58) rotate(-87.4)" style="fill:#f99000"/><circle cx="273" cy="508.93" r="25.47" transform="translate(-265.47 717.7) rotate(-82.98)" style="fill:#f99000"/><path d="M252,498.63a.31.31,0,0,1-.13,0,.29.29,0,0,1-.12-.38A23.69,23.69,0,0,1,273,485.14a24.53,24.53,0,0,1,4.29.38.3.3,0,0,1,.23.33.28.28,0,0,1-.33.22,23.4,23.4,0,0,0-4.19-.37,23.13,23.13,0,0,0-20.75,12.77A.28.28,0,0,1,252,498.63Z" style="fill:#fff;opacity:0.65"/><circle cx="273.55" cy="509.48" r="21.55" transform="translate(-285.15 658.66) rotate(-76.72)" style="fill:#fff;opacity:0.65"/><path d="M271.44,525.5v-2.34a19.25,19.25,0,0,1-6.58-1.43,1.35,1.35,0,0,1-.75-1.6l.6-2.18a1.36,1.36,0,0,1,1.85-.9,15.81,15.81,0,0,0,6.08,1.28c2.35,0,4.11-.8,4.11-2.43s-1.36-2.36-4.63-3.24c-4.67-1.27-8-3.31-8-7.42,0-3.71,2.71-6.54,7.42-7.3v-2.35a1.36,1.36,0,0,1,1.37-1.36h1.37a1.36,1.36,0,0,1,1.37,1.36v2.11a17.81,17.81,0,0,1,5.22.93,1.37,1.37,0,0,1,.85,1.65l-.55,2a1.38,1.38,0,0,1-1.8.92,14.13,14.13,0,0,0-5.12-.93c-2.79,0-3.59,1.15-3.59,2.19,0,1.28,1.68,2.16,5.31,3.27,5.19,1.56,7.34,3.72,7.34,7.59,0,3.55-2.63,6.74-7.74,7.54v2.62a1.37,1.37,0,0,1-1.37,1.37h-1.37A1.37,1.37,0,0,1,271.44,525.5Z" style="fill:#f99000"/><circle cx="447.71" cy="79.17" r="37.76" transform="translate(332.57 519.01) rotate(-85.36)" style="fill:#0070ff"/><circle cx="447.71" cy="79.17" r="36.5" transform="translate(152.61 425.05) rotate(-59.56)" style="fill:#0070ff"/><path d="M414.06,77.77h0a.38.38,0,0,1-.36-.41,34.19,34.19,0,0,1,.49-4.28.39.39,0,0,1,.76.14,32.62,32.62,0,0,0-.48,4.18A.39.39,0,0,1,414.06,77.77Z" style="fill:#bbcef9"/><path d="M417.61,64.39a.35.35,0,0,1-.17,0,.37.37,0,0,1-.17-.51,33.93,33.93,0,0,1,30.44-18.75,35,35,0,0,1,6.15.55.39.39,0,1,1-.14.76,33.5,33.5,0,0,0-6-.54A33.16,33.16,0,0,0,418,64.18.38.38,0,0,1,417.61,64.39Z" style="fill:#bbcef9"/><circle cx="448.51" cy="79.97" r="30.89" transform="translate(-6.1 109.74) rotate(-13.86)" style="fill:#65bcff"/><path d="M457.56,67.75c0,5.41-4.38,11.26-9.8,11.26S438,73.16,438,67.75s4.38-9.25,9.79-9.25S457.56,62.34,457.56,67.75Z" style="fill:#0070ff"/><path d="M435.6,99.84h23.93a5.79,5.79,0,0,0,5.51-4l1.29-4a5.78,5.78,0,0,0-3.5-7.19c-9.73-3.56-19.8-3.11-30.11.33a5.77,5.77,0,0,0-3.7,7l1,3.65A5.78,5.78,0,0,0,435.6,99.84Z" style="fill:#0070ff"/><circle cx="555.69" cy="106.75" r="28.38" transform="translate(338.82 629.39) rotate(-78.34)" style="fill:#0070ff"/><circle cx="555.69" cy="106.75" r="27.43" transform="translate(178.75 528.77) rotate(-59.1)" style="fill:#0070ff"/><path d="M530.4,105.69h0a.29.29,0,0,1-.28-.3,26.67,26.67,0,0,1,.37-3.22.29.29,0,0,1,.34-.23.29.29,0,0,1,.24.33,25.53,25.53,0,0,0-.37,3.15A.29.29,0,0,1,530.4,105.69Z" style="fill:#bbcef9"/><path d="M533.07,95.64a.31.31,0,0,1-.13,0,.3.3,0,0,1-.13-.39,25.62,25.62,0,0,1,27.5-13.67.29.29,0,0,1-.1.57,25.25,25.25,0,0,0-4.52-.41,24.93,24.93,0,0,0-22.36,13.77A.29.29,0,0,1,533.07,95.64Z" style="fill:#bbcef9"/><circle cx="556.29" cy="107.34" r="23.22" transform="translate(87.03 424.8) rotate(-45)" style="fill:#65bcff"/><path d="M563.09,98.16c0,4.07-3.29,8.46-7.36,8.46s-7.37-4.39-7.37-8.46,3.3-7,7.37-7S563.09,94.1,563.09,98.16Z" style="fill:#0070ff"/><path d="M546.59,122.28h18a4.34,4.34,0,0,0,4.14-3l1-3a4.35,4.35,0,0,0-2.63-5.41c-7.31-2.67-14.88-2.33-22.63.25a4.32,4.32,0,0,0-2.77,5.25l.74,2.75A4.36,4.36,0,0,0,546.59,122.28Z" style="fill:#0070ff"/><circle cx="339.74" cy="103.15" r="28.38" transform="translate(26.57 270.44) rotate(-45)" style="fill:#0070ff"/><circle cx="339.74" cy="103.15" r="27.43" transform="translate(26.57 270.44) rotate(-45)" style="fill:#0070ff"/><path d="M314.45,102.1h0a.28.28,0,0,1-.27-.3,24.8,24.8,0,0,1,.37-3.22.3.3,0,0,1,.34-.24.29.29,0,0,1,.23.34,23.54,23.54,0,0,0-.36,3.15A.29.29,0,0,1,314.45,102.1Z" style="fill:#bbcef9"/><path d="M317.11,92.05,317,92a.28.28,0,0,1-.12-.39A25.62,25.62,0,0,1,344.36,78a.29.29,0,0,1,.23.33.29.29,0,0,1-.34.24,25.22,25.22,0,0,0-4.51-.41,25,25,0,0,0-22.37,13.77A.29.29,0,0,1,317.11,92.05Z" style="fill:#bbcef9"/><circle cx="340.33" cy="103.75" r="23.22" style="fill:#65bcff"/><path d="M347.14,94.57c0,4.07-3.3,8.46-7.37,8.46s-7.36-4.39-7.36-8.46,3.3-6.95,7.36-6.95S347.14,90.5,347.14,94.57Z" style="fill:#0070ff"/><path d="M330.64,118.69h18a4.35,4.35,0,0,0,4.15-3l1-3a4.36,4.36,0,0,0-2.63-5.41c-7.32-2.67-14.88-2.33-22.63.25a4.33,4.33,0,0,0-2.78,5.25l.75,2.75A4.35,4.35,0,0,0,330.64,118.69Z" style="fill:#0070ff"/><circle cx="373.71" cy="45.71" r="24.09" transform="matrix(0.16, -0.99, 0.99, 0.16, 270.06, 407.66)" style="fill:#0070ff"/><circle cx="373.71" cy="45.71" r="23.29" transform="translate(12.92 153.31) rotate(-23.58)" style="fill:#0070ff"/><path d="M352.24,44.82h0a.25.25,0,0,1-.23-.26,20.75,20.75,0,0,1,.32-2.73.25.25,0,0,1,.28-.2.25.25,0,0,1,.2.29,21.39,21.39,0,0,0-.31,2.67A.25.25,0,0,1,352.24,44.82Z" style="fill:#bbcef9"/><path d="M354.51,36.29a.2.2,0,0,1-.11,0,.25.25,0,0,1-.11-.33,21.65,21.65,0,0,1,19.42-12,22.43,22.43,0,0,1,3.93.35.24.24,0,0,1,.19.29.25.25,0,0,1-.28.2,21.43,21.43,0,0,0-3.84-.35,21.16,21.16,0,0,0-19,11.69A.24.24,0,0,1,354.51,36.29Z" style="fill:#bbcef9"/><circle cx="374.22" cy="46.22" r="19.71" transform="translate(269.75 408.52) rotate(-80.96)" style="fill:#65bcff"/><path d="M380,38.43c0,3.45-2.8,7.18-6.25,7.18s-6.26-3.73-6.26-7.18a6.27,6.27,0,0,1,12.51,0Z" style="fill:#0070ff"/><path d="M366,58.9h15.26a3.69,3.69,0,0,0,3.52-2.57l.82-2.56a3.7,3.7,0,0,0-2.23-4.6c-6.21-2.27-12.63-2-19.21.21a3.68,3.68,0,0,0-2.36,4.46l.63,2.34A3.69,3.69,0,0,0,366,58.9Z" style="fill:#0070ff"/><circle cx="521.71" cy="48.2" r="24.09" transform="translate(392.43 555.94) rotate(-80.99)" style="fill:#0070ff"/><circle cx="521.71" cy="48.2" r="23.29" transform="translate(24.28 212.72) rotate(-23.58)" style="fill:#0070ff"/><path d="M500.24,47.31h0a.24.24,0,0,1-.23-.26,20.93,20.93,0,0,1,.31-2.73.25.25,0,1,1,.49.09,21.39,21.39,0,0,0-.31,2.67A.25.25,0,0,1,500.24,47.31Z" style="fill:#bbcef9"/><path d="M502.51,38.78a.2.2,0,0,1-.11,0,.25.25,0,0,1-.11-.33,21.64,21.64,0,0,1,19.42-12,22.24,22.24,0,0,1,3.92.35.25.25,0,0,1-.08.49,21.43,21.43,0,0,0-3.84-.35,21.16,21.16,0,0,0-19,11.69A.25.25,0,0,1,502.51,38.78Z" style="fill:#bbcef9"/><circle cx="522.22" cy="48.71" r="19.71" transform="translate(118.51 383.53) rotate(-45)" style="fill:#65bcff"/><path d="M528,40.92c0,3.45-2.8,7.18-6.26,7.18s-6.25-3.73-6.25-7.18a6.27,6.27,0,0,1,12.51,0Z" style="fill:#0070ff"/><path d="M514,61.39h15.26a3.69,3.69,0,0,0,3.52-2.56l.82-2.57a3.69,3.69,0,0,0-2.23-4.59c-6.21-2.28-12.64-2-19.21.21a3.67,3.67,0,0,0-2.36,4.46l.63,2.33A3.69,3.69,0,0,0,514,61.39Z" style="fill:#0070ff"/><path d="M601.84,125.45l-3.06,6.25c-27.31,55.77-54.61,112.21-81.92,167.93H372.16c-27.31-55.72-54.61-112.16-81.92-167.93l-3.06-6.25Z" style="fill:#fc7"/><path d="M517.25,299.63c-3.59,23-7.19,46.08-10.78,68.34H382.55c-3.59-22.26-7.18-45.3-10.78-68.34Z" style="fill:#fc7"/><g style="opacity:0.66"><path d="M364.22,270.65a1,1,0,0,1-.94-.61L308.11,143.69a1,1,0,0,1,1.89-.82l55.16,126.34a1,1,0,0,1-.53,1.36A1,1,0,0,1,364.22,270.65Z" style="fill:#da6000"/></g><path d="M384.7,352.68a1,1,0,0,1-1-.91l-5.22-42a1,1,0,0,1,2.05-.26l5.21,42a1,1,0,0,1-.9,1.15Z" style="fill:#da6000"/><path d="M611.79,122.07v6a3.65,3.65,0,0,1-3.65,3.66h-9.36c-27.31,55.77-54.61,112.21-81.92,167.93h.39c-3.59,23-7.18,46.08-10.78,68.34H442.78V118.42H608.14A3.64,3.64,0,0,1,611.79,122.07Z" style="fill:#f99000"/><rect x="277.11" y="118.42" width="334.68" height="13.28" rx="3.66" style="fill:#da6000"/><path d="M510.26,368.46c0,2.51-1.63,4.59-3.46,4.59H381.28c-1.83,0-3-2.08-3-4.59v-2.8c0-2.51,1.19-4.72,3-4.72H506.8c1.83,0,3.46,2.21,3.46,4.72Z" style="fill:#da6000"/><path d="M103,490.06l3,1.59a1.57,1.57,0,1,1-1.49,2.76h0l-2.94-1.59a1.57,1.57,0,0,1,1.48-2.76Z" style="fill:#fff"/><path d="M112.84,495.15l3,1.43a1.58,1.58,0,0,1-1.35,2.85h0l-3-1.44a1.57,1.57,0,0,1,1.36-2.84Z" style="fill:#fff"/><path d="M122.92,499.72,126,501a1.58,1.58,0,1,1-1.2,2.92h0l-3.09-1.28a1.57,1.57,0,1,1,1.2-2.91Z" style="fill:#fff"/><path d="M133.23,503.76l3.16,1.11a1.59,1.59,0,0,1-1.06,3h0l-3.15-1.12a1.58,1.58,0,1,1,1-3Z" style="fill:#fff"/><path d="M143.74,507.25l3.21.94a1.58,1.58,0,1,1-.89,3h0l-3.22-.94a1.59,1.59,0,0,1,.9-3Z" style="fill:#fff"/><path d="M154.42,510.15l3.26.76A1.59,1.59,0,0,1,157,514h0l-3.26-.77a1.59,1.59,0,1,1,.73-3.09Z" style="fill:#fff"/><path d="M165.24,512.45l3.3.58a1.59,1.59,0,0,1-.55,3.14h0l-3.3-.58a1.59,1.59,0,0,1,.55-3.14Z" style="fill:#fff"/><path d="M176.17,514.13l3.33.39a1.6,1.6,0,1,1-.37,3.17h0l-3.32-.38a1.6,1.6,0,1,1,.36-3.18Z" style="fill:#fff"/><path d="M187.19,515.18l3.34.18a1.6,1.6,0,0,1-.18,3.2h0l-3.35-.19a1.6,1.6,0,1,1,.19-3.19Z" style="fill:#fff"/><path d="M198.24,515.57h3.36a1.61,1.61,0,0,1,0,3.21h-3.36a1.61,1.61,0,1,1,0-3.21Z" style="fill:#fff"/><path d="M209.31,515.32l3.34-.18a1.61,1.61,0,1,1,.18,3.22h0l-3.34.18a1.61,1.61,0,0,1-.18-3.22Z" style="fill:#fff"/><path d="M220.35,514.52l3.33-.35a1.61,1.61,0,1,1,.34,3.21h0l-3.33.35a1.61,1.61,0,0,1-.34-3.21Z" style="fill:#fff"/><path d="M231.35,513.17l3.31-.51a1.62,1.62,0,0,1,.49,3.2h0l-3.31.51a1.62,1.62,0,1,1-.49-3.2Z" style="fill:#fff"/><path d="M242.27,511.3l3.28-.66a1.63,1.63,0,1,1,.64,3.19h0l-3.28.65a1.62,1.62,0,0,1-.64-3.18Z" style="fill:#fff"/><path d="M253.1,508.94l3.25-.8a1.63,1.63,0,0,1,.78,3.17h0l-3.25.8a1.63,1.63,0,0,1-.78-3.17Z" style="fill:#fff"/><path d="M263.83,506.13l3.21-.93a1.63,1.63,0,1,1,.91,3.14h0l-3.21.93a1.63,1.63,0,0,1-.91-3.14Z" style="fill:#fff"/><path d="M274.44,502.9l3.18-1.06a1.64,1.64,0,1,1,1,3.11h0L275.47,506a1.63,1.63,0,1,1-1-3.1Z" style="fill:#fff"/><path d="M284.93,499.27l3.13-1.17a1.64,1.64,0,1,1,1.15,3.08h0l-3.14,1.16a1.64,1.64,0,1,1-1.14-3.07Z" style="fill:#fff"/><path d="M295.29,495.28l3.09-1.27a1.65,1.65,0,1,1,1.25,3.05h0l-3.1,1.26a1.64,1.64,0,0,1-1.24-3Z" style="fill:#fff"/><path d="M305.52,491l3.06-1.36a1.65,1.65,0,1,1,1.34,3h0L306.86,494a1.65,1.65,0,1,1-1.34-3Z" style="fill:#fff"/><path d="M315.62,486.34l3-1.44a1.65,1.65,0,1,1,1.43,3h0l-3,1.45a1.66,1.66,0,0,1-1.43-3Z" style="fill:#fff"/><path d="M325.6,481.45l3-1.52a1.66,1.66,0,1,1,1.5,3h0l-3,1.52a1.66,1.66,0,0,1-1.51-3Z" style="fill:#fff"/><path d="M335.47,476.32l2.94-1.59a1.66,1.66,0,1,1,1.58,2.92h0L337,479.24a1.66,1.66,0,1,1-1.57-2.92Z" style="fill:#fff"/><path d="M345.21,471l2.91-1.65a1.67,1.67,0,1,1,1.65,2.9h0l-2.91,1.65a1.67,1.67,0,1,1-1.65-2.9Z" style="fill:#fff"/><path d="M354.85,465.41l2.88-1.71a1.67,1.67,0,0,1,1.71,2.88h0l-2.89,1.7a1.67,1.67,0,0,1-1.7-2.87Z" style="fill:#fff"/><path d="M364.39,459.68l2.85-1.76a1.68,1.68,0,1,1,1.76,2.86h0l-2.85,1.75a1.67,1.67,0,1,1-1.76-2.85Z" style="fill:#fff"/><path d="M373.84,453.79l2.82-1.8a1.68,1.68,0,1,1,1.81,2.84h0l-2.83,1.8a1.68,1.68,0,0,1-1.8-2.84Z" style="fill:#fff"/><path d="M383.21,447.77l2.8-1.83a1.68,1.68,0,0,1,1.84,2.81l-2.8,1.84a1.68,1.68,0,1,1-1.84-2.82Z" style="fill:#fff"/><path d="M392.51,441.64l2.78-1.86a1.67,1.67,0,1,1,1.86,2.78l-2.78,1.86a1.67,1.67,0,1,1-1.86-2.77Z" style="fill:#fff"/><path d="M401.75,435.42l2.76-1.89a1.66,1.66,0,0,1,1.88,2.74l-2.77,1.89a1.66,1.66,0,1,1-1.88-2.74Z" style="fill:#fff"/><path d="M410.94,429.11l2.75-1.9a1.65,1.65,0,1,1,1.88,2.72l-2.75,1.9a1.65,1.65,0,1,1-1.88-2.72Z" style="fill:#fff"/><path d="M420.11,422.76l2.74-1.91a1.65,1.65,0,1,1,1.88,2.7L422,425.46a1.65,1.65,0,0,1-1.89-2.7Z" style="fill:#fff"/><path d="M429.26,416.39l2.75-1.91a1.63,1.63,0,1,1,1.87,2.68l-2.74,1.92a1.64,1.64,0,0,1-1.88-2.69Z" style="fill:#fff"/><path d="M438.42,410l2.75-1.9a1.63,1.63,0,1,1,1.86,2.67l-2.75,1.91a1.63,1.63,0,1,1-1.86-2.67Z" style="fill:#fff"/><path d="M447.6,403.66l2.75-1.9a1.62,1.62,0,1,1,1.84,2.66l-2.75,1.91a1.62,1.62,0,0,1-1.85-2.67Z" style="fill:#fff"/><path d="M456.8,397.34l2.77-1.88a1.61,1.61,0,1,1,1.81,2.66L458.62,400a1.6,1.6,0,0,1-2.24-.42,1.62,1.62,0,0,1,.42-2.24Z" style="fill:#fff"/><path d="M466.05,391.08l2.78-1.86a1.6,1.6,0,1,1,1.79,2.66l-2.78,1.86a1.6,1.6,0,1,1-1.79-2.66Z" style="fill:#fff"/><path d="M475.36,384.9l2.8-1.84a1.6,1.6,0,0,1,1.75,2.67l-2.8,1.84a1.6,1.6,0,1,1-1.75-2.67Z" style="fill:#fff"/><path d="M484.74,378.82l2.82-1.8a1.59,1.59,0,0,1,1.71,2.67l-2.82,1.8a1.59,1.59,0,1,1-1.71-2.67Z" style="fill:#fff"/><path d="M494.2,372.86l2.85-1.76a1.58,1.58,0,0,1,1.65,2.69l-2.84,1.76a1.58,1.58,0,1,1-1.66-2.69Z" style="fill:#fff"/><path d="M503.75,367.05l2.88-1.71a1.57,1.57,0,0,1,1.6,2.7l-2.87,1.71a1.57,1.57,0,0,1-1.61-2.7Z" style="fill:#fff"/><path d="M513.42,361.41l2.91-1.65a1.56,1.56,0,0,1,1.54,2.71L515,364.13a1.57,1.57,0,0,1-1.55-2.72Z" style="fill:#fff"/><path d="M523.19,356l2.95-1.58a1.55,1.55,0,0,1,1.47,2.73l-2.94,1.59a1.55,1.55,0,1,1-1.48-2.73Z" style="fill:#fff"/><path d="M533.09,350.74l3-1.51a1.54,1.54,0,0,1,1.4,2.75l-3,1.52a1.55,1.55,0,0,1-1.4-2.76Z" style="fill:#fff"/><path d="M543.13,345.77l3-1.43a1.53,1.53,0,0,1,1.32,2.77l-3,1.44a1.54,1.54,0,1,1-1.32-2.78Z" style="fill:#fff"/><path d="M553.3,341.07l3.06-1.34a1.52,1.52,0,1,1,1.23,2.79l-3.06,1.35a1.53,1.53,0,1,1-1.24-2.79Z" style="fill:#fff"/><path d="M563.61,336.69l3.1-1.25a1.51,1.51,0,0,1,1.13,2.81l-3.1,1.25a1.52,1.52,0,1,1-1.14-2.81Z" style="fill:#fff"/><path d="M574.05,332.63l3.15-1.14a1.51,1.51,0,0,1,1,2.84l-3.14,1.14a1.51,1.51,0,1,1-1-2.84Z" style="fill:#fff"/><path d="M584.64,328.94l3.19-1a1.5,1.5,0,0,1,.92,2.86l-3.19,1a1.5,1.5,0,0,1-.92-2.86Z" style="fill:#fff"/><path d="M595.35,325.64l3.23-.91a1.5,1.5,0,0,1,.81,2.88h0l-3.21.91h0a1.5,1.5,0,0,1-.81-2.88Z" style="fill:#fff"/><path d="M606.22,322.79l3.26-.75a1.49,1.49,0,0,1,1.78,1.12,1.48,1.48,0,0,1-1.12,1.77l-3.26.75a1.47,1.47,0,0,1-1.78-1.11,1.49,1.49,0,0,1,1.11-1.78Z" style="fill:#fff"/><path d="M617.22,320.5l3.3-.55a1.47,1.47,0,0,1,.5,2.9l-3.3.56a1.48,1.48,0,1,1-.5-2.91Z" style="fill:#fff"/><path d="M628.36,318.88l3.33-.34a1.47,1.47,0,0,1,.3,2.92l-3.33.34a1.47,1.47,0,1,1-.31-2.92Z" style="fill:#fff"/><path d="M639.59,318l3.35-.09a1.46,1.46,0,0,1,.07,2.92l-3.34.09a1.46,1.46,0,0,1-.08-2.92Z" style="fill:#fff"/><path d="M650.87,318.08l3.34.21a1.45,1.45,0,1,1-.18,2.89l-3.34-.21a1.44,1.44,0,0,1-1.36-1.53,1.45,1.45,0,0,1,1.54-1.36Z" style="fill:#fff"/><path d="M662.12,319.18l3.3.54a1.44,1.44,0,0,1-.47,2.85l-3.3-.55a1.44,1.44,0,1,1,.47-2.84Z" style="fill:#fff"/><path d="M673.2,321.47l3.22.93a1.43,1.43,0,0,1-.79,2.75l-3.22-.92a1.44,1.44,0,1,1,.79-2.76Z" style="fill:#fff"/><path d="M683.94,325.1l3.07,1.33a1.43,1.43,0,0,1-1.13,2.62l-3.08-1.34a1.42,1.42,0,0,1-.74-1.87,1.44,1.44,0,0,1,1.88-.74Z" style="fill:#fff"/><path d="M694.11,330.12l2.86,1.75a1.41,1.41,0,1,1-1.48,2.41l-2.85-1.74a1.42,1.42,0,1,1,1.47-2.42Z" style="fill:#fff"/><path d="M703.48,336.52l2.58,2.13a1.4,1.4,0,1,1-1.78,2.17l-2.59-2.12a1.41,1.41,0,0,1,1.79-2.18Z" style="fill:#fff"/><path d="M711.88,344.13l2.28,2.45a1.39,1.39,0,1,1-2,1.9L709.84,346a1.4,1.4,0,1,1,2-1.92Z" style="fill:#fff"/><path d="M719.22,352.75l2,2.71a1.37,1.37,0,1,1-2.21,1.61l-2-2.71a1.38,1.38,0,0,1,2.23-1.62Z" style="fill:#fff"/><path d="M725.46,362.18l1.63,2.92a1.34,1.34,0,0,1-2.34,1.32l-1.65-2.92a1.35,1.35,0,0,1,2.36-1.33Z" style="fill:#fff"/><path d="M730.57,372.26l1.29,3.09a1.32,1.32,0,0,1-2.43,1l-1.31-3.08a1.33,1.33,0,0,1,2.45-1Z" style="fill:#fff"/><path d="M734.51,382.85l.94,3.21a1.29,1.29,0,1,1-2.48.73l-1-3.21a1.3,1.3,0,1,1,2.49-.74Z" style="fill:#fff"/><path d="M737.25,393.8l.59,3.3a1.27,1.27,0,0,1-2.5.45l-.6-3.3a1.28,1.28,0,1,1,2.51-.45Z" style="fill:#fff"/><path d="M738.82,405l.25,3.34a1.24,1.24,0,0,1-1.15,1.33,1.23,1.23,0,0,1-1.33-1.14l-.27-3.34a1.25,1.25,0,0,1,2.5-.19Z" style="fill:#fff"/><path d="M739.28,416.23l-.06,3.35a1.22,1.22,0,0,1-1.25,1.19,1.2,1.2,0,0,1-1.19-1.24l.05-3.34a1.23,1.23,0,1,1,2.45,0Z" style="fill:#fff"/><path d="M738.71,427.48l-.36,3.32a1.2,1.2,0,0,1-2.38-.25l.35-3.33a1.2,1.2,0,0,1,2.39.25Z" style="fill:#fff"/><path d="M737.17,438.62l-.63,3.29a1.18,1.18,0,0,1-1.37.93,1.17,1.17,0,0,1-.93-1.37l.62-3.29a1.18,1.18,0,1,1,2.31.44Z" style="fill:#fff"/><path d="M734.74,449.6l-.88,3.23a1.15,1.15,0,0,1-2.22-.6l.88-3.23a1.15,1.15,0,1,1,2.22.6Z" style="fill:#fff"/><path d="M731.48,460.36l-1.12,3.15a1.12,1.12,0,0,1-1.43.68,1.11,1.11,0,0,1-.68-1.43l1.1-3.16a1.15,1.15,0,0,1,1.44-.69,1.13,1.13,0,0,1,.69,1.44Z" style="fill:#fff"/><circle cx="601.64" cy="63.06" r="28.58" transform="translate(466.59 652.72) rotate(-83.08)" style="fill:#0070ff"/><circle cx="601.64" cy="63.06" r="27.63" transform="translate(-1.36 14.66) rotate(-1.39)" style="fill:#0070ff"/><path d="M576.17,62h0a.29.29,0,0,1-.27-.31,26.77,26.77,0,0,1,.37-3.24.29.29,0,1,1,.58.1,25.86,25.86,0,0,0-.37,3.17A.29.29,0,0,1,576.17,62Z" style="fill:#bbcef9"/><path d="M578.86,51.87a.35.35,0,0,1-.14,0,.28.28,0,0,1-.12-.39,25.68,25.68,0,0,1,23-14.19,26.8,26.8,0,0,1,4.65.42.3.3,0,0,1-.11.58,25.55,25.55,0,0,0-4.54-.41,25.09,25.09,0,0,0-22.52,13.86A.28.28,0,0,1,578.86,51.87Z" style="fill:#bbcef9"/><circle cx="602.24" cy="63.66" r="23.38" style="fill:#65bcff"/><path d="M609.09,54.42c0,4.09-3.32,8.51-7.41,8.51s-7.42-4.42-7.42-8.51,3.32-7,7.42-7S609.09,50.32,609.09,54.42Z" style="fill:#0070ff"/><path d="M592.47,78.7h18.11a4.38,4.38,0,0,0,4.17-3l1-3a4.37,4.37,0,0,0-2.64-5.45c-7.37-2.69-15-2.34-22.79.25a4.37,4.37,0,0,0-2.8,5.29l.75,2.77A4.38,4.38,0,0,0,592.47,78.7Z" style="fill:#0070ff"/><circle cx="293.79" cy="66.54" r="28.58" transform="translate(203.59 353.95) rotate(-85.34)" style="fill:#0070ff"/><circle cx="293.79" cy="66.54" r="27.63" transform="translate(86.4 285.01) rotate(-59.25)" style="fill:#0070ff"/><path d="M268.32,65.48h0a.3.3,0,0,1-.28-.31,25.33,25.33,0,0,1,.38-3.24.28.28,0,0,1,.33-.23A.28.28,0,0,1,269,62a25.86,25.86,0,0,0-.37,3.17A.28.28,0,0,1,268.32,65.48Z" style="fill:#bbcef9"/><path d="M271,55.36a.2.2,0,0,1-.13,0,.28.28,0,0,1-.13-.39,25.68,25.68,0,0,1,23-14.18,26.71,26.71,0,0,1,4.65.41.3.3,0,0,1,.24.34.29.29,0,0,1-.34.24,25.58,25.58,0,0,0-4.55-.41,25.11,25.11,0,0,0-22.52,13.86A.28.28,0,0,1,271,55.36Z" style="fill:#bbcef9"/><circle cx="294.39" cy="67.14" r="23.38" transform="translate(38.75 227.83) rotate(-45)" style="fill:#65bcff"/><path d="M301.24,57.9c0,4.09-3.32,8.51-7.41,8.51s-7.42-4.42-7.42-8.51,3.32-7,7.42-7S301.24,53.8,301.24,57.9Z" style="fill:#0070ff"/><path d="M284.62,82.18h18.11a4.37,4.37,0,0,0,4.17-3l1-3a4.37,4.37,0,0,0-2.65-5.44c-7.37-2.7-15-2.35-22.79.24a4.36,4.36,0,0,0-2.79,5.29L280.4,79A4.37,4.37,0,0,0,284.62,82.18Z" style="fill:#0070ff"/><circle cx="579.37" cy="506.39" r="59.04" transform="translate(12.99 1027.27) rotate(-83.76)" style="fill:#f99000"/><circle cx="579.37" cy="506.39" r="57.08" transform="translate(-63.29 929.57) rotate(-74.52)" style="fill:#f99000"/><path d="M532.31,483.31a.55.55,0,0,1-.28-.07.62.62,0,0,1-.28-.84A53.36,53.36,0,0,1,589,453.94a.63.63,0,0,1,.51.73.62.62,0,0,1-.73.5,52.66,52.66,0,0,0-9.4-.84A51.84,51.84,0,0,0,532.87,483,.63.63,0,0,1,532.31,483.31Z" style="fill:#fff;opacity:0.65"/><circle cx="580.62" cy="507.63" r="48.31" transform="translate(-188.89 559.24) rotate(-45)" style="fill:#fff;opacity:0.65"/><path d="M575.88,543.55v-5.26a42.77,42.77,0,0,1-14.75-3.2,3,3,0,0,1-1.68-3.59l1.34-4.89a3.06,3.06,0,0,1,4.16-2,35.55,35.55,0,0,0,13.61,2.87c5.28,0,9.21-1.79,9.21-5.46,0-3.31-3-5.28-10.37-7.24-10.47-2.87-18-7.43-18-16.64,0-8.32,6.08-14.67,16.64-16.37v-5.25a3.06,3.06,0,0,1,3.06-3.07h3.09a3.06,3.06,0,0,1,3.06,3.07v4.71a39.29,39.29,0,0,1,11.69,2.1,3,3,0,0,1,1.9,3.68l-1.23,4.53a3,3,0,0,1-4,2.06,31.85,31.85,0,0,0-11.46-2.08c-6.26,0-8,2.59-8,4.92,0,2.86,3.76,4.83,11.89,7.34,11.63,3.48,16.46,8.31,16.46,17,0,8-5.9,15.12-17.35,16.9v5.89a3.06,3.06,0,0,1-3.06,3.06h-3.09A3.06,3.06,0,0,1,575.88,543.55Z" style="fill:#f99000"/></svg>