<svg width="16" height="17" viewBox="0 0 16 17" fill="none" xmlns="http://www.w3.org/2000/svg">
<path d="M4.23532 8.97054H6.58827V6.61759C6.58827 6.35746 6.79876 6.14697 7.05884 6.14697H8.94116C9.20129 6.14697 9.41173 6.35746 9.41173 6.61759V8.97054H11.7647C12.0248 8.97054 12.2352 8.76005 12.2352 8.49997V4.72346C11.8408 5.022 11.3553 5.20589 10.8235 5.20589C10.4917 5.20589 10.1672 5.13606 9.86942 5.00367C9.58264 5.11996 9.26831 5.18104 8.94111 5.18104C8.6093 5.18104 8.28946 5.1181 7.99992 4.99816C7.71038 5.1181 7.39055 5.18104 7.05873 5.18104C6.73153 5.18104 6.4172 5.1199 6.13042 5.00367C5.83262 5.13601 5.50817 5.20589 5.17635 5.20589C4.64454 5.20589 4.15903 5.022 3.7646 4.72346V8.49997C3.76476 8.7601 3.97524 8.97054 4.23532 8.97054ZM5.17651 4.2647C5.53773 4.2647 5.86769 4.12823 6.1177 3.90439C6.61773 4.35201 7.50005 4.35201 8.00003 3.90439C8.50005 4.35201 9.38238 4.35201 9.88235 3.90439C10.1324 4.12817 10.4623 4.2647 10.8235 4.2647C11.602 4.2647 12.2353 3.63143 12.2353 2.85295V1.91176C12.2353 1.13327 11.602 0.5 10.8235 0.5H5.17651C4.39803 0.5 3.76476 1.13327 3.76476 1.91176V2.85295C3.76476 3.63143 4.39803 4.2647 5.17651 4.2647ZM15.5294 15.5588H14.4619L15.6857 13.4397C15.8916 13.0845 16 12.6782 16 12.2646C16 10.9673 14.9449 9.91168 13.6471 9.91168C12.5105 9.91168 11.5603 10.7214 11.3417 11.7941H10.3054C10.1178 10.8735 9.39133 10.147 8.47059 9.9593V7.08816H7.52941V9.9593C6.60867 10.1469 5.88226 10.8735 5.6946 11.7941H4.65832C4.43967 10.7214 3.48952 9.91168 2.35295 9.91168C1.05515 9.91168 0 10.9673 0 12.2646C0 12.6782 0.10845 13.0845 0.31433 13.4397L1.53806 15.5588H0.470568C0.210436 15.5588 0 15.7692 0 16.0293C0 16.2894 0.210489 16.4999 0.470568 16.4999H4.23527C4.4954 16.4999 4.70584 16.2894 4.70584 16.0293C4.70584 15.7692 4.49535 15.5588 4.23527 15.5588H3.16778L4.39151 13.4397C4.51787 13.2217 4.59368 12.9816 4.64412 12.7352H5.7088C5.75924 12.9815 5.835 13.2217 5.96141 13.4397L7.18514 15.5588H6.11765C5.85752 15.5588 5.64708 15.7692 5.64708 16.0293C5.64708 16.2894 5.85757 16.4999 6.11765 16.4999H9.88235C10.1425 16.4999 10.3529 16.2894 10.3529 16.0293C10.3529 15.7692 10.1424 15.5588 9.88235 15.5588H8.81486L10.0386 13.4397C10.1649 13.2217 10.2408 12.9816 10.2912 12.7352H11.3559C11.4063 12.9815 11.4821 13.2217 11.6085 13.4397L12.8322 15.5588H11.7647C11.5046 15.5588 11.2942 15.7692 11.2942 16.0293C11.2942 16.2894 11.5047 16.4999 11.7647 16.4999H15.5294C15.7896 16.4999 16 16.2894 16 16.0293C16 15.7692 15.7895 15.5588 15.5294 15.5588ZM2.353 12.7352C2.09313 12.7352 1.88243 12.5245 1.88243 12.2647C1.88243 12.0048 2.09313 11.7941 2.353 11.7941C2.61287 11.7941 2.82357 12.0048 2.82357 12.2647C2.82357 12.5245 2.61287 12.7352 2.353 12.7352ZM8.00003 12.7352C7.74016 12.7352 7.52946 12.5245 7.52946 12.2647C7.52946 12.0048 7.74016 11.7941 8.00003 11.7941C8.25989 11.7941 8.47059 12.0048 8.47059 12.2647C8.47059 12.5245 8.25989 12.7352 8.00003 12.7352ZM13.6471 12.7352C13.3872 12.7352 13.1765 12.5245 13.1765 12.2647C13.1765 12.0048 13.3872 11.7941 13.6471 11.7941C13.9069 11.7941 14.1176 12.0048 14.1176 12.2647C14.1177 12.5245 13.9069 12.7352 13.6471 12.7352Z" fill="#202223"/>
</svg>
