<svg width="100" height="100" viewBox="0 0 100 100" fill="none" xmlns="http://www.w3.org/2000/svg">
<path d="M50 29.1667V12.5H8.33337V87.5H91.6667V29.1667H50ZM25 79.1667H16.6667V70.8333H25V79.1667ZM25 62.5H16.6667V54.1667H25V62.5ZM25 45.8333H16.6667V37.5H25V45.8333ZM25 29.1667H16.6667V20.8333H25V29.1667ZM41.6667 79.1667H33.3334V70.8333H41.6667V79.1667ZM41.6667 62.5H33.3334V54.1667H41.6667V62.5ZM41.6667 45.8333H33.3334V37.5H41.6667V45.8333ZM41.6667 29.1667H33.3334V20.8333H41.6667V29.1667ZM83.3334 79.1667H50V70.8333H58.3334V62.5H50V54.1667H58.3334V45.8333H50V37.5H83.3334V79.1667ZM75 45.8333H66.6667V54.1667H75V45.8333ZM75 62.5H66.6667V70.8333H75V62.5Z" fill="white"/>
</svg>
