<svg width="220" height="172" viewBox="0 0 220 172" fill="none" xmlns="http://www.w3.org/2000/svg">
<path d="M72.9503 140.438C66.312 140.438 59.6836 140.319 53.0651 140.082C43.6081 139.742 33.8291 139.391 24.7399 134.35C18.3816 130.824 12.7503 125.166 8.45501 117.989C5.58411 113.124 3.47905 107.846 2.21375 102.341C-0.146511 92.3181 -0.066118 81.8749 2.44817 71.8894C3.32928 68.4657 4.54394 65.1368 6.07473 61.9502C12.7031 48.2241 24.7929 39.0101 39.2441 36.671C39.3635 36.6555 39.4841 36.653 39.604 36.6633C39.669 36.6668 39.7338 36.6706 39.7999 36.6678L39.8849 36.6408C40.1028 36.565 40.3267 36.5075 40.5542 36.469C62.8419 33.151 86.4031 39.8644 108.689 55.883C125.921 68.2702 148.757 74.9405 178.504 76.2751L178.926 76.2972C187.207 76.7729 195.217 80.1869 202.091 86.1706C208.876 92.0764 213.971 99.9559 216.824 108.958C217.174 110.055 217.496 111.197 217.779 112.353C218.043 113.427 218.024 114.55 217.725 115.615C217.426 116.679 216.856 117.648 216.072 118.427V118.429L215.998 118.505C215.819 118.683 215.632 118.853 215.44 119.011L215.214 119.197C213.313 120.763 211.812 122 210.015 122.961C208.816 123.597 207.542 124.079 206.221 124.393C198.973 126.16 191.611 127.799 184.342 129.263C170.224 132.11 155.735 134.458 141.276 136.242C118.608 139.037 95.7898 140.439 72.9503 140.438ZM39.435 37.1495C39.3906 37.1491 39.3463 37.1521 39.3023 37.1585C24.9862 39.4757 13.0109 48.5992 6.44822 62.1895C4.93254 65.3444 3.7299 68.6404 2.85755 72.0301C0.366172 81.9271 0.286779 92.2776 2.62605 102.212C3.87896 107.664 5.96361 112.891 8.8068 117.71C13.06 124.817 18.6337 130.417 24.9254 133.906C33.933 138.902 43.6659 139.252 53.0785 139.59C82.5175 140.642 111.994 139.359 141.23 135.753C155.68 133.97 170.16 131.623 184.268 128.779C191.533 127.315 198.889 125.678 206.133 123.912C207.421 123.605 208.665 123.136 209.835 122.514C211.596 121.573 213.083 120.348 214.965 118.797L215.191 118.611C215.356 118.475 215.518 118.329 215.673 118.178L215.717 118.131C217.264 116.572 217.866 114.514 217.368 112.487C217.088 111.344 216.77 110.213 216.422 109.127C210.594 90.7382 195.517 77.7428 178.906 76.7888L178.486 76.7667C164.898 76.1569 153.007 74.468 142.136 71.6027C129.159 68.1825 117.83 63.034 108.463 56.3003C86.2617 40.3431 62.799 33.6547 40.6087 36.9569C40.4014 36.9927 40.1974 37.0456 39.9989 37.115L39.8456 37.1579C39.7586 37.1618 39.6714 37.1607 39.5844 37.1548C39.5332 37.1521 39.4835 37.1495 39.435 37.1495Z" fill="black" fill-opacity="0.3"/>
<path d="M40 130.154C53.531 130.154 64.5 117.842 64.5 102.654C64.5 87.4665 53.531 75.1543 40 75.1543C26.469 75.1543 15.5 87.4665 15.5 102.654C15.5 117.842 26.469 130.154 40 130.154Z" fill="#F0F0F0"/>
<path d="M197.5 106.297C209.926 106.297 220 96.4471 220 84.2969C220 72.1466 209.926 62.2969 197.5 62.2969C185.074 62.2969 175 72.1466 175 84.2969C175 96.4471 185.074 106.297 197.5 106.297Z" fill="#F0F0F0"/>
<path d="M121.123 39.6984C121.124 39.6205 121.155 39.5457 121.21 39.4906C121.265 39.4354 121.34 39.4044 121.418 39.4043H123.418C123.496 39.4045 123.57 39.4356 123.625 39.4907C123.68 39.5459 123.711 39.6206 123.711 39.6984C123.711 39.7763 123.68 39.851 123.625 39.9061C123.57 39.9613 123.496 39.9924 123.418 39.9926H121.418C121.34 39.9925 121.265 39.9615 121.21 39.9063C121.155 39.8512 121.124 39.7764 121.123 39.6984Z" fill="#3F3D56"/>
<path d="M124.535 39.9926C124.698 39.9926 124.83 39.8609 124.83 39.6984C124.83 39.536 124.698 39.4043 124.535 39.4043C124.373 39.4043 124.241 39.536 124.241 39.6984C124.241 39.8609 124.373 39.9926 124.535 39.9926Z" fill="#3F3D56"/>
<path d="M44.0408 89.6921C45.1989 89.6921 46.1378 88.7533 46.1378 87.5951C46.1378 86.4369 45.1989 85.498 44.0408 85.498C42.8826 85.498 41.9437 86.4369 41.9437 87.5951C41.9437 88.7533 42.8826 89.6921 44.0408 89.6921Z" fill="white"/>
<path d="M123.258 71.4851C124.416 71.4851 125.355 70.5462 125.355 69.3881C125.355 68.2299 124.416 67.291 123.258 67.291C122.1 67.291 121.161 68.2299 121.161 69.3881C121.161 70.5462 122.1 71.4851 123.258 71.4851Z" fill="white"/>
<path d="M186.483 113.652L177.008 104.297C176.547 103.838 176 103.475 175.398 103.228C174.796 102.981 174.151 102.855 173.5 102.857H173.467C172.811 102.859 172.163 102.991 171.558 103.246C170.954 103.5 170.406 103.871 169.947 104.339C167.828 106.483 166.623 109.365 166.585 112.379C166.547 115.393 167.679 118.304 169.743 120.501C169.843 120.609 169.947 120.713 170.051 120.817C170.627 121.39 171.263 121.899 171.948 122.336C173.821 123.546 176.006 124.187 178.236 124.179H178.306C179.837 124.174 181.352 123.866 182.762 123.271C184.173 122.677 185.452 121.809 186.525 120.717C187.455 119.774 187.972 118.5 187.965 117.176C187.957 115.851 187.424 114.584 186.483 113.652ZM185.934 120.131C184.175 121.903 181.858 123.014 179.375 123.278C176.892 123.542 174.394 122.942 172.302 121.579C171.703 121.183 171.145 120.73 170.633 120.226C168.592 118.21 167.435 115.465 167.417 112.596C167.399 109.726 168.521 106.967 170.538 104.926C170.921 104.535 171.378 104.225 171.882 104.012C172.387 103.8 172.928 103.691 173.475 103.69H173.5C174.042 103.688 174.579 103.793 175.08 103.998C175.581 104.204 176.037 104.506 176.421 104.888L185.896 114.247C186.681 115.022 187.125 116.078 187.132 117.181C187.139 118.284 186.708 119.345 185.934 120.131Z" fill="#3F3D56"/>
<path d="M155.395 82.9526L145.92 73.5941C144.987 72.6688 143.726 72.151 142.412 72.1543H142.383C141.726 72.157 141.077 72.2896 140.472 72.5446C139.867 72.7995 139.319 73.1718 138.858 73.6398C137.107 75.4186 135.971 77.7116 135.618 80.1828C135.264 82.6539 135.712 85.1733 136.894 87.3718L136.898 87.3759C137.386 88.2751 137.992 89.105 138.7 89.8435C138.779 89.9351 138.871 90.0266 138.962 90.1181C141.138 92.278 144.082 93.487 147.147 93.4804H147.222C148.753 93.474 150.268 93.1644 151.678 92.5694C153.089 91.9745 154.368 91.106 155.441 90.0141C155.901 89.5475 156.266 88.9946 156.513 88.3872C156.76 87.7798 156.885 87.1296 156.88 86.4739C156.876 85.8181 156.743 85.1696 156.488 84.5655C156.233 83.9613 155.862 83.4132 155.395 82.9526V82.9526ZM154.846 89.4316C153.85 90.4448 152.663 91.2507 151.354 91.8028C150.044 92.3549 148.639 92.6422 147.218 92.6482H147.147C145.014 92.6474 142.928 92.0156 141.152 90.8325C139.377 89.6493 137.99 87.9675 137.168 85.9986C136.346 84.0297 136.124 81.8616 136.531 79.767C136.937 77.6724 137.954 75.7448 139.453 74.2266C140.229 73.4423 141.284 72.9978 142.388 72.9908C143.491 72.9838 144.552 73.4147 145.337 74.1891L154.812 83.5435C155.596 84.3206 156.04 85.3769 156.046 86.4807C156.052 87.5844 155.621 88.6456 154.846 89.4316L154.846 89.4316Z" fill="#3F3D56"/>
<path d="M187.089 116.594L176.643 106.277C175.958 105.602 175.033 105.227 174.071 105.232C173.11 105.238 172.19 105.626 171.513 106.309C170.667 107.164 169.997 108.178 169.543 109.292C169.089 110.405 168.858 111.598 168.865 112.801C168.872 114.004 169.116 115.194 169.583 116.303C170.049 117.411 170.73 118.417 171.586 119.263C172.442 120.108 173.457 120.776 174.571 121.23C175.685 121.683 176.878 121.912 178.081 121.904C179.284 121.896 180.474 121.65 181.582 121.182C182.69 120.714 183.695 120.032 184.54 119.175L187.089 116.594Z" fill="#FB996A"/>
<path d="M156.002 85.8912L145.557 75.5742C144.872 74.8991 143.947 74.5234 142.985 74.5294C142.023 74.5353 141.103 74.9225 140.427 75.606C139.581 76.461 138.911 77.4745 138.457 78.5884C138.002 79.7023 137.772 80.8949 137.779 82.098C137.785 83.301 138.029 84.4909 138.496 85.5996C138.963 86.7084 139.644 87.7142 140.5 88.5596C141.356 89.405 142.37 90.0734 143.485 90.5265C144.599 90.9797 145.792 91.2088 146.995 91.2006C148.198 91.1925 149.388 90.9473 150.496 90.4791C151.604 90.0109 152.609 89.3289 153.454 88.472L156.002 85.8912Z" fill="#FB996A"/>
<path d="M175.61 123.022L175.36 123.679C174.187 123.234 173.05 122.787 171.948 122.339C152.441 114.379 143.128 105.062 136.898 87.3768L136.894 87.3726C136.599 86.5404 136.312 85.6888 136.033 84.8177L136.69 84.6055C136.91 85.4432 137.232 86.2509 137.648 87.0106C137.989 87.9802 138.34 88.9248 138.7 89.8444C144.555 104.771 153.19 113.301 169.743 120.504C170.575 120.866 171.428 121.225 172.302 121.582C173.317 122.243 174.435 122.73 175.61 123.022Z" fill="#3F3D56"/>
<path d="M145.746 92.7222L145.161 93.3145L166.774 114.66L167.359 114.068L145.746 92.7222Z" fill="#3F3D56"/>
<path d="M117.83 30.9632C116.663 29.8434 115.469 23.5987 113.979 22.9647C115.093 25.4264 114.284 26.0782 114.278 28.7799C114.292 30.314 114.113 31.8437 113.745 33.3331H88.5027V13.6332C88.5026 11.8631 88.8512 10.1103 89.5286 8.47497C90.2059 6.83961 91.1988 5.35369 92.4504 4.10205C93.7021 2.85041 95.188 1.85756 96.8234 1.1802C98.4587 0.502843 100.211 0.154245 101.982 0.154297C102.657 0.167485 103.328 0.265746 103.979 0.446781C106.149 1.03256 108.127 2.17859 109.714 3.7699C111.3 5.3612 112.441 7.34184 113.021 9.51312C114.945 16.5468 118.006 28.255 117.83 30.9632Z" fill="#2F2E41"/>
<path d="M89.9837 55.1987L89.9961 39.8438L80.9701 40.6503L84.1555 50.3346L82.6647 74.6764C81.9416 74.8387 81.2814 75.2078 80.7645 75.7388C80.2476 76.2698 79.8964 76.9398 79.7536 77.667C79.6109 78.3941 79.6828 79.1471 79.9606 79.8341C80.2385 80.5211 80.7102 81.1124 81.3183 81.536C81.9263 81.9595 82.6445 82.197 83.3852 82.2194C84.1259 82.2419 84.8572 82.0483 85.4898 81.6623C86.1224 81.2764 86.629 80.7147 86.9479 80.0457C87.2668 79.3768 87.3841 78.6296 87.2857 77.8951L89.9837 55.1987Z" fill="#FFB6B6"/>
<path d="M107.747 164.925L111.393 164.924L113.128 150.859H107.746L107.747 164.925Z" fill="#FFB6B6"/>
<path d="M106.512 163.125L112.276 162.781V165.251L117.757 169.036C118.027 169.223 118.231 169.491 118.339 169.802C118.446 170.113 118.451 170.45 118.353 170.765C118.255 171.079 118.059 171.353 117.794 171.548C117.529 171.743 117.209 171.848 116.88 171.848H110.017L108.834 169.405L108.373 171.848H105.785L106.512 163.125Z" fill="#2F2E41"/>
<path d="M86.6616 164.925L90.3084 164.924L92.0429 150.859H86.6611L86.6616 164.925Z" fill="#FFB6B6"/>
<path d="M85.4269 163.125L91.1913 162.781V165.251L96.6718 169.036C96.9425 169.223 97.1463 169.491 97.2536 169.802C97.3609 170.113 97.3659 170.45 97.268 170.765C97.1701 171.079 96.9744 171.353 96.7094 171.548C96.4445 171.743 96.1241 171.848 95.7951 171.848H88.9324L87.7495 169.405L87.2876 171.848H84.7001L85.4269 163.125Z" fill="#2F2E41"/>
<path d="M104.499 23.2598L96.9452 23.4079L91.6129 29.0364L87.3379 29.6634C85.4041 29.947 83.6262 30.8858 82.3015 32.3229C80.9767 33.7599 80.1853 35.6081 80.0596 37.5585L80.8001 41.6266H85.2437L87.8144 56.7199C86.8148 59.2669 86.7468 61.2774 88.7986 62.0671L95.1677 74.0647L113.979 65.622C114.933 63.9819 115.239 62.3345 114.263 60.7326L115.608 37.6273H120.13C120.13 33.3059 118.668 29.6628 114.374 29.182C112.668 28.9974 110.954 28.8994 109.239 28.8883L104.499 23.2598Z" fill="#E6E6E6"/>
<path d="M113.979 65.6252C113.979 65.6252 95.6122 68.8838 88.7987 62.0703C88.7987 62.0703 88.1069 63.2446 87.0646 65.1922C86.7648 65.7523 86.1859 66.1317 85.8363 66.8101C85.5185 67.4267 84.7012 68.1847 84.3551 68.884C84.0766 69.4466 84.5234 70.1818 84.2336 70.7895C80.7443 78.1083 76.6676 88.4321 77.5416 95.2491C78.1052 99.6452 79.2693 109.875 80.4953 120.862C80.5911 121.72 79.8152 122.823 79.9115 123.688C80.0023 124.504 80.9652 125.082 81.056 125.9C81.1163 126.443 80.4439 126.997 80.504 127.539C80.57 128.134 81.3685 128.717 81.4341 129.31C83.1136 144.481 84.6513 158.644 84.6513 158.644H93.2423L94.8632 126.296L93.5385 114.505L96.649 90.6574L100.944 113.32L101.497 126.074L106.037 159.237H113.979V127.133L114.571 125.465L113.979 123.327L114.571 121.022L113.979 118.512V65.6252Z" fill="#2F2E41"/>
<path d="M106.818 18.8806C105.648 20.435 103.983 21.5446 102.098 22.0265C100.213 22.5085 98.2201 22.3341 96.4474 21.5322C94.6747 20.7302 93.228 19.3484 92.3456 17.6144C91.4631 15.8804 91.1975 13.8975 91.5925 11.9924C91.9875 10.0872 93.0195 8.37344 94.5186 7.13318C96.0177 5.89293 97.8945 5.2002 99.8399 5.16907C101.785 5.13793 103.683 5.77025 105.221 6.9619C106.759 8.15355 107.846 9.83347 108.301 11.725C108.326 11.8276 108.347 11.9297 108.367 12.0356C108.608 13.2212 108.594 14.4444 108.327 15.6244C108.06 16.8043 107.546 17.9142 106.818 18.8806Z" fill="#FFB6B6"/>
<path d="M105.033 13.9963C104.851 13.0846 104.392 12.2516 103.717 11.6116C103.784 12.4852 103.663 13.363 103.362 14.1859C101.11 14.3853 98.8477 13.9372 96.8417 12.8943C95.3309 11.8693 93.4083 11.9582 91.1687 12.8943C91.1686 11.805 91.383 10.7263 91.7998 9.71991C92.2166 8.71349 92.8276 7.79904 93.5979 7.02877C94.3681 6.25851 95.2826 5.64753 96.289 5.23073C97.2954 4.81394 98.3741 4.59947 99.4634 4.59961H100.945C103.144 4.60001 105.254 5.47405 106.809 7.02952C108.365 8.58499 109.239 10.6945 109.239 12.8943C107.872 13.3846 106.465 13.7534 105.033 13.9963Z" fill="#2F2E41"/>
<path d="M101.361 89.0633H38.8501C37.9624 89.061 37.1117 88.7074 36.4839 88.0797C35.8561 87.452 35.5024 86.6014 35.5 85.7136V55.2544C35.5023 54.3667 35.8559 53.516 36.4836 52.8882C37.1113 52.2604 37.9619 51.9067 38.8497 51.9043H101.361C102.249 51.9066 103.099 52.2602 103.727 52.8879C104.355 53.5156 104.709 54.3662 104.711 55.254V85.7132C104.709 86.6009 104.355 87.4516 103.728 88.0794C103.1 88.7071 102.249 89.0609 101.361 89.0633ZM38.8501 52.8388C38.2099 52.8407 37.5965 53.0959 37.1439 53.5486C36.6913 54.0013 36.4363 54.6147 36.4345 55.2549V85.7132C36.4363 86.3533 36.6915 86.9667 37.1442 87.4194C37.5969 87.872 38.2104 88.1271 38.8506 88.1288H101.361C102.001 88.127 102.614 87.8719 103.067 87.4192C103.52 86.9665 103.775 86.353 103.777 85.7127V55.2544C103.775 54.6143 103.52 54.0009 103.067 53.5483C102.614 53.0956 102.001 52.8406 101.361 52.8388L38.8501 52.8388Z" fill="#3F3D56"/>
<path d="M73.4561 84.5627C61.1275 84.5627 48.2721 84.4449 43.4757 84.3685C42.8446 84.3555 42.2436 84.0963 41.801 83.6463C41.3585 83.1962 41.1094 82.591 41.1069 81.9598V56.7465C41.1072 56.5205 41.1969 56.3037 41.3566 56.1437C41.5162 55.9837 41.7327 55.8934 41.9587 55.8926H98.2504C98.4764 55.8928 98.6931 55.9826 98.853 56.1422C99.013 56.3018 99.1033 56.5182 99.1042 56.7442V73.851C99.0936 76.6434 97.9891 79.3205 96.0274 81.308C94.0658 83.2954 91.4034 84.4348 88.6113 84.4818C84.141 84.54 78.8476 84.5627 73.4561 84.5627Z" fill="#0050FF"/>
<path d="M94.9087 72.2792H44.0448C43.6189 72.278 43.2037 72.1458 42.8556 71.9004C42.5075 71.655 42.2434 71.3083 42.0991 70.9076L36.3421 54.7566C36.2311 54.4451 36.1966 54.1115 36.2413 53.7839C36.286 53.4563 36.4086 53.1441 36.5989 52.8738C36.7893 52.6034 37.0417 52.3826 37.3351 52.23C37.6284 52.0774 37.9541 51.9974 38.2848 51.9967L101.864 51.9082C102.166 51.9079 102.465 51.9739 102.739 52.1015C103.013 52.2291 103.255 52.4152 103.449 52.6468C103.644 52.8784 103.785 53.1497 103.863 53.4417C103.941 53.7337 103.954 54.0393 103.901 54.3368L103.95 54.3576L103.767 54.7835L103.765 54.7879L96.8058 71.0271C96.6473 71.3989 96.3829 71.7158 96.0455 71.9384C95.7082 72.1611 95.3129 72.2796 94.9087 72.2792ZM101.867 52.8427L38.2866 52.9312C38.1054 52.9315 37.927 52.9753 37.7663 53.0589C37.6056 53.1425 37.4673 53.2634 37.363 53.4115C37.2587 53.5596 37.1915 53.7306 37.167 53.9101C37.1426 54.0895 37.1615 54.2723 37.2223 54.4429L42.9791 70.5932C43.0582 70.8128 43.203 71.0027 43.3938 71.1371C43.5845 71.2716 43.8121 71.344 44.0454 71.3447H94.9087C95.1299 71.3449 95.3463 71.28 95.5308 71.1581C95.7154 71.0363 95.8601 70.8628 95.9468 70.6594L102.907 54.4196L103.249 54.5664L102.907 54.4196C102.98 54.2476 103.01 54.0599 102.994 53.8734C102.977 53.6869 102.914 53.5075 102.811 53.3512C102.708 53.1949 102.568 53.0666 102.403 52.9779C102.238 52.8891 102.054 52.8427 101.867 52.8427Z" fill="#3F3D56"/>
<path d="M119.904 51.644L119.916 36.2891L110.89 37.0956L114.076 46.78L102.513 64.3082C101.79 64.4705 101.13 64.8396 100.613 65.3706C100.096 65.9016 99.7446 66.5716 99.6019 67.2988C99.4592 68.0259 99.5311 68.7789 99.8089 69.4659C100.087 70.1529 100.558 70.7442 101.167 71.1678C101.775 71.5913 102.493 71.8288 103.233 71.8512C103.974 71.8736 104.705 71.6801 105.338 71.2941C105.971 70.9082 106.477 70.3465 106.796 69.6775C107.115 69.0086 107.232 68.2614 107.134 67.5269L119.904 51.644Z" fill="#FFB6B6"/>
</svg>
