<svg width="40" height="40" viewBox="0 0 40 40" fill="none" xmlns="http://www.w3.org/2000/svg">
<path d="M21.6498 4.58326C23.0845 4.58325 23.7196 4.58451 24.2432 4.6314C30.0654 5.15267 34.6796 9.76687 35.2009 15.589C35.2478 16.1127 35.249 16.7477 35.249 18.1825V19.8324C35.249 20.5228 35.8087 21.0824 36.499 21.0824C37.1894 21.0824 37.749 20.5228 37.749 19.8324V18.0984C37.749 16.7703 37.7491 16.0155 37.6909 15.3661C37.0618 8.33934 31.4929 2.77048 24.4662 2.14136C23.8168 2.08321 23.062 2.08323 21.7337 2.08325H19.9999C19.3095 2.08325 18.7499 2.6429 18.7499 3.33326C18.7499 4.02361 19.3095 4.58326 19.9999 4.58326L21.6498 4.58326Z" fill="white"/>
<path fill-rule="evenodd" clip-rule="evenodd" d="M11.8527 6.70875C10.0992 5.09753 7.40399 5.09753 5.65051 6.70875C5.5787 6.77473 5.50205 6.8514 5.40251 6.95096L3.90667 8.44681C2.40148 9.952 1.76961 12.1219 2.23138 14.1998C4.85133 25.9896 14.0589 35.1972 25.8487 37.8171C27.9266 38.2789 30.0965 37.647 31.6017 36.1418L33.0974 34.6462C33.197 34.5465 33.2737 34.4698 33.3397 34.398C34.951 32.6445 34.951 29.9492 33.3397 28.1958C33.2737 28.1239 33.197 28.0472 33.0974 27.9476L30.6486 25.4988C28.9484 23.7987 26.3809 23.3124 24.1768 24.2732C22.9149 24.8232 21.445 24.5448 20.4717 23.5715L16.477 19.5768C15.5037 18.6035 15.2253 17.1336 15.7753 15.8717C16.7361 13.6676 16.2498 11.1001 14.5497 9.3999L12.1008 6.95101C12.0012 6.85143 11.9245 6.77474 11.8527 6.70875ZM7.34202 8.54962C8.13906 7.81724 9.36418 7.81724 10.1612 8.54962C10.1887 8.5749 10.2248 8.61056 10.3516 8.73734L12.7819 11.1677C13.7552 12.141 14.0336 13.6109 13.4836 14.8728C12.5228 17.0769 13.0091 19.6444 14.7092 21.3446L18.7039 25.3393C20.4041 27.0394 22.9716 27.5257 25.1757 26.5649C26.4376 26.0149 27.9075 26.2933 28.8808 27.2666L31.3112 29.6969C31.4379 29.8237 31.4736 29.8598 31.4989 29.8873C32.2313 30.6843 32.2313 31.9094 31.4989 32.7065C31.4736 32.734 31.4379 32.7701 31.3112 32.8968L29.8339 34.3741C28.9331 35.2748 27.6346 35.653 26.391 35.3766C15.5488 32.9673 7.08123 24.4997 4.67185 13.6575C4.3955 12.4139 4.77364 11.1154 5.67443 10.2146L7.15167 8.73734C7.27845 8.61056 7.31451 8.5749 7.34202 8.54962Z" fill="white"/>
<path d="M21.1782 7.97581C20.4878 7.97581 19.9282 8.53545 19.9282 9.22581C19.9282 9.91617 20.4878 10.4758 21.1782 10.4758H22.121C22.1392 10.4758 22.156 10.4758 22.1716 10.4758C22.2811 10.4758 22.332 10.4759 22.3744 10.4765C26.207 10.5314 29.3007 13.6251 29.3556 17.4577C29.3562 17.5062 29.3563 17.5657 29.3563 17.7111V18.6539C29.3563 19.3443 29.9159 19.9039 30.6063 19.9039C31.2966 19.9039 31.8563 19.3443 31.8563 18.6539V17.699C31.8563 17.6828 31.8563 17.6674 31.8563 17.6527C31.8563 17.5499 31.8562 17.4821 31.8553 17.4219C31.781 12.2366 27.5955 8.05106 22.4102 7.97679C22.3414 7.97581 22.2626 7.97581 22.133 7.97581H21.1782Z" fill="white"/>
</svg>
