<svg width="24" height="24" viewBox="0 0 24 24" fill="none" xmlns="http://www.w3.org/2000/svg">
<path d="M4.76996 15.2598L7.30996 14.9698C7.91996 14.8998 8.51996 15.1098 8.94996 15.5398L10.79 17.3798C13.62 15.9398 15.94 13.6298 17.38 10.7898L15.53 8.93976C15.1 8.50977 14.89 7.90977 14.96 7.29977L15.25 4.77977C15.37 3.76977 16.22 3.00977 17.24 3.00977H18.97C20.1 3.00977 21.04 3.94977 20.97 5.07977C20.44 13.6198 13.61 20.4398 5.07996 20.9698C3.94996 21.0398 3.00996 20.0998 3.00996 18.9698V17.2398C2.99996 16.2298 3.75996 15.3798 4.76996 15.2598Z" fill="#001e2d"/>
</svg>
