<svg width="40" height="40" viewBox="0 0 40 40" fill="none" xmlns="http://www.w3.org/2000/svg">
<path d="M29.9999 18.3337V21.667H36.6666V18.3337H29.9999ZM26.6666 29.3503C28.2666 30.5337 30.3499 32.1003 31.9999 33.3337C32.6666 32.4503 33.3333 31.5503 33.9999 30.667C32.3499 29.4337 30.2666 27.867 28.6666 26.667C27.9999 27.567 27.3333 28.467 26.6666 29.3503ZM33.9999 9.33366C33.3333 8.45033 32.6666 7.55033 31.9999 6.66699C30.3499 7.90033 28.2666 9.46699 26.6666 10.667C27.3333 11.5503 27.9999 12.4503 28.6666 13.3337C30.2666 12.1337 32.3499 10.5837 33.9999 9.33366ZM6.66659 15.0003C4.83325 15.0003 3.33325 16.5003 3.33325 18.3337V21.667C3.33325 23.5003 4.83325 25.0003 6.66659 25.0003H8.33325V31.667H11.6666V25.0003H13.3333L21.6666 30.0003V10.0003L13.3333 15.0003H6.66659ZM25.8333 20.0003C25.8333 17.7837 24.8666 15.7837 23.3333 14.417V25.567C24.8666 24.217 25.8333 22.217 25.8333 20.0003Z" fill="#6494FF"/>
</svg>
