<svg width="60" height="61" viewBox="0 0 60 61" fill="none" xmlns="http://www.w3.org/2000/svg">
<path d="M45 27.677V32.677H55V27.677H45ZM40 44.202C42.4 45.977 45.525 48.327 48 50.177C49 48.852 50 47.502 51 46.177C48.525 44.327 45.4 41.977 43 40.177C42 41.527 41 42.877 40 44.202ZM51 14.177C50 12.852 49 11.502 48 10.177C45.525 12.027 42.4 14.377 40 16.177C41 17.502 42 18.852 43 20.177C45.4 18.377 48.525 16.052 51 14.177ZM10 22.677C7.25 22.677 5 24.927 5 27.677V32.677C5 35.427 7.25 37.677 10 37.677H12.5V47.677H17.5V37.677H20L32.5 45.177V15.177L20 22.677H10ZM38.75 30.177C38.75 26.852 37.3 23.852 35 21.802V38.527C37.3 36.502 38.75 33.502 38.75 30.177Z" fill="#FA8750" fill-opacity="0.85"/>
</svg>
