<svg width="100" height="100" viewBox="0 0 100 100" fill="none" xmlns="http://www.w3.org/2000/svg">
<path d="M12.5 12.5V16.6667V43.2617C11.6382 43.8409 10.825 44.481 10.0911 45.2148L4.16667 50H0V83.3333H4.16667C4.16667 83.3333 6.72149 84.9172 7.95898 85.7422C9.12565 86.5214 11.0399 87.4268 12.5732 87.4268H33.7728L34.4564 87.0605C62.2189 72.3147 63.3674 70.5901 63.8591 69.8568L65.682 62.5H95.8333V12.5H12.5ZM30.0049 20.8333H78.5238C78.205 21.7733 78.1148 22.7757 78.2607 23.7575C78.4065 24.7392 78.7843 25.6721 79.3627 26.4788C79.941 27.2854 80.7032 27.9426 81.5862 28.3959C82.4692 28.8492 83.4476 29.0855 84.4401 29.0853C85.5123 29.0838 86.5661 28.8064 87.5 28.2796V46.5413C86.5669 46.0118 85.513 45.7315 84.4401 45.7275C83.4313 45.7283 82.4377 45.9735 81.5443 46.442C80.6509 46.9105 79.8842 47.5885 79.31 48.4179C78.7357 49.2473 78.3709 50.2035 78.2467 51.2046C78.1226 52.2058 78.2428 53.2221 78.597 54.1667H35.0342L41.2598 49.7721C44.8431 47.3805 46.0915 42.8847 44.279 39.0055L44.0674 38.5824C42.0841 34.8699 37.793 33.1419 33.6263 34.5378L20.8333 39.5752V28.1657C21.8132 28.7658 22.9395 29.084 24.0885 29.0853C25.0811 29.0855 26.0594 28.8492 26.9424 28.3959C27.8254 27.9426 28.5877 27.2854 29.166 26.4788C29.7443 25.6721 30.1221 24.7392 30.268 23.7575C30.4139 22.7757 30.3237 21.7733 30.0049 20.8333ZM54.1667 25C50.8333 25 47.8227 26.3214 45.5811 28.4505C47.9144 29.9589 49.9064 32.0314 51.2939 34.6273L51.6357 35.3027C53.2482 38.7444 53.5962 42.4042 52.9378 45.8333H63.4196C65.4154 43.6167 66.6667 40.7167 66.6667 37.5C66.6667 30.5958 61.0708 25 54.1667 25Z" fill="white"/>
</svg>
