<?xml version="1.0" encoding="UTF-8"?><svg xmlns="http://www.w3.org/2000/svg" xmlns:xlink="http://www.w3.org/1999/xlink" version="1.1" id="Layer_1" x="0px" y="0px" viewBox="0 0 48 48" xml:space="preserve"><g fill="#0050ff"><path d="M21.881 6.136l-4.315-.974a6.533 6.533 0 0 0-7.812 4.934l-.983 4.351c2.832-4.497 7.586-7.659 13.11-8.311z"/><path d="M6.136 26.119l-.974 4.315a6.533 6.533 0 0 0 4.934 7.812l4.351.983c-4.497-2.833-7.659-7.586-8.311-13.11z"/><path d="M37.904 9.754l-4.351-.983c4.497 2.832 7.659 7.586 8.311 13.109l.974-4.315a6.533 6.533 0 0 0-4.934-7.811z"/><path d="M26.119 41.864l4.315.974a6.533 6.533 0 0 0 7.812-4.934l.983-4.351c-2.832 4.497-7.586 7.659-13.11 8.311z"/></g><path d="M24 8C15.163 8 8 15.163 8 24s7.163 16 16 16 16-7.163 16-16S32.837 8 24 8zm-4 5a4 4 0 1 1 0 8 4 4 0 0 1 0-8zm-3 19a4 4 0 1 1 0-8 4 4 0 0 1 0 8zm5-8a2 2 0 1 1 3.999-.001A2 2 0 0 1 22 24zm6 11a4 4 0 1 1 0-8 4 4 0 0 1 0 8zm3-11a4 4 0 1 1 0-8 4 4 0 0 1 0 8z" fill="#0050ff"/><metadata><rdf:RDF xmlns:rdf="http://www.w3.org/1999/02/22-rdf-syntax-ns#" xmlns:rdfs="http://www.w3.org/2000/01/rdf-schema#" xmlns:dc="http://purl.org/dc/elements/1.1/"><rdf:Description about="https://iconscout.com/legal#licenses" dc:title="aparat" dc:description="aparat" dc:publisher="Iconscout" dc:date="2017-12-15" dc:format="image/svg+xml" dc:language="en"><dc:creator><rdf:Bag><rdf:li>Icons8</rdf:li></rdf:Bag></dc:creator></rdf:Description></rdf:RDF></metadata></svg>