<svg width="21" height="21" viewBox="0 0 21 21" fill="none" xmlns="http://www.w3.org/2000/svg">
<g clip-path="url(#clip0)">
<path d="M9.62484 2.09961C9.16219 2.09961 8.78484 2.47695 8.78484 2.93961C8.78484 3.40227 9.16219 3.77961 9.62484 3.77961C10.0875 3.77961 10.4648 3.40227 10.4648 2.93961C10.4648 2.47695 10.0875 2.09961 9.62484 2.09961ZM8.12859 3.70086L2.81297 7.13961H4.36172L8.69297 4.33086C8.45344 4.17172 8.25984 3.9568 8.12859 3.70086ZM11.1211 3.70086C10.9898 3.9568 10.7946 4.17172 10.5567 4.33086L14.888 7.13961H16.4236L11.1211 3.70086ZM0.384844 7.97961C0.153516 7.97961 -0.0351562 8.16828 -0.0351562 8.39961V18.4796C-0.0351562 18.7126 0.153516 18.8996 0.384844 18.8996H18.8648C19.0978 18.8996 19.2848 18.7126 19.2848 18.4796V8.39961C19.2848 8.16828 19.0978 7.97961 18.8648 7.97961H0.384844ZM2.90484 10.9196C3.59883 10.9196 4.16484 11.4856 4.16484 12.1796V12.5996H3.32484V12.1796C3.32484 11.9483 3.13617 11.7596 2.90484 11.7596C2.67352 11.7596 2.48484 11.9483 2.48484 12.1796V14.6996C2.48484 14.9309 2.67352 15.1196 2.90484 15.1196C3.13617 15.1196 3.32484 14.9309 3.32484 14.6996V14.2796H4.16484V14.6996C4.16484 15.3936 3.59883 15.9596 2.90484 15.9596C2.21086 15.9596 1.64484 15.3936 1.64484 14.6996V12.1796C1.64484 11.4856 2.21086 10.9196 2.90484 10.9196ZM4.58484 10.9196H5.42484V15.1196H6.68484V15.9596H4.58484V10.9196ZM7.94484 10.9196C8.63883 10.9196 9.20484 11.4856 9.20484 12.1796V14.6996C9.20484 15.3936 8.63883 15.9596 7.94484 15.9596C7.25086 15.9596 6.68484 15.3936 6.68484 14.6996V12.1796C6.68484 11.4856 7.25086 10.9196 7.94484 10.9196ZM10.8848 10.9196C11.5788 10.9196 12.1448 11.4856 12.1448 12.1796V12.5996H11.3048V12.1796C11.3048 11.9483 11.1162 11.7596 10.8848 11.7596C10.6535 11.7596 10.4648 11.9483 10.4648 12.1796V12.7571L12.1448 13.5971V14.6996C12.1448 15.3936 11.5788 15.9596 10.8848 15.9596C10.1909 15.9596 9.62484 15.3936 9.62484 14.6996V14.2796H10.4648V14.6996C10.4648 14.9309 10.6535 15.1196 10.8848 15.1196C11.1162 15.1196 11.3048 14.9309 11.3048 14.6996V14.1221L9.62484 13.2821V12.1796C9.62484 11.4856 10.1909 10.9196 10.8848 10.9196ZM12.5648 10.9196H14.6648V11.7596H13.4048V13.0196H14.6648V13.8596H13.4048V15.1196H14.6648V15.9596H12.5648V10.9196ZM15.0848 10.9196H16.3448C17.0388 10.9196 17.6048 11.4856 17.6048 12.1796V14.6996C17.6048 15.3936 17.0388 15.9596 16.3448 15.9596H15.0848V10.9196ZM7.94484 11.7596C7.71351 11.7596 7.52484 11.9483 7.52484 12.1796V14.6996C7.52484 14.9309 7.71351 15.1196 7.94484 15.1196C8.17617 15.1196 8.36484 14.9309 8.36484 14.6996V12.1796C8.36484 11.9483 8.17617 11.7596 7.94484 11.7596ZM15.9248 11.7596V15.1196H16.3448C16.5762 15.1196 16.7648 14.9309 16.7648 14.6996V12.1796C16.7648 11.9483 16.5762 11.7596 16.3448 11.7596H15.9248Z" fill="#FF6688"/>
</g>
<defs>
<clipPath id="clip0">
<rect width="21" height="21" fill="white"/>
</clipPath>
</defs>
</svg>
