<svg width="104" height="104" viewBox="0 0 104 104" fill="none" xmlns="http://www.w3.org/2000/svg">
<path d="M63.4898 46.1571C64.759 44.8879 64.759 42.8301 63.4898 41.5609C62.2206 40.2917 60.1628 40.2917 58.8936 41.5609L51.9994 48.4552L45.1051 41.5609C43.8359 40.2917 41.7781 40.2917 40.5089 41.5609C39.2397 42.8301 39.2397 44.8879 40.5089 46.1571L47.4032 53.0514L40.5089 59.9457C39.2397 61.2149 39.2397 63.2727 40.5089 64.5419C41.7781 65.8111 43.8359 65.8111 45.1051 64.5419L51.9994 57.6476L58.8936 64.5419C60.1628 65.8111 62.2206 65.8111 63.4898 64.5419C64.759 63.2727 64.759 61.2149 63.4898 59.9457L56.5955 53.0514L63.4898 46.1571Z" fill="#D72C0D"/>
<path fill-rule="evenodd" clip-rule="evenodd" d="M51.9994 5.41663C26.2721 5.41663 5.41602 26.2727 5.41602 52C5.41602 77.7272 26.2721 98.5833 51.9994 98.5833C77.7266 98.5833 98.5827 77.7272 98.5827 52C98.5827 26.2727 77.7266 5.41663 51.9994 5.41663ZM11.916 52C11.916 29.8625 29.8619 11.9166 51.9994 11.9166C74.1368 11.9166 92.0827 29.8625 92.0827 52C92.0827 74.1374 74.1368 92.0833 51.9994 92.0833C29.8619 92.0833 11.916 74.1374 11.916 52Z" fill="#D72C0D"/>
</svg>
