<svg width="337" height="203" viewBox="0 0 337 203" fill="none" xmlns="http://www.w3.org/2000/svg">
<path d="M280.467 32.9785H144.406V63.8723H280.467V32.9785Z" stroke="#3F3D56" stroke-miterlimit="10"/>
<path d="M61.3145 79.0319C65.355 70.9174 73.0051 65.4429 81.7773 65.4429C94.7622 65.4429 105.289 77.4381 105.289 92.235C105.289 101.696 100.986 110.011 94.4883 114.778" stroke="#3F3D56" stroke-miterlimit="10"/>
<path d="M270.836 38.958H134.774V69.8518H270.836V38.958Z" fill="#FA8750" fill-opacity="0.85"/>
<path d="M48.7634 9.47641C49.9272 9.47641 50.8706 8.43531 50.8706 7.15105C50.8706 5.86679 49.9272 4.82568 48.7634 4.82568C47.5997 4.82568 46.6562 5.86679 46.6562 7.15105C46.6562 8.43531 47.5997 9.47641 48.7634 9.47641Z" fill="#6C63FF"/>
<path d="M55.988 9.47641C57.1518 9.47641 58.0952 8.43531 58.0952 7.15105C58.0952 5.86679 57.1518 4.82568 55.988 4.82568C54.8243 4.82568 53.8809 5.86679 53.8809 7.15105C53.8809 8.43531 54.8243 9.47641 55.988 9.47641Z" fill="#6C63FF"/>
<path d="M63.2117 9.47641C64.3754 9.47641 65.3188 8.43531 65.3188 7.15105C65.3188 5.86679 64.3754 4.82568 63.2117 4.82568C62.0479 4.82568 61.1045 5.86679 61.1045 7.15105C61.1045 8.43531 62.0479 9.47641 63.2117 9.47641Z" fill="#6C63FF"/>
<path d="M295.9 1.17139H43.043V182.548H295.9V1.17139Z" stroke="#3F3D56" stroke-miterlimit="10"/>
<path d="M43.043 11.2485H295.9" stroke="#3F3D56" stroke-miterlimit="10"/>
<path d="M49.366 8.47983C50.5297 8.47983 51.4731 7.43873 51.4731 6.15447C51.4731 4.8702 50.5297 3.8291 49.366 3.8291C48.2022 3.8291 47.2588 4.8702 47.2588 6.15447C47.2588 7.43873 48.2022 8.47983 49.366 8.47983Z" stroke="#3F3D56" stroke-miterlimit="10"/>
<path d="M56.5896 8.47983C57.7534 8.47983 58.6968 7.43873 58.6968 6.15447C58.6968 4.8702 57.7534 3.8291 56.5896 3.8291C55.4258 3.8291 54.4824 4.8702 54.4824 6.15447C54.4824 7.43873 55.4258 8.47983 56.5896 8.47983Z" stroke="#3F3D56" stroke-miterlimit="10"/>
<path d="M63.8152 8.47983C64.9789 8.47983 65.9223 7.43873 65.9223 6.15447C65.9223 4.8702 64.9789 3.8291 63.8152 3.8291C62.6514 3.8291 61.708 4.8702 61.708 6.15447C61.708 7.43873 62.6514 8.47983 63.8152 8.47983Z" stroke="#3F3D56" stroke-miterlimit="10"/>
<path d="M10.5477 68.9544C11.4694 68.5046 12.2839 67.8246 12.9269 66.9682C13.5699 66.1117 14.0239 65.1021 14.253 64.019C14.4822 62.9359 14.4802 61.8089 14.2473 60.7267C14.0144 59.6446 13.557 58.637 12.911 57.7832C12.265 56.9295 11.4481 56.253 10.5248 55.8071C9.60149 55.3611 8.59694 55.158 7.59033 55.2136C6.58372 55.2692 5.60257 55.582 4.72421 56.1274C3.84585 56.6729 3.0943 57.436 2.52878 58.3567L4.96612 60.8986L1.83484 59.8246C1.21904 61.5951 1.2654 63.563 1.96372 65.2958C2.20629 65.9049 2.52586 66.473 2.9129 66.9832C3.81822 68.1832 5.0533 69.0248 6.431 69.3805C7.8087 69.7362 9.25392 69.5866 10.5477 68.9544Z" fill="#57B894"/>
<path d="M43.1093 93.8868C40.7328 92.0467 40.7323 88.1837 41.3227 85.0469C41.913 81.9102 42.8141 78.488 41.4741 75.646C39.5483 71.5616 34.4861 71.3159 30.3326 70.8794C27.2507 70.555 24.2145 69.8287 21.2875 68.7156C20.114 68.2692 18.9388 67.7478 17.9779 66.8807C16.594 65.6321 15.7822 63.7906 15.0241 62.004C12.4989 56.0526 10.1018 50.0376 7.83301 43.959" stroke="#3F3D56" stroke-miterlimit="10"/>
<path d="M10.1434 68.0633C11.0651 67.6135 11.8796 66.9335 12.5226 66.0771C13.1656 65.2206 13.6196 64.211 13.8487 63.1279C14.0779 62.0448 14.0759 60.9178 13.843 59.8356C13.6101 58.7535 13.1527 57.7459 12.5067 56.8921C11.8607 56.0384 11.0438 55.3619 10.1205 54.916C9.1972 54.47 8.19264 54.2669 7.18603 54.3225C6.17942 54.3781 5.19827 54.6909 4.31991 55.2363C3.44156 55.7818 2.69 56.5449 2.12449 57.4655L4.56182 60.0075L1.43055 58.9335C0.814748 60.704 0.861103 62.6719 1.55942 64.4047C1.80199 65.0138 2.12157 65.5819 2.50861 66.0921C3.41392 67.2921 4.649 68.1337 6.0267 68.4894C7.4044 68.8451 8.84962 68.6955 10.1434 68.0633V68.0633Z" stroke="#3F3D56" stroke-miterlimit="10"/>
<path d="M2.21126 48.1461C1.76906 47.0456 1.58497 45.8399 1.67598 44.6401C1.76698 43.4404 2.13014 42.2853 2.732 41.2811L5.32392 43.4065L3.72426 39.9849C4.73338 38.947 6.01529 38.2899 7.38491 38.1084C8.75452 37.9269 10.141 38.2304 11.3441 38.9751C12.5472 39.7198 13.5047 40.8672 14.0784 42.2516C14.6521 43.636 14.8122 45.1858 14.5357 46.6772C14.2592 48.1686 13.5604 49.5245 12.5401 50.549C11.5199 51.5736 10.2309 52.2138 8.85947 52.3773C7.48799 52.5407 6.10492 52.219 4.90995 51.4585C3.71498 50.6979 2.76993 49.538 2.21126 48.1461Z" fill="#57B894"/>
<path d="M1.6722 46.9577C1.22999 45.8571 1.04591 44.6514 1.13691 43.4517C1.22792 42.2519 1.59108 41.0968 2.19293 40.0926L4.78485 42.218L3.18521 38.7964C4.19433 37.7585 5.47624 37.1014 6.84585 36.9199C8.21546 36.7384 9.60191 37.0419 10.805 37.7866C12.0081 38.5314 12.9657 39.6787 13.5393 41.0632C14.113 42.4476 14.2732 43.9974 13.9967 45.4888C13.7202 46.9802 13.0214 48.336 12.0011 49.3606C10.9808 50.3851 9.6919 51.0253 8.32042 51.1888C6.94894 51.3522 5.56587 51.0305 4.3709 50.27C3.17592 49.5095 2.23088 48.3495 1.67221 46.9577L1.6722 46.9577Z" stroke="#3F3D56" stroke-miterlimit="10"/>
<path d="M29.5535 71.8043C31.0145 71.0899 32.1862 69.8073 32.8453 68.2008C33.5044 66.5944 33.6048 64.7764 33.1274 63.0936C32.65 61.4107 31.6281 59.9805 30.2566 59.0756C28.885 58.1707 27.2597 57.8544 25.6904 58.187L26.9197 60.8163L24.2979 58.6652C24.2923 58.6673 24.2868 58.6698 24.2816 58.6729C23.5003 59.0549 22.7948 59.603 22.2054 60.2858C21.6161 60.9687 21.1543 61.773 20.8466 62.6528C20.2252 64.4296 20.2688 66.4061 20.9679 68.1475C21.667 69.8888 22.9643 71.2523 24.5744 71.9381C26.1845 72.6239 27.9756 72.5757 29.5535 71.8043Z" fill="#57B894"/>
<path d="M28.9706 70.6402C30.4316 69.9258 31.6033 68.6432 32.2624 67.0368C32.9215 65.4303 33.0219 63.6124 32.5445 61.9295C32.0671 60.2466 31.0452 58.8164 29.6736 57.9115C28.3021 57.0066 26.6768 56.6903 25.1075 57.0229L26.3368 59.6522L23.715 57.5012C23.7094 57.5032 23.7039 57.5058 23.6987 57.5088C22.9171 57.8906 22.2113 58.4386 21.6216 59.1214C21.032 59.8043 20.57 60.6087 20.2621 61.4886C19.9542 62.3685 19.8064 63.3068 19.8271 64.2498C19.8479 65.1928 20.0367 66.122 20.383 66.9844C20.7292 67.8468 21.226 68.6255 21.845 69.276C22.464 69.9265 23.193 70.436 23.9905 70.7755C24.788 71.115 25.6383 71.2778 26.4928 71.2545C27.3472 71.2313 28.1892 71.0226 28.9706 70.6402V70.6402Z" stroke="#3F3D56" stroke-miterlimit="10"/>
<path d="M32.1523 85.5854C33.3564 86.558 34.827 87.044 36.3174 86.962C37.8078 86.88 39.2273 86.235 40.3378 85.1352C41.4484 84.0353 42.1825 82.5475 42.4171 80.9212C42.6516 79.2949 42.3723 77.6291 41.626 76.2032C40.8796 74.7772 39.7117 73.6777 38.3181 73.0892C36.9244 72.5007 35.3897 72.459 33.9715 72.9709C32.5532 73.4829 31.3376 74.5174 30.5284 75.9011C29.7193 77.2847 29.3659 78.9333 29.5275 80.5704L34.6414 81.8283L30.1795 83.0123C30.6408 84.032 31.3174 84.9145 32.1523 85.5854Z" fill="#57B894"/>
<path d="M31.748 84.6938C32.9522 85.6664 34.4227 86.1524 35.9131 86.0704C37.4035 85.9884 38.823 85.3434 39.9335 84.2436C41.0441 83.1437 41.7782 81.6559 42.0128 80.0296C42.2473 78.4033 41.968 76.7375 41.2217 75.3116C40.4754 73.8856 39.3074 72.7861 37.9138 72.1976C36.5201 71.6091 34.9854 71.5674 33.5672 72.0793C32.1489 72.5913 30.9333 73.6258 30.1241 75.0095C29.315 76.3931 28.9616 78.0417 29.1232 79.6787L34.2372 80.9367L29.7752 82.1207C30.2365 83.1404 30.9131 84.0229 31.748 84.6938V84.6938Z" stroke="#3F3D56" stroke-miterlimit="10"/>
<path d="M314.38 153.278C315.236 153.782 316.187 154.059 317.157 154.087C318.127 154.116 319.09 153.896 319.969 153.444C320.849 152.992 321.621 152.32 322.226 151.483C322.83 150.645 323.25 149.664 323.452 148.617C323.654 147.57 323.633 146.485 323.391 145.448C323.148 144.411 322.691 143.451 322.055 142.642C321.419 141.834 320.621 141.2 319.725 140.79C318.828 140.379 317.858 140.205 316.89 140.279L316.593 143.826L315.47 140.571C313.889 141.108 312.566 142.316 311.791 143.929C311.517 144.494 311.317 145.099 311.197 145.725C310.911 147.195 311.067 148.727 311.642 150.09C312.216 151.453 313.177 152.573 314.38 153.278Z" fill="#57B894"/>
<path d="M316.611 195.311C316.463 192.231 319.114 189.936 321.618 188.566C324.122 187.196 327.006 185.916 328.161 183.107C329.82 179.07 326.981 174.693 324.813 170.962C323.204 168.193 321.899 165.223 320.924 162.115C320.533 160.869 320.193 159.577 320.217 158.258C320.252 156.36 321.034 154.587 321.81 152.892C324.395 147.245 327.099 141.668 329.924 136.16" stroke="#3F3D56" stroke-miterlimit="10"/>
<path d="M314.752 152.411C315.608 152.914 316.559 153.191 317.529 153.22C318.499 153.249 319.462 153.028 320.341 152.576C321.221 152.124 321.993 151.453 322.598 150.616C323.202 149.778 323.622 148.797 323.824 147.75C324.026 146.702 324.005 145.618 323.763 144.581C323.52 143.544 323.063 142.584 322.427 141.775C321.791 140.967 320.993 140.333 320.097 139.922C319.2 139.512 318.23 139.337 317.262 139.412L316.965 142.959L315.842 139.704C314.261 140.241 312.938 141.449 312.163 143.062C311.889 143.627 311.689 144.231 311.569 144.858C311.283 146.328 311.439 147.86 312.014 149.223C312.588 150.586 313.549 151.705 314.752 152.411V152.411Z" stroke="#3F3D56" stroke-miterlimit="10"/>
<path d="M323.709 133.948C324.202 132.924 324.92 132.054 325.797 131.417C326.675 130.78 327.684 130.398 328.73 130.304L328.811 133.734L330.21 130.364C331.522 130.59 332.734 131.272 333.673 132.309C334.611 133.346 335.226 134.685 335.43 136.133C335.634 137.581 335.415 139.063 334.805 140.365C334.196 141.668 333.227 142.722 332.039 143.377C330.851 144.032 329.506 144.253 328.196 144.009C326.887 143.765 325.682 143.068 324.754 142.019C323.827 140.969 323.227 139.622 323.039 138.171C322.851 136.721 323.085 135.242 323.709 133.948Z" fill="#57B894"/>
<path d="M324.205 132.791C324.698 131.768 325.416 130.898 326.293 130.261C327.171 129.624 328.18 129.241 329.227 129.148L329.308 132.577L330.706 129.207C332.018 129.434 333.23 130.115 334.169 131.152C335.107 132.189 335.722 133.529 335.926 134.977C336.13 136.425 335.911 137.907 335.302 139.209C334.692 140.511 333.724 141.566 332.536 142.221C331.348 142.876 330.002 143.097 328.692 142.853C327.383 142.609 326.178 141.912 325.251 140.863C324.324 139.813 323.723 138.466 323.535 137.015C323.347 135.564 323.582 134.085 324.205 132.791Z" stroke="#3F3D56" stroke-miterlimit="10"/>
<path d="M323.716 170.859C325.075 171.656 326.651 171.873 328.145 171.47C329.64 171.066 330.947 170.07 331.819 168.671C332.69 167.272 333.065 165.568 332.871 163.884C332.677 162.2 331.929 160.654 330.768 159.539L329.694 162.129L329.612 158.659C329.608 158.656 329.603 158.653 329.597 158.65C328.871 158.224 328.075 157.959 327.256 157.871C326.437 157.784 325.61 157.876 324.823 158.141C324.036 158.406 323.304 158.84 322.669 159.418C322.034 159.995 321.508 160.706 321.122 161.507C320.735 162.309 320.496 163.188 320.417 164.092C320.339 164.996 320.422 165.908 320.663 166.776C320.904 167.645 321.298 168.452 321.822 169.153C322.345 169.853 322.989 170.433 323.716 170.859V170.859Z" fill="#57B894"/>
<path d="M324.167 169.68C325.526 170.477 327.102 170.694 328.596 170.291C330.091 169.888 331.398 168.891 332.27 167.492C333.141 166.093 333.516 164.39 333.322 162.705C333.128 161.021 332.38 159.475 331.219 158.361L330.145 160.95L330.063 157.481C330.059 157.477 330.054 157.474 330.049 157.472C329.322 157.045 328.527 156.78 327.708 156.693C326.888 156.606 326.062 156.698 325.275 156.963C324.488 157.228 323.756 157.662 323.121 158.24C322.486 158.817 321.96 159.527 321.574 160.329C321.188 161.131 320.948 162.009 320.87 162.913C320.791 163.817 320.874 164.729 321.115 165.598C321.356 166.466 321.749 167.274 322.273 167.974C322.797 168.675 323.44 169.254 324.167 169.68V169.68Z" stroke="#3F3D56" stroke-miterlimit="10"/>
<path d="M315.799 181.219C315.847 182.803 316.387 184.321 317.329 185.518C318.27 186.715 319.556 187.519 320.971 187.793C322.386 188.068 323.843 187.798 325.099 187.028C326.355 186.258 327.332 185.035 327.867 183.563C328.403 182.092 328.464 180.463 328.04 178.948C327.615 177.434 326.732 176.126 325.538 175.245C324.344 174.363 322.912 173.962 321.481 174.107C320.051 174.253 318.709 174.937 317.682 176.045L319.857 181.067L316.393 178.041C315.967 179.032 315.763 180.122 315.799 181.219Z" fill="#57B894"/>
<path d="M316.172 180.351C316.22 181.936 316.76 183.454 317.702 184.651C318.643 185.848 319.93 186.651 321.344 186.926C322.759 187.201 324.216 186.931 325.472 186.161C326.728 185.391 327.705 184.167 328.241 182.696C328.776 181.225 328.837 179.596 328.413 178.081C327.989 176.566 327.105 175.259 325.911 174.377C324.717 173.496 323.285 173.094 321.855 173.24C320.424 173.386 319.083 174.07 318.055 175.178L320.23 180.2L316.766 177.173C316.34 178.165 316.136 179.255 316.172 180.351Z" stroke="#3F3D56" stroke-miterlimit="10"/>
<path d="M35.532 40.3861C36.4538 39.9362 37.2683 39.2563 37.9113 38.3998C38.5543 37.5434 39.0083 36.5338 39.2374 35.4507C39.4666 34.3676 39.4646 33.2405 39.2317 32.1584C38.9988 31.0763 38.5413 30.0686 37.8953 29.2149C37.2494 28.3611 36.4325 27.6846 35.5092 27.2387C34.5859 26.7928 33.5813 26.5896 32.5747 26.6452C31.5681 26.7008 30.5869 27.0137 29.7086 27.5591C28.8302 28.1045 28.0787 28.8677 27.5132 29.7883L29.9505 32.3302L26.8192 31.2563C26.2034 33.0268 26.2498 34.9946 26.9481 36.7274C27.1907 37.3366 27.5102 37.9047 27.8973 38.4149C28.8026 39.6148 30.0377 40.4564 31.4154 40.8121C32.7931 41.1678 34.2383 41.0183 35.532 40.3861Z" fill="#57B894"/>
<path d="M42.9622 38.3124C41.5783 37.0637 40.7666 35.2222 40.0085 33.4357C37.4833 27.4842 35.0862 21.4692 32.8174 15.3906" stroke="#3F3D56" stroke-miterlimit="10"/>
<path d="M35.1277 39.4949C36.0495 39.0451 36.864 38.3652 37.507 37.5087C38.15 36.6522 38.604 35.6427 38.8331 34.5596C39.0623 33.4764 39.0603 32.3494 38.8274 31.2673C38.5945 30.1851 38.137 29.1775 37.491 28.3238C36.845 27.47 36.0282 26.7935 35.1049 26.3476C34.1816 25.9017 33.177 25.6985 32.1704 25.7541C31.1638 25.8097 30.1826 26.1225 29.3043 26.668C28.4259 27.2134 27.6744 27.9765 27.1089 28.8972L29.5462 31.4391L26.4149 30.3652C25.7991 32.1357 25.8455 34.1035 26.5438 35.8363C26.7864 36.4454 27.1059 37.0136 27.493 37.5237C28.3983 38.7237 29.6334 39.5653 31.0111 39.921C32.3888 40.2767 33.834 40.1271 35.1277 39.4949V39.4949Z" stroke="#3F3D56" stroke-miterlimit="10"/>
<path d="M27.1966 19.5778C26.7544 18.4772 26.5703 17.2715 26.6613 16.0718C26.7523 14.872 27.1155 13.7169 27.7174 12.7127L30.3093 14.8381L28.7096 11.4166C29.7187 10.3787 31.0006 9.72151 32.3703 9.54C33.7399 9.3585 35.1263 9.66202 36.3294 10.4067C37.5325 11.1515 38.4901 12.2989 39.0637 13.6833C39.6374 15.0677 39.7976 16.6175 39.5211 18.1089C39.2446 19.6003 38.5458 20.9561 37.5255 21.9807C36.5052 23.0052 35.2163 23.6454 33.8448 23.8089C32.4733 23.9724 31.0903 23.6506 29.8953 22.8901C28.7003 22.1296 27.7553 20.9696 27.1966 19.5778V19.5778Z" fill="#57B894"/>
<path d="M26.6585 18.3893C26.2163 17.2887 26.0322 16.083 26.1232 14.8833C26.2142 13.6836 26.5774 12.5284 27.1793 11.5243L29.7712 13.6496L28.1715 10.2281C29.1807 9.19018 30.4626 8.53304 31.8322 8.35153C33.2018 8.17002 34.5882 8.47354 35.7914 9.21827C36.9945 9.96299 37.952 11.1104 38.5257 12.4948C39.0993 13.8792 39.2595 15.429 38.983 16.9204C38.7065 18.4118 38.0077 19.7677 36.9874 20.7922C35.9672 21.8167 34.6782 22.457 33.3068 22.6204C31.9353 22.7839 30.5522 22.4621 29.3572 21.7016C28.1623 20.9411 27.2172 19.7812 26.6585 18.3893L26.6585 18.3893Z" stroke="#3F3D56" stroke-miterlimit="10"/>
<path d="M122.432 11.2485V182.805" stroke="#3F3D56" stroke-miterlimit="10"/>
<path d="M195.128 95.5967H150.878V102.24H195.128V95.5967Z" fill="#F2F2F2"/>
<path d="M264.664 95.5967H220.414V102.24H264.664V95.5967Z" fill="#F2F2F2"/>
<path d="M197.536 92.2749H153.286V98.9187H197.536V92.2749Z" stroke="#3F3D56" stroke-miterlimit="10"/>
<path d="M195.128 147.086H150.878V153.73H195.128V147.086Z" fill="#F2F2F2"/>
<path d="M197.536 143.764H153.286V150.408H197.536V143.764Z" stroke="#3F3D56" stroke-miterlimit="10"/>
<path d="M264.814 120.677H151.028V127.321H264.814V120.677Z" fill="#F2F2F2"/>
<path d="M267.222 118.02H153.437V124.663H267.222V118.02Z" stroke="#3F3D56" stroke-miterlimit="10"/>
<path d="M267.072 92.2749H222.822V98.9187H267.072V92.2749Z" stroke="#3F3D56" stroke-miterlimit="10"/>
<path opacity="0.1" d="M282.231 161.859C282.231 161.859 278.554 164.866 277.536 165.083C276.519 165.3 282.231 161.859 282.231 161.859Z" fill="black"/>
<path d="M272.894 113.943C273.28 113.734 273.619 113.435 273.888 113.067C274.157 112.698 274.35 112.269 274.452 111.81C274.554 111.35 274.564 110.871 274.48 110.407C274.396 109.943 274.221 109.505 273.966 109.124L279.892 99.6568L274.467 99.532L269.672 108.541C269.119 109.054 268.755 109.772 268.651 110.56C268.546 111.348 268.708 112.152 269.105 112.817C269.503 113.483 270.108 113.966 270.806 114.173C271.504 114.381 272.247 114.299 272.894 113.943Z" fill="#FFB6B6"/>
<path d="M309.017 194.833L305.452 195.219L302.397 180.258L307.658 179.687L309.017 194.833Z" fill="#FFB6B6"/>
<path d="M309.813 193.453L308.809 193.561L304.735 192.231L302.792 194.214L302.792 194.214C301.606 194.342 300.514 194.985 299.758 196C299.002 197.015 298.643 198.32 298.761 199.627L298.775 199.787L310.269 198.541L309.813 193.453Z" fill="#828EFF"/>
<path d="M294.982 193.856L291.582 195.098L285.61 181.244L290.627 179.411L294.982 193.856Z" fill="#FFB6B6"/>
<path d="M295.479 192.317L294.522 192.667L290.282 192.358L288.784 194.763L288.784 194.763C287.652 195.176 286.717 196.068 286.182 197.242C285.648 198.415 285.559 199.775 285.934 201.022L285.98 201.174L296.942 197.17L295.479 192.317Z" fill="#828EFF"/>
<path d="M308.55 116.218L308.898 156.35C308.898 156.35 312.25 180.103 309.107 188.93L303.454 189.543L297.561 155.377L295.133 132.279L284.767 153.112L295.854 189.798L288.959 191.238L272.778 151.875L283.107 112.155L308.55 116.218Z" fill="#828EFF"/>
<path d="M299.487 53.2307C294.896 53.7286 290.806 50.0323 290.352 44.9748C289.898 39.9174 293.252 35.4139 297.843 34.9161C302.434 34.4182 306.524 38.1145 306.978 43.172C307.432 48.2294 304.078 52.7329 299.487 53.2307Z" fill="#FFB8B8"/>
<path d="M282.818 63.8498L292.187 59.5791L293.061 55.1854L303.585 55.9142L306.159 59.8318L313.938 66.3558L309.323 108.83L310.391 117.881C310.391 117.881 305.287 121.11 281.573 117.523C281.288 117.48 281.841 117.096 281.841 117.096L282.818 63.8498Z" fill="#002DCD"/>
<path d="M277.759 110.666L287.582 92.7391L288.134 62.7946L288.036 62.755C287.118 62.3852 286.13 62.2726 285.163 62.4274C284.196 62.5822 283.278 62.9995 282.494 63.6418C281.71 64.284 281.083 65.1311 280.669 66.1068C280.256 67.0825 280.07 68.1562 280.127 69.2312L281.101 87.5924L271.324 105.156L277.759 110.666Z" fill="#002DCD"/>
<path d="M307.776 48.3323C307.826 48.239 307.875 48.145 307.924 48.0503C307.952 48.1009 307.975 48.1539 308.006 48.203L307.776 48.3323Z" fill="#828EFF"/>
<path d="M289.792 38.2718C290.228 36.878 291.125 35.7163 292.303 35.0173C293.472 34.344 294.834 34.1976 296.1 34.6092C297.13 33.7252 298.297 32.9864 299.576 32.7718C300.856 32.5573 302.263 32.9354 303.159 34.0063C303.363 34.2925 303.59 34.5584 303.837 34.8008C304.532 35.3816 305.492 35.1829 306.327 34.9582C305.979 35.3579 305.632 35.7576 305.284 36.1574C305.755 36.2398 306.227 36.3223 306.699 36.4047C306.194 36.8213 305.69 37.2379 305.186 37.6545C306.836 38.5154 307.745 40.6862 307.742 42.7477C307.738 44.6995 307.05 46.5585 306.178 48.2391C305.69 47.3439 305.676 46.211 305.588 45.1528C305.495 44.0347 305.201 42.7853 304.332 42.249C303.746 41.8872 303.039 41.9449 302.379 42.0205C299.045 42.4023 295.734 42.9926 292.462 43.7886C292.015 43.8588 291.589 44.0463 291.221 44.3353C290.538 44.965 290.498 46.1162 290.513 47.1205C289.979 45.5173 289.637 43.844 289.498 42.1432C289.348 40.8441 289.449 39.5251 289.792 38.2718Z" fill="#828EFF"/>
<path d="M300.59 149.344C293.364 150.127 286.926 144.31 286.211 136.35C285.497 128.39 290.776 121.301 298.002 120.518C305.229 119.734 311.666 125.552 312.381 133.512C313.095 141.472 307.817 148.56 300.59 149.344Z" fill="#F0F0F0"/>
<path d="M297.973 120.198C298.646 120.125 299.322 120.108 299.997 120.147C300.342 120.164 300.68 120.199 301.017 120.249C303.486 120.601 305.818 121.7 307.753 123.426C309.688 125.152 311.15 127.436 311.975 130.023C312.801 132.61 312.958 135.398 312.429 138.077C311.9 140.756 310.705 143.22 308.978 145.194C308.773 145.427 308.564 145.653 308.346 145.871C306.774 147.449 304.883 148.593 302.831 149.209C300.778 149.825 298.622 149.895 296.539 149.414C294.456 148.933 292.507 147.914 290.852 146.441C289.196 144.968 287.881 143.083 287.016 140.941C286.151 138.8 285.76 136.463 285.875 134.123C285.989 131.782 286.607 129.506 287.677 127.481C288.747 125.455 290.238 123.739 292.028 122.473C293.818 121.207 295.856 120.427 297.973 120.198L297.973 120.198ZM300.561 149.024C303.282 148.732 305.845 147.487 307.876 145.472C308.097 145.254 308.309 145.031 308.514 144.795C310.198 142.889 311.359 140.498 311.866 137.897C312.372 135.296 312.203 132.59 311.377 130.09C310.551 127.59 309.102 125.396 307.197 123.761C305.291 122.125 303.006 121.115 300.603 120.844C300.271 120.806 299.94 120.783 299.604 120.775C299.079 120.76 298.554 120.781 298.031 120.838C294.638 121.206 291.517 123.044 289.355 125.947C287.193 128.85 286.166 132.581 286.502 136.318C286.837 140.056 288.507 143.494 291.144 145.877C293.78 148.26 297.168 149.392 300.561 149.024Z" fill="#002DCD"/>
<path d="M305.435 131.355L292.641 132.742C292.159 132.795 291.73 132.407 291.682 131.876C291.635 131.345 291.987 130.873 292.468 130.821L305.262 129.433C305.744 129.381 306.173 129.769 306.221 130.3C306.268 130.83 305.917 131.303 305.435 131.355Z" fill="#0050FF"/>
<path d="M305.779 135.198L292.986 136.586C292.504 136.638 292.075 136.25 292.027 135.719C291.979 135.189 292.331 134.716 292.813 134.664L305.607 133.277C306.089 133.224 306.518 133.612 306.566 134.143C306.613 134.674 306.261 135.146 305.779 135.198Z" fill="#0050FF"/>
<path d="M306.125 139.042L293.331 140.429C292.85 140.481 292.42 140.093 292.373 139.563C292.325 139.032 292.677 138.559 293.159 138.507L305.953 137.12C306.434 137.068 306.864 137.455 306.911 137.986C306.959 138.517 306.607 138.989 306.125 139.042Z" fill="#0050FF"/>
<path d="M297.533 124.7C297.949 124.583 298.336 124.366 298.668 124.066C298.999 123.765 299.267 123.388 299.452 122.961C299.637 122.534 299.735 122.068 299.739 121.595C299.743 121.122 299.652 120.654 299.474 120.223L307.026 112.285L301.737 110.946L295.376 118.689C294.74 119.067 294.251 119.689 294.003 120.437C293.755 121.185 293.765 122.008 294.031 122.749C294.297 123.49 294.8 124.098 295.445 124.457C296.091 124.817 296.833 124.904 297.533 124.7L297.533 124.7Z" fill="#FFB6B6"/>
<path d="M308.885 66.7847L313.936 66.3559C315.015 67.2519 315.912 68.3871 316.568 69.6881C317.224 70.9891 317.625 72.427 317.746 73.9091L320.101 100.144L302.751 119.613L296.049 113.753L308.61 95.3314L308.885 66.7847Z" fill="#002DCD"/>
<path d="M81.7216 112.47C92.4862 112.47 101.213 103.07 101.213 91.474C101.213 79.878 92.4862 70.4775 81.7216 70.4775C70.9569 70.4775 62.2305 79.878 62.2305 91.474C62.2305 103.07 70.9569 112.47 81.7216 112.47Z" fill="#0045FF"/>
<path d="M88.3361 80.8832C85.7412 86.0827 83.1463 91.2822 80.5514 96.4817C78.8976 93.2662 77.2528 90.045 75.595 86.832C75.0224 85.7224 73.465 86.7204 74.039 87.8328C75.9609 91.5574 77.8628 95.2944 79.7846 99.019C80.1132 99.6558 81.0154 99.6706 81.3406 99.019C84.1911 93.3073 87.0416 87.5957 89.892 81.884C90.4506 80.7649 88.895 79.7632 88.3361 80.8832H88.3361Z" fill="white"/>
</svg>
