<svg width="30" height="31" viewBox="0 0 30 31" fill="none" xmlns="http://www.w3.org/2000/svg">
<path d="M12.75 12.5C13.9926 12.5 15 11.4926 15 10.25C15 9.00736 13.9926 8 12.75 8C11.5074 8 10.5 9.00736 10.5 10.25C10.5 11.4926 11.5074 12.5 12.75 12.5Z" fill="#6494FF"/>
<path d="M9.75 20C10.9926 20 12 18.9926 12 17.75C12 16.5074 10.9926 15.5 9.75 15.5C8.50736 15.5 7.5 16.5074 7.5 17.75C7.5 18.9926 8.50736 20 9.75 20Z" fill="#6494FF"/>
<path d="M19.5 21.5C20.3284 21.5 21 20.8284 21 20C21 19.1716 20.3284 18.5 19.5 18.5C18.6716 18.5 18 19.1716 18 20C18 20.8284 18.6716 21.5 19.5 21.5Z" fill="#6494FF"/>
<path d="M29.925 13.9852C27.24 13.9402 24.375 11.0602 25.905 7.65524C21.45 9.15524 17.235 5.27024 18.12 0.815238C7.665 -1.38976 0 7.11524 0 15.5002C0 23.7802 6.72 30.5002 15 30.5002C23.835 30.5002 30.81 22.8802 29.925 13.9852ZM15 27.5002C8.385 27.5002 3 22.1152 3 15.5002C3 10.5352 7.095 3.23024 15.12 3.47024C15.75 7.28024 18.78 10.3102 22.605 10.8802C22.71 11.4202 23.385 14.7052 26.985 16.3252C26.55 22.7902 21.09 27.5002 15 27.5002Z" fill="#6494FF"/>
</svg>
