<svg width="40" height="40" viewBox="0 0 40 40" fill="none" xmlns="http://www.w3.org/2000/svg">
<path d="M33.334 6.66675H6.66732C4.81732 6.66675 3.35065 8.15008 3.35065 10.0001L3.33398 30.0001C3.33398 31.8501 4.81732 33.3334 6.66732 33.3334H15.0007V30.0001H6.66732V20.0001H36.6673V10.0001C36.6673 8.15008 35.184 6.66675 33.334 6.66675ZM33.334 13.3334H6.66732V10.0001H33.334V13.3334Z" fill="#D32F2F"/>
<path d="M35.6667 30.3167L33.3167 32.6667L29.8333 29.2L26.35 32.6667L24 30.3167L27.4833 26.8333L24 23.35L26.35 21L29.8333 24.4833L33.3167 21L35.6667 23.35L32.2 26.8333L35.6667 30.3167Z" fill="#D32F2F"/>
</svg>
