<svg id="Layer_1" data-name="Layer 1" xmlns="http://www.w3.org/2000/svg" viewBox="0 0 93.45 93.45"><title>customer</title><path d="M85.72,54.3a7,7,0,1,1,7-7A7,7,0,0,1,85.72,54.3Zm0-11.22A4.26,4.26,0,1,0,90,47.34,4.26,4.26,0,0,0,85.72,43.08Z" style="fill:#fff"/><path d="M54.49,54.3a7,7,0,1,1,7-7A7,7,0,0,1,54.49,54.3Zm0-11.22a4.26,4.26,0,1,0,4.25,4.26A4.26,4.26,0,0,0,54.49,43.08Z" style="fill:#fff"/><path d="M40.08,54.3a7,7,0,1,1,7-7A7,7,0,0,1,40.08,54.3Zm0-11.22a4.26,4.26,0,1,0,4.26,4.26A4.26,4.26,0,0,0,40.08,43.08Z" style="fill:#fff"/><path d="M75.14,54.3a6.42,6.42,0,0,1-6.41-6.41V44h2.7v3.87a3.71,3.71,0,0,0,7.42,0h2.7A6.42,6.42,0,0,1,75.14,54.3Z" style="fill:#fff"/><path d="M61.38,58.55h-2.7V47.89h2.7a3.71,3.71,0,0,0,7.42,0h2.7a6.4,6.4,0,0,1-10.12,5.22Z" style="fill:#fff"/><circle cx="68.79" cy="57.15" r="2.2" style="fill:#fff"/><circle cx="64.42" cy="57.15" r="2.2" style="fill:#fff"/><path d="M4.71,39.25A4.56,4.56,0,0,1,6,43.14,4.54,4.54,0,0,1,.82,38,4.53,4.53,0,0,1,4.71,39.25Z" style="fill:#fff"/><g style="opacity:0.5"><path d="M12.16,47.34a7,7,0,0,1-7,7v-.92a2.16,2.16,0,0,1,1.42-2A4.26,4.26,0,0,0,5.2,43.08v-2.7a7,7,0,0,1,6.63,4.84A6.77,6.77,0,0,1,12.16,47.34Z" style="fill:#fff"/><path d="M28.39,36.8V48.21a3.39,3.39,0,0,1-3.72,3.37,3.48,3.48,0,0,1-3-3.46V46.43h0V45.22h0a2.7,2.7,0,0,0-2.7,2.71v.21a3.42,3.42,0,0,1-2.62,3.37,3.39,3.39,0,0,1-4.15-3.3v-.87a6.77,6.77,0,0,0-.33-2.12H9.46v3a6.1,6.1,0,0,0,6.08,6.09A6.12,6.12,0,0,0,20.3,52s0,0,0,0a5.93,5.93,0,0,0,4.27,2.29,6.09,6.09,0,0,0,6.51-6.07V34.09A2.71,2.71,0,0,0,28.39,36.8Z" style="fill:#fff"/><circle cx="20.48" cy="40.36" r="2.94" style="fill:#fff"/></g><g style="opacity:0.7000000000000001"><path d="M7.53,39.71A4.24,4.24,0,0,1,5.8,43.13a4.26,4.26,0,0,1,0-6.84A4.24,4.24,0,0,1,7.53,39.71Z" style="fill:#fff"/></g></svg>