<svg id="Layer_1" data-name="Layer 1" xmlns="http://www.w3.org/2000/svg" viewBox="0 0 93.45 93.45"><title>customer</title><path d="M20.85,53.54a2.51,2.51,0,0,0,1.7-.38,6.43,6.43,0,0,1,.78-.24c.31-.11.62-.25.94-.33s.57-.1.85-.17.6-.18.89-.27a4,4,0,0,1,.87-.24,3.51,3.51,0,0,0,.92-.28c.43-.15.88-.23,1.33-.34l.67-.14c.44-.1.88-.19,1.3-.31s1-.35,1.49-.5c.29-.09.6-.13.89-.22s.84-.29,1.27-.41.64-.12,1-.19a1.52,1.52,0,0,0,.47-.15,1.78,1.78,0,0,1,1.31-.24A2,2,0,0,0,38.72,49a1.76,1.76,0,0,1,.41-.07l.82-.1a.55.55,0,0,0,.46-.37.82.82,0,0,1,.68-.43c.47-.09.92-.24,1.37-.37.22-.06.44-.14.66-.21s.44-.16.66-.21a1.24,1.24,0,0,1,.54,0A1.07,1.07,0,0,0,45.5,47a3.06,3.06,0,0,1,2-.8,6.45,6.45,0,0,0,1.3-.35c.27-.07.54-.14.81-.23l.87-.32.89-.27c.31-.1.61-.22.91-.31a1.77,1.77,0,0,1,.63-.13,1.93,1.93,0,0,0,1.4-.34.94.94,0,0,1,.39-.11,7,7,0,0,0,2-.5,5.81,5.81,0,0,1,.63-.21c.29-.07.59-.11.88-.18s.5-.16.75-.25c.09,0,.17-.13.26-.15a8.15,8.15,0,0,1,1.54-.21A2,2,0,0,0,62,42.41,3.2,3.2,0,0,1,63.21,42q1-.23,2.07-.48c.1,0,.18-.12.27-.17s.3-.19.43-.17a2.32,2.32,0,0,0,1.19-.28c.26-.08.51-.16.77-.26.43-.16.85-.34,1.29-.5.22-.09.46-.14.69-.22s.67-.26,1-.34a6.25,6.25,0,0,1,.87-.09,3,3,0,0,0,.58-.11,2.78,2.78,0,0,0,.41-.29.82.82,0,0,1,.8-.14c.27.12.5,0,.71-.19s.16-.17.25-.25a.76.76,0,0,1,.7-.19,2.75,2.75,0,0,0,1.49-.24,7.85,7.85,0,0,1,1-.26l.33-.09c.38-.12.76-.23,1.13-.36l1.43-.5c.27-.09.56-.16.83-.23s.29,0,.37-.08A2.42,2.42,0,0,1,83,36c.41-.08.79-.27,1.19-.39a.77.77,0,0,1,.91.36c.23.37.52.48.8.27a.54.54,0,0,0,.17-.38c0-.07-.14-.17-.24-.23s-.25-.06-.33-.13a1,1,0,0,1-.18-.33,1.89,1.89,0,0,1,.33-.13.49.49,0,0,1,.23.11.65.65,0,0,0,.73,0,.8.8,0,0,1,1.1.24,4,4,0,0,1,.44.93c.12.38-.12.62-.5.57a.81.81,0,0,0-.88.28.63.63,0,0,1-.38.22.65.65,0,0,0-.54.55c0,.23-.22.3-.43.38a5.24,5.24,0,0,0-1.58.52.43.43,0,0,1-.63-.1.66.66,0,0,0-.8-.28l-1.06.34a7.08,7.08,0,0,1-.75.22c-.39.07-.78.11-1.17.17a1.73,1.73,0,0,0-.42.14.65.65,0,0,0-.16.13c-.45.39-.8.91-1.53.87-.44,0-.63.42-.81.75a1.63,1.63,0,0,0-.15.82,3,3,0,0,1-.32,1.38c-.12.31-.18.64-.27,1s-.27.85-.4,1.28c0,.1,0,.21-.06.31-.08.34-.16.68-.25,1s-.22.73-.35,1.09-.2.46-.29.69-.26.75-.42,1.11-.35.63-.5.95c-.25.51-.48,1-.71,1.52a.62.62,0,0,1-.15.25c-.43.32-.49.84-.73,1.27-.34.6-.7,1.19-1,1.81a9,9,0,0,1-.8,1.29L69.25,58c-.16.23-.3.46-.44.7,0,.06-.06.14-.1.2-.41.46-.83.91-1.22,1.39s-.63.84-.93,1.27l-1.49,2.16c-.09.13-.22.23-.32.35s-.38.5-.57.74-.51.55-.73.85-.47.79-.75,1.15-.6.63-.89,1-.37.46-.56.68-.3.28-.43.44l-1.24,1.5-.22.24-.52.66-.3.37-1.45,1.85a9.32,9.32,0,0,0-.82,1.13c-.29.49-.71.86-1,1.32a15.62,15.62,0,0,1-1.93,2.37,7.4,7.4,0,0,0-.69,1,.67.67,0,0,1-.14.15,19.52,19.52,0,0,0-1.9,2.35v0c-.35.41-.7.81-1.06,1.21s-.93,1-1.37,1.51-1,1.24-1.57,1.85c-.28.33-.42.3-.65-.06L45.08,85a.3.3,0,0,0-.08-.08,16.71,16.71,0,0,1-2-2.33c-.46-.54-.93-1.07-1.39-1.6s-1-1.17-1.51-1.78a16.83,16.83,0,0,1-1.23-1.8,10,10,0,0,0-2.39-2.81A14.08,14.08,0,0,1,34.9,73c-.74-.8-1.37-1.7-2-2.57a.89.89,0,0,1-.19-.45c0-.27-.21-.39-.35-.55l-.74-.87a.69.69,0,0,0-.14-.15,6.67,6.67,0,0,1-1.32-1.67s0-.07-.05-.1a13.66,13.66,0,0,0-1.91-2,5.87,5.87,0,0,1-.7-.92l-.69-.84a3.73,3.73,0,0,1-.4-.51,2.27,2.27,0,0,0-.62-.69,3.65,3.65,0,0,1-.66-.79c-.41-.54-.82-1.09-1.22-1.65-.14-.19-.26-.41-.39-.61s-.12-.21-.21-.24a1.3,1.3,0,0,1-.69-.83.62.62,0,0,0-.11-.17,3.06,3.06,0,0,1-.72-.95c-.17-.34-.77-.38-1.21-.16a6.44,6.44,0,0,1-.88.28,7.09,7.09,0,0,0-1,.35,2.25,2.25,0,0,1-.91.25,2.88,2.88,0,0,0-.7.18,1.65,1.65,0,0,1-.48.1,4.41,4.41,0,0,0-1.79.4,2.11,2.11,0,0,1-.66.15,4,4,0,0,0-1.39.32c-.42.2-.92.25-1.31.48A2.49,2.49,0,0,1,9.74,59a.68.68,0,0,1-.61-.48c-.13-.31-.21-.63-.35-.93a.33.33,0,0,1,.07-.45,4.09,4.09,0,0,1,.68-.38,3.38,3.38,0,0,1,.63-.23c.33-.08.68-.12,1-.19.15,0,.29-.11.44-.16a3.65,3.65,0,0,1,.82-.29,2.41,2.41,0,0,0,1.3-.41.64.64,0,0,1,.28-.06,3.48,3.48,0,0,0,2-.54.23.23,0,0,1,.14,0,4,4,0,0,0,1.64-.43,4,4,0,0,1,1.14-.25,2.37,2.37,0,0,0,1.38-.45A1.64,1.64,0,0,1,20.85,53.54Zm42-4.38a.86.86,0,0,0,.53-.51c.08-.26.18-.52.26-.78a1.44,1.44,0,0,0,0-.3,2.9,2.9,0,0,1-.48.53.55.55,0,0,0-.28.48c0,.2,0,.39,0,.59-.48.08-.68.38-.61.93a.38.38,0,0,0,.45-.28C62.79,49.61,62.82,49.38,62.87,49.16ZM48.43,80.61c.33.12.62.11.72-.06s.26-.46,0-.71a.26.26,0,0,1,0-.21c.11-.14.25-.25.37-.38s.31-.37.48-.53a1.62,1.62,0,0,1,.46-.33c.16-.07.28-.11.29-.31a.92.92,0,0,1,.47-.78.86.86,0,0,0,.25-.31c.08-.16.11-.39.23-.46a1.26,1.26,0,0,0,.54-.6,3.28,3.28,0,0,1,.39-.53c.23-.27.38-.27.62,0,.06.06.17.06.26.09s.06-.23,0-.28a.46.46,0,0,1,0-.6c.18-.26.35-.52.54-.77.56-.76,1.13-1.52,1.7-2.27a.7.7,0,0,1,.16-.13,1.43,1.43,0,0,0,.72-1,.43.43,0,0,1,.12-.23l.88-.82A3.15,3.15,0,0,0,58,69L59.41,67c.08-.12.14-.26.23-.37s.39-.48.6-.7a3.34,3.34,0,0,1,.64-.61c.1-.07.32.06.49.08a.77.77,0,0,0,.24-.06c0-.08-.07-.2-.14-.22-.26-.09-.28-.29-.22-.5a.45.45,0,0,1,.2-.25,4.16,4.16,0,0,0,1.17-1.23c.09-.13.24-.23.34-.36.52-.78,1-1.57,1.55-2.34.08-.12.21-.19.3-.3s.2-.28.31-.42l.25-.29.62-.76a4.44,4.44,0,0,1,.6-.69.44.44,0,0,0,.24-.39.81.81,0,0,1,.29-.61,8.48,8.48,0,0,0,1-1.14c.48-.66.91-1.35,1.35-2a4.68,4.68,0,0,0,.2-.45c.12-.23.12-.55.41-.66s.3-.3.33-.53a1.25,1.25,0,0,1,.5-.94,1.34,1.34,0,0,0,.37-.55c.18-.43.32-.87.48-1.3l.26-.69a1.94,1.94,0,0,1,.17-.42,2.42,2.42,0,0,0,.44-1.12,2.55,2.55,0,0,1,.28-.64,1.6,1.6,0,0,0,.19-.47,3.75,3.75,0,0,1,.32-1.34,3.17,3.17,0,0,0,.24-.94c.11-.56-.06-1.22.6-1.6a.43.43,0,0,0,0-.66.51.51,0,0,0-.74-.07,2.27,2.27,0,0,1-.48.27c-.45.15-.9.28-1.36.41l-.7.19-.92.24a7.72,7.72,0,0,1-1.32.33,3.28,3.28,0,0,0-1.28.49c-.23.12-.15.36-.22.54-.21.47-.46.92-.65,1.4a2.54,2.54,0,0,0-.36,1.32.36.36,0,0,1,0,.18c-.21.41-.41.83-.63,1.24l-1,1.74a10.91,10.91,0,0,1-1.58,2.45s0,.1-.07.15c-.2.32-.39.64-.6,1s-.41.56-.63.84c-.07.09-.17.17-.24.25s-.3.34-.44.52-.24.35-.37.52c-.23.33-.47.65-.69,1s-.41.66-.66.95a5,5,0,0,0-.78,1,5.8,5.8,0,0,1-.68.82c-.56.73-1.09,1.5-1.69,2.21a18.59,18.59,0,0,0-1.44,1.75c-.5.75-1.1,1.43-1.66,2.14-.17.21-.4.37-.57.58-.42.49-.81,1-1.22,1.48s-.64.75-.94,1.14-.44.62-.67.91-.36.4-.54.6a14.25,14.25,0,0,0-1,1.09,9.88,9.88,0,0,1-1.42,1.67,5,5,0,0,0-.47.45c-.21.23-.33.22-.5,0s-.27-.36-.41-.54-.3-.36-.43-.55a4.66,4.66,0,0,0-.54-.8,8.46,8.46,0,0,1-1-1.26c-.48-.65-1-1.25-1.57-1.87s-.88-1-1.29-1.45-.66-.87-1-1.3a.42.42,0,0,1-.08-.12,1.18,1.18,0,0,0-.5-.6,2.38,2.38,0,0,1-.41-.43,3.21,3.21,0,0,1-.19-.31l-1.11-1.39L35.74,60.6a9.82,9.82,0,0,1-.94-1.21,7.47,7.47,0,0,0-1.23-1.61c-.38-.39-.77-.76-1.14-1.15a2.18,2.18,0,0,1-.22-.31c-.31-.42-.6-.84-.92-1.25s-.47-.51-.68-.78a1.5,1.5,0,0,0-1.82-.37,2.08,2.08,0,0,1-1,.41,1.19,1.19,0,0,0-.54.15,7.36,7.36,0,0,1-1.93.72c-.44.08-.89.16-1.33.26a1.35,1.35,0,0,0-.26.18c.06.08.11.19.19.23a1.36,1.36,0,0,1,.65.78,1,1,0,0,0,.16.25c.48.53,1,1.05,1.44,1.59A5.48,5.48,0,0,1,27,59.56c.34.63,1,.95,1.34,1.6a6.83,6.83,0,0,0,1,1.26c.09.1.12.25.21.35L31,64.36c.47.54.93,1.1,1.4,1.64s.91,1,1.33,1.47a12.64,12.64,0,0,1,.8,1.12,5.88,5.88,0,0,0,1,1.4,12.6,12.6,0,0,1,.88.91.62.62,0,0,1,.15.22,1.16,1.16,0,0,0,.62.75.71.71,0,0,1,.33.5,4.78,4.78,0,0,0,.82,1.32.13.13,0,0,0,.1.06c.31,0,.45.28.58.53a1.18,1.18,0,0,0,.23.27l.59.73c.09.12.14.29.26.36a2.59,2.59,0,0,1,.88,1,14.18,14.18,0,0,0,1.47,1.81,28.32,28.32,0,0,0,2,2.06,1.55,1.55,0,0,1,.24.33c.12.19.21.4.34.58s.61.58.69,1a.35.35,0,0,0,.36.33.39.39,0,0,0,.47-.26c0-.13.1-.29.21-.35a2.2,2.2,0,0,0,.88-.75c0-.07.17-.08.26-.11a.55.55,0,0,0,.46-.45A2.24,2.24,0,0,1,48.43,80.61Zm3.71-17.47.12.1A1.76,1.76,0,0,0,52.6,63l1.84-2.18c.25-.3.52-.59.77-.89a.52.52,0,0,0,.12-.26,1.54,1.54,0,0,0,0-.3c-.11,0-.26,0-.33.13s-.19.35-.32.5-.26.23-.33.19-.17-.27-.08-.43.13-.18.19-.27.21-.26.3-.39c.29-.43.57-.86.86-1.28,0-.06.11-.09.16-.14a4.57,4.57,0,0,0,.44-.44c.2-.23.37-.48.56-.72s.23-.23.33-.37c.3-.39.59-.79.89-1.19l.9-1.16c.31-.41.61-.84.92-1.25.18-.23.39-.44.59-.66s.22-.28.49-.18a4,4,0,0,1-.26.46c-.46.62-.93,1.23-1.38,1.86-.27.37-.51.77-.77,1.15a1.13,1.13,0,0,1-.31.37.94.94,0,0,0-.45.63.68.68,0,0,1-.22.31c-.15.14-.33.25-.47.39s-.35.53-.6.64-.34.41-.31.69c0,.08.07.2.12.21a.38.38,0,0,0,.29-.09.6.6,0,0,0,.12-.32.51.51,0,0,1,.29-.44,1.52,1.52,0,0,0,.78-.87.38.38,0,0,1,.21-.22c.29-.12.38-.36.51-.61a3.08,3.08,0,0,1,.66-.93,1.35,1.35,0,0,0,.5-.7.92.92,0,0,1,.16-.31,5.42,5.42,0,0,1,.7-.8c.46-.38.58-1,.93-1.4a.32.32,0,0,0,0-.31.64.64,0,0,1-.08-.94,1.46,1.46,0,0,0,.49-.79c0-.09.12-.19.21-.25.31-.18.37-.49.5-.79a3,3,0,0,1,.66-1,.91.91,0,0,0,.36-.69.77.77,0,0,1,.2-.54.9.9,0,0,0,.39-.9,1.08,1.08,0,0,1,0-.36,1.46,1.46,0,0,1,.17-.29c.07.08.16.15.23.23s0,.14.06.2.1.15.15.15a.24.24,0,0,0,.17-.14c.05-.12.06-.27.1-.4.09-.32.07-.7.52-.81.07,0,.15-.2.16-.31s-.13-.21-.17-.2a.58.58,0,0,0-.34.19c-.29.38-.38.41-.81.24a2.85,2.85,0,0,0-.31-.12c-.35-.09-.5,0-.65.32a.46.46,0,0,1-.56.32.64.64,0,0,0-.7.28,1.32,1.32,0,0,1-1.19.51,5.31,5.31,0,0,0-1.25.18c-.48.1-.95.23-1.42.35l-1,.2c-.14,0-.27.09-.41.13l-.64.2-1.27.39L53.87,47l-1,.32a5.51,5.51,0,0,0-1,.32,2.83,2.83,0,0,1-1.45.28,1,1,0,0,0-.57.25.68.68,0,0,1-.51.18,2.06,2.06,0,0,0-1.12.15,4.37,4.37,0,0,1-.67.29c-.57.17-1.15.31-1.71.49s-1.4.46-2.09.7a4.81,4.81,0,0,1-1.45.35l-1.83.06a2,2,0,0,0-.65.09c-.52.22-1,.49-1.53.72-.21.09-.44.14-.65.23s-.71.37-1.06.54a2.88,2.88,0,0,1-.49.18,4,4,0,0,1-1.22.38,7,7,0,0,0-1.57.2c-.32.06-.38.26-.19.52s.46.58.7.86c.1.12.22.24.32.35.43.51.87,1,1.3,1.51a2.1,2.1,0,0,1,.22.3c.12.18.2.39.32.55.47.6.95,1.18,1.41,1.77.24.29.45.6.69.89a10.55,10.55,0,0,0,1.48,1.64,6.45,6.45,0,0,1,1.15,1.43c.16.2.2.47.48.58a.47.47,0,0,1,.21.31,1.36,1.36,0,0,0,.84.89c.08,0,.2.14.2.21,0,.31.21.43.43.57a.55.55,0,0,1,.18.19c.49.63,1,1.26,1.47,1.88.24.29.52.54.76.82s.39.57.62.82a.55.55,0,0,0,.87-.11,2.47,2.47,0,0,1,.45-.4,2.44,2.44,0,0,0,.27-.29c.12-.16.2-.33.33-.48.32-.38.65-.75,1-1.13,0,0,0,0,0,0A8.41,8.41,0,0,1,49.92,65a6.63,6.63,0,0,0,.89-1c.3-.38.75-.63.9-1.13h0c.32-.12.46-.41.63-.68a.38.38,0,0,1,.51-.21c-.15.29-.2.6-.49.8C52.27,62.81,52.22,63,52.14,63.14ZM31.86,53l-.08,0a1.2,1.2,0,0,0,.12.35c.33.45.66.91,1,1.34s.76.84,1.13,1.26c.11.12.17.27.27.38s.29.26.43.39a2,2,0,0,1,.3.36c.11.16.17.35.29.5.41.5.85,1,1.27,1.49s1,1.25,1.53,1.86c.17.2.39.35.54.55.31.39.59.81.89,1.21a.56.56,0,0,0,.22.19.52.52,0,0,1,.39.45,1.19,1.19,0,0,0,.39.64,2.78,2.78,0,0,1,.26.32A12.57,12.57,0,0,0,42,65.63a3,3,0,0,1,.69.78,5.66,5.66,0,0,0,.8,1c.54.6,1,1.28,1.48,1.91.31.41.64.8,1,1.19a.41.41,0,0,0,.7,0c.17-.22.39-.41.58-.62s.26-.28.27-.43.16-.43.43-.44.35-.14.33-.39a.37.37,0,0,1,.26-.4c.15-.08.24-.27.35-.4s.14-.25.25-.3a.53.53,0,0,0,.35-.49c0-.16.07-.41.18-.46A5.82,5.82,0,0,0,51,65.19a9.86,9.86,0,0,0,.93-1.12,1,1,0,0,0,.08-.5s-.17-.08-.19-.06-.23.24-.24.36a.43.43,0,0,1-.39.44.4.4,0,0,0-.24.15,4.81,4.81,0,0,1-1.14,1.32,4.1,4.1,0,0,0-.36.53.64.64,0,0,1-.25.22c-.45.14-.48.17-.5.67a.37.37,0,0,1-.16.27.56.56,0,0,0-.33.45.44.44,0,0,1-.26.26c-.42.12-.42.12-.46.55,0,.09-.09.23-.15.23a.88.88,0,0,0-.77.52.7.7,0,0,1-.21.21c-.2.15-.36.08-.5-.1l-1.49-1.85-.89-1.09c-.28-.32-.56-.63-.83-1a2.56,2.56,0,0,1-.22-.35.84.84,0,0,0-.12-.23l-.94-.89a1.73,1.73,0,0,1-.68-1s0-.1,0-.1c-.36-.12-.45-.44-.59-.73,0-.07-.14-.1-.2-.16s-.25-.29-.37-.45-.12-.28-.23-.37a4.13,4.13,0,0,1-.87-.9c-.34-.48-.73-.91-1.1-1.36a.8.8,0,0,0-.2-.21,1.46,1.46,0,0,1-.62-.7,2.48,2.48,0,0,0-.29-.37c-.14-.2-.29-.39-.42-.6s-.22-.42-.49-.48c-.1,0-.16-.2-.22-.31a1.94,1.94,0,0,0-.25-.45,7.26,7.26,0,0,1-1.52-1.75A2.5,2.5,0,0,0,33,54c-.09-.1-.21-.19-.24-.3C32.66,53.22,32.19,53.21,31.86,53Zm14,30.53a1.83,1.83,0,0,0,.11.4c.08.2.24.23.36.06a5.49,5.49,0,0,1,1.47-1.53.25.25,0,0,0,0-.43c-.18-.13-.31,0-.45.13a3.54,3.54,0,0,1-.59.57c-.22.17-.49.29-.72.46A1.2,1.2,0,0,0,45.87,83.53ZM62.22,50.44c0-.06-.09-.23-.13-.23a.5.5,0,0,0-.36.16.74.74,0,0,0-.11.44c0,.1.11.29.16.28a.51.51,0,0,0,.35-.17A1.41,1.41,0,0,0,62.22,50.44Zm.18-7.33c0,.33.13.51.38.57A.31.31,0,0,0,63,43.6c.05-.05,0-.19,0-.26a1,1,0,0,0-.24-.3,2.2,2.2,0,0,0-.25-.17ZM56.06,58.72s-.11-.16-.2-.17c-.29,0-.44.15-.41.51,0,.08.12.2.2.2C55.89,59.29,56.05,59.1,56.06,58.72ZM84.69,36.83l-.32.3c.1.08.2.24.28.23s.23-.16.34-.25ZM60.61,67l-.31-.34c-.08.09-.21.17-.23.27s.09.28.26.27S60.48,67.05,60.61,67ZM50.12,79.2l-.13,0-.16.41.09.07c.09-.06.2-.1.24-.19S50.14,79.29,50.12,79.2Z" style="fill:#f8fcfe"/><path d="M6.52,42.57l.85-.3c.29-.1.58-.22.88-.31l1.4-.4c.2-.05.4-.07.6-.14.37-.11.73-.24,1.09-.36a.66.66,0,0,1,.73.19,5.11,5.11,0,0,0,.48.45.34.34,0,0,0,.31,0,.39.39,0,0,0,.17-.31c0-.56.13-.73.73-.8a1.32,1.32,0,0,0,.66-.21A1.93,1.93,0,0,1,15.73,40c.53,0,.62-.19.4-.68a2.24,2.24,0,0,1-.15-.77,4.57,4.57,0,0,1,0-.74c0-.62,0-1.25.11-1.86a9.87,9.87,0,0,1,.38-1.36,1.12,1.12,0,0,0,0-.32c0-.41,0-.83,0-1.25s.17-.94.26-1.41a4,4,0,0,0,.16-.89,4.8,4.8,0,0,1,.38-1.5c.07-.26.14-.52.23-.77s.24-.67.35-1,.15-.52.24-.78a4.55,4.55,0,0,1,.3-.63c.21-.4.45-.79.67-1.19a5.92,5.92,0,0,0,.59-1.18,4.14,4.14,0,0,1,1-1.41,2,2,0,0,0,.26-.62,2.09,2.09,0,0,1,.41-.83,4.77,4.77,0,0,0,.51-.78c.05-.08.07-.21.14-.25.43-.24.48-.71.73-1.06a3.48,3.48,0,0,1,.46-.48c.43-.42.88-.82,1.28-1.26s.75-1,1.18-1.42c.7-.68,1.5-1.26,2.16-2a15.24,15.24,0,0,1,1.6-1.33,16.47,16.47,0,0,1,1.9-1.14c.25-.15.46-.33.71-.48.54-.32,1.09-.65,1.65-.94a1.56,1.56,0,0,1,.7-.19,1.68,1.68,0,0,0,.92-.35,11,11,0,0,1,1.15-.66,2.66,2.66,0,0,1,.9-.17,2.74,2.74,0,0,0,.84-.26,11.64,11.64,0,0,1,1.32-.35l.55-.17a1.91,1.91,0,0,1,.51-.13A5.48,5.48,0,0,0,42,7.31c.68-.18,1.38-.27,2.08-.39A2.86,2.86,0,0,1,45.46,7,5.27,5.27,0,0,0,47,7.11c.31,0,.61-.14.91-.14s.71.09,1.07.11a5.89,5.89,0,0,0,.84,0c.13,0,.27-.12.39-.1.34,0,.69.14,1,.22.49.14,1,.29,1.49.42A12.29,12.29,0,0,0,54.25,8c.88.1,1.56.71,2.45.82A5.14,5.14,0,0,1,59.39,10a.69.69,0,0,1,.19.19,1.89,1.89,0,0,0,1,.7,3.11,3.11,0,0,0,1.31.31.9.9,0,0,1,.51.2c.55.42,1.1.86,1.62,1.31a1.46,1.46,0,0,1,.34.53c.12.32.39.39.66.47a1.1,1.1,0,0,1,.32.11,10.35,10.35,0,0,1,.91.69c.83.76,1.66,1.5,2.44,2.31a10.44,10.44,0,0,1,1.07,1.45c.35.49.66,1,1,1.49.21.3.48.55.71.84a3.06,3.06,0,0,1,.3.49L72.88,23l.07.13c.21.52.42.58.87.28A2.85,2.85,0,0,1,75,23a11.25,11.25,0,0,0,1.38-.37,1,1,0,0,1,.16-.05,3.61,3.61,0,0,0,1.57-.49,1.29,1.29,0,0,1,.51-.1,1.23,1.23,0,0,0,.74-.23,2.69,2.69,0,0,1,1.19-.38,7.37,7.37,0,0,0,1.09-.3l1.15-.28a1.35,1.35,0,0,0,.29-.05.59.59,0,0,1,.84.38c.14.4.24.8.34,1.21s0,.58-.44.7-.69.26-1,.38a1,1,0,0,1-.43.09,1.51,1.51,0,0,0-1.15.22.18.18,0,0,1-.14,0,2.19,2.19,0,0,0-1.14.33.75.75,0,0,1-.47,0,.72.72,0,0,0-.87.27,2.65,2.65,0,0,1-.69.42,2.75,2.75,0,0,0-.43.17,3.17,3.17,0,0,1-1.55.4,7.49,7.49,0,0,0-1.94.44,2.57,2.57,0,0,1-.78.15,5.9,5.9,0,0,0-1.54.44,2.28,2.28,0,0,1-.94,0c-.21,0-.34,0-.4.24a.66.66,0,0,1-.74.51,1,1,0,0,0-.87.27,1.34,1.34,0,0,1-.51.17c-.75.25-1.59,0-2.31.44a5.93,5.93,0,0,1-1,.5,5.67,5.67,0,0,1-.92.25,6.67,6.67,0,0,0-.91.19,2.72,2.72,0,0,1-1.25.25,1,1,0,0,0-.75.21,1.81,1.81,0,0,1-1.23.39,2.22,2.22,0,0,0-.71.16c-.72.22-1.44.47-2.16.69a6.1,6.1,0,0,1-1,.17c-.45.07-.9.1-1.35.17a3.17,3.17,0,0,0-.5.15A7.18,7.18,0,0,0,52,32a3,3,0,0,1-.7.19,1.75,1.75,0,0,0-.61.2,4.27,4.27,0,0,1-1.53.39l-.8.23-.78.21c-.37.11-.73.21-1.09.33s-.77.26-1.14.41a6.89,6.89,0,0,1-2.33.45.34.34,0,0,0-.17,0c-.54.27-1.08.53-1.6.83a1.44,1.44,0,0,1-.95.18,2.47,2.47,0,0,0-1.75.36,2.49,2.49,0,0,1-1.07.34,3,3,0,0,0-1.36.4,4,4,0,0,1-.81.21c-.36.1-.73.2-1.09.32s-.49.18-.74.25c-.51.15-1,.28-1.54.41a.53.53,0,0,1-.2,0,2.53,2.53,0,0,0-1.29.33l-.84.26-1.47.41c-.25.06-.51.11-.76.19l-1.26.36a.78.78,0,0,1-.25.07,3.8,3.8,0,0,0-1.62.51,1,1,0,0,1-.45.09,1.35,1.35,0,0,0-.84.28,4.84,4.84,0,0,1-1,.46,6.4,6.4,0,0,1-1.59.4c-.7.05-1.27.45-1.95.52-.35,0-.66.34-1,.46a2.49,2.49,0,0,1-1,.15,1.37,1.37,0,0,0-1.17.3,2.33,2.33,0,0,1-.67.25l-1.23.34-.85.25c-.11,0-.24,0-.31.07a2.7,2.7,0,0,1-1.19.39,3.53,3.53,0,0,0-.74.34A7.8,7.8,0,0,1,7.94,45,3.09,3.09,0,0,1,7,45c-.21,0-.33,0-.42.21a.86.86,0,0,1-1,.42.74.74,0,0,1-.3-.37A9.07,9.07,0,0,1,5.52,43,.77.77,0,0,1,6.52,42.57Zm23.53-28A2.17,2.17,0,0,0,30,14s-.26,0-.39,0a.51.51,0,0,0-.24.24,1.61,1.61,0,0,1-1.09.79.5.5,0,0,0-.35.49c.06.25.28.24.45.2a.86.86,0,0,0,.36-.27c.37-.38.58-1,1.28-.94,0,.16,0,.37-.15.47-.28.28-.6.5-.91.76a1.22,1.22,0,0,0-.29.31.78.78,0,0,1-.6.48.74.74,0,0,0-.57.45,1.09,1.09,0,0,1-.46.41c-.19.1-.34.18-.39.4a1.22,1.22,0,0,1-.59.81,3.16,3.16,0,0,0-.59.62c-.11.11-.18.27-.31.36a2.49,2.49,0,0,0-.79,1c-.2.43-.65.69-.83,1.16-.09.21-.28.13-.38-.13,0-.09-.13-.16-.2-.24-.08.1-.2.18-.22.28a.51.51,0,0,0,.11.35c.19.24.19.36,0,.58s-.23.19-.27.31c-.16.47-.58.83-.62,1.36a.43.43,0,0,1-.21.27.75.75,0,0,0-.35.79.36.36,0,0,1-.23.44c-.38.11-.42.37-.36.69a.42.42,0,0,1-.29.54.47.47,0,0,0-.35.46c0,.17,0,.34,0,.51a1.42,1.42,0,0,1-.28.88,1.82,1.82,0,0,0-.27.64,1.41,1.41,0,0,1-.39.81.63.63,0,0,0-.13.78.81.81,0,0,1,.07.48c-.1.47-.24.93-.37,1.4a4,4,0,0,0-.32,1.4,6,6,0,0,1-.31,2.53.62.62,0,0,0,.07.69c.25.3.23.37-.09.6a1.42,1.42,0,0,0-.38.43c-.09.15,0,.26.18.27l.79.1a.94.94,0,0,0,.41,0,3.28,3.28,0,0,1,1.22-.46,5.13,5.13,0,0,0,1-.25l.81-.22,1.2-.36c.31-.1.62-.16.92-.29.59-.24.53-.26.54-.84a9.44,9.44,0,0,0,0-1.41,2.93,2.93,0,0,1,.33-1.19,6.81,6.81,0,0,0,.35-1,1,1,0,0,1,.34-.72.6.6,0,0,0,.2-.67,2.29,2.29,0,0,1-.06-.58.35.35,0,0,1,.16-.28c.35-.15.39-.43.42-.76a1.7,1.7,0,0,1,.14-.58,8.13,8.13,0,0,0,.43-.83,1.61,1.61,0,0,1,.43-.76,1.34,1.34,0,0,0,.31-.36c.22-.4.42-.81.63-1.22l.08-.09c.3-.4.6-.81.92-1.2.19-.24.41-.47.62-.7a5.33,5.33,0,0,0,.4-.42,3.53,3.53,0,0,1,1.1-1.21c.3-.17.49-.55.74-.83.09-.1.18-.26.29-.27.3-.05.43-.3.62-.47a1.9,1.9,0,0,1,.62-.44,3,3,0,0,0,1.47-.88,2.61,2.61,0,0,1,.65-.48c.49-.29,1-.56,1.5-.83a8,8,0,0,1,.8-.34c.12,0,.27,0,.39-.11a3.45,3.45,0,0,1,1.61-.49,4.86,4.86,0,0,0,.94-.25,11.18,11.18,0,0,1,1.39-.32,2.91,2.91,0,0,0,1-.21,2.61,2.61,0,0,1,.83-.17c.25,0,.51.06.76,0,.66,0,1.32-.12,2-.12a8.17,8.17,0,0,1,1.29.18l2.33.4c.38.07.76.16,1.14.26a5.16,5.16,0,0,0,.94.31c.61,0,1.06.43,1.63.54s.71.47,1.15.61.8.54,1.25.7a2.47,2.47,0,0,1,1,.72.78.78,0,0,0,.2.11c.25.14.51.26.74.42s.59.49.89.74a14.91,14.91,0,0,1,1.44,1.19c.66.67,1.25,1.4,1.87,2.11a.61.61,0,0,0,.07.1c.28.32.56.65.85,1a.58.58,0,0,0,.68.15,4.37,4.37,0,0,1,.62-.17l.71-.16a3.57,3.57,0,0,0,.81-.21,6.7,6.7,0,0,1,2.26-.67,2.56,2.56,0,0,0,1.57-.57.79.79,0,0,1,.35-.15c.22-.06.25-.2.28-.39.09-.7-.4-1.09-.83-1.43a4.24,4.24,0,0,1-.88-1.25,1.41,1.41,0,0,0-.4-.56,1.23,1.23,0,0,1-.3-.43,3.91,3.91,0,0,0-.4-.68c-.36-.41-.8-.77-1.14-1.2a4.75,4.75,0,0,0-1.12-1.33,3.25,3.25,0,0,1-.42-.41c-.57-.51-1.18-1-1.72-1.52a9.8,9.8,0,0,0-1.73-1.28,9.12,9.12,0,0,1-1.58-1c-.32-.32-.87-.39-1.29-.65-.2-.13-.41-.24-.61-.38-.42-.28-.88-.51-1.31-.79-.16-.1-.45,0-.67,0a.54.54,0,0,1-.34-.2.63.63,0,0,0-.79-.35,3,3,0,0,1-.52.09c-.18,0-.34,0-.34.27,0,0-.08.13-.13.13a8.15,8.15,0,0,1-1.21,0c-.11,0-.2-.22-.3-.34a1.08,1.08,0,0,1,.39-.16c.28,0,.56.05.83.06s.35-.16.17-.33A1.42,1.42,0,0,0,54,9.43a1.75,1.75,0,0,1-.89-.27.48.48,0,0,0-.23-.07c-.51-.06-1-.1-1.53-.17a1.68,1.68,0,0,0-1.46.46.43.43,0,0,1-.26.13,4.73,4.73,0,0,1-1,0,2.79,2.79,0,0,0-1.15,0,1.86,1.86,0,0,1-.78,0,2.9,2.9,0,0,0-2,.11.5.5,0,0,1-.57-.11.65.65,0,0,0-.78-.06l-.23.12c-.2.11-.3.05-.37-.17s-.13-.26-.22-.27a3.8,3.8,0,0,0-1.71,0c-.09,0-.15.13-.23.2a1,1,0,0,0,.24.18.86.86,0,0,0,.32,0c.11,0,.23-.07.34-.08s.37,0,.38.23-.13.34-.36.33a2.38,2.38,0,0,1-.26-.05,2.39,2.39,0,0,0-.59-.05A.69.69,0,0,1,40,9.71a.59.59,0,0,0-.39-.16c-.25,0-.5.1-.76.11s-.62,0-.78.33a.17.17,0,0,1-.1.06l-1,.25-.27,0,0,.09.65.45c-.29.32-.76.38-.92.09s-.5-.27-.78-.24c-.08,0-.19.17-.2.27s.11.18.19.24.17,0,.23.06a1.5,1.5,0,0,1,.19.25c-.09.06-.19.17-.28.16a1.94,1.94,0,0,1-.45-.14c-.3-.08-.6-.18-.91-.24-.1,0-.22.08-.33.12.08.07.15.17.24.2a.55.55,0,0,1,.42.49.32.32,0,0,1-.11.24.71.71,0,0,1-.79-.37.41.41,0,0,0-.11-.23c-.23-.16-.85.07-1,.38a3,3,0,0,1,.32.06.6.6,0,0,1,.3.11c.1.08.23.22.21.32a.46.46,0,0,1-.28.28.74.74,0,0,1-.76-.5c0-.2-.17-.25-.32-.17s-.24.19-.24.3a.4.4,0,0,0,.19.31c.17.1.31.22.22.4a.94.94,0,0,1-.37.27c-.12.06-.3,0-.39.12s-.38.17-.62,0a.92.92,0,0,0-.53-.06c-.06,0-.14.13-.17.21s.1.12.17.16a1.64,1.64,0,0,1,.33.14.33.33,0,0,1,.11.27.32.32,0,0,1-.21.18C30.47,14.57,30.26,14.54,30.05,14.52Zm13.3,4.73,0,.13a1.2,1.2,0,0,1-.41.23c-.53.06-1.06.09-1.6.11a.56.56,0,0,0-.48.21,1.17,1.17,0,0,1-.49.27c-.12.05-.26,0-.37.09-.35.14-.68.31-1,.46s-.49.18-.73.29-.26.18-.41.23a1.54,1.54,0,0,0-.85.59c-.05.08-.2.09-.31.13a2,2,0,0,0-.52.18c-.37.27-.72.58-1.08.86s-.77.52-1.11.82c-.54.5-1,1-1.55,1.55a7.82,7.82,0,0,0-.67.85c-.45.61-.88,1.23-1.32,1.84a.31.31,0,0,1-.14.11c-.29.08-.31.29-.33.55a.67.67,0,0,1-.19.46,1,1,0,0,0-.4.85.61.61,0,0,1-.48.46.3.3,0,0,1-.15-.09,3.11,3.11,0,0,1,.35-1,.86.86,0,0,0,.27-.63.54.54,0,0,1,.31-.59.5.5,0,0,0,.22-.29.84.84,0,0,1,.39-.53.84.84,0,0,0,.23-.23,14.2,14.2,0,0,1,1.7-2.18c.37-.34.66-.79,1-1.13.57-.5,1.2-.94,1.81-1.41a.82.82,0,0,0,.18-.19.54.54,0,0,1,.45-.27,1.05,1.05,0,0,0,.41-.23c.15-.1.28-.23.44-.33s.34-.15.49-.25l1.12-.76.14-.05a2.55,2.55,0,0,0,1.48-.58c.15-.13.49-.06.73-.09s.41-.07.41-.12a1,1,0,0,0-.11-.58c0-.07-.32,0-.48,0a3.62,3.62,0,0,1-.61.2.8.8,0,0,0-.62.28.9.9,0,0,1-.75.33A.57.57,0,0,0,38,20a.84.84,0,0,1-.5.26,1.94,1.94,0,0,0-.62.29c-.18.12-.33.29-.51.4-.55.35-1.13.64-1.65,1s-.87.8-1.34,1.16A16.58,16.58,0,0,0,31.48,25a5.23,5.23,0,0,0-.48.56c-.3.36-.59.73-.88,1.1l-.12.13-1,1.32a.46.46,0,0,0-.11.51c.13.35,0,.53-.31.67a.4.4,0,0,0-.28.51.65.65,0,0,1-.22.61,1.86,1.86,0,0,0-.31.55,4,4,0,0,1-.32.88,1.42,1.42,0,0,0-.28,1,1.27,1.27,0,0,1-.36,1.08,1,1,0,0,0-.22.6c0,.27,0,.55,0,.83a1.86,1.86,0,0,1-.11.57c-.13.3-.09.47.24.56a1.14,1.14,0,0,0,.52,0c.39-.09.77-.27,1.16-.32a3,3,0,0,0,1.43-.48,1,1,0,0,1,.38-.14c.21,0,.43-.06.64-.13a.68.68,0,0,0,.49-.61.73.73,0,0,0-.32-.48,1.07,1.07,0,0,0-.57-.08.44.44,0,0,1-.45-.26,1,1,0,0,1,.48-1.28,1.6,1.6,0,0,1,1.1,0,1.22,1.22,0,0,0,.26.06c.07,0,.18,0,.21-.06s0-.15,0-.21a2.05,2.05,0,0,0-.85-1c-.29-.13-.24-.42.05-.59s.36,0,.49.1a1.7,1.7,0,0,1,.57,2,1.22,1.22,0,0,0-.07.38,1,1,0,0,1-.38.79c-.35.29-.26.65.15.84a1.25,1.25,0,0,0,1.1-.1,4.34,4.34,0,0,1,2-.52,1.4,1.4,0,0,0,.34-.08c.36-.11.64-.39,1.07-.39a3.18,3.18,0,0,0,.91-.25,3.87,3.87,0,0,1,1.11-.34,2.34,2.34,0,0,0,.68-.17l1.86-.54c.26-.08.53-.14.79-.21l.9-.24a3.29,3.29,0,0,0,.7-.19,9.47,9.47,0,0,1,2.09-.55c.38-.11.77-.2,1.15-.33s1-.38,1.58-.55.78-.22,1.17-.33,1-.29,1.45-.41A8.82,8.82,0,0,1,52,29.61a8.18,8.18,0,0,1,1.56-.06.64.64,0,0,0,.65-.17,1.74,1.74,0,0,1,.55-.31,5.1,5.1,0,0,0,.78-.26A13,13,0,0,1,56.87,28a1.56,1.56,0,0,1,.78-.22.71.71,0,0,0,.71-.33c.15-.23.3-.18.5-.09a1,1,0,0,0,.5.05c.33-.05.66-.18,1-.23a1.14,1.14,0,0,0,.89-.69c.08-.27.15-.29.38-.12l.16.13c.23.17.43.1.47-.17a.63.63,0,0,0-.12-.4c-.2-.29-.44-.55-.66-.83-.06-.07-.12-.15-.19-.22-.43-.44-1.06-.67-1.33-1.27a.36.36,0,0,0-.11-.1c-.19-.2-.37-.39-.57-.58a4.23,4.23,0,0,0-.41-.33,2.46,2.46,0,0,1-.41-.28,8.14,8.14,0,0,0-2-1.36c-.3-.21-.68-.29-.91-.62,0-.07-.19-.08-.29-.11L54.51,20c-.16-.06-.3-.17-.46-.23s-.54-.09-.68-.24A1.49,1.49,0,0,0,52.26,19a3,3,0,0,1-.58-.17c-.3-.09-.59-.2-.89-.28s-.9-.2-1.35-.3a4.77,4.77,0,0,0-.51-.13L46.37,18c-.35,0-.71,0-1.07,0s-.66,0-1,.07a6.46,6.46,0,0,0-.76.18,8.14,8.14,0,0,1-.91.31c-.35.06-.72,0-1.07.06a1.41,1.41,0,0,0-.41.23,2.89,2.89,0,0,0,.43.31.82.82,0,0,0,.35,0h.87C43,19.2,43.17,19.23,43.35,19.25ZM43.63,8.6v.12a4.71,4.71,0,0,0,1,.33A6.91,6.91,0,0,0,46,9,12,12,0,0,1,49.34,9c.18,0,.39.08.46-.18s-.17-.46-.39-.48a1.7,1.7,0,0,0-.31.06,2.13,2.13,0,0,1-.4.1L46.54,8.4a1,1,0,0,0-.38,0,2.33,2.33,0,0,1-1.2.09,6,6,0,0,0-1,0A1.34,1.34,0,0,0,43.63,8.6ZM30.53,33.36a5.74,5.74,0,0,0,.32.53.43.43,0,0,0,.59.18.61.61,0,0,0,.29-.39.49.49,0,0,0-.29-.56,2.17,2.17,0,0,0-.35-.15C30.74,32.83,30.58,33,30.53,33.36ZM25.94,17.63c-.14.08-.24.1-.29.16a4,4,0,0,0-.6.77,4.68,4.68,0,0,1-1,1.25c-.06.07,0,.22-.06.33s.26,0,.32-.11c.21-.29.39-.61.59-.91,0-.07.14-.11.19-.18.26-.31.52-.62.76-.94C25.94,17.93,25.92,17.81,25.94,17.63Zm1-1.06s.1.11.17.1a.85.85,0,0,0,.61-.54c0-.14,0-.24-.17-.23A.79.79,0,0,0,26.9,16.57Zm-.71.91c.27,0,.44-.09.44-.32a.3.3,0,0,0-.17-.21c-.16,0-.39.22-.38.39S26.17,17.45,26.19,17.48ZM23.33,20.9l.11.17a5.09,5.09,0,0,0,.34-.47s-.1-.17-.16-.17C23.39,20.45,23.33,20.63,23.33,20.9Zm6.18,16c-.09.15-.19.27-.18.28a4.58,4.58,0,0,0,.43.34s.16-.14.15-.14S29.68,37,29.51,36.85Zm1.92-23.94c-.09.14-.18.21-.17.26s.11.16.16.24.16-.11.16-.17S31.51,13.08,31.43,12.91Z" style="fill:#f8fcfe"/><path d="M13.61,46c-.26.73.25,1.16.57,1.63s.82,1,1.21,1.54a15.65,15.65,0,0,1,1.05,1.51,4.49,4.49,0,0,1,.37,1.16,1.17,1.17,0,0,1-.07.48,1.49,1.49,0,0,1,.47,0,2.8,2.8,0,0,1,1.3.7c.14.15.08.28-.07.36a6.28,6.28,0,0,1-.83.39c-.4.13-.83.21-1.24.33l-1.75.54-.23,0a6.45,6.45,0,0,0-.75.22c-.27.12-.53,0-.76-.37s0-.37.22-.49.15-.08.23-.13a.47.47,0,0,0,.12-.77,1,1,0,0,1-.31-1.1c.06-.17,0-.25-.17-.21a1.24,1.24,0,0,0-.55.23,1.65,1.65,0,0,1-1.59.19c-.18-.11-.23-.28-.06-.41a9.93,9.93,0,0,1,.94-.59l.24-.11c.37-.24.39-.51,0-.76a1.35,1.35,0,0,1-.6-.67,2.32,2.32,0,0,0-.13-.45c-.14-.29-.31-.56-.45-.85a5.65,5.65,0,0,0-.22-.62c-.39-.58-.82-1.12-1.21-1.69a.56.56,0,0,1-.08-.38s.2-.1.31-.09a1.36,1.36,0,0,0,1.11-.5,1.48,1.48,0,0,1,.38-.37,1,1,0,0,0,.64-.75c0-.23.2-.22.36-.12a2.39,2.39,0,0,1,1.05,1.17,3.58,3.58,0,0,0,.3.49A3.67,3.67,0,0,1,13.61,46Zm-.52,4.07-.23-.21c-.13.19-.27.37-.39.58a.62.62,0,0,0,.28.2C12.93,50.71,13.09,50.47,13.09,50.11Z" style="fill:#f8fcfe"/><path d="M49,43.89a1.39,1.39,0,0,1,.5,0c.15.05.36.19.37.31a.59.59,0,0,1-.27.43,6.9,6.9,0,0,1-.75.3,10.74,10.74,0,0,1-2.63.45,1.3,1.3,0,0,0-.87.45c-.12.16-.25.4-.52.23a.63.63,0,0,1-.22-.8,3,3,0,0,0,.25-.43,5.1,5.1,0,0,0,.16-.7c0-.24.06-.49.1-.74s.09-.45-.22-.56c-.49-.16-.58-.57-.63-1A14.78,14.78,0,0,0,44,40.33a4.65,4.65,0,0,0-.27-.55c-.2-.57-.41-1.14-.57-1.72a6.55,6.55,0,0,1,0-.89A2.24,2.24,0,0,0,43,36.6a.32.32,0,0,0-.46-.19,1.16,1.16,0,0,1-.52.08.41.41,0,0,1-.32-.17.62.62,0,0,1,.06-.44c.14-.29.45-.33.72-.4s.69-.08,1-.17a4.5,4.5,0,0,0,2-.68.45.45,0,0,1,.72.31,6.42,6.42,0,0,0,.46,1.53,5.12,5.12,0,0,1,.27,1,6.13,6.13,0,0,1,0,.86.55.55,0,0,0,.07.25A2.83,2.83,0,0,1,47.65,40a3.11,3.11,0,0,0,.3.82A2.84,2.84,0,0,1,48.24,42a1.51,1.51,0,0,0,.19.67.63.63,0,0,1-.13.84c0,.05-.11.16-.09.22s.13.12.2.15a1.22,1.22,0,0,0,.27,0Zm-3.6-7.18s.13-.08.16-.16-.21-.49-.4-.48a.35.35,0,0,0-.25.21C44.8,36.46,45,36.68,45.35,36.71Z" style="fill:#f8fcfe"/><path d="M57.84,42.32c-.24-.07-.47-.13-.68-.21s-.2-.36,0-.56a2.48,2.48,0,0,1,.51-.33c.1-.07.21-.11.31-.18a.36.36,0,0,0,.05-.58,1.39,1.39,0,0,0-.21-.21,1.2,1.2,0,0,1-.46-1.12c.06-.5-.28-.89-.47-1.32a5.69,5.69,0,0,1-.25-.83c-.07-.29-.11-.59-.18-.88-.13-.52-.26-1-.41-1.55a4.37,4.37,0,0,0-.29-.57c-.16-.28-.29-.58-.47-.85a.74.74,0,0,0-.58-.35c-.32,0-.52-.24-.41-.43a.79.79,0,0,1,.41-.3c.43-.15.86-.28,1.3-.4a2.6,2.6,0,0,1,.56-.06,2.33,2.33,0,0,0,1.57-.5.4.4,0,0,1,.21-.09c.41,0,.85.45.86.9a5,5,0,0,0,.13.77,2.87,2.87,0,0,1,.14.56A2.89,2.89,0,0,0,60,34.81a.9.9,0,0,1,0,.44c0,.14-.07.29-.08.43a.62.62,0,0,0,.36.72.79.79,0,0,1,.35.6A2.64,2.64,0,0,0,61,38.07a1,1,0,0,1,.09.21c0,.52.08,1,.15,1.56a2.48,2.48,0,0,0,.24.53,2,2,0,0,1,.21.41c.08.44-.14.66-.58.61a.43.43,0,0,1-.23,0,.58.58,0,0,0-.7.14A2.5,2.5,0,0,1,59,42c-.22,0-.43.13-.65.19Z" style="fill:#f8fcfe"/><path d="M34.52,39.57a2.22,2.22,0,0,0,.25.42.88.88,0,0,1,.28.66,4.36,4.36,0,0,0,.38,1.59,4.78,4.78,0,0,1,.2.83c.09.51.15,1,.23,1.53a3.37,3.37,0,0,0,.15.78c.15.34.41.63.56,1a7.06,7.06,0,0,1,.25.93,2.89,2.89,0,0,0,0,.29.72.72,0,0,1-.61.94c-.3,0-.6.16-.9.24l-.8.19c-.4.12-.8.24-1.19.38a1,1,0,0,1-.94-.19.37.37,0,0,1,.07-.62l.26-.14c.4-.2.47-.41.27-.82s-.33-.71-.48-1.07a1,1,0,0,1,0-.35,3.18,3.18,0,0,0-.44-1.7,2.13,2.13,0,0,1-.32-1.14A9.83,9.83,0,0,0,31.61,42a.76.76,0,0,0-.18-.37,1.57,1.57,0,0,1-.41-1,.37.37,0,0,0-.38-.35,1.77,1.77,0,0,1-.4-.08.53.53,0,0,1-.43-.54.57.57,0,0,1,.47-.57c.49-.13,1-.19,1.5-.28a4.23,4.23,0,0,0,.58-.17L33.78,38a.37.37,0,0,1,.52.26c.07.29.16.57.24.85s0,.27.07.41ZM34,41.75l.16,0a1.82,1.82,0,0,0,.22-.5,7.53,7.53,0,0,0,.05-1.06c0-.09-.05-.25-.08-.25a.44.44,0,0,0-.32.08.41.41,0,0,0-.17.29C33.92,40.81,34,41.28,34,41.75Z" style="fill:#f8fcfe"/><path d="M23.21,44.81a2.39,2.39,0,0,0,.31,1.25,2.65,2.65,0,0,1,.25.8,6.58,6.58,0,0,1,.15,1.88c-.05.18.11.46.24.64a5.24,5.24,0,0,1,.77,1.31.91.91,0,0,1-.76,1.23,4.1,4.1,0,0,0-1.69.48,2,2,0,0,1-.56.21,2.06,2.06,0,0,1-1.3.06.38.38,0,0,1-.16-.65,1.38,1.38,0,0,1,.3-.24c.41-.25.57-.69.24-1a2,2,0,0,1-.51-1.68A1.25,1.25,0,0,0,20.08,48c-.1-.1-.11-.3-.16-.46a6.09,6.09,0,0,1-.16-1.9,1.06,1.06,0,0,0-.16-.53,5,5,0,0,1-.76-1.36c0-.11-.22-.18-.36-.23a6.25,6.25,0,0,0-.62-.16.28.28,0,0,1-.12-.44,1.43,1.43,0,0,1,1.1-.61,6.33,6.33,0,0,0,2.56-.61.91.91,0,0,1,1.19.66,4,4,0,0,1-.05.91.57.57,0,0,1-.41.5.38.38,0,0,0-.22.3,2.62,2.62,0,0,0,.06.74c0,.09.15.15.23.23a1.43,1.43,0,0,0,.23-.27c.07-.16.07-.36.15-.51s.2-.2.31-.3c.09.11.24.21.28.34A2.55,2.55,0,0,1,23.21,44.81Z" style="fill:#f8fcfe"/><path d="M77.52,28.39a3.23,3.23,0,0,0,0-.44,1.79,1.79,0,0,1,.31-1.17,3.36,3.36,0,0,1,.39-.67c.4-.44.82-.85,1.25-1.26.25-.23.73-.09,1,.25a.56.56,0,0,1-.22.74.92.92,0,0,0-.44,1.2.5.5,0,0,0,.23.25c.15.12.34.2.49.32a1.27,1.27,0,0,0,.94.28c.25,0,.51.11.77.12A3.8,3.8,0,0,0,83.33,28a1.52,1.52,0,0,1,1.74.61,1.87,1.87,0,0,0,.82.63,1.32,1.32,0,0,1,.91,1.16A10.52,10.52,0,0,1,86.86,32a.49.49,0,0,1-.26.37,1,1,0,0,0-.73.87,3,3,0,0,1-.54,1.09,1,1,0,0,1-.86.47,1,1,0,0,1-.82-.33c-.24-.26-.22-.4.06-.62a1.75,1.75,0,0,0,.52-.49,2.08,2.08,0,0,0,.15-.86.52.52,0,0,0-.29-.36c-.54-.23-1.09-.42-1.63-.62a2.3,2.3,0,0,1-.32-.15,1.07,1.07,0,0,0-.84-.12c-.09,0-.24-.12-.34-.2a3.13,3.13,0,0,0-.5-.4c-.26-.11-.39,0-.34.31a1.73,1.73,0,0,1,0,.38.23.23,0,0,1-.12.18s-.12,0-.18-.07a.13.13,0,0,1-.07-.09.8.8,0,0,0-.84-.46c-.19,0-.39-.18-.55-.31s-.21-.27-.33-.38a1.47,1.47,0,0,1-.56-1.35c0-.14,0-.28,0-.42Zm7.85,2.12.31.46c.09-.14.25-.29.24-.42s-.19-.27-.3-.4Z" style="fill:#f8fcfe"/><path d="M76.05,34.53a.73.73,0,0,1-.55,1c-.36.12-.34.52-.45.82a1.74,1.74,0,0,1-.16.34c-.14.25-.31.5-.45.76a1.18,1.18,0,0,1-1.73.12.4.4,0,0,1,0-.37,2.49,2.49,0,0,1,.53-.59.84.84,0,0,0-.08-1.36,6.21,6.21,0,0,0-.88-.47.6.6,0,0,0-.35,0,.58.58,0,0,1-.64-.18.94.94,0,0,0-.71-.31.68.68,0,0,1-.7-.41c-.18-.43-.53-.44-.91-.41a.44.44,0,0,0-.24.11.9.9,0,0,0-.12.24.8.8,0,0,0,.26.05,1.09,1.09,0,0,0,.25-.1.35.35,0,0,1,.55.26.32.32,0,0,1-.08.23.76.76,0,0,1-.91,0c-.17-.11-.37-.17-.55-.27-.52-.3-1.08-.53-1.29-1.2a3.29,3.29,0,0,1-.27-1.63,4.91,4.91,0,0,1,.24-.83,6.94,6.94,0,0,1,.39-.83,2.86,2.86,0,0,1,.39-.47c.34-.35.71-.67,1-1s.68-.23.89.19a.56.56,0,0,1-.13.72,5.29,5.29,0,0,0-.64.61.36.36,0,0,0,0,.51A2.61,2.61,0,0,0,70,31a.74.74,0,0,0,.26,0c.57,0,1.13,0,1.7,0a10.33,10.33,0,0,1,1.57.17c.2,0,.37.28.52.45a1,1,0,0,1,.21.45c0,.3.21.28.42.2a.6.6,0,0,1,.85.29A3.46,3.46,0,0,1,76.05,34.53Zm-1.63-.82.34.46.42-.41c-.12-.11-.23-.26-.38-.3S74.59,33.59,74.42,33.71Z" style="fill:#f8fcfe"/><path d="M49.67,33.7c.24.09.5.16.73.27a5.82,5.82,0,0,1,.7.44.49.49,0,0,1,.14.74c0,.07-.07.16-.11.24s0,.27.18.3a.82.82,0,0,1,.78.9c0,.68-.13.85-.81.92a.54.54,0,0,0-.32.83,1.45,1.45,0,0,0,.55.49,1.74,1.74,0,0,1,.75.67c.26.47.58.91.86,1.37l.14.25c.12.19.19.36.47.43a3,3,0,0,1,.83.48,1.15,1.15,0,0,0,.39.21c.21,0,.36.1.39.33a.54.54,0,0,1-.31.56.84.84,0,0,1-.84.08c-.32-.16-.62,0-.91.18a7,7,0,0,1-2,.82l-.16.07a.59.59,0,0,1-.79-.24.49.49,0,0,1,0-.65,2.07,2.07,0,0,0,.33-.52.82.82,0,0,0-.26-.89,2.11,2.11,0,0,1-.64-.94c0-.12-.17-.21-.25-.32l-.51-.65a.64.64,0,0,0-.6-.31c-.25,0-.3-.19-.36-.33s0-.37.06-.42c.65-.41.51-1,.54-1.65a6.54,6.54,0,0,1,.08-.88.55.55,0,0,0-.44-.72c-.32-.09-.64-.18-.95-.3a.79.79,0,0,1-.52-.63.67.67,0,0,1,.43-.71,2.3,2.3,0,0,1,1.21-.31c.38,0,.77,0,1.15,0Z" style="fill:#f8fcfe"/><path d="M35.92,37.45a2.43,2.43,0,0,1,1.33.42c.44.2.89.36,1.34.54.72.28,1.42.59,1.66,1.44a5.21,5.21,0,0,0,.28.52c.11.33.19.68.3,1s.26.83.38,1.25a7.54,7.54,0,0,1,.2.82c0,.23-.06.37-.3.46-.52.2-.6.49-.27,1a.73.73,0,0,1,.09.57,5,5,0,0,1-.55.83,5.84,5.84,0,0,1-.47.64,1.18,1.18,0,0,1-.55.34.84.84,0,0,0-.59.4.79.79,0,0,1-1,.3c-.44-.22-.48-.46-.14-.82a1.63,1.63,0,0,0,.26-1.84,5.75,5.75,0,0,1-.46-1.73,4.71,4.71,0,0,0-.2-.76.92.92,0,0,1,0-.84,1.09,1.09,0,0,0-.09-1.15l-.8-1.15a.55.55,0,0,1-.09-.19c0-.46-.35-.65-.73-.78a.56.56,0,0,1-.16-.07c-.2-.15-.5-.25-.5-.57s.49-.58.78-.62A1.67,1.67,0,0,1,35.92,37.45Z" style="fill:#f8fcfe"/><path d="M29.47,46.76a1.94,1.94,0,0,1-.34.47c-.62.47-.52.43-.29,1.06a.92.92,0,0,1-.3,1.25,1.5,1.5,0,0,0-.63.86.21.21,0,0,1-.06.1c-.47.28-.84.75-1.45.77a2.42,2.42,0,0,0-.47.06.43.43,0,0,1-.5-.24.48.48,0,0,1,.11-.57A3.51,3.51,0,0,0,26,50c.26-.39,0-.77-.11-1.12a3.32,3.32,0,0,1-.37-1.35,2.21,2.21,0,0,0-.17-.8,1.77,1.77,0,0,1,0-1.3,1.26,1.26,0,0,0-.27-1.18c-.26-.39-.53-.78-.77-1.17-.08-.12-.07-.29-.16-.38a3.16,3.16,0,0,0-1.1-.85,2.71,2.71,0,0,1-.45-.3,3,3,0,0,1,.45-.43,4.11,4.11,0,0,1,.56-.25,1,1,0,0,1,.93,0c.46.26.93.53,1.41.76s.83.31,1.24.46a1.38,1.38,0,0,1,.89.81,1.44,1.44,0,0,0,.31.46,2.05,2.05,0,0,1,.46,1.08,5.32,5.32,0,0,0,.48,1.91A1.69,1.69,0,0,1,29.47,46.76Z" style="fill:#f8fcfe"/><path d="M10.06,55.92A1.17,1.17,0,0,0,9,56.28c-.08.09-.37,0-.53,0a.37.37,0,0,1-.15-.54,2.74,2.74,0,0,1,.4-.5,1.22,1.22,0,0,0,.44-.84.6.6,0,0,1,.14-.29c.25-.35,0-.7,0-1,0-.72,0-1.43,0-2.14a2.56,2.56,0,0,1,.2-.63A.73.73,0,0,0,9.54,50c-.06-.35-.16-.68-.23-1s-.14-.77-.19-1.15a.31.31,0,0,1,.15-.26c.05,0,.19,0,.25.08a2,2,0,0,1,.71,2,7.94,7.94,0,0,0,0,1.82,2.63,2.63,0,0,1,0,.56,3,3,0,0,0,0,1.55.82.82,0,0,1-.06.43c-.17.51,0,.72.51.76a2.66,2.66,0,0,1,.75.08c.32.1.34.25.12.5A1.8,1.8,0,0,1,10.06,55.92Z" style="fill:#f8fcfe"/><path d="M65.74,39.44c0,.45-.14.55-.58.63a4.28,4.28,0,0,0-2.07.84.65.65,0,0,1-1-.45c-.07-.55.06-.73.61-.88a2.36,2.36,0,0,0,.9-.67,1.26,1.26,0,0,0,.31-1,2,2,0,0,1,.27-1c.22-.39.58-.35.78,0a1.64,1.64,0,0,1,.23.75A2.87,2.87,0,0,0,65.58,39C65.64,39.11,65.69,39.28,65.74,39.44Z" style="fill:#f8fcfe"/><path d="M78.54,32.72c0-.25.07-.45.32-.53a.63.63,0,0,1,.73.36,2.3,2.3,0,0,1,.18.58c0,.29.18.4.49.4a.76.76,0,0,1,.42.12,3,3,0,0,0,1.08.43c.37.1.75.21,1.12.33a.42.42,0,0,1,.27.54.48.48,0,0,1-.57.3,1.62,1.62,0,0,0-1.81.42,2.74,2.74,0,0,1-.54.41.27.27,0,0,1-.41-.09,1.21,1.21,0,0,1-.21-.57,2.63,2.63,0,0,0-.39-1.29c-.17-.38-.4-.73-.6-1.1A1.77,1.77,0,0,1,78.54,32.72Z" style="fill:#f8fcfe"/><path d="M71.55,38.42l-.85-.14a.67.67,0,0,0-.66.29,2.22,2.22,0,0,1-.58.48c-.42.21-.77,0-.82-.49a5.78,5.78,0,0,0-.14-.7,3.71,3.71,0,0,0-.69-1.62.69.69,0,0,1,.1-.82c.11-.08.35-.12.43-.05a1.19,1.19,0,0,1,.44.58,1.18,1.18,0,0,0,.77.81c.29.1.55.24.84.33a2.63,2.63,0,0,0,.79.15,1.28,1.28,0,0,1,.8.24c.2.16.33.36.21.58s-.31.24-.47.35S71.6,38.42,71.55,38.42Z" style="fill:#f8fcfe"/><path d="M62.74,30.83a.91.91,0,0,0,.44,1,1.41,1.41,0,0,1,.26,1.25.26.26,0,0,1-.39.15,1,1,0,0,1-.22-.14,12.7,12.7,0,0,0-1.12-.85,6.22,6.22,0,0,0-1.13-.46c-.31-.11-.64-.17-.94-.31a.53.53,0,0,1-.17-.42.49.49,0,0,1,.27-.33c.29-.12.61-.18.92-.28s.62-.23.93-.34l.66-.24c.2-.06.47.18.49.42S62.74,30.6,62.74,30.83Z" style="fill:#f8fcfe"/><path d="M85.21,26.57c-.11.18-.17.35-.28.42a.6.6,0,0,1-.7-.07c-.3-.25-.57-.55-.87-.8a2.72,2.72,0,0,0-1.72-.74,1.3,1.3,0,0,1-.65-.22c-.11-.07-.23-.31-.18-.4a.84.84,0,0,1,.42-.41,1.76,1.76,0,0,1,.72-.12,1.56,1.56,0,0,1,.5.22c.14.06.31.2.43.16s.23-.23.27-.38c.11-.43.35-.6.78-.48a.43.43,0,0,1,.26.25c.08.31.11.63.17.95a1.57,1.57,0,0,0,.38.91A3.8,3.8,0,0,1,85.21,26.57Z" style="fill:#f8fcfe"/><path d="M73.82,30.16a1.76,1.76,0,0,1-1.28-.87,1.05,1.05,0,0,0-.78-.5c-.1,0-.19-.11-.29-.13l-.89-.16a.67.67,0,0,1-.53-.41.45.45,0,0,1,.1-.54.52.52,0,0,1,.36-.11c.4,0,.8,0,1.2,0a.54.54,0,0,0,.58-.31.5.5,0,0,1,.59-.32.69.69,0,0,1,.57.45.71.71,0,0,1,0,.38A1.28,1.28,0,0,0,73.9,29a.89.89,0,0,1,.23.9C74.12,30,73.89,30.11,73.82,30.16Z" style="fill:#f8fcfe"/><path d="M61.82,33.32a.54.54,0,0,1,.48.47c.05.3.16.58.23.87s.11.68.2,1a2.67,2.67,0,0,0,.3.74c.33.54.28.83-.15,1.15a.35.35,0,0,1-.33,0c-.5-.44-1-.89-1.47-1.36a3.84,3.84,0,0,1-.33-.52.35.35,0,0,1,.17-.54.87.87,0,0,0,.48-1,1.64,1.64,0,0,1,.18-.68C61.62,33.39,61.76,33.36,61.82,33.32Z" style="fill:#f8fcfe"/><path d="M38.07,66.33c-.38-.08-.73-.16-1.09-.22s-.73.11-.75.61c0,.26,0,.52,0,.78s-.1.35-.37.26a.83.83,0,0,1-.53-.56c-.07-.21.06-.35.21-.48s.26-.26.39-.39l.27-.27a2.32,2.32,0,0,0,.21-.22c-.76,0-1.12-.11-1.42.51-.13.28-.31.27-.47,0a2.43,2.43,0,0,1-.18-.4,1.37,1.37,0,0,0-.6-.74.93.93,0,0,1-.29-.3.28.28,0,0,1,.11-.44A2.58,2.58,0,0,0,34,64l.28-.3a.32.32,0,0,0,0-.49c-.06-.08-.14-.25-.1-.3a.52.52,0,0,1,.33-.18,4.57,4.57,0,0,1,.74,0,.36.36,0,0,1,.23.15.22.22,0,0,1-.06.23c-.4.24-.46.7-.67,1a1.7,1.7,0,0,1-.29.36c-.21.18-.43.35-.3.67a.76.76,0,0,0,.8.39,1.23,1.23,0,0,0,.43-.21,2.27,2.27,0,0,0,.42-.33c.19-.19.37-.39.55-.6s.25-.33.46-.19.14.32,0,.5a6.36,6.36,0,0,0-.3.58.28.28,0,0,0,0,.24s.15,0,.23,0l.06,0C37.53,65.34,38.06,65.42,38.07,66.33Z" style="fill:#f8fcfe"/><path d="M40.4,71.46a3.68,3.68,0,0,1,.37-.32,4.08,4.08,0,0,0,.5-.29c.23-.21.39-.2.58.06s.43.53.64.8l1.13,1.35c.2.24.42.47.62.72a.56.56,0,0,1,0,.74c-.17.21-.37.22-.51,0a1.32,1.32,0,0,0-.63-.67c-.07,0-.11-.22-.11-.33a.63.63,0,0,0-.25-.51.62.62,0,0,1-.18-.38.34.34,0,0,0-.37-.34c-.07,0-.21.08-.21.14,0,.29-.23.4-.46.48a.36.36,0,0,0-.29.32c0,.27-.25.33-.49.31s-.33-.2-.37-.4a.28.28,0,0,1,.14-.21c.33-.08.62-.17.73-.55,0-.09.26-.14.4-.15s.33-.09.27-.36a1.37,1.37,0,0,0-.11-.36c-.06-.1-.19-.22-.28-.21s-.18.14-.26.23,0,.08,0,.12S41.18,72,41,72A.66.66,0,0,1,40.4,71.46Z" style="fill:#f8fcfe"/><path d="M30.63,58.31a.24.24,0,0,0,0-.11.46.46,0,0,1,.18-.55.61.61,0,0,1,.66.22,2.18,2.18,0,0,0,.68.8c.34.24.17.79-.23.95a3.25,3.25,0,0,0-.77.47c-.09.08-.09.27-.1.41s0,.46-.29.51a.52.52,0,0,1-.62-.45.32.32,0,0,1,.21-.46.65.65,0,0,0,.29-.23.4.4,0,0,0-.1-.6.55.55,0,0,0-.69.21c0,.09,0,.2-.08.28s-.1.27-.17.28a.32.32,0,0,1-.39-.28,2.36,2.36,0,0,1,0-.59c0-.26.24-.26.42-.35S30.27,58.5,30.63,58.31Zm1.05.67c0-.31-.61-.67-.87-.51,0,0-.08.11-.08.17,0,.44,0,.5.45.68S31.68,59.37,31.68,59Z" style="fill:#f8fcfe"/><path d="M39,69.47h.12a.75.75,0,0,0,.8-.31.57.57,0,0,1,.66,0,.6.6,0,0,1,0,.73c-.47.3-.63.84-1,1.24s-.12.56.23.72a.86.86,0,0,1,.46.93.38.38,0,0,1-.31.16.66.66,0,0,1-.35-.29c-.06-.09,0-.25-.06-.37a.75.75,0,0,0-.47-.58.72.72,0,0,1-.29-.26.37.37,0,0,1,.11-.59c.07,0,.14-.08.2-.13a.5.5,0,0,0,.16-.65.45.45,0,0,0-.62,0,1.26,1.26,0,0,0-.22.24c-.23.25-.34.26-.59,0a.9.9,0,0,1-.15-.19c0-.12-.14-.29-.1-.39s.24-.15.37-.15c.35,0,.69,0,1,0Z" style="fill:#f8fcfe"/><path d="M30,56.48a.46.46,0,0,1,.58.3.62.62,0,0,1-.33.63c-.37.24-.72.5-1.07.78a.6.6,0,0,0-.15.32c-.07.24-.27.28-.41.16-.45-.4-.86-.83-1.28-1.26-.05,0-.05-.16-.07-.25s0-.3.23-.26a.62.62,0,0,0,.71-.28.52.52,0,0,1,.34-.25c.33,0,.4-.3.49-.53s.12-.3.34-.28a.5.5,0,0,1,.48.33.83.83,0,0,0,0,.15c.1.31.07.35-.27.32s-.55.07-.66.43-.25.28-.46.31-.33.11-.32.15a1.57,1.57,0,0,0,.19.68.46.46,0,0,0,.47,0c.13-.11.15-.34.23-.52s.1-.22.15-.21C29.77,57.26,30,56.94,30,56.48Z" style="fill:#f8fcfe"/><path d="M61.13,59c0,.29.07.44.31.54a10.35,10.35,0,0,1,1,.57.47.47,0,0,1,.16.67c-.14.18-.35.17-.6,0a4.08,4.08,0,0,1-.39-.31,3.69,3.69,0,0,1-.47-.59c-.1-.19-.18-.35-.41-.37h0c-.12-.12-.33-.24-.33-.35a.49.49,0,0,1,.33-.35.52.52,0,0,0,.52-.56c0-.23.3-.45.57-.47s.32.16.39.34c.19.47.63.68,1,1a.8.8,0,0,1,.32.42.57.57,0,0,1-.21.45c-.18.12-.34,0-.46-.21a6.26,6.26,0,0,0-.56-.79.89.89,0,0,0-.78-.29C61.24,58.6,61.11,58.74,61.13,59Z" style="fill:#f8fcfe"/><path d="M66.39,56.1c-.18.19-.27.35-.42.42a1.49,1.49,0,0,0-.73.92c-.06.2-.2.34-.39.28s-.32-.2-.32-.32c0-.71-.67-.75-1.07-1-.15-.11-.41-.07-.44-.33a.48.48,0,0,1,.36-.49,1,1,0,0,0,.51-.66.32.32,0,0,1,.47-.2.51.51,0,0,1,.26.57.28.28,0,0,1-.13.11.77.77,0,0,1-.15,0c-.18.05-.45.05-.43.31s.27.29.48.28.32.11.31.34a1.32,1.32,0,0,0,.09.43c.16-.08.33-.14.48-.23s.09-.13.11-.2a.57.57,0,0,1,.66-.43C66.14,55.89,66.23,56,66.39,56.1Z" style="fill:#f8fcfe"/><path d="M57.73,63.42c0,.34.56.87,1,.89.12,0,.24,0,.35,0,.28,0,.4.31.2.5a1.72,1.72,0,0,1-.58.38c-.09,0-.31-.11-.36-.22a1.85,1.85,0,0,0-1.37-1.08c-.07,0-.17-.2-.15-.24a2.7,2.7,0,0,1,.45-.56c.29-.24.62-.45.92-.68s.33-.2.45.08a.59.59,0,0,0,.33.21,1.65,1.65,0,0,1,1,1.19c0,.07-.06.2-.09.2s-.27,0-.34-.1a9.83,9.83,0,0,1-.8-.91c-.15-.17-.29-.26-.51-.18A.58.58,0,0,0,57.73,63.42Z" style="fill:#f8fcfe"/><path d="M48.65,73.69a.39.39,0,0,1,.32-.47c.24,0,.36.07.45.29a1.14,1.14,0,0,0,.33.4,4.87,4.87,0,0,0,.5.4c.07.06.14.17.22.18a.73.73,0,0,0,.47,0c.07,0,.06-.3,0-.43a1.51,1.51,0,0,0-1.09-1,.38.38,0,0,1-.31-.52c0-.21.16-.37.4-.35s.29.09.32.19a2.2,2.2,0,0,0,.75.85,1.82,1.82,0,0,1,.47.49c.27.43.21.57-.22.85-.09,0-.14.18-.23.26a1.38,1.38,0,0,1-.49.32c-.09,0-.24-.17-.36-.27s-.22-.2-.34-.28l-.47-.29a2.26,2.26,0,0,0-.39-.18C48.75,74,48.6,73.94,48.65,73.69Z" style="fill:#f8fcfe"/><path d="M38.3,66.61c.3.09.54.25.58.52s.29.52.62.6a.33.33,0,0,1,.19.56.79.79,0,0,1-.26.19,3.62,3.62,0,0,1-.77.3,1.08,1.08,0,0,1-.56-.14c-.13-.07-.22-.24-.36-.28-.3-.1-.51.07-.64.42a1.26,1.26,0,0,1-.23.3c-.09-.09-.24-.17-.28-.29a1.8,1.8,0,0,1-.13-.61c0-.06.1-.17.18-.2a8,8,0,0,0,.83-.27,1.12,1.12,0,0,0,.7-.75A1.89,1.89,0,0,1,38.3,66.61ZM39,68c.05-.32,0-.47-.28-.46s-.42.06-.45.33.26.6.46.58S38.93,68.14,39,68Z" style="fill:#f8fcfe"/><path d="M31,61.65c0-.26.08-.4.4-.5a4.84,4.84,0,0,0,1-.5c.1-.06.1-.25.18-.35s.19-.27.31-.31a.33.33,0,0,1,.41.26c0,.09.08.18.1.27a.48.48,0,0,0,.39.39.4.4,0,0,1,.3.64.8.8,0,0,1-.29.36.5.5,0,0,1-.43,0c-.08,0-.07-.25-.09-.38s.05-.09.06-.14.12-.36-.12-.45a.39.39,0,0,0-.56.26c-.1.42-.11.43-.48.27-.2-.09-.34-.06-.43.15a2,2,0,0,0-.1.21c0,.18,0,.43-.29.42S31,62.05,31,61.65Z" style="fill:#f8fcfe"/><path d="M49.32,77.06a1.4,1.4,0,0,1-1-.55,1.52,1.52,0,0,0-1-.6c-.18,0-.29-.14-.28-.33a.66.66,0,0,1,.46-.59.29.29,0,0,1,.4.19c0,.06.08.1.09.16.13.76.69.9,1.33.93.32,0,.46.23.32.5S49.45,77,49.32,77.06Z" style="fill:#f8fcfe"/><path d="M61.74,61.76c-.07.12-.12.28-.22.33S61,62,61,61.73a1,1,0,0,0-.54-.67,2,2,0,0,0-.44-.13c-.22,0-.45-.08-.5-.34a.44.44,0,0,1,.21-.54c.24-.11.5-.18.71.07s.3.44.47.63a1.93,1.93,0,0,0,.51.44A.62.62,0,0,1,61.74,61.76Z" style="fill:#f8fcfe"/><path d="M56.75,67.87c0,.06-.11.26-.23.29A.51.51,0,0,1,56.1,68c-.2-.2-.36-.41-.67-.43a.66.66,0,0,1-.28-.16c-.22-.19-.44-.38-.64-.59a.34.34,0,0,1-.07-.31,2.12,2.12,0,0,1,.51-.43s.18.11.22.19a1.74,1.74,0,0,0,.85.94.72.72,0,0,0,.28.07C56.66,67.31,56.76,67.42,56.75,67.87Z" style="fill:#f8fcfe"/><path d="M50.85,71.07a2.52,2.52,0,0,1,.44.28c.35.36.66.76,1,1.09a.62.62,0,0,1,.17.7c0,.19-.26.22-.43.06a3,3,0,0,1-.45-.55,1.42,1.42,0,0,0-1-.78c-.11,0-.29-.27-.28-.41s.23-.36.5-.32Z" style="fill:#f8fcfe"/><path d="M64.86,53.6c.23,0,.4.06.46.29s.32.28.52.34.28.11.32.3a.38.38,0,0,0,.42.33c.18,0,.43,0,.45.26a.68.68,0,0,1-.48.58.28.28,0,0,1-.24-.11c-.1-.38-.42-.52-.71-.73s-.53-.61-1-.69c-.06,0-.14-.28-.1-.38S64.74,53.66,64.86,53.6Z" style="fill:#f8fcfe"/><path d="M62.25,57a1,1,0,0,1,0-.35c0-.06.16-.13.21-.11s.3.13.33.24A1.75,1.75,0,0,0,64,57.83a.51.51,0,0,1,.27.34.51.51,0,0,1-.81.41,1.05,1.05,0,0,1-.28-.48.74.74,0,0,0-.51-.53A.5.5,0,0,1,62.25,57Z" style="fill:#f8fcfe"/><path d="M56,68.82c0,.06-.12.27-.22.28s-.48,0-.55-.14a1.71,1.71,0,0,0-.83-.65,2.42,2.42,0,0,1-.68-.56.36.36,0,0,1,.11-.61c.17-.1.29-.09.36.13a.61.61,0,0,0,.56.48c.12,0,.26.17.33.3a.55.55,0,0,0,.39.3C55.64,68.4,55.94,68.39,56,68.82Z" style="fill:#f8fcfe"/><path d="M60.87,63a.85.85,0,0,1-1.11-.55.76.76,0,0,0-.62-.47c-.41-.06-.55-.29-.42-.67a.37.37,0,0,1,.24-.22.44.44,0,0,1,.36.1c.13.14.19.35.31.5s.31.36.49.39A.85.85,0,0,1,60.87,63Z" style="fill:#f8fcfe"/><path d="M67.91,54.17s-.1.22-.21.25a.56.56,0,0,1-.46,0,1,1,0,0,0-.65-.29.48.48,0,0,1-.24-.11c-.25-.16-.5-.32-.74-.5a.3.3,0,0,1,0-.47A.48.48,0,0,1,66,53c.27.15.49.39.77.54a1,1,0,0,0,.58.09C67.69,53.6,67.9,53.75,67.91,54.17Z" style="fill:#f8fcfe"/><path d="M52.56,70a.91.91,0,0,1,.95.46c.12.21.34.15.5.08a.47.47,0,0,0,.22-.29,3.18,3.18,0,0,0,0-.62c0-.16,0-.34.2-.32s.36.13.39.23a1.94,1.94,0,0,1,0,.76c0,.09-.17.18-.28.2a.48.48,0,0,0-.37.29.5.5,0,0,1-.3.27c-.06,0-.16-.16-.26-.23s-.18-.16-.27-.16c-.69,0-.69,0-.8-.68Z" style="fill:#f8fcfe"/><path d="M52.57,69.94c-.18,0-.43.06-.5-.21a.59.59,0,0,1,.25-.67,4,4,0,0,0,.49-.58c.14-.17.32-.37.51-.23a1.46,1.46,0,0,1,.35.61s-.12.12-.19.18a.58.58,0,0,1-.14,0c-.72.09-.76.13-.78.88Z" style="fill:#f8fcfe"/><path d="M41.48,74.5a2,2,0,0,0,0-.21c0-.24.11-.33.37-.24a2.48,2.48,0,0,0,.61.06c.2,0,.26.09.18.26s-.16.32-.25.47-.23.35-.47.25S41.44,74.9,41.48,74.5Z" style="fill:#f8fcfe"/><path d="M32.65,61.8a.4.4,0,0,1,.08.67,4.77,4.77,0,0,1-.48.52c-.07.06-.27.1-.3.06a.87.87,0,0,1-.2-.45c0-.09.12-.22.22-.3S32.4,62,32.65,61.8Z" style="fill:#f8fcfe"/><path d="M52.44,71.05c.28,0,.48.07.67.12s.33.25.22.5a.56.56,0,0,1,0,.08l-.48.44a4.9,4.9,0,0,1-.31-.48,1.27,1.27,0,0,1-.15-.41C52.33,71.21,52.41,71.12,52.44,71.05Z" style="fill:#f8fcfe"/><path d="M32.38,63.51c.19-.15.3-.29.43-.32a3,3,0,0,1,.73,0,.34.34,0,0,1,.21.21c0,.06-.07.17-.14.23a1.56,1.56,0,0,1-.35.27c-.11.06-.28.16-.36.11A3.52,3.52,0,0,1,32.38,63.51Z" style="fill:#f8fcfe"/><path d="M52.09,70.78s-.08.15-.11.15a1.06,1.06,0,0,1-.51-.16.58.58,0,0,1-.12-.47c0-.1.23-.18.37-.22s.24.11.27.26Z" style="fill:#f8fcfe"/><path d="M50.21,75.61c-.12.15-.21.34-.37.42s-.45-.33-.44-.54.16-.3.35-.31S50.13,75.3,50.21,75.61Z" style="fill:#f8fcfe"/><path d="M57,66.05c-.21,0-.4,0-.38-.3s.24-.32.45-.35.45.18.43.36S57.21,66,57,66.05Z" style="fill:#f8fcfe"/><path d="M49.24,55.51a1.36,1.36,0,0,1,.58-1.32c.55-.48,1.07-1,1.61-1.47a.45.45,0,0,1,.21-.1c.35,0,.7-.11,1-.14s.67.27.62.8a10.87,10.87,0,0,1-.22,1.27,1.08,1.08,0,0,1-.23.34c-.23.29-.45.58-.69.84a4.44,4.44,0,0,1-.73.71,1.72,1.72,0,0,1-1.25.42c-.57-.08-.91.38-1.24.77s-.86,1.06-1.31,1.57c-.2.23-.47.41-.66.65s-.1.49.21.63a1.06,1.06,0,0,1,.29.22l2.14,2.22c.13.14.33.23.4.39a.7.7,0,0,1,0,.53.37.37,0,0,1-.51.19c-.13-.06-.21-.25-.31-.39s-.23-.35-.36-.51c-.37-.41-.74-.82-1.12-1.22l-.67-.67a1.6,1.6,0,0,1-.22-.31.47.47,0,0,0-.85-.11c-.55.62-1.13,1.23-1.68,1.85-.37.41-.71.84-1.06,1.27-.15.18-.5.35-.64.23a.63.63,0,0,1-.21-.44.8.8,0,0,1,.26-.41c.66-.69,1.33-1.37,2-2,.32-.33.64-.65,1-1a.67.67,0,0,0,0-.94c-.37-.39-.71-.82-1.08-1.22-.17-.18-.37-.32-.55-.48s-.27-.19-.34-.32a1.17,1.17,0,0,0-.84-.58c-.17,0-.36.05-.54,0s-.38,0-.42-.1a2.4,2.4,0,0,1-.2-.72,1.27,1.27,0,0,1,.34-.09.73.73,0,0,0,.77-.6,1.37,1.37,0,0,0,0-.35c0-.12,0-.33.05-.34a.73.73,0,0,1,.44,0,.46.46,0,0,1,.2.3,2.77,2.77,0,0,1,.12.85c0,.6.32.92.69,1.29s.94.68,1.14,1.27c.05.14.22.23.32.35A2.88,2.88,0,0,1,46,59a.46.46,0,0,0,.78.1c.71-.75,1.42-1.51,2.12-2.27C49.16,56.61,49.24,56.26,49.24,55.51Z" style="fill:#f8fcfe"/><path d="M42.32,53.16s.17.05.2.11a.33.33,0,0,1-.09.26c-.24.21-.41.42-.21.75,0,0-.08.14-.13.21s-.22-.13-.22-.21a5.73,5.73,0,0,1,0-.83C41.88,53.19,42.08,53.18,42.32,53.16Z" style="fill:#f8fcfe"/><path d="M41,52.94a4,4,0,0,1-.46-.28.25.25,0,0,1,.23-.45,1.07,1.07,0,0,1,.44.25.31.31,0,0,1,.06.29C41.28,52.83,41.15,52.86,41,52.94Z" style="fill:#f8fcfe"/><path d="M40.84,55.09a.65.65,0,0,1,.69.55c0,.2-.05.25-.23.23a.71.71,0,0,1-.57-.6C40.73,55.2,40.81,55.13,40.84,55.09Z" style="fill:#f8fcfe"/><path d="M49.27,15.56c-.22.4-.22.38-.67.24a5.67,5.67,0,0,0-1.93-.21c-.3,0-.6,0-.9,0s-.79.13-1.19.17a.7.7,0,0,1-.39-.11,4.41,4.41,0,0,1-.49-.36h.15A.89.89,0,0,0,44.7,15a.62.62,0,0,0,0-.7,1.14,1.14,0,0,1-.05-.37.46.46,0,0,0-.5-.49c-.53,0-1,.09-1.57.16-.1,0-.27.14-.27.22,0,.41-.15.85.12,1.21a2.05,2.05,0,0,0,.59.45c.1.07.33,0,.28.21s-.12.39-.38.39a5.61,5.61,0,0,0-.71,0,3.49,3.49,0,0,0-.7.2c-.07,0-.14.11-.2.1s-.42.14-.51-.13a.46.46,0,0,1,.38-.61c.44-.11.51-.23.42-.67a.5.5,0,0,1,0-.27,1.28,1.28,0,0,0-.17-1,.83.83,0,0,1,0-.32c0-.31,0-.63,0-.95,0-.57-.33-.86-.88-.82a1.15,1.15,0,0,1-.41-.13c.07-.15.11-.34.22-.43a.76.76,0,0,1,.87-.08.46.46,0,0,0,.64-.16.52.52,0,0,1,1,.16.23.23,0,0,1-.08.23.51.51,0,0,1-.32.14.42.42,0,0,0-.44.46,4.43,4.43,0,0,0,.1,1,.42.42,0,0,0,.35.2c.54,0,1.08-.07,1.62-.15a.71.71,0,0,0,.45-1,1,1,0,0,0-.72-.6,1.78,1.78,0,0,1-.45-.2c0-.45.36-.67.7-.43.52.36.88,0,1.28-.21.22-.13.44-.2.64,0s.15.26,0,.39a7.52,7.52,0,0,0-.62.5.43.43,0,0,0-.09.61,1,1,0,0,1,0,.85,1,1,0,0,0,0,.74,3.81,3.81,0,0,1,.18,1.07c0,.29.21.39.41.49a4.59,4.59,0,0,0,.73.28.58.58,0,0,0,.43,0,3.68,3.68,0,0,0,1.39-1.15c.36-.6.58-1.26.91-1.87.11-.2.31-.36.43-.56A3.22,3.22,0,0,0,50,11a.5.5,0,0,1,.53-.35.5.5,0,0,1,.52.4,5.48,5.48,0,0,0,.31,1.1c.13.27,0,.64.05,1s.16.74.21,1.12a4.1,4.1,0,0,1,0,.86c0,.29.15.39.39.51a2.32,2.32,0,0,1,.64.53c.15.18.05.33-.19.37a1.38,1.38,0,0,1-.91-.19.94.94,0,0,0-.73-.13,1,1,0,0,1-.47,0c-.11,0-.21-.17-.28-.28s.12-.17.21-.21c.26-.13.57-.17.66-.55a.66.66,0,0,0-.68-.9.9.9,0,0,1-.47-.17c-.18-.13-.31-.15-.47,0s-.46.39-.69.6a.2.2,0,0,0,0,.35C48.83,15.22,49.05,15.38,49.27,15.56Zm1.45-2.82a.53.53,0,0,0,0-.26c-.06-.14-.15-.33-.27-.36a.49.49,0,0,0-.42.15,1.21,1.21,0,0,0-.3,1.14.29.29,0,0,0,.36.26C50.47,13.65,50.73,13.32,50.72,12.74Z" style="fill:#f8fcfe"/><path d="M37.47,16.6a2.36,2.36,0,0,1-.27.66c-.33.43-.71.81-1.07,1.22,0,0-.07.07-.09.07-.52-.13-.76.34-1.12.54-.06,0-.15,0-.21.08a2.33,2.33,0,0,0-.56.36.57.57,0,0,1-.85.07.26.26,0,0,1,.1-.45l.47-.16c.16-.06.19-.53,0-.71a4,4,0,0,1-.29-.3,4.83,4.83,0,0,1-.23-.52,1.82,1.82,0,0,0-.16-.43c-.33-.52-.68-1-1-1.53a.45.45,0,0,0-.69-.08.77.77,0,0,1-.22.19.26.26,0,0,1-.24-.08.51.51,0,0,1,.25-.67c.31-.11.63-.2.94-.32a.51.51,0,0,0,.27-.25c.13-.28.38-.35.63-.45a1.09,1.09,0,0,0,.4-.25.75.75,0,0,1,.71-.21c.24,0,.48,0,.73,0a1.19,1.19,0,0,1,.53.14,4.93,4.93,0,0,1,.83.68,4.62,4.62,0,0,1,.6.91,5.35,5.35,0,0,1,.35.86A5.47,5.47,0,0,1,37.47,16.6Zm-.72-.22a4.83,4.83,0,0,1-.36-.72,2.9,2.9,0,0,0-.92-1.31,1.18,1.18,0,0,0-1-.36,2.57,2.57,0,0,0-.47.15,2.14,2.14,0,0,0-.4.2c-.19.12-.36.28-.56.38s-.27.22-.15.43.42.7.61,1.06.33.73.54,1.06a4.52,4.52,0,0,0,.72.9.75.75,0,0,0,.56,0c.14,0,.23-.22.37-.28a1,1,0,0,0,.61-.58A9.46,9.46,0,0,1,36.75,16.38Z" style="fill:#f8fcfe"/><path d="M24.57,32.58a8.22,8.22,0,0,1-.19-.8c-.06-.38-.34-.48-.63-.6s-.43-.17-.65-.24-.49-.12-.73-.21a5.77,5.77,0,0,1-.76-.35c-.39-.21-.6-.15-.8.24s-.46.47-.72.23-.21-.37,0-.53a.74.74,0,0,0,.28-.68.82.82,0,0,1,.39-.72.43.43,0,0,0,.22-.54.9.9,0,0,1,.12-.79,6.81,6.81,0,0,0,.45-.73.39.39,0,0,1,.56-.15c.4.17.82.29,1.23.44.09,0,.21.11.23.19s0,.29-.07.31-.41.16-.54.08a1.62,1.62,0,0,0-.92-.11.34.34,0,0,0-.33.41.73.73,0,0,1-.28.7c-.22.19-.15.38,0,.61a1.3,1.3,0,0,0,.79.61c.19.07.67-.31.72-.52s-.1-.47-.42-.63a2,2,0,0,1-.41-.36,2,2,0,0,1,.56-.24.52.52,0,0,1,.39.19.86.86,0,0,0,.78.39c.2,0,.4,0,.6,0s.28.11.31.29,0,.34-.21.38a7.34,7.34,0,0,1-.82.09c-.24,0-.44,0-.48.31a.69.69,0,0,0,.45.57,2.32,2.32,0,0,1,.6.23A.5.5,0,0,0,25,30.4a.77.77,0,0,1,.07-.16c.08-.09.2-.24.26-.23a.63.63,0,0,1,.35.27c0,.06-.05.21-.08.32a3.62,3.62,0,0,0-.22.63,1.66,1.66,0,0,1-.62,1.23A1.19,1.19,0,0,1,24.57,32.58Z" style="fill:#f8fcfe"/><path d="M26.48,27c-.33,0-.66-.07-1-.13a1,1,0,0,1-.32-.14c-.34-.21-.69-.41-1-.65a2.15,2.15,0,0,1-.49-.51,1.83,1.83,0,0,1-.5-1.15c0-.05-.06-.1-.08-.16a.73.73,0,0,1,.05-.73c.14-.2.27-.41.39-.62a1.88,1.88,0,0,1,1-.87c.34-.14.66-.36,1-.24a6,6,0,0,1,1.12.47,7.86,7.86,0,0,1,1,.67,1.54,1.54,0,0,1,.28.34c.2.3.38.62.6.91a.52.52,0,0,1,0,.76.83.83,0,0,0-.13.43.68.68,0,0,1-.32.6.75.75,0,0,0-.26.27A1.3,1.3,0,0,1,26.48,27Zm-1.25-4.45a.64.64,0,0,0-.78.38.71.71,0,0,1-.26.22A1,1,0,0,0,24,24.78c.15.16.26.37.42.53a2.8,2.8,0,0,0,.58.51,9.5,9.5,0,0,0,1.22.55.61.61,0,0,0,.44,0,3.88,3.88,0,0,0,.87-.58c.14-.14.13-.43.25-.63.27-.49,0-.83-.29-1.17-.17-.18-.3-.39-.46-.57a1.4,1.4,0,0,0-.33-.26,2.61,2.61,0,0,0-.43-.24C25.94,22.79,25.65,22.47,25.23,22.59Z" style="fill:#f8fcfe"/><path d="M32.22,20.46c0,.35.06.69-.35.85,0,0-.06.07-.08.12-.14.31-.3.59-.69.64a.26.26,0,0,0-.17.14c-.1.31-.34.36-.61.36H29.6c-.06,0-.16,0-.2,0-.52-.49-1.31-.64-1.65-1.36a3.48,3.48,0,0,0-.45-.58,2,2,0,0,1-.36-1.24,1.59,1.59,0,0,1,.47-1.25,5.08,5.08,0,0,1,.81-.66,1.93,1.93,0,0,1,1.44-.16,4.07,4.07,0,0,1,2.27,2A1.53,1.53,0,0,1,32.22,20.46Zm-2.14,1.36c.15,0,.25,0,.34,0,.25,0,.42,0,.49-.31s.19-.24.31-.34a1.27,1.27,0,0,0,.37-1.11A6.66,6.66,0,0,0,31,19a6.41,6.41,0,0,0-.68-.7A1.73,1.73,0,0,0,29,17.9a1.17,1.17,0,0,0-1.12.67,1.53,1.53,0,0,0,0,1.69,11.76,11.76,0,0,0,1,1.11A1.15,1.15,0,0,0,30.08,21.82Z" style="fill:#f8fcfe"/><path d="M55.91,10.63a3.84,3.84,0,0,1,.48,0c.09,0,.22.08.25.16a.67.67,0,0,0,.67.41.78.78,0,0,1,.69.38c.06.11.26.16.4.2s.44.09.53.36a.38.38,0,0,0,.25.17,1.85,1.85,0,0,0,.47,0,.37.37,0,0,1,.46.26c.06.14.27.21.42.32l.47.32a5.91,5.91,0,0,0,.52.35c.25.15.54.26.77.43.49.36,1,.73,1.41,1.12s1.17,1.06,1.76,1.59a.44.44,0,0,0,.19.1c.33.1.62.25.69.64,0,.08.11.14.17.2a10.57,10.57,0,0,1,.73.77c.44.59.86,1.21,1.29,1.81.17.24.34.48.52.71s.18.12.25.2.28.24.32.38a3.94,3.94,0,0,0,.83,1.32,1.78,1.78,0,0,1,.25.36.31.31,0,0,1,0,.26c-.08,0-.25,0-.29,0-.25-.32-.46-.66-.69-1-.11-.16-.21-.32-.32-.47s-.08-.06-.1-.1l-.88-1.28,0-.05c-.56-.67-1.1-1.34-1.67-2-.45-.51-.92-1-1.4-1.5-.2-.2-.47-.33-.69-.51l-1.5-1.26a1.13,1.13,0,0,1-.27-.34.61.61,0,0,0-.56-.37.5.5,0,0,1-.34-.14,4.24,4.24,0,0,0-1.28-.86,1.19,1.19,0,0,1-.41-.36.75.75,0,0,0-.75-.39.52.52,0,0,1-.51-.27.52.52,0,0,0-.35-.21,1,1,0,0,1-.69-.3,1.78,1.78,0,0,0-.51-.27l-.58-.26a6.82,6.82,0,0,0-.68-.31c-.24-.09-.5-.11-.74-.2s-.14-.17-.21-.26a1.14,1.14,0,0,1,.26-.09,3.2,3.2,0,0,1,.44,0Z" style="fill:#f8fcfe"/><path d="M62.93,16.58a1,1,0,0,1,0,.23,3.92,3.92,0,0,1-.34.37c-.06-.12-.12-.24-.19-.36s-.13-.36-.26-.42-.31.08-.42.18a2.11,2.11,0,0,0-.65.85,1.21,1.21,0,0,1-.27.38c-.2.25-.39.49-.6.72a1.45,1.45,0,0,1-.4.34.43.43,0,0,0-.11.77l1.1,1c.3.26.53.19.78-.14s.49-.71,1-.76c.08,0,.22,0,.23.07a.33.33,0,0,1-.06.25c-.28.35-.58.69-.87,1l-.07.06c-.33.5-.46.53-.95.21-.22-.15-.41-.33-.62-.5-.52-.4-1-.78-1.56-1.19a6.13,6.13,0,0,1-.82-.79.46.46,0,0,1,0-.47c.15-.16.29,0,.41.15s.18.26.3.3a.55.55,0,0,0,.62-.15c.29-.34.6-.65.86-1s.74-1,1.09-1.55c.23-.33.18-.54-.13-.79a1.44,1.44,0,0,1-.3-.24.29.29,0,0,1-.06-.26.3.3,0,0,1,.26-.13.85.85,0,0,1,.36.17c.35.25.71.49,1,.76A1.79,1.79,0,0,1,62.93,16.58Z" style="fill:#f8fcfe"/><path d="M53.59,16.36c.53,0,.63-.08.86-.6.13-.29.31-.55.45-.83s.37-.82.56-1.22l.22-.44c.18-.34.09-.52-.25-.65a.71.71,0,0,1-.39-.31c0-.09,0-.36.08-.38s.46-.09.54,0c.44.5,1.11.51,1.62.85.06,0,.15.07.19.13a.42.42,0,0,1,.14.26.36.36,0,0,1-.24.19,3.81,3.81,0,0,1-.59,0c-.44,0-.58.18-.72.59a9,9,0,0,1-.42,1c-.11.26-.2.53-.32.78a.72.72,0,0,1-.21.32c-.44.31-.22.83.17,1a9.69,9.69,0,0,0,1,.44c.46.17.65.05.76-.44s.29-.62.53-.64.49.18.35.55a5.1,5.1,0,0,1-.88,1.31.4.4,0,0,1-.54.1c-.35-.17-.7-.36-1-.55-.11-.06-.21-.15-.32-.2s-.36-.17-.54-.26l-1.47-.7a.33.33,0,0,1-.1-.18.55.55,0,0,1,.24-.15A1.22,1.22,0,0,1,53.59,16.36Z" style="fill:#f8fcfe"/><path d="M52.19,10.14a7,7,0,0,0-.71-.2,2.85,2.85,0,0,0-.51,0c-.11,0-.24,0-.31,0s-.14-.21-.21-.32a.89.89,0,0,1,.32,0,1.13,1.13,0,0,0,.81,0,2.15,2.15,0,0,1,.67-.07c.33,0,.53.14.5.34S52.46,10.1,52.19,10.14Z" style="fill:#f8fcfe"/><path d="M38.91,10.62a2.5,2.5,0,0,1-.54-.13c-.08,0-.14-.18-.14-.28s.16-.13.25-.13a4.2,4.2,0,0,1,.79.05c.11,0,.2.14.3.22a1.3,1.3,0,0,1-.31.21,1,1,0,0,1-.35,0Z" style="fill:#f8fcfe"/><path d="M50.47,19.64c-.36,0-.73,0-1-.26-.09-.1-.28-.08-.41-.15s-.19-.15-.18-.19a2,2,0,0,1,.29-.43.39.39,0,0,1,.26.11c.15.43.5.43.85.42a2.25,2.25,0,0,1,1.31.3,6.08,6.08,0,0,0,1,.31c.25.08.49.23.75.33s.5.16.76.23c.1,0,.26,0,.3.08.21.33.56.35.88.48a6.18,6.18,0,0,1,1,.53c.36.21.71.42,1,.66.51.38,1,.78,1.51,1.18l.14.11c.34.33.68.68,1,1s.63.58,1,.88c.08.08.2.16.23.26a2,2,0,0,1,0,.49c-.15,0-.34,0-.44-.14-.63-.61-1.23-1.25-1.86-1.86a10.88,10.88,0,0,0-1-.9c-.47-.36-1-.67-1.45-1l-.17-.1c-.22-.14-.44-.29-.67-.41s-.48-.21-.72-.31c-.09,0-.2-.05-.26-.12a1,1,0,0,0-.87-.35.66.66,0,0,1-.45-.21.86.86,0,0,0-.8-.36,1.11,1.11,0,0,1-1-.39,1,1,0,0,0-.51-.19A2.46,2.46,0,0,0,50.47,19.64Z" style="fill:#f8fcfe"/><path d="M49.49,22c0-.06,0-.11,0-.14a.78.78,0,0,1,1.17.17.91.91,0,0,0,.49.56c.16.07.17.19.08.34a.79.79,0,0,0,.09,1.12c.13.16.26.18.4,0l.27-.28c.27-.24.56-.18.66.17s.48.61.75.9.66,0,.8-.31a3,3,0,0,0,.16-.51c0-.14,0-.33.23-.31s.37.16.34.38a1.54,1.54,0,0,1-.49,1,.83.83,0,0,1-1,.2,1.14,1.14,0,0,0-.41,0,.42.42,0,0,1-.43-.34c-.13-.44-.37-.61-.8-.52a.66.66,0,0,1-.56-.15,11.58,11.58,0,0,0-1.06-.65c-.17-.09-.2-.17-.06-.31l.08-.09c.17-.2.4-.38.25-.7a.75.75,0,0,0-.86-.45Z" style="fill:#f8fcfe"/><path d="M46.6,19.12c-.57.05-1.14.12-1.71.14a6.08,6.08,0,0,1-1.13-.08c-.07,0-.2-.19-.18-.24s.16-.32.28-.34a.85.85,0,0,1,.54.09.84.84,0,0,0,.74,0,.74.74,0,0,1,.37-.1c.73,0,1.47,0,2.2.06a1.6,1.6,0,0,1,.58.2c.08.05.12.16.18.24a.94.94,0,0,1-.3.12H46.6Z" style="fill:#f8fcfe"/><path d="M41.21,24.18a.79.79,0,0,1,.82-.63c.59,0,.79-.17,1-.73.11-.32.23-.34.49-.11s.5.28.63-.15a1.46,1.46,0,0,0,0-.8c0-.21-.09-.38.06-.55s.33-.15.36.08c.07.49.37,1,.09,1.49a.32.32,0,0,0,0,.09c0,.18-.09.37-.13.56-.19-.06-.38-.19-.55-.16a2.2,2.2,0,0,0-.95.37,1.37,1.37,0,0,1-.87.41,1.7,1.7,0,0,0-.43.11A3,3,0,0,1,41.21,24.18Z" style="fill:#f8fcfe"/><path d="M39.46,24.18h.43c.22,0,.39-.05.45-.29a.64.64,0,0,0-.25-.73A1.12,1.12,0,0,1,39.8,23c-.08-.1-.19-.25-.17-.35a.38.38,0,0,1,.31-.24,2.19,2.19,0,0,1,.6.17,1.43,1.43,0,0,1,0-.16,1.47,1.47,0,0,1,.1-.33,1.15,1.15,0,0,1,.52.14c.08.05.1.23.1.35a.35.35,0,0,1-.14.25c-.32.21-.28.49-.21.79s.1.41-.31.57a1.17,1.17,0,0,0-.24.21s0,0,0,0c-.11.25-.23.51-.55.49S39.45,24.61,39.46,24.18Z" style="fill:#f8fcfe"/><path d="M47.15,23.29c.1-.41,0-.83.48-1,0,0,0-.14,0-.2a1.92,1.92,0,0,0-.09-.32c-.06-.23,0-.37.27-.35a7.86,7.86,0,0,1,.83.11c.24,0,.29.19.13.38a1.27,1.27,0,0,1-.48.38.49.49,0,0,0-.36.56.66.66,0,0,1-.3.64.53.53,0,0,1-.38.09C47.22,23.54,47.19,23.36,47.15,23.29Z" style="fill:#f8fcfe"/><path d="M36.24,25c.14-.18.26-.36.4-.53a.82.82,0,0,1,.26-.23c.21-.12.38,0,.37.22a1.42,1.42,0,0,0,.24,1,1,1,0,0,1-.13,1.06c-.05,0-.18.06-.22,0a1,1,0,0,1-.31-.35c-.09-.2-.11-.44-.21-.64A3.51,3.51,0,0,0,36.24,25Z" style="fill:#f8fcfe"/><path d="M34.22,27.64a1.9,1.9,0,0,1-.34-.12c-.18-.12-.23-.29,0-.41a3.51,3.51,0,0,1,.68-.32.15.15,0,0,1,.15.06c.27.45.77.53,1.19.74a1.56,1.56,0,0,1,.34.34,1.45,1.45,0,0,1-.45.25c-.37,0-.45-.05-.54-.41s-.2-.38-.52-.28C34.54,27.55,34.38,27.59,34.22,27.64Z" style="fill:#f8fcfe"/><path d="M33.72,29.13l-.58-.08a.42.42,0,0,0-.52.36l-.06.26a.42.42,0,0,1-.69.25.34.34,0,0,1,0-.52,1.75,1.75,0,0,1,.35-.2,1,1,0,0,0,.57-.78.43.43,0,0,1,.24-.31c.09,0,.27.08.32.18A6.89,6.89,0,0,1,33.72,29.13Z" style="fill:#f8fcfe"/><path d="M45.14,21.85c.09-.15.22-.39.37-.62a.29.29,0,0,1,.27-.06s.06.17.08.25,0,0,0,.06A1.37,1.37,0,0,0,46,22.83a.48.48,0,0,1,0,.42.42.42,0,0,1-.32.2.32.32,0,0,1-.25-.19C45.31,22.84,45.24,22.41,45.14,21.85Z" style="fill:#f8fcfe"/><path d="M39.17,25.23c-.05.09-.08.21-.15.25a.32.32,0,0,1-.27,0,2.71,2.71,0,0,1-.44-.57,1.49,1.49,0,0,0-.7-.84.22.22,0,0,1-.1-.18c0-.09.1-.21.18-.24a.59.59,0,0,1,.69.26c.18.31.39.61.58.92A4.3,4.3,0,0,1,39.17,25.23Z" style="fill:#f8fcfe"/><path d="M27.83,34.29c-.1.5-.2,1-.32,1.51,0,.07-.11.12-.16.18a1,1,0,0,1-.2-.2.42.42,0,0,1,0-.2c0-.45,0-.91.07-1.36,0-.15,0-.37.23-.37A.45.45,0,0,1,27.83,34.29Z" style="fill:#f8fcfe"/><path d="M33.11,30.1c.66.08.77.16.54.79a6.81,6.81,0,0,1-.39.82.31.31,0,0,1-.21.17.28.28,0,0,1-.2-.17.52.52,0,0,1,.11-.65.37.37,0,0,0,0-.61.3.3,0,0,1-.07-.26C33,30.13,33.07,30.12,33.11,30.1Z" style="fill:#f8fcfe"/><path d="M42.92,21.4a1,1,0,0,1,.29.12c.09.06.13.19.19.29-.12.06-.27.21-.35.18-.34-.12-.49,0-.63.31s-.44.38-.62.1a.33.33,0,0,1,0-.24A1.55,1.55,0,0,1,42.92,21.4Z" style="fill:#f8fcfe"/><path d="M58.35,26.71c-.34,0-.65,0-1,0a.41.41,0,0,1-.26-.28c0-.1.06-.31.14-.33A1.17,1.17,0,0,1,58,26C58.22,26.11,58.28,26.42,58.35,26.71Z" style="fill:#f8fcfe"/><path d="M53.45,23.8c-.07-.06-.21-.12-.22-.2A1.71,1.71,0,0,1,53.3,23c0-.05.21-.09.3-.06a1.93,1.93,0,0,1,.58.27.48.48,0,0,1,.15.3s-.16.11-.25.14Z" style="fill:#f8fcfe"/><path d="M34.15,29.15c.12.09.33.17.35.27.06.36-.19.72-.46.68s-.21-.44-.3-.67.08-.22.24-.21h.12Z" style="fill:#f8fcfe"/><path d="M39.37,24.09a1.29,1.29,0,0,1-.81-.66.36.36,0,0,1,0-.35s.24,0,.34,0C39.37,23.29,39.34,23.68,39.37,24.09Z" style="fill:#f8fcfe"/><path d="M52.32,23.08a6.69,6.69,0,0,1-.65-.44s0-.2,0-.26.19-.16.26-.13a2.05,2.05,0,0,1,.56.31.33.33,0,0,1,.07.29C52.57,22.94,52.44,23,52.32,23.08Z" style="fill:#f8fcfe"/><path d="M48.88,23.18a1.44,1.44,0,0,1,.2-.27s.13.08.19.13a4.19,4.19,0,0,1,.48.46c.07.08.12.27.07.31s-.31.18-.34.14A7.88,7.88,0,0,1,48.88,23.18Z" style="fill:#f8fcfe"/><path d="M56.63,26.92a1.89,1.89,0,0,1,.4.3.28.28,0,0,1-.31.43.67.67,0,0,1-.41-.13.36.36,0,0,1-.1-.36C56.27,27.05,56.45,27,56.63,26.92Z" style="fill:#f8fcfe"/><path d="M34.64,29.14c-.17-.46-.13-.72.12-.86s.41-.05.41.25A.59.59,0,0,1,34.64,29.14Z" style="fill:#f8fcfe"/><path d="M28.91,31.2a1.66,1.66,0,0,1-.29.45.22.22,0,0,1-.35-.23,2,2,0,0,1,.18-.62c0-.07.15-.09.23-.14a1.16,1.16,0,0,1,.14.24,2.11,2.11,0,0,1,0,.26Z" style="fill:#f8fcfe"/><path d="M34.5,26.29c.09-.22,0-.47.32-.47s.32.15.34.34-.23.59-.37.52S34.59,26.43,34.5,26.29Z" style="fill:#f8fcfe"/><path d="M28.32,32.67c-.13.11-.22.25-.3.24a.35.35,0,0,1-.32-.44c0-.15.17-.28.26-.42Z" style="fill:#f8fcfe"/><path d="M55.71,25.89l-.35-.25a1.56,1.56,0,0,1,.42-.19c.09,0,.19.12.29.18Z" style="fill:#f8fcfe"/></svg>