<svg id="Layer_1" data-name="Layer 1" xmlns="http://www.w3.org/2000/svg" viewBox="0 0 93.45 93.45"><title>customer</title><path d="M48.56,46.4c0,1.88,0,3.76,0,5.64A5.41,5.41,0,0,1,43,57.61H36.3a5.28,5.28,0,0,1-5.37-4.81,56.29,56.29,0,0,1,0-8.11,5.39,5.39,0,0,1,5.39-5c.77,0,1.53,0,2.3,0,.43,0,.64.1.62.59a17.19,17.19,0,0,0,0,2c0,.49-.18.6-.62.59-.76,0-1.52,0-2.29,0a2.49,2.49,0,0,0-2.57,2.56c0,2,0,4.05,0,6.08A2.44,2.44,0,0,0,36.29,54c2,0,4,0,6,0a2.48,2.48,0,0,0,2.65-2.64c0-3.62,0-7.23,0-10.85,0-.65.15-.9.82-.83a9.53,9.53,0,0,0,1.85,0c.76-.08,1,.13,1,.94C48.52,42.52,48.56,44.46,48.56,46.4Z" style="fill:#f8fcfe"/><path d="M52.67,48.7c0,2.73,0,5.46,0,8.19,0,.59-.17.76-.74.73a18.57,18.57,0,0,0-2.11,0c-.48,0-.58-.16-.58-.61q0-8.37,0-16.75c0-.49.14-.67.64-.64a16.51,16.51,0,0,0,2.11,0c.59,0,.68.2.67.71C52.66,43.11,52.67,45.9,52.67,48.7Z" style="fill:#f8fcfe"/><path d="M20.2,50.2c1.12,0,2.23.06,3.34,0a3.08,3.08,0,0,0,3-3.09c0-1.05,0-2.11,0-3.16,0-.56.16-.71.69-.68.88.06,2-.27,2.55.16s.13,1.65.18,2.52c0,.41,0,.82,0,1.23,0,3.94-2.45,6.43-6.39,6.48-1.18,0-2.35,0-3.52,0A16.1,16.1,0,0,0,20.2,50.2Z" style="fill:#f8fcfe"/><path d="M20.2,50.2A16.1,16.1,0,0,1,20,53.67a4.33,4.33,0,0,1-.74,1.45,5.52,5.52,0,0,1-3.71.37A2.07,2.07,0,0,1,14.05,54c1.94-.49,2.44-1.15,2.45-3.15,0-3.17,0-6.34,0-9.51.26,0,.26.26.31.46a7.32,7.32,0,0,0,1.25,2.57A3.22,3.22,0,0,0,20.17,46Z" style="fill:#f8fcfe;opacity:0.8"/><path d="M10.86,57.57c-1.23,0-2.47.09-3.7,0a5.32,5.32,0,0,1-4.59-4.84c0-1.91,0-3.82,0-5.73,0-.47.11-.67.63-.69,2.16-.09,2.16-.11,2.18,2.05v3.35A2.3,2.3,0,0,0,7.67,54h2.48a2.28,2.28,0,0,0,.35,3A1,1,0,0,1,10.86,57.57Z" style="fill:#f8fcfe;opacity:0.5"/><path d="M19.29,55.12a4.67,4.67,0,0,1-3.88,2.46c-1.51.1-3,0-4.55,0A1,1,0,0,0,10.5,57a2.28,2.28,0,0,1-.35-3h3.67l.07,0,.16,0a2.08,2.08,0,0,0,1.53,1.46A5.58,5.58,0,0,0,19.29,55.12Z" style="fill:#f8fcfe;opacity:0.6"/><path d="M26.49,42.75c-.94,0-1.88,0-2.82,0-.61,0-.76-.19-.72-.75a14.76,14.76,0,0,0,0-1.76c0-.46.07-.68.61-.67,1.94,0,3.87,0,5.81,0,.51,0,.66.17.63.66a17.75,17.75,0,0,0,0,1.93c0,.48-.18.6-.62.59C28.42,42.73,27.45,42.75,26.49,42.75Z" style="fill:#f8fcfe"/><path d="M42.14,42.84c-2,0-2,0-2-2,0-1.43-.2-1.22,1.27-1.24.64,0,1.29,0,1.93,0s.71.18.68.7a8.47,8.47,0,0,0,0,1.67c.09.73-.22.92-.88.84A9.17,9.17,0,0,0,42.14,42.84Z" style="fill:#f8fcfe"/><path d="M90.63,39.8c-.6-.57-1.79-.11-2.72-.19-.5,0-.66.14-.65.64,0,1.62,0,3.24,0,4.85a3.14,3.14,0,0,1-3.18,3.55l-.16-.09c0-2.71,0-5.41,0-8.12,0-.59-.12-.85-.77-.8a12.51,12.51,0,0,1-2,0c-.68-.06-.83.19-.82.84,0,3.64,0,7.29,0,10.93A2.43,2.43,0,0,1,77.87,54c-2.09,0-4.18,0-6.26,0a2.42,2.42,0,0,1-2.19-1.39c-.31-.56-.25-.82.5-.81,2.14,0,4.29,0,6.44,0,.53,0,.77-.08.77-.71,0-3.58,0-7.17,0-10.75,0-.61-.22-.74-.77-.72-1.53,0-3.06,0-4.58,0a5.49,5.49,0,0,0-5.48,5.7c0,.79,0,1.59,0,2.38,0,.45-.13.63-.6.61-.88,0-1.76,0-2.64,0-.56,0-.7-.18-.69-.71,0-1.91,0-3.83,0-5.74,0-.72.33-1.66-.14-2.11s-1.41-.06-2.13-.16S59,39.78,59,40.72c.07,3.38,0,6.76,0,10.14a3.16,3.16,0,0,1-3.34,3.4c-.56,0-1.12,0-1.67,0s-.65.09-.62.58a20.18,20.18,0,0,1,0,2.2c0,.49.17.6.61.58a17.94,17.94,0,0,1,2.2,0,5.87,5.87,0,0,0,6.17-5.29c0-.5.27-.56.68-.55.82,0,1.64,0,2.47,0,.57,0,.79.08.82.74a5.34,5.34,0,0,0,5.47,5.09c2.32,0,4.64,0,7,0a5.23,5.23,0,0,0,5.1-4.5c.09-.91.43-1,1.2-1.1a6.05,6.05,0,0,0,5.72-6.21c0-1.14,0-2.29,0-3.44C90.75,41.48,91.14,40.3,90.63,39.8ZM69.16,46.36c-.22-3.26,1.61-3.69,4.08-3.54.44,0,.44.27.44.58,0,.74,0,1.47,0,2.35s.4,2-.2,2.46-1.68.14-2.56.15c-1.76,0-1.76,0-1.76-1.73A2.43,2.43,0,0,0,69.16,46.36Z" style="fill:#f8fcfe"/><path d="M80.37,38.33c-.07.57.12.76.71.75,1.47,0,2.94,0,4.41,0,1,0,1.93,0,2.9,0,.76,0,1.75.32,2.21-.13s.08-1.5.18-2.27-.22-.76-.8-.75c-2.41,0-4.81,0-7.22,0-.76,0-1.74-.32-2.21.13S80.46,37.55,80.37,38.33Z" style="fill:#f8fcfe"/><path d="M19.57,39.6c-1,0-1.93,0-2.89,0-.12,0-.18,0-.16.16,0,.52,0,1.05,0,1.57,0,.82,1,4.51,3.63,4.59,0-1.9,0-3.8,0-5.7C20.21,39.77,20.09,39.57,19.57,39.6Z" style="fill:#f8fcfe"/></svg>