<svg id="Layer_1" data-name="Layer 1" xmlns="http://www.w3.org/2000/svg" viewBox="0 0 93.45 93.45"><title>customer</title><path d="M84.25,46.77c.32,20.4-17,37.62-37.69,37.52A37.91,37.91,0,0,1,9.19,46.58,37.89,37.89,0,0,1,47,9.16C67.4,9.27,84.6,26.36,84.25,46.77Zm-47-35c-.16-.17-.23-.09-.25.09a1.56,1.56,0,0,1-.7.19c-.16-.18-.22-.09-.25.09l-.56.17c-.17-.18-.22-.08-.25.09L33.73,13c-.17-.09-.32-.09-.36.15a.59.59,0,0,1-.44.16c-.18-.17-.23-.06-.24.12l-.53.28C15,21.43,6.45,40.47,12.56,58.17,17.22,71.64,26.9,79.72,40.89,82.34A34.49,34.49,0,0,0,62.17,79.4a36.19,36.19,0,0,0,20-40A35.32,35.32,0,0,0,69.36,18.6a35.41,35.41,0,0,0-27.52-7.66C40.29,11.14,38.79,11.54,37.27,11.81Z" style="fill:#f8fcfe"/><path d="M81.71,46.74a35,35,0,1,1-34.88-35A35,35,0,0,1,81.71,46.74ZM21.26,57.8c0,1.48,0,2.51,0,3.55a1.78,1.78,0,0,0,1.9,1.91,12.51,12.51,0,0,0,1.62,0,1.68,1.68,0,0,1,1.6.73,25.83,25.83,0,0,0,17.43,9.31,25.84,25.84,0,0,0,22.44-8.36,4.46,4.46,0,0,1,4.07-1.74c1.3.13,2-.61,2-1.93,0-2,0-3.92,0-5.88a4.53,4.53,0,0,1,.18-1.27,26.37,26.37,0,0,0-1-17.73C64.57,19.86,43.31,14.62,29.69,26.21,21.77,33,18.76,41.64,20.57,51.9,20.94,54,21.5,56.08,21.26,57.8Z" style="fill:#f8fcfe"/><path d="M62.05,26.39c-8.47-6.33-17.71-6.85-27.2-2.22a23.73,23.73,0,0,0-7.55,6.06,22.77,22.77,0,0,0-4.42,7.6.43.43,0,0,0-.14.35.59.59,0,0,0-.14.46.33.33,0,0,0-.13.35.91.91,0,0,0-.16.58.17.17,0,0,0-.08.24,3.6,3.6,0,0,0-.32,1.25,2.26,2.26,0,0,0-.22,1,.86.86,0,0,0-.08.57,2.3,2.3,0,0,0-.17,1.19,3.25,3.25,0,0,0-.1,1.24,10.1,10.1,0,0,0,0,3.2,3.51,3.51,0,0,0,.09,1.25.46.46,0,0,0,.07.51.32.32,0,0,0,.05.3.51.51,0,0,0,.06.46.08.08,0,0,0,0,.09h0s0,0,0,.06l0,.09c.15.28.4.14.61.14.85,0,1.71,0,2.56,0,0,.22,0,.45,0,.67v7.49a1.6,1.6,0,0,0,1,1.57c1.63.11,3.27,0,4.91,0a.62.62,0,0,0,.67-.44v0c.24-.19.13-.45.13-.69,0-2.67,0-5.34,0-8,0-.22-.14-.59.23-.59a14.37,14.37,0,0,1,3.34.09c0,.34,0,.68,0,1q0,4.84,0,9.67a.22.22,0,0,0-.12.24,2.71,2.71,0,0,1-1,.93.33.33,0,0,0-.35.11h-6c-.09-.07-.17,0-.19,0s.06.22.18.26a20.23,20.23,0,0,0,4.09,3.75A24.31,24.31,0,0,0,43.52,72a25.3,25.3,0,0,0,21.54-7.5,3.27,3.27,0,0,0,1.18-2.9c-.11-1,0-1,1-1,1.15,0,1.49-.33,1.49-1.47,0-2.46,0-4.91,0-7.37,0-.47.11-.66.6-.62s.94,0,1.42,0c1.23,0,1.25,0,1.38-1.26C73.07,40.25,69.81,32.2,62.05,26.39Zm.19,22.19c.65-.13.6-.62.59-1.1v-.81c0-.23.1-.37.36-.37h1.48c.16,0,.36,0,.35.22s-.21.2-.36.19c-.53,0-1,0-1,.72-.05,1,.13,1.15,1.15,1.17.26,0,.76-.22.76.23s-.49.13-.76.15a8.49,8.49,0,0,1-1,0H62.36c-.12,0-.24,0-.28-.14A.21.21,0,0,1,62.24,48.58ZM33,49.22c-.12.29-.27.57-.42.85s-.3.35-.55.22-.14-.34-.07-.52a11.37,11.37,0,0,1,3.47-4.91,13.52,13.52,0,0,1,3.49-1.93c1-.42,2-.91,2.29-2.18a.17.17,0,0,0,.06-.25.44.44,0,0,0,.07-.43,1,1,0,0,0,0-.78c.08-1-.54-1.44-1.28-1.81-.31-.15-.62-.26-.7-.63s-.21-.94-.9-1c-.41,0-.38-.53-.21-.84a2.56,2.56,0,0,1,1.63-1.53,2.38,2.38,0,0,0,.51-.29h0c.37-.42.17-.87.09-1.32A1.71,1.71,0,0,0,40.4,31a.18.18,0,0,0,0-.25.3.3,0,0,0-.06-.3.31.31,0,0,0-.09-.37.57.57,0,0,0-.08-.44.27.27,0,0,0-.11-.34c0-.16-.09-.31-.14-.47h0a.29.29,0,0,0-.13-.33,4.61,4.61,0,0,0-.69-1.45c-.43-.72-.36-1.07.4-1.46A14.24,14.24,0,0,1,46,24c.54,0,1.08,0,1.62,0s.74.27.72.81a16.81,16.81,0,0,0,.38,4.9,2.59,2.59,0,0,0,2.56,2.35c.36,0,.79.08.86.5s-.32.55-.59.75l-.12.06c-.67.15-1,.45-.65,1.2A1.36,1.36,0,0,1,50.39,36a.79.79,0,0,0,.06,1.17c.9,1,.88,1-.22,1.82a3.94,3.94,0,0,0-.67,2s0,.06,0,.07c.76.11.71,1.06,1.36,1.3a16.52,16.52,0,0,1,5.37,3.89,15,15,0,0,1,3,3.63c.08.14.32.29.12.46s-.43,0-.58-.14l-.2-.27a31,31,0,0,0-6.73-6.41c-.54-.39-1.19-.8-1.8-.44s-.33,1.16-.26,1.76a5.06,5.06,0,0,0,1,2.06,2,2,0,0,1,.4,1.25.78.78,0,0,0,.15.58c.51.51.11.66-.29.79s-.66.5-1,.27S50,49,50,48.6a.59.59,0,0,0,0-.13c0-.32.25-.78-.09-.92s-.31.39-.51.58-.18.31-.36.26-.17-.25-.2-.4a4.35,4.35,0,0,0-1-2c-.55-.57-1-.56-1.46,0a13.91,13.91,0,0,1-3,2.74c-.45.29-.39.57-.17,1,.1.18.37.39.17.6s-.51.08-.78.07-.29-.27-.32-.49a27.47,27.47,0,0,0-1.15-4.65c0-.14-.06-.34-.23-.38s-.26.16-.34.28a29.55,29.55,0,0,0-2.4,3.35c-.11.2-.21.46-.55.26s-.24-.41-.07-.66c.87-1.34,1.71-2.7,2.67-4,.11-.15.32-.31.17-.54s-.35-.17-.55-.14a3.45,3.45,0,0,0-.65.17A10.54,10.54,0,0,0,33,49.22Zm8.16-8.68a.1.1,0,0,0-.06.05A.1.1,0,0,1,41.16,40.54Zm.07-1.06a.48.48,0,0,0,0,.2A.48.48,0,0,1,41.23,39.48Zm-1-8.57a.1.1,0,0,1,0-.07A.1.1,0,0,0,40.27,30.91Zm14.59,21c0,.06,0,.12,0,.18S54.86,52,54.86,51.92Zm.19,11.37H53.5c-.92,0-1.85,0-2.77,0-.39,0-.49-.12-.51-.5C50.16,61,50.15,61,52,61c1.42,0,2.83,0,4.25,0,.45,0,.58.13.58.58C56.81,63.29,56.83,63.29,55.05,63.29Zm1.77-3.73a.37.37,0,0,0,.23,0A.37.37,0,0,1,56.82,59.56Zm7.24,0h0Zm.27-.17-5.14,0a3.51,3.51,0,0,0-.14-.58c-.21-.52-.49-.56-.83-.12a2.42,2.42,0,0,1-1.06.76l-6.52,0c-.32,0-.63,0-.81-.32a.75.75,0,0,0-.6-.79c-.4-.13-.5.22-.66.44a1.67,1.67,0,0,1-1.46.69c-1.31,0-2.62,0-3.92,0-.41,0-.64-.09-.7-.52a.63.63,0,0,0-.44-.56c-.3-.09-.33.24-.47.39a1.68,1.68,0,0,1-1.33.69c-1.19,0-2.39,0-3.58,0-.39,0-.55-.13-.51-.51a2.67,2.67,0,0,0,0-.4c0-1.25,0-1.25,1.23-1.32.67,0,1-.34,1-1,0-1.44,0-2.88,0-4.32,0-.43.11-.61.56-.59.84,0,1.67,0,2.5,0,.43,0,.54.14.53.55,0,1.42,0,2.84,0,4.26,0,.91.24,1.14,1.18,1.14h1.14c.89,0,1.15-.28,1.16-1.19,0-1.38,0-2.75,0-4.12,0-.51.14-.68.65-.65a21.87,21.87,0,0,0,2.29,0c.57,0,.68.19.66.7,0,1.42,0,2.84,0,4.26,0,.71.27,1,1,1,1.35,0,2.7,0,4,0,.58,0,1-.27,1-.87,0-1.17,0-2.34,0-3.51a5.74,5.74,0,0,0,.05-.92c-.05-.49.11-.67.62-.65,1,0,1.92,0,2.87,0,0,1.59,0,3.18,0,4.78,0,.9.25,1.14,1.17,1.14h1.21c.82,0,1.1-.29,1.1-1.09,0-1.6,0-3.19,0-4.79,0-.2.17-.23.34-.23h3c.14,0,.28,0,.2.23l0,6.95a.21.21,0,0,0-.11.24A2.19,2.19,0,0,1,64.33,59.39Zm1.24-.94a.1.1,0,0,0,.07-.05A.1.1,0,0,1,65.57,58.45Z" style="fill:#f8fcfe"/><path d="M43.79,37.69a.76.76,0,0,1-.17.63.82.82,0,0,0-.17.69c0,2.64,2.24,3.78,4.38,3.64A2.32,2.32,0,0,0,49.28,42c.13-.14.36-.32.16-.51s-.25-.65-.23-1,0-.46-.21-.59-.47,0-.66.18-.38.38-.58.56-.22.2-.35.12-.08-.24,0-.36a1.67,1.67,0,0,1,1.26-1.12,5.78,5.78,0,0,0,1.51-.7c.66-.37.63-.68.13-1.13A1.24,1.24,0,0,1,50,35.65a1.66,1.66,0,0,0,.23-.63c.11-.92,0-1.57-1.23-1.42a10.07,10.07,0,0,0-3,.6C44.24,34.79,43.63,35.81,43.79,37.69Zm3-2.43a2.89,2.89,0,0,1,2,.45c.08.09.14.19.06.3s-.4.15-.62.16a.79.79,0,0,1-1.18.54.34.34,0,0,1-.15-.34c0-.13.16-.25.22-.19.43.41.67-.23,1-.16-.32-.62-.88-.17-1.31-.28-.12,0-.3.18-.37-.07S46.55,35.34,46.74,35.26Z" style="fill:#f8fcfe"/><path d="M45.85,43.87a3.61,3.61,0,0,1-1.62-1.15c-.12-.2-.28-.37-.54-.31a.57.57,0,0,0-.41.56c-.06.54-.09,1.07-.12,1.51s0,1.05.09,1.51.34.62.77.42a5.92,5.92,0,0,0,2-1.48C46.53,44.38,46.49,44.19,45.85,43.87Z" style="fill:#f8fcfe"/><path d="M40.81,35.45c2.31-.61,4.46-1.7,6.8-2.2C45,32.88,42.88,34.12,40.81,35.45Z" style="fill:#f8fcfe"/><path d="M43.43,47.35c-.53.3-.69.21-.7-.39,0-.8,0-1.61,0-2.42,0-.15.05-.36-.16-.39s-.25.15-.27.31a7.79,7.79,0,0,0,.19,3.26.59.59,0,0,0,1,.38,8.48,8.48,0,0,0,1.81-1.45.51.51,0,0,0,.18-.56C44.77,46.52,44.11,47,43.43,47.35Z" style="fill:#f8fcfe"/><path d="M43.67,42c.13.1.32.26.48.1s0-.38-.16-.5a6.14,6.14,0,0,1-1.53-2.66c-.09-.3,0-.86-.39-.8s-.17.65-.24,1C41.61,40.59,42.69,41.26,43.67,42Z" style="fill:#f8fcfe"/><path d="M48.88,43.1c-.37.07-1,.15-.94.48.07.52-.34,1.17.3,1.61s.84.31,1-.33a3.56,3.56,0,0,0,.05-.47,1.08,1.08,0,0,0,0-1C49.24,43.13,49.08,43.07,48.88,43.1Z" style="fill:#f8fcfe"/><path d="M41.54,41.56a1.57,1.57,0,0,0,.53,1c.21.21.35.29.6.1s.36-.39.2-.66a4.49,4.49,0,0,0-.53-.76c-.15-.18-.33-.46-.6-.31S41.63,41.37,41.54,41.56Z" style="fill:#f8fcfe"/><path d="M47,43.57c-.31.11-.09.38,0,.56a.56.56,0,0,1-.07.62.21.21,0,0,0,.05.3.23.23,0,0,0,.3-.09,1,1,0,0,0,.28-.72.59.59,0,0,0,0-.2C47.4,43.79,47.28,43.46,47,43.57Z" style="fill:#f8fcfe"/><path d="M41.56,44.18a1,1,0,0,0,.49-.94c0-.19-.11-.43-.31-.34-.44.19-.32.69-.47,1C41.22,44.07,41.37,44.18,41.56,44.18Z" style="fill:#f8fcfe"/></svg>