<svg id="Layer_1" data-name="Layer 1" xmlns="http://www.w3.org/2000/svg" viewBox="0 0 93.45 93.45"><title>customer</title><path d="M44.69,27.4c-.79-.48-1.58-1-2.37-1.44-.39-.24-.71,0-1,.18a7,7,0,0,1-6.95-.31,19.85,19.85,0,0,1-1.75-1.43c-.21-.36-.41-.73-.61-1.09-1.87-4.9-5-6.75-10.36-6.06a11.85,11.85,0,0,0-3,.74c-1,.4-1.91.82-3,1.3a17.63,17.63,0,0,1,2.7-4.58A19.67,19.67,0,0,1,24.2,9.46c4.89-2.67,10-3.45,15.28-1.41a8.79,8.79,0,0,1,5.45,6.08c.08.27.17.54.27.8,0,.05.07.08.19.2a14,14,0,0,1,2.47-3.72,3.08,3.08,0,0,1,3.4-1.15,3.55,3.55,0,0,1,2.31,3,2.15,2.15,0,0,1-.85,2.21,15,15,0,0,0-5,10.33c-.06.35-.38.4-.62.51ZM40,18.51v-.23c.41.06.62,0,.34-.47a14.84,14.84,0,0,0-2.63-3.07,1.87,1.87,0,0,0-1.43-.36,5,5,0,0,1-1.88,0v-.1l2.24-.44a11.67,11.67,0,0,0-4.26-1.66c-1.52-.27-2.78.47-4.08,1.07l-.11-.12A17.51,17.51,0,0,1,30,12.07c-2.17-.08-4.06.62-6,1a1.4,1.4,0,0,1,.51-.3,16.8,16.8,0,0,1,6.85-1.33c.45,0,.66-.46,1.11-.25,1.61.74,3.45.81,5,2A4.19,4.19,0,0,0,37,11.74h.25c.51.7.61,1.64,1.37,2.2A16.51,16.51,0,0,1,42,17.56c.17.17.28.15.31-.11l-.2-3h.22l0,.3.05.2a8.22,8.22,0,0,1,.22,2.36c-.16,1.44.77,2.41,1.33,3.55a10.33,10.33,0,0,0-.12-4.79c-.83-3.7-2.88-6.23-6.79-6.92a18.78,18.78,0,0,0-16.55,4.92,13.56,13.56,0,0,0-2.2,2.59c.4-.09.65-.14.89-.21A16.18,16.18,0,0,1,25.88,16c3.22.42,5.76,1.8,7.1,4.93.16.39.36.77.55,1.15a5.13,5.13,0,0,0,5.13,3.08,15.3,15.3,0,0,0,3.66-.71c.56-.16.61-.41.49-.92a31.39,31.39,0,0,0-1.44-3.9A1.52,1.52,0,0,0,40,18.51ZM51.2,14.63a2.15,2.15,0,0,1-2.52-1.55c-.22-.59-.4-.57-.74-.1a21.39,21.39,0,0,0-1.84,2.95c-.93,1.78-.74,3.75-1,5.64a8.89,8.89,0,0,0,.23,2.95.69.69,0,0,0,.7.6c.43,0,.38-.34.42-.6a17,17,0,0,1,5.56-10c.14-.13.31-.23.37-.44a2.5,2.5,0,0,0-2.29-2.81c-.81.07-1,.37-.95,1.16A2.56,2.56,0,0,0,51.2,14.63Z" style="fill:#f8fcfe"/><path d="M60.51,43.34c0,.91,0,1.82,0,2.72a2,2,0,0,1-1.78,2.23c-2.67.64-5.34,1.27-8,1.85-3.93.84-7.89,1.56-11.85,2.23-.87.14-1.72.32-2.59.43A1.4,1.4,0,0,1,35,52.55c-.24-.24-.39,0-.58.05-1.73.91-3.68.8-5.54,1.13-.26,0-.38-.06-.33-.33a.88.88,0,0,0,0-.16c.08-2.12.08-2.12,2.21-2.37,2.31-.26,2.48-.45,2.56-2.78,0-.9-.28-1.2-1.17-1.1s-1.74.2-2.61.34c-.43.07-.52,0-.48-.47.14-1.87.29-2.07,2.19-2.34.95-.14,1.91-.25,2.87-.37a1.78,1.78,0,0,1,2.12,2c-.06,1.08-.2,2.15-.32,3.22-.07.61.14.92.81.79,4.45-.85,8.93-1.54,13.35-2.52,2.19-.48,4.36-1,6.55-1.47a1,1,0,0,0,.92-1.23c-.1-1.55-.1-3.11-.18-4.67,0-.53,0-.8.66-.68s1.75-.19,2.21.29.13,1.45.18,2.21c0,.42,0,.85,0,1.27Z" style="fill:#f8fcfe"/><path d="M44.69,27.4l2.39-1.09c.24-.11.56-.16.62-.51a11.78,11.78,0,0,0,2.15-1.49,17.63,17.63,0,0,1,13-4.29,13.48,13.48,0,0,1,7.71,3.2,18.55,18.55,0,0,1,6.58,10.05,1.86,1.86,0,0,1,0,.33,15.74,15.74,0,0,0-3-.51,18.37,18.37,0,0,0-9-9.53c-2.4-1.18-5-1-7.59-.54a16.64,16.64,0,0,0-6.26,2.68A19.72,19.72,0,0,1,40,29.41a2,2,0,0,1-.79-.15A21,21,0,0,0,44.69,27.4Z" style="fill:#f8fcfe"/><path d="M15.75,40.21c-.47,0-.51-.32-.43-.7.24-1.15.47-2.3.7-3.45a37.72,37.72,0,0,1,2.44-5.29A16.06,16.06,0,0,1,27.65,24,15.42,15.42,0,0,1,32,23.31c.2.36.4.73.61,1.09a21.21,21.21,0,0,0-8.79,4.23c-3.46,2.95-5.44,6.62-5.2,11.28,0,.67-.17.74-.75.61S16.45,40.31,15.75,40.21Z" style="fill:#f8fcfe"/><path d="M65,45.75a7.77,7.77,0,0,1-2.05-.56,2.47,2.47,0,0,1-1.41-2.81,8.68,8.68,0,0,1,1.88-4,3.07,3.07,0,0,1,5.12.81,8.22,8.22,0,0,1,.21,5.23,14.46,14.46,0,0,1-2.25,4.82c-.25.36-.46.49-.89.29a14.85,14.85,0,0,0-1.82-.7c-.4-.13-.39-.26-.16-.58A8.25,8.25,0,0,0,65,45.75Zm1.48-4.35c0-.55,0-1.09-.49-1.25s-.78.24-1,.59a3.15,3.15,0,0,0-.64,1.46.93.93,0,0,0,.82,1.08.77.77,0,0,0,1.06-.66C66.26,42.18,66.35,41.74,66.43,41.4Z" style="fill:#f8fcfe"/><path d="M43.83,77.2a1.42,1.42,0,0,1,.66,1.57,18.78,18.78,0,0,0-2,2.81C36.64,85.94,30.29,88,23,85.41c-.38-.14-.42-.28-.33-.59.16-.57.31-1.15.46-1.72l1,.26a3.72,3.72,0,0,0,2.61.83A23.33,23.33,0,0,0,41.13,80a5.13,5.13,0,0,0,1.94-2.06h0c.22,0,.2-.22.28-.35l.49-.38Z" style="fill:#f8fcfe"/><path d="M75.9,52.6a55.43,55.43,0,0,1-2.73,5.45c-.06.11-.21.21,0,.32-1.14,1.44-1.86,3.15-3,4.6a66.16,66.16,0,0,1-5.49,6.22.83.83,0,0,1-1.27.15c-1.21-.81-1.23-.77-.24-1.81.51-.53,1-1.07,1.5-1.62.11-.11.39-.21.17-.45h0c.39.14.44-.25.58-.42.66-.8,1.28-1.64,1.92-2.46.07-.1.13-.2.19-.3a42.67,42.67,0,0,0,5-8.93,1.15,1.15,0,0,1,1.23-.86A7.85,7.85,0,0,1,75.9,52.6Z" style="fill:#f8fcfe"/><path d="M53.08,83c-.22.41-.56.19-.86.19-.82,0-1.64,0-2.46-.07a6.56,6.56,0,0,1-2.46-.85L47,82a9.85,9.85,0,0,1,2.86-6.27A9.06,9.06,0,0,1,53.33,73c.46-.19,0-.47.22-.6a.8.8,0,0,0,1,.23,18.57,18.57,0,0,0,2.28-.78,27.25,27.25,0,0,1,3.13.19A2.24,2.24,0,0,1,61.86,75a6.76,6.76,0,0,1-1.08,2.38,14.11,14.11,0,0,1-6.49,5.15C53.89,82.66,53.41,82.65,53.08,83Zm1.72-5.27a8,8,0,0,0,.65,2c.44,1,1.13,1.08,1.91.32s.78-1.18.33-1.67l.16-.15c1.4.27,2,.1,2.24-.92A15.91,15.91,0,0,1,61,74.85c.12-.27.28-.65,0-.87s-.53.07-.79.14-.59.19-.88.29l-.1-.12c.37-.33.75-.66,1.12-1,.14-.14.35-.29,0-.53a1.92,1.92,0,0,0-2.84.71h0c-.43.15-.38.82-1,.86.26-.61,1-1.38.61-1.69s-1.25.15-1.85.45c-.29.14-.7.17-.7.62a7.23,7.23,0,0,0,.15,2c.14.48.33.55.66.18.17-.18.32-.37.48-.54.27.17-.16.36,0,.52.38,0,.64-.41,1.06-.32-.17.42-.89.46-.66,1.08v.06c-.21.29-.67.26-.82.64S55,77.43,54.8,77.72Zm-6.46,2a1.27,1.27,0,0,0-.48.95c-.14.71.06.91.74.72A11,11,0,0,0,49.82,81c-.25.51-.79.74-.88,1.28a2.29,2.29,0,0,0,3.23-1.15c.16.35,0,.54-.07.75s0,.44.32.4a5.32,5.32,0,0,0,2.57-.8c.22-.15.41-.31.35-.62a5.54,5.54,0,0,0-1.17-2.74l-1.42,2.35c0-.62.29-1.11.19-1.67-.43,0-.57.52-1,.42.44-.65.55-1.52,1.49-1.72a24.44,24.44,0,0,0-4-.28c-.47,0-1.06.83-1.15,1.46s.55.29.77.51c-.26.27-.63.29-.77.61Zm5-3.37c1.15.21,1.15.21,1-1,0-.22,0-.45-.06-.67-.11-1-.58-1.28-1.39-.67a6.56,6.56,0,0,1-2.22,1.41c-.26.06-.42.36-.56.61-.24.42-.12.61.34.67a12.76,12.76,0,0,0,2.69.24c.19,0,.45.1.54-.11S53.44,76.63,53.33,76.39Z" style="fill:#f8fcfe"/><path d="M43.83,77.17l-.49.38c-.15.08-.41.06-.28.35h0c-.36-.21-.48.17-.65.32a19.92,19.92,0,0,1-4,2.67c-3.61,1.82-7.34,3.12-11.47,2.8-.93-.08-1.85-.21-2.78-.32l-1-.26a12.46,12.46,0,0,1,1.61-4.33,55.59,55.59,0,0,0,3.86-8.72,1.6,1.6,0,0,1,1.74-1.18,11.1,11.1,0,0,1,2.78.69l.53.19a51.72,51.72,0,0,0,5.64,3.59,35.73,35.73,0,0,0,3.25,2.14c.47.22.47,1,1.09,1.1Zm-15.93,6A20.18,20.18,0,0,0,41,78.61a6.79,6.79,0,0,0,1.38-1.5c.35-.55.32-1-.29-1.32-1-.59-2-1.24-3-1.87a55.65,55.65,0,0,0-7.11-4c-1-.42-1.09-.37-1.24.69a36.56,36.56,0,0,1-3.44,10.79C26.37,83.21,26.4,83.23,27.9,83.19Zm-3.72-1.14c.05.25-.15.6.21.74a1,1,0,0,0,1.05-.09,3.85,3.85,0,0,0,.51-.56c2.7-3.59,3.77-7.74,4.15-12.12,0-.51-.18-.52-.55-.37a.75.75,0,0,0-.46.65,14.37,14.37,0,0,1-1.53,4.21c-.75,1.4-1.54,2.77-2.27,4.17A8.19,8.19,0,0,0,24.18,82.05Z" style="fill:#f8fcfe"/><path d="M24.6,54.11c-1.41.1-1.43.1-1.25-1.28.42-3.43.88-6.85,1.29-10.28.06-.55.25-.74.77-.7a6.62,6.62,0,0,0,.77,0c1.56-.11,1.56-.11,1.37,1.41-.41,3.25-.86,6.51-1.21,9.77-.09.87-.41,1.18-1.23,1.1A2.9,2.9,0,0,0,24.6,54.11Z" style="fill:#f8fcfe"/><path d="M35.43,35.18c1,0,1.4-.37,1.26-1.32a2.43,2.43,0,0,1,0-.85c.05-.29-.28-.82.43-.75.48.06,1,0,.87.77a4,4,0,0,0,0,.85c0,.3-.15.78.41.73s1,0,1-.74a1.93,1.93,0,0,1,0-.34c0-1.87.27-2.1,2.15-2.25.56-.05.9.16.92.71,0,.77,0,1.53,0,2.3a1,1,0,0,1-.89.89c-1.2.2-2.4.43-3.61.6a15.11,15.11,0,0,0-2.82.76c-.44.15-.47.74-.75,1.1a.88.88,0,0,1-1.41.07c-.27-.34.15-.48.27-.69.22-.38.39-.61-.24-.81-.85-.28-1.05-.85-.73-1.68a7.69,7.69,0,0,1,.38-.76,1.49,1.49,0,0,1,1.73-.91c.82.19,1,.87,1,1.58C35.44,34.69,35.43,34.94,35.43,35.18ZM41.24,33c-.12-.22.22-.77-.23-.78s-.44.54-.44.93a1.11,1.11,0,0,0,0,.26c.07.25-.2.72.28.72s.38-.42.38-.73Zm-6.87,1.44c0-.2,0-.47-.29-.43a.86.86,0,0,0-.69.86.39.39,0,0,0,.47.46C34.33,35.26,34.23,34.78,34.37,34.46Z" style="fill:#f8fcfe"/><path d="M60.39,29.46v.68c0,1.09-.22,1.35-1.29,1.5-1.67.23-3.29.65-4.92,1-.63.15-.63.74-1,1.09s-.27.75-.82.51-1-.37-.38-1c.38-.39.25-.61-.28-.79-.81-.29-1-.81-.7-1.63a3.65,3.65,0,0,1,.23-.54c.55-1,1.13-1.38,1.93-1.16s.93,1,1,1.76c0,.19-.17.52.19.54a.63.63,0,0,0,.71-.47,2.85,2.85,0,0,0,0-.51c0-.39,0-.79,0-1.18s-.13-.77.52-.7c.49.05.9.06.8.74a5.8,5.8,0,0,0,0,1c0,.24-.1.59.27.6s.43-.32.43-.62c0-.53,0-1.07,0-1.61,0-.26-.08-.64.4-.52s.94-.18.88.57a7,7,0,0,0,0,1c0,.29-.13.74.3.75s.38-.47.4-.79c0-.48,0-1,0-1.44,0-.3,0-.63.42-.51s.88-.16.88.5c0,.4,0,.79,0,1.19ZM53.1,30.85c0-.26.06-.56-.24-.57s-.58.4-.7.75a.4.4,0,0,0,.36.55C53.06,31.63,53,31.11,53.1,30.85Z" style="fill:#f8fcfe"/><path d="M20.3,60.6a11,11,0,0,1,2.5.09,47.41,47.41,0,0,0,4.84,7.14c1,1.21,1,1.21.08,2.7A55.13,55.13,0,0,1,20.3,60.6Z" style="fill:#f8fcfe"/><path d="M52.2,62.87a2.66,2.66,0,0,0-3.72-1.95,3.82,3.82,0,0,0-2.71,3.44c0,.59.15,1,.86,1a1.11,1.11,0,0,1,1,.49,3.74,3.74,0,0,0-3.11.74c-.12.11-.25.13-.35,0s0-.25.11-.34l.08,0c1.36-.41,1.17-1.48,1-2.49a1.65,1.65,0,0,1,.41-1.49c1.07-1.11,2.19-2.14,3.92-2A2.65,2.65,0,0,1,52.2,62a1.87,1.87,0,0,0,1.26,1.31,2.08,2.08,0,0,1,1.44,1.82c-.68-.77-1.22-1.74-2.43-1.74a3.46,3.46,0,0,0-2.2.76A4,4,0,0,0,48.91,69c.78,1.45,2,1.79,4.11,1.15a2.59,2.59,0,0,1-3.78,0,3.79,3.79,0,0,1-1-4,4.13,4.13,0,0,1,3.17-3c.24-.07.49-.11.74-.17C52.16,62.92,52.18,62.89,52.2,62.87Z" style="fill:#f8fcfe"/><path d="M50.35,31.49c-.07,2.18.08,2-2.56,2.4a1.38,1.38,0,0,0-1.12.75c-.6,1-.8,1-1.56.59-.24-.14-.36-.22-.14-.49a5.09,5.09,0,0,0,1.11-3.81c0-.28-.08-.63.39-.52s.94-.23.9.53c0,.37,0,.73,0,1.1s0,.8.46.7S49,32.91,49,32c0-.57,0-1.13,0-1.7,0-.28,0-.64.42-.52s.94-.17.9.57C50.33,30.75,50.35,31.12,50.35,31.49Z" style="fill:#f8fcfe"/><path d="M33.67,69.75l-.53-.19a3.21,3.21,0,0,1,2.06-2.3c.46-.24.65-.49.18-.91.59-.13.91.37,1.36.56.19.08.36.19.54,0a.34.34,0,0,0,0-.46,1.35,1.35,0,0,0-1.93-.1.84.84,0,0,1-.41-.6s.09-.12.11-.11c1.21.36,2,.1,2.24-1.31,0-.25.3-.46.46-.68.09,0,.16,0,.17.07.27.83.62,1.34,1.53.58a1.35,1.35,0,0,1,1-.18c0,.07.07.12.06.15-.16.51-.54,1.14-.3,1.53s.93,0,1.42,0c.29,0,.62-.09.94.28a7.32,7.32,0,0,0-3.4.67,1.2,1.2,0,0,0-.81,1.15,6.09,6.09,0,0,1-.34,1.48c-.06.2-.11.5-.36.53s-.43-.22-.55-.44a1.5,1.5,0,0,0-1.65-.77.53.53,0,0,1-.33,0C34,68.06,33.93,69,33.67,69.75ZM40,65.1c-.06-.2.18-.55-.24-.59s-1.13.84-1.12,1.51c0,.29.1.54.43.48C39.91,66.38,40,65.75,40,65.1Zm-1.71.51c-.09-.38,0-1-.52-1.08s-.49.56-.54,1a.66.66,0,0,0,.68.78C38.32,66.31,38.29,65.93,38.32,65.61Zm-.65,3.9c.18-.61.34-1.05.44-1.5,0-.2.35-.5,0-.64a.53.53,0,0,0-.71.43A1.85,1.85,0,0,0,37.67,69.51ZM35.2,68.38c.41-.17.82-.32,1.22-.51.17-.09.51-.09.4-.42a.48.48,0,0,0-.71-.25A1.46,1.46,0,0,0,35.2,68.38Z" style="fill:#f8fcfe"/><path d="M31.49,35.38v.94a1,1,0,0,1-.83,1,3,3,0,0,1-.5.1c-.54.06-1.21.5-1.57-.11a1.83,1.83,0,0,1,0-2c.13-.18,0-.16-.06-.27-.44-.64-.26-1.09.46-1.25l.42-.08C31.47,33.29,31.5,33.31,31.49,35.38Zm-1.91,0a2.42,2.42,0,0,0,0,.4c0,.22-.14.58.26.58s.42-.31.42-.62a1.2,1.2,0,0,0,0-.33c-.07-.25.23-.72-.31-.68S29.48,35.08,29.58,35.37Z" style="fill:#f8fcfe"/><path d="M59.07,66.29v0c-.48.23-.87-.13-1.28-.22a2.77,2.77,0,0,0-3.61,2.25,2.21,2.21,0,0,0,.45,1.91c.15.18.44.31.29.63l-.3.14a7.56,7.56,0,0,1-1.46-2.33,2.07,2.07,0,0,1,1.5-2.57l0,.16c0,.08-.16.15,0,.23s.1-.08.15-.12.29-.17.43-.27C57,65,57.39,65,59.07,66.29Z" style="fill:#f8fcfe"/><path d="M42.54,81.58a18.78,18.78,0,0,1,2-2.81,5.67,5.67,0,0,1,2.09-.18c.47.08.68.28.5.81-.38,1.14-.47,1.24-1.66,1.22a3.06,3.06,0,0,0-2.54.86l0,0Z" style="fill:#f8fcfe"/><path d="M61.23,49.14c.05.66.08,1.28.13,1.89,0,.32-.22.43-.4.59s-.26.07-.4.11c-1.81.48-1.79.48-1.85-1.38,0-.45.1-.65.56-.73C59.91,49.51,60.53,49.32,61.23,49.14Z" style="fill:#f8fcfe"/><path d="M55.46,51.54c-.46-1.1.48-1.11,1.24-1.3,1.26-.29,1.19-.29,1.35,1,.1.87-.12,1.33-1,1.35a1.29,1.29,0,0,0-.25.06C55.51,53,55.51,53,55.46,51.54Z" style="fill:#f8fcfe"/><path d="M35.72,56.72c-.59.33-.76-.14-1-.4s-.39-.49-.7-.34-.08.41,0,.62.09.42-.18.48-.34-.22-.37-.43-.09-.62-.13-.92c-.19-1.21.2-1.6,1.41-1.4.52.08.87.53.59.89-.49.65,0,.89.3,1.25C35.62,56.53,35.65,56.61,35.72,56.72Zm-.94-1.6c0-.3-.24-.37-.49-.33s-.54,0-.57.33.11.43.41.38S34.71,55.49,34.78,55.12Z" style="fill:#f8fcfe"/><path d="M24.85,56.14c0-.17-.08-.39.16-.42.59-.07,1.25-.41,1.76.15a1.51,1.51,0,0,1,.28,1.74c-.32.69-1,.58-1.63.69-.22.05-.27-.15-.3-.32C25,57.37,24.94,56.75,24.85,56.14Zm1.77.74a2.06,2.06,0,0,0-.05-.33.63.63,0,0,0-.83-.49c-.52.08-.28.43-.26.71,0,.13,0,.27.06.41s-.05.68.47.6S26.67,57.5,26.62,56.88Z" style="fill:#f8fcfe"/><path d="M45.79,54.7c0,.3.18.63-.25.64s-.24-.31-.28-.51c-.09-.53-.17-1.06-.25-1.59,0-.19-.1-.41.17-.48s.33.14.36.34,0,.66.57.57.55-.35.43-.75c0-.17,0-.34.19-.39s.33.12.36.34c.08.58.17,1.17.24,1.75,0,.19.13.43-.16.49s-.34-.22-.36-.44-.05-.67-.58-.59S45.63,54.35,45.79,54.7Z" style="fill:#f8fcfe"/><path d="M43.72,55.66a1,1,0,0,1-.82-.3c-.11-.12-.27-.27-.12-.43a.27.27,0,0,1,.44,0,.59.59,0,0,0,.59.25c.2,0,.41-.12.41-.35s-.18-.26-.35-.29l-.42-.07c-.42,0-.78-.21-.85-.67a.67.67,0,0,1,.47-.73,1.11,1.11,0,0,1,1.2.07c.12.11.28.25.15.43a.29.29,0,0,1-.45,0,.58.58,0,0,0-.44-.19c-.18,0-.36.09-.39.28s.15.22.29.24l.42,0c.52.08,1,.26.92.89S44.19,55.62,43.72,55.66Z" style="fill:#f8fcfe"/><path d="M30.14,57.57l-.25.07a.35.35,0,0,1-.39-.08c-.55-.66-1-.55-1.39.17-.09.17-.22.28-.4.21s-.11-.28-.08-.43c.14-.63.3-1.26.43-1.9.08-.35.41-.58.58-.36A24.63,24.63,0,0,1,30.14,57.57Z" style="fill:#f8fcfe"/><path d="M50.19,53.61a1.26,1.26,0,0,1-1.3,1.29,1.3,1.3,0,0,1-1.27-1.41A1.23,1.23,0,0,1,49,52.17,1.33,1.33,0,0,1,50.19,53.61Zm-.55,0c-.07-.47-.16-1-.74-1s-.76.35-.73.85.21.93.78.93S49.62,54.06,49.64,53.62Z" style="fill:#f8fcfe"/><path d="M37.46,55.44c-.05-.36-.11-.72-.16-1.09,0-.18-.1-.41.19-.47s.31.17.34.37L38,55.5a.89.89,0,0,1-.84,1.13c-.63.1-1.07-.1-1.2-.76-.08-.44-.14-.89-.21-1.34,0-.2-.06-.41.24-.43s.27.16.29.33c.06.39.11.79.18,1.18s.19.6.6.54S37.5,55.77,37.46,55.44Z" style="fill:#f8fcfe"/><path d="M51.55,51.82c.53,0,.83.18.91.64a.72.72,0,0,1-.61.94c-.5.09-.78.25-.62.81a.25.25,0,0,1-.26.34c-.17,0-.24-.12-.26-.27a9.24,9.24,0,0,1-.27-2C50.5,51.59,51.25,52.06,51.55,51.82Zm.38.75a.41.41,0,0,0-.5-.29c-.23,0-.48,0-.43.38s.07.45.4.39S51.91,53,51.93,52.57Z" style="fill:#f8fcfe"/><path d="M22.62,58c.12-.69.21-1.16.29-1.63,0-.21.13-.4.37-.37s.19.29.16.47c-.12.61-.25,1.22-.37,1.83,0,.2-.08.38-.33.43s-.4-.12-.51-.33c-.3-.55-.6-1.09-.88-1.65-.07-.13-.34-.33,0-.46s.37,0,.48.22C22.05,56.91,22.28,57.33,22.62,58Z" style="fill:#f8fcfe"/><path d="M32.17,55.74c.17,0,.46-.19.51.17s-.27.26-.44.26c-.58,0-.64.32-.51.77.06.21.08.42-.19.47s-.31-.17-.34-.37-.09-.67-.14-1c-.19-1.21.1-1.52,1.33-1.42.16,0,.29,0,.31.2s-.09.25-.25.26a2.83,2.83,0,0,0-.42.06c-.21.06-.56,0-.5.39C31.56,55.76,31.6,55.77,32.17,55.74Z" style="fill:#f8fcfe"/><path d="M44.64,71.41a10.79,10.79,0,0,0-1.75-5.22c.74.18,1.06.52,1.41,1.47a11.21,11.21,0,0,1,.55,3.73Z" style="fill:#f8fcfe"/><path d="M40.83,53.39c.17,0,.36-.07.39.18s-.11.25-.25.26c-.55,0-.44.36-.38.7s.1.72.17,1.08.07.42-.19.48-.32-.17-.35-.37-.09-.66-.14-1,0-.85-.64-.68a.19.19,0,0,1-.25-.16c0-.17.07-.26.23-.28Z" style="fill:#f8fcfe"/><path d="M50.22,74.49a4.91,4.91,0,0,0,.06-3.34c1.55.91,1.5,2.13-.07,3.35Z" style="fill:#f8fcfe"/><path d="M49,75.62a1.58,1.58,0,0,1-1.83,1A5.77,5.77,0,0,0,46,76.55c-.68,0-.85-.27-.62-.94C46.49,76.54,47.67,76.43,49,75.62Z" style="fill:#f8fcfe"/><path d="M39.17,56c0,.19,0,.34-.23.37s-.28-.11-.31-.3c-.09-.64-.19-1.28-.29-1.92,0-.19,0-.34.23-.37s.28.13.31.3C39,54.67,39.07,55.31,39.17,56Z" style="fill:#f8fcfe"/><path d="M23.84,56.3c0-.2-.06-.42.22-.45s.28.21.31.4c.09.58.17,1.17.27,1.75,0,.22,0,.41-.23.45s-.29-.2-.32-.39C24,57.47,23.92,56.89,23.84,56.3Z" style="fill:#f8fcfe"/><path d="M42.18,67.78c.06-.35.09-.77.46-.72s.65.51.7.94a.56.56,0,0,1-.59.65C42.29,68.6,42.28,68.1,42.18,67.78Z" style="fill:#f8fcfe"/><path d="M48.14,69.9a11.22,11.22,0,0,0-2.7,2C45.43,71,46.76,70,48.14,69.9Z" style="fill:#f8fcfe"/><path d="M42.68,74a.38.38,0,0,1-.43.43.69.69,0,0,1-.71-.76c0-.3.07-.77.39-.68S42.53,73.59,42.68,74Z" style="fill:#f8fcfe"/><path d="M59.65,66.5c.22,0,.25.18.26.36l.15.18.22,1.84c-.27.29-.59.27-.54-.14a4.8,4.8,0,0,0-.52-2.25C59.36,66.5,59.5,66.64,59.65,66.5Z" style="fill:#f8fcfe"/><path d="M48.66,35.56c.22.15.43,0,.64,0s.52-.16.56.32-.28.68-.73.76-.42-.2-.42-.48a5.46,5.46,0,0,0,0-.57Z" style="fill:#f8fcfe"/><path d="M48.67,35.55c-.21-.19-.78.11-.69-.55.05-.35.09-.61.49-.61.22,0,.55-.28.64.11s.17.62-.18.84c-.1.06-.29,0-.27.22Z" style="fill:#f8fcfe"/><path d="M36.89,37.21c.09.7-.43.6-.77.69s-.33-.23-.36-.47c-.09-.66.43-.61.81-.66S36.85,37.07,36.89,37.21Z" style="fill:#f8fcfe"/><path d="M49.4,34.67c-.12-.59.38-.53.74-.62s.38.24.41.51c.07.62-.44.53-.78.61S49.39,35,49.4,34.67Z" style="fill:#f8fcfe"/><path d="M37.2,37.09c-.13-.65.45-.53.81-.61s.28.29.31.49c.1.61-.38.56-.74.63S37.21,37.39,37.2,37.09Z" style="fill:#f8fcfe"/><path d="M43.57,71.72a.74.74,0,0,1,.48.8c0,.39-.34.76-.69.71S43,72.7,43,72.38A.66.66,0,0,1,43.57,71.72Z" style="fill:#f8fcfe"/><path d="M44.11,75.08c-.3,0-.57.64-.82.19a1.51,1.51,0,0,1,.08-1.38c.12-.22.38,0,.44.18a9.44,9.44,0,0,1,.29,1Z" style="fill:#f8fcfe"/><path d="M43.41,69.54c.37.06.53.34.55.76s-.26.51-.55.49c-.47,0-.52-.45-.55-.8S43,69.52,43.41,69.54Z" style="fill:#f8fcfe"/><path d="M41.41,69.23c.08-.28.11-.67.37-.63s.5.5.54.86-.14.62-.36.58C41.55,70,41.49,69.55,41.41,69.23Z" style="fill:#f8fcfe"/><path d="M44.11,75.08v0c.26.2.28-.19.45-.19a2.65,2.65,0,0,1-.72,2.28v0l-.18-.59C43.82,76.08,44.44,75.73,44.11,75.08Z" style="fill:#f8fcfe"/><path d="M41.55,71.25c0-.26,0-.57.32-.51s.58.48.65.87-.07.55-.38.5C41.65,72,41.65,71.57,41.55,71.25Z" style="fill:#f8fcfe"/><path d="M41.55,67.57c0,.26-.1.44-.42.38a.82.82,0,0,1-.69-.76.37.37,0,0,1,.46-.37A.7.7,0,0,1,41.55,67.57Z" style="fill:#f8fcfe"/><path d="M40.91,69.38a.77.77,0,0,1-1-.89c0-.3.19-.29.41-.18a1.49,1.49,0,0,1,.65.75Z" style="fill:#f8fcfe"/><path d="M40.69,71.84l-.07,0c-.45-.13-.67-.39-.52-.87a.27.27,0,0,1,.46-.17c.39.27.7.59.28,1.08A.16.16,0,0,0,40.69,71.84Z" style="fill:#f8fcfe"/><path d="M44.59,73.65c0-.46,0-.93,0-1.39h.31l0,1.38Z" style="fill:#f8fcfe"/><path d="M44.92,72.26h-.31l0-.85.21,0Z" style="fill:#f8fcfe"/><path d="M77.46,34.82s.12.12.11.16-.15.06-.23,0a7.63,7.63,0,0,0-2.13-.21.67.67,0,0,0-.82.14,1.33,1.33,0,0,0,.8.06,3.83,3.83,0,0,1,1.78.49l.23.18a.3.3,0,0,1-.37,0,2.82,2.82,0,0,0-1.77,0,3.55,3.55,0,0,1,2.1.72,10.24,10.24,0,0,0-2.87-.14c.85.29,1.84.08,2.57.78A9.87,9.87,0,0,0,74,37c.9.32,1.94.11,2.95.88L75,37.63c-.31,0-.64-.13-.94.17a1.82,1.82,0,0,0,.94.09,3.84,3.84,0,0,1,1.58.49c.14.06.36.11.21.31s-.26,0-.37-.13l-.91-.09L74,38.4v.15l1.6.18c.41.16.89.16,1.21.53.07,0,.17.06.11.15s-.14,0-.21,0l-1.8-.24a2.7,2.7,0,0,0-1.22,0,2.63,2.63,0,0,0,1.22.2,3,3,0,0,1,1.88.74A11.6,11.6,0,0,0,73.86,40c.85.37,1.85.21,2.75.79-.63.1-1.17-.1-1.73.15a4.62,4.62,0,0,1,2,.73l-2.19-.28a1.36,1.36,0,0,0-.89,0c.23.37.57.27.88.26l1.76.39c.13,0,.27.12.22.2-.15.25-.38.11-.59.05l-1-.06a3.08,3.08,0,0,0-1.47,0,2.31,2.31,0,0,0,1.48.23,2.56,2.56,0,0,1,1.5.38,8.1,8.1,0,0,0-2.8.29l1.72.08c-.43.46-1,.09-1.62.5l1.87.13c-.3.47-.76.26-1.12.43.42.24,1,0,1.35.33-.56.25-1.18.12-1.75.58l1.72-.08a2,2,0,0,1,.94,0c-.25.36-.61.25-.93.27l-1.24.24c.28.33.59.19.89.17l1.6-.08c-.59.49-1.1.31-1.56.36l-1,.22,0,.11H76c-.11.33-.68.13-.53.42.29.56-.17.43-.39.54s-.58,0-.77.39c.69-.28.93.75,1.6.44a3.89,3.89,0,0,1,1.52,0l-1.51.22c-.08,0-.2,0-.24.06s.06.22.12.23a5,5,0,0,0,.67,0,3.23,3.23,0,0,1,1.57,0,2.78,2.78,0,0,1-1.56.23L75,49.22c.44.44.85,0,1.19.17h1.63l-1.62.23c-.14.09-.38-.06-.48.16.24.32.55.23.84.2a2.26,2.26,0,0,1,1.43,0c-.38.32-.81.21-1.23.22l-1.29.25c.57.42,1.1,0,1.58.16l.82-.06a.9.9,0,0,1-.82.3,4,4,0,0,0-1.74.5,4,4,0,0,0,1.33,0,2.27,2.27,0,0,1,1.79.07c-.13.36-.42.16-.64.17H75.39v.3a27.44,27.44,0,0,1,3.6.45c-.13-.46-.23-.8-.33-1.14s-.09-.56-.15-.84a37.43,37.43,0,0,1-.21-14.23c.31-1.67.31-1.67-1.08-2.46a15.74,15.74,0,0,0-3-.51,51.36,51.36,0,0,0-6.44.33c-8.05.9-15.77,3.26-23.58,5.27l0,.14,0-.14-2.55.5.05.27A9.68,9.68,0,0,0,44.25,39h0c.25,0,.51-.07.75-.13,4.89-1.08,9.76-2.28,14.68-3.22s9.91-1.88,15-1.6A4.35,4.35,0,0,1,77.46,34.82ZM76.1,47.63a1.78,1.78,0,0,1,1.4-.1A1.33,1.33,0,0,1,76.1,47.63Z" style="fill:#f8fcfe"/><path d="M83.26,56c-.41-.78-.79-1.57-1.23-2.33a3.39,3.39,0,0,1-.27-3.07,30.65,30.65,0,0,0,1.29-4,1.67,1.67,0,0,0-1.11.07,10.2,10.2,0,0,1-2.85.38c-.64,0-.74.23-.67.8a37,37,0,0,0,1,5.16,2.79,2.79,0,0,1-.75,2.92l-.13.2-.25.28a.55.55,0,0,1-.34.34c-.06.17-.17.18-.31.09l.19-.22.33-.37.22-.26.11-.2a4.42,4.42,0,0,0,.44-1.36c.12-.9-.1-1.26-1-1.45-.66-.14-1.34-.2-2-.29a55.43,55.43,0,0,1-2.73,5.45c-.06.11-.21.21,0,.32a41.13,41.13,0,0,0,4.55-.63c1.79-.22,3.52-.82,5.29-1.21C83.45,56.43,83.41,56.25,83.26,56Z" style="fill:#f8fcfe"/><path d="M44.59,73.65h.35c0,.28-.06.61-.36.54S44.56,73.83,44.59,73.65Z" style="fill:#f8fcfe"/><path d="M40.91,69.38v-.32A.18.18,0,0,1,40.91,69.38Z" style="fill:#f8fcfe"/><path d="M60.06,67l-.15-.18a.3.3,0,0,1,.16,0A.62.62,0,0,1,60.06,67Z" style="fill:#f8fcfe"/><path d="M33.87,58.93a66.17,66.17,0,0,1-15.14.77,5.47,5.47,0,0,1-3.12-1c0-.05-.13-.14-.12-.16s.18-.08.28,0c.54-.08,1,.42,1.8.11-.71-.31-1.37-.33-1.83-.8.45-.16.8.12,1.19.13l.1-.24-.76-.34c-.08-.08-.32-.1-.19-.27s.25,0,.36.08c.3.09.59.19.89.25.12,0,.34,0,.37-.08.08-.23-.12-.25-.28-.3-.45-.14-1-.13-1.25-.6-.08,0-.16-.07-.09-.15s.13,0,.2,0c.61.11,1.2.47,1.94.15a5.46,5.46,0,0,1-1.89-.71s-.14-.11-.13-.14.16-.06.24,0c.73.06,1.41.66,2.25.2a6,6,0,0,1-2.34-.91,8.84,8.84,0,0,1,1.47.24c.21.06.49.22.55-.06s-.33-.2-.51-.27c-.46-.16-1-.1-1.35-.58l-.09-.14h.2c.38,0,.7.31,1.15.23-.2-.65-1-.41-1.27-1a11.36,11.36,0,0,0,3,.39,24.75,24.75,0,0,1-2.76-.92c.59-.32,1.1.25,1.74,0-.56-.34-1.17-.34-1.61-.76.45-.13.8.15,1.18.15s.69.42,1.12-.05A8.1,8.1,0,0,1,17,51.42c.32-.15.59,0,.86,0a.23.23,0,0,0,.31,0l.41,0a3.29,3.29,0,0,0,1.42,0,2.84,2.84,0,0,0-1.42-.25L17.68,51a.87.87,0,0,1-.7-.24c.23-.26.49-.11.73-.07l.35,0,.16,0h1.39c.33-.33,0-.26-.17-.27a5.16,5.16,0,0,1-1.87-.26c.76-.24,1.52.13,2.19-.31l-2.12-.13a5,5,0,0,0,2-.49A3,3,0,0,1,17.87,49a7.85,7.85,0,0,0,1.66-.44c-1-.16-1.93.1-2.84-.31l1-.14a6.23,6.23,0,0,0,1.92-.34l-1.92.12-.64-.08v-.1l1.27-.27c-.26-.19-.63,0-.74-.39l.47-.07a2.29,2.29,0,0,0,1.52-.43l-1.53.14-.55,0a3.85,3.85,0,0,1-.47.08c-.12,0-.31,0-.23-.21s.22-.12.36-.09l2.37-.32,0-.21a8.55,8.55,0,0,1-1.52,0c-.44-.08,0-.12,0-.18a2.06,2.06,0,0,0,1.35-.37l-1.67.13-.55,0c-.15.13-.38.18-.4,0s.28-.17.45-.19a2.16,2.16,0,0,0,1.39-.41H16.86c.43-.34.83-.19,1.14-.34-.07-.4-.49-.17-.67-.38a1.87,1.87,0,0,1,1.05-.26l.05-.19-.91-.1a1.15,1.15,0,0,1-.85-.13l.72,0L19,43.11V43h-2.8a4,4,0,0,1,1.33-.25c.45-.05.89-.14,1.34-.2-.73-.41-1.52-.06-2.27-.19-.21,0-.62.16-.6-.21s.4-.1.61-.13c.69-.08,1.42.25,2.09-.14-.5-.06-1-.14-1.5-.19-1.31-.13-1.32-.13-1.48-1.44-.47,0-.51-.32-.43-.7.24-1.15.47-2.3.7-3.45-2,.29-3.86-.45-5.94-.74.24.55.38.92.56,1.26.58,1.13,1.16,2.27,1.78,3.38a1.89,1.89,0,0,1,0,1.92c-.48.93-.89,1.9-1.33,2.84-.22.49-.15.71.46.69a16.81,16.81,0,0,1,3.46.31c.55.09.75.32.76.89a37.37,37.37,0,0,1-1,10.69c-.48,1.74-.12,2.27,1.65,2.74a26.4,26.4,0,0,0,3.86.56,11,11,0,0,1,2.5.09,2.15,2.15,0,0,1,.34,0,88.67,88.67,0,0,0,16.33-1.9,1.06,1.06,0,0,0,1-.87C38.22,58.23,36.05,58.61,33.87,58.93Z" style="fill:#f8fcfe"/><path d="M18.73,58.19l0-.23L17,57.75l-.1.24A4.61,4.61,0,0,0,18.73,58.19Z" style="fill:#f8fcfe"/><path d="M59.52,64.5a2.76,2.76,0,0,0,.57-2.77,4.08,4.08,0,0,1-1.81.22c-1.31.06-1.85-.43-2-1.77,0-.5,0-1,0-1.51a2.57,2.57,0,0,0-.25,2.15,1.7,1.7,0,0,0,2.1,1.46,3,3,0,0,1,1.32.06c-1.31.94-2.94,1-4,2.15,1.51-.22,3.08-.28,4.15-1.62,0-.06.09-.17.17-.1s0,.16,0,.24a1.45,1.45,0,0,1-.37.91,1.73,1.73,0,0,0-.27,2.1.61.61,0,0,0,.12.17l.32.31c.22,0,.25.18.26.36a.3.3,0,0,1,.16,0c.78-.09,1.29,1,2.35.51a11.56,11.56,0,0,1-2.14-1C59.48,65.85,59.1,65.07,59.52,64.5Z" style="fill:#f8fcfe"/><path d="M62.34,59.59c.11-.46.61-.08.8-.38.31-.5.61-1,.94-1.51.08-.13.24-.27.42-.13s0,.25,0,.38a1.7,1.7,0,0,1-1.15,1.42,1.71,1.71,0,0,1-.7.46l-.69.5h3c-.58-.44-1.13-.16-1.61-.36.77-.95,1.89-.45,2.87-.66-.32-.31-.73-.1-1-.4l2.37-1.1c-1.06-.09-1.88.52-2.81.77-.16-.33.25-.62,0-.91-.36-.48,0-.51.33-.54a5.78,5.78,0,0,1,.93,0,3.62,3.62,0,0,0,1.82,0c-.62-.15-1.25-.21-1.87-.31a2.09,2.09,0,0,0-2.64,1.51,1.17,1.17,0,0,1-1,.93c-.13-.5.23-.76.44-1.07A2.64,2.64,0,0,0,62.89,55c-.06-.09,0-.35-.27-.25s-.07.29,0,.4A2.39,2.39,0,0,1,62.38,58,1.25,1.25,0,0,0,62.34,59.59Z" style="fill:#f8fcfe"/><path d="M64.05,61.84c1-.42,2.2-.22,3-1.06s1.42-2.28,1.2-2.94c0,0-.11.07-.13.11-.73,1.82-1.83,3.17-4,3.27-.29,0-.64.22-.54.62a.65.65,0,0,0,.75.43l1.18-.09a2.42,2.42,0,0,1,1.77.41c.07-.1.13-.2.19-.3C66.49,61.28,65.23,62,64.05,61.84Z" style="fill:#f8fcfe"/><path d="M58.48,59.19c.27.22.55.63.92.43s.36-.72.28-1.15a.75.75,0,0,1,0-.16c-.4-1.86,0-2.67,1.6-3.66.18-.11.44-.15.57-.44a3.25,3.25,0,0,0-2.62,3.85c.08.38.41.79-.06,1.23l-.9-1.11a1.5,1.5,0,0,0-1.48-.62c-.24,0-.55.08-.37.46C57.37,57.87,57.85,58.67,58.48,59.19Z" style="fill:#f8fcfe"/><path d="M61.33,56.63c-.13-.07,0-.16,0-.25s.26-.37,0-.6c-.46.43-.43,1.13-.91,1.52a2.78,2.78,0,0,0-.12-1.24,2,2,0,0,0-.09,1.6c0,.68,0,1.35,0,2l-.06.32v.67a1.88,1.88,0,0,0,.47-1.31,3.14,3.14,0,0,1,1.72-3,.6.6,0,0,0,0-.16c-.36-.12-.54.21-.81.32C61.42,56.55,61.34,56.64,61.33,56.63Z" style="fill:#f8fcfe"/><path d="M64.84,65.47h0Z" style="fill:#f8fcfe"/><path d="M62.1,64.2a.53.53,0,0,0,0,.76,2.29,2.29,0,0,1,.6,1.63c0,.11,0,.25.14.27a.24.24,0,0,0,.27-.25,6.46,6.46,0,0,0-.11-.75c-.06-.4-.54-.69-.33-1.17a7.42,7.42,0,0,1,.83.3c.43.22.77.67,1.35.47-.63-.42-1.26-.83-1.89-1.26A.64.64,0,0,0,62.1,64.2Z" style="fill:#f8fcfe"/><path d="M60.64,62.94c0,.89-.91,1.49-.71,2.55l.44-.75c.37,1.36.38,1.38,1.27,1.69-.7-.79-.7-.79-.44-1.53a.2.2,0,0,0-.07-.19c-.53-.34-.38-.77-.23-1.24C61,63.3,61.05,63,60.64,62.94Z" style="fill:#f8fcfe"/><path d="M57.24,60.7a15.11,15.11,0,0,1,2,.53A4,4,0,0,1,57,58.7,1.38,1.38,0,0,0,57,59.79c0,.13.16.23.06.38C56.82,60.62,56.82,60.67,57.24,60.7Z" style="fill:#f8fcfe"/><path d="M56.31,58h0Z" style="fill:#f8fcfe"/><polygon points="50.21 74.5 50.19 74.51 50.22 74.49 50.21 74.5" style="fill:#f8fcfe"/><path d="M40.69,71.84a.16.16,0,0,1,.15,0Z" style="fill:#f8fcfe"/><path d="M42.41,14.76l0-.3a3.17,3.17,0,0,0-.81-2.07l.59,2.07c.06,1,.13,2,.2,3l-.31.11A16.51,16.51,0,0,0,38.62,14c-.76-.56-.86-1.5-1.37-2.2a3,3,0,0,0-.73-1.1c-.13-.28-.21-.6-.6-.61l-.06,0,.07,0a1.35,1.35,0,0,0,.46.72l.61,1a4.19,4.19,0,0,1,.46,1.45c-1.57-1.19-3.41-1.26-5-2-.45-.21-.66.27-1.11.25a16.8,16.8,0,0,0-6.85,1.33,1.4,1.4,0,0,0-.51.3c2-.38,3.84-1.08,6-1a17.51,17.51,0,0,0-1.79,1.11l-.29.23-.25.12c.13.12.23.06.34,0l.31-.2c1.3-.6,2.56-1.34,4.08-1.07a11.67,11.67,0,0,1,4.26,1.66l-2.24.44-.22.05.22,0a5,5,0,0,0,1.88,0,1.87,1.87,0,0,1,1.43.36,14.84,14.84,0,0,1,2.63,3.07c.28.46.07.53-.34.47a8.76,8.76,0,0,0-5.5,1A14.52,14.52,0,0,1,40,18.51a1.52,1.52,0,0,1,1.36,1.11,31.39,31.39,0,0,1,1.44,3.9c.12.51.07.76-.49.92a15.3,15.3,0,0,1-3.66.71,5.13,5.13,0,0,1-5.13-3.08c-.19-.38-.39-.76-.55-1.15-1.34-3.13-3.88-4.51-7.1-4.93a16.18,16.18,0,0,0-6.64.47c-.24.07-.49.12-.89.21a13.56,13.56,0,0,1,2.2-2.59A18.78,18.78,0,0,1,37.1,9.16c3.91.69,6,3.22,6.79,6.92A10.33,10.33,0,0,1,44,20.87c-.56-1.14-1.49-2.11-1.33-3.55A8.22,8.22,0,0,0,42.46,15,1.94,1.94,0,0,0,42.41,14.76ZM31.33,15.81a.38.38,0,0,0,.37-.13l2.2-1-.1-.2a4.94,4.94,0,0,0-2.19,1.07l-.27.25,0,.07Z" style="fill:#f8fcfe"/><path d="M51.2,14.63a2.56,2.56,0,0,1-2-2.25c-.08-.79.14-1.09.95-1.16A2.5,2.5,0,0,1,52.41,14c-.06.21-.23.31-.37.44a17,17,0,0,0-5.56,10c0,.26,0,.63-.42.6a.69.69,0,0,1-.7-.6,8.89,8.89,0,0,1-.23-2.95c.23-1.89,0-3.86,1-5.64A21.39,21.39,0,0,1,47.94,13c.34-.47.52-.49.74.1A2.15,2.15,0,0,0,51.2,14.63Z" style="fill:#f8fcfe"/><path d="M40,18.51a14.52,14.52,0,0,0-5.51.73,8.76,8.76,0,0,1,5.5-1C40,18.36,40,18.44,40,18.51Z" style="fill:#f8fcfe"/><path d="M42.15,14.46l-.59-2.07a3.17,3.17,0,0,1,.81,2.07Z" style="fill:#f8fcfe"/><path d="M36.52,10.65a3,3,0,0,1,.73,1.1H37c-.2-.33-.4-.66-.61-1Z" style="fill:#f8fcfe"/><path d="M34.4,14.43l-.22,0,.22-.05Z" style="fill:#f8fcfe"/><path d="M42,17.56l.31-.11C42.32,17.71,42.21,17.73,42,17.56Z" style="fill:#f8fcfe"/><path d="M42.41,14.76a1.94,1.94,0,0,1,.05.2C42.44,14.9,42.43,14.83,42.41,14.76Z" style="fill:#f8fcfe"/><path d="M67.18,75.54a9.71,9.71,0,0,0-5.41-5.65,7.12,7.12,0,0,0-5.75.2c.85.69,1.92.57,3,.91a6.53,6.53,0,0,1-4.09-.16l-.3.14-1.07,1.45a.8.8,0,0,0,1,.23,18.57,18.57,0,0,0,2.28-.78c.07-.23.26-.26.46-.29a13.49,13.49,0,0,1,2.54-.07,2.94,2.94,0,0,1,3,2.49,13.66,13.66,0,0,1,.44,6,5.93,5.93,0,0,1-3.06,4.35l-.14-.13a8.5,8.5,0,0,0,3-5.8,4.68,4.68,0,0,0-.65-3.1,3.38,3.38,0,0,0-.67,1.14A12.42,12.42,0,0,1,54,82.93a1.8,1.8,0,0,1-.92.06c-.22.41-.56.19-.86.19a6.71,6.71,0,0,1-2.81.36c-.29,0-.67-.08-.56.44l.71.71a7.86,7.86,0,0,0,2.76,1.09,8.26,8.26,0,0,0,7.19-1.21c.15-.12.29-.35.55-.23v0h0c-.14.2-.28.4-.4.61s-.17.38.09.38c.95,0,2,.21,2.78-.44a6,6,0,0,1,2-1.08c.35-.1.7-.23.79-.67A3.74,3.74,0,0,1,66.73,81a1.29,1.29,0,0,0,.44-.61A8,8,0,0,0,67.18,75.54Z" style="fill:#f8fcfe"/><path d="M43.06,77.9c-.13-.29.13-.27.28-.35C43.26,77.68,43.28,77.88,43.06,77.9Z" style="fill:#f8fcfe"/><path d="M57.69,78.38a5.93,5.93,0,0,0-2.89-.66c.15-.29.58-.06.71-.38l2.34.89Z" style="fill:#f8fcfe"/><path d="M56.32,76.64c1-.2,2-.71,3.33-.32a20.23,20.23,0,0,0-3.32.38Z" style="fill:#f8fcfe"/><path d="M59.65,66.5c-.15.14-.29,0-.43,0,0-.1.07-.2.11-.3Z" style="fill:#f8fcfe"/><path d="M40,65.1c0,.65-.12,1.28-.93,1.4-.33.06-.43-.19-.43-.48,0-.67.64-1.57,1.12-1.51S40,64.9,40,65.1Z" style="fill:#f8fcfe"/><path d="M38.32,65.61c0,.32,0,.7-.38.67a.66.66,0,0,1-.68-.78c.05-.41.07-1,.54-1S38.23,65.23,38.32,65.61Z" style="fill:#f8fcfe"/><path d="M37.67,69.51a1.85,1.85,0,0,1-.32-1.71.53.53,0,0,1,.71-.43c.4.14.1.44,0,.64C38,68.46,37.85,68.9,37.67,69.51Z" style="fill:#f8fcfe"/><path d="M35.39,66.36a1.35,1.35,0,0,1,1.93.1.34.34,0,0,1,0,.46c-.18.18-.35.07-.54,0-.45-.19-.77-.69-1.36-.56Z" style="fill:#f8fcfe"/><path d="M35.2,68.38a1.46,1.46,0,0,1,.91-1.18.48.48,0,0,1,.71.25c.11.33-.23.33-.4.42C36,68.06,35.61,68.21,35.2,68.38Z" style="fill:#f8fcfe"/><path d="M54.82,66.35s-.13.13-.15.12,0-.15,0-.23A.69.69,0,0,1,54.82,66.35Z" style="fill:#f8fcfe"/><path d="M42.88,81.48l0,0s0,0,0-.06Z" style="fill:#f8fcfe"/><path d="M47.3,82.26,47,82c-.33-.1-.23-.41-.28-.62s-.19-.43-.51-.42a6.94,6.94,0,0,0-2.7.45c-.17.07-.35.36-.59.15.12.37-.48.38-.39.77,1.24.2,2.46.66,3.76.78C46.91,83.14,47.33,83,47.3,82.26Z" style="fill:#f8fcfe"/><path d="M48.85,84l-.94.15L47.8,84c-.06.05-.17.13-.16.14l0,.06,0-.06s.1-.09.16-.14c.05-.26.42-.4.28-.7a1.85,1.85,0,0,0-2.27,1.42c-.06.17-.23.39,0,.53s.29-.21.48-.23l.18.14a5,5,0,0,0,2.88,0c.21,0,.2-.31.23-.5Z" style="fill:#f8fcfe"/><path d="M31.61,15.57A4.94,4.94,0,0,1,33.8,14.5l.1.2-2.2,1Z" style="fill:#f8fcfe"/><path d="M35.92,10c.39,0,.47.33.6.61l-.13.1a1.35,1.35,0,0,1-.46-.72Z" style="fill:#f8fcfe"/><path d="M31.7,15.68a.38.38,0,0,1-.37.13h0l.27-.25Z" style="fill:#f8fcfe"/><path d="M28.3,13.3l-.31.2-.09-.09.29-.23Z" style="fill:#f8fcfe"/><path d="M28,13.5c-.11.09-.21.15-.34,0l.25-.12Z" style="fill:#f8fcfe"/><path d="M31.33,15.81l0,.08,0-.07Z" style="fill:#f8fcfe"/><path d="M35.93,10l-.07,0,.06,0Z" style="fill:#f8fcfe"/><path d="M54.13,78.56c.24.5.36.72.45,1,.53,1.33,0,2.15-1.45,2.27-.4,0-.61,0-.38-.48A18.36,18.36,0,0,0,54.13,78.56Z" style="fill:#f8fcfe"/><path d="M52.27,79.48A4.56,4.56,0,0,1,51,81.94c-.33.35-.79.2-1.2.07-.25-.08-.18-.24,0-.37Z" style="fill:#f8fcfe"/><path d="M48.33,79.77c.87.12,1.58-.48,2.59-.52a4.82,4.82,0,0,1-2.36,1.85c-.38.16-.36-.22-.34-.47s.29-.55.12-.87Z" style="fill:#f8fcfe"/><path d="M51.93,77.52a3.52,3.52,0,0,1-2.33,1c-.23,0-.67.28-.69-.13s.13-.88.69-.9C50.38,77.5,51.15,77.52,51.93,77.52Z" style="fill:#f8fcfe"/><path d="M57.51,73.46c.27.19.32-.11.45-.21s.41-.41.7-.45c.47-.06,1.11-.21,1.31.24s-.49.52-.81.72c-.61.39-1.24.75-1.88,1.14-.32-.6.44-.93.24-1.44Z" style="fill:#f8fcfe"/><path d="M59.9,76.52c-.72,1.61-1.71,1.77-3.14.61A12.23,12.23,0,0,1,59.9,76.52Z" style="fill:#f8fcfe"/><path d="M54.92,74.57A1.51,1.51,0,0,1,56.46,73c.35.06.21.27.12.43-.34.58-.68,1.16-1,1.73-.07.11-.21.24-.31.24s-.25-.2-.27-.36S54.93,74.6,54.92,74.57Z" style="fill:#f8fcfe"/><path d="M57.83,75.82a6.86,6.86,0,0,1,1.91-1.15c.25-.12.64-.44.78,0a.67.67,0,0,1-.58.86Z" style="fill:#f8fcfe"/><path d="M59.3,74.41a.29.29,0,0,1-.37,0l.27-.13Z" style="fill:#f8fcfe"/><path d="M52.85,76.67a4.07,4.07,0,0,1-1.74-.09c-.2,0-.54,0-.54-.27a.74.74,0,0,1,.51-.62C51.68,75.44,52.37,75.82,52.85,76.67Z" style="fill:#f8fcfe"/><path d="M54,75.26c-.11.25.19.61-.23.72-.25.07-1.19-.79-1.14-1a.92.92,0,0,1,.94-.68C54.18,74.28,53.89,74.91,54,75.26Z" style="fill:#f8fcfe"/><path d="M55.75,78.1c.55.21,1.19.43,1.8.69.23.09.1.28,0,.42a3.87,3.87,0,0,1-1,.9c-.22.15-.36.06-.5-.11a3.69,3.69,0,0,1-.7-1.61C55.3,78.17,55.46,78.11,55.75,78.1Z" style="fill:#f8fcfe"/><path d="M31,75.43a.8.8,0,0,1,0-.29c.16-.35-.11-1,.64-.94a1,1,0,0,1,.76,1.3c-.13.5-.43,1-1,.91S31.06,75.78,31,75.43Z" style="fill:#f8fcfe"/><path d="M34.4,73.07a.72.72,0,0,1-.95.77,1.49,1.49,0,0,1-.73-.55c-.24-.38-.58-.89-.25-1.23s.74.14,1.06.37Z" style="fill:#f8fcfe"/><path d="M36.1,73.5a.9.9,0,0,1,1,.85c0,.56-.48.62-.89.61S35,74.76,35,74.27,35.62,73.58,36.1,73.5Z" style="fill:#f8fcfe"/><path d="M34.7,76.89c0,.3,0,.51-.19.62s-.43,0-.59-.2A2.07,2.07,0,0,1,33.39,76c0-.22-.17-.55.17-.65a.65.65,0,0,1,.78.34A3.14,3.14,0,0,1,34.7,76.89Z" style="fill:#f8fcfe"/><path d="M32.21,77.52c0,.53,0,1,0,1.43s-.29.42-.59.52c-.48.17-.36-.26-.4-.38C31,78.35,31.25,77.88,32.21,77.52Z" style="fill:#f8fcfe"/></svg>