<svg id="Layer_1" data-name="Layer 1" xmlns="http://www.w3.org/2000/svg" viewBox="0 0 93.45 93.45"><title>customer</title><path d="M81.93,44.5c-.15-1.59-.31-3.17-.61-4.73a33.89,33.89,0,0,0-3.49-9.71,35,35,0,0,0-21-17.19A36.26,36.26,0,0,0,49,11.45a35.57,35.57,0,0,0-25.83,9.06A35.4,35.4,0,0,0,11.53,44.07a33.57,33.57,0,0,0,.94,11.07A35.38,35.38,0,0,0,34.91,80a33.17,33.17,0,0,0,8.3,1.86,1.59,1.59,0,0,1,1,.23h5.14c.08-.16.23-.14.36-.15A37.05,37.05,0,0,0,58.61,80,34.9,34.9,0,0,0,77.67,63.67a34.08,34.08,0,0,0,4.11-13A31.24,31.24,0,0,0,81.93,44.5ZM46.72,81A34.26,34.26,0,1,1,81,46.73,34.21,34.21,0,0,1,46.72,81Z" style="fill:#f8fcfe"/><path d="M69.57,27.65a.46.46,0,0,0-.07.69,4,4,0,0,0,.23.34A28.2,28.2,0,0,1,72.56,33a29.13,29.13,0,0,1,3.33,15.86A5.43,5.43,0,0,1,75.55,51a2.11,2.11,0,0,1-.15-.28,7.69,7.69,0,0,0-2.13-3.41.77.77,0,0,1-.24-.58,21.47,21.47,0,0,0-3-10.2,11.32,11.32,0,0,0-1.58-2.3.44.44,0,0,0-.68-.06.45.45,0,0,0-.12.68l.31.44a21.63,21.63,0,0,1,4,10.54c0,.48-.14.51-.51.33a4.34,4.34,0,0,0-2.14-.46c-.53,0-.71-.21-.85-.68a20.62,20.62,0,0,0-2.4-5.25c-.2-.33-.48-.6-.88-.33s-.21.57,0,.89a22.63,22.63,0,0,1,2.29,5c.13.41,0,.56-.36.69a5.57,5.57,0,0,0-3.55,3.14c0,.13-.09.3-.28.26s-.14-.17-.17-.28c-.28-.94-.54-1.88-.85-2.8-.12-.36,0-.52.31-.6.14,0,.27-.09.4-.12.31-.07.38-.22.14-.45a5.18,5.18,0,0,1-1.3-3.07c-.19-1.11-.42-2.23.84-2.94a1,1,0,0,0,.25-.25,14.16,14.16,0,0,0,3.58-11.36c0-.13,0-.31-.17-.33s-.21.16-.27.28A7.78,7.78,0,0,1,65.14,29a4.23,4.23,0,0,1-2.73,1.51c0-.12,0-.18,0-.19l.37-.31a5.59,5.59,0,0,0,2.39-3.57c0-.16.12-.35,0-.45s-.28.07-.4.16a2.57,2.57,0,0,1-1.35.58,6.21,6.21,0,0,1-2.52-.37,5.4,5.4,0,0,0-3.39-.3c-.11,0-.24.11-.33,0s0-.25.11-.36A18.74,18.74,0,0,0,58.8,23c.18-.4.07-.51-.35-.53a6.32,6.32,0,0,0-3.69,1c-.33.21-.54.32-.73-.2a3.93,3.93,0,0,0-2.12-2.23c-.64-.31-1.34-.39-2-.67-1.28-.56-2.46-1.23-2.85-2.73,0-.1-.09-.18-.21-.17a.23.23,0,0,0-.21.25,2.16,2.16,0,0,1-.79,1.36,6.3,6.3,0,0,1-3.12,1.64,4.12,4.12,0,0,0-3,2.64c-.14.39-.32.36-.62.17a6.23,6.23,0,0,0-3.6-1.07c-.7,0-.74.07-.43.71a17.82,17.82,0,0,0,1.37,2.45c.06.1.16.19.1.32s-.16.08-.25.06a6.27,6.27,0,0,0-3.68.35C31.3,26.83,30,27,28.79,26a.22.22,0,0,0-.29,0c.15,2,1.42,3.3,2.91,4.47a3.37,3.37,0,0,1-1.79-.58,5.3,5.3,0,0,1-1.86-2.35c-.08-.14-.13-.33-.33-.29s-.15.25-.16.39a21.46,21.46,0,0,0,.1,3.76A13,13,0,0,0,31.07,39a2.62,2.62,0,0,1,1,2.63A6.16,6.16,0,0,1,30.79,45c-.41.42-.33.48.15.61.29.08.74.08.6.61a30.36,30.36,0,0,1-1.05,3.35,2,2,0,0,1-.21-.35,5.5,5.5,0,0,0-3.44-3.19c-.57-.21-.61-.45-.44-1a23.07,23.07,0,0,1,2.18-4.7c.21-.36.4-.72-.06-1s-.64.07-.84.4a22.73,22.73,0,0,0-2.4,5.32.64.64,0,0,1-.76.56,5,5,0,0,0-2.09.39c-.61.23-.63.23-.57-.43a19.79,19.79,0,0,1,.83-4.09A21.08,21.08,0,0,1,26,35.07c.23-.3.33-.62,0-.9s-.61-.06-.81.21a22.2,22.2,0,0,0-4.36,11.2c-.1,1-.1,1.91-1,2.52a.87.87,0,0,0-.19.23,7.56,7.56,0,0,0-1.19,2.33c0,.12-.07.3-.25.27s-.11-.19-.12-.31,0-.48,0-.71A27.54,27.54,0,0,1,18.61,40a29.43,29.43,0,0,1,5.53-11.41c.25-.32.4-.64,0-.92s-.61,0-.84.27a30.14,30.14,0,0,0-6.48,20.77A30.19,30.19,0,0,0,30.13,71.91,29.72,29.72,0,0,0,59.66,74.2,30.54,30.54,0,0,0,75.5,56.32,29.9,29.9,0,0,0,77,45.82a30.86,30.86,0,0,0-.57-5.09A30,30,0,0,0,71.51,29.3c-.38-.54-.79-1.05-1.2-1.56A.48.48,0,0,0,69.57,27.65ZM28.63,32.17c-.09-.46-.17-.93-.26-1.4,0-.12-.07-.25,0-.33s.22,0,.32.07a6,6,0,0,0,3.64,1.1,7.83,7.83,0,0,1,6,3c.17.21.28.57.68.48s.65-.5.3-1a10.37,10.37,0,0,0-5-3.41,9.12,9.12,0,0,1-3.66-2.4c-.1-.11-.29-.2-.23-.38s.28-.11.43-.1a6.4,6.4,0,0,0,2.45-.47,4.82,4.82,0,0,1,5.31,1.23c.36.33.56.32.87,0s.25-.4,0-.65a19.58,19.58,0,0,1-2.69-3.64c-.09-.14-.28-.3-.14-.47s.33,0,.5,0a7.31,7.31,0,0,1,2.92,1.91c.13.14.25.4.46.31s.09-.36.06-.54A3,3,0,0,1,43,21.8a7.72,7.72,0,0,0,3.6-1.88.37.37,0,0,1,.61,0,7.5,7.5,0,0,0,3.43,1.84,3,3,0,0,1,2.6,2.87,8.65,8.65,0,0,1-.05,1c0,.13-.07.3.08.37s.25-.09.34-.18A8,8,0,0,1,55.5,24.3a9.06,9.06,0,0,1,1.2-.52c.13,0,.28-.15.39,0s0,.3-.08.43a22.1,22.1,0,0,1-2.59,3.57c-.24.27-.39.44-.06.78s.53.22.82-.05a6.42,6.42,0,0,1,1.63-1.08,4.38,4.38,0,0,1,3.53-.16,7.32,7.32,0,0,0,2.62.52c.13,0,.3-.06.37.11s-.09.29-.2.4a9.69,9.69,0,0,1-3.89,2.47,9.79,9.79,0,0,0-4.81,3.38c-.15.21-.44.42,0,.68s.57.39.9,0a7.94,7.94,0,0,1,6.57-3.2,5.24,5.24,0,0,0,3-.94c.13-.09.26-.32.45-.18s.07.34,0,.51a13.16,13.16,0,0,1-2.55,6.35A13.21,13.21,0,0,1,54.56,42a31,31,0,0,1-4.51.44c-.45,0-.45.26-.45.58s0,.48.38.47a26.74,26.74,0,0,0,5.91-.7,15,15,0,0,0,4.18-1.71c.42-.25.52-.2.57.29a8.18,8.18,0,0,0,.73,3.11c.17.32,0,.45-.3.53q-4,.93-8.14,1.52c-1.57.22-3.16.36-4.74.46-.84.05-.85,0-.85-.79,0-1,.07-2.11,0-3.16a3,3,0,0,1,1-2.45,31.62,31.62,0,0,1,3.57-3.16c.19-.16.43-.28.51-.54a.39.39,0,0,0-.35,0,11.43,11.43,0,0,0-4.84,3.59c-.29.4-.43.24-.64,0A11.1,11.1,0,0,0,42,37c-.16-.08-.34-.23-.62-.07.69.57,1.37,1.11,2,1.68a16.56,16.56,0,0,1,2.76,2.79,1.4,1.4,0,0,1,.27.84c0,1.39,0,2.79,0,4.18,0,.45-.16.6-.6.57-2-.11-4-.3-5.92-.6q-3.57-.56-7.08-1.37c-.45-.11-.55-.2-.33-.66a7.69,7.69,0,0,0,.66-3c0-.56.11-.61.58-.33a18,18,0,0,0,6.95,2.21c1,.13,2,.08,3,.16.39,0,.55-.08.57-.47s-.1-.54-.5-.55A31.58,31.58,0,0,1,39.14,42C33.8,41,29.76,37.69,28.63,32.17ZM56.38,49.31a15.68,15.68,0,0,0-2.56.12,12.29,12.29,0,0,0-4.43,1.29,5.31,5.31,0,0,0-3,5v2c0,.94,0,1.87,0,2.81,0,.34-.11.45-.43.23a8.25,8.25,0,0,0-6.45-1.14,1.09,1.09,0,0,1-1.26-.44A13.55,13.55,0,0,1,35.45,49.1c.07-.6.16-1.19.28-1.77.08-.4.24-.54.7-.45a56.8,56.8,0,0,0,10,1.2,52.34,52.34,0,0,0,9.83-1,8.07,8.07,0,0,0,1.11-.22c.5-.16.64.09.72.49A14,14,0,0,1,55.71,59a1.33,1.33,0,0,1-1.53.63,8.2,8.2,0,0,0-6.5,1.24c-.16.12-.36.22-.35-.1a54.34,54.34,0,0,1,.08-5.85c.25-2.1,1.76-3.14,3.59-3.82a16.64,16.64,0,0,1,5.1-.81,3.85,3.85,0,0,0,.48,0c.24,0,.42-.19.39-.44A.56.56,0,0,0,56.38,49.31Zm-21,7.54c.16,0,.21.12.25.23a11.72,11.72,0,0,0,1.73,2.7c.25.29.13.46-.17.59a7.54,7.54,0,0,0-1.73,1c-.28.24-.47.21-.66-.13-.32-.62-.63-1.17-.19-1.92a5.26,5.26,0,0,0,.62-2.22C35.28,57,35.28,56.88,35.42,56.85Zm1.44,4.89a8.05,8.05,0,0,1,7.92-.45,5.19,5.19,0,0,1,1.66,1.25c.29.33.53.33.84,0,2.95-3,7.53-2.5,10.49-.25A6,6,0,0,1,60.19,66c.12.62.12,1.26.26,1.89a9.37,9.37,0,0,0,.89,2.4c.07.12.28.24.12.4s-.29,0-.44-.07a5.65,5.65,0,0,1-2.64-2,11.4,11.4,0,0,0-5.33-4,5.39,5.39,0,0,0-5.64,1.28c-.38.35-.58.43-1,0a5.84,5.84,0,0,0-7.22-.64,14.1,14.1,0,0,0-4,3.56,4.9,4.9,0,0,1-2.93,1.84,3.11,3.11,0,0,1,.43-1A7.77,7.77,0,0,0,33.46,67,6.17,6.17,0,0,1,36.86,61.74Zm21.88-.25c-.1.14-.24.09-.36,0a9.06,9.06,0,0,0-1.94-1.16c-.27-.13-.28-.28-.08-.5a12.13,12.13,0,0,0,1.71-2.65c.06-.12.07-.3.25-.28s.14.22.16.34a13.14,13.14,0,0,0,.84,2.67,2.31,2.31,0,0,1,.1.28A4.24,4.24,0,0,1,58.74,61.49Zm-39.5-7a6.42,6.42,0,0,1,1.48-6,5,5,0,0,1,5.11-1.72,4.56,4.56,0,0,1,3.69,3.27,1.8,1.8,0,0,1,.1.4c0,.22,0,.44,0,.66a3.71,3.71,0,0,1-2.54,3.7,3,3,0,0,1-3.85-2.22,2.3,2.3,0,0,1,1-2.28,1.72,1.72,0,0,1,2-.06A1.42,1.42,0,0,1,27,51.64a1.32,1.32,0,0,1-.85,1.14A1,1,0,0,1,25,52.35a.64.64,0,0,1,.11-.77.47.47,0,0,1,.65-.07c.34.23.61.2.79-.17s-.13-.55-.37-.71a1.44,1.44,0,0,0-1.95.43,1.71,1.71,0,0,0,.31,2.26,1.88,1.88,0,0,0,2.51,0,2.29,2.29,0,0,0,.57-3,2.86,2.86,0,0,0-4.87.11,3.59,3.59,0,0,0,2.64,5.39,4.34,4.34,0,0,0,4.92-3,46.8,46.8,0,0,0,2.11-6.21,1.4,1.4,0,0,1,.09-.29c0-.13.15-.25.31-.2s.17.21.14.35c-.11.52-.24,1-.35,1.57-.37,1.81-.45,3.67-1,5.45a7.67,7.67,0,0,1-4.58,5.28A5.8,5.8,0,0,1,19.24,54.53ZM22,61.88c-.62-1.07-1.17-2.16-1.72-3.26l.11-.11c.37.26.72.54,1.11.76a6.85,6.85,0,0,0,8.4-1.12,10.29,10.29,0,0,0,3.18-6.68,35.23,35.23,0,0,1,.8-4.57c.08-.31.14-.53.55-.42s.35.29.27.58a18.87,18.87,0,0,0-.26,6.7,10.17,10.17,0,0,1-4.77,10A5.84,5.84,0,0,1,22,61.88Zm4.67,5.91a19.58,19.58,0,0,1-2.38-2.74,18.81,18.81,0,0,0,2.06.42,6.26,6.26,0,0,0,3.72-.81c.13-.07.26-.27.41-.11s0,.29-.11.42a6,6,0,0,1-3.16,2.87C27,67.92,26.87,68,26.69,67.79Zm3.14,2.64c-.56-.42-1.09-.86-1.64-1.29-.21-.15-.29-.31,0-.44,2-.94,3-2.74,3.81-4.69a13.16,13.16,0,0,1,1.49-2.44c.16-.24.3-.23.45,0s.27.48.38.67a.52.52,0,0,1-.15.38,7,7,0,0,0-1.78,4.5,6,6,0,0,1-1.19,3.08C30.72,70.86,30.46,70.9,29.83,70.43Zm7.25,3.78c-.11.14-.25,0-.37,0a30.39,30.39,0,0,1-4.2-2c-.13-.08-.34-.11-.3-.31s.22-.15.35-.18a5.73,5.73,0,0,0,3.17-1.88c.1-.11.2-.32.36-.27s.09.31.11.48,0,.31,0,.47A7.91,7.91,0,0,0,37,73.84C37.05,74,37.19,74.08,37.08,74.21Zm3.52,1c-.14.19-.33,0-.5,0A2.51,2.51,0,0,1,38,73.56a7,7,0,0,1-.42-5.37A2.48,2.48,0,0,1,38.5,67a7.3,7.3,0,0,1,3.5-1.6c.21,0,.35-.11.42,0s-.07.26-.16.36a10.3,10.3,0,0,0-2.15,3.67,7.1,7.1,0,0,0,.34,5.28C40.53,74.92,40.71,75.08,40.6,75.25Zm3.91.63c-.07.12-.22.08-.33.06l-1.65-.22a.76.76,0,0,1-.52-.37,6.6,6.6,0,0,1-1.25-3.78,8,8,0,0,1,2.05-4.79l.24-.27c.31-.31.51-.89,1-.81a3.41,3.41,0,0,1,1.77,1.15c.2.19,0,.34-.18.48A10.61,10.61,0,0,0,43.44,70a4.08,4.08,0,0,0-.2,4.34,3.72,3.72,0,0,0,1.09,1.25C44.43,75.63,44.6,75.72,44.51,75.88Zm4-.95c-1.47,1.17-2.07,1.14-3.49-.12-1.58-1.4-1.7-2.93-.39-4.82a14.86,14.86,0,0,1,2-2.09c.17-.16.32-.21.52,0a7.83,7.83,0,0,1,2.79,3.77c.06.25.07.51.11.77A3.13,3.13,0,0,1,48.52,74.93Zm4.36-2.09a6,6,0,0,1-.58,1.63,2,2,0,0,1-.14.25c-.11.2-.23.4-.36.59a.9.9,0,0,1-.73.43c-.45,0-.9.13-1.35.19-.15,0-.35.11-.43-.07s.15-.26.25-.37c.25-.28.54-.53.76-.83a4.17,4.17,0,0,0-.09-5,10.45,10.45,0,0,0-2.06-2.38c-.33-.29-.27-.48,0-.72l.05,0c1.78-1.24,1.52-1.25,2.84.36l.26.33a3,3,0,0,1,.24.32c.16.2.29.41.42.6s.23.39.33.58.18.38.26.57.13.38.18.57a3.9,3.9,0,0,1,.13.57c0,.19.05.39.07.59s0,.33,0,.5a1.21,1.21,0,0,1,0,.19A5,5,0,0,1,52.88,72.84Zm3.66-2.51a7.3,7.3,0,0,1-1.25,4.09c-.46.75-1.26.7-1.94.86-.3.07-.14-.31-.05-.48A6.5,6.5,0,0,0,54,72.11,8.69,8.69,0,0,0,51.65,66l-.25-.26c-.08-.09-.16-.19-.08-.32s.17-.06.27,0a7.7,7.7,0,0,1,4.21,2.09,3.53,3.53,0,0,1,.73,2.22A4.85,4.85,0,0,1,56.54,70.33Zm4.73,1.84a27.49,27.49,0,0,1-4,1.89c-.13,0-.27.18-.39.07s0-.29.06-.42a7.86,7.86,0,0,0,.72-3.82c0-.12,0-.24.17-.26a3.32,3.32,0,0,1,.28.26,6,6,0,0,0,3.1,1.81c.12,0,.31,0,.35.18S61.38,72.1,61.27,72.17Zm4.2-2.94-1.78,1.4c-.33.26-.6.11-.84-.13a5.67,5.67,0,0,1-1.41-3.1,10.08,10.08,0,0,0-.8-3.33,8.55,8.55,0,0,0-.93-1.38A1,1,0,0,1,60,61.4c.18-.07.23.08.32.19a10.94,10.94,0,0,1,1.58,2.65,7.79,7.79,0,0,0,3.61,4.42c.11.06.22.11.22.25S65.57,69.15,65.47,69.23Zm3.72-3.71a28.78,28.78,0,0,1-2,2.13c-.11.11-.21.24-.37.26a5.51,5.51,0,0,1-1.94-1,7,7,0,0,1-1.56-2c0-.09-.11-.19,0-.27s.22,0,.32,0a7.36,7.36,0,0,0,2.28.84,6.57,6.57,0,0,0,3-.28c.15,0,.34-.17.45,0S69.28,65.4,69.19,65.52Zm4.17-6.63c-1.11,2.16-2,4.53-4.66,5.33a5.79,5.79,0,0,1-5.42-1c-2.83-2.11-4-5-4-8.91,0-.65.18-1.69.23-2.74a15.08,15.08,0,0,0-.41-4.44c0-.2-.15-.43.07-.61s.62-.13.73.32a34.54,34.54,0,0,1,.73,4,11.09,11.09,0,0,0,2.15,6,8.1,8.1,0,0,0,5.61,3.28,6.59,6.59,0,0,0,4.42-1.32l.34-.25c.07,0,.16-.08.21,0A.25.25,0,0,1,73.36,58.89Zm-1.91-.29a5.06,5.06,0,0,1-2.71.65,7,7,0,0,1-5.4-3.15,9.65,9.65,0,0,1-1.68-4.72,39.35,39.35,0,0,0-.83-4.69c-.06-.2-.17-.42.11-.5s.32.19.36.37a46.13,46.13,0,0,0,2.18,6.38,4.32,4.32,0,0,0,3.94,3,3.86,3.86,0,0,0,3.69-2,3.44,3.44,0,0,0-.38-3.86,2.73,2.73,0,0,0-2.79-1,2.45,2.45,0,0,0-2,1.7,2.25,2.25,0,0,0,.61,2.46,1.85,1.85,0,0,0,2.21.34,1.69,1.69,0,0,0,1-1.48A1.57,1.57,0,0,0,69,50.58a1.41,1.41,0,0,0-1.65.24.47.47,0,0,0,0,.65.4.4,0,0,0,.58.11c.27-.16.56-.28.81,0a.59.59,0,0,1,.08.77.89.89,0,0,1-1,.46,1.15,1.15,0,0,1-.94-.89,1.35,1.35,0,0,1,.47-1.5,1.77,1.77,0,0,1,2-.25A2.19,2.19,0,0,1,70.53,52a2.72,2.72,0,0,1-2.49,3,3.56,3.56,0,0,1-3.89-3.38c-.31-3.47,3.4-5.54,6.29-4.69a6.49,6.49,0,0,1,1,11.75Z" style="fill:#f8fcfe"/><path d="M43,28a17.91,17.91,0,0,1,3.54,3.84c.24.34.41.33.61,0a14,14,0,0,1,2.22-2.57c.47-.47,1-.91,1.41-1.38a1.6,1.6,0,0,0-.26-2.57,2.79,2.79,0,0,0-3.29.06c-.3.24-.45.23-.74,0a2.5,2.5,0,0,0-1.71-.55,2.65,2.65,0,0,0-1.32.34A1.65,1.65,0,0,0,43,28Zm1.29-2c.23-.06.46-.09.65-.13A1.93,1.93,0,0,1,46.5,27c.09.16.09.45.33.44s.21-.3.29-.47a1.9,1.9,0,0,1,2.54-1c.63.28.73.76.22,1.27-.78.77-1.59,1.5-2.36,2.27s-.67.7-1.36,0-1.53-1.45-2.28-2.19S43.37,26.22,44.27,26Z" style="fill:#f8fcfe"/><path d="M47.16,37.25c-.24.34-.36.38-.62,0A10.71,10.71,0,0,0,42,33.84c-.13-.07-.28-.16-.42,0s0,.09,0,.11.27.23.41.34a19.93,19.93,0,0,1,4.36,4.29.63.63,0,0,0,1,0,17.81,17.81,0,0,1,4.15-4.07c.31-.25.72-.43.91-.89-.12,0-.2,0-.26,0A11.6,11.6,0,0,0,47.16,37.25Z" style="fill:#f8fcfe"/><path d="M41.73,30.56a20.61,20.61,0,0,1,4.71,4.61.49.49,0,0,0,.88,0,14.6,14.6,0,0,1,3.33-3.55,8.6,8.6,0,0,0,1.63-1.45,10.84,10.84,0,0,0-5.06,3.51c-.25.32-.42.47-.71.07a11,11,0,0,0-4.58-3.43c-.13-.05-.27-.2-.41,0S41.64,30.49,41.73,30.56Z" style="fill:#f8fcfe"/><path d="M38.14,38.41a7,7,0,0,1-1.48-.78,21.75,21.75,0,0,1-3.49-3.15c-.28-.29-.47-.26-.74,0s-.37.43-.06.73A31.23,31.23,0,0,0,35,37.72a9.09,9.09,0,0,0,3.07,1.78c.44.12.55,0,.5-.48S38.48,38.52,38.14,38.41Z" style="fill:#f8fcfe"/><path d="M55.62,39.52a6,6,0,0,0,1.05-.41,18.13,18.13,0,0,0,4.82-4c.3-.32,0-.45-.16-.62s-.38-.34-.64-.05c-.52.55-1,1.1-1.59,1.61a10.5,10.5,0,0,1-3.35,2.34c-.42.16-.58.35-.57.77S55.26,39.63,55.62,39.52Z" style="fill:#f8fcfe"/><path d="M56,52.26a7.58,7.58,0,0,0-1.43-.09,7.11,7.11,0,0,0-1.84.14,5.6,5.6,0,0,0-4.32,3c-.13.27-.34.54.09.73s.65.25.86-.25a4,4,0,0,1,2-2c.25-.13.36-.12.49.16.29.65.74.92,1.25.78a1,1,0,0,0,.83-1.15c0-.34.16-.41.44-.4a6.83,6.83,0,0,1,1.43.09c.48.13.5-.21.59-.53S56.29,52.33,56,52.26Z" style="fill:#f8fcfe"/><path d="M44.84,54.15a6.7,6.7,0,0,0-5.09-2,10.07,10.07,0,0,0-1.65.1c-.35.07-.51.19-.41.56s.18.61.64.49a5.68,5.68,0,0,1,1.43-.08c.3,0,.43.11.4.42a1,1,0,0,0,.8,1.11,1,1,0,0,0,1.22-.68c.16-.39.33-.34.63-.18a3.94,3.94,0,0,1,1.93,2c.17.43.45.27.74.17s.36-.31.22-.6A5.43,5.43,0,0,0,44.84,54.15Z" style="fill:#f8fcfe"/><path d="M44.36,50.81a13.73,13.73,0,0,0-6.13-1.5h-.71c-.28,0-.46.08-.46.4s0,.58.4.62c.21,0,.43,0,.65,0,2.51.07,4.92.45,6.9,2.18.33.29.48-.07.68-.22s.16-.36,0-.53A7.66,7.66,0,0,0,44.36,50.81Z" style="fill:#f8fcfe"/></svg>