<svg id="Layer_1" data-name="Layer 1" xmlns="http://www.w3.org/2000/svg" viewBox="0 0 93.45 93.45"><title>customer</title><path d="M73.68,15.09a.39.39,0,0,0-.53,0L61.38,26.86a20.17,20.17,0,0,0-1.72-1.49l4.91-6.57a.38.38,0,0,0-.07-.53.37.37,0,0,0-.53.08l-4.91,6.56c-.56-.4-1.13-.77-1.72-1.11L65.46,9.27a.37.37,0,0,0-.15-.51.37.37,0,0,0-.51.14L56.69,23.42c-.57-.3-1.15-.58-1.75-.83L58,14.91a.38.38,0,0,0-.21-.49.39.39,0,0,0-.49.21l-3.09,7.68c-.6-.23-1.21-.43-1.84-.61L56.6,5.61a.38.38,0,0,0-.27-.46.37.37,0,0,0-.46.27L51.68,21.51c-.63-.15-1.26-.27-1.9-.37l1-8.14a.38.38,0,0,0-.75-.1l-1,8.15c-.64-.07-1.28-.11-1.93-.12V4.29a.38.38,0,0,0-.76,0V20.93c-.65,0-1.29.05-1.93.12l-1-8.15a.37.37,0,0,0-.42-.32.38.38,0,0,0-.33.42l1,8.14c-.64.1-1.27.22-1.89.37L37.57,5.42a.38.38,0,0,0-.46-.27.38.38,0,0,0-.27.46L41,21.7c-.63.18-1.24.38-1.84.61l-3.09-7.68a.38.38,0,0,0-.49-.21.39.39,0,0,0-.21.49l3.09,7.68c-.6.25-1.18.53-1.74.83L28.64,8.9a.38.38,0,0,0-.66.37L36.1,23.8a19.23,19.23,0,0,0-1.71,1.11l-4.92-6.56a.38.38,0,1,0-.6.45l4.91,6.57a20.17,20.17,0,0,0-1.72,1.49L20.29,15.09a.39.39,0,0,0-.53,0,.38.38,0,0,0,0,.54L31.53,27.39a21.11,21.11,0,1,0,30.38,0L73.68,15.63A.38.38,0,0,0,73.68,15.09Zm-32.1,7.24h0a20.19,20.19,0,0,1,10.24,0h0a20.31,20.31,0,0,1,8.51,4.61,20.27,20.27,0,0,0-2.6.29,18.43,18.43,0,0,0-22.14,0,19.68,19.68,0,0,0-2.56-.32A20.42,20.42,0,0,1,41.58,22.33Zm19.5,17v2.75A14.28,14.28,0,0,1,46.81,56.39h-.18A14.28,14.28,0,0,1,32.36,42.12V28.88l9.12,18.75a5.29,5.29,0,0,0,10.31.82l9.29-19.54V39.13s0,.08,0,.12S61.08,39.33,61.08,39.37ZM52,46.26A19.88,19.88,0,0,0,47.17,33.9a19.1,19.1,0,0,1,13.66-6.22Zm-9.8.68v-.18a19,19,0,0,1,4.48-12.28,19.16,19.16,0,0,1,4.59,12.46,4.54,4.54,0,0,1-9.07,0Zm4.48-13.6a20,20,0,0,0-10-5.87,17.69,17.69,0,0,1,20.14,0A19.87,19.87,0,0,0,46.67,33.34Zm-.5.57a19.75,19.75,0,0,0-4.72,11.94L32.62,27.68A19.25,19.25,0,0,1,46.17,33.91ZM31.61,37.17A3.26,3.26,0,0,0,29.11,36a3.2,3.2,0,0,0-2,.73,20.27,20.27,0,0,1,4.54-8.32Zm-2.5-.42a2.5,2.5,0,1,1-2.49,2.5A2.5,2.5,0,0,1,29.11,36.75Zm0,5.75a3.26,3.26,0,0,0,2.5-1.17v.79a15,15,0,0,0,15,15h.18a15,15,0,0,0,15-15v-.79a3.26,3.26,0,0,0,2.49,1.17l.36,0A17.89,17.89,0,0,1,46.81,60h-.18A17.89,17.89,0,0,1,28.76,42.48Zm35.21-.76a2.49,2.49,0,0,1-2.49-2.43v-.12a2.5,2.5,0,1,1,2.49,2.55Zm0-5.74a3.22,3.22,0,0,0-2.49,1.17V28.41a20.22,20.22,0,0,1,4.54,8.32A3.26,3.26,0,0,0,64.32,36ZM46.72,62.38A20.38,20.38,0,0,1,26.36,42q0-.51,0-1A3.28,3.28,0,0,0,28,42.3,18.64,18.64,0,0,0,46.63,60.75h.18A18.65,18.65,0,0,0,65.44,42.3,3.32,3.32,0,0,0,67.05,41c0,.34,0,.68,0,1A20.38,20.38,0,0,1,46.72,62.38Z" style="fill:#f8fcfe"/><path d="M77,68.77a1.57,1.57,0,0,0-.72-1,1.55,1.55,0,0,0-1.17-.23,1.42,1.42,0,0,0-1,.68,1.45,1.45,0,0,0-.2,1.16,1.58,1.58,0,0,0,.71,1,.61.61,0,0,0,.14.07v-.18l-.05,0a.82.82,0,0,1-.41-.69,1.8,1.8,0,0,1,.31-1,1.75,1.75,0,0,1,.75-.7.79.79,0,0,1,.8.07,1,1,0,0,1,.37.93,2.39,2.39,0,0,1-.2.75,3.41,3.41,0,0,1-.58.89,1.68,1.68,0,0,1-1.22.51,1.5,1.5,0,0,1-.68-.12v.22a2.51,2.51,0,0,0,2-.1,2,2,0,0,0,.83-.74,2,2,0,0,0,.28-1h0A1.44,1.44,0,0,0,77,68.77Z" style="fill:#f8fcfe"/><path d="M76.52,73.19l-3.65.34V74a3.44,3.44,0,0,1,1.66.26,1.27,1.27,0,0,1,.41,1.13V85.55a6,6,0,0,1-.89,3.7,3.52,3.52,0,0,1-2.94,1.13H71v.51h.31c3.81,0,5.7-1.88,5.7-5.63V73.19Z" style="fill:#f8fcfe"/><path d="M67.69,73.19,64,73.53V74a3.35,3.35,0,0,1,1.64.26,1.25,1.25,0,0,1,.43,1.13V85.55a6,6,0,0,1-.9,3.7,3.52,3.52,0,0,1-2.94,1.13h-.09v.51h.32q5.7,0,5.7-5.63V73.19Z" style="fill:#f8fcfe"/><circle cx="66.93" cy="68.88" r="1.34" style="fill:#f8fcfe"/><path d="M59.63,67.5,56,67.83v.52a3.41,3.41,0,0,1,1.66.27c.28.17.41.54.41,1.12v11a6.06,6.06,0,0,1-.89,3.7,3.49,3.49,0,0,1-2.92,1.13H53.12A11.19,11.19,0,0,0,53,84.41,4.64,4.64,0,0,0,51.85,82a4.41,4.41,0,0,0-3.34-1.35,5.64,5.64,0,0,0-2,.33,5.16,5.16,0,0,0-1.64,1,15.34,15.34,0,0,0-2,2.79,14.33,14.33,0,0,1-2.55,3.36,3.22,3.22,0,0,1-2.07.8A3,3,0,0,1,36,88a3.81,3.81,0,0,1-.87-2.61,4.27,4.27,0,0,1,1.2-3,4.16,4.16,0,0,1,2.8-1.26v-.68a5.23,5.23,0,0,0-.82.11,4.5,4.5,0,0,0-2.48,1.37,4.92,4.92,0,0,0-1.38,3.46v.49a4.83,4.83,0,0,0,1.49,3.57,4.89,4.89,0,0,0,3.59,1.48,4.57,4.57,0,0,0,2.88-1,13.94,13.94,0,0,0,3-3.8A12.13,12.13,0,0,1,47.71,83a3.23,3.23,0,0,1,2-.74,2.41,2.41,0,0,1,2,.89,2.94,2.94,0,0,1,.37.59.88.88,0,0,1,.12.28,4.08,4.08,0,0,1,.24,1.45.81.81,0,0,1,0,.16,4.38,4.38,0,0,1,0,.52h2.06c3.8,0,5.69-1.88,5.69-5.64v-13Z" style="fill:#f8fcfe"/><path d="M41.61,67.5,38,67.83v.52a3.41,3.41,0,0,1,1.66.27c.28.17.41.54.41,1.12v11a6.06,6.06,0,0,1-.89,3.7,3.49,3.49,0,0,1-2.92,1.13H35.1A11.19,11.19,0,0,0,35,84.41,4.64,4.64,0,0,0,33.83,82a4.41,4.41,0,0,0-3.34-1.35,5.64,5.64,0,0,0-2,.33,5.16,5.16,0,0,0-1.64,1,15.34,15.34,0,0,0-2,2.79,14.33,14.33,0,0,1-2.55,3.36,3.22,3.22,0,0,1-2.07.8,3,3,0,0,1-2.31-1,3.81,3.81,0,0,1-.87-2.61,4.27,4.27,0,0,1,1.2-3,4.16,4.16,0,0,1,2.8-1.26v-.68a5.23,5.23,0,0,0-.82.11,4.5,4.5,0,0,0-2.48,1.37,4.92,4.92,0,0,0-1.38,3.46v.49a4.83,4.83,0,0,0,1.49,3.57,4.89,4.89,0,0,0,3.59,1.48,4.57,4.57,0,0,0,2.88-1,13.94,13.94,0,0,0,3-3.8A12.13,12.13,0,0,1,29.69,83a3.23,3.23,0,0,1,2-.74,2.41,2.41,0,0,1,1.95.89,2.94,2.94,0,0,1,.37.59.88.88,0,0,1,.12.28,4.08,4.08,0,0,1,.24,1.45.81.81,0,0,1,0,.16,4.38,4.38,0,0,1,0,.52h2.06c3.8,0,5.69-1.88,5.69-5.64v-13Z" style="fill:#f8fcfe"/></svg>