<svg id="Layer_1" data-name="Layer 1" xmlns="http://www.w3.org/2000/svg" viewBox="0 0 93.45 93.45"><title>customer</title><polygon points="49.31 31.89 49.3 31.89 49.3 31.89 49.31 31.89" style="fill:#f8fcfe"/><polygon points="49.42 31.76 49.42 31.76 49.42 31.76 49.42 31.76" style="fill:#f8fcfe"/><polygon points="53.34 25.02 53.34 25.02 53.35 25.02 53.34 25.02" style="fill:#f8fcfe"/><path d="M54.78,37.16a3,3,0,0,1,.28-.22,7.46,7.46,0,0,0,1.46-2.21,6.84,6.84,0,0,0-.58-6.37,19.43,19.43,0,0,0-2.46-3.18L53.34,25a38.85,38.85,0,0,0-4.91-3.75l-2-1.26-2.77-1.4c-.3-.15-.57-.21-.75.19-.62,1.32-1.23,2.65-1.86,4-.13.26-.07.36.17.46.45.2.88.41,1.32.62.19.11.43.13.62.36a8,8,0,0,0-3.78,3l-.09.19a7.32,7.32,0,0,0-.67,2.46c.07,1.88.12,2,1.42,3.51-.54.06-1,.14-1.52.17-.29,0-.38.13-.38.41,0,.51,0,1,0,1.53,0,.69,0,1.38,0,2.07s-.27,1.46.12,1.73,1.24-.09,1.87-.24a13.61,13.61,0,0,0,4.28-2.25,1.32,1.32,0,0,1,1.86-.22A27.62,27.62,0,0,0,50,38.19,4.26,4.26,0,0,0,54.78,37.16ZM46.72,31a2,2,0,0,1-2.7.9,4.29,4.29,0,0,1-1.79-1.14,2,2,0,0,1,.27-3,4.53,4.53,0,0,1,3.27-1.07c.37,0,.61.3.85.55A3,3,0,0,1,46.72,31Zm4.78,4.1a21.89,21.89,0,0,1-3.36-1.51c.34-.48.67-.94,1-1.4,0-.1,0-.21.15-.25s0-.14.12-.13a13.69,13.69,0,0,0,.51-2.61c0-.24.15-.2.28-.11a8.67,8.67,0,0,1,3.4,3.26,2.26,2.26,0,0,1,0,2.17,1.13,1.13,0,0,1-1.44.69C51.88,35.39,51.67,35.11,51.5,35.05Z" style="fill:#f8fcfe"/><path d="M61.63,19.36A19.83,19.83,0,0,0,55,15.61a33.12,33.12,0,0,0-5.18-1.25c.13.22.33.23.52.28A16,16,0,0,1,62.45,26.4a15.58,15.58,0,0,1-1.54,12.25A16.08,16.08,0,0,1,53,45.73c-.89.39-1.84.59-2.74,1a9.48,9.48,0,0,0,3.29-.6,19.26,19.26,0,0,0,11.28-8c.49-.75.82-1.59,1.26-2.37.26-1.12.58-2.23.78-3.37a12.44,12.44,0,0,0-.27-5.09A14.57,14.57,0,0,0,61.63,19.36Z" style="fill:#f8fcfe"/><path d="M38,44.58a16.42,16.42,0,0,1-5.68-22,15.91,15.91,0,0,1,5.39-5.73,20,20,0,0,1,4.93-2.2.74.74,0,0,0-.45-.06A20.74,20.74,0,0,0,30.1,20.88a17,17,0,0,0-3,4.74,1.78,1.78,0,0,1-.06.47,12.37,12.37,0,0,0-.5,7.29,14.18,14.18,0,0,0,3.75,7A21.22,21.22,0,0,0,42.5,46.6a9.4,9.4,0,0,0-.92-.39A16.68,16.68,0,0,1,38,44.58Z" style="fill:#f8fcfe"/><path d="M64.62,18.92a2.39,2.39,0,0,0,2.57-2.42c0-1.62-1-2.53-3-2.46a2.29,2.29,0,0,0-2.09,2.38A2.41,2.41,0,0,0,64.62,18.92Zm0-4.41a1.89,1.89,0,0,1,1.87,1.93,2,2,0,0,1-1.92,2.07c-.85.11-1.81-1-1.83-2A1.9,1.9,0,0,1,64.66,14.51Z" style="fill:#f8fcfe"/><path d="M63.68,16.41h0c0,.38,0,.77,0,1.15s.12.27.31.27.26-.07.25-.25a5,5,0,0,1,0-.55c0-.13-.08-.31.12-.36s.29.1.37.25.23.42.36.63.22.27.37.2.14-.3,0-.46a2,2,0,0,0-.19-.31c-.16-.22-.17-.3.13-.46a.79.79,0,0,0,0-1.33,2.16,2.16,0,0,0-1.6,0c-.3.11-.07.66-.12,1A2.09,2.09,0,0,0,63.68,16.41Zm.53-.59c.05-.33.19-.36.26-.35.43,0,.74,0,.76.38s-.22.5-.44.43S64.13,16.35,64.21,15.82Z" style="fill:#f8fcfe"/><path d="M36.6,56.2c-2,.19-2.14.31-2.14,2.29v9.45c0,2,.21,2,2.14,2.26v.66H30.29V70.2c2-.24,2.14-.28,2.14-2.26V63.22H24.37v4.72c0,2,.19,2,2.12,2.26v.66H20.2V70.2c1.91-.21,2.12-.28,2.12-2.26V58.49c0-2-.21-2.1-2.12-2.29v-.66h6.29v.66c-1.88.17-2.12.33-2.12,2.29v3.75h8.06V58.49c0-2-.26-2.12-2.14-2.29v-.66H36.6Z" style="fill:#f8fcfe"/><path d="M45.89,70.86V70.2c1.53-.19,1.72-.43,1.39-1.32S46.5,66.78,46,65.3H40.91c-.37,1.06-.73,2-1.06,2.94-.51,1.53-.18,1.72,1.75,2v.66H36.16V70.2c1.48-.19,1.86-.35,2.68-2.48l4.88-12.36.75-.15c1.49,4,3.11,8.49,4.6,12.56.75,2,1,2.24,2.64,2.43v.66ZM43.53,58.3c-.75,2-1.55,4.17-2.26,6h4.4Z" style="fill:#f8fcfe"/><path d="M67.52,56.2c-1.51.17-2,.41-2.08,1.49,0,.75-.07,1.74-.07,3.93v9.45h-.89L54.39,58.75v5.89c0,2.12.07,3.18.12,3.86.05,1.2.64,1.56,2.33,1.7v.66H51.12V70.2c1.46-.12,2-.47,2.12-1.63.07-.75.12-1.81.12-4v-6a2.08,2.08,0,0,0-.47-1.56c-.45-.59-1-.73-2.1-.85v-.66h3.53l10,11.86V61.62c0-2.19,0-3.2-.12-3.91-.07-1.06-.61-1.39-2.49-1.51v-.66h5.82Z" style="fill:#f8fcfe"/><path d="M68,70.86V70.2c1.93-.21,2.12-.31,2.12-2.31V58.54c0-2-.19-2.12-2.12-2.34v-.66H74.3v.66c-2,.22-2.14.31-2.14,2.34v9.35c0,2,.19,2.1,2.14,2.31v.66Z" style="fill:#f8fcfe"/></svg>