<svg id="Layer_1" data-name="Layer 1" xmlns="http://www.w3.org/2000/svg" viewBox="0 0 93.45 93.45"><title>customer</title><path d="M47.73,76.94A53.86,53.86,0,0,1,39.9,77a25.16,25.16,0,0,1-5.43-1.24,25.25,25.25,0,0,1-7.63-3.93,28.3,28.3,0,0,1-7.62-8.35,27,27,0,0,1-2.65-5.6A27.8,27.8,0,0,1,18.2,36.45a32.75,32.75,0,0,1,2.56-4,39.9,39.9,0,0,1,3.48-4c.66-.68,1.48-1.2,2.16-1.88.33-.33.42-.24.55.64a.51.51,0,0,1,.15.23,3.79,3.79,0,0,1,0,2.26,2.48,2.48,0,0,1-1,1.3,23.71,23.71,0,0,0-6,8.79,24.44,24.44,0,0,0-1.83,8.74,25.48,25.48,0,0,0,8.28,19.09,23.72,23.72,0,0,0,6.3,4.17,18.73,18.73,0,0,0,7.27,2c.91,0,1.79.32,2.7.31a53.88,53.88,0,0,0,5.66-.53c.41,0,.88-.3,1.11.31a3.08,3.08,0,0,0-.16,1.62.78.78,0,0,0,.07.31c.6.91-.17.77-.65.86S48.11,76.76,47.73,76.94Z" style="fill:#f8fcfe"/><path d="M56.22,24.64h0a.43.43,0,0,1-.2.22h0l-.14,0h0l-.18,0a21.85,21.85,0,0,1-2.93-1,12.33,12.33,0,0,0-2-.49l-.13,0-.16,0h0a23.22,23.22,0,0,1-4.33-1.07c-.28-.12-.33,0-.49.2a17.14,17.14,0,0,0-2.55,3.32.52.52,0,0,1-.27.18h0l-.14,0a1.11,1.11,0,0,1-.26,0h-.08a.42.42,0,0,0-.06-.14c-.69-.71-1.34-1.47-2.08-2.13s-1.3-1.71-2.17-2.35a30.36,30.36,0,0,1-2.36-3.69,4.32,4.32,0,0,1-.27-3.12,1.32,1.32,0,0,1,1.08-1,.56.56,0,0,1,.36,0s0,0,0,.06v0h0a.48.48,0,0,1-.14.49h0a0,0,0,0,0,0,0l0,0-.27.24a.19.19,0,0,0-.06.07h0A1.45,1.45,0,0,0,36,16.2,14.68,14.68,0,0,0,38.21,20c1.16,1.36,2.32,2.73,3.52,3.9l0,0a1.36,1.36,0,0,1-.14-.39.09.09,0,0,1,0-.05.24.24,0,0,0,0-.08h0a13.18,13.18,0,0,0-.07-3,2.44,2.44,0,0,1,1.32-2.28c.48-.29,1-.58,1.48-.85h0a.91.91,0,0,1,.14-.07l.06,0h0a1.11,1.11,0,0,1,.7.21,64.35,64.35,0,0,1,6,3.48c1.14.76,2.24,1.58,3.43,2.26a3.1,3.1,0,0,1,1.53,1.46S56.21,24.62,56.22,24.64Z" style="fill:#f8fcfe"/><path d="M71,54.3a24.2,24.2,0,0,1-2.14,6.57c-.11.21-.18.49-.59.44a23,23,0,0,1-2.62-.09c-.31-.34-.12-.67,0-1a26.74,26.74,0,0,0,2.6-8.8A18.71,18.71,0,0,0,68,45.29c0-.11,0-.22,0-.31a1.44,1.44,0,0,0,.18.25c.1-.25-.12-.54.08-.83a10.11,10.11,0,0,0,2.25.82c.48,0,.65.19.73.73A24.65,24.65,0,0,1,71,54.3Z" style="fill:#f8fcfe"/><path d="M73.86,44.74A5.3,5.3,0,0,1,71.3,45a7.24,7.24,0,0,1-2.87-.79l-.32-.06a5.58,5.58,0,0,1-1.69-.71l-.22-.14c-.93-.57-2-.91-2.94-1.45a3.42,3.42,0,0,1-1.07-.74l0-.09a.3.3,0,0,1,0-.08.44.44,0,0,1-.05-.15h0a.25.25,0,0,1,0-.09v0a.33.33,0,0,1,.2-.24h.08a2.2,2.2,0,0,1,.6.15h0a1,1,0,0,0,.26.06h.06a1.57,1.57,0,0,1,.7.2A50.64,50.64,0,0,0,69,43.13a5.93,5.93,0,0,0,1.66.48h0a7.41,7.41,0,0,0,1.15.08h0c.41,0,.82,0,1.23,0h0a1.12,1.12,0,0,0,.37-.09h0a1.35,1.35,0,0,0,.55-.46h0l.07-.11a2,2,0,0,0,.14-.3,2.41,2.41,0,0,0,.15-.63h0a4.44,4.44,0,0,0-.06-1.09s0,0,0,0a.44.44,0,0,1,0-.1,21.19,21.19,0,0,0-2.07-5.72c-.53-1-.87-2.07-1.45-3-1.16-2-2.3-4-3.59-5.89A6.77,6.77,0,0,0,66.6,25h0l-.1-.09-.06,0a.85.85,0,0,1-.14-.19.76.76,0,0,0-.09-.18h0a2.53,2.53,0,0,0-.13-.22h0a3.92,3.92,0,0,0-.25-.32h0s0,0-.06-.06h0l-.15-.17a9.48,9.48,0,0,1-.79-1h0l0-.06-.21-.32h0a19.36,19.36,0,0,0-2.47-3.09,4,4,0,0,0-1.34-.74l-.06,0h0c-.18-.08-.37-.17-.55-.27h0a8.16,8.16,0,0,0-2.49-.94,0,0,0,0,1,0,0,5.49,5.49,0,0,1-1.92-.58h0l0,0-1-.48,0,0h0a2.1,2.1,0,0,0-.41-.24h0a.59.59,0,0,1-.27-.27c.22-.26.48-.15.73-.09a22.29,22.29,0,0,1,3.64,1.15,16.79,16.79,0,0,1,4.18,1.79,6.43,6.43,0,0,1,1.68,1.65A89.46,89.46,0,0,1,70,28.59a50.52,50.52,0,0,1,3.28,6,21.82,21.82,0,0,1,2.13,6.57C75.55,42.64,75.35,44,73.86,44.74Z" style="fill:#f8fcfe"/><path d="M66.92,61.89c-.09.26-.22.36-.37.38h-.11a1.71,1.71,0,0,1-.3-.05h-.06a1.07,1.07,0,0,0-.25,0h0a.84.84,0,0,0-.53.17A2.6,2.6,0,0,1,63,63H62.9l-.16,0h0a.28.28,0,0,1-.25-.25c0-.26.25-.32.45-.4l.25,0c1.38-.23,1.41-.25.57-1.33A51.45,51.45,0,0,0,57,53.24a2,2,0,0,1-.75-1.74,17.09,17.09,0,0,1,.1-1.89c.07-.37-.06-.51-.44-.46-1.52.22-3.07.32-4.57.69l-.36.1-.25.07a12.72,12.72,0,0,0-3.91,1.65,8.25,8.25,0,0,0-1.5,1.39,1.33,1.33,0,0,0-.14.19.58.58,0,0,1-.46.32c-.59-.54,0-.91.2-1.33s.58-.55.37-1.08-.37-.74-.9-.77c-1.46-.08-2.51-1-3.67-1.75-.2-.12-.2-.32-.19-.52V48a.52.52,0,0,1,.21,0c-.09-.64-.17-1.29-.28-1.93a46.35,46.35,0,0,0-.71-5.12,7.05,7.05,0,0,1-.14-3.81s0,0,0,0h0a.44.44,0,0,1,.27.15h0a.54.54,0,0,1,.07.13A3.26,3.26,0,0,1,40,38c0,.44,0,.89,0,1.33a1.94,1.94,0,0,0,.17.55l0,.06c0,.11,0,.22,0,.33h0c.15,1.09.45,2.16.63,3.25,0,.17,0,.33.07.5a2.67,2.67,0,0,0,0,.4,19.21,19.21,0,0,0,.49,2.81,1.81,1.81,0,0,0,1,1.32c.57.31,1.18.56,1.73.91a7.08,7.08,0,0,0,2.67.2h.15c.18,0,.4-.07.57,0a.37.37,0,0,1,.19.25.81.81,0,0,1-.06.13h0l-1.53.19c-.17,0-.34,0-.32.27a3,3,0,0,0,.1.8c0,.1.29,0,.35-.06.38-.66,1.14-.67,1.68-1.05A15.83,15.83,0,0,0,51.71,49l-.1-.1.08,0a2.33,2.33,0,0,1,.38-.08h.54a1.65,1.65,0,0,0,.69-.12h0l.24-.13a9.8,9.8,0,0,1,1.78-.26,3.09,3.09,0,0,0,1-.07h0l.52-.08a2.25,2.25,0,0,1,.58,0h.1l.2,0h0l.15.06,0,0,0,.09h0a3.83,3.83,0,0,1-.45,2.19c-.1.31-.5.65,0,1l0,0,.06.07c1,1.17,2.23,2.16,3.23,3.35l.09.1v0c.87,1.09,1.73,2.19,2.62,3.27a2.28,2.28,0,0,1,.57,1.25c.53.59.78,1.4,1.48,1.85A2.55,2.55,0,0,0,66.92,61.89Z" style="fill:#f8fcfe"/><path d="M31.2,28.83a1.11,1.11,0,0,0-.17.27,1.92,1.92,0,0,1,0-.24c.06-.39.13-.78.22-1.17l0-.08c0-.1.07-.19.1-.28.47-1.43.71-2.92,1.1-4.38.09-.31.13-.65.53-.74a20.47,20.47,0,0,0-1,3.53,8.59,8.59,0,0,1-.65,2A2.75,2.75,0,0,1,31.2,28.83Z" style="fill:#f8fcfe"/><path d="M32.44,25.58c.23-.89.5-1.77.76-2.66.26.32,0,.62-.06.93a7.9,7.9,0,0,0-.51,2.26A23.2,23.2,0,0,1,39.31,24c-.42-.83-1.4-1.22-1.49-2.19A10.18,10.18,0,0,0,39.89,24a22.54,22.54,0,0,1-2.59.63,14.14,14.14,0,0,0-4.23,1.45c-.19.09-.48.22-.61.14S32.38,25.8,32.44,25.58Z" style="fill:#f8fcfe"/><path d="M42.33,26.5l0,.05,0,0a0,0,0,0,1,0,0h0l-.12.16a.36.36,0,0,0,0-.23.6.6,0,0,0,.18-.5.53.53,0,0,0-.06-.14.35.35,0,0,1,.14.16A.48.48,0,0,1,42.33,26.5Z" style="fill:#f8fcfe"/><path d="M27.47,26.05c0-.08,0-.17,0-.25h0a15.85,15.85,0,0,0-.71-3.55c-.12-.72-.23-1.45-.35-2.2-.61.57-.05,1.15-.1,1.71a.88.88,0,0,0,.11-.58c.06.33.13.66.19,1,0,0,0,.05,0,.07s0,.05,0,.08c.22,1.11.5,2.21.61,3.34a.29.29,0,0,0,0,.09.07.07,0,0,0,0,.06.36.36,0,0,0,0,.11l.09.67a5.81,5.81,0,0,0,.09.58.75.75,0,0,0,0,.16h0a2.3,2.3,0,0,0,.1.35.34.34,0,0,1,0,.1,3.28,3.28,0,0,0,.24.54h.09C27.78,27.58,27.62,26.81,27.47,26.05Zm-1.21-5.79c0,.18,0,.35,0,.53A1.2,1.2,0,0,1,26.26,20.26Z" style="fill:#f8fcfe"/><path d="M26,19.91A1,1,0,0,0,26,19a19.32,19.32,0,0,1-.36-2.26c-.1-.7.16-1.07.8-1.17s1.2.14,1.3.87a7.28,7.28,0,0,0,.29,1.8c-.31.35-.33,0-.35-.19a14.14,14.14,0,0,1-.17-1.71c0-.74-.5-.65-1-.62s-.86.23-.75.81a24.46,24.46,0,0,0,.43,2.83C26.36,19.69,26.3,19.89,26,19.91Z" style="fill:#f8fcfe"/><path d="M29.28,27.31a.13.13,0,0,1,0,.06.78.78,0,0,1,0,.21.5.5,0,0,1-.05.13l-.11.13-.07.08a1.14,1.14,0,0,1-1,.43l1.08-.64.06-.33c0-.22,0-.44,0-.66L27.9,19.3a2.65,2.65,0,0,1,.17-1,.67.67,0,0,0,.07.18c.16,2.75.75,5.44,1.09,8.15l0,.22s0,.05,0,.07A1.34,1.34,0,0,1,29.28,27.31Z" style="fill:#f8fcfe"/><path d="M39.89,24a22.54,22.54,0,0,1-2.59.63,14.14,14.14,0,0,0-4.23,1.45c-.19.09-.48.22-.61.14s-.08-.45,0-.67c.23-.89.5-1.77.76-2.66,1.47-.67,2.93-1.39,4.62-1.15A10.18,10.18,0,0,0,39.89,24Z" style="fill:#f8fcfe"/><path d="M76.36,69l-.2.28c-.16.44-.59.66-.83,1l-.13,0c-.16.3-.06.78-.55.84h0l-.11.12a16.67,16.67,0,0,1-1.41,1.5c-.28.24-.4.47,0,.7h0l.09.06a.56.56,0,0,1,.24.24c-.06.91.24,1.91-.39,2.7s-1,2-2.29,2.27c-.16.07-.22,0-.26-.15s0,0,0-.06,0,0,0,0c.17-.43.67-.58.91-.94a.75.75,0,0,0,.1-.2c.3-.57.84-1,1-1.69.24-1.21-.23-1.84-1.47-1.88-.44,0-.87.1-1.31.11l-.16,0,0,0a.33.33,0,0,1-.17-.21l0,0c.31-.7,1-.74,1.63-.83a3,3,0,0,0,1.84-1c.71-.83,1.57-1.52,2.21-2.4a1.56,1.56,0,0,1,.89-.7H76A.44.44,0,0,1,76.36,69Z" style="fill:#f8fcfe"/><path d="M36.8,13.66l-.35,0a9.22,9.22,0,0,1,5.32-.83l2.36.21a20.17,20.17,0,0,1,2.44.46l.36.18c0,.05-.09.09-.14.07s-.18,0-.08,0,.48,0,.7.1.47.09.29.42c-.54.26-1.05-.05-1.57-.09a3.7,3.7,0,0,0-1.71-.26,3.79,3.79,0,0,1-.82-.07,18.21,18.21,0,0,0-5.66-.07l-.27.07a1.87,1.87,0,0,1-.53,0A.59.59,0,0,1,36.8,13.66Z" style="fill:#f8fcfe"/><path d="M74.71,66.65l-.08.1-.08,0h0a.35.35,0,0,1-.19-.17.17.17,0,0,0,0,0s0-.05,0-.08c-.07-.31,0-.65,0-1h0a.75.75,0,0,0-.13-.32h0A1.06,1.06,0,0,0,74,65c-.12-.17-.21-.37-.42-.46a1.64,1.64,0,0,1-.56-.1.72.72,0,0,1-.2-.09,3.41,3.41,0,0,1-1-.94c-.26-.31-.53-.68-1-.58a.19.19,0,0,0-.1,0l-.13,0a2.27,2.27,0,0,1-2.45-.33c-.31-.31-.78-.09-1.19-.1s-.86.12-1.1-.27a.91.91,0,0,1-.1-.24c.39-.06.81.37,1.19-.06.68-.39,1.29-.51,1.79.31.34.55,1,.36,1.35.18,1.2-.61,1.81.13,2.46.87.11.13.23.23.35.35a1.78,1.78,0,0,1,1.66.71l0,0a.61.61,0,0,1,.07.1A1.65,1.65,0,0,1,74.71,66.65Z" style="fill:#f8fcfe"/><path d="M47.74,14.18c-.36-.38-.86-.33-1.35-.38.17-.21.37-.1.54-.14a21.51,21.51,0,0,1,4.84,1c.94.24,1.87.56,2.8.84l-.59.06c.24.19.62.11.71.46a.65.65,0,0,1-.62.07c-1.93-.5-3.86-1-5.8-1.46C48.05,14.54,47.77,14.51,47.74,14.18Z" style="fill:#f8fcfe"/><path d="M62.49,76.61v0h0a.51.51,0,0,1-.49.1,2.32,2.32,0,0,0-.4-.13,2.75,2.75,0,0,0-.68-.11h0a3.5,3.5,0,0,0-2.14.74c-.52.38-.4,1-.48,1.5h0s0,0,0,0-.12.18-.25.15-.27-.2-.26-.28c.12-1.1-.64-1-1.33-1a5,5,0,0,1-1.76-.16.19.19,0,0,1,0-.13.15.15,0,0,1,.07-.11.94.94,0,0,1,.42-.13A6.25,6.25,0,0,0,56,77l.14,0a4.16,4.16,0,0,0,2.57-.77A3,3,0,0,1,61.91,76C62.2,76.11,62.51,76.22,62.49,76.61Z" style="fill:#f8fcfe"/><path d="M33.1,21.66a1.27,1.27,0,0,0-.08.55,19.63,19.63,0,0,0-1,3.53,8.59,8.59,0,0,1-.65,2,.68.68,0,0,1-.12-.12.6.6,0,0,1-.11-.26h0a.85.85,0,0,1,0-.17,1,1,0,0,0,0-.17,21.28,21.28,0,0,1,.76-2.95A40.61,40.61,0,0,1,33,19.43a2.67,2.67,0,0,1,.44-1l.09-.05h0a.24.24,0,0,1,.24.05h0C33.94,19.6,33.31,20.58,33.1,21.66Z" style="fill:#f8fcfe"/><path d="M78.1,66.2A12,12,0,0,1,76.36,69a.4.4,0,0,1-.35-.17.13.13,0,0,1,0-.06c0-.64.51-1.07.75-1.61a6.72,6.72,0,0,0,.64-1.42,1.63,1.63,0,0,0-.08-1l0,0a1,1,0,0,0-.28-.36,1.21,1.21,0,0,0-.9-.34c-.21,0-.38-.11-.38-.34s0-.34.28-.28a2.92,2.92,0,0,1,1,.15C78.29,64.1,78.58,64.85,78.1,66.2Z" style="fill:#f8fcfe"/><path d="M29.47,26.8c0,.05,0,.07,0,.07l-.06,0s0,0,0,0a.2.2,0,0,1-.11,0c-.08,0-.14-.11-.2-.19L27.9,19.3a2.65,2.65,0,0,1,.17-1v0a.07.07,0,0,1,0-.06.12.12,0,0,1,0-.11s0,0,0,0a.09.09,0,0,1,.13.09c.18,1.2.37,2.39.55,3.59.31.48.13,1,.27,1.55a11.12,11.12,0,0,0,.37,3.35A.16.16,0,0,1,29.47,26.8Z" style="fill:#f8fcfe"/><path d="M28.09,18.1s0,0,0,.08,0,0,0,0a.07.07,0,0,0,0,.06h0c-.31.35-.33,0-.35-.19a14.14,14.14,0,0,1-.17-1.71c0-.74-.5-.65-1-.62s-.86.23-.75.81a24.46,24.46,0,0,0,.43,2.83c.1.29,0,.49-.31.51a12.93,12.93,0,0,0-.52-3c-.19-.9,0-1.36.72-1.55,1.09-.28,1.52-.06,1.78.91A2.73,2.73,0,0,1,28.09,18.1Z" style="fill:#f8fcfe"/><path d="M56.18,77.13c-.47.36-1,0-1.52.2h0a2.06,2.06,0,0,1-1.44-.19,4.83,4.83,0,0,1-3.35-1.65,1.22,1.22,0,0,1-.28-1.27c.15-.33.27-.68.68-.78h0a.34.34,0,0,1,.25.24.68.68,0,0,1,0,.15V74a1.37,1.37,0,0,0,.71,1.65,9.18,9.18,0,0,0,3.93,1.26A2,2,0,0,1,56,77,.83.83,0,0,1,56.18,77.13Z" style="fill:#f8fcfe"/><path d="M64,76.81a1.72,1.72,0,0,1-.87.85h0c-.18,0-.26-.16-.35-.28a.74.74,0,0,0-.13-.12h0a2.43,2.43,0,0,0-1.74.1,1.43,1.43,0,0,0-.58,2.47,1.12,1.12,0,0,1,.24.32.13.13,0,0,1,0,.09h0a.3.3,0,0,1-.19.15,3.71,3.71,0,0,1-1.69-.79,1.35,1.35,0,0,1,.25-.28l.05,0a1.06,1.06,0,0,0,0-.56A2.15,2.15,0,0,1,60.9,76.5h0a2.54,2.54,0,0,1,1,.11h.56c.4-.2.86-.08,1.28-.19l0,0a0,0,0,0,1,0,0,.53.53,0,0,1,.17.31A0,0,0,0,1,64,76.81Z" style="fill:#f8fcfe"/><path d="M77.33,64.74l0,0s0,0,0,0c-.23.09-.41-.07-.6-.14l-.11,0H76.5a9.89,9.89,0,0,0-1.88-.17l-.28,0c-.29-.63-1-.47-1.47-.81A6.06,6.06,0,0,1,76,63.39c-.11.4-.1.46.13.4a.91.91,0,0,1,1,.47C77.24,64.42,77.45,64.53,77.33,64.74Z" style="fill:#f8fcfe"/><path d="M34.62,16c-.32.8-.52,1.65-.78,2.48h-.27a.09.09,0,0,1,0-.05,4.89,4.89,0,0,1,.23-1.94c.06-.38.35-.8-.19-1.07a.79.79,0,0,0-1.11.36.2.2,0,0,1-.1.08h0a.32.32,0,0,1-.27-.22s0,0,0,0a0,0,0,0,0,0,0s0-.07,0-.1a.78.78,0,0,1,.16-.51c.33-.8,1.05-.57,1.52-.38S35,15.05,34.62,16Z" style="fill:#f8fcfe"/><path d="M73.86,44.74A5.3,5.3,0,0,1,71.3,45a7.24,7.24,0,0,1-2.87-.79l-.32-.06a1.32,1.32,0,0,1,.29-.19,13.07,13.07,0,0,0,3.46,1A5.19,5.19,0,0,0,73.86,44.74Z" style="fill:#f8fcfe"/><path d="M31.62,19.94c-.17,1.54-.66,3-.9,4.52a.39.39,0,0,1-.25.31s0,0-.07,0a.41.41,0,0,1-.24-.24h0a.47.47,0,0,1-.05-.1s0,0,0,0a3.23,3.23,0,0,1,.14-1.11l.63-2.64c.12-.5.25-1,.37-1.49a.4.4,0,0,1,.34.36s0,0,0,0,0,.29,0,.42A0,0,0,0,1,31.62,19.94Z" style="fill:#f8fcfe"/><path d="M30.79,28.12a0,0,0,0,1,0,0h0a.35.35,0,0,1-.2.26h-.07a.45.45,0,0,1-.23,0l-.2-.07a.8.8,0,0,0-.21,0,4,4,0,0,1-.5-.07c-.18-.06-.35-.12-.37-.29a.46.46,0,0,1,.05-.21l.06-.33a.39.39,0,0,0,.16,0c.17-.07,0-.35.12-.45v0l0-.24a4,4,0,0,0,.49-1.91l0,0c.06-.1,0-.3.16-.32a.37.37,0,0,1,.13,0,.39.39,0,0,1,.16.33v0a1,1,0,0,1,0,1.08,1.77,1.77,0,0,0,.37,2.26h0Z" style="fill:#f8fcfe"/><path d="M32.55,16.41a22.9,22.9,0,0,1-.79,3.27.36.36,0,0,1-.15.23.4.4,0,0,1-.18.1c-.1-.29.07-.63-.19-.89.16-.76.33-1.53.49-2.29.31-.34.07-.88.34-1.24a.53.53,0,0,1,.13-.13c.06.12.11.23.16.35l0,0A.58.58,0,0,1,32.55,16.41Z" style="fill:#f8fcfe"/><path d="M62.85,77.13l.26.49a.38.38,0,0,1,.11.37,1.65,1.65,0,0,0,.56,1.68.56.56,0,0,1,.23.5c-.1.2-.27.18-.44.14h-.08c-.25.05-.38-.15-.54-.28a2,2,0,0,1-.49-2.56C62.55,77.31,62.63,77.14,62.85,77.13Z" style="fill:#f8fcfe"/><path d="M27.44,25.8h0a.18.18,0,0,1-.16,0,.16.16,0,0,1-.13,0,0,0,0,0,1,0,0h0a5.14,5.14,0,0,1-.34-1.69l-.3-1.81a.23.23,0,0,1,.16-.08.26.26,0,0,1,.15.07A15.85,15.85,0,0,1,27.44,25.8Z" style="fill:#f8fcfe"/><path d="M74.53,71c.38-.07.45-.45.67-.67-.07,1.42-.38,2.73-1.77,3.47a.4.4,0,0,1-.41-.14,2.35,2.35,0,0,1,.67-.8A2.73,2.73,0,0,0,74.53,71Z" style="fill:#f8fcfe"/><path d="M70.54,78.59l.2.21-.68.3a3.34,3.34,0,0,0-1.77.12c-.62-.3-1.38-.47-1.33-1.41.12-.29.31-.23.52-.1a2.74,2.74,0,0,0,2.83.79A.46.46,0,0,1,70.54,78.59Z" style="fill:#f8fcfe"/><path d="M68.29,79.11a2.14,2.14,0,0,1,1.77,0A2.59,2.59,0,0,0,68,80a1.58,1.58,0,0,1-.87.35A.33.33,0,0,1,67,80,3,3,0,0,1,68.29,79.11Z" style="fill:#f8fcfe"/><path d="M67.11,80l0,.36a.89.89,0,0,1-.83.27,5.22,5.22,0,0,0-2,0l-.72-.27c.13-.06.32,0,.39-.22C65,80,66.06,80,67.11,80Z" style="fill:#f8fcfe"/><path d="M26.73,22.25h-.31c-.05-.17-.1-.34-.14-.5,0-.56-.51-1.14.1-1.71C26.5,20.8,26.61,21.53,26.73,22.25Z" style="fill:#f8fcfe"/><path d="M63.13,79.93l.36.39c-.21.13-.4.34-.7.28a5.88,5.88,0,0,0-1.51-.09c-.19,0-.46.11-.5-.23.41-.38.92-.2,1.39-.25A4.47,4.47,0,0,0,63.13,79.93Z" style="fill:#f8fcfe"/><path d="M46.57,13.48A10.62,10.62,0,0,1,44.13,13,4.89,4.89,0,0,1,46.57,13.48Z" style="fill:#f8fcfe"/><path d="M60.78,80.29a2.72,2.72,0,0,0,1.35.17c.23,0,.49-.14.66.14a4.13,4.13,0,0,1-2.48-.19l.17-.15A.19.19,0,0,1,60.78,80.29Z" style="fill:#f8fcfe"/><path d="M26.72,24.08l.37,1.65a.21.21,0,0,1,0,.34A3.13,3.13,0,0,1,26.72,24.08Z" style="fill:#f8fcfe"/><path d="M27.48,27.17h0l-.05,0h0c-.15.09-.22,0-.29-.19l-.06-.95c0-.11,0-.2,0-.3v0l.15,0,.18,0c0,.08,0,.17,0,.25C27.52,26.42,27.43,26.8,27.48,27.17Z" style="fill:#f8fcfe"/><path d="M32.2,15.46c-.37.38,0,1-.47,1.37.2-.61-.1-1.34.49-1.84Z" style="fill:#f8fcfe"/><path d="M59,79.45c-.08.14-.23.15-.37.17a1.06,1.06,0,0,1-.61-.68l.17-.21A1,1,0,0,1,59,79.45Z" style="fill:#f8fcfe"/><path d="M64.29,80.58a2.73,2.73,0,0,1,2,0A6.85,6.85,0,0,1,64.29,80.58Z" style="fill:#f8fcfe"/><path d="M27.11,27l.3.2a1.19,1.19,0,0,1,.22.79c0,.23,0,.47-.31.56-.28-.35-.13-.83-.37-1.2v-.16Z" style="fill:#f8fcfe"/><path d="M30.24,24.41l-.33.34a2.27,2.27,0,0,1,.33-1.5Z" style="fill:#f8fcfe"/><path d="M27.1,29.69l-.08,0h-.08c.37-.77,0-1.55,0-2.33.45.28.21.77.35,1.15a1.33,1.33,0,0,1,.22.64.65.65,0,0,1,0,.24C27.45,29.6,27.36,29.77,27.1,29.69Z" style="fill:#f8fcfe"/><path d="M74.53,42.75a1.79,1.79,0,0,1-.42.34c-.14,0-.24,0-.35-.28h0l-.06-.13v0a3.05,3.05,0,0,1-.15-.35c-.81-2.48-2.64-4.25-4.28-6.16a47.62,47.62,0,0,0-4-4c-.87-.79-1.78-1.55-2.66-2.33S60.84,28.46,60,27.68l-.1-.11-.08-.07A31,31,0,0,0,56.58,25a1.05,1.05,0,0,1-.36-.3h0a.16.16,0,0,1,0-.07,72.23,72.23,0,0,0-11.55-7.29,1.14,1.14,0,0,1-.26,0h0a7.83,7.83,0,0,1-2.43-1.05,12,12,0,0,0-3.86-1c-.57,0-1,.27-1.56.32h0c-.27-.44-.35-.7-.17-1h0a.19.19,0,0,1,.06-.07l.27-.24,0,0a0,0,0,0,1,0,0h0a4.1,4.1,0,0,1,.4-.25h0l.1-.06.13,0h.07l.27,0,.11,0h0a5.52,5.52,0,0,1,1.35,0,6.7,6.7,0,0,1,1.16.26h0a7.13,7.13,0,0,1,1.13.44c.5.23,1,.41,1.53.59l.24.12.15.07c1.65.79,3.27,1.63,4.85,2.57,1.79,1.07,3.54,2.2,5.28,3.35s3.61,2.4,5.3,3.73c2.52,2,5,4,7.36,6.23a49.88,49.88,0,0,1,4.59,4.72,23.32,23.32,0,0,1,2.71,3.61h0l.09.16c0,.08.1.16.14.24a4.36,4.36,0,0,1,.62,1.49.66.66,0,0,1,.06-.48s0,0,0,0a.53.53,0,0,1,.15-.19A2.6,2.6,0,0,1,74.53,42.75Z" style="fill:#f8fcfe"/><path d="M44.63,17.28a.39.39,0,0,0-.06-.11c-.22-.35-.68-.12-1-.33a11.87,11.87,0,0,0-4.36-1.73c-.93-.18-1.91-.45-2.71.38l0,0a.66.66,0,0,0-.15.66,7.08,7.08,0,0,0,.95,2.43c1.08,1.45,2.23,2.84,3.41,4.21a2.12,2.12,0,0,0,.91.74l.19,0c-.11-.41.38-.79.24-1.06-.43-.82-.14-1.67-.24-2.49a1.41,1.41,0,0,1,.47-1.16C42.92,18.13,44,18,44.63,17.28ZM41.55,20.4a13.18,13.18,0,0,1,.07,3,35.21,35.21,0,0,1-3.21-3.69,6.62,6.62,0,0,1-1.9-4.21c.53,0,1-.37,1.56-.32a12,12,0,0,1,3.86,1,7.83,7.83,0,0,0,2.43,1.05h0c-.5.27-1,.56-1.48.85A2.44,2.44,0,0,0,41.55,20.4Z" style="fill:#f8fcfe"/><path d="M42.1,24.25l-.35-.31,0,0a22,22,0,0,1-2.55-2.36A17.88,17.88,0,0,1,36,16.82c-.45-1.11-.52-2.07.55-2.85a1.83,1.83,0,0,0,.24-.31h0l.36,0a.23.23,0,0,1,0,.16v0a.59.59,0,0,1,0,.13c-.4.42-1.12.69-.67,1.49v0a6.62,6.62,0,0,0,1.9,4.21,35.21,35.21,0,0,0,3.21,3.69l.18.17C41.79,23.87,42.14,24.12,42.1,24.25Z" style="fill:#f8fcfe"/><path d="M49.88,23.44c.28-.08.6.08.84-.17a12.41,12.41,0,0,1,3.71,1.06,4,4,0,0,0,1.21.43,3.16,3.16,0,0,1,2.14,1.4c-.05.25-.24.34-.43.23a8.46,8.46,0,0,0-3.47-1.23,7.9,7.9,0,0,0-3.67-1.43C50,23.72,49.89,23.65,49.88,23.44Z" style="fill:#f8fcfe"/><path d="M57.7,26.15c-.55-.67-1.4-.89-2.05-1.39.18-.06.4,0,.53-.19a15.86,15.86,0,0,1,3.92,3c-.45-.1-.25.39-.46.52s-.46-.27-.58-.49C58.73,27,58.05,26.72,57.7,26.15Z" style="fill:#f8fcfe"/><path d="M42.82,25.91a.31.31,0,0,1,0,.13c-.11.41-.52.7-.5,1.17a.53.53,0,0,1-.2-.1l0-.11h0a.82.82,0,0,1,0-.22.36.36,0,0,0,0-.23.6.6,0,0,0,.18-.5.53.53,0,0,0-.06-.14Z" style="fill:#f8fcfe"/><path d="M56.45,18.58a.34.34,0,0,0-.06.12.38.38,0,0,0,0,.1,2.85,2.85,0,0,0-1.12-.37,3.69,3.69,0,0,0-.58,0h-.39l.2,0s0,0,0-.06a0,0,0,0,0,0,0c.06-.13,0-.24-.1-.36l0,0a.17.17,0,0,0-.06-.06,1.78,1.78,0,0,0-.58-.3l-.16-.06a1.24,1.24,0,0,1-.37-.24.38.38,0,0,0-.13-.09,1.66,1.66,0,0,0-.71-.31,3.62,3.62,0,0,0-1-.08.64.64,0,0,1,0,.22,2.86,2.86,0,0,1,1.86.49,3.52,3.52,0,0,0,1.11.52c0,.1.08.2.13.3a9.81,9.81,0,0,0-3.92.42c1.53-.12,3.07-.08,4.6-.08a1.22,1.22,0,0,1,.93.33A9.82,9.82,0,0,0,58,20C57.64,19.22,56.87,19.2,56.45,18.58Zm-3.73-.12c-.25,0-.5,0-.72,0,.56,0,1.17.06,1.79,0C53.44,18.49,53.08,18.44,52.72,18.46ZM51,16.36a2.89,2.89,0,0,0-1.22-.68l-.14,0-.11-.05-.22-.1h0l-.25-.05H48.9l-.16.07.17,0,.82.32,1.16.51a.29.29,0,0,1,.15.09A.17.17,0,0,0,51,16.36Z" style="fill:#f8fcfe"/><path d="M48.28,15.43h0c-.26,0-.52-.07-.77-.13s-.58,0-.53-.32.37-.18.59-.2h.16a1.43,1.43,0,0,0-1.13-.28h-.26a.11.11,0,0,0,.07,0l0,0a.61.61,0,0,1,.18-.09l.42,0a.68.68,0,0,1,.21,0,.71.71,0,0,1,.54.37.2.2,0,0,1,0,.09v0c-.07.11-.22.13-.28.23C47.74,15.2,48.15,15,48.28,15.43Z" style="fill:#f8fcfe"/><path d="M70.79,35.91l-.08.08a15.38,15.38,0,0,1-1.93-1.94c-1.13-1.22-2.34-2.35-3.56-3.47-1.52-1.38-3.06-2.75-4.66-4s-3.46-2.62-5.23-3.87c-2-1.39-4-2.8-6-4s-4.12-2.21-6.19-3.3a.59.59,0,0,1,.17-.1l.15.07c1.65.79,3.27,1.63,4.85,2.57,1.79,1.07,3.54,2.2,5.28,3.35s3.61,2.4,5.3,3.73c2.52,2,5,4,7.36,6.23A49.88,49.88,0,0,1,70.79,35.91Z" style="fill:#f8fcfe"/><path d="M65.77,23.6a.37.37,0,0,1,0,.33s0,0-.06-.06h0l-.15-.17a9.48,9.48,0,0,1-.79-1h0c-.07,0-.14,0-.22-.13a10.41,10.41,0,0,1-1.66-2.14,1.56,1.56,0,0,0-.73-.64c-.77-.42-1.29-1.16-2.22-1.41-.41-.11-.57.3-.86.12.23.4-.09.32-.29.33a7.57,7.57,0,0,1-2.37-.23.2.2,0,0,1,.08-.08c.24-.15.65.09,1,.07.49,0,1,.12,1.48-.1a.38.38,0,0,0,.13-.06,1,1,0,0,1,1-.27h0c.18.1.37.19.55.27h0l.06,0,.13.08a8.81,8.81,0,0,1,3.08,3,2.92,2.92,0,0,0,.6.76h0a2,2,0,0,0,.39.26Z" style="fill:#f8fcfe"/><path d="M66.6,25h0s0,.07-.13.12h0s0,0,0,0l0-.09a.14.14,0,0,0,.08-.16l-.06,0a.85.85,0,0,1-.14-.19.76.76,0,0,0-.09-.18h0a2.53,2.53,0,0,0-.13-.22.57.57,0,0,1,.33.3.1.1,0,0,1,0,.11C66.49,24.79,66.63,24.89,66.6,25Z" style="fill:#f8fcfe"/><path d="M67.18,26.77c-.14-.28-.3-.56-.44-.84A4.51,4.51,0,0,1,67.18,26.77Z" style="fill:#f8fcfe"/><path d="M59.65,28c0-.3-.07-.67.45-.45a39.31,39.31,0,0,1,3.48,2.82c1.57,1.43,3.2,2.79,4.66,4.32a38,38,0,0,1,5,6.12,7,7,0,0,1,.52,1.46c.1,1.33-.1,1.54-1.42,1.55a9.35,9.35,0,0,1-3.41-.8,55.89,55.89,0,0,1-5.21-2.42c-.18-.09-.5-.44-.54.14-.34,0-.58-.2-.87-.31s0-.41,0-.61a4.13,4.13,0,0,0,.21-2,1.24,1.24,0,0,0-1.84-1.07c-.46.16-.84.56-1.37.48A1,1,0,0,1,58.94,36a1.75,1.75,0,0,1,.37-.63,2.88,2.88,0,0,0,.84-2.73,5.39,5.39,0,0,1,.24-1.75A2.61,2.61,0,0,0,60.06,29,2.87,2.87,0,0,1,59.65,28Z" style="fill:#f8fcfe;opacity:0.6"/><path d="M63.72,20.7a7.3,7.3,0,0,0-3.55-2.79A11.16,11.16,0,0,0,57.66,17a1.42,1.42,0,0,1-1.25-.12,4.71,4.71,0,0,0-.75-.25h0a2.74,2.74,0,0,0-1-.1,1.37,1.37,0,0,1-.28.05h0a4.09,4.09,0,0,1-.6-.07c-.39-.06-.74-.26-1.13-.32h0a.45.45,0,0,0-.51.17.17.17,0,0,0,0,.15.16.16,0,0,0,0,.11,1.29,1.29,0,0,0,.21.19l.09.05a5.64,5.64,0,0,0,.71.31,1.82,1.82,0,0,0,.62.06s0,0,0,0a.2.2,0,0,1,.13,0,8.37,8.37,0,0,1,1.66.3,3,3,0,0,0-.42,0h-.09a1.19,1.19,0,0,0-.33,0,.27.27,0,0,0-.23.26h0s0,.06,0,.09a1.12,1.12,0,0,0,.44.45,1.05,1.05,0,0,0,.35.13,1.11,1.11,0,0,0,.37,0l.89,0c.35,0,.71.05,1.06.1a2.23,2.23,0,0,0,1.52-.12c.29.18.45-.23.86-.12.93.25,1.45,1,2.22,1.41a1.56,1.56,0,0,1,.73.64,10.41,10.41,0,0,0,1.66,2.14c.08.11.15.16.22.13s.09-.05.14-.12C64.55,21.93,64.17,21.29,63.72,20.7Zm-7.81-3.21a4.12,4.12,0,0,1,1.39.32c-.53-.11-1-.25-1.53-.32Z" style="fill:#f8fcfe"/><path d="M74.56,40.74v1.53L74.47,42h0l0-.11h0A19.28,19.28,0,0,0,73.53,40l0-.43h0c-.23-2.16-1.46-4-2.32-5.87-.75-1.66-1.8-3.14-2.61-4.75a2.13,2.13,0,0,0-.58-.78c-.14-.09-.31-.18-.36-.33a4.78,4.78,0,0,0-.43-1,.05.05,0,0,0,0,0c-.14-.28-.3-.56-.44-.84h0a3.85,3.85,0,0,1-.29-.76l0-.09a.14.14,0,0,0,.08-.16c0-.08-.07-.16,0-.23.8.36.94,1.23,1.35,1.86a68.9,68.9,0,0,1,3.9,6.63,32.43,32.43,0,0,1,2.69,6.6C74.47,40.09,74.51,40.42,74.56,40.74Z" style="fill:#f8fcfe"/><path d="M57.66,17c0,.11,0,.18-.08.21s-.16.05-.31,0c-.86-.21-1.73-.38-2.6-.56a5.69,5.69,0,0,1-2-.48h0a7,7,0,0,0-.78-.23c-.22,0-.43-.11-.65-.17h0a1.9,1.9,0,0,0-.25,0,.66.66,0,0,0-.2,0,5.27,5.27,0,0,1-.79-.07l-.22-.08-.11,0-.24,0h0l-.25-.05H49a1.82,1.82,0,0,1-1.23-.59l0,0a1.43,1.43,0,0,0-1.13-.28h-.26c-.84,0-1.66-.25-2.5-.32-1-.09-2.07,0-3.11-.06l-.36,0h0c-.86-.05-1.73-.19-2.6-.22a.07.07,0,0,1-.06,0h0s0-.1,0-.15a19.5,19.5,0,0,1,2.74-.18c1.11,0,2.21.07,3.31.17a1.33,1.33,0,0,1,.74,0,14,14,0,0,1,1.72.29l1.56.21h0l6.18,1.59.19.05h0l.57.16C55.7,16.24,56.58,16.91,57.66,17Z" style="fill:#f8fcfe"/><path d="M63.16,40.75c-.1-.23-.57-.36-.32-.66s.48.06.71.18a33.91,33.91,0,0,0,8.16,3.39c1.47.33,1.93,0,2-1.38.2.26.05,1.1.79.47a1.72,1.72,0,0,1-1.67,1.19,10.59,10.59,0,0,1-5.43-1.25,27.89,27.89,0,0,1-3.71-1.85A1.64,1.64,0,0,0,63.16,40.75Z" style="fill:#f8fcfe"/><path d="M59.32,37.14a14.53,14.53,0,0,1,1.4-.62c1.19-.42,2,.14,2.13,1.42a5.51,5.51,0,0,1-.56,2.5l-.15.17a2.87,2.87,0,0,1-.79.8c-.31.12-.52.56-1,.3-.11-.54.21-.84.59-1.1a1.59,1.59,0,0,0,1.07-1.73c-.13-.36.13-.81-.26-1.1a1.71,1.71,0,0,0-2.19-.07.83.83,0,0,1-.46.17.3.3,0,0,1-.25-.35A.5.5,0,0,1,59.32,37.14Z" style="fill:#f8fcfe"/><path d="M66.43,43.23a.58.58,0,0,1-.23,0h0c-.93-.57-2-.91-2.94-1.45a3.42,3.42,0,0,1-1.07-.74.56.56,0,0,0,0-.08c-.34.1-.54.43-.85.58h0c-.26.2-.6.33-.68.71h0a.51.51,0,0,1,.09-.5,5.28,5.28,0,0,1,.55-.37h0c.26,0,.39-.39.63-.48a.32.32,0,0,1,.17,0l.18.06C63.54,41.92,65.14,42.3,66.43,43.23Z" style="fill:#f8fcfe"/><path d="M66.41,24.57l-.2-.08a2.53,2.53,0,0,0-.13-.22h0a3.92,3.92,0,0,0-.25-.32h0s0,0-.06-.06h0a.65.65,0,0,0,0-.26A1.89,1.89,0,0,1,66.41,24.57Z" style="fill:#f8fcfe"/><path d="M62.27,41a.5.5,0,0,0-.13,0c-.34.1-.54.43-.85.58h0a.49.49,0,0,1,0-.11v-.05a.28.28,0,0,1,0-.15,2.91,2.91,0,0,1,.75-.61l.1,0C62.18,40.73,62.22,40.84,62.27,41Z" style="fill:#f8fcfe"/><path d="M43.46,60.07c.43.06.44.32.31.66s-.32.62-.78.5a16.19,16.19,0,0,0-2.49-.52c-.4,0-.44-.34-.2-.66-.49.33-.24.68.1.79a16.47,16.47,0,0,0,2.88.56c.42.06.6-.34.65-.71S44,60,43.46,60.07Zm0,0c.43.06.44.32.31.66s-.32.62-.78.5a16.19,16.19,0,0,0-2.49-.52c-.4,0-.44-.34-.2-.66-.49.33-.24.68.1.79a16.47,16.47,0,0,0,2.88.56c.42.06.6-.34.65-.71S44,60,43.46,60.07Zm0,0c.43.06.44.32.31.66s-.32.62-.78.5a16.19,16.19,0,0,0-2.49-.52c-.4,0-.44-.34-.2-.66-.49.33-.24.68.1.79a16.47,16.47,0,0,0,2.88.56c.42.06.6-.34.65-.71S44,60,43.46,60.07Zm0,0c.43.06.44.32.31.66s-.32.62-.78.5a16.19,16.19,0,0,0-2.49-.52c-.4,0-.44-.34-.2-.66-.49.33-.24.68.1.79a16.47,16.47,0,0,0,2.88.56c.42.06.6-.34.65-.71S44,60,43.46,60.07Zm0,0c.43.06.44.32.31.66s-.32.62-.78.5a16.19,16.19,0,0,0-2.49-.52c-.4,0-.44-.34-.2-.66-.49.33-.24.68.1.79a16.47,16.47,0,0,0,2.88.56c.42.06.6-.34.65-.71S44,60,43.46,60.07Zm0,0c.43.06.44.32.31.66s-.32.62-.78.5a16.19,16.19,0,0,0-2.49-.52c-.4,0-.44-.34-.2-.66-.49.33-.24.68.1.79a16.47,16.47,0,0,0,2.88.56c.42.06.6-.34.65-.71S44,60,43.46,60.07Zm0,0c.43.06.44.32.31.66s-.32.62-.78.5a16.19,16.19,0,0,0-2.49-.52c-.4,0-.44-.34-.2-.66-.49.33-.24.68.1.79a16.47,16.47,0,0,0,2.88.56c.42.06.6-.34.65-.71S44,60,43.46,60.07Zm0,0c.43.06.44.32.31.66s-.32.62-.78.5a16.19,16.19,0,0,0-2.49-.52c-.4,0-.44-.34-.2-.66-.49.33-.24.68.1.79a16.47,16.47,0,0,0,2.88.56c.42.06.6-.34.65-.71S44,60,43.46,60.07Zm0,0c.43.06.44.32.31.66s-.32.62-.78.5a16.19,16.19,0,0,0-2.49-.52c-.4,0-.44-.34-.2-.66-.49.33-.24.68.1.79a16.47,16.47,0,0,0,2.88.56c.42.06.6-.34.65-.71S44,60,43.46,60.07Zm0,0c.43.06.44.32.31.66s-.32.62-.78.5a16.19,16.19,0,0,0-2.49-.52c-.4,0-.44-.34-.2-.66-.49.33-.24.68.1.79a16.47,16.47,0,0,0,2.88.56c.42.06.6-.34.65-.71S44,60,43.46,60.07Zm0,0c.43.06.44.32.31.66s-.32.62-.78.5a16.19,16.19,0,0,0-2.49-.52c-.4,0-.44-.34-.2-.66-.49.33-.24.68.1.79a16.47,16.47,0,0,0,2.88.56c.42.06.6-.34.65-.71S44,60,43.46,60.07Zm0,0c.43.06.44.32.31.66s-.32.62-.78.5a16.19,16.19,0,0,0-2.49-.52c-.4,0-.44-.34-.2-.66-.49.33-.24.68.1.79a16.47,16.47,0,0,0,2.88.56c.42.06.6-.34.65-.71S44,60,43.46,60.07Zm0,0c.43.06.44.32.31.66s-.32.62-.78.5a16.19,16.19,0,0,0-2.49-.52c-.4,0-.44-.34-.2-.66-.49.33-.24.68.1.79a16.47,16.47,0,0,0,2.88.56c.42.06.6-.34.65-.71S44,60,43.46,60.07Zm0,0c.43.06.44.32.31.66s-.32.62-.78.5a16.19,16.19,0,0,0-2.49-.52c-.4,0-.44-.34-.2-.66-.49.33-.24.68.1.79a16.47,16.47,0,0,0,2.88.56c.42.06.6-.34.65-.71S44,60,43.46,60.07Zm0,0c.43.06.44.32.31.66s-.32.62-.78.5a16.19,16.19,0,0,0-2.49-.52c-.4,0-.44-.34-.2-.66-.49.33-.24.68.1.79a16.47,16.47,0,0,0,2.88.56c.42.06.6-.34.65-.71S44,60,43.46,60.07Zm0,0c.43.06.44.32.31.66s-.32.62-.78.5a16.19,16.19,0,0,0-2.49-.52c-.4,0-.44-.34-.2-.66-.49.33-.24.68.1.79a16.47,16.47,0,0,0,2.88.56c.42.06.6-.34.65-.71S44,60,43.46,60.07ZM64.3,61.3c-.37-.51-.78-1-1.16-1.48-.83-1.08-1.58-2.22-2.48-3.23A39.26,39.26,0,0,0,57,52.88a1.2,1.2,0,0,1-.46-1.08,9,9,0,0,0,0-1.56c0-.44.48-.9.11-1.26s-.9,0-1.35.06a19.22,19.22,0,0,0-4.56.8.37.37,0,0,0,.31.1h.11a12.55,12.55,0,0,0-4.9,2.27c-.38.3-.64.74-1,1a2.13,2.13,0,0,1-.44.26c-.29-.35,0-.61.15-.88s.41-.58.59-.88c.25-.46-.18-1.56-.63-1.53-1.64.08-2.73-1.05-4-1.7-.23-.11,0-.35-.06-.52a.52.52,0,0,0-.21,0h-.09a1.36,1.36,0,0,1-.45,0,6.64,6.64,0,0,1-.94-.27c-.27-.09-.53-.21-.79-.32h0a6.28,6.28,0,0,0-.83-.29h0a3.09,3.09,0,0,0-.61-.08,1.11,1.11,0,0,1-1.18-.92,1,1,0,0,0-1-.86,14.74,14.74,0,0,0-6.61.87c-.61.27-.68.6-.23,1.19l.09-.06c-.24-.29-.45-.71,0-.84s1-.47,1.58-.62a20.62,20.62,0,0,1,5-.34c.5,0,.8.07.92.67s.3,1.14,1.09,1.13a7.23,7.23,0,0,1,2.68.76c.37.13.9.63,1.39.16,0,.2,0,.4.19.52,1.16.72,2.21,1.67,3.67,1.75.53,0,.72.31.9.77s-.21.74-.37,1.08-.79.79-.2,1.33c0,.11-.09.24,0,.31s.17,0,.24-.09c1.7-2.12,4.06-3.13,6.81-3.94h-.38c1.5-.37,3-.47,4.57-.69.38,0,.51.09.44.46a17.09,17.09,0,0,0-.1,1.89A2,2,0,0,0,57,53.24a51.45,51.45,0,0,1,6.71,7.66c.84,1.08.81,1.1-.57,1.33l-.25,0c-.2.08-.47.14-.45.4a.28.28,0,0,0,.25.25,1.39,1.39,0,0,1-.68.25c-1.13-.06-2,.09-2,1.56-.81-.68-1.64-.73-1.61-.26,0,.8-.52,1.18-.73,1.76s-.4,1.13-1.24.86c-.12,0-.3.08-.45.13l-.21-.2c.15-.53.58-.28.89-.3s.56,0,.65-.35-.28-.37-.46-.49-.68-.34-1-.58-.59-.13-.71.24a1.18,1.18,0,0,1,.25,0,2.79,2.79,0,0,1,1.15.46c.14.06.32.16.29.35s-.24.17-.39.2c-.35.06-.8,0-.77.55,0,0,0,0,0,0s0,0,0,0h0a.34.34,0,0,0,.12.12,0,0,0,0,1,0,0l0,0h0c.92.16,1.65,0,1.93-1a.65.65,0,0,1,.33-.36.73.73,0,0,0,.35-.69c0-.86.17-1,1-.56.39.19.65.15.71-.3.13-.86.71-1,1.44-1A1.25,1.25,0,0,0,62.9,63c0-.05.07-.11.11-.17l-.44-.11c.39-.38.84-.24,1.25-.24a.93.93,0,0,0,.81-.48C64.85,61.59,64.45,61.49,64.3,61.3Zm-13-11.38c0-.09.06,0,0,0Zm3.38,16c-.56,1.12-.83,2.38-1.5,3.46-.06.09-.46.7.25.68h0c0-.13-.31-.15-.28-.2a35,35,0,0,0,2-4.55.43.43,0,0,0,0,.28h0c0-.17,0-.34-.07-.66A6.38,6.38,0,0,1,54.63,65.9ZM43.46,60.07c.43.06.44.32.31.66s-.32.62-.78.5a16.19,16.19,0,0,0-2.49-.52c-.4,0-.44-.34-.2-.66-.49.33-.24.68.1.79a16.47,16.47,0,0,0,2.88.56c.42.06.6-.34.65-.71S44,60,43.46,60.07Zm-.85,2.51c-.41.05-.75,0-.6-.58a.25.25,0,0,0-.13-.34.24.24,0,0,0-.33.16c-.07.79-.65.58-1.11.59a1.15,1.15,0,0,0-1.22,1.27c.07.66.65.57,1.1.55s.76.12.85.72c.12.86-.51.86-1.23,1.09h3l0-.1c-.08,0-.15-.06-.22,0-.65.07-1-.15-.92-.87s.62-.43,1-.35.44,0,.58-.16a1.88,1.88,0,0,0,.31-1.4C43.61,62.76,43.1,62.52,42.61,62.58Zm.67,1.13c-.12.54-.12.56-.84.53l-2-.31c-.44-.06-.6-.3-.55-.74s.34-.44.66-.41c.73.08,1.45.18,2.18.25C43.11,63.07,43.41,63.15,43.28,63.71ZM41.36,70.3l-.06,0c.62.55.42,1.3.5,2,.32-1,.25-1.4-.39-2Zm-3.93.28a7.12,7.12,0,0,1-.54-2.12c-.12-1.36-.52-2.65-.68-4a32.81,32.81,0,0,1-.08-6.72c0-.44.46-1-.1-1.41,0-.23-.1-.32-.29-.21.16.05.21.18.22.36v0a2.3,2.3,0,0,1,0,.26h0a5,5,0,0,1-.12,1.08v0c0,.2-.06.41-.08.61a40.54,40.54,0,0,0,1.36,12.11c.17.7.42,1.07,1,1.19l.14,0C37.77,71.47,37.81,71.46,37.43,70.58ZM28.34,47.35a19.41,19.41,0,0,1,.51,2.23,1.59,1.59,0,0,0,.67,1.16c1.85,1.37,3.68,2.76,5.52,4.11.48.35.75.67.6,1.25h.08c.38-.59.27-.91-.41-1.33C34,54,32.85,52.86,31.57,52c-.68-.47-1.31-1-2-1.45a.88.88,0,0,1-.49-.71,10.48,10.48,0,0,0-.64-2.75c-.06-.18,0-.52-.3-.47s-.18.38-.21.6a.47.47,0,0,1,.22-.1C28.23,47.09,28.3,47.15,28.34,47.35ZM43.46,60.07c.43.06.44.32.31.66s-.32.62-.78.5a16.19,16.19,0,0,0-2.49-.52c-.4,0-.44-.34-.2-.66-.49.33-.24.68.1.79a16.47,16.47,0,0,0,2.88.56c.42.06.6-.34.65-.71S44,60,43.46,60.07Zm0,0c.43.06.44.32.31.66s-.32.62-.78.5a16.19,16.19,0,0,0-2.49-.52c-.4,0-.44-.34-.2-.66-.49.33-.24.68.1.79a16.47,16.47,0,0,0,2.88.56c.42.06.6-.34.65-.71S44,60,43.46,60.07Zm0,0c.43.06.44.32.31.66s-.32.62-.78.5a16.19,16.19,0,0,0-2.49-.52c-.4,0-.44-.34-.2-.66-.49.33-.24.68.1.79a16.47,16.47,0,0,0,2.88.56c.42.06.6-.34.65-.71S44,60,43.46,60.07Zm0,0c.43.06.44.32.31.66s-.32.62-.78.5a16.19,16.19,0,0,0-2.49-.52c-.4,0-.44-.34-.2-.66-.49.33-.24.68.1.79a16.47,16.47,0,0,0,2.88.56c.42.06.6-.34.65-.71S44,60,43.46,60.07Zm0,0c.43.06.44.32.31.66s-.32.62-.78.5a16.19,16.19,0,0,0-2.49-.52c-.4,0-.44-.34-.2-.66-.49.33-.24.68.1.79a16.47,16.47,0,0,0,2.88.56c.42.06.6-.34.65-.71S44,60,43.46,60.07Zm0,0c.43.06.44.32.31.66s-.32.62-.78.5a16.19,16.19,0,0,0-2.49-.52c-.4,0-.44-.34-.2-.66-.49.33-.24.68.1.79a16.47,16.47,0,0,0,2.88.56c.42.06.6-.34.65-.71S44,60,43.46,60.07Zm0,0c.43.06.44.32.31.66s-.32.62-.78.5a16.19,16.19,0,0,0-2.49-.52c-.4,0-.44-.34-.2-.66-.49.33-.24.68.1.79a16.47,16.47,0,0,0,2.88.56c.42.06.6-.34.65-.71S44,60,43.46,60.07Zm0,0c.43.06.44.32.31.66s-.32.62-.78.5a16.19,16.19,0,0,0-2.49-.52c-.4,0-.44-.34-.2-.66-.49.33-.24.68.1.79a16.47,16.47,0,0,0,2.88.56c.42.06.6-.34.65-.71S44,60,43.46,60.07Zm0,0c.43.06.44.32.31.66s-.32.62-.78.5a16.19,16.19,0,0,0-2.49-.52c-.4,0-.44-.34-.2-.66-.49.33-.24.68.1.79a16.47,16.47,0,0,0,2.88.56c.42.06.6-.34.65-.71S44,60,43.46,60.07Zm0,0c.43.06.44.32.31.66s-.32.62-.78.5a16.19,16.19,0,0,0-2.49-.52c-.4,0-.44-.34-.2-.66-.49.33-.24.68.1.79a16.47,16.47,0,0,0,2.88.56c.42.06.6-.34.65-.71S44,60,43.46,60.07Zm0,0c.43.06.44.32.31.66s-.32.62-.78.5a16.19,16.19,0,0,0-2.49-.52c-.4,0-.44-.34-.2-.66-.49.33-.24.68.1.79a16.47,16.47,0,0,0,2.88.56c.42.06.6-.34.65-.71S44,60,43.46,60.07Zm0,0c.43.06.44.32.31.66s-.32.62-.78.5a16.19,16.19,0,0,0-2.49-.52c-.4,0-.44-.34-.2-.66-.49.33-.24.68.1.79a16.47,16.47,0,0,0,2.88.56c.42.06.6-.34.65-.71S44,60,43.46,60.07Zm0,0c.43.06.44.32.31.66s-.32.62-.78.5a16.19,16.19,0,0,0-2.49-.52c-.4,0-.44-.34-.2-.66-.49.33-.24.68.1.79a16.47,16.47,0,0,0,2.88.56c.42.06.6-.34.65-.71S44,60,43.46,60.07Zm0,0c.43.06.44.32.31.66s-.32.62-.78.5a16.19,16.19,0,0,0-2.49-.52c-.4,0-.44-.34-.2-.66-.49.33-.24.68.1.79a16.47,16.47,0,0,0,2.88.56c.42.06.6-.34.65-.71S44,60,43.46,60.07Z" style="fill:#f8fcfe"/><path d="M74.05,64.85c0-.21,0-.44-.34-.46a1.36,1.36,0,0,0-.44-.11.77.77,0,0,0-.46,0l0,0c-.91.59-1.11-.24-1.51-.68-.22-.24-.24-.6-.45-.86a.38.38,0,0,0-.1-.12,13.11,13.11,0,0,1-1.38.2c-.27,0-.62.1-.79-.27s-.64-.48-1.11-.46c-.28,0-.58.1-.87.11h-.11a.76.76,0,0,1-.3-.05h-.06a1.07,1.07,0,0,1-.35-.27.67.67,0,0,0-.72.3c-.28.53-.71.52-1.18.5-.28,0-.55,0-.82,0l-.27.14h0a1.39,1.39,0,0,1-.68.25c-1.13-.06-2,.09-2,1.56-.81-.68-1.64-.73-1.61-.26,0,.8-.52,1.18-.73,1.76s-.4,1.13-1.24.86c-.12,0-.3.08-.45.13a.24.24,0,0,0-.11.06c-.3.16-.26.55-.41.81l0,0,0,0,0,.06c-.09.2-.15.4-.25.58l0,0-.06.08L55,69c-.23.29-.7.32-.82.74,0,0,0,0,0,0a.68.68,0,0,0,0,.14,2.14,2.14,0,0,0,.08.75.38.38,0,0,1,0,.15.48.48,0,0,1-.07.24c-.12.23-.38.38-.56.58a.5.5,0,0,0-.08.12.16.16,0,0,0,0,.07.75.75,0,0,0,.17,1,.77.77,0,0,1,.24.8.83.83,0,0,0,.23,1,.81.81,0,0,0,.18.12l.18.09a1,1,0,0,0,.24,0c.22,0,.43,0,.64-.07h0l.52-.07a3.47,3.47,0,0,1,.45-.06,3.2,3.2,0,0,0,1.45-.38c.19-.15.59-.11.73-.26a.13.13,0,0,0,.05-.09.25.25,0,0,0,0-.09c0-.39-.55-.22-.85-.26h-.09c-.16,0-.36,0-.38-.24s.16-.27.31-.32A2.23,2.23,0,0,0,59,72c.11-.2.29-.07.42,0a4.12,4.12,0,0,0,2.39.81H62l.5,0a7.48,7.48,0,0,0,1.5-.37,6,6,0,0,0,2.46-1.21v-.08a.07.07,0,0,0,0,0c0-.23-.27-.28-.43-.39a.62.62,0,0,1-.29-.78c.1-.24.25-.45.53-.45s.41.29.59.49.08.61.34.75a.12.12,0,0,0,.1,0,.17.17,0,0,0,.1,0l.23,0a3.41,3.41,0,0,0,.63-.24h0a0,0,0,0,0,0,0,.58.58,0,0,0,.17-.18h0a.49.49,0,0,0,0-.11,15,15,0,0,1,.8-1.88.91.91,0,0,0-.25-1.11.87.87,0,0,0-1.14,0c-.17.11-.34.38-.55.12s-.4-.45-.29-.73a.53.53,0,0,1,.66-.22c1.12.4,2.19-.31,3.31-.15.3,0,.43,0,.56.32.26.72.87,1,1.33.57a18.21,18.21,0,0,0,1.31-1.67l0,0h0C74.42,65.26,74.18,65,74.05,64.85Zm0,.61A4.6,4.6,0,0,0,73,66.88c-.32.48-1,.4-1-.06-.13-1-.68-.83-1.36-.74-.36,0-.8-.14-1.13.06a1.51,1.51,0,0,1-1.4.1,1.2,1.2,0,0,0-1.3.22c-.41.41.26.49.3.79.12.8.44.85.9.19a.64.64,0,0,1,.82-.17c.27.1.54.37.41.63-.48,1-.53,2.18-1.63,2.78a.1.1,0,0,1-.13,0c-.33-.2-.28-.58-.41-.87-.31-.74-.89-.79-1.36-.15s-.26,1,.76,1.53a13.86,13.86,0,0,1-4,1.46c-1-.12-2.08-.07-2.89-.84-.42-.41-.7-.66-.83.18,0,.26-.29.38-.53.47s-.53.14-.78.25-.63.21-.53.52a.71.71,0,0,0,.82.47,1.37,1.37,0,0,1,.8,0c-.21.18-.53,0-.68.26a3.74,3.74,0,0,1-1.47.36l-1.24.23h0l-.42.08-.15,0a.45.45,0,0,0-.1-.13c-.66-.4-.18-.89-.19-1.37s-.92-.6-.57-1.31c.32-.33.89-.48.81-1.1-.05-.35-.09-.7-.14-1s.82-.1.83-.66a1.27,1.27,0,0,0,.35-.8c.28-.24.24-.64.44-.92h0c.92.16,1.65,0,1.93-1a.65.65,0,0,1,.33-.36.73.73,0,0,0,.35-.69c0-.86.17-1,1-.56.39.19.65.15.71-.3.13-.86.71-1,1.44-1A1.25,1.25,0,0,0,62.9,63H63a2.6,2.6,0,0,0,2.26-.59.84.84,0,0,1,.53-.17h0c.24.39.72.25,1.1.27s.88-.21,1.19.1a2.27,2.27,0,0,0,2.45.33l.13,0c0,1,1.1,1.43,1.34,2.52a1.28,1.28,0,0,1,1-.94,1.64,1.64,0,0,0,.56.1c.21.09.3.29.42.46a1.06,1.06,0,0,1,.15.15h0C74.19,65.26,74.22,65.38,74.1,65.46Z" style="fill:#f8fcfe"/><path d="M39.66,37.12A3,3,0,0,1,40.14,36l.09-.11a.36.36,0,0,1,0,.09c0,.06,0,.11-.05.16h0a2.32,2.32,0,0,1-.22.57,1.45,1.45,0,0,1-.34.45h0Z" style="fill:#f8fcfe"/><path d="M36.48,45.71a.12.12,0,0,0-.14,0l-.12,0a.25.25,0,0,0,0-.07.8.8,0,0,1,.19-.13l.14-.05A.41.41,0,0,1,36.48,45.71Z" style="fill:#f8fcfe"/><path d="M40.78,48h-.07l-.07,0a.18.18,0,0,1-.07.05.15.15,0,0,1-.14,0l-.4-.18c-.56-.23-1.15-.4-1.73-.59h0c-.28-.09-.56-.18-.84-.29h0a6.62,6.62,0,0,1-.66-.3c-.11-.09-.24-.16-.35-.24.12,0,.26,0,.39.06.61.51,1.43.43,2.11.74l1.55.65h.09A.51.51,0,0,1,40.78,48Z" style="fill:#f8fcfe"/><path d="M57.7,44.6a12.28,12.28,0,0,1-2.9,2.57,8.64,8.64,0,0,1-3.23,1.55c-.12,0-.13,0,0,.21l-.23.07c-1.1.35-2.21.66-3.3,1l-.2.09L47.76,50h0c0-.23-.16-.2-.35-.19-.83,0-1.67,0-2.51,0-.3,0-.61,0-.78-.31a5.9,5.9,0,0,0,2.8.06h0c.59-.11,1.19-.27,1.77-.43a18.07,18.07,0,0,0,6.64-3c.74-.58,1.43-1.23,2.15-1.85C57.65,44.35,57.72,44.42,57.7,44.6Z" style="fill:#f8fcfe"/><path d="M43,34.49a4.57,4.57,0,0,0-2.46,2.43A5.92,5.92,0,0,0,40.43,40c.28,1.43.89,2.82.68,4.55l-.27-.46A32,32,0,0,1,40.11,40,7.37,7.37,0,0,1,40,36.79a3,3,0,0,1,1.09-1.69c.36-.21.52-.67,1-.74S42.69,34.21,43,34.49Z" style="fill:#f8fcfe"/><path d="M51.76,49.84c-2.75.81-5.11,1.82-6.81,3.94-.07.09-.16.22-.24.09s0-.2,0-.31a.14.14,0,0,0,0-.06,8.46,8.46,0,0,1,5-3.41c.32-.1.64-.17,1-.25Z" style="fill:#f8fcfe"/><path d="M55.35,48.53c.06-.05.12-.16.18-.15,1.47,0,1.7-1.18,2.09-2.16a19.07,19.07,0,0,1,1.18-1.83c.31.43,0,.76-.15,1.13a17.8,17.8,0,0,0-.79,2.37.5.5,0,0,1-.4.45Z" style="fill:#f8fcfe"/><path d="M60,42.41c-.71,1.66-1.07,3.45-1.89,5.08a2.32,2.32,0,0,0-.1.88h0l-.51,0,.06-.19h0c.42-1.25.84-2.5,1.27-3.76.05-.4.42-.69.38-1.13a.16.16,0,0,0,0-.1c.07-.3-.22-.72.28-.88l.3,0C60,42.18,60,42.26,60,42.41Z" style="fill:#f8fcfe"/><path d="M41.32,35.15h0A3.43,3.43,0,0,0,40,37.41a5.41,5.41,0,0,0,.06,1.83,1.76,1.76,0,0,1,0,.72c-.4-.5-.26-1.1-.32-1.66,0-.39.19-.82-.15-1.17h0A3,3,0,0,1,40.14,36l.09-.11a3.75,3.75,0,0,1,1.08-1,0,0,0,0,0,0,0h0l0,0h0A.31.31,0,0,1,41.32,35.15Z" style="fill:#f8fcfe"/><path d="M52,49a3.21,3.21,0,0,1,1.52-.3C53.12,49.26,52.54,49,52,49Z" style="fill:#f8fcfe"/><path d="M31.2,28.83a1.06,1.06,0,0,0-.17.26c-.2.42-.14.94-.44,1.32-.11,0-.25,0-.35-.06h0a.18.18,0,0,1-.07-.11,1,1,0,0,1,.08-.54l0-.05a2.45,2.45,0,0,0,.09-.72v0a.09.09,0,0,0,0-.05.69.69,0,0,1,.15-.41h0c.08-.08.15-.16.23-.23h0a.15.15,0,0,1,0-.07h0a1.72,1.72,0,0,1,.36-.93l.11-.12a.4.4,0,0,1,.14.27,2.75,2.75,0,0,0,0,.41A2.78,2.78,0,0,1,31.2,28.83Z" style="fill:#f8fcfe"/><path d="M41.64,27.91h0v0Z" style="fill:#f8fcfe"/><path d="M41.65,27.9v0h0Z" style="fill:#f8fcfe"/><path d="M42.13,28.24h0c-.07.29-.22.4-.47.29l.46-.3Z" style="fill:#f8fcfe"/><path d="M42.12,27a.22.22,0,0,0,.17.21.53.53,0,0,1-.2-.1Z" style="fill:#f8fcfe"/><path d="M30.39,29.86l-.16.48h0s0,0,0,0l-.05,0a.68.68,0,0,1-.27,0c-.44,0-.79-.47-1.25-.39a1.75,1.75,0,0,1,1.06.49l.08.07a2,2,0,0,1,.17.23c.24.58.27,1.09-.38,1.43l-.13,0h-.13a.86.86,0,0,1-.48-.25.56.56,0,0,0-.3-.13.5.5,0,0,0-.28.08l-.09.05a1.3,1.3,0,0,1-.78,0l-.08,0c-.13-.08-.25-.16-.2-.35a.11.11,0,0,1,0-.05c.33-.36.79-.28,1.21-.36.15,0,.37-.05.4-.21s-.13-.35-.3-.43a6,6,0,0,1-.74-.29l-.07-.06-.06-.06a.85.85,0,0,1-.09-.64,1,1,0,0,0,0-.17V29.2a.49.49,0,0,1,.06-.17l.07-.09,0,0h0a.26.26,0,0,1,.3,0A.3.3,0,0,1,28,29c.17.16-.09.6.28.55s.59-.41.52-.85c-.31,0-.54.38-.86.2h0l-.07,0a.33.33,0,0,1,.09-.43l0,0,1.08-.64a.51.51,0,0,0,0,.13c.05.18.2.22.41.2a.89.89,0,0,1,.75.17,1.33,1.33,0,0,1,.05.19,2.09,2.09,0,0,1,.08.49A7.86,7.86,0,0,1,30.39,29.86Z" style="fill:#f8fcfe;opacity:0.6"/><path d="M27.94,28.35v0c0,.15,0,.32,0,.47v0h0l-.28.13-.07-.06a.49.49,0,0,1-.07-.47s0,0,0,0,0-.07,0-.1a.39.39,0,0,0-.07-.35c0-.26,0-.53,0-.79h0a1,1,0,0,1,0-.61,2.42,2.42,0,0,0,.05-.8c0,.08,0,.17,0,.25C27.62,26.81,27.78,27.58,27.94,28.35Z" style="fill:#f8fcfe"/><path d="M29.51,27.81c-.22,0-.25-.11-.28-.23s0-.17-.12-.2c0-.22,0-.44,0-.66a1.22,1.22,0,0,1,.19.12l.12.07a0,0,0,0,0,0,0A.92.92,0,0,1,29.51,27.81Z" style="fill:#f8fcfe"/><path d="M51,74.56h0a.62.62,0,0,1,0-.45.4.4,0,0,1-.2-.09c0,.31-.2.68.28.83A.29.29,0,0,1,51,74.56Zm0,0h0a.62.62,0,0,1,0-.45.4.4,0,0,1-.2-.09c0,.31-.2.68.28.83A.29.29,0,0,1,51,74.56Zm0,0h0a.62.62,0,0,1,0-.45.4.4,0,0,1-.2-.09c0,.31-.2.68.28.83A.29.29,0,0,1,51,74.56Zm0,0h0a.62.62,0,0,1,0-.45.4.4,0,0,1-.2-.09c0,.31-.2.68.28.83A.29.29,0,0,1,51,74.56Zm0,0h0a.62.62,0,0,1,0-.45.4.4,0,0,1-.2-.09c0,.31-.2.68.28.83A.29.29,0,0,1,51,74.56Zm0,0h0a.62.62,0,0,1,0-.45.4.4,0,0,1-.2-.09c0,.31-.2.68.28.83A.29.29,0,0,1,51,74.56Zm0,0h0a.62.62,0,0,1,0-.45.4.4,0,0,1-.2-.09c0,.31-.2.68.28.83A.29.29,0,0,1,51,74.56Zm0,0h0a.62.62,0,0,1,0-.45.4.4,0,0,1-.2-.09c0,.31-.2.68.28.83A.29.29,0,0,1,51,74.56Zm0,0h0a.62.62,0,0,1,0-.45.4.4,0,0,1-.2-.09c0,.31-.2.68.28.83A.29.29,0,0,1,51,74.56Zm0,0h0a.62.62,0,0,1,0-.45.4.4,0,0,1-.2-.09c0,.31-.2.68.28.83A.29.29,0,0,1,51,74.56Zm0,0h0a.62.62,0,0,1,0-.45.4.4,0,0,1-.2-.09c0,.31-.2.68.28.83A.29.29,0,0,1,51,74.56Zm0,0h0a.62.62,0,0,1,0-.45.4.4,0,0,1-.2-.09c0,.31-.2.68.28.83A.29.29,0,0,1,51,74.56Zm26.16-10.3c0,.16.18.28.14.45,0,0,0,0,0,0l0,0a6.62,6.62,0,0,1-2,2.43,30.84,30.84,0,0,1-4.47,2.61,57,57,0,0,1-11.07,4.23,23.7,23.7,0,0,1-7.13,1.21,2,2,0,0,1-1.37-.47l-.13-.1a.64.64,0,0,1-.1-.13h0a.62.62,0,0,1,0-.45.43.43,0,0,0,0,0s0,0,0-.06c.14-.38.53-.67.4-1.13h0l0-.07c-.62,0-.71.49-.85.9a1.48,1.48,0,0,1-.12.29,1.15,1.15,0,0,0,.3,1.53A6.25,6.25,0,0,0,53,76.68a9.66,9.66,0,0,0,2.17.41,7,7,0,0,0,1,0,3.28,3.28,0,0,0,2.61-.72,2.81,2.81,0,0,1,3.68.21h0c.45.16.91.28,1.3-.15h0a13.5,13.5,0,0,1,3.28-.76.8.8,0,0,0,.56-.31l0-.07a6.54,6.54,0,0,1,1.1-1.13h0c.17-.16.35-.31.52-.48l.05,0c.24-.12.49-.24.72-.37.57-.34,1.28,0,1.78-.39a7.86,7.86,0,0,0,1.62-1.44A34,34,0,0,1,76,68.86l0,0a15.8,15.8,0,0,0,1.44-2.65C77.71,65.51,77.94,64.78,77.17,64.26Zm.24,1.51a6.72,6.72,0,0,1-.64,1.42c-.24.54-.72,1-.75,1.61h-.08a1.56,1.56,0,0,0-.89.7c-.64.88-1.5,1.57-2.21,2.4a3,3,0,0,1-1.84,1c-.59.09-1.32.13-1.63.83-.8.09-1.16.79-1.59,1.31a1.36,1.36,0,0,1-1.23.57,4.77,4.77,0,0,0-2.73.9l0,0c-.42.11-.88,0-1.28.19,0-.39-.29-.5-.58-.66a3,3,0,0,0-3.18.25,4.16,4.16,0,0,1-2.57.77L56,77a2,2,0,0,0-.85-.11,9.18,9.18,0,0,1-3.93-1.26A1.37,1.37,0,0,1,50.53,74v-.16c.26-.34.35-.83.84-1L50.76,74c0,.31-.2.68.28.83a1.12,1.12,0,0,0,1,.59,15.77,15.77,0,0,0,3.69-.19c1.58-.32,3.12-.8,4.68-1.17a55.94,55.94,0,0,0,9.74-3.65,27.2,27.2,0,0,0,5.07-2.9c.94-.7,2-1.39,2.07-2.74l0,0A1.63,1.63,0,0,1,77.41,65.77ZM51,74.56h0a.62.62,0,0,1,0-.45.4.4,0,0,1-.2-.09c0,.31-.2.68.28.83A.29.29,0,0,1,51,74.56Zm0,0h0a.62.62,0,0,1,0-.45.4.4,0,0,1-.2-.09c0,.31-.2.68.28.83A.29.29,0,0,1,51,74.56Zm0,0h0a.62.62,0,0,1,0-.45.4.4,0,0,1-.2-.09c0,.31-.2.68.28.83A.29.29,0,0,1,51,74.56Zm0,0h0a.62.62,0,0,1,0-.45.4.4,0,0,1-.2-.09c0,.31-.2.68.28.83A.29.29,0,0,1,51,74.56Zm0,0h0a.62.62,0,0,1,0-.45.4.4,0,0,1-.2-.09c0,.31-.2.68.28.83A.29.29,0,0,1,51,74.56Zm0,0h0a.62.62,0,0,1,0-.45.4.4,0,0,1-.2-.09c0,.31-.2.68.28.83A.29.29,0,0,1,51,74.56Zm0,0h0a.62.62,0,0,1,0-.45.4.4,0,0,1-.2-.09c0,.31-.2.68.28.83A.29.29,0,0,1,51,74.56Zm0,0h0a.62.62,0,0,1,0-.45.4.4,0,0,1-.2-.09c0,.31-.2.68.28.83A.29.29,0,0,1,51,74.56Zm0,0h0a.62.62,0,0,1,0-.45.4.4,0,0,1-.2-.09c0,.31-.2.68.28.83A.29.29,0,0,1,51,74.56Zm0,0h0a.62.62,0,0,1,0-.45.4.4,0,0,1-.2-.09c0,.31-.2.68.28.83A.29.29,0,0,1,51,74.56Zm0,0h0a.62.62,0,0,1,0-.45.4.4,0,0,1-.2-.09c0,.31-.2.68.28.83A.29.29,0,0,1,51,74.56Z" style="fill:#f8fcfe"/><path d="M70.36,78.58a2.27,2.27,0,0,1-3-.78c-.44-.5-.23-1.06-.17-1.62.6-1.06,1.21-2.11,2.58-2.33a2.62,2.62,0,0,1,2-.11c1.16.52,1.29,2.05.31,3.24-.16.2-.44.32-.46.63-.67,0-1.09.59-1.91.71C70.18,78.31,70.38,78.29,70.36,78.58Z" style="fill:#f8fcfe;opacity:0.6"/><path d="M69.79,73.85l-.22.09a5.36,5.36,0,0,0-2.16,2.19c-.07.15-.12.31-.24.34a.09.09,0,0,1-.09,0l-.08,0-.09,0a3.5,3.5,0,0,0-2.32.24,1,1,0,0,1-.58.14H64a.3.3,0,0,1-.17-.32l0,0a4.77,4.77,0,0,1,2.73-.9A1.36,1.36,0,0,0,67.78,75c.43-.52.79-1.22,1.59-1.31h0C69.49,73.81,69.65,73.82,69.79,73.85Z" style="fill:#f8fcfe"/><path d="M74.53,71a1,1,0,0,1-.1,1.25A4,4,0,0,1,73,73.69c-.64-.26-.77-.55-.13-1A10.24,10.24,0,0,0,74.53,71Z" style="fill:#f8fcfe"/><path d="M70.36,78.58c-.27-.33-.75.07-1.1-.36a3.26,3.26,0,0,0,1.91-.79c.29-.25.36.08.52.18a2.67,2.67,0,0,1-1.15,1Z" style="fill:#f8fcfe"/><path d="M46.59,14.5h-.26c-.84,0-1.66-.25-2.5-.32-1-.09-2.07,0-3.11-.06l-.36,0a7.13,7.13,0,0,1,1.13.44c.5.23,1,.41,1.53.59l.24.12.15.07a1.73,1.73,0,0,0-.32,0,18.25,18.25,0,0,1-2.76-1A7.19,7.19,0,0,0,37.18,14l-.08-.06h0a.12.12,0,0,1,0-.1,1.3,1.3,0,0,0,.1-.15l.47,0a.36.36,0,0,0,.16.12h0a1.51,1.51,0,0,0,.6,0h.75c1.2,0,2.4-.05,3.58,0a10,10,0,0,1,3.68.59A.94.94,0,0,1,46.59,14.5Z" style="fill:#f8fcfe"/><path d="M43.71,13.65H37.66A15,15,0,0,1,43.71,13.65Z" style="fill:#f8fcfe"/><path d="M46.17,14a4.79,4.79,0,0,1-1.72-.29A3.19,3.19,0,0,1,46.17,14Z" style="fill:#f8fcfe"/><path d="M77.3,64.75v0c-.11,1.35-1.13,2-2.07,2.74a27.2,27.2,0,0,1-5.07,2.9,55.94,55.94,0,0,1-9.74,3.65c-1.56.37-3.1.85-4.68,1.17a15.77,15.77,0,0,1-3.69.19,1.12,1.12,0,0,1-1-.59.29.29,0,0,1,0-.28h0a.3.3,0,0,1,.17-.13h0a8.55,8.55,0,0,0,2.42.14l.23,0,.13,0a.32.32,0,0,1,.14,0,1.09,1.09,0,0,1,.39.11l.15,0,.42-.08h0a2.31,2.31,0,0,0,1.24-.23A3.74,3.74,0,0,0,57.83,74l.25,0a2.35,2.35,0,0,0,.52-.14c.36-.12.72-.3,1.08-.42.7-.23,1.41-.43,2.13-.59.21-.06.43-.1.64-.15a13.86,13.86,0,0,0,4-1.46.21.21,0,0,1,0-.06,1,1,0,0,1,.74-.38l.23-.07a.1.1,0,0,0,.13,0l.24,0a2.39,2.39,0,0,0,.65-.29h0c.26-.16.5-.36.76-.52,1-.66,2.19-1,3.2-1.65a5,5,0,0,0,1.89-1.66l.06-.12c.05.12.11.22.15.34h0l.16-.08a3.42,3.42,0,0,0,1.86-2l.06-.22C77,64.28,77,64.75,77.3,64.75Z" style="fill:#f8fcfe"/><path d="M74.38,66.39a.85.85,0,0,1,0,.17,1.77,1.77,0,0,1-.91,1.28c-1.66,1-3.43,1.78-5.13,2.69a0,0,0,0,1,0,0h0a1.3,1.3,0,0,1-.46.09l-.24,0c1.1-.6,1.15-1.82,1.63-2.78.13-.26-.14-.53-.41-.63a.64.64,0,0,0-.82.17c-.46.66-.78.61-.9-.19,0-.3-.71-.38-.3-.79a1.2,1.2,0,0,1,1.3-.22,1.51,1.51,0,0,0,1.4-.1c.33-.2.77,0,1.13-.06.68-.09,1.23-.3,1.36.74.06.46.71.54,1,.06a4.6,4.6,0,0,1,1.1-1.42c.12-.08.09-.2,0-.32h0a.76.76,0,0,1-.09-.28C74.78,65.23,74.55,65.81,74.38,66.39Z" style="fill:#f8fcfe"/><path d="M76.63,64.4a1.3,1.3,0,0,1-.45,1.38c-.41.44-1,.69-1.35,1.16-.17.2-.25,0-.29-.2a1.7,1.7,0,0,0-.2-2.33C75.1,64,75.87,64.35,76.63,64.4Z" style="fill:#f8fcfe"/><path d="M73.71,64.39a2.72,2.72,0,0,0-.7,0,1.28,1.28,0,0,0-1,.94c-.24-1.09-1.32-1.51-1.34-2.52a.75.75,0,0,1,0-.15,1,1,0,0,1,1.07.31,2.55,2.55,0,0,0,1.5,1.28A3.15,3.15,0,0,0,73.71,64.39Z" style="fill:#f8fcfe"/><path d="M59,79.45l-.81-.72a1.52,1.52,0,0,1,1-2,3.07,3.07,0,0,1,2.78-.08,4.05,4.05,0,0,0-1.88.43c-.7.25-1,.91-.89,1.9C59.17,79.11,59.54,79.47,59,79.45Z" style="fill:#f8fcfe"/><path d="M34.05,16.29a20.82,20.82,0,0,0-.47,2.11s0,0,0,.06c-1,2.81-1.48,5.75-2.33,8.59,0,.1,0,.2-.07.29h0a1.47,1.47,0,0,1-.39.8h0l0,0c-.1-.09-.18-.26-.29-.28-1-.16-.64-.84-.48-1.34s.27-1.21.41-1.8a1,1,0,0,1,0,1.08,1.77,1.77,0,0,0,.37,2.26,1.72,1.72,0,0,1,.36-.93,1,1,0,0,0,0-.17,21.28,21.28,0,0,1,.76-2.95A40.61,40.61,0,0,1,33,19.43a2.67,2.67,0,0,1,.44-1l.09-.05a4.89,4.89,0,0,1,.23-1.94c.06-.38.35-.8-.19-1.07a.79.79,0,0,0-1.11.36.2.2,0,0,1-.1.08.58.58,0,0,1,.16.57,22.9,22.9,0,0,1-.79,3.27.36.36,0,0,1-.15.23,0,0,0,0,1,0,0c-.17,1.54-.66,3-.9,4.52a.39.39,0,0,1-.25.31s0,0-.07,0c.35-1.57.69-3.16,1-4.73l.15-.52s0,0,0,0a16.67,16.67,0,0,0,.78-3.63v0c.06-.85.62-.87,1.24-.71S34.24,15.72,34.05,16.29Z" style="fill:#f8fcfe"/><path d="M51.59,72.6a.19.19,0,0,1,0,.08h0a.3.3,0,0,1-.18.17h0c-.49.13-.58.62-.84,1a1.85,1.85,0,0,1-.14.14c0-.16.1-.39-.17-.48l0,0a2.62,2.62,0,0,1,.93-1C51.35,72.4,51.51,72.38,51.59,72.6Z" style="fill:#f8fcfe"/><path d="M64,76.8a3.23,3.23,0,0,1,3.11-.51c0,.51,0,1,0,1.52,0,.82.84.85,1.23,1.3a2.8,2.8,0,0,1-1.18.86,4.86,4.86,0,0,1-3.15.12c-1.08-.91-1.26-1.41-.85-2.47C63.29,77.24,63.66,77.05,64,76.8Z" style="fill:#f8fcfe;opacity:0.6"/><path d="M60.78,80.29l-.3,0a1.68,1.68,0,0,1-.89-1.88A1.89,1.89,0,0,1,61.35,77c.5-.06,1-.24,1.5.1-.64,1.34-.6,1.84.28,2.8,0,.36-.3.33-.55.34Z" style="fill:#f8fcfe;opacity:0.6"/><path d="M30.39,29.86c-.4-.45.1-1.2-.53-1.56.09-.15.24-.07.37-.09l.29.22A2.27,2.27,0,0,1,30.39,29.86Z" style="fill:#f8fcfe"/><path d="M67.06,77.81a1.87,1.87,0,0,1,0-1.52c.22.2.2-.16.34-.15a4.41,4.41,0,0,0,0,1.66C67.27,77.75,67.16,77.61,67.06,77.81Z" style="fill:#f8fcfe"/><path d="M27.43,28c.07.33.13.66.2,1l-.2.2c-.23-.19-.1-.45-.13-.68C27.46,28.38,27.4,28.18,27.43,28Z" style="fill:#f8fcfe"/><path d="M40.64,48l0,0,0,0c-.49.47-1,0-1.39-.16a7.23,7.23,0,0,0-2.68-.76c-.79,0-1-.59-1.09-1.13s-.42-.68-.92-.67a20.62,20.62,0,0,0-5,.34c-.55.15-1,.46-1.58.62s-.26.55,0,.84h0c.36,0,.31.33.38.54a17,17,0,0,1,.54,2.07,2.55,2.55,0,0,0,1,1.45c1.9,1.67,3.85,3.27,5.82,4.84h0l.06,0,0,0c.19-.11.28,0,.29.21s0,.29,0,.43h0c0,.36-.06.72-.12,1.08v0A3.13,3.13,0,0,1,35.5,59h0a.17.17,0,0,1-.1,0h0a.16.16,0,0,1-.07-.07,1.87,1.87,0,0,1,0-.78v0c.23-.8-.17-1.27-.84-1.62s-1-1.2-1.76-1.48a34.72,34.72,0,0,0-3.35-3.07,4.05,4.05,0,0,1-1.32-2.37c-.37-1.75.15-1.58-1.78-1.49-.48,0-.7-.15-.91-.68a19.77,19.77,0,0,1-.42-2,10.71,10.71,0,0,1-.67-2.95c-.05-.16-.09-.32-.13-.48a.83.83,0,0,1,.07-.13.24.24,0,0,1,.12-.07h.07a.22.22,0,0,1,.15.12l.05.11a3,3,0,0,0,.27.66,22.81,22.81,0,0,1,1,3.31c.19.75.28.79.93.36a6.21,6.21,0,0,1,2.79-1.16h.08a24.68,24.68,0,0,1,4.7-.34A13.31,13.31,0,0,1,35.9,45h0a3.78,3.78,0,0,1,.46.1l.05,0,.06,0,0,.09a.28.28,0,0,1,.08.31.33.33,0,0,1-.11.17.12.12,0,0,0-.14,0l-.12,0a.29.29,0,0,0-.21.4.53.53,0,0,0,.42.34c.12,0,.26,0,.39.06.61.51,1.43.43,2.11.73.51.23,1,.44,1.55.65l.09,0Z" style="fill:#f8fcfe"/><path d="M35.81,71a.62.62,0,0,0,.24-.71,31.61,31.61,0,0,1-.92-9A4.89,4.89,0,0,1,35.46,59l0-.05A15.68,15.68,0,0,1,36,56.5a1.22,1.22,0,0,1,.07-.17c.56.42.14,1,.1,1.41a32.81,32.81,0,0,0,.08,6.72c.16,1.35.56,2.64.68,4a7.12,7.12,0,0,0,.54,2.12c.38.88.34.89.9,1.25A6.57,6.57,0,0,1,35.81,71Z" style="fill:#f8fcfe"/><path d="M25.11,37.8a1.24,1.24,0,0,0,.32-.12,1.14,1.14,0,0,1-.15.17l-.07.07c-.25.25-.53.47-.78.73a1.64,1.64,0,0,0-.39,2,.08.08,0,0,0,0,0,1.83,1.83,0,0,1,.12.46,6,6,0,0,1,0,.74,2.45,2.45,0,0,0,.06.6c-.05-.16-.09-.32-.13-.47h0c-.16-.62-.32-1.25-.49-1.87-.24-.85.46-1.25.84-1.79A2.81,2.81,0,0,1,25.11,37.8Z" style="fill:#f8fcfe"/><path d="M35.49,58.94a35.81,35.81,0,0,0-.09,5.67,30.78,30.78,0,0,0,1.1,6.51c-.23.13-.44-.18-.69-.08a.77.77,0,0,1-.28-.65c-.34-3.53-1.07-7-.5-10.61.2-.24-.1-.69.34-.83Z" style="fill:#f8fcfe"/><path d="M40.56,67.6c-.57-.1-.74-.21-.67-.56.07.2.22.34.59.34C40.44,67.52,40.48,67.58,40.56,67.6Z" style="fill:#f8fcfe"/><path d="M44.62,72.35a14,14,0,0,1-2.82,0c-.08-.68.12-1.43-.5-2l.06,0,0,0c.47,0,1-.12,1.43-.14s.67-.43.66-.84-.42-.3-.68-.31-.65,0-1,0h-.06a.28.28,0,0,0,0-.09,1.16,1.16,0,0,0-.8,0,.63.63,0,0,0,.46-1c-.14-.34-.42-.34-.7-.38h.08c.61,0,1,.25,1.15.93a.44.44,0,0,0,.66.38c.43-.19.85-.28,1,.29s.2,1-.57,1.1c-.54.07-.64.46-.49.92.2.61.53,1.08,1.29,1C44.09,72.24,44.38,72.15,44.62,72.35Z" style="fill:#f8fcfe"/><path d="M55.14,68.83c.06,0,.1.09,0,.19,0,.56-.75.19-.83.66a.65.65,0,0,1-.17.22.56.56,0,0,1-.48.12l-.3,0h0c-.71,0-.31-.59-.25-.68.67-1.08.94-2.34,1.5-3.46a6.38,6.38,0,0,0,.49-1c0,.32.06.49.07.66h0v0c.22.35,0,.69-.07,1a11.6,11.6,0,0,0-.32,1.76c0,.21,0,.37.24.42l.05,0,0,0Z" style="fill:#f8fcfe"/><path d="M54.54,74.63H54a.43.43,0,0,1-.38-.1.6.6,0,0,1-.17-.38,14.71,14.71,0,0,0-.44-2,1.94,1.94,0,0,1-1.25.73l0,0a.28.28,0,0,1-.17-.21s0,0,0,0-.24-.16-.38-.2c.47-.67,1.26-1,1.83-1.51.23-.06.32.13.44.26a.18.18,0,0,1,0,.07.16.16,0,0,1,0,.07.8.8,0,0,1,.09.26c0,.07,0,.13,0,.2-.35.71.56.92.57,1.31s-.47,1,.19,1.37A.45.45,0,0,1,54.54,74.63Z" style="fill:#f8fcfe"/><path d="M27.4,32s0,.05,0,.08c-.18.28-.49.39-.72.6l-.05,0-.08.07a1.57,1.57,0,0,0-.46,1.31c0,.35,0,.7-.39.81h0v0l-.18-.17A2.51,2.51,0,0,1,26,32.33c.34-.32.07-.85.36-1.19.35-.06.29.33.49.44h0l0,0a.23.23,0,0,1,.1.07h0Z" style="fill:#f8fcfe"/><path d="M26.33,37.31v0a.37.37,0,0,1,0,.14h0l-.08,0-.18.11h0a1.94,1.94,0,0,1-.35.18h0a.68.68,0,0,1-.4,0l-.17-.05a1.24,1.24,0,0,0,.32-.12c.26-.13.5-.33.83-.25l0-.1c-.86-.64-.65-1.57-.66-2.44v0l0,0c.24.32.14.7.17,1a4,4,0,0,0,.49,1.3A.17.17,0,0,1,26.33,37.31Z" style="fill:#f8fcfe"/><path d="M54.49,70.72a1.83,1.83,0,0,1-.3.32,1.09,1.09,0,0,1-.65.32H53.4L53,71c.07-.42,1-.22.69-.94l.5-.26.15-.08C54.4,70,54.44,70.37,54.49,70.72Z" style="fill:#f8fcfe"/><path d="M26.94,31.7c-.12.16-.25.35-.35,0s.06-.44-.18-.57c.25-.43.83-.66.73-1.29.36.08.25.44.38.66C27.58,31,27.05,31.26,26.94,31.7Z" style="fill:#f8fcfe"/><path d="M27.44,30.54c-.35-.11-.06-.52-.3-.69l0-.16a.47.47,0,0,0,.33-.28c.28.22.08.55.2.8S27.66,30.52,27.44,30.54Z" style="fill:#f8fcfe"/><path d="M35.37,59l-.34.83a2.89,2.89,0,0,1,.29-1.69Z" style="fill:#f8fcfe"/><path d="M73.59,39.69a1.31,1.31,0,0,1-.06.27,22.18,22.18,0,0,0-2.26-3.19c-.21-.25-.51-.42-.56-.78l.08-.08a23.32,23.32,0,0,1,2.71,3.61c-.23-2.16-1.46-4-2.32-5.87-.75-1.66-1.8-3.14-2.61-4.75a2.13,2.13,0,0,0-.58-.78c-.14-.09-.31-.18-.36-.33a4.78,4.78,0,0,0-.43-1,.05.05,0,0,0,0,0c-.14-.28-.3-.56-.44-.84h0a3.85,3.85,0,0,1-.29-.76l0-.09,0,.07a6.32,6.32,0,0,1,1.05,2c.07.45.59.67.85,1,.54.73.9,1.59,1.4,2.36a61.2,61.2,0,0,1,2.94,5.69A5.3,5.3,0,0,1,73.59,39.69Z" style="fill:#f8fcfe"/><path d="M46.28,30.18h0a2.38,2.38,0,0,1-.7-.51,2.77,2.77,0,0,0-2.84-.76.54.54,0,0,0-.41.08,1.6,1.6,0,0,1-.45.23.38.38,0,0,1-.33-.07l0,0,0-.08c.05-.16.09-.32.14-.48h0l.46-.3h0A4,4,0,0,1,44.91,28,2.61,2.61,0,0,1,46.3,29v.08C46.36,29.47,46.82,29.83,46.28,30.18Z" style="fill:#f8fcfe"/><path d="M47.38,25.07a5.72,5.72,0,0,1,4,.26,4.66,4.66,0,0,1,1.9,1.33c-.72-.34-1.43-.7-2.17-1a5.49,5.49,0,0,0-3.17-.53C47.73,25.15,47.54,25.26,47.38,25.07Z" style="fill:#f8fcfe"/><path d="M54.08,25.07c-1,0-1.77-.68-2.68-.95a2.85,2.85,0,0,0-1.19-.18l-.46-.05c-.26-.33-.88.13-1-.47l1.14,0A8.43,8.43,0,0,1,54.08,25.07Z" style="fill:#f8fcfe"/><path d="M48.74,23.42c.26.33.82,0,1,.47H47.49C47.81,23.26,48.31,23.43,48.74,23.42Z" style="fill:#f8fcfe"/><path d="M58.83,18.8a7.57,7.57,0,0,1-2.37-.23h0c.42.62,1.19.64,1.52,1.46a9.82,9.82,0,0,1-1.88-1.1,1.22,1.22,0,0,0-.93-.33c-1.53,0-3.07,0-4.6.08a9.81,9.81,0,0,1,3.92-.42h.07a.81.81,0,0,1,.38,0,.86.86,0,0,0,.57,0c1.16.05,2.31.11,3.47.15h.15C59.35,18.87,59,18.79,58.83,18.8Z" style="fill:#f8fcfe"/><path d="M53.88,17.42a.47.47,0,0,1-.1.1.54.54,0,0,1-.54-.07A2.86,2.86,0,0,0,51.38,17a.64.64,0,0,0,0-.22c0-.24-.14-.36-.39-.38a.17.17,0,0,1,0,.07.29.29,0,0,0-.15-.09l-1.16-.51c-.08-.07-.18-.15-.17-.25l0-.05s0,0,0,0c.1-.17.27-.07.41-.06l.72.05a1.73,1.73,0,0,1,.44.25h0a10.13,10.13,0,0,0,.9.72,1.2,1.2,0,0,0,.32.16A2.47,2.47,0,0,0,53.7,17a.48.48,0,0,1,.22.2A.22.22,0,0,1,53.88,17.42Z" style="fill:#f8fcfe"/><path d="M49.67,15.63a.49.49,0,0,0,.06.2l-.82-.32-.17,0-.45-.05h0c-.26,0-.52-.07-.77-.13s-.58,0-.53-.32.37-.18.59-.2h.16l.05,0a14.45,14.45,0,0,0,2.22.65.4.4,0,0,0-.3.11A.14.14,0,0,0,49.67,15.63Z" style="fill:#f8fcfe"/><path d="M51,16.43a.29.29,0,0,0-.15-.09l.14,0A.17.17,0,0,1,51,16.43Z" style="fill:#f8fcfe"/><path d="M56,17.3a1.07,1.07,0,0,1-.26.19,1.35,1.35,0,0,1-1,0l-.39-.09a.42.42,0,0,1,.1.3v0a.08.08,0,0,1,0,0,.25.25,0,0,1,0,.12.13.13,0,0,1-.07.09,3.52,3.52,0,0,1-1.11-.52c.11,0,.26,0,.38,0s.24-.06.17-.27A1.65,1.65,0,0,0,53.7,17C54.51,16.78,55.21,17.31,56,17.3Z" style="fill:#f8fcfe"/><path d="M55.5,18.31a.76.76,0,0,1-.22.11h0a.73.73,0,0,1-.58,0,.6.6,0,0,1-.15-.09l-.05,0c0-.1-.09-.2-.13-.3s0-.1,0-.15,0-.1,0-.15l.07,0h0l0,0h0l0,0C54.89,17.89,55.1,18.26,55.5,18.31Z" style="fill:#f8fcfe"/><path d="M63.12,31.19a3.08,3.08,0,0,1,1.38,2.56,10.12,10.12,0,0,1,.07,1.76c-.68-.08-.85-.58-.95-1.14-.06-.34.11-.72-.16-1A2.55,2.55,0,0,1,63.12,31.19Z" style="fill:#f8fcfe"/><path d="M62.61,32.51c-.68-.12-.22.39-.3.58s.17.92-.18.94c-.55,0-.26-.58-.33-.92a6.62,6.62,0,0,0-.37-2.06c0-.1,0-.3,0-.27.45.21.93-.3,1.35.09C62.58,31.4,63,32,62.61,32.51Z" style="fill:#f8fcfe"/><path d="M62.61,32.51c.11-.54-.46-1.15.17-1.64l.34.32c.11.72.23,1.44.34,2.15a4.85,4.85,0,0,1,0,.66c0,.23.14.62-.31.61s-.31-.32-.33-.57C62.75,33.53,62.68,33,62.61,32.51Z" style="fill:#f8fcfe"/><path d="M59,37.46a.86.86,0,0,1,.15-1.5c-.31.45,0,.8.18,1.18Z" style="fill:#f8fcfe"/><path d="M52.38,16.63a2.46,2.46,0,0,1-1.67-1.13,16.78,16.78,0,0,1,3.57,1l.39.12c-.63.42-1.17-.08-1.74-.2-.21,0-.44-.18-.62-.1S52.4,16.52,52.38,16.63Z" style="fill:#f8fcfe"/><path d="M54.53,17.77l-.15-.1c-.07-.1-.23-.23-.2-.29s.23-.08.35-.05c.49.12,1,.33,1.46,0a3,3,0,0,1,2.07.73,8.43,8.43,0,0,1-2.2-.32C55.41,17.66,55,17.45,54.53,17.77Z" style="fill:#f8fcfe"/><path d="M61.89,37.65c0,.28-.18.32-.37.11a1.22,1.22,0,0,0-1.22-.27c0,.33.35.2.42.39s.13.39-.14.29a1.34,1.34,0,0,0-1.6.58c-.2-.49.26-.64.21-1C60.32,36.83,60.88,36.8,61.89,37.65Z" style="fill:#f8fcfe"/><path d="M61.09,40.77c.58-.53.7-1.34,1.18-1.93C62.26,39.93,61.91,40.49,61.09,40.77Z" style="fill:#f8fcfe"/><path d="M61.29,41.26v.31c-.26.2-.6.33-.68.71v0l-.23.16a.2.2,0,0,0-.08-.11c-.1-.06-.22,0-.33.06l-.07-.07h0l-.08-.08.67-.48s0,0,0,0Z" style="fill:#f8fcfe"/><path d="M35.72,56.12l0,0c-.59.1-.87-.42-1.21-.69-1.73-1.37-3.36-2.86-5.08-4.23-.75-.59-.71-1.42-1-2.16s-.34-1.25-.5-1.87h0c0-.22-.14-.55.21-.6s.24.29.3.47a10.48,10.48,0,0,1,.64,2.75.88.88,0,0,0,.49.71c.69.45,1.32,1,2,1.45,1.28.89,2.43,2,3.74,2.82C36,55.21,36.1,55.53,35.72,56.12Z" style="fill:#f8fcfe"/><path d="M43.69,63.11c-.08-.35-.59-.59-1.08-.53s-.75,0-.6-.58a.25.25,0,0,0-.13-.34.24.24,0,0,0-.33.16c-.07.79-.65.58-1.11.59a1.15,1.15,0,0,0-1.22,1.27c.07.66.65.57,1.1.55s.76.12.85.72c.12.86-.51.86-1.23,1.09h3l0-.1c-.08,0-.15-.06-.22,0-.65.07-1-.15-.92-.87s.62-.43,1-.35.44,0,.58-.16A1.88,1.88,0,0,0,43.69,63.11Zm-.41.6c-.12.54-.12.56-.84.53l-2-.31c-.44-.06-.6-.3-.55-.74s.34-.44.66-.41c.73.08,1.45.18,2.18.25C43.11,63.07,43.41,63.15,43.28,63.71Z" style="fill:#f8fcfe"/><path d="M57.36,66.37c-.09.34-.36.33-.65.35s-.74-.23-.89.3l0,.12h0a6,6,0,0,0-.26.71l0,.18h0a.15.15,0,0,0,0,.07,0,0,0,0,0,0,0s0,0,0,0h0a1.36,1.36,0,0,1-.31.61l0,0-.07.06c-.55.4-.56,0-.5-.37a14.59,14.59,0,0,1,.64-2.93.06.06,0,0,0,0,0h0c.12-.37.28-.59.71-.24s.67.35,1,.58S57.44,66,57.36,66.37Z" style="fill:#f8fcfe"/><path d="M43.93,60.69c0,.37-.23.77-.65.71a16.47,16.47,0,0,1-2.88-.56c-.34-.11-.59-.46-.1-.79-.24.32-.2.62.2.66a16.19,16.19,0,0,1,2.49.52c.46.12.64-.15.78-.5s.12-.6-.31-.66C44,60,44,60.36,43.93,60.69Z" style="fill:#f8fcfe"/><path d="M41.41,70.34H41.3l.06,0Z" style="fill:#f8fcfe"/><path d="M43.93,60.69c0,.37-.23.77-.65.71a16.47,16.47,0,0,1-2.88-.56c-.34-.11-.59-.46-.1-.79-.24.32-.2.62.2.66a16.19,16.19,0,0,1,2.49.52c.46.12.64-.15.78-.5s.12-.6-.31-.66C44,60,44,60.36,43.93,60.69Z" style="fill:#f8fcfe"/><path d="M56,67.22,56,67.3c-.2.28-.16.68-.44.92l-.05,0h0s0,0,0,0h0c-.07-.13,0-.3-.09-.42.13-.21.13-.51.37-.66l.07,0Z" style="fill:#f8fcfe"/><path d="M50.72,41.37a2.9,2.9,0,0,1-2.78,1,6,6,0,0,0-.72-.12l-.51-.07h0l-.27,0-.11,0h-.07A5.33,5.33,0,0,1,43.47,41c-.43-.33-.84-.75-.52-1.4a2.08,2.08,0,0,1,1.31.4,14.22,14.22,0,0,0,5.79,1.08C50.3,41.09,50.63,41,50.72,41.37Z" style="fill:#f8fcfe"/><path d="M57.67,32.83a5.19,5.19,0,0,0-3-2.83,5,5,0,0,0-3.53-.18,1.76,1.76,0,0,1-.4.06s-.08-.05-.12-.08c2.59-2.14,4.75-.71,6.62.85.53.44.31,1.17.55,1.73C57.91,32.57,58.07,32.79,57.67,32.83Z" style="fill:#f8fcfe"/><path d="M46.43,42.18c0,.16-.18.21-.37.25a4.6,4.6,0,0,0-1.3.47A1.27,1.27,0,0,1,46,42.27c.16,0,.34,0,.35-.11h-.07A5.33,5.33,0,0,1,43.47,41c-.43-.33-.84-.75-.52-1.4a1.51,1.51,0,0,0,.7,1.27,6.16,6.16,0,0,0,2.61,1.07A.48.48,0,0,1,46.43,42.18Z" style="fill:#f8fcfe"/><path d="M49.89,43.22a.85.85,0,0,1,.66-.31,1.37,1.37,0,0,1-.28.26l-.12.09-.24.16c-.38.16-.7.6-1.19.32h0l0,0a.14.14,0,0,0,0-.07,1.23,1.23,0,0,0-1.23-1c-.3,0-.67,0-.85-.4l.13,0h0a3.13,3.13,0,0,1,1.22,0,4.72,4.72,0,0,0,2.79-.86,2.9,2.9,0,0,1-2.78,1,6,6,0,0,0-.72-.12l-.55,0c.56.16,1,0,1.49.24a.91.91,0,0,1,.6,1.16A4.26,4.26,0,0,0,49.89,43.22Z" style="fill:#f8fcfe"/><path d="M53.7,35.66a4.45,4.45,0,0,0-2.53-.54,13.19,13.19,0,0,0-2.44.89A4.14,4.14,0,0,1,55,35.36c-.71,0-1.19-.62-1.88-.5l.56.47A.22.22,0,0,1,53.7,35.66Z" style="fill:#f8fcfe"/><path d="M48.76,43.73h0c-.26,0-.47-.1-.71-.15a.39.39,0,0,0-.15,0l-.1,0c-.29-.06-.6,0-.81-.33-.67-.47-1.45-.22-2.18-.31A1.27,1.27,0,0,1,46,42.27c.16,0,.34,0,.35-.11a.31.31,0,0,0-.06-.22l1.67.29-.71.06-.55,0c.56.16,1,0,1.49.24A.91.91,0,0,1,48.76,43.73Z" style="fill:#f8fcfe"/><path d="M50.07,43.63a5.28,5.28,0,0,1-5.35.53c-.19-.08-.37-.26-.6-.09-.29-.38,0-.53.28-.66.71.05,1.41.14,2.12.23a1.68,1.68,0,0,0,1.23-.1.61.61,0,0,0,.16-.12.8.8,0,0,1,.74.22l.11.09a4.26,4.26,0,0,0,1.13-.51.57.57,0,0,1,.38,0l.07.07C50.51,43.5,50.2,43.54,50.07,43.63Z" style="fill:#f8fcfe"/><path d="M50.4,43.66a8.13,8.13,0,0,1-2.3,1.1,2.73,2.73,0,0,1-2.76-.07,1.33,1.33,0,0,0-.41-.25l-.81-.37c.54-.38,1,0,1.51.15a5.32,5.32,0,0,0,4.5-.8c.12-.08.2-.12,0-.16h0l-.24,0a.85.85,0,0,1,.66-.31C50.67,43.2,50.76,43.48,50.4,43.66Z" style="fill:#f8fcfe"/><path d="M47.91,43.42c.15.24.23.48-.19.48a8.32,8.32,0,0,1-3.32-.48,4.87,4.87,0,0,1,2.54-.2A2,2,0,0,1,47.91,43.42Z" style="fill:#f8fcfe"/><path d="M44.93,44.44c.65.15,1.3.33,2,.45a2.29,2.29,0,0,0,1.21-.13c0,.42-.11.67-.6.65a13.68,13.68,0,0,1-2-.11C44.94,45.18,44.63,45,44.93,44.44Z" style="fill:#f8fcfe"/><path d="M53.43,36.52c-1.18.18-2.39-.06-3.54.4C50.64,35.88,51.8,35.75,53.43,36.52Z" style="fill:#f8fcfe"/><path d="M45.44,34.66a2.4,2.4,0,0,0-1.08-.86c-.25,0-.43-.27-.7-.23a1.2,1.2,0,0,1-.52-.39A.78.78,0,0,1,43,33a.27.27,0,0,1,.1-.29c.91.06,1.79.15,2.26,1.13.09.19.2.52.54.52v.1C45.78,34.55,45.67,34.72,45.44,34.66Z" style="fill:#f8fcfe"/><path d="M45.93,34.44s0-.07,0-.1a4.44,4.44,0,0,0,.69-3c.73.35.46.94.34,1.48a1.48,1.48,0,0,1-1,1.7A.11.11,0,0,1,45.93,34.44Z" style="fill:#f8fcfe"/><path d="M46.57,36.35c.1-.12-.41-.36,0-.34a1.32,1.32,0,0,1,1.24.77c.09.21.2.47,0,.59s-.41,0-.52-.25-.08-.26-.25-.28A.45.45,0,0,1,46.57,36.35Z" style="fill:#f8fcfe"/><path d="M59.23,43.16c.07-.3-.22-.72.28-.88C59.17,42.49,59.35,42.88,59.23,43.16Z" style="fill:#f8fcfe"/><path d="M44.67,46.58a.6.6,0,0,1-.79.45.89.89,0,0,1-.82-.82A5.59,5.59,0,0,0,44.67,46.58Z" style="fill:#f8fcfe"/><path d="M52.59,40.12a2.26,2.26,0,0,1,.89,1c.08.19-.11.33-.28.19a7.12,7.12,0,0,1-.9-.92C52.15,40.21,52.34,40.13,52.59,40.12Z" style="fill:#f8fcfe"/><path d="M45.93,34.55c.7-.34.83-1,1-1.7.66.63,0,1-.3,1.44C46.56,34.44,46.37,35.09,45.93,34.55Z" style="fill:#f8fcfe"/><path d="M46.57,36.35l.47.49c.07.24.14.53-.22.54s-.44-.37-.58-.6S46.19,36.29,46.57,36.35Z" style="fill:#f8fcfe"/><path d="M57.7,44.6l-.22-.22c.17-.48.59-.7,1.05-1.07C58.41,43.94,58,44.21,57.7,44.6Z" style="fill:#f8fcfe"/><path d="M48.92,38.46c.6.06.79.4.74,1.14Z" style="fill:#f8fcfe"/><path d="M57.67,32.83c.18-.11.11-.3.14-.45.42.5.17,1.07.19,1.78A2,2,0,0,1,57.67,32.83Z" style="fill:#f8fcfe"/><path d="M44.77,36.13a.53.53,0,0,1-.48.33c-.17,0-.22-.12-.21-.26s.22-.28.4-.3A.25.25,0,0,1,44.77,36.13Z" style="fill:#f8fcfe"/><path d="M53.7,35.66v-.33c.34,0,.44.3.65.53C54,36,53.82,35.93,53.7,35.66Z" style="fill:#f8fcfe"/><path d="M62.45,72.66l-.42.16a15.8,15.8,0,0,1-3.48,1.09,3.56,3.56,0,0,1-.47,0l-.25,0c.15-.26.47-.08.68-.26a1.37,1.37,0,0,0-.8,0,.71.71,0,0,1-.82-.47c-.1-.31.28-.42.53-.52s.52-.16.78-.25.49-.21.53-.47c.13-.84.41-.59.83-.18C60.37,72.59,61.44,72.54,62.45,72.66Z" style="fill:#f8fcfe"/><path d="M67.45,70.69l-.13.1a1.65,1.65,0,0,1-.83.4h0c-1-.52-1.21-.91-.76-1.53s1-.59,1.36.15C67.17,70.11,67.12,70.49,67.45,70.69Z" style="fill:#f8fcfe"/><path d="M53.68,71.82a.29.29,0,0,1-.13-.08c-.09-.09-.1-.24-.15-.37l.1-.08a3.4,3.4,0,0,1,.76-.49l.23-.08C54.57,71.34,54,71.49,53.68,71.82Z" style="fill:#f8fcfe"/><path d="M56.36,74.34a1.14,1.14,0,0,1-.44.27,1.81,1.81,0,0,1-.52.07h0l-.7,0,.42-.08h0Z" style="fill:#f8fcfe"/><path d="M55.53,68.22a1.27,1.27,0,0,1-.35.8.52.52,0,0,0-.1-.11l0,0a.36.36,0,0,0,0-.09,4.44,4.44,0,0,0,.28-1.07.37.37,0,0,1,.12.32.09.09,0,0,1,0,0A.59.59,0,0,0,55.53,68.22Z" style="fill:#f8fcfe"/><path d="M35.14,42.18a.5.5,0,0,0,0,.13,5.74,5.74,0,0,0,1.32,2.79l.09.13,0-.09h0c-.32-1-1.08-1.82-1.3-2.88Z" style="fill:#f8fcfe"/><path d="M41.55,34.45a.36.36,0,0,1-.21.36h0a0,0,0,0,0,0,0l.16-.3.06-.08S41.55,34.44,41.55,34.45Z" style="fill:#f8fcfe"/><path d="M42.24,33a.14.14,0,0,1,0,.06s0,0,0,0a.4.4,0,0,1-.18.16l-.08,0c-.25.4.23.69.2,1a.25.25,0,0,1,0,.12c-.41,0-.43.56-.8.67h0a1.93,1.93,0,0,1,0-.24v-.09a0,0,0,0,0,0,0l.16-.3.06-.08c.22-.34,0-.71.05-1.07l-.12-.65c0-.11,0-.21,0-.32a.17.17,0,0,1,0-.07,1.67,1.67,0,0,1,.08-.3.91.91,0,0,1,.07-.14h0a.14.14,0,0,1,.09-.05h0a.14.14,0,0,1,.11.05c.05.32-.16.74.37.85a.38.38,0,0,1,.08.17A.33.33,0,0,1,42.24,33Z" style="fill:#f8fcfe"/><path d="M36.51,45.23A33.11,33.11,0,0,0,32,45.07c-.88,0-1.69.49-2.58.3a2.55,2.55,0,0,1,.28-.21,4,4,0,0,1,2.07-.47c1.24-.06,2.48,0,3.81,0-.81-2-1.82-3.92-2.78-5.82a.9.9,0,0,0-.48-.44c-.28-.12-.58-.37-.85-.22s0,.49,0,.75,0,.38,0,.58c-.05.65-.43,1.15-1,1.16s-.84-.41-.94-.95c0-.12,0-.24,0-.35a.63.63,0,0,1,.1-.3.62.62,0,0,1,.18-.18l.07,0h0c.28.14.21.58.6.69-.06-1.48-.35-2.91-.4-4.36a1.8,1.8,0,0,0,.05-.19,3.4,3.4,0,0,0,0-.45,1.57,1.57,0,0,1,.13-.74l.1,0h0c.43,0,.32.38.32.6a13,13,0,0,0,.34,2.29,1.64,1.64,0,0,1,.36-.81l.14-.06.15-.09h0a3.1,3.1,0,0,0,.95-1.32l0-.06c0-.07.08-.12.11-.18v0a1.13,1.13,0,0,0-.2-1.31c-.38-.46-.86-.34-1.35-.15a1.58,1.58,0,0,1-.55.16l-.15,0h0l-.07,0c-.13-.11-.24-.24-.1-.41a.45.45,0,0,0,.51-.07,1.64,1.64,0,0,1,2-.19,1.62,1.62,0,0,1,.68,2c-.37,1.27-1.74,1.92-2,3.31a2.29,2.29,0,0,1,2.11,1.62,16.45,16.45,0,0,0,1.51,3.1l0,.08c.22,1.05,1,1.87,1.29,2.88Z" style="fill:#f8fcfe"/><path d="M35.18,42.26s0,0,0-.08" style="fill:none"/><path d="M30.4,33.87c-.07.48.14,1-.14,1.44a1,1,0,0,1-.12-.23,9,9,0,0,1-.47-1.78l-.06-.22-.05,0c-.15-.1-.37-.13-.41-.35h0v-.06a.46.46,0,0,1,.13-.29.61.61,0,0,1,.15-.12c.61-.33.56-.81.29-1.34a.32.32,0,0,1,0-.29.27.27,0,0,1,.17-.1h0c.14,0,.3,0,.35-.14l0,0h0c.13,0,.27-.15.35.06.15.7-.47,1.33-.17,2l.18.44h0a.72.72,0,0,1-.19.9S30.4,33.85,30.4,33.87Z" style="fill:#f8fcfe"/><path d="M41.52,31.62a1.7,1.7,0,0,1,0,.39c0,.12,0,.25-.07.37a.17.17,0,0,1,0-.07l0-.2a.94.94,0,0,0-.06-.47c.16-.84-.19-1.71.15-2.53l0-.08v.11C41.57,30,41.52,30.79,41.52,31.62Z" style="fill:#f8fcfe"/><path d="M41.65,27.9v0h0Z" style="fill:#f8fcfe"/><path d="M40.83,29.57h0v-.06Z" style="fill:#f8fcfe"/><path d="M27.44,30.54l.19-.33c.49.19,1.34,0,1.28.8s-.81.41-1.28.5c-.19,0-.36.12-.55.18a.34.34,0,0,0-.14,0C26.62,31.1,27.42,31,27.44,30.54Z" style="fill:#f8fcfe"/><path d="M26.58,32.49a1.88,1.88,0,0,1,.82-.5c.23-.15.47,0,.7,0a.39.39,0,0,1,.53,0c.08,1,0,1-1.25,1.33C26.83,33.33,26.32,33.27,26.58,32.49Z" style="fill:#f8fcfe;opacity:0.6"/><path d="M27.92,28.86a2.46,2.46,0,0,1,.27-.17c.23-.14.54-.4.73-.24s.15.66-.05,1a.83.83,0,0,1-.91.37c-.49-.2.11-.61-.05-.92Z" style="fill:#f8fcfe"/><path d="M30.2,30.33c0,.31-.59.11-.48.53a2.52,2.52,0,0,0-1.5-.74,1.24,1.24,0,0,1,1.38.06C29.79,30.3,30,30.42,30.2,30.33Z" style="fill:#f8fcfe"/><path d="M28.55,32.05,28.1,32c.19-.52.52-.36.81-.13s.27.34.52.34c0,.2-.12.32-.2.48C28.78,32.71,28.82,32.22,28.55,32.05Z" style="fill:#f8fcfe"/><path d="M51.74,72.9a1.13,1.13,0,0,1-.61,1.18l0,0h0a.17.17,0,0,1-.1,0,.4.4,0,0,1-.2-.09l.61-1.14,0,0,.17-.18h0Z" style="fill:#f8fcfe"/><path d="M51.23,74.41a.13.13,0,0,1,0,.08l-.09.2a1,1,0,0,0-.07.15c-.48-.15-.3-.52-.28-.83L51,74h0l.11.09A.28.28,0,0,1,51.23,74.41Z" style="fill:#f8fcfe"/><path d="M51.2,74.49,51,74c.45-.22.44-.75.72-1.09A6,6,0,0,0,53,72c.66.72.41,1.73.83,2.53a.9.9,0,0,0,.18.15A3.66,3.66,0,0,1,51.2,74.49Z" style="fill:#f8fcfe"/><path d="M36,45h-.1a18.24,18.24,0,0,0-6.53.42,6.31,6.31,0,0,0-2.79,1.4c-.58.44-.72.21-.86-.31-.31-1.24-.63-2.47-.95-3.71-.13-.33-.25-.65-.37-1s-.15-.44-.22-.67h0a1.8,1.8,0,0,0-.12-.44h0a4.64,4.64,0,0,1-.11-.51,1.59,1.59,0,0,1,.52-1.41,5.25,5.25,0,0,1,1.21-.89l.35-.18.14,0,.13,0,.11,0c.68-.23.9-.1.83.58,0,.44,0,.8.44.88s.6-.29.72-.64v0l0,0c.16-.31.17-.83.62-.8-.38.32-.35.73-.47,1.07-.17.49-.43.88-1,.73A.81.81,0,0,1,27,38.16c.33-1.43-.65-.13-.91-.39-.27.18-.54.36-.8.55-1.25.93-1.41,1.44-.93,2.94l.18.63.05.11a3,3,0,0,0,.27.66,22.81,22.81,0,0,1,1,3.31c.19.75.28.79.93.36a6.21,6.21,0,0,1,2.79-1.16h.08a4,4,0,0,1,2.07-.47c1.24-.06,2.48,0,3.81,0-.81-2-1.82-3.92-2.78-5.82a.9.9,0,0,0-.48-.44c-.28-.12-.58-.37-.85-.22s0,.49,0,.75,0,.38,0,.58c-.05.65-.43,1.15-1,1.16s-.84-.41-.94-.95c0-.12,0-.24,0-.35a5,5,0,0,0-.47-1.9s0,0,0,0c.49.08.51.58.52,1,0,.2,0,.4,0,.6a2.93,2.93,0,0,0,.1.78.68.68,0,0,0,.79.67.83.83,0,0,0,.71-.94A3.75,3.75,0,0,0,31,38.31c-.12-.28-.05-.6.27-.48.6.23,1.34.2,1.7,1C33.94,40.84,35,42.84,36,45Z" style="fill:#f8fcfe"/><path d="M26.3,37.57c0,.1-.11.15-.2.2-.27.18-.54.36-.8.55-1.25.93-1.41,1.44-.93,2.94l.18.63c.07.29.14.57.22.86-.38-.16-.32-.53-.44-.83l-.06.53c-.05-.16-.09-.32-.13-.48-.16-.62-.32-1.25-.49-1.87-.24-.85.46-1.25.84-1.79a3.17,3.17,0,0,1,.62-.52.94.94,0,0,0,.32-.11,1.13,1.13,0,0,1,.83-.25l0,.06A.25.25,0,0,1,26.3,37.57Z" style="fill:#f8fcfe"/><path d="M26.34,47.38c.21-.3.53-.26.75-.41s.3-.29.41,0,.15.46-.18.5S26.67,47.7,26.34,47.38Z" style="fill:#f8fcfe"/><path d="M28.59,35.11a1.07,1.07,0,0,1-.19.55,1.51,1.51,0,0,0-.15.28h0a.68.68,0,0,0-.07.23,1.11,1.11,0,0,1-1.07.56c.09,0,.16.08.19.24s-.19.29-.38.35a.72.72,0,0,1-.59,0l0,0c-.86-.64-.65-1.57-.66-2.44v0c.6-.42-.06-1.07.3-1.59.2-.28.29-.62.65-.76a.7.7,0,0,0,0,.21c.06.42.4.51.83.49a.14.14,0,0,1,0,.11v0h0s0,0,0,0l-.08.06c-.25.14-.67.11-.66.52a.49.49,0,0,0,0,.12,3.71,3.71,0,0,0,0,.58c0,.19.1.39.31.46s.34-.12.46-.26a1.49,1.49,0,0,1,.15-.2c.22-.21.33-.7.73-.53S28.59,34.76,28.59,35.11Z" style="fill:#f8fcfe"/><path d="M29.94,38a16.11,16.11,0,0,1-.55-3.65c0-.08-.05-.16-.08-.23s0,0,0,0L29.24,34c-.25-.6-.45-.83-.87-.83h-.18a4.41,4.41,0,0,0-.57.13.12.12,0,0,0-.05.05h0a.19.19,0,0,0,0,.15h0a.9.9,0,0,0,.38.25,1.17,1.17,0,0,1,.58,1.74.66.66,0,0,1-.12.17,1.3,1.3,0,0,0-.28.34h0c-.39.63-1.05.6-1.68.67.21.23.58-.06.77.36l-.88.27h0l0,.11a.54.54,0,0,0-.05.11l0,.07c0,.06-.05.11-.07.16.26.26,1.24-1,.91.39a.81.81,0,0,0,.61,1.12c.53.15.79-.24,1-.73.12-.34.09-.75.47-1.07h0v0a5,5,0,0,1,.47,1.9,1.53,1.53,0,0,0,.2.48c0-.31-.1-.65.16-.92h0C30.16,38.65,30,38.32,29.94,38ZM27.73,39c-.26,0-.28-.19-.28-.4,0-1.08.18-2.07,1.4-2.51-.05,1-.7,1.73-.75,2.67C28.09,38.92,27.91,39,27.73,39Z" style="fill:#f8fcfe"/><path d="M42.64,28.71a1.31,1.31,0,0,1-.34.27.92.92,0,0,0-.52.64h0c-.17.72,0,1.46-.1,2.18v0a1.63,1.63,0,0,0-.05.54.44.44,0,0,1-.15.31c0-.11,0-.21,0-.32a.17.17,0,0,1,0-.07l0-.2a.94.94,0,0,0-.06-.47c.16-.84-.19-1.71.15-2.53l0-.08C42,29.29,42.17,28.48,42.64,28.71Z" style="fill:#f8fcfe"/><path d="M55.63,66.43c0-.31,0-.56.34-.58.08,0,.27.19.26.24C56.15,66.35,55.9,66.34,55.63,66.43Z" style="fill:#f8fcfe"/><path d="M42.12,33c0-.1,0-.2,0-.3l1,0,0,.34C42.76,33.29,42.43,33.43,42.12,33Z" style="fill:#f8fcfe"/><path d="M41.67,31.85a7.26,7.26,0,0,1,.11-2.23c0,.75,0,1.5,0,2.24Z" style="fill:#f8fcfe"/><path d="M42.12,33c.32.26.64,0,1,0h0c.09.31-.12.32-.43.42.39-.09.7-.18,1,0s.56.08.74.33a3.09,3.09,0,0,0-1.68,0c-.43.18-.35-.53-.74-.46Z" style="fill:#f8fcfe"/><path d="M43.62,33.47l-1,.05c0-.34.46-.21.47-.49C43.36,33.05,43.48,33.28,43.62,33.47Z" style="fill:#f8fcfe"/><path d="M30.41,33.79l.18-.9a2.72,2.72,0,0,1,1.1-.52,1,1,0,0,1,1.21.45,1.26,1.26,0,0,1,0,1.67c-.58-.14-.64.39-.84.69s-.19.63-.48.82L31,37.54A34,34,0,0,1,30.41,33.79Z" style="fill:#f8fcfe;opacity:0.6"/><path d="M31.56,36a3.74,3.74,0,0,1,.85-1.74c.43-.43.44-.11.47.23C32.5,35.05,32.51,35.94,31.56,36Z" style="fill:#f8fcfe"/><path d="M29.74,32.69a3.56,3.56,0,0,1-.52,1.65c-.38-1.07-.55-1.17-1.65-1-.07.06-.12,0-.16,0a.34.34,0,0,0,0-.1c.6-.16,1.18-.33,1.13-1.14.38,0,.43.44.68.63S29.57,32.68,29.74,32.69Z" style="fill:#f8fcfe"/><path d="M27.58,33.5c.62,0,1.16.29,1.28,1A1.31,1.31,0,0,1,28.12,36c0-.59.59-1.13.16-1.77-.29.06-.28.38-.47.53s-.4,1-.91.67A1,1,0,0,1,26.6,34,.68.68,0,0,1,27.58,33.5Z" style="fill:#f8fcfe;opacity:0.6"/><path d="M27.58,33.5c-.41,0-.66.31-1,.5-.31,0-.25-.15-.1-.34a1.17,1.17,0,0,1,.91-.37l.16,0Z" style="fill:#f8fcfe"/></svg>