<svg id="Layer_1" data-name="Layer 1" xmlns="http://www.w3.org/2000/svg" viewBox="0 0 93.45 93.45"><title>customer</title><circle cx="46.72" cy="46.72" r="38.71" style="fill:#fdfffe;opacity:0.4"/><path d="M79.88,37.85l-7.6-7.6a.2.2,0,0,1,0-.27l.78-.78a1,1,0,0,0,.1-1.37,1,1,0,0,0-1.48-.07l-.81.81a.2.2,0,0,1-.27,0h0a.19.19,0,0,1,0-.28l.81-.81a1,1,0,0,0,0-1.41L69.6,24.26a2.55,2.55,0,0,0-.74-2h0a2.52,2.52,0,0,0-3.57,0L63.63,24a8.13,8.13,0,0,0-1.3-.1,8.48,8.48,0,0,0-6,2.5l-.46.45a8.53,8.53,0,0,0-2.4,7.31h0a9.51,9.51,0,0,1-13.44,0h0a8.48,8.48,0,0,0-2.4-7.32l-.45-.45a8.5,8.5,0,0,0-6-2.5,8,8,0,0,0-1.3.1L28.16,22.3a2.53,2.53,0,0,0-3.58,0h0a2.54,2.54,0,0,0-.73,2L22,26.07a1,1,0,0,0,0,1.41l.81.81a.19.19,0,0,1,0,.28h0a.21.21,0,0,1-.28,0l-.78-.78a1,1,0,0,0-1.36-.1,1,1,0,0,0-.08,1.48l.81.81a.18.18,0,0,1,0,.27l-7.59,7.6a1,1,0,0,0,0,1.46l2.11,2.12a1.05,1.05,0,0,0,1.47,0l7.59-7.6a.19.19,0,0,1,.28,0l.78.78a.22.22,0,0,1,0,.22,5,5,0,0,1-.33.61,6,6,0,0,1-1.8,1.78,7.89,7.89,0,0,0-2.39,2.35,6.18,6.18,0,0,0-.73,1.53,7.48,7.48,0,0,0-.22.83V42c0,.11,0,.22-.05.34a1.36,1.36,0,0,0,0,.21v.19h0v0s0,0,0,0a.13.13,0,0,0,0,.06V43a1.12,1.12,0,0,0,1.18.9,1.12,1.12,0,0,0,.57-2,1.07,1.07,0,0,1,.07-.19,5,5,0,0,1,.62-1.12,6,6,0,0,1,2-1.68,8,8,0,0,0,2.57-2.23,7,7,0,0,0,.84-1.55,6.51,6.51,0,0,0,.28-.85l0-.1c0-.12.05-.24.07-.36s0-.12,0-.18c.05-.25.1-.54.14-.88a1,1,0,0,1,.29-.59l1.63-1.64a1,1,0,0,1,1.35,0L33,31.51a1,1,0,0,1,.29.68V52.12a4.53,4.53,0,0,0,1.33,3.22l4.87,4.87A.31.31,0,0,0,40,60V41.68a.17.17,0,0,1,.29-.12l3,3a.15.15,0,0,1,.05.12V64a.31.31,0,0,0,.09.22l3.06,3a.29.29,0,0,0,.43,0l3.06-3a.31.31,0,0,0,.09-.22V44.7a.21.21,0,0,1,0-.12l3-3a.18.18,0,0,1,.3.12V60a.31.31,0,0,0,.53.22l4.87-4.87a4.56,4.56,0,0,0,1.33-3.22V32.19a1,1,0,0,1,.28-.68l1.07-1.05a1,1,0,0,1,1.34,0l1.64,1.64a1,1,0,0,1,.28.59c0,.34.1.63.15.88,0,.06,0,.13,0,.18s0,.24.08.36l0,.1a6.63,6.63,0,0,0,.27.85,7.43,7.43,0,0,0,.85,1.55,7.92,7.92,0,0,0,2.56,2.23,6.09,6.09,0,0,1,2,1.68,5,5,0,0,1,.62,1.12c0,.06,0,.12.07.19a1.12,1.12,0,0,0,.57,2,1.11,1.11,0,0,0,1.17-.9.15.15,0,0,0,0-.07s0,0,0-.06v-.09h0v-.19c0-.07,0-.15,0-.21s0-.23,0-.34l0-.1a5.87,5.87,0,0,0-.21-.83,6.56,6.56,0,0,0-.73-1.53,7.89,7.89,0,0,0-2.39-2.35,6,6,0,0,1-1.81-1.78,5,5,0,0,1-.32-.61.2.2,0,0,1,0-.22l.78-.78a.19.19,0,0,1,.28,0l7.59,7.6a1.05,1.05,0,0,0,1.47,0l2.11-2.12A1,1,0,0,0,79.88,37.85Zm-51.3-12h-.21L26,23.48a1,1,0,0,0-.72-.29h0a1.37,1.37,0,0,1,1.23-.47,1.47,1.47,0,0,1,.83.42L29,24.79a.6.6,0,0,1-.43,1Zm2.29-.8h.25a7.31,7.31,0,0,1,5.22,2.17l.45.45A7.31,7.31,0,0,1,39,32.84c0,.08,0,.16,0,.23h0L33.77,27.9h0l-.16-.15Zm29,2.74-.16.15h0L54.5,33.07a1.69,1.69,0,0,1,0-.23,7.35,7.35,0,0,1,2.16-5.22l.46-.45A7.31,7.31,0,0,1,62.33,25h.25Zm7.57-4.27-2.34,2.33h-.22a.6.6,0,0,1-.43-1l1.65-1.65a1.44,1.44,0,0,1,.82-.42,1.36,1.36,0,0,1,1.23.47h0A1,1,0,0,0,67.41,23.48Z" style="fill:#fdfffe"/><path d="M25.28,70.26H23.87v3.89H22.45v-5h5.84c.82,0,1.23.36,1.23,1.06v3.89H28.11V70.44c0-.12-.06-.18-.17-.18H26.7v3.89H25.28Z" style="fill:#fdfffe"/><path d="M31.47,74.15c-.83,0-1.24-.35-1.24-1.06V70.26c0-.7.41-1.06,1.24-1.06h3.89c.83,0,1.24.36,1.24,1.06v2.83c0,.71-.41,1.06-1.23,1.06Zm.35-3.88a.15.15,0,0,0-.17.17v2.48a.15.15,0,0,0,.17.17H35c.11,0,.17-.06.17-.18V70.44c0-.12-.06-.18-.17-.18Z" style="fill:#fdfffe"/><path d="M43,69.2v1.06H40.84v3.89H39.42V70.26H37.3V69.19Z" style="fill:#fdfffe"/><path d="M44.9,74.15c-.82,0-1.24-.35-1.24-1.06V70.26c0-.7.42-1.06,1.24-1.06h3.89c.83,0,1.24.36,1.24,1.06v2.83c0,.71-.41,1.06-1.24,1.06Zm.35-3.88a.15.15,0,0,0-.17.17v2.48a.15.15,0,0,0,.17.17h3.19a.16.16,0,0,0,.18-.18V70.44a.16.16,0,0,0-.18-.18Z" style="fill:#fdfffe"/><path d="M57.34,69.2v1.06H55.23v3.89H53.81V70.26H51.69V69.19Z" style="fill:#fdfffe"/><path d="M58.43,69.22l5.13,0c.82,0,1.24.36,1.24,1.06v3.89H59.67c-.82,0-1.24-.35-1.24-1.06V71.85c0-.7.42-1.06,1.24-1.06h3.72v-.35c0-.12-.06-.18-.17-.18H58.43ZM60,71.85c-.11,0-.17.06-.17.19v.88a.15.15,0,0,0,.17.17h3.37V71.86Z" style="fill:#fdfffe"/><path d="M71.54,69.2v1.06H69.42v3.89H68V70.26H65.89V69.19Z" style="fill:#fdfffe"/><path d="M46.72,86.75a40,40,0,1,1,40-40A40.07,40.07,0,0,1,46.72,86.75Zm0-77.41A37.39,37.39,0,1,0,84.11,46.72,37.42,37.42,0,0,0,46.72,9.34Z" style="fill:#fdfffe"/></svg>