<svg id="Layer_1" data-name="Layer 1" xmlns="http://www.w3.org/2000/svg" viewBox="0 0 93.45 93.45"><title>customer</title><path d="M28.84,75.68c-1.39.09-1.26-1.09-1.37-1.84-.26-1.7-.35-3.42-.47-5.13a3.79,3.79,0,0,0-.37-2l0-1.18a48.56,48.56,0,0,0-.91-11.22c-.12-.7-.22-1.46.38-1.95s1.2-.09,1.7.35a19.18,19.18,0,0,1,1.38,10c-.1.86-.14,1.44,1,1.25,1.76-.11,2.66-1.3,3.42-2.69a12.44,12.44,0,0,0,1-5c.1-1.05.39-2,1.77-1.08.23,1.55.41,3.12.71,4.67A2.45,2.45,0,0,0,38.7,62c1.41.4,1.59-.69,1.89-1.6.23-.7-.24-1.85.61-2.06s1.39.76,2,1.33a6.34,6.34,0,0,0,.68.69c.64.45,1.09,1.49,2,1.09s1.17-1.48,1.23-2.46a10.55,10.55,0,0,0-.86-4.14c-.47-1.34-1-2.66-1.44-4-.33-1-.47-2,.52-2.62s2-.09,2.67.78a31.88,31.88,0,0,1,1.44,10.8c-.1,2-.33,4.11-2.35,5.35-1.3.6-2.26-.33-3.34-.74-.57-.71-1.05-1.13-1.21.25-.15,1.19-.76,1.87-2,1.71-1.22.17-1.83-1.11-2.92-1.23-.2-.48-.54-.48-.92-.25A24.81,24.81,0,0,1,31.74,67l-1.47.1c-1.3-1-1.14-.14-1.1.81C29.27,70.5,29.79,73.12,28.84,75.68Z" style="fill:#f8fcfe"/><path d="M55.65,22.65c2.9-2.56,5.69-5.25,8.56-7.84.41-.37,1.22-1.13,1.64-.42-.18,1.78-1.29,3.07-2.35,4.36C57.41,26.15,50.31,32.52,43,38.65c-1.31-2.76-1.2-3.31.9-5.19C45.47,32.05,53.48,24.57,55.65,22.65Z" style="fill:#f8fcfe"/><path d="M42.75,73.39A58,58,0,0,1,25.6,81.65a120,120,0,0,0-14.13,5.59c-1.49-1.07-.42-1.75.43-2.29a31.51,31.51,0,0,1,7.62-3.15c5.28-1.65,16.37-8.6,16.94-9C38.72,71.45,40.73,72.35,42.75,73.39Z" style="fill:#f8fcfe"/><path d="M25.22,60.11c-.39-1.07-1.08-2-2.28-2s-1.16,1.32-1.36,2.23c0,.41,0,.83,0,1.24s.21,1.12-.73.9A8.72,8.72,0,0,0,19,62.33c-2.11,0-3.3,1-4,3.17a4.32,4.32,0,0,0,1.4,5.09c1.2-.36.82-1.45,1-2.25.53-2.34,1.8-3.18,3.91-2.52l1.88.39c.57.08,1.19.39,1.62-.3h0a10.24,10.24,0,0,0,.74-4.32A8,8,0,0,0,25.22,60.11Z" style="fill:#f8fcfe"/><path d="M78.77,6.8C76.05,9.24,46.12,38.42,45.48,39.05c-1.75,1.74-1.76,1.89-.16,4,2.1.23,2.86-1.57,3.91-2.74,10.36-11.67,21.89-22.18,33-33.09C80.84,5.41,80.38,5.35,78.77,6.8Z" style="fill:#f8fcfe"/><path d="M21.23,54.56c0,1.1-.41,2.12-1.26,2-1.41-.19-1.78-1.55-1.76-2.81,0-.93.14-2.29,1.37-2.1C21.14,51.88,20.76,53.64,21.23,54.56Z" style="fill:#f8fcfe"/><g style="opacity:0.6"><path d="M82.24,7.18c-11.12,10.91-22.65,21.42-33,33.09-1,1.17-1.81,3-3.91,2.74.86,1.14,1.71,1.14,2.68.08,2-2.2,4.08-4.31,6-6.55.74-.85,1.16-.86,1.93-.08q8.37,8.48,16.84,16.85c.67.66.64,1,0,1.64Q58.94,68.75,45.14,82.61c-.58.57-.9.64-1.5,0-1.69-1.77-3.47-3.46-5.36-5.34,1.5-.9,2.92-1.71,4.29-2.59.46-.29,1.41-.69.18-1.29A58,58,0,0,1,25.6,81.65a120,120,0,0,0-14.13,5.59c.61.77,1.32.34,1.89,0,5.36-2.93,11.29-4.29,17-6.39,2.44-.91,4.92-3.36,7.12-2.78s3.93,3.35,5.7,5.3c1,1.11,1.53,1,2.52,0q13.92-14,28-28c1-1,1.09-1.46,0-2.51C67.92,47.29,62.31,41.58,56.6,36c-.84-.82-.9-1.27,0-2.11,2.54-2.48,4.95-5.1,7.48-7.58C70,20.42,76,14.64,81.94,8.82,82.39,8.38,83.28,7.93,82.24,7.18Z" style="fill:#fefefe"/><path d="M21.59,61.62V60.38c-1.71-1.65-3.35-3.38-5.14-4.94-1.12-1-1.13-1.58,0-2.66,8.09-8,16.1-16,24.13-24.06,1.23-1.23,2.46-3.35,3.76-3.4,1.48-.05,2.59,2.21,3.91,3.42a2.31,2.31,0,0,1,.24.29.66.66,0,0,0,.7-.64c-1.2-1.18-2.46-2.3-3.57-3.55-.87-1-1.43-1.08-2.41,0-2.8,2.95-5.73,5.78-8.61,8.65L15.09,52.92c-.53.54-1.49,1-.42,2C17,57.08,19.29,59.37,21.59,61.62Z" style="fill:#fefefe"/><path d="M43.82,39.08c.31-.13,2.9-2.41,3.94-3.27.71-.59,7.8-6.94,9.59-8.79A67,67,0,0,0,65.78,16.9a2,2,0,0,0,.07-2.51c-.18,1.77-1.29,3.07-2.35,4.36C57.41,26.15,50.31,32.52,43,38.65,43.31,39.11,43.58,39.18,43.82,39.08Z" style="fill:#fefefe"/><path d="M30.3,74.93c.13-1.29.16-2.6.25-4.13L33.78,74c.31,0,.66,0,.76-.43-1.06-1.1-2.06-2.27-3.2-3.27a3,3,0,0,1-1.07-3.23c-1.3-1-1.14-.14-1.1.81.1,2.6.62,5.22-.33,7.78C29.86,76.46,30.21,75.81,30.3,74.93Z" style="fill:#fefefe"/><path d="M17.33,68.34c-.19.8.19,1.89-1,2.25.18.33.28.76.78.7.71-.1.62-.7.7-1.18.35-2.07.77-4.08,3.44-4.29C19.13,65.16,17.86,66,17.33,68.34Z" style="fill:#fefefe"/><path d="M26.63,66.69l0-1.18h0l-1.53-1.44c-.09.43-.23,1.31-.38,1.84C25.6,65.63,26,66.4,26.63,66.69Z" style="fill:#fefefe"/><path d="M47.12,65.12c1.55.62,2.43-.2,2.79-1.53,1.18-4.36.62-8.69-.48-13A3,3,0,0,0,48,49a31.88,31.88,0,0,1,1.44,10.8C49.37,61.82,49.14,63.88,47.12,65.12Z" style="fill:#fefefe"/><path d="M30.18,63.89a20.66,20.66,0,0,0-.73-9.34c-.29-.8-.41-1.82-1.62-1.86a19.18,19.18,0,0,1,1.38,10C29.11,63.5,29.07,64.08,30.18,63.89Z" style="fill:#fefefe"/><path d="M38.7,62a27.78,27.78,0,0,1-1.15-5.17c-.12-.72-.06-1.6-1.15-1.67.23,1.55.41,3.12.71,4.67A2.45,2.45,0,0,0,38.7,62Z" style="fill:#fefefe"/><path d="M42.57,64.63c-.15,1.19-.76,1.87-2,1.71,2,1.22,2.79.76,3.26-2C43.21,63.67,42.73,63.25,42.57,64.63Z" style="fill:#fefefe"/><path d="M36.68,64.86A24.81,24.81,0,0,1,31.74,67c2.34.59,4.11-.6,5.86-1.88C37.4,64.63,37.06,64.63,36.68,64.86Z" style="fill:#fefefe"/></g></svg>