<svg id="Layer_1" data-name="Layer 1" xmlns="http://www.w3.org/2000/svg" viewBox="0 0 93.45 93.45"><title>customer</title><path d="M16.32,54.37c0-3.89,0-7.78,0-11.67h0V40.77c0-3.31,0-6.63,0-9.94,0-.71-.21-1-.93-.94A19.65,19.65,0,0,0,12.3,30a11.83,11.83,0,0,0-3.64,1.31c-2.14,1.3-2.7,3.55-2.74,5.84-.09,5.82,0,11.64,0,17.46,0,.63.21.83.83.83,2.86,0,5.73,0,8.59,0C16.13,55.45,16.32,55.14,16.32,54.37Z" style="fill:#fdfffe"/><path d="M19.76,42.62c0,4,0,7.92,0,11.88,0,.71.2,1,.93.94,2.8,0,5.6,0,8.39,0,.87,0,1.08-.24,1.08-1.08,0-5.41,0-10.81,0-16.22a15.65,15.65,0,0,0-.46-3.6,5.51,5.51,0,0,0-3.52-3.88,13.71,13.71,0,0,0-5.19-.78c-.91,0-1.21.21-1.19,1.16C19.79,34.9,19.76,38.76,19.76,42.62Z" style="fill:#fdfffe"/><path d="M52.49,55.47c2.59-.43,5-2.53,4.78-5.42l.24-.09a10,10,0,0,0-.95-2.18,13.57,13.57,0,0,0-1.94-1.66c-1.57-1.37-3.11-2.78-4.68-4.15-1.73-1.51-3.58-2.9-5.2-4.52a3.63,3.63,0,0,0-3.54-1.24c-2.37.39-3.94,1.52-4.49,3.83-.37,1.6-.49,3.24,1.22,4.36a20.21,20.21,0,0,1,2.18,1.86c3,2.7,6.06,5.39,9,8.13A3.63,3.63,0,0,0,52.49,55.47Z" style="fill:#fdfffe"/><path d="M87.57,37.17c0-.74-.25-.93-.95-.92-2.8,0-5.59,0-8.39,0-.83,0-1.11.18-1.1,1.06.06,2.83,0,5.66,0,8.48h0c0,2.9,0,5.79,0,8.69,0,.67.11,1,.88,1,2.89,0,5.79,0,8.68,0,.71,0,.86-.27.86-.91Q87.54,45.85,87.57,37.17Z" style="fill:#fdfffe"/><path d="M67.53,54.55a13.77,13.77,0,0,0,5.65.89c.7,0,.87-.26.86-.91,0-2.89,0-5.79,0-8.68V37.16c0-.47,0-.9-.65-.9-3.06,0-6.11,0-9.17,0a.82.82,0,0,0-.55.55c0,4.33,0,8.68.26,13A5.5,5.5,0,0,0,67.53,54.55Z" style="fill:#fdfffe"/><path d="M37,55.43c1.7,0,3.41,0,5.11,0h2.67l.13-.3c-.38-.32-.77-.62-1.14-.95-1.88-1.63-3.74-3.29-5.65-4.89a1,1,0,0,0-1,.07,5.15,5.15,0,0,0-1.36,5.13A1,1,0,0,0,37,55.43Z" style="fill:#fdfffe"/><path d="M49.27,37Q51,38.6,52.82,40.13c.85.73,1.73,1.42,2.57,2.15.39.34.65.32,1.07,0a5.13,5.13,0,0,0,1.46-5,1.25,1.25,0,0,0-1.45-1c-1.93.06-3.86,0-5.79,0h-2A4.22,4.22,0,0,0,49.27,37Z" style="fill:#fdfffe"/><path d="M80.81,60.15c-.74-.07-1.49,0-2.22-.07-.3,0-.58-.33-.86-.5.28-.22.56-.61.86-.64.89-.08,1.8,0,2.7,0,.4,0,.87,0,.75-.55,0-.21-.45-.47-.7-.49-1.06,0-2.12,0-3.18,0a1.84,1.84,0,0,0-1.75,1.68,1.8,1.8,0,0,0,1.76,1.68,11,11,0,0,1,1.63,0c.41.07,1.09.33,1.11.56,0,.66-.57.61-1.06.61-1,0-1.93,0-2.89,0-.19,0-.44.36-.51.59s.31.44.51.46a15.93,15.93,0,0,0,1.83,0h0c.64,0,1.29,0,1.93,0,1-.06,1.37-.5,1.4-1.57S81.74,60.24,80.81,60.15Z" style="fill:#fdfffe"/><path d="M25.34,57.83a3.26,3.26,0,0,0-3,2.87,3.1,3.1,0,0,0,3,2.83,2.67,2.67,0,0,0,2.86-2.79A2.81,2.81,0,0,0,25.34,57.83Zm0,4.65a1.8,1.8,0,0,1-1.72-1.72,2,2,0,0,1,1.73-1.85,1.72,1.72,0,0,1,1.71,1.81A1.61,1.61,0,0,1,25.35,62.48Z" style="fill:#fdfffe"/><path d="M66.3,57.85a2.62,2.62,0,0,0-2.75,2.9,2.49,2.49,0,0,0,2.8,2.78,2.68,2.68,0,0,0,2.87-2.78A2.84,2.84,0,0,0,66.3,57.85Zm0,4.64a1.73,1.73,0,0,1-1.74-1.77,1.92,1.92,0,0,1,1.75-1.81A1.78,1.78,0,0,1,68,60.68,1.66,1.66,0,0,1,66.35,62.49Z" style="fill:#fdfffe"/><path d="M59.83,57.85A2.77,2.77,0,0,0,57,60.74a2.69,2.69,0,0,0,2.83,2.79,2.74,2.74,0,0,0,2.95-2.81A2.83,2.83,0,0,0,59.83,57.85Zm.07,4.65a1.88,1.88,0,0,1-1.82-1.75,2,2,0,0,1,1.74-1.84,2,2,0,0,1,1.88,1.81A1.93,1.93,0,0,1,59.9,62.5Z" style="fill:#fdfffe"/><path d="M46.07,57.89a31.57,31.57,0,0,0-3.37,0c-.23,0-.45.31-.68.47.24.19.46.52.71.54a21.94,21.94,0,0,0,2.69,0c.65,0,1.17.22,1.19.84s-.58.91-1.23.9c-.87,0-1.74,0-2.6,0-.26,0-.49.33-.74.5.26.17.5.44.78.49a13.73,13.73,0,0,0,1.44,0A1.76,1.76,0,0,1,46,62.9c.24.82.69.68,1.36.47-.09-.25-.14-.4-.2-.55a1.63,1.63,0,0,1,.24-2A1.78,1.78,0,0,0,46.07,57.89Z" style="fill:#fdfffe"/><path d="M34.25,57.87a1,1,0,0,0-.63.71,26.19,26.19,0,0,1-.2,2.68,1.77,1.77,0,0,1-1.11,1.12,2.07,2.07,0,0,1-1.61-.46,2.79,2.79,0,0,1-.56-1.56c-.09-.63,0-1.29-.05-1.92,0-.21-.36-.39-.55-.59-.16.19-.42.36-.46.57a6.51,6.51,0,0,0,0,1.25H29a13.43,13.43,0,0,0,.19,1.91,2.43,2.43,0,0,0,1.91,1.89,2.84,2.84,0,0,0,3.66-2.42c.09-.82.06-1.66.1-2.5C34.88,58.11,34.76,57.72,34.25,57.87Z" style="fill:#fdfffe"/><path d="M19.5,57.86c-.44,0-.9,0-1.34,0a11.25,11.25,0,0,0-1.54,0c-.21,0-.38.3-.57.47.2.18.38.51.59.53.8.06,1.6,0,2.41,0a1.55,1.55,0,0,1,1.66,1.37c0,.6-.87,1.28-1.68,1.3-.64,0-1.28,0-1.92,0-1.11,0-1.28.19-1.12,1.31,0,.21.21.57.33.57a1.94,1.94,0,0,0,.81-.27,4.74,4.74,0,0,1,1-.5c.49-.1,1,0,1.53-.09a2.25,2.25,0,0,0,2.11-2.48A2.28,2.28,0,0,0,19.5,57.86Z" style="fill:#fdfffe"/><path d="M40.72,57.87a14.56,14.56,0,0,0-2.88.06,2.37,2.37,0,0,0-2.09,1.72,2.88,2.88,0,0,0,.6,3.1c.88.88,1.91.78,3,.78a8.55,8.55,0,0,0,1.34,0c.24,0,.45-.29.67-.45-.23-.18-.45-.49-.7-.51-.83-.09-1.67,0-2.5-.11a1.77,1.77,0,0,1,.26-3.52c.77,0,1.54,0,2.31,0,.22,0,.43-.32.64-.49C41.13,58.22,40.93,57.88,40.72,57.87Z" style="fill:#fdfffe"/><path d="M55.73,57.88c-1.6-.05-3.21-.05-4.81,0-.2,0-.39.36-.58.55.19.16.36.43.57.46a16.34,16.34,0,0,0,1.74,0c0,1.43,0,2.68,0,3.93,0,.47.15.7.66.7s.67-.23.66-.7c0-.64,0-1.29,0-1.93,0-1.82,0-1.81,1.75-2,.21,0,.39-.29.59-.44C56.1,58.25,55.92,57.88,55.73,57.88Z" style="fill:#fdfffe"/><path d="M72.79,62.46a1.61,1.61,0,0,1-1.64-1.74c0-.67,0-1.35,0-2,0-.44,0-.85-.6-.86s-.66.32-.64.81a13.64,13.64,0,0,0,0,1.92,6.13,6.13,0,0,0,.7,1.93,2.59,2.59,0,0,0,2.74,1,12.8,12.8,0,0,0,1.69,0c.25,0,.46-.31.69-.47-.22-.17-.43-.47-.66-.5C74.33,62.46,73.55,62.52,72.79,62.46Z" style="fill:#fdfffe"/><path d="M38.62,60.17c-.17,0-.39.36-.42.57s.25.42.43.46a5.25,5.25,0,0,0,1,0,4.81,4.81,0,0,0,1.14,0,.69.69,0,0,0,.46-.51.71.71,0,0,0-.47-.52A13.34,13.34,0,0,0,38.62,60.17Z" style="fill:#fdfffe"/><path d="M31.81,60.78a.81.81,0,0,0,.59-.52,11.26,11.26,0,0,0,.05-1.43c.09-.86-.22-1.2-1.24-.86,0,.77,0,1.53,0,2.29A.77.77,0,0,0,31.81,60.78Z" style="fill:#fdfffe"/></svg>