<svg id="Layer_1" data-name="Layer 1" xmlns="http://www.w3.org/2000/svg" viewBox="0 0 93.45 93.45"><title>customer</title><path d="M47.3,10.34A36.39,36.39,0,1,0,83.07,47.21,36.38,36.38,0,0,0,47.3,10.34Zm-.56,70.32a33.94,33.94,0,1,1,33.9-34.35A33.91,33.91,0,0,1,46.74,80.66Z" style="fill:#f8fcfe"/><path d="M46.75,13.81A32.9,32.9,0,1,0,79.61,46.93,33,33,0,0,0,46.75,13.81Zm13,13.2a4.25,4.25,0,0,1,6.84,3.71c0,.35-.11.49-.46.24a3.15,3.15,0,0,0-3.16-.53c-.37.15-.4-.07-.41-.33a2.55,2.55,0,0,1,.22-1,2.52,2.52,0,0,0,.17-1.53c-.08-.29,0-.72-.39-.77s-.5.33-.68.58a4.83,4.83,0,0,0-.57,2,4.24,4.24,0,0,0-1.56-1.76C59.4,27.4,59.43,27.26,59.72,27Zm-.6.69A4.41,4.41,0,0,0,60,29.75a1.27,1.27,0,0,1,.11,1.32,2.58,2.58,0,0,0,1,3.1c.47.3.85.6.43,1.26-.1.16.39.55-.31.8.81.18,1.29.06,1.51-.47s.57-.6,1.11-.5A5.12,5.12,0,0,1,60.45,37a2.73,2.73,0,0,1-2.64-1.46C56.61,33.41,57.26,29.4,59.12,27.7ZM48.49,20a4.5,4.5,0,0,1,4.76-2.27,4.6,4.6,0,0,1,3.64,3.92,9.52,9.52,0,0,1-2.15,7.42,5.59,5.59,0,0,1-1,.92,3.08,3.08,0,0,1-4.75-.7,8.46,8.46,0,0,1-1.52-4.87A8.46,8.46,0,0,1,48.49,20Zm-.18,13.73a18.22,18.22,0,0,1,3.84,1c2.72.9,4.14,3,5.25,5.45,1.54,3.37,1.77,6.77-.14,10.1a6.36,6.36,0,0,1-3,2.78,3.61,3.61,0,0,1-3,.08.81.81,0,0,0-1.08.27,12.41,12.41,0,0,0-1.7,2.7c-.15.29-.24.68-.68.65s-.47-.42-.58-.73c-1.25-3.54-3.62-5.3-7.45-5.46-1.38-.06-2.76,0-4.14,0-2.05,0-3-.76-3.49-2.75a11.18,11.18,0,0,1-.27-3c-.34-1.27.37-2.07,1.74-2.65,1.55-.65,3-1.53,4.52-2.31.32-.16.5-.29.41-.75A3.61,3.61,0,0,1,40.43,35,12.94,12.94,0,0,1,48.31,33.73ZM35.5,20.88a4.43,4.43,0,0,1,3.86-3.18,4.48,4.48,0,0,1,4.58,2.73,8.93,8.93,0,0,1,.76,4.12,8.39,8.39,0,0,1-1.53,4.75,3.11,3.11,0,0,1-4.82.64A9.33,9.33,0,0,1,35.5,20.88ZM25.93,29a6.49,6.49,0,0,0,1.16,2.32,6.32,6.32,0,0,0,1.41,1.22c.38.24.76.47,1.21-.11,0,.71-.28,1.16-.12,1.83.79-1.24,2.32-1.45,3-2.76.37-.72,1.08-.37,1.64,0,.1-.19-.06-.25-.11-.35-.81-1.7-1.23-1.9-2.94-1.15-.52.23-.62-.18-.9-.3a8.13,8.13,0,0,1-2.63-1.79c-.67-.7-.69-.72.16-1.18a.9.9,0,0,1,.59-.2c.24.59-.51,1.27.13,1.8a3.75,3.75,0,0,0,1.78.92,10.74,10.74,0,0,1-1.24-2.35c-.17-.52-.06-.68.49-.71A4.24,4.24,0,0,1,33.39,28a7.73,7.73,0,0,1,1.46,6.35,3.25,3.25,0,0,1-1.58,2.31c-.43.25-.88.49-.59-.45-.74.25-1.43.57-2-.05a1.83,1.83,0,0,1-.19-2.25,2.09,2.09,0,0,0-.91,2.29C27.58,35.45,24.81,31.7,25.93,29Zm9.19,40.57a23.38,23.38,0,0,1-5.6-2.11c-4-2.18-5.77-5.71-5-10.17A20.46,20.46,0,0,1,30.62,46.5c.6,1.52,1.16,2.89,1.68,4.28.17.44.36.61.85.47a6.64,6.64,0,0,1,2.18-.09,2.21,2.21,0,0,1,1.52.69c.75.76,1.62,1.41,2.31,2.22a4,4,0,0,0,4,1.25c.35,0,.58-.08.7.34a8.73,8.73,0,0,1,.41,4,3.29,3.29,0,0,1-1.73,2.46,7.06,7.06,0,0,1-2.12.75c-3.2.59-4.91,2.83-4.51,6C36,69.63,35.8,69.71,35.12,69.54ZM68.69,61.7c-.58,3.76-3,6.28-6.28,7.94-1.14.56-2.42.32-3.62.37-6.88.29-13.75.25-20.63,0-.61,0-.85-.24-.76-.85a10.58,10.58,0,0,1,.68-2.64,3.36,3.36,0,0,1,3.24-2.15c.75,0,1.51,0,2.26,0a2.81,2.81,0,0,0,2.61-1.56,7.42,7.42,0,0,0,.89-2.65c.4-2.78,2.21-4.22,4.72-4.9a21.65,21.65,0,0,1,9.61,0c.35.06.64.23.55.6s-.45.46-.86.38a21.5,21.5,0,0,0-8.23-.2,7.32,7.32,0,0,0-3.07,1.28,4.22,4.22,0,0,0-1.68,2.8,8.55,8.55,0,0,1-1.24,3.51,3.72,3.72,0,0,1-3.13,1.77c-.68,0-1.35,0-2,0a2.57,2.57,0,0,0-3,2.18C38.33,69,38.33,69,39.83,69c3.36.09,6.72.21,10.08.16C53.45,69.26,57,69,60.53,69A4.39,4.39,0,0,0,63,68.23c2.53-1.72,4.49-3.86,4.77-7.05a5.1,5.1,0,0,0-2.2-5,36.2,36.2,0,0,1-4.75-3.81A8.63,8.63,0,0,1,59,50.17,1.6,1.6,0,0,1,58.81,49a.49.49,0,0,1,.57-.42.43.43,0,0,1,.43.46,2.52,2.52,0,0,0,.89,1.76A27.68,27.68,0,0,0,66,55.31,6.12,6.12,0,0,1,68.69,61.7ZM58.33,57.76c-.06.31-.32.37-.57.36a8.72,8.72,0,0,0-2.18-.36A5.3,5.3,0,0,0,50.22,61c-.08.17-.14.34-.22.5-.14.32-.36.54-.73.36s-.33-.41-.21-.72a6.29,6.29,0,0,1,4.09-4.08,8.41,8.41,0,0,1,4.69,0C58.18,57.18,58.41,57.37,58.33,57.76Z" style="fill:#f8fcfe"/><path d="M30.05,65.39c-.39.47-.75.06-1.06-.2a7.38,7.38,0,0,1-2.53-7.71,14.22,14.22,0,0,1,2-4.79c.14-.22.27-.45.57-.49s.62.41.36.84a15.88,15.88,0,0,0-1.29,2.49c-.82,2.07-1.28,4.18-.41,6.36a6.4,6.4,0,0,0,2,2.58C29.93,64.71,30.42,64.94,30.05,65.39Z" style="fill:#f8fcfe"/><path d="M57.37,47.24a6.92,6.92,0,0,1-2.64,4.38c-1.92,1.44-3.83.91-4.7-1.31a14.24,14.24,0,0,1-.44-7,39.48,39.48,0,0,1,.95-4.82c.09-.39.18-.77-.3-.9s-.59.27-.68.64a29.83,29.83,0,0,0-1.12,9.49,8.2,8.2,0,0,0,1.26,4.13c.11.16.34.32.09.53a10.93,10.93,0,0,0-1.87,2.52,15.16,15.16,0,0,0-1.25-2.12,8.31,8.31,0,0,0-5.83-3.12,19.66,19.66,0,0,0-4.13-.09c-.49,0-1,0-1.48,0a2,2,0,0,1-2-1.71A9.88,9.88,0,0,1,32.93,44c0-.41.34-.49.6-.63,1.89-1,3.78-2,5.68-2.94.53-.27.75-.53.46-1.16a2.65,2.65,0,0,1,1.26-3.39,10.89,10.89,0,0,1,5.72-1.29,13.92,13.92,0,0,1,6.71,1.82,4.83,4.83,0,0,1,1.5,1.45C56.89,40.68,58.09,43.72,57.37,47.24Z" style="fill:#f8fcfe"/></svg>