<svg id="Layer_1" data-name="Layer 1" xmlns="http://www.w3.org/2000/svg" viewBox="0 0 93.45 93.45"><title>customer</title><path d="M72.49,59.32a4.71,4.71,0,0,1-5.22-4.79c0-2.34,0-4.68,0-7a3.48,3.48,0,0,0-2.9-3.86,8.34,8.34,0,0,0-5,.12,4.67,4.67,0,0,0-3.17,4.46q0,5.24,0,10.47v.62A4.71,4.71,0,0,1,51,54.72c0-2.38,0-4.76,0-7.14s-.86-3.43-3-4a8.42,8.42,0,0,0-4.77.13,4.73,4.73,0,0,0-3.26,4.52c0,.87,0,1.75,0,2.67h-5s-.07-.06-.07-.09c0-2.33-.31-4.7.73-6.92a10,10,0,0,1,7-5.68,11.4,11.4,0,0,1,9.53,1.61,9.62,9.62,0,0,1,.8.63c.26.21.5.45.77.7a2.71,2.71,0,0,0,.25-.19,11.14,11.14,0,0,1,9.31-3A10.45,10.45,0,0,1,71,42.58a8.15,8.15,0,0,1,1.46,4.64c0,3.9,0,7.81,0,11.71C72.52,59.05,72.5,59.17,72.49,59.32Z" style="fill:#f8fcfe"/><path d="M93.32,59.31l-.53,0c-2.76,0-5.51-.05-8.26,0-6,.13-9.37-4.76-9.92-8.63a11.33,11.33,0,0,1,2.87-9.93,8.91,8.91,0,0,1,6.33-2.88c1.22,0,2.45,0,3.72,0V43c-.59,0-1.17,0-1.76,0a13.22,13.22,0,0,0-2.17.24,4.22,4.22,0,0,0-3.19,2.82,7.48,7.48,0,0,0,0,5.6,3.3,3.3,0,0,0,3.22,2.08c1.52,0,3,.06,4.56,0,3.18-.13,4.4,1.89,4.9,4,.1.41.14.84.2,1.27A2,2,0,0,1,93.32,59.31Z" style="fill:#f8fcfe"/><path d="M32.27,59.34h-3c-.54,0-1.08,0-1.61,0s-.59-.16-.59-.61c0-5.46.05-10.92,0-16.37A4.18,4.18,0,0,1,30.93,38c.42-.06.85-.08,1.34-.12Z" style="fill:#f8fcfe"/><path d="M51,69.88a3.26,3.26,0,0,1-.3-1c0-1.71,0-3.43,0-5.14,0-.67.46-1.14,1-1a1.79,1.79,0,0,1,.68.58c.68.79,1.34,1.59,2,2.39l1.25,1.48c0-1.25,0-2.42,0-3.59a1,1,0,0,1,.3-.68.72.72,0,0,1,.65-.11.78.78,0,0,1,.41.56c0,1.93,0,3.86,0,5.79a2,2,0,0,1-.26.66h-.86l-3.65-4.44c-.1,1.24-.08,2.42-.12,3.6a2.86,2.86,0,0,1-.31.84Z" style="fill:#f8fcfe"/><path d="M34.87,69.88a5.73,5.73,0,0,1-.24-1.22c0-1.66,0-3.32,0-5a.85.85,0,0,1,.5-.86.71.71,0,0,1,.88.29c.86,1,1.71,2.09,2.58,3.13.27.32.56.62.92,1,0-1.28,0-2.49,0-3.69,0-.65.56-1,1.07-.63a.88.88,0,0,1,.31.6q0,2.87,0,5.73c0,.21-.21.42-.32.63H39.8l-3.73-4.43c0,.07-.06.08-.06.1,0,1.12,0,2.24,0,3.36a4.22,4.22,0,0,1-.26,1Z" style="fill:#f8fcfe"/><path d="M83.15,69.88A11.24,11.24,0,0,1,81.64,69a3.69,3.69,0,0,1,.17-5.52,3.51,3.51,0,0,1,3-.64,6.57,6.57,0,0,1,1.56.69,2.42,2.42,0,0,1,1.22,1.87,3.75,3.75,0,0,1-1.1,3.74,8.5,8.5,0,0,1-1.36.74Zm3-3.47a2,2,0,0,0-2-2.24,2.12,2.12,0,0,0-2.27,2.16A2.08,2.08,0,0,0,84,68.51,2,2,0,0,0,86.19,66.41Z" style="fill:#f8fcfe"/><path d="M28.86,69.88a6.31,6.31,0,0,1-1.58-1,3.71,3.71,0,0,1-.84-3.76,3.5,3.5,0,0,1,4.25-2.28,3,3,0,0,1,2.53,2.29c.49,1.92,0,3.9-2.19,4.59-.05,0-.09.08-.13.12Zm.95-1.39a2,2,0,0,0,2.26-2.08,2.13,2.13,0,0,0-2.22-2.23,2,2,0,0,0-2.2,2.24A2,2,0,0,0,29.81,68.49Z" style="fill:#f8fcfe"/><path d="M73.81,69.88a2.86,2.86,0,0,1-.29-.85c0-1.84,0-3.68,0-5.52,0-.49.22-.73.69-.73a.66.66,0,0,1,.7.7,12,12,0,0,1,0,1.34c0,.43.2.58.55.59.66,0,1.33,0,2,0,.15,0,.37-.27.39-.43,0-.46,0-.93,0-1.39s.28-.8.71-.8.68.3.68.82c0,1.87,0,3.75,0,5.62a2,2,0,0,1-.25.66H78.1a4.72,4.72,0,0,1-.26-1c0-.68,0-1.37,0-2.05H75l-.34,3Z" style="fill:#f8fcfe"/><path d="M68.45,69.88a12.66,12.66,0,0,1-1.21-.64c-.28-.19-.42-.94-.23-1.1a.79.79,0,0,1,1.07,0,2.2,2.2,0,0,0,1.71.39,1.08,1.08,0,0,0,.59-.18c.16-.13.34-.38.31-.55a.78.78,0,0,0-.44-.5c-.61-.22-1.24-.38-1.86-.56a1.89,1.89,0,0,1-.88-3.1A2.74,2.74,0,0,1,69,62.84a2.3,2.3,0,0,1,2.31.56c.29.3.4.59.17.93a.77.77,0,0,1-1.09.11,1.26,1.26,0,0,0-1.44-.12,1.14,1.14,0,0,0-.42.6c-.12.33.19.43.41.5.51.16,1,.25,1.56.42a2.18,2.18,0,0,1,1.39.88,2,2,0,0,1-1.13,3,1.88,1.88,0,0,0-.24.14Z" style="fill:#f8fcfe"/><path d="M58.58,69.88a4,4,0,0,1-.26-.93c0-1.8,0-3.6,0-5.41,0-.61.15-.76.75-.76h2.68c.59,0,.76.17.76.71s-.21.68-.73.68-1,0-1.5,0-.59.09-.57.51-.09.86.53.88a8.42,8.42,0,0,0,1.23,0c.5,0,.54.39.54.62s0,.67-.52.64-.86,0-1.29,0-.49.13-.48.47v1.21h1.88c.88,0,1.18.6.74,1.39Z" style="fill:#f8fcfe"/><path d="M89.16,69.88a3.65,3.65,0,0,1-.3-1c0-1.72,0-3.43,0-5.15,0-.64.29-.92.94-.92a16.45,16.45,0,0,1,1.72,0,2.3,2.3,0,0,1,2,1.51v1.29a2.4,2.4,0,0,1-2.39,1.51c-.82,0-.8,0-.83.82,0,.66.18,1.35-.22,2Zm1.91-5.71c-.83,0-.83,0-.83.71s0,.82.66.82,1.15-.27,1.15-.77S91.69,64.18,91.07,64.17Z" style="fill:#f8fcfe"/><path d="M42.59,69.88a3.09,3.09,0,0,1-.3-.85c0-1.84,0-3.68,0-5.52,0-.45.15-.72.63-.73s.65.27.64.72c0,1.41,0,2.82,0,4.23,0,.67.22.89.89.89h1.18c.35,0,.8-.09.91.34.08.27-.1.61-.17.92Z" style="fill:#f8fcfe"/><path d="M48.28,69.88A3.53,3.53,0,0,1,48,69c0-1.81,0-3.61,0-5.41,0-.52.23-.78.7-.78a.77.77,0,0,1,.69.8c0,1.83,0,3.67,0,5.51a3,3,0,0,1-.23.79Z" style="fill:#f8fcfe"/><path d="M24.13,56.69q0-8.52,0-17v-.59a21.56,21.56,0,0,1-2.31-.66,3.5,3.5,0,0,1-2-2.64,27,27,0,0,1-.28-4.92,7.71,7.71,0,0,0-1.63-4.34,7.42,7.42,0,0,0-4.31-2.66A10.63,10.63,0,0,0,9.76,24a5.24,5.24,0,0,0-1.07.44,7.22,7.22,0,0,0-3.31,3.22,6.1,6.1,0,0,0-.78,3.05c0,.54,0,1.07,0,1.73H0V58.3c.13.2.26.41.4.61a2,2,0,0,0,1.71.79c6.45,0,12.91,0,19.36,0a2.5,2.5,0,0,0,2.34-.84,1.76,1.76,0,0,0,.35-1.56A2.32,2.32,0,0,1,24.13,56.69ZM17.26,32.36H6.9A5.22,5.22,0,0,1,8.85,27a5,5,0,0,1,5.67-.43C16.7,27.81,17.47,29.85,17.26,32.36Z" style="fill:#f8fcfe"/><path d="M25.06,26.63h.08l.12,0h.25a1.3,1.3,0,0,0,1.39-1.11,1.62,1.62,0,0,0,.07-.44,1.56,1.56,0,1,0-3.11,0,1.58,1.58,0,0,0,.29.9A1.27,1.27,0,0,0,25.06,26.63Z" style="fill:#f8fcfe"/><path d="M29.45,26.17a3.88,3.88,0,1,0,3.87,3.88A3.88,3.88,0,0,0,29.45,26.17Z" style="fill:#f8fcfe"/><path d="M26.54,34.35a2.77,2.77,0,0,0-2-2.22,3.13,3.13,0,0,0-.81-.14h-.14a3.1,3.1,0,0,0-.92.14A2.8,2.8,0,0,0,20.54,35v0c0,.12,0,.24,0,.35A2.75,2.75,0,0,0,22.92,38a2.84,2.84,0,0,0,.66.07h.06a2.91,2.91,0,0,0,3-2.73c0-.1,0-.2,0-.3A2.93,2.93,0,0,0,26.54,34.35Z" style="fill:#f8fcfe"/></svg>