<svg id="Layer_1" data-name="Layer 1" xmlns="http://www.w3.org/2000/svg" viewBox="0 0 93.45 93.45"><title>customer</title><path d="M21.46,43.46a2.12,2.12,0,0,1,.06-2C24.69,35.3,27.81,29.11,31,22.93c.33-.65.3-.87-.49-.77-1.64.21-3.28.41-4.92.52a1.32,1.32,0,0,0-1.25.88q-5.05,10-10.16,20.06c-.44.87-.9,1.72-1.35,2.59l-.19-.05V28l-1,.6c-1.59,1-3,2.12-4.73,3V63.68l5.73,3.64c0-2.64,0-5.07,0-7.49A3,3,0,0,1,13,58.4c1.05-2,2.07-4.11,3.11-6.16.5-1,1-2,1.57-3.05.15.32.24.52.32.72q4.61,11.31,9.19,22.64a1.38,1.38,0,0,0,1.35,1c1.48.13,3,.29,4.46.44,1.21.12,1.2.12.75-1Q27.6,58.23,21.46,43.46Z" style="fill:#f8fcfe"/><path d="M60.76,31.68a25.76,25.76,0,0,0-5.51-10.27c-3.91-4.18-8.83-4.25-12.87-.21a21.15,21.15,0,0,0-4.82,7.91,52,52,0,0,0-.93,32.47,27,27,0,0,0,5,9.9,10.14,10.14,0,0,0,13.23,2.23c3.05-1.89,5-4.75,6.55-7.87a2.16,2.16,0,0,0,.1-1c0-3,0-6,0-9s0-6.23,0-9.35c0-.59-.13-.8-.77-.79-3.71,0-7.42,0-11.13,0-.51,0-.7.12-.69.67,0,2.55,0,5.11,0,7.66,0,.55.18.67.69.67,1.81,0,3.62,0,5.43,0,.59,0,.82.13.8.77a22.14,22.14,0,0,0,0,3.55,5.25,5.25,0,0,1-1.81,4.48A11.07,11.07,0,0,1,52,65.21a5,5,0,0,1-6.43-.53A9.24,9.24,0,0,1,43,60.51a40.22,40.22,0,0,1-1-23,16.08,16.08,0,0,1,3.77-7.41c2.76-2.87,5.12-2.65,7.43.62a16.72,16.72,0,0,1,2.29,4.78.72.72,0,0,0,.88.59c1.55-.1,3.1-.23,4.66-.26.71,0,.74-.3.59-.85C61.35,33.9,61.11,32.77,60.76,31.68Z" style="fill:#f8fcfe"/><path d="M86.55,36.28c0-1.12,0-2.24,0-3.36a1,1,0,0,0-.69-1.14Q77,27.52,68.24,23.19c-.83-.41-.89-.16-.89.59,0,7.7,0,15.39,0,23.08s0,15.39,0,23.08c0,.27-.14.63.09.79s.56-.17.8-.32c1.34-.85,2.65-1.75,4-2.56A1.34,1.34,0,0,0,73,66.49c0-5.29,0-10.58,0-15.88,0-.63.15-.85.82-.86,3.08-.06,6.16-.21,9.25-.26.84,0,1-.29,1-1.08a32,32,0,0,1,0-3.92c.07-.94-.31-1.13-1.14-1.17-2.92-.1-5.84-.31-8.77-.4-.92,0-1.2-.3-1.18-1.24.08-2.81,0-5.61,0-8.41,0-1.17,0-1.17,1.1-.75C78,34,81.83,35.41,85.69,36.9,86.44,37.19,86.58,37,86.55,36.28Z" style="fill:#f8fcfe"/></svg>