<svg id="Layer_1" data-name="Layer 1" xmlns="http://www.w3.org/2000/svg" viewBox="0 0 93.45 93.45"><title>customer</title><path d="M70,47.18a22.58,22.58,0,0,0,.55-8H66.22a18.07,18.07,0,0,1-.4,7c-1.33,5.38-1,9.42.1,12.63h4.67C69.31,56,68.73,52.4,70,47.18Z" style="fill:#f8fcfe"/><path d="M61.85,51.38a20.33,20.33,0,0,1-1.49,7.39H50.47c-1.54-2.53-1.95-5.5-1.29-9.5,0-.2.07-.4.1-.6s0-.25.07-.37c.07-.33.14-.67.22-1l.06-.25c.07-.3.14-.61.22-.92a17.63,17.63,0,0,0,.42-7h4.36a21.72,21.72,0,0,1-.52,7.76l-.06.28c0,.13-.07.26-.1.39l0,0-.09.39-.09.4c0,.2-.08.4-.12.59s0,.16-.05.24,0,.16,0,.25-.07.38-.1.56-.06.38-.08.57c-.52,4,.5,5.69,1.56,6.92a.71.71,0,0,0,.57.33.43.43,0,0,0,.37-.11c.33-.28,1.42-1.57,1.67-6.72C59,51.19,60.45,51.3,61.85,51.38Z" style="fill:#f8fcfe"/><path d="M44.42,58.77h-6s-.35-.69-.71-1.51c-.13-.28-.3-.31-.49-.22a17.59,17.59,0,0,1-.45,1.73H32.11c1.83-3.94,1.16-9.16.9-10.69q2.22.18,4.44.42a29,29,0,0,1,.23,3.63c0,.58,0,1.18-.06,1.81,0,0,0,3.87,1.28,3.63a2.65,2.65,0,0,0,1.92-1.5,19,19,0,0,0,.45-7l.26,0c1.3.17,2.63.37,3.93.57l.22,0A20,20,0,0,1,44.42,58.77Z" style="fill:#f8fcfe"/><path d="M28.6,58.77H23.82a12,12,0,0,0,1.32-8.91c-1.26-4.31-1.73-7.57-1.42-10.7h4.34A16.83,16.83,0,0,0,28.2,44c.12.73.28,1.51.48,2.35,0,.1.05.19.07.29.1.38.2.77.31,1.17s.15.54.23.82A15.44,15.44,0,0,1,28.6,58.77Z" style="fill:#f8fcfe"/><circle cx="60.28" cy="37.33" r="2.65" style="fill:#f8fcfe"/><circle cx="39.56" cy="37.33" r="2.65" style="fill:#f8fcfe"/><path d="M22.82,42.49a20.59,20.59,0,0,1,0-2.07,116.15,116.15,0,0,0-19,1.28v2.1l.44-.07A114.15,114.15,0,0,1,22.82,42.49Z" style="fill:#f8fcfe"/><path d="M28.8,40.6a16.56,16.56,0,0,0,.08,2.08,162.73,162.73,0,0,1,16.71,1.76l3.66.54c.13-.69.23-1.37.29-2q-1.77-.24-3.63-.54A165.56,165.56,0,0,0,28.8,40.6Z" style="fill:#f8fcfe"/><path d="M55.24,45.7c3.48.36,6.69.59,9.65.7,0-.15.07-.31.11-.47q.19-.8.33-1.59c-3-.1-6.26-.32-9.81-.69C55.46,44.33,55.36,45,55.24,45.7Z" style="fill:#f8fcfe"/><path d="M71.4,44.41c-.09.69-.2,1.39-.35,2.08a68.26,68.26,0,0,0,18.64-2.41V41.89C86.16,43,80.3,44.26,71.4,44.41Z" style="fill:#f8fcfe"/><path d="M3.76,46V48.1a114.84,114.84,0,0,1,19.71-1.32c-.16-.72-.29-1.41-.39-2.08A117.07,117.07,0,0,0,3.76,46Z" style="fill:#f8fcfe"/><path d="M70.55,48.69c-.14.72-.24,1.42-.31,2.09,9.26,0,15.51-1.23,19.45-2.42V46.17a45.4,45.4,0,0,1-6,1.44A80.76,80.76,0,0,1,70.55,48.69Z" style="fill:#f8fcfe"/><path d="M54.33,49.89l2.39.24c2.1.2,4.11.35,6,.46l1.46.07c.06-.68.15-1.37.26-2.07-3-.13-6.18-.37-9.69-.74C54.57,48.59,54.43,49.27,54.33,49.89Z" style="fill:#f8fcfe"/><path d="M29.23,44.91c.13.66.29,1.35.49,2.1l2.25.14q3,.23,6.23.58c1.09.12,2.19.26,3.32.4h0c1.33.18,2.69.38,4.07.59l.87.14,1.88.27c.11-.65.24-1.33.4-2l-2.83-.42A164.37,164.37,0,0,0,29.23,44.91Z" style="fill:#f8fcfe"/><path d="M53.35,50.63l.09-.56c0,.19-.06.38-.08.57Z" style="fill:#f8fcfe"/><path d="M54.11,46.92l-.06.28c0,.13-.07.26-.1.39l.16-.67Z" style="fill:#f8fcfe"/><path d="M28.2,44c.12.73.28,1.51.48,2.35-.11-.45-.2-.87-.28-1.29L28.18,44Z" style="fill:#f8fcfe"/><path d="M28.75,46.65c.1.38.2.77.31,1.17h0l-.15-.6Z" style="fill:#f8fcfe"/></svg>