<svg id="Layer_1" data-name="Layer 1" xmlns="http://www.w3.org/2000/svg" viewBox="0 0 93.45 93.45"><title>customer</title><path d="M91.88,33.9v-.64c-.63-1.39-1.45-1.83-2.63-1.28-3,1.41-6,2.93-9,4.27-.68.3-.67.12-.66-.43,0-1.34,0-2.67,0-4A1.51,1.51,0,0,0,78,30.22c-1.23,0-1.87.67-1.87,2.12,0,3.6,0,7.2,0,10.8a4.26,4.26,0,0,1-4.39,4.13,4.37,4.37,0,0,1-4.3-4.33c.07-1.41,0-2.82,0-4.24a1.79,1.79,0,0,0-1.82-1.9,1.72,1.72,0,0,0-1.69,1.9v4.08a4.4,4.4,0,0,1-4.41,4.48,4.36,4.36,0,0,1-4.39-4.49c0-1.39,0-2.77,0-4.16a1.77,1.77,0,0,0-1.82-1.81,1.74,1.74,0,0,0-1.69,1.85c0,1.36,0,2.72,0,4.08a4.4,4.4,0,1,1-8.8,0c0-1.39,0-2.78,0-4.16a1.71,1.71,0,0,0-1.51-1.77,1.75,1.75,0,0,0-1.89,1.25c-.13.34,0,.68-.17,1.06-.1-.12-.18-.22-.25-.32a7.79,7.79,0,0,0-12.22-1.07c-.43.43-.59.28-.91,0A7.84,7.84,0,0,0,12.7,40.62c-.09,0-.16-.06-.17-.1-1.63-4-4.84-5.54-9.07-5.25a1.66,1.66,0,0,0-1.73,1.78,1.69,1.69,0,0,0,1.83,1.66,10.56,10.56,0,0,1,2.38.16,4.38,4.38,0,0,1,3.33,4.56,4.29,4.29,0,0,1-3.76,3.92c-.84.09-1.7.06-2.55.15a1.61,1.61,0,0,0-1.39,1.75A1.58,1.58,0,0,0,3.1,50.87c.64,0,1.28,0,1.92,0a7.74,7.74,0,0,0,7.31-4.75c.09-.19.05-.49.37-.54a8.14,8.14,0,0,0,5.84,5.23c-.65.6-1.21,1.09-1.72,1.62a1.76,1.76,0,1,0,2.49,2.46c2.11-2.07,4.24-4.13,6.31-6.24.53-.53.77-.5,1.26,0a7.82,7.82,0,0,0,11.86-1c.37-.53.69-1.1,1-1.67.07.12.13.21.17.3a7.85,7.85,0,0,0,13,2.12c.33-.34.48-.29.79,0a7.81,7.81,0,0,0,11.49,0c.34-.34.49-.3.81,0a7.76,7.76,0,0,0,11.43,0c.35-.35.5-.34.85,0a7.82,7.82,0,0,0,13-2.41c.26-.66.44-1.37.65-2V42.55c-.14-.58-.25-1.15-.42-1.72a7.75,7.75,0,0,0-3.37-4.4c.7-.35,1.31-.68,1.94-1A3.32,3.32,0,0,0,91.88,33.9ZM20.1,47.5a4.4,4.4,0,0,1,0-8.79,4.4,4.4,0,1,1,0,8.79Zm16.67-4.41A4.39,4.39,0,1,1,28,43a4.39,4.39,0,0,1,8.77.06Zm51.6,0a4.4,4.4,0,1,1-4.4-4.4A4.43,4.43,0,0,1,88.37,43.11Z" style="fill:#f8fcfe"/><path d="M32.51,33.9a1.92,1.92,0,0,0,1.77-1.54,1.85,1.85,0,0,0-1-2c-.25-.14-.6.07-.77-.26h-.32c-.16.25-.46.21-.68.34a1.88,1.88,0,0,0-.83,2.05A1.9,1.9,0,0,0,32.51,33.9Z" style="fill:#f8fcfe"/><path d="M36.58,58c-.34.27-.51.36-.89,0a2.91,2.91,0,0,0-3.54-.29,3,3,0,0,0,1.64,5.62,2.51,2.51,0,0,0,1.89-.71c.34-.35.53-.29.89,0a3,3,0,0,0,4.17-.27,3.06,3.06,0,0,0,0-4.13A3,3,0,0,0,36.58,58Zm-2.84,4.06A1.8,1.8,0,0,1,32,60.3a1.83,1.83,0,0,1,1.77-1.72,1.87,1.87,0,0,1,1.68,1.73A1.83,1.83,0,0,1,33.74,62.06Zm4.8,0a1.74,1.74,0,0,1,0-3.48,1.74,1.74,0,0,1,0,3.48Z" style="fill:#f8fcfe"/><path d="M63.15,52.05c-2.45,0-4.9-.06-7.34,0a1.74,1.74,0,0,0-1.68,1.79A1.78,1.78,0,0,0,56,55.51c1.14,0,2.28,0,3.43,0s2.34,0,3.51,0a1.82,1.82,0,0,0,1.88-1.66A1.78,1.78,0,0,0,63.15,52.05Z" style="fill:#f8fcfe"/><path d="M47.24,55.69a.67.67,0,0,0-.65.69c0,.42,0,.85,0,1.34-.31-.12-.53-.22-.75-.29A3,3,0,0,0,44,63.2a2.91,2.91,0,0,0,3.79-2,18.5,18.5,0,0,0,.16-4.93A.6.6,0,0,0,47.24,55.69Zm-2.38,6.37a1.74,1.74,0,1,1,1.72-1.72A1.73,1.73,0,0,1,44.86,62.06Z" style="fill:#f8fcfe"/><path d="M11.29,57.28a3.06,3.06,0,0,0-2.65,3.33,2.83,2.83,0,0,0,1.89,2.53,2.83,2.83,0,0,0,3.06-.49c.29-.25.47-.54.22-.9a.62.62,0,0,0-1-.17,3.83,3.83,0,0,1-.63.34,1.65,1.65,0,0,1-2.08-.82,1.7,1.7,0,0,1,.63-2.23,1.66,1.66,0,0,1,2.15.33c.08.1.21.19.16.34s-.22.11-.34.12c-.29,0-.58,0-.88,0-.48,0-.8.22-.79.68s.31.65.77.63h2c.7,0,1-.36.86-1A3.12,3.12,0,0,0,11.29,57.28Z" style="fill:#f8fcfe"/><path d="M21,59.34a3,3,0,1,0-5.67,2.1,3,3,0,0,0,4,1.67c.28-.11.44-.2.73,0,.51.43,1,.14,1.06-.55,0-.42,0-.85,0-1.45A7,7,0,0,0,21,59.34Zm-2.88,2.72a1.74,1.74,0,0,1,0-3.48,1.74,1.74,0,0,1,0,3.48Z" style="fill:#f8fcfe"/><path d="M27.52,60.1a3.08,3.08,0,0,0-2.76-2.82,3,3,0,0,0-3.16,2.36,16.17,16.17,0,0,0-.08,3c0,.41.18.75.66.74s.69-.33.69-.79c0-.64,0-1.28,0-1.91,0-1.21.59-1.92,1.62-1.93s1.71.74,1.73,1.95c0,.69,0,1.39,0,2.08a.57.57,0,0,0,.64.64.58.58,0,0,0,.65-.63c0-.45,0-.91,0-1.36S27.54,60.53,27.52,60.1Z" style="fill:#f8fcfe"/><path d="M30.34,57.7c-.17-.06-.46,0-.44-.35s.2-.34.42-.4a.57.57,0,0,0,.44-.79.67.67,0,0,0-.81-.48A1.58,1.58,0,0,0,28.54,57c-.07.36-.11.6-.51.76A.58.58,0,0,0,28,58.84c.58.21.55.59.53,1s0,.75,0,1.12,0,.9,0,1.36.08,1,.67,1,.72-.45.72-.94c0-.9,0-1.81,0-2.71,0-.37,0-.66.46-.76a.54.54,0,0,0,.41-.61A.62.62,0,0,0,30.34,57.7Z" style="fill:#f8fcfe"/><path d="M4.65,58.64c.21,0,.43,0,.64,0,.39,0,.66-.2.65-.65s-.26-.61-.65-.67A3.21,3.21,0,0,0,1.6,60.07a3.06,3.06,0,0,0,3.13,3.27c.81,0,1.19-.18,1.17-.63,0-.75-.61-.67-1.11-.68l-.24,0A1.7,1.7,0,0,1,3,60.27,1.66,1.66,0,0,1,4.65,58.64Z" style="fill:#f8fcfe"/><path d="M47.15,33.9A1.85,1.85,0,0,0,49,32a1.7,1.7,0,0,0-1.85-1.8A1.73,1.73,0,0,0,45.29,32,1.93,1.93,0,0,0,47.15,33.9Z" style="fill:#f8fcfe"/><path d="M8.21,62.11c-.59-.1-.53-.49-.53-.89,0-1.58,0-3.15,0-4.72,0-.47-.18-.82-.67-.81s-.66.35-.65.82c0,.88,0,1.76,0,2.64h0c0,.91,0,1.81,0,2.72a1.52,1.52,0,0,0,1.48,1.48.69.69,0,0,0,.74-.49A.55.55,0,0,0,8.21,62.11Z" style="fill:#f8fcfe"/></svg>