<svg id="Layer_1" data-name="Layer 1" xmlns="http://www.w3.org/2000/svg" viewBox="0 0 93.45 93.45"><title>customer</title><path d="M90.35,36.35A24.12,24.12,0,0,0,75.68,19.78a22.32,22.32,0,0,0-6.54-1.56c-.9-.08-1.81-.09-2.71-.1a23.35,23.35,0,0,0-4.08.43A23.59,23.59,0,0,0,52,23.31a24.07,24.07,0,0,0-9.27,18,23.39,23.39,0,0,0,1.09,8.67.27.27,0,0,1-.1.34c-2,1.73-4,3.45-6.06,5a61.83,61.83,0,0,1-9.75,6.24,29.87,29.87,0,0,1-11,3.12,36.21,36.21,0,0,1-7.21-.2,57.87,57.87,0,0,1-6.8-1.31,1.16,1.16,0,0,0-.58-.09s0,0,.05,0a43.53,43.53,0,0,0,5.33,1.95,29.86,29.86,0,0,0,11.2,1.12,28.32,28.32,0,0,0,6.79-1.54A49.91,49.91,0,0,0,38,57.91c2.11-1.54,4.09-3.24,6.07-4.94l.68-.58a24.56,24.56,0,0,0,8.48,10.3c-1.07.79-2.11,1.57-3.16,2.33a65.8,65.8,0,0,1-7.87,5.06,30.71,30.71,0,0,1-11.57,3.57,36.05,36.05,0,0,1-7.49-.16,56.08,56.08,0,0,1-7.37-1.43.4.4,0,0,0-.24,0l.09,0A35.93,35.93,0,0,0,27.4,75.25a1.79,1.79,0,0,1,.69.08h2.84c0-.09.12,0,.18,0,.49,0,1-.06,1.46-.12a29.81,29.81,0,0,0,7.08-1.74,49.81,49.81,0,0,0,9-4.65c2.26-1.42,4.38-3,6.49-4.65a.3.3,0,0,1,.38,0A24.25,24.25,0,0,0,73.5,66a24.31,24.31,0,0,0,17.61-22.3A22.67,22.67,0,0,0,90.35,36.35Zm-.44,7.25A23,23,0,0,1,56.42,63.17l2.27-1.79c4.17-3.3,8.26-6.68,12.38-10,1.2-1,2.41-1.94,3.61-2.91a1,1,0,0,1,1.43,0,2.05,2.05,0,0,1,.38.4,2.67,2.67,0,0,0,3.23.81,4,4,0,0,0,1-.57,6,6,0,0,1,.52-.36c.24-.13.34-.07.37.2,0,.1,0,.2,0,.3a1.2,1.2,0,0,0,1.53,1,2.15,2.15,0,0,0,.68-.33,4.51,4.51,0,0,0,1.79-2.33,31.42,31.42,0,0,0,.85-3.06,1.7,1.7,0,0,0-.63-1.71,5,5,0,0,0-.73-.47,3.47,3.47,0,0,1-1.74-2.1.46.46,0,0,0-.18-.29,9.79,9.79,0,0,0-.73,2.22,1.86,1.86,0,0,0,.15,1.35s.09.1,0,.17a1.43,1.43,0,0,0-.45.72c-.2.48-.37,1-.6,1.44a4,4,0,0,1-1.31,1.56,1.22,1.22,0,0,1-1.84-.27,8.13,8.13,0,0,1-.81-1.28,5.42,5.42,0,0,0-.62-1,.84.84,0,0,0-1.14-.27,8.28,8.28,0,0,0-2.22,1.48c-5.93,5.16-12,10.11-18.23,14.93-.32.24-.64.48-1,.73a.24.24,0,0,1-.34,0A23.43,23.43,0,0,1,45.8,51.72a.21.21,0,0,1,.07-.29c1.18-1,2.36-2,3.56-2.93a1,1,0,0,1,1.41,0,9.18,9.18,0,0,1,.82.83,4.87,4.87,0,0,0,2.52,1.51,3.35,3.35,0,0,0,2.89-.76,5.93,5.93,0,0,0,1.46-1.73,1.46,1.46,0,0,1,.11-.18l.26.31,1.23,1.54a.59.59,0,0,0,.82.21c.21-.1.39-.25.58-.36a39.1,39.1,0,0,1,7.23-3.25,5.7,5.7,0,0,1,.84-.19.51.51,0,0,0,.44-.33c.29-.66.47-1.36.7-2,.06-.18-.06-.32-.29-.35a1.84,1.84,0,0,0-.77.09c-.76.2-1.49.5-2.24.7a3.87,3.87,0,0,1-4-1.71,3.29,3.29,0,0,1-.26-.61,1.07,1.07,0,0,1,1.06-1.47,2.53,2.53,0,0,1,1.68.52c.18.13.35.26.54.38a.3.3,0,0,0,.44-.08c.46-.58.91-1.18,1.4-1.74a.34.34,0,0,0,0-.48,2.09,2.09,0,0,0-.45-.44,5.6,5.6,0,0,0-3.1-1,2.45,2.45,0,0,0-2,1.17,8.35,8.35,0,0,0-1.33,2.73A4.22,4.22,0,0,0,61.83,45a10.77,10.77,0,0,0,1,1.42c.37.48.35.53-.19.79a5.58,5.58,0,0,1-1.95.67,1.92,1.92,0,0,1-1.48-.59c-.11-.1,0-.2,0-.3a8.92,8.92,0,0,0,.56-1.75A7.49,7.49,0,0,0,59.25,41a13,13,0,0,0-1.92-3.14c-.33-.41-.45-.4-.72,0a15.34,15.34,0,0,0-2,4.33,1.13,1.13,0,0,0,.21,1,2.11,2.11,0,0,0,2.37.59,2.77,2.77,0,0,0,.55-.26c.14-.08.21-.08.31,0a5.51,5.51,0,0,1,.81,1.92.59.59,0,0,1-.17.53,4.58,4.58,0,0,1-3,1.69c-.33,0-.67.1-1,.13a1.74,1.74,0,0,1-1.53-.68,8.11,8.11,0,0,1-.88-1.36,3.38,3.38,0,0,0-.6-.84,1,1,0,0,0-1.33-.22,10.23,10.23,0,0,0-1.87,1.33c-1.13,1-2.24,2-3.35,3-.07,0-.13.11-.21.18a19.64,19.64,0,0,1-.54-2.17,22.23,22.23,0,0,1-.4-5.7A23.17,23.17,0,0,1,61.1,20.09a22,22,0,0,1,7.28-.71,22.43,22.43,0,0,1,13.18,5.27,23.25,23.25,0,0,1,8.35,19Zm-7.59,2.23A9.73,9.73,0,0,1,83,44c.63.65,1.38,1.11,2,1.71.39.36.38.59,0,.93a3.14,3.14,0,0,1-.83.57,1.24,1.24,0,0,1-1.38-.08A1.25,1.25,0,0,1,82.32,45.83Z" style="fill:#fdfffe"/><path d="M71.55,57.87a17.3,17.3,0,0,0-4.16,3.36,2,2,0,0,0-.45.63,1.33,1.33,0,0,0,.63-.39,25.44,25.44,0,0,1,4.22-3,15.91,15.91,0,0,1,3.28-1.56c.21-.06.33,0,.42.18s.28.37.58.23c1-.45,2-.85,3.06-1.26a1,1,0,0,0,.38-.25,4.36,4.36,0,0,0,.83-1.65l-.28.06A30.58,30.58,0,0,0,71.55,57.87Z" style="fill:#fdfffe"/><path d="M77.77,37.74l-.35-.26c-.57-.38-1-.87-1.59-1.29-.23-.19-.33-.18-.54,0s-.68.7-1,1.06a4.79,4.79,0,0,0-.65.9.4.4,0,0,0,.08.54c.62.61,1.32,1.13,1.94,1.73.28.27.41.23.64-.07.48-.63.94-1.26,1.41-1.89a1,1,0,0,0,.21-.44A.39.39,0,0,0,77.77,37.74Z" style="fill:#fdfffe"/><path d="M58.58,32.76,58,32.33c-.47-.33-.86-.74-1.3-1.09a.32.32,0,0,0-.49,0A14.89,14.89,0,0,0,54.62,33a1.11,1.11,0,0,0-.21.44.41.41,0,0,0,.14.3c.61.63,1.32,1.15,2,1.75.28.27.42.23.66-.08l1.37-1.84a2.75,2.75,0,0,0,.17-.29A.39.39,0,0,0,58.58,32.76Z" style="fill:#fdfffe"/><path d="M71.66,29.3a1.33,1.33,0,0,0,.33-.67,13.47,13.47,0,0,1,.69-2.06,2,2,0,0,1,.42-.66c.24-.25.26-.25.56-.06a1,1,0,0,1,.21.14c.13.12.2.1.26-.07a3,3,0,0,0,.11-1.64,1,1,0,0,0-.16-.37c-.15-.2-.23-.21-.39,0a5.54,5.54,0,0,0-1.08,1.73c-.24.63-.5,1.27-.75,1.9a.53.53,0,0,1-.21.33,2.91,2.91,0,0,1-.2-.81,3.06,3.06,0,0,0-.73-1.59.86.86,0,0,0-1-.24,1.36,1.36,0,0,0-.87,1.22c0,.54.29.79.83.68l.22,0a.86.86,0,0,1,1,.43,1.75,1.75,0,0,1,.22.53c.09.4.19.81.3,1.2C71.46,29.47,71.5,29.47,71.66,29.3Z" style="fill:#fdfffe"/><path d="M57.49,52.76a5.46,5.46,0,0,0-1,1.83c-.21.56-.44,1.11-.68,1.71a1.22,1.22,0,0,1-.2-.58,3.07,3.07,0,0,0-.63-1.55.88.88,0,0,0-1.3-.11,1.24,1.24,0,0,0-.4.63c-.2.68.14,1,.82.88h.07A.77.77,0,0,1,55,56a3.57,3.57,0,0,1,.29.89,2.77,2.77,0,0,0,.25.82A1.13,1.13,0,0,0,56,57a12.74,12.74,0,0,1,.64-1.89,2.17,2.17,0,0,1,.36-.55c.15-.17.3-.26.5-.07s.17.11.25.18.12,0,.15-.05a2.27,2.27,0,0,0,0-1.77C57.82,52.5,57.72,52.5,57.49,52.76Z" style="fill:#fdfffe"/><path d="M85.18,32.62a.62.62,0,0,0-.34-.56.58.58,0,0,0-.61.14,5,5,0,0,0-.74.79.54.54,0,0,0,0,.78c.15.2.29.41.45.61s.06.17,0,.27a4.17,4.17,0,0,1-1.23.85,4.32,4.32,0,0,0-.79.49.27.27,0,0,0,.29.45,8.49,8.49,0,0,0,1.61-.9l.61-.48a.64.64,0,0,1,.86,0,.48.48,0,0,0,.32.09c.23,0,.29-.06.17-.26A4.16,4.16,0,0,1,85.18,32.62Zm-.76.89a.34.34,0,0,1-.24-.26c0-.1.11-.2.18-.19a.26.26,0,0,1,.23.24C84.54,33.37,84.52,33.53,84.42,33.51Z" style="fill:#fdfffe"/><path d="M79.49,30l-3.25,1.74c-1.53.81-3.06,1.6-4.57,2.44a.8.8,0,0,0-.37.33.33.33,0,0,0,0,.38c.09.1.22,0,.33,0l4.76-2.5,3.21-1.71a.47.47,0,0,0,.3-.38C79.92,29.94,79.79,29.87,79.49,30Z" style="fill:#fdfffe"/><path d="M62.49,23.47l-6.34,3.38c-.53.28-1,.57-1.57.86a.54.54,0,0,0-.32.46c0,.24.11.29.36.16l1.56-.82,6.35-3.35a.75.75,0,0,0,.35-.29.41.41,0,0,0,0-.43C62.76,23.33,62.61,23.41,62.49,23.47Z" style="fill:#fdfffe"/><path d="M67.06,30.86a6.23,6.23,0,0,0-2.11,0,1.53,1.53,0,0,0-1.29,1.58,5.31,5.31,0,0,0,.86-.43,1.52,1.52,0,0,1,1.41-.09,5.77,5.77,0,0,1-1,.82c-.31.16-.59.36-.89.54-.14.09-.23.27-.18.38s.26.13.42.09h0a7.15,7.15,0,0,0,3.06-2.08C67.61,31.27,67.51,30.93,67.06,30.86Z" style="fill:#fdfffe"/><path d="M51.31,36.69a8.29,8.29,0,0,0-2,0,1.55,1.55,0,0,0-1.39,1.59,2.53,2.53,0,0,0,.72-.35,1.6,1.6,0,0,1,1.56-.16,7.89,7.89,0,0,1-.85.7l-1,.61a.57.57,0,0,0-.24.31c0,.09,0,.15.07.17a.51.51,0,0,0,.34,0,7.22,7.22,0,0,0,3.1-2.11A.43.43,0,0,0,51.31,36.69Z" style="fill:#fdfffe"/></svg>