<svg id="Layer_1" data-name="Layer 1" xmlns="http://www.w3.org/2000/svg" viewBox="0 0 93.45 93.45"><title>customer</title><path d="M46.73,12.52a30.05,30.05,0,0,1,4.74.33,33.61,33.61,0,0,1,16.06,6.77,33.82,33.82,0,0,1,11.7,16.54c.38,1.17.58,2.39.9,3.56a19.32,19.32,0,0,1,.59,4,19.28,19.28,0,0,1,.06,4.62,8.63,8.63,0,0,0-.13,2.44,4.53,4.53,0,0,1-.38,1.8A13,13,0,0,0,80,54.32a32.18,32.18,0,0,1-6.22,13.27,32.47,32.47,0,0,1-4.22,4.55,34.2,34.2,0,0,1-17.46,8.34,32.49,32.49,0,0,1-7.81.35,33.81,33.81,0,0,1-18.38-7,32.84,32.84,0,0,1-4.62-4.28,34.69,34.69,0,0,1-7.13-12.41,23.94,23.94,0,0,1-1-4.64,3.14,3.14,0,0,0-.29-1.5c-.33-.51,0-1.12-.11-1.69a17.08,17.08,0,0,1-.16-3.2A33.59,33.59,0,0,1,15.41,33a32.37,32.37,0,0,1,4.18-7,33.25,33.25,0,0,1,4.26-4.62A33.94,33.94,0,0,1,46.73,12.52Zm-.09,67.69a33.55,33.55,0,1,0,.17-67.1,32.51,32.51,0,0,0-25,11c-6.82,7.52-9.57,16.6-8.52,26.7a31.12,31.12,0,0,0,4,12.13c5.58,9.79,14.16,15.31,25.14,17.23A26.07,26.07,0,0,0,46.64,80.21Z" style="fill:#f8fcfe"/><path d="M69.6,46.73A22.89,22.89,0,1,1,43.38,24.08,22.9,22.9,0,0,1,69.6,46.73ZM46.73,69A22.31,22.31,0,1,0,24.4,46.75,22.38,22.38,0,0,0,46.73,69Z" style="fill:#f8fcfe"/><path d="M75.55,32.8c.36-.07.31.27.42.44.22.34.41.7.61,1a.43.43,0,0,0-.1.09.72.72,0,0,0-.85,0L70.4,37.31a.75.75,0,0,0-.44,1,5.42,5.42,0,0,1-.8-1.26c-.16-.25,0-.34.24-.41a20.94,20.94,0,0,0,3-1.51c.3-.14.3-.27.15-.55-.62-1.06-1.2-2.14-1.81-3.21-.08-.14-.1-.45-.4-.27a19.86,19.86,0,0,0-3,1.85,4,4,0,0,0-.27.31l-.88-1.6a1,1,0,0,0,1.32,0c1.62-.88,3.22-1.79,4.84-2.67.5-.27.84-.57.63-1.22l1.07,2c-.66-.43-1.07-.06-1.49.18s-1.36.45-1.51.95.49,1.05.77,1.59.72,1.26,1,1.91c.16.3.29.41.63.19.58-.36,1.18-.67,1.77-1,.3-.17.47-.4.3-.76Z" style="fill:#f8fcfe"/><path d="M52.57,20.49a4.17,4.17,0,0,1,8.32-.41,4.33,4.33,0,0,1-4.14,4.35A4,4,0,0,1,52.57,20.49ZM59.89,20a3.12,3.12,0,0,0-2.4-3.33,2.85,2.85,0,0,0-3.32,1.68,4.3,4.3,0,0,0-.26,3.93,2.84,2.84,0,0,0,5,.52A5.15,5.15,0,0,0,59.89,20Z" style="fill:#f8fcfe"/><path d="M43.23,22.12a2.36,2.36,0,0,1-2.66.16l-2.25-1.49a2.09,2.09,0,0,0-1.65.19c-.1.14,0,.25,0,.36.28.74.53,1.5.85,2.21.19.42.19.64-.3.72-.29.05-.55.31-.9.13.34-.19.3-.49.2-.78-.66-1.95-1.33-3.9-2-5.86-.17-.5-.55-.49-1-.48,1.26-.33,2.36-1.07,3.67-1.11a1.78,1.78,0,0,1,1.86,1.75,2.55,2.55,0,0,1-.25,1.47c-.28.51-.19.78.32,1.05s1.16.72,1.74,1.07A2.66,2.66,0,0,0,43.23,22.12ZM38.51,19a3,3,0,0,0-.22-1,1.82,1.82,0,0,0-2.71-1.06c-.23.11-.33.21-.22.5.34.9.64,1.81,1,2.72,0,.14.07.28.26.33A1.64,1.64,0,0,0,38.51,19Z" style="fill:#f8fcfe"/><path d="M24,38.21l-.74,1.94a1.27,1.27,0,0,0-.9-.9c-1.78-.71-3.56-1.4-5.32-2.13a1.06,1.06,0,0,0-1.07.16,26.88,26.88,0,0,1,1.27-3,1.74,1.74,0,0,1,2.61-.59A3.9,3.9,0,0,1,21,35.11c.13.36.31.39.64.28.7-.24,1.42-.44,2.13-.67a3.38,3.38,0,0,0,1.82-1.08,1.66,1.66,0,0,1-1.05,1.68,22.34,22.34,0,0,1-3,.89,2,2,0,0,0-.94,1.34c0,.14.13.16.22.2l2.16.8c.43.15.66-.09.82-.44Zm-3.06-2.3a1.32,1.32,0,0,0-.42-.89,2.07,2.07,0,0,0-3.59.68c-.14.33-.12.43.22.56.9.33,1.8.69,2.69,1.06.24.11.41.1.56-.11A3.08,3.08,0,0,0,20.89,35.91Z" style="fill:#f8fcfe"/><path d="M25.37,24.83A3.18,3.18,0,0,0,22,26.74a2.71,2.71,0,0,0,.46,3.5c1.95,2,4.69,2,6.35-.42.31-.46.36-.86-.18-1.23s-.85-.69-1.28-1-.59-.48-1.05-.25l1.24-1.52c-.21.76.2,1.14.79,1.47a5.36,5.36,0,0,1,1.35,1.21c.18.19,0,.39,0,.51a5.5,5.5,0,0,1-2.92,3.26,3.89,3.89,0,0,1-4.55-1.06,3.73,3.73,0,0,1-.63-4.44,10.49,10.49,0,0,1,2.52-2.83.21.21,0,0,1,.34,0Z" style="fill:#f8fcfe"/><path d="M66.52,26.6l1.29,1.13-.11.11a.76.76,0,0,0-.81.26c-.43.49-.83,1-1.21,1.52a.75.75,0,0,1-1.05.32,5.77,5.77,0,0,1-3.18-3.25,4.13,4.13,0,0,1,3-5.21,4.22,4.22,0,0,1,3.12.6,14,14,0,0,1,2.39,2.35c.14.16.1.25,0,.37l-1.15,1.07a1.64,1.64,0,0,0,0-2.13A4.94,4.94,0,0,0,67,22.24a2.76,2.76,0,0,0-3.58.64,4.47,4.47,0,0,0-1.33,3.58,4.29,4.29,0,0,0,2.25,2.81A.49.49,0,0,0,65,29.1c.47-.55.93-1.11,1.41-1.66a.59.59,0,0,0,.08-.72Z" style="fill:#f8fcfe"/><path d="M15.84,55.87a17.62,17.62,0,0,1-.6-2.83c-.1-1.6,1-2.23,2.69-1.56.45.17.5.12.64-.32a2,2,0,0,1,1.5-1.55c1.51-.21,2.21.2,2.69,1.31s.36,2.14.71,3.21c-.27-.64-.76-.56-1.23-.45-1.83.39-3.66.8-5.49,1.18C16.18,55,15.81,55.21,15.84,55.87Zm3.08-3.17c.06.77.07.79.47.71.9-.19,1.8-.4,2.7-.61a.69.69,0,0,0,.52-.36,1.68,1.68,0,0,0-1.29-2.2A2.3,2.3,0,0,0,18.92,52.7Zm-1.48-.89a2.08,2.08,0,0,0-1.89,1.3c-.15.37.11.65.2,1s.39.07.59,0l2-.44c.15,0,.33,0,.37-.21A1.43,1.43,0,0,0,17.44,51.81Z" style="fill:#f8fcfe"/><path d="M29.85,73.74,28.39,73c.77.19.94-.42,1.2-.89.8-1.5,1.59-3,2.39-4.52.11-.2.26-.39.47-.71l2.1,7.84a6.18,6.18,0,0,0,.72-1.3c.51-1,1-2,1.49-2.94.17-.35.37-.7-.14-1a5,5,0,0,1,1.58.74c-.59-.14-.8.24-1,.65l-2.57,4.78c-.09.17-.2.33-.38.6-.93-2.57-1.46-5.15-2.19-7.82l-2.19,4.48a.53.53,0,0,0,.1.71Z" style="fill:#f8fcfe"/><path d="M50.09,15h-3c-.74,0-1.36.21-1.53,1.07L45.41,16c.11-.48.21-1,.32-1.45,0-.13.14-.14.26-.12l.06,0c1.68.21,3.37.18,5.21.32l-5.11,7.15c1.25,0,2.39.18,3.55.1A1.28,1.28,0,0,0,50.94,21a2.73,2.73,0,0,1-.19,1.43c-.06.21-.23.23-.42.22l-5.06-.28c-.5,0-.23-.28-.1-.46L48,17.91Z" style="fill:#f8fcfe"/><path d="M14.66,45.78c0,.8.54.72,1,.79a19.29,19.29,0,0,0,3.87.28A5.33,5.33,0,0,0,21,46.62a2,2,0,0,0,1.32-2,1.93,1.93,0,0,0-1.23-1.92,4,4,0,0,0-1.4-.36c-1.27-.11-2.53-.19-3.8-.27a1.66,1.66,0,0,0-.59,0c-.49.13-.47.15-.39-.35.05-.31.06-.63.11-1.17.24,1,1,.91,1.52.94,1.22.06,2.45.15,3.67.28a2.81,2.81,0,0,1,2.51,3A2.78,2.78,0,0,1,20,47.72a31.52,31.52,0,0,1-4.45-.23,1,1,0,0,0-.76.14c-.29.22-.38,0-.31-.21C14.59,46.91,14.47,46.38,14.66,45.78Z" style="fill:#f8fcfe"/><path d="M70.26,40.52l-.39-2.17c.37,1.15,1.41,1,2.25,1.16,1.6.3,3.22.52,4.81.85a7,7,0,0,1,1.48.29c-.13.31-.4.38-.61.51l-5.16,3.17c-.62.38-1.25.75-1.32,1.62-.06-.07-.08-.08-.08-.1-.34-1.53-.34-1.53,1-2.36.48-.29,1.18-.5,1.37-.93s-.15-1.1-.19-1.66-.28-.71-.78-.74-1-.15-1.5-.21S70.28,39.86,70.26,40.52Zm3.87,1.86L77,40.77l-2.86-.39c-.17,0-.38-.09-.31.22C73.89,41.17,74,41.75,74.13,42.38Z" style="fill:#f8fcfe"/><path d="M34.45,24.19c.75,1,.74,1.08-.08,1.61l-2.59,1.67a1.39,1.39,0,0,0-.24-1c-1-1.63-2.11-3.18-3.17-4.77-.26-.37-.5-.79-1.12-.51,1.13-.82,2.27-1.51,3.33-2.37l.6,1.11a2.17,2.17,0,0,0-2.32.59c-.14.18,0,.28.05.4l1.33,2c.1.15.18.32.4.15.55-.45,1.27-.69,1.63-1.44l.56,1.1a2.77,2.77,0,0,0-2.08.71c-.13.17,0,.24.06.33l1.41,2.08a.67.67,0,0,0,1.06.23C33.86,25.59,34.71,25.37,34.45,24.19Z" style="fill:#f8fcfe"/><path d="M44.38,77c-.09,1.26-.49,1.61-1.68,1.46A7.42,7.42,0,0,1,40.84,78a3.56,3.56,0,0,1-2.22-4.49A3.52,3.52,0,0,1,42.75,71a12.66,12.66,0,0,1,2.28.65c.14.05.35.05.3.27-.1.48-.22.95-.35,1.49a.61.61,0,0,1-.18-.61.81.81,0,0,0-.21-.6,3.09,3.09,0,0,0-4.93.76,3.47,3.47,0,0,0,2.85,5C43.45,78,43.61,77.94,44.38,77Z" style="fill:#f8fcfe"/><path d="M60.06,75.7a5.34,5.34,0,0,0,.73-4.11A3.55,3.55,0,0,0,59,69a1.17,1.17,0,0,0-1.35.2,1.21,1.21,0,0,0-.36,1.27c.37,1.47,1.72,1.9,3,.81A1.71,1.71,0,0,1,59,72.48a1.75,1.75,0,0,1-1.87-.67,2.17,2.17,0,0,1,3.07-3,3.48,3.48,0,0,1,1.11,1.68C61.87,72.18,61.29,74.75,60.06,75.7Z" style="fill:#f8fcfe"/><path d="M50.26,71.27v1.06c-.2-.34-.41-.62-.84-.61s-.8,0-1.19,0-.21.22-.2.4a9.35,9.35,0,0,1,.08,1.58c-.06.72.24.89.88.75.15,0,.3,0,.45,0,.8-.15.8-.15.75.7-.6-.5-1.27-.19-1.91-.22-.26,0-.2.23-.16.34a6.79,6.79,0,0,1,.23,2c0,.57.28.82.87.81,1.07,0,1.32-.14,1.62-.91.19,1,.08,1.19-.85,1.23s-1.84,0-2.7,0c.52-.45.25-1.1.23-1.68,0-1.24-.14-2.48-.23-3.73a1.87,1.87,0,0,0-.46-1.49Z" style="fill:#f8fcfe"/><path d="M68.71,64A1.63,1.63,0,0,1,68,65.73a1.66,1.66,0,0,1-1.81.13A2,2,0,0,1,65,64.08a2,2,0,0,1,1.07-2,2.21,2.21,0,0,1,2.3,0,4.56,4.56,0,0,1,2.2,4c0,.4,0,.79,0,1.19a1.17,1.17,0,0,1-.24.89A7.77,7.77,0,0,0,70,65.51a4.76,4.76,0,0,0-2.3-2.75,1.61,1.61,0,0,0-2,.06,1.13,1.13,0,0,0-.24,1.44,2,2,0,0,0,1.94,1C68.16,65.2,68.5,64.75,68.71,64Z" style="fill:#f8fcfe"/><path d="M71.91,51.53c-1.28-.32-1.28-.32-1.15-1.48s.24-2.22.37-3.55c.09.81.55.88,1,.94,1.28.15,2.56.33,3.85.38.62,0,1.25.1,1.87.11a1.15,1.15,0,0,0,.83-.23c0,.22.08.4.09.58,0,.67-.07.71-.73.6s-1.35-.16-2-.21c-1.22-.1-2.44-.19-3.66-.25-.86-.05-1,.1-1.15,1S71.15,50.53,71.91,51.53Z" style="fill:#f8fcfe"/><path d="M21.46,64.05a1.56,1.56,0,0,0,0,1.65,1.32,1.32,0,0,0,1.32.69,1.39,1.39,0,0,0,1.14-1.06,5.86,5.86,0,0,0,.14-1.51,3.67,3.67,0,0,1,.35-1.66,1.65,1.65,0,0,1,2.74-.46,3.52,3.52,0,0,1,.54.67c.5.78.49.78-.45,1.34a1.31,1.31,0,0,0-.14-1.59,1.08,1.08,0,0,0-1.07-.5,1.17,1.17,0,0,0-.95.91,11,11,0,0,0-.12,1.9,2.26,2.26,0,0,1-1.19,2.17,1.81,1.81,0,0,1-2.17-.24,3.13,3.13,0,0,1-.74-.92C20.45,64.66,20.52,64.48,21.46,64.05Z" style="fill:#f8fcfe"/><path d="M77.72,55.05l-.49,1.8c0-.65-.42-.77-.87-.92-1.5-.5-3.06-.82-4.53-1.43a7.16,7.16,0,0,0-1.41-.23c-.36-.07-.46.3-.76.48l.66-2.23c0,.6.36.77.8.9l5.68,1.69A1.28,1.28,0,0,0,77.72,55.05Z" style="fill:#f8fcfe"/><path d="M61.42,67.78s-.15,0-.23,0c-.52-.36-.51-.59,0-1,.79-.59,1.56-1.21,2.33-1.82.16-.12.27-.37.48-.3s.15.34.18.52a27,27,0,0,0,1.32,4.89,2.52,2.52,0,0,0,.38.83c.5.56.21,1-.16,1.56a28.43,28.43,0,0,1-1.88-7C63,66.32,61.8,66.71,61.42,67.78Z" style="fill:#f8fcfe"/><path d="M52,72.14l1.73-2c.29,1.12.55,2.11.82,3.09s.54,2,.84,3c.1.37.22.76.77.88a9.9,9.9,0,0,1-2.12.4c.79-.15.74-.62.57-1.2-.41-1.43-.81-2.87-1.18-4.31-.14-.55-.33-.6-.71-.23-.19.19-.4.34-.6.51Z" style="fill:#f8fcfe"/><path d="M24.8,69.77c.92-.07,4.63-4,4.84-5.14l1.2,1.08a1.29,1.29,0,0,0-1.33.63c-.68.78-1.42,1.51-2.1,2.28-.46.53-.86,1.11-1.29,1.66-.15.18,0,.37-.07.6Z" style="fill:#f8fcfe"/><path d="M21.18,60.94a1.32,1.32,0,0,1-1.31-1.35,1.35,1.35,0,0,1,2.69,0A1.33,1.33,0,0,1,21.18,60.94Z" style="fill:#f8fcfe"/><path d="M70.25,59.59a1.33,1.33,0,0,1,1.34-1.33,1.35,1.35,0,0,1,1.33,1.35c0,.77-.59,1.28-1.49,1.3A1.59,1.59,0,0,1,70.25,59.59Z" style="fill:#f8fcfe"/><path d="M30,73.63c.1.09.28.1.3.31a.5.5,0,0,1-.41-.2Z" style="fill:#f8fcfe"/><path d="M67.81,27.73c.08,0,.2.06.15.15s-.18,0-.26,0Z" style="fill:#f8fcfe"/><path d="M23.85,38.11,24,38c.07.11,0,.19-.07.26Z" style="fill:#f8fcfe"/><path d="M26.17,27.47l0,.05,0-.05,0,0Z" style="fill:#f8fcfe"/><path d="M76.58,34.29l0,.15-.12-.06A.43.43,0,0,1,76.58,34.29Z" style="fill:#f8fcfe"/><polygon points="75.54 32.78 75.56 32.77 75.55 32.8 75.54 32.78" style="fill:#f8fcfe"/><path d="M66.39,26.47l.13.13-.08.12-.13-.14Z" style="fill:#f8fcfe"/><path d="M66.31,26.58s-.14,0-.09-.1.11,0,.17,0Z" style="fill:#f8fcfe"/><path d="M32.85,22.74a.59.59,0,0,1,0,.08s0,0,0,.05a.18.18,0,0,1,0-.09S32.83,22.75,32.85,22.74Z" style="fill:#f8fcfe"/><path d="M40.59,45.69a9.84,9.84,0,0,0-4.8,8c-.06.79-.06.79.76.78l.33,0c.38,0,.62.48,1,.4a1.9,1.9,0,0,0,1.86-.16,1.91,1.91,0,0,1,1-.24l7.71,0,.38.18a3.71,3.71,0,0,0,2.42-.06,4.17,4.17,0,0,1,.76-.13l.4.18a3.51,3.51,0,0,0,2.41-.08c.12,0,.21-.15.35-.14,1.42.11,2.85-.21,4.26.19.09,0,.09-.05.14-.09h0c-.19.19,0,.25.12.34A1.24,1.24,0,0,1,60,56.17a1.33,1.33,0,0,1-1.28.74L46,57l-10.23.08a2.33,2.33,0,0,1-2.61-2.46,11.23,11.23,0,0,1,3.05-8.45,13.68,13.68,0,0,1,2.61-2.31A6.5,6.5,0,0,0,40.59,45.69Z" style="fill:#f8fcfe"/><path d="M40.59,45.69a6.5,6.5,0,0,1-1.77-1.85,3.49,3.49,0,0,1-.35-1.79c.05-.32-.15-.34-.37-.41a2.52,2.52,0,0,1-1.82-2.33,2.37,2.37,0,0,1,1.26-2.53,1.09,1.09,0,0,0,.63-1.12.94.94,0,0,1,1.11-1c.49.11.52-.15.61-.45.24-.84.45-1.69.71-2.53a3.84,3.84,0,0,1,3.3-2.82,13.4,13.4,0,0,1,6.07.27,2.49,2.49,0,0,1,1.85,1.76c.34,1.16.77,2.29,1.13,3.43.12.38.28.52.7.46.83-.13,1.11.17,1.23,1,.06.39.07.82.65,1a2.66,2.66,0,0,1,1.38,2.88,2.36,2.36,0,0,1-2.06,2.09c-.39.05-.51.18-.51.56a5.61,5.61,0,0,1-.14.9,5.44,5.44,0,0,1-1.6,2.19c-1.41.72-2.66,1.75-4.32,2-2.4.33-4.69.24-6.75-1.23A6.87,6.87,0,0,0,40.59,45.69Zm1.28-9-.81-.48c-.07,0-.12-.15-.23-.08a.2.2,0,0,0-.07.29c.42.8-.33,1.09-.74,1.36s-1-.1-1.3-.41a.57.57,0,0,0-.83-.11,2,2,0,0,0-1,1.48A1.86,1.86,0,0,0,38.78,41c.35,0,.51.25.41.64A2.57,2.57,0,0,0,40,44.36a9.2,9.2,0,0,0,3.59,2.13,9.48,9.48,0,0,0,8.8-1.8,3,3,0,0,0,1.24-3.06c-.09-.48.14-.63.6-.56a1.64,1.64,0,0,0,2-1.33,2,2,0,0,0-1.14-2.45c-.18-.06-.44-.19-.56,0-.22.34-.58.34-.89.49-.5.24-1.45-.33-1.42-.9,0-.29.23-.71,0-.84s-.53.28-.83.4c-.09,0-.22,0-.24.18a.26.26,0,0,0,.07.1c.18.18.73,0,.46.63s-.53.42-.86.19A1.89,1.89,0,0,0,49,37.28a3.23,3.23,0,0,1-.7.15,14.64,14.64,0,0,1-3.91,0c.69.62.79,1.14.35,1.59a.9.9,0,0,1-1.34-.07.88.88,0,0,1-.19-.68c0-.5.44-.69.84-.85-.76-.43-1.37,0-2,.28s-.64-.06-.73-.42S41.78,37,41.87,36.7Zm-1.39-2.22H52.37c-.41-1.18-.85-2.3-1.18-3.45a1.72,1.72,0,0,0-1.33-1.29,13.53,13.53,0,0,0-5.41-.36,3.73,3.73,0,0,0-3.51,3.18C40.81,33.18,40.65,33.8,40.48,34.48Zm11.62.72H40.83C43.24,37.5,49.24,37.5,52.1,35.2Z" style="fill:#f8fcfe"/><path d="M46.72,60.6H34.9a2.53,2.53,0,0,1-.91-.1,1.29,1.29,0,0,1-.82-1.43,1.22,1.22,0,0,1,1.19-1h23.9a4.51,4.51,0,0,1,.52,0,1.37,1.37,0,0,1,1.3,1.33,1.28,1.28,0,0,1-1.41,1.24h-12Z" style="fill:#f8fcfe"/><path d="M52.6,45.41a5.44,5.44,0,0,0,1.6-2.19A15.61,15.61,0,0,1,58,46.84a1.38,1.38,0,0,1,.17,1.6,1.32,1.32,0,0,1-1.37.6.88.88,0,0,1-.76-.46A8.57,8.57,0,0,0,52.6,45.41Z" style="fill:#f8fcfe"/><path d="M52.45,54.55l-.4-.18c-.08-.47.12-.66.58-.62.15,0,.31,0,.46,0,.53.08.75-.16.66-.67-.12-.67.13-.85.8-.82,1.29.06,2.59,0,3.89,0,.23,0,.63.2.6-.33s-.39-.32-.64-.33c-.62,0-1.23,0-1.85,0-.24,0-.54,0-.55-.32s.29-.38.56-.38l2.84,0c.51,0,.74.22.73.76,0,1.37,0,1.37-1.36,1.37-1.14,0-2.29,0-3.43,0-.36,0-.55,0-.55.48,0,.83-.19,1-1,1A5.23,5.23,0,0,0,52.45,54.55Z" style="fill:#f8fcfe"/><path d="M37.93,54.82c-.43.08-.67-.36-1-.4a1.82,1.82,0,0,1-.55-1.79.42.42,0,0,1,.47-.44.44.44,0,0,1,.48.43,2.43,2.43,0,0,1,0,.27c0,1,.63,1.4,1.61,1.06.19-.07.43-.11.4-.36s-.24-.24-.41-.28-.47,0-.46-.31,0-.46.37-.45c.62,0,1.23,0,1.85,0,.44,0,.64-.16.61-.62s0-1,0-1.52c0-.35.08-.63.49-.64s.48.27.48.62q0,1,0,2c0,.6-.28.84-.84.84h-.6c-.25,0-.51-.1-.5.39s-.93,1-1.54,1C38.46,54.72,38.17,54.6,37.93,54.82Z" style="fill:#f8fcfe"/><path d="M43.06,51.42c0-.33,0-.66,0-1s.07-.63.47-.63.52.24.51.61c0,.52,0,1.05,0,1.58,0,.85.63.51,1,.59s.55-.14.53-.55c0-.74.14-.89.87-.89h2c.25,0,.53,0,.54.34s-.26.36-.51.36H47.09c-.29,0-.44.08-.46.41s.25.33.48.34h1.51c.21,0,.42.07.44.31s-.22.33-.41.33c-1.67,0-3.34,0-5,0a.57.57,0,0,1-.58-.66Z" style="fill:#f8fcfe"/><path d="M59.61,54.43c-.25-.51,0-.73.47-.75a3.49,3.49,0,0,1,.46,0c.57.07.78-.2.69-.73s.1-.77.66-.69a6.94,6.94,0,0,0,.79,0c.54,0,1.1.09,1-.77,0-.25.21-.36.45-.38a.44.44,0,0,1,.47.29,1.06,1.06,0,0,1-1,1.58A3,3,0,0,1,63,53c-.58-.08-.89.05-.83.74,0,.45-.29.72-.76.72s-1.23,0-1.84,0Z" style="fill:#f8fcfe"/><path d="M48.87,54.56l-.38-.18c-.1-.47.12-.65.57-.63h.32c.67.11.95-.16.84-.83a3.13,3.13,0,0,1,0-.53.51.51,0,0,1,1,0c0,.5,0,1,0,1.51s-.34.59-.73.61Z" style="fill:#f8fcfe"/><path d="M58,50.62H56.46c-.23,0-.47,0-.47-.33s.23-.3.43-.3c1.12,0,2.24,0,3.36,0,.2,0,.42.07.41.32s-.21.31-.43.31H58Z" style="fill:#f8fcfe"/><path d="M63.6,54.31c-.28,0-.55-.08-.56-.37s.25-.33.48-.34.53,0,.54.35S63.79,54.26,63.6,54.31Z" style="fill:#f8fcfe"/><path d="M50.74,50.85c-.22-.05-.51-.07-.51-.37s.27-.34.48-.34.53,0,.53.35S51,50.8,50.74,50.85Z" style="fill:#f8fcfe"/><path d="M47.5,49.41c-.27,0-.55-.08-.55-.37s.25-.33.48-.33.52,0,.52.35S47.68,49.35,47.5,49.41Z" style="fill:#f8fcfe"/><path d="M41.82,42.43a7.73,7.73,0,0,0,9.51,0,.75.75,0,0,1,.18-.07c-.25,1.1-2.6,2.67-4.37,2.94a5.28,5.28,0,0,1-5.42-2.72Z" style="fill:#f8fcfe"/><path d="M46.53,42.8a3.34,3.34,0,0,1-1.88-.55,1.17,1.17,0,0,1,0-2,3.52,3.52,0,0,1,3.84,0,1.16,1.16,0,0,1,0,2A3.25,3.25,0,0,1,46.53,42.8Zm0-2.77a2.62,2.62,0,0,0-1.76.57.73.73,0,0,0,0,1.24,3.07,3.07,0,0,0,3.51,0,.77.77,0,0,0,0-1.33A2.79,2.79,0,0,0,46.52,40Z" style="fill:#f8fcfe"/><path d="M50,38.38a.93.93,0,0,1-1,.87.9.9,0,0,1-.86-1,.91.91,0,0,1,1-.84A.94.94,0,0,1,50,38.38Z" style="fill:#f8fcfe"/><path d="M41.69,42.31l.13.12-.1.16-.11-.16Z" style="fill:#f8fcfe"/><path d="M41.61,42.43l-.08-.11h.16Z" style="fill:#f8fcfe"/><path d="M44.42,32.41c0-.13,0-.41.07-.7s.14-.45-.3-.54-.11-.33.07-.42a1.37,1.37,0,0,1,1.33-.05.72.72,0,0,1,.36.94c-.05.16.07.24.14.35a.89.89,0,0,1-.68,1.4C44.27,33.48,44.4,33.57,44.42,32.41Zm.5.06c0,.23,0,.47.31.45s.48-.09.52-.39-.2-.34-.43-.38S44.89,32.17,44.92,32.47Zm.26-.77c.16,0,.29-.11.3-.29a.3.3,0,0,0-.32-.33c-.21,0-.15.23-.18.37S45,31.71,45.18,31.7Z" style="fill:#f8fcfe"/><path d="M47,32.91a1.67,1.67,0,0,0,1.57-.4c.13-.12.28-.25.45-.07s0,.32-.13.45a2.19,2.19,0,0,1-2.14.46c-.43-.18-.56-.4-.16-.76l1.19-1.13a.7.7,0,0,0,0-.17,2.16,2.16,0,0,0-1.21,0c-.16,0-.33,0-.38-.15s.13-.27.27-.3a3,3,0,0,1,1.56,0c.44.13.57.4.26.78s-.41.46-.62.68Z" style="fill:#f8fcfe"/></svg>