<svg id="Layer_1" data-name="Layer 1" xmlns="http://www.w3.org/2000/svg" viewBox="0 0 93.45 93.45"><title>customer</title><path d="M92.43,45.56V44.34C88.68,44.19,85,43.42,81.32,43c-6.06-.78-12.11-1.64-18.16-2.49-.69-.09-.93.15-.9.81,0,.5,0,1,0,1.51,0,.77-.38.69-.87.46C54.2,41,46.75,39.76,39.46,37.92a18.17,18.17,0,0,1-7.12-3.21,3.08,3.08,0,0,1-1.21-1.32c-2.84-2.37-2.57-5.11.65-6.71A19.05,19.05,0,0,1,39,25a51.9,51.9,0,0,1,19.12,1.8,8.4,8.4,0,0,1,3.82,2.11q1.62,1.74-.52,3c0,.59,0,1.18.07,1.77.73-.34,1.48-.65,2.19-1,2.73-1.48,2.82-3.35.22-5a21.05,21.05,0,0,0-7-2.49,67.37,67.37,0,0,0-22.53-.55,25.69,25.69,0,0,0-9,2.55c-1.84,1-3.4,2.26-3.92,4.4-.73,3,.68,5.29,2.75,7.28a25.6,25.6,0,0,0,5,3.28,5.93,5.93,0,0,1-1.55.11c-7.42-.53-14.85-1-22.27-1.63A3.92,3.92,0,0,0,1,42.81v1.53A3.7,3.7,0,0,0,4.4,46.73c.56,0,1.12,0,1.68,0,4.22.12,8.46-.13,13.13.4L16.84,48c-4.16,1.47-8.32,2.91-12.47,4.41-2.15.78-3,2.42-2.31,4.26.62,1.66,2.45,2.29,4.48,1.45C14,55,21.51,51.89,29,48.79a1.24,1.24,0,0,0,.91-1.36c-.05-1.26,0-2.54,0-3.8s.35-1.38,1.31-.79c7.14,2.66,14.58,4.25,22,6.06a21.26,21.26,0,0,1,5.39,2,5,5,0,0,1,2.27,1.95c1.18,1.69.94,2.86-.79,3.86A11.71,11.71,0,0,1,56.31,58,58.13,58.13,0,0,1,39,58.29a23,23,0,0,1-8.67-2.39c-2.3-1.25-2.83-3.29-.73-4.56l.24-.18a.77.77,0,0,0,.21-1c-.24-.5-.64-.18-.91-.06a18.28,18.28,0,0,0-2.59,1.27c-1.92,1.23-2,2.71-.19,4.14A13.17,13.17,0,0,0,31.77,58,61,61,0,0,0,60.23,58a20.41,20.41,0,0,0,8.05-3.81c3.06-2.49,3-5.5-.2-7.78a11.18,11.18,0,0,0-1.57-.93c-1.25-.62-2.51-1.2-3.77-1.81,0-.06,0-.12,0-.19Z" style="fill:#fdfffe"/><path d="M62.39,36.9a7.21,7.21,0,0,0,.86-.27l20.18-8.42c2.48-1,5-2.05,7.43-3.11.33-.15,1.06-.15.75-.85s-.77-.3-1.19-.16l-.29.11L64.52,33.3C62.05,34.17,62.05,34.17,62.39,36.9Z" style="fill:#fdfffe"/><g style="opacity:0.6"><path d="M58.55,50.92a21.26,21.26,0,0,0-5.39-2c-7.38-1.81-14.82-3.4-22-6.06,0,2.48.07,5-.07,7.44a4.46,4.46,0,0,0,2.23,4.17,10.32,10.32,0,0,0,2.84,1.41,33.2,33.2,0,0,0,20,0,8.44,8.44,0,0,0,4.6-3A5,5,0,0,0,58.55,50.92Z" style="fill:#fdfffe"/><path d="M61.41,31.9c-.48-2.12-2.15-3.12-3.91-3.95a24.9,24.9,0,0,0-9.89-2.06,29.06,29.06,0,0,0-11.5,1.65,14.21,14.21,0,0,0-2,1c-1.88,1.07-3.16,2.53-2.93,4.88a3.08,3.08,0,0,0,1.21,1.32,18.17,18.17,0,0,0,7.12,3.21c7.29,1.84,14.74,3,21.93,5.32l.09-9.57C61.45,33.08,61.43,32.49,61.41,31.9Zm-4.63,3.86a28.59,28.59,0,0,1-21.08,0c-1.5-.58-3.19-1.41-3.18-3.31s1.68-2.53,3.09-3.22a25.35,25.35,0,0,1,10.69-2,24.86,24.86,0,0,1,10.54,1.92c1.47.66,3.21,1.37,3.23,3.26S58.32,35.17,56.78,35.76Z" style="fill:#fdfffe"/><path d="M44.13,31.75c.63-.12,1.27-.2,2.14-.33a2.86,2.86,0,0,0-2-.25c-.65.1-1.41.19-1.47,1s.64,1.09,1.26,1.31a7.48,7.48,0,0,0,4.79.05c.76-.23,1.65-.5,1.67-1.52s-.76-1.4-1.53-1.69a11.29,11.29,0,0,0-7.46-.11c-1,.32-2.19.75-2.28,1.95s1.09,1.83,2.12,2.3a5.89,5.89,0,0,0,1,.34,16.19,16.19,0,0,0,8.57-.21c1.39-.44,3.05-.88,3.08-2.68s-1.62-2.35-3-2.79a19,19,0,0,0-12.4.3,5.67,5.67,0,0,0-2.07,1.23A2.15,2.15,0,0,0,36.43,34a6.54,6.54,0,0,0,3,1.71,22.42,22.42,0,0,0,13.77-.21c.28-.1.71-.08.72-.56A1.07,1.07,0,0,0,53,35a25,25,0,0,1-9.65.8,11.91,11.91,0,0,1-5.62-1.68c-1.7-1.1-1.69-2.33,0-3.38a11.64,11.64,0,0,1,4.76-1.46,16.74,16.74,0,0,1,9.25,1.06c.69.32,1.42.73,1.44,1.61s-.78,1.25-1.46,1.56a13.68,13.68,0,0,1-7.15,1,8.07,8.07,0,0,1-3.89-1.17c-.65-.45-1.08-1-.25-1.69,1.59-1.35,7.2-1.49,8.78-.22.59.48.64.93-.1,1.24a6.83,6.83,0,0,1-5,.11c-.23-.09-.48-.22-.48-.51S43.89,31.79,44.13,31.75Z" style="fill:#fdfffe"/></g><path d="M25.37,68.69a1,1,0,0,0,1.28.17A.86.86,0,0,0,27.1,68c0-.61-.46-1-1.23-1.37-1.09-.53-1.81-1.08-1.81-2.06a2,2,0,0,1,1.56-1.9,3.1,3.1,0,0,1,1.39,0c.54.15,1.21.52,1,1.18a.58.58,0,0,1-.76.47.56.56,0,0,1-.17-1,1.16,1.16,0,0,0-1.53-.08,1,1,0,0,0-.33.76c0,.56.53.93,1.15,1.27A6,6,0,0,1,28,66.38a1.91,1.91,0,0,1-.59,2.83,3.48,3.48,0,0,1-1.57.32c-.93,0-2.32-.47-2-1.7.18-.69,1.53-.78,1.31.18A.83.83,0,0,0,25.37,68.69Z" style="fill:#fdfffe"/><path d="M33.74,62.92a.58.58,0,0,1,.52-.13v3.43a3.44,3.44,0,0,1-.78,2.57,2.78,2.78,0,0,1-1.94.75A3.05,3.05,0,0,1,29.7,69a2.85,2.85,0,0,1-.89-2.43c0-1.13,0-2.18,0-3.3a.52.52,0,0,1,.52-.52h.84v3.6c0,1.53.59,2.48,1.73,2.48s1.79-.73,1.8-2Z" style="fill:#fdfffe"/><path d="M36.42,68.69a1,1,0,0,0,1.28.17.84.84,0,0,0,.45-.83c0-.61-.46-1-1.23-1.37-1.09-.53-1.81-1.08-1.81-2.06a2,2,0,0,1,1.56-1.9,3.1,3.1,0,0,1,1.39,0c.54.15,1.21.52,1,1.18a.58.58,0,0,1-.76.47.56.56,0,0,1-.17-1,1.16,1.16,0,0,0-1.53-.08,1,1,0,0,0-.33.76c0,.56.53.93,1.15,1.27a5.81,5.81,0,0,1,1.63,1.09,1.91,1.91,0,0,1-.59,2.83,3.48,3.48,0,0,1-1.57.32c-.93,0-2.32-.47-2-1.7.18-.69,1.53-.78,1.31.18A.83.83,0,0,0,36.42,68.69Z" style="fill:#fdfffe"/><path d="M41.18,65.92v2.93a.53.53,0,0,1-.52.53h-.84c0-2,0-4.07,0-6.1a.53.53,0,0,1,.53-.52h.83V65.6H44V63.29a.53.53,0,0,1,.53-.52h.83c0,2,0,4.05,0,6.09a.53.53,0,0,1-.52.53H44V65.92Z" style="fill:#fdfffe"/><path d="M45.93,63.29a.51.51,0,0,1,.51-.52h.83c0,2,0,4.05,0,6.09a.52.52,0,0,1-.51.53h-.83Z" style="fill:#fdfffe"/><path d="M55.87,69.3v.15c-2.35.32-5-.52-5-3.31,0-2.1,1.69-3.54,4.21-3.54a7.37,7.37,0,0,1,.84.06c0,.42-.18.52-.41.48a2.77,2.77,0,0,0-1.77.21,2.82,2.82,0,0,0-1.28,2.59,2.88,2.88,0,0,0,1.83,3,2.34,2.34,0,0,0,1.23,0C55.62,68.94,55.86,69,55.87,69.3Z" style="fill:#fdfffe"/><path d="M56.41,63.29a.52.52,0,0,1,.51-.52h.84c0,2,0,4.05,0,6.09a.52.52,0,0,1-.51.53h-.84Z" style="fill:#fdfffe"/><path d="M64.44,62.76a.3.3,0,0,1-.14.35H62.11c0,2,0,3.78,0,5.77a.51.51,0,0,1-.51.51h-.84c0-2,0-4.29,0-6.29H58.42a.3.3,0,0,1,.14-.35Z" style="fill:#fdfffe"/><path d="M68,68.85a.53.53,0,0,1-.52.53h-.83c0-2,0-1,0-2.72l0,0-1.52-2.79a.52.52,0,0,1,.23-.7l.77-.41,1.51,2.73.19.35,2-3a.29.29,0,0,1,.24.31c-.11.17-1.36,2.07-2,3.09C68,67.81,68,66.91,68,68.85Z" style="fill:#fdfffe"/></svg>