<svg id="Layer_1" data-name="Layer 1" xmlns="http://www.w3.org/2000/svg" viewBox="0 0 93.45 93.45"><title>customer</title><path d="M48.23,77.49H46.39A3.43,3.43,0,0,0,45,77.38a2.16,2.16,0,0,0-.87-.09.43.43,0,0,0-.35-.05.89.89,0,0,0-.51-.08l-.22,0c-.16,0-.31-.1-.47-.13A21,21,0,0,1,25.78,57.12q0-10.12,0-20.25c0-.2,0-.4,0-.61a28.94,28.94,0,0,1,.5-3.82A20.81,20.81,0,0,1,45.14,16a20.29,20.29,0,0,1,17.46,7.3,20.64,20.64,0,0,1,5.05,13.81c.07,5.87,0,11.74,0,17.61,0,1.21,0,2.41-.15,3.61A20.93,20.93,0,0,1,49.14,77.25C48.84,77.29,48.47,77.19,48.23,77.49ZM62,66.77c.27-.07.33-.31.44-.49a18,18,0,0,0,2.8-9.52c0-6.73,0-13.46,0-20.19a16.42,16.42,0,0,0-.58-4.36,18.59,18.59,0,0,0-36.6,4.54c0,6.62,0,13.25,0,19.88A18,18,0,0,0,31,66.48c.09.14.13.37.43.32v-.54q0-9.68,0-19.33c0-.65-.05-1.31-.07-2a60.47,60.47,0,0,1,.12-9.61,15.32,15.32,0,0,1,2.83-7.42,14.91,14.91,0,0,1,12.95-6.2,14.3,14.3,0,0,1,12.25,7c1.91,3,2.37,6.41,2.42,9.88.07,4.37-.05,8.75,0,13.12,0,4.79,0,9.57,0,14.36C61.94,66.3,61.86,66.55,62,66.77ZM47.5,69.2c0,2,0,3.61,0,5.24,0,.49.16.65.64.6.7-.07,1.38-.18,2.07-.28.47-.07.63-.27.62-.76,0-2.47,0-5,0-7.42A11.17,11.17,0,0,1,58.62,56c.49-.15,1.2,0,1.43-.52a3.87,3.87,0,0,0,.08-1.57c0-1.47.15-1.31-1.27-1.1A13.6,13.6,0,0,0,47.7,63.66,39.68,39.68,0,0,0,47.5,69.2Zm-1.87.5c0-1.19,0-2.37,0-3.56a12.71,12.71,0,0,0-2.54-7.9,13.36,13.36,0,0,0-9.19-5.52c-.47-.07-.68,0-.65.56a14.93,14.93,0,0,1,0,1.77c0,.43.14.6.56.69a10.81,10.81,0,0,1,5.94,3.55,11.11,11.11,0,0,1,2.75,7.54c0,2.39,0,4.79,0,7.18,0,.44.11.68.59.73.63.06,1.25.17,1.88.28.48.08.69,0,.68-.6C45.6,72.85,45.63,71.27,45.63,69.7Zm1.82-11.12.16,0a3.06,3.06,0,0,0,.21-.29,15.13,15.13,0,0,1,11.7-7.44c.52-.06.63-.27.62-.74,0-1.75,0-3.51,0-5.27q0-2,.06-4c0-.44-.14-.58-.58-.48-.63.14-1.28.26-1.92.37a.52.52,0,0,0-.5.57A15.58,15.58,0,0,1,57,43.54c-.86,4.85-4.26,9.13-9.12,9.86-.31.05-.42.18-.41.48,0,.63,0,1.27,0,1.9Zm-1.9-.07c.14-.15.07-.35.07-.52,0-1.29,0-2.57,0-3.86,0-.5-.11-.71-.64-.79a9.3,9.3,0,0,1-4.87-2.41,13.12,13.12,0,0,1-4.2-9.49c0-.43-.1-.68-.58-.74s-1-.21-1.56-.3c-.75-.12-.78-.09-.74.7.12,3,.27,6,.2,8.95,0,.64.2.82.8.9a15.1,15.1,0,0,1,11.18,7.23C45.31,58.31,45.34,58.5,45.55,58.51Zm1.93-8.26c0,.27,0,.39,0,.52,0,.89,0,.92.87.7,4.48-1.13,6.91-5.87,7.06-9.69,0-.35-.16-.36-.43-.26a16.8,16.8,0,0,0-2.29,1C49.55,44.25,47.51,46.66,47.48,50.25Zm-1.85.28A8.32,8.32,0,0,0,45,47.19c-1.35-3.06-4-4.58-6.93-5.7-.4-.14-.33.15-.31.38a12,12,0,0,0,1,4.08,9.35,9.35,0,0,0,5.72,5.43C45.62,51.75,45.63,51.73,45.63,50.53Zm10,15.92q0-3,0-6c0-.15.08-.36-.11-.44s-.27.13-.37.25a8.61,8.61,0,0,0-2.36,4.88c-.33,2.84-.08,5.71-.14,8.56,0,.32.13.4.42.28.67-.3,1.33-.61,2-.88a.81.81,0,0,0,.55-.89C55.58,70.29,55.6,68.37,55.6,66.45ZM57.39,65c0,2,0,4,0,6,0,.17-.08.41.1.51s.37-.1.52-.22c.59-.5,1.17-1,1.76-1.53a1,1,0,0,0,.36-.86c0-1.27,0-2.54,0-3.8,0-2.32,0-4.63,0-6.94,0-.56-.18-.7-.69-.49s-1,.38-1.55.57a.77.77,0,0,0-.52.86C57.4,61,57.39,63,57.39,65ZM33.26,63.5v3.56c0,2.58,0,2.58,2.07,4.13.17.12.33.39.57.25s.1-.37.1-.57c0-3.58,0-7.16,0-10.73,0-.56.32-1.22-.12-1.67a4.14,4.14,0,0,0-1.66-.76,3.57,3.57,0,0,1-.35-.1c-.47-.21-.61-.06-.61.43C33.27,59.86,33.26,61.68,33.26,63.5Zm4.54,2.89v4.17c0,2.49,0,2.48,2.34,3.34.48.18.6.08.59-.42,0-2.22,0-4.45,0-6.68a9.47,9.47,0,0,0-2.27-6.27c-.15-.17-.28-.5-.54-.4s-.1.4-.1.61C37.8,62.62,37.8,64.51,37.8,66.39ZM46.5,44c.11-.14.16-.18.18-.24a21.4,21.4,0,0,1,2-4.32.86.86,0,0,0,.15-.58,6.26,6.26,0,0,0-1.71-3.71c-.45-.46-.75-.4-1.16,0a6.09,6.09,0,0,0-1.63,3.36,1.21,1.21,0,0,0,.06.84A23.84,23.84,0,0,1,46.5,44Zm1-18.08c0,.65,0,1.31,0,2a.48.48,0,0,0,.47.57,7.74,7.74,0,0,1,2.57.78c.37.19.53.09.72-.24.61-1.13,1.24-2.25,1.89-3.37.17-.3.18-.49-.18-.67a14.18,14.18,0,0,0-5-1.42c-.4,0-.5.13-.5.49C47.46,24.65,47.45,25.29,47.45,25.92Zm-1.8.07c0-.65,0-1.3,0-2,0-.35-.13-.47-.48-.43a14.27,14.27,0,0,0-4.89,1.51c-.31.16-.33.35-.16.64.63,1.1,1.24,2.21,1.85,3.32.15.26.3.33.59.19a8.86,8.86,0,0,1,2.62-.81c.36-.05.49-.2.48-.55C45.64,27.26,45.65,26.63,45.65,26Zm13,4.76a.58.58,0,0,0-.06-.15,12.46,12.46,0,0,0-3.36-4.17c-.26-.21-.42-.13-.57.14-.64,1.16-1.29,2.32-2,3.47a.44.44,0,0,0,.09.64,11.15,11.15,0,0,1,1.87,2c.14.19.27.29.51.13A24.63,24.63,0,0,1,58.4,31C58.51,31,58.63,30.93,58.6,30.75Zm-18-.44-.07-.16-1.94-3.46c-.22-.4-.41-.18-.62,0a13.36,13.36,0,0,0-3.15,3.86c-.18.33-.15.49.21.65a19,19,0,0,1,2.83,1.56c.3.21.48.17.7-.12a10.18,10.18,0,0,1,1.78-1.93C40.45,30.61,40.6,30.52,40.59,30.31Zm5.06,1.43c0-.3,0-.61,0-.92,0-.51-.15-.63-.65-.51a8.71,8.71,0,0,0-5,3.44c-.26.33-.09.49.15.69a15.51,15.51,0,0,1,2.26,2.25c.34.41.46.3.61-.13a6.54,6.54,0,0,1,2.12-3,1.19,1.19,0,0,0,.56-1.19A4.12,4.12,0,0,1,45.65,31.74Zm1.8,0c0,.33,0,.66,0,1a.74.74,0,0,0,.32.69,6.93,6.93,0,0,1,2.37,3.27c.13.38.26.42.52.11A16.66,16.66,0,0,1,53,34.38c.3-.24.27-.44.06-.72a8.69,8.69,0,0,0-4.61-3.26c-1-.29-1-.28-1,.81Zm12.69,5.87a23.93,23.93,0,0,0-.64-4.41c-.1-.41-.26-.55-.67-.34-.91.46-1.81.94-2.67,1.48A.46.46,0,0,0,56,35a12.52,12.52,0,0,1,1,3.5c.05.37.2.49.57.39A14.62,14.62,0,0,1,59,38.62C60.2,38.44,60.2,38.45,60.14,37.57ZM35.66,38.91c.33.05.35.05.43-.39A14.81,14.81,0,0,1,37.18,35a.39.39,0,0,0-.17-.6,23.83,23.83,0,0,0-2.66-1.49c-.33-.15-.48-.08-.57.26A21.2,21.2,0,0,0,33.1,38c0,.29.09.46.39.51C34.22,38.64,34.94,38.78,35.66,38.91Zm13.66,3.7a17.78,17.78,0,0,1,5.73-3c.28-.09.27-.29.23-.54a14.24,14.24,0,0,0-.73-2.78c-.18-.53-.38-.49-.75-.16a18.61,18.61,0,0,0-4.46,6A.43.43,0,0,0,49.32,42.61ZM37.84,39c0,.44,0,.47.44.63a17.22,17.22,0,0,1,5.13,2.68c.1.08.21.25.36.12s0-.26-.05-.39A18.61,18.61,0,0,0,39.17,36c-.27-.23-.41-.18-.54.13A13.38,13.38,0,0,0,37.84,39Z" style="fill:#f8fcfe"/></svg>