<svg id="Layer_1" data-name="Layer 1" xmlns="http://www.w3.org/2000/svg" viewBox="0 0 93.45 93.45"><title>customer</title><g style="opacity:0.4"><path d="M86.69,45A39.55,39.55,0,0,0,86.3,41a37.06,37.06,0,0,0-.78-3.77,36.69,36.69,0,0,0-1.59-4.78,37.45,37.45,0,0,0-2.55-5.11A36.61,36.61,0,0,0,78,22.5a9.45,9.45,0,0,0-1.07-1.2A10.3,10.3,0,0,1,76,22.45l-.09.11A10.41,10.41,0,0,1,74,24.23a11.18,11.18,0,0,1-2.45,1.34A7.61,7.61,0,0,1,70,26h0l-.24,0h0a0,0,0,0,1-.06,0h0l0,0a1.12,1.12,0,0,1-.52.06H69L68.65,26h0l-.26,0h0l-.58-.15a2.4,2.4,0,0,1-1.35-1.26L66,25a6.08,6.08,0,0,1-.74.62l-.14.1-.49.34-.37.27a.91.91,0,0,1-.44.16h0a6.59,6.59,0,0,1-.12,1,19.12,19.12,0,0,1-.93,3.27,10.32,10.32,0,0,1-.78,1.5l-.37.61c-.22.36-.44.73-.67,1.08a15.21,15.21,0,0,1-1,1.28l-.47.56c-.21.26-.43.52-.65.77a24.71,24.71,0,0,1-1.78,1.78l-.27.26-.2.19c-.76.72-1.58,1.37-2.37,2l-.19.15c-.9.73-1.9,1.38-2.7,1.91s-1.58,1-2.34,1.4l-.74.38-.79.41c-.59.32-1.13.61-1.69.89l-.09,0a7.87,7.87,0,0,1-1.18.49,2.86,2.86,0,0,0-.41.19,4.3,4.3,0,0,1-.48.22l-.51.2c-.32.13-.65.26-1,.37s-.75.27-1.12.41-.7.27-1.06.39c-.68.22-1.38.41-2,.59-.39.11-.79.21-1.18.33s-.92.23-1.37.33-.74.16-1.11.26A10,10,0,0,1,33,50l-.61.09c-1,.17-1.94.28-2.75.36-1.32.12-2.72.21-4.3.26h-.47l-1,0h-.7c-.85,0-1.69-.11-2.51-.2l-.68-.07c-.84-.09-1.68-.25-2.49-.4l-.38-.08a12.12,12.12,0,0,1-1.22-.32l-.69-.19a11.37,11.37,0,0,1-2.23-.82,8.46,8.46,0,0,1-.79-.43l-.64-.36q-.35-.18-.63-.36v.09c0,.43,0,.85,0,1.28,0,.84.11,1.69.21,2.54q.24,1.9.66,3.78A38,38,0,0,0,14.5,63c.27.57.56,1.13.86,1.68a38.78,38.78,0,0,0,4.2,6.22A37.87,37.87,0,0,0,39.83,83.56a37.18,37.18,0,0,0,4.92.84c1.3.14,2.61.2,3.92.23.81,0,1.62,0,2.43-.09A37.24,37.24,0,0,0,55.7,84,37.87,37.87,0,0,0,77.39,71.61a37,37,0,0,0,5-7.37,37.94,37.94,0,0,0,4.27-16.09C86.75,47.11,86.74,46.07,86.69,45ZM71.12,28a8.06,8.06,0,0,0,.5-.71c.09-.16.19-.31.29-.46l.34-.48c.17-.25.34-.5.52-.74a.89.89,0,0,1,1-.38,4.9,4.9,0,0,1,.71.24,2.39,2.39,0,0,0,.37.15.57.57,0,0,1,.19.1l.89-1.17a.89.89,0,0,1,1.21-.29,2.56,2.56,0,0,1,1.42,1.39,1,1,0,0,1,0,.85,6.73,6.73,0,0,1-1,1.4l-.11.12a3.87,3.87,0,0,1-.8.75.85.85,0,0,1-1,0,2.12,2.12,0,0,0-.37-.19,3.11,3.11,0,0,1-.33-.15,2.43,2.43,0,0,0-.14.2l.17.06.09,0a.63.63,0,0,1,.19,0l.12.05a.43.43,0,0,1,.17.12l0,0,.16.13.07.06s0,0,.05.05l.36.36.07.09a.54.54,0,0,1,.15.18s0,0,0,0a.54.54,0,0,1,.1.16l0,.06,0,.14a1.1,1.1,0,0,1-.22.7.64.64,0,0,0-.06.11A5.67,5.67,0,0,1,75,33a1.27,1.27,0,0,1-.9.47,1.39,1.39,0,0,1-.74-.25,2.35,2.35,0,0,0-.58-.24,1.38,1.38,0,0,1-.85-.63.5.5,0,0,1,0-.54l.08-.13,0,0a.43.43,0,0,1,0-.07l.1-.1a.83.83,0,0,1,.07-.13.56.56,0,0,1,.11-.2l0,0A.58.58,0,0,1,72.5,31l.09-.1,0-.07,0,0,.08-.14a.25.25,0,0,1,.08-.12l.06-.09,0-.07.07-.11.08-.09a.49.49,0,0,1,.11-.14l0,0s0,0,0,0h-.07a.82.82,0,0,1-.43-.12,6.92,6.92,0,0,0-1.07-.47l-.23-.09a.79.79,0,0,1-.53-.52A.84.84,0,0,1,71.12,28Zm-.63,13.65a.5.5,0,0,1,.15-.14.8.8,0,0,1,.17-.15l.09-.07.08-.09.08,0a.69.69,0,0,1,.25-.22l0,0a.6.6,0,0,1,.09-.13l.8-.83h0l0-.06.12-.15.08-.07s0,0,0,0l.07-.1a.43.43,0,0,1,.11-.12s0,0,0,0l.07-.1a.35.35,0,0,1,.17-.15l.15-.23.42-.65a1.1,1.1,0,0,0,.16-.29.39.39,0,0,1,0-.18.66.66,0,0,1,.27-.3.26.26,0,0,1,0-.09.76.76,0,0,1,.09-.18l.14-.22a1,1,0,0,0,.19-.32.16.16,0,0,1,0-.09l0-.06a.53.53,0,0,1,.28-.27.57.57,0,0,1,.66-.09.62.62,0,0,1,.31.68,1.11,1.11,0,0,1-.12.47.15.15,0,0,0,0,.07,10.59,10.59,0,0,1-.5,1.82,10,10,0,0,1-.87,1.95l-.06.12a10.63,10.63,0,0,1-.67,1,11.36,11.36,0,0,1-1.07,1.17c-.36.33-.73.65-1.1.94h0a0,0,0,0,1,0,0,1.89,1.89,0,0,1-1.23.42,4.76,4.76,0,0,0-1.94.49c-.35.13-.69.28-1,.38h0l0,0a.93.93,0,0,1-.35.08.59.59,0,0,1-.29-.07.68.68,0,0,1-.35-.51.47.47,0,0,1,.14-.46l.11-.11a.74.74,0,0,1,.13-.12l.2-.14h0a.38.38,0,0,1,.13-.09l.2-.09a.5.5,0,0,1,.17-.15l.06,0s0,0,0,0a.58.58,0,0,1,.15-.11l.07-.06.06,0,.72-.48a16.15,16.15,0,0,0,1.53-1.1l.15-.1h0a1.14,1.14,0,0,1,.11-.11l.18-.14h0l.1-.09.12-.08ZM62.18,33.3a1.47,1.47,0,0,0,.1-.13c.17-.26.35-.51.52-.76.34-.51.7-1,1-1.56a.94.94,0,0,1,1.22-.5,4.9,4.9,0,0,1,1.11.42,1.56,1.56,0,0,1,.39.26l.38-.51c.21-.28.41-.56.61-.85a.92.92,0,0,1,1.11-.38,2.86,2.86,0,0,1,1.58,1.42.51.51,0,0,1,.08.29,2,2,0,0,1-.18.83c-.06.11-.13.21-.19.31a1.63,1.63,0,0,0-.11.17A6.26,6.26,0,0,1,68.43,34l-.05,0a.93.93,0,0,1-1.14.18l-.11-.06a2.14,2.14,0,0,1-.32-.2.83.83,0,0,0-.23-.1,2.67,2.67,0,0,1-.39-.18s0,0,0,0a5.54,5.54,0,0,1-1.32,1.45,1,1,0,0,1-.57.2,1,1,0,0,1-.58-.2,2.42,2.42,0,0,0-1.41-.56.52.52,0,0,1-.35-.16.54.54,0,0,1-.14-.36A1.15,1.15,0,0,1,62.18,33.3Zm-25.71,28a8.7,8.7,0,0,1,1.06-2,11.54,11.54,0,0,1,1.81-2,20.06,20.06,0,0,1,2.75-2.11c.88-.56,1.78-1.06,2.69-1.59l1.87-1.07c1.07-.6,2.14-1.23,3.24-1.79.85-.44,1.69-.91,2.54-1.37s1.92-1,2.85-1.55,2.1-1.21,3.14-1.83c.88-.54,1.77-1.06,2.61-1.68a13.6,13.6,0,0,0,2-1.7c.1-.11.19-.22.29-.32s.07-.07.12,0a.15.15,0,0,1,.08.14,3.15,3.15,0,0,0-.22.59A4.14,4.14,0,0,1,62,44.92c-.54.44-1.1.88-1.67,1.29s-1,.65-1.47,1-.93.66-1.42.94-1,.67-1.55,1c-.89.5-1.75,1-2.63,1.56l-2.55,1.45-1.07.6-2.4,1.37-1.72,1c-.86.5-1.72,1-2.57,1.53-.65.39-1.29.76-1.92,1.16-.33.2-.65.43-1,.66-.61.46-1.17,1-1.75,1.47-.22.2-.41.43-.62.63s-.64.66-.95,1c-.07.06-.13.18-.24.1S36.44,61.41,36.47,61.32ZM56,55c.13-.19.25-.23.45-.09a2.42,2.42,0,0,1,.74.61c.1.14.18,0,.24,0l.61-.89c.2-.28.3-.3.53-.07a2.62,2.62,0,0,1,.75.9.52.52,0,0,1,0,.5,5.79,5.79,0,0,1-1,1.27c-.18.16-.33.16-.47,0s-.39-.29-.57-.45-.24,0-.31.08a5.37,5.37,0,0,1-.52.73c-.2.25-.34.25-.58,0a2.18,2.18,0,0,0-.7-.46c-.13,0-.26-.1-.27-.31a.27.27,0,0,1,0-.13A16.53,16.53,0,0,0,56,55Zm-.25-1.76c.3-.43.56-.9.84-1.34l.22-.35c.14-.23.23-.25.43-.08a5.47,5.47,0,0,1,.77.89.62.62,0,0,1,.07.19c0,.07,0,.12,0,.17a4.42,4.42,0,0,1-1.05,1.51.24.24,0,0,1-.39,0,1.88,1.88,0,0,0-.71-.47C55.52,53.6,55.52,53.47,55.71,53.2Zm-23,12.93A8.16,8.16,0,0,0,34.24,64c0-.1.08-.22.21-.21s.18.12.21.24.13.46.18.69a1.58,1.58,0,0,0,1,1.19,2.61,2.61,0,0,0,.69.08.14.14,0,0,0,.16-.11c0-.11,0-.17-.12-.21a1.92,1.92,0,0,1-.75-.82.5.5,0,0,1,0-.46,4.93,4.93,0,0,1,2.79-3.08,1.67,1.67,0,0,1,1.26,0,1,1,0,0,1,.65.89v.29a5.22,5.22,0,0,1-.71,2.24,8.66,8.66,0,0,1-1,1.58c-.26.34-.57.64-.86,1a4.46,4.46,0,0,1-1.2.86,2.25,2.25,0,0,1-1.54.22,1.71,1.71,0,0,1-1-.75,1.65,1.65,0,0,1-.35-.85.16.16,0,0,0-.12-.17c-.08,0-.11,0-.15.11A11.05,11.05,0,0,1,32,68.47a6.68,6.68,0,0,1-2,1.36,3.18,3.18,0,0,1-1.64.32.7.7,0,0,1-.29-.09,4.54,4.54,0,0,1-1-.78c-.2-.22-.16-.36.09-.52a3.48,3.48,0,0,1,1.21-.34,8.16,8.16,0,0,0,2.21-.82A7.46,7.46,0,0,0,32.69,66.13Zm-5.77-.54a4.47,4.47,0,0,1,.44-1.73,8.77,8.77,0,0,1,.8-1.59c.13-.2.07-.47.15-.71a10.47,10.47,0,0,1,1-2.23c.1-.15.2-.22.34-.07a3.92,3.92,0,0,1,1,1.64,4,4,0,0,1,.08,1.24,7.81,7.81,0,0,1-.52,2.09,4.77,4.77,0,0,1-1.58,2.22,1.27,1.27,0,0,1-.72.31.9.9,0,0,1-1-.9A2.43,2.43,0,0,1,26.92,65.59ZM53.64,70.1a13.31,13.31,0,0,1-2.19,2.05c-.71.53-1.43,1-2.18,1.5a20.88,20.88,0,0,1-2.5,1.26,14.46,14.46,0,0,1-2.46.89,21.85,21.85,0,0,1-2.67.57,23.57,23.57,0,0,1-3.56.23c-.49,0-1-.06-1.48-.08s-.85-.09-1.27-.13a10.36,10.36,0,0,1-1.46-.25c-.63-.14-1.27-.28-1.89-.46a16.26,16.26,0,0,1-2.44-.91,12.89,12.89,0,0,1-1.4-.67,14.29,14.29,0,0,1-1.9-1.27,10.33,10.33,0,0,1-2-2.07,7.65,7.65,0,0,1-.78-1.6.57.57,0,0,1,.13-.56c.15-.16.32-.09.47,0,.36.18.73.36,1.08.56a32,32,0,0,0,3.12,1.5c.37.16.76.29,1.12.49a6.82,6.82,0,0,0,.9.31l1.16.38c.94.29,1.91.49,2.86.72s1.62.25,2.42.36,1.47.11,2.21.16A14.61,14.61,0,0,0,41,73c.54,0,1.08-.1,1.62-.15a21,21,0,0,0,2.1-.38c.51-.12,1-.28,1.52-.45s1.08-.37,1.61-.56a14.56,14.56,0,0,0,2.33-1.18,19,19,0,0,0,3.29-2.42,9.27,9.27,0,0,0,1.43-1.68,10,10,0,0,0,.91-1.71,3.27,3.27,0,0,0,.24-1,4.88,4.88,0,0,0-.42-1.74.5.5,0,0,1,0-.36c.2-.59.45-1.15.66-1.73,0-.09.06-.19.19-.19s.17.07.21.16a1.47,1.47,0,0,0,2,.44,2.93,2.93,0,0,0,.75-.74.26.26,0,0,1,.3-.1c.41.15.66-.08.88-.36a2.65,2.65,0,0,0,.51-.95,3.74,3.74,0,0,1,.22-.45c.05-.09.12-.19.24-.16s.14.16.14.28-.08.49-.12.73a5.57,5.57,0,0,1-.4,1.45,2.15,2.15,0,0,1-1.49,1.35,1.34,1.34,0,0,0-.52.34,2.73,2.73,0,0,1-1.65.7c-.15,0-.25.07-.26.23a8.22,8.22,0,0,1-.4,2.09A12.26,12.26,0,0,1,56.3,66,16.3,16.3,0,0,1,53.64,70.1ZM67.15,54.93a9.67,9.67,0,0,0-.36,2c-.11.79-.22,1.58-.28,2.38,0,.55-.12,1.1-.17,1.65a15.44,15.44,0,0,1-.64,3.22c-.21.62-.43,1.24-.7,1.84-.16.34-.36.66-.54,1a9.17,9.17,0,0,1-1,1.53,4.46,4.46,0,0,1-2.29,1.67,3.6,3.6,0,0,1-1,.08,4.21,4.21,0,0,1-1.46-.17A5.13,5.13,0,0,1,56.45,69c-.07-.07-.13-.15-.09-.25s.15-.11.24-.09c.48.07.94.17,1.42.21a7.09,7.09,0,0,0,1.66,0,4.59,4.59,0,0,0,1.25-.27,5.45,5.45,0,0,0,1.81-1.12,11.72,11.72,0,0,0,1.49-1.73A4.32,4.32,0,0,0,65,63.79c.2-1.31.24-2.63.43-3.94.07-.48.08-1,.15-1.43a9.85,9.85,0,0,1,.29-1.22,14.15,14.15,0,0,1,.94-2.41,1.14,1.14,0,0,1,.1-.19.18.18,0,0,1,.18-.05.13.13,0,0,1,.1.13A1,1,0,0,1,67.15,54.93Zm6.95-6.69A17.22,17.22,0,0,1,73,50.53a7.63,7.63,0,0,1-2.32,2.24,10.1,10.1,0,0,1-1.11.62,5.25,5.25,0,0,1-1.67.41,5.74,5.74,0,0,1-2.29-.32,9.18,9.18,0,0,1-1.2-.54,1.54,1.54,0,0,0-1.26,0,2.71,2.71,0,0,0-.74.33.21.21,0,0,1-.3-.07c-.11-.11-.06-.24,0-.35s.28-.36.42-.53a5.9,5.9,0,0,1,1.79-1.47A3.15,3.15,0,0,1,66,50.3a.81.81,0,0,1,.58.16,4,4,0,0,0,2.87.57,7.41,7.41,0,0,0,1.33-.24,4.23,4.23,0,0,0,2-1.35,8.34,8.34,0,0,0,1-1.39A.19.19,0,0,1,74,48,.18.18,0,0,1,74.1,48.24Zm2-4.07h0a2.23,2.23,0,0,1-.48.26,5,5,0,0,1-2,.44,1.92,1.92,0,0,1-.24,0l-.11,0h-.18a.5.5,0,0,1-.49-.4.87.87,0,0,1,.34-.87l.65-.55c.41-.35.81-.69,1.23-1a8,8,0,0,0,1.46-1.62l0-.08a.27.27,0,0,1,.09-.12l.1-.21a.45.45,0,0,1,.1-.13l.06-.08.05-.06,0,0c0-.14.11-.26.16-.39a5.71,5.71,0,0,0,.26-.72,13.53,13.53,0,0,0,.28-1.82c.1-1,.16-2,.19-2.87,0-.12,0-.24,0-.36,0-.3,0-.6.05-.9,0-.1,0-.2,0-.31a5.42,5.42,0,0,1,.1-.77A13.74,13.74,0,0,1,78.31,30l.21-.66A11.05,11.05,0,0,1,79,28.08a1,1,0,0,1,.07-.15,1,1,0,0,0,.12-.33.77.77,0,0,1,0-.15l0-.06a.82.82,0,0,1,.12-.2,0,0,0,0,1,0,0l0-.09a.37.37,0,0,1,.07-.14.86.86,0,0,1,.16-.19.51.51,0,0,1,.44-.25.78.78,0,0,1,.57.26.74.74,0,0,1,.15.61c0,.24-.06.47-.09.71l0,.09c-.05.43-.09.87-.13,1.3,0,.26,0,.51-.07.76-.06.63-.11,1.26-.16,1.9,0,.34-.05.67-.07,1s-.1,1-.19,1.67c0,.14,0,.28,0,.42,0,.32-.08.65-.13,1s-.13.74-.22,1.1a11,11,0,0,1-.36,1.19l-.11.34,0,.11a1.1,1.1,0,0,1-.16.46,1.93,1.93,0,0,0-.17.43,2.62,2.62,0,0,1-.22.58,4.08,4.08,0,0,0-.17.42l-.12.32a8.82,8.82,0,0,1-.71,1.3c-.26.42-.57.81-.83,1.15A2.44,2.44,0,0,1,76.11,44.17Zm8.66-6.7c0,.16,0,.32,0,.48a2.81,2.81,0,0,1-.18.92c-.06.17-.11.34-.16.51a7.39,7.39,0,0,1-.29.87,21.09,21.09,0,0,1-.91,2.08A7.45,7.45,0,0,1,82.06,44l-.21.23a8.67,8.67,0,0,1-1,.94l-.15.11-.24.17a7.13,7.13,0,0,1-2.06.9,1.14,1.14,0,0,1-.66-.06.82.82,0,0,1-.45-.3.88.88,0,0,1-.12-.85.76.76,0,0,1,.07-.13.4.4,0,0,1,.07-.24l.09-.15.07-.09.08-.09a.6.6,0,0,1,.08-.08v0l.12-.12s0,0,0,0l0,0L78,44l.42-.34,2.35-2a.23.23,0,0,1,.07-.07l.09-.08a.27.27,0,0,1,.08-.07l.08-.08a.16.16,0,0,1,.07-.09l.06-.07,0,0,0-.05.1-.08h0l.08-.12.07-.09v0a.5.5,0,0,1,.22-.21,2,2,0,0,0-.21-1.2l0-.05a2.36,2.36,0,0,0-.29-.44l-.19-.24A1.18,1.18,0,0,0,81,38.4a3.09,3.09,0,0,0-.39-.33l-.22-.17-.25-.15a.49.49,0,0,1-.27-.42V37.2a.48.48,0,0,1,.25-.45,2.6,2.6,0,0,1,.25-.53,1.59,1.59,0,0,0,.15-.29,22.74,22.74,0,0,1,1-2.07s0,0,0,0a.45.45,0,0,1,0-.23l0-.12a.42.42,0,0,1,.09-.14,1,1,0,0,1,.24-.26L82,33a.67.67,0,0,1,.88-.11L83,33a3,3,0,0,1,.83.72h0a.44.44,0,0,1,.1.16h0l0,0,.13.16a.51.51,0,0,1,.1.25,4,4,0,0,1,.32.79l.06.19A5.68,5.68,0,0,1,84.77,37.47Z" style="fill:#fdfffe"/><path d="M71.84,16.62a38.75,38.75,0,0,0-4.57-3A38,38,0,0,0,53.75,9.14c-1.21-.15-2.42-.25-3.64-.3-1,0-2,0-3,0-1.37.07-2.73.19-4.08.39a37.76,37.76,0,0,0-12.81,4.41A38.68,38.68,0,0,0,23,18.9a37.79,37.79,0,0,0-3.57,3.81,36.28,36.28,0,0,0-4.52,6.92c-.5,1-1,2-1.37,3A38.14,38.14,0,0,0,12,37.58c-.26,1.06-.47,2.12-.64,3.2a18.07,18.07,0,0,0-.23,1.8.49.49,0,0,1,.3.14l0,.05a25.39,25.39,0,0,0,2.39.89l.43.14c.56.18,1.16.33,1.74.48l.49.12c.29.07.61.14,1,.2l.74.1,1.17.18a16.1,16.1,0,0,0,1.7.21l.21,0c.88.07,1.56.12,2.2.14l.92,0c.45,0,.91,0,1.37,0a10.74,10.74,0,0,0,1.13,0l.73,0c.93,0,1.89-.06,2.81-.11.33,0,.65-.06,1-.09l.7-.08c.56,0,1.13-.12,1.7-.21l.77-.1a9.53,9.53,0,0,0,1.09-.16l.39-.08c.85-.18,1.73-.36,2.57-.59.3-.07.59-.16.88-.24s.75-.22,1.12-.31a32,32,0,0,0,3.14-1c.86-.32,1.6-.63,2.26-.93,1.17-.53,2.29-1.09,3.32-1.67a24.8,24.8,0,0,0,2.38-1.42l.26-.17c.71-.48,1.43-1,2.14-1.49s1.68-1.34,2.47-2L57,34.2a20,20,0,0,0,1.89-1.9A23.07,23.07,0,0,0,60.67,30a4.33,4.33,0,0,0,.72-3,2.25,2.25,0,0,1,0-.26.4.4,0,0,0,0-.11c-.12-.3-.25-.61-.39-.91a2.15,2.15,0,0,1-.16-1.42A1.48,1.48,0,0,1,62.2,23l.16,0a3.6,3.6,0,0,0,.7-.15c.37-.12.77-.23,1.25-.35a3.44,3.44,0,0,0,1.77-.95,8.31,8.31,0,0,0,1.52-2.42.71.71,0,0,1,.1-.14s0,0,0-.05l.06-.05,0-.05a.7.7,0,0,1,.85-.25.72.72,0,0,1,.43.73.55.55,0,0,1-.16.38l0,0A1.76,1.76,0,0,0,69,21h0a.52.52,0,0,1,.16.17.25.25,0,0,1,0,.07.42.42,0,0,1,.09.14.53.53,0,0,0,.18.2l.15.15h0l.09.07,0,0h0l.07,0a.16.16,0,0,0,.09,0,.4.4,0,0,1,.15,0,.29.29,0,0,1,.16,0h.34a1.35,1.35,0,0,1-.27-1.56l0-.07A.43.43,0,0,1,70.4,20l.18-.28a.27.27,0,0,1,.07-.08.34.34,0,0,1,.06-.15,11.24,11.24,0,0,1,1.1-1.33c.27-.27.56-.55.87-.82C72.4,17.06,72.13,16.83,71.84,16.62Zm-32,16.25a.53.53,0,0,1-.24.27,2.76,2.76,0,0,1-.16.27l-.07.11a7.38,7.38,0,0,1-1.66,2l0,0-.06,0-.06,0a.54.54,0,0,1-.27.12h-.06a.44.44,0,0,1-.16,0l-.19,0h0a1.09,1.09,0,0,1-.43-.14l-.07,0h0a3.14,3.14,0,0,0-.37-.18h0a6.39,6.39,0,0,0-.73-.27h0l-.19,0a.5.5,0,0,1-.44-.38,1,1,0,0,1,.14-.74c.21-.37.43-.73.65-1.1.33-.53.64-1,.91-1.57a4.14,4.14,0,0,1,.33-.54.84.84,0,0,1,1-.29,4.22,4.22,0,0,1,1.84,1.1A1.16,1.16,0,0,1,39.81,32.87Z" style="fill:#fdfffe"/><path d="M36.46,64.12a.72.72,0,0,1,.27-.62,2.35,2.35,0,0,1,1.57-.61.8.8,0,0,1,.84.47,1,1,0,0,1-.15,1.2,13.47,13.47,0,0,1-1.17,1,.17.17,0,0,1-.2,0,3.38,3.38,0,0,1-1-.87A.91.91,0,0,1,36.46,64.12Z" style="fill:#fdfffe"/><path d="M28.29,64.84c-.32,0-.65-.36-.59-.62a5.66,5.66,0,0,1,.43-1.32l0-.06c.21-.35.32-.36.58-.05a4.19,4.19,0,0,1,.53.83.78.78,0,0,1-.57,1.16Z" style="fill:#fdfffe"/><path d="M75.38,19.7a.41.41,0,0,0-.14.15,1.06,1.06,0,0,1-.37.37c-.46.33-.94.61-1.45.91l-.1.06a4.9,4.9,0,0,1-1-.6l-.16-.19a.49.49,0,0,0-.12-.13.62.62,0,0,1,.14-.19l0,0h0a3.09,3.09,0,0,1,.31-.23A6.66,6.66,0,0,1,74.24,19c.08,0,.16,0,.18-.14A6.68,6.68,0,0,1,75.38,19.7Z" style="fill:#fdfffe"/></g><path d="M73.06,17.62c.09,0,.15,0,.21-.07a7.8,7.8,0,0,1,2.67-1.45,11.24,11.24,0,0,1,1.27-.32,2.43,2.43,0,0,1,.81.05.56.56,0,0,1,.36.55A6.35,6.35,0,0,1,78,18a14.57,14.57,0,0,1-1.4,2.79,9.21,9.21,0,0,1-1.13,1.46,9.09,9.09,0,0,1-1.76,1.58,9.69,9.69,0,0,1-2.34,1.29,6.32,6.32,0,0,1-1.72.39c-.17,0-.32.13-.49.1a7.06,7.06,0,0,1-1.26-.26,2,2,0,0,1-1.19-1.28c0-.11,0-.22,0-.33s0-.17-.12-.19-.15,0-.19.11a4.91,4.91,0,0,1-.76,1,6.58,6.58,0,0,1-.82.66c-.28.21-.57.4-.86.61a.55.55,0,0,1-.25.07c-.3,0-.39.19-.39.5a6.61,6.61,0,0,1-.11.88,17.4,17.4,0,0,1-.91,3.17A8.76,8.76,0,0,1,61.61,32c-.35.56-.68,1.13-1,1.67a11.17,11.17,0,0,1-.91,1.23c-.38.44-.73.9-1.12,1.33-.55.61-1.14,1.19-1.75,1.75l-.47.45c-.8.76-1.67,1.44-2.53,2.13a32,32,0,0,1-2.66,1.88c-.75.49-1.52,1-2.31,1.38-.51.27-1,.52-1.53.79s-1.1.61-1.67.88a9.63,9.63,0,0,1-1.19.5c-.32.09-.6.31-.92.43-.5.18-1,.39-1.48.55-.74.24-1.45.56-2.19.81-1.06.35-2.14.6-3.21.91-.81.23-1.65.37-2.47.59a16.42,16.42,0,0,1-1.86.32c-.9.16-1.8.26-2.71.35-1.42.14-2.84.21-4.27.25-.73,0-1.45,0-2.18,0-1.05,0-2.1-.16-3.14-.27s-1.9-.29-2.84-.47c-.63-.11-1.25-.34-1.87-.51a11.37,11.37,0,0,1-2.14-.77c-.49-.24-1-.55-1.43-.8a6.94,6.94,0,0,1-1-.6c-.17-.11-.39-.07-.54-.18a8.64,8.64,0,0,1-1.76-1.48c-.21-.26-.47-.49-.7-.73a1.84,1.84,0,0,1-.55-.84A1.06,1.06,0,0,0,7,43.14,1.67,1.67,0,0,1,6.72,42a.58.58,0,0,1,.7-.5,8.39,8.39,0,0,1,1.33.61,19.8,19.8,0,0,0,2.21,1H11c0,.06,0,.08.08.1a28.76,28.76,0,0,0,3,1.1c.74.25,1.51.42,2.27.61a9,9,0,0,0,1,.21c.63.1,1.27.16,1.9.28a18.69,18.69,0,0,0,2,.23c.73.06,1.48.12,2.22.15s1.52,0,2.28.06,1.26,0,1.89,0c.95,0,1.89-.06,2.84-.12.56,0,1.13-.11,1.69-.16s1.17-.12,1.74-.21,1.26-.14,1.88-.27c1-.21,2-.41,3-.68.67-.17,1.33-.38,2-.55A29.24,29.24,0,0,0,44,42.73c.77-.29,1.54-.59,2.29-.94,1.14-.52,2.26-1.07,3.36-1.68.82-.45,1.63-.91,2.41-1.44s1.62-1.1,2.41-1.67c1-.75,2-1.59,2.9-2.42a20.9,20.9,0,0,0,1.93-1.95,21.71,21.71,0,0,0,1.81-2.36A4.85,4.85,0,0,0,61.89,27a2,2,0,0,0,0-.49c-.13-.32-.27-.64-.4-.95a1.73,1.73,0,0,1-.14-1.1,1,1,0,0,1,1-.93,4.91,4.91,0,0,0,.94-.2c.4-.13.8-.24,1.21-.33a4,4,0,0,0,2-1.1,9,9,0,0,0,1.61-2.55s0,0,0,0l.16-.14c.07-.09.16-.18.28-.13s.12.18.12.29-.13.1-.15.17a2.24,2.24,0,0,0,0,1.67c0,.09,0,.23.19.23l0,0c0,.07,0,.14.08.12.09.24.31.37.47.55,0,.06,0,0,0,0l0,0c0,.07,0,.1.07.05l0,0c0,.09,0,.1.09.05a.75.75,0,0,0,.33.1c.06.14.14.12.23,0a1.07,1.07,0,0,0,.47,0c0,.09.1.05.16.06.4,0,.77-.14,1.17-.11a.16.16,0,0,0,.17-.14A.2.2,0,0,0,71.9,22a1.58,1.58,0,0,1-.79-.32.86.86,0,0,1-.37-1.16.38.38,0,0,0,.07-.33L71,20c.15,0,.14-.11.12-.22a11.59,11.59,0,0,1,1.06-1.26A11.82,11.82,0,0,1,73.06,17.62Zm-1.32,3.07s0,0,0,0l.18.21h0a4.51,4.51,0,0,0,1.21.72.38.38,0,0,0,.37,0,18.47,18.47,0,0,0,1.63-1,1.84,1.84,0,0,0,.51-.53.47.47,0,0,0,.28-.16,8.4,8.4,0,0,0,.84-1.05.52.52,0,0,0-.27-.81,4,4,0,0,0-2.32.3c-.32.12-.63.27-.94.41a6.69,6.69,0,0,0-1,.6,1.72,1.72,0,0,0-.69.77.39.39,0,0,0,.19.52Z" style="fill:#fdfffe"/><path d="M78.17,44.54l.61-.51,2.35-2c.07,0,.09,0,.07-.07l.08-.08s.06,0,0,0l.1-.09.09-.12s0,0,0,0l.07-.07c.07,0,.09,0,.08-.08s0,0,0,0a.14.14,0,0,0,.17-.17l.07-.11c.07,0,.1,0,.07-.08l0-.06c.2,0,.23-.21.27-.35a2.47,2.47,0,0,0-.26-1.53,3.64,3.64,0,0,0-.53-.79,3.42,3.42,0,0,0-1.21-1v-.13a.3.3,0,0,0,.2-.21,8.32,8.32,0,0,1,.41-.85,22.19,22.19,0,0,1,1-2c0-.1.13-.2.08-.33l0-.11s0,0,0,0a1.92,1.92,0,0,1,.28-.29.15.15,0,0,1,.21,0,3.35,3.35,0,0,1,.88.71c0,.07,0,.09.06.08l0,.06c0,.07,0,.1.07.08l.13.17s0,.07,0,.09a4.28,4.28,0,0,1,.4,1,7,7,0,0,1,.12,2.46,2.63,2.63,0,0,1-.15.77c-.15.45-.27.92-.44,1.37a19,19,0,0,1-.9,2,6.32,6.32,0,0,1-1.06,1.56A7.51,7.51,0,0,1,80.27,45a5.18,5.18,0,0,1-2.2.83.36.36,0,0,1-.4-.51c0-.09.14-.17.1-.29l.09-.15s0,0,0,0a.19.19,0,0,0,.11-.12s0,0,0,0l.11-.11S78.18,44.56,78.17,44.54Z" style="fill:#fdfffe"/><path d="M76.88,40.44,77,40.2a.08.08,0,0,0,.07-.1l.06-.06c.07,0,.1-.08.12-.14a10.74,10.74,0,0,0,.47-1.23,13.63,13.63,0,0,0,.29-1.9c.08-1,.15-1.93.19-2.89,0-.41,0-.82,0-1.23a8.86,8.86,0,0,1,.12-1,10.81,10.81,0,0,1,.41-1.48c.22-.62.37-1.26.65-1.86a1.67,1.67,0,0,0,.24-.69l0-.06a.2.2,0,0,0,.12-.23l0-.1,0,0c0-.06.13-.09.16-.18.19,0,.26.1.24.3s-.08.54-.11.81c-.09.69-.14,1.38-.2,2.07-.1,1-.16,1.95-.24,2.92,0,.55-.11,1.09-.18,1.64s-.1.92-.18,1.38-.13.72-.21,1.08-.3,1-.47,1.49a1.86,1.86,0,0,1-.13.46c-.2.32-.23.7-.4,1s-.21.52-.32.78a9.22,9.22,0,0,1-.67,1.23,10.6,10.6,0,0,1-.81,1.09,1.75,1.75,0,0,1-.57.51,6,6,0,0,1-2.65.56.36.36,0,0,1,.18-.39c.62-.53,1.23-1.06,1.86-1.57a8.66,8.66,0,0,0,1.55-1.71l.08-.15C76.86,40.53,76.89,40.5,76.88,40.44Z" style="fill:#fdfffe"/><path d="M73.5,30.4c.08,0,.11-.13.15-.21s.16-.16.17-.28l0-.06c.07,0,.1,0,.07-.09l0-.05c.09,0,.15,0,.12-.14l.07-.1c.12,0,.14-.09.13-.19l.16-.17c.21,0,.38.14.58.13l.12.05c0,.06,0,.09.08.06l.16.13c0,.06,0,.09.08.07l.36.36c0,.1,0,.14.12.13l0,.06c0,.07,0,.1.07.09l0,.06c0,.24-.18.4-.25.61a5.07,5.07,0,0,1-1.16,1.8.67.67,0,0,1-1,.14,2.55,2.55,0,0,0-.7-.3.88.88,0,0,1-.56-.42l.09-.13c.06,0,0,0,0-.06h0a.19.19,0,0,0,.17-.23.23.23,0,0,0,.07-.15c.07,0,.1,0,.07-.09l0-.06c.07,0,.1,0,.08-.09a.21.21,0,0,0,.11-.15c.07,0,.1,0,.07-.09l.08-.15c.07,0,.09,0,.08-.09l0-.05c.06,0,.09,0,.07-.1l.07-.1C73.51,30.53,73.51,30.47,73.5,30.4Z" style="fill:#fdfffe"/><path d="M67.31,44.59l.07,0c.09,0,.13,0,.14-.11v0l0,0a.19.19,0,0,0,.15-.11l0,0c.76-.53,1.57-1,2.28-1.61.08-.07.19-.1.24-.2l0,0,.15-.13c.06,0,.09,0,.07-.07l.12-.08c.12,0,.21,0,.22-.16a.4.4,0,0,0,.18-.16c.06,0,.12,0,.11-.08a.13.13,0,0,0,.12-.11s0,0,0,0,.12-.16.21-.2.25-.09.26-.25l.8-.82c.06,0,.09,0,.07-.09l.12-.15c.08,0,.14,0,.12-.14l.07-.1c.09,0,.14-.05.12-.14l.07-.1c.07,0,.1,0,.14-.09.2-.32.42-.64.62-1a1.09,1.09,0,0,0,.23-.54l0-.05c.21-.08.25-.3.35-.46a2.29,2.29,0,0,0,.39-.7l0-.05.07,0c.06,0,.1-.14.17-.1s0,.16,0,.24-.12.29-.14.46a11.94,11.94,0,0,1-.48,1.75,9.6,9.6,0,0,1-.83,1.85A8.79,8.79,0,0,1,73.1,42a11.72,11.72,0,0,1-1.78,1.81,1.86,1.86,0,0,1-1.24.51,3.07,3.07,0,0,0-1.28.2l-.82.33c-.39.17-.8.3-1.2.47-.18.08-.27,0-.3-.14l.13-.12s0,0,0-.06l.2-.14c.06,0,.09,0,.08-.06l.21-.09C67.26,44.77,67.3,44.7,67.31,44.59Z" style="fill:#fdfffe"/><path d="M62.3,34.09c0-.28.26-.43.39-.64.52-.78,1.07-1.54,1.56-2.34.22-.36.28-.36.68-.27a4.11,4.11,0,0,1,1,.38,1.2,1.2,0,0,1,.45.39c.16.22.22.2.38,0,.38-.56.8-1.08,1.18-1.64a.42.42,0,0,1,.54-.17A2.38,2.38,0,0,1,69.8,31a1.51,1.51,0,0,1-.12.63c-.09.17-.21.3-.3.46a5.44,5.44,0,0,1-1.27,1.55c-.16.13-.34.34-.61.18a3.07,3.07,0,0,1-.39-.23c-.24-.17-.55-.19-.77-.38s-.29-.2-.46,0l-.11.19a5.47,5.47,0,0,1-1.21,1.33.44.44,0,0,1-.57,0A3,3,0,0,0,62.3,34.09Z" style="fill:#fdfffe"/><path d="M35,34.63a.53.53,0,0,1,.09-.38c.51-.9,1.11-1.75,1.58-2.69a4.48,4.48,0,0,1,.28-.47.37.37,0,0,1,.44-.1A3.6,3.6,0,0,1,39,32c.19.19.43.41.3.74-.07,0-.15,0-.16.08a1.75,1.75,0,0,1-.27.48,6.93,6.93,0,0,1-1.54,1.91.48.48,0,0,1-.43.14,3.65,3.65,0,0,1-.81-.34A2.53,2.53,0,0,0,35,34.63Z" style="fill:#fdfffe"/><path d="M74.69,26.15a1.37,1.37,0,0,0,.13.2c.14.18.23.17.37,0,.37-.49.73-1,1.1-1.46.19-.25.31-.27.6-.14a2.11,2.11,0,0,1,1.17,1.12.52.52,0,0,1,0,.44,6.85,6.85,0,0,1-.9,1.3,4,4,0,0,1-.81.78.38.38,0,0,1-.46,0c-.32-.23-.73-.29-1-.57-.06-.07-.16,0-.22.06a3.9,3.9,0,0,1-.56.83,7.06,7.06,0,0,1-.68.66.34.34,0,0,1-.42.05,7.55,7.55,0,0,0-1.37-.59c-.28-.11-.29-.24-.09-.47s.54-.81.82-1.21l.85-1.23a.41.41,0,0,1,.47-.17c.37.07.68.27,1,.37C74.67,26.14,74.68,26.14,74.69,26.15Z" style="fill:#fdfffe"/></svg>