<svg id="Layer_1" data-name="Layer 1" xmlns="http://www.w3.org/2000/svg" viewBox="0 0 93.45 93.45"><title>customer</title><path d="M5.11,5.11V88.34H88.34V5.11ZM87.42,87.42H6V6H87.42Z" style="fill:#f8fcfe"/><polygon points="13.36 34.57 19.56 40.17 23.22 40.17 14.61 32.06 22.36 24.24 19.25 24.19 13.28 30.1 13.31 16.29 11.23 16.29 11.23 40.17 13.14 40.17 13.36 34.57" style="fill:#f8fcfe"/><path d="M34.08,39.74,34,38.21c-5.58.56-9.21-.87-9.84-5.37h12C37,21,22.07,21.32,22.07,32.84,22.9,38.68,27.2,40.81,34.08,39.74ZM34.35,31H24.19C24.48,24.19,33.65,23.87,34.35,31Z" style="fill:#f8fcfe"/><path d="M24.05,56.76H36c-.63,4.49-4.25,5.93-9.84,5.36l-.08,1.54c6.88,1.07,11.18-1.07,12-6.9C38.11,45.23,23.19,44.89,24.05,56.76Zm1.79-1.86c.69-7.11,9.86-6.79,10.15,0Z" style="fill:#f8fcfe"/><path d="M41,29c1.38-6,9.48-5.5,10.41,0l.08,10.81h1.81V30.14c-.25-6.67-7.78-9.73-12.45-4.87l0-2.44H39.06v17H41Z" style="fill:#f8fcfe"/><polygon points="67.16 39.7 67.45 37.92 58.65 37.92 67.89 23.26 55.89 23.26 55.89 25.26 64.11 25.26 54.44 39.7 67.16 39.7" style="fill:#f8fcfe"/><path d="M75.35,38.92c3.79,0,6.86-3.44,6.86-7.67s-3.07-7.66-6.86-7.66S68.49,27,68.49,31.25,71.56,38.92,75.35,38.92Zm0-13.38c2.82,0,5.11,2.56,5.11,5.71S78.17,37,75.35,37s-5.12-2.55-5.12-5.71S72.53,25.54,75.35,25.54Z" style="fill:#f8fcfe"/><path d="M54.79,50.18l-.06,0,2.31.1h0l2.27-2.24a31.92,31.92,0,0,1-.15,8c-.37,2.13-1.11,3.59-2.18,4.34-1.27.89-3.07.81-5.34-.23,1.38-2,1.85-6.34,1.4-12.8v0l-1.74-.09-.12,7.81c.2,3.68-2.22,5.81-4.71,6s-5.06-1.49-5.5-5.65l-.07-8.33v0l-2.17,0V66h2.08V60.3A6.75,6.75,0,0,0,45.43,63a8.83,8.83,0,0,0,4.91-1.3,7.38,7.38,0,0,0,7.2.61,7,7,0,0,0,3.62-5.82L61.42,46l5.81-6,.06,0H64.94Z" style="fill:#f8fcfe"/><path d="M40,45.3A1.33,1.33,0,1,0,38.7,44,1.31,1.31,0,0,0,40,45.3Z" style="fill:#f8fcfe"/><path d="M53.31,44A1.3,1.3,0,1,0,52,45.3,1.32,1.32,0,0,0,53.31,44Z" style="fill:#f8fcfe"/><path d="M39.22,74.21h1.07v.58a1.77,1.77,0,0,1-.51.28,1.49,1.49,0,0,1-.58.11,1.21,1.21,0,0,1-1-.4,1.82,1.82,0,0,1-.36-1.23,1.67,1.67,0,0,1,.35-1.14,1.24,1.24,0,0,1,1-.38,1.11,1.11,0,0,1,.67.19,1,1,0,0,1,.36.53l.92-.17a1.62,1.62,0,0,0-.62-1,2.17,2.17,0,0,0-1.33-.36,2.39,2.39,0,0,0-1.1.23,2.09,2.09,0,0,0-.88.86,2.62,2.62,0,0,0-.3,1.27,2.76,2.76,0,0,0,.27,1.22,1.91,1.91,0,0,0,.8.86,2.45,2.45,0,0,0,1.26.31,2.94,2.94,0,0,0,1.12-.22,2.62,2.62,0,0,0,.84-.49V73.44h-2Z" style="fill:#f8fcfe"/><path d="M43.23,72.61a1.24,1.24,0,0,0-.38.44v-.47H42V75.9h.88v-1A6.06,6.06,0,0,1,43,73.76a.75.75,0,0,1,.21-.37.46.46,0,0,1,.31-.1.8.8,0,0,1,.41.14l.27-.76a1.12,1.12,0,0,0-.58-.17A.67.67,0,0,0,43.23,72.61Z" style="fill:#f8fcfe"/><path d="M46.07,72.5a1.74,1.74,0,0,0-.88.22,1.48,1.48,0,0,0-.62.62,1.87,1.87,0,0,0-.21.85,2.07,2.07,0,0,0,.21,1,1.45,1.45,0,0,0,.64.61,1.85,1.85,0,0,0,.87.2,1.63,1.63,0,0,0,1.22-.49,1.73,1.73,0,0,0-1.23-3ZM46.65,75a.75.75,0,0,1-1.15,0,1.06,1.06,0,0,1-.24-.75,1.08,1.08,0,0,1,.24-.76.77.77,0,0,1,1.15,0,1.35,1.35,0,0,1,0,1.51Z" style="fill:#f8fcfe"/><path d="M50.6,74a4,4,0,0,1-.06.9.65.65,0,0,1-.25.3.71.71,0,0,1-.4.13.53.53,0,0,1-.32-.1.42.42,0,0,1-.18-.25,4.33,4.33,0,0,1,0-.86V72.58h-.88v2.1a1.79,1.79,0,0,0,.12.73.91.91,0,0,0,.38.42,1.22,1.22,0,0,0,.61.14,1.38,1.38,0,0,0,.62-.15,1.22,1.22,0,0,0,.48-.42v.5h.81V72.58H50.6Z" style="fill:#f8fcfe"/><path d="M54.22,72.5a1.12,1.12,0,0,0-.6.16,1.19,1.19,0,0,0-.43.4v-.48h-.82v4.58h.88V75.49a1.7,1.7,0,0,0,.47.38,1.15,1.15,0,0,0,.5.1,1.25,1.25,0,0,0,1-.46,2.23,2.23,0,0,0,0-2.56A1.28,1.28,0,0,0,54.22,72.5ZM54.51,75a.63.63,0,0,1-.51.25.68.68,0,0,1-.54-.27,1.29,1.29,0,0,1-.22-.83,1.13,1.13,0,0,1,.21-.74A.68.68,0,0,1,54,73.2a.65.65,0,0,1,.52.25,1.2,1.2,0,0,1,.21.77A1.23,1.23,0,0,1,54.51,75Z" style="fill:#f8fcfe"/></svg>