<svg id="Layer_1" data-name="Layer 1" xmlns="http://www.w3.org/2000/svg" viewBox="0 0 93.45 93.45"><title>customer</title><path d="M73.91,65.36,74,65.3l-.09.06Z"/><path d="M59.87,29.92a11.19,11.19,0,0,0-1-2.55c-.13-.25-.88-1.58-.95-1.68a11.09,11.09,0,0,0-4.14-3.26,1.38,1.38,0,0,0-.27-.08,9.68,9.68,0,0,0-1.17-.44,4.09,4.09,0,0,0-1.62-.38,10.86,10.86,0,0,0-1.41-.14H49a11.13,11.13,0,0,0-4.22.82,9,9,0,0,0-.89.41l-.24.12h0l0,0-.37.21-.08.05a11.21,11.21,0,0,0-4.79,6,11,11,0,0,0-.46,2,11.2,11.2,0,0,0-.11,1.55,10.76,10.76,0,0,0,.13,1.71,11.13,11.13,0,0,0,3.25,6.3l.05.06a11.15,11.15,0,0,0,1.18,1c.15.11.3.22.46.32h0l.43.27h0a12.54,12.54,0,0,0,1.42.71c.23.09.45.18.68.25h0a11.25,11.25,0,0,0,9.18-.92,12.17,12.17,0,0,0,3.43-3A11.76,11.76,0,0,0,60,34.92,12.33,12.33,0,0,0,59.87,29.92Z" style="fill:#fdfffe;opacity:0.5"/><g style="opacity:0.8"><path d="M56,27.22a.62.62,0,0,0-.85,0,2.15,2.15,0,0,0-.48.52,1.14,1.14,0,0,1-1.93.12c.13-.2.69,0,.48-.49-.06-.16-.39-.24-.23-.45s.38.06.58.08.41.26.56,0,.13-.49,0-.61c-.76-.59-1.37-1.47-2.49-1.45.32-.38.88-.72.17-1.25a.35.35,0,0,1,0-.33c.4-.61-.13-.82-.43-1.18s-.71-.28-.89-.64l-.42,0q-.35-.06-.69-.09H49a11.13,11.13,0,0,0-4.22.82l.58,0,.09,0,.11,0,.21.05.14.07h0l.08.05a1,1,0,0,1,.34.4l-1.28.62h0a1.26,1.26,0,0,0-1.63-.31h-.08l0,0-.09-.06,0,0a.05.05,0,0,1,0,0,11.4,11.4,0,0,0-3.57,3.48c.17.06.32.15.22.35-.36.77-.08,1,.68.91,0-.33.42-.42.46-.74,0-.16.14-.11.26-.06.32.13.64.24,1,.35a5.49,5.49,0,0,0,2-.26c.23-.17.41-.34.3-.7s.17-.55.39-.76c.13.2.45-.35.51.13.46-.22.86.4,1.37.05.14-.1.37.21.34.5a.94.94,0,0,1-1.21.87c-.34-.1-.48.11-.7.23s-.2.05-.22.18a4.16,4.16,0,0,1,2.32,1.32c.28.26.41.09.55-.12s.13-.21.27-.17.2.16.11.33.1.26.25.28c.39.06.79,0,1.11.37.16.18.31,0,.34-.18.11-.59.43-.53.81-.27.58.4,1.22.13,1.83.17.34,0,.38-.49.58-.74.56.65.56.91,0,1.4a2.41,2.41,0,0,1-2.58.62.65.65,0,0,0-.76.17c-.37.33-.93.21-1.38.41.1.21.18.28.44.19.75-.27,1.09.1,1.1.86,0,1-.86,1.46-1.33,2.16-.09.14-.27,0-.39,0a.88.88,0,0,0-1,.14c-.88-.17-1.22.62-1.78,1l.09.14a2.69,2.69,0,0,0,.7-.11c.48-.19.73.42,1.17.3-.09.1-.46.08-.24.26a2,2,0,0,0,1.07.38c.32,0,0-.43.23-.55-.17-.49.13-.74.51-.83A5.34,5.34,0,0,1,50.05,35c.33,0,.34.32.39.52s0,.44-.37.35c-.13,0-.16.06-.16.17-.21.36-.09.58.31.67a1.18,1.18,0,0,0,1-.1c.1-.07.2-.18.3,0s0,.22-.06.33-.3,0-.2.19.29.24.34.21c.67-.48,1.73.17,2.24-.88a1,1,0,0,0,.09-1c-.15-.38-.44-.71-.84-.62s-.65,0-1,.05a5.09,5.09,0,0,1-1.4-.05c-.38,0-.36-.83-1-.56,0,0-.05-.2,0-.31a2.66,2.66,0,0,0,.33-1.29.4.4,0,0,1,.18-.37,9.25,9.25,0,0,0,1.35-1.14c.48-.42,1.09-.34,1.26.19s.57.6,1.05.45c0-.25-.24-.21-.3-.37a.5.5,0,0,1,.69,0c.29.22.54.06.71-.2a2.13,2.13,0,0,1,.55-.69c.14-.09.37-.63.17-.87A1.08,1.08,0,0,1,55.89,28C56.11,27.75,56.28,27.47,56,27.22ZM41.13,25c.11-.35.4-.38.63-.47C41.7,24.8,41.49,24.91,41.13,25Zm.63-.47a.59.59,0,0,1,.4-.14Zm2,1.16s0-.07,0-.11,0-.06.07-.09.06.06.06.09S43.84,25.67,43.75,25.64Zm.32-.48c.09-.32.29-.37.65-.37A.85.85,0,0,1,44.07,25.16Zm3-1.11a1.54,1.54,0,0,0-1.36.43c-.14.13-.34.07-.53.05-.5,0-1-.35-1.49,0a.2.2,0,0,1-.3-.09.19.19,0,0,1,.12-.28c.2-.07.41-.11.61-.16.36-.1.77-.1.92-.54a1.19,1.19,0,0,0,1,.17,5.25,5.25,0,0,1,1.05-.08.3.3,0,0,1,.3.25A.25.25,0,0,1,47.08,24.05Zm4,2c-.27.18-.55.31-.31.7a.08.08,0,0,1,0,.07c-.81.34-.68,1.32-1.23,1.84-.14.13-.39.34-.45.13-.17-.54-.78-.82-.82-1.42,0-.24,0-.49.27-.58s.27-.19.1-.4,0-.33.12-.31c.48.07.84-.38,1.29-.27s.44-.51.77-.42a.3.3,0,0,1,.35.14A.42.42,0,0,1,51,26.06Zm.19-2.41c-.08.22-.26.15-.4,0-.31-.25-.49.24-.79.13,0-.29.24-.73-.34-.78l-.49.51c-.1.11-.28.27-.35.17-.28-.39-.81-.24-1.09-.55-.12-.13-.47-.2-.28-.48a.42.42,0,0,1,.63-.1,2.7,2.7,0,0,0,1.52.39c.3-.31.83-.13,1.1-.51.15.19.46-.17.54.14A1.61,1.61,0,0,1,51.23,23.65Zm.67,12.49v0l0,0s0,0,0-.05Z" style="fill:#fdfffe"/><polygon points="44.05 38.34 44.05 38.34 44.05 38.35 44.05 38.34" style="fill:#fdfffe"/><polygon points="43.62 37.63 43.62 37.63 43.63 37.63 43.62 37.63" style="fill:#fdfffe"/><path d="M47.18,42.39c-1.11-.23-2-1-3.09-1.23-.37-.09-.31-.35-.32-.6s.37-.62-.14-.8c-.08,0-.18.11-.26.09a.4.4,0,0,1-.3-.49c.11-.29-.1-.75.39-.86.15-.24.38-.14.58-.16,0-.11.14-.28-.13-.27s-.3-.22-.29-.43a.93.93,0,0,1-1.07-.81,2.26,2.26,0,0,1-.11-1.66.89.89,0,0,0-.85.61c-.11.3-.34.81-.79.55a.65.65,0,0,1,0-1.08c.17-.17.09-.35.15-.51a.87.87,0,0,0-.26-1,.58.58,0,0,0-.4.78c.1.41-.13.53-.44.67s-.47.08-.69-.19-.65-.8-1.21-.72a11.13,11.13,0,0,0,3.25,6.3c0-.31-.33-.41-.48-.63a.44.44,0,0,1,0-.53.45.45,0,0,1,.58-.11c.39.17.44.52.44.89s-.13.47-.44.44a11.15,11.15,0,0,0,1.18,1l0,0c.11-.27.33-.38.51-.14s.61.42.66.82l.26.14a5.79,5.79,0,0,0,.84.47,6.22,6.22,0,0,0,.68.25h0a6.74,6.74,0,0,0,1.5.28C47.24,42.73,47.25,42.68,47.18,42.39Zm-5.3-4a.38.38,0,0,1-.42.25.8.8,0,0,1-.64-.19c-.12-.14-.43-.27-.23-.5a.36.36,0,0,1,.56,0c.05.07.07.3.22.09s.26-.29.45-.09A.39.39,0,0,1,41.88,38.4Z" style="fill:#fdfffe"/><polygon points="43.62 42.36 43.61 42.35 43.61 42.35 43.62 42.36" style="fill:#fdfffe"/><path d="M43.59,22.77c-.07.11-.13.24-.26.24h-.11Z" style="fill:#fdfffe"/><path d="M43.88,22.62h0v0l0,0,0,0h0l-.06,0h-.11Z" style="fill:#fdfffe"/><path d="M48,40.25c-.29.16-.88.49-.87-.35,0-.28-.2-.29-.37-.35s-.48,0-.66-.2h0l-.56.07c0,.3-1.89-.14-.29.76a.18.18,0,0,1,0,.13c-.14.46.26.46.5.59a6.11,6.11,0,0,0,3.22.29A4.75,4.75,0,0,0,51,40.81c-.14-.29-.46-.21-.61-.41l.78-.12c.24,0,.51.23.81-.11C50.58,39.78,49.27,39.5,48,40.25Z" style="fill:#fdfffe"/><path d="M53.26,37.89a.38.38,0,0,0-.17-.07,2.7,2.7,0,0,1-1.77.18c-.19,0-.54.13-.56.25-.18.94-.88.32-1.31.46a1.72,1.72,0,0,1-.64.06c-.56,0-1.15,0-1.49-.61-.2-.36-.53-.15-.63.05-.2.38-.46.39-.82.34a.7.7,0,0,0-.72.33c1.79-.08,3.46.15,5.16.08-.19.17-.43.1-.62.32a3.93,3.93,0,0,0,1.14.21c.7.15,1.36-.22,2.06-.05.39.09.7.42,1.14.3.16,0,.36,0,.41-.2s-.08-.24-.17-.36C53.92,38.76,53.11,38.7,53.26,37.89Z" style="fill:#fdfffe"/><path d="M54.57,34.47c-.29-.18-.26-.43-.19-.74.23-1.1.12-1.23-.83-1.49-.41-.12-.44.06-.46.37,0,.64-.1,1.25-1,1.26-.17,0-.34.21-.51.31a2.74,2.74,0,0,1,2.5.82.37.37,0,0,0,.57-.06C54.82,34.76,54.78,34.6,54.57,34.47Z" style="fill:#fdfffe"/><path d="M47.47,30.63c-.26.56-.66.16-1,.12s-.4,0-.47.27.13.27.29.37.59.06.73.38c-.21.07-.57,0-.57.26s.3.39.56.45a2.66,2.66,0,0,0,.28,0,1.29,1.29,0,0,1,.27-.5C48,31.53,48.06,31.05,47.47,30.63Z" style="fill:#fdfffe"/><path d="M47.21,33.18v.75a5.52,5.52,0,0,0,.91-.11.82.82,0,0,0,.55-1.27c-.15-.21-.28-.27-.47,0S47.7,33.24,47.21,33.18Z" style="fill:#fdfffe"/><path d="M49.93,42.85c-.51,0-.92-.47-1.46-.37l.15.45a1.77,1.77,0,0,0,1.08.42c.14,0,.28,0,.31-.19S50,42.86,49.93,42.85Z" style="fill:#fdfffe"/><path d="M48.55,37.69c-.15,0-.34.09-.25.33s.15.36.27.22c.45-.54,1.08-.24,1.79-.39A3.24,3.24,0,0,0,48.55,37.69Z" style="fill:#fdfffe"/><path d="M43.62,39.63a.58.58,0,0,0,.14,0c.31-.17,1-.29.85-.54-.19-.48-.67,0-1,0C43.48,39.26,43.57,39.44,43.62,39.63Z" style="fill:#fdfffe"/><path d="M44.75,38.39c.42.12.64-.22.94-.28A.68.68,0,0,0,44.75,38.39Z" style="fill:#fdfffe"/><polygon points="43.48 36.91 43.48 36.91 43.47 36.92 43.48 36.91 43.47 36.92 43.48 36.92 43.48 36.91 43.48 36.91" style="fill:#fdfffe"/><path d="M43.62,36.2c-.18-.15-.31.08-.36.2s-.27.52.22.51a.41.41,0,0,1,.05-.19C43.68,36.56,43.85,36.38,43.62,36.2Z" style="fill:#fdfffe"/><polygon points="43.62 37.63 43.63 37.63 43.62 37.63 43.62 37.63" style="fill:#fdfffe"/><path d="M44,37.43c-.07-.21,0-.61-.47-.51l.14.71C43.75,37.57,44,37.65,44,37.43Z" style="fill:#fdfffe"/><path d="M46.24,39.19a.07.07,0,0,0-.05,0c-.13,0-.13.1-.14.19S46.25,39.33,46.24,39.19Z" style="fill:#fdfffe"/><path d="M46.31,38l0,0,.09.06,0-.05A.31.31,0,0,0,46.31,38Z" style="fill:#fdfffe"/><path d="M49.72,36.41l-.12,0,0,0s0,.08.07.08A.28.28,0,0,0,49.72,36.41Z" style="fill:#fdfffe"/><polygon points="44.05 38.34 44.05 38.35 44.07 38.38 44.05 38.34" style="fill:#fdfffe"/></g><path d="M39,31.7c0-.05,0-.15,0-.16s.09,0,.11.08Z"/><path d="M53.08,28.55c-.2.25-.24.77-.58.74-.61,0-1.25.23-1.83-.17-.38-.26-.7-.32-.81.27,0,.17-.18.36-.34.18-.32-.36-.72-.31-1.11-.37-.15,0-.38,0-.25-.28s.06-.27-.11-.33-.2.06-.27.17-.27.38-.55.12a4.16,4.16,0,0,0-2.32-1.32c-.39,0-.7,0-.78-.5a5.49,5.49,0,0,1-2,.26c-.07.13-.12.26-.2.38-.5.75-.82.76-1.49.07-.76.1-1-.14-.68-.91.1-.2,0-.29-.22-.35a11.44,11.44,0,0,0-1.22,2.54l0,.08a4,4,0,0,1,.41,1,1.3,1.3,0,0,1-.42,1.56c0-.23,0-.41-.06-.6s-.13-.27-.24-.2a.49.49,0,0,0-.2.13,11.2,11.2,0,0,0-.11,1.55,10.76,10.76,0,0,0,.13,1.71c.56-.08.89.35,1.21.72s.36.35.69.19.54-.26.44-.67a.58.58,0,0,1,.4-.78c.5-.51-.14-.57-.33-.67s-.47-.09-.52-.38.28-.3.45-.4.29-.38.56-.42.09-.44.38-.18c-.31.28.64.19.16.61-.26.22.06.67,0,1,.81,0,.53-.4.29-.83.28.37.61-.31.83.14a7.47,7.47,0,0,0,2.72-1.49c.13-.14.41-.28.24-.51s-.63-.68-.7-.64c-.94.61-.78-.48-1.14-.72-.15-.1-.06-.36.12-.47s.21,0,.27.13A2.57,2.57,0,0,0,46.12,30a1.81,1.81,0,0,1,1.35.6c.59.42.49.9.11,1.38a1.29,1.29,0,0,0-.27.5.8.8,0,0,0-.1.67c.49.06.75-.29,1-.62s.32-.22.47,0a.82.82,0,0,1-.55,1.27,5.52,5.52,0,0,1-.91.11.62.62,0,0,0-.09.56.88.88,0,0,1,1-.14c.12.06.3.15.39,0,.47-.7,1.35-1.12,1.33-2.16,0-.76-.35-1.13-1.1-.86-.26.09-.34,0-.44-.19.45-.2,1-.08,1.38-.41a.65.65,0,0,1,.76-.17A2.41,2.41,0,0,0,53.05,30C53.64,29.46,53.64,29.2,53.08,28.55Zm-14,3.76c0-.21-.08-.41-.13-.61s0-.15,0-.16.09,0,.11.08.38-.1.43.15S39.34,32.21,39.09,32.31Zm2.52-.58A4.23,4.23,0,0,1,41.28,29,6.59,6.59,0,0,1,41.61,31.73Z" style="fill:#fdfffe;opacity:0.5"/><polygon points="45.05 23.48 45.05 23.48 45.05 23.48 45.05 23.48 45.05 23.48" style="fill:#fdfffe;opacity:0.5"/><path d="M45.05,23.48h0a1.26,1.26,0,0,0-1.63-.31h-.08l0,0-.09-.06,0,0a.05.05,0,0,1,0,0l.08-.05h.11c.13,0,.19-.13.26-.24l0,0h.11l.06,0h0l0,0,0,0v0h0a9,9,0,0,1,.89-.41l.58,0,.09,0,.11,0,.21.05.14.07h0l.08.05a1,1,0,0,1,.34.4Z" style="fill:#fdfffe;opacity:0.5"/><path d="M43,41.53c-.18-.24-.4-.13-.51.14h0l.15.12a2.83,2.83,0,0,0,1,.56c0,.13.16.12.26.13l-.26-.14C43.56,42,43.17,41.81,43,41.53Z" style="fill:#fdfffe;opacity:0.5"/><path d="M43.38,33.21c-.08-.2-.54-.23-.82-.36-.05,0-.07-.11-.1-.17-.15.23-.26.44,0,.69.08.09.23.22,0,.34a.86.86,0,0,1-.44.17c-.49-.07-.68.07-.68.58,0,.34-.19.33-.42.28-.06.16,0,.34-.15.51a.65.65,0,0,0,0,1.08c.45.26.68-.25.79-.55a.89.89,0,0,1,.85-.61c0-.42.42-.6.55-1S43.54,33.57,43.38,33.21Z" style="fill:#fdfffe;opacity:0.5"/><path d="M43.77,40.56c0,.25-.05.51.32.6,1.09.26,2,1,3.09,1.23a3.87,3.87,0,0,0,1.44.54l-.15-.45A49.25,49.25,0,0,1,43.77,40.56Z" style="fill:#fdfffe;opacity:0.6"/><path d="M50.05,35a5.28,5.28,0,0,0-1.19.12c-.38.09-.68.34-.51.83a4.31,4.31,0,0,0,1.56.09c0-.11,0-.21.16-.17.33.09.4-.2.37-.36S50.38,35,50.05,35Z" style="fill:#fdfffe;opacity:0.5"/><path d="M45.33,35.49c-.26,0-.51,0-.76.06-.43,0-.48.3-.22.55s.41.6.84.53h0c0,.5.41.49.72.6a.35.35,0,0,0,.42-.18c.09-.14,0-.27,0-.41a.28.28,0,0,0-.41-.15c-.22.17-.45.08-.68.12a.87.87,0,0,1,.23-1Z" style="fill:#fdfffe;opacity:0.5"/><path d="M43.46,38.5c-.49.11-.28.57-.39.86a.4.4,0,0,0,.3.49c.08,0,.18-.06.26-.09a.29.29,0,0,1,0-.13c0-.19-.14-.37,0-.57A1,1,0,0,1,43.46,38.5Z" style="fill:#fdfffe;opacity:0.5"/><path d="M48.72,26.09c-.16,0-.22.18-.12.31s.16.33-.1.4-.28.34-.27.58c0,.6.65.88.82,1.42.07.21.31,0,.45-.13.55-.52.42-1.5,1.23-1.84a.08.08,0,0,0,0-.07c-.24-.39,0-.52.31-.7a.42.42,0,0,0,.09-.52.3.3,0,0,0-.35-.14c-.33-.09-.34.52-.77.42S49.2,26.16,48.72,26.09Z" style="fill:#fdfffe;opacity:0.5"/><path d="M45.13,27.38c.22-.12.36-.33.7-.23A.94.94,0,0,0,47,26.28c0-.29-.2-.6-.34-.5-.51.35-.91-.27-1.37-.05-.14,0-.35.1-.3.22C45.23,26.43,44.91,26.92,45.13,27.38Z" style="fill:#fdfffe;opacity:0.5"/><path d="M44.13,24c-.2.05-.41.09-.61.16a.19.19,0,0,0-.12.28.2.2,0,0,0,.3.09c.49-.37,1-.06,1.49,0,.19,0,.39.07.53-.05a1.54,1.54,0,0,1,1.36-.43.25.25,0,0,0,.31-.23.3.3,0,0,0-.3-.25,4.61,4.61,0,0,0-1.05.09,1.23,1.23,0,0,1-1-.18C44.9,23.93,44.49,23.92,44.13,24Z" style="fill:#fdfffe;opacity:0.5"/><path d="M47.77,23.17c.28.31.81.16,1.09.55.07.1.25-.06.35-.17L49.7,23a.05.05,0,0,0-.06-.06,2.7,2.7,0,0,1-1.52-.39.42.42,0,0,0-.63.1C47.31,23,47.65,23,47.77,23.17Z" style="fill:#fdfffe;opacity:0.5"/><polygon points="41.76 24.48 41.76 24.48 41.76 24.48 41.76 24.48" style="fill:#fdfffe;opacity:0.5"/><path d="M41.76,24.48c-.23.09-.52.12-.63.47C41.48,24.91,41.7,24.8,41.76,24.48Z" style="fill:#fdfffe;opacity:0.5"/><path d="M44.07,25.16a.82.82,0,0,0,.64-.37C44.36,24.79,44.16,24.84,44.07,25.16Z" style="fill:#fdfffe;opacity:0.5"/><path d="M43.71,25.53s0,.11,0,.11.1-.05.09-.11,0-.06-.06-.09S43.72,25.5,43.71,25.53Z" style="fill:#fdfffe;opacity:0.5"/><path d="M41.76,24.48l.4-.14A.59.59,0,0,0,41.76,24.48Z" style="fill:#fdfffe;opacity:0.5"/><polygon points="41.76 24.48 41.76 24.48 41.76 24.48 41.76 24.48" style="fill:#fdfffe;opacity:0.5"/><path d="M42.19,24.34h0Z" style="fill:#fdfffe;opacity:0.5"/><polygon points="42.19 24.34 42.19 24.34 42.21 24.32 42.19 24.34" style="fill:#fdfffe;opacity:0.5"/><path d="M41.65,40.23c0,.32-.13.47-.44.44l-.05-.06c0-.31-.33-.41-.48-.63a.44.44,0,0,1,0-.53.45.45,0,0,1,.58-.11C41.6,39.51,41.65,39.86,41.65,40.23Z" style="fill:#fdfffe;opacity:0.5"/><path d="M41.37,38.09c-.15.21-.17,0-.22-.09a.36.36,0,0,0-.56,0c-.2.23.11.36.23.5a.8.8,0,0,0,.64.19.37.37,0,0,0,.42-.25.39.39,0,0,0-.06-.4C41.63,37.8,41.5,37.9,41.37,38.09Z" style="fill:#fdfffe;opacity:0.5"/><path d="M44,69.49a12.69,12.69,0,0,1-3,.75H39.86c1.52.66,3,.29,4.4.25-1.92,2.29-6.4,2-10.13-.43a8.4,8.4,0,0,0,4.63-1.37,4.9,4.9,0,0,1,3.92-.31A1.83,1.83,0,0,1,44,69.49Z" style="fill:#fdfffe"/><path d="M8,52.88a12.77,12.77,0,0,0-1.43,3c-.41,1.65,0,2.58,1.55,3.14a12.88,12.88,0,0,0,9-.13c1.77-.65,2.13-2,1.14-3.58a8.3,8.3,0,0,0-1.36-1.65c-.24-.22-.29-.38,0-.6.58-.45,1.17-.9,1.72-1.38.33-.3.55-.23.84,0a4.47,4.47,0,0,1,1.39,2c.11.42.33.47.7.47,1.15,0,2.29,0,3.43,0,.81,0,1.08-.47.72-1.2,0-.08-.1-.16-.15-.24-.56-.77-.56-.77.28-1.21l.57-.29c1.15-.61,1.13-.6,1.72.59a3.42,3.42,0,0,1,.24,1.81c0,.32.08.43.38.4H67.06A2.25,2.25,0,0,0,69.14,53c.38-.6.84-1.15,1.27-1.71a4,4,0,0,1,7.16,1.37,6.15,6.15,0,0,1,.38,1.8,2.68,2.68,0,0,1-2.71,2.78,12,12,0,0,1-5.59-1,.5.5,0,0,0-.67.14,2.87,2.87,0,0,1-2.07.76q-19.29,0-38.58,0c-.93,0-1.7-.83-2.79-.19-.82.48-2,.1-2.95.14-.57,0-1.14,0-1.72,0-.18,0-.34,0-.42.24-.86,2.69-2.93,4-5.52,4.54a13.72,13.72,0,0,1-7.75-.33c-3.11-1.08-3.85-3.71-1.8-6.25A10.57,10.57,0,0,1,8,52.88Zm66.94,1.7a7,7,0,0,0-.18-.69c-.53-1.49-1.8-2.19-3-1.65a1.32,1.32,0,0,0-1,1.2c0,.65.5.91,1,1A5.8,5.8,0,0,0,74.93,54.58Z" style="fill:#fdfffe"/><path d="M73.25,59.22a18.9,18.9,0,0,0,3.34,1.21,8.35,8.35,0,0,0,7.77-2.93.73.73,0,0,0,0-1,6.15,6.15,0,0,0-2-1.9c-.43-.26-.46-.5-.18-.9a14.73,14.73,0,0,0,1-1.51c.18-.33.36-.36.68-.18,2.41,1.36,3.57,3.46,2.42,6.33a7.08,7.08,0,0,1-7,4.53,7.34,7.34,0,0,1-5.28-2.1A1.85,1.85,0,0,1,73.25,59.22Z" style="fill:#fdfffe"/><path d="M85.25,66.34c-.16,0-.25.09-.25.19s.08.23.26.31a.36.36,0,0,0,.23-.31C85.49,66.43,85.4,66.34,85.25,66.34Z" style="fill:#fdfffe"/><path d="M68.42,66.34c-.15,0-.25.09-.25.19s.08.23.27.31a.37.37,0,0,0,.22-.31C68.66,66.43,68.57,66.34,68.42,66.34Z" style="fill:#fdfffe"/><path d="M93.38,65.62c.09-.74-.19-.88-.89-.88q-19.21,0-38.43,0c-.29,0-.61.11-.87-.11h0l-.2.06a16.65,16.65,0,0,1-3.69,3.21l.93,0c13.62,0,42.57.25,43-.12S93.28,66.37,93.38,65.62ZM73.59,65l0,.18-1.14.33,0-.2ZM60.25,65l0,.18-1.15.33v-.2Zm-2.93.77h.43V66h-.43Zm-1.08,2h-.38v-.3h.38Zm.55,0h-.38v-.3h.38Zm1-1.07c0,.3-.28.44-.55.44h-.41a.53.53,0,0,1-.44-.17.51.51,0,0,1-.4.17h-.34a.93.93,0,0,1-.54-.25c-.06.17-.22.26-.48.26h-1.3c-.38,0-.53-.2-.53-.42v-.38h.36v.28c0,.14,0,.22.26.22h1.16c.11,0,.22,0,.22-.09s0-.1-.2-.25L54,66v-.3l1.17-.35.08.27-.89.27.51.41c.64.52.7.52.93.52H56c.16,0,.21-.06.21-.2v-.3h.36v.28c0,.17.13.22.34.22h.32c.16,0,.21-.06.21-.2v-.3h.36Zm2,.44h-1c-.27,0-.5-.11-.5-.42V65.46h.36v1.19c0,.16.08.19.21.19h.91c.11,0,.23,0,.23-.09s0-.1-.21-.25L59.15,66v-.3l1.17-.35.08.27-.89.27.51.41c.23.18.29.29.29.44S60.08,67.14,59.8,67.14Zm1.58,0a.78.78,0,0,1-.83.71h-.23v-.3h.13c.41,0,.58-.2.58-.39v-.74h.36Zm.85,0h-.35V65.46h.35Zm2.16,0a.78.78,0,0,1-.87.71H63.2l0-.3h.3c.41,0,.54-.16.57-.36h-.23c-.47,0-.58-.17-.58-.44a.52.52,0,0,1,.58-.53.51.51,0,0,1,.57.56Zm5,0h-.51a1.33,1.33,0,0,1-.47-.06,1.63,1.63,0,0,1-.53.06h-.7a.2.2,0,0,1,.09.18c0,.2-.21.48-.79.48h-.38c-.51,0-.81-.27-.81-.71v-.47h.36v.44c0,.27.11.44.56.44h.21c.4,0,.51-.07.51-.21s-.06-.15-.17-.15h-.47l0-.3H68a.38.38,0,0,1-.19-.33.55.55,0,0,1,.61-.47.51.51,0,0,1,.56.44.42.42,0,0,1-.18.36h.66c.06,0,.08,0,.08,0a.06.06,0,0,0,0-.06l-.68-.63.27-.23.66.62a.41.41,0,0,1,.16.3C69.94,67,69.75,67.14,69.44,67.14Zm2.08.63h-.37v-.3h.37Zm.55,0h-.38v-.3h.38Zm1.29-1.45c.23.18.28.29.28.44s-.23.38-.51.38h-1a.5.5,0,0,1-.43-.17.54.54,0,0,1-.4.17h-.34c-.27,0-.49-.11-.49-.42V65.46h.36v1.19c0,.16.07.19.2.19h.27c.15,0,.21-.06.21-.2v-.3h.36v.28c0,.17.13.22.34.22h.9c.12,0,.23,0,.23-.09s0-.1-.21-.25l-.6-.48v-.3l1.17-.35.08.27-.89.27Zm3.75.82A.49.49,0,0,1,76.7,67a.59.59,0,0,1-.39.16h-.12A.5.5,0,0,1,75.8,67a.5.5,0,0,1-.4.17h-.7V65.46h.36v1.38h.32c.15,0,.23,0,.23-.17V65.46H76v1.13c0,.13,0,.24.26.24s.33-.06.34-.19a.51.51,0,0,1,.57-.5c.38,0,.56.21.56.5S77.48,67.14,77.11,67.14ZM80,66.32c.23.18.28.29.28.44s-.22.38-.51.38h-1c-.26,0-.49-.11-.49-.42V65.46h.36v1.19c0,.16.08.19.21.19h.91c.11,0,.22,0,.22-.09s0-.1-.2-.25L79.08,66v-.3l1.17-.35.08.27-.89.27Zm10.42-.86h.44v.3h-.44Zm-1.74-.29h.44v.31h-.44ZM82.37,67.8h-.3c-.51,0-.81-.27-.81-.71v-.47h.35v.44c0,.27.12.44.57.44h.13c.4,0,.61-.1.61-.29s0-.12-.17-.12h-.59v-.51a.51.51,0,0,1,.57-.48h.42l0,.3h-.4c-.15,0-.25.06-.25.19v.2h.29c.36,0,.47.15.47.39S82.9,67.8,82.37,67.8Zm3.9-.66h-.51a1.43,1.43,0,0,1-.48-.06,1.57,1.57,0,0,1-.53.06h-.49c-.26,0-.49-.11-.49-.42V65.46h.36v1.19c0,.16.08.19.21.19h.51a.36.36,0,0,1-.19-.33.55.55,0,0,1,.6-.47.52.52,0,0,1,.57.44.4.4,0,0,1-.19.36h.66c.07,0,.09,0,.09,0a.09.09,0,0,0,0-.06l-.68-.63.27-.23.66.62a.43.43,0,0,1,.15.3C86.76,67,86.58,67.14,86.27,67.14Zm1.34,0h-.36V65.46h.36Zm3.52,0H89.61a.48.48,0,0,1-.37-.17.51.51,0,0,1-.42.17h-.73l0-.3h.77c.13,0,.17,0,.17-.09a3.53,3.53,0,0,0-.32-.78l.34-.1.36.82a.27.27,0,0,0,.28.15H90a.37.37,0,0,1,0-.22c0-.28.22-.51.62-.51a1,1,0,0,1,.46.12l-.18.24a.74.74,0,0,0-.28-.06.23.23,0,0,0-.26.21c0,.13.13.22.32.22h.49Z" style="fill:#fdfffe"/><path d="M63.8,66.47c-.15,0-.22.08-.22.2s0,.17.26.17h.21v-.08C64.05,66.53,64,66.47,63.8,66.47Z" style="fill:#fdfffe"/><path d="M77.12,66.44a.2.2,0,0,0-.23.21c0,.12.08.19.23.19s.24-.06.24-.19S77.31,66.44,77.12,66.44Z" style="fill:#fdfffe"/><path d="M2.81,69.64l-.05.44H1.66v0h.13a.09.09,0,0,0,0,0,.25.25,0,0,0,0-.11v-.82a.35.35,0,0,0,0-.12s0,0,0,0l-.08,0h0v0h.66v0h0l-.09,0a.1.1,0,0,0,0,0,.8.8,0,0,0,0,.11v.79c0,.06,0,.1,0,.12a.07.07,0,0,0,0,0H2.4a.25.25,0,0,0,.16,0,.25.25,0,0,0,.12-.11,1,1,0,0,0,.09-.22Z" style="fill:#fdfffe"/><path d="M3.6,68.82a.64.64,0,0,1,.48.18.61.61,0,0,1,.18.45.68.68,0,0,1-.14.42.6.6,0,0,1-.51.24A.63.63,0,0,1,3,69.46a.62.62,0,0,1,.65-.64Zm0,.06a.28.28,0,0,0-.26.18.87.87,0,0,0-.07.4.74.74,0,0,0,.11.47A.25.25,0,0,0,3.6,70,.25.25,0,0,0,3.76,70a.42.42,0,0,0,.13-.18,1.09,1.09,0,0,0,0-.34,1.22,1.22,0,0,0,0-.37.46.46,0,0,0-.12-.17A.3.3,0,0,0,3.61,68.88Z" style="fill:#fdfffe"/><path d="M5.66,68.84v0a.2.2,0,0,0-.12.08.83.83,0,0,0-.12.21l-.42,1H5l-.43-1a1,1,0,0,0-.1-.21.19.19,0,0,0-.1,0v0h.6v0h0a.23.23,0,0,0-.11,0,.05.05,0,0,0,0,0s0,0,0,0,0,.06,0,.12l.27.62.24-.55A.58.58,0,0,0,5.4,69a.13.13,0,0,0,0-.06.09.09,0,0,0,0,0l0,0-.11,0v0Z" style="fill:#fdfffe"/><path d="M6.19,68.91v.51h0a.19.19,0,0,0,.17-.08.41.41,0,0,0,.07-.22h0v.65h0a.38.38,0,0,0,0-.17.15.15,0,0,0-.08-.09.23.23,0,0,0-.13,0v.35a.38.38,0,0,0,0,.13.05.05,0,0,0,0,0h.15a.49.49,0,0,0,.28-.08.45.45,0,0,0,.15-.24h0l0,.39H5.72v0h.12a.1.1,0,0,0,0,0,.25.25,0,0,0,0-.11V69a.1.1,0,0,0,0,0,.12.12,0,0,0-.09,0h0v0h1v.37h0a.55.55,0,0,0-.08-.2.24.24,0,0,0-.13-.08l-.19,0Z" style="fill:#fdfffe"/><path d="M8.46,69.34h.38v0a.19.19,0,0,0-.1,0,.46.46,0,0,0-.1.14,2,2,0,0,1-.16.23,1.11,1.11,0,0,0,.15.12l.08,0a.15.15,0,0,0,.12-.09l0,0a.53.53,0,0,1-.16.21.25.25,0,0,1-.15,0,.28.28,0,0,1-.13,0A.51.51,0,0,1,8.27,70a.9.9,0,0,1-.22.11.45.45,0,0,1-.2,0,.37.37,0,0,1-.28-.1.27.27,0,0,1-.1-.22.33.33,0,0,1,.1-.24.79.79,0,0,1,.28-.17.56.56,0,0,1,0-.12s0-.07,0-.11a.35.35,0,0,1,.1-.24.36.36,0,0,1,.27-.1.27.27,0,0,1,.2.07.19.19,0,0,1,.08.15.23.23,0,0,1-.08.17.63.63,0,0,1-.25.14,2,2,0,0,0,.31.39.42.42,0,0,0,.13-.26.07.07,0,0,0,0-.06s0,0-.07,0Zm-.59.1-.1.06a.17.17,0,0,0,0,.12.41.41,0,0,0,0,.17.37.37,0,0,0,.12.13A.27.27,0,0,0,8,70l.08,0,.09,0A2,2,0,0,1,7.87,69.44Zm.22-.16a.3.3,0,0,0,.13-.07.18.18,0,0,0,0-.1.24.24,0,0,0-.06-.17.11.11,0,0,0-.09,0,.11.11,0,0,0-.07,0A.16.16,0,0,0,8,69a.34.34,0,0,0,0,.1Z" style="fill:#fdfffe"/><path d="M10.67,68.81v.43h0a.51.51,0,0,0-.15-.26.38.38,0,0,0-.25-.09A.38.38,0,0,0,10,69a.36.36,0,0,0-.14.18.73.73,0,0,0-.06.3,1,1,0,0,0,0,.3A.4.4,0,0,0,10,70a.36.36,0,0,0,.24.07.5.5,0,0,0,.21,0,.63.63,0,0,0,.2-.18v.11a.62.62,0,0,1-.21.16.72.72,0,0,1-.27,0A.82.82,0,0,1,9.81,70a.57.57,0,0,1-.23-.23.62.62,0,0,1-.09-.32.63.63,0,0,1,.09-.33.75.75,0,0,1,.25-.25.69.69,0,0,1,.34-.09.66.66,0,0,1,.27.06l.11,0,0,0a.08.08,0,0,0,0-.07Z" style="fill:#fdfffe"/><path d="M11.49,68.82A.61.61,0,0,1,12,69a.62.62,0,0,1,.19.45.68.68,0,0,1-.14.42.68.68,0,0,1-1,0,.64.64,0,0,1-.15-.42A.59.59,0,0,1,11,69,.6.6,0,0,1,11.49,68.82Zm0,.06a.29.29,0,0,0-.26.18.87.87,0,0,0-.07.4.81.81,0,0,0,.11.47.27.27,0,0,0,.22.11.3.3,0,0,0,.16-.05.41.41,0,0,0,.12-.18,1.06,1.06,0,0,0,.05-.34,1.18,1.18,0,0,0-.05-.37.37.37,0,0,0-.12-.17A.28.28,0,0,0,11.5,68.88Z" style="fill:#fdfffe"/><path d="M13.11,69.66l.34-.82H14v0h0l-.08,0a.1.1,0,0,0,0,0,.25.25,0,0,0,0,.11v.82a.35.35,0,0,0,0,.12l0,0H14v0h-.64v0h.13l0,0a.25.25,0,0,0,0-.11V69L13,70.08h0L12.5,69v.87a.25.25,0,0,0,0,.11.14.14,0,0,0,.05.08.22.22,0,0,0,.12,0v0h-.42v0h0a.11.11,0,0,0,.08,0,.1.1,0,0,0,.05,0,.06.06,0,0,0,0-.06v-.88a.35.35,0,0,0,0-.12s0,0,0,0l-.08,0h0v0h.51Z" style="fill:#fdfffe"/><path d="M14.49,69.52v.34c0,.07,0,.11,0,.13a.1.1,0,0,0,.05,0h.11v0H14v0h.11s0,0,0,0a.31.31,0,0,0,0-.13v-.8a.31.31,0,0,0,0-.13s0,0,0,0l-.11,0v0h.53a.59.59,0,0,1,.39.1.3.3,0,0,1,.11.23.31.31,0,0,1-.07.21.37.37,0,0,1-.21.12Zm0-.61v.54h0a.21.21,0,0,0,.17-.07.36.36,0,0,0,0-.4.21.21,0,0,0-.18-.07Z" style="fill:#fdfffe"/><path d="M15.77,69.73h-.44l-.05.12a.22.22,0,0,0,0,.1.08.08,0,0,0,.05.07.22.22,0,0,0,.12,0v0H15v0a.16.16,0,0,0,.11-.05,1,1,0,0,0,.1-.19l.44-1h0l.45,1a.61.61,0,0,0,.1.18.12.12,0,0,0,.09,0v0h-.6v0h0a.15.15,0,0,0,.1,0s0,0,0,0a0,0,0,0,0,0,0,.26.26,0,0,0,0-.07Zm0-.07-.19-.43-.19.43Z" style="fill:#fdfffe"/><path d="M17.22,68.81v.41h0a.41.41,0,0,0-.13-.24.3.3,0,0,0-.22-.1.25.25,0,0,0-.15.05.13.13,0,0,0-.05.12.1.1,0,0,0,0,.07s0,0,.08.08l.2.11a1,1,0,0,1,.29.2.35.35,0,0,1,.08.22.37.37,0,0,1-.12.27.47.47,0,0,1-.31.11h-.11l-.13,0-.07,0-.05,0a.1.1,0,0,0-.05.06h0v-.47h0a.54.54,0,0,0,.16.3.34.34,0,0,0,.24.1A.23.23,0,0,0,17,70a.18.18,0,0,0,.06-.13.16.16,0,0,0,0-.09A.15.15,0,0,0,17,69.7a.64.64,0,0,0-.16-.1,1.58,1.58,0,0,1-.25-.14.45.45,0,0,1-.11-.13.29.29,0,0,1,0-.16.34.34,0,0,1,.11-.25.37.37,0,0,1,.27-.11l.12,0a.26.26,0,0,1,.1,0l.09,0a.05.05,0,0,0,0,0s0,0,0-.07Z" style="fill:#fdfffe"/><path d="M18.26,68.81v.41h0A.41.41,0,0,0,18.1,69a.3.3,0,0,0-.22-.1.25.25,0,0,0-.15.05.13.13,0,0,0-.05.12.1.1,0,0,0,0,.07s0,0,.08.08l.2.11a1,1,0,0,1,.29.2.35.35,0,0,1,.08.22.37.37,0,0,1-.12.27.47.47,0,0,1-.31.11h-.11l-.13,0-.07,0-.05,0a.1.1,0,0,0,0,.06h0v-.47h0a.54.54,0,0,0,.16.3.34.34,0,0,0,.24.1.23.23,0,0,0,.17-.05.18.18,0,0,0,.06-.13.16.16,0,0,0,0-.09A.15.15,0,0,0,18,69.7a.64.64,0,0,0-.16-.1,1.58,1.58,0,0,1-.25-.14.45.45,0,0,1-.11-.13.29.29,0,0,1,0-.16.34.34,0,0,1,.11-.25.37.37,0,0,1,.27-.11l.12,0a.26.26,0,0,1,.1,0l.09,0a.05.05,0,0,0,0,0s0,0,0-.07Z" style="fill:#fdfffe"/><path d="M19.11,70v0h-.65v0h.13l0,0a.25.25,0,0,0,0-.11v-.82a.35.35,0,0,0,0-.12s0,0,0,0l-.08,0h0v0h.65v0h0l-.09,0a.1.1,0,0,0,0,0,.25.25,0,0,0,0,.11v.82a.35.35,0,0,0,0,.12s0,0,0,0h.13Z" style="fill:#fdfffe"/><path d="M19.87,68.82a.61.61,0,0,1,.48.18.58.58,0,0,1,.19.45.68.68,0,0,1-.14.42.61.61,0,0,1-.52.24.62.62,0,0,1-.51-.23.64.64,0,0,1-.15-.42.59.59,0,0,1,.19-.46A.61.61,0,0,1,19.87,68.82Zm0,.06a.29.29,0,0,0-.26.18,1,1,0,0,0-.07.4.81.81,0,0,0,.11.47.28.28,0,0,0,.22.11A.28.28,0,0,0,20,70a.41.41,0,0,0,.12-.18,1.06,1.06,0,0,0,.05-.34,1.18,1.18,0,0,0-.05-.37.45.45,0,0,0-.11-.17A.34.34,0,0,0,19.88,68.88Z" style="fill:#fdfffe"/><path d="M21.07,68.84l.61.77v-.53a.24.24,0,0,0,0-.15.18.18,0,0,0-.15-.06v0h.41v0l-.11,0,0,0a.45.45,0,0,0,0,.13v1h0l-.84-1v.78a.21.21,0,0,0,.05.15A.2.2,0,0,0,21,70h0v0h-.44v0c.07,0,.12,0,.14,0s0-.07,0-.14V69l0,0-.07-.07-.09,0v0Z" style="fill:#fdfffe"/><path d="M22.73,69.73h-.44l-.05.12a.44.44,0,0,0,0,.1.07.07,0,0,0,0,.07.29.29,0,0,0,.12,0v0H22v0a.16.16,0,0,0,.11-.05.62.62,0,0,0,.1-.19l.45-1h0l.45,1a.42.42,0,0,0,.11.18.11.11,0,0,0,.08,0v0h-.6v0h0c.05,0,.08,0,.1,0s0,0,0,0v0a.15.15,0,0,1,0-.07Zm0-.07-.18-.43-.19.43Z" style="fill:#fdfffe"/><path d="M24.35,68.84v.34h0a.63.63,0,0,0-.06-.17.39.39,0,0,0-.1-.08.29.29,0,0,0-.12,0h-.09v1A.35.35,0,0,0,24,70s0,0,0,0h.12v0h-.65v0h.13a.1.1,0,0,0,0,0,.25.25,0,0,0,0-.11v-1h-.09a.3.3,0,0,0-.18,0,.35.35,0,0,0-.1.22h0v-.34Z" style="fill:#fdfffe"/><path d="M24.92,68.91v.51h0a.2.2,0,0,0,.17-.08.52.52,0,0,0,.07-.22h0v.65h0a.58.58,0,0,0-.05-.17.15.15,0,0,0-.08-.09.26.26,0,0,0-.14,0v.35c0,.07,0,.11,0,.13l0,0h.15a.47.47,0,0,0,.28-.08.45.45,0,0,0,.15-.24h0l-.06.39H24.45v0h.13a.09.09,0,0,0,0,0,.25.25,0,0,0,0-.11V69l0,0a.17.17,0,0,0-.1,0h0v0h1v.37h0a.57.57,0,0,0-.07-.2.27.27,0,0,0-.14-.08l-.19,0Z" style="fill:#fdfffe"/><path d="M27.31,69.64l0,.44h-1.1v0h.13a.1.1,0,0,0,0,0,.8.8,0,0,0,0-.11v-.82c0-.06,0-.1,0-.12l0,0-.09,0h0v0h.66v0h-.05l-.09,0,0,0a.8.8,0,0,0,0,.11v.79a.29.29,0,0,0,0,.12s0,0,0,0h.21a.31.31,0,0,0,.17,0,.29.29,0,0,0,.11-.11,1,1,0,0,0,.09-.22Z" style="fill:#fdfffe"/><path d="M28.06,70v0h-.65v0h.13a.1.1,0,0,0,0,0,.8.8,0,0,0,0-.11v-.82c0-.06,0-.1,0-.12l0,0-.09,0h0v0h.65v0h0l-.09,0,0,0a.8.8,0,0,0,0,.11v.82a.29.29,0,0,0,0,.12s0,0,0,0h.12Z" style="fill:#fdfffe"/><path d="M29.43,68.84v0a.28.28,0,0,0-.12.08,1.65,1.65,0,0,0-.11.21l-.43,1h0l-.42-1a2.31,2.31,0,0,0-.1-.21.19.19,0,0,0-.1,0v0h.59v0h0l-.11,0a.08.08,0,0,0,0,0s0,0,0,0a.42.42,0,0,0,.05.12l.26.62.25-.55a.7.7,0,0,1,.05-.13.13.13,0,0,0,0-.06s0,0,0,0,0,0,0,0l-.1,0v0Z" style="fill:#fdfffe"/><path d="M30.14,70v0h-.65v0h.13l0,0a.8.8,0,0,0,0-.11v-.82c0-.06,0-.1,0-.12l-.05,0-.08,0h0v0h.65v0h0l-.09,0a.1.1,0,0,0,0,0,.8.8,0,0,0,0,.11v.82c0,.06,0,.1,0,.12s0,0,0,0h.13Z" style="fill:#fdfffe"/><path d="M30.65,68.84l.61.77v-.53a.24.24,0,0,0,0-.15.18.18,0,0,0-.15-.06v0h.41v0l-.11,0a.1.1,0,0,0,0,0,.45.45,0,0,0,0,.13v1h0l-.83-1v.78a.17.17,0,0,0,.05.15.2.2,0,0,0,.11,0h0v0h-.44v0a.18.18,0,0,0,.14,0s0-.07,0-.14V69l0,0a.15.15,0,0,0-.07-.07l-.08,0v0Z" style="fill:#fdfffe"/><path d="M32.82,68.81v.44h0A.49.49,0,0,0,32.6,69a.39.39,0,0,0-.26-.1.34.34,0,0,0-.23.08.36.36,0,0,0-.13.22.92.92,0,0,0,0,.29,1,1,0,0,0,0,.31.41.41,0,0,0,.13.2.44.44,0,0,0,.23.06h.09l.09,0v-.26s0-.08,0-.09,0,0,0,0l-.07,0h0v0H33v0l-.1,0a.1.1,0,0,0,0,0s0,0,0,.08V70a1,1,0,0,1-.25.08,1.09,1.09,0,0,1-.26,0,.76.76,0,0,1-.29,0,.57.57,0,0,1-.21-.13.55.55,0,0,1-.14-.17.67.67,0,0,1-.06-.28A.65.65,0,0,1,31.8,69a.72.72,0,0,1,.5-.19l.16,0a.3.3,0,0,1,.13,0l.11,0a.06.06,0,0,0,0,0,.14.14,0,0,0,0-.07Z" style="fill:#fdfffe"/><path d="M25.25,60.33a2,2,0,0,1,1.84-1.39,2.34,2.34,0,0,1,2.38.93,1.16,1.16,0,0,1-.19,1.55c-1,1.07-3.59.91-4-.71-.62,1.65-2.88,1.69-3.92.86a1.31,1.31,0,0,1-.09-2C22.38,58.51,24.67,58.74,25.25,60.33Z" style="fill:#fdfffe;opacity:0.6"/><path d="M82.24,51.22l-.42-.07c-1.3-.31-1.92-1-1.73-1.85A2.24,2.24,0,0,1,82.65,48c1.16.24,1.85.82,1.85,1.56s-.78,1.41-1.91,1.61Z" style="fill:#fdfffe;opacity:0.6"/><path d="M12.77,48a4.76,4.76,0,0,1,.77.1,1.6,1.6,0,0,1,1.35,1.66A2,2,0,0,1,13,51.21a3,3,0,0,1-1.19-.14c-.79-.28-1.39-1-1.32-1.56a1.92,1.92,0,0,1,1.66-1.44c.21,0,.43,0,.64,0Z" style="fill:#fdfffe;opacity:0.6"/><path d="M68.73,49.49c-.68.11-.86.49-.81,1.09a9.77,9.77,0,0,1,0,1.21c0,.19.14.47-.16.55a.72.72,0,0,1-.67-.13l-2.2-1.69-.3-.2c-.12,1.45-.29,1.48.81,2a7,7,0,0,1-2.2,0c1.29-.24.68-1.2.8-1.87s-.36-.68-.87-.85c2-.74,2.92.89,4.2,1.64.2-1.18.14-1.31-.83-1.72A6.89,6.89,0,0,1,68.73,49.49Z" style="fill:#fdfffe;opacity:0.6"/><path d="M49,51.14a6.06,6.06,0,0,1,2.4-.11c-.32.19-.66.31-.56.75.06.27-.16.34-.33.37a6.06,6.06,0,0,1-2.81.09c-1.08-.29-1.52-.71-1.46-1.43s.78-1.13,1.64-1.34,1.69.12,2.53-.07c.21,0,.28.15.26.33s.13.55-.1.73-.34,0-.46-.2a1.41,1.41,0,0,0-1.35-.62,1,1,0,0,0-1.05.79A1.3,1.3,0,0,0,48,51.87a1.56,1.56,0,0,0,1.43.15c.32-.1.28-.47,0-.68A1.43,1.43,0,0,0,49,51.14Z" style="fill:#fdfffe;opacity:0.6"/><path d="M38,52.18c.58,0,.72-.35.61-.79-.15-.63.46-1.49-.63-1.91a5.79,5.79,0,0,1,1.74-.1c.66,0,1.33,0,2,0,.22,0,.46,0,.47.3s.1.4-.11.51-.35-.08-.48-.22c-.37-.41-.86-.3-1.33-.32s-.34.28-.35.53,0,.53.39.49.57,0,.76-.26c.08-.12.27-.23.34-.07a1.17,1.17,0,0,1,0,1c0,.11-.26.06-.36-.07s-.26-.32-.46-.29-.68-.25-.68.32c0,.38-.14.87.54.83.52,0,1.1.15,1.49-.41.1-.14.22-.37.45-.25s.08.31.07.47,0,.45-.32.45h-4Z" style="fill:#fdfffe;opacity:0.6"/><path d="M59.88,52.31H57.44c.05-.34.38-.17.51-.32a1.52,1.52,0,0,0-1.78-.59.55.55,0,0,0-.26.48c0,.36.46,0,.52.41a7,7,0,0,1-1.89,0c1.13-.37,1.37-1.47,2-2.27s.94-.93,1.58,0c.28.42.56.83.81,1.26A2,2,0,0,0,59.88,52.31ZM56.44,51h.9c-.17-.29-.25-.55-.51-.69A1.38,1.38,0,0,0,56.44,51Z" style="fill:#fdfffe;opacity:0.6"/><path d="M32.27,51.53l.7-1.05c.29-.44.63-.9-.4-1a5.69,5.69,0,0,1,2.19-.06c-1.21.5-1.55,1.53-2.14,2.34s-1,.83-1.52,0c-.27-.41-.55-.82-.81-1.24a2.51,2.51,0,0,0-1.12-1.09h2.47c-.66.18-.51.48-.18.87S32,51.09,32.27,51.53Z" style="fill:#fdfffe;opacity:0.6"/><g style="opacity:0.6"><path d="M18.89,66.28A.49.49,0,0,0,19,66.2a.17.17,0,0,0,0-.1.27.27,0,0,0-.06-.17.1.1,0,0,0-.08-.05.12.12,0,0,0-.11.13.44.44,0,0,0,0,.1A1.22,1.22,0,0,0,18.89,66.28Z" style="fill:#fdfffe"/><path d="M18.56,66.5a.21.21,0,0,0,0,.11.34.34,0,0,0,.05.17.3.3,0,0,0,.12.13.3.3,0,0,0,.14,0h.08l.09,0a2,2,0,0,1-.33-.47A.23.23,0,0,0,18.56,66.5Z" style="fill:#fdfffe"/><path d="M21.33,65.93a.24.24,0,0,0-.16-.05.27.27,0,0,0-.26.17.92.92,0,0,0-.07.41.76.76,0,0,0,.11.47.25.25,0,0,0,.22.1.24.24,0,0,0,.15,0,.34.34,0,0,0,.13-.19,1,1,0,0,0,0-.33,1.14,1.14,0,0,0,0-.37A.32.32,0,0,0,21.33,65.93Z" style="fill:#fdfffe"/><polygon points="25.4 66.65 25.78 66.65 25.59 66.23 25.4 66.65" style="fill:#fdfffe"/><path d="M2.17,65.91h0v.53h.05a.24.24,0,0,0,.17-.06.33.33,0,0,0,.06-.21.28.28,0,0,0-.06-.2A.24.24,0,0,0,2.17,65.91Z" style="fill:#fdfffe"/><polygon points="15.05 66.65 15.43 66.65 15.24 66.23 15.05 66.65" style="fill:#fdfffe"/><path d="M4.94,65.9h-.1v.54h0a.47.47,0,0,0,.19,0,.16.16,0,0,0,.1-.08.38.38,0,0,0,0-.16A.29.29,0,0,0,5.15,66,.25.25,0,0,0,4.94,65.9Z" style="fill:#fdfffe"/><path d="M22.6,65.9h-.1v.54h.05a.47.47,0,0,0,.19,0,.16.16,0,0,0,.1-.08.38.38,0,0,0,0-.16.29.29,0,0,0-.07-.21A.27.27,0,0,0,22.6,65.9Z" style="fill:#fdfffe"/><path d="M53.73,60.65a5,5,0,0,0-4-1.8,5.07,5.07,0,0,0-3.54,2.27c-.23.32-.39.33-.72.17a8.75,8.75,0,0,0-4.24-.94A2.76,2.76,0,0,0,38.67,64c.28.74.28.74-.55.74H1a5.42,5.42,0,0,1-.57,0c-.33,0-.46.11-.45.45a12.82,12.82,0,0,1,0,1.86c-.08.73.18.89.9.89q20.1,0,40.22,0a4,4,0,0,1,2,.23,4.09,4.09,0,0,0-.58-.53,9.91,9.91,0,0,1-2.92-3.54,1.83,1.83,0,0,1,1.57-2.62,7.38,7.38,0,0,1,3.89.88,1.63,1.63,0,0,0,2.5-.85A2.78,2.78,0,0,1,51,60.09a2.2,2.2,0,0,1,1.33,3,8.78,8.78,0,0,1-4.59,5A10.9,10.9,0,0,1,44,69.49a12.69,12.69,0,0,1-3,.75c.31.26.69.15,1,.11a19.23,19.23,0,0,0,7.2-2.44A16.65,16.65,0,0,0,53,64.7l.21-.06h0c0-.31.23-.49.35-.74A3.22,3.22,0,0,0,53.73,60.65ZM2.64,66.37a.37.37,0,0,1-.21.12,1.15,1.15,0,0,1-.3,0v.35a.31.31,0,0,0,0,.12.1.1,0,0,0,0,0l.11,0v0H1.67v0a.29.29,0,0,0,.12,0,.08.08,0,0,0,0,0,.31.31,0,0,0,0-.12v-.81a.31.31,0,0,0,0-.12l0-.05H1.67v0h.54a.66.66,0,0,1,.39.09.3.3,0,0,1,.11.24A.27.27,0,0,1,2.64,66.37Zm1.56-.5h0l-.08,0s0,0,0,.06a.27.27,0,0,0,0,.11v.47a2.05,2.05,0,0,1,0,.31.34.34,0,0,1-.14.18.49.49,0,0,1-.31.08.57.57,0,0,1-.25,0,.42.42,0,0,1-.17-.15.55.55,0,0,1,0-.25v-.6a.35.35,0,0,0,0-.13.1.1,0,0,0,0-.05H2.92v0h.64v0H3.43a.1.1,0,0,0,0,.05,1.09,1.09,0,0,0,0,.13v.6a.48.48,0,0,0,0,.22.14.14,0,0,0,.08.09.24.24,0,0,0,.15,0A.34.34,0,0,0,3.81,67a.29.29,0,0,0,.1-.12.63.63,0,0,0,0-.28v-.5a.29.29,0,0,0,0-.12l0,0-.12,0v0H4.2Zm1.51,1.2H5.32l-.4-.56H4.84v.35a.31.31,0,0,0,0,.12.07.07,0,0,0,.05,0A.23.23,0,0,0,5,67v0H4.38v0l.11,0a.1.1,0,0,0,0,0,1.05,1.05,0,0,0,0-.12v-.81a1.05,1.05,0,0,0,0-.12s0,0,0-.05H4.38v0H5a1.31,1.31,0,0,1,.33,0,.34.34,0,0,1,.17.11.35.35,0,0,1,.07.2.3.3,0,0,1-.1.22.38.38,0,0,1-.18.09l.3.42.08.1a.16.16,0,0,0,.09,0Zm1.2,0H5.84v0h0L6,67a.08.08,0,0,0,0,0s0-.06,0-.12v-.81a.28.28,0,0,0,0-.11s0,0,0,0l-.1,0h0v0h1v.36h0A.38.38,0,0,0,6.77,66a.28.28,0,0,0-.14-.09H6.31v.5h0a.19.19,0,0,0,.17-.07.44.44,0,0,0,.07-.22h0v.65h0a.48.48,0,0,0,0-.18.24.24,0,0,0-.08-.09l-.14,0v.35a.84.84,0,0,0,0,.12.08.08,0,0,0,0,0l.07,0h.08a.4.4,0,0,0,.27-.09.42.42,0,0,0,.15-.24H7Zm1.39,0H7.2v0h0l.09,0s0,0,0,0a.35.35,0,0,0,0-.12v-.81c0-.07,0-.11,0-.12s0,0,0,0l-.08,0h0v0h.66v0H7.81l-.09,0a.08.08,0,0,0,0,0,.35.35,0,0,0,0,.12v.79c0,.06,0,.1,0,.12a.11.11,0,0,0,.05,0h.21a.38.38,0,0,0,.16,0,.25.25,0,0,0,.12-.11,1,1,0,0,0,.09-.22h0Zm1.38-1.2a.19.19,0,0,0-.09,0,1.49,1.49,0,0,0-.15.21l-.26.45v.3c0,.07,0,.11,0,.12s0,0,0,0l.08,0h.07v0H8.68v0h.06l.09,0a.08.08,0,0,0,0,0s0-.06,0-.12v-.25l-.29-.53a.68.68,0,0,0-.13-.18.12.12,0,0,0-.09,0v0H9v0h-.1s0,0,0,0a.5.5,0,0,0,.07.16l.23.41.22-.37a.56.56,0,0,0,.08-.18.05.05,0,0,0,0,0,.17.17,0,0,0-.12,0v0h.38Zm1.94,0a.25.25,0,0,0-.12.07,1.38,1.38,0,0,0-.11.22L11,67.1h0l-.42-1a.85.85,0,0,0-.11-.21.11.11,0,0,0-.09,0v0h.59v0h0l-.11,0a.05.05,0,0,0,0,0,.08.08,0,0,0,0,0,1,1,0,0,0,.05.12l.26.61.24-.54.06-.14a.43.43,0,0,1,0,0,.08.08,0,0,0,0,0,.08.08,0,0,0,0,0h-.1v0h.4Zm1.24,1.2H11.79v0h0l.09,0a.08.08,0,0,0,0,0s0-.06,0-.12v-.81a1,1,0,0,0,0-.11s0,0,0,0l-.1,0h0v0h1v.36h0a.38.38,0,0,0-.07-.19.28.28,0,0,0-.14-.09h-.32v.5h0a.19.19,0,0,0,.17-.07.57.57,0,0,0,.07-.22h0v.65h0a.78.78,0,0,0,0-.18.24.24,0,0,0-.08-.09l-.14,0v.35a.84.84,0,0,0,0,.12l0,0,.08,0h.08a.4.4,0,0,0,.27-.09.42.42,0,0,0,.15-.24h0Zm1.69-.48-.1,0s0,0,0,0a.78.78,0,0,0,0,.09V67l-.24.08-.27,0a.63.63,0,0,1-.29,0,.72.72,0,0,1-.21-.12.62.62,0,0,1-.14-.18.61.61,0,0,1-.06-.28.63.63,0,0,1,.2-.47.66.66,0,0,1,.49-.19h.17l.13,0,.1,0,.05,0a.21.21,0,0,0,0-.07h0v.43h0a.54.54,0,0,0-.18-.27.44.44,0,0,0-.27-.09.31.31,0,0,0-.23.08.38.38,0,0,0-.13.21,1.14,1.14,0,0,0,0,.6.33.33,0,0,0,.14.2.38.38,0,0,0,.22.06H14l.1,0v-.26s0-.08,0-.1l0,0a.12.12,0,0,0-.08,0h0v0h.6Zm1.46.48h-.6v0h0l.1,0a.05.05,0,0,0,0,0,.08.08,0,0,0,0,0l0-.06-.06-.16H15l0,.12a.22.22,0,0,0,0,.1A.09.09,0,0,0,15,67l.12,0v0H14.7v0a.17.17,0,0,0,.1-.06.63.63,0,0,0,.11-.18l.44-1h0l.45,1a.67.67,0,0,0,.1.18A.12.12,0,0,0,16,67Zm1.44-1.2c-.05,0-.09,0-.11,0a.11.11,0,0,0,0,0,.35.35,0,0,0,0,.12v1h0l-.84-1v.79a.17.17,0,0,0,0,.14.15.15,0,0,0,.11,0h0v0h-.44v0c.07,0,.12,0,.14,0a.2.2,0,0,0,0-.14V66l0,0-.07-.06-.09,0v0h.44l.61.76v-.53a.28.28,0,0,0,0-.15.21.21,0,0,0-.15,0v0h.41Zm2.05,1.19a.24.24,0,0,1-.15,0,.31.31,0,0,1-.13,0L19.06,67a1.43,1.43,0,0,1-.21.11.76.76,0,0,1-.21,0,.41.41,0,0,1-.28-.09.28.28,0,0,1-.1-.22.33.33,0,0,1,.1-.24.75.75,0,0,1,.28-.18.61.61,0,0,1,0-.11.52.52,0,0,1,0-.11.34.34,0,0,1,.11-.25.37.37,0,0,1,.26-.09.3.3,0,0,1,.2.06.19.19,0,0,1,.08.15.25.25,0,0,1-.08.18.66.66,0,0,1-.24.13,2.27,2.27,0,0,0,.3.39.4.4,0,0,0,.13-.25.08.08,0,0,0,0-.07.11.11,0,0,0-.08,0v0h.38v0a.15.15,0,0,0-.1,0,.58.58,0,0,0-.1.13,1.24,1.24,0,0,1-.16.24l.15.11a.13.13,0,0,0,.08,0,.12.12,0,0,0,.12-.08l0,0A.72.72,0,0,1,19.5,67.06Zm2.19-.2a.7.7,0,0,1-1,0,.71.71,0,0,1-.14-.43A.6.6,0,0,1,20.7,66a.58.58,0,0,1,.46-.17.65.65,0,0,1,.53,1Zm1.68.21H23l-.4-.56H22.5v.35a.31.31,0,0,0,0,.12.08.08,0,0,0,0,0,.29.29,0,0,0,.12,0v0H22v0l.11,0a.1.1,0,0,0,.05,0,1.05,1.05,0,0,0,0-.12v-.81a1.05,1.05,0,0,0,0-.12s0,0-.05-.05H22v0h.57a1.31,1.31,0,0,1,.33,0,.34.34,0,0,1,.17.11.35.35,0,0,1,.07.2.3.3,0,0,1-.1.22.38.38,0,0,1-.18.09l.3.42.08.1a.16.16,0,0,0,.09,0Zm1.53-.48-.1,0s0,0,0,0a.78.78,0,0,0,0,.09V67l-.24.08-.27,0a.63.63,0,0,1-.29,0,.72.72,0,0,1-.21-.12.62.62,0,0,1-.14-.18.61.61,0,0,1-.06-.28.63.63,0,0,1,.2-.47.66.66,0,0,1,.49-.19h.17l.13,0,.1,0,.05,0s0,0,0-.07h0v.43h0a.54.54,0,0,0-.18-.27.44.44,0,0,0-.27-.09A.31.31,0,0,0,24,66a.38.38,0,0,0-.13.21,1.14,1.14,0,0,0,0,.6.35.35,0,0,0,.36.26h.09l.1,0v-.26s0-.08,0-.1l0,0a.11.11,0,0,0-.08,0h0v0h.6Zm1.46.48h-.6v0h0l.1,0a.05.05,0,0,0,0,0,.08.08,0,0,0,0,0l0-.06-.06-.16h-.44l-.05.12a.22.22,0,0,0,0,.1.09.09,0,0,0,.05.08l.12,0v0h-.41v0a.24.24,0,0,0,.11-.06,1.15,1.15,0,0,0,.1-.18l.44-1h0l.45,1a1.15,1.15,0,0,0,.1.18.12.12,0,0,0,.09,0Zm1.44-1.2c-.05,0-.09,0-.11,0a.11.11,0,0,0,0,0,.35.35,0,0,0,0,.12v1h0l-.84-1v.79a.17.17,0,0,0,.05.14.15.15,0,0,0,.11,0h0v0h-.44v0c.07,0,.12,0,.14,0a.2.2,0,0,0,0-.14V66l0,0-.07-.06-.09,0v0H27l.61.76v-.53a.28.28,0,0,0,0-.15.21.21,0,0,0-.15,0v0h.41Zm.84,0h0l-.09,0,0,0a.35.35,0,0,0,0,.12v.81a.35.35,0,0,0,0,.12s0,0,0,0l.08,0h0v0H28v0h0l.09,0a.08.08,0,0,0,0,0s0-.06,0-.12v-.81a.84.84,0,0,0,0-.12.08.08,0,0,0,0,0l-.09,0h0v0h.65Zm1.4.37h0a.47.47,0,0,0-.15-.26.38.38,0,0,0-.25-.09.31.31,0,0,0-.21.07.33.33,0,0,0-.14.17.75.75,0,0,0-.06.31,1,1,0,0,0,0,.3.44.44,0,0,0,.13.21.42.42,0,0,0,.23.07.43.43,0,0,0,.22-.06.72.72,0,0,0,.2-.17v.11a.69.69,0,0,1-.21.15.59.59,0,0,1-.27,0,.67.67,0,0,1-.35-.08.59.59,0,0,1-.24-.23.65.65,0,0,1-.08-.31.69.69,0,0,1,.09-.34.75.75,0,0,1,.25-.25.81.81,0,0,1,.34-.08.91.91,0,0,1,.27,0l.11,0,.05,0s0,0,0-.07h0Zm1.89,0h0a.3.3,0,0,0-.07-.18.27.27,0,0,0-.15-.09h-.32v.51h0a.25.25,0,0,0,.13,0,.18.18,0,0,0,.09-.08.5.5,0,0,0,.05-.16h0v.62h0a.31.31,0,0,0-.1-.23.27.27,0,0,0-.17-.06h0v.38c0,.06,0,.1,0,.12a.08.08,0,0,0,0,0l.09,0h0v0h-.65v0h0L31,67l0,0s0-.06,0-.12v-.81a.84.84,0,0,0,0-.12.1.1,0,0,0-.05,0l-.08,0h0v0h1.05Zm1.41.67a.6.6,0,0,1-.51.24.62.62,0,0,1-.52-.22.65.65,0,0,1-.14-.43.63.63,0,0,1,.18-.46.61.61,0,0,1,.47-.17.6.6,0,0,1,.66.63A.59.59,0,0,1,33.34,66.86Zm1.57,0a.69.69,0,0,1-1,0,.66.66,0,0,1-.15-.43.64.64,0,0,1,.19-.46.66.66,0,0,1,1.13.46A.64.64,0,0,1,34.91,66.86Zm1.55-.16a.78.78,0,0,1-.11.18.61.61,0,0,1-.16.12.89.89,0,0,1-.21.06h-.73v0h0a.13.13,0,0,0,.08,0,.1.1,0,0,0,.05,0,1.05,1.05,0,0,0,0-.12v-.81a.84.84,0,0,0,0-.12.07.07,0,0,0-.05,0l-.08,0h0v0h.56a.88.88,0,0,1,.35.06.49.49,0,0,1,.25.22.64.64,0,0,1,.09.34A.86.86,0,0,1,36.46,66.7Z" style="fill:#fdfffe"/><path d="M34.56,65.93a.26.26,0,0,0-.17-.05.27.27,0,0,0-.26.17,1.08,1.08,0,0,0-.07.41.83.83,0,0,0,.11.47.31.31,0,0,0,.38.06.39.39,0,0,0,.12-.19,1,1,0,0,0,0-.33,1.09,1.09,0,0,0,0-.37A.38.38,0,0,0,34.56,65.93Z" style="fill:#fdfffe"/><path d="M33,65.93a.24.24,0,0,0-.16-.05.27.27,0,0,0-.26.17.92.92,0,0,0-.07.41.76.76,0,0,0,.11.47.24.24,0,0,0,.21.1A.25.25,0,0,0,33,67a.34.34,0,0,0,.13-.19,1,1,0,0,0,0-.33,1.14,1.14,0,0,0,0-.37A.32.32,0,0,0,33,65.93Z" style="fill:#fdfffe"/><path d="M35.94,65.93a.62.62,0,0,0-.22,0v1s0,.08,0,.1,0,0,0,0l.07,0a.27.27,0,0,0,.23-.11.71.71,0,0,0,.11-.43.87.87,0,0,0-.08-.39A.36.36,0,0,0,35.94,65.93Z" style="fill:#fdfffe"/></g><g style="opacity:0.6"><polygon points="57.4 69.35 57.63 69.54 57.83 69.32 57.59 69.11 57.41 69.32 57.18 69.12 56.98 69.35 57.22 69.55 57.4 69.35" style="fill:#fdfffe"/><path d="M61.13,69.68a2.89,2.89,0,0,1,.08.65,1.06,1.06,0,0,1-.38,0h-.06a.58.58,0,0,1-.31,0s0-.09,0-.15v-.39l-.33,0v.37c0,.13-.07.19-.22.19s-.22-.07-.22-.21v-.32l-.33,0v.26a.19.19,0,0,1-.08.18.38.38,0,0,1-.22.06.52.52,0,0,1-.23-.05,1.83,1.83,0,0,0,0-.21l0-.23-.33,0v.21a.32.32,0,0,1-.08.21.24.24,0,0,1-.18.06h-.1a1.07,1.07,0,0,1-.37,0,1.38,1.38,0,0,0,0-.22v-.39l-.35,0v.41a.21.21,0,0,1-.07.17.53.53,0,0,1-.31.06H57a3.35,3.35,0,0,1-.81-.11l-.07.36a2.72,2.72,0,0,0,.49.13q-.13.27-.6.27c-.35,0-.53-.14-.53-.41a1.57,1.57,0,0,1,.11-.49L55.31,70a1.68,1.68,0,0,0-.19.71.64.64,0,0,0,.22.51.9.9,0,0,0,.6.18,1.21,1.21,0,0,0,.67-.17.73.73,0,0,0,.31-.46h.22a.75.75,0,0,0,.49-.13.81.81,0,0,0,.49.13h.11a.59.59,0,0,0,.38-.11.73.73,0,0,0,.45.13.56.56,0,0,0,.46-.16.47.47,0,0,0,.38.16.58.58,0,0,0,.41-.14.83.83,0,0,0,.44.12h.08a1.47,1.47,0,0,0,.36,0,1.28,1.28,0,0,0,.28-.1,1.65,1.65,0,0,0,.06-.48,2.69,2.69,0,0,0-.06-.57Z" style="fill:#fdfffe"/><polygon points="61.08 71.22 60.85 71.02 60.65 71.26 60.89 71.46 61.06 71.26 61.29 71.45 61.49 71.22 61.25 71.02 61.08 71.22" style="fill:#fdfffe"/><polygon points="62.46 69.33 62.2 69.1 61.98 69.36 62.24 69.57 62.46 69.33" style="fill:#fdfffe"/><path d="M66.32,69.71a1.79,1.79,0,0,0-.82-.39,1.17,1.17,0,0,0-.38.78.68.68,0,0,0,.07.27h-.36a.29.29,0,0,1-.19,0,.38.38,0,0,1-.09-.22c-.09-.37-.27-.56-.53-.56a.54.54,0,0,0-.35.11,1.57,1.57,0,0,0-.24.33v0h0v0l-.07.14-.07.1a.22.22,0,0,1-.09.08l-.11,0H63a.33.33,0,0,1-.33-.17l0-.07a.14.14,0,0,1,0-.06.46.46,0,0,1,0-.09l0-.07s0,0,0-.1a.56.56,0,0,0,0-.1l-.34.11a2.41,2.41,0,0,1,.12.62.63.63,0,0,1-.13.41.44.44,0,0,1-.4.17h-.15l0,.34a1.24,1.24,0,0,0,.27,0,.69.69,0,0,0,.51-.19.93.93,0,0,0,.23-.52.53.53,0,0,0,.37.11h.13a.49.49,0,0,0,.35-.13,1.11,1.11,0,0,0,.58.14,1,1,0,0,0,.46-.11.56.56,0,0,0,.37.1H65a1.47,1.47,0,0,0,.58-.1,1.6,1.6,0,0,0,.76.2c.23,0,.34-.17.34-.5A.89.89,0,0,0,66.32,69.71Zm-2.3.71a1.07,1.07,0,0,1-.41-.07l0,0a1.43,1.43,0,0,1,.19-.3.24.24,0,0,1,.18-.07.16.16,0,0,1,.16.1,1.23,1.23,0,0,1,.12.35A1,1,0,0,1,64,70.42Zm1.75-.27a.72.72,0,0,1-.19.14.31.31,0,0,1-.17-.26.49.49,0,0,1,.13-.31c.19,0,.29.15.29.29A.27.27,0,0,1,65.77,70.15Zm.5.38a1.29,1.29,0,0,1-.39-.09.67.67,0,0,0,.21-.47h0a.65.65,0,0,1,.26.49C66.35,70.51,66.32,70.53,66.27,70.53Z" style="fill:#fdfffe"/><path d="M71,70.43a1.09,1.09,0,0,0-.08.43h.37a4.49,4.49,0,0,1,.11-.82H71.2A1.42,1.42,0,0,0,71,70.43Z" style="fill:#fdfffe"/><path d="M76.46,69.47a1,1,0,0,0-.59.19,1.66,1.66,0,0,0-.52.62l0,0a1.15,1.15,0,0,0,0-.2v-.34l-.34,0v.41a.24.24,0,0,1-.06.17.36.36,0,0,1-.25.06h-.1a.43.43,0,0,1-.28-.08.46.46,0,0,1-.08-.29V68.72l-.36,0V70.1a.34.34,0,0,1-.06.22.36.36,0,0,1-.25.06h-.06a.6.6,0,0,1-.27-.06,1.18,1.18,0,0,1-.27-.22c-.08-.08-.14-.15-.2-.2l-.19-.17a.71.71,0,0,0-.23-.14.53.53,0,0,0-.2,0,.46.46,0,0,0-.29.1,1,1,0,0,0-.19.33l.27.1A.31.31,0,0,1,72,70a.16.16,0,0,1,.12,0c.06,0,.19.09.37.26a1.39,1.39,0,0,0-.59.31.74.74,0,0,0-.23.54.63.63,0,0,0,.21.5,1,1,0,0,0,.63.18,1.51,1.51,0,0,0,.76-.2l-.11-.32a1.51,1.51,0,0,1-.57.11.89.89,0,0,1-.4-.08A.29.29,0,0,1,72,71a.43.43,0,0,1,.17-.32,1.49,1.49,0,0,1,.52-.23,2,2,0,0,0,.38.31.67.67,0,0,0,.35.08h.06a.64.64,0,0,0,.53-.18.63.63,0,0,0,.47.18h.15a.67.67,0,0,0,.49-.15,1.91,1.91,0,0,0,.88.17,2.19,2.19,0,0,0,1-.18,1.28,1.28,0,0,0,.09-.48.7.7,0,0,0-.18-.5A.65.65,0,0,0,76.46,69.47Zm-.35.91a2.82,2.82,0,0,1-.43,0A1.75,1.75,0,0,1,76,70a.66.66,0,0,1,.36-.11.38.38,0,0,1,.28.11.5.5,0,0,1,.11.34A2.58,2.58,0,0,1,76.11,70.38Z" style="fill:#fdfffe"/><path d="M81.43,70.43a1.31,1.31,0,0,0-.08.43h.38a4.48,4.48,0,0,1,.1-.82h-.21A1.42,1.42,0,0,0,81.43,70.43Z" style="fill:#fdfffe"/><polygon points="83.31 69.17 83.54 69.36 83.74 69.13 83.5 68.93 83.32 69.13 83.09 68.94 82.89 69.17 83.13 69.37 83.31 69.17" style="fill:#fdfffe"/><polygon points="85.66 69.06 85.44 68.88 85.26 69.09 85.48 69.27 85.66 69.06" style="fill:#fdfffe"/><polygon points="85.48 69.44 85.71 69.62 85.91 69.4 85.67 69.2 85.49 69.41 85.26 69.22 85.07 69.45 85.3 69.64 85.48 69.44" style="fill:#fdfffe"/><path d="M88.11,70.2a2.79,2.79,0,0,1-.52.12.26.26,0,0,1-.18-.09.3.3,0,0,1-.1-.24.2.2,0,0,1,.09-.17.27.27,0,0,1,.2-.07,1.16,1.16,0,0,1,.32.06L88,69.5a1.12,1.12,0,0,0-.49-.11.55.55,0,0,0-.4.15A.56.56,0,0,0,87,70a.57.57,0,0,0,.16.4h-.37a.62.62,0,0,1-.32,0,.66.66,0,0,0,0-.15v-.39l-.32,0v.37c0,.13-.08.19-.23.19s-.22-.07-.22-.21v-.32l-.33,0v.26a.19.19,0,0,1-.08.18.37.37,0,0,1-.21.06.6.6,0,0,1-.24-.05,1.83,1.83,0,0,0,0-.21l0-.23-.33,0v.21c0,.1,0,.18-.08.21a.24.24,0,0,1-.18.06h-.32a1,1,0,0,0-.18-.64.51.51,0,0,0-.43-.24.49.49,0,0,0-.41.21.76.76,0,0,0-.17.5.62.62,0,0,0,.13.4.53.53,0,0,0,.43.14h.3a.41.41,0,0,1-.21.2A.86.86,0,0,1,83,71a.64.64,0,0,1-.42-.11.43.43,0,0,1-.13-.35,1.62,1.62,0,0,1,.06-.4l-.29-.09a1.78,1.78,0,0,0-.12.61.71.71,0,0,0,.21.55.89.89,0,0,0,.62.2,1.16,1.16,0,0,0,.65-.17.81.81,0,0,0,.34-.48h.33a.56.56,0,0,0,.37-.11.77.77,0,0,0,.45.13.56.56,0,0,0,.46-.16.5.5,0,0,0,.39.16.56.56,0,0,0,.4-.14.84.84,0,0,0,.45.12h.09a3.56,3.56,0,0,0,.68-.05,5,5,0,0,0,.7-.19Zm-4.68.18a.5.5,0,0,1-.29-.06.19.19,0,0,1-.09-.17.26.26,0,0,1,.07-.19.2.2,0,0,1,.18-.09.26.26,0,0,1,.24.16.86.86,0,0,1,.09.35Z" style="fill:#fdfffe"/></g></svg>