<svg id="Layer_1" data-name="Layer 1" xmlns="http://www.w3.org/2000/svg" viewBox="0 0 93.45 93.45"><title>customer</title><polygon points="29.68 75.36 28.01 76.03 28 76.31 29.78 75.58 29.68 75.36" style="fill:#f8fcfe"/><path d="M33.42,77.92l-.09-.28c0-.09-.07-.17-.11-.25l-.49.24a1.33,1.33,0,0,1,.11.24,1.52,1.52,0,0,1,.09.25,1,1,0,0,1,.06.22.64.64,0,0,1,0,.15.29.29,0,0,1-.06.19.31.31,0,0,1-.14.11l-.18,0H30.12a.58.58,0,0,1-.19,0,.56.56,0,0,1-.17-.09.57.57,0,0,1-.14-.13l-.12-.17h0l-.12-.2-.1-.19-.15-.29c-.06-.09-.11-.18-.18-.27a1.93,1.93,0,0,0-.22-.28,2.46,2.46,0,0,0-.28-.28l1.6-.66-.2-.48L28,76.56l-.05.6.2.17a2.09,2.09,0,0,1,.2.22,2.23,2.23,0,0,1,.19.24c.06.08.11.17.16.25a1.22,1.22,0,0,1,.1.24.64.64,0,0,1,0,.22.28.28,0,0,1,0,.13.38.38,0,0,1-.11.11.6.6,0,0,1-.16.08.78.78,0,0,1-.22,0H26.06l-.07.53.29.05a1.74,1.74,0,0,1,.29.07l.18.08a.53.53,0,0,1,.15.08l.11.06,0,0a.21.21,0,0,1-.07.16,1,1,0,0,1-.19.12,1.6,1.6,0,0,1-.26.08l-.27.06-.25,0h-.41l-.27,0a1.14,1.14,0,0,1-.26-.09.58.58,0,0,1-.21-.17,1.47,1.47,0,0,1-.1-.22.77.77,0,0,1,0-.27c0-.09,0-.17,0-.27s0-.19.05-.29a2.9,2.9,0,0,1,.09-.34l.14-.4-.43-.2-.16.41c0,.12-.07.24-.1.35s0,.22-.06.32l0,.3a.76.76,0,0,0,0,.15,1.21,1.21,0,0,0,.09.48,1,1,0,0,0,.33.46,1.4,1.4,0,0,0,.53.27,2.36,2.36,0,0,0,.67.09l.32,0,.36-.07.35-.13a1.08,1.08,0,0,0,.31-.19,1,1,0,0,0,.23-.26.7.7,0,0,0,.09-.33.67.67,0,0,0,0-.18.81.81,0,0,0-.11-.2h1a1.07,1.07,0,0,0,.25,0,.83.83,0,0,0,.22-.08.82.82,0,0,0,.2-.12.77.77,0,0,0,.17-.19,1.17,1.17,0,0,0,.2.19.71.71,0,0,0,.22.13,1.12,1.12,0,0,0,.26.08l.28,0h2.26a2,2,0,0,0,.44,0,1.19,1.19,0,0,0,.34-.16.74.74,0,0,0,.22-.28.88.88,0,0,0,.08-.41,1.32,1.32,0,0,0,0-.28C33.47,78.11,33.45,78,33.42,77.92Z" style="fill:#f8fcfe"/><polygon points="33.17 76.67 32.77 76.27 32.36 76.67 32.77 77.08 33.17 76.67" style="fill:#f8fcfe"/><polygon points="39.52 76.65 39.11 76.25 38.71 76.65 39.11 77.06 39.52 76.65" style="fill:#f8fcfe"/><path d="M40.41,77.76l-.32-.14-.32-.14a1.73,1.73,0,0,0-.32-.11,1.13,1.13,0,0,0-.32-.05.73.73,0,0,0-.3.06,1.43,1.43,0,0,0-.27.15,1.45,1.45,0,0,0-.22.21l-.17.25.44.29,0,0a.47.47,0,0,1,.06-.09l.07-.09.1-.09.12-.07.14,0a.73.73,0,0,1,.25,0l.27.11.3.14a1.69,1.69,0,0,0,.34.1c-.15.08-.32.15-.49.22l-.52.19-.54.13a3.29,3.29,0,0,1-.54,0H35.77a2.91,2.91,0,0,0,0-.31,1.4,1.4,0,0,0-.09-.29,1.31,1.31,0,0,0-.12-.27,1.77,1.77,0,0,0-.16-.22.82.82,0,0,0-.6-.29.6.6,0,0,0-.24,0,.86.86,0,0,0-.2.13,1.46,1.46,0,0,0-.16.19,1.27,1.27,0,0,0-.12.23c0,.09,0,.17-.07.25a1.13,1.13,0,0,0,0,.25,1,1,0,0,0,.05.31.55.55,0,0,0,.14.22.8.8,0,0,0,.21.15,1.14,1.14,0,0,0,.26.09l.31,0h.34a.84.84,0,0,1-.16.29,1.35,1.35,0,0,1-.3.27,2.44,2.44,0,0,1-.43.23,3.05,3.05,0,0,1-.56.16l.12.53a2.58,2.58,0,0,0,.62-.17,2.54,2.54,0,0,0,.53-.31,1.72,1.72,0,0,0,.41-.44,1.34,1.34,0,0,0,.24-.56H38.2a4.27,4.27,0,0,0,.81-.1,6.18,6.18,0,0,0,.73-.23,6.76,6.76,0,0,0,.67-.29l.62-.3,0-.55a1.32,1.32,0,0,1-.34,0A2.08,2.08,0,0,1,40.41,77.76Zm-5.24,1.09h-.31l-.17,0-.14,0a.27.27,0,0,1-.11-.1.23.23,0,0,1,0-.14.39.39,0,0,1,0-.18.8.8,0,0,1,.08-.16.68.68,0,0,1,.12-.12.21.21,0,0,1,.12,0,.28.28,0,0,1,.12,0,1.14,1.14,0,0,1,.11.11l.11.15a1.42,1.42,0,0,1,.08.18,1.46,1.46,0,0,1,.07.19l0,.17Z" style="fill:#f8fcfe"/><rect x="46.85" y="76.57" width="0.51" height="0.51" transform="translate(-40.59 56.05) rotate(-45.16)" style="fill:#f8fcfe"/><rect x="46.47" y="75.98" width="0.47" height="0.47" transform="translate(-40.22 55.35) rotate(-45)" style="fill:#f8fcfe"/><rect x="46.05" y="76.57" width="0.51" height="0.51" transform="translate(-40.76 55.24) rotate(-45)" style="fill:#f8fcfe"/><path d="M48.12,78a1.55,1.55,0,0,0-.08-.23,2,2,0,0,0-.07-.19l-.07-.15,0-.08-.48.25c.05.08.09.16.13.24s.07.16.11.23,0,.15.07.21a1.41,1.41,0,0,1,0,.18.56.56,0,0,1-.07.32.28.28,0,0,1-.25.11.15.15,0,0,1-.11,0,.31.31,0,0,1-.09-.11.44.44,0,0,1-.06-.16.84.84,0,0,1,0-.17.88.88,0,0,1,0-.16.57.57,0,0,1,0-.12l0-.25-.51,0v.36c0,.07,0,.14,0,.21a.53.53,0,0,1,0,.19.3.3,0,0,1-.09.13.29.29,0,0,1-.17.06h-.06a.31.31,0,0,1-.13,0,.7.7,0,0,1-.16-.14,1,1,0,0,1-.14-.2,2.56,2.56,0,0,1-.11-.24,1,1,0,0,1-.09-.22l-.07-.19-.48.29.17.38a2.14,2.14,0,0,1,.13.38,1.53,1.53,0,0,1,.05.3v.11a1.57,1.57,0,0,1-.05.37.72.72,0,0,1-.14.24.84.84,0,0,1-.23.18.82.82,0,0,1-.32.12,1.79,1.79,0,0,1-.42,0,1.11,1.11,0,0,1-.37-.07,1.26,1.26,0,0,1-.3-.18.8.8,0,0,1-.18-.27.73.73,0,0,1-.06-.3v0a1.33,1.33,0,0,1,0-.28,1.43,1.43,0,0,1,.09-.27l.12-.26c.05-.08.1-.16.14-.24L43.19,78c-.06.09-.11.18-.17.29a3.27,3.27,0,0,0-.14.33,2.54,2.54,0,0,0-.1.37,1.64,1.64,0,0,0-.05.37,1.34,1.34,0,0,0,.11.58,1.35,1.35,0,0,0,.29.44,1.29,1.29,0,0,0,.46.29,1.48,1.48,0,0,0,.57.1,2,2,0,0,0,.42,0,1.68,1.68,0,0,0,.4-.11,1.58,1.58,0,0,0,.36-.2,1.33,1.33,0,0,0,.29-.29,1,1,0,0,0,.17-.35,1.34,1.34,0,0,0,.06-.4v-.08l.15,0a.66.66,0,0,0,.21,0,.75.75,0,0,0,.23,0,.44.44,0,0,0,.16-.06.31.31,0,0,0,.11-.09l.1-.12.08.12.11.09a.39.39,0,0,0,.15.06.5.5,0,0,0,.18,0,.87.87,0,0,0,.37-.07,1.05,1.05,0,0,0,.27-.2.86.86,0,0,0,.16-.3,1,1,0,0,0,.06-.36,2.29,2.29,0,0,0,0-.25Z" style="fill:#f8fcfe"/><polygon points="54.17 76.65 53.77 76.25 53.36 76.65 53.77 77.06 54.17 76.65" style="fill:#f8fcfe"/><path d="M55.06,77.76l-.32-.14-.32-.14a1.73,1.73,0,0,0-.32-.11,1.13,1.13,0,0,0-.32-.05.73.73,0,0,0-.3.06,1.1,1.1,0,0,0-.26.15,1.15,1.15,0,0,0-.23.21l-.17.25.44.29,0,0,.06-.09.07-.09.1-.09.12-.07.14,0a.82.82,0,0,1,.26,0l.26.11.3.14a1.69,1.69,0,0,0,.34.1c-.15.08-.32.15-.49.22l-.52.19-.54.13a3.29,3.29,0,0,1-.54,0H50.42a2.91,2.91,0,0,0,0-.31,1.4,1.4,0,0,0-.09-.29,1.31,1.31,0,0,0-.12-.27,1.77,1.77,0,0,0-.16-.22.82.82,0,0,0-.6-.29.6.6,0,0,0-.24,0,.86.86,0,0,0-.2.13,1.46,1.46,0,0,0-.16.19,1.27,1.27,0,0,0-.12.23c0,.09,0,.17-.07.25a1.13,1.13,0,0,0,0,.25,1,1,0,0,0,0,.31.69.69,0,0,0,.14.22.8.8,0,0,0,.21.15,1.07,1.07,0,0,0,.27.09l.3,0h.34a.84.84,0,0,1-.16.29,1.35,1.35,0,0,1-.3.27,2.44,2.44,0,0,1-.43.23,2.84,2.84,0,0,1-.56.16l.12.53a2.58,2.58,0,0,0,.62-.17,2.54,2.54,0,0,0,.53-.31,1.72,1.72,0,0,0,.41-.44,1.5,1.5,0,0,0,.25-.56h2.47a4.27,4.27,0,0,0,.81-.1,6.18,6.18,0,0,0,.73-.23,6.76,6.76,0,0,0,.67-.29l.62-.3,0-.55a1.24,1.24,0,0,1-.33,0A2.19,2.19,0,0,1,55.06,77.76Zm-5.24,1.09h-.31l-.17,0-.14,0a.27.27,0,0,1-.11-.1.33.33,0,0,1,0-.14.39.39,0,0,1,0-.18.8.8,0,0,1,.08-.16.68.68,0,0,1,.12-.12.21.21,0,0,1,.12,0,.28.28,0,0,1,.12,0,.57.57,0,0,1,.11.11l.11.15a1.42,1.42,0,0,1,.08.18,1.46,1.46,0,0,1,.07.19l0,.17Z" style="fill:#f8fcfe"/><path d="M69.24,78a.8.8,0,0,0-.09-.31.78.78,0,0,0-.44-.38,1,1,0,0,0-.3,0,1.06,1.06,0,0,0-.31,0,1.36,1.36,0,0,0-.28.11,1.83,1.83,0,0,0-.26.16,2,2,0,0,0-.23.18v-.17c0-.28,0-.56,0-.85s0-.56-.09-.83l-.55.14c0,.22,0,.41,0,.57s0,.3,0,.42,0,.22,0,.31a2.44,2.44,0,0,1,0,.27c0,.16,0,.3,0,.44a1.48,1.48,0,0,1,0,.33l-.17.24a1.94,1.94,0,0,1-.1.17v0H64.21l-.31,0-.28,0a2,2,0,0,0,.2-.21,1.67,1.67,0,0,0,.16-.24,1,1,0,0,0,.11-.23.74.74,0,0,0,0-.19v0a.44.44,0,0,0,0-.1.38.38,0,0,0-.06-.13.71.71,0,0,0-.12-.13,1,1,0,0,0-.19-.12,1.69,1.69,0,0,0-.35-.1l-.29,0H62.9l-.2,0a1.09,1.09,0,0,0-.24.07l-.24.11a1.44,1.44,0,0,0-.25.18l0,.44.18.17.15.15.15.16.16.15-.17,0-.18,0-.19,0H59.88a.09.09,0,0,1-.07,0,.35.35,0,0,1-.06-.09,1.55,1.55,0,0,1,0-.15s0-.11,0-.19a2,2,0,0,0-.09-.35,1,1,0,0,0-.14-.29.67.67,0,0,0-.22-.19.68.68,0,0,0-.34-.08h0a.45.45,0,0,0-.2,0,.5.5,0,0,0-.19.1.8.8,0,0,0-.17.15l-.14.19-.11.21-.09.2h-.22l-.11,0-.07,0a.53.53,0,0,0-.12.14l-.06.14s0,.08,0,.12v.06l.08,2,.54-.09-.11-1.92.22.08.25.08.27.09.25.08.2,0h.16l.07,0,.07,0,.07-.05.05,0a.64.64,0,0,0,.17.16.27.27,0,0,0,.2.07h2l.31,0a1.86,1.86,0,0,0,.34-.05l.32-.08a.92.92,0,0,0,.26-.14.79.79,0,0,0,.23.14,1.43,1.43,0,0,0,.27.09l.3,0h3.53a3.4,3.4,0,0,0,.45,0,2.88,2.88,0,0,0,.42-.11,1.38,1.38,0,0,0,.39-.18,1.08,1.08,0,0,0,.3-.26,1.12,1.12,0,0,0,.2-.33,1.23,1.23,0,0,0,.06-.39Zm-10.14.74-.26-.08-.24-.09-.18-.08,0-.1a2.46,2.46,0,0,1,.13-.24l.1-.08a.28.28,0,0,1,.09,0,.13.13,0,0,1,.08,0h0a.2.2,0,0,1,.11,0,.31.31,0,0,1,.11.09l.08.13.06.17c0,.06,0,.12,0,.19a1.16,1.16,0,0,1,0,.18Zm4.46-.7a2.09,2.09,0,0,1-.14.17c-.06.06-.11.12-.17.17a.86.86,0,0,1-.17.13L63,78.43c0-.05-.09-.1-.15-.15l-.16-.17-.15-.18.13-.05.16,0,.15,0h.29l.15,0,.14,0,.12.05A.63.63,0,0,1,63.56,78.07Zm5.16.35a.67.67,0,0,1-.21.2,1.1,1.1,0,0,1-.29.12,2.17,2.17,0,0,1-.35.07,2.07,2.07,0,0,1-.35,0H67a3.33,3.33,0,0,1,.36-.48,2.22,2.22,0,0,1,.34-.3A1.11,1.11,0,0,1,68,77.9a.85.85,0,0,1,.25-.05h.2a.52.52,0,0,1,.15.07.18.18,0,0,1,.1.09.31.31,0,0,1,.05.12v0A.4.4,0,0,1,68.72,78.42Z" style="fill:#f8fcfe"/><path d="M26.37,27.79H67.08a1.31,1.31,0,0,0,1.25-1.68h0A19.83,19.83,0,0,0,56.46,13.37L55,12.81a4.47,4.47,0,0,0-3.55.15L41.15,17.91V15.72a2.52,2.52,0,0,0-5,0v4.61l-10.32,5A1.3,1.3,0,0,0,26.37,27.79Z" style="fill:#f8fcfe"/><path d="M26.72,35.32h40a2.51,2.51,0,0,0,0-5h-40a2.51,2.51,0,0,0,0,5Z" style="fill:#f8fcfe"/><path d="M66.73,37.83h-40a2.52,2.52,0,0,0,0,5h40a2.52,2.52,0,0,0,0-5Z" style="fill:#f8fcfe"/><path d="M40.76,55.65a5.85,5.85,0,0,1,5.32,3.23c.78,1.6.42,3.66-3,5.24s-4.2,1.16-4.68,1.21-.63.17-.78.83A3.59,3.59,0,0,1,34,68.38c-2.37,0-3.07-1.46-2-1.64s4.18-.53,3.38-1.79a2.45,2.45,0,0,1-2.85-2.52c0-2.85,2.6-3.35,3.73-2.6a3.68,3.68,0,0,1,1.44,1.77s1.18.53,3.78-.46A2.49,2.49,0,0,0,41,59.46c-.58-.76-2.32-.51-3.25-.23s-1.21-.66-1.23-1.21S36.68,55.9,40.76,55.65Z" style="fill:#f8fcfe"/><path d="M29.13,58.38a2.34,2.34,0,0,1,2.7,2.34c0,2.62-3.25,3.78-5.09,3.78a5.84,5.84,0,0,1-4.64-2.32c-.88-1.34-3.17-1.64-2.17.93a3,3,0,0,0,1.89,1.56c.58.15,1.11.31.26.83a3,3,0,0,1-3.68-.4A4.85,4.85,0,0,1,16.56,61a3.67,3.67,0,0,1,3.7-3.83c2.35,0,3.5,1.79,4.79,2.42S28.48,60.55,29.13,58.38Z" style="fill:#f8fcfe"/><path d="M41.42,53c0-.76.4-1.53,1.79-1.71a1.89,1.89,0,0,1,2,1.75,2,2,0,0,1-.79,1.54,1.63,1.63,0,0,1-2.2.16A2.11,2.11,0,0,1,41.42,53Z" style="fill:#f8fcfe"/><path d="M25.73,51.88c.54-.54,1.37-.8,2.48.06a1.88,1.88,0,0,1,.16,2.63,2,2,0,0,1-1.65.53c-.84-.09-1.61-.51-1.66-1.44A2.1,2.1,0,0,1,25.73,51.88Z" style="fill:#f8fcfe"/><path d="M62.22,66.61a2.61,2.61,0,0,0,2.26.86,4,4,0,0,0,2.67-.78c.19-.16.45-.32.58,0a2.61,2.61,0,0,1-.92,2.92,4.92,4.92,0,0,1-5-.08c-.34-.25-.52-.5-.52-1.42S61.87,66.08,62.22,66.61Z" style="fill:#f8fcfe"/><path d="M47.68,66.57s-3.21,1.72-4,2.1-1,.58-1,.83,0,.4.29.35a15,15,0,0,0,3.17-1.42c1-.67,1.52-1.23,1.52-1.54Z" style="fill:#f8fcfe"/><path d="M75.16,50.78c.37.44,1.32,1.57,1.53,1.88a1.17,1.17,0,0,1-.2,1.54,14.29,14.29,0,0,1-4.82,3,5.08,5.08,0,0,0,1.59,1.46c1.18.75,2.37,1.76,2.52,2.8S76,65.49,71,66a3.56,3.56,0,0,1-3.15-1.26,5.22,5.22,0,0,1-3.24,1.39,4.77,4.77,0,0,1-3.23-1.83,19.13,19.13,0,0,1-8.22,1.93c-4.62,0-6.07-1.27-6.07-4s1.7-2.8,2-2.8.92.12,1.58,1.49S52.55,63,55.08,63A10.26,10.26,0,0,0,59.7,61.8a10.49,10.49,0,0,1-1.23-4.08,2.53,2.53,0,0,1,1.12-2c.57-.5,1.26-1.07,2.1-1.69A41.4,41.4,0,0,0,66,50.44c.14-.22.25-.1.37,0a10,10,0,0,1,1.26,1.7,1.74,1.74,0,0,1-.15,2.26,19.55,19.55,0,0,1-5.56,3.25A5.7,5.7,0,0,0,63.08,61a2.43,2.43,0,0,0,2.54,1.21,2.5,2.5,0,0,0,1.43-.68c.3-.26.69-.31,1.45.24a3.18,3.18,0,0,0,2.06.89c.86,0,1.39-.37,1.39-.74s-.81-.83-1.36-1.23S68.18,59,68.18,57.37s1.5-2.2,2.91-3.38,3.32-2.86,3.53-3.11S75.07,50.68,75.16,50.78Z" style="fill:#f8fcfe"/></svg>