<svg id="Layer_1" data-name="Layer 1" xmlns="http://www.w3.org/2000/svg" viewBox="0 0 93.45 93.45"><title>customer</title><path d="M17.76,44.13c.74.51,1.44.93,2.06,1.44a5.07,5.07,0,0,1,.84,7.37c-2.36,3.15-5.72,4.46-9.46,5-1.43.21-2.89.23-4.35.3-.71,0-1.35,0-1.33-1s.19-1.38,1.24-1.4a9.5,9.5,0,0,0,6.46-2.43C16,50.8,15.56,47.71,12.17,46c-.37-.19-.78-.3-1.15-.46-.7-.32-1.41-.58-1.28-1.61s.87-1,1.53-1.06a7.48,7.48,0,0,0,4-1.56c2.35-1.92,2-4.49-.77-5.72a7.15,7.15,0,0,0-.77-.29c-3.12-.92-3.42-.77-4.16,2.36-1.18,5-2.39,9.94-3.45,14.94-.25,1.17-.71,1.46-1.78,1.4A20.8,20.8,0,0,0,.81,54c-1.74.2-1.72-.61-1.42-1.92Q1.49,43,3.48,33.93a1.74,1.74,0,0,1,2.08-1.62c4.3.08,8.6,0,12.9,0,2.12,0,4,.63,5.06,2.62s.35,4-1.08,5.7A17.29,17.29,0,0,1,17.76,44.13Z" style="fill:#fff"/><path d="M57.13,54.06c-4.63,0-8.19-1.11-9.9-5.13s-.68-8.08,2.09-11.42c4.19-5,10-5.91,16.05-5.36,4.73.43,3.64.1,3,4.1-.21,1.36-.63,2.69-.84,4s-.8,1.64-2.08,1.61c-1.57,0-1.13-1.06-1.16-1.87-.07-1.71-.26-3.51-2-4.25s-3.51,0-5,1.26a11.08,11.08,0,0,0-4,8.15c-.11,2.42.55,4.74,2.93,5.72a5.9,5.9,0,0,0,6.52-1.45c.57-.54.9-1.88,2.26-.83,2,1.5,2,1.75,0,3.06A13.94,13.94,0,0,1,57.13,54.06Z" style="fill:#fff"/><path d="M47.2,32.35l-17.05-.09c-.66,0-1.14.06-1.33.92-1.49,6.67-3,13.32-4.58,20-.53.68-.39,1,.47.8,1.94,0,3.87.06,5.8.06,3.73,0,7.47,0,11.2,0,1.66,0,1.56-1.42,1.72-2.28s-1-.61-1.58-.62c-3.45-.06-6.89,0-10.35,0,.56-5.13,1.45-6.34,4.87-6.78l.92,0,6.41-.19a2.93,2.93,0,0,0,.41-.07c.37-.15.35-.24.53-.84.09-.4.18-.8.28-1.19s-.63-.42-1-.39H38.45c-5,0-5,0-3.7-4.8.27-1,.65-1.57,1.91-1.53,3.24.1,6.48,0,9.71,0l.4-.06c.42,0,.57-1,.66-1.57C47.67,32.67,47.92,32.38,47.2,32.35Z" style="fill:#fff"/><path d="M92.79,35.84c-1.49-2.81-2.14-3.09-5-1.84-1.77.78-3.56,1.52-5.34,2.28-.44.19-1,.51-1.34.2-.54-.48,0-1,.23-1.47s1.09-1.47-.28-1.63c-3.38-.42-5.69.74-8.42,3.51a12,12,0,0,0-2.81,6.38c-1,5.47,1.71,10.19,6.82,11.08a15.21,15.21,0,0,0,14.72-5.2C91.53,49,96.61,43.06,92.79,35.84ZM79.45,49a1.06,1.06,0,0,1-1.49.29,1.2,1.2,0,0,1-.1-1.86,4,4,0,0,0,.61-.79l1.75,1.42A3.91,3.91,0,0,0,79.45,49Zm5.65-6a4.14,4.14,0,0,1-1.77,3.09,22,22,0,0,0-2.79,1.66l-1.87-1.51a18.34,18.34,0,0,0,.87-3.24c.42-1.52,1.17-3.19,3-3.1A2.76,2.76,0,0,1,85.1,43.07Z" style="fill:#fff"/><path d="M22,58.05v0a.89.89,0,0,0,.65-.84.82.82,0,0,0-.4-.73,1.86,1.86,0,0,0-1.13-.25,7,7,0,0,0-1,.07v3.86a8,8,0,0,0,.88,0,2.22,2.22,0,0,0,1.46-.36,1,1,0,0,0,.38-.81A1,1,0,0,0,22,58.05Zm-1.21-1.29a1.82,1.82,0,0,1,.41,0c.45,0,.73.17.73.54s-.28.56-.77.56h-.37Zm.38,2.9a2.06,2.06,0,0,1-.38,0V58.36h.36c.49,0,.89.18.89.64S21.59,59.66,21.13,59.66Z" style="fill:#fff"/><path d="M24.11,59.57V58.41h1.48v-.58H24.11v-1h1.57v-.59H23.39v3.93h2.37v-.59Z" style="fill:#fff"/><path d="M28.31,59.62a1.28,1.28,0,0,1-1.37-1.41,1.3,1.3,0,0,1,1.37-1.45,1.94,1.94,0,0,1,.77.15l.16-.57a2.43,2.43,0,0,0-1-.17,2,2,0,0,0-2.09,2.07,1.85,1.85,0,0,0,2,2,2.41,2.41,0,0,0,1-.18l-.11-.57A2,2,0,0,1,28.31,59.62Z" style="fill:#fff"/><path d="M31.32,56.17a1.88,1.88,0,0,0-1.86,2,1.81,1.81,0,0,0,1.8,2,1.86,1.86,0,0,0,1.88-2.07A1.8,1.8,0,0,0,31.32,56.17Zm0,3.48c-.68,0-1.08-.64-1.08-1.44s.37-1.47,1.08-1.47,1.08.7,1.08,1.44S32,59.65,31.3,59.65Z" style="fill:#fff"/><path d="M35.67,59.56V56.23H35v3.93h2.33v-.6Z" style="fill:#fff"/><path d="M38.16,56.14a.38.38,0,0,0-.4.39.38.38,0,0,0,.39.38.38.38,0,0,0,.41-.38A.39.39,0,0,0,38.16,56.14Zm-.36,1.18v2.84h.72V57.32Z" style="fill:#fff"/><path d="M41.26,57.32l0,.38h0a.87.87,0,0,0-.81-.44,1.35,1.35,0,0,0-1.29,1.49,1.26,1.26,0,0,0,1.2,1.39,1,1,0,0,0,.83-.42h0V60a.76.76,0,0,1-.81.86,1.65,1.65,0,0,1-.83-.22l-.16.54a2,2,0,0,0,1,.23,1.36,1.36,0,0,0,1.52-1.63V58.13c0-.38,0-.62,0-.81Zm-.12,1.59a1,1,0,0,1,0,.26.6.6,0,0,1-.58.43c-.45,0-.69-.39-.69-.87s.29-.92.69-.92a.59.59,0,0,1,.59.45,1.23,1.23,0,0,1,0,.2Z" style="fill:#fff"/><path d="M44.2,57.26a1.11,1.11,0,0,0-.49.12.93.93,0,0,0-.35.33h0V56h-.72v4.14h.72v-1.7a.66.66,0,0,1,0-.21.6.6,0,0,1,.56-.41c.39,0,.54.31.54.73v1.59h.72V58.48C45.19,57.58,44.69,57.26,44.2,57.26Z" style="fill:#fff"/><path d="M47.42,57.86v-.54h-.68v-.73l-.7.21v.52h-.4v.54H46v1.33a1.13,1.13,0,0,0,.22.79.84.84,0,0,0,.62.24,1.34,1.34,0,0,0,.52-.08V59.6a1,1,0,0,1-.28,0c-.27,0-.37-.18-.37-.52V57.86Z" style="fill:#fff"/><path d="M48.32,56.14a.39.39,0,0,0-.4.39.41.41,0,0,0,.81,0A.39.39,0,0,0,48.32,56.14ZM48,57.32v2.84h.72V57.32Z" style="fill:#fff"/><path d="M51,57.26a1,1,0,0,0-.9.49h0l0-.43h-.63c0,.24,0,.52,0,.84v2h.72V58.49a.8.8,0,0,1,0-.23.61.61,0,0,1,.56-.42c.39,0,.54.31.54.72v1.6H52V58.47C52,57.58,51.51,57.26,51,57.26Z" style="fill:#fff"/><path d="M54.75,57.32l0,.38h0a.9.9,0,0,0-.82-.44,1.36,1.36,0,0,0-1.29,1.49,1.26,1.26,0,0,0,1.21,1.39,1,1,0,0,0,.82-.42h0V60a.76.76,0,0,1-.82.86A1.68,1.68,0,0,1,53,60.6l-.15.54a2,2,0,0,0,1,.23A1.65,1.65,0,0,0,54.93,61a1.67,1.67,0,0,0,.42-1.29V58.13c0-.38,0-.62,0-.81Zm-.12,1.59a1,1,0,0,1,0,.26.6.6,0,0,1-.58.43c-.45,0-.69-.39-.69-.87s.29-.92.7-.92a.59.59,0,0,1,.58.45,1.23,1.23,0,0,1,0,.2Z" style="fill:#fff"/><path d="M57.68,56.14a.39.39,0,1,0,0,.77.39.39,0,1,0,0-.77Zm-.36,1.18v2.84H58V57.32Z" style="fill:#fff"/><path d="M60.37,57.26a1,1,0,0,0-.9.49h0l0-.43h-.62c0,.24,0,.52,0,.84v2h.72V58.49a.8.8,0,0,1,0-.23.59.59,0,0,1,.56-.42c.39,0,.54.31.54.72v1.6h.72V58.47C61.38,57.58,60.86,57.26,60.37,57.26Z" style="fill:#fff"/><path d="M64.75,59.36V56H64v1.61h0a.9.9,0,0,0-.79-.37A1.34,1.34,0,0,0,62,58.77a1.3,1.3,0,0,0,1.21,1.45,1,1,0,0,0,.92-.51h0l0,.45h.63C64.76,60,64.75,59.65,64.75,59.36ZM64,58.93a.76.76,0,0,1,0,.21.63.63,0,0,1-.62.5c-.45,0-.7-.38-.7-.89s.25-.94.71-.94a.63.63,0,0,1,.62.5,1.23,1.23,0,0,1,0,.19Z" style="fill:#fff"/><path d="M68.05,59.31v-2h-.71V59a.72.72,0,0,1,0,.22.6.6,0,0,1-.55.39c-.38,0-.53-.3-.53-.78V57.32h-.71V59c0,.92.47,1.23,1,1.23a1,1,0,0,0,.91-.5h0l0,.44h.63C68.07,59.92,68.05,59.64,68.05,59.31Z" style="fill:#fff"/><path d="M69.91,58.46c-.36-.13-.49-.21-.49-.4s.14-.29.39-.29a1.27,1.27,0,0,1,.6.16l.14-.5a1.6,1.6,0,0,0-.75-.17,1,1,0,0,0-1.07.89c0,.33.23.63.78.82.35.13.46.22.46.42s-.13.31-.45.31a1.64,1.64,0,0,1-.73-.2l-.14.51a1.8,1.8,0,0,0,.87.21c.75,0,1.15-.38,1.15-.89S70.42,58.65,69.91,58.46Z" style="fill:#fff"/><path d="M72.75,57.86v-.54h-.68v-.73l-.69.21v.52H71v.54h.41v1.33a1.13,1.13,0,0,0,.22.79.8.8,0,0,0,.62.24,1.29,1.29,0,0,0,.51-.08V59.6a1,1,0,0,1-.28,0c-.27,0-.37-.18-.37-.52V57.86Z" style="fill:#fff"/><path d="M74.72,57.26a.84.84,0,0,0-.78.6h0l0-.54h-.63c0,.26,0,.53,0,.91v1.93H74V58.69a1.3,1.3,0,0,1,0-.22.62.62,0,0,1,.64-.54l.2,0v-.67A.39.39,0,0,0,74.72,57.26Z" style="fill:#fff"/><path d="M77.23,57.32l-.45,1.52c0,.18-.1.39-.15.55h0c0-.16-.1-.38-.16-.55l-.51-1.52h-.78l1,2.6a.25.25,0,0,1,0,.14.24.24,0,0,1,0,.13,1.35,1.35,0,0,1-.39.45,1.43,1.43,0,0,1-.42.2l.16.6a1.43,1.43,0,0,0,.75-.37,4.2,4.2,0,0,0,1-1.82L78,57.32Z" style="fill:#fff"/></svg>