<svg id="Layer_1" data-name="Layer 1" xmlns="http://www.w3.org/2000/svg" viewBox="0 0 93.45 93.45"><title>customer</title><path d="M60.37,63.78a.53.53,0,0,0-.44,0c-.62.33-1.23.69-2,1.13.86.51,1.57.95,2.31,1.36.42.25.51.42,0,.7-4.35,2.5-8.68,5-13,7.51a1.31,1.31,0,0,1-1.06,0c-2.1-1.13-4.18-2.31-6.27-3.48-5.76-3.24-11.52-6.5-17.3-9.73a1.32,1.32,0,0,1-.79-1.3q0-13.15,0-26.31A1.64,1.64,0,0,1,22.74,32c1.23-.72,2.45-1.46,3.66-2.21.25-.15.47-.33.79-.56l-1.44-1a1,1,0,0,0-1.21,0c-1.35.84-2.71,1.65-4.07,2.46a7.28,7.28,0,0,1-.8.37V62.18c1.21.66,2.43,1.3,3.63,2q7.64,4.23,15.25,8.48Q42.3,74.75,46,76.91a1.17,1.17,0,0,0,1.34,0c4.92-2.84,9.84-5.65,14.77-8.48,1-.57,2-1.17,2.94-1.76-.06-.11-.08-.19-.13-.22C63.43,65.56,61.91,64.66,60.37,63.78Z" style="fill:#f8fcfe"/><path d="M73.12,31c-2.79-1.56-5.56-3.16-8.34-4.73-5.57-3.13-11.16-6.23-16.71-9.4-1-.54-1.74-.81-2.6,0a2.43,2.43,0,0,1-.47.28c-3.12,1.67-6.25,3.32-9.36,5-2.4,1.31-4.78,2.66-7.17,4a3.08,3.08,0,0,0-.35.29l7.62,4.64c-.23.17-.33.27-.44.34-2.12,1.25-4.23,2.51-6.37,3.73a1.14,1.14,0,0,0-.68,1.13c0,3.78,0,7.56,0,11.33,0,.24,0,.48.05.77.17,0,.26-.05.34-.08,2.89-1.56,5.8-3.09,8.66-4.71a1.82,1.82,0,0,1,2.13,0c4.73,2.93,9.5,5.81,14.24,8.72a1.37,1.37,0,0,0,1.58,0c2.31-1.28,4.65-2.53,7-3.78.6-.32.71-.24.71.44,0,2.1,0,4.19,0,6.29a1.21,1.21,0,0,1-.69,1.16q-7.35,4.11-14.67,8.25a1.61,1.61,0,0,1-1.76,0c-.43-.26-.85-.56-1.29-.81L32.47,57a4.21,4.21,0,0,1-.55-.43c.3-.18.49-.31.69-.42,1.52-.84,3.07-1.67,4.58-2.54a1.19,1.19,0,0,1,1.4,0c1,.63,2.1,1.23,3.15,1.85,2.52,1.48,5,3,7.56,4.42a1.73,1.73,0,0,0,1.14.29,10.27,10.27,0,0,0,1.76-1,3.44,3.44,0,0,0-.28-.25c-4.43-2.62-8.86-5.25-13.31-7.84a1.4,1.4,0,0,0-1.15,0c-3.19,1.69-6.36,3.42-9.53,5.14-.19.11-.36.24-.65.42.34.24.57.42.82.56l9,5.09Q41.58,64.8,46,67.37a1.07,1.07,0,0,0,1.26,0c.69-.42,1.42-.77,2.12-1.16q7.4-4.16,14.8-8.29a1.62,1.62,0,0,0,1-1.59c0-3.62,0-7.23,0-10.85,0-.22,0-.43,0-.7a1.61,1.61,0,0,0-.41.1c-3,1.61-6,3.19-9,4.85a1.84,1.84,0,0,1-2.1,0c-4.82-3-9.67-6-14.5-9a1.19,1.19,0,0,0-1.35,0c-2.2,1.25-4.42,2.48-6.63,3.7a4.73,4.73,0,0,1-.58.22,2.48,2.48,0,0,1-.09-.39c0-2.28,0-4.56,0-6.84a1.62,1.62,0,0,1,.75-1.12c2.07-1.23,4.18-2.42,6.3-3.56a1.34,1.34,0,0,1,1.14,0Q46.5,37.35,54.29,42a1.67,1.67,0,0,0,1.92,0c3-1.81,6.06-3.58,9.09-5.37.25-.14.49-.3.79-.5a3.48,3.48,0,0,0-.33-.24l-7.83-4.52q-5.19-3-10.37-6a1.56,1.56,0,0,0-1.74,0c-2.39,1.39-4.8,2.73-7.19,4.1a1,1,0,0,1-1.15,0c-1.32-.82-2.68-1.61-4-2.42-.28-.17-.54-.38-.9-.63.3-.19.48-.32.67-.42,4.08-2.23,8.18-4.42,12.22-6.7a2.23,2.23,0,0,1,2.56,0c7.58,4.35,15.19,8.63,22.81,12.91a1.35,1.35,0,0,1,.79,1.36c0,8.26,0,16.53,0,24.8,0,2.58.43,2.24-2.13,3.66-1,.59-2.06,1.26-3.1,1.9,1,1.19,1.84,1.34,3,.63s2.46-1.53,3.72-2.24a1.1,1.1,0,0,0,.64-1.14q0-14.55,0-29.08A1.13,1.13,0,0,0,73.12,31ZM42,30.19c1.34-.8,2.69-1.58,4-2.4a1.25,1.25,0,0,1,1.46,0c4.48,2.61,9,5.19,13.49,7.78l.77.5a3.51,3.51,0,0,1-.5.43c-1.83,1.1-3.65,2.22-5.51,3.26a1.35,1.35,0,0,1-1.14-.08c-2.69-1.56-5.34-3.17-8-4.76l-5.33-3.19a9.76,9.76,0,0,1-.8-.56Z" style="fill:#f8fcfe"/></svg>