<svg id="Layer_1" data-name="Layer 1" xmlns="http://www.w3.org/2000/svg" viewBox="0 0 93.45 93.45"><title>customer</title><path d="M46.13,53A22.55,22.55,0,0,1,36.9,51.9,12.23,12.23,0,0,1,35,51c-4-2.26-5-6.07-2.33-9.77,3.8-5.27,9-8.21,15.63-7.81,5.17.32,8.29,4.38,8,9.57a26.61,26.61,0,0,1-.88,4.31c1.92-.44,3.06-1.72,4.19-3a23.55,23.55,0,0,0,3-4.31c.35-.63.68-1.34,1.58-.92s.4,1.06.23,1.61a14.56,14.56,0,0,1-9.28,10,4.61,4.61,0,0,0-2.24,1.67,32.17,32.17,0,0,1-9.13,8c-3.2,2-6.55,3.73-9.81,5.62-.78.45-1.14.41-1.28-.57a17.68,17.68,0,0,0-.61-3c-.32-1-.08-1.52,1-1.89a36.62,36.62,0,0,0,11.57-6.3C45.13,54,45.63,53.49,46.13,53Zm-1.42-2.89a25.74,25.74,0,0,0,5.17-.6A2.87,2.87,0,0,0,51,49.13c2-1.73,2.21-4,1.81-6.38A4.57,4.57,0,0,0,49,38.6a18.88,18.88,0,0,0-11.43,1.33A8,8,0,0,0,35,41.53a3.29,3.29,0,0,0-.79,4.38,5.49,5.49,0,0,0,1.89,2.14C38.66,49.8,41.58,50,44.71,50.15Z" style="fill:#fefefe"/><path d="M35.11,26.54c.39,9-3.49,17-10.46,23.66L22,52.74a2.66,2.66,0,0,1-2.79.6c-1.64-.49-1.87-1.6-.61-2.72A48.77,48.77,0,0,0,29.86,37c2.84-5.37,3.25-11.08,2.46-17-.09-.69-.22-1.38-.28-2.08s.26-1.29,1.08-1.35a1.11,1.11,0,0,1,1.33,1.1A66,66,0,0,1,35.11,26.54Z" style="fill:#fefefe"/><path d="M57.43,55.91A3.16,3.16,0,0,1,59.08,53a33.66,33.66,0,0,0,3.79-2.35,12.7,12.7,0,0,0,5.18-8c.1-.47.2-.94.31-1.41a1.14,1.14,0,0,1,1.44-1c.78.16.68.8.59,1.37a21.89,21.89,0,0,1-6,12.07A29.79,29.79,0,0,1,60.2,57.2c-.59.42-1.12.9-1.87.59S57.53,56.61,57.43,55.91Z" style="fill:#fefefe"/><path d="M59,65.28c-8.18-.59-15.18,2.23-21.37,7.37-1.45,1.21-2.87,2.44-4.32,3.65-1,.83-1.67.67-2-.59a4.81,4.81,0,0,1,1.42-5.16c6.21-5.19,13.06-9,21.41-9.2a27.16,27.16,0,0,1,7.29.77,1.69,1.69,0,0,1,1.48,2,1.32,1.32,0,0,1-1.56,1.35Z" style="fill:#fefefe"/><path d="M71.85,33.92a5.78,5.78,0,0,0-3,.7,32.23,32.23,0,0,1-8.31,2.23,5.87,5.87,0,0,1-2.08-.14,1.54,1.54,0,0,1-1.28-1.85c.11-1,.81-1.12,1.64-1.07a9.93,9.93,0,0,0,4.63-.73c.64-.27.75-.51.18-1a5,5,0,0,1-1.32-1.77c-1.19-2.49-.7-4.4,1.61-5.88a19,19,0,0,1,10.05-3c1.83,0,3.75.11,4.63,2.06s.2,3.95-1.15,5.6a20.7,20.7,0,0,1-1.78,1.72,23.26,23.26,0,0,1,1.71,1.73,5.38,5.38,0,0,1,0,6.91,1.8,1.8,0,0,1-1.6.73c-.87-.05-1.47-.33-1-1.41a5.89,5.89,0,0,0,.39-1.38C75.57,34.78,74.73,33.81,71.85,33.92Zm-2.5-4.29c2.29,0,4-.72,4.91-2,.37-.49.76-1,.5-1.68s-.93-.75-1.54-.75a17.35,17.35,0,0,0-8,2.11c-.75.39-.6.71,0,1.05A9.34,9.34,0,0,0,69.35,29.63Z" style="fill:#fefefe"/><g style="opacity:0.6"><path d="M79.86,29c-.61.86-1.89,1.32-2.13,2.2-.29,1.06,1.28,1.38,1.79,2.3a5.59,5.59,0,0,1-.36,6.5c-.72.92-3.87,1.23-4.77.48A1.29,1.29,0,0,1,74,38.81a6,6,0,0,0,.43-2.57c0-1.57-.8-2.15-2.32-1.67-1.28.42-2.52,1-3.8,1.44a25.61,25.61,0,0,1-9.55,1.4,2.17,2.17,0,0,1-2.31-2.17,1.75,1.75,0,0,1,1.95-2.07,13.79,13.79,0,0,0,3.39-.27c.78-.18,1-.57.52-1.31a7.61,7.61,0,0,1-.83-1.47c-1.06-2.56-.43-4.58,1.88-6.14.76-.5,1.55-1,2.33-1.44-.39-.51-1-.51-1.53-.65A73.82,73.82,0,0,0,48.47,20a61.9,61.9,0,0,0-11.78.7c.07,3.44.52,6.88,0,10.33a13.74,13.74,0,0,1-.92,4.19A1.68,1.68,0,0,0,36,36.65a30.3,30.3,0,0,1,5.46-2.87c2.72-.92,5.52-1.67,8.36-.79,3.61,1.12,6.5,3.18,7.89,6.9a10.34,10.34,0,0,1,.36,3.5c0,.37-.27.9.17,1.08s.71-.39,1-.7a22.58,22.58,0,0,0,2.53-3.67c1.11-2,3.23-2.15,4.54-.24a1.27,1.27,0,0,1,0,1.14c-1.39,4.79-4.23,8.37-9,10.1-1.83.67-2.67,2.14-3.84,3.39-.36.38-.17.69.32.64,1.35-.14,2.94.34,3.62-1.56.34-1,1.46-1.23,2.28-1.68,4.29-2.31,7.23-5.61,7.94-10.59a1.84,1.84,0,0,1,1.42-1.71c.86-.2,1.36.44,2,.77,1.88.93,1.05,2.26.8,3.47a21,21,0,0,1-3.38,7.51,1.35,1.35,0,0,0-.13,1.53c1.55-.19,2.79-1.12,4.15-1.74A28.42,28.42,0,0,0,82,44.71C87.16,39.11,85.21,32.84,79.86,29Z" style="fill:#fefefe"/><path d="M31.8,22.28c-.06-.59-.17-1.13-1.05-.88-2.41.71-4.93,1.06-7.21,2.2a41.54,41.54,0,0,0-8,3.75C7.05,32.22,7.77,38.13,9.58,41.76s4.91,5.74,8.32,7.55c.69.36,1.14-.05,1.61-.49a49.5,49.5,0,0,0,9.12-11A25.11,25.11,0,0,0,31.8,22.28Z" style="fill:#fefefe"/><path d="M43,53.68a27.19,27.19,0,0,1-3-.28c-4-.78-7.66-2.08-9.22-6.38-.27-.75-.53-.26-.82,0-1.52,1.26-2.57,3-4,4.28-.8.73-.65,1.16.38,1.46a72.67,72.67,0,0,0,15.06,2.56,2.12,2.12,0,0,0,1.92-.78c.15-.14.35-.36.33-.53C43.56,53.67,43.22,53.7,43,53.68Z" style="fill:#fefefe"/><path d="M49.86,39.55c-3.75-1.61-10.84,0-13.58,3a3.57,3.57,0,0,0,1,5.44,16.15,16.15,0,0,0,7.39,1.51,28.09,28.09,0,0,0,4.58-.45,3,3,0,0,0,2.2-1.48,7.24,7.24,0,0,0-.25-7A3.37,3.37,0,0,0,49.86,39.55Z" style="fill:#fefefe"/><path d="M67.27,28.57a6.23,6.23,0,0,0,2.3.44,5.06,5.06,0,0,0,4.17-1.75c.26-.31.52-.64.3-1.06s-.6-.35-.94-.3a22.09,22.09,0,0,0-5.88,1.84C66.65,28,66.61,28.32,67.27,28.57Z" style="fill:#fefefe"/></g></svg>