<svg id="Layer_1" data-name="Layer 1" xmlns="http://www.w3.org/2000/svg" viewBox="0 0 93.45 93.45"><title>customer</title><path d="M53.84,44.49a3.15,3.15,0,0,1,.29.25A29.36,29.36,0,0,1,46.91,47a1.13,1.13,0,0,1-.26,0,25.27,25.27,0,0,1-8.5-3.13,9.13,9.13,0,0,1-4-6.78,37,37,0,0,1-.33-4.7c0-.41-.19-.77-.16-1.17s0-.68.53-.33Q44,37.71,53.84,44.49Z" style="fill:#f8fcfe"/><path d="M51.23,63.92c-.64-.2-.63-.64-.48-1.17a.78.78,0,0,0,.08-.68,3.86,3.86,0,0,1-1.78,2c-.21.1-.61.06-.54.45a1,1,0,0,0,.66.7,2.37,2.37,0,0,0,2.21-.76C51.57,64.2,51.55,64,51.23,63.92Zm0,0c-.64-.2-.63-.64-.48-1.17a.78.78,0,0,0,.08-.68,3.86,3.86,0,0,1-1.78,2c-.21.1-.61.06-.54.45a1,1,0,0,0,.66.7,2.37,2.37,0,0,0,2.21-.76C51.57,64.2,51.55,64,51.23,63.92Zm0,0c-.64-.2-.63-.64-.48-1.17a.78.78,0,0,0,.08-.68,3.86,3.86,0,0,1-1.78,2c-.21.1-.61.06-.54.45a1,1,0,0,0,.66.7,2.37,2.37,0,0,0,2.21-.76C51.57,64.2,51.55,64,51.23,63.92Zm0,0c-.64-.2-.63-.64-.48-1.17a.78.78,0,0,0,.08-.68,3.86,3.86,0,0,1-1.78,2c-.21.1-.61.06-.54.45a1,1,0,0,0,.66.7,2.37,2.37,0,0,0,2.21-.76C51.57,64.2,51.55,64,51.23,63.92Zm0,0c-.64-.2-.63-.64-.48-1.17a.78.78,0,0,0,.08-.68,3.86,3.86,0,0,1-1.78,2c-.21.1-.61.06-.54.45a1,1,0,0,0,.66.7,2.37,2.37,0,0,0,2.21-.76C51.57,64.2,51.55,64,51.23,63.92Zm0,0c-.64-.2-.63-.64-.48-1.17a.78.78,0,0,0,.08-.68,3.86,3.86,0,0,1-1.78,2c-.21.1-.61.06-.54.45a1,1,0,0,0,.66.7,2.37,2.37,0,0,0,2.21-.76C51.57,64.2,51.55,64,51.23,63.92Zm0,0c-.64-.2-.63-.64-.48-1.17a.78.78,0,0,0,.08-.68,3.86,3.86,0,0,1-1.78,2c-.21.1-.61.06-.54.45a1,1,0,0,0,.66.7,2.37,2.37,0,0,0,2.21-.76C51.57,64.2,51.55,64,51.23,63.92Zm0,0c-.64-.2-.63-.64-.48-1.17a.78.78,0,0,0,.08-.68,3.86,3.86,0,0,1-1.78,2c-.21.1-.61.06-.54.45a1,1,0,0,0,.66.7,2.37,2.37,0,0,0,2.21-.76C51.57,64.2,51.55,64,51.23,63.92Zm0,0c-.64-.2-.63-.64-.48-1.17a.78.78,0,0,0,.08-.68,3.86,3.86,0,0,1-1.78,2c-.21.1-.61.06-.54.45a1,1,0,0,0,.66.7,2.37,2.37,0,0,0,2.21-.76C51.57,64.2,51.55,64,51.23,63.92Zm0,0c-.64-.2-.63-.64-.48-1.17a.78.78,0,0,0,.08-.68,3.86,3.86,0,0,1-1.78,2c-.21.1-.61.06-.54.45a1,1,0,0,0,.66.7,2.37,2.37,0,0,0,2.21-.76C51.57,64.2,51.55,64,51.23,63.92Zm0,0c-.64-.2-.63-.64-.48-1.17a.78.78,0,0,0,.08-.68,3.86,3.86,0,0,1-1.78,2c-.21.1-.61.06-.54.45a1,1,0,0,0,.66.7,2.37,2.37,0,0,0,2.21-.76C51.57,64.2,51.55,64,51.23,63.92Zm0,0c-.64-.2-.63-.64-.48-1.17a.78.78,0,0,0,.08-.68,3.86,3.86,0,0,1-1.78,2c-.21.1-.61.06-.54.45a1,1,0,0,0,.66.7,2.37,2.37,0,0,0,2.21-.76C51.57,64.2,51.55,64,51.23,63.92Zm0,0c-.64-.2-.63-.64-.48-1.17a.78.78,0,0,0,.08-.68,3.86,3.86,0,0,1-1.78,2c-.21.1-.61.06-.54.45a1,1,0,0,0,.66.7,2.37,2.37,0,0,0,2.21-.76C51.57,64.2,51.55,64,51.23,63.92Zm0,0c-.64-.2-.63-.64-.48-1.17a.78.78,0,0,0,.08-.68,3.86,3.86,0,0,1-1.78,2c-.21.1-.61.06-.54.45a1,1,0,0,0,.66.7,2.37,2.37,0,0,0,2.21-.76C51.57,64.2,51.55,64,51.23,63.92Zm0,0c-.64-.2-.63-.64-.48-1.17a.78.78,0,0,0,.08-.68,3.86,3.86,0,0,1-1.78,2c-.21.1-.61.06-.54.45a1,1,0,0,0,.66.7,2.37,2.37,0,0,0,2.21-.76C51.57,64.2,51.55,64,51.23,63.92Zm0,0c-.64-.2-.63-.64-.48-1.17a.78.78,0,0,0,.08-.68,3.86,3.86,0,0,1-1.78,2c-.21.1-.61.06-.54.45a1,1,0,0,0,.66.7,2.37,2.37,0,0,0,2.21-.76C51.57,64.2,51.55,64,51.23,63.92Zm0,0c-.64-.2-.63-.64-.48-1.17a.78.78,0,0,0,.08-.68,3.86,3.86,0,0,1-1.78,2c-.21.1-.61.06-.54.45a1,1,0,0,0,.66.7,2.37,2.37,0,0,0,2.21-.76C51.57,64.2,51.55,64,51.23,63.92Zm0,0c-.64-.2-.63-.64-.48-1.17a.78.78,0,0,0,.08-.68,3.86,3.86,0,0,1-1.78,2c-.21.1-.61.06-.54.45a1,1,0,0,0,.66.7,2.37,2.37,0,0,0,2.21-.76C51.57,64.2,51.55,64,51.23,63.92Zm0,0c-.64-.2-.63-.64-.48-1.17a.78.78,0,0,0,.08-.68,3.86,3.86,0,0,1-1.78,2c-.21.1-.61.06-.54.45a1,1,0,0,0,.66.7,2.37,2.37,0,0,0,2.21-.76C51.57,64.2,51.55,64,51.23,63.92Zm0,0c-.64-.2-.63-.64-.48-1.17a.78.78,0,0,0,.08-.68,3.86,3.86,0,0,1-1.78,2c-.21.1-.61.06-.54.45a1,1,0,0,0,.66.7,2.37,2.37,0,0,0,2.21-.76C51.57,64.2,51.55,64,51.23,63.92Zm0,0c-.64-.2-.63-.64-.48-1.17a.78.78,0,0,0,.08-.68,3.86,3.86,0,0,1-1.78,2c-.21.1-.61.06-.54.45a1,1,0,0,0,.66.7,2.37,2.37,0,0,0,2.21-.76C51.57,64.2,51.55,64,51.23,63.92Zm0,0c-.64-.2-.63-.64-.48-1.17a.78.78,0,0,0,.08-.68,3.86,3.86,0,0,1-1.78,2c-.21.1-.61.06-.54.45a1,1,0,0,0,.66.7,2.37,2.37,0,0,0,2.21-.76C51.57,64.2,51.55,64,51.23,63.92Zm0,0c-.64-.2-.63-.64-.48-1.17a.78.78,0,0,0,.08-.68,3.86,3.86,0,0,1-1.78,2c-.21.1-.61.06-.54.45a1,1,0,0,0,.66.7,2.37,2.37,0,0,0,2.21-.76C51.57,64.2,51.55,64,51.23,63.92Z" style="fill:#f8fcfe"/><path d="M46.72,17.09A29.64,29.64,0,1,0,76.35,46.72,29.67,29.67,0,0,0,46.72,17.09ZM49,29.73a2.78,2.78,0,0,0,.2,2,2.09,2.09,0,0,1,.25,1.88c-.19,0-.19-.12-.18-.22a2.16,2.16,0,0,0-.37-1.56A1.78,1.78,0,0,1,49,29.73Zm-2.72-4.2a9.55,9.55,0,0,1,.9-1.77,6.53,6.53,0,0,1-.46,1.82,4,4,0,0,0,.39,3.84,3.71,3.71,0,0,1,.5,2.87,5.74,5.74,0,0,1-.69,2c.07-.61.13-1.21.22-1.81a3.43,3.43,0,0,0-.51-2.61A4.06,4.06,0,0,1,46.25,25.53Zm-1.4,3.7c.16.29,0,.45-.06.63a2.1,2.1,0,0,0,.18,1.9,2,2,0,0,1,0,2.16,3.69,3.69,0,0,0-.53-2.48A2.35,2.35,0,0,1,44.85,29.23ZM29.24,63.36c.07-.33.35-.46.57-.61a4.77,4.77,0,0,0,2.05-4.17c0-.45-.08-.61-.56-.43a6.59,6.59,0,0,1-2.61.37,2.43,2.43,0,0,1-2.53-2.75,6.81,6.81,0,0,1,.89-2.89.23.23,0,0,1,.29-.17,5.32,5.32,0,0,0-.6,2.13A1.66,1.66,0,0,0,28,56.54a6.61,6.61,0,0,0,3.79,0c.27-.07.33-.31.39-.56a3,3,0,0,1,.76-1.5c0,.38-.06.77-.1,1.14s.1.51.48.31a17,17,0,0,0,2.31-1.56,12,12,0,0,1,2-1.27c.22-.1.49-.25.68-.06s.07.5,0,.74a1.65,1.65,0,0,1-1,1,12.13,12.13,0,0,0-2.46,1.55c-.56.37-1.11.74-1.69,1.06a1.33,1.33,0,0,0-.67,1.24,7.76,7.76,0,0,1-1.5,4.2A1.68,1.68,0,0,1,29.24,63.36Zm2-11.53.53-.75c.18-.26.42-.37.68-.15.55.45.9.19,1.2-.3.15-.24.32-.45.64-.29a.71.71,0,0,1,.5.7,1.26,1.26,0,0,1-1.63,1.11c-.36-.15-.52,0-.71.26s-.33.54-.72.49C30.94,52.8,30.81,52.52,31.27,51.83Zm1.8,12.79a2.25,2.25,0,0,1-.56.22c-.17,0-.37.1-.48-.09s0-.3.15-.41.52-.48.79-.7.56-.44.82-.67c.93-.85.94-1.5,0-2.32-.27-.23-.35-.4-.18-.7s.43-.83.63-1.24.57-.45.89-.06a2.45,2.45,0,0,1,.48,1.56A5.63,5.63,0,0,1,33.07,64.62Zm9.33-2.18a4.93,4.93,0,0,1-2.21,1.14c-.48.05-.72.56-1,.9a1.77,1.77,0,0,1-1.95.68,1.53,1.53,0,0,1-1.1-1.22,8.59,8.59,0,0,1,1-5.07.28.28,0,0,1,.32-.17,8.12,8.12,0,0,1-.24,1.63c0,.38-.13.75-.14,1.12A1.42,1.42,0,0,0,38.92,63a3.36,3.36,0,0,0,1.18-.59,2,2,0,0,1,1.39-.52.46.46,0,0,0,.37-.11c.43-.58,1.32-.73,1.47-1.58,0-.07.09-.14.26-.35A2.63,2.63,0,0,1,42.4,62.44Zm18.87-1.27c-1.58,2-3.28,3.78-5,5.58a11.31,11.31,0,0,1-8.11,3.35,6.33,6.33,0,0,1-2.69-.45c-.28-.12-.65-.25-.63-.6s.47-.34.76-.36A28.71,28.71,0,0,0,50,68.3a15.41,15.41,0,0,0,8.55-5.13A55.76,55.76,0,0,1,63.33,58a2.52,2.52,0,0,1,.25-.21c.28-.15.58-.65.87-.26s0,.83-.35,1.1-.67.35-1,.57A9.7,9.7,0,0,0,61.27,61.17ZM50.8,60.81c.08-1,.13-1.93.21-2.91a3.46,3.46,0,0,1,.53-1.54A37.36,37.36,0,0,1,51,61.82a7.62,7.62,0,0,1,1.49-1.51c.23-.14.46-.37.78-.27a.22.22,0,0,1,.11.29c-.11.33-.24.7-.65.77a2,2,0,0,0-1.13.64c-.33.36-.46.72.15,1a.54.54,0,0,1,.32.7,4.12,4.12,0,0,1-2.1,3,1.32,1.32,0,0,1-2.11-1.29c0-.56-.13-.69-.68-.54a2.51,2.51,0,0,1-1.43-.15c-.68-.23-.81-.84-.41-1.93.53.84,1.34.7,2.14.73,1.1.06,1-1,1.64-1.59,0,.51-.4.8-.47,1.26C50.11,62.71,50.66,62.17,50.8,60.81Zm6.39-9a28.31,28.31,0,0,0,2.4-1.71,3.31,3.31,0,0,1-1.43,1.67c-2.1,1.4-4.21,2.77-6.33,4.14a2.38,2.38,0,0,1,.93-1.16C54.16,53.7,55.71,52.82,57.19,51.86Zm-1.38.22s.07-.09.1-.13c1-.64,1.91-1.29,2.87-2A6.61,6.61,0,0,1,56,52.07C55.94,52.12,55.87,52.17,55.81,52.08Zm-1.2,10.23A1.32,1.32,0,0,1,55,61a.37.37,0,0,1,.24.07,1.27,1.27,0,0,1,.21.25c.61,1.07-.56,3.23-1.91,3.33a3.07,3.07,0,0,1,1-1C55,63.17,55.07,62.88,54.61,62.31Zm9.49.24a5,5,0,0,1,.53-2.95l.17,0c-.07.42-.16.85-.21,1.29a.92.92,0,0,0,.32,1c.34.24.65.11,1-.18a1.7,1.7,0,0,1-.73,1.44A.74.74,0,0,1,64.1,62.55Zm1.52,4c-.17.24-.37.5-.69.26s0-.42.09-.62.15-.21.12-.35C65.82,66,65.92,66.14,65.62,66.55Zm.71-1.49c-.18.21-.29.59-.71.41s-.46.06-.49.36c-.26-.06-.75.08-.67-.34.06-.27.22-.91.85-.61a.3.3,0,0,0,.36,0c.16-.15.24-.48.56-.23A.3.3,0,0,1,66.33,65.06ZM67.77,32.4c-.53.08-1.06.14-1.59.17s-.69.23-.69.78a13.61,13.61,0,0,1-1.39,6.36,14.34,14.34,0,0,1-7.19,6.44c-1.22.56-2.52.9-3.77,1.47,1.75.1,3.51.2,5.29.32-.08.32-.29.27-.44.3a22,22,0,0,1-4.35.43c-2.14,0-4.26-.06-6.39-.07s-4,.22-6,.18a35.34,35.34,0,0,1-4.83-.38,3.47,3.47,0,0,1-1.09-.35,36.07,36.07,0,0,1,5.44-.49c-.24-.29-.57-.27-.85-.36a20.4,20.4,0,0,1-6.31-3.06,12.55,12.55,0,0,1-5.19-10.56c0-1,0-.95-1-1.06-.59-.07-1.18-.16-1.77-.28-.41-.1-.55-.35-.27-.73s1-.16,1.43-.47c1.28-.1,2.56-.22,3.84-.29,1-.05,2,0,2.93,0a1.77,1.77,0,0,1,0-.2l-3.14-2.15a.32.32,0,0,0-.51.08c-.14.16-.31.32-.43.49-.3.46-.61.5-1,.09.26-.56.8-.88,1.1-1.39l.48-.55.46-.53c.26-.12.31-.53.69-.52.37.29.43.57,0,.88a3.49,3.49,0,0,0-.32.35c-.3.26-.31.43.06.69q11.7,8,23.37,16.1a.68.68,0,0,0,.88,0A9.12,9.12,0,0,0,59.7,37,49.21,49.21,0,0,0,60,31.3c0-.48.13-.66.63-.63,2,.1,4,.17,6,.25l.91.18c.12,0,.25.07.38.13.32.14.76.22.7.67S68.1,32.33,67.77,32.4Z" style="fill:#f8fcfe"/><path d="M46.72,9.19A37.54,37.54,0,1,0,84.26,46.72,37.53,37.53,0,0,0,46.72,9.19Zm0,69.12A31.58,31.58,0,1,1,78.31,46.72,31.62,31.62,0,0,1,46.72,78.31Z" style="fill:#f8fcfe;opacity:0.5"/></svg>