<svg id="Layer_1" data-name="Layer 1" xmlns="http://www.w3.org/2000/svg" viewBox="0 0 93.45 93.45"><title>customer</title><path d="M56.08,63.49c-.35-.09-.53.19-.62.48-.14.47-.21,1-.35,1.43s.11.83.64.91.64-.27.64-.69v-.74h0c0-.25,0-.49,0-.74S56.39,63.56,56.08,63.49Zm0,0c-.35-.09-.53.19-.62.48-.14.47-.21,1-.35,1.43s.11.83.64.91.64-.27.64-.69v-.74h0c0-.25,0-.49,0-.74S56.39,63.56,56.08,63.49ZM46.72,8.27A38.46,38.46,0,1,0,85.18,46.73,38.46,38.46,0,0,0,46.72,8.27ZM33.46,24.86c3.85-3,8-5.43,12.77-6.48a15.92,15.92,0,0,1,10.44,1.45,9.51,9.51,0,0,1,4.76,5.55,9.75,9.75,0,0,1,.66,2.11C60.36,25.2,57.88,24.37,55.2,24A42.9,42.9,0,0,0,44.7,24c-3.29.31-6.56.84-9.87,1-.47,0-.94,0-1.44,0C33.42,25,33.42,24.89,33.46,24.86ZM49.9,66.27a6.64,6.64,0,0,1-1.41-.09,1.22,1.22,0,0,1-1-1.3,2.87,2.87,0,0,1,3-2.93,6.55,6.55,0,0,1,1.88.31c-.43,1.36-.43,1.36-1.78,1.08-.22-.05-.45-.09-.67-.12s-.37-.11-.46.12,0,.35.18.48a1,1,0,0,0,.6.28c.29,0,.58.06.87.07,1.47,0,1.82.54,1.32,1.94-.77,2.19-3.71,2.39-5,1.64-.25-.15-.34-.32-.18-.6a.55.55,0,0,1,.77-.33,3.3,3.3,0,0,0,1.91.2c.27,0,.63-.11.62-.42S50.17,66.28,49.9,66.27ZM52.2,71a31.48,31.48,0,0,0,1.22-7.77c0-.62.18-1,.85-1a1.61,1.61,0,0,0,.52-.11c.5-.16.87-.22.75.53-.06.34.12.46.42.19l.52-.43c.88-.72,1.73-.42,2,.7.05.2.07.4.1.59a7,7,0,0,1-2.09,4.14.54.54,0,0,1-.79,0c-.55-.38-.7-.33-.93.33-.38,1.06-.77,2.12-1.09,3.19-.25.83-.82.43-1.26.38S52.13,71.27,52.2,71Zm6.42-2.2c.17-.18.3-.23.48,0a1.72,1.72,0,0,0,.37.28c1.2.66,1.58.49,1.76-.83a9.51,9.51,0,0,0,.2-2.64l-1.3,1.71c-.14.17-.26.36-.41.53a.47.47,0,0,1-.6.15c-.25-.11-.28-.32-.25-.56.14-1,.27-2,.4-3.08.21-1.81.21-1.8,1.93-2.26.38-.11.48-.07.38.35-.19.8-.33,1.62-.51,2.53a4.07,4.07,0,0,0,1.31-2c.38-.91.62-1,1.58-.84.37.07.51.23.43.6a57.54,57.54,0,0,1-1.6,6.2,8.33,8.33,0,0,1-1.93,2.65.62.62,0,0,1-.17.11,3.18,3.18,0,0,1-2.39-.81A1.6,1.6,0,0,1,58.62,68.78ZM42.23,53.57c.59-.18,1.06-.29,1.5-.47a37,37,0,0,0,15.49-11,42,42,0,0,1,3.51-3.55c.36-.35.88-.22,1.41-.38C61.12,46.85,50.62,54.25,42.23,53.57Zm1.66,10.32c-.37,0-.32-.22-.22-.45a.79.79,0,0,1,.46-.47l2.38-.89c-.25,1.86-.48,3.68-.75,5.5-.07.49-1.44.93-1.84.62-.23-.17-.16-.4-.12-.62l.54-3C44.41,64.23,44.47,63.86,43.89,63.89Zm1.89-2.65c-.51,0-.88-.49-.88-1.14a1.48,1.48,0,0,1,1.19-1.56c.53,0,.91.44.92,1.1C47,60.46,46.42,61.24,45.78,61.24ZM34.12,53.35A1.53,1.53,0,0,1,32.87,53,6.16,6.16,0,0,1,31,50.69a22.15,22.15,0,0,1-2-6.89c-.08-.51-.11-1-.22-1.54s0-.66.56-.6c2.57.26,5.15.49,7.73.73,4.07.37,8.15.78,12.22,1.11A20.49,20.49,0,0,0,58,42.39a1.36,1.36,0,0,1,.3,0,14.17,14.17,0,0,1-3.06,2.88A40.25,40.25,0,0,1,43.39,51,87.54,87.54,0,0,1,34.12,53.35ZM31,28c.13-.3.39-.26.63-.26,1.89,0,3.78.09,5.66.07,3.77,0,7.55.08,11.32.1a2.85,2.85,0,0,1,1.32.25c.37.19.7.45.66.93a1,1,0,0,1-.76.85,2.64,2.64,0,0,1-.78.16c-6.33.21-12.65.4-19,.38l-.25,0C30.22,29.57,30.62,28.77,31,28Zm-2.26,6.43c.21-.75.19-1.59.71-2.06s1.38-.27,2.14-.25c5.75.09,11.51.13,17.27.36a3.69,3.69,0,0,1,1.19.17c.35.13.67.31.73.72s-.22.71-.55.93a2.72,2.72,0,0,1-1.48.4c-3.23.06-16.23.35-19.49.38C28.72,35,28.59,34.9,28.74,34.39Zm.1,2.66a2.36,2.36,0,0,1,1.73-.32c6,.11,12,0,18,.34a4.64,4.64,0,0,1,1.65.3c.73.31.79.9.16,1.39a2.11,2.11,0,0,1-1.4.39c-3.3,0-16.56.25-19.89.27-.49,0-.7-.1-.64-.63S28.39,37.47,28.84,37.05ZM30,66.7a2.39,2.39,0,0,0,1,1.4,6.28,6.28,0,0,0,2.44,1.1,15.31,15.31,0,0,0,4.31.55c.15,0,.35-.06.44.09s-.13.3-.23.42A4.16,4.16,0,0,1,35.05,72a10.06,10.06,0,0,1-4.16-.16,3.33,3.33,0,0,1-2.61-3.74,11.19,11.19,0,0,1,7.86-9.62,3.85,3.85,0,0,1,1.47-.16,1,1,0,0,1,1,1.19,15.39,15.39,0,0,1-1.22,4c-.1-1.89-1.06-2.76-2.92-2.61A5.37,5.37,0,0,0,30,66.7ZM42.4,64.1c-.25-.25-.47-.18-.68.07a2.54,2.54,0,0,0-.57,1.41c0,.27.07.55.32.61.59.15.38.45.2.77s-.19.35-.27.54a1,1,0,0,1-1.09.71,1.32,1.32,0,0,1-1.18-.95A1.8,1.8,0,0,1,39,66.4c.26-1.33.52-2.65.77-4,.08-.4.25-.46.65-.41.69.1,1.17.27,1,1.11,0,.1,0,.22.22.32.14-.32.27-.63.42-.92a1.26,1.26,0,0,1,.76-.72.73.73,0,0,1,.76.14c.22.21,0,.42,0,.62-.14.43-.27.86-.42,1.28S42.83,64.55,42.4,64.1Zm21.94,7.31-2.73,3.86a8.42,8.42,0,0,0-.64,1c-.17.33-.44.7,0,1s.67,0,1-.17.42-.29.64-.44a3.12,3.12,0,0,1-1.83,1.91c-.69.3-1,.07-.91-.67,0-.23.1-.44.12-.67s.16-.37,0-.61c-.57.48-1.13,1-1.71,1.41-.24.18-.49.48-.83.31s-.34-.56-.38-.89c0-.18,0-.35,0-.64l-1.88,1.4c-.34.25-.69.46-1.08.09s-.09-.66.09-1a12.69,12.69,0,0,0,1-1.6,2.67,2.67,0,0,0-1.1.82c-.42.43-.83.89-1.26,1.32s-.76.42-.92-.26-.32-.47-.65-.2-.87.72-1.32,1.05a.59.59,0,0,1-.8.06.69.69,0,0,1-.15-.86c.12-.31.4-.54.44-1-.58.5-1.06.93-1.56,1.35-.83.69-1.17.57-1.46-.49l-.12-.36c-.28,0-.36.21-.5.34a9.45,9.45,0,0,1-.75.67c-.46.33-1,.69-1.54.32s-.49-1-.37-1.54a9.14,9.14,0,0,1,1-2.58,13.87,13.87,0,0,1,3.5-3.9c.13-.1.27-.29.46-.16s.09.29.06.44a7.56,7.56,0,0,1-1.88,3.44,12.16,12.16,0,0,1-1.37,1.31,2,2,0,0,0-.57.74.9.9,0,0,0,.3,1.14c.44.31.66-.07.9-.31,1.4-1.33,2.7-2.8,4.6-3.47.21-.07.41-.17.63-.24s.56-.24.81,0-.07.49-.06.71a3.35,3.35,0,0,1-1.13,2.2.58.58,0,0,0,0,.75c.18.23.41.15.61,0a2.26,2.26,0,0,0,1.1-1,4.12,4.12,0,0,1,1.66-1.82c.23-.12.53-.31.74,0s-.1.48-.26.66c-.37.42-.77.82-1.14,1.24-.08.09-.22.22-.06.35s.24,0,.33-.12a25,25,0,0,1,2.79-2.35c.28-.2.59-.49.94-.09s.07.71-.2,1c-.45.47-.89,1-1.33,1.43-.18.19-.33.41-.14.66s.45.06.65-.05a4.09,4.09,0,0,0,1.37-1.28c.71-1.16,1.93-1.55,3.1-2,0,0,.1,0,.13,0,1,.59,1.18-.29,1.57-.79.51-.66,1-1.35,1.46-2,.16-.22.33-.5.65-.28S64.52,71.15,64.34,71.41Zm.32-42.73c-.58,0-1.27.18-1.73-.06s-.23-1.05-.34-1.59a12,12,0,0,0-10.32-9.28c-4.94-.68-9.45.65-13.72,3a30.58,30.58,0,0,0-4.35,3c-.16.13-.34.25-.51.38l-.1-.12c.56-.65,1.11-1.32,1.7-1.94a21.83,21.83,0,0,1,11.42-6.94,15.47,15.47,0,0,1,13.82,3.19,13.34,13.34,0,0,1,4.66,9.78C65.22,28.52,65.14,28.72,64.66,28.68ZM57.85,77c-.06.16-.08.31.08.43a.33.33,0,0,0,.43,0,9.92,9.92,0,0,0,2.45-2.43,5.77,5.77,0,0,0-2.47,1.17A1.8,1.8,0,0,0,57.85,77Zm-2.1-10.64c.57.08.64-.27.64-.69v-.74h0c0-.25,0-.49,0-.74s0-.58-.35-.65-.53.19-.62.48c-.14.47-.21,1-.35,1.43S55.22,66.23,55.75,66.31ZM47.23,76.54a.58.58,0,0,0-.06.8c.23.31.5.09.71-.06a14.7,14.7,0,0,0,2.65-2.58A7.16,7.16,0,0,0,47.23,76.54Zm-.11-4.3c.07-.14.17-.31,0-.43a.31.31,0,0,0-.42.11A6.66,6.66,0,0,0,45,74.76,7.94,7.94,0,0,0,47.12,72.24Zm9-8.75c-.35-.09-.53.19-.62.48-.14.47-.21,1-.35,1.43s.11.83.64.91.64-.27.64-.69v-.74h0c0-.25,0-.49,0-.74S56.39,63.56,56.08,63.49Zm0,0c-.35-.09-.53.19-.62.48-.14.47-.21,1-.35,1.43s.11.83.64.91.64-.27.64-.69v-.74h0c0-.25,0-.49,0-.74S56.39,63.56,56.08,63.49Z" style="fill:#f8fcfe"/></svg>