<svg width="40" height="40" viewBox="0 0 40 40" fill="none" xmlns="http://www.w3.org/2000/svg">
<g opacity="0.2">
<path d="M20 3.33325C14.05 3.33325 8.71666 5.89992 5.01666 9.99992L20 36.6666L34.9833 9.99992C31.3 5.91659 25.95 3.33325 20 3.33325ZM11.6667 11.6666C11.6667 9.83325 13.1667 8.33325 15 8.33325C16.8333 8.33325 18.3333 9.83325 18.3333 11.6666C18.3333 13.4999 16.8333 14.9999 15 14.9999C13.1667 14.9999 11.6667 13.4999 11.6667 11.6666ZM20 24.9999C18.1667 24.9999 16.6667 23.4999 16.6667 21.6666C16.6667 19.8333 18.1667 18.3333 20 18.3333C21.8333 18.3333 23.3333 19.8333 23.3333 21.6666C23.3333 23.4999 21.8333 24.9999 20 24.9999Z" fill="#F0F0F0"/>
</g>
</svg>
