<svg width="64" height="64" viewBox="0 0 64 64" fill="none" xmlns="http://www.w3.org/2000/svg">
<path fill-rule="evenodd" clip-rule="evenodd" d="M49.2534 3.1883C46.9484 2.99998 44.0806 2.99999 40.4227 3H24.2437C20.5858 2.99999 17.718 2.99998 15.413 3.1883C13.066 3.38006 11.127 3.77701 9.37202 4.67123C6.48687 6.14129 4.14117 8.48699 2.67111 11.3721C1.77689 13.1272 1.37994 15.0661 1.18818 17.4132C0.999856 19.7181 0.999866 22.5859 0.999878 26.2438V26.4228C0.999866 30.0807 0.999856 32.9486 1.18818 35.2535C1.37994 37.6005 1.77689 39.5395 2.67111 41.2945C4.14117 44.1797 6.48687 46.5254 9.37202 47.9954C11.127 48.8897 13.066 49.2866 15.413 49.4784C17.7179 49.6667 20.5857 49.6667 24.2435 49.6667H30.3332V54.5572C28.6682 54.6737 27.0109 54.9357 25.3805 55.3433L21.1815 56.393C20.1099 56.6609 19.4584 57.7468 19.7263 58.8184C19.9942 59.89 21.08 60.5415 22.1516 60.2736L26.3507 59.2239C28.3146 58.7329 30.3239 58.4874 32.3332 58.4874C34.3425 58.4874 36.3518 58.7329 38.3158 59.2239L42.5148 60.2736C43.5864 60.5415 44.6723 59.89 44.9402 58.8184C45.2081 57.7468 44.5565 56.6609 43.4849 56.393L39.2859 55.3433C37.6555 54.9357 35.9982 54.6737 34.3332 54.5572V49.6667H40.4228C44.0806 49.6667 46.9485 49.6667 49.2534 49.4784C51.6004 49.2866 53.5394 48.8897 55.2944 47.9954C58.1795 46.5254 60.5252 44.1797 61.9953 41.2945C62.8895 39.5395 63.2865 37.6005 63.4782 35.2535C63.6666 32.9486 63.6665 30.0808 63.6665 26.423V26.2438C63.6665 22.586 63.6666 19.7181 63.4782 17.4132C63.2865 15.0661 62.8895 13.1272 61.9953 11.3721C60.5252 8.48699 58.1795 6.14129 55.2944 4.67123C53.5394 3.77701 51.6004 3.38006 49.2534 3.1883ZM48.9277 45.4916C46.8046 45.6651 44.0999 45.6667 40.3332 45.6667H24.3332C20.5665 45.6667 17.8618 45.6651 15.7388 45.4916C13.6391 45.3201 12.2851 44.9904 11.188 44.4314C9.05548 43.3448 7.3217 41.6111 6.23514 39.4786C5.67612 38.3814 5.34644 37.0275 5.17489 34.9278C5.00143 32.8047 4.99988 30.1 4.99988 26.3333C4.99988 22.5666 5.00143 19.8619 5.17489 17.7389C5.34644 15.6392 5.67612 14.2852 6.23514 13.1881C7.3217 11.0556 9.05548 9.32183 11.188 8.23526C12.2851 7.67624 13.6391 7.34656 15.7388 7.17501C17.8618 7.00156 20.5665 7 24.3332 7H40.3332C44.0999 7 46.8046 7.00156 48.9277 7.17501C51.0273 7.34656 52.3813 7.67624 53.4784 8.23526C55.6109 9.32182 57.3447 11.0556 58.4313 13.1881C58.9903 14.2852 59.32 15.6392 59.4915 17.7389C59.665 19.8619 59.6665 22.5666 59.6665 26.3333C59.6665 30.1 59.665 32.8047 59.4915 34.9278C59.32 37.0275 58.9903 38.3814 58.4313 39.4786C57.3447 41.6111 55.6109 43.3448 53.4784 44.4314C52.3813 44.9904 51.0273 45.3201 48.9277 45.4916Z" fill="white"/>
<path d="M48.1194 17.5943C48.627 16.3572 48.1996 14.8624 47.1648 14.2555C46.1301 13.6487 44.8797 14.1596 44.3721 15.3967L40.3087 25.3001C39.0492 28.3697 35.3475 28.2198 34.2647 25.0553C31.8184 17.9064 23.4556 17.5677 20.6103 24.5024L16.5469 34.4057C16.0393 35.6428 16.4667 37.1376 17.5014 37.7445C18.5362 38.3513 19.7865 37.8404 20.2941 36.6033L24.3575 26.6999C25.617 23.6303 29.3188 23.7802 30.4016 26.9447C32.8479 34.0936 41.2106 34.4323 44.056 27.4976L48.1194 17.5943Z" fill="white"/>
</svg>
