<svg width="50" height="51" viewBox="0 0 50 51" fill="none" xmlns="http://www.w3.org/2000/svg">
<path d="M25 0.5C11.2 0.5 0 11.7 0 25.5C0 39.3 11.2 50.5 25 50.5C38.8 50.5 50 39.3 50 25.5C50 11.7 38.8 0.5 25 0.5ZM28.525 40.725V45.5H21.85V40.675C17.575 39.775 13.95 37.025 13.675 32.175H18.575C18.825 34.8 20.625 36.85 25.2 36.85C30.1 36.85 31.2 34.4 31.2 32.875C31.2 30.8 30.1 28.85 24.525 27.525C18.325 26.025 14.075 23.475 14.075 18.35C14.075 14.05 17.55 11.25 21.85 10.325V5.5H28.525V10.375C33.175 11.5 35.5 15.025 35.65 18.85H30.75C30.625 16.075 29.15 14.175 25.2 14.175C21.45 14.175 19.2 15.875 19.2 18.275C19.2 20.375 20.825 21.75 25.875 23.05C30.925 24.35 36.325 26.525 36.325 32.825C36.3 37.4 32.875 39.9 28.525 40.725Z" fill="#FA8750" fill-opacity="0.85"/>
</svg>
