<svg width="57" height="56" viewBox="0 0 57 56" fill="none" xmlns="http://www.w3.org/2000/svg">
<g clip-path="url(#clip0_284_4769)">
<path d="M0.666656 53.6424C6.33995 48.3119 12.452 43.7579 18.8983 40.0581C28.855 34.5237 38.334 25.4675 38.334 13.4885C38.334 1.50937 34.3972 0 32.0657 0C28.8551 0 19.529 4.79164 16.5668 25.0603C13.6047 45.3289 20.1788 55.5351 25.7209 55.9423C31.263 56.3496 33.499 54.7684 36.958 45.7122C40.226 42.6456 42.997 41.7831 43.7423 37.3748C43.7831 37.0962 43.7771 36.8101 43.7247 36.5346C43.6723 36.2592 43.5746 36.0005 43.4379 35.775C43.3012 35.5495 43.1285 35.3623 42.9309 35.2252C42.7332 35.0882 42.5149 35.0043 42.2899 34.9789L40.7993 34.7394C41.1405 34.0061 41.604 33.3738 42.1581 32.8859C42.7122 32.3979 43.3439 32.0658 44.0099 31.9123C46.1694 31.505 47.6218 26.7852 47.6218 26.7852C47.6218 26.7852 39.9775 28.6779 35.41 42.382C30.8426 56.0861 22.0325 49.4257 21.2872 43.8914C19.3058 32.7279 20.5946 21.0433 24.9182 10.9728C29.9444 0 40.3406 8.57703 29.9444 24.054C19.7774 36.7518 1.54575 41.4716 0.666656 53.6424Z" fill="#8C9196"/>
<path d="M49.5519 28.2228L51.463 32.2238C51.5568 32.4241 51.6851 32.5956 51.8386 32.7257C51.9921 32.8558 52.1669 32.9412 52.3501 32.9757C52.5333 33.0101 52.7204 32.9927 52.8976 32.9248C53.0747 32.8569 53.2376 32.7402 53.3741 32.5832L56.2598 29.3967C56.4728 29.1475 56.6117 28.8146 56.6534 28.453C56.695 28.0915 56.6371 27.7229 56.4892 27.4082L54.5781 23.4791C54.4843 23.2787 54.356 23.1072 54.2025 22.9771C54.049 22.847 53.8742 22.7616 53.691 22.7272C53.5078 22.6927 53.3207 22.7101 53.1435 22.778C52.9663 22.8459 52.8035 22.9627 52.667 23.1197L49.7813 26.354C49.5876 26.593 49.4606 26.904 49.4193 27.2407C49.3779 27.5774 49.4245 27.9219 49.5519 28.2228Z" fill="#8C9196"/>
</g>
<defs>
<clipPath id="clip0_284_4769">
<rect width="56" height="56" fill="white" transform="translate(0.666656)"/>
</clipPath>
</defs>
</svg>
