<svg width="41" height="40" viewBox="0 0 41 40" fill="none" xmlns="http://www.w3.org/2000/svg">
<path d="M23.7501 21.6673H15.5001V13.4173L24.8501 4.06732C23.4667 3.60065 22.0001 3.33398 20.5001 3.33398C13.5001 3.33398 7.16675 8.70065 7.16675 17.0007C7.16675 22.534 11.6167 29.084 20.5001 36.6673C29.3834 29.084 33.8334 22.534 33.8334 17.0007C33.8334 15.3173 33.5667 13.7673 33.0834 12.334L23.7501 21.6673Z" fill="#6494FF"/>
<path d="M18.8335 18.3332H22.3668L32.6335 8.06654L29.1002 4.5332L18.8335 14.7999V18.3332Z" fill="#6494FF"/>
<path d="M35.0168 3.33366L33.8335 2.15033C33.5002 1.83366 33.0835 1.66699 32.6502 1.66699C32.4335 1.66699 31.8502 1.78366 31.4668 2.15033L30.2668 3.35033L33.8002 6.88366L35.0002 5.68366C35.6668 5.03366 35.6668 3.98366 35.0168 3.33366Z" fill="#6494FF"/>
</svg>
