<svg width="36" height="37" viewBox="0 0 36 37" fill="none" xmlns="http://www.w3.org/2000/svg">
<path d="M13.5 23C9.495 23 1.5 25.01 1.5 29V32H25.5V29C25.5 25.01 17.505 23 13.5 23Z" fill="#6494FF"/>
<path d="M33.1503 10.76C33.1653 10.595 33.1803 10.43 33.1803 10.25C33.1803 10.07 33.1653 9.905 33.1353 9.74L34.2453 8.87C34.3503 8.795 34.3653 8.645 34.3053 8.54L33.2553 6.725C33.1953 6.605 33.0453 6.575 32.9403 6.605L31.6503 7.13C31.3803 6.92 31.0803 6.755 30.7653 6.62L30.5703 5.225C30.5403 5.09 30.4353 5 30.3003 5H28.2003C28.0653 5 27.9603 5.09 27.9453 5.225L27.7503 6.62C27.4353 6.755 27.1353 6.935 26.8653 7.13L25.5603 6.605C25.4403 6.56 25.3053 6.605 25.2453 6.725L24.1952 8.54C24.1352 8.66 24.1503 8.795 24.2553 8.87L25.3653 9.74C25.3353 9.905 25.3202 10.085 25.3202 10.25C25.3202 10.415 25.3353 10.595 25.3653 10.76L24.2553 11.63C24.1503 11.705 24.1352 11.855 24.1952 11.96L25.2453 13.775C25.3053 13.895 25.4553 13.925 25.5603 13.895L26.8653 13.37C27.1353 13.58 27.4353 13.745 27.7503 13.88L27.9453 15.275C27.9603 15.41 28.0653 15.5 28.2003 15.5H30.3003C30.4353 15.5 30.5403 15.41 30.5553 15.275L30.7503 13.88C31.0653 13.745 31.3653 13.565 31.6353 13.37L32.9403 13.895C33.0603 13.94 33.1953 13.895 33.2553 13.775L34.3053 11.96C34.3653 11.84 34.3503 11.705 34.2453 11.63L33.1503 10.76ZM29.2503 12.125C28.2153 12.125 27.3753 11.285 27.3753 10.25C27.3753 9.215 28.2153 8.375 29.2503 8.375C30.2853 8.375 31.1253 9.215 31.1253 10.25C31.1253 11.285 30.2853 12.125 29.2503 12.125Z" fill="#6494FF"/>
<path d="M29.8803 18.02L29.1303 16.715C29.0853 16.625 28.9803 16.595 28.9053 16.625L27.9753 17C27.7803 16.85 27.5703 16.73 27.3453 16.64L27.2103 15.65C27.1803 15.56 27.0903 15.5 27.0003 15.5H25.5003C25.4103 15.5 25.3353 15.56 25.3203 15.665L25.1853 16.655C24.9603 16.745 24.7503 16.88 24.5553 17.015L23.6253 16.64C23.5353 16.61 23.4453 16.64 23.4003 16.73L22.6503 18.035C22.6053 18.125 22.6203 18.215 22.6953 18.275L23.4903 18.89C23.4753 19.01 23.4603 19.13 23.4603 19.25C23.4603 19.37 23.4753 19.505 23.4903 19.61L22.6953 20.225C22.6203 20.285 22.6053 20.39 22.6503 20.465L23.4003 21.77C23.4453 21.86 23.5503 21.89 23.6253 21.86L24.5553 21.485C24.7503 21.635 24.9603 21.755 25.1853 21.845L25.3203 22.835C25.3353 22.94 25.4103 23 25.5003 23H27.0003C27.0903 23 27.1803 22.94 27.1803 22.835L27.3153 21.845C27.5403 21.755 27.7503 21.62 27.9453 21.485L28.8753 21.86C28.9653 21.89 29.0553 21.86 29.1003 21.77L29.8503 20.465C29.8953 20.375 29.8803 20.285 29.8053 20.225L29.0253 19.61C29.0403 19.49 29.0553 19.37 29.0553 19.25C29.0553 19.13 29.0403 18.995 29.0253 18.89L29.8203 18.275C29.8953 18.215 29.9103 18.11 29.8803 18.02ZM26.2503 20.495C25.5603 20.495 25.0053 19.925 25.0053 19.25C25.0053 18.56 25.5753 18.005 26.2503 18.005C26.9253 18.005 27.4953 18.575 27.4953 19.25C27.4953 19.94 26.9403 20.495 26.2503 20.495Z" fill="#6494FF"/>
<path d="M7.11 14H19.905C20.31 14 20.64 13.67 20.64 13.265V13.235C20.64 12.83 20.31 12.5 19.905 12.5H19.5C19.5 10.28 18.285 8.375 16.5 7.325V8.75C16.5 9.17 16.17 9.5 15.75 9.5C15.33 9.5 15 9.17 15 8.75V6.71C14.52 6.59 14.025 6.5 13.5 6.5C12.975 6.5 12.48 6.59 12 6.71V8.75C12 9.17 11.67 9.5 11.25 9.5C10.83 9.5 10.5 9.17 10.5 8.75V7.325C8.715 8.375 7.5 10.28 7.5 12.5H7.11C6.705 12.5 6.375 12.83 6.375 13.235V13.28C6.375 13.67 6.705 14 7.11 14Z" fill="#6494FF"/>
<path d="M13.5009 20C16.2909 20 18.6159 18.08 19.2909 15.5H7.71094C8.38594 18.08 10.7109 20 13.5009 20Z" fill="#6494FF"/>
</svg>
