<svg width="34" height="34" viewBox="0 0 34 34" fill="none" xmlns="http://www.w3.org/2000/svg">
<path d="M26.2646 12.8338C26.7251 12.3194 26.6815 11.5292 26.1671 11.0687C25.6528 10.6082 24.8625 10.6519 24.402 11.1662L18.7868 17.4382C17.6489 18.7091 16.8827 19.5605 16.2275 20.1111C15.6034 20.6357 15.2369 20.75 14.9167 20.75C14.5965 20.75 14.2299 20.6357 13.6058 20.1111C12.9507 19.5605 12.1844 18.7091 11.0466 17.4382L9.59796 15.8202C9.13747 15.3058 8.34722 15.2622 7.83288 15.7226C7.31854 16.1831 7.27489 16.9734 7.73538 17.4877L9.24592 19.1749C10.3057 20.3587 11.1896 21.346 11.9973 22.0249C12.8516 22.743 13.7732 23.25 14.9167 23.25C16.0601 23.25 16.9817 22.743 17.8361 22.0249C18.6437 21.346 19.5277 20.3587 20.5874 19.1749L26.2646 12.8338Z" fill="#5C5F62"/>
<path fill-rule="evenodd" clip-rule="evenodd" d="M24.4392 0.956214C22.5356 0.749976 20.1363 0.749987 17.0754 0.75H16.9246C13.8637 0.749987 11.4644 0.749976 9.56079 0.956214C7.61823 1.16668 6.04426 1.60387 4.70039 2.58025C3.88682 3.17135 3.17135 3.88682 2.58025 4.70039C1.60387 6.04426 1.16668 7.61823 0.956214 9.56079C0.749976 11.4644 0.749987 13.8637 0.75 16.9246V17.0754C0.749987 20.1363 0.749976 22.5356 0.956214 24.4392C1.16668 26.3818 1.60387 27.9557 2.58025 29.2996C3.17135 30.1132 3.88682 30.8286 4.70039 31.4197C6.04426 32.3961 7.61823 32.8333 9.56079 33.0438C11.4643 33.25 13.8636 33.25 16.9244 33.25H17.0755C20.1363 33.25 22.5357 33.25 24.4392 33.0438C26.3818 32.8333 27.9557 32.3961 29.2996 31.4197C30.1132 30.8287 30.8287 30.1132 31.4197 29.2996C32.3961 27.9557 32.8333 26.3818 33.0438 24.4392C33.25 22.5357 33.25 20.1364 33.25 17.0756V16.9245C33.25 13.8637 33.25 11.4643 33.0438 9.56079C32.8333 7.61823 32.3961 6.04426 31.4197 4.70039C30.8286 3.88682 30.1132 3.17135 29.2996 2.58025C27.9557 1.60387 26.3818 1.16668 24.4392 0.956214ZM6.16986 4.6028C7.01653 3.98765 8.10022 3.62909 9.83007 3.44167C11.5833 3.25172 13.8474 3.25 17 3.25C20.1526 3.25 22.4167 3.25172 24.1699 3.44167C25.8998 3.62909 26.9835 3.98765 27.8301 4.6028C28.4315 5.03969 28.9603 5.56852 29.3972 6.16986C30.0123 7.01653 30.3709 8.10022 30.5583 9.83007C30.7483 11.5833 30.75 13.8474 30.75 17C30.75 20.1526 30.7483 22.4167 30.5583 24.1699C30.3709 25.8998 30.0123 26.9835 29.3972 27.8301C28.9603 28.4315 28.4315 28.9603 27.8301 29.3972C26.9835 30.0123 25.8998 30.3709 24.1699 30.5583C22.4167 30.7483 20.1526 30.75 17 30.75C13.8474 30.75 11.5833 30.7483 9.83007 30.5583C8.10022 30.3709 7.01653 30.0123 6.16986 29.3972C5.56852 28.9603 5.03969 28.4315 4.6028 27.8301C3.98765 26.9835 3.62909 25.8998 3.44167 24.1699C3.25172 22.4167 3.25 20.1526 3.25 17C3.25 13.8474 3.25172 11.5833 3.44167 9.83007C3.62909 8.10022 3.98765 7.01653 4.6028 6.16986C5.03969 5.56852 5.56852 5.03969 6.16986 4.6028Z" fill="#5C5F62"/>
</svg>
