<svg width="36" height="37" viewBox="0 0 36 37" fill="none" xmlns="http://www.w3.org/2000/svg">
<path d="M13.5 21.875C14.5355 21.875 15.375 21.0355 15.375 20C15.375 18.9645 14.5355 18.125 13.5 18.125C12.4645 18.125 11.625 18.9645 11.625 20C11.625 21.0355 12.4645 21.875 13.5 21.875Z" fill="black" fill-opacity="0.54"/>
<path d="M31.155 13.37L29.775 16.385C29.91 17.075 30 17.78 30 18.5C30 25.115 24.615 30.5 18 30.5C11.385 30.5 6 25.115 6 18.5C6 18.425 6.015 18.35 6 18.29C9.9 16.82 13.035 13.805 14.61 9.965C17.37 13.34 21.555 15.5 26.25 15.5C26.925 15.5 27.585 15.44 28.245 15.35L27.345 13.37L26.025 10.475L23.13 9.155L18.945 7.25L23.13 5.345L24.195 4.865C22.305 3.995 20.205 3.5 18 3.5C9.72 3.5 3 10.22 3 18.5C3 26.78 9.72 33.5 18 33.5C26.28 33.5 33 26.78 33 18.5C33 16.295 32.505 14.195 31.65 12.305L31.155 13.37Z" fill="#6494FF"/>
<path d="M22.5 21.875C23.5355 21.875 24.375 21.0355 24.375 20C24.375 18.9645 23.5355 18.125 22.5 18.125C21.4645 18.125 20.625 18.9645 20.625 20C20.625 21.0355 21.4645 21.875 22.5 21.875Z" fill="black" fill-opacity="0.54"/>
<path d="M30.9 8.9L29.25 12.5L27.6 8.9L24 7.25L27.6 5.6L29.25 2L30.9 5.6L34.5 7.25L30.9 8.9Z" fill="#6494FF"/>
</svg>
