<svg width="36" height="37" viewBox="0 0 36 37" fill="none" xmlns="http://www.w3.org/2000/svg">
<path d="M27.09 34.985H29.58C30.84 34.985 31.875 34.025 32.025 32.795L34.5 8.075H27V2H24.045V8.075H16.59L17.04 11.585C19.605 12.29 22.005 13.565 23.445 14.975C25.605 17.105 27.09 19.31 27.09 22.91V34.985ZM1.5 33.485V32H24.045V33.485C24.045 34.31 23.37 34.985 22.53 34.985H3.015C2.175 34.985 1.5 34.31 1.5 33.485ZM24.045 22.985C24.045 10.985 1.5 10.985 1.5 22.985H24.045ZM1.53 26H24.03V29H1.53V26Z" fill="#6494FF"/>
</svg>
