<svg width="74" height="76" viewBox="0 0 74 76" fill="none" xmlns="http://www.w3.org/2000/svg">
<g filter="url(#filter0_d_1622_5921)">
<rect x="5" y="1" width="64" height="64" rx="32" fill="#0050FF"/>
<path d="M51.9999 33.3667C51.9999 24.2167 44.8999 18 36.9999 18C29.1833 18 21.9999 24.0833 21.9999 33.4667C20.9999 34.0333 20.3333 35.1 20.3333 36.3333V39.6667C20.3333 41.5 21.8333 43 23.6666 43H25.3333V32.8333C25.3333 26.3833 30.5499 21.1667 36.9999 21.1667C43.4499 21.1667 48.6666 26.3833 48.6666 32.8333V44.6667H35.3333V48H48.6666C50.4999 48 51.9999 46.5 51.9999 44.6667V42.6333C52.9833 42.1167 53.6666 41.1 53.6666 39.9V36.0667C53.6666 34.9 52.9833 33.8833 51.9999 33.3667Z" fill="white"/>
<path d="M31.9999 36.3333C32.9204 36.3333 33.6666 35.5871 33.6666 34.6667C33.6666 33.7462 32.9204 33 31.9999 33C31.0794 33 30.3333 33.7462 30.3333 34.6667C30.3333 35.5871 31.0794 36.3333 31.9999 36.3333Z" fill="white"/>
<path d="M41.9999 36.3333C42.9204 36.3333 43.6666 35.5871 43.6666 34.6667C43.6666 33.7462 42.9204 33 41.9999 33C41.0794 33 40.3333 33.7462 40.3333 34.6667C40.3333 35.5871 41.0794 36.3333 41.9999 36.3333Z" fill="white"/>
<path d="M47 31.3833C46.2 26.6333 42.0667 23 37.0834 23C32.0334 23 26.6 27.1833 27.0334 33.75C31.15 32.0667 34.25 28.4 35.1334 23.9333C37.3167 28.3167 41.8 31.3333 47 31.3833Z" fill="white"/>
<rect x="4.5" y="0.5" width="65" height="65" rx="32.5" stroke="white"/>
</g>
<defs>
<filter id="filter0_d_1622_5921" x="0" y="0" width="74" height="76" filterUnits="userSpaceOnUse" color-interpolation-filters="sRGB">
<feFlood flood-opacity="0" result="BackgroundImageFix"/>
<feColorMatrix in="SourceAlpha" type="matrix" values="0 0 0 0 0 0 0 0 0 0 0 0 0 0 0 0 0 0 127 0" result="hardAlpha"/>
<feOffset dy="6"/>
<feGaussianBlur stdDeviation="2"/>
<feComposite in2="hardAlpha" operator="out"/>
<feColorMatrix type="matrix" values="0 0 0 0 0 0 0 0 0 0.313726 0 0 0 0 1 0 0 0 0.1 0"/>
<feBlend mode="normal" in2="BackgroundImageFix" result="effect1_dropShadow_1622_5921"/>
<feBlend mode="normal" in="SourceGraphic" in2="effect1_dropShadow_1622_5921" result="shape"/>
</filter>
</defs>
</svg>
