<svg id="Layer_1" data-name="Layer 1" xmlns="http://www.w3.org/2000/svg" viewBox="0 0 450.65 292.54"><title>ghaleb</title><path d="M444.24,31.62l-.76,249.57a6,6,0,0,1-6.15,5.85l-324.28,0h-5.87a6.47,6.47,0,0,1-4.08-1.9l-.2-.19c-.13-.13-.3-.31-.49-.54a2.54,2.54,0,0,1-.2-.24,7,7,0,0,1-.89-1.43,3.69,3.69,0,0,1-.17-.42,1.7,1.7,0,0,1-.1-.32,3.63,3.63,0,0,1-.1-.45l0-.22a2.91,2.91,0,0,1,0-.3l.75-249.4Z" style="fill:none;stroke:#0050ff;stroke-linecap:round;stroke-linejoin:round"/><path d="M444.28,12.32a3,3,0,0,0-3-2.59L104.78,9.67A3.17,3.17,0,0,0,102.24,11a2.85,2.85,0,0,0-.52,1.64l0,13.51,342.57.05.05-13.53C444.3,12.53,444.29,12.42,444.28,12.32ZM409.8,21.44a2.74,2.74,0,1,1,2.88-2.74A2.8,2.8,0,0,1,409.8,21.44Zm11.49,0a2.74,2.74,0,1,1,2.88-2.74A2.79,2.79,0,0,1,421.29,21.44Zm11.49,0a2.74,2.74,0,1,1,2.88-2.74A2.79,2.79,0,0,1,432.78,21.44Z" style="fill:none;stroke:#00dfbf;stroke-miterlimit:10"/><path d="M444.28,12.32a3,3,0,0,0-3-2.59L104.78,9.67A3.17,3.17,0,0,0,102.24,11a2.85,2.85,0,0,0-.52,1.64l0,13.51,342.57.05.05-13.53C444.3,12.53,444.29,12.42,444.28,12.32ZM409.8,21.44a2.74,2.74,0,1,1,2.88-2.74A2.8,2.8,0,0,1,409.8,21.44Zm11.49,0a2.74,2.74,0,1,1,2.88-2.74A2.79,2.79,0,0,1,421.29,21.44Zm11.49,0a2.74,2.74,0,1,1,2.88-2.74A2.79,2.79,0,0,1,432.78,21.44Z" style="fill:none;stroke:#00dfbf;stroke-miterlimit:10"/><path d="M390.61,50.4a.29.29,0,0,0-.09.22.23.23,0,0,0,.11.2.48.48,0,0,0,.24.06.73.73,0,0,0,.3-.06.65.65,0,0,0,.21-.16.61.61,0,0,0,.13-.22.74.74,0,0,0,.05-.25v-.07l-.66.15A.6.6,0,0,0,390.61,50.4Z" style="fill:#0050ff"/><path d="M419.69,46.08H382.54A1.5,1.5,0,0,0,381,47.54l0,3.92a1.49,1.49,0,0,0,1.53,1.46h37.15a1.5,1.5,0,0,0,1.53-1.46l0-3.93A1.5,1.5,0,0,0,419.69,46.08ZM386.2,51a1.06,1.06,0,0,1-.21.31,1,1,0,0,1-.34.22,1.14,1.14,0,0,1-.46.09,1.25,1.25,0,0,1-.45-.08,1.08,1.08,0,0,1-.33-.2.83.83,0,0,1-.21-.28.84.84,0,0,1-.08-.3.16.16,0,0,1,0-.12.14.14,0,0,1,.1,0h.37a.14.14,0,0,1,.11,0l.08.1a.48.48,0,0,0,.13.09.52.52,0,0,0,.25.05l.15,0a.33.33,0,0,0,.14,0,.26.26,0,0,0,.11-.07.15.15,0,0,0,0-.11.16.16,0,0,0,0-.11.23.23,0,0,0-.12-.08l-.23-.08-.35-.1a1.34,1.34,0,0,1-.36-.15.77.77,0,0,1-.22-.22.65.65,0,0,1-.12-.28,1.79,1.79,0,0,1,0-.34.89.89,0,0,1,.07-.36.94.94,0,0,1,.19-.32,1,1,0,0,1,.74-.31,1.33,1.33,0,0,1,.42.06,1.22,1.22,0,0,1,.32.18.7.7,0,0,1,.2.26.63.63,0,0,1,.08.29.12.12,0,0,1,0,.12.14.14,0,0,1-.1,0h-.37a.16.16,0,0,1-.11,0,.6.6,0,0,0-.08-.08l-.11-.08a.65.65,0,0,0-.22,0,.71.71,0,0,0-.26,0,.21.21,0,0,0-.11.2.36.36,0,0,0,0,.11.35.35,0,0,0,.11.09l.2.07.35.1a1,1,0,0,1,.61.37,1,1,0,0,1,.17.62A.92.92,0,0,1,386.2,51Zm3.09-.87a.16.16,0,0,1,0,.12.11.11,0,0,1-.09,0h-1.62a.66.66,0,0,0,0,.25.57.57,0,0,0,.12.18.42.42,0,0,0,.18.11.78.78,0,0,0,.21,0,.87.87,0,0,0,.25,0,.62.62,0,0,0,.16-.1.18.18,0,0,1,.09-.07s0,0,.09,0h.39a.11.11,0,0,1,.09.05.16.16,0,0,1,0,.12.75.75,0,0,1-.08.22.83.83,0,0,1-.21.26,1.1,1.1,0,0,1-.35.22,1,1,0,0,1-.48.1,1,1,0,0,1-.49-.12,1,1,0,0,1-.37-.35,1.56,1.56,0,0,1-.24-.52,2.88,2.88,0,0,1-.08-.68,2.32,2.32,0,0,1,.09-.65,1.7,1.7,0,0,1,.23-.53,1.15,1.15,0,0,1,.38-.35.92.92,0,0,1,.49-.13,1,1,0,0,1,.5.12,1.33,1.33,0,0,1,.37.34,1.55,1.55,0,0,1,.24.5,2,2,0,0,1,.08.6Zm2.89,1.26a.24.24,0,0,1,0,.12.14.14,0,0,1-.1.05h-.36a.14.14,0,0,1-.1-.05.28.28,0,0,1,0-.12v-.2a.83.83,0,0,1-.29.3.91.91,0,0,1-.49.13,1.06,1.06,0,0,1-.37-.07,1,1,0,0,1-.28-.2A1,1,0,0,1,390,51a1.18,1.18,0,0,1-.06-.39.89.89,0,0,1,.24-.66,1.26,1.26,0,0,1,.64-.33l.79-.17a.43.43,0,0,0-.13-.36.52.52,0,0,0-.33-.1.3.3,0,0,0-.18,0,.75.75,0,0,0-.14.12l-.08.07h-.53a.11.11,0,0,1-.08,0,.12.12,0,0,1,0-.1.83.83,0,0,1,.09-.28.86.86,0,0,1,.2-.28,1.2,1.2,0,0,1,.31-.21,1.19,1.19,0,0,1,.44-.08,1.23,1.23,0,0,1,.44.08,1,1,0,0,1,.34.24,1.08,1.08,0,0,1,.22.41,1.89,1.89,0,0,1,.08.56Zm2.53-2.47a.21.21,0,0,1,0,.12.14.14,0,0,1-.1.05h-.31a.48.48,0,0,0-.42.16.86.86,0,0,0-.13.54v1.6a.17.17,0,0,1,0,.12.11.11,0,0,1-.09.05h-.37a.14.14,0,0,1-.09-.05.25.25,0,0,1,0-.12V48.52a.21.21,0,0,1,0-.12.14.14,0,0,1,.09,0h.37a.11.11,0,0,1,.09,0,.16.16,0,0,1,0,.12v.14a1.1,1.1,0,0,1,.27-.23.82.82,0,0,1,.38-.08h.22a.14.14,0,0,1,.09,0,.21.21,0,0,1,0,.12Zm1.11,1.25a1.39,1.39,0,0,0,.06.33.69.69,0,0,0,.14.22.66.66,0,0,0,.17.12.71.71,0,0,0,.2,0,.66.66,0,0,0,.21,0,.37.37,0,0,0,.14-.07.47.47,0,0,0,.1-.1l.08-.13a.75.75,0,0,1,.07-.12.11.11,0,0,1,.09,0h.37a.11.11,0,0,1,.09,0,.16.16,0,0,1,0,.12,1.18,1.18,0,0,1-.08.31,1,1,0,0,1-.21.35,1.12,1.12,0,0,1-.9.41,1,1,0,0,1-.48-.12,1.19,1.19,0,0,1-.37-.3,1.63,1.63,0,0,1-.25-.45,2.05,2.05,0,0,1-.1-.54,2,2,0,0,1,0-.25,1.93,1.93,0,0,1,0-.25,1.74,1.74,0,0,1,.11-.55,1.41,1.41,0,0,1,.25-.45,1.12,1.12,0,0,1,.37-.31,1.06,1.06,0,0,1,.48-.11,1.09,1.09,0,0,1,.53.12,1.17,1.17,0,0,1,.37.28,1.47,1.47,0,0,1,.21.36,1,1,0,0,1,.07.31.16.16,0,0,1,0,.12.12.12,0,0,1-.09.05h-.37a.11.11,0,0,1-.09-.06.41.41,0,0,1-.07-.11.57.57,0,0,0-.08-.13.52.52,0,0,0-.1-.11l-.14-.07-.2,0a.45.45,0,0,0-.2,0,.52.52,0,0,0-.18.12.67.67,0,0,0-.13.22,1,1,0,0,0-.07.33,1.34,1.34,0,0,0,0,.21A1.41,1.41,0,0,0,395.82,50.17Zm4.89,1.22a.16.16,0,0,1,0,.12.11.11,0,0,1-.09.05h-.37a.14.14,0,0,1-.09-.05.17.17,0,0,1,0-.12V49.82a1.14,1.14,0,0,0-.14-.59.45.45,0,0,0-.41-.22.46.46,0,0,0-.41.22,1.05,1.05,0,0,0-.15.59v1.57a.25.25,0,0,1,0,.12.14.14,0,0,1-.1.05h-.36a.14.14,0,0,1-.1-.05.24.24,0,0,1,0-.12v-4a.15.15,0,0,1,0-.11.11.11,0,0,1,.09,0h.37a.14.14,0,0,1,.09,0,.21.21,0,0,1,0,.11v1.32a1.27,1.27,0,0,1,.3-.27.74.74,0,0,1,.4-.1,1,1,0,0,1,.5.12.86.86,0,0,1,.32.31,1.33,1.33,0,0,1,.17.46,3.21,3.21,0,0,1,.05.55Z" style="fill:#0050ff"/><path d="M388.52,49.22a.43.43,0,0,0-.16-.14.5.5,0,0,0-.26,0,.47.47,0,0,0-.24,0,.55.55,0,0,0-.17.14.52.52,0,0,0-.1.18,1.8,1.8,0,0,0,0,.19h1.1a1.62,1.62,0,0,0,0-.19A.37.37,0,0,0,388.52,49.22Z" style="fill:#0050ff"/><path d="M429.74,53l-1.34-1.71a3,3,0,0,0,.43-1.57,3.29,3.29,0,0,0-1-2.39,2.19,2.19,0,0,0-3.77,1.88,3.34,3.34,0,0,0,1,2.39,3,3,0,0,0,.72.5,2,2,0,0,0,.92.22,1.87,1.87,0,0,0,1.2-.44l1.1,1.4a1,1,0,0,0,.36.3.51.51,0,0,0,.39,0C430,53.53,430,53.25,429.74,53Zm-3.56-1.69a.75.75,0,0,1-.57-.22,1.94,1.94,0,0,1-.48-1.37c0-1.14.74-2.1,1.6-2.1a.81.81,0,0,1,.38.08.64.64,0,0,1,.19.13,2,2,0,0,1,.48,1.38C427.77,50.33,427,51.29,426.18,51.29Z" style="fill:#0050ff"/><polygon points="179.97 40.57 122.53 40.56 122.43 73.42 179.88 73.43 179.97 40.57" style="fill:none;stroke:#0050ff;stroke-linecap:round;stroke-linejoin:round;stroke-width:0.5px"/><path d="M198.72,46.05h31.41a1.49,1.49,0,0,1,1.52,1.46v2.55a1.49,1.49,0,0,1-1.53,1.46h-31.4a1.5,1.5,0,0,1-1.53-1.46V47.51A1.5,1.5,0,0,1,198.72,46.05Z" style="fill:#e1e1e1"/><path d="M244.68,46.06h31.4a1.5,1.5,0,0,1,1.53,1.46v2.56a1.5,1.5,0,0,1-1.54,1.46h-31.4a1.49,1.49,0,0,1-1.53-1.45V47.52A1.5,1.5,0,0,1,244.68,46.06Z" style="fill:#e1e1e1"/><path d="M290.63,46.06H322a1.49,1.49,0,0,1,1.52,1.46v2.56A1.5,1.5,0,0,1,322,51.55H290.61a1.49,1.49,0,0,1-1.52-1.46V47.52A1.5,1.5,0,0,1,290.63,46.06Z" style="fill:#e1e1e1"/><path d="M237.37,54.71a.9.9,0,0,1-.52-.69l0-11c0-.25.24-.33.53-.19a.92.92,0,0,1,.53.69l0,11C237.9,54.77,237.67,54.85,237.37,54.71Z" style="fill:#0050ff"/><path d="M283.33,54.72a.92.92,0,0,1-.53-.69l0-11c0-.24.23-.32.53-.18a.88.88,0,0,1,.52.69l0,11C283.86,54.77,283.62,54.86,283.33,54.72Z" style="fill:#0050ff"/><polygon points="197.11 73.44 197.14 62.48 426.92 62.52 426.88 73.47 197.11 73.44" style="fill:none;stroke:#0050ff;stroke-linecap:round;stroke-linejoin:round;stroke-width:0.5px"/><path d="M136.73,94.13a1.23,1.23,0,0,0-1.23,1.21,1.23,1.23,0,1,0,1.23-1.21Z" style="fill:#00dfbf"/><path d="M139.46,93h-1v-.33a.38.38,0,0,0-.38-.37h-2.75a.38.38,0,0,0-.39.37V93h-1a.79.79,0,0,0-.79.77v3.18a.78.78,0,0,0,.78.78h5.47a.79.79,0,0,0,.79-.77V93.75A.78.78,0,0,0,139.46,93Zm-2.74,4.24a1.88,1.88,0,0,1-1.9-1.88,1.91,1.91,0,1,1,1.9,1.88Z" style="fill:#00dfbf"/><polygon points="122.4 84.38 151.12 84.38 151.06 106.29 122.33 106.28 122.4 84.38" style="fill:none;stroke:#e1e1e1;stroke-miterlimit:10;stroke-width:0.75px"/><line x1="131.93" y1="98.98" x2="122.33" y2="106.28" style="fill:none;stroke:#e1e1e1;stroke-miterlimit:10;stroke-width:0.75px"/><line x1="151.12" y1="84.38" x2="141.52" y2="91.68" style="fill:none;stroke:#e1e1e1;stroke-miterlimit:10;stroke-width:0.75px"/><line x1="142.07" y1="99.42" x2="151.05" y2="106.29" style="fill:none;stroke:#e1e1e1;stroke-miterlimit:10;stroke-width:0.75px"/><line x1="122.4" y1="84.38" x2="131.48" y2="91.32" style="fill:none;stroke:#e1e1e1;stroke-miterlimit:10;stroke-width:0.75px"/><path d="M157.46,89.86h16a.6.6,0,0,1,.61.59V92a.61.61,0,0,1-.62.58h-16a.6.6,0,0,1-.61-.59V90.44A.59.59,0,0,1,157.46,89.86Z" style="fill:#00dfbf"/><path d="M157.44,95.34h27.5a.59.59,0,0,1,.61.58v1.57a.6.6,0,0,1-.62.59H157.44a.59.59,0,0,1-.61-.58V95.92A.6.6,0,0,1,157.44,95.34Z" style="fill:#0050ff"/><path d="M157.43,100.81h27.49a.6.6,0,0,1,.62.58V103a.61.61,0,0,1-.61.59h-27.5a.59.59,0,0,1-.61-.58V101.4A.6.6,0,0,1,157.43,100.81Z" style="fill:#0050ff"/><polygon points="392.22 139.21 432.43 139.22 432.34 169.89 392.13 169.88 392.22 139.21" style="fill:none;stroke:#e1e1e1;stroke-miterlimit:10;stroke-width:0.75px"/><line x1="405.56" y1="159.66" x2="392.13" y2="169.88" style="fill:none;stroke:#e1e1e1;stroke-miterlimit:10;stroke-width:0.75px"/><line x1="432.43" y1="139.22" x2="418.99" y2="149.43" style="fill:none;stroke:#e1e1e1;stroke-miterlimit:10;stroke-width:0.75px"/><line x1="419.76" y1="160.27" x2="432.34" y2="169.89" style="fill:none;stroke:#e1e1e1;stroke-miterlimit:10;stroke-width:0.75px"/><line x1="392.22" y1="139.21" x2="404.93" y2="148.93" style="fill:none;stroke:#e1e1e1;stroke-miterlimit:10;stroke-width:0.75px"/><path d="M412.29,152.77a1.8,1.8,0,0,0-1.79,1.81,1.78,1.78,0,0,0,1.77,1.8,1.81,1.81,0,0,0,0-3.61Z" style="fill:#0050ff"/><path d="M416.11,151.18h-1.35v-.46a.54.54,0,0,0-.53-.54h-3.87a.54.54,0,0,0-.53.54v.46h-1.36a1.12,1.12,0,0,0-1.11,1.12l0,4.55a1.11,1.11,0,0,0,1.1,1.12h7.65a1.12,1.12,0,0,0,1.11-1.12V152.3A1.1,1.1,0,0,0,416.11,151.18Zm-3.84,6.1a2.7,2.7,0,1,1,2.67-2.71A2.69,2.69,0,0,1,412.27,157.28Z" style="fill:#0050ff"/><path d="M392.72,174.78h16a.59.59,0,0,1,.61.58v1.57a.6.6,0,0,1-.62.58h-16a.6.6,0,0,1-.61-.58v-1.57A.6.6,0,0,1,392.72,174.78Z" style="fill:#00dfbf"/><path d="M392.71,180.26l39,0a.6.6,0,0,1,.61.59v1.57a.6.6,0,0,1-.62.58l-39,0a.6.6,0,0,1-.61-.59v-1.57A.6.6,0,0,1,392.71,180.26Z" style="fill:#0050ff"/><path d="M392.69,185.74l39,0a.6.6,0,0,1,.61.58v1.57a.6.6,0,0,1-.61.59l-39,0a.59.59,0,0,1-.61-.58v-1.57A.59.59,0,0,1,392.69,185.74Z" style="fill:#0050ff"/><polygon points="122.3 117.24 151.02 117.24 150.96 139.15 122.23 139.15 122.3 117.24" style="fill:none;stroke:#e1e1e1;stroke-miterlimit:10;stroke-width:0.75px"/><line x1="131.83" y1="131.84" x2="122.23" y2="139.14" style="fill:none;stroke:#e1e1e1;stroke-miterlimit:10;stroke-width:0.75px"/><line x1="151.02" y1="117.24" x2="141.42" y2="124.54" style="fill:none;stroke:#e1e1e1;stroke-miterlimit:10;stroke-width:0.75px"/><line x1="141.97" y1="132.28" x2="150.96" y2="139.15" style="fill:none;stroke:#e1e1e1;stroke-miterlimit:10;stroke-width:0.75px"/><line x1="122.3" y1="117.24" x2="131.38" y2="124.18" style="fill:none;stroke:#e1e1e1;stroke-miterlimit:10;stroke-width:0.75px"/><path d="M136.63,127a1.23,1.23,0,0,0-1.23,1.21,1.23,1.23,0,1,0,1.23-1.21Z" style="fill:#00dfbf"/><path d="M139.36,125.84h-1v-.33a.38.38,0,0,0-.38-.37h-2.75a.38.38,0,0,0-.39.37v.33h-1a.79.79,0,0,0-.79.77v3.18a.78.78,0,0,0,.78.78h5.47a.79.79,0,0,0,.79-.77v-3.19A.78.78,0,0,0,139.36,125.84Zm-2.74,4.24a1.88,1.88,0,0,1-1.9-1.88,1.91,1.91,0,1,1,1.9,1.88Z" style="fill:#00dfbf"/><path d="M157.36,122.72h16a.6.6,0,0,1,.61.59v1.57a.6.6,0,0,1-.62.58h-16a.6.6,0,0,1-.61-.59V123.3A.59.59,0,0,1,157.36,122.72Z" style="fill:#00dfbf"/><path d="M157.34,128.2h27.5a.59.59,0,0,1,.61.58v1.58a.6.6,0,0,1-.62.58H157.34a.59.59,0,0,1-.61-.58v-1.57A.6.6,0,0,1,157.34,128.2Z" style="fill:#0050ff"/><path d="M157.33,133.67h27.5a.6.6,0,0,1,.61.58v1.57a.6.6,0,0,1-.61.59h-27.5a.59.59,0,0,1-.61-.58v-1.57A.61.61,0,0,1,157.33,133.67Z" style="fill:#0050ff"/><polygon points="122.2 150.1 150.92 150.1 150.86 172.01 122.13 172 122.2 150.1" style="fill:none;stroke:#e1e1e1;stroke-miterlimit:10;stroke-width:0.75px"/><line x1="131.73" y1="164.7" x2="122.13" y2="172" style="fill:none;stroke:#e1e1e1;stroke-miterlimit:10;stroke-width:0.75px"/><line x1="150.92" y1="150.1" x2="141.32" y2="157.4" style="fill:none;stroke:#e1e1e1;stroke-miterlimit:10;stroke-width:0.75px"/><line x1="141.87" y1="165.14" x2="150.86" y2="172.01" style="fill:none;stroke:#e1e1e1;stroke-miterlimit:10;stroke-width:0.75px"/><line x1="122.2" y1="150.1" x2="131.28" y2="157.04" style="fill:none;stroke:#e1e1e1;stroke-miterlimit:10;stroke-width:0.75px"/><path d="M136.53,159.85a1.23,1.23,0,0,0-1.23,1.21,1.23,1.23,0,1,0,1.23-1.21Z" style="fill:#00dfbf"/><path d="M139.26,158.7h-1v-.33a.38.38,0,0,0-.38-.37h-2.75a.38.38,0,0,0-.39.37v.33h-1a.79.79,0,0,0-.79.77v3.18a.78.78,0,0,0,.78.78h5.47a.79.79,0,0,0,.79-.77v-3.19A.78.78,0,0,0,139.26,158.7Zm-2.74,4.24a1.88,1.88,0,0,1-1.9-1.88,1.91,1.91,0,1,1,1.9,1.88Z" style="fill:#00dfbf"/><path d="M157.26,155.58h16a.6.6,0,0,1,.61.59v1.57a.6.6,0,0,1-.62.58h-16a.6.6,0,0,1-.61-.59v-1.57A.59.59,0,0,1,157.26,155.58Z" style="fill:#00dfbf"/><path d="M157.25,161.06h27.49a.59.59,0,0,1,.61.58v1.58a.6.6,0,0,1-.62.58H157.24a.59.59,0,0,1-.61-.58v-1.57A.6.6,0,0,1,157.25,161.06Z" style="fill:#0050ff"/><path d="M157.23,166.53h27.5a.6.6,0,0,1,.61.58v1.57a.6.6,0,0,1-.61.59h-27.5a.59.59,0,0,1-.61-.58v-1.57A.61.61,0,0,1,157.23,166.53Z" style="fill:#0050ff"/><line x1="116.57" y1="111.76" x2="191.25" y2="111.77" style="fill:none;stroke:#e1e1e1;stroke-miterlimit:10;stroke-width:0.75px"/><line x1="116.47" y1="144.62" x2="191.15" y2="144.63" style="fill:none;stroke:#e1e1e1;stroke-miterlimit:10;stroke-width:0.75px"/><line x1="197.08" y1="84.39" x2="196.76" y2="188.45" style="fill:none;stroke:#e1e1e1;stroke-miterlimit:10;stroke-width:0.75px"/><path d="M187.59,179v2.2c0,.52.36.81.8.65l4-1.46c.44-.16.29-.47-.33-.7l-3.29-1.21C188.1,178.29,187.59,178.52,187.59,179Z" style="fill:#00dfbf"/><path d="M181.13,179v2.2c0,.52-.36.81-.79.64l-4-1.45c-.44-.16-.29-.48.33-.71l3.3-1.2C180.63,178.29,181.13,178.52,181.13,179Z" style="fill:#00dfbf"/><path d="M122.73,178.87h27.49a.59.59,0,0,1,.61.58V181a.61.61,0,0,1-.62.59H122.72a.59.59,0,0,1-.61-.58v-1.57A.6.6,0,0,1,122.73,178.87Z" style="fill:#0050ff"/><path d="M260.18,124.6a2.72,2.72,0,1,0,2.56,2.72A2.66,2.66,0,0,0,260.18,124.6Z" style="fill:#0050ff"/><path d="M265.44,122.44h-1.87v-.66a.75.75,0,0,0-.73-.78h-5.3a.75.75,0,0,0-.74.78v.66h-1.87a1.57,1.57,0,0,0-1.52,1.61l0,6.54a1.56,1.56,0,0,0,1.51,1.61h10.5a1.59,1.59,0,0,0,1.53-1.61l0-6.54A1.56,1.56,0,0,0,265.44,122.44Zm-5.29,8.76a3.89,3.89,0,1,1,3.68-3.88A3.8,3.8,0,0,1,260.15,131.2Z" style="fill:#0050ff"/><polygon points="208.55 89.87 311.95 89.88 311.73 161.08 208.33 161.06 208.55 89.87" style="fill:none;stroke:#e1e1e1;stroke-miterlimit:10"/><line x1="272.64" y1="134.19" x2="311.73" y2="161.08" style="fill:none;stroke:#e1e1e1;stroke-miterlimit:10"/><line x1="208.55" y1="89.87" x2="250.88" y2="119.09" style="fill:none;stroke:#e1e1e1;stroke-miterlimit:10"/><line x1="247.64" y1="134.19" x2="208.55" y2="161.08" style="fill:none;stroke:#e1e1e1;stroke-miterlimit:10"/><line x1="311.73" y1="89.87" x2="269.4" y2="119.09" style="fill:none;stroke:#e1e1e1;stroke-miterlimit:10"/><line x1="380.89" y1="84.3" x2="380.58" y2="188.36" style="fill:none;stroke:#e1e1e1;stroke-miterlimit:10;stroke-width:0.75px"/><path d="M319.22,89.88h37.15a1.5,1.5,0,0,1,1.53,1.46v2.56a1.51,1.51,0,0,1-1.54,1.46H319.2a1.49,1.49,0,0,1-1.52-1.46V91.34A1.5,1.5,0,0,1,319.22,89.88Z" style="fill:#e1e1e1"/><path d="M318.28,98.1h27.49a.6.6,0,0,1,.62.59v1.57a.6.6,0,0,1-.61.58h-27.5a.6.6,0,0,1-.61-.59V98.68A.6.6,0,0,1,318.28,98.1Z" style="fill:#e1e1e1"/><line x1="317.64" y1="106.31" x2="372.13" y2="106.32" style="fill:none;stroke:#03336e;stroke-linecap:round;stroke-linejoin:round"/><line x1="317.63" y1="109.05" x2="372.12" y2="109.06" style="fill:none;stroke:#03336e;stroke-linecap:round;stroke-linejoin:round"/><line x1="317.62" y1="111.79" x2="372.11" y2="111.8" style="fill:none;stroke:#03336e;stroke-linecap:round;stroke-linejoin:round"/><line x1="317.62" y1="114.53" x2="372.1" y2="114.54" style="fill:none;stroke:#03336e;stroke-linecap:round;stroke-linejoin:round"/><line x1="317.61" y1="117.27" x2="372.1" y2="117.27" style="fill:none;stroke:#03336e;stroke-linecap:round;stroke-linejoin:round"/><line x1="317.6" y1="120" x2="343.45" y2="120.01" style="fill:none;stroke:#03336e;stroke-linecap:round;stroke-linejoin:round"/><line x1="317.58" y1="125.48" x2="372.07" y2="125.49" style="fill:none;stroke:#03336e;stroke-linecap:round;stroke-linejoin:round"/><line x1="317.57" y1="128.22" x2="372.06" y2="128.23" style="fill:none;stroke:#03336e;stroke-linecap:round;stroke-linejoin:round"/><line x1="317.57" y1="130.96" x2="372.05" y2="130.97" style="fill:none;stroke:#03336e;stroke-linecap:round;stroke-linejoin:round"/><line x1="317.56" y1="133.7" x2="372.05" y2="133.7" style="fill:none;stroke:#03336e;stroke-linecap:round;stroke-linejoin:round"/><line x1="317.55" y1="136.43" x2="372.04" y2="136.44" style="fill:none;stroke:#03336e;stroke-linecap:round;stroke-linejoin:round"/><line x1="317.54" y1="139.17" x2="343.39" y2="139.18" style="fill:none;stroke:#03336e;stroke-linecap:round;stroke-linejoin:round"/><line x1="317.52" y1="144.65" x2="372.01" y2="144.66" style="fill:none;stroke:#03336e;stroke-linecap:round;stroke-linejoin:round"/><line x1="317.52" y1="147.39" x2="372" y2="147.4" style="fill:none;stroke:#03336e;stroke-linecap:round;stroke-linejoin:round"/><line x1="317.51" y1="150.13" x2="372" y2="150.14" style="fill:none;stroke:#03336e;stroke-linecap:round;stroke-linejoin:round"/><line x1="317.5" y1="152.86" x2="371.99" y2="152.87" style="fill:none;stroke:#03336e;stroke-linecap:round;stroke-linejoin:round"/><line x1="317.49" y1="155.6" x2="371.98" y2="155.61" style="fill:none;stroke:#03336e;stroke-linecap:round;stroke-linejoin:round"/><line x1="317.48" y1="158.34" x2="343.33" y2="158.34" style="fill:none;stroke:#03336e;stroke-linecap:round;stroke-linejoin:round"/><path d="M420.57,95.76a1.54,1.54,0,0,0-1-.39H399.63a1.6,1.6,0,0,0-1,.39l11,8.57Z" style="fill:#00dfbf"/><path d="M421.07,96.83a1.42,1.42,0,0,0-.45-1l-11.07,10.53-11-10.53a1.41,1.41,0,0,0-.45,1l0,13.51a1.49,1.49,0,0,0,1.53,1.46h19.91a1.5,1.5,0,0,0,1.54-1.45Z" style="fill:#00dfbf"/><path d="M393.66,90.19a.67.67,0,0,1-.3-.3c-.1-.18,0-.33.13-.33h.92a.65.65,0,0,1,.48.33c.09.19,0,.34-.13.34h-.92A.58.58,0,0,1,393.66,90.19Z" style="fill:#e1e1e1"/><path d="M398.42,89.89a.65.65,0,0,0-.49-.33h-1.76c-.17,0-.23.15-.13.33a.67.67,0,0,0,.3.3.39.39,0,0,0,.18,0h1.76C398.45,90.23,398.51,90.08,398.42,89.89Zm3.53,0a.64.64,0,0,0-.49-.34H399.7c-.17,0-.23.15-.13.33a.67.67,0,0,0,.3.3.39.39,0,0,0,.18,0h1.77C402,90.23,402,90.08,402,89.9Zm3.53,0a.64.64,0,0,0-.49-.34h-1.76c-.17,0-.23.15-.13.34a.7.7,0,0,0,.3.29.42.42,0,0,0,.18,0h1.77C405.51,90.23,405.57,90.08,405.48,89.9Zm3.53,0a.64.64,0,0,0-.48-.34h-1.77c-.17,0-.23.15-.13.34a.7.7,0,0,0,.3.29.42.42,0,0,0,.18,0h1.77C409.05,90.23,409.1,90.08,409,89.9Zm3.53,0a.64.64,0,0,0-.48-.34h-1.77c-.17,0-.23.15-.13.34a.72.72,0,0,0,.31.29.38.38,0,0,0,.17,0h1.77C412.58,90.23,412.63,90.08,412.54,89.9Zm3.53,0a.64.64,0,0,0-.48-.34h-1.77c-.17,0-.23.15-.13.34a.72.72,0,0,0,.31.29.38.38,0,0,0,.17,0h1.77C416.11,90.23,416.16,90.08,416.07,89.9Zm3.53,0a.64.64,0,0,0-.48-.34h-1.77c-.17,0-.23.15-.13.34a.78.78,0,0,0,.31.29.38.38,0,0,0,.17,0h1.77C419.64,90.23,419.69,90.08,419.6,89.9Zm3.53,0a.64.64,0,0,0-.48-.34h-1.77c-.17,0-.23.15-.13.34a.72.72,0,0,0,.31.29.38.38,0,0,0,.17,0H423C423.17,90.23,423.22,90.08,423.13,89.9Z" style="fill:#e1e1e1"/><path d="M424.59,90.19a.78.78,0,0,1-.31-.29c-.09-.19,0-.34.14-.34h.91a.64.64,0,0,1,.49.34c.09.19,0,.34-.13.34h-.92A.41.41,0,0,1,424.59,90.19Z" style="fill:#e1e1e1"/><path d="M392.29,116.33a.57.57,0,0,1-.35-.46V115c0-.16.16-.22.35-.13a.6.6,0,0,1,.35.46v.88C392.64,116.37,392.48,116.43,392.29,116.33Z" style="fill:#e1e1e1"/><path d="M392.3,111.31c-.2-.09-.35,0-.35.12v1.79a.62.62,0,0,0,.35.46c.2.09.36,0,.36-.13v-1.78A.61.61,0,0,0,392.3,111.31Zm0-3.56c-.19-.09-.35,0-.35.12v1.78a.61.61,0,0,0,.35.46c.2.1.36,0,.36-.12v-1.78A.61.61,0,0,0,392.31,107.75Zm0-3.57c-.19-.09-.35,0-.35.13v1.78a.61.61,0,0,0,.35.46c.2.09.36,0,.36-.12v-1.78A.6.6,0,0,0,392.32,104.18Zm0-3.56c-.19-.09-.35,0-.35.13v1.78a.62.62,0,0,0,.35.46c.2.09.36,0,.36-.13v-1.78A.59.59,0,0,0,392.33,100.62Zm0-3.56c-.19-.09-.35,0-.35.12V99a.6.6,0,0,0,.36.46c.19.1.35,0,.35-.12V97.52A.59.59,0,0,0,392.34,97.06Zm0-3.56c-.19-.1-.35,0-.35.12V95.4a.6.6,0,0,0,.36.46c.19.09.35,0,.35-.12V94A.6.6,0,0,0,392.35,93.5Z" style="fill:#e1e1e1"/><path d="M392.36,92.3a.61.61,0,0,1-.35-.46V91c0-.16.16-.21.35-.12a.6.6,0,0,1,.36.46v.88C392.71,92.34,392.55,92.39,392.36,92.3Z" style="fill:#e1e1e1"/><path d="M424.53,117.57a.6.6,0,0,1-.3-.29c-.1-.18,0-.33.13-.33h.92a.6.6,0,0,1,.48.33c.09.19,0,.34-.13.34h-.92A.41.41,0,0,1,424.53,117.57Z" style="fill:#e1e1e1"/><path d="M398.34,117.28a.64.64,0,0,0-.49-.34h-1.76c-.17,0-.23.15-.13.34a.7.7,0,0,0,.3.29.41.41,0,0,0,.18.05h1.77C398.37,117.62,398.43,117.46,398.34,117.28Zm3.53,0a.64.64,0,0,0-.48-.34h-1.77c-.17,0-.23.15-.13.34a.72.72,0,0,0,.31.29.41.41,0,0,0,.17.05h1.77C401.91,117.62,402,117.47,401.87,117.28Zm3.53,0a.62.62,0,0,0-.48-.34h-1.77c-.16,0-.22.15-.13.34a.78.78,0,0,0,.31.29.41.41,0,0,0,.18.05h1.76C405.44,117.62,405.5,117.47,405.4,117.28Zm3.54,0a.64.64,0,0,0-.48-.34h-1.77c-.17,0-.23.15-.13.34a.7.7,0,0,0,.3.29.41.41,0,0,0,.18.05h1.77C409,117.62,409,117.47,408.94,117.28Zm3.53,0a.64.64,0,0,0-.48-.34h-1.77c-.17,0-.23.15-.13.34a.72.72,0,0,0,.31.29.41.41,0,0,0,.17.05h1.77C412.51,117.62,412.57,117.47,412.47,117.28Zm3.53,0a.61.61,0,0,0-.48-.34h-1.77c-.16,0-.22.15-.13.34a.72.72,0,0,0,.31.29.41.41,0,0,0,.18.05h1.76C416,117.62,416.1,117.47,416,117.28Zm3.54,0a.64.64,0,0,0-.49-.34h-1.76c-.17,0-.23.16-.13.34a.6.6,0,0,0,.3.29.41.41,0,0,0,.18.05h1.77C419.57,117.62,419.63,117.47,419.54,117.28Zm3.53,0a.6.6,0,0,0-.48-.33h-1.77c-.17,0-.22.15-.13.33a.67.67,0,0,0,.31.29.41.41,0,0,0,.17.05h1.77C423.11,117.62,423.17,117.47,423.07,117.28Z" style="fill:#e1e1e1"/><path d="M393.58,117.57a.78.78,0,0,1-.31-.29c-.09-.19,0-.34.14-.34h.91a.64.64,0,0,1,.49.34c.09.18,0,.33-.13.33h-.92A.39.39,0,0,1,393.58,117.57Z" style="fill:#e1e1e1"/><path d="M426.83,92.3a.6.6,0,0,1-.36-.46V91c0-.16.16-.22.35-.13a.62.62,0,0,1,.35.46v.88C427.18,92.34,427,92.4,426.83,92.3Z" style="fill:#e1e1e1"/><path d="M426.76,111.32c-.19-.1-.35,0-.35.12v1.78a.59.59,0,0,0,.35.46c.19.09.35,0,.35-.12v-1.78A.59.59,0,0,0,426.76,111.32Zm0-3.57c-.2-.09-.36,0-.36.13v1.78a.59.59,0,0,0,.35.46c.19.09.35,0,.35-.13v-1.78A.62.62,0,0,0,426.78,107.75Zm0-3.56c-.2-.09-.36,0-.36.12v1.78a.57.57,0,0,0,.35.46c.19.1.35,0,.35-.12v-1.78A.61.61,0,0,0,426.79,104.19Zm0-3.56c-.2-.1-.36,0-.36.12v1.78a.61.61,0,0,0,.35.46c.19.09.35,0,.35-.12v-1.78A.61.61,0,0,0,426.8,100.63Zm0-3.57c-.2-.09-.36,0-.36.13V99a.61.61,0,0,0,.35.46c.2.09.35,0,.35-.12V97.52A.62.62,0,0,0,426.81,97.06Zm0-3.56c-.2-.09-.35,0-.36.12v1.79a.62.62,0,0,0,.35.46c.2.09.36,0,.36-.13V94A.61.61,0,0,0,426.82,93.5Z" style="fill:#e1e1e1"/><path d="M426.75,116.34a.61.61,0,0,1-.35-.46V115c0-.16.16-.21.36-.12a.61.61,0,0,1,.35.46v.87C427.11,116.38,427,116.43,426.75,116.34Z" style="fill:#e1e1e1"/><path d="M428.31,88.49a.58.58,0,0,0-.36-.16h-2.59a.16.16,0,0,0-.18.16V91a.48.48,0,0,0,.17.33.68.68,0,0,0,.18.13.38.38,0,0,0,.17,0h2.6a.16.16,0,0,0,.18-.17V88.83A.52.52,0,0,0,428.31,88.49Zm-.54,2.31h-1.89V89h1.89Z" style="fill:#e1e1e1"/><path d="M428.22,115.88a.52.52,0,0,0-.35-.17h-2.59a.16.16,0,0,0-.18.17v2.47a.54.54,0,0,0,.18.34.57.57,0,0,0,.18.12.41.41,0,0,0,.17,0h2.6a.16.16,0,0,0,.17-.17v-2.48A.5.5,0,0,0,428.22,115.88Zm-.53,2.3H425.8v-1.8h1.88Z" style="fill:#e1e1e1"/><path d="M393.84,88.49a.52.52,0,0,0-.35-.17h-2.6a.15.15,0,0,0-.17.17V91a.55.55,0,0,0,.17.34.94.94,0,0,0,.18.12.41.41,0,0,0,.18,0h2.59a.17.17,0,0,0,.18-.17V88.83A.5.5,0,0,0,393.84,88.49Zm-.54,2.3h-1.88V89h1.89v1.8Z" style="fill:#e1e1e1"/><path d="M393.76,115.87a.57.57,0,0,0-.35-.17h-2.6a.17.17,0,0,0-.18.17v2.48a.48.48,0,0,0,.17.33,1,1,0,0,0,.18.13.59.59,0,0,0,.17,0h2.6a.16.16,0,0,0,.18-.17v-2.47A.52.52,0,0,0,393.76,115.87Zm-.54,2.31h-1.89v-1.8h1.89v1.8Z" style="fill:#e1e1e1"/><path d="M428.09,105.27a1.31,1.31,0,1,1-1.3-1.44A1.37,1.37,0,0,1,428.09,105.27Z" style="fill:#e1e1e1"/><path d="M410.89,89.89a1.31,1.31,0,1,1-1.3-1.44A1.37,1.37,0,0,1,410.89,89.89Z" style="fill:#e1e1e1"/><path d="M410.81,117.27a1.31,1.31,0,1,1-1.3-1.43A1.38,1.38,0,0,1,410.81,117.27Z" style="fill:#e1e1e1"/><path d="M393.62,105.31a1.31,1.31,0,1,1-1.3-1.43A1.37,1.37,0,0,1,393.62,105.31Z" style="fill:#e1e1e1"/><path d="M388.05,122.75H431a1.48,1.48,0,0,1,1.52,1.46v2.56a1.51,1.51,0,0,1-1.54,1.46H388a1.49,1.49,0,0,1-1.53-1.46v-2.56A1.5,1.5,0,0,1,388.05,122.75Z" style="fill:#0050ff"/><path d="M217.11,172H239.7a3,3,0,0,1,3.06,2.92l0,5.12a3,3,0,0,1-3.07,2.92h-22.6a3,3,0,0,1-3-2.92l0-5.11A3,3,0,0,1,217.11,172Z" style="fill:none;stroke:#0050ff;stroke-linecap:round;stroke-linejoin:round;stroke-width:0.5px"/><path d="M219.61,174.93h2.68a1.5,1.5,0,0,1,1.53,1.46V179a1.5,1.5,0,0,1-1.53,1.46H219.6a1.5,1.5,0,0,1-1.53-1.46v-2.56A1.5,1.5,0,0,1,219.61,174.93Z" style="fill:none;stroke:#0050ff;stroke-linecap:round;stroke-linejoin:round;stroke-width:0.5px"/><path d="M227.31,176.43l11,0a.59.59,0,0,1,.61.58v1.14a.6.6,0,0,1-.62.58h-11a.6.6,0,0,1-.61-.59V177A.61.61,0,0,1,227.31,176.43Z" style="fill:#0050ff"/><path d="M257.43,172H280a3,3,0,0,1,3.05,2.92v5.11A3,3,0,0,1,280,183H257.4a3,3,0,0,1-3-2.92v-5.12A3,3,0,0,1,257.43,172Z" style="fill:none;stroke:#0050ff;stroke-linecap:round;stroke-linejoin:round;stroke-width:0.5px"/><path d="M259.94,174.94h2.68a1.49,1.49,0,0,1,1.53,1.46V179a1.5,1.5,0,0,1-1.54,1.45h-2.68a1.5,1.5,0,0,1-1.53-1.46V176.4A1.5,1.5,0,0,1,259.94,174.94Z" style="fill:none;stroke:#0050ff;stroke-linecap:round;stroke-linejoin:round;stroke-width:0.5px"/><path d="M267.63,176.44h11.05a.61.61,0,0,1,.61.59v1.13a.6.6,0,0,1-.61.59l-11.05,0a.6.6,0,0,1-.61-.58V177A.59.59,0,0,1,267.63,176.44Z" style="fill:#0050ff"/><path d="M297.76,172h22.6a3,3,0,0,1,3.05,2.92l0,5.12a3,3,0,0,1-3.07,2.92h-22.6a3,3,0,0,1-3.05-2.92l0-5.11A3,3,0,0,1,297.76,172Z" style="fill:none;stroke:#0050ff;stroke-linecap:round;stroke-linejoin:round;stroke-width:0.5px"/><path d="M300.26,174.94H303a1.49,1.49,0,0,1,1.52,1.46V179a1.5,1.5,0,0,1-1.53,1.46h-2.68a1.49,1.49,0,0,1-1.53-1.46V176.4A1.5,1.5,0,0,1,300.26,174.94Z" style="fill:none;stroke:#0050ff;stroke-linecap:round;stroke-linejoin:round;stroke-width:0.5px"/><path d="M308,176.45h11a.59.59,0,0,1,.61.58v1.14a.6.6,0,0,1-.62.58H308a.6.6,0,0,1-.61-.59V177A.6.6,0,0,1,308,176.45Z" style="fill:#00dfbf"/><path d="M338.08,172h22.6a3,3,0,0,1,3.05,2.92v5.12a3,3,0,0,1-3.07,2.91h-22.6a3,3,0,0,1-3.05-2.92V175A3,3,0,0,1,338.08,172Z" style="fill:none;stroke:#0050ff;stroke-linecap:round;stroke-linejoin:round;stroke-width:0.5px"/><path d="M340.59,175h2.68a1.49,1.49,0,0,1,1.53,1.46V179a1.51,1.51,0,0,1-1.54,1.46h-2.68A1.5,1.5,0,0,1,339,179v-2.56A1.5,1.5,0,0,1,340.59,175Z" style="fill:none;stroke:#0050ff;stroke-linecap:round;stroke-linejoin:round;stroke-width:0.5px"/><path d="M348.28,176.45l11.05,0a.59.59,0,0,1,.61.58v1.13a.6.6,0,0,1-.61.59l-11.05,0a.6.6,0,0,1-.61-.58V177A.6.6,0,0,1,348.28,176.45Z" style="fill:#0050ff"/><polygon points="122.06 196.65 196.74 196.66 196.5 273.34 121.83 273.32 122.06 196.65" style="fill:none;stroke:#e1e1e1;stroke-miterlimit:10"/><polygon points="127.79 202.13 190.98 202.14 190.86 240.47 127.67 240.47 127.79 202.13" style="fill:none;stroke:#e1e1e1;stroke-miterlimit:10"/><path d="M128.27,245.94h16a.61.61,0,0,1,.61.59v1.57a.59.59,0,0,1-.61.58h-16a.59.59,0,0,1-.61-.58v-1.57A.61.61,0,0,1,128.27,245.94Z" style="fill:#00dfbf"/><path d="M128.25,251.42h50.67a.59.59,0,0,1,.61.58v1.57a.61.61,0,0,1-.62.58H128.24a.6.6,0,0,1-.61-.59V252A.59.59,0,0,1,128.25,251.42Z" style="fill:#0050ff"/><path d="M128.22,262.37h50.67a.6.6,0,0,1,.61.59v1.57a.59.59,0,0,1-.61.58H128.21a.59.59,0,0,1-.61-.58V263A.61.61,0,0,1,128.22,262.37Z" style="fill:#0050ff"/><path d="M128.24,256.9H178.9a.6.6,0,0,1,.61.59v1.57a.6.6,0,0,1-.62.58H128.23a.59.59,0,0,1-.61-.58v-1.57A.6.6,0,0,1,128.24,256.9Z" style="fill:#0050ff"/><line x1="168.92" y1="227.13" x2="190.86" y2="240.47" style="fill:none;stroke:#e1e1e1;stroke-miterlimit:10"/><line x1="127.79" y1="202.13" x2="149.75" y2="215.48" style="fill:none;stroke:#e1e1e1;stroke-miterlimit:10"/><line x1="149.69" y1="227.13" x2="127.67" y2="240.47" style="fill:none;stroke:#e1e1e1;stroke-miterlimit:10"/><line x1="190.98" y1="202.14" x2="168.92" y2="215.49" style="fill:none;stroke:#e1e1e1;stroke-miterlimit:10"/><path d="M159.33,219.62a2.34,2.34,0,1,0,2.31,2.34A2.35,2.35,0,0,0,159.33,219.62Z" style="fill:#0050ff"/><path d="M164.3,217.56h-1.76V217a.69.69,0,0,0-.69-.7h-5a.69.69,0,0,0-.69.7v.61h-1.77a1.44,1.44,0,0,0-1.44,1.44l0,5.91a1.44,1.44,0,0,0,1.43,1.46h9.93a1.45,1.45,0,0,0,1.44-1.46l0-5.91A1.43,1.43,0,0,0,164.3,217.56Zm-5,7.91a3.51,3.51,0,1,1,3.47-3.51A3.48,3.48,0,0,1,159.31,225.47Z" style="fill:#0050ff"/><polygon points="213.97 196.66 288.65 196.68 288.42 273.35 213.74 273.34 213.97 196.66" style="fill:none;stroke:#e1e1e1;stroke-miterlimit:10"/><polygon points="219.7 202.14 282.89 202.15 282.77 240.49 219.58 240.48 219.7 202.14" style="fill:none;stroke:#e1e1e1;stroke-miterlimit:10"/><path d="M220.18,246h16a.6.6,0,0,1,.61.58v1.57a.6.6,0,0,1-.61.59h-16a.59.59,0,0,1-.61-.58v-1.57A.6.6,0,0,1,220.18,246Z" style="fill:#00dfbf"/><path d="M220.16,251.43h50.67a.59.59,0,0,1,.61.58v1.57a.6.6,0,0,1-.61.59H220.15a.59.59,0,0,1-.61-.58V252A.6.6,0,0,1,220.16,251.43Z" style="fill:#0050ff"/><path d="M220.13,262.39H270.8a.61.61,0,0,1,.61.59v1.57a.59.59,0,0,1-.61.58H220.12a.61.61,0,0,1-.61-.59V263A.61.61,0,0,1,220.13,262.39Z" style="fill:#0050ff"/><path d="M220.14,256.91h50.67a.59.59,0,0,1,.61.58v1.57a.6.6,0,0,1-.62.58H220.14a.59.59,0,0,1-.61-.59v-1.57A.6.6,0,0,1,220.14,256.91Z" style="fill:#0050ff"/><line x1="260.83" y1="227.15" x2="282.77" y2="240.49" style="fill:none;stroke:#e1e1e1;stroke-miterlimit:10"/><line x1="219.7" y1="202.14" x2="241.66" y2="215.49" style="fill:none;stroke:#e1e1e1;stroke-miterlimit:10"/><line x1="241.6" y1="227.15" x2="219.58" y2="240.48" style="fill:none;stroke:#e1e1e1;stroke-miterlimit:10"/><line x1="282.89" y1="202.15" x2="260.83" y2="215.51" style="fill:none;stroke:#e1e1e1;stroke-miterlimit:10"/><path d="M251.2,219.62a2.35,2.35,0,0,0-2.32,2.34,2.32,2.32,0,0,0,2.3,2.34,2.35,2.35,0,0,0,2.33-2.34A2.32,2.32,0,0,0,251.2,219.62Z" style="fill:#0050ff"/><path d="M256.17,217.56h-1.76V217a.69.69,0,0,0-.69-.7h-5a.69.69,0,0,0-.69.7v.61h-1.77A1.44,1.44,0,0,0,244.8,219l0,5.91a1.44,1.44,0,0,0,1.43,1.46h9.93a1.45,1.45,0,0,0,1.44-1.46l0-5.91A1.43,1.43,0,0,0,256.17,217.56Zm-5,7.91a3.51,3.51,0,1,1,3.47-3.51A3.48,3.48,0,0,1,251.18,225.47Z" style="fill:#0050ff"/><polygon points="305.88 196.68 380.56 196.69 380.32 273.36 305.65 273.35 305.88 196.68" style="fill:none;stroke:#e1e1e1;stroke-miterlimit:10"/><polygon points="311.61 202.16 374.8 202.16 374.68 240.5 311.49 240.49 311.61 202.16" style="fill:none;stroke:#e1e1e1;stroke-miterlimit:10"/><path d="M312.09,246h16a.6.6,0,0,1,.61.59v1.57a.59.59,0,0,1-.61.58h-16a.6.6,0,0,1-.61-.59v-1.57A.6.6,0,0,1,312.09,246Z" style="fill:#00dfbf"/><path d="M312.07,251.45h50.67a.6.6,0,0,1,.61.59v1.57a.59.59,0,0,1-.61.58H312.06a.59.59,0,0,1-.61-.58V252A.59.59,0,0,1,312.07,251.45Z" style="fill:#0050ff"/><path d="M312,262.4h50.67a.6.6,0,0,1,.61.58v1.57a.6.6,0,0,1-.61.59H312a.6.6,0,0,1-.61-.59V263A.6.6,0,0,1,312,262.4Z" style="fill:#0050ff"/><path d="M312.05,256.92h50.67a.59.59,0,0,1,.61.58v1.57a.6.6,0,0,1-.62.59H312.05a.59.59,0,0,1-.61-.58v-1.57A.6.6,0,0,1,312.05,256.92Z" style="fill:#0050ff"/><path d="M343.17,213.11a8.22,8.22,0,1,0,8.59,8.22A8.47,8.47,0,0,0,343.17,213.11Zm4.48,8.81-6.44,3.28c-.63.32-1.14-.08-1.14-.88l0-6c0-.8.8-1.05,1.77-.56l5.16,2.64C348,220.94,348.27,221.6,347.65,221.92Z" style="fill:#00dfbf"/><path d="M403.5,206.37l0,8a1.5,1.5,0,0,1-1.54,1.46h-8.42A1.49,1.49,0,0,1,392,214.4l0-8a1.5,1.5,0,0,1,1.53-1.45H402A1.48,1.48,0,0,1,403.5,206.37Z" style="fill:none;stroke:#e1e1e1;stroke-miterlimit:10"/><path d="M409.86,207.67l13.7,0a.59.59,0,0,1,.61.58v1.57a.6.6,0,0,1-.61.59l-13.7,0a.6.6,0,0,1-.61-.59v-1.57A.6.6,0,0,1,409.86,207.67Z" style="fill:#00dfbf"/><path d="M409.84,213.15l21.75,0a.6.6,0,0,1,.61.58v1.57a.59.59,0,0,1-.61.58l-21.75,0a.59.59,0,0,1-.61-.58v-1.57A.59.59,0,0,1,409.84,213.15Z" style="fill:#0050ff"/><path d="M403.45,225.51l0,8a1.5,1.5,0,0,1-1.53,1.46h-8.43a1.49,1.49,0,0,1-1.53-1.46l0-8a1.5,1.5,0,0,1,1.53-1.46h8.43A1.49,1.49,0,0,1,403.45,225.51Z" style="fill:none;stroke:#e1e1e1;stroke-miterlimit:10"/><path d="M409.8,226.81l13.7,0a.59.59,0,0,1,.61.58v1.57a.6.6,0,0,1-.62.59l-13.7,0a.6.6,0,0,1-.61-.59v-1.57A.61.61,0,0,1,409.8,226.81Z" style="fill:#00dfbf"/><path d="M409.78,232.29l21.75,0a.59.59,0,0,1,.61.58v1.57a.6.6,0,0,1-.61.59H409.77a.6.6,0,0,1-.61-.58v-1.57A.59.59,0,0,1,409.78,232.29Z" style="fill:#0050ff"/><path d="M403.39,244.65l0,8a1.5,1.5,0,0,1-1.53,1.46H393.4a1.48,1.48,0,0,1-1.52-1.46l0-8a1.5,1.5,0,0,1,1.54-1.46h8.42A1.49,1.49,0,0,1,403.39,244.65Z" style="fill:none;stroke:#e1e1e1;stroke-miterlimit:10"/><path d="M409.74,246l13.7,0a.59.59,0,0,1,.61.58v1.57a.6.6,0,0,1-.62.59l-13.7,0a.6.6,0,0,1-.61-.59v-1.57A.59.59,0,0,1,409.74,246Z" style="fill:#00dfbf"/><path d="M409.72,251.43l21.75,0a.59.59,0,0,1,.61.58v1.57a.61.61,0,0,1-.62.59H409.72a.59.59,0,0,1-.61-.58V252A.6.6,0,0,1,409.72,251.43Z" style="fill:#0050ff"/><polygon points="158.08 43.9 149.71 64.85 144.33 51.38 140.29 51.38 147.77 70.09 149.71 70.09 151.65 70.09 162.12 43.9 158.08 43.9" style="fill:#0050ff"/><path d="M29.11,61.06H79.33a3.31,3.31,0,0,0,3.38-3.22l.11-35.8a3.29,3.29,0,0,0-3.37-3.22H29.24A3.31,3.31,0,0,0,25.86,22l-.11,35.8A3.28,3.28,0,0,0,29.11,61.06Z" style="fill:none;stroke:#0050ff;stroke-linecap:round;stroke-linejoin:round;stroke-width:0.5px"/><path d="M33.87,23.48H49.48a1.64,1.64,0,0,1,1.68,1.6l0,14.89a1.65,1.65,0,0,1-1.69,1.61H33.81A1.64,1.64,0,0,1,32.13,40l0-14.89A1.65,1.65,0,0,1,33.87,23.48Z" style="fill:#0050ff"/><path d="M58.17,23.49H75.81a.66.66,0,0,1,.67.64v2a.67.67,0,0,1-.68.64H58.16a.66.66,0,0,1-.67-.65V24.13A.66.66,0,0,1,58.17,23.49Z" style="fill:#0050ff"/><path d="M58.15,30.92H75.79a.66.66,0,0,1,.67.64v2a.66.66,0,0,1-.67.64H58.14a.66.66,0,0,1-.67-.65V31.56A.67.67,0,0,1,58.15,30.92Z" style="fill:#0050ff"/><path d="M58.13,38.35H75.76a.66.66,0,0,1,.68.65v2a.66.66,0,0,1-.68.64H58.12a.66.66,0,0,1-.68-.64V39A.66.66,0,0,1,58.13,38.35Z" style="fill:#0050ff"/><path d="M32.79,45.73l42.95.05a.65.65,0,0,1,.67.65v2a.66.66,0,0,1-.68.64L32.78,49a.65.65,0,0,1-.67-.65v-2A.67.67,0,0,1,32.79,45.73Z" style="fill:#0050ff"/><path d="M32.77,53.16l42.95.06a.65.65,0,0,1,.67.64v2a.66.66,0,0,1-.68.64L32.76,56.4a.66.66,0,0,1-.68-.64v-2A.66.66,0,0,1,32.77,53.16Z" style="fill:#0050ff"/><path d="M22.81,13.18a1.12,1.12,0,0,1-.51-.48c-.16-.31-.06-.55.22-.55h1.69a1,1,0,0,1,.79.55c.16.31.07.56-.21.56H23.1A.67.67,0,0,1,22.81,13.18Z" style="fill:#e1e1e1"/><path d="M32.1,12.7a1,1,0,0,0-.79-.55H27.76c-.29,0-.39.24-.22.55a1.2,1.2,0,0,0,.51.49.77.77,0,0,0,.28.07h3.56C32.17,13.26,32.27,13,32.1,12.7Zm7.11,0a1.09,1.09,0,0,0-.81-.55H34.86c-.28,0-.38.24-.23.55a1.26,1.26,0,0,0,.51.49.82.82,0,0,0,.3.07H39C39.26,13.26,39.36,13,39.21,12.7Zm7.09,0a1,1,0,0,0-.79-.56H42c-.27,0-.37.25-.21.55a1.1,1.1,0,0,0,.51.49.64.64,0,0,0,.28.07h3.55C46.37,13.26,46.47,13,46.3,12.71Zm7.1,0a1,1,0,0,0-.8-.56H49.06c-.29,0-.38.25-.22.56a1.21,1.21,0,0,0,.5.48.66.66,0,0,0,.3.07h3.55C53.46,13.26,53.56,13,53.4,12.71Zm7.1,0a1,1,0,0,0-.8-.56H56.15c-.27,0-.37.25-.22.56a1.18,1.18,0,0,0,.51.48.66.66,0,0,0,.3.07h3.54C60.56,13.26,60.66,13,60.5,12.71Zm7.1,0a1.06,1.06,0,0,0-.79-.56H63.25c-.28,0-.38.25-.21.56a1.13,1.13,0,0,0,.51.48.58.58,0,0,0,.28.07h3.55C67.67,13.26,67.77,13,67.6,12.71Zm7.1,0a1,1,0,0,0-.8-.56H70.35c-.28,0-.37.25-.22.56a1.2,1.2,0,0,0,.51.49.8.8,0,0,0,.3.06h3.55C74.76,13.26,74.86,13,74.7,12.71Zm7.1,0a1,1,0,0,0-.8-.56H77.45c-.28,0-.37.25-.21.56a1.13,1.13,0,0,0,.5.49.66.66,0,0,0,.29.06h3.55C81.87,13.27,82,13,81.8,12.71Z" style="fill:#e1e1e1"/><path d="M84.84,13.19a1.06,1.06,0,0,1-.5-.48c-.16-.31-.07-.56.21-.55h1.69a1,1,0,0,1,.79.56c.17.31.07.56-.21.56H85.13A.67.67,0,0,1,84.84,13.19Z" style="fill:#e1e1e1"/><path d="M20.06,65.13a1,1,0,0,1-.59-.76V62.76c0-.27.26-.36.58-.21a1,1,0,0,1,.59.77v1.6C20.64,65.19,20.38,65.28,20.06,65.13Z" style="fill:#e1e1e1"/><path d="M20.08,56.39c-.32-.16-.58-.06-.58.21v3.08a1,1,0,0,0,.58.76c.32.15.58.06.58-.21V57.15A1,1,0,0,0,20.08,56.39Zm0-6.17c-.32-.16-.58-.06-.58.21v3.08a1,1,0,0,0,.58.76c.32.16.59.07.59-.21V51A1,1,0,0,0,20.1,50.22Zm0-6.16c-.33-.16-.58-.07-.58.2v3.08a1,1,0,0,0,.58.76c.32.15.59.07.59-.2V44.82A1,1,0,0,0,20.12,44.06Zm0-6.17c-.32-.16-.59-.07-.59.2v3.08a1,1,0,0,0,.58.76c.32.15.59.07.59-.2V38.65A1,1,0,0,0,20.14,37.89Zm0-6.17c-.32-.16-.59-.06-.59.21V35a1,1,0,0,0,.59.76c.32.16.58.06.58-.21V32.48A1,1,0,0,0,20.16,31.72Zm0-6.17c-.33-.15-.58-.06-.6.21v3.08a1,1,0,0,0,.58.76c.33.16.58.07.59-.21V26.32A1,1,0,0,0,20.18,25.55Zm0-6.16c-.32-.16-.58-.07-.58.2v3.08a1,1,0,0,0,.58.76c.32.16.58.07.58-.2V20.15A1,1,0,0,0,20.19,19.39Z" style="fill:#e1e1e1"/><path d="M20.2,17.27a1,1,0,0,1-.58-.76V14.9c0-.27.27-.36.59-.21a1,1,0,0,1,.58.76v1.61C20.78,17.33,20.52,17.42,20.2,17.27Z" style="fill:#e1e1e1"/><path d="M84.73,67.61a1.24,1.24,0,0,1-.51-.48c-.16-.31-.06-.56.22-.56h1.69a1,1,0,0,1,.79.56c.16.31.07.55-.21.55H85A.65.65,0,0,1,84.73,67.61Z" style="fill:#e1e1e1"/><path d="M32,67.12a1.06,1.06,0,0,0-.8-.55H27.59c-.27,0-.37.24-.22.55a1.18,1.18,0,0,0,.51.48.67.67,0,0,0,.3.08h3.55C32,67.68,32.1,67.43,32,67.12Zm7.1,0a1,1,0,0,0-.8-.55H34.7c-.27,0-.37.24-.22.55a1.18,1.18,0,0,0,.51.48.67.67,0,0,0,.3.08h3.54C39.11,67.68,39.21,67.43,39.05,67.12Zm7.11,0a1.06,1.06,0,0,0-.8-.55H41.81c-.29,0-.38.24-.22.55a1.21,1.21,0,0,0,.5.48.67.67,0,0,0,.29.08h3.56C46.21,67.68,46.31,67.43,46.16,67.12Zm7.11,0a1.09,1.09,0,0,0-.81-.55H48.91c-.28,0-.37.24-.22.55a1.18,1.18,0,0,0,.51.48.67.67,0,0,0,.29.08h3.56C53.32,67.68,53.42,67.43,53.27,67.12Zm7.09,0a1,1,0,0,0-.79-.56H56c-.29,0-.39.25-.22.55a1.12,1.12,0,0,0,.51.48.55.55,0,0,0,.28.08h3.56C60.43,67.68,60.53,67.43,60.36,67.13Zm7.11,0a1,1,0,0,0-.8-.56H63.13c-.29,0-.39.25-.22.56a1.19,1.19,0,0,0,.5.47.55.55,0,0,0,.29.08h3.56C67.53,67.68,67.63,67.44,67.47,67.13Zm7.1,0a1,1,0,0,0-.79-.56H70.22c-.27,0-.37.25-.21.56a1.11,1.11,0,0,0,.51.47.55.55,0,0,0,.29.08h3.56C74.64,67.68,74.74,67.44,74.57,67.13Zm7.11,0a1,1,0,0,0-.79-.56H77.33c-.28,0-.38.25-.21.56a1.18,1.18,0,0,0,.51.48.61.61,0,0,0,.28.07h3.55C81.75,67.68,81.85,67.44,81.68,67.13Z" style="fill:#e1e1e1"/><path d="M22.64,67.6a1.22,1.22,0,0,1-.5-.48c-.16-.31-.07-.56.21-.56H24a1.07,1.07,0,0,1,.8.56c.16.31.06.56-.22.56H22.94A.84.84,0,0,1,22.64,67.6Z" style="fill:#e1e1e1"/><path d="M89.16,17.28a1,1,0,0,1-.58-.76V14.91c0-.27.27-.36.59-.21a1,1,0,0,1,.58.76v1.61C89.74,17.34,89.48,17.43,89.16,17.28Z" style="fill:#e1e1e1"/><path d="M89,56.4c-.32-.16-.58-.07-.58.2v3.08a1,1,0,0,0,.58.76c.32.15.58.07.58-.2V57.16A1,1,0,0,0,89,56.4Zm0-6.17c-.32-.16-.58-.06-.58.21v3.08a1,1,0,0,0,.58.76c.32.16.59.06.59-.21V51A1,1,0,0,0,89.06,50.23Zm0-6.16c-.33-.16-.58-.07-.58.2v3.08a1,1,0,0,0,.58.76c.32.16.59.07.59-.21V44.83A.94.94,0,0,0,89.08,44.07Zm0-6.17c-.32-.16-.59-.07-.59.2v3.08a1,1,0,0,0,.58.76c.32.16.59.07.59-.2V38.66A1,1,0,0,0,89.1,37.9Zm0-6.17c-.32-.16-.59-.07-.59.2V35a1,1,0,0,0,.59.76c.32.16.58.07.58-.2V32.49A1,1,0,0,0,89.12,31.73Zm0-6.17c-.33-.16-.58-.06-.58.21v3.08a1,1,0,0,0,.57.76c.33.16.58.06.59-.21V26.32A1,1,0,0,0,89.14,25.56Zm0-6.16c-.32-.16-.58-.07-.58.2v3.08a1,1,0,0,0,.58.76c.32.16.58.07.58-.2l0-3.08A1,1,0,0,0,89.15,19.4Z" style="fill:#e1e1e1"/><path d="M89,65.14a1,1,0,0,1-.58-.77v-1.6c0-.27.26-.36.59-.21a1,1,0,0,1,.58.76v1.61C89.6,65.2,89.34,65.29,89,65.14Z" style="fill:#e1e1e1"/><path d="M92.07,10a1,1,0,0,0-.58-.28H86.3A.27.27,0,0,0,86,10V14.9a.87.87,0,0,0,.29.57.91.91,0,0,0,.29.19.55.55,0,0,0,.29.08h5.19c.19,0,.3-.1.3-.27v-5A.83.83,0,0,0,92.07,10Zm-.89,4.67h-4V10.79h4Z" style="fill:#e1e1e1"/><path d="M91.91,64.37a.93.93,0,0,0-.59-.27H86.13a.27.27,0,0,0-.3.27v4.95a.83.83,0,0,0,.29.56,1,1,0,0,0,.3.2.55.55,0,0,0,.28.08h5.19a.27.27,0,0,0,.3-.28V64.94A.9.9,0,0,0,91.91,64.37ZM91,69.05H87V65.21h4Z" style="fill:#e1e1e1"/><path d="M23.11,10a1,1,0,0,0-.58-.28H17.34A.27.27,0,0,0,17,10v4.94a.83.83,0,0,0,.29.56.8.8,0,0,0,.29.2.55.55,0,0,0,.29.08h5.19a.26.26,0,0,0,.3-.28V10.51A.83.83,0,0,0,23.11,10Zm-.89,4.67h-4V10.78h4v3.84Z" style="fill:#e1e1e1"/><path d="M23,64.36a1,1,0,0,0-.59-.27H17.17a.28.28,0,0,0-.3.27v5a.83.83,0,0,0,.29.56,1,1,0,0,0,.3.2.55.55,0,0,0,.28.08h5.19a.26.26,0,0,0,.3-.28v-5A.9.9,0,0,0,23,64.36ZM22.05,69H18V65.2h4V69Z" style="fill:#e1e1e1"/><path d="M91.7,43a2.63,2.63,0,1,1-2.61-2.88A2.76,2.76,0,0,1,91.7,43Z" style="fill:#e1e1e1"/><path d="M57.28,12.7a2.62,2.62,0,1,1-5.22,0,2.62,2.62,0,1,1,5.22,0Z" style="fill:#e1e1e1"/><path d="M57.12,67.11a2.63,2.63,0,1,1-2.61-2.88A2.77,2.77,0,0,1,57.12,67.11Z" style="fill:#e1e1e1"/><path d="M22.73,43a2.76,2.76,0,0,1-2.62,2.88,2.89,2.89,0,0,1,0-5.76A2.74,2.74,0,0,1,22.73,43Z" style="fill:#e1e1e1"/><path d="M28.89,133.34H79.11a3.31,3.31,0,0,0,3.38-3.22l.11-35.8a3.29,3.29,0,0,0-3.36-3.22H29a3.31,3.31,0,0,0-3.38,3.22l-.11,35.8A3.28,3.28,0,0,0,28.89,133.34Z" style="fill:none;stroke:#0050ff;stroke-linecap:round;stroke-linejoin:round;stroke-width:0.5px"/><path d="M54.09,103.18a9.06,9.06,0,1,0,9.47,9A9.3,9.3,0,0,0,54.09,103.18ZM59,112.87l-7.1,3.62c-.69.35-1.24-.08-1.24-1l0-6.56c0-.89.87-1.16,1.94-.61l5.68,2.89C59.41,111.79,59.72,112.52,59,112.87Z" style="fill:#0050ff"/><path d="M22.59,85.47a1.2,1.2,0,0,1-.51-.49c-.16-.31-.06-.55.22-.55H24a1.07,1.07,0,0,1,.8.55c.16.31.06.56-.22.56H22.88A.82.82,0,0,1,22.59,85.47Z" style="fill:#e1e1e1"/><path d="M31.88,85a1,1,0,0,0-.79-.56H27.54c-.29,0-.38.25-.22.56a1.16,1.16,0,0,0,.51.47.53.53,0,0,0,.29.08h3.55C32,85.54,32.05,85.3,31.88,85ZM39,85a1.06,1.06,0,0,0-.81-.56H34.63c-.27,0-.37.25-.2.56a1.14,1.14,0,0,0,.49.48.69.69,0,0,0,.3.07h3.55C39.05,85.54,39.14,85.3,39,85Zm7.09,0a1.07,1.07,0,0,0-.79-.56H41.74c-.28,0-.38.25-.22.56a1.18,1.18,0,0,0,.51.48.64.64,0,0,0,.28.07h3.56C46.15,85.54,46.25,85.3,46.08,85Zm7.11,0a1.08,1.08,0,0,0-.81-.56H48.84c-.28,0-.38.25-.22.56a1.21,1.21,0,0,0,.5.48.66.66,0,0,0,.3.07H53C53.24,85.55,53.34,85.3,53.19,85Zm7.09,0a1.05,1.05,0,0,0-.8-.56H55.93c-.27,0-.37.25-.21.56a1.16,1.16,0,0,0,.5.48.71.71,0,0,0,.3.08h3.54C60.35,85.55,60.44,85.3,60.28,85Zm7.1,0a1,1,0,0,0-.79-.55H63c-.29,0-.39.25-.22.56a1.18,1.18,0,0,0,.51.48.6.6,0,0,0,.28.08h3.56C67.45,85.55,67.55,85.3,67.38,85Zm7.11,0a1.06,1.06,0,0,0-.81-.55H70.13c-.27,0-.37.24-.22.55a1.18,1.18,0,0,0,.51.48.67.67,0,0,0,.3.08h3.55C74.54,85.55,74.64,85.3,74.49,85Zm7.09,0a1,1,0,0,0-.79-.55H77.23c-.28,0-.37.24-.21.55a1.13,1.13,0,0,0,.51.48.67.67,0,0,0,.28.08h3.55C81.65,85.55,81.74,85.3,81.58,85Z" style="fill:#e1e1e1"/><path d="M84.62,85.47a1.1,1.1,0,0,1-.5-.48c-.16-.31-.07-.55.21-.56H86a1.07,1.07,0,0,1,.8.56c.16.31.06.56-.22.56H84.91A.67.67,0,0,1,84.62,85.47Z" style="fill:#e1e1e1"/><path d="M19.84,137.41a1,1,0,0,1-.58-.76V135c0-.27.26-.36.59-.21a1,1,0,0,1,.58.77v1.6C20.42,137.47,20.16,137.56,19.84,137.41Z" style="fill:#e1e1e1"/><path d="M19.86,128.66c-.32-.14-.58,0-.58.21V132a1,1,0,0,0,.57.76c.33.15.58.06.58-.21v-3.08A1,1,0,0,0,19.86,128.66Zm0-6.16c-.32-.15-.58-.06-.58.2v3.09a1,1,0,0,0,.58.76c.32.15.59.06.59-.2v-3.09A1,1,0,0,0,19.88,122.5Zm0-6.17c-.32-.15-.58-.06-.58.2v3.09a1,1,0,0,0,.58.76c.32.15.59.06.59-.2v-3.09A1,1,0,0,0,19.9,116.33Zm0-6.17c-.32-.15-.59,0-.59.21v3.09a1,1,0,0,0,.57.76c.33.15.59,0,.59-.21v-3.09A1,1,0,0,0,19.92,110.16Zm0-6.15c-.32-.16-.59-.07-.59.19v3.09a1,1,0,0,0,.59.76c.32.15.58.06.58-.21v-3.07A1,1,0,0,0,19.94,104Zm0-6.17c-.32-.16-.58-.07-.58.19l0,3.09a1,1,0,0,0,.59.76c.32.15.58.06.58-.2V98.6A1,1,0,0,0,20,97.84Zm0-6.17c-.32-.16-.58-.07-.58.2V95a1,1,0,0,0,.57.77c.33.14.58,0,.58-.21V92.43A1,1,0,0,0,20,91.67Z" style="fill:#e1e1e1"/><path d="M20,89.55a1,1,0,0,1-.58-.76V87.18c0-.27.27-.36.59-.21a1,1,0,0,1,.58.77v1.6C20.57,89.61,20.3,89.7,20,89.55Z" style="fill:#e1e1e1"/><path d="M84.51,139.89a1.24,1.24,0,0,1-.51-.48c-.16-.31-.06-.56.22-.56h1.69a1.05,1.05,0,0,1,.79.56c.16.31.07.56-.21.56H84.8A.84.84,0,0,1,84.51,139.89Z" style="fill:#e1e1e1"/><path d="M31.73,139.41a1.06,1.06,0,0,0-.8-.57H27.37c-.27,0-.37.25-.21.55a1.08,1.08,0,0,0,.5.49.75.75,0,0,0,.3.08h3.55C31.79,140,31.88,139.7,31.73,139.41Zm7.1,0a1,1,0,0,0-.8-.57H34.48c-.27,0-.37.26-.22.57a1.22,1.22,0,0,0,.51.47.67.67,0,0,0,.29.08h3.55C38.9,140,39,139.71,38.83,139.41Zm7.11,0a1.1,1.1,0,0,0-.8-.57H41.59c-.28,0-.38.26-.22.57a1.25,1.25,0,0,0,.5.47.67.67,0,0,0,.3.08h3.55C46,140,46.09,139.71,45.94,139.41Zm7.11,0a1.09,1.09,0,0,0-.81-.57H48.69c-.28,0-.37.26-.22.57a1.24,1.24,0,0,0,.51.48.82.82,0,0,0,.3.07h3.55C53.1,140,53.2,139.71,53.05,139.41Zm7.1,0a1.07,1.07,0,0,0-.8-.57H55.8c-.29,0-.37.26-.22.57a1.24,1.24,0,0,0,.51.48.82.82,0,0,0,.29.07h3.55C60.21,140,60.31,139.71,60.15,139.41Zm7.1,0a1.07,1.07,0,0,0-.8-.57H62.91c-.29,0-.38.26-.22.57a1.22,1.22,0,0,0,.5.48,1.15,1.15,0,0,0,.29.08H67C67.31,140,67.41,139.71,67.25,139.41Zm7.1,0a1,1,0,0,0-.79-.57H70c-.28,0-.38.26-.22.57a1.24,1.24,0,0,0,.51.48,1.15,1.15,0,0,0,.29.08h3.56C74.42,140,74.52,139.71,74.35,139.41Zm7.11,0a1,1,0,0,0-.79-.56H77.11c-.28,0-.38.26-.21.57a1.18,1.18,0,0,0,.51.48.8.8,0,0,0,.28.08h3.56C81.53,140,81.63,139.71,81.46,139.41Z" style="fill:#e1e1e1"/><path d="M22.43,139.88a1.18,1.18,0,0,1-.51-.48c-.16-.31-.06-.56.22-.56h1.68a1.05,1.05,0,0,1,.8.56c.16.31.06.56-.22.56H22.72A.74.74,0,0,1,22.43,139.88Z" style="fill:#e1e1e1"/><path d="M88.94,89.56a1,1,0,0,1-.58-.76V87.19c0-.27.26-.36.58-.21a1,1,0,0,1,.58.76v1.61C89.53,89.62,89.26,89.71,88.94,89.56Z" style="fill:#e1e1e1"/><path d="M88.82,128.67c-.32-.15-.58-.06-.58.21V132a1,1,0,0,0,.57.76c.33.15.58.05.58-.21v-3.09A1,1,0,0,0,88.82,128.67Zm0-6.16c-.32-.15-.58-.06-.58.2v3.09a1,1,0,0,0,.58.76c.32.15.59.06.59-.21v-3.07A1,1,0,0,0,88.84,122.51Zm0-6.16c-.31-.16-.58-.07-.58.19v3.09a1,1,0,0,0,.58.76c.32.15.59.06.59-.2v-3.08A1,1,0,0,0,88.86,116.35Zm0-6.17c-.32-.16-.59-.07-.59.2v3.08a1,1,0,0,0,.57.77c.34.14.59,0,.59-.21v-3.08A1,1,0,0,0,88.88,110.18Zm0-6.17c-.32-.16-.59-.06-.59.2v3.09a1,1,0,0,0,.59.76c.32.15.58,0,.58-.21v-3.08A1,1,0,0,0,88.9,104Zm0-6.16c-.32-.16-.58-.07-.58.19l0,3.09a1,1,0,0,0,.59.76c.32.15.58.07.58-.2V98.61A1,1,0,0,0,88.92,97.85Zm0-6.17c-.32-.16-.58-.07-.58.19V95a1,1,0,0,0,.57.76c.33.15.58.07.58-.2V92.44A1,1,0,0,0,88.93,91.68Z" style="fill:#e1e1e1"/><path d="M88.8,137.42a1,1,0,0,1-.58-.77v-1.6c0-.27.26-.36.59-.21a1,1,0,0,1,.58.76v1.61C89.38,137.48,89.12,137.57,88.8,137.42Z" style="fill:#e1e1e1"/><path d="M91.85,82.25a.89.89,0,0,0-.58-.29H86.08a.26.26,0,0,0-.29.27v5a.79.79,0,0,0,.3.55.94.94,0,0,0,.28.21.67.67,0,0,0,.3.08h5.19a.27.27,0,0,0,.29-.29l0-4.94A.79.79,0,0,0,91.85,82.25ZM91,86.91h-4V83.07h4Z" style="fill:#e1e1e1"/><path d="M91.69,136.65a1,1,0,0,0-.59-.27H85.91a.26.26,0,0,0-.28.27l0,2.2v2.75a.85.85,0,0,0,.3.56,1.42,1.42,0,0,0,.29.21.82.82,0,0,0,.29.07h5.19a.26.26,0,0,0,.29-.28l0-4.95A.87.87,0,0,0,91.69,136.65Zm-.9,4.67h-4v-3.83h4Z" style="fill:#e1e1e1"/><path d="M22.89,82.23a1,1,0,0,0-.58-.28H17.12a.27.27,0,0,0-.29.28l0,5a.79.79,0,0,0,.3.55.94.94,0,0,0,.28.21.67.67,0,0,0,.3.08h5.19a.27.27,0,0,0,.29-.29v-5A.83.83,0,0,0,22.89,82.23ZM22,86.91H18V83.07h4v3.84Z" style="fill:#e1e1e1"/><path d="M22.72,136.65a.85.85,0,0,0-.58-.29H17a.26.26,0,0,0-.28.28l0,5a.83.83,0,0,0,.3.55,1.42,1.42,0,0,0,.29.21,1.82,1.82,0,0,0,.29.08h5.19a.27.27,0,0,0,.29-.29v-5A.83.83,0,0,0,22.72,136.65Zm-.89,4.66h-4v-3.83h4v3.83Z" style="fill:#e1e1e1"/><path d="M91.48,115.25a2.63,2.63,0,1,1-2.61-2.88A2.76,2.76,0,0,1,91.48,115.25Z" style="fill:#e1e1e1"/><path d="M57.06,85a2.62,2.62,0,1,1-2.6-2.88A2.75,2.75,0,0,1,57.06,85Z" style="fill:#e1e1e1"/><path d="M56.9,139.39a2.63,2.63,0,1,1-2.6-2.88A2.76,2.76,0,0,1,56.9,139.39Z" style="fill:#e1e1e1"/><path d="M22.52,115.31a2.77,2.77,0,0,1-2.63,2.88,2.89,2.89,0,0,1,0-5.76A2.76,2.76,0,0,1,22.52,115.31Z" style="fill:#e1e1e1"/><path d="M28.68,205.62H78.89a3.31,3.31,0,0,0,3.38-3.22l.11-35.8A3.28,3.28,0,0,0,79,163.39H28.8a3.31,3.31,0,0,0-3.38,3.22l-.11,35.81A3.29,3.29,0,0,0,28.68,205.62Z" style="fill:none;stroke:#0050ff;stroke-linecap:round;stroke-linejoin:round;stroke-width:0.5px"/><polygon points="31.75 199.85 76.46 199.85 67.97 183.22 62.99 190.64 64.83 195.26 49.36 174.33 31.75 199.85" style="fill:#0050ff"/><path d="M63,172a3.6,3.6,0,1,0,3.77,3.6A3.7,3.7,0,0,0,63,172Z" style="fill:#0050ff"/><path d="M22.37,157.75a1.13,1.13,0,0,1-.5-.49c-.16-.31-.07-.55.21-.55h1.69a1.07,1.07,0,0,1,.8.55c.16.31.06.56-.22.56H22.66A.82.82,0,0,1,22.37,157.75Z" style="fill:#e1e1e1"/><path d="M31.67,157.27a1.1,1.1,0,0,0-.8-.57H27.32c-.28,0-.38.26-.22.57a1.24,1.24,0,0,0,.51.48,1,1,0,0,0,.29.08h3.55C31.73,157.83,31.83,157.57,31.67,157.27Zm7.1,0a1.1,1.1,0,0,0-.8-.57H34.41c-.27,0-.37.26-.2.57a1.16,1.16,0,0,0,.5.48.84.84,0,0,0,.29.08h3.55C38.83,157.83,38.93,157.57,38.77,157.27Zm7.09,0a1,1,0,0,0-.79-.56H41.52c-.29,0-.37.26-.22.57a1.24,1.24,0,0,0,.51.48.84.84,0,0,0,.3.08h3.54C45.93,157.83,46,157.57,45.86,157.27Zm7.11,0a1.08,1.08,0,0,0-.81-.56H48.62c-.28,0-.38.25-.21.56a1.14,1.14,0,0,0,.49.48.84.84,0,0,0,.3.08h3.55C53,157.83,53.12,157.57,53,157.27Zm7.09,0a1,1,0,0,0-.79-.56H55.71c-.27,0-.37.25-.21.56a1.18,1.18,0,0,0,.51.48.84.84,0,0,0,.29.08h3.54C60.13,157.83,60.23,157.57,60.06,157.27Zm7.1,0a1.05,1.05,0,0,0-.79-.56H62.82c-.29,0-.38.25-.22.56a1.24,1.24,0,0,0,.51.48.74.74,0,0,0,.29.08H67C67.23,157.83,67.32,157.57,67.16,157.27Zm7.11,0a1.07,1.07,0,0,0-.81-.57H69.91c-.27,0-.37.25-.21.56a1.11,1.11,0,0,0,.5.48.59.59,0,0,0,.3.08h3.55C74.33,157.83,74.42,157.58,74.27,157.28Zm7.09,0a1.06,1.06,0,0,0-.79-.57H77c-.29,0-.39.26-.22.57a1.22,1.22,0,0,0,.51.47.55.55,0,0,0,.28.08h3.55C81.43,157.83,81.53,157.58,81.36,157.28Z" style="fill:#e1e1e1"/><path d="M84.4,157.76a1.18,1.18,0,0,1-.5-.49c-.16-.3-.06-.55.22-.55H85.8a1.06,1.06,0,0,1,.8.55c.16.31.06.56-.22.56H84.7A.82.82,0,0,1,84.4,157.76Z" style="fill:#e1e1e1"/><path d="M19.62,209.69a1,1,0,0,1-.58-.76v-1.61c0-.27.27-.36.59-.2a1,1,0,0,1,.58.76v1.6C20.2,209.75,19.94,209.84,19.62,209.69Z" style="fill:#e1e1e1"/><path d="M19.65,201c-.33-.15-.58-.07-.58.2v3.08a1,1,0,0,0,.58.76c.32.16.58.07.58-.19v-3.09A1,1,0,0,0,19.65,201Zm0-6.17c-.32-.15-.58-.07-.58.21v3.07a1,1,0,0,0,.58.76c.32.16.58.07.58-.19l0-3.09A1,1,0,0,0,19.66,194.78Zm0-6.17c-.32-.15-.58-.05-.58.21v3.09a1,1,0,0,0,.58.76c.32.15.59.05.59-.21v-3.09A1,1,0,0,0,19.68,188.61Zm0-6.16c-.33-.15-.59-.06-.6.2v3.09a1,1,0,0,0,.59.76c.31.15.58.06.58-.2v-3.09A1,1,0,0,0,19.71,182.45Zm0-6.17c-.32-.15-.59-.06-.59.2v3.09a1,1,0,0,0,.59.76c.32.15.58.06.58-.2V177A1,1,0,0,0,19.72,176.28Zm0-6.17c-.32-.15-.59-.06-.59.21v3.08a1,1,0,0,0,.59.77c.32.15.58.05.58-.21v-3.09A1,1,0,0,0,19.74,170.11Zm0-6.17c-.33-.15-.58-.05-.58.21v3.09a1,1,0,0,0,.58.76c.32.15.58.05.58-.21V164.7A1,1,0,0,0,19.76,163.94Z" style="fill:#e1e1e1"/><path d="M19.76,161.83a1,1,0,0,1-.58-.76v-1.61c0-.27.26-.36.58-.2a1,1,0,0,1,.58.76v1.6C20.35,161.89,20.09,162,19.76,161.83Z" style="fill:#e1e1e1"/><path d="M84.29,212.17a1.24,1.24,0,0,1-.51-.48c-.16-.31-.06-.56.22-.56h1.69a1.08,1.08,0,0,1,.8.56c.16.31.06.56-.22.56H84.58A.84.84,0,0,1,84.29,212.17Z" style="fill:#e1e1e1"/><path d="M31.51,211.68a1.07,1.07,0,0,0-.8-.56H27.15c-.27,0-.37.25-.21.56a1.15,1.15,0,0,0,.51.49.79.79,0,0,0,.29.06h3.55C31.57,212.23,31.67,212,31.51,211.68Zm7.1,0a1.06,1.06,0,0,0-.79-.56H34.26c-.28,0-.37.25-.21.56a1.13,1.13,0,0,0,.5.49.83.83,0,0,0,.29.06h3.55C38.68,212.24,38.78,212,38.61,211.68Zm7.11,0a1.09,1.09,0,0,0-.79-.56H41.37c-.28,0-.38.25-.21.56a1.16,1.16,0,0,0,.49.49,1.18,1.18,0,0,0,.3.07H45.5C45.78,212.24,45.87,212,45.72,211.68Zm7.11,0a1,1,0,0,0-.8-.55H48.47c-.27,0-.37.25-.21.56a1.13,1.13,0,0,0,.5.49.87.87,0,0,0,.3.07H52.6C52.89,212.24,53,212,52.83,211.68Zm7.1,0a1,1,0,0,0-.8-.55H55.58c-.28,0-.38.25-.22.56a1.2,1.2,0,0,0,.51.49.77.77,0,0,0,.29.07h3.55C60,212.24,60.09,212,59.93,211.68Zm7.11,0a1.06,1.06,0,0,0-.81-.55H62.69c-.28,0-.38.24-.22.55a1.18,1.18,0,0,0,.5.49.82.82,0,0,0,.3.07h3.55C67.09,212.24,67.19,212,67,211.68Zm7.11,0a1.06,1.06,0,0,0-.81-.55H69.79c-.28,0-.37.24-.22.55a1.2,1.2,0,0,0,.51.49.82.82,0,0,0,.29.07h3.55C74.2,212.24,74.3,212,74.15,211.68Zm7.09,0a1,1,0,0,0-.79-.55H76.9c-.29,0-.39.24-.22.55a1.2,1.2,0,0,0,.51.49.58.58,0,0,0,.28.07H81C81.31,212.24,81.41,212,81.24,211.68Z" style="fill:#e1e1e1"/><path d="M22.21,212.16a1.18,1.18,0,0,1-.51-.48c-.16-.31-.06-.56.22-.56h1.69a1.05,1.05,0,0,1,.79.56c.16.31.07.56-.21.56H22.5A.84.84,0,0,1,22.21,212.16Z" style="fill:#e1e1e1"/><path d="M88.72,161.84a1,1,0,0,1-.58-.76v-1.61c0-.27.26-.36.58-.2a1,1,0,0,1,.58.76v1.6C89.31,161.9,89.05,162,88.72,161.84Z" style="fill:#e1e1e1"/><path d="M88.61,201c-.33-.15-.58-.06-.58.2v3.09a1,1,0,0,0,.58.76c.32.15.58.06.58-.2v-3.09A1,1,0,0,0,88.61,201Zm0-6.17c-.32-.15-.58-.06-.58.2v3.09a1,1,0,0,0,.58.76c.32.15.59.06.59-.2v-3.09A1,1,0,0,0,88.62,194.79Zm0-6.17c-.32-.15-.58-.06-.58.21v3.09a1,1,0,0,0,.58.76c.32.15.59,0,.59-.21v-3.09A1,1,0,0,0,88.64,188.62Zm0-6.17c-.33-.15-.59,0-.6.21v3.09a1,1,0,0,0,.59.76c.31.15.58.06.58-.21v-3.08A1,1,0,0,0,88.67,182.45Zm0-6.16c-.32-.15-.59-.06-.59.2v3.09a1,1,0,0,0,.59.76c.32.15.58.06.58-.2v-3.09A1,1,0,0,0,88.68,176.29Zm0-6.17c-.32-.15-.58-.06-.58.21l0,3.08a1,1,0,0,0,.59.76c.32.15.58.06.58-.2v-3.09A1,1,0,0,0,88.7,170.12Zm0-6.17c-.33-.15-.58,0-.58.21v3.09a1,1,0,0,0,.58.76c.32.15.58.05.58-.21v-3.09A1,1,0,0,0,88.72,164Z" style="fill:#e1e1e1"/><path d="M88.58,209.7a1,1,0,0,1-.58-.76v-1.61c0-.27.27-.36.59-.21a1,1,0,0,1,.58.77v1.6C89.16,209.76,88.9,209.85,88.58,209.7Z" style="fill:#e1e1e1"/><path d="M91.63,154.52a.91.91,0,0,0-.58-.27H85.86a.26.26,0,0,0-.29.27v4.95a.83.83,0,0,0,.3.56,1.1,1.1,0,0,0,.28.2.9.9,0,0,0,.3.08h5.19a.27.27,0,0,0,.29-.28l0-5A.85.85,0,0,0,91.63,154.52Zm-.88,4.67h-4v-3.83h4Z" style="fill:#e1e1e1"/><path d="M91.46,208.94a.85.85,0,0,0-.58-.29H85.69a.27.27,0,0,0-.29.29v4.95a.83.83,0,0,0,.3.55,1.42,1.42,0,0,0,.29.21.87.87,0,0,0,.29.07h5.19a.27.27,0,0,0,.29-.28l0-4.95A.79.79,0,0,0,91.46,208.94Zm-.88,4.67h-4v-3.83h4Z" style="fill:#e1e1e1"/><path d="M22.67,154.51a.86.86,0,0,0-.58-.27H16.9a.25.25,0,0,0-.29.27l0,5a.85.85,0,0,0,.3.56,1.1,1.1,0,0,0,.28.2.9.9,0,0,0,.3.08h5.19A.28.28,0,0,0,23,160v-5A.85.85,0,0,0,22.67,154.51Zm-.88,4.67h-4v-3.83h4v3.83Z" style="fill:#e1e1e1"/><path d="M22.5,208.93a.84.84,0,0,0-.58-.28H16.73a.27.27,0,0,0-.29.29l0,4.94a.85.85,0,0,0,.3.57,1.87,1.87,0,0,0,.29.2.87.87,0,0,0,.29.07h5.19a.26.26,0,0,0,.29-.27v-5A.81.81,0,0,0,22.5,208.93Zm-.88,4.67h-4v-3.84h4v3.84Z" style="fill:#e1e1e1"/><path d="M91.26,187.53a2.63,2.63,0,1,1-2.6-2.88A2.76,2.76,0,0,1,91.26,187.53Z" style="fill:#e1e1e1"/><path d="M56.85,157.26a2.63,2.63,0,1,1-2.61-2.88A2.76,2.76,0,0,1,56.85,157.26Z" style="fill:#e1e1e1"/><path d="M56.68,211.67a2.63,2.63,0,1,1-2.6-2.88A2.76,2.76,0,0,1,56.68,211.67Z" style="fill:#e1e1e1"/><path d="M22.3,187.59a2.77,2.77,0,0,1-2.63,2.88,2.89,2.89,0,0,1,0-5.76A2.75,2.75,0,0,1,22.3,187.59Z" style="fill:#e1e1e1"/><path d="M28.46,277.9H78.67a3.31,3.31,0,0,0,3.38-3.22l.11-35.8a3.28,3.28,0,0,0-3.36-3.22H28.58a3.31,3.31,0,0,0-3.38,3.22l-.11,35.81A3.29,3.29,0,0,0,28.46,277.9Z" style="fill:none;stroke:#0050ff;stroke-linecap:round;stroke-linejoin:round;stroke-width:0.5px"/><path d="M22.15,230a1.18,1.18,0,0,1-.5-.49c-.16-.3-.07-.55.21-.55h1.69a1,1,0,0,1,.8.56c.16.3.06.55-.22.55H22.44A.82.82,0,0,1,22.15,230Z" style="fill:#e1e1e1"/><path d="M31.45,229.54a1,1,0,0,0-.8-.55H27.1c-.28,0-.38.24-.21.55a1.16,1.16,0,0,0,.49.49.87.87,0,0,0,.3.07h3.55C31.52,230.1,31.6,229.85,31.45,229.54Zm7.1,0a1.07,1.07,0,0,0-.8-.55H34.21c-.29,0-.39.24-.23.55a1.2,1.2,0,0,0,.51.49.82.82,0,0,0,.29.07h3.56C38.61,230.1,38.71,229.85,38.55,229.54Zm7.1,0a1.06,1.06,0,0,0-.8-.56H41.3c-.27,0-.37.24-.22.55a1.15,1.15,0,0,0,.51.49.65.65,0,0,0,.29.07h3.55C45.71,230.1,45.81,229.86,45.65,229.55Zm7.1,0a1.06,1.06,0,0,0-.81-.56H48.4c-.28,0-.38.25-.21.55a1.06,1.06,0,0,0,.49.49.69.69,0,0,0,.3.07h3.55C52.81,230.1,52.9,229.86,52.75,229.55Zm7.09,0a1,1,0,0,0-.79-.56H55.5c-.28,0-.38.25-.22.56a1.18,1.18,0,0,0,.51.48.65.65,0,0,0,.29.07h3.55C59.91,230.1,60,229.86,59.84,229.55Zm7.11,0a1.07,1.07,0,0,0-.8-.56H62.6c-.28,0-.38.25-.22.56a1.21,1.21,0,0,0,.5.48.66.66,0,0,0,.3.07h3.55C67,230.1,67.1,229.86,67,229.55Zm7.1,0a1.07,1.07,0,0,0-.8-.56H69.69c-.27,0-.37.25-.21.56A1.15,1.15,0,0,0,70,230a.79.79,0,0,0,.29.06h3.55C74.11,230.1,74.2,229.86,74.05,229.55Zm7.09,0a1.05,1.05,0,0,0-.79-.56H76.8c-.29,0-.37.25-.22.56a1.2,1.2,0,0,0,.51.49.74.74,0,0,0,.28.06l3.56,0C81.21,230.12,81.31,229.86,81.14,229.55Z" style="fill:#e1e1e1"/><path d="M84.19,230a1.2,1.2,0,0,1-.51-.49c-.16-.3-.06-.55.22-.55h1.68a1,1,0,0,1,.8.55c.16.31.06.56-.22.56H84.48A.82.82,0,0,1,84.19,230Z" style="fill:#e1e1e1"/><path d="M19.4,282a1,1,0,0,1-.58-.76V279.6c0-.27.27-.36.59-.2a1,1,0,0,1,.58.76v1.61C20,282,19.72,282.12,19.4,282Z" style="fill:#e1e1e1"/><path d="M19.43,273.23c-.32-.16-.58-.06-.58.21v3.08a1,1,0,0,0,.58.76c.32.16.58.06.58-.21V274A1,1,0,0,0,19.43,273.23Zm0-6.17c-.33-.16-.59-.06-.59.21v3.08a1,1,0,0,0,.57.76c.33.16.58.07.58-.21l0-3.07A1,1,0,0,0,19.45,267.06Zm0-6.16c-.32-.16-.58-.07-.58.2v3.08a1,1,0,0,0,.58.76c.32.16.59.07.59-.2v-3.08A1,1,0,0,0,19.46,260.9Zm0-6.17c-.32-.16-.59-.07-.59.2V258a1,1,0,0,0,.58.76c.32.16.59.07.59-.2v-3.08A1,1,0,0,0,19.49,254.73Zm0-6.17c-.32-.16-.59-.06-.59.21v3.08a1,1,0,0,0,.58.76c.33.16.58.06.58-.21v-3.08A1,1,0,0,0,19.5,248.56Zm0-6.17c-.32-.14-.59-.06-.59.21v3.08a1,1,0,0,0,.59.76c.32.16.58.07.58-.21v-3.07A1,1,0,0,0,19.52,242.39Zm0-6.16c-.32-.15-.58-.07-.58.2v3.08a1,1,0,0,0,.58.76c.32.16.58.07.58-.19V237A1,1,0,0,0,19.54,236.23Z" style="fill:#e1e1e1"/><path d="M19.54,234.11a1,1,0,0,1-.58-.76v-1.61c0-.27.26-.36.58-.2a1,1,0,0,1,.58.76v1.6C20.13,234.17,19.87,234.26,19.54,234.11Z" style="fill:#e1e1e1"/><path d="M84.07,284.45a1.1,1.1,0,0,1-.5-.48c-.16-.31-.07-.56.21-.56h1.69a1.07,1.07,0,0,1,.8.56c.16.31.06.56-.22.56H84.36A.67.67,0,0,1,84.07,284.45Z" style="fill:#e1e1e1"/><path d="M31.29,284a1,1,0,0,0-.8-.55H26.94c-.28,0-.38.24-.22.55a1.18,1.18,0,0,0,.51.48.67.67,0,0,0,.29.08h3.56C31.35,284.52,31.45,284.27,31.29,284Zm7.1,0a1,1,0,0,0-.79-.55H34c-.28,0-.37.24-.21.55a1.13,1.13,0,0,0,.51.48.67.67,0,0,0,.28.08h3.56C38.46,284.52,38.56,284.27,38.39,284Zm7.11,0a1.05,1.05,0,0,0-.79-.55H41.15c-.28,0-.38.24-.21.55a1.11,1.11,0,0,0,.5.48.67.67,0,0,0,.29.08h3.56C45.56,284.52,45.66,284.27,45.5,284Zm7.1,0a1,1,0,0,0-.79-.55H48.25c-.27,0-.37.24-.21.56a1.08,1.08,0,0,0,.5.47.61.61,0,0,0,.3.08h3.54C52.67,284.52,52.77,284.27,52.6,284Zm7.11,0a1,1,0,0,0-.79-.56H55.36c-.28,0-.38.24-.21.55a1,1,0,0,0,.5.48.61.61,0,0,0,.29.08h3.55C59.78,284.52,59.88,284.28,59.71,284Zm7.11,0a1,1,0,0,0-.81-.56H62.47c-.28,0-.38.25-.22.56a1.08,1.08,0,0,0,.5.47.59.59,0,0,0,.3.08H66.6C66.88,284.52,67,284.28,66.82,284Zm7.1,0a1,1,0,0,0-.8-.56H69.57c-.28,0-.37.25-.22.56a1.1,1.1,0,0,0,.51.47.56.56,0,0,0,.3.08H73.7C74,284.52,74.08,284.28,73.92,284ZM81,284a1.07,1.07,0,0,0-.8-.56H76.68c-.29,0-.38.25-.22.56a1.12,1.12,0,0,0,.51.48.59.59,0,0,0,.29.07h3.55C81.09,284.52,81.19,284.28,81,284Z" style="fill:#e1e1e1"/><path d="M22,284.44a1.12,1.12,0,0,1-.51-.48c-.16-.31-.06-.56.22-.56h1.69a1.05,1.05,0,0,1,.79.56c.16.31.07.56-.21.56H22.28A.67.67,0,0,1,22,284.44Z" style="fill:#e1e1e1"/><path d="M88.51,234.12a1,1,0,0,1-.59-.76v-1.61c0-.27.26-.36.58-.2a1,1,0,0,1,.59.76v1.6C89.09,234.18,88.83,234.27,88.51,234.12Z" style="fill:#e1e1e1"/><path d="M88.39,273.24c-.32-.16-.58-.07-.58.2v3.08a1,1,0,0,0,.58.76c.32.16.58.07.58-.2V274A1,1,0,0,0,88.39,273.24Zm0-6.17c-.33-.16-.59-.06-.59.21v3.08a1,1,0,0,0,.57.76c.33.16.58.06.58-.21l0-3.08A1,1,0,0,0,88.41,267.07Zm0-6.17c-.32-.16-.58-.06-.58.21v3.08a1,1,0,0,0,.58.76c.32.16.59.07.59-.21v-3.07A1,1,0,0,0,88.42,260.9Zm0-6.16c-.32-.15-.59-.07-.59.2V258a1,1,0,0,0,.58.76c.32.16.59.07.59-.19V255.5A1,1,0,0,0,88.45,254.74Zm0-6.17c-.32-.15-.59-.07-.59.2v3.08a1,1,0,0,0,.58.76c.33.16.58.07.58-.19v-3.09A1,1,0,0,0,88.46,248.57Zm0-6.17c-.32-.15-.58-.06-.58.21l0,3.08a1,1,0,0,0,.59.76c.32.16.58.06.58-.2v-3.09A1,1,0,0,0,88.48,242.4Zm0-6.16c-.32-.15-.58-.07-.58.2v3.08a1,1,0,0,0,.58.76c.32.16.58.07.58-.2V237A1,1,0,0,0,88.5,236.24Z" style="fill:#e1e1e1"/><path d="M88.36,282a1,1,0,0,1-.58-.76v-1.61c0-.27.26-.36.58-.21a1,1,0,0,1,.58.77v1.6C89,282,88.68,282.13,88.36,282Z" style="fill:#e1e1e1"/><path d="M91.42,226.8a1,1,0,0,0-.58-.28H85.65a.27.27,0,0,0-.3.28v4.95a.87.87,0,0,0,.29.56.9.9,0,0,0,.28.2.69.69,0,0,0,.3.07H91.4a.27.27,0,0,0,.3-.27v-4.95A.83.83,0,0,0,91.42,226.8Zm-.89,4.67h-4v-3.83h4Z" style="fill:#e1e1e1"/><path d="M91.26,281.22a.92.92,0,0,0-.59-.28H85.48a.26.26,0,0,0-.3.28v4.94a.83.83,0,0,0,.29.56.89.89,0,0,0,.29.2A.61.61,0,0,0,86,287h5.19a.27.27,0,0,0,.3-.28v-4.94A.86.86,0,0,0,91.26,281.22Zm-.9,4.67h-4v-3.84h4Z" style="fill:#e1e1e1"/><path d="M22.46,226.79a1,1,0,0,0-.58-.28H16.69a.27.27,0,0,0-.3.28v4.94a.87.87,0,0,0,.29.57,1.46,1.46,0,0,0,.28.21.84.84,0,0,0,.3.06h5.19a.28.28,0,0,0,.3-.27v-5A.83.83,0,0,0,22.46,226.79Zm-.89,4.67h-4v-3.83h4v3.83Z" style="fill:#e1e1e1"/><path d="M22.3,281.2a1,1,0,0,0-.59-.27H16.52a.27.27,0,0,0-.3.27v4.95a.83.83,0,0,0,.29.56.89.89,0,0,0,.29.2.61.61,0,0,0,.29.08h5.19a.27.27,0,0,0,.3-.28v-4.94A.9.9,0,0,0,22.3,281.2Zm-.9,4.68h-4V282h4v3.84Z" style="fill:#e1e1e1"/><path d="M91,259.81a2.63,2.63,0,1,1-2.6-2.88A2.76,2.76,0,0,1,91,259.81Z" style="fill:#e1e1e1"/><path d="M56.63,229.54A2.63,2.63,0,1,1,54,226.66,2.76,2.76,0,0,1,56.63,229.54Z" style="fill:#e1e1e1"/><path d="M56.46,284a2.62,2.62,0,1,1-2.6-2.87A2.73,2.73,0,0,1,56.46,284Z" style="fill:#e1e1e1"/><path d="M22.08,259.87a2.77,2.77,0,0,1-2.62,2.88,2.89,2.89,0,0,1,0-5.75A2.74,2.74,0,0,1,22.08,259.87Z" style="fill:#e1e1e1"/><path d="M66.76,254.74l-3.07-.32a.68.68,0,0,1-.52-.44,10.14,10.14,0,0,0-.68-1.59.71.71,0,0,1-.05-.64l2.06-2.43c.11-.13,0-.39-.17-.58l-2.23-2.13c-.2-.2-.47-.28-.6-.18l-2.57,2a.71.71,0,0,1-.66,0,10.55,10.55,0,0,0-1.67-.66.65.65,0,0,1-.46-.49l-.33-2.93a.42.42,0,0,0-.42-.37H51.93a.39.39,0,0,0-.4.33l-.36,3a.56.56,0,0,1-.36.42,9.45,9.45,0,0,0-1.93.76.74.74,0,0,1-.67-.17L46,246.56c-.23-.17-.5-.22-.62-.11l-2.55,2.43c-.12.12-.08.38.11.59l1.78,2.12c.17.22.25.51.16.65a9.66,9.66,0,0,0-.8,1.83.56.56,0,0,1-.44.34l-3.17.33a.41.41,0,0,0-.35.4v3.29a.43.43,0,0,0,.4.4l3.07.33a.64.64,0,0,1,.51.43,9,9,0,0,0,.68,1.6.61.61,0,0,1,0,.62l-2,2.44h0c-.1.12,0,.38.19.58L45.15,267c.21.2.48.27.61.17h0l2.55-1.95a.71.71,0,0,1,.67.05,10.79,10.79,0,0,0,1.66.65.67.67,0,0,1,.47.48l.33,2.95a.43.43,0,0,0,.41.37h3.46a.41.41,0,0,0,.41-.34l.36-3a.52.52,0,0,1,.36-.42,11.45,11.45,0,0,0,1.92-.76.72.72,0,0,1,.68.16l2.21,1.7c.23.17.51.22.62.1l2.56-2.42c.12-.11.06-.38-.11-.6L62.55,262a.7.7,0,0,1-.17-.65,9.06,9.06,0,0,0,.8-1.83.57.57,0,0,1,.45-.34l3.17-.33a.42.42,0,0,0,.35-.39v-3.3A.43.43,0,0,0,66.76,254.74Zm-13.15,7.61a5.58,5.58,0,1,1,5.86-5.56A5.68,5.68,0,0,1,53.61,262.35Z" style="fill:#0050ff"/></svg>