<svg width="25" height="24" viewBox="0 0 25 24" fill="none" xmlns="http://www.w3.org/2000/svg">
<path d="M23 6.73521H18.254C18.5945 6.50271 18.887 6.27171 19.091 6.06471C20.3 4.84821 20.3 2.86821 19.091 1.65171C17.9165 0.469711 15.8675 0.468211 14.6915 1.65171C14.042 2.30421 12.3155 4.96071 12.554 6.73521H12.446C12.683 4.96071 10.958 2.30421 10.3085 1.65171C9.1325 0.468211 7.0835 0.469711 5.909 1.65171C4.7 2.86821 4.7 4.84821 5.9075 6.06471C6.113 6.27171 6.4055 6.50271 6.746 6.73521H2C1.1735 6.73521 0.5 7.40871 0.5 8.23521V11.9852C0.5 12.3992 0.836 12.7352 1.25 12.7352H2V21.7352C2 22.5617 2.6735 23.2352 3.5 23.2352H21.5C22.3265 23.2352 23 22.5617 23 21.7352V12.7352H23.75C24.164 12.7352 24.5 12.3992 24.5 11.9852V8.23521C24.5 7.40871 23.8265 6.73521 23 6.73521ZM6.9725 2.70921C7.277 2.40321 7.6805 2.23521 8.1095 2.23521C8.537 2.23521 8.9405 2.40321 9.245 2.70921C10.256 3.72621 11.261 6.32421 10.9115 6.68571C10.9115 6.68571 10.8485 6.73521 10.634 6.73521C9.5975 6.73521 7.619 5.65821 6.9725 5.00721C6.344 4.37421 6.344 3.34221 6.9725 2.70921ZM11.75 21.7352H3.5V12.7352H11.75V21.7352ZM11.75 11.2352H2V8.23521H10.634H11.75V11.2352ZM15.755 2.70921C16.364 2.09871 17.42 2.10021 18.0275 2.70921C18.656 3.34221 18.656 4.37421 18.0275 5.00721C17.381 5.65821 15.4025 6.73521 14.366 6.73521C14.1515 6.73521 14.0885 6.68721 14.087 6.68571C13.739 6.32421 14.744 3.72621 15.755 2.70921ZM21.5 21.7352H13.25V12.7352H21.5V21.7352ZM23 11.2352H13.25V8.23521H14.366H23V11.2352Z" fill="#4CAF50"/>
</svg>
