<svg width="121" height="102" viewBox="0 0 121 102" fill="none" xmlns="http://www.w3.org/2000/svg">
<g opacity="0.5">
<path opacity="0.5" d="M72.1118 86.5399C48.2414 86.5399 28.8964 67.2014 28.8964 43.339C28.8964 19.487 48.2414 0.148438 72.1118 0.148438C95.9823 0.148438 115.327 19.487 115.327 43.3494C115.327 67.2014 95.9718 86.5399 72.1118 86.5399Z" fill="#0050FF"/>
</g>
<path d="M8.79881 100.279C7.46106 100.279 6.37415 99.2758 6.37415 98.043V6.2187C6.37415 4.98588 7.46106 3.98291 8.79881 3.98291C10.1366 3.98291 11.2235 4.98588 11.2235 6.2187V98.0325C11.213 99.2758 10.1366 100.279 8.79881 100.279Z" fill="#141515"/>
<path d="M2.35048 13.7097C1.88018 13.7097 1.39943 13.5634 0.981382 13.2709C-0.0741829 12.5187 -0.314559 11.0455 0.437923 9.99033L6.88628 0.984471C7.63876 -0.0707401 9.10192 -0.311036 10.1575 0.441194C11.213 1.19342 11.4534 2.66654 10.7009 3.72175L4.25259 12.7276C3.80319 13.3649 3.08206 13.7097 2.35048 13.7097Z" fill="#141515"/>
<path d="M15.1636 13.6052C14.4216 13.6052 13.7005 13.2604 13.2406 12.6127L6.96993 3.71127C6.21744 2.64562 6.47872 1.18295 7.53429 0.430719C8.58985 -0.321511 10.0635 -0.0603201 10.8159 0.994891L17.0866 9.89627C17.8391 10.9619 17.5778 12.4246 16.5223 13.1768C16.1042 13.4694 15.6339 13.6052 15.1636 13.6052Z" fill="#141515"/>
<path d="M113.154 95.7654H4.05406C2.6327 95.7654 1.49353 94.7102 1.49353 93.4147C1.49353 92.1192 2.64316 91.064 4.05406 91.064H113.143C114.564 91.064 115.704 92.1192 115.704 93.4147C115.704 94.7102 114.564 95.7654 113.154 95.7654Z" fill="#141515"/>
<path d="M117.647 94.982C117.177 94.982 116.696 94.8358 116.278 94.5432L107.269 88.0971C106.214 87.3448 105.974 85.8717 106.726 84.8165C107.478 83.7613 108.952 83.521 110.008 84.2732L119.017 90.7194C120.072 91.4716 120.313 92.9448 119.56 94C119.1 94.6373 118.379 94.982 117.647 94.982Z" fill="#141515"/>
<path d="M108.743 101.344C108.001 101.344 107.28 101 106.82 100.352C106.068 99.2863 106.329 97.8236 107.384 97.0714L116.289 90.8028C117.355 90.0506 118.818 90.3117 119.57 91.367C120.323 92.4326 120.062 93.8953 119.006 94.6475L110.102 100.916C109.684 101.209 109.213 101.344 108.743 101.344Z" fill="#141515"/>
<path d="M26.5031 76.8971C25.5416 76.7508 24.7787 75.915 24.716 74.8598C24.6428 73.627 25.5416 72.5613 26.7121 72.4673C27.1197 72.436 27.5796 72.4046 28.0917 72.3628C34.5505 71.9136 49.6733 70.8584 62.5386 60.1704C78.4035 47.0064 81.8419 28.4201 83.1378 21.4202C83.2319 20.9291 83.3051 20.4903 83.3782 20.1247C83.6186 18.9127 84.7473 18.0874 85.8969 18.359C87.0466 18.5889 87.7886 19.759 87.5482 20.9709C87.4751 21.3157 87.4019 21.7336 87.3183 22.2037C86.0746 28.9425 82.2704 49.4303 65.1514 63.6495C51.241 75.2255 35.1776 76.3329 28.3216 76.8135C27.8304 76.8449 27.381 76.8762 26.9839 76.9076C26.8166 76.9285 26.6599 76.918 26.5031 76.8971Z" fill="#141515"/>
<path d="M32.617 81.7031C36.6459 81.7031 39.9119 78.4381 39.9119 74.4106C39.9119 70.3831 36.6459 67.1182 32.617 67.1182C28.5882 67.1182 25.3221 70.3831 25.3221 74.4106C25.3221 78.4381 28.5882 81.7031 32.617 81.7031Z" fill="white"/>
<path d="M31.1748 83.7194C26.0432 82.9254 22.5108 78.0986 23.305 72.9688C24.0993 67.839 28.9278 64.3077 34.0593 65.1018C39.1908 65.8958 42.7233 70.7226 41.929 75.8524C41.1347 80.9822 36.3063 84.5135 31.1748 83.7194ZM33.4113 69.3122C30.5999 68.8734 27.9558 70.8062 27.5169 73.6166C27.0779 76.427 29.0114 79.0702 31.8227 79.509C34.6341 79.9478 37.2782 78.015 37.7172 75.2046C38.1561 72.3942 36.2227 69.751 33.4113 69.3122Z" fill="#141515"/>
<path d="M69.4259 62.8657C73.4547 62.8657 76.7208 59.6007 76.7208 55.5732C76.7208 51.5457 73.4547 48.2808 69.4259 48.2808C65.397 48.2808 62.131 51.5457 62.131 55.5732C62.131 59.6007 65.397 62.8657 69.4259 62.8657Z" fill="white"/>
<path d="M67.9836 64.8821C62.8521 64.088 59.3196 59.2612 60.1139 54.1314C60.9082 49.0016 65.7366 45.4703 70.8681 46.2644C75.9996 47.0584 79.5321 51.8852 78.7378 57.015C77.9331 62.1552 73.1151 65.6761 67.9836 64.8821ZM70.2097 50.4748C67.3983 50.036 64.7542 51.9688 64.3152 54.7792C63.8763 57.5896 65.8098 60.2329 68.6211 60.6717C71.4325 61.1105 74.0766 59.1776 74.5156 56.3672C74.965 53.5568 73.0315 50.9136 70.2097 50.4748Z" fill="#141515"/>
<path d="M85.9387 24.8154C89.9676 24.8154 93.2336 21.5504 93.2336 17.5229C93.2336 13.4954 89.9676 10.2305 85.9387 10.2305C81.9098 10.2305 78.6438 13.4954 78.6438 17.5229C78.6438 21.5504 81.9098 24.8154 85.9387 24.8154Z" fill="white"/>
<path d="M84.4964 26.8317C79.3649 26.0377 75.8324 21.2109 76.6267 16.0811C77.421 10.9513 82.2494 7.42005 87.3809 8.21407C92.5124 9.00809 96.0449 13.8349 95.2506 18.9647C94.4564 24.1049 89.6384 27.6258 84.4964 26.8317ZM86.733 12.4245C83.9216 11.9857 81.2775 13.9185 80.8385 16.7289C80.3996 19.5393 82.333 22.1825 85.1444 22.6213C87.9557 23.0601 90.5999 21.1273 91.0388 18.3169C91.4778 15.5065 89.5443 12.8633 86.733 12.4245Z" fill="#141515"/>
</svg>
