<svg width="300" height="204" viewBox="0 0 300 204" fill="none" xmlns="http://www.w3.org/2000/svg">
<g clip-path="url(#clip0_1129_14777)">
<path d="M9.50795 156.391C10.9947 140.528 19.9806 124.694 34.2783 119.156C28.995 135.585 29.4415 153.438 35.5389 169.556C37.912 175.763 41.1697 182.409 39.2421 188.783C38.0428 192.749 34.9441 195.842 31.4434 197.819C27.9424 199.796 24.0274 200.8 20.1613 201.784L19.4125 202.466C12.8769 188.066 8.0212 172.253 9.50795 156.391Z" fill="#F0F0F0"/>
<path d="M34.4289 119.451C26.3562 129.41 21.2753 142.13 20.3869 155.171C20.1949 157.99 20.2348 160.867 20.892 163.623C21.5524 166.304 22.8875 168.751 24.7587 170.711C26.4684 172.574 28.4236 174.273 29.6701 176.538C30.9839 178.926 31.1007 181.677 30.3068 184.273C29.3354 187.449 27.33 190.071 25.2837 192.564C23.0117 195.332 20.6098 198.169 19.7047 201.782C19.5951 202.219 18.9518 202.016 19.0613 201.579C20.6359 195.294 26.34 191.594 28.9623 185.901C30.1859 183.244 30.651 180.186 29.3736 177.452C28.2565 175.061 26.2418 173.307 24.4951 171.436C22.6611 169.471 21.2383 167.299 20.4673 164.653C19.6785 161.946 19.5309 159.064 19.6532 156.252C19.9759 149.878 21.2555 143.596 23.4451 137.637C25.9079 130.821 29.468 124.497 33.9712 118.936C34.2501 118.592 34.7059 119.109 34.4289 119.451L34.4289 119.451Z" fill="white"/>
<path d="M20.4618 150.916C18.3727 150.446 16.5116 149.215 15.2107 147.442C13.9099 145.67 13.2541 143.472 13.3604 141.241C13.3655 141.151 13.4042 141.065 13.4684 141.004C13.5325 140.942 13.617 140.909 13.7041 140.911C13.7913 140.913 13.8742 140.95 13.9354 141.015C13.9967 141.08 14.0314 141.167 14.0324 141.258C13.9297 143.336 14.5408 145.383 15.7554 147.03C16.97 148.678 18.708 149.818 20.6558 150.243C21.0789 150.336 20.8825 151.009 20.4618 150.916Z" fill="white"/>
<path d="M23.7729 169.885C27.4639 167.443 30.1387 163.636 31.2638 159.224C31.375 158.787 32.0183 158.99 31.9073 159.427C30.7282 164.016 27.937 167.971 24.0907 170.504C23.7239 170.745 23.4081 170.125 23.7729 169.885Z" fill="white"/>
<path d="M26.5478 131.47C27.3198 131.828 28.1648 131.98 29.007 131.912C29.8491 131.844 30.6619 131.559 31.3725 131.082C31.7361 130.836 32.0515 131.456 31.6903 131.701C30.9029 132.224 30.0048 132.538 29.0745 132.615C28.1443 132.692 27.2102 132.53 26.3538 132.142C26.2701 132.113 26.2003 132.051 26.1586 131.97C26.1169 131.889 26.1063 131.794 26.1291 131.705C26.1552 131.616 26.2138 131.541 26.2922 131.497C26.3706 131.453 26.4625 131.443 26.5478 131.47H26.5478Z" fill="white"/>
<path d="M78.9552 146.198C78.7323 146.358 78.5094 146.519 78.2863 146.685C75.3003 148.856 72.4879 151.277 69.8769 153.924C69.672 154.125 69.4671 154.333 69.2681 154.54C63.0428 160.987 58.0168 168.587 54.4456 176.952C53.0274 180.283 51.8537 183.721 50.9346 187.237C49.6655 192.093 48.6592 197.464 46.0075 201.48C45.7354 201.903 45.4385 202.307 45.1185 202.691L20.267 203.368C20.2098 203.34 20.1524 203.318 20.0949 203.29L19.1039 203.364C19.1392 203.179 19.1796 202.989 19.2149 202.804C19.2349 202.696 19.2605 202.589 19.2805 202.482C19.2956 202.41 19.311 202.338 19.3207 202.273C19.3257 202.249 19.3309 202.225 19.336 202.207C19.3457 202.142 19.3614 202.082 19.3713 202.023C19.5943 200.955 19.8248 199.887 20.0629 198.819C20.0628 198.813 20.0628 198.813 20.0682 198.807C21.9024 190.673 24.4023 182.628 27.9909 175.236C28.099 175.013 28.2066 174.785 28.326 174.562C29.9613 171.24 31.8536 168.062 33.9842 165.062C35.1559 163.422 36.4062 161.846 37.7303 160.339C41.1588 156.453 45.1509 153.154 49.5602 150.563C58.3508 145.401 68.623 143.236 78.2236 145.981C78.4692 146.051 78.7094 146.122 78.9552 146.198Z" fill="#F0F0F0"/>
<path d="M78.9075 146.529C66.7252 149.401 55.3418 156.36 47.1215 166.213C45.3443 168.343 43.7188 170.665 42.6563 173.279C41.6393 175.835 41.2957 178.63 41.6613 181.372C41.953 183.935 42.5355 186.523 42.2259 189.116C41.8996 191.849 40.4085 194.119 38.2793 195.692C35.6742 197.617 32.5627 198.448 29.493 199.151C26.0846 199.931 22.5325 200.685 19.7294 203C19.3897 203.28 18.9933 202.713 19.3324 202.433C24.2094 198.406 30.8954 199.041 36.2683 196.145C38.7754 194.794 40.9082 192.645 41.4631 189.658C41.9483 187.046 41.3499 184.378 41.0331 181.785C40.7004 179.062 40.8153 176.433 41.7239 173.834C42.6534 171.176 44.1954 168.783 45.9128 166.614C49.8421 161.728 54.482 157.517 59.6625 154.137C65.5546 150.246 72.0401 147.436 78.8385 145.83C79.2593 145.731 79.3256 146.431 78.9075 146.529H78.9075Z" fill="white"/>
<path d="M49.6319 162.862C48.2348 161.172 47.4579 159.018 47.44 156.784C47.4221 154.551 48.1644 152.383 49.5343 150.669C49.8126 150.323 50.3399 150.759 50.0612 151.105C48.7828 152.699 48.0915 154.718 48.1122 156.798C48.133 158.878 48.8643 160.882 50.1742 162.448C50.4585 162.788 49.9146 163.201 49.6319 162.862Z" fill="white"/>
<path d="M41.3497 180.092C45.7035 180.465 50.0317 179.109 53.4715 176.294C53.812 176.015 54.2085 176.582 53.8684 176.861C50.2837 179.783 45.7767 181.185 41.2469 180.786C40.8152 180.748 40.9203 180.054 41.3497 180.092H41.3497Z" fill="white"/>
<path d="M65.692 151.166C66.1023 151.938 66.6894 152.591 67.4008 153.067C68.1122 153.543 68.9255 153.826 69.7677 153.893C70.1997 153.925 70.0941 154.619 69.665 154.587C68.7348 154.509 67.8369 154.195 67.0498 153.671C66.2627 153.147 65.6104 152.429 65.1497 151.581C65.0999 151.505 65.0797 151.412 65.0932 151.32C65.1067 151.229 65.1529 151.147 65.2224 151.09C65.2945 151.036 65.3842 151.013 65.4722 151.027C65.5601 151.041 65.6391 151.091 65.692 151.166Z" fill="white"/>
<path d="M224.812 14.2507C224.44 13.1055 219.787 9.21259 222.639 8.55828L224.977 11.8172L235.727 0.580566L236.808 1.71071L224.812 14.2507Z" fill="#B6B3ED" fill-opacity="0.9"/>
<path d="M224.812 52.46C224.44 51.3147 219.787 47.4218 222.639 46.7675L224.977 50.0264L235.727 38.7898L236.808 39.9199L224.812 52.46Z" fill="#B6B3ED" fill-opacity="0.9"/>
<path d="M224.812 91.2151C224.44 90.0699 219.787 86.177 222.639 85.5226L224.977 88.7816L235.727 77.5449L236.808 78.6751L224.812 91.2151Z" fill="#B6B3ED" fill-opacity="0.9"/>
<path d="M214.912 59.8826C216.745 59.8826 218.23 58.3302 218.23 56.4152C218.23 54.5002 216.745 52.9478 214.912 52.9478C213.08 52.9478 211.595 54.5002 211.595 56.4152C211.595 58.3302 213.08 59.8826 214.912 59.8826Z" fill="white"/>
<path d="M214.912 22.0875C216.745 22.0875 218.23 20.5351 218.23 18.62C218.23 16.705 216.745 15.1526 214.912 15.1526C213.08 15.1526 211.595 16.705 211.595 18.62C211.595 20.5351 213.08 22.0875 214.912 22.0875Z" fill="white"/>
<path d="M300 10.6448H246.592V11.3383H300V10.6448Z" fill="white"/>
<path d="M216.571 100.172C218.403 100.172 219.888 98.62 219.888 96.705C219.888 94.79 218.403 93.2375 216.571 93.2375C214.739 93.2375 213.254 94.79 213.254 96.705C213.254 98.62 214.739 100.172 216.571 100.172Z" fill="white"/>
<path d="M300 48.854H246.592V49.5475H300V48.854Z" fill="white"/>
<path d="M300 87.6091H246.592V88.3026H300V87.6091Z" fill="white"/>
<path d="M233.19 96.3817H216.604V78.6978H227.882V79.3912H217.267V95.6883H232.526V87.7131H233.19V96.3817Z" fill="white"/>
<path d="M233.19 57.5463H216.604V39.8623H227.882V40.5558H217.267V56.8528H232.526V48.8777H233.19V57.5463Z" fill="white"/>
<path d="M233.19 18.0173H216.604V0.333252H227.882V1.02674H217.267V17.3238H232.526V9.34863H233.19V18.0173Z" fill="white"/>
<path d="M124.896 63.3617C124.896 63.3617 120.464 82.9254 125.881 82.9254C131.299 82.9254 144.105 60.7875 144.105 60.7875L139.672 55.1243L131.716 66.6709L131.299 60.7875L124.896 63.3617Z" fill="#A0616A"/>
<path d="M142.924 61.6379C145.306 61.6379 147.236 59.6198 147.236 57.1302C147.236 54.6407 145.306 52.6226 142.924 52.6226C140.542 52.6226 138.612 54.6407 138.612 57.1302C138.612 59.6198 140.542 61.6379 142.924 61.6379Z" fill="#A0616A"/>
<path d="M121.138 196.608L126.878 196.607L129.609 173.463L121.137 173.464L121.138 196.608Z" fill="#A0616A"/>
<path d="M120.936 202.867L138.588 202.866V202.633C138.588 200.728 137.864 198.902 136.575 197.555C135.287 196.208 133.539 195.451 131.717 195.451H131.717L128.492 192.894L122.476 195.452L120.935 195.452L120.936 202.867Z" fill="#2F2E41"/>
<path d="M59.3915 189.122L64.5276 191.801L76.8585 172.367L69.2779 168.413L59.3915 189.122Z" fill="#A0616A"/>
<path d="M56.5364 194.628L72.3309 202.867L72.4306 202.658C73.2442 200.954 73.3769 198.982 72.7994 197.175C72.2219 195.369 70.9816 193.876 69.3512 193.025L69.3508 193.025L67.5582 189.232L61.0828 188.712L59.7041 187.993L56.5364 194.628Z" fill="#2F2E41"/>
<path d="M189.034 202.89H0V203.667H189.034V202.89Z" fill="#CCCCCC"/>
<path d="M84.0255 98.8532C84.0255 98.8532 81.7316 127.685 81.239 133.863C80.9013 137.735 80.0732 141.544 78.7764 145.189C78.7764 145.189 77.7913 147.248 77.7913 149.308L66.6271 170.516C66.6271 170.516 63.2156 173.137 63.7081 175.196C64.2006 177.256 61.6512 178.491 61.6512 178.491L73.4081 180.86C73.4081 180.86 72.9156 179.315 74.3932 178.8C75.8708 178.285 77.047 173.82 77.047 173.82L93.5524 145.704L105.373 119.962C105.373 119.962 112.269 143.13 113.746 145.704C113.746 145.704 119.164 174.535 120.149 177.109C121.134 179.683 121.627 179.683 121.134 180.713C120.642 181.742 120.642 182.772 121.134 183.287C121.627 183.802 130.985 183.287 130.985 183.287L128.522 146.733L124.09 102.972L101.433 95.7646L84.0255 98.8532Z" fill="#2F2E41"/>
<path d="M106.208 30.0257C111.92 30.0257 116.551 25.1852 116.551 19.2142C116.551 13.2431 111.92 8.40259 106.208 8.40259C100.495 8.40259 95.8644 13.2431 95.8644 19.2142C95.8644 25.1852 100.495 30.0257 106.208 30.0257Z" fill="#A0616A"/>
<path d="M125.075 45.8256L112.762 38.0278C112.762 38.0278 112.42 33.1856 108.912 32.9577C107.151 32.8433 104.508 32.6684 100.541 32.4011C99.7029 32.3446 99.1372 37.1384 98.1766 37.0734L85.1793 40.6772L87.1494 75.6861C87.1494 75.6861 84.1942 89.5867 85.1793 92.1609C86.1644 94.7351 82.7166 95.7647 83.7017 96.2796C84.6867 96.7944 83.7017 100.398 83.7017 100.398C83.7017 100.398 102.911 110.695 124.09 102.972L122.119 96.2796C122.388 95.4047 122.438 94.4727 122.266 93.5719C122.093 92.671 121.704 91.831 121.134 91.1312C121.134 91.1312 123.105 88.0422 120.642 85.468C120.642 85.468 121.627 80.8345 119.164 78.7751L118.672 71.5674L120.149 67.9636L125.075 45.8256Z" fill="#E6E6E6"/>
<path d="M97.2323 25.3905L96.9432 24.6885C96.9059 24.5978 93.248 15.559 96.4903 9.98369C97.9912 7.40257 100.72 5.94532 104.602 5.65276C110.674 5.19376 114.831 6.69958 116.959 10.1252C117.315 10.7058 117.516 11.3761 117.539 12.0657C117.562 12.7553 117.407 13.4387 117.091 14.0441C116.774 14.6494 116.307 15.1543 115.738 15.5057C115.17 15.8571 114.522 16.0421 113.862 16.041H113.78L112.665 14.5266L112.6 14.6739C112.196 15.5875 111.268 16.0876 110.181 15.9781C109.996 15.9642 109.833 16.131 109.701 16.4879C109.657 16.644 109.573 16.7848 109.459 16.8955C109.345 17.0061 109.204 17.0826 109.052 17.1169C108.249 17.2802 107.104 16.2231 106.592 15.6962C106.572 15.8174 106.528 15.9329 106.462 16.0346C106.395 16.1364 106.309 16.2221 106.209 16.2861C105.669 16.6116 104.829 16.1863 104.587 16.0509C102.666 16.4775 101.423 16.3634 100.89 15.7121C100.529 18.3833 99.7535 23.1913 98.8239 23.4578C98.7267 23.4812 98.625 23.4713 98.5336 23.4295C98.4423 23.3878 98.3662 23.3164 98.3166 23.226C98.0927 22.9223 97.8927 22.7709 97.7678 22.8134C97.4654 22.914 97.2869 23.9549 97.2613 24.6267L97.2323 25.3905Z" fill="#2F2E41"/>
<path d="M119.657 46.3405L124.57 45.5061C128.109 49.0607 130.52 53.6646 131.478 58.6966C132.955 66.9339 133.448 68.4785 133.448 68.4785L121.627 71.5675L115.224 58.6966L119.657 46.3405Z" fill="#E6E6E6"/>
<path d="M97.8548 57.0548L94.8185 97.2891L172.305 103.678L175.341 63.4439L97.8548 57.0548Z" fill="white"/>
<path d="M106.133 60.1719C104.237 58.7564 101.829 58.6541 100.91 58.6745C101.19 59.5899 102.062 61.9379 103.959 63.354C105.859 64.773 108.264 64.8722 109.182 64.8524C108.902 63.9373 108.03 61.5884 106.133 60.1719Z" fill="#6C63FF"/>
<path d="M113.614 85.7738L101.172 84.7479C100.804 84.7175 100.434 84.7632 100.084 84.8823C99.7329 85.0013 99.4081 85.1914 99.1276 85.4417C98.8472 85.692 98.6166 85.9976 98.4491 86.341C98.2816 86.6844 98.1805 87.059 98.1515 87.4432C98.1225 87.8275 98.1662 88.214 98.2801 88.5806C98.394 88.9473 98.5759 89.2868 98.8153 89.58C99.0548 89.8732 99.3471 90.1141 99.6757 90.2892C100.004 90.4643 100.363 90.57 100.73 90.6003L113.172 91.6262C113.915 91.6874 114.65 91.4378 115.216 90.9324C115.783 90.4269 116.134 89.7069 116.192 88.9308C116.251 88.1547 116.012 87.3861 115.529 86.7941C115.045 86.202 114.356 85.835 113.614 85.7738Z" fill="#6C63FF"/>
<path d="M172.286 59.533L102.528 53.7805C101.716 53.7137 100.9 53.8146 100.126 54.0775C99.3522 54.3404 98.6353 54.76 98.0164 55.3125C97.3975 55.865 96.8887 56.5395 96.5192 57.2975C96.1497 58.0556 95.9267 58.8822 95.8628 59.7303L93.18 95.2547C93.051 96.968 93.5783 98.6647 94.6459 99.9717C95.7134 101.279 97.2339 102.089 98.8729 102.225L168.632 107.977C169.443 108.044 170.259 107.943 171.033 107.68C171.807 107.417 172.524 106.998 173.143 106.445C173.762 105.893 174.271 105.218 174.64 104.46C175.01 103.702 175.233 102.876 175.297 102.027L177.846 68.263L177.897 67.5731L177.979 66.4997C178.042 65.6516 177.946 64.7986 177.694 63.9895C177.443 63.1804 177.041 62.431 176.513 61.7841C175.984 61.1371 175.339 60.6054 174.614 60.2191C173.889 59.8329 173.098 59.5998 172.286 59.533ZM170.226 90.4411L169.784 96.2937C169.704 97.3274 169.235 98.2855 168.48 98.9587C167.725 99.632 166.746 99.9654 165.757 99.8862L156.424 99.1176C155.435 99.0331 154.519 98.5429 153.875 97.7539C153.231 96.965 152.911 95.9416 152.987 94.9076L153.429 89.055C153.51 88.0214 153.98 87.0635 154.734 86.3903C155.489 85.7172 156.468 85.3836 157.457 85.4624L166.786 86.2319C167.775 86.3167 168.692 86.8069 169.336 87.5954C169.981 88.384 170.301 89.4069 170.226 90.4411ZM97.5342 87.3894C97.6066 86.4423 98.0354 85.564 98.7266 84.947C99.4178 84.3301 100.315 84.0249 101.221 84.0984L113.663 85.125C114.112 85.1613 114.55 85.2898 114.952 85.5031C115.354 85.7165 115.712 86.0106 116.005 86.3685C116.298 86.7265 116.521 87.1413 116.661 87.5893C116.8 88.0373 116.854 88.5097 116.819 88.9795C116.784 89.4492 116.661 89.9071 116.456 90.3271C116.252 90.747 115.97 91.1207 115.627 91.4268C115.285 91.7329 114.888 91.9654 114.459 92.1111C114.03 92.2567 113.578 92.3126 113.129 92.2756L113.123 92.2773L100.681 91.2507C100.232 91.2136 99.7937 91.0842 99.3923 90.87C98.9909 90.6558 98.6338 90.3609 98.3415 90.0022C98.0492 89.6436 97.8274 89.2282 97.6889 88.7798C97.5504 88.3315 97.4978 87.859 97.5342 87.3894ZM100.198 58.4425L100.113 58.0787L100.471 58.0444C100.61 58.0287 103.92 57.7181 106.496 59.6417C109.073 61.5653 109.863 64.9402 109.897 65.0814L109.979 65.446L109.622 65.4837C109.115 65.5231 108.606 65.5196 108.099 65.4732C106.489 65.3746 104.933 64.8254 103.595 63.8831C101.019 61.9595 100.229 58.5845 100.198 58.4425Z" fill="#BFD3FF"/>
<path d="M159.76 94.3226L155.717 93.9892C155.428 93.966 155.143 94.0633 154.923 94.2599C154.703 94.4564 154.567 94.7361 154.544 95.0376C154.521 95.339 154.614 95.6376 154.801 95.8677C154.989 96.0979 155.256 96.2408 155.545 96.2651L159.588 96.5986C159.877 96.6218 160.162 96.5245 160.382 96.3279C160.602 96.1314 160.738 95.8517 160.761 95.5502C160.784 95.2487 160.691 94.9502 160.504 94.72C160.316 94.4899 160.049 94.3469 159.76 94.3226Z" fill="#6C63FF"/>
<path d="M167.225 94.9381L163.182 94.6046C162.893 94.5816 162.608 94.6791 162.388 94.8756C162.169 95.0721 162.033 95.3517 162.01 95.6531C161.987 95.9544 162.08 96.2528 162.267 96.483C162.455 96.7131 162.722 96.8561 163.01 96.8806L167.054 97.214C167.342 97.237 167.627 97.1396 167.847 96.943C168.067 96.7465 168.203 96.4669 168.225 96.1656C168.248 95.8643 168.156 95.5658 167.968 95.3357C167.781 95.1056 167.514 94.9626 167.225 94.9381Z" fill="#6C63FF"/>
<path d="M159.981 91.3963L155.937 91.0629C155.649 91.0399 155.364 91.1373 155.144 91.3339C154.924 91.5304 154.788 91.81 154.765 92.1113C154.743 92.4126 154.835 92.7111 155.023 92.9412C155.21 93.1713 155.477 93.3143 155.766 93.3388L159.809 93.6723C160.098 93.6955 160.383 93.5982 160.603 93.4016C160.823 93.2051 160.959 92.9254 160.982 92.6239C161.005 92.3224 160.912 92.0238 160.724 91.7937C160.537 91.5635 160.269 91.4206 159.981 91.3963Z" fill="#6C63FF"/>
<path d="M167.446 92.0118L163.403 91.6784C163.114 91.6552 162.829 91.7525 162.609 91.9491C162.389 92.1456 162.253 92.4253 162.23 92.7268C162.207 93.0282 162.3 93.3268 162.487 93.557C162.675 93.7871 162.942 93.93 163.231 93.9544L167.274 94.2878C167.563 94.311 167.848 94.2137 168.068 94.0172C168.288 93.8206 168.424 93.5409 168.447 93.2394C168.47 92.938 168.377 92.6394 168.19 92.4092C168.002 92.1791 167.735 92.0362 167.446 92.0118Z" fill="#6C63FF"/>
<path d="M160.202 88.4701L156.158 88.1367C155.87 88.1134 155.584 88.2108 155.364 88.4073C155.145 88.6039 155.008 88.8836 154.986 89.185C154.963 89.4865 155.055 89.7851 155.243 90.0153C155.431 90.2454 155.698 90.3883 155.986 90.4126L160.03 90.746C160.318 90.7691 160.604 90.6716 160.823 90.4751C161.043 90.2785 161.179 89.9989 161.202 89.6976C161.225 89.3963 161.132 89.0978 160.945 88.8677C160.757 88.6376 160.49 88.4946 160.202 88.4701Z" fill="#6C63FF"/>
<path d="M167.667 89.0858L163.624 88.7523C163.335 88.7293 163.05 88.8268 162.83 89.0233C162.611 89.2198 162.474 89.4994 162.452 89.8008C162.429 90.1021 162.521 90.4005 162.709 90.6307C162.896 90.8608 163.164 91.0038 163.452 91.0283L167.495 91.3617C167.784 91.3847 168.069 91.2873 168.289 91.0907C168.508 90.8942 168.645 90.6146 168.667 90.3133C168.69 90.012 168.598 89.7135 168.41 89.4834C168.223 89.2533 167.955 89.1103 167.667 89.0858Z" fill="#6C63FF"/>
<path d="M94.8259 70.9392L94.7739 71.6309L176.661 78.3547L176.713 77.6631L94.8259 70.9392Z" fill="white"/>
<path d="M177.897 67.573L177.846 68.263L174.996 68.0293L144.632 65.5362L144.687 64.8455L175.047 67.3392L177.897 67.573Z" fill="#3F3D56"/>
<path d="M77.7913 60.2411C77.7913 60.2411 73.3584 79.8048 78.7763 79.8048C84.1942 79.8048 97.0002 57.6669 97.0002 57.6669L92.5673 52.0037L84.6109 63.5503L84.1942 57.6669L77.7913 60.2411Z" fill="#A0616A"/>
<path d="M95.8189 58.5173C98.2006 58.5173 100.131 56.4992 100.131 54.0096C100.131 51.5201 98.2006 49.502 95.8189 49.502C93.4372 49.502 91.5065 51.5201 91.5065 54.0096C91.5065 56.4992 93.4372 58.5173 95.8189 58.5173Z" fill="#A0616A"/>
<path d="M88.7673 43.7663L85.812 40.6772C85.812 40.6772 79.9016 44.2811 79.4091 47.885C78.9165 51.4888 76.4539 62.8152 76.4539 62.8152L85.5658 63.5875L88.521 58.9539L88.7673 43.7663Z" fill="#E6E6E6"/>
</g>
<defs>
<clipPath id="clip0_1129_14777">
<rect width="300" height="203.333" fill="white" transform="translate(0 0.333252)"/>
</clipPath>
</defs>
</svg>
