<svg width="41" height="40" viewBox="0 0 41 40" fill="none" xmlns="http://www.w3.org/2000/svg">
<g clip-path="url(#clip0_3332_3761)">
<path d="M14.5 30.3333C15.1333 31.1667 15.5 32.2 15.5 33.3333C15.5 36.1 13.2667 38.3333 10.5 38.3333C7.73333 38.3333 5.5 36.1 5.5 33.3333C5.5 30.5667 7.73333 28.3333 10.5 28.3333C11.2333 28.3333 11.9167 28.4833 12.55 28.7667L14.9 25.8167C13.3667 24.1 12.75 21.8333 13.0833 19.6667L9.7 18.5333C8.8 19.9167 7.26667 20.8333 5.5 20.8333C2.73333 20.8333 0.5 18.6 0.5 15.8333C0.5 13.0667 2.73333 10.8333 5.5 10.8333C8.26667 10.8333 10.5 13.0667 10.5 15.8333C10.5 15.95 10.5 16.0667 10.4833 16.1833L13.8667 17.3167C14.9333 15.3 16.9 13.8333 19.2333 13.45V9.85C17.1 9.28333 15.5 7.33333 15.5 5C15.5 2.23333 17.7333 0 20.5 0C23.2667 0 25.5 2.23333 25.5 5C25.5 7.33333 23.9 9.28333 21.75 9.85V13.45C24.0833 13.8333 26.05 15.3 27.1167 17.3167L30.5 16.1833C30.5 16.0667 30.5 15.95 30.5 15.8333C30.5 13.0667 32.7333 10.8333 35.5 10.8333C38.2667 10.8333 40.5 13.0667 40.5 15.8333C40.5 18.6 38.2667 20.8333 35.5 20.8333C33.7333 20.8333 32.2 19.9167 31.3 18.55L27.9167 19.6833C28.25 21.8333 27.65 24.1 26.1 25.8333L28.45 28.7833C29.0833 28.4833 29.7667 28.3333 30.5 28.3333C33.2667 28.3333 35.5 30.5667 35.5 33.3333C35.5 36.1 33.2667 38.3333 30.5 38.3333C27.7333 38.3333 25.5 36.1 25.5 33.3333C25.5 32.2 25.8667 31.1667 26.5 30.3333L24.15 27.3833C21.9 28.6333 19.1333 28.65 16.8667 27.3833L14.5 30.3333Z" fill="#6494FF"/>
</g>
<defs>
<clipPath id="clip0_3332_3761">
<rect width="40" height="40" fill="white" transform="translate(0.5)"/>
</clipPath>
</defs>
</svg>
