<svg width="37" height="13" viewBox="0 0 37 13" fill="none" xmlns="http://www.w3.org/2000/svg">
<path d="M0.867375 12V1.056H3.23538V12H0.867375ZM7.018 12.048C6.64467 12.048 6.33 11.92 6.074 11.664C5.818 11.408 5.69 11.0933 5.69 10.72C5.69 10.3573 5.818 10.0533 6.074 9.808C6.33 9.552 6.64467 9.424 7.018 9.424C7.37 9.424 7.674 9.552 7.93 9.808C8.186 10.0533 8.314 10.3573 8.314 10.72C8.314 11.0827 8.186 11.3973 7.93 11.664C7.674 11.92 7.37 12.048 7.018 12.048ZM18.0376 11.2C17.2483 11.9147 16.2296 12.272 14.9816 12.272C13.7336 12.272 12.715 11.9147 11.9256 11.2C11.1363 10.4853 10.7416 9.62667 10.7416 8.624V4.624C10.7416 3.61067 11.1363 2.74667 11.9256 2.032C12.715 1.30667 13.7336 0.943999 14.9816 0.943999C16.2296 0.943999 17.2483 1.30667 18.0376 2.032C18.827 2.74667 19.2216 3.61067 19.2216 4.624V8.624C19.2216 9.62667 18.827 10.4853 18.0376 11.2ZM14.9816 10.24C15.5363 10.24 15.9683 10.08 16.2776 9.76C16.587 9.42933 16.7416 9.088 16.7416 8.736V4.384C16.7416 4.04267 16.587 3.72267 16.2776 3.424C15.979 3.12533 15.547 2.976 14.9816 2.976C14.427 2.976 13.9896 3.13067 13.6696 3.44C13.3603 3.73867 13.2056 4.05333 13.2056 4.384V8.736C13.2056 9.07733 13.3656 9.41333 13.6856 9.744C14.0056 10.0747 14.4376 10.24 14.9816 10.24ZM22.9555 12.048C22.5822 12.048 22.2675 11.92 22.0115 11.664C21.7555 11.408 21.6275 11.0933 21.6275 10.72C21.6275 10.3573 21.7555 10.0533 22.0115 9.808C22.2675 9.552 22.5822 9.424 22.9555 9.424C23.3075 9.424 23.6115 9.552 23.8675 9.808C24.1235 10.0533 24.2515 10.3573 24.2515 10.72C24.2515 11.0827 24.1235 11.3973 23.8675 11.664C23.6115 11.92 23.3075 12.048 22.9555 12.048ZM33.8151 1.056H36.1351V12H33.7511V4.336L32.0711 7.712H30.7751L29.0791 4.32V12H26.7111V1.056H29.0311L31.4311 4.912L33.8151 1.056Z" fill="#6494FF"/>
</svg>
