<svg width="72" height="72" viewBox="0 0 72 72" fill="none" xmlns="http://www.w3.org/2000/svg">
<path d="M17.3997 52.5C18.9362 52.5006 20.4383 52.0455 21.716 51.1923C22.9937 50.3391 23.9897 49.1261 24.5779 47.7067C25.1662 46.2873 25.3202 44.7254 25.0206 43.2185C24.7211 41.7115 23.9813 40.3273 22.8948 39.2409C21.8084 38.1545 20.4242 37.4147 18.9173 37.1151C17.4103 36.8155 15.8484 36.9696 14.4291 37.5578C13.0097 38.146 11.7967 39.142 10.9435 40.4198C10.0902 41.6975 9.63515 43.1996 9.63574 44.736C9.63892 46.7942 10.4579 48.7671 11.9133 50.2225C13.3686 51.6778 15.3416 52.4968 17.3997 52.5ZM17.3997 40.569C18.224 40.5684 19.03 40.8123 19.7156 41.2698C20.4013 41.7273 20.9358 42.3779 21.2517 43.1393C21.5675 43.9007 21.6505 44.7386 21.49 45.5471C21.3296 46.3556 20.933 47.0984 20.3503 47.6815C19.7677 48.2645 19.0252 48.6617 18.2168 48.8227C17.4084 48.9837 16.5704 48.9014 15.8088 48.5861C15.0472 48.2708 14.3962 47.7367 13.9382 47.0514C13.4802 46.3661 13.2357 45.5603 13.2357 44.736C13.235 44.1884 13.342 43.646 13.5509 43.1398C13.7597 42.6335 14.0662 42.1734 14.4529 41.7856C14.8395 41.3978 15.2988 41.09 15.8044 40.8797C16.31 40.6694 16.8521 40.5608 17.3997 40.56V40.569Z" fill="#FA996A"/>
<path d="M28.2363 44.727C28.2369 46.2625 28.6928 47.7633 29.5463 49.0397C30.3997 50.316 31.6125 51.3107 33.0313 51.8979C34.45 52.4851 36.011 52.6384 37.5168 52.3385C39.0227 52.0386 40.4058 51.2989 41.4914 50.2129C42.5769 49.127 43.316 47.7436 43.6154 46.2376C43.9147 44.7316 43.7608 43.1707 43.173 41.7522C42.5853 40.3337 41.5902 39.1213 40.3135 38.2683C39.0367 37.4153 37.5358 36.96 36.0003 36.96C33.9414 36.9624 31.9675 37.7816 30.5119 39.2377C29.0563 40.6939 28.2379 42.6681 28.2363 44.727ZM40.1643 44.727C40.1637 45.5505 39.919 46.3552 39.4611 47.0396C39.0032 47.724 38.3527 48.2572 37.5917 48.5719C36.8308 48.8866 35.9937 48.9687 35.1861 48.8076C34.3786 48.6466 33.6369 48.2498 33.0549 47.6674C32.4728 47.0849 32.0765 46.3429 31.9161 45.5353C31.7557 44.7276 31.8383 43.8905 32.1536 43.1298C32.4688 42.3691 33.0025 41.719 33.6872 41.2616C34.3719 40.8042 35.1769 40.56 36.0003 40.56C37.105 40.5608 38.1641 41.0002 38.9449 41.7816C39.7257 42.5629 40.1643 43.6224 40.1643 44.727Z" fill="#FA996A"/>
<path d="M46.8242 44.727C46.8242 46.2628 47.2795 47.7641 48.1326 49.0412C48.9856 50.3183 50.1981 51.3138 51.6168 51.9019C53.0355 52.4901 54.5968 52.6444 56.1032 52.3454C57.6096 52.0465 58.9935 51.3076 60.0801 50.2223C61.1667 49.137 61.9072 47.7539 62.2079 46.2478C62.5086 44.7417 62.3561 43.1803 61.7696 41.761C61.1831 40.3416 60.189 39.1279 58.9129 38.2734C57.6368 37.4188 56.136 36.9618 54.6002 36.96C52.5392 36.9592 50.5623 37.777 49.1041 39.2335C47.6459 40.69 46.8258 42.666 46.8242 44.727ZM58.7552 44.727C58.7552 45.5517 58.5105 46.3578 58.0521 47.0433C57.5937 47.7288 56.9422 48.2629 56.1801 48.578C55.418 48.893 54.5795 48.9748 53.7709 48.8131C52.9622 48.6513 52.2197 48.2532 51.6375 47.6693C51.0552 47.0853 50.6593 46.3417 50.4998 45.5326C50.3404 44.7235 50.4246 43.8853 50.7419 43.124C51.0591 42.3628 51.5951 41.7129 52.2819 41.2565C52.9687 40.8 53.7756 40.5576 54.6002 40.56C55.7031 40.564 56.7594 41.0047 57.5381 41.7856C58.3168 42.5666 58.7544 43.6242 58.7552 44.727Z" fill="#FA996A"/>
<path d="M54.6004 53.382C52.7522 53.3833 50.9336 53.846 49.3096 54.7283C47.6855 55.6105 46.3074 56.8843 45.3004 58.434C44.296 56.8812 42.9187 55.6046 41.2942 54.7207C39.6698 53.8367 37.8498 53.3737 36.0004 53.3737C34.151 53.3737 32.3311 53.8367 30.7066 54.7207C29.0822 55.6046 27.7049 56.8812 26.7004 58.434C25.401 56.4491 23.4998 54.9327 21.2756 54.1073C19.0514 53.2818 16.6212 53.1907 14.3415 53.8473C12.0617 54.5038 10.0523 55.8736 8.60786 57.7556C7.16344 59.6377 6.36003 61.933 6.31543 64.305H9.91543C10.017 62.3873 10.8504 60.5816 12.2438 59.26C13.6372 57.9384 15.4845 57.2018 17.4049 57.2018C19.3254 57.2018 21.1727 57.9384 22.5661 59.26C23.9595 60.5816 24.7928 62.3873 24.8944 64.305H28.5004C28.5947 62.3818 29.4251 60.5685 30.8196 59.2407C32.2141 57.9129 34.0659 57.1723 35.9914 57.1723C37.917 57.1723 39.7687 57.9129 41.1632 59.2407C42.5577 60.5685 43.3881 62.3818 43.4824 64.305H47.0824C47.1767 62.3818 48.0071 60.5685 49.4016 59.2407C50.7961 57.9129 52.6479 57.1723 54.5734 57.1723C56.499 57.1723 58.3507 57.9129 59.7452 59.2407C61.1397 60.5685 61.9701 62.3818 62.0644 64.305H65.6644C65.6181 61.3981 64.4331 58.6254 62.3642 56.5829C60.2953 54.5404 57.5077 53.3911 54.6004 53.382Z" fill="#FA996A"/>
<path d="M26.7005 23.223C28.2362 23.2236 29.7375 22.7688 31.0147 21.916C32.2919 21.0632 33.2875 19.8509 33.8756 18.4322C34.4637 17.0136 34.6179 15.4524 34.3186 13.9462C34.0194 12.4399 33.2802 11.0562 32.1945 9.97009C31.1088 8.88398 29.7254 8.14423 28.2192 7.84441C26.7131 7.54459 25.1519 7.69817 23.733 8.28572C22.3141 8.87327 21.1014 9.8684 20.2481 11.1453C19.3949 12.4221 18.9395 13.9233 18.9395 15.459C18.9418 17.5169 19.7602 19.4899 21.215 20.9453C22.6699 22.4007 24.6426 23.2198 26.7005 23.223ZM26.7005 11.295C27.5241 11.2944 28.3295 11.5381 29.0147 11.9953C29.6998 12.4525 30.234 13.1026 30.5496 13.8634C30.8652 14.6243 30.9481 15.4616 30.7878 16.2695C30.6275 17.0775 30.2311 17.8197 29.6489 18.4023C29.0667 18.985 28.3247 19.3819 27.5169 19.5428C26.7091 19.7037 25.8717 19.6214 25.1107 19.3063C24.3496 18.9913 23.6991 18.4575 23.2414 17.7727C22.7837 17.0879 22.5395 16.2827 22.5395 15.459C22.541 14.3557 22.9798 13.2979 23.7598 12.5174C24.5397 11.737 25.5971 11.2974 26.7005 11.295Z" fill="#FA996A"/>
<path d="M26.7002 27.714C28.6434 27.7127 30.5112 28.4657 31.9102 29.8144C33.3093 31.163 34.1302 33.002 34.2002 34.944H37.8002C37.9085 33.0313 38.7446 31.2327 40.137 29.9169C41.5294 28.6011 43.3725 27.8681 45.2882 27.8681C47.2039 27.8681 49.047 28.6011 50.4393 29.9169C51.8317 31.2327 52.6678 33.0313 52.7762 34.944H56.3762C56.3098 32.5823 55.4917 30.3034 54.0407 28.4388C52.5898 26.5743 50.5817 25.2213 48.3088 24.5768C46.0358 23.9322 43.6164 24.0297 41.4027 24.8551C39.189 25.6805 37.2963 27.1907 36.0002 29.166C34.705 27.1881 32.812 25.6754 30.5972 24.8483C28.3823 24.0212 25.9613 23.9229 23.6866 24.5677C21.412 25.2126 19.4027 26.5668 17.9514 28.4332C16.5001 30.2996 15.6827 32.5806 15.6182 34.944H19.2182C19.288 33.0051 20.1065 31.1688 21.5016 29.8206C22.8968 28.4725 24.7601 27.7174 26.7002 27.714Z" fill="#FA996A"/>
<path d="M45.3003 23.223C46.8356 23.2218 48.3361 22.7655 49.6121 21.9116C50.8881 21.0578 51.8823 19.8448 52.469 18.426C53.0557 17.0072 53.2086 15.4463 52.9084 13.9407C52.6081 12.435 51.8682 11.0521 50.7821 9.96691C49.6961 8.8817 48.3127 8.14285 46.8068 7.84376C45.3008 7.54467 43.7401 7.69877 42.3217 8.28658C40.9034 8.8744 39.6912 9.86953 38.8383 11.1462C37.9855 12.4228 37.5303 13.9237 37.5303 15.459C37.5335 17.5182 38.3533 19.4921 39.8099 20.9476C41.2666 22.4031 43.2411 23.2214 45.3003 23.223ZM45.3003 11.295C46.1236 11.2962 46.9281 11.5414 47.612 11.9997C48.296 12.458 48.8288 13.1087 49.143 13.8697C49.4573 14.6306 49.5389 15.4677 49.3775 16.275C49.2162 17.0824 48.8191 17.8238 48.2365 18.4055C47.654 18.9873 46.912 19.3832 46.1044 19.5434C45.2969 19.7036 44.4599 19.6208 43.6994 19.3055C42.9389 18.9901 42.2889 18.4564 41.8316 17.7718C41.3743 17.0871 41.1303 16.2823 41.1303 15.459C41.1319 14.3541 41.5719 13.295 42.3538 12.5143C43.1356 11.7335 44.1954 11.295 45.3003 11.295Z" fill="#FA996A"/>
</svg>
