<svg width="41" height="40" viewBox="0 0 41 40" fill="none" xmlns="http://www.w3.org/2000/svg">
<path d="M34.1418 8.56152H6.85843C5.96167 8.56241 5.10187 8.91892 4.46762 9.55286C3.83336 10.1868 3.47642 11.0464 3.4751 11.9432V28.0515C3.47642 28.9483 3.83336 29.8079 4.46762 30.4419C5.10187 31.0758 5.96167 31.4323 6.85843 31.4332H34.1418C35.0384 31.4323 35.898 31.0757 36.532 30.4417C37.166 29.8078 37.5225 28.9481 37.5234 28.0515V11.9432C37.5225 11.0466 37.166 10.187 36.532 9.55297C35.898 8.91897 35.0384 8.56241 34.1418 8.56152ZM35.5234 28.0515C35.523 28.4178 35.3773 28.769 35.1183 29.028C34.8592 29.287 34.5081 29.4328 34.1418 29.4332H6.85843C6.49197 29.4328 6.14062 29.2871 5.88134 29.0281C5.62206 28.7692 5.47598 28.418 5.4751 28.0515V11.9432C5.47598 11.5767 5.62206 11.2256 5.88134 10.9666C6.14062 10.7076 6.49197 10.562 6.85843 10.5615H34.1418C34.5081 10.562 34.8592 10.7077 35.1183 10.9667C35.3773 11.2257 35.523 11.5769 35.5234 11.9432V28.0515Z" fill="white"/>
<path d="M35.1417 33.0752H5.8584V35.0752H35.1417V33.0752Z" fill="white"/>
<path d="M30.8732 14.6667H18.7982C17.8722 13.7189 16.6846 13.0686 15.3873 12.7988C14.0899 12.529 12.7416 12.652 11.5144 13.152C10.2873 13.652 9.23694 14.5064 8.49756 15.606C7.75818 16.7057 7.36328 18.0007 7.36328 19.3258C7.36328 20.651 7.75818 21.946 8.49756 23.0457C9.23694 24.1453 10.2873 24.9997 11.5144 25.4997C12.7416 25.9997 14.0899 26.1227 15.3873 25.8529C16.6846 25.5831 17.8722 24.9328 18.7982 23.985H30.8749C31.6254 23.9819 32.3443 23.6824 32.875 23.1518C33.4057 22.6211 33.7052 21.9022 33.7082 21.1517V17.5C33.7056 16.7491 33.406 16.0297 32.8749 15.4989C32.3437 14.968 31.6242 14.6689 30.8732 14.6667ZM9.38324 19.3333C9.38014 18.6003 9.54978 17.8768 9.8784 17.2216C10.207 16.5663 10.6854 15.9977 11.2748 15.5618C11.8641 15.1258 12.5479 14.8349 13.2706 14.7125C13.9934 14.5901 14.7348 14.6397 15.4348 14.8572C16.1349 15.0748 16.7738 15.4542 17.2999 15.9647C17.8259 16.4752 18.2243 17.1025 18.4628 17.7957C18.7012 18.4889 18.773 19.2285 18.6723 19.9546C18.5716 20.6807 18.3013 21.3729 17.8832 21.975L16.3099 20.4017C16.5298 19.9642 16.6439 19.4813 16.6432 18.9917C16.6448 18.3024 16.4214 17.6314 16.0069 17.0806C15.5925 16.5298 15.0097 16.1293 14.3469 15.9399C13.6842 15.7504 12.9777 15.7824 12.3348 16.0309C11.6919 16.2795 11.1476 16.731 10.7846 17.317C10.4216 17.9029 10.2597 18.5913 10.3235 19.2777C10.3873 19.964 10.6733 20.6108 11.1381 21.1198C11.6029 21.6288 12.2211 21.9723 12.8988 22.0981C13.5765 22.2238 14.2768 22.125 14.8932 21.8167L16.4166 23.3333C15.7099 23.7528 14.9048 23.9777 14.083 23.9853C13.2613 23.9929 12.4522 23.7829 11.7378 23.3767C11.0235 22.9704 10.4294 22.3824 10.0158 21.6722C9.60228 20.9621 9.38403 20.1551 9.38324 19.3333ZM13.4816 20.1517C13.2508 20.1517 13.0253 20.0833 12.8334 19.9551C12.6416 19.8269 12.492 19.6447 12.4037 19.4315C12.3154 19.2183 12.2923 18.9837 12.3373 18.7574C12.3823 18.5311 12.4935 18.3232 12.6566 18.1601C12.8198 17.9969 13.0277 17.8858 13.254 17.8408C13.4803 17.7957 13.7149 17.8189 13.928 17.9072C14.1412 17.9955 14.3234 18.145 14.4516 18.3369C14.5798 18.5287 14.6482 18.7543 14.6482 18.985C14.6447 19.2921 14.5203 19.5855 14.3019 19.8014C14.0834 20.0173 13.7887 20.1384 13.4816 20.1383V20.1517ZM31.7132 21.1517C31.7132 21.3727 31.6254 21.5847 31.4692 21.7409C31.3129 21.8972 31.1009 21.985 30.8799 21.985H20.1482L20.1666 21.9417C20.1932 21.8783 20.2199 21.8133 20.2449 21.7483L20.2849 21.6467C20.3199 21.5533 20.3516 21.4583 20.3832 21.3633V21.3467C20.4166 21.245 20.4449 21.1433 20.4716 21.0417C20.4816 21.0083 20.4882 20.975 20.4966 20.9417C20.5149 20.8717 20.5316 20.8017 20.5466 20.73C20.5466 20.69 20.5632 20.6517 20.5699 20.6117C20.5832 20.5467 20.5966 20.48 20.6066 20.4133L20.6266 20.29C20.6366 20.2233 20.6449 20.1567 20.6516 20.09C20.6516 20.05 20.6616 20.01 20.6649 19.9683C20.6649 19.8967 20.6782 19.8233 20.6832 19.7517C20.6832 19.7167 20.6832 19.6817 20.6832 19.6467C20.6832 19.54 20.6832 19.4333 20.6832 19.325C20.6832 19.2167 20.6832 19.11 20.6832 19.0033C20.6832 18.9683 20.6832 18.9333 20.6832 18.9C20.6832 18.8267 20.6732 18.755 20.6649 18.6817C20.6649 18.6417 20.6649 18.6017 20.6516 18.5617C20.6449 18.495 20.6366 18.4283 20.6266 18.3617L20.6066 18.2383C20.5966 18.1717 20.5832 18.105 20.5699 18.0383C20.5699 18 20.5549 17.96 20.5466 17.9217C20.531 17.8495 20.5144 17.7778 20.4966 17.7067C20.4882 17.675 20.4816 17.6433 20.4732 17.6117C20.4449 17.5083 20.4166 17.4067 20.3832 17.305V17.2883C20.3516 17.1933 20.3199 17.0983 20.2849 17.005C20.2716 16.9717 20.2582 16.94 20.2466 16.9067C20.2199 16.84 20.1932 16.7733 20.1649 16.7083C20.1601 16.6942 20.1545 16.6803 20.1482 16.6667H30.8732C31.0943 16.6667 31.3062 16.7545 31.4625 16.9108C31.6188 17.067 31.7066 17.279 31.7066 17.5L31.7132 21.1517Z" fill="white"/>
</svg>
