<svg width="74" height="72" viewBox="0 0 74 72" fill="none" xmlns="http://www.w3.org/2000/svg">
<path d="M61.8964 18.774H46.8979L46.9922 18.684C47.5757 18.122 47.9881 17.4102 48.1826 16.629C48.377 15.8478 48.3459 15.0286 48.0927 14.2639C47.8394 13.4993 47.3742 12.8199 46.7496 12.3026C46.1251 11.7853 45.3662 11.4508 44.5589 11.337L42.0343 10.974L40.9058 8.718C40.5445 7.99763 39.9862 7.39123 39.2939 6.96725C38.6017 6.54327 37.803 6.3186 36.9881 6.3186C36.1733 6.3186 35.3746 6.54327 34.6824 6.96725C33.9901 7.39123 33.4318 7.99763 33.0705 8.718L31.942 10.974L29.4174 11.337C28.6101 11.4508 27.8512 11.7853 27.2266 12.3026C26.6021 12.8199 26.1369 13.4993 25.8836 14.2639C25.6304 15.0286 25.5992 15.8478 25.7937 16.629C25.9882 17.4102 26.4006 18.122 26.9841 18.684L27.0784 18.774H12.1043C10.4677 18.7756 8.89856 19.4173 7.74103 20.5584C6.58351 21.6995 5.9321 23.2468 5.92969 24.861V55.248C5.9321 56.8624 6.58341 58.4101 7.74085 59.5517C8.89828 60.6932 10.4674 61.3356 12.1043 61.338H61.8964C63.5329 61.3356 65.1017 60.6931 66.2587 59.5515C67.4157 58.4098 68.0663 56.8622 68.0679 55.248V24.861C68.0663 23.2471 67.4156 21.6998 66.2585 20.5586C65.1015 19.4174 63.5327 18.7756 61.8964 18.774ZM29.9589 14.901L34.0073 14.319C34.1228 14.3032 34.2326 14.2596 34.327 14.1921C34.4214 14.1246 34.4975 14.0353 34.5487 13.932L36.3585 10.311C36.4184 10.1929 36.5104 10.0935 36.6243 10.0241C36.7382 9.95463 36.8695 9.91785 37.0034 9.91785C37.1373 9.91785 37.2685 9.95463 37.3824 10.0241C37.4963 10.0935 37.5883 10.1929 37.6482 10.311L39.458 13.932C39.5092 14.0353 39.5853 14.1246 39.6797 14.1921C39.7741 14.2596 39.8839 14.3032 39.9994 14.319L44.0479 14.901C44.1795 14.9199 44.3032 14.9747 44.405 15.0592C44.5068 15.1437 44.5827 15.2545 44.6241 15.3792C44.6655 15.5039 44.6708 15.6376 44.6394 15.7651C44.608 15.8926 44.5411 16.0089 44.4463 16.101L41.5141 18.918C41.4317 18.9987 41.3701 19.0978 41.3346 19.2069C41.2991 19.3161 41.2908 19.432 41.3104 19.545L42.0008 23.523C42.0185 23.6246 42.0135 23.7289 41.9862 23.8284C41.959 23.928 41.9101 24.0205 41.8429 24.0995C41.7758 24.1786 41.692 24.2423 41.5974 24.2862C41.5028 24.3302 41.3997 24.3533 41.2951 24.354C41.1783 24.3535 41.0634 24.3247 40.9606 24.27L37.3349 22.398C37.2316 22.3449 37.1168 22.3172 37.0003 22.3172C36.8838 22.3172 36.769 22.3449 36.6657 22.398L33.0461 24.276C32.9433 24.3307 32.8284 24.3595 32.7116 24.36C32.607 24.3593 32.5039 24.3362 32.4093 24.2922C32.3147 24.2483 32.2309 24.1846 32.1638 24.1055C32.0966 24.0265 32.0478 23.934 32.0205 23.8344C31.9932 23.7349 31.9882 23.6306 32.0059 23.529L32.6964 19.551C32.7159 19.438 32.7076 19.3221 32.6721 19.2129C32.6366 19.1038 32.5751 19.0047 32.4926 18.924L29.5604 16.107C29.4639 16.0154 29.3954 15.8988 29.3628 15.7706C29.3302 15.6425 29.3347 15.5078 29.3759 15.3821C29.4172 15.2564 29.4934 15.1446 29.5959 15.0595C29.6985 14.9745 29.8232 14.9195 29.9558 14.901H29.9589ZM64.4209 55.248C64.4209 55.9079 64.1554 56.5408 63.6826 57.0076C63.2098 57.4745 62.5684 57.7372 61.8994 57.738H50.2529C50.8188 57.2497 51.2202 56.6027 51.4036 55.8835C51.5869 55.1643 51.5435 54.407 51.2791 53.7127C51.0146 53.0185 50.5418 52.4203 49.9236 51.9981C49.3055 51.5759 48.5714 51.3496 47.8195 51.3496C47.0676 51.3496 46.3336 51.5759 45.7154 51.9981C45.0973 52.4203 44.6244 53.0185 44.36 53.7127C44.0955 54.407 44.0521 55.1643 44.2355 55.8835C44.4188 56.6027 44.8203 57.2497 45.3862 57.738H34.2841C34.85 57.2497 35.2515 56.6027 35.4348 55.8835C35.6182 55.1643 35.5748 54.407 35.3103 53.7127C35.0459 53.0185 34.573 52.4203 33.9549 51.9981C33.3367 51.5759 32.6027 51.3496 31.8508 51.3496C31.0989 51.3496 30.3648 51.5759 29.7467 51.9981C29.1285 52.4203 28.6557 53.0185 28.3912 53.7127C28.1268 54.407 28.0834 55.1643 28.2667 55.8835C28.4501 56.6027 28.8515 57.2497 29.4174 57.738H12.1043C11.435 57.7372 10.7933 57.4746 10.32 57.0078C9.84673 56.541 9.58049 55.9081 9.57969 55.248V24.861C9.5813 24.2014 9.84789 23.5693 10.3211 23.1031C10.7943 22.637 11.4355 22.3748 12.1043 22.374H15.7877H17.6127H17.631C18.5078 22.37 19.3596 22.6622 20.0447 23.202C20.7298 23.7418 21.2069 24.4966 21.3966 25.341L26.0503 45.468C26.3271 46.6967 27.0205 47.7955 28.0159 48.5831C29.0113 49.3707 30.2492 49.7999 31.5253 49.8H47.342C48.6241 49.8054 49.8693 49.3771 50.87 48.5866C51.8708 47.7961 52.5665 46.6912 52.8413 45.456L55.2503 34.8C55.3847 34.2113 55.3848 33.6004 55.2507 33.0116C55.1165 32.4228 54.8514 31.8708 54.4744 31.3954C54.0975 30.92 53.6182 30.5331 53.0712 30.2628C52.5242 29.9924 51.9231 29.8453 51.3114 29.832L26.0503 29.256L24.9553 24.543C24.7801 23.7783 24.4823 23.0461 24.0732 22.374H28.4989L28.4046 22.923C28.2975 23.5412 28.3284 24.1751 28.4953 24.7803C28.6622 25.3855 28.961 25.9475 29.3708 26.4271C29.7806 26.9067 30.2915 27.2924 30.868 27.5571C31.4445 27.8219 32.0726 27.9594 32.7085 27.96C33.4176 27.9581 34.1157 27.7872 34.7434 27.462L37.0003 26.292L39.2603 27.462C39.9814 27.8354 40.794 28.0025 41.6064 27.9444C42.4187 27.8863 43.1984 27.6053 43.8574 27.1332C44.5164 26.6611 45.0284 26.0167 45.3356 25.2727C45.6428 24.5287 45.7331 23.7149 45.5961 22.923L45.517 22.374H61.9116C62.5801 22.3748 63.221 22.6371 63.6937 23.1033C64.1664 23.5695 64.4323 24.2017 64.4331 24.861L64.4209 55.248ZM26.8776 32.877L51.2384 33.438C51.3106 33.4385 51.3817 33.4555 51.4462 33.4878C51.5106 33.5201 51.5665 33.5667 51.6094 33.624C51.6553 33.6788 51.6875 33.7435 51.7033 33.8128C51.7192 33.8821 51.7183 33.9541 51.7007 34.023L49.2856 44.664C49.1893 45.101 48.9437 45.4921 48.5898 45.7718C48.236 46.0514 47.7954 46.2026 47.342 46.2H31.5253C31.0742 46.2017 30.636 46.0512 30.2836 45.7734C29.9312 45.4956 29.6856 45.1074 29.5878 44.673L26.8776 32.877Z" fill="#FA8750" fill-opacity="0.85"/>
<path d="M63.7214 64.293H10.2793V67.893H63.7214V64.293Z" fill="#FA8750" fill-opacity="0.85"/>
<path d="M39.1567 43.752C39.2453 43.8406 39.3509 43.911 39.4673 43.9589C39.5838 44.0068 39.7088 44.0313 39.835 44.031C39.9611 44.0308 40.0859 44.006 40.2023 43.9582C40.3187 43.9103 40.4244 43.8402 40.5133 43.752L43.9108 40.401C44.0855 40.2295 44.1865 39.9981 44.1927 39.7551C44.1989 39.512 44.11 39.276 43.9443 39.096C43.8495 38.9974 43.7346 38.9197 43.6073 38.868C43.4799 38.8163 43.3428 38.7917 43.2051 38.796H41.66V35.22H38.01V38.784H36.4344C36.1882 38.7844 35.9516 38.878 35.7733 39.0455C35.5951 39.2129 35.4887 39.4415 35.4763 39.684C35.4711 39.8208 35.4955 39.9571 35.548 40.0838C35.6004 40.2106 35.6797 40.3248 35.7804 40.419L39.1567 43.752Z" fill="#FA8750" fill-opacity="0.85"/>
</svg>
