<svg width="48" height="48" viewBox="0 0 48 48" fill="none" xmlns="http://www.w3.org/2000/svg">
<path d="M40.3701 12.5157H33.2681V4.30371H26.1541V7.69171H21.4381V12.5157H16.7241V19.1997L16.0801 16.3617C15.8371 15.2671 15.2268 14.2886 14.3507 13.589C13.4745 12.8893 12.3853 12.5105 11.2641 12.5157H7.63007C6.55396 12.5168 5.5222 12.9446 4.76109 13.7053C3.99998 14.4661 3.57166 15.4976 3.57007 16.5737V36.8317C3.57166 37.908 3.99991 38.9398 4.76097 39.7008C5.52202 40.4619 6.55378 40.8901 7.63007 40.8917H40.3701C41.4462 40.8901 42.4777 40.4618 43.2385 39.7007C43.9992 38.9396 44.427 37.9078 44.4281 36.8317V16.5737C44.427 15.4978 43.9991 14.4662 43.2383 13.7054C42.4775 12.9446 41.446 12.5168 40.3701 12.5157ZM28.5541 6.70371H30.8681V19.8337L28.5541 19.7797V6.70371ZM21.4381 22.2917H33.3621C33.4096 22.292 33.4564 22.3034 33.4987 22.3249C33.5411 22.3464 33.5778 22.3775 33.6061 22.4157C33.6362 22.4522 33.6574 22.4953 33.6678 22.5416C33.6782 22.5878 33.6776 22.6358 33.6661 22.6817L32.0781 29.7757C32.0148 30.0671 31.8533 30.3278 31.6206 30.5142C31.3879 30.7007 31.0982 30.8015 30.8001 30.7997H20.4001C20.1034 30.8008 19.8153 30.7005 19.5836 30.5153C19.3519 30.3301 19.1904 30.0713 19.1261 29.7817L17.4241 22.2937L21.4381 22.2917ZM23.8381 10.0917H26.1541V19.7237L23.8381 19.6697V10.0917ZM21.4381 14.9157V19.6137L19.1241 19.5597V14.9157H21.4381ZM42.0381 36.8317C42.0381 37.2716 41.8635 37.6935 41.5526 38.0048C41.2417 38.3161 40.82 38.4912 40.3801 38.4917H32.7141C33.0862 38.1662 33.3501 37.7349 33.4707 37.2554C33.5913 36.7759 33.5627 36.271 33.3888 35.8082C33.215 35.3454 32.904 34.9466 32.4976 34.6651C32.0911 34.3836 31.6085 34.2328 31.1141 34.2328C30.6197 34.2328 30.137 34.3836 29.7306 34.6651C29.3241 34.9466 29.0132 35.3454 28.8393 35.8082C28.6654 36.271 28.6369 36.7759 28.7574 37.2554C28.878 37.7349 29.142 38.1662 29.5141 38.4917H22.2141C22.5855 38.1663 22.8489 37.7353 22.9691 37.2563C23.0893 36.7773 23.0605 36.273 22.8867 35.8108C22.7128 35.3485 22.4021 34.9503 21.9961 34.6692C21.59 34.3881 21.1079 34.2375 20.6141 34.2375C20.1202 34.2375 19.6381 34.3881 19.232 34.6692C18.826 34.9503 18.5153 35.3485 18.3415 35.8108C18.1676 36.273 18.1389 36.7773 18.259 37.2563C18.3792 37.7353 18.6426 38.1663 19.0141 38.4917H7.63007C7.18997 38.4912 6.76805 38.3161 6.45686 38.0049C6.14566 37.6937 5.9706 37.2718 5.97007 36.8317V16.5737C5.97113 16.134 6.14642 15.7126 6.45756 15.4018C6.7687 15.091 7.19032 14.9162 7.63007 14.9157H10.0521H11.2521C11.8303 14.9118 12.3925 15.1058 12.8451 15.4657C13.2977 15.8255 13.6136 16.3295 13.7401 16.8937L16.8001 30.3117C16.9817 31.131 17.4375 31.8638 18.0921 32.3889C18.7467 32.914 19.5609 33.2 20.4001 33.1997H30.8001C31.6431 33.2033 32.4619 32.9178 33.1199 32.3908C33.7779 31.8638 34.2354 31.1272 34.4161 30.3037L36.0001 23.1997C36.0885 22.8072 36.0885 22.4 36.0003 22.0075C35.9121 21.6149 35.7377 21.2469 35.4899 20.93C35.2421 20.613 34.9269 20.3551 34.5672 20.1749C34.2075 19.9946 33.8123 19.8965 33.4101 19.8877H33.2601V14.9157H40.3621C40.8016 14.9162 41.223 15.0911 41.5339 15.4019C41.8447 15.7127 42.0195 16.1341 42.0201 16.5737L42.0381 36.8317Z" fill="white"/>
<path d="M41.5699 42.8623H6.42993V45.2623H41.5699V42.8623Z" fill="white"/>
</svg>
