<svg width="48" height="48" viewBox="0 0 48 48" fill="none" xmlns="http://www.w3.org/2000/svg">
<path d="M40.3701 10.2744H7.63007C6.55396 10.2755 5.5222 10.7033 4.76109 11.464C3.99998 12.2248 3.57166 13.2563 3.57007 14.3324V33.6624C3.57166 34.7385 3.99998 35.7701 4.76109 36.5308C5.5222 37.2915 6.55396 37.7194 7.63007 37.7204H40.3701C41.446 37.7194 42.4775 37.2915 43.2383 36.5307C43.9991 35.7699 44.427 34.7383 44.4281 33.6624V14.3324C44.427 13.2565 43.9991 12.2249 43.2383 11.4641C42.4775 10.7034 41.446 10.2755 40.3701 10.2744ZM42.0281 33.6624C42.0275 34.102 41.8527 34.5234 41.5419 34.8342C41.231 35.145 40.8096 35.3199 40.3701 35.3204H7.63007C7.19032 35.3199 6.7687 35.1451 6.45756 34.8343C6.14642 34.5236 5.97113 34.1022 5.97007 33.6624V14.3324C5.97113 13.8927 6.14642 13.4713 6.45756 13.1605C6.7687 12.8497 7.19032 12.6749 7.63007 12.6744H40.3701C40.8096 12.6749 41.231 12.8498 41.5419 13.1606C41.8527 13.4714 42.0275 13.8928 42.0281 14.3324V33.6624Z" fill="white"/>
<path d="M41.5699 39.6904H6.42993V42.0904H41.5699V39.6904Z" fill="white"/>
<path d="M7.55811 24.0921H40.4421V13.9561H7.55811V24.0921ZM9.95811 16.3561H38.0421V21.6921H9.95811V16.3561Z" fill="white"/>
<path d="M7.55811 34.0957H20.4761V25.2617H7.55811V34.0957ZM9.95811 27.6617H18.0761V31.6957H9.95811V27.6617Z" fill="white"/>
<path d="M35.108 25.2617H22.188V27.6617H35.108V25.2617Z" fill="white"/>
<path d="M29.21 31.6963H22.188V34.0963H29.21V31.6963Z" fill="white"/>
<path d="M35.108 28.4805H22.188V30.8805H35.108V28.4805Z" fill="white"/>
</svg>
