<svg width="120" height="103" viewBox="0 0 120 103" fill="none" xmlns="http://www.w3.org/2000/svg">
<g clip-path="url(#clip0_1636_6314)">
<path opacity="0.5" d="M77.9446 84.0825C54.7222 84.0825 35.8892 65.2559 35.8892 42.0412C35.8892 18.8266 54.7222 0 77.9446 0C101.167 0 120 18.8266 120 42.0412C120 65.2559 101.177 84.0825 77.9446 84.0825Z" fill="#0050FF" fill-opacity="0.5"/>
<path d="M99.9443 46.0739C99.1082 31.0189 87.6433 19.0459 73.6597 19.0459H37.4256C23.3583 19.0459 11.8307 31.1651 11.12 46.356C4.75528 47.9963 -0.010437 54.2544 -0.010437 61.714C-0.010437 69.0169 4.57761 75.275 10.9215 76.9989V100.161C10.9215 101.363 11.8098 102.334 12.9072 102.334H99.5263C100.624 102.334 101.512 101.352 101.512 100.161V76.9884C107.856 75.2646 112.444 68.996 112.444 61.7035C112.433 53.7216 106.999 47.1187 99.9443 46.0739ZM24.8737 97.9881H14.9033V75.1914C14.9033 74.0944 14.1509 73.175 13.158 73.0392C7.91153 72.3392 3.97145 67.4706 3.97145 61.7035C3.97145 55.8424 8.01604 51.0052 13.2207 50.3574C13.2625 50.347 13.3148 50.347 13.367 50.3365C13.7119 50.2947 14.0673 50.2738 14.4226 50.2738C20.1916 50.2738 24.8737 55.3932 24.8737 61.7035V97.9881ZM83.5883 97.9881H28.8452V77.6884H83.5883V97.9881ZM83.5883 73.3526H28.8452V72.2974C28.8452 69.0587 31.2489 66.4259 34.2066 66.4259H78.2164C81.1845 66.4259 83.5778 69.0587 83.5778 72.2974V73.3526H83.5883ZM83.5883 63.9393C82.0728 62.7692 80.223 62.0797 78.2268 62.0797H34.2171C32.2209 62.0797 30.3606 62.7692 28.8556 63.9393V61.6931C28.8556 53.2514 22.7626 46.3455 15.1333 45.9485C16.0112 33.3382 25.6889 23.3712 37.436 23.3712H73.6597C85.459 23.3712 95.1577 33.4114 95.9729 46.0843C88.981 47.1813 83.5883 53.7529 83.5883 61.6931V63.9393ZM99.2859 73.0288C98.293 73.1646 97.551 74.084 97.551 75.181V97.9777H87.5701V61.7035C87.5701 55.4036 92.2627 50.2738 98.0213 50.2738C103.79 50.2738 108.483 55.3932 108.483 61.7035C108.472 67.4706 104.522 72.3392 99.2859 73.0288Z" fill="#141515"/>
<path d="M83.5882 77.6885H28.8452V97.9882H83.5882V77.6885Z" fill="white"/>
<path d="M108.472 61.7036C108.472 67.4707 104.522 72.3498 99.2859 73.0393C98.293 73.1751 97.551 74.0945 97.551 75.1915V97.9882H87.5701V61.7036C87.5701 55.4037 92.2627 50.2739 98.0213 50.2739C103.78 50.2739 108.472 55.4037 108.472 61.7036Z" fill="white"/>
<path d="M83.5882 72.2973V73.3526H28.8452V72.2973C28.8452 69.0586 31.2489 66.4258 34.2066 66.4258H78.2163C81.1845 66.4258 83.5882 69.0586 83.5882 72.2973Z" fill="white"/>
</g>
<defs>
<clipPath id="clip0_1636_6314">
<rect width="120" height="102.324" fill="white"/>
</clipPath>
</defs>
</svg>
