<svg width="41" height="40" viewBox="0 0 41 40" fill="none" xmlns="http://www.w3.org/2000/svg">
<path d="M34.1416 8.56147H28.4749C27.8628 8.44216 27.3112 8.11402 26.9142 7.63313C26.5172 7.15223 26.2994 6.5484 26.2982 5.9248V4.9248H14.7049V5.9248C14.7036 6.54864 14.4857 7.15265 14.0883 7.63358C13.691 8.11451 13.1389 8.4425 12.5266 8.56147H6.8599C5.96314 8.56235 5.10334 8.91886 4.46908 9.55281C3.83482 10.1868 3.47789 11.0464 3.47656 11.9431V28.0515C3.47789 28.9482 3.83482 29.8078 4.46908 30.4418C5.10334 31.0757 5.96314 31.4323 6.8599 31.4331H34.1432C35.0398 31.4323 35.8995 31.0757 36.5335 30.4417C37.1674 29.8077 37.524 28.9481 37.5249 28.0515V11.9431C37.524 11.0462 37.1672 10.1864 36.5329 9.55232C35.8985 8.91828 35.0385 8.56191 34.1416 8.56147ZM16.5966 6.9248H24.4032C24.5968 7.79985 25.0365 8.60132 25.6705 9.23472C26.3045 9.86813 27.1063 10.3071 27.9816 10.4998V19.0481C27.9816 23.6948 25.3549 25.5765 20.4999 27.3165C15.6449 25.5765 13.0182 23.6931 13.0182 19.0481V10.4998C13.8936 10.3075 14.6957 9.86864 15.3298 9.23516C15.9638 8.60169 16.4034 7.80002 16.5966 6.9248ZM5.4749 28.0515V11.9431C5.47578 11.5767 5.62186 11.2255 5.88114 10.9665C6.14042 10.7076 6.49177 10.5619 6.85823 10.5615H11.0249V19.0515C11.0249 25.5748 15.7482 27.7748 20.1766 29.3248L20.4849 29.4331H6.85823C6.49177 29.4327 6.14042 29.287 5.88114 29.0281C5.62186 28.7691 5.47578 28.4179 5.4749 28.0515ZM35.5232 28.0515C35.5228 28.4178 35.3771 28.769 35.1181 29.028C34.859 29.287 34.5079 29.4327 34.1416 29.4331H20.5216L20.8332 29.3331C25.2616 27.7831 29.9849 25.5831 29.9849 19.0598V10.5615H34.1516C34.5179 10.5619 34.869 10.7076 35.1281 10.9666C35.3871 11.2257 35.5328 11.5768 35.5332 11.9431L35.5232 28.0515Z" fill="white"/>
<path d="M35.1417 33.0752H5.8584V35.0752H35.1417V33.0752Z" fill="white"/>
<path d="M20.4999 25.5001C24.8983 23.8334 26.2716 22.2467 26.2716 19.0534V11.7201C24.9167 11.0818 23.8265 9.9916 23.1883 8.63672H17.8116C17.1734 9.9916 16.0832 11.0818 14.7283 11.7201V19.0534C14.7283 22.2451 16.1016 23.8334 20.4999 25.5001ZM16.7283 12.8734C17.6086 12.2747 18.368 11.5153 18.9666 10.6351H22.0333C22.6319 11.5153 23.3913 12.2747 24.2716 12.8734V19.0517C24.2716 20.4984 23.9199 21.0934 23.5416 21.5201C22.9916 22.1384 22.0166 22.7267 20.4999 23.3534C18.9833 22.7317 17.9999 22.1434 17.4599 21.5201C17.0799 21.0934 16.7283 20.4984 16.7283 19.0517V12.8734Z" fill="white"/>
</svg>
