<svg width="41" height="40" viewBox="0 0 41 40" fill="none" xmlns="http://www.w3.org/2000/svg">
<path d="M34.1418 10.4304H25.9234L25.9751 10.3804C26.2948 10.0682 26.5208 9.67273 26.6274 9.23875C26.7339 8.80476 26.7169 8.34961 26.5781 7.92482C26.4393 7.50003 26.1844 7.12258 25.8422 6.83519C25.5 6.54781 25.0841 6.36198 24.6418 6.29874L23.2584 6.09707L22.6401 4.84374C22.4421 4.44354 22.1362 4.10665 21.7569 3.8711C21.3775 3.63556 20.9399 3.51074 20.4934 3.51074C20.0469 3.51074 19.6093 3.63556 19.23 3.8711C18.8507 4.10665 18.5448 4.44354 18.3468 4.84374L17.7284 6.09707L16.3451 6.29874C15.9027 6.36198 15.4869 6.54781 15.1447 6.83519C14.8024 7.12258 14.5475 7.50003 14.4088 7.92482C14.27 8.34961 14.2529 8.80476 14.3595 9.23875C14.4661 9.67273 14.692 10.0682 15.0118 10.3804L15.0634 10.4304H6.85843C5.96167 10.4313 5.10187 10.7878 4.46762 11.4217C3.83336 12.0557 3.47642 12.9153 3.4751 13.8121V30.6937C3.47642 31.5907 3.8333 32.4504 4.46751 33.0847C5.10173 33.7189 5.96152 34.0758 6.85843 34.0771H34.1418C35.0385 34.0758 35.8981 33.7188 36.5321 33.0846C37.166 32.4503 37.5225 31.5905 37.5234 30.6937V13.8121C37.5225 12.9155 37.166 12.0558 36.532 11.4218C35.898 10.7879 35.0384 10.4313 34.1418 10.4304ZM16.6418 8.27874L18.8601 7.95541C18.9234 7.94661 18.9835 7.9224 19.0353 7.88491C19.087 7.84742 19.1287 7.7978 19.1568 7.74041L20.1484 5.72874C20.1812 5.66311 20.2317 5.60791 20.2941 5.56933C20.3565 5.53076 20.4284 5.51032 20.5018 5.51032C20.5751 5.51032 20.6471 5.53076 20.7095 5.56933C20.7719 5.60791 20.8223 5.66311 20.8551 5.72874L21.8468 7.74041C21.8748 7.7978 21.9165 7.84742 21.9683 7.88491C22.02 7.9224 22.0802 7.94661 22.1434 7.95541L24.3618 8.27874C24.4339 8.28925 24.5017 8.31969 24.5575 8.36662C24.6133 8.41356 24.6548 8.47513 24.6775 8.54442C24.7002 8.6137 24.7031 8.68794 24.6859 8.75878C24.6687 8.82963 24.632 8.89426 24.5801 8.94541L22.9734 10.5104C22.9282 10.5552 22.8945 10.6103 22.875 10.6709C22.8556 10.7316 22.8511 10.796 22.8618 10.8587L23.2401 13.0687C23.2498 13.1252 23.247 13.1831 23.2321 13.2384C23.2172 13.2937 23.1904 13.3451 23.1536 13.389C23.1168 13.433 23.0709 13.4684 23.0191 13.4928C22.9672 13.5172 22.9107 13.53 22.8534 13.5304C22.7894 13.5301 22.7265 13.5141 22.6701 13.4837L20.6834 12.4437C20.6268 12.4142 20.5639 12.3988 20.5001 12.3988C20.4363 12.3988 20.3734 12.4142 20.3168 12.4437L18.3334 13.4871C18.2771 13.5174 18.2141 13.5335 18.1501 13.5337C18.0928 13.5334 18.0363 13.5205 17.9845 13.4961C17.9326 13.4717 17.8867 13.4363 17.8499 13.3924C17.8132 13.3485 17.7864 13.2971 17.7714 13.2417C17.7565 13.1864 17.7538 13.1285 17.7634 13.0721L18.1418 10.8621C18.1525 10.7993 18.1479 10.7349 18.1285 10.6743C18.109 10.6136 18.0753 10.5586 18.0301 10.5137L16.4234 8.94874C16.3705 8.89783 16.333 8.83308 16.3151 8.76188C16.2973 8.69067 16.2998 8.61588 16.3224 8.54602C16.345 8.47617 16.3867 8.41407 16.4429 8.36681C16.4991 8.31955 16.5674 8.28904 16.6401 8.27874H16.6418ZM35.5251 30.6937C35.5251 31.0603 35.3796 31.4119 35.1205 31.6713C34.8615 31.9307 34.51 32.0766 34.1434 32.0771H27.7618C28.0719 31.8058 28.2918 31.4464 28.3923 31.0468C28.4928 30.6472 28.469 30.2265 28.3241 29.8408C28.1792 29.4551 27.9201 29.1228 27.5814 28.8882C27.2426 28.6537 26.8404 28.528 26.4284 28.528C26.0164 28.528 25.6142 28.6537 25.2755 28.8882C24.9368 29.1228 24.6777 29.4551 24.5328 29.8408C24.3879 30.2265 24.3641 30.6472 24.4646 31.0468C24.565 31.4464 24.785 31.8058 25.0951 32.0771H19.0118C19.3219 31.8058 19.5418 31.4464 19.6423 31.0468C19.7428 30.6472 19.719 30.2265 19.5741 29.8408C19.4292 29.4551 19.1701 29.1228 18.8314 28.8882C18.4927 28.6537 18.0904 28.528 17.6784 28.528C17.2664 28.528 16.8642 28.6537 16.5255 28.8882C16.1868 29.1228 15.9277 29.4551 15.7828 29.8408C15.6379 30.2265 15.6141 30.6472 15.7146 31.0468C15.815 31.4464 16.035 31.8058 16.3451 32.0771H6.85843C6.49168 32.0766 6.14008 31.9307 5.88075 31.6714C5.62142 31.4121 5.47554 31.0605 5.4751 30.6937V13.8121C5.47598 13.4456 5.62206 13.0944 5.88134 12.8355C6.14062 12.5765 6.49197 12.4308 6.85843 12.4304H8.87676H9.87676H9.88676C10.3672 12.4282 10.834 12.5905 11.2094 12.8904C11.5848 13.1903 11.8462 13.6096 11.9501 14.0787L14.5001 25.2604C14.6518 25.943 15.0317 26.5535 15.5771 26.991C16.1225 27.4286 16.8009 27.667 17.5001 27.6671H26.1668C26.8693 27.6701 27.5516 27.4321 28.1 26.993C28.6483 26.5538 29.0295 25.9399 29.1801 25.2537L30.5001 19.3337C30.5737 19.0067 30.5738 18.6673 30.5003 18.3402C30.4268 18.0131 30.2815 17.7064 30.075 17.4423C29.8684 17.1782 29.6058 16.9633 29.3061 16.813C29.0063 16.6628 28.677 16.5811 28.3418 16.5737L14.5001 16.2537L13.9001 13.6354C13.8041 13.2106 13.6409 12.8038 13.4168 12.4304H15.8418L15.7901 12.7354C15.7314 13.0789 15.7484 13.431 15.8398 13.7672C15.9313 14.1035 16.095 14.4157 16.3195 14.6822C16.5441 14.9486 16.8241 15.1628 17.1399 15.3099C17.4558 15.457 17.8 15.5334 18.1484 15.5337C18.537 15.5327 18.9195 15.4378 19.2634 15.2571L20.5001 14.6071L21.7384 15.2571C22.1336 15.4645 22.5789 15.5573 23.024 15.5251C23.4691 15.4928 23.8963 15.3367 24.2574 15.0744C24.6185 14.8121 24.899 14.4541 25.0674 14.0408C25.2357 13.6275 25.2852 13.1753 25.2101 12.7354L25.1668 12.4304H34.1501C34.5164 12.4308 34.8676 12.5766 35.1266 12.8356C35.3856 13.0946 35.5313 13.4458 35.5318 13.8121L35.5251 30.6937ZM14.9534 18.2654L28.3018 18.5771C28.3414 18.5773 28.3803 18.5868 28.4156 18.6047C28.4509 18.6227 28.4816 18.6486 28.5051 18.6804C28.5302 18.7108 28.5479 18.7468 28.5565 18.7853C28.5652 18.8238 28.5647 18.8638 28.5551 18.9021L27.2318 24.8137C27.179 25.0565 27.0444 25.2738 26.8505 25.4292C26.6566 25.5845 26.4152 25.6685 26.1668 25.6671H17.5001C17.2529 25.668 17.0128 25.5844 16.8197 25.4301C16.6266 25.2758 16.4921 25.0601 16.4384 24.8187L14.9534 18.2654Z" fill="white"/>
<path d="M35.1417 35.7188H5.8584V37.7188H35.1417V35.7188Z" fill="white"/>
<path d="M21.6816 24.3064C21.7301 24.3557 21.788 24.3947 21.8518 24.4213C21.9156 24.448 21.9841 24.4616 22.0533 24.4614C22.1224 24.4613 22.1908 24.4476 22.2545 24.421C22.3183 24.3944 22.3762 24.3554 22.4249 24.3064L24.2866 22.4447C24.3823 22.3495 24.4376 22.2209 24.4411 22.0859C24.4445 21.9509 24.3957 21.8197 24.3049 21.7197C24.253 21.665 24.1901 21.6218 24.1203 21.5931C24.0505 21.5643 23.9754 21.5507 23.8999 21.5531H23.0533V19.5664H21.0533V21.5464H20.1899C20.055 21.5467 19.9254 21.5987 19.8277 21.6917C19.73 21.7847 19.6718 21.9117 19.6649 22.0464C19.6621 22.1224 19.6755 22.1981 19.7042 22.2685C19.733 22.339 19.7764 22.4024 19.8316 22.4547L21.6816 24.3064Z" fill="white"/>
</svg>
