<svg width="72" height="72" viewBox="0 0 72 72" fill="none" xmlns="http://www.w3.org/2000/svg">
<path d="M63.2611 50.925V40.635H55.1611V23.061C55.1564 20.843 54.2747 18.717 52.7083 17.1467C51.1419 15.5764 49.0181 14.6893 46.8001 14.679H45.0901C44.4758 12.7504 43.264 11.0671 41.6299 9.87267C39.9959 8.6782 38.0242 8.03442 36.0001 8.03442C33.976 8.03442 32.0044 8.6782 30.3703 9.87267C28.7363 11.0671 27.5244 12.7504 26.9101 14.679H25.2001C22.9801 14.6861 20.8532 15.5718 19.2842 17.1424C17.7153 18.7131 16.8319 20.841 16.8271 23.061V40.635H8.72713V50.925C6.88326 51.3659 5.26534 52.4682 4.18025 54.0228C3.09516 55.5774 2.61839 57.4762 2.84036 59.359C3.06234 61.2418 3.96762 62.9777 5.38449 64.2373C6.80137 65.497 8.63128 66.1928 10.5271 66.1928C12.423 66.1928 14.2529 65.497 15.6698 64.2373C17.0866 62.9777 17.9919 61.2418 18.2139 59.359C18.4359 57.4762 17.9591 55.5774 16.874 54.0228C15.7889 52.4682 14.171 51.3659 12.3271 50.925V44.235H34.2001V50.925C32.3554 51.3659 30.7367 52.4685 29.6511 54.0237C28.5654 55.5789 28.0884 57.4785 28.3103 59.3621C28.5323 61.2457 29.4379 62.9823 30.8554 64.2425C32.2728 65.5027 34.1035 66.1989 36.0001 66.1989C37.8968 66.1989 39.7274 65.5027 41.1449 64.2425C42.5623 62.9823 43.4679 61.2457 43.6899 59.3621C43.9119 57.4785 43.4348 55.5789 42.3492 54.0237C41.2635 52.4685 39.6448 51.3659 37.8001 50.925V44.235H59.6611V50.925C57.8164 51.3659 56.1978 52.4685 55.1121 54.0237C54.0264 55.5789 53.5494 57.4785 53.7713 59.3621C53.9933 61.2457 54.8989 62.9823 56.3164 64.2425C57.7338 65.5027 59.5645 66.1989 61.4611 66.1989C63.3578 66.1989 65.1884 65.5027 66.6059 64.2425C68.0233 62.9823 68.9289 61.2457 69.1509 59.3621C69.3729 57.4785 68.8958 55.5789 67.8102 54.0237C66.7245 52.4685 65.1058 51.3659 63.2611 50.925ZM14.6791 58.452C14.6773 59.2711 14.4328 60.0714 13.9763 60.7516C13.5199 61.4318 12.872 61.9614 12.1147 62.2735C11.3573 62.5856 10.5244 62.6662 9.72126 62.5051C8.91811 62.3439 8.18075 61.9484 7.60236 61.3683C7.02397 60.7882 6.63052 60.0497 6.47172 59.2461C6.31293 58.4425 6.39593 57.6098 6.71023 56.8534C7.02452 56.0969 7.55601 55.4506 8.23752 54.9961C8.91903 54.5417 9.71998 54.2994 10.5391 54.3C11.0836 54.3008 11.6226 54.4088 12.1253 54.6179C12.628 54.827 13.0846 55.133 13.469 55.5186C13.8535 55.9041 14.1582 56.3616 14.3658 56.8649C14.5735 57.3683 14.6799 57.9075 14.6791 58.452ZM40.1431 58.452C40.1413 59.271 39.8969 60.0711 39.4405 60.7513C38.9842 61.4314 38.3365 61.961 37.5794 62.2732C36.8222 62.5854 35.9894 62.6662 35.1864 62.5053C34.3833 62.3444 33.6459 61.9491 33.0674 61.3694C32.4889 60.7896 32.0952 60.0514 31.9361 59.2479C31.777 58.4445 31.8595 57.612 32.1734 56.8555C32.4872 56.099 33.0182 55.4524 33.6993 54.9976C34.3805 54.5428 35.1811 54.3 36.0001 54.3C37.1 54.3016 38.1542 54.7398 38.9311 55.5184C39.708 56.2969 40.1439 57.3521 40.1431 58.452ZM36.0001 11.637C37.1755 11.637 38.3246 11.9855 39.3019 12.6386C40.2792 13.2916 41.0409 14.2198 41.4907 15.3057C41.9406 16.3917 42.0582 17.5866 41.8289 18.7394C41.5996 19.8922 41.0336 20.9512 40.2025 21.7823C39.3713 22.6135 38.3124 23.1795 37.1595 23.4088C36.0067 23.6381 34.8118 23.5204 33.7258 23.0706C32.6399 22.6208 31.7117 21.8591 31.0587 20.8817C30.4057 19.9044 30.0571 18.7554 30.0571 17.58C30.0595 16.0045 30.6864 14.4943 31.8004 13.3803C32.9144 12.2663 34.4247 11.6394 36.0001 11.637ZM20.4271 23.061C20.4319 21.7957 20.936 20.5835 21.8298 19.688C22.7236 18.7925 23.9349 18.2861 25.2001 18.279H26.4811C26.662 20.6782 27.7428 22.9204 29.5069 24.5565C31.271 26.1926 33.5881 27.1018 35.9941 27.1018C38.4001 27.1018 40.7173 26.1926 42.4814 24.5565C44.2455 22.9204 45.3262 20.6782 45.5071 18.279H46.8001C48.0664 18.2845 49.2792 18.7902 50.1743 19.6859C51.0695 20.5816 51.5744 21.7947 51.5791 23.061V40.635H51.1111L49.1731 31.935C49.0157 31.0076 48.5361 30.1656 47.8189 29.557C47.1017 28.9484 46.1927 28.6124 45.2521 28.608H37.9501L36.0001 31.482L34.0501 28.608H26.7541C25.8135 28.6124 24.9046 28.9484 24.1874 29.557C23.4701 30.1656 22.9906 31.0076 22.8331 31.935L20.8951 40.635H20.4271V23.061ZM34.2001 40.635H24.6001L26.3761 32.661L26.4001 32.529C26.4136 32.4404 26.4581 32.3596 26.5257 32.3008C26.5933 32.242 26.6796 32.2091 26.7691 32.208H32.1541L36.0001 37.89L39.8611 32.208H45.2611C45.3507 32.2091 45.437 32.242 45.5045 32.3008C45.5721 32.3596 45.6166 32.4404 45.6301 32.529L47.4301 40.629H34.2001V40.635ZM61.4611 62.595C60.6417 62.595 59.8407 62.352 59.1594 61.8968C58.4781 61.4415 57.9471 60.7945 57.6335 60.0375C57.3199 59.2804 57.2379 58.4474 57.3977 57.6437C57.5576 56.8401 57.9522 56.1019 58.5316 55.5224C59.111 54.943 59.8492 54.5485 60.6529 54.3886C61.4565 54.2287 62.2896 54.3108 63.0466 54.6244C63.8036 54.9379 64.4507 55.4689 64.9059 56.1503C65.3611 56.8316 65.6041 57.6326 65.6041 58.452C65.6033 59.5505 65.1666 60.6039 64.3898 61.3807C63.613 62.1575 62.5597 62.5942 61.4611 62.595Z" fill="#FA996A"/>
</svg>
