<svg width="40" height="40" viewBox="0 0 40 40" fill="none" xmlns="http://www.w3.org/2000/svg">
<path d="M33.6418 8.56184H29.8968C29.7237 8.47967 29.5395 8.4235 29.3501 8.39517L24.0901 7.63017L21.7368 2.86684C21.5781 2.54165 21.331 2.26773 21.0239 2.07643C20.7167 1.88514 20.3619 1.7842 20.0001 1.78517C19.6384 1.78385 19.2836 1.88446 18.9765 2.07547C18.6693 2.26649 18.4222 2.54017 18.2634 2.86517L15.9101 7.63184L10.6501 8.39684C10.4607 8.42517 10.2765 8.48133 10.1034 8.5635H6.35843C5.46167 8.56438 4.60187 8.9209 3.96762 9.55484C3.33336 10.1888 2.97642 11.0484 2.9751 11.9452V28.0535C2.97642 28.9503 3.33336 29.8099 3.96762 30.4438C4.60187 31.0778 5.46167 31.4343 6.35843 31.4352H33.6418C34.5384 31.4343 35.398 31.0777 36.032 30.4437C36.666 29.8097 37.0225 28.9501 37.0234 28.0535V11.9435C37.0225 11.0469 36.666 10.1873 36.032 9.55328C35.398 8.91928 34.5384 8.56272 33.6418 8.56184ZM16.2301 9.60684C16.541 9.56178 16.8362 9.44173 17.0903 9.25705C17.3443 9.07237 17.5496 8.82862 17.6884 8.54683L20.0001 3.86517L22.3101 8.54683C22.4494 8.82857 22.655 9.07224 22.9094 9.25689C23.1637 9.44153 23.4591 9.56163 23.7701 9.60684L28.9368 10.3585L25.1984 14.0002C24.9736 14.2195 24.8053 14.4902 24.7081 14.7889C24.6108 15.0876 24.5875 15.4055 24.6401 15.7152L25.5234 20.8618L20.9018 18.4335C20.6237 18.2874 20.3142 18.211 20.0001 18.211C19.686 18.211 19.3765 18.2874 19.0984 18.4335L14.4768 20.8635L15.3601 15.7168C15.4128 15.4069 15.3896 15.0887 15.2924 14.7897C15.1951 14.4907 15.0268 14.2198 14.8018 14.0002L11.0634 10.3585L16.2301 9.60684ZM35.0234 28.0518C35.023 28.4181 34.8773 28.7693 34.6183 29.0283C34.3592 29.2873 34.0081 29.4331 33.6418 29.4335H6.35843C5.99197 29.4331 5.64062 29.2874 5.38134 29.0284C5.12206 28.7695 4.97598 28.4183 4.9751 28.0518V11.9435C4.97598 11.577 5.12206 11.2259 5.38134 10.9669C5.64062 10.7079 5.99197 10.5623 6.35843 10.5618H9.0001C9.05488 10.9956 9.25594 11.3977 9.5701 11.7018L13.3834 15.4118L12.4834 20.6502C12.4224 21.0065 12.4623 21.3729 12.5985 21.7078C12.7347 22.0427 12.9619 22.3328 13.2544 22.5454C13.5469 22.7579 13.893 22.8845 14.2536 22.9106C14.6142 22.9368 14.975 22.8616 15.2951 22.6935L20.0001 20.2202L24.7051 22.6935C25.0252 22.8616 25.386 22.9368 25.7466 22.9106C26.1072 22.8845 26.4533 22.7579 26.7458 22.5454C27.0383 22.3328 27.2655 22.0427 27.4017 21.7078C27.5379 21.3729 27.5778 21.0065 27.5168 20.6502L26.6168 15.4118L30.4234 11.7018C30.74 11.3987 30.9435 10.9965 31.0001 10.5618H33.6484C34.0147 10.5623 34.3659 10.708 34.6249 10.967C34.8839 11.226 35.0297 11.5772 35.0301 11.9435L35.0234 28.0518Z" fill="white"/>
<path d="M34.6417 33.0752H5.3584V35.0752H34.6417V33.0752Z" fill="white"/>
</svg>
