<svg width="72" height="72" viewBox="0 0 72 72" fill="none" xmlns="http://www.w3.org/2000/svg">
<path d="M36 35.817C37.8875 35.817 39.7325 35.2573 41.3018 34.2087C42.8712 33.1601 44.0943 31.6697 44.8166 29.926C45.5389 28.1822 45.7279 26.2634 45.3597 24.4123C44.9914 22.5611 44.0826 20.8607 42.748 19.5261C41.4133 18.1915 39.7129 17.2826 37.8618 16.9144C36.0106 16.5462 34.0918 16.7352 32.3481 17.4574C30.6043 18.1797 29.1139 19.4029 28.0653 20.9722C27.0167 22.5416 26.457 24.3866 26.457 26.274C26.4602 28.804 27.4666 31.2295 29.2556 33.0184C31.0446 34.8074 33.47 35.8138 36 35.817ZM36 20.331C37.1754 20.331 38.3245 20.6796 39.3018 21.3326C40.2791 21.9856 41.0408 22.9138 41.4906 23.9997C41.9405 25.0857 42.0581 26.2806 41.8288 27.4334C41.5995 28.5863 41.0335 29.6452 40.2024 30.4764C39.3712 31.3075 38.3123 31.8735 37.1595 32.1028C36.0066 32.3321 34.8117 32.2145 33.7257 31.7646C32.6398 31.3148 31.7116 30.5531 31.0586 29.5758C30.4056 28.5985 30.057 27.4494 30.057 26.274C30.0594 24.6986 30.6863 23.1883 31.8003 22.0743C32.9143 20.9603 34.4246 20.3334 36 20.331Z" fill="#FA996A"/>
<path d="M61.5334 51.339C61.2973 50.602 60.8583 49.9466 60.2666 49.4478C59.6749 48.949 58.9547 48.6271 58.1884 48.519L56.6884 48.303L56.0254 46.959C55.7315 46.3662 55.3006 45.852 54.7684 45.459C56.6736 42.5365 57.87 39.2095 58.2623 35.743C58.6546 32.2765 58.2319 28.7663 57.0279 25.492C55.824 22.2177 53.872 19.2698 51.3275 16.8831C48.783 14.4964 45.7163 12.7369 42.3717 11.7448C39.0272 10.7527 35.4971 10.5554 32.0627 11.1685C28.6284 11.7817 25.3847 13.1884 22.5901 15.2765C19.7954 17.3647 17.527 20.0767 15.9656 23.1964C14.4042 26.3161 13.5929 29.7574 13.5964 33.246C13.5815 37.5824 14.8394 41.8278 17.2144 45.456C16.6836 45.8497 16.2538 46.3638 15.9604 46.956L15.3004 48.3L13.8004 48.516C13.0352 48.6271 12.3164 48.9502 11.7252 49.4487C11.1341 49.9471 10.6942 50.6011 10.4555 51.3365C10.2167 52.0719 10.1884 52.8595 10.374 53.6101C10.5595 54.3608 10.9514 55.0445 11.5054 55.584L12.6004 56.634L12.3454 58.113C12.2436 58.7079 12.273 59.3179 12.4314 59.9003C12.5899 60.4827 12.8735 61.0235 13.2626 61.4849C13.6518 61.9463 14.1369 62.3171 14.6842 62.5716C15.2315 62.826 15.8278 62.9579 16.4314 62.958C17.1034 62.9568 17.7652 62.7931 18.3604 62.481L19.6774 61.8L21.0004 62.481C21.6843 62.8377 22.4543 62.9963 23.2235 62.939C23.9928 62.8818 24.7308 62.6109 25.3544 62.1569C25.978 61.7029 26.4625 61.0838 26.7533 60.3694C27.0441 59.6549 27.1297 58.8735 27.0004 58.113L26.7484 56.634L27.8224 55.587L28.8964 56.634L28.6414 58.113C28.5121 58.8735 28.5977 59.6549 28.8885 60.3694C29.1793 61.0838 29.6638 61.7029 30.2874 62.1569C30.911 62.6109 31.649 62.8818 32.4182 62.939C33.1875 62.9963 33.9574 62.8377 34.6414 62.481L36.0004 61.8L37.3294 62.496C38.0133 62.8527 38.7833 63.0113 39.5525 62.954C40.3218 62.8968 41.0598 62.6259 41.6834 62.1719C42.307 61.7179 42.7915 61.0988 43.0823 60.3844C43.3731 59.6699 43.4587 58.8885 43.3294 58.128L43.0744 56.649L44.1484 55.602L45.2224 56.649L44.9704 58.128C44.8411 58.8885 44.9267 59.6699 45.2175 60.3844C45.5083 61.0988 45.9928 61.7179 46.6164 62.1719C47.24 62.6259 47.978 62.8968 48.7472 62.954C49.5165 63.0113 50.2864 62.8527 50.9704 62.496L52.2994 61.8L53.6254 62.496C54.4619 62.9363 55.4238 63.0773 56.3515 62.8956C57.2792 62.7139 58.1168 62.2204 58.7254 61.497C59.1121 61.0351 59.3931 60.4942 59.5486 59.9122C59.7041 59.3302 59.7303 58.7212 59.6254 58.128L59.3704 56.649L60.4444 55.602C61.0109 55.0675 61.4141 54.383 61.6068 53.6284C61.7996 52.8737 61.7742 52.0798 61.5334 51.339ZM36.0004 14.442C40.9858 14.4476 45.7655 16.4305 49.2907 19.9557C52.8159 23.4809 54.7988 28.2606 54.8044 33.246C54.8169 37.2811 53.5188 41.2112 51.1054 44.445L50.7184 44.97C50.5367 45.0441 50.3612 45.1323 50.1934 45.234L49.1674 40.629C49.0099 39.7016 48.5304 38.8596 47.8131 38.251C47.0959 37.6424 46.187 37.3064 45.2464 37.302H37.9504L36.0004 40.176L34.0504 37.302H26.7544C25.8138 37.3064 24.9049 37.6424 24.1876 38.251C23.4704 38.8596 22.9909 39.7016 22.8334 40.629L21.8074 45.234C21.6447 45.1362 21.4753 45.0499 21.3004 44.976L21.1024 44.721C18.5592 41.4379 17.1864 37.3989 17.2024 33.246C17.2079 28.2616 19.19 23.4829 22.714 19.9578C26.2379 16.4328 31.016 14.4491 36.0004 14.442ZM25.3264 53.01L23.1004 55.179C23.0364 55.2396 22.9886 55.3153 22.9613 55.3992C22.9341 55.483 22.9282 55.5723 22.9444 55.659L23.4694 58.722C23.4824 58.8001 23.4783 58.8801 23.4574 58.9565C23.4364 59.0328 23.3991 59.1037 23.348 59.1642C23.2969 59.2248 23.2333 59.2734 23.1615 59.3069C23.0898 59.3403 23.0116 59.3578 22.9324 59.358C22.8435 59.3586 22.7558 59.3369 22.6774 59.295L19.9294 57.849C19.8507 57.8078 19.7632 57.7862 19.6744 57.786C19.5865 57.7858 19.4999 57.8075 19.4224 57.849L16.6714 59.295C16.594 59.3369 16.5073 59.3586 16.4194 59.358C16.3417 59.3552 16.2656 59.3359 16.196 59.3013C16.1264 59.2668 16.065 59.2178 16.0158 59.1575C15.9667 59.0973 15.931 59.0273 15.9111 58.9522C15.8912 58.8771 15.8875 58.7986 15.9004 58.722L16.4254 55.659C16.4407 55.5723 16.4345 55.4832 16.4073 55.3995C16.3801 55.3158 16.3327 55.2401 16.2694 55.179L14.0434 53.01C13.9709 52.939 13.9196 52.8492 13.8952 52.7507C13.8709 52.6521 13.8745 52.5488 13.9057 52.4522C13.9368 52.3556 13.9943 52.2696 14.0716 52.2039C14.1489 52.1381 14.243 52.0952 14.3434 52.08L17.4004 51.633C17.488 51.6209 17.5712 51.5872 17.6425 51.5348C17.7137 51.4824 17.7707 51.413 17.8084 51.333L19.2004 48.552C19.2443 48.4599 19.3134 48.3821 19.3996 48.3276C19.4859 48.2732 19.5859 48.2443 19.6879 48.2443C19.7899 48.2443 19.8899 48.2732 19.9761 48.3276C20.0624 48.3821 20.1315 48.4599 20.1754 48.552L21.5494 51.336C21.588 51.4159 21.6456 51.4851 21.7173 51.5374C21.789 51.5898 21.8725 51.6236 21.9604 51.636L25.0354 52.083C25.1344 52.1 25.2268 52.1439 25.3024 52.21C25.378 52.2761 25.434 52.3618 25.464 52.4576C25.4941 52.5534 25.4972 52.6557 25.4729 52.7532C25.4486 52.8506 25.3979 52.9395 25.3264 53.01ZM27.8404 49.647C27.2127 49.0378 26.4083 48.643 25.5424 48.519L24.7894 48.408L26.3614 41.355L26.3854 41.223C26.3989 41.1344 26.4434 41.0536 26.511 40.9948C26.5786 40.936 26.6648 40.9031 26.7544 40.902H32.1394L34.8004 44.823C34.2555 44.9855 33.7503 45.2592 33.3165 45.6269C32.8828 45.9945 32.53 46.4481 32.2804 46.959L31.6204 48.3L30.1204 48.516C29.2602 48.6433 28.4622 49.0391 27.8404 49.647ZM41.6404 53.01L39.4144 55.179C39.3517 55.2405 39.3048 55.3163 39.2776 55.3999C39.2504 55.4835 39.2438 55.5723 39.2584 55.659L39.7834 58.722C39.7964 58.8001 39.7923 58.8801 39.7714 58.9565C39.7504 59.0328 39.7131 59.1037 39.662 59.1642C39.6109 59.2248 39.5473 59.2734 39.4755 59.3069C39.4038 59.3403 39.3256 59.3578 39.2464 59.358C39.1585 59.3582 39.0719 59.3365 38.9944 59.295L36.2434 57.849C36.1658 57.8078 36.0793 57.7862 35.9914 57.7862C35.9035 57.7862 35.817 57.8078 35.7394 57.849L33.0004 59.295C32.9229 59.3365 32.8363 59.3582 32.7484 59.358C32.6692 59.3578 32.591 59.3403 32.5192 59.3069C32.4475 59.2734 32.3838 59.2248 32.3327 59.1642C32.2816 59.1037 32.2443 59.0328 32.2234 58.9565C32.2024 58.8801 32.1983 58.8001 32.2114 58.722L32.7364 55.659C32.7509 55.5723 32.7443 55.4835 32.7172 55.3999C32.69 55.3163 32.6431 55.2405 32.5804 55.179L30.3544 53.01C30.2819 52.939 30.2306 52.8492 30.2062 52.7507C30.1819 52.6521 30.1855 52.5488 30.2167 52.4522C30.2478 52.3556 30.3053 52.2696 30.3826 52.2039C30.4599 52.1381 30.554 52.0952 30.6544 52.08L33.7264 51.633C33.8144 51.6209 33.8979 51.5871 33.9697 51.5348C34.0414 51.4824 34.099 51.4131 34.1374 51.333L35.5114 48.549C35.5558 48.457 35.6252 48.3794 35.7117 48.3252C35.7982 48.2709 35.8983 48.2421 36.0004 48.2421C36.1025 48.2421 36.2026 48.2709 36.2891 48.3252C36.3756 48.3794 36.445 48.457 36.4894 48.549L37.8634 51.333C37.9017 51.4131 37.9594 51.4824 38.0311 51.5348C38.1028 51.5871 38.1864 51.6209 38.2744 51.633L41.3464 52.08C41.447 52.0948 41.5414 52.1373 41.6191 52.2029C41.6968 52.2685 41.7547 52.3544 41.7862 52.4511C41.8177 52.5477 41.8216 52.6513 41.7974 52.75C41.7732 52.8488 41.722 52.9388 41.6494 53.01H41.6404ZM44.1514 49.647C43.5252 49.0374 42.7216 48.6424 41.8564 48.519L40.3564 48.303L39.6934 46.959C39.4438 46.4481 39.091 45.9945 38.6573 45.6269C38.2235 45.2592 37.7183 44.9855 37.1734 44.823L39.8344 40.902H45.2344C45.324 40.9031 45.4102 40.936 45.4778 40.9948C45.5454 41.0536 45.5899 41.1344 45.6034 41.223L47.1994 48.423L46.4464 48.534C45.5866 48.6562 44.7869 49.0456 44.1604 49.647H44.1514ZM57.9514 53.01L55.7254 55.179C55.662 55.2401 55.6147 55.3158 55.5875 55.3995C55.5603 55.4832 55.5541 55.5723 55.5694 55.659L56.0944 58.722C56.1074 58.8001 56.1033 58.8801 56.0824 58.9565C56.0614 59.0328 56.0241 59.1037 55.973 59.1642C55.9219 59.2248 55.8583 59.2734 55.7865 59.3069C55.7148 59.3403 55.6366 59.3578 55.5574 59.358C55.4694 59.3586 55.3827 59.3369 55.3054 59.295L52.5544 57.849C52.4769 57.8075 52.3903 57.7858 52.3024 57.786C52.2136 57.7862 52.1261 57.8078 52.0474 57.849L49.2994 59.295C49.221 59.3369 49.1333 59.3586 49.0444 59.358C48.9652 59.3578 48.887 59.3403 48.8152 59.3069C48.7435 59.2734 48.6798 59.2248 48.6287 59.1642C48.5776 59.1037 48.5403 59.0328 48.5194 58.9565C48.4984 58.8801 48.4943 58.8001 48.5074 58.722L49.0324 55.659C49.0485 55.5723 49.0427 55.483 49.0155 55.3992C48.9882 55.3153 48.9404 55.2396 48.8764 55.179L46.6534 53.01C46.5809 52.939 46.5296 52.8492 46.5052 52.7507C46.4809 52.6521 46.4845 52.5488 46.5157 52.4522C46.5468 52.3556 46.6043 52.2696 46.6816 52.2039C46.7589 52.1381 46.853 52.0952 46.9534 52.08L50.0284 51.633C50.1163 51.6206 50.1997 51.5868 50.2714 51.5344C50.3431 51.4821 50.4008 51.4129 50.4394 51.333L51.8134 48.549C51.8573 48.4569 51.9264 48.3791 52.0126 48.3246C52.0989 48.2702 52.1989 48.2413 52.3009 48.2413C52.4029 48.2413 52.5029 48.2702 52.5891 48.3246C52.6754 48.3791 52.7445 48.4569 52.7884 48.549L54.1654 51.333C54.203 51.413 54.2601 51.4824 54.3313 51.5348C54.4026 51.5872 54.4858 51.6209 54.5734 51.633L57.6484 52.08C57.7507 52.0915 57.8477 52.1316 57.9282 52.1958C58.0087 52.2601 58.0694 52.3457 58.1032 52.443C58.1371 52.5402 58.1428 52.645 58.1196 52.7454C58.0965 52.8457 58.0454 52.9374 57.9724 53.01H57.9514Z" fill="#FA996A"/>
</svg>
