<svg width="72" height="72" viewBox="0 0 72 72" fill="none" xmlns="http://www.w3.org/2000/svg">
<path d="M24.8164 65.436H34.6204V45.522H24.8164V65.436ZM28.4164 49.122H31.0204V61.836H28.4164V49.122Z" fill="#FA996A"/>
<path d="M12.8672 65.436H22.6712V52.398H12.8672V65.436ZM16.4672 55.998H19.0712V61.836H16.4672V55.998Z" fill="#FA996A"/>
<path d="M36.7646 65.436H46.5686V33.015H36.7646V65.436ZM40.3646 36.615H42.9686V61.836H40.3646V36.615Z" fill="#FA996A"/>
<path d="M48.7139 65.436H58.5179V21.522H48.7139V65.436ZM52.3139 25.122H54.9179V61.836H52.3139V25.122Z" fill="#FA996A"/>
<path d="M47.6816 4.26898V7.86898H52.1816L19.7696 40.284C18.6777 39.7484 17.4321 39.6138 16.251 39.9037C15.0698 40.1936 14.0281 40.8897 13.3083 41.87C12.5884 42.8503 12.2361 44.0526 12.3131 45.2664C12.3901 46.4802 12.8915 47.6283 13.7294 48.5099C14.5674 49.3914 15.6886 49.9502 16.897 50.0886C18.1053 50.227 19.3239 49.9361 20.3394 49.2668C21.355 48.5975 22.1029 47.5924 22.4522 46.4274C22.8016 45.2624 22.7303 44.0117 22.2506 42.894L54.9176 10.227V15.108H58.5176V4.26898H47.6816ZM17.4746 46.539C17.1581 46.5396 16.8486 46.4462 16.5852 46.2708C16.3218 46.0953 16.1163 45.8456 15.9949 45.5533C15.8735 45.261 15.8416 44.9392 15.9032 44.6288C15.9648 44.3183 16.1172 44.0331 16.341 43.8093C16.5648 43.5855 16.85 43.4332 17.1604 43.3716C17.4709 43.31 17.7926 43.3419 18.0849 43.4633C18.3772 43.5847 18.6269 43.7901 18.8024 44.0535C18.9779 44.3169 19.0712 44.6265 19.0706 44.943C19.0699 45.366 18.9015 45.7715 18.6023 46.0707C18.3032 46.3698 17.8977 46.5382 17.4746 46.539Z" fill="#FA996A"/>
</svg>
