<svg width="120" height="89" viewBox="0 0 120 89" fill="none" xmlns="http://www.w3.org/2000/svg">
<g clip-path="url(#clip0_1636_6240)">
<g opacity="0.5">
<path opacity="0.5" d="M45.8315 64.4927C44.1571 62.6532 42.6474 60.6581 41.3481 58.5166C43.7087 59.6606 45.3923 61.8845 45.8315 64.4927Z" fill="#0050FF"/>
</g>
<g opacity="0.5">
<path opacity="0.5" d="M69.5295 68.9957C69.2276 72.1074 67.2055 74.6516 64.488 75.7498C60.6634 74.7522 57.0583 73.1781 53.7827 71.119C53.3435 69.975 53.1605 68.7029 53.2886 67.3942C53.7278 62.9098 57.7263 59.6243 62.2097 60.0727C66.6931 60.512 69.9687 64.5113 69.5295 68.9957Z" fill="#0050FF"/>
</g>
<g opacity="0.5">
<path opacity="0.5" d="M112.753 38.5109C112.753 40.5426 112.589 42.556 112.287 44.4962C111.912 46.8665 111.326 49.1728 110.539 51.3783C108.609 56.8328 105.479 61.7199 101.472 65.7284C101.069 66.1311 100.657 66.5338 100.227 66.909C94.4537 72.1987 87.0607 75.7496 78.8807 76.7289C79.3016 75.9144 79.6493 75.0541 79.933 74.1664C80.1068 73.6264 80.2532 73.0773 80.3721 72.5099C80.5368 71.7595 80.6558 70.9907 80.729 70.2036C81.5799 60.2465 74.1411 51.3966 64.1769 50.5364L37.0568 48.4681C36.9196 47.983 36.7915 47.4888 36.6908 47.0038C36.0687 44.2674 35.7484 41.4395 35.7484 38.52V38.3461C35.7667 35.0149 36.2059 31.7843 37.0111 28.691C38.3561 23.5843 40.7168 18.8985 43.8735 14.8443C43.9284 14.771 43.9741 14.6978 44.0382 14.6338C44.4865 14.0481 44.9623 13.4898 45.4472 12.9407C45.9505 12.3641 46.472 11.815 47.0119 11.275C53.9932 4.31051 63.6188 0 74.2509 0C84.8739 0 94.5086 4.31051 101.481 11.275C108.453 18.2396 112.753 27.8856 112.753 38.5109Z" fill="#0050FF"/>
</g>
<path d="M62.6397 88.8916C62.0999 88.8916 61.5326 88.8642 60.9104 88.8184L7.86885 83.7574C6.73427 83.6476 5.91079 82.6409 6.01144 81.5153C6.12123 80.3804 7.12772 79.5568 8.25314 79.6574L61.2581 84.7092C61.743 84.7458 62.2005 84.7642 62.6306 84.7642C64.1677 84.7642 65.6958 84.5445 67.1689 84.0961C67.1872 84.0869 67.2329 84.0778 67.2695 84.0686C71.5059 82.7691 75.0561 79.7673 77.0324 75.8045C77.3984 75.0998 77.7095 74.3402 77.9748 73.5257C78.1304 73.0681 78.2493 72.5922 78.3591 72.0889C78.5147 71.4025 78.6153 70.7161 78.6794 70.0297C79.4388 61.1799 72.8509 53.3551 64.0031 52.5955C62.8685 52.4948 62.0358 51.4973 62.1273 50.3716C62.228 49.2368 63.2253 48.3948 64.3599 48.4955C75.4678 49.4564 83.7301 59.2763 82.7785 70.3866C82.7053 71.2652 82.5681 72.1255 82.3851 72.9675C82.257 73.5989 82.0923 74.2121 81.891 74.807C81.5616 75.832 81.159 76.7929 80.7106 77.6715C78.2402 82.6318 73.7568 86.4115 68.4316 88.0314C68.4041 88.0405 68.3675 88.0497 68.3401 88.0588C66.501 88.6079 64.5795 88.8916 62.6397 88.8916Z" fill="#141515"/>
<path d="M67.8368 88.1227C66.9493 88.1227 66.135 87.5461 65.8696 86.6584C65.5402 85.5694 66.1624 84.4254 67.2421 84.0959C71.4968 82.8055 75.0652 79.7945 77.0416 75.8227C77.4076 75.118 77.7187 74.3584 77.984 73.5439C78.1396 73.0863 78.2585 72.6104 78.3683 72.107C78.5238 71.4206 78.6245 70.7342 78.6885 70.0479C79.448 61.198 72.8601 53.3732 64.0122 52.6136L1.89402 47.8364C0.759442 47.7449 -0.082342 46.7565 6.44196e-06 45.6216C0.0915047 44.4868 1.07969 43.6357 2.21427 43.7272L64.3508 48.4953C75.477 49.4563 83.7393 59.2762 82.7877 70.3865C82.7145 71.2651 82.5772 72.1253 82.3942 72.9673C82.2661 73.5988 82.1014 74.2119 81.9001 74.8068C81.5707 75.8318 81.1682 76.7928 80.7198 77.6713C80.2074 78.7055 79.5944 79.6939 78.9173 80.6182L104.573 72.9947C110.832 71.0271 115.26 65.536 115.828 59.0108C116.249 54.142 114.437 49.3922 110.868 45.9786C109.185 44.3587 107.126 43.114 104.93 42.3544C104.811 42.3087 104.702 42.2812 104.583 42.2446C104.546 42.2355 104.509 42.2263 104.482 42.2172C103.402 41.8785 102.277 41.6589 101.151 41.5674L37.6241 36.5339C36.4895 36.4424 35.6477 35.454 35.7301 34.3191C35.8216 33.1843 36.8281 32.3332 37.9444 32.4247L101.481 37.4582C102.881 37.5772 104.262 37.8426 105.598 38.2544C105.626 38.2636 105.653 38.2727 105.69 38.2819C105.882 38.3368 106.074 38.4008 106.266 38.4649C109.02 39.4075 111.6 40.9817 113.714 43.0042C118.188 47.2781 120.448 53.2451 119.927 59.3585C119.213 67.5586 113.659 74.4499 105.79 76.9209L105.168 77.1131L68.4224 88.0403C68.2303 88.0952 68.029 88.1227 67.8368 88.1227Z" fill="#141515"/>
<path d="M67.7728 88.1414C66.8487 88.1414 66.016 87.5191 65.7781 86.5856C65.5036 85.4782 66.1716 84.3617 67.2695 84.0871C68.3675 83.8126 69.5204 84.4715 69.804 85.5697C70.0785 86.6771 69.4472 87.7845 68.3401 88.059L68.276 88.0773C68.1022 88.1231 67.9375 88.1414 67.7728 88.1414Z" fill="#141515"/>
<path d="M69.5296 68.9952C69.2277 72.1069 67.2055 74.6511 64.488 75.7493C63.2986 76.2343 61.9718 76.454 60.6085 76.3167C57.4335 75.9964 54.8624 73.9006 53.7827 71.1185C53.3435 69.9745 53.1606 68.7024 53.2886 67.3937C53.7278 62.9093 57.7263 59.6238 62.2097 60.0722C66.6932 60.5115 69.9688 64.5108 69.5296 68.9952Z" fill="white"/>
<path d="M61.4045 78.4218C61.066 78.4218 60.7366 78.4035 60.3981 78.3761C56.5368 77.9825 53.2612 75.4932 51.8613 71.8783C51.2848 70.3774 51.0835 68.8124 51.2299 67.2108C51.4953 64.4927 52.8037 62.0401 54.9173 60.3012C57.0309 58.5715 59.6935 57.7662 62.411 58.0316C65.1285 58.297 67.5715 59.6057 69.31 61.7197C71.0393 63.8338 71.8445 66.4878 71.5792 69.2059C71.2132 72.9948 68.7885 76.2345 65.2658 77.6714C64.0488 78.1656 62.7313 78.4218 61.4045 78.4218ZM61.3862 62.095C59.9772 62.095 58.6321 62.5709 57.5342 63.4769C56.2715 64.511 55.4938 65.9753 55.3291 67.5952C55.2376 68.5562 55.3657 69.4988 55.7042 70.3865C56.5368 72.5464 58.4949 74.0381 60.8098 74.2669C61.798 74.3676 62.7953 74.2211 63.7012 73.8459C65.8148 72.9856 67.2604 71.0546 67.48 68.7941C67.6356 67.1651 67.1598 65.5818 66.1259 64.3189C65.0919 63.0559 63.628 62.278 62.0084 62.1224C61.798 62.1041 61.5967 62.095 61.3862 62.095Z" fill="#141515"/>
<path d="M45.9139 66.671C45.4747 71.1554 41.4762 74.4318 36.9928 73.9925C32.5094 73.5532 29.2246 69.5538 29.6729 65.0694C30.1121 60.5851 34.1106 57.2996 38.594 57.748C39.5822 57.8395 40.5063 58.1141 41.3481 58.5259C43.7087 59.6607 45.3923 61.8938 45.8315 64.502C45.9504 65.2067 45.987 65.9297 45.9139 66.671Z" fill="white"/>
<path d="M12.9104 71.5764C17.418 71.5764 21.0721 67.9215 21.0721 63.4129C21.0721 58.9044 17.418 55.2495 12.9104 55.2495C8.40287 55.2495 4.74878 58.9044 4.74878 63.4129C4.74878 67.9215 8.40287 71.5764 12.9104 71.5764Z" fill="white"/>
<path d="M65.5402 51.7627C64.8174 51.7627 64.1677 51.2685 63.9847 50.5363C63.7743 49.676 64.305 48.8066 65.1651 48.6053L105.214 38.8586C106.074 38.6481 106.943 39.1789 107.144 40.0392C107.355 40.8994 106.824 41.7689 105.964 41.9702L65.9245 51.7169C65.7964 51.7444 65.6683 51.7627 65.5402 51.7627Z" fill="#141515"/>
<path d="M33.8726 49.2642C33.1498 49.2642 32.491 48.77 32.3172 48.0287C32.1159 47.1685 32.6466 46.3082 33.5066 46.0977L75.358 36.1588C76.218 35.9483 77.0781 36.4883 77.2886 37.3486C77.4899 38.2088 76.9592 39.0691 76.0991 39.2796L34.2386 49.2185C34.1197 49.2459 33.9916 49.2642 33.8726 49.2642Z" fill="#141515"/>
<path d="M8.74722 47.8184C8.05183 47.8184 7.41134 47.3608 7.21004 46.6652C6.963 45.8141 7.44794 44.9264 8.29887 44.6793L42.6656 34.6489C43.5166 34.4018 44.4041 34.8868 44.6511 35.738C44.8982 36.5891 44.4132 37.4768 43.5623 37.7239L9.19556 47.7543C9.04916 47.8001 8.89361 47.8184 8.74722 47.8184Z" fill="#141515"/>
<path d="M79.146 61.5189C78.4415 61.5189 77.7918 61.0521 77.5997 60.3383C77.3709 59.4872 77.8742 58.6086 78.7251 58.3706L115.352 48.4043C116.203 48.1755 117.09 48.6789 117.319 49.53C117.548 50.3811 117.045 51.2597 116.194 51.4976L79.5669 61.464C79.4296 61.5006 79.2832 61.5189 79.146 61.5189Z" fill="#141515"/>
<path d="M80.1342 74.1847C79.4388 74.1847 78.7891 73.7271 78.597 73.0133C78.3591 72.1622 78.8532 71.2745 79.7041 71.0365L116.651 60.6217C117.502 60.3838 118.39 60.878 118.627 61.7291C118.865 62.5802 118.371 63.468 117.52 63.7059L80.5734 74.1298C80.427 74.1664 80.2806 74.1847 80.1342 74.1847Z" fill="#141515"/>
<path d="M80.8936 39.3532L61.3679 44.5789L61.3221 16.1899L80.3538 12.8403H80.3721L80.7564 12.8678L80.8936 39.3532Z" fill="white"/>
<path d="M61.3679 46.1804C61.0202 46.1804 60.6725 46.0706 60.398 45.851C60.0046 45.5489 59.7759 45.0822 59.7667 44.5788L59.7301 16.1807C59.7301 15.4028 60.2882 14.7347 61.0568 14.5975L80.0885 11.2479C80.2166 11.2204 80.3721 11.2204 80.5002 11.2296L80.8845 11.257C81.7171 11.3211 82.3576 12.0167 82.3576 12.8495L82.4949 39.3532C82.4949 40.0853 82.0099 40.7168 81.3054 40.909L61.7797 46.1255C61.6424 46.1621 61.5052 46.1804 61.3679 46.1804ZM62.9234 17.5261L62.96 42.4922L79.2833 38.1268L79.1643 14.6707L62.9234 17.5261Z" fill="#141515"/>
<path d="M37.011 14.0026L58.8059 11.2754L80.8936 12.5383L60.9836 16.1533" fill="white"/>
<path d="M60.9836 17.5259C60.334 17.5259 59.7575 17.0592 59.6386 16.4003C59.5013 15.6498 59.9954 14.936 60.7457 14.8079L69.2916 13.2612L58.8608 12.6663L37.1849 15.3844C36.4437 15.4851 35.7484 14.9451 35.6569 14.1947C35.5654 13.4442 36.0961 12.7578 36.8463 12.6663L58.6504 9.92993C58.7327 9.92078 58.8151 9.91163 58.8974 9.92078L80.976 11.1837C81.6714 11.2203 82.2204 11.7786 82.2661 12.4741C82.3118 13.1697 81.8269 13.7829 81.1407 13.911L61.2306 17.5168C61.1483 17.5168 61.0659 17.5259 60.9836 17.5259Z" fill="#141515"/>
<path d="M61.3679 44.5787L37.011 41.9613V14.3594L58.8059 15.9152L61.3221 16.1897L61.3679 44.5787Z" fill="white"/>
<path d="M61.3679 46.1801C61.313 46.1801 61.2581 46.1801 61.1941 46.171L36.8372 43.5536C36.0229 43.4621 35.4099 42.7757 35.4099 41.9612V14.3593C35.4099 13.9108 35.5928 13.4898 35.9222 13.1878C36.2516 12.8858 36.6908 12.7211 37.13 12.7668L58.9249 14.3226L61.5052 14.5972C62.3195 14.6887 62.9325 15.366 62.9325 16.1896L62.9691 44.5877C62.9691 45.0453 62.777 45.4755 62.4384 45.7775C62.1365 46.0337 61.7614 46.1801 61.3679 46.1801ZM38.6123 40.5243L59.7575 42.8031L59.7209 17.6356L58.6321 17.5166L38.6123 16.0798V40.5243Z" fill="#141515"/>
</g>
<defs>
<clipPath id="clip0_1636_6240">
<rect width="120" height="88.8825" fill="white"/>
</clipPath>
</defs>
</svg>
