<svg width="40" height="40" viewBox="0 0 40 40" fill="none" xmlns="http://www.w3.org/2000/svg">
<path d="M33.6418 10.4304H33.1668C33.1955 10.2087 33.191 9.98404 33.1534 9.76371L33.0001 8.94871L33.5968 8.36704C33.9043 8.0681 34.1222 7.68918 34.2259 7.27301C34.3295 6.85684 34.3149 6.41999 34.1835 6.01171C34.0521 5.60344 33.8093 5.23998 33.4824 4.96234C33.1555 4.6847 32.7576 4.50392 32.3334 4.44038L31.5001 4.32038L31.1318 3.57204C30.9415 3.18689 30.6472 2.86264 30.2823 2.63592C29.9174 2.40921 29.4964 2.28906 29.0668 2.28906C28.6372 2.28906 28.2161 2.40921 27.8512 2.63592C27.4863 2.86264 27.1921 3.18689 27.0018 3.57204L26.6334 4.32038L25.8084 4.44038C25.3276 4.50868 24.8807 4.72747 24.5318 5.06538C24.1837 4.72721 23.7373 4.50836 23.2568 4.44038L22.4234 4.32038L22.0551 3.57204C21.8648 3.18689 21.5706 2.86264 21.2057 2.63592C20.8407 2.40921 20.4197 2.28906 19.9901 2.28906C19.5605 2.28906 19.1395 2.40921 18.7745 2.63592C18.4096 2.86264 18.1154 3.18689 17.9251 3.57204L17.5568 4.32038L16.7234 4.44038C16.2429 4.50836 15.7965 4.72721 15.4484 5.06538C15.0995 4.72747 14.6526 4.50868 14.1718 4.44038L13.3384 4.32038L13.0001 3.57204C12.8098 3.18689 12.5156 2.86264 12.1507 2.63592C11.7857 2.40921 11.3647 2.28906 10.9351 2.28906C10.5055 2.28906 10.0845 2.40921 9.71955 2.63592C9.35464 2.86264 9.06041 3.18689 8.8701 3.57204L8.5001 4.32038L7.66676 4.44038C7.2422 4.50315 6.84365 4.68338 6.51611 4.96071C6.18857 5.23804 5.94509 5.60143 5.81317 6.00983C5.68126 6.41823 5.66616 6.85538 5.76957 7.27192C5.87299 7.68845 6.09081 8.06777 6.39843 8.36704L7.0001 8.94871L6.85843 9.77038C6.8209 9.9907 6.81641 10.2154 6.8451 10.437H6.35843C5.46167 10.4379 4.60187 10.7944 3.96762 11.4284C3.33336 12.0623 2.97642 12.922 2.9751 13.8187V30.6937C2.97642 31.5906 3.3333 32.4504 3.96751 33.0846C4.60173 33.7188 5.46152 34.0757 6.35843 34.077H33.6418C34.5385 34.0757 35.3981 33.7188 36.0321 33.0845C36.666 32.4503 37.0225 31.5905 37.0234 30.6937V13.812C37.0225 12.9154 36.666 12.0558 36.032 11.4218C35.398 10.7878 34.5384 10.4313 33.6418 10.4304ZM26.0968 6.41871L27.8051 6.16704C27.8538 6.15975 27.9 6.14078 27.9397 6.11176C27.9795 6.08274 28.0116 6.04452 28.0334 6.00038L28.7968 4.45204C28.8216 4.4014 28.8602 4.35873 28.908 4.32889C28.9559 4.29906 29.0112 4.28324 29.0676 4.28324C29.124 4.28324 29.1793 4.29906 29.2272 4.32889C29.275 4.35873 29.3136 4.4014 29.3384 4.45204L30.1034 6.00038C30.1249 6.04509 30.1572 6.08374 30.1973 6.11284C30.2375 6.14194 30.2843 6.16057 30.3334 6.16704L32.0418 6.41538C32.0975 6.42384 32.1498 6.44767 32.1927 6.48419C32.2357 6.52072 32.2676 6.56849 32.2849 6.62215C32.3022 6.67581 32.3043 6.73323 32.2907 6.78797C32.2772 6.84271 32.2487 6.8926 32.2084 6.93204L30.9718 8.13538C30.9367 8.16974 30.9105 8.21212 30.8954 8.25886C30.8803 8.3056 30.8767 8.35531 30.8851 8.40371L31.1768 10.1054C31.184 10.1488 31.1817 10.1932 31.1701 10.2356C31.1585 10.2781 31.1377 10.3175 31.1093 10.3511C31.081 10.3847 31.0456 10.4117 31.0057 10.4303C30.9659 10.4489 30.9224 10.4586 30.8784 10.4587C30.8296 10.459 30.7814 10.447 30.7384 10.4237L29.2101 9.62038C29.167 9.5973 29.1189 9.58527 29.0701 9.58538C29.0207 9.58547 28.9722 9.59748 28.9284 9.62038L27.4018 10.4237C27.3582 10.447 27.3095 10.459 27.2601 10.4587C27.2161 10.4586 27.1727 10.4489 27.1328 10.4303C27.0929 10.4117 27.0576 10.3847 27.0292 10.3511C27.0008 10.3175 26.9801 10.2781 26.9684 10.2356C26.9568 10.1932 26.9545 10.1488 26.9618 10.1054L27.2534 8.40371C27.2622 8.3553 27.2589 8.30547 27.2438 8.25866C27.2287 8.21184 27.2022 8.16949 27.1668 8.13538L25.9318 6.93204C25.8925 6.8926 25.8648 6.84309 25.8517 6.78895C25.8387 6.7348 25.8408 6.67811 25.8578 6.6251C25.8749 6.57208 25.9062 6.52477 25.9483 6.48837C25.9905 6.45196 26.0418 6.42786 26.0968 6.41871ZM17.0301 6.41871L18.7368 6.16704C18.7855 6.16003 18.8319 6.14117 18.8717 6.11211C18.9115 6.08306 18.9435 6.04469 18.9651 6.00038L19.7284 4.45204C19.7536 4.40147 19.7923 4.35891 19.8403 4.32916C19.8883 4.29941 19.9436 4.28365 20.0001 4.28365C20.0566 4.28365 20.1119 4.29941 20.1599 4.32916C20.2079 4.35891 20.2466 4.40147 20.2718 4.45204L21.0351 6.00038C21.0567 6.04469 21.0887 6.08306 21.1285 6.11211C21.1683 6.14117 21.2147 6.16003 21.2634 6.16704L22.9701 6.41538C23.0258 6.42384 23.0781 6.44767 23.1211 6.48419C23.164 6.52072 23.196 6.56849 23.2133 6.62215C23.2306 6.67581 23.2326 6.73323 23.2191 6.78797C23.2056 6.84271 23.1771 6.8926 23.1368 6.93204L21.9001 8.13538C21.8654 8.16999 21.8394 8.21239 21.8243 8.25906C21.8092 8.30572 21.8055 8.35531 21.8134 8.40371L22.1051 10.1054C22.1124 10.1488 22.1101 10.1932 22.0984 10.2356C22.0868 10.2781 22.0661 10.3175 22.0377 10.3511C22.0093 10.3847 21.9739 10.4117 21.9341 10.4303C21.8942 10.4489 21.8508 10.4586 21.8068 10.4587C21.7579 10.4588 21.7098 10.4468 21.6668 10.4237L20.1384 9.62038C20.0953 9.59747 20.0472 9.58549 19.9984 9.58549C19.9496 9.58549 19.9015 9.59747 19.8584 9.62038L18.3334 10.427C18.2904 10.4501 18.2423 10.4621 18.1934 10.462C18.1494 10.4619 18.106 10.4522 18.0661 10.4336C18.0262 10.4151 17.9909 10.388 17.9625 10.3544C17.9341 10.3208 17.9134 10.2814 17.9018 10.239C17.8901 10.1966 17.8878 10.1521 17.8951 10.1087L18.1868 8.40704C18.1947 8.35865 18.191 8.30906 18.1759 8.26239C18.1608 8.21572 18.1348 8.17332 18.1001 8.13871L16.8634 6.93538C16.8231 6.89594 16.7946 6.84605 16.7811 6.79131C16.7676 6.73657 16.7696 6.67914 16.7869 6.62548C16.8042 6.57182 16.8362 6.52405 16.8791 6.48753C16.9221 6.451 16.9744 6.42717 17.0301 6.41871ZM7.96176 6.41871L9.66676 6.16704C9.71534 6.16005 9.76144 6.14118 9.80098 6.11211C9.84052 6.08304 9.87227 6.04466 9.89343 6.00038L10.6668 4.45704C10.6916 4.4064 10.7302 4.36373 10.778 4.33389C10.8259 4.30406 10.8812 4.28824 10.9376 4.28824C10.994 4.28824 11.0493 4.30406 11.0972 4.33389C11.145 4.36373 11.1836 4.4064 11.2084 4.45704L11.9668 6.00038C11.9885 6.04452 12.0207 6.08274 12.0605 6.11176C12.1002 6.14078 12.1464 6.15975 12.1951 6.16704L13.9034 6.41538C13.9592 6.42384 14.0115 6.44767 14.0544 6.48419C14.0974 6.52072 14.1293 6.56849 14.1466 6.62215C14.1639 6.67581 14.1659 6.73323 14.1524 6.78797C14.1389 6.84271 14.1104 6.8926 14.0701 6.93204L12.8334 8.13871C12.798 8.17282 12.7715 8.21517 12.7564 8.26199C12.7413 8.30881 12.738 8.35864 12.7468 8.40704L13.0384 10.1087C13.0457 10.1521 13.0434 10.1966 13.0318 10.239C13.0201 10.2814 12.9994 10.3208 12.971 10.3544C12.9426 10.388 12.9073 10.4151 12.8674 10.4336C12.8275 10.4522 12.7841 10.4619 12.7401 10.462C12.6907 10.4624 12.642 10.4503 12.5984 10.427L11.0718 9.62371C11.028 9.60081 10.9794 9.58881 10.9301 9.58871C10.8813 9.58861 10.8331 9.60063 10.7901 9.62371L9.26176 10.427H9.25176H9.0001C8.94074 10.3988 8.89228 10.3519 8.86217 10.2935C8.83206 10.2351 8.82196 10.1684 8.83343 10.1037L9.11676 8.40704C9.12512 8.35864 9.1216 8.30893 9.10651 8.26219C9.09141 8.21545 9.06519 8.17308 9.0301 8.13871L7.79343 6.93538C7.75311 6.89583 7.72463 6.8458 7.7112 6.79094C7.69777 6.73608 7.69993 6.67856 7.71742 6.62486C7.73492 6.57116 7.76706 6.5234 7.81023 6.48698C7.8534 6.45056 7.90588 6.42692 7.96176 6.41871ZM35.0234 30.6937C35.0234 31.0603 34.8779 31.4119 34.6189 31.6713C34.3598 31.9307 34.0084 32.0766 33.6418 32.077H27.2634C27.5735 31.8058 27.7935 31.4463 27.894 31.0468C27.9944 30.6472 27.9706 30.2265 27.8257 29.8408C27.6808 29.4551 27.4217 29.1228 27.083 28.8882C26.7443 28.6536 26.3421 28.528 25.9301 28.528C25.5181 28.528 25.1159 28.6536 24.7772 28.8882C24.4385 29.1228 24.1794 29.4551 24.0345 29.8408C23.8896 30.2265 23.8658 30.6472 23.9662 31.0468C24.0667 31.4463 24.2867 31.8058 24.5968 32.077H18.5118C18.8213 31.8058 19.0408 31.4467 19.1409 31.0475C19.2411 30.6483 19.2171 30.2281 19.0723 29.8429C18.9274 29.4577 18.6685 29.1258 18.3301 28.8916C17.9917 28.6573 17.59 28.5318 17.1784 28.5318C16.7669 28.5318 16.3651 28.6573 16.0267 28.8916C15.6884 29.1258 15.4295 29.4577 15.2846 29.8429C15.1397 30.2281 15.1158 30.6483 15.2159 31.0475C15.3161 31.4467 15.5355 31.8058 15.8451 32.077H6.35843C5.99168 32.0766 5.64008 31.9307 5.38075 31.6714C5.12142 31.4121 4.97554 31.0605 4.9751 30.6937V13.812C4.97598 13.4456 5.12206 13.0944 5.38134 12.8354C5.64062 12.5765 5.99197 12.4308 6.35843 12.4304H8.37676H8.77676C8.89148 12.4482 9.00734 12.4577 9.12343 12.4587C9.23508 12.4573 9.34648 12.4478 9.45676 12.4304C9.92483 12.445 10.3747 12.6149 10.7356 12.9133C11.0965 13.2117 11.3479 13.6217 11.4501 14.0787L14.0001 25.2604C14.1515 25.9431 14.5313 26.5537 15.0768 26.9913C15.6223 27.4289 16.3008 27.6673 17.0001 27.667H25.6668C26.3693 27.67 27.0516 27.4321 27.6 26.9929C28.1483 26.5538 28.5295 25.9399 28.6801 25.2537L30.0001 19.3337C30.0734 19.0067 30.0733 18.6674 29.9996 18.3404C29.926 18.0134 29.7807 17.7069 29.5742 17.4428C29.3677 17.1788 29.1052 16.9639 28.8056 16.8136C28.5061 16.6633 28.1769 16.5814 27.8418 16.5737L14.0001 16.2537L13.4001 13.6354C13.305 13.2192 13.1465 12.8201 12.9301 12.452C13.2485 12.4266 13.558 12.3351 13.839 12.1832C14.12 12.0314 14.3662 11.8226 14.5619 11.5703C14.7577 11.3179 14.8986 11.0275 14.9758 10.7176C15.053 10.4077 15.0647 10.0851 15.0101 9.77038L14.8701 8.94871L15.4668 8.36704L16.0634 8.94871L15.9218 9.77038C15.8499 10.1929 15.8975 10.627 16.059 11.0239C16.2206 11.4208 16.4897 11.7648 16.8362 12.017C17.1827 12.2692 17.5927 12.4197 18.02 12.4515C18.4474 12.4833 18.8751 12.3952 19.2551 12.197L20.0001 11.8087L20.7384 12.197C21.1184 12.3952 21.5462 12.4833 21.9735 12.4515C22.4009 12.4197 22.8109 12.2692 23.1573 12.017C23.5038 11.7648 23.7729 11.4208 23.9345 11.0239C24.0961 10.627 24.1436 10.1929 24.0718 9.77038L23.9301 8.94871L24.5268 8.36704L25.1234 8.94871L24.9834 9.77038C24.9116 10.1929 24.9591 10.627 25.1207 11.0239C25.2823 11.4208 25.5514 11.7648 25.8979 12.017C26.2443 12.2692 26.6543 12.4197 27.0817 12.4515C27.509 12.4833 27.9368 12.3952 28.3168 12.197L29.0551 11.8087L29.7918 12.197C30.1224 12.3704 30.4901 12.4614 30.8634 12.462C30.9846 12.4608 31.1055 12.4502 31.2251 12.4304H33.6284C33.9947 12.4308 34.3459 12.5765 34.6049 12.8355C34.8639 13.0946 35.0097 13.4457 35.0101 13.812L35.0234 30.6937ZM14.4534 18.2654L27.8018 18.577C27.8414 18.5773 27.8803 18.5868 27.9156 18.6047C27.9509 18.6226 27.9816 18.6486 28.0051 18.6804C28.0302 18.7108 28.0479 18.7467 28.0565 18.7852C28.0652 18.8238 28.0647 18.8638 28.0551 18.902L26.7318 24.8137C26.679 25.0565 26.5444 25.2738 26.3505 25.4292C26.1566 25.5845 25.9152 25.6685 25.6668 25.667H17.0001C16.7529 25.668 16.5128 25.5844 16.3197 25.43C16.1266 25.2757 15.9921 25.06 15.9384 24.8187L14.4534 18.2654Z" fill="white"/>
<path d="M34.6417 35.7188H5.3584V37.7188H34.6417V35.7188Z" fill="white"/>
<path d="M21.1816 24.3064C21.2301 24.3557 21.288 24.3947 21.3518 24.4213C21.4156 24.448 21.4841 24.4616 21.5533 24.4614C21.6224 24.4613 21.6908 24.4476 21.7545 24.421C21.8183 24.3944 21.8762 24.3554 21.9249 24.3064L23.7866 22.4447C23.8823 22.3495 23.9376 22.2209 23.9411 22.0859C23.9445 21.9509 23.8957 21.8197 23.8049 21.7197C23.753 21.665 23.6901 21.6218 23.6203 21.5931C23.5505 21.5643 23.4754 21.5507 23.3999 21.5531H22.5533V19.5664H20.5533V21.5464H19.6899C19.555 21.5467 19.4254 21.5987 19.3277 21.6917C19.23 21.7847 19.1718 21.9117 19.1649 22.0464C19.1621 22.1224 19.1755 22.1981 19.2042 22.2685C19.233 22.339 19.2764 22.4024 19.3316 22.4547L21.1816 24.3064Z" fill="white"/>
</svg>
