<svg width="24" height="24" viewBox="0 0 24 24" fill="none" xmlns="http://www.w3.org/2000/svg">
<g clip-path="url(#clip0_62_808)">
<path d="M12.0039 5.83801C8.60095 5.83801 5.84595 8.59601 5.84595 11.996C5.84595 15.399 8.60395 18.154 12.0039 18.154C15.4069 18.154 18.1619 15.396 18.1619 11.996C18.1619 8.59301 15.4039 5.83801 12.0039 5.83801ZM12.0039 15.993C9.79495 15.993 8.00695 14.204 8.00695 11.996C8.00695 9.78801 9.79595 7.99901 12.0039 7.99901C14.2119 7.99901 16.0009 9.78801 16.0009 11.996C16.0019 14.204 14.2129 15.993 12.0039 15.993Z" fill="#5C5F62"/>
<path d="M16.948 0.075997C14.74 -0.027003 9.27098 -0.022003 7.06098 0.075997C5.11898 0.166997 3.40598 0.635997 2.02498 2.017C-0.283017 4.325 0.0119831 7.435 0.0119831 11.996C0.0119831 16.664 -0.248017 19.702 2.02498 21.975C4.34198 24.291 7.49698 23.988 12.004 23.988C16.628 23.988 18.224 23.991 19.859 23.358C22.082 22.495 23.76 20.508 23.924 16.939C24.028 14.73 24.022 9.262 23.924 7.052C23.726 2.839 21.465 0.283997 16.948 0.075997ZM20.443 20.448C18.93 21.961 16.831 21.826 11.975 21.826C6.97498 21.826 4.96998 21.9 3.50698 20.433C1.82198 18.756 2.12698 16.063 2.12698 11.98C2.12698 6.455 1.55998 2.476 7.10498 2.192C8.37898 2.147 8.75398 2.132 11.961 2.132L12.006 2.162C17.335 2.162 21.516 1.604 21.767 7.148C21.824 8.413 21.837 8.793 21.837 11.995C21.836 16.937 21.93 18.954 20.443 20.448Z" fill="#5C5F62"/>
<path d="M18.406 7.03394C19.2008 7.03394 19.845 6.38968 19.845 5.59494C19.845 4.80021 19.2008 4.15594 18.406 4.15594C17.6113 4.15594 16.967 4.80021 16.967 5.59494C16.967 6.38968 17.6113 7.03394 18.406 7.03394Z" fill="#5C5F62"/>
</g>
<defs>
<clipPath id="clip0_62_808">
<rect width="24" height="24" fill="white"/>
</clipPath>
</defs>
</svg>
