<svg width="24" height="24" viewBox="0 0 24 24" fill="none" xmlns="http://www.w3.org/2000/svg">
<path d="M21.9951 22.0001V21.9992H22.0001V14.6642C22.0001 11.0759 21.2276 8.31171 17.0326 8.31171C15.0159 8.31171 13.6626 9.41838 13.1101 10.4675H13.0517V8.64671H9.07422V21.9992H13.2159V15.3876C13.2159 13.6467 13.5459 11.9634 15.7017 11.9634C17.8259 11.9634 17.8576 13.95 17.8576 15.4992V22.0001H21.9951Z" fill="#5C5F62"/>
<path d="M2.33008 8.64766H6.47675V22.0002H2.33008V8.64766Z" fill="#5C5F62"/>
<path d="M4.40167 2C3.07583 2 2 3.07583 2 4.40167C2 5.72751 3.07583 6.82584 4.40167 6.82584C5.72751 6.82584 6.80334 5.72751 6.80334 4.40167C6.80251 3.07583 5.72667 2 4.40167 2V2Z" fill="#5C5F62"/>
</svg>
