<svg width="190" height="170" viewBox="0 0 190 170" fill="none" xmlns="http://www.w3.org/2000/svg">
<g clip-path="url(#clip0_5060_80157)">
<path d="M1.06431 38.1462C0.692262 38.2508 0.376908 38.4988 0.187431 38.8356C-0.00204531 39.1725 -0.0501759 39.5708 0.0535998 39.9431L24.4238 126.983C24.5284 127.355 24.7764 127.67 25.1132 127.86C25.4501 128.049 25.8483 128.098 26.2206 127.994L116.061 102.836C116.433 102.731 116.749 102.483 116.938 102.146C117.128 101.809 117.176 101.411 117.072 101.039L92.702 13.999C92.5973 13.6269 92.3494 13.3115 92.0125 13.122C91.6757 12.9325 91.2774 12.8844 90.9051 12.9882L1.06431 38.1462Z" fill="#E6E6E6"/>
<path d="M27.3503 123.884L112.963 99.9099L89.7767 17.0984L4.16406 41.0724L27.3503 123.884Z" fill="white"/>
<path d="M15.4819 52.1301C14.9107 52.29 14.6752 53.2389 14.957 54.2452C15.2387 55.2515 15.9327 55.9401 16.5039 55.7801L55.5505 44.846C56.1217 44.686 56.3572 43.7371 56.0755 42.7309C55.7937 41.7246 55.0998 41.036 54.5286 41.1959L15.4819 52.1301Z" fill="#E6E6E6"/>
<path d="M18.6264 63.3608C18.0552 63.5208 17.8197 64.4696 18.1015 65.4759C18.3832 66.4822 19.0772 67.1708 19.6484 67.0109L58.6951 56.0767C59.2663 55.9167 59.5018 54.9679 59.22 53.9616C58.9383 52.9553 58.2443 52.2667 57.6731 52.4266L18.6264 63.3608Z" fill="#E6E6E6"/>
<path d="M21.7358 74.4624C21.1646 74.6223 20.9291 75.5712 21.2109 76.5775C21.4926 77.5838 22.1866 78.2724 22.7578 78.1124L61.8044 67.1782C62.3756 67.0183 62.6111 66.0694 62.3294 65.0631C62.0476 64.0569 61.3537 63.3683 60.7825 63.5282L21.7358 74.4624Z" fill="#E6E6E6"/>
<path d="M24.8803 85.6933C24.3091 85.8533 24.0736 86.8021 24.3554 87.8084C24.6371 88.8147 25.3311 89.5033 25.9023 89.3434L64.949 78.4092C65.5202 78.2493 65.7557 77.3004 65.4739 76.2941C65.1922 75.2878 64.4982 74.5992 63.927 74.7592L24.8803 85.6933Z" fill="#E6E6E6"/>
<path d="M74.3452 35.7764C74.1053 35.8433 73.8809 35.9568 73.6849 36.1105C73.4889 36.2641 73.3251 36.4549 73.2029 36.6719C73.0807 36.8889 73.0024 37.1279 72.9726 37.3752C72.9428 37.6225 72.962 37.8732 73.0292 38.113C73.0963 38.3529 73.2101 38.5771 73.364 38.773C73.5178 38.9688 73.7088 39.1324 73.9259 39.2544C74.1431 39.3764 74.3821 39.4543 74.6294 39.4839C74.8767 39.5134 75.1274 39.4939 75.3671 39.4264L82.6667 37.3824C83.1507 37.2468 83.5611 36.9246 83.8075 36.4865C84.0539 36.0484 84.1162 35.5303 83.9806 35.0463C83.8451 34.5623 83.5229 34.1519 83.0848 33.9055C82.6468 33.6591 82.1287 33.5968 81.6448 33.7323L74.3452 35.7764Z" fill="#E6E6E6"/>
<path d="M77.4292 46.7896C77.1893 46.8565 76.9649 46.97 76.7689 47.1236C76.5729 47.2773 76.4091 47.4681 76.2869 47.6851C76.1646 47.9021 76.0864 48.1411 76.0566 48.3884C76.0268 48.6356 76.046 48.8864 76.1132 49.1262C76.1803 49.3661 76.2941 49.5903 76.448 49.7862C76.6018 49.982 76.7928 50.1456 77.0099 50.2676C77.2271 50.3895 77.4661 50.4675 77.7134 50.497C77.9607 50.5266 78.2114 50.5071 78.4511 50.4396L85.7507 48.3955C86.2347 48.26 86.645 47.9378 86.8914 47.4997C87.1378 47.0616 87.2001 46.5435 87.0646 46.0595C86.9291 45.5755 86.6069 45.1651 86.1688 44.9187C85.7307 44.6723 85.2127 44.61 84.7287 44.7455L77.4292 46.7896Z" fill="#E6E6E6"/>
<path d="M80.513 57.8028C80.2734 57.8699 80.0493 57.9835 79.8535 58.1372C79.6578 58.291 79.4943 58.4817 79.3723 58.6986C79.2503 58.9156 79.1722 59.1544 79.1425 59.4015C79.1127 59.6486 79.132 59.8991 79.1991 60.1388C79.2662 60.3785 79.3798 60.6026 79.5336 60.7983C79.6873 60.9941 79.878 61.1576 80.0949 61.2796C80.3118 61.4016 80.5506 61.4797 80.7977 61.5095C81.0448 61.5392 81.2953 61.5199 81.535 61.4528L88.8345 59.4087C89.3185 59.2732 89.7289 58.9509 89.9753 58.5128C90.2217 58.0747 90.284 57.5567 90.1485 57.0727C90.0129 56.5887 89.6907 56.1783 89.2526 55.9319C88.8146 55.6854 88.2966 55.6231 87.8126 55.7587L80.513 57.8028Z" fill="#E6E6E6"/>
<path d="M83.5968 68.8161C83.1134 68.9521 82.7037 69.2744 82.4577 69.7123C82.2117 70.1503 82.1496 70.6679 82.285 71.1516C82.4205 71.6352 82.7423 72.0453 83.1799 72.2918C83.6175 72.5383 84.135 72.601 84.6188 72.4661L91.9184 70.4221C92.4019 70.2861 92.8116 69.9637 93.0576 69.5258C93.3035 69.0879 93.3656 68.5703 93.2302 68.0866C93.0948 67.6029 92.7729 67.1928 92.3353 66.9463C91.8977 66.6998 91.3802 66.6371 90.8964 66.772L83.5968 68.8161Z" fill="#E6E6E6"/>
<path d="M86.5417 87.9057C86.236 87.9909 85.9501 88.1356 85.7004 88.3314C85.4506 88.5272 85.2419 88.7703 85.0862 89.0468C84.9304 89.3233 84.8307 89.6278 84.7927 89.9429C84.7548 90.258 84.7793 90.5775 84.8648 90.8831C84.9504 91.1887 85.0954 91.4744 85.2914 91.724C85.4875 91.9735 85.7308 92.182 86.0075 92.3374C86.2842 92.4928 86.5888 92.5922 86.9039 92.6298C87.219 92.6674 87.5384 92.6426 87.8439 92.5567L97.1451 89.9521C97.7618 89.7794 98.2847 89.3687 98.5986 88.8105C98.9126 88.2523 98.992 87.5922 98.8193 86.9754C98.6466 86.3587 98.236 85.8358 97.6778 85.5218C97.1196 85.2078 96.4596 85.1284 95.8429 85.3011L86.5417 87.9057Z" fill="#0050FF"/>
<path d="M96.1148 78.5127L27.2871 97.7864L27.4584 98.3982L96.2861 79.1245L96.1148 78.5127Z" fill="#E6E6E6"/>
<path d="M165.251 160.774L159.731 162.108L151.957 141.45L160.104 139.48L165.251 160.774Z" fill="#A0616A"/>
<path d="M150.208 170L150.171 169.846C149.733 168.027 150.035 166.109 151.01 164.513C151.984 162.916 153.553 161.771 155.37 161.33L166.17 158.719L167.865 165.731L150.208 170Z" fill="#2F2E41"/>
<path d="M140.814 164.534L135.135 164.534L132.434 142.627L140.815 142.628L140.814 164.534Z" fill="#A0616A"/>
<path d="M142.19 169.967L124.023 169.966V169.808C124.023 167.936 124.767 166.142 126.09 164.819C127.413 163.496 129.207 162.752 131.078 162.752H131.079L142.19 162.753L142.19 169.967Z" fill="#2F2E41"/>
<path d="M132.428 155.982L126.914 90.2614L149.74 86.0537L149.83 86.0374L156.512 90.3325L154.186 114.519L164.893 152.229L155.648 154.662L144.924 119.689L142.47 109.053L141.212 122.873L142.146 156.954L132.428 155.982Z" fill="#2F2E41"/>
<path d="M126.207 91.7523L126.146 91.6758L134.034 32.2815L134.045 32.2037L134.1 32.148C134.216 32.0318 136.98 29.3006 139.823 29.3006C140.234 29.3006 140.624 29.2902 140.999 29.2807C143.174 29.2242 144.893 29.1789 146.935 31.2215C149.015 33.3021 155.804 40.8998 155.804 51.3055C155.804 61.3774 156.721 92.6775 156.73 92.9923L156.743 93.4343L156.373 93.1932C156.281 93.1344 147.151 87.3201 139.493 92.725C137.1 94.4143 134.95 95.0065 133.112 95.0065C128.834 95.0065 126.243 91.7989 126.207 91.7523Z" fill="#0050FF"/>
<path d="M144.073 24.3999C149.587 21.3857 151.613 14.4723 148.599 8.95841C145.585 3.44449 138.672 1.41804 133.159 4.43223C127.645 7.44641 125.619 14.3598 128.633 19.8737C131.647 25.3877 138.56 27.4141 144.073 24.3999Z" fill="#A0616A"/>
<path d="M121.199 104.516C121.737 104.099 122.178 103.569 122.489 102.963C122.8 102.358 122.975 101.691 123.001 101.011C123.026 100.33 122.903 99.6521 122.638 99.0245C122.374 98.397 121.975 97.8351 121.469 97.3784L127.931 82.137L119.471 83.6941L114.632 97.9289C113.921 98.8285 113.565 99.9576 113.631 101.102C113.697 102.247 114.18 103.328 114.99 104.14C115.799 104.952 116.878 105.439 118.023 105.508C119.167 105.578 120.297 105.225 121.199 104.516H121.199Z" fill="#A0616A"/>
<path d="M114.957 92.6607L117.038 88.2678C116.909 88.1905 116.803 88.0806 116.73 87.9493C114.786 84.5803 126.528 56.6022 127.311 54.7465C127.191 53.7372 125.959 43.0414 126.86 39.4362C127.921 35.1922 130.099 33.2143 134.144 32.8225C138.604 32.4036 139.808 38.4613 139.819 38.5228L139.823 54.0959L134.704 72.0225L123.03 95.8407L114.957 92.6607Z" fill="#0050FF"/>
<path d="M140.07 18.7027C138.707 18.8801 137.678 17.4846 137.201 16.1946C136.724 14.9045 136.36 13.4027 135.174 12.7058C133.554 11.7538 131.481 12.8989 129.629 12.5847C127.537 12.23 126.176 10.0126 126.07 7.89311C125.963 5.77363 126.806 3.73515 127.634 1.78102L127.923 4.20957C127.884 3.38647 128.057 2.56722 128.426 1.8302C128.794 1.09317 129.346 0.463014 130.027 0L129.655 3.56352C129.888 1.56715 132.039 0.0202276 134.006 0.433938L133.947 2.55721C136.364 2.26985 138.801 1.98209 141.225 2.20102C143.648 2.41994 146.089 3.18681 147.926 4.78304C150.673 7.17075 151.677 11.1024 151.34 14.7271C151.003 18.3518 149.507 21.757 147.948 25.0464C147.555 25.874 147.013 26.8079 146.103 26.9133C145.285 27.0081 144.537 26.3247 144.283 25.542C144.029 24.7592 144.153 23.9088 144.305 23.1001C144.535 21.8783 144.825 20.6295 144.609 19.4053C144.393 18.181 143.512 16.9712 142.278 16.8212C141.044 16.6711 139.781 18.0818 140.375 19.1743L140.07 18.7027Z" fill="#2F2E41"/>
<path d="M189.879 169.993H108.004V169.324H190L189.879 169.993Z" fill="#3F3D56"/>
</g>
<defs>
<clipPath id="clip0_5060_80157">
<rect width="190" height="170" fill="white"/>
</clipPath>
</defs>
</svg>
