<svg width="60" height="61" viewBox="0 0 60 61" fill="none" xmlns="http://www.w3.org/2000/svg">
<path d="M30 5.66675C21.075 5.66675 13.075 9.51675 7.52502 15.6667L30 55.6667L52.475 15.6667C46.95 9.54175 38.925 5.66675 30 5.66675ZM17.5 18.1667C17.5 15.4167 19.75 13.1667 22.5 13.1667C25.25 13.1667 27.5 15.4167 27.5 18.1667C27.5 20.9167 25.25 23.1667 22.5 23.1667C19.75 23.1667 17.5 20.9167 17.5 18.1667ZM30 38.1667C27.25 38.1667 25 35.9167 25 33.1667C25 30.4167 27.25 28.1667 30 28.1667C32.75 28.1667 35 30.4167 35 33.1667C35 35.9167 32.75 38.1667 30 38.1667Z" fill="#F0F0F0"/>
</svg>
