<svg width="16" height="16" viewBox="0 0 16 16" fill="none" xmlns="http://www.w3.org/2000/svg">
<path fill-rule="evenodd" clip-rule="evenodd" d="M9.85388 13.1337C11.3937 11.1701 13.3334 8.31736 13.3334 6.40588C13.3334 3.23624 10.9455 0.666748 8.00002 0.666748C5.0545 0.666748 2.66669 3.23624 2.66669 6.40588C2.66669 8.31736 4.60632 11.1701 6.14616 13.1337C6.94952 14.1582 7.3512 14.6704 8.00002 14.6704C8.64884 14.6704 9.05052 14.1582 9.85388 13.1337ZM8.00002 8.66675C6.89545 8.66675 6.00002 7.77132 6.00002 6.66675C6.00002 5.56218 6.89545 4.66675 8.00002 4.66675C9.10459 4.66675 10 5.56218 10 6.66675C10 7.77132 9.10459 8.66675 8.00002 8.66675Z" fill="white"/>
</svg>
