<svg width="16" height="16" viewBox="0 0 16 16" fill="none" xmlns="http://www.w3.org/2000/svg">
<path fill-rule="evenodd" clip-rule="evenodd" d="M9.8537 13.1337C11.3935 11.1701 13.3332 8.3173 13.3332 6.40582C13.3332 3.23618 10.9454 0.666687 7.99984 0.666687C5.05432 0.666687 2.6665 3.23618 2.6665 6.40582C2.6665 8.3173 4.60614 11.1701 6.14598 13.1337C6.94933 14.1581 7.35101 14.6703 7.99984 14.6703C8.64866 14.6703 9.05034 14.1581 9.8537 13.1337ZM7.99984 8.66669C6.89527 8.66669 5.99984 7.77126 5.99984 6.66669C5.99984 5.56212 6.89527 4.66669 7.99984 4.66669C9.10441 4.66669 9.99984 5.56212 9.99984 6.66669C9.99984 7.77126 9.10441 8.66669 7.99984 8.66669Z" fill="#5C5F62"/>
</svg>
