<svg width="36" height="37" viewBox="0 0 36 37" fill="none" xmlns="http://www.w3.org/2000/svg">
<path d="M18 33.5C25.455 33.5 31.5 27.455 31.5 20C24.045 20 18 26.045 18 33.5ZM8.4 15.875C8.4 17.945 10.08 19.625 12.15 19.625C12.945 19.625 13.665 19.385 14.28 18.965L14.25 19.25C14.25 21.32 15.93 23 18 23C20.07 23 21.75 21.32 21.75 19.25L21.72 18.965C22.32 19.385 23.055 19.625 23.85 19.625C25.92 19.625 27.6 17.945 27.6 15.875C27.6 14.375 26.715 13.1 25.455 12.5C26.715 11.9 27.6 10.625 27.6 9.125C27.6 7.055 25.92 5.375 23.85 5.375C23.055 5.375 22.335 5.615 21.72 6.035L21.75 5.75C21.75 3.68 20.07 2 18 2C15.93 2 14.25 3.68 14.25 5.75L14.28 6.035C13.68 5.615 12.945 5.375 12.15 5.375C10.08 5.375 8.4 7.055 8.4 9.125C8.4 10.625 9.285 11.9 10.545 12.5C9.285 13.1 8.4 14.375 8.4 15.875ZM18 8.75C20.07 8.75 21.75 10.43 21.75 12.5C21.75 14.57 20.07 16.25 18 16.25C15.93 16.25 14.25 14.57 14.25 12.5C14.25 10.43 15.93 8.75 18 8.75ZM4.5 20C4.5 27.455 10.545 33.5 18 33.5C18 26.045 11.955 20 4.5 20Z" fill="#6494FF"/>
</svg>
