<svg width="24" height="24" viewBox="0 0 24 24" fill="none" xmlns="http://www.w3.org/2000/svg">
<path d="M9 3.75001C8.04234 3.75001 7.65082 3.75234 7.33515 3.80233C5.51661 4.09036 4.09035 5.51662 3.80232 7.33516C3.75233 7.65083 3.75 8.04234 3.75 9.00001V15C3.75 15.9577 3.75233 16.3492 3.80232 16.6649C4.09035 18.4834 5.51661 19.9097 7.33515 20.1977C7.65082 20.2477 8.04233 20.25 9 20.25H10C10.9576 20.25 11.8393 19.9342 12.5496 19.4007C12.8808 19.1519 13.3509 19.2188 13.5997 19.5499C13.8484 19.8811 13.7816 20.3513 13.4504 20.6C12.4894 21.3219 11.2936 21.75 10 21.75L8.91914 21.75C8.06715 21.7501 7.54817 21.7501 7.1005 21.6792C4.64012 21.2895 2.71048 19.3599 2.32079 16.8995C2.24989 16.4518 2.24993 15.9328 2.25 15.0808V8.91921C2.24993 8.06718 2.24989 7.54819 2.32079 7.10051C2.71048 4.64013 4.64012 2.71049 7.1005 2.3208C7.54817 2.2499 8.06715 2.24994 8.91914 2.25L10 2.25001C11.2936 2.25001 12.4894 2.67807 13.4504 3.39997C13.7816 3.64874 13.8484 4.11889 13.5997 4.45008C13.3509 4.78127 12.8808 4.84808 12.5496 4.59932C11.8393 4.06583 10.9576 3.75001 10 3.75001H9Z" fill="white"/>
<path d="M10.534 7.41233C10.8586 7.15498 11.3303 7.20947 11.5877 7.53404C11.845 7.85861 11.7905 8.33034 11.466 8.58769L9.703 9.98554C8.99897 10.5438 8.51697 10.9274 8.18952 11.25L21 11.25C21.4142 11.25 21.75 11.5858 21.75 12C21.75 12.4142 21.4142 12.75 21 12.75L8.18952 12.75C8.51697 13.0727 8.99897 13.4563 9.703 14.0145L11.466 15.4123C11.7905 15.6697 11.845 16.1414 11.5877 16.466C11.3303 16.7905 10.8586 16.845 10.534 16.5877L8.73521 15.1614C8.06275 14.6283 7.50783 14.1883 7.11252 13.7945C6.70685 13.3904 6.37055 12.9419 6.27923 12.3687C6.25978 12.2466 6.25 12.1234 6.25 12C6.25 11.8766 6.25978 11.7534 6.27923 11.6313C6.37055 11.0582 6.70685 10.6096 7.11252 10.2055C7.50784 9.81173 8.06275 9.37176 8.73523 8.83858L10.534 7.41233Z" fill="white"/>
</svg>
