<svg xmlns="http://www.w3.org/2000/svg" xmlns:xlink="http://www.w3.org/1999/xlink" viewBox="0 0 1051.3 646.96"><defs><linearGradient id="linear-gradient" x1="2071.83" y1="-1936.27" x2="3235.12" y2="-224.26" gradientUnits="userSpaceOnUse"><stop offset="0" stop-color="#aeb6bd"/><stop offset="1" stop-color="#fff"/></linearGradient><clipPath id="clip-path"><rect x="1867.5" y="-1437.23" width="1298" height="768" fill="none"/></clipPath><clipPath id="clip-path-2"><rect x="1686.18" y="-1662.32" width="2090.63" height="1393.76" fill="url(#linear-gradient)" style="mix-blend-mode:lighten"/></clipPath><mask id="mask" x="0.04" y="620.49" width="1051.26" height="1000.76" maskUnits="userSpaceOnUse"/><clipPath id="clip-path-3"><path d="M591.39,1161.89c-22-12.47-38.2-32.47-50.69-54.08-12.39-21.39-21.41-46.77-17.92-71.81,8-57.62,63.32-85.3,100.36-122.63,20.31-20.47,9.93-46.7,1.34-70.18-8.71-23.79-18.57-47.27-24.74-71.9-5.89-23.51-9.25-52.27,1.49-74.95,11-23.24,37.91-31.33,61.78-31.93,11.62-.29,23.17,1,34.68,2.44,81.39,20.82,152,76.22,194.22,148.76,23.68,40.69,38.67,87.78,39.58,135,1,54.25-23.23,105.23-60.94,143.41-35.42,35.86-81.74,59.41-129.67,73.66S636.51,1187.49,591.39,1161.89Z" fill="none" stroke="#fff" stroke-miterlimit="10" stroke-width="2.63"/></clipPath><mask id="mask-2" x="-111.01" y="-311.25" width="1251.4" height="1120.37" maskUnits="userSpaceOnUse"><rect x="0.04" width="1051.26" height="646.96" fill="#f1f2f2"/></mask><clipPath id="clip-path-4"><ellipse cx="251.88" cy="172.74" rx="51.35" ry="60.73" transform="translate(-12.74 325.26) rotate(-64.4)" fill="none"/></clipPath><linearGradient id="linear-gradient-3" x1="709.02" y1="210.65" x2="946.46" y2="431.24" gradientUnits="userSpaceOnUse"><stop offset="0"/><stop offset="1" stop-opacity="0"/></linearGradient><linearGradient id="linear-gradient-4" x1="309.7" y1="470.98" x2="560.94" y2="58.89" gradientUnits="userSpaceOnUse"><stop offset="0.05" stop-color="#27aefd"/><stop offset="0.81" stop-color="#10dffd"/></linearGradient><linearGradient id="linear-gradient-5" x1="67.31" y1="413.2" x2="521.51" y2="413.2" xlink:href="#linear-gradient-4"/><linearGradient id="linear-gradient-6" x1="534.06" y1="324.1" x2="362.48" y2="601.38" xlink:href="#linear-gradient-3"/><linearGradient id="linear-gradient-7" x1="371.67" y1="169.89" x2="1069.11" y2="169.89" xlink:href="#linear-gradient-4"/><linearGradient id="linear-gradient-8" x1="657.38" y1="344.98" x2="455.17" y2="301.32" xlink:href="#linear-gradient-3"/><linearGradient id="linear-gradient-9" x1="262.77" y1="186.01" x2="223.2" y2="132.14" gradientTransform="translate(150.58 -116.39) rotate(39.28)" xlink:href="#linear-gradient-4"/><linearGradient id="linear-gradient-10" x1="273.06" y1="76.39" x2="291.57" y2="102.94" xlink:href="#linear-gradient-4"/><clipPath id="clip-path-5"><ellipse cx="256.5" cy="316.2" rx="51.35" ry="60.73" transform="translate(-139.49 410.9) rotate(-64.4)" fill="none"/></clipPath><linearGradient id="linear-gradient-11" x1="177.42" y1="242.61" x2="270.87" y2="324.19" gradientTransform="translate(306.54 -75.53) rotate(49.78)" xlink:href="#linear-gradient-4"/><clipPath id="clip-path-6"><path d="M400.63,44.64c-2.31,25.16-13.86,48.17-28.41,68.45-14.41,20.09-33.82,38.76-58.07,45.88-55.83,16.39-103.81-22.59-153.07-41-27-10.09-46.65,10.17-64.52,27.66C78.46,163.38,61.13,182,41.22,197.79c-19,15.05-43.84,29.94-68.92,29.48-25.71-.46-44.16-21.64-54.53-43.16-5-10.46-8.66-21.51-12-32.6C-108.81,68.76-87.37-18.38-38.64-86.73c27.34-38.33,64.09-71.37,106.78-91.64,49-23.28,105.46-22.15,155.78-3.49,47.25,17.52,87.78,50,120.5,87.86S405.4-7,400.63,44.64Z" fill="none" stroke="#fff" stroke-miterlimit="10" stroke-width="2.63"/></clipPath><clipPath id="clip-path-7"><path d="M891.62,505.58c-2.32,25.16-13.87,48.17-28.42,68.46-14.4,20.09-33.82,38.76-58.07,45.88-55.83,16.39-103.8-22.59-153.07-41-27-10.09-46.65,10.16-64.52,27.66-18.09,17.72-35.43,36.37-55.34,52.13-19,15-43.83,29.95-68.92,29.49-25.71-.47-44.16-21.65-54.53-43.16-5-10.47-8.66-21.51-12.05-32.61-14.52-82.75,6.91-169.89,55.65-238.23,27.33-38.33,64.08-71.37,106.77-91.65,49-23.27,105.46-22.14,155.78-3.49,47.26,17.52,87.78,50.05,120.5,87.86S896.38,453.92,891.62,505.58Z" fill="none" stroke="#fff" stroke-miterlimit="10" stroke-width="2.63"/></clipPath><clipPath id="clip-path-8"><path d="M591.39,187.59c-22-12.47-38.2-32.47-50.69-54.07-12.39-21.4-21.41-46.78-17.92-71.81,8-57.63,63.32-85.31,100.36-122.64,20.31-20.47,9.93-46.7,1.34-70.18-8.71-23.79-18.57-47.27-24.74-71.89-5.89-23.52-9.25-52.28,1.49-74.95,11-23.24,37.91-31.34,61.78-31.94,11.62-.29,23.17,1,34.68,2.44,81.39,20.82,152,76.22,194.22,148.76,23.68,40.69,38.67,87.78,39.58,135,1,54.24-23.23,105.23-60.94,143.41-35.42,35.85-81.74,59.4-129.67,73.65S636.51,213.19,591.39,187.59Z" fill="none" stroke="#fff" stroke-miterlimit="10" stroke-width="2.63"/></clipPath><clipPath id="clip-path-9"><path d="M267.31,241c19.26,16.35,31.46,39,39.71,62.58,8.18,23.34,12.31,49.95,4.21,73.89-18.65,55.11-78.11,72-121.46,101.75-23.77,16.32-18.46,44-14.4,68.69,4.11,25,9.42,49.9,10.89,75.25,1.4,24.2-.66,53.08-15.44,73.35-15.15,20.77-43.08,23.71-66.65,19.84-11.46-1.88-22.58-5.27-33.61-8.86-76.08-35.65-135.1-103.25-163-182.39-15.68-44.39-21.62-93.45-13.7-140,9.09-53.48,42.44-99,86.6-129.51C21.89,227,71.79,212.47,121.53,207.41S227.75,207.46,267.31,241Z" fill="none" stroke="#fff" stroke-miterlimit="10" stroke-width="2.63"/></clipPath></defs><g style="isolation:isolate"><g id="Layer_1" data-name="Layer 1"><g opacity="0.64"><g clip-path="url(#clip-path)"><rect x="1686.18" y="-1662.32" width="2090.63" height="1393.76" fill="url(#linear-gradient)" style="mix-blend-mode:lighten"/></g></g><g mask="url(#mask)"><g opacity="0.09"><g clip-path="url(#clip-path-3)"><polygon points="763.19 680.49 620.53 652.5 634.2 622.24 763.19 680.49" fill="none" stroke="#fff" stroke-miterlimit="10" stroke-width="2.63"/></g><path d="M591.39,1161.89c-22-12.47-38.2-32.47-50.69-54.08-12.39-21.39-21.41-46.77-17.92-71.81,8-57.62,63.32-85.3,100.36-122.63,20.31-20.47,9.93-46.7,1.34-70.18-8.71-23.79-18.57-47.27-24.74-71.9-5.89-23.51-9.25-52.27,1.49-74.95,11-23.24,37.91-31.33,61.78-31.93,11.62-.29,23.17,1,34.68,2.44,81.39,20.82,152,76.22,194.22,148.76,23.68,40.69,38.67,87.78,39.58,135,1,54.25-23.23,105.23-60.94,143.41-35.42,35.86-81.74,59.41-129.67,73.66S636.51,1187.49,591.39,1161.89Z" fill="none" stroke="#fff" stroke-miterlimit="10" stroke-width="2.63"/></g></g><g mask="url(#mask-2)"><rect width="1051.3" height="646.96" fill="#0067e2"/><g opacity="0.7" style="mix-blend-mode:multiply"><g clip-path="url(#clip-path-4)"><rect x="193.59" y="106.73" width="116.59" height="132.02" transform="matrix(0.65, -0.76, 0.76, 0.65, -43.26, 251.33)" fill="#fff"/><ellipse cx="251.88" cy="172.74" rx="51.35" ry="60.73" transform="translate(-12.73 325.28) rotate(-64.4)" fill="#fff"/><ellipse cx="251.88" cy="172.74" rx="51.13" ry="60.47" transform="translate(-12.73 325.28) rotate(-64.4)" fill="#fff"/><ellipse cx="251.88" cy="172.74" rx="50.91" ry="60.22" transform="translate(-12.73 325.28) rotate(-64.4)" fill="#fff"/><ellipse cx="251.88" cy="172.74" rx="50.7" ry="59.96" transform="translate(-12.73 325.28) rotate(-64.4)" fill="#fff"/><ellipse cx="251.88" cy="172.74" rx="50.48" ry="59.71" transform="translate(-12.73 325.28) rotate(-64.4)" fill="#fff"/><ellipse cx="251.88" cy="172.74" rx="50.26" ry="59.45" transform="translate(-12.73 325.28) rotate(-64.4)" fill="#fff"/><ellipse cx="251.88" cy="172.74" rx="50.05" ry="59.19" transform="translate(-12.73 325.28) rotate(-64.4)" fill="#fff"/><ellipse cx="251.88" cy="172.74" rx="49.83" ry="58.94" transform="translate(-12.73 325.28) rotate(-64.4)" fill="#fff"/><ellipse cx="251.88" cy="172.74" rx="49.61" ry="58.68" transform="translate(-12.73 325.28) rotate(-64.4)" fill="#fff"/><ellipse cx="251.88" cy="172.74" rx="49.4" ry="58.42" transform="translate(-12.73 325.28) rotate(-64.4)" fill="#fff"/><ellipse cx="251.88" cy="172.74" rx="49.18" ry="58.17" transform="translate(-12.73 325.28) rotate(-64.4)" fill="#fff"/><ellipse cx="251.88" cy="172.74" rx="48.96" ry="57.91" transform="translate(-12.73 325.28) rotate(-64.4)" fill="#fff"/><ellipse cx="251.88" cy="172.74" rx="48.75" ry="57.66" transform="translate(-12.73 325.28) rotate(-64.4)" fill="#fff"/><ellipse cx="251.88" cy="172.74" rx="48.53" ry="57.4" transform="translate(-12.73 325.28) rotate(-64.4)" fill="#fff"/><ellipse cx="251.88" cy="172.74" rx="48.31" ry="57.14" transform="translate(-12.73 325.28) rotate(-64.4)" fill="#fff"/><ellipse cx="251.88" cy="172.74" rx="48.1" ry="56.89" transform="translate(-12.73 325.28) rotate(-64.4)" fill="#fff"/><ellipse cx="251.88" cy="172.74" rx="47.88" ry="56.63" transform="translate(-12.73 325.28) rotate(-64.4)" fill="#fff"/><ellipse cx="251.88" cy="172.74" rx="47.66" ry="56.37" transform="translate(-12.73 325.28) rotate(-64.4)" fill="#fff"/><ellipse cx="251.88" cy="172.74" rx="47.45" ry="56.12" transform="translate(-12.73 325.28) rotate(-64.4)" fill="#fff"/><ellipse cx="251.88" cy="172.74" rx="47.23" ry="55.86" transform="translate(-12.73 325.28) rotate(-64.4)" fill="#fff"/><ellipse cx="251.88" cy="172.74" rx="47.01" ry="55.61" transform="translate(-12.73 325.28) rotate(-64.4)" fill="#fdffff"/><ellipse cx="251.88" cy="172.74" rx="46.8" ry="55.35" transform="translate(-12.73 325.28) rotate(-64.4)" fill="#fdfdff"/><ellipse cx="251.88" cy="172.74" rx="46.58" ry="55.09" transform="translate(-12.73 325.28) rotate(-64.4)" fill="#fdfdff"/><ellipse cx="251.88" cy="172.74" rx="46.36" ry="54.84" transform="translate(-12.73 325.28) rotate(-64.4)" fill="#fdfdff"/><ellipse cx="251.88" cy="172.74" rx="46.15" ry="54.58" transform="translate(-12.73 325.28) rotate(-64.4)" fill="#fdfdff"/><ellipse cx="251.88" cy="172.74" rx="45.93" ry="54.32" transform="translate(-12.73 325.28) rotate(-64.4)" fill="#fdfdff"/><ellipse cx="251.88" cy="172.74" rx="45.71" ry="54.07" transform="translate(-12.73 325.28) rotate(-64.4)" fill="#fdfdff"/><ellipse cx="251.88" cy="172.74" rx="45.5" ry="53.81" transform="translate(-12.73 325.28) rotate(-64.4)" fill="#fdfdff"/><ellipse cx="251.88" cy="172.74" rx="45.28" ry="53.56" transform="translate(-12.73 325.28) rotate(-64.4)" fill="#fdfdff"/><ellipse cx="251.88" cy="172.74" rx="45.06" ry="53.3" transform="translate(-12.73 325.28) rotate(-64.4)" fill="#fdfdff"/><ellipse cx="251.88" cy="172.74" rx="44.85" ry="53.04" transform="translate(-12.73 325.28) rotate(-64.4)" fill="#fdfdff"/><ellipse cx="251.88" cy="172.74" rx="44.63" ry="52.79" transform="translate(-12.73 325.28) rotate(-64.4)" fill="#fcfdff"/><ellipse cx="251.88" cy="172.74" rx="44.41" ry="52.53" transform="translate(-12.73 325.28) rotate(-64.4)" fill="#fcfcff"/><ellipse cx="251.88" cy="172.74" rx="44.2" ry="52.27" transform="translate(-12.73 325.28) rotate(-64.4)" fill="#fcfcff"/><ellipse cx="251.88" cy="172.74" rx="43.98" ry="52.02" transform="translate(-12.73 325.28) rotate(-64.4)" fill="#fcfcfd"/><ellipse cx="251.88" cy="172.74" rx="43.76" ry="51.76" transform="translate(-12.73 325.28) rotate(-64.4)" fill="#fcfcfd"/><ellipse cx="251.88" cy="172.74" rx="43.55" ry="51.51" transform="translate(-12.73 325.28) rotate(-64.4)" fill="#fcfcfd"/><ellipse cx="251.88" cy="172.74" rx="43.33" ry="51.25" transform="translate(-12.73 325.28) rotate(-64.4)" fill="#fcfcfd"/><ellipse cx="251.88" cy="172.74" rx="43.11" ry="50.99" transform="translate(-12.73 325.28) rotate(-64.4)" fill="#fbfcfd"/><ellipse cx="251.88" cy="172.74" rx="42.9" ry="50.74" transform="translate(-12.73 325.28) rotate(-64.4)" fill="#fbfbfd"/><ellipse cx="251.88" cy="172.74" rx="42.68" ry="50.48" transform="translate(-12.73 325.28) rotate(-64.4)" fill="#fbfbfd"/><ellipse cx="251.88" cy="172.74" rx="42.46" ry="50.22" transform="translate(-12.73 325.28) rotate(-64.4)" fill="#fbfbfd"/><ellipse cx="251.88" cy="172.74" rx="42.25" ry="49.97" transform="translate(-12.73 325.28) rotate(-64.4)" fill="#fbfbfd"/><ellipse cx="251.88" cy="172.74" rx="42.03" ry="49.71" transform="translate(-12.73 325.28) rotate(-64.4)" fill="#fbfbfd"/><ellipse cx="251.88" cy="172.74" rx="41.81" ry="49.46" transform="translate(-12.73 325.28) rotate(-64.4)" fill="#fafbfd"/><ellipse cx="251.88" cy="172.74" rx="41.6" ry="49.2" transform="translate(-12.73 325.28) rotate(-64.4)" fill="#fafafd"/><ellipse cx="251.88" cy="172.74" rx="41.38" ry="48.94" transform="translate(-12.73 325.28) rotate(-64.4)" fill="#fafafd"/><ellipse cx="251.88" cy="172.74" rx="41.16" ry="48.69" transform="translate(-12.73 325.28) rotate(-64.4)" fill="#fafafd"/><ellipse cx="251.88" cy="172.74" rx="40.95" ry="48.43" transform="translate(-12.73 325.28) rotate(-64.4)" fill="#f9fafd"/><ellipse cx="251.88" cy="172.74" rx="40.73" ry="48.17" transform="translate(-12.73 325.28) rotate(-64.4)" fill="#f9f9fd"/><ellipse cx="251.88" cy="172.74" rx="40.51" ry="47.92" transform="translate(-12.73 325.28) rotate(-64.4)" fill="#f9f9fd"/><ellipse cx="251.88" cy="172.74" rx="40.3" ry="47.66" transform="translate(-12.73 325.28) rotate(-64.4)" fill="#f9f9fd"/><ellipse cx="251.88" cy="172.74" rx="40.08" ry="47.41" transform="translate(-12.73 325.28) rotate(-64.4)" fill="#f8f9fc"/><ellipse cx="251.88" cy="172.74" rx="39.86" ry="47.15" transform="translate(-12.73 325.28) rotate(-64.4)" fill="#f8f9fc"/><ellipse cx="251.88" cy="172.74" rx="39.65" ry="46.89" transform="translate(-12.73 325.28) rotate(-64.4)" fill="#f8f8fc"/><ellipse cx="251.88" cy="172.74" rx="39.43" ry="46.64" transform="translate(-12.73 325.28) rotate(-64.4)" fill="#f8f8fc"/><ellipse cx="251.88" cy="172.74" rx="39.21" ry="46.38" transform="matrix(0.43, -0.9, 0.9, 0.43, -12.73, 325.28)" fill="#f7f8fc"/><ellipse cx="251.88" cy="172.74" rx="39" ry="46.12" transform="translate(-12.73 325.28) rotate(-64.4)" fill="#f7f7fc"/><ellipse cx="251.88" cy="172.74" rx="38.78" ry="45.87" transform="translate(-12.73 325.28) rotate(-64.4)" fill="#f7f7fc"/><ellipse cx="251.88" cy="172.74" rx="38.56" ry="45.61" transform="translate(-12.73 325.28) rotate(-64.4)" fill="#f6f7fc"/><ellipse cx="251.88" cy="172.74" rx="38.35" ry="45.36" transform="translate(-12.73 325.28) rotate(-64.4)" fill="#f6f7fc"/><ellipse cx="251.88" cy="172.74" rx="38.13" ry="45.1" transform="translate(-12.73 325.28) rotate(-64.4)" fill="#f6f6fc"/><ellipse cx="251.88" cy="172.74" rx="37.91" ry="44.84" transform="translate(-12.73 325.28) rotate(-64.4)" fill="#f5f6fc"/><ellipse cx="251.88" cy="172.74" rx="37.7" ry="44.59" transform="translate(-12.73 325.28) rotate(-64.4)" fill="#f5f6fc"/><ellipse cx="251.88" cy="172.74" rx="37.48" ry="44.33" transform="translate(-12.73 325.28) rotate(-64.4)" fill="#f5f5fb"/><ellipse cx="251.88" cy="172.74" rx="37.26" ry="44.07" transform="translate(-12.73 325.28) rotate(-64.4)" fill="#f4f5fb"/><ellipse cx="251.88" cy="172.74" rx="37.05" ry="43.82" transform="translate(-12.73 325.28) rotate(-64.4)" fill="#f4f5fb"/><ellipse cx="251.88" cy="172.74" rx="36.83" ry="43.56" transform="translate(-12.73 325.28) rotate(-64.4)" fill="#f4f4fb"/><ellipse cx="251.88" cy="172.74" rx="36.61" ry="43.31" transform="translate(-12.73 325.28) rotate(-64.4)" fill="#f3f4fb"/><ellipse cx="251.88" cy="172.74" rx="36.4" ry="43.05" transform="translate(-12.73 325.28) rotate(-64.4)" fill="#f3f3fb"/><ellipse cx="251.88" cy="172.74" rx="36.18" ry="42.79" transform="translate(-12.73 325.28) rotate(-64.4)" fill="#f2f3fb"/><ellipse cx="251.88" cy="172.74" rx="35.96" ry="42.54" transform="translate(-12.73 325.28) rotate(-64.4)" fill="#f2f3fb"/><ellipse cx="251.88" cy="172.74" rx="35.75" ry="42.28" transform="translate(-12.73 325.28) rotate(-64.4)" fill="#f2f2fb"/><ellipse cx="251.88" cy="172.74" rx="35.53" ry="42.02" transform="translate(-12.73 325.28) rotate(-64.4)" fill="#f1f2fa"/><ellipse cx="251.88" cy="172.74" rx="35.31" ry="41.77" transform="translate(-12.73 325.28) rotate(-64.4)" fill="#f1f1fa"/><ellipse cx="251.88" cy="172.74" rx="35.1" ry="41.51" transform="translate(-12.73 325.28) rotate(-64.4)" fill="#f0f1fa"/><ellipse cx="251.88" cy="172.74" rx="34.88" ry="41.26" transform="translate(-12.73 325.28) rotate(-64.4)" fill="#f0f1fa"/><ellipse cx="251.88" cy="172.74" rx="34.66" ry="41" transform="translate(-12.73 325.28) rotate(-64.4)" fill="#eff0fb"/><ellipse cx="251.88" cy="172.74" rx="34.45" ry="40.74" transform="translate(-12.73 325.28) rotate(-64.4)" fill="#eff0fb"/><ellipse cx="251.88" cy="172.74" rx="34.23" ry="40.49" transform="translate(-12.73 325.28) rotate(-64.4)" fill="#eeeffb"/><ellipse cx="251.88" cy="172.74" rx="34.01" ry="40.23" transform="translate(-12.73 325.28) rotate(-64.4)" fill="#eeeffb"/><ellipse cx="251.88" cy="172.74" rx="33.8" ry="39.97" transform="translate(-12.73 325.28) rotate(-64.4)" fill="#edeefa"/><ellipse cx="251.88" cy="172.74" rx="33.58" ry="39.72" transform="translate(-12.73 325.28) rotate(-64.4)" fill="#edeefa"/><ellipse cx="251.88" cy="172.74" rx="33.36" ry="39.46" transform="translate(-12.73 325.28) rotate(-64.4)" fill="#eceefa"/><ellipse cx="251.88" cy="172.74" rx="33.15" ry="39.21" transform="translate(-12.73 325.28) rotate(-64.4)" fill="#eceefa"/><ellipse cx="251.88" cy="172.74" rx="32.93" ry="38.95" transform="translate(-12.73 325.28) rotate(-64.4)" fill="#ebedfa"/><ellipse cx="251.88" cy="172.74" rx="32.71" ry="38.69" transform="translate(-12.73 325.28) rotate(-64.4)" fill="#ebedfa"/><ellipse cx="251.88" cy="172.74" rx="32.5" ry="38.44" transform="translate(-12.73 325.28) rotate(-64.4)" fill="#eaecfa"/><ellipse cx="251.88" cy="172.74" rx="32.28" ry="38.18" transform="translate(-12.73 325.28) rotate(-64.4)" fill="#e9ecf9"/><ellipse cx="251.88" cy="172.74" rx="32.06" ry="37.92" transform="translate(-12.73 325.28) rotate(-64.4)" fill="#e9ebf9"/><ellipse cx="251.88" cy="172.74" rx="31.85" ry="37.67" transform="translate(-12.73 325.28) rotate(-64.4)" fill="#e8ebf9"/><ellipse cx="251.88" cy="172.74" rx="31.63" ry="37.41" transform="translate(-12.73 325.28) rotate(-64.4)" fill="#e8eaf9"/><ellipse cx="251.88" cy="172.74" rx="31.41" ry="37.16" transform="translate(-12.73 325.28) rotate(-64.4)" fill="#e7e9f9"/><ellipse cx="251.88" cy="172.74" rx="31.2" ry="36.9" transform="translate(-12.73 325.28) rotate(-64.4)" fill="#e6e9f9"/><ellipse cx="251.88" cy="172.74" rx="30.98" ry="36.64" transform="translate(-12.73 325.28) rotate(-64.4)" fill="#e6e8f8"/><ellipse cx="251.88" cy="172.74" rx="30.76" ry="36.39" transform="translate(-12.73 325.28) rotate(-64.4)" fill="#e5e8f8"/><ellipse cx="251.88" cy="172.74" rx="30.55" ry="36.13" transform="translate(-12.73 325.28) rotate(-64.4)" fill="#e5e7f8"/><ellipse cx="251.88" cy="172.74" rx="30.33" ry="35.87" transform="translate(-12.73 325.28) rotate(-64.4)" fill="#e4e6f8"/><ellipse cx="251.88" cy="172.74" rx="30.11" ry="35.62" transform="translate(-12.73 325.28) rotate(-64.4)" fill="#e3e6f8"/><ellipse cx="251.88" cy="172.74" rx="29.9" ry="35.36" transform="translate(-12.73 325.28) rotate(-64.4)" fill="#e3e5f7"/><ellipse cx="251.88" cy="172.74" rx="29.68" ry="35.11" transform="translate(-12.73 325.28) rotate(-64.4)" fill="#e2e4f7"/><ellipse cx="251.88" cy="172.74" rx="29.46" ry="34.85" transform="translate(-12.73 325.28) rotate(-64.4)" fill="#e1e4f7"/><ellipse cx="251.88" cy="172.74" rx="29.25" ry="34.59" transform="translate(-12.73 325.28) rotate(-64.4)" fill="#e0e3f7"/><ellipse cx="251.88" cy="172.74" rx="29.03" ry="34.34" transform="translate(-12.73 325.28) rotate(-64.4)" fill="#e0e2f7"/><ellipse cx="251.88" cy="172.74" rx="28.82" ry="34.08" transform="translate(-12.73 325.28) rotate(-64.4)" fill="#dfe2f6"/><ellipse cx="251.88" cy="172.74" rx="28.6" ry="33.82" transform="translate(-12.73 325.28) rotate(-64.4)" fill="#dee1f6"/><ellipse cx="251.88" cy="172.74" rx="28.38" ry="33.57" transform="translate(-12.73 325.28) rotate(-64.4)" fill="#dde0f6"/><ellipse cx="251.88" cy="172.74" rx="28.17" ry="33.31" transform="translate(-12.73 325.28) rotate(-64.4)" fill="#dde0f6"/><ellipse cx="251.88" cy="172.74" rx="27.95" ry="33.06" transform="translate(-12.73 325.28) rotate(-64.4)" fill="#dcdff6"/><ellipse cx="251.88" cy="172.74" rx="27.73" ry="32.8" transform="translate(-12.73 325.28) rotate(-64.4)" fill="#dbdef5"/><ellipse cx="251.88" cy="172.74" rx="27.52" ry="32.54" transform="translate(-12.73 325.28) rotate(-64.4)" fill="#daddf5"/><ellipse cx="251.88" cy="172.74" rx="27.3" ry="32.29" transform="matrix(0.43, -0.9, 0.9, 0.43, -12.73, 325.28)" fill="#daddf5"/><ellipse cx="251.88" cy="172.74" rx="27.08" ry="32.03" transform="translate(-12.73 325.28) rotate(-64.4)" fill="#d9dcf5"/><ellipse cx="251.88" cy="172.74" rx="26.87" ry="31.77" transform="translate(-12.73 325.28) rotate(-64.4)" fill="#d8dbf5"/><ellipse cx="251.88" cy="172.74" rx="26.65" ry="31.52" transform="translate(-12.73 325.28) rotate(-64.4)" fill="#d7daf4"/><ellipse cx="251.88" cy="172.74" rx="26.43" ry="31.26" transform="translate(-12.73 325.28) rotate(-64.4)" fill="#d6daf4"/><ellipse cx="251.88" cy="172.74" rx="26.22" ry="31.01" transform="translate(-12.73 325.28) rotate(-64.4)" fill="#d5d9f4"/><ellipse cx="251.88" cy="172.74" rx="26" ry="30.75" transform="translate(-12.73 325.28) rotate(-64.4)" fill="#d4d8f4"/><ellipse cx="251.88" cy="172.74" rx="25.78" ry="30.49" transform="translate(-12.73 325.28) rotate(-64.4)" fill="#d4d7f3"/><ellipse cx="251.88" cy="172.74" rx="25.57" ry="30.24" transform="translate(-12.73 325.28) rotate(-64.4)" fill="#d3d6f3"/><ellipse cx="251.88" cy="172.74" rx="25.35" ry="29.98" transform="translate(-12.73 325.28) rotate(-64.4)" fill="#d2d5f4"/><ellipse cx="251.88" cy="172.74" rx="25.13" ry="29.72" transform="translate(-12.73 325.28) rotate(-64.4)" fill="#d1d4f4"/><ellipse cx="251.88" cy="172.74" rx="24.92" ry="29.47" transform="translate(-12.73 325.28) rotate(-64.4)" fill="#d0d4f3"/><ellipse cx="251.88" cy="172.74" rx="24.7" ry="29.21" transform="translate(-12.73 325.28) rotate(-64.4)" fill="#cfd3f3"/><ellipse cx="251.88" cy="172.74" rx="24.48" ry="28.96" transform="translate(-12.73 325.28) rotate(-64.4)" fill="#ced2f3"/><ellipse cx="251.88" cy="172.74" rx="24.27" ry="28.7" transform="translate(-12.73 325.28) rotate(-64.4)" fill="#cdd1f3"/><ellipse cx="251.88" cy="172.74" rx="24.05" ry="28.44" transform="translate(-12.73 325.28) rotate(-64.4)" fill="#ccd0f2"/><ellipse cx="251.88" cy="172.74" rx="23.83" ry="28.19" transform="translate(-12.73 325.28) rotate(-64.4)" fill="#cbcff2"/><ellipse cx="251.88" cy="172.74" rx="23.62" ry="27.93" transform="translate(-12.73 325.28) rotate(-64.4)" fill="#cacef2"/><ellipse cx="251.88" cy="172.74" rx="23.4" ry="27.67" transform="translate(-12.73 325.28) rotate(-64.4)" fill="#c9cdf1"/><ellipse cx="251.88" cy="172.74" rx="23.18" ry="27.42" transform="translate(-12.73 325.28) rotate(-64.4)" fill="#c8ccf1"/><ellipse cx="251.88" cy="172.74" rx="22.97" ry="27.16" transform="translate(-12.73 325.28) rotate(-64.4)" fill="#c7cbf1"/><ellipse cx="251.88" cy="172.74" rx="22.75" ry="26.91" transform="translate(-12.73 325.28) rotate(-64.4)" fill="#c6caf1"/><ellipse cx="251.88" cy="172.74" rx="22.53" ry="26.65" transform="translate(-12.73 325.28) rotate(-64.4)" fill="#c5c9f0"/><ellipse cx="251.88" cy="172.74" rx="22.32" ry="26.39" transform="translate(-12.73 325.28) rotate(-64.4)" fill="#c4c8f0"/><ellipse cx="251.88" cy="172.74" rx="22.1" ry="26.14" transform="translate(-12.73 325.28) rotate(-64.4)" fill="#c3c7f0"/><ellipse cx="251.88" cy="172.74" rx="21.88" ry="25.88" transform="translate(-12.73 325.28) rotate(-64.4)" fill="#c2c6ef"/><ellipse cx="251.88" cy="172.74" rx="21.67" ry="25.62" transform="translate(-12.73 325.28) rotate(-64.4)" fill="#c0c5ef"/><ellipse cx="251.88" cy="172.74" rx="21.45" ry="25.37" transform="translate(-12.73 325.28) rotate(-64.4)" fill="#bfc4ef"/><ellipse cx="251.88" cy="172.74" rx="21.23" ry="25.11" transform="translate(-12.73 325.28) rotate(-64.4)" fill="#bec3ef"/><ellipse cx="251.88" cy="172.74" rx="21.02" ry="24.86" transform="translate(-12.73 325.28) rotate(-64.4)" fill="#bdc2ee"/><ellipse cx="251.88" cy="172.74" rx="20.8" ry="24.6" transform="translate(-12.73 325.28) rotate(-64.4)" fill="#bcc1ee"/><ellipse cx="251.88" cy="172.74" rx="20.58" ry="24.34" transform="translate(-12.73 325.28) rotate(-64.4)" fill="#bbc0ee"/><ellipse cx="251.88" cy="172.74" rx="20.37" ry="24.09" transform="translate(-12.73 325.28) rotate(-64.4)" fill="#babfed"/><ellipse cx="251.88" cy="172.74" rx="20.15" ry="23.83" transform="translate(-12.73 325.28) rotate(-64.4)" fill="#b7beed"/><ellipse cx="251.88" cy="172.74" rx="19.93" ry="23.57" transform="translate(-12.73 325.28) rotate(-64.4)" fill="#b7bced"/><ellipse cx="251.88" cy="172.74" rx="19.72" ry="23.32" transform="translate(-12.73 325.28) rotate(-64.4)" fill="#b6bbec"/><ellipse cx="251.88" cy="172.74" rx="19.5" ry="23.06" transform="translate(-12.73 325.28) rotate(-64.4)" fill="#b5baec"/><ellipse cx="251.88" cy="172.74" rx="19.28" ry="22.81" transform="translate(-12.73 325.28) rotate(-64.4)" fill="#b4b9ec"/><ellipse cx="251.88" cy="172.74" rx="19.07" ry="22.55" transform="translate(-12.73 325.28) rotate(-64.4)" fill="#b1b8eb"/><ellipse cx="251.88" cy="172.74" rx="18.85" ry="22.29" transform="translate(-12.73 325.28) rotate(-64.4)" fill="#b0b7eb"/><ellipse cx="251.88" cy="172.74" rx="18.63" ry="22.04" transform="translate(-12.73 325.28) rotate(-64.4)" fill="#b0b5ec"/><ellipse cx="251.88" cy="172.74" rx="18.42" ry="21.78" transform="translate(-12.73 325.28) rotate(-64.4)" fill="#adb4eb"/><ellipse cx="251.88" cy="172.74" rx="18.2" ry="21.52" transform="translate(-12.73 325.28) rotate(-64.4)" fill="#acb3eb"/><ellipse cx="251.88" cy="172.74" rx="17.98" ry="21.27" transform="translate(-12.73 325.28) rotate(-64.4)" fill="#abb2ea"/><ellipse cx="251.88" cy="172.74" rx="17.77" ry="21.01" transform="translate(-12.73 325.28) rotate(-64.4)" fill="#a9b1ea"/><ellipse cx="251.88" cy="172.74" rx="17.55" ry="20.76" transform="translate(-12.73 325.28) rotate(-64.4)" fill="#a8b0ea"/><ellipse cx="251.88" cy="172.74" rx="17.33" ry="20.5" transform="translate(-12.73 325.28) rotate(-64.4)" fill="#a7afe9"/><ellipse cx="251.88" cy="172.74" rx="17.12" ry="20.24" transform="translate(-12.73 325.28) rotate(-64.4)" fill="#a5aee9"/><ellipse cx="251.88" cy="172.74" rx="16.9" ry="19.99" transform="translate(-12.73 325.28) rotate(-64.4)" fill="#a4ace9"/><ellipse cx="251.88" cy="172.74" rx="16.68" ry="19.73" transform="translate(-12.73 325.28) rotate(-64.4)" fill="#a3abe8"/><ellipse cx="251.88" cy="172.74" rx="16.47" ry="19.47" transform="translate(-12.73 325.28) rotate(-64.4)" fill="#a1aae8"/><ellipse cx="251.88" cy="172.74" rx="16.25" ry="19.22" transform="translate(-12.73 325.28) rotate(-64.4)" fill="#a0a8e7"/><ellipse cx="251.88" cy="172.74" rx="16.03" ry="18.96" transform="translate(-12.73 325.28) rotate(-64.4)" fill="#9ea7e7"/><ellipse cx="251.88" cy="172.74" rx="15.82" ry="18.71" transform="translate(-12.73 325.28) rotate(-64.4)" fill="#9da6e7"/><ellipse cx="251.88" cy="172.74" rx="15.6" ry="18.45" transform="translate(-12.73 325.28) rotate(-64.4)" fill="#9ba4e6"/><ellipse cx="251.88" cy="172.74" rx="15.38" ry="18.19" transform="translate(-12.73 325.28) rotate(-64.4)" fill="#9aa2e6"/><ellipse cx="251.88" cy="172.74" rx="15.17" ry="17.94" transform="translate(-12.73 325.28) rotate(-64.4)" fill="#98a0e5"/><ellipse cx="251.88" cy="172.74" rx="14.95" ry="17.68" transform="translate(-12.73 325.28) rotate(-64.4)" fill="#979fe5"/><ellipse cx="251.88" cy="172.74" rx="14.73" ry="17.42" transform="translate(-12.73 325.28) rotate(-64.4)" fill="#949ee5"/><ellipse cx="251.88" cy="172.74" rx="14.52" ry="17.17" transform="translate(-12.73 325.28) rotate(-64.4)" fill="#949ce4"/><ellipse cx="251.88" cy="172.74" rx="14.3" ry="16.91" transform="translate(-12.73 325.28) rotate(-64.4)" fill="#919be4"/><ellipse cx="251.88" cy="172.74" rx="14.08" ry="16.66" transform="translate(-12.73 325.28) rotate(-64.4)" fill="#9199e3"/><ellipse cx="251.88" cy="172.74" rx="13.87" ry="16.4" transform="translate(-12.73 325.28) rotate(-64.4)" fill="#8e98e3"/><ellipse cx="251.88" cy="172.74" rx="13.65" ry="16.14" transform="translate(-12.73 325.28) rotate(-64.4)" fill="#8e96e2"/><ellipse cx="251.88" cy="172.74" rx="13.43" ry="15.89" transform="translate(-12.73 325.28) rotate(-64.4)" fill="#8b95e2"/><ellipse cx="251.88" cy="172.74" rx="13.22" ry="15.63" transform="translate(-12.73 325.28) rotate(-64.4)" fill="#8b93e2"/><ellipse cx="251.88" cy="172.74" rx="13" ry="15.37" transform="translate(-12.73 325.28) rotate(-64.4)" fill="#8892e1"/><ellipse cx="251.88" cy="172.74" rx="12.78" ry="15.12" transform="translate(-12.73 325.28) rotate(-64.4)" fill="#8690e2"/><ellipse cx="251.88" cy="172.74" rx="12.57" ry="14.86" transform="translate(-12.73 325.28) rotate(-64.4)" fill="#858fe1"/><ellipse cx="251.88" cy="172.74" rx="12.35" ry="14.61" transform="translate(-12.73 325.28) rotate(-64.4)" fill="#838de1"/><ellipse cx="251.88" cy="172.74" rx="12.13" ry="14.35" transform="translate(-12.73 325.28) rotate(-64.4)" fill="#818ce0"/><ellipse cx="251.88" cy="172.74" rx="11.92" ry="14.09" transform="translate(-12.73 325.28) rotate(-64.4)" fill="#808ae0"/><ellipse cx="251.88" cy="172.74" rx="11.7" ry="13.84" transform="translate(-12.73 325.28) rotate(-64.4)" fill="#7f88df"/><ellipse cx="251.88" cy="172.74" rx="11.48" ry="13.58" transform="translate(-12.73 325.28) rotate(-64.4)" fill="#7d87df"/><ellipse cx="251.88" cy="172.74" rx="11.27" ry="13.32" transform="translate(-12.73 325.28) rotate(-64.4)" fill="#7a85de"/><ellipse cx="251.88" cy="172.74" rx="11.05" ry="13.07" transform="translate(-12.73 325.28) rotate(-64.4)" fill="#7a83de"/><ellipse cx="251.88" cy="172.74" rx="10.83" ry="12.81" transform="translate(-12.73 325.28) rotate(-64.4)" fill="#7782de"/><ellipse cx="251.88" cy="172.74" rx="10.62" ry="12.56" transform="translate(-12.73 325.28) rotate(-64.4)" fill="#7580dd"/><ellipse cx="251.88" cy="172.74" rx="10.4" ry="12.3" transform="translate(-12.73 325.28) rotate(-64.4)" fill="#737fdd"/><ellipse cx="251.88" cy="172.74" rx="10.18" ry="12.04" transform="translate(-12.73 325.28) rotate(-64.4)" fill="#727edc"/><ellipse cx="251.88" cy="172.74" rx="9.97" ry="11.79" transform="translate(-12.73 325.28) rotate(-64.4)" fill="#707cdc"/><ellipse cx="251.88" cy="172.74" rx="9.75" ry="11.53" transform="translate(-12.73 325.28) rotate(-64.4)" fill="#6e7adb"/><ellipse cx="251.88" cy="172.74" rx="9.53" ry="11.27" transform="translate(-12.73 325.28) rotate(-64.4)" fill="#6c79db"/><ellipse cx="251.88" cy="172.74" rx="9.32" ry="11.02" transform="translate(-12.73 325.28) rotate(-64.4)" fill="#6977da"/><ellipse cx="251.88" cy="172.74" rx="9.1" ry="10.76" transform="translate(-12.73 325.28) rotate(-64.4)" fill="#6775da"/><ellipse cx="251.88" cy="172.74" rx="8.88" ry="10.51" transform="translate(-12.73 325.28) rotate(-64.4)" fill="#6573d9"/><ellipse cx="251.88" cy="172.74" rx="8.67" ry="10.25" transform="translate(-12.73 325.28) rotate(-64.4)" fill="#6472d8"/><ellipse cx="251.88" cy="172.74" rx="8.45" ry="9.99" transform="translate(-12.73 325.28) rotate(-64.4)" fill="#6270d8"/><ellipse cx="251.88" cy="172.74" rx="8.23" ry="9.74" transform="translate(-12.73 325.28) rotate(-64.4)" fill="#606dd7"/><ellipse cx="251.88" cy="172.74" rx="8.02" ry="9.48" transform="translate(-12.73 325.28) rotate(-64.4)" fill="#5e6bd7"/><ellipse cx="251.88" cy="172.74" rx="7.8" ry="9.22" transform="translate(-12.73 325.28) rotate(-64.4)" fill="#5c69d6"/><ellipse cx="251.88" cy="172.74" rx="7.58" ry="8.97" transform="translate(-12.73 325.28) rotate(-64.4)" fill="#5a67d6"/><ellipse cx="251.88" cy="172.74" rx="7.37" ry="8.71" transform="translate(-12.73 325.28) rotate(-64.4)" fill="#5766d5"/><ellipse cx="251.88" cy="172.74" rx="7.15" ry="8.46" transform="translate(-12.73 325.28) rotate(-64.4)" fill="#5564d5"/><ellipse cx="251.88" cy="172.74" rx="6.93" ry="8.2" transform="translate(-12.73 325.28) rotate(-64.4)" fill="#5362d4"/><ellipse cx="251.88" cy="172.74" rx="6.72" ry="7.94" transform="translate(-12.73 325.28) rotate(-64.4)" fill="#5160d4"/><ellipse cx="251.88" cy="172.74" rx="6.5" ry="7.69" transform="translate(-12.73 325.28) rotate(-64.4)" fill="#4f5ed3"/><ellipse cx="251.88" cy="172.74" rx="6.28" ry="7.43" transform="translate(-12.73 325.28) rotate(-64.4)" fill="#4c5cd2"/><ellipse cx="251.88" cy="172.74" rx="6.07" ry="7.17" transform="translate(-12.73 325.28) rotate(-64.4)" fill="#4a5ad3"/><ellipse cx="251.88" cy="172.74" rx="5.85" ry="6.92" transform="translate(-12.73 325.28) rotate(-64.4)" fill="#4857d2"/><ellipse cx="251.88" cy="172.74" rx="5.63" ry="6.66" transform="translate(-12.73 325.28) rotate(-64.4)" fill="#4455d2"/><ellipse cx="251.88" cy="172.74" rx="5.42" ry="6.41" transform="translate(-12.73 325.28) rotate(-64.4)" fill="#4253d1"/><ellipse cx="251.88" cy="172.74" rx="5.2" ry="6.15" transform="translate(-12.73 325.28) rotate(-64.4)" fill="#4051d1"/><ellipse cx="251.88" cy="172.74" rx="4.98" ry="5.89" transform="translate(-12.73 325.28) rotate(-64.4)" fill="#3e4fd0"/><ellipse cx="251.88" cy="172.74" rx="4.77" ry="5.64" transform="translate(-12.73 325.28) rotate(-64.4)" fill="#3c4dcf"/><ellipse cx="251.88" cy="172.74" rx="4.55" ry="5.38" transform="translate(-12.73 325.28) rotate(-64.4)" fill="#394bcf"/><ellipse cx="251.88" cy="172.74" rx="4.33" ry="5.12" transform="translate(-12.73 325.28) rotate(-64.4)" fill="#3749ce"/><ellipse cx="251.88" cy="172.74" rx="4.12" ry="4.87" transform="translate(-12.73 325.28) rotate(-64.4)" fill="#3346ce"/><ellipse cx="251.88" cy="172.74" rx="3.9" ry="4.61" transform="translate(-12.73 325.28) rotate(-64.4)" fill="#3144cd"/><ellipse cx="251.88" cy="172.74" rx="3.68" ry="4.36" transform="translate(-12.73 325.28) rotate(-64.4)" fill="#2f42cc"/><ellipse cx="251.88" cy="172.74" rx="3.47" ry="4.1" transform="translate(-12.73 325.28) rotate(-64.4)" fill="#2c40cc"/><ellipse cx="251.88" cy="172.74" rx="3.25" ry="3.84" transform="translate(-12.73 325.28) rotate(-64.4)" fill="#293dcb"/><ellipse cx="251.88" cy="172.74" rx="3.03" ry="3.59" transform="translate(-12.73 325.28) rotate(-64.4)" fill="#273bcb"/><ellipse cx="251.88" cy="172.74" rx="2.82" ry="3.33" transform="translate(-12.73 325.28) rotate(-64.4)" fill="#2438ca"/><ellipse cx="251.88" cy="172.74" rx="2.6" ry="3.07" transform="translate(-12.73 325.28) rotate(-64.4)" fill="#2036c9"/><ellipse cx="251.88" cy="172.74" rx="2.38" ry="2.82" transform="translate(-12.73 325.28) rotate(-64.4)" fill="#1e34c9"/><ellipse cx="251.88" cy="172.74" rx="2.17" ry="2.56" transform="translate(-12.73 325.28) rotate(-64.4)" fill="#1b32c8"/><ellipse cx="251.88" cy="172.74" rx="1.95" ry="2.31" transform="translate(-12.73 325.28) rotate(-64.4)" fill="#182ec7"/><ellipse cx="251.88" cy="172.74" rx="1.73" ry="2.05" transform="translate(-12.73 325.28) rotate(-64.4)" fill="#152cc7"/><ellipse cx="251.88" cy="172.74" rx="1.52" ry="1.79" transform="translate(-12.73 325.28) rotate(-64.4)" fill="#132ac6"/><ellipse cx="251.88" cy="172.74" rx="1.3" ry="1.54" transform="translate(-12.73 325.28) rotate(-64.4)" fill="#0e28c5"/><ellipse cx="251.88" cy="172.74" rx="1.08" ry="1.28" transform="translate(-12.73 325.28) rotate(-64.4)" fill="#0c24c5"/><ellipse cx="251.88" cy="172.74" rx="0.87" ry="1.02" transform="translate(-12.73 325.28) rotate(-64.4)" fill="#0722c4"/><ellipse cx="251.88" cy="172.74" rx="0.65" ry="0.77" transform="translate(-12.73 325.28) rotate(-64.4)" fill="#0420c3"/><ellipse cx="251.88" cy="172.74" rx="0.43" ry="0.51" transform="translate(-12.73 325.28) rotate(-64.4)" fill="#011cc3"/><ellipse cx="251.88" cy="172.74" rx="0.22" ry="0.26" transform="translate(-12.73 325.28) rotate(-64.4)" fill="#001ac2"/></g></g><path d="M1140.39,95.85v23.52a9.49,9.49,0,0,0-.39,1.8,114.86,114.86,0,0,1-2.4,19.73c-7.23,37.5-25.55,68.63-54.29,93.62-26.49,23-57.41,37.13-91.63,44.18-16.59,3.42-33.28,6.34-49.89,9.62a527.89,527.89,0,0,0-52.58,13,308.61,308.61,0,0,0-53.48,21.63,245.37,245.37,0,0,0-69.61,54.28c-10.68,12-20.57,24.5-28.54,38.46-8.27,14.5-14.59,29.87-20.05,45.59-5.87,16.91-11.43,33.92-17.29,50.83-5.11,14.74-11,29.17-18.68,42.8-6.92,12.28-15.18,23.52-25.81,32.86a106.69,106.69,0,0,1-57.4,26.14c-1.88.25-3.76.57-5.64.86H573a6.31,6.31,0,0,0-1.3-.41,178.85,178.85,0,0,1-32.07-5.6,268.68,268.68,0,0,1-63.41-26.21,344.57,344.57,0,0,1-100.53-85.29c-22.78-28.39-40.33-59.66-51.43-94.44a239.28,239.28,0,0,1-9.36-40.84c-1.07-8-1.53-16.06-2.3-24.09-.18-2-.47-3.9-.72-5.84V321.93c.25-1.95.62-3.89.71-5.85a261.31,261.31,0,0,1,5.09-40.39,214.26,214.26,0,0,1,17.91-53.24c13.75-27.47,33.74-49.34,59.45-66.07,19.23-12.51,40.09-21.53,61.79-28.7a537.08,537.08,0,0,1,73.92-18.32c18.79-3.37,37.64-6.45,56.48-9.6,16.15-2.7,32.27-5.61,48.25-9.23,18.33-4.16,36.39-9.24,53.86-16.28,18.27-7.36,35.41-16.7,50.73-29.19a299.9,299.9,0,0,0,32-30.36c11.42-12.53,22.59-25.28,33.83-38,10.56-11.91,21.32-23.63,33.16-34.3,13.62-12.28,28.46-22.76,45.23-30.34,19.19-8.67,39.44-12.81,60.35-14.12.77,0,1.54-.25,2.3-.37h14.4c.61.12,1.2.3,1.81.37,6,.66,11.94,1.08,17.86,2a161.91,161.91,0,0,1,66,26.41,196.09,196.09,0,0,1,48.84,47.7,235.47,235.47,0,0,1,37.74,80.5c3.36,13,5.91,26.19,6.4,39.68A8.12,8.12,0,0,0,1140.39,95.85Z" fill="url(#linear-gradient-3)" style="mix-blend-mode:color-dodge"/><path d="M138.69,526.62c-17.54-21.64-26.13-48.69-30.26-75.89-4.1-27-3.14-56.63,10.52-80.92,31.45-55.9,99.32-62.06,152.36-85.46,29.09-12.83,29-43.93,29.63-71.49.64-27.91,0-56,3.55-83.74,3.42-26.51,11.56-57.37,31.7-76.32,20.65-19.42,51.52-16.9,76.26-7.9,12,4.38,23.4,10.31,34.61,16.46,75.16,54.13,125.3,139.41,139.44,230.86,7.93,51.29,4.35,105.65-13.74,154.51-20.76,56.09-66.2,98.65-120.27,122.65-50.78,22.55-107.8,28.07-162.73,23.4S174.69,571.07,138.69,526.62Z" fill="url(#linear-gradient-4)"/><g opacity="0.57"><path d="M520.66,370.77c3.12,23.54-2.67,47-11.77,68.64-9,21.4-22.92,42.55-43.66,54.12-47.73,26.64-99.8.92-148.76-5.67-26.86-3.62-40.63,19-53.35,38.77-12.89,20-24.89,40.71-39.84,59.29-14.29,17.74-33.93,36.56-57,41.37-23.65,4.92-45-10.64-58.94-28.19-6.8-8.54-12.42-17.91-17.83-27.36C59,499,60.45,414.65,90.87,341.89c17.06-40.81,43.85-78.73,78.74-106.19,40-31.53,92-42.25,142-35.64,46.94,6.21,90.84,27.57,128.69,55.4S514.27,322.45,520.66,370.77Z" opacity="0.6" fill="url(#linear-gradient-5)"/></g><g style="mix-blend-mode:color-dodge"><path d="M228.63,361.53h9.12l5.66.61A117.76,117.76,0,0,1,282,372.86c22.72,10.76,40.92,26.84,55.4,47.26,5.18,7.3,10.28,14.67,15.49,21.95,10.9,15.23,22.4,30,35.72,43.21a181.77,181.77,0,0,0,73.8,45c11,3.53,22.2,6.2,33.76,6.75,9.34.45,18.71.52,28.06.5,12.24,0,24.47-.47,36.71-.46a115.94,115.94,0,0,1,32.7,4.38c21,6.16,37,18.6,47.15,38,7,13.37,10.22,27.83,11.19,42.83.09,1.33.31,2.66.47,4v18.23c-.14.93-.35,1.86-.41,2.79-.11,1.67,0,3.36-.22,5a188.92,188.92,0,0,1-3.71,23.16c-6.15,27.1-17.15,52-34.38,73.91-28,35.62-64.91,54.87-110,58.78-2.76.24-5.52.59-8.28.89h-7.2c-2.59-.3-5.18-.67-7.79-.89a116.14,116.14,0,0,1-41.58-11.42c-13.73-6.68-25.78-15.7-36.83-26.13a278.63,278.63,0,0,1-35.21-40.8c-10-14-19.54-28.27-29.23-42.46-9.55-14-19.32-27.84-30.47-40.66-15.05-17.3-32.5-31.34-53.65-40.63-13.41-5.88-27.14-10.86-40.9-15.79-12.33-4.42-24.59-9-36.34-14.88-21.83-10.89-38.84-26.76-50.53-48.23-9.71-17.81-14.56-36.7-12.9-57.09a101.39,101.39,0,0,1,10.84-38.26c13.66-26.73,34.49-46.16,61.35-59.21A105.39,105.39,0,0,1,226.55,362,13.69,13.69,0,0,0,228.63,361.53Z" fill="url(#linear-gradient-6)" style="mix-blend-mode:color-dodge"/></g><path d="M517.59-128.55h12.48c.78.13,1.55.33,2.32.38,1.6.11,3.2.1,4.8.23A206.62,206.62,0,0,1,575.83-121q26.08,7.26,52,15.16a545.68,545.68,0,0,1,60.56,21.94c16.88,7.42,33.14,15.93,47.72,27.33,7.3,5.71,14.36,11.73,21.53,17.61a83.4,83.4,0,0,0,15.27,10.32,47.7,47.7,0,0,0,28.84,4.84,71.74,71.74,0,0,0,22.62-7.58c6.47-3.31,12.74-7,19.18-10.38,5-2.59,9.92-5.2,15.09-7.29a39.35,39.35,0,0,1,28.82-.73,60.63,60.63,0,0,1,20.38,11.88,49.31,49.31,0,0,1,6.83,7.67A22.62,22.62,0,0,1,918.93-17a66,66,0,0,0,.58,7.16A82.87,82.87,0,0,0,932.1,24c6.7,10.55,15.1,19.62,24.33,28,11.07,10,23.12,18.69,35.32,27.2,11.81,8.23,23.64,16.42,35.35,24.78a103.5,103.5,0,0,1,22.32,21.61,95.18,95.18,0,0,1,19,43.48c.3,1.87.49,3.77.72,5.65v13c-.19,1.48-.35,3-.59,4.44a60.46,60.46,0,0,1-9.73,25.29c-6.1,8.81-13.75,15.75-24,19.43a74.51,74.51,0,0,1-15.37,3.61,168.64,168.64,0,0,1-26.58,1.15c-16.23-.41-32.45-1.17-48.57-3.19q-20.7-2.58-41.31-5.81c-21.4-3.34-42.75-7-64.26-9.57-11.84-1.41-23.7-2.5-35.62-2.79a122.22,122.22,0,0,0-25.56,1.7,100.44,100.44,0,0,0-39.94,17.28c-16.27,11.54-30.57,25.22-43.81,40.06S668.16,310.16,656,326.16c-12.51,16.5-24.85,33.13-37.58,49.46a364.73,364.73,0,0,1-46.26,49.89c-13.73,12.1-28.35,22.91-44.84,31-11.41,5.62-23.3,9.68-36,11-1.66.17-3.29.52-4.94.79h-6.72c-.6-.15-1.21-.34-1.82-.43-2.93-.43-5.88-.72-8.78-1.26-11.26-2.13-21.38-7-30.7-13.49a169.54,169.54,0,0,1-37-35.68c-16.58-21.4-26.84-45.4-29-72.61a26.24,26.24,0,0,0-.79-3.68v-9.6a33.24,33.24,0,0,0,.86-4.15,100.35,100.35,0,0,1,2.78-16.52c6.56-25.68,20.6-46.54,41-63.27,8.21-6.73,17.39-11.89,26.72-16.85,4.8-2.54,9.51-5.27,14.11-8.14a43.62,43.62,0,0,0,11.1-9.8,29.07,29.07,0,0,0,6.31-15c.67-5.76-.32-11.32-1.85-16.8a194.05,194.05,0,0,0-16.91-41.4c-7.73-14.07-15.84-27.94-23.9-41.83-7.66-13.2-15.27-26.43-21.52-40.38-8-17.79-13.5-36.2-14.39-55.82a115.53,115.53,0,0,1,6.25-44.33,130.09,130.09,0,0,1,32.92-50.58c22.43-21.65,49.18-33.39,80.4-34.84A14.49,14.49,0,0,0,517.59-128.55Z" fill="url(#linear-gradient-7)"/><g style="mix-blend-mode:color-dodge"><path d="M240.12,454.5c-15.6-69,15.81-111.82,64.5-152.53,41.66-34.84,95.67-63.14,118.57-111.57C446,142.12,445.64,91.75,487.56,57.83,543.76,12.35,607.38,34,643.65,78.33c50.3,61.42,27.46,135.28-25.87,176.44-44.12,34.06-91.5,67.26-107.23,140.81-11.66,54.48,20.77,116.14-25.25,159.67C433.11,604.61,269,582.07,240.12,454.5Z" fill="url(#linear-gradient-8)"/></g><ellipse cx="238.34" cy="152.75" rx="27.92" ry="27.31" transform="translate(-42.86 185.43) rotate(-39.28)" fill="url(#linear-gradient-9)"/><circle cx="282.68" cy="90.18" r="10.61" fill="url(#linear-gradient-10)"/><g opacity="0.7" style="mix-blend-mode:multiply"><g clip-path="url(#clip-path-5)"><rect x="198.21" y="250.19" width="116.59" height="132.02" transform="matrix(0.65, -0.76, 0.76, 0.65, -150.5, 304.85)" fill="#fff"/><ellipse cx="256.5" cy="316.2" rx="51.35" ry="60.73" transform="translate(-139.48 410.93) rotate(-64.4)" fill="#fff"/><ellipse cx="256.5" cy="316.2" rx="51.13" ry="60.47" transform="translate(-139.48 410.93) rotate(-64.4)" fill="#fff"/><ellipse cx="256.5" cy="316.2" rx="50.91" ry="60.22" transform="translate(-139.48 410.93) rotate(-64.4)" fill="#fff"/><ellipse cx="256.5" cy="316.2" rx="50.7" ry="59.96" transform="translate(-139.48 410.93) rotate(-64.4)" fill="#fff"/><ellipse cx="256.5" cy="316.2" rx="50.48" ry="59.71" transform="translate(-139.48 410.93) rotate(-64.4)" fill="#fff"/><ellipse cx="256.5" cy="316.2" rx="50.26" ry="59.45" transform="translate(-139.48 410.93) rotate(-64.4)" fill="#fff"/><ellipse cx="256.5" cy="316.2" rx="50.05" ry="59.19" transform="translate(-139.48 410.93) rotate(-64.4)" fill="#fff"/><ellipse cx="256.5" cy="316.2" rx="49.83" ry="58.94" transform="translate(-139.48 410.93) rotate(-64.4)" fill="#fff"/><ellipse cx="256.5" cy="316.2" rx="49.61" ry="58.68" transform="translate(-139.48 410.93) rotate(-64.4)" fill="#fff"/><ellipse cx="256.5" cy="316.2" rx="49.4" ry="58.42" transform="translate(-139.48 410.93) rotate(-64.4)" fill="#fff"/><ellipse cx="256.5" cy="316.2" rx="49.18" ry="58.17" transform="translate(-139.48 410.93) rotate(-64.4)" fill="#fff"/><ellipse cx="256.5" cy="316.2" rx="48.96" ry="57.91" transform="translate(-139.48 410.93) rotate(-64.4)" fill="#fff"/><ellipse cx="256.5" cy="316.2" rx="48.75" ry="57.66" transform="translate(-139.48 410.93) rotate(-64.4)" fill="#fff"/><ellipse cx="256.5" cy="316.2" rx="48.53" ry="57.4" transform="translate(-139.48 410.93) rotate(-64.4)" fill="#fff"/><ellipse cx="256.5" cy="316.2" rx="48.31" ry="57.14" transform="translate(-139.48 410.93) rotate(-64.4)" fill="#fff"/><ellipse cx="256.5" cy="316.2" rx="48.1" ry="56.89" transform="translate(-139.48 410.93) rotate(-64.4)" fill="#fff"/><ellipse cx="256.5" cy="316.2" rx="47.88" ry="56.63" transform="translate(-139.48 410.93) rotate(-64.4)" fill="#fff"/><ellipse cx="256.5" cy="316.2" rx="47.66" ry="56.37" transform="translate(-139.48 410.93) rotate(-64.4)" fill="#fff"/><ellipse cx="256.5" cy="316.2" rx="47.45" ry="56.12" transform="translate(-139.48 410.93) rotate(-64.4)" fill="#fff"/><ellipse cx="256.5" cy="316.2" rx="47.23" ry="55.86" transform="translate(-139.48 410.93) rotate(-64.4)" fill="#fff"/><ellipse cx="256.5" cy="316.2" rx="47.01" ry="55.61" transform="translate(-139.48 410.93) rotate(-64.4)" fill="#fdffff"/><ellipse cx="256.5" cy="316.2" rx="46.8" ry="55.35" transform="translate(-139.48 410.93) rotate(-64.4)" fill="#fdfdff"/><ellipse cx="256.5" cy="316.2" rx="46.58" ry="55.09" transform="translate(-139.48 410.93) rotate(-64.4)" fill="#fdfdff"/><ellipse cx="256.5" cy="316.2" rx="46.36" ry="54.84" transform="translate(-139.48 410.93) rotate(-64.4)" fill="#fdfdff"/><ellipse cx="256.5" cy="316.2" rx="46.15" ry="54.58" transform="translate(-139.48 410.93) rotate(-64.4)" fill="#fdfdff"/><ellipse cx="256.5" cy="316.2" rx="45.93" ry="54.32" transform="translate(-139.48 410.93) rotate(-64.4)" fill="#fdfdff"/><ellipse cx="256.5" cy="316.2" rx="45.71" ry="54.07" transform="translate(-139.48 410.93) rotate(-64.4)" fill="#fdfdff"/><ellipse cx="256.5" cy="316.2" rx="45.5" ry="53.81" transform="translate(-139.48 410.93) rotate(-64.4)" fill="#fdfdff"/><ellipse cx="256.5" cy="316.2" rx="45.28" ry="53.56" transform="translate(-139.48 410.93) rotate(-64.4)" fill="#fdfdff"/><ellipse cx="256.5" cy="316.2" rx="45.06" ry="53.3" transform="translate(-139.48 410.93) rotate(-64.4)" fill="#fdfdff"/><ellipse cx="256.5" cy="316.2" rx="44.85" ry="53.04" transform="translate(-139.48 410.93) rotate(-64.4)" fill="#fdfdff"/><ellipse cx="256.5" cy="316.2" rx="44.63" ry="52.79" transform="translate(-139.48 410.93) rotate(-64.4)" fill="#fcfdff"/><ellipse cx="256.5" cy="316.2" rx="44.41" ry="52.53" transform="translate(-139.48 410.93) rotate(-64.4)" fill="#fcfcff"/><ellipse cx="256.5" cy="316.2" rx="44.2" ry="52.27" transform="translate(-139.48 410.93) rotate(-64.4)" fill="#fcfcff"/><ellipse cx="256.5" cy="316.2" rx="43.98" ry="52.02" transform="translate(-139.48 410.93) rotate(-64.4)" fill="#fcfcfd"/><ellipse cx="256.5" cy="316.2" rx="43.76" ry="51.76" transform="translate(-139.48 410.93) rotate(-64.4)" fill="#fcfcfd"/><ellipse cx="256.5" cy="316.2" rx="43.55" ry="51.51" transform="translate(-139.48 410.93) rotate(-64.4)" fill="#fcfcfd"/><ellipse cx="256.5" cy="316.2" rx="43.33" ry="51.25" transform="translate(-139.48 410.93) rotate(-64.4)" fill="#fcfcfd"/><ellipse cx="256.5" cy="316.2" rx="43.11" ry="50.99" transform="translate(-139.48 410.93) rotate(-64.4)" fill="#fbfcfd"/><ellipse cx="256.5" cy="316.2" rx="42.9" ry="50.74" transform="translate(-139.48 410.93) rotate(-64.4)" fill="#fbfbfd"/><ellipse cx="256.5" cy="316.2" rx="42.68" ry="50.48" transform="translate(-139.48 410.93) rotate(-64.4)" fill="#fbfbfd"/><ellipse cx="256.5" cy="316.2" rx="42.46" ry="50.22" transform="translate(-139.48 410.93) rotate(-64.4)" fill="#fbfbfd"/><ellipse cx="256.5" cy="316.2" rx="42.25" ry="49.97" transform="translate(-139.48 410.93) rotate(-64.4)" fill="#fbfbfd"/><ellipse cx="256.5" cy="316.2" rx="42.03" ry="49.71" transform="translate(-139.48 410.93) rotate(-64.4)" fill="#fbfbfd"/><ellipse cx="256.5" cy="316.2" rx="41.81" ry="49.46" transform="translate(-139.48 410.93) rotate(-64.4)" fill="#fafbfd"/><ellipse cx="256.5" cy="316.2" rx="41.6" ry="49.2" transform="translate(-139.48 410.93) rotate(-64.4)" fill="#fafafd"/><ellipse cx="256.5" cy="316.2" rx="41.38" ry="48.94" transform="translate(-139.48 410.93) rotate(-64.4)" fill="#fafafd"/><ellipse cx="256.5" cy="316.2" rx="41.16" ry="48.69" transform="translate(-139.48 410.93) rotate(-64.4)" fill="#fafafd"/><ellipse cx="256.5" cy="316.2" rx="40.95" ry="48.43" transform="translate(-139.48 410.93) rotate(-64.4)" fill="#f9fafd"/><ellipse cx="256.5" cy="316.2" rx="40.73" ry="48.17" transform="translate(-139.48 410.93) rotate(-64.4)" fill="#f9f9fd"/><ellipse cx="256.5" cy="316.2" rx="40.51" ry="47.92" transform="translate(-139.48 410.93) rotate(-64.4)" fill="#f9f9fd"/><ellipse cx="256.5" cy="316.2" rx="40.3" ry="47.66" transform="translate(-139.48 410.93) rotate(-64.4)" fill="#f9f9fd"/><ellipse cx="256.5" cy="316.2" rx="40.08" ry="47.41" transform="translate(-139.48 410.93) rotate(-64.4)" fill="#f8f9fc"/><ellipse cx="256.5" cy="316.2" rx="39.86" ry="47.15" transform="translate(-139.48 410.93) rotate(-64.4)" fill="#f8f9fc"/><ellipse cx="256.5" cy="316.2" rx="39.65" ry="46.89" transform="translate(-139.48 410.93) rotate(-64.4)" fill="#f8f8fc"/><ellipse cx="256.5" cy="316.2" rx="39.43" ry="46.64" transform="translate(-139.48 410.93) rotate(-64.4)" fill="#f8f8fc"/><ellipse cx="256.5" cy="316.2" rx="39.21" ry="46.38" transform="matrix(0.43, -0.9, 0.9, 0.43, -139.48, 410.93)" fill="#f7f8fc"/><ellipse cx="256.5" cy="316.2" rx="39" ry="46.12" transform="translate(-139.48 410.93) rotate(-64.4)" fill="#f7f7fc"/><ellipse cx="256.5" cy="316.2" rx="38.78" ry="45.87" transform="translate(-139.48 410.93) rotate(-64.4)" fill="#f7f7fc"/><ellipse cx="256.5" cy="316.2" rx="38.56" ry="45.61" transform="translate(-139.48 410.93) rotate(-64.4)" fill="#f6f7fc"/><ellipse cx="256.5" cy="316.2" rx="38.35" ry="45.36" transform="translate(-139.48 410.93) rotate(-64.4)" fill="#f6f7fc"/><ellipse cx="256.5" cy="316.2" rx="38.13" ry="45.1" transform="translate(-139.48 410.93) rotate(-64.4)" fill="#f6f6fc"/><ellipse cx="256.5" cy="316.2" rx="37.91" ry="44.84" transform="translate(-139.48 410.93) rotate(-64.4)" fill="#f5f6fc"/><ellipse cx="256.5" cy="316.2" rx="37.7" ry="44.59" transform="translate(-139.48 410.93) rotate(-64.4)" fill="#f5f6fc"/><ellipse cx="256.5" cy="316.2" rx="37.48" ry="44.33" transform="translate(-139.48 410.93) rotate(-64.4)" fill="#f5f5fb"/><ellipse cx="256.5" cy="316.2" rx="37.26" ry="44.07" transform="translate(-139.48 410.93) rotate(-64.4)" fill="#f4f5fb"/><ellipse cx="256.5" cy="316.2" rx="37.05" ry="43.82" transform="translate(-139.48 410.93) rotate(-64.4)" fill="#f4f5fb"/><ellipse cx="256.5" cy="316.2" rx="36.83" ry="43.56" transform="translate(-139.48 410.93) rotate(-64.4)" fill="#f4f4fb"/><ellipse cx="256.5" cy="316.2" rx="36.61" ry="43.31" transform="translate(-139.48 410.93) rotate(-64.4)" fill="#f3f4fb"/><ellipse cx="256.5" cy="316.2" rx="36.4" ry="43.05" transform="translate(-139.48 410.93) rotate(-64.4)" fill="#f3f3fb"/><ellipse cx="256.5" cy="316.2" rx="36.18" ry="42.79" transform="translate(-139.48 410.93) rotate(-64.4)" fill="#f2f3fb"/><ellipse cx="256.5" cy="316.2" rx="35.96" ry="42.54" transform="translate(-139.48 410.93) rotate(-64.4)" fill="#f2f3fb"/><ellipse cx="256.5" cy="316.2" rx="35.75" ry="42.28" transform="translate(-139.48 410.93) rotate(-64.4)" fill="#f2f2fb"/><ellipse cx="256.5" cy="316.2" rx="35.53" ry="42.02" transform="translate(-139.48 410.93) rotate(-64.4)" fill="#f1f2fa"/><ellipse cx="256.5" cy="316.2" rx="35.31" ry="41.77" transform="translate(-139.48 410.93) rotate(-64.4)" fill="#f1f1fa"/><ellipse cx="256.5" cy="316.2" rx="35.1" ry="41.51" transform="translate(-139.48 410.93) rotate(-64.4)" fill="#f0f1fa"/><ellipse cx="256.5" cy="316.2" rx="34.88" ry="41.26" transform="translate(-139.48 410.93) rotate(-64.4)" fill="#f0f1fa"/><ellipse cx="256.5" cy="316.2" rx="34.66" ry="41" transform="translate(-139.48 410.93) rotate(-64.4)" fill="#eff0fb"/><ellipse cx="256.5" cy="316.2" rx="34.45" ry="40.74" transform="translate(-139.48 410.93) rotate(-64.4)" fill="#eff0fb"/><ellipse cx="256.5" cy="316.2" rx="34.23" ry="40.49" transform="translate(-139.48 410.93) rotate(-64.4)" fill="#eeeffb"/><ellipse cx="256.5" cy="316.2" rx="34.01" ry="40.23" transform="translate(-139.48 410.93) rotate(-64.4)" fill="#eeeffb"/><ellipse cx="256.5" cy="316.2" rx="33.8" ry="39.97" transform="translate(-139.48 410.93) rotate(-64.4)" fill="#edeefa"/><ellipse cx="256.5" cy="316.2" rx="33.58" ry="39.72" transform="translate(-139.48 410.93) rotate(-64.4)" fill="#edeefa"/><ellipse cx="256.5" cy="316.2" rx="33.36" ry="39.46" transform="translate(-139.48 410.93) rotate(-64.4)" fill="#eceefa"/><ellipse cx="256.5" cy="316.2" rx="33.15" ry="39.21" transform="translate(-139.48 410.93) rotate(-64.4)" fill="#eceefa"/><ellipse cx="256.5" cy="316.2" rx="32.93" ry="38.95" transform="translate(-139.48 410.93) rotate(-64.4)" fill="#ebedfa"/><ellipse cx="256.5" cy="316.2" rx="32.71" ry="38.69" transform="translate(-139.48 410.93) rotate(-64.4)" fill="#ebedfa"/><ellipse cx="256.5" cy="316.2" rx="32.5" ry="38.44" transform="translate(-139.48 410.93) rotate(-64.4)" fill="#eaecfa"/><ellipse cx="256.5" cy="316.2" rx="32.28" ry="38.18" transform="translate(-139.48 410.93) rotate(-64.4)" fill="#e9ecf9"/><ellipse cx="256.5" cy="316.2" rx="32.06" ry="37.92" transform="translate(-139.48 410.93) rotate(-64.4)" fill="#e9ebf9"/><ellipse cx="256.5" cy="316.2" rx="31.85" ry="37.67" transform="translate(-139.48 410.93) rotate(-64.4)" fill="#e8ebf9"/><ellipse cx="256.5" cy="316.2" rx="31.63" ry="37.41" transform="translate(-139.48 410.93) rotate(-64.4)" fill="#e8eaf9"/><ellipse cx="256.5" cy="316.2" rx="31.41" ry="37.16" transform="translate(-139.48 410.93) rotate(-64.4)" fill="#e7e9f9"/><ellipse cx="256.5" cy="316.2" rx="31.2" ry="36.9" transform="translate(-139.48 410.93) rotate(-64.4)" fill="#e6e9f9"/><ellipse cx="256.5" cy="316.2" rx="30.98" ry="36.64" transform="translate(-139.48 410.93) rotate(-64.4)" fill="#e6e8f8"/><ellipse cx="256.5" cy="316.2" rx="30.76" ry="36.39" transform="translate(-139.48 410.93) rotate(-64.4)" fill="#e5e8f8"/><ellipse cx="256.5" cy="316.2" rx="30.55" ry="36.13" transform="translate(-139.48 410.93) rotate(-64.4)" fill="#e5e7f8"/><ellipse cx="256.5" cy="316.2" rx="30.33" ry="35.87" transform="translate(-139.48 410.93) rotate(-64.4)" fill="#e4e6f8"/><ellipse cx="256.5" cy="316.2" rx="30.11" ry="35.62" transform="translate(-139.48 410.93) rotate(-64.4)" fill="#e3e6f8"/><ellipse cx="256.5" cy="316.2" rx="29.9" ry="35.36" transform="translate(-139.48 410.93) rotate(-64.4)" fill="#e3e5f7"/><ellipse cx="256.5" cy="316.2" rx="29.68" ry="35.11" transform="translate(-139.48 410.93) rotate(-64.4)" fill="#e2e4f7"/><ellipse cx="256.5" cy="316.2" rx="29.46" ry="34.85" transform="translate(-139.48 410.93) rotate(-64.4)" fill="#e1e4f7"/><ellipse cx="256.5" cy="316.2" rx="29.25" ry="34.59" transform="translate(-139.48 410.93) rotate(-64.4)" fill="#e0e3f7"/><ellipse cx="256.5" cy="316.2" rx="29.03" ry="34.34" transform="translate(-139.48 410.93) rotate(-64.4)" fill="#e0e2f7"/><ellipse cx="256.5" cy="316.2" rx="28.82" ry="34.08" transform="translate(-139.48 410.93) rotate(-64.4)" fill="#dfe2f6"/><ellipse cx="256.5" cy="316.2" rx="28.6" ry="33.82" transform="translate(-139.48 410.93) rotate(-64.4)" fill="#dee1f6"/><ellipse cx="256.5" cy="316.2" rx="28.38" ry="33.57" transform="translate(-139.48 410.93) rotate(-64.4)" fill="#dde0f6"/><ellipse cx="256.5" cy="316.2" rx="28.17" ry="33.31" transform="translate(-139.48 410.93) rotate(-64.4)" fill="#dde0f6"/><ellipse cx="256.5" cy="316.2" rx="27.95" ry="33.06" transform="translate(-139.48 410.93) rotate(-64.4)" fill="#dcdff6"/><ellipse cx="256.5" cy="316.2" rx="27.73" ry="32.8" transform="translate(-139.48 410.93) rotate(-64.4)" fill="#dbdef5"/><ellipse cx="256.5" cy="316.2" rx="27.52" ry="32.54" transform="translate(-139.48 410.93) rotate(-64.4)" fill="#daddf5"/><ellipse cx="256.5" cy="316.2" rx="27.3" ry="32.29" transform="matrix(0.43, -0.9, 0.9, 0.43, -139.48, 410.93)" fill="#daddf5"/><ellipse cx="256.5" cy="316.2" rx="27.08" ry="32.03" transform="translate(-139.48 410.93) rotate(-64.4)" fill="#d9dcf5"/><ellipse cx="256.5" cy="316.2" rx="26.87" ry="31.77" transform="translate(-139.48 410.93) rotate(-64.4)" fill="#d8dbf5"/><ellipse cx="256.5" cy="316.2" rx="26.65" ry="31.52" transform="translate(-139.48 410.93) rotate(-64.4)" fill="#d7daf4"/><ellipse cx="256.5" cy="316.2" rx="26.43" ry="31.26" transform="translate(-139.48 410.93) rotate(-64.4)" fill="#d6daf4"/><ellipse cx="256.5" cy="316.2" rx="26.22" ry="31.01" transform="translate(-139.48 410.93) rotate(-64.4)" fill="#d5d9f4"/><ellipse cx="256.5" cy="316.2" rx="26" ry="30.75" transform="translate(-139.48 410.93) rotate(-64.4)" fill="#d4d8f4"/><ellipse cx="256.5" cy="316.2" rx="25.78" ry="30.49" transform="translate(-139.48 410.93) rotate(-64.4)" fill="#d4d7f3"/><ellipse cx="256.5" cy="316.2" rx="25.57" ry="30.24" transform="translate(-139.48 410.93) rotate(-64.4)" fill="#d3d6f3"/><ellipse cx="256.5" cy="316.2" rx="25.35" ry="29.98" transform="translate(-139.48 410.93) rotate(-64.4)" fill="#d2d5f4"/><ellipse cx="256.5" cy="316.2" rx="25.13" ry="29.72" transform="translate(-139.48 410.93) rotate(-64.4)" fill="#d1d4f4"/><ellipse cx="256.5" cy="316.2" rx="24.92" ry="29.47" transform="translate(-139.48 410.93) rotate(-64.4)" fill="#d0d4f3"/><ellipse cx="256.5" cy="316.2" rx="24.7" ry="29.21" transform="translate(-139.48 410.93) rotate(-64.4)" fill="#cfd3f3"/><ellipse cx="256.5" cy="316.2" rx="24.48" ry="28.96" transform="translate(-139.48 410.93) rotate(-64.4)" fill="#ced2f3"/><ellipse cx="256.5" cy="316.2" rx="24.27" ry="28.7" transform="translate(-139.48 410.93) rotate(-64.4)" fill="#cdd1f3"/><ellipse cx="256.5" cy="316.2" rx="24.05" ry="28.44" transform="translate(-139.48 410.93) rotate(-64.4)" fill="#ccd0f2"/><ellipse cx="256.5" cy="316.2" rx="23.83" ry="28.19" transform="translate(-139.48 410.93) rotate(-64.4)" fill="#cbcff2"/><ellipse cx="256.5" cy="316.2" rx="23.62" ry="27.93" transform="translate(-139.48 410.93) rotate(-64.4)" fill="#cacef2"/><ellipse cx="256.5" cy="316.2" rx="23.4" ry="27.67" transform="translate(-139.48 410.93) rotate(-64.4)" fill="#c9cdf1"/><ellipse cx="256.5" cy="316.2" rx="23.18" ry="27.42" transform="translate(-139.48 410.93) rotate(-64.4)" fill="#c8ccf1"/><ellipse cx="256.5" cy="316.2" rx="22.97" ry="27.16" transform="translate(-139.48 410.93) rotate(-64.4)" fill="#c7cbf1"/><ellipse cx="256.5" cy="316.2" rx="22.75" ry="26.91" transform="translate(-139.48 410.93) rotate(-64.4)" fill="#c6caf1"/><ellipse cx="256.5" cy="316.2" rx="22.53" ry="26.65" transform="translate(-139.48 410.93) rotate(-64.4)" fill="#c5c9f0"/><ellipse cx="256.5" cy="316.2" rx="22.32" ry="26.39" transform="translate(-139.48 410.93) rotate(-64.4)" fill="#c4c8f0"/><ellipse cx="256.5" cy="316.2" rx="22.1" ry="26.14" transform="translate(-139.48 410.93) rotate(-64.4)" fill="#c3c7f0"/><ellipse cx="256.5" cy="316.2" rx="21.88" ry="25.88" transform="translate(-139.48 410.93) rotate(-64.4)" fill="#c2c6ef"/><ellipse cx="256.5" cy="316.2" rx="21.67" ry="25.62" transform="translate(-139.48 410.93) rotate(-64.4)" fill="#c0c5ef"/><ellipse cx="256.5" cy="316.2" rx="21.45" ry="25.37" transform="translate(-139.48 410.93) rotate(-64.4)" fill="#bfc4ef"/><ellipse cx="256.5" cy="316.2" rx="21.23" ry="25.11" transform="translate(-139.48 410.93) rotate(-64.4)" fill="#bec3ef"/><ellipse cx="256.5" cy="316.2" rx="21.02" ry="24.86" transform="translate(-139.48 410.93) rotate(-64.4)" fill="#bdc2ee"/><ellipse cx="256.5" cy="316.2" rx="20.8" ry="24.6" transform="translate(-139.48 410.93) rotate(-64.4)" fill="#bcc1ee"/><ellipse cx="256.5" cy="316.2" rx="20.58" ry="24.34" transform="translate(-139.48 410.93) rotate(-64.4)" fill="#bbc0ee"/><ellipse cx="256.5" cy="316.2" rx="20.37" ry="24.09" transform="translate(-139.48 410.93) rotate(-64.4)" fill="#babfed"/><ellipse cx="256.5" cy="316.2" rx="20.15" ry="23.83" transform="translate(-139.48 410.93) rotate(-64.4)" fill="#b7beed"/><ellipse cx="256.5" cy="316.2" rx="19.93" ry="23.57" transform="translate(-139.48 410.93) rotate(-64.4)" fill="#b7bced"/><ellipse cx="256.5" cy="316.2" rx="19.72" ry="23.32" transform="translate(-139.48 410.93) rotate(-64.4)" fill="#b6bbec"/><ellipse cx="256.5" cy="316.2" rx="19.5" ry="23.06" transform="translate(-139.48 410.93) rotate(-64.4)" fill="#b5baec"/><ellipse cx="256.5" cy="316.2" rx="19.28" ry="22.81" transform="translate(-139.48 410.93) rotate(-64.4)" fill="#b4b9ec"/><ellipse cx="256.5" cy="316.2" rx="19.07" ry="22.55" transform="translate(-139.48 410.93) rotate(-64.4)" fill="#b1b8eb"/><ellipse cx="256.5" cy="316.2" rx="18.85" ry="22.29" transform="translate(-139.48 410.93) rotate(-64.4)" fill="#b0b7eb"/><ellipse cx="256.5" cy="316.2" rx="18.63" ry="22.04" transform="translate(-139.48 410.93) rotate(-64.4)" fill="#b0b5ec"/><ellipse cx="256.5" cy="316.2" rx="18.42" ry="21.78" transform="translate(-139.48 410.93) rotate(-64.4)" fill="#adb4eb"/><ellipse cx="256.5" cy="316.2" rx="18.2" ry="21.52" transform="translate(-139.48 410.93) rotate(-64.4)" fill="#acb3eb"/><ellipse cx="256.5" cy="316.2" rx="17.98" ry="21.27" transform="translate(-139.48 410.93) rotate(-64.4)" fill="#abb2ea"/><ellipse cx="256.5" cy="316.2" rx="17.77" ry="21.01" transform="translate(-139.48 410.93) rotate(-64.4)" fill="#a9b1ea"/><ellipse cx="256.5" cy="316.2" rx="17.55" ry="20.76" transform="translate(-139.48 410.93) rotate(-64.4)" fill="#a8b0ea"/><ellipse cx="256.5" cy="316.2" rx="17.33" ry="20.5" transform="translate(-139.48 410.93) rotate(-64.4)" fill="#a7afe9"/><ellipse cx="256.5" cy="316.2" rx="17.12" ry="20.24" transform="translate(-139.48 410.93) rotate(-64.4)" fill="#a5aee9"/><ellipse cx="256.5" cy="316.2" rx="16.9" ry="19.99" transform="translate(-139.48 410.93) rotate(-64.4)" fill="#a4ace9"/><ellipse cx="256.5" cy="316.2" rx="16.68" ry="19.73" transform="translate(-139.48 410.93) rotate(-64.4)" fill="#a3abe8"/><ellipse cx="256.5" cy="316.2" rx="16.47" ry="19.47" transform="translate(-139.48 410.93) rotate(-64.4)" fill="#a1aae8"/><ellipse cx="256.5" cy="316.2" rx="16.25" ry="19.22" transform="translate(-139.48 410.93) rotate(-64.4)" fill="#a0a8e7"/><ellipse cx="256.5" cy="316.2" rx="16.03" ry="18.96" transform="translate(-139.48 410.93) rotate(-64.4)" fill="#9ea7e7"/><ellipse cx="256.5" cy="316.2" rx="15.82" ry="18.71" transform="translate(-139.48 410.93) rotate(-64.4)" fill="#9da6e7"/><ellipse cx="256.5" cy="316.2" rx="15.6" ry="18.45" transform="translate(-139.48 410.93) rotate(-64.4)" fill="#9ba4e6"/><ellipse cx="256.5" cy="316.2" rx="15.38" ry="18.19" transform="translate(-139.48 410.93) rotate(-64.4)" fill="#9aa2e6"/><ellipse cx="256.5" cy="316.2" rx="15.17" ry="17.94" transform="translate(-139.48 410.93) rotate(-64.4)" fill="#98a0e5"/><ellipse cx="256.5" cy="316.2" rx="14.95" ry="17.68" transform="translate(-139.48 410.93) rotate(-64.4)" fill="#979fe5"/><ellipse cx="256.5" cy="316.2" rx="14.73" ry="17.42" transform="translate(-139.48 410.93) rotate(-64.4)" fill="#949ee5"/><ellipse cx="256.5" cy="316.2" rx="14.52" ry="17.17" transform="translate(-139.48 410.93) rotate(-64.4)" fill="#949ce4"/><ellipse cx="256.5" cy="316.2" rx="14.3" ry="16.91" transform="translate(-139.48 410.93) rotate(-64.4)" fill="#919be4"/><ellipse cx="256.5" cy="316.2" rx="14.08" ry="16.66" transform="translate(-139.48 410.93) rotate(-64.4)" fill="#9199e3"/><ellipse cx="256.5" cy="316.2" rx="13.87" ry="16.4" transform="translate(-139.48 410.93) rotate(-64.4)" fill="#8e98e3"/><ellipse cx="256.5" cy="316.2" rx="13.65" ry="16.14" transform="translate(-139.48 410.93) rotate(-64.4)" fill="#8e96e2"/><ellipse cx="256.5" cy="316.2" rx="13.43" ry="15.89" transform="translate(-139.48 410.93) rotate(-64.4)" fill="#8b95e2"/><ellipse cx="256.5" cy="316.2" rx="13.22" ry="15.63" transform="translate(-139.48 410.93) rotate(-64.4)" fill="#8b93e2"/><ellipse cx="256.5" cy="316.2" rx="13" ry="15.37" transform="translate(-139.48 410.93) rotate(-64.4)" fill="#8892e1"/><ellipse cx="256.5" cy="316.2" rx="12.78" ry="15.12" transform="translate(-139.48 410.93) rotate(-64.4)" fill="#8690e2"/><ellipse cx="256.5" cy="316.2" rx="12.57" ry="14.86" transform="translate(-139.48 410.93) rotate(-64.4)" fill="#858fe1"/><ellipse cx="256.5" cy="316.2" rx="12.35" ry="14.61" transform="translate(-139.48 410.93) rotate(-64.4)" fill="#838de1"/><ellipse cx="256.5" cy="316.2" rx="12.13" ry="14.35" transform="translate(-139.48 410.93) rotate(-64.4)" fill="#818ce0"/><ellipse cx="256.5" cy="316.2" rx="11.92" ry="14.09" transform="translate(-139.48 410.93) rotate(-64.4)" fill="#808ae0"/><ellipse cx="256.5" cy="316.2" rx="11.7" ry="13.84" transform="translate(-139.48 410.93) rotate(-64.4)" fill="#7f88df"/><ellipse cx="256.5" cy="316.2" rx="11.48" ry="13.58" transform="translate(-139.48 410.93) rotate(-64.4)" fill="#7d87df"/><ellipse cx="256.5" cy="316.2" rx="11.27" ry="13.32" transform="translate(-139.48 410.93) rotate(-64.4)" fill="#7a85de"/><ellipse cx="256.5" cy="316.2" rx="11.05" ry="13.07" transform="translate(-139.48 410.93) rotate(-64.4)" fill="#7a83de"/><ellipse cx="256.5" cy="316.2" rx="10.83" ry="12.81" transform="translate(-139.48 410.93) rotate(-64.4)" fill="#7782de"/><ellipse cx="256.5" cy="316.2" rx="10.62" ry="12.56" transform="translate(-139.48 410.93) rotate(-64.4)" fill="#7580dd"/><ellipse cx="256.5" cy="316.2" rx="10.4" ry="12.3" transform="translate(-139.48 410.93) rotate(-64.4)" fill="#737fdd"/><ellipse cx="256.5" cy="316.2" rx="10.18" ry="12.04" transform="translate(-139.48 410.93) rotate(-64.4)" fill="#727edc"/><ellipse cx="256.5" cy="316.2" rx="9.97" ry="11.79" transform="translate(-139.48 410.93) rotate(-64.4)" fill="#707cdc"/><ellipse cx="256.5" cy="316.2" rx="9.75" ry="11.53" transform="translate(-139.48 410.93) rotate(-64.4)" fill="#6e7adb"/><ellipse cx="256.5" cy="316.2" rx="9.53" ry="11.27" transform="translate(-139.48 410.93) rotate(-64.4)" fill="#6c79db"/><ellipse cx="256.5" cy="316.2" rx="9.32" ry="11.02" transform="translate(-139.48 410.93) rotate(-64.4)" fill="#6977da"/><ellipse cx="256.5" cy="316.2" rx="9.1" ry="10.76" transform="translate(-139.48 410.93) rotate(-64.4)" fill="#6775da"/><ellipse cx="256.5" cy="316.2" rx="8.88" ry="10.51" transform="translate(-139.48 410.93) rotate(-64.4)" fill="#6573d9"/><ellipse cx="256.5" cy="316.2" rx="8.67" ry="10.25" transform="translate(-139.48 410.93) rotate(-64.4)" fill="#6472d8"/><ellipse cx="256.5" cy="316.2" rx="8.45" ry="9.99" transform="translate(-139.48 410.93) rotate(-64.4)" fill="#6270d8"/><ellipse cx="256.5" cy="316.2" rx="8.23" ry="9.74" transform="translate(-139.48 410.93) rotate(-64.4)" fill="#606dd7"/><ellipse cx="256.5" cy="316.2" rx="8.02" ry="9.48" transform="translate(-139.48 410.93) rotate(-64.4)" fill="#5e6bd7"/><ellipse cx="256.5" cy="316.2" rx="7.8" ry="9.22" transform="translate(-139.48 410.93) rotate(-64.4)" fill="#5c69d6"/><ellipse cx="256.5" cy="316.2" rx="7.58" ry="8.97" transform="translate(-139.48 410.93) rotate(-64.4)" fill="#5a67d6"/><ellipse cx="256.5" cy="316.2" rx="7.37" ry="8.71" transform="translate(-139.48 410.93) rotate(-64.4)" fill="#5766d5"/><ellipse cx="256.5" cy="316.2" rx="7.15" ry="8.46" transform="translate(-139.48 410.93) rotate(-64.4)" fill="#5564d5"/><ellipse cx="256.5" cy="316.2" rx="6.93" ry="8.2" transform="translate(-139.48 410.93) rotate(-64.4)" fill="#5362d4"/><ellipse cx="256.5" cy="316.2" rx="6.72" ry="7.94" transform="translate(-139.48 410.93) rotate(-64.4)" fill="#5160d4"/><ellipse cx="256.5" cy="316.2" rx="6.5" ry="7.69" transform="translate(-139.48 410.93) rotate(-64.4)" fill="#4f5ed3"/><ellipse cx="256.5" cy="316.2" rx="6.28" ry="7.43" transform="translate(-139.48 410.93) rotate(-64.4)" fill="#4c5cd2"/><ellipse cx="256.5" cy="316.2" rx="6.07" ry="7.17" transform="translate(-139.48 410.93) rotate(-64.4)" fill="#4a5ad3"/><ellipse cx="256.5" cy="316.2" rx="5.85" ry="6.92" transform="translate(-139.48 410.93) rotate(-64.4)" fill="#4857d2"/><ellipse cx="256.5" cy="316.2" rx="5.63" ry="6.66" transform="translate(-139.48 410.93) rotate(-64.4)" fill="#4455d2"/><ellipse cx="256.5" cy="316.2" rx="5.42" ry="6.41" transform="translate(-139.48 410.93) rotate(-64.4)" fill="#4253d1"/><ellipse cx="256.5" cy="316.2" rx="5.2" ry="6.15" transform="translate(-139.48 410.93) rotate(-64.4)" fill="#4051d1"/><ellipse cx="256.5" cy="316.2" rx="4.98" ry="5.89" transform="translate(-139.48 410.93) rotate(-64.4)" fill="#3e4fd0"/><ellipse cx="256.5" cy="316.2" rx="4.77" ry="5.64" transform="translate(-139.48 410.93) rotate(-64.4)" fill="#3c4dcf"/><ellipse cx="256.5" cy="316.2" rx="4.55" ry="5.38" transform="translate(-139.48 410.93) rotate(-64.4)" fill="#394bcf"/><ellipse cx="256.5" cy="316.2" rx="4.33" ry="5.12" transform="translate(-139.48 410.93) rotate(-64.4)" fill="#3749ce"/><ellipse cx="256.5" cy="316.2" rx="4.12" ry="4.87" transform="translate(-139.48 410.93) rotate(-64.4)" fill="#3346ce"/><ellipse cx="256.5" cy="316.2" rx="3.9" ry="4.61" transform="translate(-139.48 410.93) rotate(-64.4)" fill="#3144cd"/><ellipse cx="256.5" cy="316.2" rx="3.68" ry="4.36" transform="translate(-139.48 410.93) rotate(-64.4)" fill="#2f42cc"/><ellipse cx="256.5" cy="316.2" rx="3.47" ry="4.1" transform="translate(-139.48 410.93) rotate(-64.4)" fill="#2c40cc"/><ellipse cx="256.5" cy="316.2" rx="3.25" ry="3.84" transform="translate(-139.48 410.93) rotate(-64.4)" fill="#293dcb"/><ellipse cx="256.5" cy="316.2" rx="3.03" ry="3.59" transform="translate(-139.48 410.93) rotate(-64.4)" fill="#273bcb"/><ellipse cx="256.5" cy="316.2" rx="2.82" ry="3.33" transform="translate(-139.48 410.93) rotate(-64.4)" fill="#2438ca"/><ellipse cx="256.5" cy="316.2" rx="2.6" ry="3.07" transform="translate(-139.48 410.93) rotate(-64.4)" fill="#2036c9"/><ellipse cx="256.5" cy="316.2" rx="2.38" ry="2.82" transform="translate(-139.48 410.93) rotate(-64.4)" fill="#1e34c9"/><ellipse cx="256.5" cy="316.2" rx="2.17" ry="2.56" transform="translate(-139.48 410.93) rotate(-64.4)" fill="#1b32c8"/><ellipse cx="256.5" cy="316.2" rx="1.95" ry="2.31" transform="translate(-139.48 410.93) rotate(-64.4)" fill="#182ec7"/><ellipse cx="256.5" cy="316.2" rx="1.73" ry="2.05" transform="translate(-139.48 410.93) rotate(-64.4)" fill="#152cc7"/><ellipse cx="256.5" cy="316.2" rx="1.52" ry="1.79" transform="translate(-139.48 410.93) rotate(-64.4)" fill="#132ac6"/><ellipse cx="256.5" cy="316.2" rx="1.3" ry="1.54" transform="translate(-139.48 410.93) rotate(-64.4)" fill="#0e28c5"/><ellipse cx="256.5" cy="316.2" rx="1.08" ry="1.28" transform="translate(-139.48 410.93) rotate(-64.4)" fill="#0c24c5"/><ellipse cx="256.5" cy="316.2" rx="0.87" ry="1.02" transform="translate(-139.48 410.93) rotate(-64.4)" fill="#0722c4"/><ellipse cx="256.5" cy="316.2" rx="0.65" ry="0.77" transform="translate(-139.48 410.93) rotate(-64.4)" fill="#0420c3"/><ellipse cx="256.5" cy="316.2" rx="0.43" ry="0.51" transform="translate(-139.48 410.93) rotate(-64.4)" fill="#011cc3"/><ellipse cx="256.5" cy="316.2" rx="0.22" ry="0.26" transform="translate(-139.48 410.93) rotate(-64.4)" fill="#001ac2"/></g></g><ellipse cx="234.67" cy="292.58" rx="44.68" ry="43.71" transform="translate(-140.27 282.83) rotate(-49.78)" fill="url(#linear-gradient-11)"/><g opacity="0.06"><g clip-path="url(#clip-path-6)"><polygon points="405.4 35.73 349.71 -201.65 405.4 -201.65 405.4 35.73" fill="none" stroke="#fff" stroke-miterlimit="10" stroke-width="2.63"/></g><path d="M400.63,44.64c-2.31,25.16-13.86,48.17-28.41,68.45-14.41,20.09-33.82,38.76-58.07,45.88-55.83,16.39-103.81-22.59-153.07-41-27-10.09-46.65,10.17-64.52,27.66C78.46,163.38,61.13,182,41.22,197.79c-19,15.05-43.84,29.94-68.92,29.48-25.71-.46-44.16-21.64-54.53-43.16-5-10.46-8.66-21.51-12-32.6C-108.81,68.76-87.37-18.38-38.64-86.73c27.34-38.33,64.09-71.37,106.78-91.64,49-23.28,105.46-22.15,155.78-3.49,47.25,17.52,87.78,50,120.5,87.86S405.4-7,400.63,44.64Z" fill="none" stroke="#fff" stroke-miterlimit="10" stroke-width="2.63"/></g><g opacity="0.06"><g clip-path="url(#clip-path-7)"><polygon points="382.18 547.14 415.38 688.68 382.18 688.68 382.18 547.14" fill="none" stroke="#fff" stroke-miterlimit="10" stroke-width="2.63"/><polygon points="382.18 530.48 419.29 688.68 415.38 688.68 382.18 547.14 382.18 530.48" fill="none" stroke="#fff" stroke-miterlimit="10" stroke-width="2.63"/><polygon points="896.38 496.68 840.69 259.3 896.38 259.3 896.38 496.68" fill="none" stroke="#fff" stroke-miterlimit="10" stroke-width="2.63"/></g><path d="M891.62,505.58c-2.32,25.16-13.87,48.17-28.42,68.46-14.4,20.09-33.82,38.76-58.07,45.88-55.83,16.39-103.8-22.59-153.07-41-27-10.09-46.65,10.16-64.52,27.66-18.09,17.72-35.43,36.37-55.34,52.13-19,15-43.83,29.95-68.92,29.49-25.71-.47-44.16-21.65-54.53-43.16-5-10.47-8.66-21.51-12.05-32.61-14.52-82.75,6.91-169.89,55.65-238.23,27.33-38.33,64.08-71.37,106.77-91.65,49-23.27,105.46-22.14,155.78-3.49,47.26,17.52,87.78,50.05,120.5,87.86S896.38,453.92,891.62,505.58Z" fill="none" stroke="#fff" stroke-miterlimit="10" stroke-width="2.63"/></g><g opacity="0.09"><g clip-path="url(#clip-path-8)"><polygon points="597.54 195.59 836.81 242.54 813.89 293.29 597.54 195.59" fill="none" stroke="#fff" stroke-miterlimit="10" stroke-width="2.63"/></g><path d="M591.39,187.59c-22-12.47-38.2-32.47-50.69-54.07-12.39-21.4-21.41-46.78-17.92-71.81,8-57.63,63.32-85.31,100.36-122.64,20.31-20.47,9.93-46.7,1.34-70.18-8.71-23.79-18.57-47.27-24.74-71.89-5.89-23.52-9.25-52.28,1.49-74.95,11-23.24,37.91-31.34,61.78-31.94,11.62-.29,23.17,1,34.68,2.44,81.39,20.82,152,76.22,194.22,148.76,23.68,40.69,38.67,87.78,39.58,135,1,54.24-23.23,105.23-60.94,143.41-35.42,35.85-81.74,59.4-129.67,73.65S636.51,213.19,591.39,187.59Z" fill="none" stroke="#fff" stroke-miterlimit="10" stroke-width="2.63"/></g><g opacity="0.08"><g clip-path="url(#clip-path-9)"><polygon points="262.75 232.02 36.46 141.25 68.44 95.67 262.75 232.02" fill="none" stroke="#fff" stroke-miterlimit="10" stroke-width="2.63"/></g><path d="M267.31,241c19.26,16.35,31.46,39,39.71,62.58,8.18,23.34,12.31,49.95,4.21,73.89-18.65,55.11-78.11,72-121.46,101.75-23.77,16.32-18.46,44-14.4,68.69,4.11,25,9.42,49.9,10.89,75.25,1.4,24.2-.66,53.08-15.44,73.35-15.15,20.77-43.08,23.71-66.65,19.84-11.46-1.88-22.58-5.27-33.61-8.86-76.08-35.65-135.1-103.25-163-182.39-15.68-44.39-21.62-93.45-13.7-140,9.09-53.48,42.44-99,86.6-129.51C21.89,227,71.79,212.47,121.53,207.41S227.75,207.46,267.31,241Z" fill="none" stroke="#fff" stroke-miterlimit="10" stroke-width="2.63"/></g></g></g></g></svg>