<svg width="20" height="20" viewBox="0 0 20 20" fill="none" xmlns="http://www.w3.org/2000/svg">
<path d="M7 1.75001C6.04234 1.75001 5.65082 1.75234 5.33515 1.80233C3.51661 2.09036 2.09035 3.51662 1.80232 5.33516C1.75233 5.65083 1.75 6.04234 1.75 7.00001V13C1.75 13.9577 1.75233 14.3492 1.80232 14.6649C2.09035 16.4834 3.51661 17.9097 5.33515 18.1977C5.65082 18.2477 6.04233 18.25 7 18.25H8C8.95763 18.25 9.83933 17.9342 10.5496 17.4007C10.8808 17.1519 11.3509 17.2188 11.5997 17.5499C11.8484 17.8811 11.7816 18.3513 11.4504 18.6C10.4894 19.3219 9.29358 19.75 8 19.75L6.91914 19.75C6.06715 19.7501 5.54817 19.7501 5.1005 19.6792C2.64012 19.2895 0.710478 17.3599 0.320791 14.8995C0.249887 14.4518 0.249927 13.9328 0.249996 13.0808V6.91921C0.249928 6.06718 0.249887 5.54819 0.320791 5.10051C0.710478 2.64013 2.64012 0.710485 5.1005 0.320799C5.54817 0.249897 6.06715 0.249937 6.91914 0.250004L8 0.250008C9.29359 0.250008 10.4894 0.678072 11.4504 1.39997C11.7816 1.64874 11.8484 2.11889 11.5997 2.45008C11.3509 2.78127 10.8808 2.84808 10.5496 2.59932C9.83933 2.06583 8.95763 1.75001 8 1.75001H7Z" fill="#202223"/>
<path d="M8.53403 5.41233C8.8586 5.15498 9.33034 5.20947 9.58768 5.53404C9.84503 5.85861 9.79054 6.33034 9.46597 6.58769L7.703 7.98554C6.99897 8.54376 6.51697 8.92735 6.18952 9.25001L19 9.25001C19.4142 9.25001 19.75 9.5858 19.75 10C19.75 10.4142 19.4142 10.75 19 10.75L6.18952 10.75C6.51697 11.0727 6.99897 11.4563 7.703 12.0145L9.46597 13.4123C9.79054 13.6697 9.84503 14.1414 9.58768 14.466C9.33033 14.7905 8.8586 14.845 8.53403 14.5877L6.73521 13.1614C6.06275 12.6283 5.50783 12.1883 5.11252 11.7945C4.70685 11.3904 4.37055 10.9419 4.27923 10.3687C4.25978 10.2466 4.25 10.1234 4.25 10C4.25 9.87662 4.25978 9.75345 4.27923 9.63134C4.37055 9.05817 4.70685 8.60963 5.11252 8.20552C5.50784 7.81173 6.06275 7.37176 6.73523 6.83858L8.53403 5.41233Z" fill="#202223"/>
</svg>
