<svg width="84" height="28" viewBox="0 0 84 28" fill="none" xmlns="http://www.w3.org/2000/svg">
<path d="M24.1104 0.000732422L12.2092 27.6779L12.07 27.9999H8.03964L0 7.99449H4.33598L10.1186 22.3907L19.7293 0.000732422H24.1104Z" fill="white"/>
<path d="M62.2208 0H58.332V3.88877H62.2208V0Z" fill="white"/>
<path d="M62.2208 8.55542H58.332V27.9993H62.2208V8.55542Z" fill="white"/>
<path d="M55.9981 8.55542C50.4141 8.55542 45.8873 12.9081 45.8873 18.2773V27.9993H49.9306L49.9245 18.2773C49.9268 15.0535 52.6433 12.4401 55.9961 12.4363V8.55738L55.9981 8.55542ZM74.2768 8.55542C68.9067 8.55542 64.5534 12.9081 64.5534 18.2773V27.9993H68.4379V18.2773C68.4106 16.173 69.5177 14.2168 71.336 13.1567C73.1542 12.0966 75.4023 12.0966 77.2206 13.1567C79.0388 14.2168 80.146 16.173 80.1187 18.2773L80.1099 27.9993H83.9973V18.2773C83.9973 12.9092 79.6457 8.55705 74.2768 8.55542Z" fill="white"/>
<path d="M30.3332 0H26.4445V3.88877H30.3332V0Z" fill="white"/>
<path d="M30.3332 8.55542H26.4445V27.9993H30.3332V8.55542Z" fill="white"/>
<path d="M42.2519 24.0058C38.8134 24.0019 36.0274 21.3128 36.0251 17.9955V11.9882H44.2995V7.99687H36.0251V0H31.8879V7.99687V11.9882V17.9955C31.8879 23.5184 36.5272 27.9964 42.2519 27.9991H44.332V24.0078L42.2519 24.0058Z" fill="white"/>
</svg>
