<svg width="108" height="36" viewBox="0 0 108 36" fill="none" xmlns="http://www.w3.org/2000/svg">
<path d="M31 0L15.698 35.586L15.519 36H10.337L0 10.278H5.575L13.01 28.788L25.367 0H31Z" fill="#0050FF"/>
<path d="M80 0H75V5H80V0Z" fill="#0050FF"/>
<path d="M80 11H75V36H80V11Z" fill="#0050FF"/>
<path d="M72 11C64.8203 11 59 16.5964 59 23.5V36H64.1987L64.1908 23.5C64.1937 19.3549 67.6865 15.9948 71.9974 15.9899V11.0025L72 11ZM95.5019 11C88.5973 11 83 16.5964 83 23.5V36H87.9944V23.5C87.9594 20.7944 89.3829 18.2791 91.7207 16.9161C94.0585 15.553 96.949 15.553 99.2869 16.9161C101.625 18.2791 103.048 20.7944 103.013 23.5L103.002 36H108V23.5C108 16.5979 102.405 11.0021 95.5019 11Z" fill="#0050FF"/>
<path d="M39 0H34V5H39V0Z" fill="#0050FF"/>
<path d="M39 11H34V36H39V11Z" fill="#0050FF"/>
<path d="M54.3255 30.8655C49.9044 30.8605 46.3224 27.403 46.3194 23.1378V15.4139H56.9583V10.282H46.3194V0H41V10.282V15.4139V23.1378C41 30.2388 46.9649 35.9964 54.3255 36H57V30.8681L54.3255 30.8655Z" fill="#0050FF"/>
</svg>
