<svg width="60" height="61" viewBox="0 0 60 61" fill="none" xmlns="http://www.w3.org/2000/svg">
<path d="M17.5 23.177H5V18.177H17.5V23.177ZM17.5 30.677H5V35.677H17.5V30.677ZM51.475 48.177L41.9 38.602C39.9 39.902 37.55 40.677 35 40.677C28.1 40.677 22.5 35.077 22.5 28.177C22.5 21.277 28.1 15.677 35 15.677C41.9 15.677 47.5 21.277 47.5 28.177C47.5 30.727 46.725 33.077 45.425 35.052L55 44.652L51.475 48.177ZM42.5 28.177C42.5 24.052 39.125 20.677 35 20.677C30.875 20.677 27.5 24.052 27.5 28.177C27.5 32.302 30.875 35.677 35 35.677C39.125 35.677 42.5 32.302 42.5 28.177ZM5 48.177H30V43.177H5V48.177Z" fill="#FA8750" fill-opacity="0.85"/>
</svg>
