<svg width="40" height="40" viewBox="0 0 40 40" fill="none" xmlns="http://www.w3.org/2000/svg">
<path d="M16.6667 20.0003C20.3486 20.0003 23.3333 17.0156 23.3333 13.3337C23.3333 9.65176 20.3486 6.66699 16.6667 6.66699C12.9848 6.66699 10 9.65176 10 13.3337C10 17.0156 12.9848 20.0003 16.6667 20.0003Z" fill="#6494FF"/>
<path d="M17.7833 21.7003C17.4166 21.6837 17.0499 21.667 16.6666 21.667C12.6333 21.667 8.86659 22.7837 5.64992 24.7003C4.18325 25.567 3.33325 27.2003 3.33325 28.917V33.3337H18.7666C17.4499 31.4503 16.6666 29.1503 16.6666 26.667C16.6666 24.8837 17.0833 23.217 17.7833 21.7003Z" fill="#6494FF"/>
<path d="M34.5832 26.6673C34.5832 26.3007 34.5332 25.9673 34.4832 25.6173L36.3832 23.934L34.7165 21.0507L32.2999 21.8673C31.7665 21.4173 31.1665 21.0673 30.4999 20.8173L29.9999 18.334H26.6665L26.1665 20.8173C25.4999 21.0673 24.8999 21.4173 24.3665 21.8673L21.9499 21.0507L20.2832 23.934L22.1832 25.6173C22.1332 25.9673 22.0832 26.3007 22.0832 26.6673C22.0832 27.034 22.1332 27.3673 22.1832 27.7173L20.2832 29.4007L21.9499 32.284L24.3665 31.4673C24.8999 31.9173 25.4999 32.2673 26.1665 32.5173L26.6665 35.0007H29.9999L30.4999 32.5173C31.1665 32.2673 31.7665 31.9173 32.2999 31.4673L34.7165 32.284L36.3832 29.4007L34.4832 27.7173C34.5332 27.3673 34.5832 27.034 34.5832 26.6673ZM28.3332 30.0007C26.4999 30.0007 24.9999 28.5007 24.9999 26.6673C24.9999 24.834 26.4999 23.334 28.3332 23.334C30.1665 23.334 31.6665 24.834 31.6665 26.6673C31.6665 28.5007 30.1665 30.0007 28.3332 30.0007Z" fill="#6494FF"/>
</svg>
