<svg width="36" height="37" viewBox="0 0 36 37" fill="none" xmlns="http://www.w3.org/2000/svg">
<g clip-path="url(#clip0_4024_16754)">
<path d="M24.4089 5.10645L24.3438 5.12506C24.8712 6.05964 25.828 7.46276 27.4294 9.06383C29.0309 10.6655 30.4326 11.6225 31.3273 12.1437L31.3546 12.1549C31.3627 12.1549 31.3819 12.1431 31.3925 12.1251C30.8651 11.1899 29.9076 9.78742 28.3068 8.18634C26.7059 6.58527 25.3036 5.62773 24.4089 5.10645Z" fill="#6494FF"/>
<path d="M30.9394 5.55288C27.8723 2.48601 24.4491 0.503906 22.2172 0.503906C21.4565 0.503906 20.8478 0.726071 20.4091 1.16482C19.51 2.06402 19.5342 3.70233 20.4773 5.77877C21.3361 7.66779 22.8699 9.76967 24.7959 11.6959C27.8624 14.7634 31.2862 16.7455 33.5181 16.7455C34.2788 16.7455 34.8875 16.5233 35.3262 16.0846C37.3217 14.0888 34.5549 9.16957 30.9394 5.55288ZM32.4689 12.7428C32.2374 13.1456 31.8105 13.3957 31.3551 13.3957C31.1305 13.3957 30.9046 13.3336 30.703 13.2163C29.7455 12.6584 28.2477 11.637 26.5525 9.94156C24.8574 8.24616 23.8367 6.7481 23.2782 5.79056C23.0431 5.38657 23.0387 4.90624 23.2683 4.50722C23.6139 3.90588 24.423 3.67875 25.0342 4.03434C25.9922 4.59223 27.4901 5.61432 29.1846 7.3091C30.8792 9.00388 31.9005 10.5026 32.4583 11.4595C32.6941 11.8641 32.6984 12.3438 32.4689 12.7428Z" fill="#6494FF"/>
<path d="M19.3489 6.2923C18.8103 5.10763 18.5776 4.12465 18.5286 3.30859C16.4859 5.90755 14.5724 9.24064 13.3525 12.4118C11.9198 16.1371 11.5704 19.2052 12.3026 21.3213L8.32716 25.2973C6.99994 26.6241 5.19433 27.3055 3.29626 27.1938C2.99781 27.177 2.68695 27.2006 2.38229 27.2707C1.2468 27.5301 0.345232 28.43 0.0846279 29.5631C-0.132542 30.5083 0.0827664 31.4782 0.675951 32.2223C1.13697 32.8019 1.77483 33.1891 2.48343 33.3319C2.46729 33.9748 2.69067 34.7437 3.5761 35.6162C4.15315 36.184 4.87292 36.4962 5.60385 36.4962L5.68141 36.4955C7.36789 36.444 8.68829 35.0819 8.68829 33.3586C8.66533 31.346 9.3398 29.5507 10.5864 28.304L14.8323 24.058C15.6166 24.3925 16.5461 24.5663 17.622 24.5663C22.2949 24.5663 28.8051 21.4206 33.1795 17.9696C30.6194 17.8002 27.1155 15.7684 23.9212 12.5731C21.891 10.5445 20.2678 8.31351 19.3489 6.2923ZM13.7273 23.4064L9.70774 27.4271C8.22292 28.9122 7.42001 31.0233 7.44607 33.3939C7.44607 34.4067 6.65371 35.224 5.64232 35.2544L5.60261 35.255C5.19991 35.255 4.78853 35.0688 4.4454 34.7313C3.61829 33.9171 3.6698 33.3914 3.79327 32.9223L4.00238 32.1273L3.18085 32.1435C3.1399 32.1447 3.09957 32.1491 3.10267 32.1528C2.53244 32.1528 2.00131 31.8965 1.64577 31.4497C1.28403 30.996 1.15931 30.4245 1.29333 29.8411C1.44597 29.179 1.99386 28.6323 2.65778 28.4802C2.84703 28.4374 3.03938 28.4213 3.21932 28.4325C5.46858 28.5746 7.62477 27.7548 9.20453 26.1748L12.8865 22.4923C12.8989 22.511 12.9157 22.5246 12.9281 22.5432C13.0689 22.743 13.2197 22.9336 13.3903 23.1048C13.4952 23.2103 13.6081 23.3109 13.7273 23.4064Z" fill="#6494FF"/>
</g>
<defs>
<clipPath id="clip0_4024_16754">
<rect width="36" height="36" fill="white" transform="translate(0 0.5)"/>
</clipPath>
</defs>
</svg>
