<svg width="220" height="184" viewBox="0 0 220 184" fill="none" xmlns="http://www.w3.org/2000/svg">
<g clip-path="url(#clip0_5732_88610)">
<path d="M103.335 183.961C151.32 183.961 190.219 181.972 190.219 179.519C190.219 177.065 151.32 175.076 103.335 175.076C55.3494 175.076 16.4497 177.065 16.4497 179.519C16.4497 181.972 55.3494 183.961 103.335 183.961Z" fill="#F2F2F2"/>
<path d="M154.096 42.7245H153.109V15.6874C153.109 11.5372 151.461 7.557 148.526 4.62237C145.591 1.68773 141.61 0.0390671 137.46 0.0390625H80.1733C76.0228 0.0390546 72.0422 1.6877 69.1074 4.62233C66.1725 7.55695 64.5237 11.5372 64.5237 15.6874V164.015C64.5237 168.165 66.1725 172.145 69.1073 175.08C72.0422 178.015 76.0227 179.663 80.1733 179.663H137.46C141.61 179.663 145.591 178.015 148.526 175.08C151.46 172.145 153.109 168.165 153.109 164.015V61.97H154.096L154.096 42.7245Z" fill="#3F3D56"/>
<path d="M149.778 15.7959V163.905C149.778 167.005 148.547 169.977 146.355 172.169C144.163 174.36 141.191 175.592 138.091 175.592H80.5298C77.4301 175.592 74.4573 174.36 72.2655 172.169C70.0737 169.977 68.8423 167.005 68.8423 163.905V15.7959C68.8423 12.6965 70.0737 9.72399 72.2655 7.53235C74.4573 5.34071 77.4301 4.10943 80.5298 4.10938H87.5126C87.1695 4.95248 87.0389 5.86697 87.1321 6.77242C87.2254 7.67787 87.5398 8.54652 88.0476 9.30197C88.5554 10.0574 89.2411 10.6765 90.0444 11.1048C90.8476 11.5331 91.7438 11.7574 92.6542 11.7581H125.473C126.383 11.7574 127.279 11.5331 128.083 11.1048C128.886 10.6765 129.572 10.0574 130.079 9.30195C130.587 8.54651 130.902 7.67786 130.995 6.77242C131.088 5.86697 130.958 4.95248 130.614 4.10938H138.091C141.191 4.10943 144.163 5.34071 146.355 7.53235C148.547 9.72399 149.778 12.6965 149.778 15.7959V15.7959Z" fill="white"/>
<path d="M131.235 79.6604C130.852 79.8604 130.463 80.0496 130.067 80.2281C129.707 80.391 129.341 80.544 128.969 80.6872C128.833 80.739 128.695 80.7908 128.557 80.8427C127.464 81.239 126.341 81.5485 125.2 81.7682C124.635 81.8793 124.062 81.9665 123.482 82.0298C123.003 82.0841 122.519 82.1228 122.031 82.1458C121.683 82.1631 121.334 82.1705 120.984 82.1705C119.596 82.1711 118.211 82.0414 116.847 81.783C116.492 81.7189 116.144 81.6423 115.796 81.5584C114.112 81.155 112.482 80.5535 110.94 79.7666C110.802 79.6975 110.664 79.6234 110.526 79.5518C110.321 79.4433 110.121 79.3297 109.921 79.2112C110.017 79.078 110.121 78.9472 110.227 78.8188C111.382 77.3876 112.826 76.2158 114.464 75.3798C116.102 74.5438 117.898 74.0623 119.735 73.9669C121.572 73.8714 123.408 74.164 125.124 74.8257C126.84 75.4873 128.398 76.5031 129.695 77.8069C130.145 78.2586 130.562 78.742 130.944 79.2532C131.045 79.3865 131.141 79.5222 131.235 79.6604Z" fill="#FB996A"/>
<path d="M121.477 68.8194C127.462 68.8194 132.315 63.9673 132.315 57.982C132.315 51.9966 127.462 47.1445 121.477 47.1445C115.491 47.1445 110.638 51.9966 110.638 57.982C110.638 63.9673 115.491 68.8194 121.477 68.8194Z" fill="#2F2E41"/>
<path d="M124.359 68.835C128.269 66.6983 129.705 61.7973 127.568 57.8885C125.431 53.9797 120.53 52.5431 116.621 54.6799C112.712 56.8166 111.275 61.7176 113.412 65.6264C115.549 69.5352 120.45 70.9718 124.359 68.835Z" fill="#A0616A"/>
<path d="M128.966 56.6826C127.123 57.953 124.935 58.6291 122.696 58.6202C123.495 59.1738 124.404 59.5478 125.361 59.7164C122.384 60.3548 119.308 60.3721 116.325 59.7672C115.661 59.6608 115.021 59.4411 114.433 59.1175C114.14 58.9537 113.884 58.73 113.683 58.461C113.482 58.192 113.339 57.8836 113.265 57.556C113.067 56.4235 113.949 55.3946 114.867 54.7011C116.271 53.6556 117.89 52.9353 119.607 52.5923C121.324 52.2492 123.095 52.2921 124.793 52.7177C125.902 53.0043 127.013 53.4885 127.733 54.3789C128.454 55.2694 128.667 56.6422 127.981 57.5591L128.966 56.6826Z" fill="#2F2E41"/>
<path d="M120.984 37.7441C116.139 37.7434 111.427 39.3266 107.566 42.2525C103.704 45.1783 100.906 49.2863 99.5959 53.9504C98.2863 58.6144 98.5377 63.5787 100.312 68.0866C102.086 72.5946 105.285 76.3989 109.422 78.9198L109.566 79.0037C109.684 79.0753 109.802 79.1444 109.921 79.211C110.121 79.3295 110.321 79.443 110.526 79.5516C110.664 79.6232 110.802 79.6972 110.94 79.7663C112.482 80.5533 114.112 81.1548 115.795 81.5582C116.144 81.6421 116.492 81.7186 116.847 81.7828C118.211 82.0411 119.596 82.1709 120.984 82.1703C121.334 82.1703 121.682 82.1629 122.031 82.1456C122.519 82.1234 123.003 82.0847 123.482 82.0296C124.062 81.9654 124.635 81.8782 125.2 81.768C126.341 81.5482 127.464 81.2388 128.557 80.8424C128.695 80.7906 128.833 80.7388 128.969 80.6869C129.342 80.5438 129.708 80.3908 130.067 80.2279C130.462 80.0502 130.851 79.861 131.235 79.6602C135.077 77.648 138.253 74.564 140.377 70.7824C140.387 70.7627 140.4 70.7429 140.41 70.7231C141.543 68.6898 142.347 66.4897 142.792 64.2048C143.416 60.9882 143.321 57.6734 142.515 54.4976C141.708 51.3219 140.209 48.3638 138.125 45.8351C136.041 43.3065 133.423 41.2699 130.46 39.8711C127.497 38.4723 124.261 37.746 120.984 37.7441H120.984ZM140.005 70.4344C139.985 70.4689 139.968 70.5035 139.948 70.5356C137.866 74.2614 134.735 77.2929 130.944 79.253C130.566 79.4504 130.182 79.6355 129.791 79.8083C129.468 79.9539 129.137 80.0921 128.804 80.2205C128.663 80.2748 128.52 80.3291 128.377 80.3784C127.432 80.7233 126.465 81.0004 125.481 81.2077C124.752 81.3631 124.014 81.4792 123.272 81.5557C122.815 81.6051 122.351 81.6396 121.885 81.6569C121.586 81.6693 121.285 81.6767 120.984 81.6767C119.641 81.6783 118.3 81.5535 116.98 81.304C116.177 81.1559 115.384 80.9614 114.603 80.7215C113.414 80.3543 112.259 79.8861 111.15 79.3221C111.022 79.2554 110.893 79.1888 110.767 79.1197C110.587 79.0234 110.405 78.9247 110.227 78.8186C110.094 78.7445 109.96 78.6656 109.83 78.5866C109.753 78.5422 109.677 78.4953 109.6 78.4484C105.973 76.221 103.079 72.9777 101.279 69.1209C99.4779 65.2642 98.8492 60.9637 99.4706 56.7529C100.092 52.5422 101.936 48.6065 104.774 45.4342C107.612 42.2618 111.319 39.9924 115.435 38.9075C119.551 37.8226 123.895 37.97 127.928 39.3313C131.961 40.6925 135.506 43.2079 138.122 46.5652C140.739 49.9225 142.312 53.9741 142.647 58.2173C142.981 62.4605 142.063 66.7085 140.005 70.4344H140.005Z" fill="#3F3D56"/>
<path d="M115.988 47.2931C115.871 46.067 114.369 45.3121 113.194 45.6825C112.02 46.0528 111.248 47.2356 111.015 48.4451C110.903 48.9544 110.893 49.4809 110.984 49.9943C111.076 50.5077 111.268 50.998 111.55 51.437C112.144 52.2915 113.235 52.8248 114.253 52.6079C115.414 52.3603 116.219 51.2259 116.45 50.0605C116.68 48.8952 116.451 47.6938 116.223 46.5281L115.988 47.2931Z" fill="#2F2E41"/>
<path d="M132.521 49.0451C132.405 47.8189 130.903 47.064 129.728 47.4344C128.553 47.8048 127.782 48.9876 127.549 50.197C127.436 50.7064 127.426 51.2328 127.518 51.7462C127.609 52.2597 127.801 52.7499 128.083 53.1889C128.677 54.0435 129.768 54.5768 130.786 54.3598C131.948 54.1122 132.753 52.9778 132.983 51.8125C133.213 50.6472 132.985 49.4457 132.756 48.28L132.521 49.0451Z" fill="#2F2E41"/>
<path d="M82.586 68.8356C82.4322 68.8355 82.2803 68.8033 82.1397 68.741C81.9992 68.6788 81.8732 68.5879 81.7698 68.4742L69.5215 55.1135C69.3825 54.9622 69.2136 54.8414 69.0256 54.7586C68.8375 54.6759 68.6344 54.6331 68.4289 54.6328H3.70477C2.72254 54.6317 1.78086 54.2411 1.08632 53.5466C0.391778 52.8521 0.00110279 51.9105 0 50.9284V27.5892C0.00110214 26.6071 0.391778 25.6655 1.08632 24.971C1.78086 24.2765 2.72254 23.8859 3.70477 23.8848H87.5598C88.542 23.8859 89.4837 24.2765 90.1782 24.971C90.8728 25.6655 91.2634 26.6071 91.2645 27.5892V50.9284C91.2634 51.9105 90.8728 52.8521 90.1782 53.5466C89.4837 54.2411 88.542 54.6318 87.5598 54.6329H85.1824C84.7895 54.6333 84.4127 54.7896 84.1349 55.0674C83.857 55.3453 83.7007 55.722 83.7003 56.1149V67.7233C83.7013 67.9474 83.634 68.1665 83.5075 68.3515C83.3809 68.5364 83.2011 68.6785 82.9919 68.7589C82.8625 68.8095 82.7249 68.8355 82.586 68.8356V68.8356Z" fill="white"/>
<path d="M82.586 68.8356C82.4322 68.8355 82.2803 68.8033 82.1397 68.741C81.9992 68.6788 81.8732 68.5879 81.7698 68.4742L69.5215 55.1135C69.3825 54.9622 69.2136 54.8414 69.0256 54.7586C68.8375 54.6759 68.6344 54.6331 68.4289 54.6328H3.70477C2.72254 54.6317 1.78086 54.2411 1.08632 53.5466C0.391778 52.8521 0.00110279 51.9105 0 50.9284V27.5892C0.00110214 26.6071 0.391778 25.6655 1.08632 24.971C1.78086 24.2765 2.72254 23.8859 3.70477 23.8848H87.5598C88.542 23.8859 89.4837 24.2765 90.1782 24.971C90.8728 25.6655 91.2634 26.6071 91.2645 27.5892V50.9284C91.2634 51.9105 90.8728 52.8521 90.1782 53.5466C89.4837 54.2411 88.542 54.6318 87.5598 54.6329H85.1824C84.7895 54.6333 84.4127 54.7896 84.1349 55.0674C83.857 55.3453 83.7007 55.722 83.7003 56.1149V67.7233C83.7013 67.9474 83.634 68.1665 83.5075 68.3515C83.3809 68.5364 83.2011 68.6785 82.9919 68.7589C82.8625 68.8095 82.7249 68.8355 82.586 68.8356V68.8356ZM3.70477 24.3784C2.85342 24.3794 2.03722 24.7179 1.43523 25.3199C0.833243 25.9218 0.494625 26.738 0.493664 27.5892V50.9284C0.494626 51.7797 0.833247 52.5958 1.43524 53.1977C2.03723 53.7997 2.85343 54.1383 3.70477 54.1392H68.4289C68.7028 54.1395 68.9736 54.1966 69.2243 54.3069C69.475 54.4172 69.7 54.5782 69.8853 54.7799L82.1336 68.1406C82.2177 68.2323 82.3276 68.2965 82.4488 68.3248C82.57 68.353 82.6969 68.344 82.8129 68.2989C82.9289 68.2538 83.0285 68.1747 83.0988 68.072C83.169 67.9693 83.2066 67.8477 83.2066 67.7233V56.1149C83.2072 55.5911 83.4156 55.0889 83.786 54.7186C84.1564 54.3482 84.6586 54.1398 85.1824 54.1392H87.5598C88.4111 54.1383 89.2273 53.7997 89.8293 53.1977C90.4313 52.5958 90.7699 51.7797 90.7709 50.9284V27.5892C90.7699 26.738 90.4313 25.9218 89.8293 25.3199C89.2273 24.7179 88.4111 24.3794 87.5598 24.3784H3.70477Z" fill="#3F3D56"/>
<path d="M9.08728 34.1804C10.8777 34.1804 12.3291 32.7291 12.3291 30.9388C12.3291 29.1486 10.8777 27.6973 9.08728 27.6973C7.29687 27.6973 5.84546 29.1486 5.84546 30.9388C5.84546 32.7291 7.29687 34.1804 9.08728 34.1804Z" fill="#0050FF"/>
<path d="M83.7777 48.8756H7.4869C7.25967 48.8759 7.03462 48.8314 6.82462 48.7446C6.61461 48.6579 6.42376 48.5306 6.263 48.37C6.10223 48.2094 5.97468 48.0188 5.88767 47.8089C5.80065 47.599 5.75586 47.374 5.75586 47.1468C5.75586 46.9196 5.80065 46.6946 5.88767 46.4847C5.97468 46.2748 6.10223 46.0842 6.263 45.9236C6.42376 45.763 6.61461 45.6357 6.82462 45.549C7.03462 45.4622 7.25967 45.4177 7.4869 45.418H83.7777C84.2359 45.4185 84.6751 45.6009 84.9989 45.9251C85.3227 46.2492 85.5046 46.6886 85.5046 47.1468C85.5046 47.605 85.3227 48.0444 84.9989 48.3685C84.6751 48.6927 84.2359 48.8751 83.7777 48.8756V48.8756Z" fill="#E6E6E6"/>
<path d="M58.9237 41.528H7.4869C7.25967 41.5282 7.03462 41.4837 6.82462 41.397C6.61461 41.3102 6.42376 41.1829 6.263 41.0223C6.10223 40.8618 5.97468 40.6711 5.88767 40.4612C5.80065 40.2513 5.75586 40.0264 5.75586 39.7991C5.75586 39.5719 5.80065 39.347 5.88767 39.1371C5.97468 38.9272 6.10223 38.7365 6.263 38.5759C6.42376 38.4154 6.61461 38.2881 6.82462 38.2013C7.03462 38.1146 7.25967 38.07 7.4869 38.0703H58.9237C59.3823 38.0703 59.8221 38.2525 60.1463 38.5767C60.4705 38.9009 60.6527 39.3406 60.6527 39.7991C60.6527 40.2577 60.4705 40.6974 60.1463 41.0216C59.8221 41.3458 59.3823 41.528 58.9237 41.528Z" fill="#E6E6E6"/>
<path d="M137.008 147.985C136.799 147.905 136.619 147.763 136.493 147.578C136.366 147.393 136.299 147.174 136.3 146.95V135.341C136.299 134.949 136.143 134.572 135.865 134.294C135.587 134.016 135.211 133.86 134.818 133.859H132.44C131.458 133.858 130.516 133.468 129.822 132.773C129.127 132.079 128.737 131.137 128.735 130.155V106.816C128.737 105.834 129.127 104.892 129.822 104.198C130.516 103.503 131.458 103.112 132.44 103.111H216.295C217.277 103.112 218.219 103.503 218.914 104.198C219.608 104.892 219.999 105.834 220 106.816V130.155C219.999 131.137 219.608 132.079 218.914 132.773C218.219 133.468 217.277 133.858 216.295 133.859H151.571C151.366 133.86 151.162 133.902 150.974 133.985C150.786 134.068 150.618 134.189 150.479 134.34L138.23 147.701C138.127 147.814 138.001 147.905 137.86 147.968C137.72 148.03 137.568 148.062 137.414 148.062C137.275 148.062 137.137 148.036 137.008 147.985V147.985Z" fill="white"/>
<path d="M137.008 147.985C136.799 147.905 136.619 147.763 136.493 147.578C136.366 147.393 136.299 147.174 136.3 146.95V135.341C136.299 134.949 136.143 134.572 135.865 134.294C135.587 134.016 135.211 133.86 134.818 133.859H132.44C131.458 133.858 130.516 133.468 129.822 132.773C129.127 132.079 128.737 131.137 128.735 130.155V106.816C128.737 105.834 129.127 104.892 129.822 104.198C130.516 103.503 131.458 103.112 132.44 103.111H216.295C217.277 103.112 218.219 103.503 218.914 104.198C219.608 104.892 219.999 105.834 220 106.816V130.155C219.999 131.137 219.608 132.079 218.914 132.773C218.219 133.468 217.277 133.858 216.295 133.859H151.571C151.366 133.86 151.162 133.902 150.974 133.985C150.786 134.068 150.618 134.189 150.479 134.34L138.23 147.701C138.127 147.814 138.001 147.905 137.86 147.968C137.72 148.03 137.568 148.062 137.414 148.062C137.275 148.062 137.137 148.036 137.008 147.985V147.985ZM132.44 103.605C131.589 103.606 130.773 103.945 130.171 104.546C129.569 105.148 129.23 105.965 129.229 106.816V130.155C129.23 131.006 129.569 131.822 130.171 132.424C130.773 133.026 131.589 133.365 132.44 133.366H134.818C135.341 133.366 135.844 133.575 136.214 133.945C136.584 134.316 136.793 134.818 136.793 135.341V146.95C136.793 147.074 136.831 147.196 136.901 147.299C136.971 147.401 137.071 147.48 137.187 147.525C137.303 147.571 137.43 147.58 137.551 147.551C137.672 147.523 137.782 147.459 137.866 147.367L150.115 134.006C150.3 133.805 150.525 133.644 150.776 133.533C151.026 133.423 151.297 133.366 151.571 133.366H216.295C217.147 133.365 217.963 133.026 218.565 132.424C219.167 131.822 219.505 131.006 219.506 130.155V106.816C219.505 105.965 219.167 105.148 218.565 104.546C217.963 103.945 217.147 103.606 216.295 103.605H132.44Z" fill="#3F3D56"/>
<path d="M110.871 155.212C107.432 157.413 103.448 158.614 99.3656 158.679C95.2827 158.744 91.2625 157.671 87.7554 155.579C88.3723 154.431 89.1541 153.379 90.0757 152.457C91.4977 151.028 93.2284 149.945 95.1346 149.289C97.0409 148.634 99.0721 148.424 101.072 148.676C103.072 148.928 104.988 149.635 106.672 150.742C108.356 151.85 109.764 153.329 110.787 155.066C110.814 155.113 110.844 155.162 110.871 155.212Z" fill="#FB996A"/>
<path d="M98.3483 143.409C104.374 143.409 109.259 138.524 109.259 132.499C109.259 126.474 104.374 121.59 98.3483 121.59C92.3227 121.59 87.438 126.474 87.438 132.499C87.438 138.524 92.3227 143.409 98.3483 143.409Z" fill="#2F2E41"/>
<path d="M106.467 140.196C108.618 136.261 107.172 131.328 103.236 129.177C99.3013 127.026 94.3674 128.472 92.2163 132.407C90.0651 136.341 91.5113 141.275 95.4465 143.426C99.3816 145.577 104.316 144.131 106.467 140.196Z" fill="#FFB8B8"/>
<path d="M90.8088 131.194C92.6644 132.473 94.8669 133.153 97.1205 133.144C96.3166 133.702 95.4015 134.078 94.4381 134.248C97.4344 134.89 100.531 134.908 103.535 134.299C104.202 134.192 104.846 133.971 105.439 133.645C105.734 133.48 105.991 133.255 106.194 132.984C106.396 132.713 106.54 132.403 106.614 132.073C106.814 130.933 105.925 129.897 105.002 129.199C103.589 128.147 101.959 127.422 100.231 127.076C98.5024 126.731 96.719 126.774 95.0095 127.202C93.8933 127.491 92.775 127.978 92.05 128.875C91.325 129.771 91.1102 131.153 91.801 132.076L90.8088 131.194Z" fill="#2F2E41"/>
<path d="M99.0161 158.93C93.6728 158.928 88.5092 157 84.4725 153.5C80.4358 149.999 77.7967 145.161 77.0393 139.872C76.2818 134.583 77.4568 129.198 80.3487 124.705C83.2406 120.213 87.6555 116.913 92.7836 115.412C97.9117 113.911 103.409 114.309 108.267 116.533C113.126 118.757 117.019 122.658 119.234 127.521C121.448 132.383 121.835 137.881 120.324 143.005C118.812 148.13 115.504 152.538 111.005 155.421C107.427 157.714 103.266 158.933 99.0161 158.93V158.93ZM99.0161 114.997C94.7194 114.997 90.5192 116.271 86.9465 118.657C83.3738 121.044 80.5892 124.436 78.9447 128.406C77.3003 132.375 76.8699 136.742 77.7081 140.956C78.5462 145.17 80.6152 149.04 83.6533 152.078C86.6915 155.116 90.5624 157.185 94.7765 158.023C98.9906 158.861 103.359 158.431 107.328 156.787C111.298 155.142 114.69 152.358 117.077 148.785C119.464 145.213 120.738 141.013 120.737 136.717C120.731 130.959 118.44 125.438 114.368 121.366C110.296 117.294 104.775 115.004 99.0161 114.997V114.997Z" fill="#3F3D56"/>
<path d="M139.168 113.159C140.958 113.159 142.41 111.708 142.41 109.917C142.41 108.127 140.958 106.676 139.168 106.676C137.377 106.676 135.926 108.127 135.926 109.917C135.926 111.708 137.377 113.159 139.168 113.159Z" fill="#0050FF"/>
<path d="M213.858 127.854H137.567C137.34 127.854 137.115 127.81 136.905 127.723C136.695 127.636 136.504 127.509 136.343 127.349C136.183 127.188 136.055 126.997 135.968 126.787C135.881 126.577 135.836 126.353 135.836 126.125C135.836 125.898 135.881 125.673 135.968 125.463C136.055 125.253 136.183 125.063 136.343 124.902C136.504 124.742 136.695 124.614 136.905 124.527C137.115 124.441 137.34 124.396 137.567 124.396H213.858C214.317 124.396 214.756 124.579 215.081 124.903C215.405 125.227 215.587 125.667 215.587 126.125C215.587 126.584 215.405 127.024 215.081 127.348C214.756 127.672 214.317 127.854 213.858 127.854Z" fill="#E6E6E6"/>
<path d="M189.004 120.507H137.567C137.34 120.507 137.115 120.462 136.905 120.375C136.695 120.289 136.504 120.161 136.343 120.001C136.183 119.84 136.055 119.65 135.968 119.44C135.881 119.23 135.836 119.005 135.836 118.778C135.836 118.55 135.881 118.325 135.968 118.116C136.055 117.906 136.183 117.715 136.343 117.554C136.504 117.394 136.695 117.267 136.905 117.18C137.115 117.093 137.34 117.049 137.567 117.049H189.004C189.462 117.049 189.901 117.232 190.225 117.556C190.549 117.88 190.731 118.32 190.731 118.778C190.731 119.236 190.549 119.675 190.225 119.999C189.901 120.324 189.462 120.506 189.004 120.507V120.507Z" fill="#E6E6E6"/>
<path d="M136.904 150.194C140.244 150.194 142.952 149.894 142.952 149.523C142.952 149.152 140.244 148.852 136.904 148.852C133.563 148.852 130.855 149.152 130.855 149.523C130.855 149.894 133.563 150.194 136.904 150.194Z" fill="#F2F2F2"/>
<path d="M82.8474 71.2155C86.1878 71.2155 88.8958 70.915 88.8958 70.5443C88.8958 70.1736 86.1878 69.873 82.8474 69.873C79.507 69.873 76.7991 70.1736 76.7991 70.5443C76.7991 70.915 79.507 71.2155 82.8474 71.2155Z" fill="#F2F2F2"/>
</g>
<defs>
<clipPath id="clip0_5732_88610">
<rect width="220" height="183.923" fill="white" transform="translate(0 0.0390625)"/>
</clipPath>
</defs>
</svg>
