<svg width="36" height="37" viewBox="0 0 36 37" fill="none" xmlns="http://www.w3.org/2000/svg">
<path d="M21.2548 21.065L23.3548 17.435C23.4898 17.21 23.4298 16.925 23.2348 16.76L21.0148 15.02C21.0598 14.69 21.0898 14.345 21.0898 14C21.0898 13.655 21.0598 13.31 21.0148 12.965L23.2348 11.225C23.4298 11.06 23.4898 10.775 23.3548 10.55L21.2548 6.92C21.1198 6.695 20.8498 6.605 20.6098 6.695L17.9998 7.745C17.4598 7.325 16.8748 6.98 16.2298 6.71L15.8398 3.935C15.7948 3.695 15.5698 3.5 15.3148 3.5H11.1148C10.8598 3.5 10.6348 3.695 10.5898 3.95L10.1998 6.725C9.56976 6.995 8.96976 7.34 8.42976 7.76L5.81976 6.71C5.57976 6.62 5.30976 6.71 5.17476 6.935L3.07476 10.565C2.93976 10.79 2.99976 11.075 3.19476 11.24L5.41476 12.98C5.36976 13.31 5.33976 13.655 5.33976 14C5.33976 14.345 5.36976 14.69 5.41476 15.035L3.19476 16.775C2.99976 16.94 2.93976 17.225 3.07476 17.45L5.17476 21.08C5.30976 21.305 5.57976 21.395 5.81976 21.305L8.42976 20.255C8.96976 20.675 9.55476 21.02 10.1998 21.29L10.5898 24.065C10.6348 24.305 10.8598 24.5 11.1148 24.5H15.3148C15.5698 24.5 15.7948 24.305 15.8398 24.05L16.2298 21.275C16.8598 21.005 17.4598 20.66 17.9998 20.24L20.6098 21.29C20.8498 21.38 21.1198 21.29 21.2548 21.065ZM13.2148 17C11.5648 17 10.2148 15.65 10.2148 14C10.2148 12.35 11.5648 11 13.2148 11C14.8648 11 16.2148 12.35 16.2148 14C16.2148 15.65 14.8648 17 13.2148 17Z" fill="#6494FF"/>
<path d="M32.8799 28.505L31.4399 27.395C31.4699 27.185 31.4999 26.96 31.4999 26.735C31.4999 26.51 31.4849 26.285 31.4399 26.075L32.8649 24.965C32.9849 24.86 33.0299 24.68 32.9399 24.53L31.5899 22.205C31.5149 22.055 31.3349 22.01 31.1699 22.055L29.5049 22.73C29.1599 22.46 28.7849 22.235 28.3649 22.07L28.1099 20.3C28.0949 20.12 27.9449 20 27.7949 20H25.1099C24.9449 20 24.7949 20.12 24.7799 20.285L24.5249 22.055C24.1199 22.235 23.7299 22.445 23.3849 22.715L21.7199 22.04C21.5699 21.98 21.3899 22.04 21.2999 22.19L19.9499 24.515C19.8749 24.665 19.8899 24.845 20.0249 24.95L21.4499 26.06C21.4199 26.27 21.4049 26.495 21.4049 26.72C21.4049 26.945 21.4199 27.17 21.4499 27.38L20.0249 28.49C19.9049 28.595 19.8599 28.775 19.9499 28.925L21.2999 31.25C21.3749 31.4 21.5549 31.445 21.7199 31.4L23.3849 30.725C23.7299 30.995 24.1049 31.22 24.5249 31.385L24.7799 33.155C24.8099 33.32 24.9449 33.44 25.1099 33.44H27.7949C27.9599 33.44 28.1099 33.32 28.1249 33.155L28.3799 31.385C28.7849 31.205 29.1749 30.995 29.5049 30.725L31.1849 31.4C31.3349 31.46 31.5149 31.4 31.6049 31.25L32.9549 28.925C33.0449 28.79 32.9999 28.61 32.8799 28.505ZM26.4449 28.745C25.3349 28.745 24.4199 27.845 24.4199 26.72C24.4199 25.595 25.3199 24.695 26.4449 24.695C27.5699 24.695 28.4699 25.595 28.4699 26.72C28.4699 27.845 27.5549 28.745 26.4449 28.745Z" fill="#6494FF"/>
</svg>
