<svg width="41" height="40" viewBox="0 0 41 40" fill="none" xmlns="http://www.w3.org/2000/svg">
<path d="M24.1166 22.8497L26.4499 18.8163C26.5999 18.5663 26.5333 18.2497 26.3166 18.0663L23.8499 16.133C23.8999 15.7663 23.9333 15.383 23.9333 14.9997C23.9333 14.6163 23.8999 14.233 23.8499 13.8497L26.3166 11.9163C26.5333 11.733 26.5999 11.4163 26.4499 11.1663L24.1166 7.13301C23.9666 6.88301 23.6666 6.78301 23.3999 6.88301L20.4999 8.04967C19.8999 7.58301 19.2499 7.19967 18.5333 6.89967L18.0999 3.81634C18.0499 3.54967 17.7999 3.33301 17.5166 3.33301H12.8499C12.5666 3.33301 12.3166 3.54967 12.2666 3.83301L11.8333 6.91634C11.1333 7.21634 10.4666 7.59967 9.86659 8.06634L6.96659 6.89967C6.69992 6.79967 6.39992 6.89967 6.24992 7.14967L3.91659 11.183C3.76659 11.433 3.83326 11.7497 4.04992 11.933L6.51659 13.8663C6.46659 14.233 6.43326 14.6163 6.43326 14.9997C6.43326 15.383 6.46659 15.7663 6.51659 16.1497L4.04992 18.083C3.83326 18.2663 3.76659 18.583 3.91659 18.833L6.24992 22.8663C6.39992 23.1163 6.69992 23.2163 6.96659 23.1163L9.86659 21.9497C10.4666 22.4163 11.1166 22.7997 11.8333 23.0997L12.2666 26.183C12.3166 26.4497 12.5666 26.6663 12.8499 26.6663H17.5166C17.7999 26.6663 18.0499 26.4497 18.0999 26.1663L18.5333 23.083C19.2333 22.783 19.8999 22.3997 20.4999 21.933L23.3999 23.0997C23.6666 23.1997 23.9666 23.0997 24.1166 22.8497ZM15.1833 18.333C13.3499 18.333 11.8499 16.833 11.8499 14.9997C11.8499 13.1663 13.3499 11.6663 15.1833 11.6663C17.0166 11.6663 18.5166 13.1663 18.5166 14.9997C18.5166 16.833 17.0166 18.333 15.1833 18.333Z" fill="#6494FF"/>
<path d="M37.0332 31.116L35.4332 29.8827C35.4666 29.6493 35.4999 29.3993 35.4999 29.1493C35.4999 28.8993 35.4832 28.6493 35.4332 28.416L37.0166 27.1827C37.1499 27.066 37.1999 26.866 37.0999 26.6993L35.5999 24.116C35.5166 23.9493 35.3166 23.8993 35.1332 23.9493L33.2832 24.6993C32.8999 24.3993 32.4832 24.1493 32.0166 23.966L31.7332 21.9993C31.7166 21.7993 31.5499 21.666 31.3832 21.666H28.3999C28.2166 21.666 28.0499 21.7993 28.0332 21.9827L27.7499 23.9493C27.2999 24.1493 26.8666 24.3827 26.4832 24.6827L24.6332 23.9327C24.4666 23.866 24.2666 23.9327 24.1666 24.0993L22.6666 26.6827C22.5832 26.8493 22.5999 27.0493 22.7499 27.166L24.3332 28.3994C24.2999 28.6327 24.2832 28.8827 24.2832 29.1327C24.2832 29.3827 24.2999 29.6327 24.3332 29.866L22.7499 31.0993C22.6166 31.216 22.5666 31.416 22.6666 31.5827L24.1666 34.166C24.2499 34.3327 24.4499 34.3827 24.6332 34.3327L26.4832 33.5827C26.8666 33.8827 27.2832 34.1327 27.7499 34.316L28.0332 36.2827C28.0666 36.466 28.2166 36.5993 28.3999 36.5993H31.3832C31.5666 36.5993 31.7332 36.466 31.7499 36.2827L32.0332 34.316C32.4832 34.116 32.9166 33.8827 33.2832 33.5827L35.1499 34.3327C35.3166 34.3994 35.5166 34.3327 35.6166 34.166L37.1166 31.5827C37.2166 31.4327 37.1666 31.2327 37.0332 31.116ZM29.8832 31.3827C28.6499 31.3827 27.6332 30.3827 27.6332 29.1327C27.6332 27.8827 28.6332 26.8827 29.8832 26.8827C31.1332 26.8827 32.1332 27.8827 32.1332 29.1327C32.1332 30.3827 31.1166 31.3827 29.8832 31.3827Z" fill="#6494FF"/>
</svg>
