<svg width="60" height="60" viewBox="0 0 60 60" fill="none" xmlns="http://www.w3.org/2000/svg">
<path d="M12.5 20H17.5V40H12.5V20ZM30 20H22.5C21.125 20 20 21.125 20 22.5V37.5C20 38.875 21.125 40 22.5 40H30C31.375 40 32.5 38.875 32.5 37.5V22.5C32.5 21.125 31.375 20 30 20ZM27.5 35H25V25H27.5V35ZM45 20H37.5C36.125 20 35 21.125 35 22.5V37.5C35 38.875 36.125 40 37.5 40H45C46.375 40 47.5 38.875 47.5 37.5V22.5C47.5 21.125 46.375 20 45 20ZM42.5 35H40V25H42.5V35Z" fill="#0050FF"/>
<path d="M5 10V50H55V10H5ZM10 45V15H50V45H10Z" fill="#0050FF"/>
</svg>
