<svg width="60" height="60" viewBox="0 0 60 60" fill="none" xmlns="http://www.w3.org/2000/svg">
<path d="M30 20C24.475 20 20 24.475 20 30C20 35.525 24.475 40 30 40C35.525 40 40 35.525 40 30C40 24.475 35.525 20 30 20ZM52.35 27.5C51.2 17.075 42.925 8.8 32.5 7.65V2.5H27.5V7.65C17.075 8.8 8.8 17.075 7.65 27.5H2.5V32.5H7.65C8.8 42.925 17.075 51.2 27.5 52.35V57.5H32.5V52.35C42.925 51.2 51.2 42.925 52.35 32.5H57.5V27.5H52.35ZM30 47.5C20.325 47.5 12.5 39.675 12.5 30C12.5 20.325 20.325 12.5 30 12.5C39.675 12.5 47.5 20.325 47.5 30C47.5 39.675 39.675 47.5 30 47.5Z" fill="#0050FF"/>
</svg>
