<svg width="373" height="236" viewBox="0 0 373 236" fill="none" xmlns="http://www.w3.org/2000/svg">
<g clip-path="url(#clip0_4894_79639)">
<path d="M46.4716 209.933L52.2413 210.057L50.062 226.002L46.1523 225.918L46.4716 209.933Z" fill="#FFB6B6"/>
<path d="M59.5658 233.324L59.5657 233.324C59.5657 232.891 59.3176 232.499 58.9343 232.327L54.6284 230.396L51.6927 224.215L51.6482 217.988L45.5988 217.342L44.7239 221.309C44.7239 221.309 46.5253 221.065 44.3012 222.818C42.0772 224.571 43.1481 228 43.1481 228L42.6631 234.409H46.6663L46.8812 230.423C49.9949 231.622 50.7585 234.409 50.7585 234.409H58.5188C59.097 234.409 59.5657 233.923 59.5657 233.324H59.5657H59.5658Z" fill="#2F2E41"/>
<path d="M54.9228 210.108L60.6924 210.232L58.5131 226.178L54.6035 226.094L54.9228 210.108Z" fill="#FFB6B6"/>
<path d="M68.0169 233.499H68.0169C68.0169 233.066 67.7688 232.675 67.3855 232.503L63.0795 230.572L60.1438 224.391L60.0993 218.163L54.05 217.518L53.1751 221.485C53.1751 221.485 54.9765 221.241 52.7524 222.993C50.5284 224.746 51.5993 228.175 51.5993 228.175L51.1143 234.585H55.1175L55.3324 230.599C58.446 231.798 59.2097 234.585 59.2097 234.585H66.97C67.5482 234.585 68.0169 234.099 68.0169 233.499L68.0169 233.499H68.0169Z" fill="#2F2E41"/>
<path d="M48.3061 116.579L41.7653 130.757C39.585 135.483 38.8941 140.667 39.7696 145.729L42.9485 215.381H55.5172L61.0033 153.355L62.0859 177.856L49.5037 212.764H61.8787L77.763 177.856L78.9407 150.977L73.2974 130.119L48.3061 116.579L48.3061 116.579Z" fill="#2F2E41"/>
<path d="M225.505 55.9114V20.4969C225.505 9.17676 215.396 2.85823e-09 202.927 2.85823e-09H120.277C107.807 -0.000187006 97.6984 9.17643 97.6982 20.4965V214.784C97.6982 226.104 107.807 235.28 120.276 235.28H202.926C215.395 235.28 225.504 226.104 225.504 214.784V81.1201H225.504C226.289 81.1201 226.926 80.5421 226.926 79.8291L226.927 57.2025C226.927 56.4895 226.29 55.9114 225.505 55.9114L225.505 55.9114V55.9114Z" fill="#3F3D56"/>
<path d="M221.265 18.7931V215.825C208.07 215.089 214.782 230.872 204.147 231.368H119.801C110.343 231.369 102.675 224.411 102.672 215.825V18.7931C102.675 10.2073 110.343 3.2489 119.8 3.25H126.021C124.327 7.03177 137.998 8.26216 139.046 8.26336H182.244C186.741 8.25819 197.59 4.13137 197.195 3.25H204.144C213.597 3.25147 221.261 10.2077 221.265 18.7901L221.265 18.7931H221.265Z" fill="white"/>
<path d="M97.0335 60.249C96.432 60.249 95.9429 60.6931 95.9429 61.2391V69.1602C95.9429 69.7063 96.432 70.1503 97.0335 70.1503C97.635 70.1503 98.1242 69.7062 98.1242 69.1602V61.2391C98.1242 60.6931 97.635 60.249 97.0335 60.249Z" fill="#3F3D56"/>
<path d="M97.0335 84.0117C96.432 84.0117 95.9429 84.4558 95.9429 85.0018V100.349C95.9429 100.895 96.432 101.339 97.0335 101.339C97.635 101.339 98.1242 100.895 98.1242 100.349V85.0018C98.1242 84.4558 97.635 84.0117 97.0335 84.0117Z" fill="#3F3D56"/>
<path d="M97.0335 105.795C96.432 105.795 95.9429 106.239 95.9429 106.785V122.132C95.9429 122.678 96.432 123.122 97.0335 123.122C97.635 123.122 98.1242 122.678 98.1242 122.132V106.785C98.1242 106.239 97.635 105.795 97.0335 105.795Z" fill="#3F3D56"/>
<path d="M354.283 222.757L349.108 225.975L332.97 209.384L340.608 204.634L354.283 222.757Z" fill="#FFB6B6"/>
<path d="M336.472 233.678C336.497 234.025 337.012 234.873 337.228 235.16C337.892 236.04 339.218 236.265 340.188 235.662L356.215 225.693C356.877 225.282 357.046 224.461 356.592 223.86L356.135 223.254C356.135 223.254 355.554 220.941 352.228 219.712C352.228 219.712 351.526 222.731 346.417 221.864L344.414 220.95L341.185 229.271L337.9 231.903C337.182 232.479 336.41 232.81 336.472 233.678L336.472 233.678L336.472 233.678Z" fill="#2F2E41"/>
<path d="M316.125 231.301L309.852 231.3L306.868 209.333L314.547 210.201L316.125 231.301Z" fill="#FFB6B6"/>
<path d="M294.632 231.172C294.437 231.47 294.333 232.434 294.333 232.781C294.333 233.849 295.287 234.714 296.463 234.714H315.891C316.693 234.714 317.343 234.124 317.343 233.396V232.661C317.343 232.661 318.304 230.455 316.326 227.734C316.326 227.734 313.866 229.864 310.192 226.528L309.108 224.746L301.264 229.954L296.916 230.44C295.965 230.546 295.121 230.423 294.632 231.172H294.632V231.172Z" fill="#2F2E41"/>
<path d="M294.13 147.818L294.602 152.999L293.663 157.118L295.373 161.461L297.466 184.423L308.372 224.013L316.7 225.604L312.702 186.059L315.803 153.441L294.13 147.818Z" fill="#2F2E41"/>
<path d="M329.517 125.33L297.669 125.732L294.13 147.818L315.803 157.054L315.112 188.597L339.249 220.317L352.104 213.649L330.563 186.712L336.595 141.794L329.517 125.33H329.517Z" fill="#2F2E41"/>
<path d="M305.942 73.4056L300.323 79.9521L302.977 130.148L323.767 129.747L327.306 85.9758L322.882 74.7318L321.282 72.2119L319.368 68.9492L307.096 69.745L305.942 73.4056H305.942V73.4056Z" fill="#E6E6E6"/>
<path d="M297.644 104.449L298.768 114.708L297.387 126.513L295.662 129.713L291.717 142.446C291.717 142.446 287.691 148.014 296.538 148.414C305.385 148.814 334.383 146.209 334.383 146.209C334.383 146.209 337.998 146.128 336.423 139.263C333.878 135.292 335.519 129.696 335.519 129.696L332.171 118.501L333.056 108.06L339.249 80.7534C333.749 76.8296 327.588 74.0212 320.891 72.1191L315.026 86.121L306.293 73.324L302.975 75.5326C298.501 76.5978 294.563 78.2359 291.448 80.753L297.644 104.449Z" fill="#2F2E41"/>
<path d="M192.649 80.0922H130.221C125.942 80.0878 122.474 76.9398 122.469 73.0551V48.6941C122.474 44.8095 125.942 41.6614 130.221 41.657C150.141 36.6468 171.034 37.1163 192.649 41.657C196.928 41.6616 200.395 44.8096 200.4 48.6941V73.0551C200.395 76.9396 196.928 80.0876 192.649 80.0922H192.649Z" fill="#F2F2F2"/>
<path d="M199.009 105.623H123.861C123.093 105.622 122.47 105.057 122.47 104.359V87.4371C122.471 86.7398 123.093 86.1747 123.861 86.1738H199.009C199.777 86.1747 200.399 86.7398 200.4 87.4371V104.36C200.399 105.057 199.777 105.622 199.009 105.623V105.623ZM123.861 86.6791C123.4 86.6796 123.027 87.0187 123.026 87.4371V104.36C123.027 104.778 123.4 105.117 123.861 105.118H199.009C199.47 105.117 199.843 104.778 199.844 104.36V87.4371C199.843 87.0187 199.47 86.6796 199.009 86.6791H123.861Z" fill="#E6E6E6"/>
<path d="M147.101 92.3594C146.563 92.3697 146.136 92.774 146.148 93.2624C146.159 93.7363 146.579 94.118 147.101 94.128H193.024C193.562 94.1467 194.015 93.7661 194.035 93.2779C194.056 92.7897 193.637 92.3789 193.099 92.3602H147.101V92.3594Z" fill="#E6E6E6"/>
<path d="M147.101 97.667C146.563 97.6773 146.136 98.0816 146.148 98.57C146.159 99.0439 146.579 99.4256 147.101 99.4356H193.024C193.562 99.4543 194.015 99.0737 194.035 98.5855C194.056 98.0974 193.637 97.6865 193.099 97.6678H147.101V97.667Z" fill="#E6E6E6"/>
<path d="M134.201 99.4366C136.353 99.4366 138.098 97.8528 138.098 95.899C138.098 93.9452 136.353 92.3613 134.201 92.3613C132.049 92.3613 130.304 93.9452 130.304 95.899C130.304 97.8528 132.049 99.4366 134.201 99.4366Z" fill="#E6E6E6"/>
<path d="M199.009 188.685H123.861C123.093 188.685 122.47 188.119 122.47 187.422V170.5C122.471 169.802 123.093 169.237 123.861 169.236H199.009C199.777 169.237 200.399 169.802 200.4 170.5V187.422C200.399 188.12 199.777 188.685 199.009 188.686V188.685ZM123.861 169.742C123.4 169.742 123.027 170.081 123.026 170.5V187.422C123.027 187.841 123.4 188.18 123.861 188.18L190.472 187.584C190.933 187.584 197.923 185.218 197.923 184.799L199.844 170.5C199.843 170.081 199.47 169.742 199.009 169.742H123.861Z" fill="#E6E6E6"/>
<path d="M147.101 177.945C146.563 177.934 146.118 178.322 146.107 178.81C146.095 179.299 146.522 179.703 147.06 179.713C147.074 179.713 147.088 179.713 147.101 179.713H193.025C193.562 179.732 194.015 179.351 194.035 178.863C194.056 178.375 193.637 177.964 193.099 177.945H147.101V177.945V177.945Z" fill="#E6E6E6"/>
<path d="M134.201 182.499C136.353 182.499 138.098 180.915 138.098 178.961C138.098 177.008 136.353 175.424 134.201 175.424C132.049 175.424 130.304 177.008 130.304 178.961C130.304 180.915 132.049 182.499 134.201 182.499Z" fill="#E6E6E6"/>
<path d="M199.009 153.671H123.861C123.093 153.67 122.47 153.105 122.47 152.407V135.485C122.471 134.788 123.093 134.223 123.861 134.222H199.009C199.777 134.223 200.399 134.788 200.4 135.485V152.408C200.399 153.105 199.777 153.67 199.009 153.671V153.671ZM123.861 134.727C123.4 134.727 123.027 135.067 123.026 135.485V152.408C123.027 152.826 123.4 153.165 123.861 153.166L190.472 152.57C190.933 152.569 197.923 150.203 197.923 149.784L199.844 135.485C199.843 135.067 199.47 134.727 199.009 134.727H123.861Z" fill="#E6E6E6"/>
<path d="M147.101 142.93C146.563 142.92 146.118 143.307 146.107 143.796C146.095 144.284 146.522 144.688 147.06 144.699C147.074 144.699 147.088 144.699 147.101 144.699H193.025C193.562 144.717 194.015 144.337 194.035 143.848C194.056 143.36 193.637 142.949 193.099 142.931H147.101V142.93V142.93Z" fill="#E6E6E6"/>
<path d="M134.201 147.484C136.353 147.484 138.098 145.901 138.098 143.947C138.098 141.993 136.353 140.409 134.201 140.409C132.049 140.409 130.304 141.993 130.304 143.947C130.304 145.901 132.049 147.484 134.201 147.484Z" fill="#E6E6E6"/>
<path d="M312.137 68.4846C318.201 68.4846 323.116 64.0223 323.116 58.5177C323.116 53.0131 318.201 48.5508 312.137 48.5508C306.074 48.5508 301.158 53.0131 301.158 58.5177C301.158 64.0223 306.074 68.4846 312.137 68.4846Z" fill="#FFB6B6"/>
<path d="M320.2 66.7073C320.805 66.8009 321.515 65.4702 322.193 64.1742C323.614 61.4611 324.516 59.7364 324.585 57.2985C324.644 55.2208 324.008 55.7661 323.389 51.1466C323.185 49.623 320.318 49.626 319.734 48.9025C318.749 47.6804 320.261 47.1764 317.809 46.4422C313.215 45.0672 311.138 47.2033 308.22 47.3873C308.147 47.392 306.7 48.676 305.893 48.7424C304.477 48.8587 302.436 48.6586 301.521 46.7012C300.665 44.871 300.098 50.2192 300.863 50.881C301.512 51.443 302.633 52.8535 302.661 52.956C302.694 53.0721 299.997 50.3609 299.547 51.4782C299.224 52.2823 300.243 56.4193 301.067 56.5748C301.755 56.7048 303.44 54.6439 303.06 55.4892C302.178 57.4494 307.478 58.7001 313.822 54.7654C314.047 54.6259 313.835 54.8484 314.62 56.5748C315.609 58.7522 315.833 58.8701 315.816 59.4698C315.778 60.768 314.704 61.1503 315.018 62.0029C315.272 62.6936 316.266 63.2282 317.011 63.0886C317.853 62.931 317.997 61.9862 318.606 62.0029C319.127 62.0173 319.747 62.7306 319.802 63.4505C319.918 64.967 317.445 65.3841 317.011 67.4311C316.767 68.5863 319.645 66.6213 320.2 66.7073Z" fill="#2F2E41"/>
<path d="M345.046 146.376C345.094 145.26 344.846 144.15 344.324 143.139L345.455 131.507L339.341 131.181L338.852 143.017C338.275 144.003 337.967 145.101 337.953 146.218C337.877 149.012 339.402 151.313 341.36 151.357C343.318 151.402 344.968 149.173 345.045 146.379L345.046 146.376Z" fill="#FFB6B6"/>
<path d="M332.04 99.4726L336.861 113.001L338.245 140.631L346.316 140.481L346.942 110.216C346.942 110.216 342.92 87.852 341.573 82.8255C340.226 77.799 327.808 79.6618 327.808 79.6618L332.04 99.4726V99.4726V99.4726Z" fill="#2F2E41"/>
<path d="M132.066 64.2026C134.346 64.8898 136.736 65.5855 139.17 65.4681C140.277 65.4146 141.343 65.1749 142.347 64.7484C143.378 64.311 144.319 63.717 145.362 63.3025C149.195 61.7795 152.997 64.3813 156.571 65.3579C158.355 65.8451 160.231 65.9617 161.975 65.2831C163.903 64.5333 165.357 63.1026 166.944 61.908C170.502 59.2296 175.144 57.7856 179.762 57.8947C184.829 58.0145 189.732 60.0459 193.221 63.3687C193.513 63.6473 193.978 63.2248 193.686 62.9466C190.637 60.0427 186.529 58.085 182.154 57.4917C177.77 56.8972 173.218 57.6916 169.363 59.6737C167.413 60.6767 165.848 62.0496 164.13 63.3309C162.456 64.5786 160.595 65.3827 158.389 65.1175C154.588 64.6607 151.319 62.0018 147.377 62.2429C144.859 62.3968 143.061 64.1165 140.692 64.6647C137.866 65.3187 134.912 64.4323 132.24 63.627C131.838 63.5057 131.665 64.0819 132.066 64.2026L132.066 64.2025V64.2026Z" fill="#3F3D56"/>
<path d="M139.202 67.3823C140.547 67.3823 141.637 66.3926 141.637 65.1716C141.637 63.9507 140.547 62.9609 139.202 62.9609C137.857 62.9609 136.767 63.9507 136.767 65.1716C136.767 66.3926 137.857 67.3823 139.202 67.3823Z" fill="#FF9A82"/>
<path d="M160.224 67.48C161.569 67.48 162.659 66.4902 162.659 65.2693C162.659 64.0484 161.569 63.0586 160.224 63.0586C158.879 63.0586 157.789 64.0484 157.789 65.2693C157.789 66.4902 158.879 67.48 160.224 67.48Z" fill="#FF9A82"/>
<path d="M181.573 59.9809C182.918 59.9809 184.008 58.9912 184.008 57.7703C184.008 56.5493 182.918 55.5596 181.573 55.5596C180.228 55.5596 179.138 56.5493 179.138 57.7703C179.138 58.9912 180.228 59.9809 181.573 59.9809Z" fill="#FF9A82"/>
<path d="M40.2727 134.467C33.073 153.077 42.2462 167.739 40.3425 158.281C38.7516 150.377 65.861 126.324 74.0211 131.284C73.8501 130.481 68.6634 116.01 68.155 115.943C68.8663 114.317 67.8749 114.301 67.8346 113.468C67.6803 110.25 68.5043 106.909 70.1093 103.471C71.1612 100.815 71.1796 98.5325 70.1602 96.6922C69.283 95.1797 67.8093 94.0234 66.0337 93.4546L60.6865 87.592C59.2937 86.0661 57.2394 82.7736 55.0567 82.7859L43.3399 82.4059C43.0051 82.2233 38.8908 85.4351 34.8848 87.0111C30.5401 88.722 31.4364 93.3917 31.4473 93.4514L31.4574 93.5071L31.5052 93.5469L37.8915 110.612L43.6616 115.521C43.3693 116.29 43.4425 116.868 43.9899 117.2C43.204 117.727 39.7082 133.516 40.2727 134.069V134.467L40.2727 134.467Z" fill="#FF9A82"/>
<path d="M100.478 100.695C99.607 101.01 98.8317 101.511 98.2171 102.154L88.9385 105.042L90.5812 109.01L99.8164 105.653C100.752 105.713 101.69 105.568 102.552 105.231C104.72 104.414 106.014 102.736 105.441 101.484C104.868 100.231 102.646 99.878 100.478 100.695V100.695Z" fill="#FFB6B6"/>
<path d="M50.9824 87.9611L72.1497 113.9L96.9617 107.697L95.8831 101.821L76.9893 105.069L66.4488 90.3584C63.0069 84.3184 56.2231 83.1021 50.9824 87.9607V87.9611Z" fill="#FF9A82"/>
<path d="M203.01 218.756H193.35C191.663 218.756 190.291 217.51 190.291 215.979C188.46 211.462 188.229 207.411 190.291 204.026C190.291 202.495 191.663 201.249 193.35 201.249C196.207 199.368 199.537 199.939 203.01 201.249C204.697 201.249 206.069 202.495 206.069 204.026C204.897 207.856 204.982 211.851 206.069 215.979C206.069 217.51 204.697 218.756 203.01 218.756Z" fill="#FF9A82"/>
<path d="M202.076 206.568H194.274C194.005 206.568 193.787 206.37 193.787 206.125C193.787 205.881 194.005 205.683 194.274 205.683H202.076C202.345 205.683 202.563 205.881 202.563 206.125C202.563 206.37 202.345 206.568 202.076 206.568Z" fill="white"/>
<path d="M202.076 210.108H194.274C194.005 210.108 193.787 209.91 193.787 209.665C193.787 209.421 194.005 209.223 194.274 209.223H202.076C202.345 209.223 202.563 209.421 202.563 209.665C202.563 209.91 202.345 210.108 202.076 210.108Z" fill="white"/>
<path d="M202.076 213.649H194.274C194.005 213.649 193.787 213.451 193.787 213.206C193.787 212.962 194.005 212.764 194.274 212.764H202.076C202.345 212.764 202.563 212.962 202.563 213.206C202.563 213.451 202.345 213.649 202.076 213.649Z" fill="white"/>
<path d="M373 234.848H0V235.517H373V234.848Z" fill="#E6E6E6"/>
<path d="M291.114 145.448C291.431 148.228 293.268 150.333 295.216 150.15C297.164 149.966 298.487 147.565 298.17 144.785C298.06 143.672 297.658 142.6 296.998 141.657L295.493 129.892L289.425 130.651L291.554 142.166C291.12 143.212 290.969 144.336 291.113 145.445L291.114 145.448Z" fill="#FFB6B6"/>
<path d="M300.042 97.7629L302.556 77.7124C302.556 77.7124 290.015 76.7362 289.105 81.8429C288.195 86.9496 286.11 109.53 286.11 109.53L289.34 139.659L297.398 139.235L296.4 111.592L300.042 97.7629V97.7629Z" fill="#2F2E41"/>
<path d="M57.7862 80.1983L40.8423 81.5989L40.3423 65.6116L58.8016 65.1357L57.7862 80.1983Z" fill="#2F2E41"/>
<path d="M49.2184 78.0524C54.1294 78.0524 58.1105 74.4382 58.1105 69.9798C58.1105 65.5214 54.1294 61.9072 49.2184 61.9072C44.3073 61.9072 40.3262 65.5214 40.3262 69.9798C40.3262 74.4382 44.3073 78.0524 49.2184 78.0524Z" fill="#FFB6B6"/>
<path d="M56.3713 62.1139C56.3087 60.1109 53.5632 59.894 51.4241 59.3996L49.4844 58.4857C47.5805 58.0457 45.5604 58.3552 43.9209 59.338L38.7487 62.1826C36.4263 63.5748 36.0573 65.8252 35.1129 68.2018L33.4036 71.6808C32.4739 74.0204 33.7024 77.1205 34.6422 79.4568L35.036 80.4357L34.4203 83.6397L45.199 83.1827L46.1571 78.2366L44.3172 76.359C43.6644 75.6928 43.6114 74.7036 44.19 73.983H44.19C46.2713 71.3912 45.8855 67.759 45.8855 67.759L48.5195 69.0634C50.2501 69.2777 51.7924 69.2542 53.1494 68.9968C54.6418 68.7137 55.9101 68.1475 56.9583 67.3037L57.8974 70.1711C58.1393 73.7398 57.4047 74.687 53.9009 78.1778L60.0453 81.6798L59.818 79.7847C59.2775 75.2765 60.9256 71.7215 60.6945 68.0523C60.5348 65.5152 58.8727 63.2547 56.3713 62.1139H56.3713H56.3713Z" fill="#2F2E41"/>
<path d="M57.8434 130.183C56.9753 129.86 56.0347 129.731 55.1002 129.806L46.2176 126.029L44.3618 129.919L53.5721 133.331C54.1996 133.964 54.985 134.452 55.8626 134.753C58.0471 135.533 60.2618 135.143 60.8083 133.881C61.3548 132.619 60.0279 130.963 57.8434 130.183H57.8434Z" fill="#FFB6B6"/>
<path d="M31.9965 89.8021L27.3643 121.808L49.9554 133L53.6774 128.093L37.6036 118.511L41.2838 101.283C43.4319 94.768 39.4844 89.6138 31.9968 89.8019L31.9965 89.8021Z" fill="#FF9A82"/>
</g>
<defs>
<clipPath id="clip0_4894_79639">
<rect width="373" height="236" fill="white"/>
</clipPath>
</defs>
</svg>
