<svg width="36" height="37" viewBox="0 0 36 37" fill="none" xmlns="http://www.w3.org/2000/svg">
<path d="M6.75 18.5C8.82107 18.5 10.5 16.8211 10.5 14.75C10.5 12.6789 8.82107 11 6.75 11C4.67893 11 3 12.6789 3 14.75C3 16.8211 4.67893 18.5 6.75 18.5Z" fill="#6494FF"/>
<path d="M13.5 12.5C15.5711 12.5 17.25 10.8211 17.25 8.75C17.25 6.67893 15.5711 5 13.5 5C11.4289 5 9.75 6.67893 9.75 8.75C9.75 10.8211 11.4289 12.5 13.5 12.5Z" fill="#6494FF"/>
<path d="M22.5 12.5C24.5711 12.5 26.25 10.8211 26.25 8.75C26.25 6.67893 24.5711 5 22.5 5C20.4289 5 18.75 6.67893 18.75 8.75C18.75 10.8211 20.4289 12.5 22.5 12.5Z" fill="#6494FF"/>
<path d="M29.25 18.5C31.3211 18.5 33 16.8211 33 14.75C33 12.6789 31.3211 11 29.25 11C27.1789 11 25.5 12.6789 25.5 14.75C25.5 16.8211 27.1789 18.5 29.25 18.5Z" fill="#6494FF"/>
<path d="M26.01 22.79C24.705 21.26 23.61 19.955 22.29 18.425C21.6 17.615 20.715 16.805 19.665 16.445C19.5 16.385 19.335 16.34 19.17 16.31C18.795 16.25 18.39 16.25 18 16.25C17.61 16.25 17.205 16.25 16.815 16.325C16.65 16.355 16.485 16.4 16.32 16.46C15.27 16.82 14.4 17.63 13.695 18.44C12.39 19.97 11.295 21.275 9.97497 22.805C8.00997 24.77 5.59497 26.945 6.04497 29.99C6.47997 31.52 7.57497 33.035 9.53997 33.47C10.635 33.695 14.13 32.81 17.85 32.81H18.12C21.84 32.81 25.335 33.68 26.43 33.47C28.395 33.035 29.49 31.505 29.925 29.99C30.39 26.93 27.975 24.755 26.01 22.79Z" fill="#6494FF"/>
</svg>
