<svg width="16" height="16" viewBox="0 0 16 16" fill="none" xmlns="http://www.w3.org/2000/svg">
<path d="M5.40789 1.98337C4.7065 1.33888 3.62839 1.33888 2.927 1.98337C2.89828 2.00976 2.86761 2.04043 2.82779 2.08026L2.22946 2.67859C1.62739 3.28067 1.37464 4.14861 1.55935 4.9798C2.60733 9.69571 6.29035 13.3787 11.0063 14.4267C11.8374 14.6114 12.7054 14.3587 13.3075 13.7566L13.9057 13.1583C13.9456 13.1185 13.9763 13.0878 14.0027 13.0591C14.6472 12.3577 14.6472 11.2796 14.0027 10.5782C13.9763 10.5494 13.9456 10.5188 13.9057 10.4789L12.9262 9.4994C12.2462 8.81933 11.2191 8.62483 10.3375 9.00914C9.83277 9.22915 9.2448 9.1178 8.85547 8.72846L7.2576 7.13059C6.86826 6.74125 6.75691 6.15329 6.97692 5.64855C7.36123 4.76691 7.16673 3.73989 6.48666 3.05982L5.50711 2.08027C5.46728 2.04044 5.43661 2.00976 5.40789 1.98337Z" fill="white"/>
</svg>
