<svg width="18" height="18" viewBox="0 0 18 18" fill="none" xmlns="http://www.w3.org/2000/svg">
<path d="M7.2666 3.48242H11.7371V6.85252H7.2666V3.48242Z" fill="#0050FF"/>
<path d="M14.97 1.79749C14.97 0.944205 14.2758 0.25 13.4225 0.25H5.54749C4.69421 0.25 4 0.944205 4 1.79749V16.2408C4 17.094 4.69421 17.7882 5.54749 17.7882H13.4225C14.2758 17.7882 14.97 17.094 14.97 16.2408C14.97 5.77145 14.97 30.263 14.97 1.79749ZM7.8144 14.5722C7.79142 14.8475 7.53736 15.0636 7.25042 15.0344C6.97349 15.0113 6.75894 14.755 6.78789 14.4704C6.8195 14.1717 7.09364 13.9573 7.40208 14.0155C7.67519 14.0724 7.83998 14.3203 7.8144 14.5722V14.5722ZM7.8144 12.371C7.79173 12.6484 7.53406 12.863 7.25042 12.8339C6.95987 12.8037 6.75983 12.5453 6.78789 12.2695C6.8195 11.9708 7.09364 11.7565 7.40208 11.8146C7.67636 11.8717 7.84029 12.1214 7.8144 12.371V12.371ZM7.8144 10.1705C7.79122 10.4484 7.53351 10.662 7.25042 10.633C6.95691 10.6025 6.75969 10.3407 6.78789 10.069C6.81881 9.77082 7.0932 9.55552 7.40208 9.6137C7.67519 9.67062 7.83998 9.91852 7.8144 10.1705V10.1705ZM10.0156 14.5722C10.0011 14.7117 9.93126 14.8369 9.82923 14.9202C9.49387 15.1935 8.98636 14.9572 8.98636 14.5213C8.98636 14.2255 9.23929 13.9794 9.55306 14.0079C9.84044 14.038 10.0439 14.2942 10.0156 14.5722V14.5722ZM9.82923 12.7193C9.49387 12.9926 8.98636 12.7563 8.98636 12.3204C8.98636 11.8698 9.53115 11.6286 9.86702 11.9556C10.088 12.1822 10.0589 12.5319 9.82923 12.7193V12.7193ZM9.82923 10.5185C9.49387 10.7918 8.98636 10.5555 8.98636 10.1196C8.98636 9.67006 9.53002 9.42659 9.86702 9.7547C10.0825 9.97575 10.0654 10.3193 9.82923 10.5185V10.5185ZM12.2165 14.5722C12.1862 14.8644 11.926 15.0628 11.6522 15.0347C11.3626 15.0046 11.1615 14.7471 11.1896 14.4704C11.2212 14.1723 11.4951 13.9573 11.8038 14.0155C12.0765 14.0723 12.2421 14.3203 12.2165 14.5722V14.5722ZM12.2165 12.371C12.1891 12.6412 11.9552 12.8586 11.6522 12.8339C11.3626 12.8038 11.1615 12.5462 11.1896 12.2695C11.2215 11.9686 11.4976 11.7569 11.8038 11.8146C12.0784 11.8718 12.2418 12.1216 12.2165 12.371V12.371ZM12.2165 10.1705C12.1862 10.4627 11.926 10.6611 11.6522 10.633C11.3626 10.6029 11.1615 10.3454 11.1896 10.0687C11.2212 9.77048 11.4951 9.55552 11.8038 9.6137C12.0783 9.67089 12.2419 9.92021 12.2165 10.1705V10.1705ZM12.7691 7.36846C12.7691 7.65334 12.5382 7.88429 12.2533 7.88429H6.7511C6.46622 7.88429 6.23527 7.65334 6.23527 7.36846V2.96671C6.23527 2.68183 6.46622 2.45088 6.7511 2.45088H12.2533C12.5382 2.45088 12.7691 2.68183 12.7691 2.96671V7.36846Z" fill="#0050FF"/>
</svg>
