<svg width="40" height="40" viewBox="0 0 40 40" fill="none" xmlns="http://www.w3.org/2000/svg">
<path d="M16.3103 26.2602L21.2821 11.3446C21.4663 10.792 21.1676 10.1947 20.6151 10.0104C20.0625 9.82629 19.4652 10.1249 19.2809 10.6775L14.3091 25.5931C14.125 26.1457 14.4236 26.743 14.9762 26.9272C15.0868 26.9641 15.1993 26.9816 15.3098 26.9816C15.7514 26.9817 16.1629 26.7022 16.3103 26.2602Z" fill="#5C5F62"/>
<path d="M23.7692 21.6314C25.5138 21.6314 26.9332 20.212 26.9332 18.4673C26.9332 16.7226 25.5138 15.3032 23.7692 15.3032C22.0245 15.3032 20.6051 16.7226 20.6051 18.4673C20.6051 20.212 22.0245 21.6314 23.7692 21.6314ZM23.7692 17.4126C24.3507 17.4126 24.8239 17.8857 24.8239 18.4673C24.8239 19.0488 24.3507 19.522 23.7692 19.522C23.1876 19.522 22.7145 19.0488 22.7145 18.4673C22.7145 17.8857 23.1876 17.4126 23.7692 17.4126Z" fill="#5C5F62"/>
<path d="M11.829 15.3027C10.0843 15.3027 8.66492 16.7221 8.66492 18.4668C8.66492 20.2115 10.0843 21.6309 11.829 21.6309C13.5736 21.6309 14.993 20.2115 14.993 18.4668C14.993 16.7221 13.5737 15.3027 11.829 15.3027ZM11.829 19.5215C11.2474 19.5215 10.7743 19.0484 10.7743 18.4668C10.7743 17.8852 11.2474 17.4121 11.829 17.4121C12.4105 17.4121 12.8837 17.8852 12.8837 18.4668C12.8837 19.0484 12.4106 19.5215 11.829 19.5215Z" fill="#5C5F62"/>
<path d="M37.7891 15.0781L34.1112 10.1743L34.2547 9.17003C34.3016 8.84139 34.1912 8.5098 33.9564 8.27509L31.7191 6.03775L33.9563 3.80041C34.3682 3.38858 34.3682 2.72076 33.9563 2.30887C33.5445 1.89704 32.8767 1.89704 32.4648 2.30887L30.2275 4.54621L27.9902 2.30887C27.7555 2.07409 27.4239 1.96398 27.0952 2.01053L16.6543 3.50207C16.4284 3.53434 16.2191 3.63904 16.0577 3.80041L3.13089 16.7272C1.62304 18.235 1.62304 20.6885 3.13089 22.1963L14.0689 33.1344C14.2927 33.3581 14.5376 33.5479 14.7969 33.7052V34.1328C14.7969 36.2652 16.5317 38 18.6641 38H34.1328C36.2652 38 38 36.2652 38 34.1328V15.7109C38 15.4828 37.926 15.2606 37.7891 15.0781ZM4.62243 20.7047C3.93702 20.0193 3.93702 18.9042 4.62243 18.2188L17.3006 5.54057L26.8714 4.17334L28.7359 6.03782L27.2444 7.52936L26.4986 6.78356C26.0867 6.37173 25.4189 6.37173 25.007 6.78356C24.5951 7.19538 24.5951 7.8632 25.007 8.27509L27.9902 11.2582C28.1961 11.4642 28.466 11.5672 28.7359 11.5672C29.0058 11.5672 29.2758 11.4642 29.4816 11.2582C29.8935 10.8464 29.8935 10.1786 29.4816 9.76671L28.7358 9.0209L30.2274 7.52936L32.0919 9.39384L30.7246 18.9646L18.0464 31.6428C17.7144 31.9749 17.273 32.1577 16.8034 32.1577C16.3339 32.1577 15.8925 31.9748 15.5605 31.6428L4.62243 20.7047ZM35.8906 34.1328C35.8906 35.1021 35.1021 35.8906 34.1328 35.8906H18.6641C17.7385 35.8906 16.9782 35.1715 16.9115 34.2626C17.8654 34.2362 18.8115 33.8608 19.5379 33.1344L32.4647 20.2076C32.6261 20.0462 32.7308 19.8369 32.7631 19.611L33.6893 13.1274L35.8906 16.0625V34.1328Z" fill="#5C5F62"/>
</svg>
