<svg width="32" height="32" viewBox="0 0 32 32" fill="none" xmlns="http://www.w3.org/2000/svg">
<path d="M25.3337 10.6667H6.66699C4.45366 10.6667 2.66699 12.4533 2.66699 14.6667V22.6667H8.00033V28H24.0003V22.6667H29.3337V14.6667C29.3337 12.4533 27.547 10.6667 25.3337 10.6667ZM21.3337 25.3333H10.667V18.6667H21.3337V25.3333ZM25.3337 16C24.6003 16 24.0003 15.4 24.0003 14.6667C24.0003 13.9333 24.6003 13.3333 25.3337 13.3333C26.067 13.3333 26.667 13.9333 26.667 14.6667C26.667 15.4 26.067 16 25.3337 16ZM24.0003 4H8.00033V9.33333H24.0003V4Z" fill="white"/>
</svg>
