<svg width="198" height="147" viewBox="0 0 198 147" fill="none" xmlns="http://www.w3.org/2000/svg">
<g clip-path="url(#clip0_10885_154376)">
<path d="M100.12 139.445C99.9259 139.454 99.7337 139.403 99.5696 139.299C99.4054 139.195 99.2771 139.043 99.2022 138.864C99.1272 138.685 99.1092 138.487 99.1505 138.297C99.1918 138.107 99.2905 137.934 99.4332 137.802C99.4571 137.707 99.4742 137.639 99.4981 137.544C99.3124 137.072 98.9899 136.666 98.5721 136.379C98.1543 136.091 97.6602 135.935 97.1531 135.93C96.646 135.925 96.149 136.072 95.7259 136.352C95.3027 136.631 94.9727 137.031 94.7781 137.5C93.655 140.129 92.2014 142.852 92.9243 145.748C88.1494 135.625 89.7732 123.032 96.8299 114.375C98.7804 113.3 100.361 111.39 100.773 109.173C99.8076 109.5 98.604 108.715 99.3298 107.697C99.6444 107.309 99.9621 106.923 100.277 106.534C96.6097 102.627 92.2405 108.767 96.2768 114.04C94.9564 115.696 93.8127 117.486 92.8643 119.38C93.0833 117.369 92.8219 115.334 92.1016 113.444C91.3716 111.682 90.0033 110.199 88.7983 108.676C87.3333 106.82 84.318 107.676 84.1208 110.031C85.4729 110.475 85.6485 112.429 84.1019 112.697C84.507 117.078 87.3681 121.104 91.3087 123.025C89.8535 127.109 89.2853 131.457 89.6419 135.779C88.9463 130.728 83.5268 129.503 79.7389 127.495C79.4978 127.341 79.2169 127.26 78.9305 127.262C78.6441 127.264 78.3646 127.35 78.126 127.508C77.8874 127.667 77.7001 127.891 77.5869 128.155C77.4737 128.418 77.4395 128.708 77.4886 128.99C78.0114 129.203 78.5118 129.467 78.9824 129.779C79.2029 129.927 79.3722 130.14 79.467 130.388C79.5618 130.637 79.5776 130.908 79.512 131.166C79.4465 131.424 79.3029 131.655 79.101 131.827C78.899 132 78.6486 132.106 78.384 132.131C80.2934 136.858 85.2299 140.033 90.3 140.015C90.7872 142.133 91.4931 144.194 92.4064 146.167H99.9314C99.9584 146.083 99.9827 145.997 100.007 145.913C99.3104 145.957 98.6111 145.915 97.9247 145.789C99.7676 143.606 101.193 142.493 100.12 139.446L100.12 139.445Z" fill="#F2F2F2"/>
<path d="M139.743 4.52807H74.7547C74.193 4.52807 73.6543 4.30485 73.2571 3.9075C72.8599 3.51015 72.6367 2.97123 72.6367 2.4093C72.6367 1.84737 72.8599 1.30845 73.2571 0.911101C73.6543 0.513754 74.193 0.290527 74.7547 0.290527H139.743C140.304 0.290527 140.843 0.513754 141.24 0.911101C141.637 1.30845 141.861 1.84737 141.861 2.4093C141.861 2.97123 141.637 3.51015 141.24 3.9075C140.843 4.30485 140.304 4.52807 139.743 4.52807Z" fill="#D5D5D5"/>
<path d="M139.743 15.8098H74.7547C74.193 15.8098 73.6543 15.5866 73.2571 15.1892C72.8599 14.7919 72.6367 14.253 72.6367 13.691C72.6367 13.1291 72.8599 12.5902 73.2571 12.1928C73.6543 11.7955 74.193 11.5723 74.7547 11.5723H139.743C140.304 11.5723 140.843 11.7955 141.24 12.1928C141.637 12.5902 141.861 13.1291 141.861 13.691C141.861 14.253 141.637 14.7919 141.24 15.1892C140.843 15.5866 140.304 15.8098 139.743 15.8098Z" fill="#D5D5D5"/>
<path d="M142.582 83.9663L114.252 84.6979C113.661 84.7125 113.089 84.492 112.66 84.0849C112.232 83.6777 111.982 83.1171 111.966 82.5261L111.602 68.4209C111.588 67.8298 111.808 67.2571 112.215 66.8283C112.622 66.3996 113.182 66.1499 113.773 66.134L142.103 65.4024C142.694 65.3878 143.266 65.6083 143.695 66.0154C144.123 66.4226 144.373 66.9832 144.389 67.5742L144.753 81.6794C144.767 82.2705 144.547 82.8432 144.14 83.272C143.733 83.7007 143.173 83.9504 142.582 83.9663Z" fill="white"/>
<path d="M132.652 71.3443L130.53 71.3731L129.287 70.0507L125.27 70.1051L124.063 71.4606L121.941 71.4894C121.205 71.4993 120.61 72.11 120.62 72.8464L120.729 80.8799C120.739 81.6163 121.35 82.2107 122.086 82.2007L132.797 82.0557C133.534 82.0457 134.128 81.435 134.118 80.6986L134.009 72.6651C133.999 71.9287 133.389 71.3343 132.652 71.3443ZM132.779 80.7167L122.068 80.8618L121.959 72.8283L124.67 72.7916L125.877 71.4361L128.716 71.3976L129.959 72.7199L132.67 72.6832L132.779 80.7167Z" fill="#0050FF"/>
<path d="M126.895 78.7877L125.361 76.7997L123.389 79.5048L131.423 79.396L128.867 76.0827L126.895 78.7877Z" fill="#0050FF"/>
<path d="M142.587 84.2289L114.258 84.9604C113.597 84.9767 112.957 84.7303 112.478 84.2753C111.999 83.8202 111.72 83.1937 111.703 82.5331L111.339 68.4279C111.322 67.7673 111.569 67.1272 112.024 66.648C112.478 66.1689 113.105 65.8898 113.765 65.872L142.095 65.1404C142.755 65.1241 143.395 65.3705 143.874 65.8256C144.353 66.2806 144.632 66.9072 144.65 67.5677L145.014 81.6729C145.03 82.3335 144.784 82.9736 144.329 83.4528C143.874 83.932 143.248 84.2111 142.587 84.2289ZM113.779 66.3965C113.257 66.4106 112.763 66.6309 112.404 67.0092C112.045 67.3875 111.85 67.8928 111.863 68.4144L112.227 82.5196C112.241 83.0411 112.461 83.5357 112.839 83.895C113.218 84.2543 113.723 84.4488 114.244 84.4359L142.574 83.7043C143.095 83.6903 143.589 83.47 143.949 83.0917C144.308 82.7134 144.502 82.208 144.489 81.6865L144.125 67.5813C144.111 67.0598 143.891 66.5651 143.513 66.2059C143.135 65.8466 142.63 65.6521 142.108 65.665L113.779 66.3965Z" fill="#CCCCCC"/>
<path d="M107.249 50.9284C114.056 50.9284 119.575 45.4075 119.575 38.5972C119.575 31.7869 114.056 26.2661 107.249 26.2661C100.441 26.2661 94.9219 31.7869 94.9219 38.5972C94.9219 45.4075 100.441 50.9284 107.249 50.9284Z" fill="#D5D5D5"/>
<path d="M107.247 45.2307C107.108 45.2307 106.975 45.1754 106.876 45.077C106.778 44.9786 106.723 44.8452 106.723 44.706V32.5628C106.723 32.4236 106.778 32.2902 106.876 32.1918C106.975 32.0934 107.108 32.0381 107.247 32.0381C107.386 32.0381 107.52 32.0934 107.618 32.1918C107.716 32.2902 107.772 32.4236 107.772 32.5628V44.706C107.772 44.8452 107.716 44.9786 107.618 45.077C107.52 45.1754 107.386 45.2307 107.247 45.2307Z" fill="white"/>
<path d="M113.318 39.1593H101.179C101.04 39.1593 100.906 39.104 100.808 39.0056C100.71 38.9072 100.654 38.7738 100.654 38.6346C100.654 38.4954 100.71 38.362 100.808 38.2636C100.906 38.1652 101.04 38.1099 101.179 38.1099H113.318C113.457 38.1099 113.59 38.1652 113.689 38.2636C113.787 38.362 113.842 38.4954 113.842 38.6346C113.842 38.7738 113.787 38.9072 113.689 39.0056C113.59 39.104 113.457 39.1593 113.318 39.1593Z" fill="white"/>
<path d="M61.8762 78.4768H40.8945V54.864H61.8762C59.5847 57.946 60.7186 68.1867 61.8762 78.4768Z" fill="#FFB6B6"/>
<path d="M61.9969 138.73H65.7736L67.5704 124.156L61.9961 124.157L61.9969 138.73Z" fill="#FFB6B6"/>
<path d="M67.0301 139.07V136.508L66.0372 136.569L61.9955 136.809L61.0601 136.866L60.3449 145.444L60.3066 145.904H62.9883L63.0746 145.447L63.464 143.372L64.4697 145.447L64.69 145.904H71.7997C72.2228 145.901 72.6277 145.732 72.9266 145.432C73.2255 145.133 73.3941 144.727 73.3959 144.304C73.696 142.902 67.7835 139.871 67.0301 139.07Z" fill="#002880"/>
<path d="M17.75 134.617L21.0349 136.482L29.7867 124.694L24.9386 121.942L17.75 134.617Z" fill="#FFB6B6"/>
<path d="M21.9622 137.396L23.2232 135.17L22.3357 134.733L18.6994 132.948L17.8566 132.532L13.7159 138.597L12.7422 140.022L13.8436 140.648L15.0727 141.347L16.7392 139.38L16.554 142.187L22.3612 145.486H22.3644L22.738 145.697C23.1068 145.905 23.5432 145.959 23.9514 145.845C24.3597 145.732 24.7063 145.462 24.9152 145.093C25.8666 144.02 22.2208 138.469 21.9622 137.396Z" fill="#002880"/>
<path d="M40.1063 67.195C35.0453 70.5499 33.1824 102.782 34.4973 102.256L22.5684 124.495L39.5475 132.109L50.7116 93.331L52.5722 107.601L50.0913 130.248L61.0664 132.903L68.6575 132.36C66.685 105.366 64.9073 76.8959 60.8257 65.8832L40.1063 67.195Z" fill="#002880"/>
<path d="M55.8306 28.9319C55.8306 28.9319 50.2119 28.2049 48.5001 28.8899C47.891 29.1336 47.2819 31.3716 46.1396 32.0382C44.0715 33.2452 42.3838 33.0418 42.3838 33.0418C43.1916 43.3314 43.1477 51.3135 38.3146 66.2187C38.3101 66.5959 38.4024 66.9679 38.5828 67.2992C38.7632 67.6305 39.0256 67.9098 39.3448 68.1106C39.6641 68.3113 40.0295 68.4267 40.4061 68.4457C40.7827 68.4647 41.1579 68.3867 41.4957 68.2191L61.3513 66.6704L63.7052 54.2765L66.7866 47.7691L62.7944 39.5492L62.452 34.7542L57.4173 32.3006L55.8306 28.9319Z" fill="#0050FF"/>
<path d="M58.311 26.6572L58.3171 26.6577C58.6401 26.6856 58.961 26.584 59.2092 26.3752C59.4573 26.1665 59.6124 25.8677 59.6403 25.5445L60.2316 18.7453C60.3388 17.5272 60.2 16.3 59.8235 15.1367C59.0856 12.8663 57.5004 10.9683 55.3981 9.8382C54.3126 9.25626 53.1206 8.90021 51.8939 8.7915C46.8751 8.34677 45.0492 9.40391 42.0017 17.0767C38.9542 24.7495 41.4095 23.8863 41.4095 23.8863C41.395 24.0502 41.4137 24.2153 41.4644 24.3717C41.564 24.677 41.7776 24.932 42.0607 25.0835C42.2059 25.161 42.3652 25.2086 42.5292 25.2233C48.4687 26.6917 54.4623 28.2391 58.3121 26.6573L58.311 26.6572Z" fill="#002880"/>
<path d="M47.1987 15.2615C46.4617 16.3681 46.069 17.6684 46.0703 18.9981C46.0716 20.3278 46.4667 21.6273 47.2059 22.7325C47.945 23.8377 48.995 24.699 50.2231 25.2076C51.4513 25.7162 52.8026 25.8493 54.1063 25.5901C54.9694 25.4213 55.7904 25.0829 56.5218 24.5945C57.2532 24.106 57.8804 23.4773 58.3671 22.7446C59.1025 21.6384 59.4941 20.3391 59.4924 19.0105C59.4907 17.682 59.0959 16.3837 58.3576 15.2793C57.6194 14.175 56.5708 13.314 55.3441 12.8049C54.1174 12.2959 52.7674 12.1616 51.4645 12.4189C50.6008 12.5867 49.7789 12.9244 49.0467 13.4124C48.3144 13.9004 47.6862 14.529 47.1987 15.2617L47.1987 15.2615Z" fill="#FFB6B6"/>
<path d="M62.3388 19.4864C62.4235 18.523 62.3137 17.5525 62.016 16.6324C61.9334 14.3775 61.2657 12.339 58.5165 12.443C57.6634 11.9861 56.7271 11.7055 55.7634 11.6179L54.4036 11.4926C54.3883 11.4912 54.3731 11.4899 54.3578 11.4885C52.4552 11.3241 50.5653 11.9225 49.1038 13.152C47.6423 14.3816 46.7289 16.1415 46.5646 18.0448L46.5527 18.1809L49.4296 18.4431L50.6494 15.786L50.6066 18.5508L52.0925 18.6868L52.7076 17.3462L52.6864 18.7402C54.904 20.668 58.2478 20.7477 62.3257 19.6227L62.3388 19.4864Z" fill="#002880"/>
<path d="M53.1852 25.9952C53.2112 26.219 53.1738 26.4455 53.0775 26.649C53.0289 26.7533 52.966 26.8502 52.8906 26.937C52.826 27.0109 52.753 27.0769 52.6729 27.1337C52.4358 27.3011 52.1469 27.3786 51.8579 27.3522C51.8399 27.3505 51.8219 27.3484 51.8039 27.346C51.786 27.3436 51.7681 27.3407 51.7502 27.3375C51.7322 27.3344 51.7143 27.3308 51.6965 27.3267C51.6787 27.3226 51.6608 27.3182 51.6429 27.3134L50.6376 27.0388L49.4923 23.9096L49.2528 26.6637L44.6816 25.4232L45.698 13.7361L53.4799 14.451L53.268 14.6579C52.5639 15.3526 52.0651 16.2281 51.8264 17.1882C51.5896 18.161 51.5212 19.1672 51.6242 20.1632C51.7209 21.1703 51.914 22.1657 52.2009 23.1359C52.4507 23.995 52.7498 24.839 53.0967 25.6637C53.1416 25.7695 53.1714 25.8811 53.1852 25.9952Z" fill="#002880"/>
<path d="M39.9117 105.849L34.1957 71.4628C34.0808 70.7667 34.2467 70.0534 34.6568 69.4795C35.067 68.9055 35.688 68.5177 36.3836 68.4012L62.3436 64.0828C63.0395 63.9679 63.7525 64.1338 64.3263 64.5441C64.9 64.9544 65.2877 65.5756 65.4041 66.2714L71.1201 100.658C71.235 101.354 71.0692 102.067 70.659 102.641C70.2489 103.215 69.6279 103.603 68.9323 103.719L42.9723 108.038C42.2764 108.153 41.5634 107.987 40.9896 107.577C40.4158 107.166 40.0282 106.545 39.9117 105.849Z" fill="#D5D5D5"/>
<path d="M40.1768 95.1317L36.5021 73.025C36.3945 72.3731 36.5497 71.7051 36.9339 71.1675C37.318 70.63 37.8996 70.2668 38.551 70.1577L60.8615 66.4464C61.5132 66.3388 62.181 66.4941 62.7184 66.8784C63.2558 67.2626 63.6188 67.8444 63.7279 68.4961L68.8144 99.0953C68.922 99.7472 68.7666 100.415 68.3825 100.953C67.9984 101.49 67.4168 101.853 66.7653 101.963L52.9444 104.262C50.0415 104.741 47.067 104.049 44.6734 102.338C42.2799 100.626 40.6627 98.0345 40.1768 95.1317Z" fill="white"/>
<g clip-path="url(#clip1_10885_154376)">
<path d="M58.816 77.4989L58.6799 77.5472L54.2834 80.0967L48.7345 79.0814L44.0517 81.5232C43.8772 81.6135 43.7705 81.7919 43.8021 81.9935L45.8829 95.2485C45.9214 95.494 46.1445 95.6566 46.39 95.618L46.5261 95.5697L50.9226 93.0202L56.4715 94.0355L61.1543 91.5937C61.3288 91.5034 61.4355 91.325 61.4039 91.1234L59.3232 77.8684C59.2846 77.6229 59.0615 77.4603 58.816 77.4989ZM49.9511 81.1091L53.6503 81.786L55.2549 92.0078L51.5557 91.3309L49.9511 81.1091ZM45.7041 82.6651L48.195 81.3668L49.8051 91.6237L47.3348 93.0534L45.7041 82.6651ZM59.502 90.4518L57.011 91.7501L55.4023 81.502L57.8726 80.0722L59.502 90.4518Z" fill="#0050FF"/>
</g>
<path d="M36.824 75.0521C37.1007 74.7622 37.3113 74.4157 37.441 74.0364C37.5707 73.6571 37.6165 73.2542 37.5752 72.8555C37.534 72.4568 37.4066 72.0718 37.202 71.7272C36.9974 71.3826 36.7204 71.0865 36.3901 70.8595L39.1145 57.3369L35.5607 55.6635L32.4424 71.7481C32.1017 72.3326 31.9873 73.0218 32.1207 73.6851C32.2541 74.3484 32.6261 74.9397 33.1662 75.347C33.7063 75.7543 34.3769 75.9492 35.0511 75.8948C35.7253 75.8405 36.3561 75.5406 36.824 75.0521V75.0521Z" fill="#FFB6B6"/>
<path d="M42.468 33.0875C42.468 33.0875 36.2213 35.4391 35.8789 38.864C35.5365 42.289 34.7497 45.3417 35.0921 46.7117C35.4345 48.0817 33.9151 49.6385 34.5999 50.6659C35.2846 51.6934 33.6425 52.0313 34.3272 53.7438C35.012 55.4563 35.3544 55.7988 35.012 56.1413C34.6696 56.4838 33.5508 63.5218 33.5508 63.5218L38.4137 64.6015L44.7586 50.1664L42.468 33.0875Z" fill="#0050FF"/>
<path d="M65.1576 75.0521C64.8809 74.7622 64.6704 74.4157 64.5407 74.0364C64.411 73.6571 64.3651 73.2542 64.4064 72.8555C64.4477 72.4568 64.575 72.0718 64.7796 71.7272C64.9843 71.3825 65.2613 71.0865 65.5915 70.8595L62.8672 57.3369L66.4209 55.6635L69.5393 71.7481C69.8799 72.3326 69.9944 73.0218 69.861 73.6851C69.7275 74.3484 69.3556 74.9397 68.8155 75.347C68.2754 75.7543 67.6047 75.9492 66.9305 75.8948C66.2564 75.8405 65.6256 75.5406 65.1576 75.0521V75.0521Z" fill="#FFB6B6"/>
<path d="M61.082 34.4116C61.7322 34.4479 62.3609 34.6576 62.9027 35.019C63.4445 35.3803 63.8798 35.8801 64.1634 36.4666C65.1905 38.5215 69.0368 51.475 68.6945 52.5025C68.3521 53.53 69.9036 56.8482 69.2189 57.5332C68.5341 58.2182 67.9076 62.21 67.9076 62.21L62.9179 63.3556L61.3081 48.1114L61.082 34.4116Z" fill="#0050FF"/>
<path d="M178.967 81.3201C178.868 80.9855 178.844 80.6332 178.896 80.2881C178.947 79.9429 179.074 79.6133 179.267 79.3225C179.46 79.0317 179.714 78.7868 180.012 78.6049C180.31 78.4231 180.644 78.3087 180.991 78.27L182.864 69.996L185.916 73.1759L183.669 80.5455C183.696 81.1325 183.506 81.7088 183.136 82.1652C182.766 82.6217 182.242 82.9265 181.662 83.022C181.083 83.1175 180.488 82.997 179.992 82.6833C179.495 82.3696 179.13 81.8846 178.967 81.3201H178.967Z" fill="#A0616A"/>
<path d="M183.468 30.3461L183.618 31.0572L191.437 54.9852L186.178 76.3084L181.873 74.2948L182.888 55.3897C175.162 45.0705 172.89 41.3355 173.563 30.5955L183.468 30.3461Z" fill="#D5D5D5"/>
<path d="M176.805 142.371L172.959 142.37L171.129 127.529L176.806 127.529L176.805 142.371Z" fill="#A0616A"/>
<path d="M176.941 146.385L165.113 146.384V146.234C165.113 145.013 165.598 143.842 166.462 142.978C167.325 142.114 168.496 141.629 169.717 141.629H169.717L171.878 139.99L175.909 141.629L176.941 141.629L176.941 146.385Z" fill="#002880"/>
<path d="M155.668 142.371L151.822 142.37L149.992 127.529L155.669 127.529L155.668 142.371Z" fill="#A0616A"/>
<path d="M155.802 146.385L143.975 146.384V146.234C143.975 145.013 144.46 143.842 145.323 142.978C146.186 142.114 147.357 141.629 148.578 141.629H148.579L150.739 139.99L154.77 141.629L155.803 141.629L155.802 146.385Z" fill="#002880"/>
<path d="M181.482 74.2942C181.482 74.2942 183 77.8988 181.482 83.7801C179.965 89.6615 179.586 104.46 179.586 104.46L177.154 137.69H170.721L170.483 113.756L167.259 87.954L160.81 112.428C160.81 112.428 158.345 130.641 157.397 131.4C156.448 132.159 156.016 137.46 156.016 137.46C154.067 137.752 151.102 136.99 149.354 136.081C150.074 135.769 153.13 75.1915 153.224 74.2942C153.594 70.7846 181.482 74.2942 181.482 74.2942Z" fill="#002880"/>
<path d="M128.779 67.9218C129.127 67.9506 129.476 67.9028 129.804 67.7818C130.131 67.6608 130.428 67.4695 130.673 67.2214C130.918 66.9732 131.106 66.6743 131.224 66.3456C131.341 66.0169 131.385 65.6665 131.352 65.3191L139.068 61.7995L135.335 59.4578L128.58 63.159C128 63.2526 127.474 63.5557 127.103 64.011C126.732 64.4662 126.54 65.0419 126.565 65.629C126.589 66.216 126.828 66.7737 127.236 67.1963C127.644 67.6188 128.193 67.877 128.779 67.9217L128.779 67.9218Z" fill="#A0616A"/>
<path d="M158.819 38.5675L161.439 39.5804L154.097 54.1863L134.869 64.7874L133.428 60.2576L148 48.1776C153.098 33.3433 156.16 26.7153 159.839 26.8061L158.819 38.5675Z" fill="#D5D5D5"/>
<path d="M156.481 30.1852C156.815 28.9953 157.546 27.9558 158.553 27.24C159.561 26.5242 160.782 26.1755 162.016 26.2518C162.035 26.2532 162.055 26.2546 162.074 26.2561C163.713 26.3806 165.809 22.404 167.981 22.5732C169.509 22.6923 171.074 22.8156 172.542 22.9338C173.851 23.0391 175.083 27.2773 176.143 27.3676C178.147 27.5382 178.62 27.67 178.763 27.7178C179.332 27.9075 181.52 28.0573 182.899 29.6662C183.516 30.3864 185.97 37.2037 184.452 44.4131C182.935 51.6224 181.199 60.9613 181.199 60.9613C181.199 60.9613 182.716 65.472 181.958 67.3691C181.199 69.2663 182.716 70.5944 182.716 71.3533C182.716 72.1121 182.337 75.9065 182.337 75.9065C182.337 75.9065 155.32 78.7749 152.941 75.9065C152.863 75.8124 156.097 60.0875 154.758 47.4462C154.023 40.5068 155.393 34.0061 156.481 30.1852Z" fill="#D5D5D5"/>
<path d="M170.145 21.7476C174.456 21.7476 177.95 18.2519 177.95 13.9397C177.95 9.62753 174.456 6.13184 170.145 6.13184C165.834 6.13184 162.34 9.62753 162.34 13.9397C162.34 18.2519 165.834 21.7476 170.145 21.7476Z" fill="#A0616A"/>
<path d="M164.792 4.92521C165.351 4.90859 165.159 3.8538 165.61 3.51732C165.612 3.52752 165.615 3.53772 165.617 3.54788C165.676 3.77573 165.807 3.97857 165.99 4.12655C166.173 4.27452 166.398 4.35981 166.633 4.36984C166.869 4.37987 167.101 4.31413 167.296 4.18228C167.49 4.05044 167.638 3.85946 167.716 3.63748C167.791 3.38069 167.926 3.14562 168.111 2.95203C168.295 2.75844 168.523 2.612 168.776 2.52502C168.804 3.50268 169.544 4.35119 170.425 4.77345C171.307 5.19572 172.313 5.26599 173.291 5.28045C174.268 5.2949 175.26 5.26216 176.208 5.50148C177.156 5.74078 178.078 6.30345 178.483 7.19365C178.888 8.08385 178.599 9.30946 177.713 9.72377C178.399 9.72743 178.982 10.2938 179.219 10.9378C179.456 11.5819 179.42 12.2905 179.368 12.9749C179.175 15.4997 178.705 18.2179 176.867 19.9591C175.466 21.2861 173.461 21.8207 171.532 21.813C169.603 21.8053 169.942 21.6279 168.077 21.1353C168.077 21.1353 166.304 16.0497 166.75 15.5495C167.197 15.0492 167.568 14.409 167.487 13.7432C167.406 13.0774 166.691 12.481 166.07 12.7344C166.174 12.4675 166.253 12.4166 166.302 12.4302C166.271 12.3543 166.244 12.2769 166.22 12.1982C166.103 11.797 165.893 11.4294 165.607 11.1254C165.32 10.8214 164.965 10.5898 164.572 10.4496C164.175 10.3206 163.747 10.3163 163.347 10.4374C162.947 10.5585 162.594 10.7991 162.335 11.1269C160.292 9.21071 161.559 5.02124 164.792 4.92521Z" fill="#002880"/>
<path d="M197.187 146.629L0.811379 146.709C0.728713 146.709 0.649517 146.676 0.591148 146.618C0.532779 146.559 0.5 146.48 0.5 146.397C0.5 146.314 0.532779 146.235 0.591148 146.176C0.649517 146.118 0.728713 146.085 0.811379 146.085L197.187 146.004C197.27 146.004 197.349 146.037 197.408 146.096C197.466 146.154 197.499 146.234 197.499 146.316C197.499 146.399 197.466 146.479 197.408 146.537C197.349 146.596 197.27 146.629 197.187 146.629Z" fill="#CACACA"/>
</g>
<defs>
<clipPath id="clip0_10885_154376">
<rect width="197" height="146.419" fill="white" transform="translate(0.5 0.290527)"/>
</clipPath>
<clipPath id="clip1_10885_154376">
<rect width="21.2973" height="21.2973" fill="white" transform="translate(40.4316 77.6899) rotate(-8.92131)"/>
</clipPath>
</defs>
</svg>
