<svg width="41" height="40" viewBox="0 0 41 40" fill="none" xmlns="http://www.w3.org/2000/svg">
<path d="M33.6334 30.783C34.3667 29.6163 34.8001 28.2663 34.8001 26.7997C34.8001 22.6497 31.4501 19.2997 27.3001 19.2997C23.1501 19.2997 19.8001 22.6497 19.8001 26.7997C19.8001 30.9497 23.1501 34.2997 27.2834 34.2997C28.7501 34.2997 30.1167 33.8663 31.2667 33.133L36.4667 38.333L38.8334 35.9663L33.6334 30.783ZM27.3001 30.9663C25.0001 30.9663 23.1334 29.0997 23.1334 26.7997C23.1334 24.4997 25.0001 22.633 27.3001 22.633C29.6001 22.633 31.4667 24.4997 31.4667 26.7997C31.4667 29.0997 29.6001 30.9663 27.3001 30.9663ZM26.7001 16.7997C25.4667 16.833 24.2834 17.0997 23.2001 17.5497L22.2834 16.1663L15.9501 26.4663L10.9334 20.5997L4.88341 30.283L2.16675 28.333L10.5001 14.9997L15.5001 20.833L22.1667 9.99967L26.7001 16.7997ZM31.0167 17.633C29.9501 17.1663 28.8001 16.883 27.6001 16.8163L36.1334 3.33301L38.8334 5.29967L31.0167 17.633Z" fill="#6494FF"/>
</svg>
