<svg width="20" height="20" viewBox="0 0 20 20" fill="none" xmlns="http://www.w3.org/2000/svg">
<path d="M16.666 3.33301H3.33268C2.41602 3.33301 1.67435 4.08301 1.67435 4.99967L1.66602 14.9997C1.66602 15.9163 2.41602 16.6663 3.33268 16.6663H16.666C17.5827 16.6663 18.3327 15.9163 18.3327 14.9997V4.99967C18.3327 4.08301 17.5827 3.33301 16.666 3.33301ZM16.3327 6.87467L10.441 10.558C10.1743 10.7247 9.82435 10.7247 9.55768 10.558L3.66602 6.87467C3.45768 6.74134 3.33268 6.51634 3.33268 6.27467C3.33268 5.71634 3.94102 5.38301 4.41602 5.67467L9.99935 9.16634L15.5827 5.67467C16.0577 5.38301 16.666 5.71634 16.666 6.27467C16.666 6.51634 16.541 6.74134 16.3327 6.87467Z" fill="#8C9196"/>
</svg>
