<svg width="60" height="61" viewBox="0 0 60 61" fill="none" xmlns="http://www.w3.org/2000/svg">
<path d="M30 11.4214C17.5 11.4214 6.825 19.1964 2.5 30.1714C6.825 41.1464 17.5 48.9214 30 48.9214C42.5 48.9214 53.175 41.1464 57.5 30.1714C53.175 19.1964 42.5 11.4214 30 11.4214ZM30 42.6714C23.1 42.6714 17.5 37.0714 17.5 30.1714C17.5 23.2714 23.1 17.6714 30 17.6714C36.9 17.6714 42.5 23.2714 42.5 30.1714C42.5 37.0714 36.9 42.6714 30 42.6714ZM30 22.6714C25.85 22.6714 22.5 26.0214 22.5 30.1714C22.5 34.3214 25.85 37.6714 30 37.6714C34.15 37.6714 37.5 34.3214 37.5 30.1714C37.5 26.0214 34.15 22.6714 30 22.6714Z" fill="#FA8750" fill-opacity="0.85"/>
</svg>
