<svg width="56" height="56" viewBox="0 0 56 56" fill="none" xmlns="http://www.w3.org/2000/svg">
<path d="M56 27.8213C55.6754 28.5929 55.303 29.3431 54.885 30.0677C52.907 32.7908 52.0521 36.1793 52.4993 39.5232C52.6663 40.3892 52.5098 41.2868 52.0599 42.0437C51.61 42.8005 50.8984 43.3634 50.0618 43.6241C47.0657 44.9235 44.6926 47.3514 43.4493 50.3892C43.1649 51.2301 42.5883 51.939 41.8259 52.3854C41.0634 52.8318 40.1665 52.9856 39.3004 52.8184C35.797 52.6109 32.3238 53.575 29.4206 55.561C28.8955 55.8491 28.3071 56 27.7092 56C27.1112 56 26.5228 55.8491 25.9977 55.561C23.0274 53.4748 19.4058 52.5466 15.8068 52.949C15.0748 53.0808 14.3203 52.942 13.6818 52.5581C13.0434 52.1741 12.5641 51.5709 12.332 50.8594C10.8343 47.5696 8.26253 44.8961 5.04535 43.2845C4.49446 42.9529 4.03491 42.4875 3.70874 41.9308C3.38257 41.3741 3.2002 40.7439 3.17831 40.0978C3.36234 36.4048 2.38207 32.7477 0.37775 29.6497C0.129408 29.1559 0 28.61 0 28.0564C0 27.5028 0.129408 26.957 0.37775 26.4631C2.47656 23.4103 3.44896 19.7141 3.12645 16.015C2.97166 15.2861 3.0798 14.5255 3.43148 13.8697C3.78315 13.2139 4.35533 12.7057 5.04535 12.4365C8.27672 11.0486 10.8504 8.45613 12.2283 5.20119C12.4682 4.44719 12.9782 3.81016 13.6589 3.41421C14.3396 3.01826 15.1422 2.89175 15.9105 3.05933C19.4089 3.37314 22.9056 2.43943 25.7902 0.42119C26.3558 0.144026 26.9765 0 27.6054 0C28.2344 0 28.8551 0.144026 29.4206 0.42119C32.4679 2.35455 36.0437 3.26873 39.6375 3.03321C40.281 3.04547 40.9104 3.22507 41.4647 3.55458C42.019 3.8841 42.4794 4.35234 42.8011 4.91387C44.529 8.22675 47.2516 10.9052 50.5804 12.5671C51.0436 12.849 51.441 13.2283 51.7453 13.6791C52.0496 14.1299 52.2537 14.6416 52.3437 15.1791C51.9191 19.1782 52.9918 23.1928 55.3517 26.437C55.6094 26.8775 55.8264 27.3409 56 27.8213ZM42.3862 32.4968C41.0401 32.5008 39.6994 32.6674 38.3928 32.9931C36.8156 33.664 35.2976 34.4679 33.8548 35.3962C30.4295 37.6508 26.8702 39.692 23.1971 41.5083C22.3466 42.0218 21.3678 42.2789 20.3767 42.2492C19.3855 42.2195 18.4236 41.9042 17.6049 41.3407C16.7863 40.7772 16.1451 39.989 15.7575 39.0697C15.3698 38.1504 15.2519 37.1384 15.4178 36.1537C15.6206 33.7781 15.9496 31.4152 16.4032 29.0751C16.6366 27.1422 17.9072 27.1161 19.2037 27.5079C21.0449 28.0303 22.7822 28.8661 24.6233 29.4408C26.1262 30.1377 27.8349 30.237 29.4073 29.7188C30.9798 29.2005 32.2997 28.1029 33.1028 26.6459L20.1373 22.9891L20.9671 20.3771L12.1245 28.4743L15.4178 27.743C14.7078 31.7363 14.2058 35.7643 13.9138 39.8105C13.7582 45.4525 16.7144 47.6466 22.0562 45.8704C25.4193 44.4226 28.5971 42.5722 31.521 40.359C35.0217 37.9821 38.4187 35.344 42.3862 32.4968ZM20.9152 48.4041C24.4937 50.8333 27.3202 51.0161 29.9652 49.1354C31.9619 47.6988 33.803 46.0271 35.7219 44.486C38.9633 41.874 41.3489 38.0605 45.8609 37.2246C45.6656 36.8225 45.382 36.4704 45.0316 36.1951C44.6812 35.9197 44.2732 35.7282 43.8385 35.6351C43.4038 35.5419 42.9537 35.5497 42.5224 35.6576C42.0911 35.7656 41.6898 35.9709 41.3489 36.2582C39.1966 37.6687 37.0962 39.1314 35.0736 40.7247C30.795 44.042 26.9571 47.9862 20.9152 48.4041ZM26.257 3.99966C22.3155 9.22371 22.3155 9.40655 25.9977 13.3507C30.1207 8.80579 29.5503 7.57814 26.257 4.07802V3.99966ZM25.4272 16.3807C27.4239 16.5635 30.4319 16.015 32.3508 17.2165C34.2697 18.418 34.7883 21.3174 35.7737 23.1719C36.4771 21.9058 36.7772 20.4525 36.6334 19.0089C36.4896 17.5652 35.9089 16.201 34.9699 15.1008C32.9991 13.5597 27.6573 14.5261 25.4272 16.3807Z" fill="#8C9196"/>
</svg>
