<svg width="32" height="32" viewBox="0 0 32 32" fill="none" xmlns="http://www.w3.org/2000/svg">
<path d="M28.1199 20.5724L22.0665 17.559C21.8399 17.4657 21.5999 17.4124 21.3465 17.4124H20.3332V9.41235C20.3332 8.30569 19.4399 7.41235 18.3332 7.41235C17.2265 7.41235 16.3332 8.30569 16.3332 9.41235V23.7324L11.7599 22.7724C11.6532 22.759 11.5599 22.7324 11.4399 22.7324C11.0265 22.7324 10.6532 22.9057 10.3865 23.1724L9.33319 24.239L15.9199 30.8257C16.2799 31.1857 16.7865 31.4124 17.3332 31.4124H26.3865C27.3865 31.4124 28.1599 30.679 28.3065 29.7057L29.3065 22.679C29.3199 22.5857 29.3332 22.4924 29.3332 22.4124C29.3332 21.5857 28.8265 20.8657 28.1199 20.5724Z" fill="white"/>
<path d="M8.66667 3.14444L9.69697 4.27042L11.8896 6.66667L13.3232 5.1L8.66667 0L4 5.1L5.44372 6.66667L7.75758 4.13795L8.66667 3.14444ZM8.66667 16.8556L7.75758 15.8621L5.44372 13.3333L4.01017 14.9L8.66667 20L13.3333 14.9L11.8896 13.3333L9.69697 15.7296L8.66667 16.8556Z" fill="white"/>
<path d="M9.69697 4.27042L8.66667 3.14444L7.75758 4.13795V15.8621L8.66667 16.8556L9.69697 15.7296V4.27042Z" fill="white"/>
</svg>
