<svg width="41" height="40" viewBox="0 0 41 40" fill="none" xmlns="http://www.w3.org/2000/svg">
<path d="M33.8333 10C33.8333 8.16667 32.3333 6.66667 30.5 6.66667H23.8333C23.8333 4.36667 21.9667 2.5 19.6667 2.5C17.3667 2.5 15.5 4.36667 15.5 6.66667H8.85C7.01667 6.66667 5.51667 8.16667 5.51667 10V16.3333C10 16.3333 10.5 19.9333 10.5 20.8333C10.5 21.7333 10.0167 25.3333 5.5 25.3333V31.6667C5.5 33.5 7 35 8.83333 35H15.1667C15.1667 31.4 17.45 30.3667 18.8333 30.1V14.6L33.8333 22.1V10Z" fill="#6494FF"/>
<path d="M22.1667 20V26.6667L28.8334 28.3333L22.1667 30V36.6667L38.8334 28.3333L22.1667 20Z" fill="#6494FF"/>
</svg>
