<svg width="25" height="24" viewBox="0 0 25 24" fill="none" xmlns="http://www.w3.org/2000/svg">
<path d="M12.4995 1C12.3633 1.00016 12.2286 1.02813 12.1036 1.08219C11.9787 1.13624 11.8661 1.21525 11.7727 1.31436C11.6794 1.41348 11.6072 1.53061 11.5608 1.65858C11.5143 1.78655 11.4944 1.92267 11.5024 2.05859C7.00777 2.55673 3.49945 6.37479 3.49945 11V11.5H2.74945C2.65007 11.4986 2.5514 11.517 2.45917 11.554C2.36694 11.5911 2.283 11.6461 2.21222 11.7159C2.14145 11.7857 2.08525 11.8688 2.04688 11.9605C2.00852 12.0522 1.98877 12.1506 1.98877 12.25C1.98877 12.3494 2.00852 12.4478 2.04688 12.5395C2.08525 12.6312 2.14145 12.7143 2.21222 12.7841C2.283 12.8539 2.36694 12.9089 2.45917 12.946C2.5514 12.983 2.65007 13.0014 2.74945 13H5.11469C5.03254 13.2514 4.99376 13.5124 4.99945 13.7666C5.0108 14.2658 5.201 14.6287 5.32269 14.9004C5.6452 15.6199 5.69228 16.1656 5.78949 16.7598C5.86353 17.2123 6.00939 17.7452 6.36762 18.2021L5.69476 20.1064C5.55676 20.4969 5.76227 20.926 6.15277 21.0635C6.54227 21.202 11.1236 22.8195 11.5141 22.957C11.5966 22.986 11.6811 23 11.7641 23C12.0731 23 12.3631 22.8075 12.4721 22.5L13.2836 20.2021C13.3964 19.9624 13.8871 19.3523 14.4623 18.8018C15.0445 18.2446 15.7161 17.6952 16.185 17.3603C17.8973 16.1373 19.514 15.2232 19.52 15.2197L19.5248 15.2178L19.5287 15.2148C20.292 14.7568 20.6463 13.8456 20.4282 13H22.2495C22.3488 13.0014 22.4475 12.983 22.5397 12.946C22.632 12.9089 22.7159 12.8539 22.7867 12.7841C22.8575 12.7143 22.9137 12.6312 22.952 12.5395C22.9904 12.4478 23.0101 12.3494 23.0101 12.25C23.0101 12.1506 22.9904 12.0522 22.952 11.9605C22.9137 11.8688 22.8575 11.7857 22.7867 11.7159C22.7159 11.6461 22.632 11.5911 22.5397 11.554C22.4475 11.517 22.3488 11.4986 22.2495 11.5H21.4995V11C21.4995 6.37479 17.9911 2.55673 13.4965 2.05859C13.5045 1.92267 13.4846 1.78655 13.4382 1.65858C13.3917 1.53061 13.3195 1.41348 13.2262 1.31436C13.1328 1.21525 13.0202 1.13624 12.8953 1.08219C12.7703 1.02813 12.6356 1.00016 12.4995 1ZM7.17133 13H7.27484C7.45481 13.0168 7.62469 13.1016 7.75433 13.2393C7.77702 13.2768 7.80328 13.3205 7.8393 13.3799C7.92593 13.5228 8.04516 13.7179 8.18598 13.9346C8.46761 14.3679 8.81905 14.8801 9.21918 15.2803C9.90585 15.9669 10.7775 16 11.2495 16C12.0172 16 12.6927 15.6459 13.5512 15.2363C14.4098 14.8268 15.3401 14.3218 16.1049 13.9102C16.3116 13.799 16.7101 13.5722 17.183 13.3652C17.656 13.1583 18.1981 13 18.4887 13C18.6988 13 18.8893 13.1217 18.9662 13.3203C19.055 13.5516 18.9691 13.8009 18.7563 13.9287C18.7429 13.9364 17.0976 14.8656 15.3139 16.1396C14.7688 16.5288 14.0663 17.1042 13.4252 17.7178C12.9822 18.1418 12.5782 18.5579 12.267 18.9961L7.61566 17.3525C7.38027 17.1446 7.34426 16.9777 7.26898 16.5176C7.18544 16.007 7.11085 15.2241 6.69086 14.2871H6.69183C6.5685 14.0118 6.50111 13.8062 6.49945 13.7334C6.49408 13.4933 6.56081 13.3233 6.71527 13.1895C6.85762 13.0662 7.01596 13.0085 7.17133 13ZM9.37055 13H14.6264C14.0521 13.3067 13.4599 13.6184 12.9057 13.8828C12.1002 14.267 11.2927 14.5 11.2495 14.5C10.7775 14.5 10.593 14.533 10.2797 14.2197C10.0389 13.9789 9.70065 13.5124 9.44379 13.1172C9.41456 13.0722 9.39786 13.0429 9.37055 13ZM10.7495 20C11.1635 20 11.4995 20.336 11.4995 20.75C11.4995 21.164 11.1635 21.5 10.7495 21.5C10.3355 21.5 9.99945 21.164 9.99945 20.75C9.99945 20.336 10.3355 20 10.7495 20Z" fill="#00283C"/>
</svg>
