<svg width="40" height="40" viewBox="0 0 40 40" fill="none" xmlns="http://www.w3.org/2000/svg">
<path d="M11.6667 29.9997C9.83341 29.9997 8.35008 31.4997 8.35008 33.333C8.35008 35.1663 9.83341 36.6663 11.6667 36.6663C13.5001 36.6663 15.0001 35.1663 15.0001 33.333C15.0001 31.4997 13.5001 29.9997 11.6667 29.9997ZM28.3334 29.9997C26.5001 29.9997 25.0167 31.4997 25.0167 33.333C25.0167 35.1663 26.5001 36.6663 28.3334 36.6663C30.1667 36.6663 31.6667 35.1663 31.6667 33.333C31.6667 31.4997 30.1667 29.9997 28.3334 29.9997ZM13.5001 21.6663H25.9167C27.1667 21.6663 28.2667 20.983 28.8334 19.9497L35.0001 8.26634L32.0834 6.66634L25.9167 18.333H14.2167L7.11675 3.33301H1.66675V6.66634H5.00008L11.0001 19.3163L8.75008 23.383C7.53341 25.6163 9.13341 28.333 11.6667 28.333H31.6667V24.9997H11.6667L13.5001 21.6663ZM20.0001 3.33301L26.6667 9.99967L20.0001 16.6663L17.6501 14.3163L20.2834 11.6663H13.3334V8.33301H20.2834L17.6334 5.68301L20.0001 3.33301Z" fill="#6494FF"/>
</svg>
