<svg width="60" height="61" viewBox="0 0 60 61" fill="none" xmlns="http://www.w3.org/2000/svg">
<path d="M17.5 45.6667C14.75 45.6667 12.525 47.9167 12.525 50.6667C12.525 53.4167 14.75 55.6667 17.5 55.6667C20.25 55.6667 22.5 53.4167 22.5 50.6667C22.5 47.9167 20.25 45.6667 17.5 45.6667ZM2.5 5.66675V10.6667H7.5L16.5 29.6417L13.125 35.7667C12.725 36.4667 12.5 37.2917 12.5 38.1667C12.5 40.9167 14.75 43.1667 17.5 43.1667H47.5V38.1667H18.55C18.2 38.1667 17.925 37.8917 17.925 37.5417L18 37.2417L20.25 33.1667H38.875C40.75 33.1667 42.4 32.1417 43.25 30.5917L52.2 14.3667C52.4 14.0167 52.5 13.5917 52.5 13.1667C52.5 11.7917 51.375 10.6667 50 10.6667H13.025L10.675 5.66675H2.5ZM42.5 45.6667C39.75 45.6667 37.525 47.9167 37.525 50.6667C37.525 53.4167 39.75 55.6667 42.5 55.6667C45.25 55.6667 47.5 53.4167 47.5 50.6667C47.5 47.9167 45.25 45.6667 42.5 45.6667Z" fill="#F0F0F0"/>
</svg>
