<svg width="60" height="61" viewBox="0 0 60 61" fill="none" xmlns="http://www.w3.org/2000/svg">
<path d="M20 45.5C17.25 45.5 15.025 47.75 15.025 50.5C15.025 53.25 17.25 55.5 20 55.5C22.75 55.5 25 53.25 25 50.5C25 47.75 22.75 45.5 20 45.5ZM5 5.5V10.5H10L19 29.475L15.625 35.6C15.225 36.3 15 37.125 15 38C15 40.75 17.25 43 20 43H50V38H21.05C20.7 38 20.425 37.725 20.425 37.375L20.5 37.075L22.75 33H41.375C43.25 33 44.9 31.975 45.75 30.425L54.7 14.2C54.9 13.85 55 13.425 55 13C55 11.625 53.875 10.5 52.5 10.5H15.525L13.175 5.5H5ZM45 45.5C42.25 45.5 40.025 47.75 40.025 50.5C40.025 53.25 42.25 55.5 45 55.5C47.75 55.5 50 53.25 50 50.5C50 47.75 47.75 45.5 45 45.5Z" fill="#FA8750" fill-opacity="0.85"/>
</svg>
