<svg width="34" height="39" viewBox="0 0 34 39" fill="none" xmlns="http://www.w3.org/2000/svg">
<path fill-rule="evenodd" clip-rule="evenodd" d="M17 0.666748C12.6277 0.666748 9.08333 4.21116 9.08333 8.58341V9.30966C8.44892 9.43489 7.86251 9.61368 7.29936 9.87184C5.62363 10.64 4.20502 11.8752 3.2136 13.4294C2.61353 14.37 2.25747 15.4222 1.97776 16.7059C1.70371 17.9635 1.48596 19.5314 1.20892 21.5261L1.19358 21.6366C0.837072 24.2034 0.558374 26.2099 0.473725 27.8262C0.38778 29.4672 0.49175 30.8348 0.985417 32.0903C1.79229 34.1423 3.2821 35.8533 5.20362 36.9348C6.37927 37.5965 7.7195 37.8876 9.35676 38.0283C10.9693 38.1668 12.9951 38.1668 15.5866 38.1667H18.4134C21.0049 38.1668 23.0307 38.1668 24.6432 38.0283C26.2805 37.8876 27.6207 37.5965 28.7964 36.9348C30.7179 35.8533 32.2077 34.1423 33.0146 32.0903C33.5082 30.8348 33.6122 29.4672 33.5263 27.8262C33.4416 26.2099 33.1629 24.2033 32.8064 21.6364L32.7911 21.526C32.514 19.5314 32.2963 17.9635 32.0222 16.7059C31.7425 15.4222 31.3865 14.37 30.7864 13.4294C29.795 11.8752 28.3764 10.64 26.7006 9.87184C26.1375 9.61368 25.5511 9.43489 24.9167 9.30966V8.58341C24.9167 4.21116 21.3722 0.666748 17 0.666748ZM10.3333 18.1667C9.64297 18.1667 9.08333 17.6071 9.08333 16.9167V11.8761C8.81187 11.9514 8.56851 12.0402 8.34116 12.1444C7.10258 12.7122 6.05404 13.6252 5.32126 14.7739C4.94299 15.3668 4.66836 16.1004 4.42044 17.2381C4.16918 18.3912 3.96373 19.8642 3.67805 21.9211C3.31155 24.56 3.04868 26.4605 2.9703 27.957C2.89258 29.4411 3.00647 30.3984 3.31202 31.1754C3.9084 32.6922 5.00957 33.9568 6.42982 34.7562C7.15747 35.1657 8.08997 35.4102 9.5707 35.5374C11.0637 35.6657 12.9823 35.6667 15.6465 35.6667H18.3535C21.0177 35.6667 22.9363 35.6657 24.4293 35.5374C25.91 35.4102 26.8425 35.1657 27.5702 34.7562C28.9904 33.9568 30.0916 32.6922 30.688 31.1754C30.9935 30.3984 31.1074 29.4411 31.0297 27.957C30.9513 26.4605 30.6884 24.56 30.3219 21.9211C30.0363 19.8642 29.8308 18.3912 29.5796 17.2381C29.3316 16.1004 29.057 15.3668 28.6787 14.7739C27.946 13.6252 26.8974 12.7122 25.6588 12.1444C25.4315 12.0402 25.1881 11.9514 24.9167 11.8761V16.9167C24.9167 17.6071 24.357 18.1667 23.6667 18.1667C22.9763 18.1667 22.4167 17.6071 22.4167 16.9167V11.5501C21.3602 11.5009 20.0564 11.5001 18.3535 11.5001H15.6465C13.9436 11.5001 12.6398 11.5009 11.5833 11.5501V16.9167C11.5833 17.6071 11.0237 18.1667 10.3333 18.1667ZM18.429 9.00008C19.9954 9.00007 21.3035 9.00006 22.4167 9.04784V8.58341C22.4167 5.59187 19.9915 3.16675 17 3.16675C14.0085 3.16675 11.5833 5.59187 11.5833 8.58341V9.04784C12.6965 9.00006 14.0046 9.00007 15.571 9.00008H18.429Z" fill="#5C5F62"/>
</svg>
