<svg width="25" height="24" viewBox="0 0 25 24" fill="none" xmlns="http://www.w3.org/2000/svg">
<path d="M15.664 10.46C15.7187 10.9959 15.75 11.5146 15.75 12C15.75 12.9087 15.6402 13.9348 15.4722 14.9722C14.4348 15.1402 13.4087 15.25 12.5 15.25C11.5954 15.25 10.5697 15.1405 9.52773 14.9719C9.35982 13.9345 9.25 12.9086 9.25 12C9.25 11.5148 9.28132 10.996 9.33609 10.46C10.4296 10.6351 11.5205 10.75 12.5 10.75C13.4796 10.75 14.5705 10.6351 15.664 10.46Z" fill="#0050FF"/>
<path d="M17.1431 10.1899C17.2107 10.8171 17.25 11.4277 17.25 12C17.25 12.8352 17.1664 13.7514 17.0333 14.6812C18.9214 14.2872 20.6667 13.7839 21.6016 13.4974C21.9038 13.4047 22.0224 13.3679 22.1817 13.3042C22.2613 13.2724 22.3343 13.24 22.4294 13.1945C22.476 12.8029 22.5 12.4042 22.5 12C22.5 10.9314 22.3324 9.90204 22.0221 8.93663L21.9412 8.96207C20.9637 9.25947 19.1335 9.78524 17.1431 10.1899Z" fill="#0050FF"/>
<path d="M21.454 7.54236C20.4712 7.8402 18.7657 8.32419 16.938 8.70098C16.517 6.14215 15.779 3.59001 15.424 2.43427C18.064 3.24025 20.2403 5.10921 21.454 7.54236Z" fill="#0050FF"/>
<path d="M15.4635 8.97361C14.4289 9.14077 13.406 9.25 12.5 9.25C11.594 9.25 10.5712 9.14078 9.5366 8.97362C9.93306 6.55243 10.6408 4.0791 11.0026 2.89841C11.0953 2.59625 11.1321 2.47756 11.1958 2.31826C11.2276 2.23869 11.26 2.1657 11.3055 2.07061C11.6971 2.02399 12.0958 2 12.5 2C12.9223 2 13.3384 2.02617 13.7469 2.07699C13.7556 2.11013 13.7636 2.1398 13.7715 2.16786C13.7949 2.25079 13.8316 2.36734 13.8931 2.56289L13.8996 2.58344C14.2081 3.56403 15.0256 6.29906 15.4635 8.97361Z" fill="#0050FF"/>
<path d="M8.06194 8.70095C8.48105 6.1534 9.21415 3.61501 9.56849 2.45887L9.57603 2.43426C6.93597 3.24024 4.75972 5.10919 3.54604 7.54234C4.52874 7.84018 6.23424 8.32415 8.06194 8.70095Z" fill="#0050FF"/>
<path d="M2.97794 8.93662C2.6676 9.90204 2.5 10.9314 2.5 12C2.5 12.418 2.52565 12.83 2.57546 13.2346L2.73306 13.2871L2.73431 13.2875L2.73586 13.288L2.73694 13.2884C2.78767 13.3052 4.27434 13.7962 6.23217 14.2833C6.78463 14.4207 7.36959 14.5566 7.96672 14.6811C7.83357 13.7513 7.75 12.8351 7.75 12C7.75 11.4275 7.78928 10.8169 7.85688 10.1899C5.86598 9.78511 4.03541 9.25916 3.05806 8.9618L3.05127 8.95973L2.97794 8.93662Z" fill="#0050FF"/>
<path d="M12.5 16.75C13.3352 16.75 14.2514 16.6664 15.1812 16.5333C14.7872 18.4214 14.2839 20.1667 13.9974 21.1016C13.9048 21.4037 13.8679 21.5224 13.8042 21.6817C13.7724 21.7613 13.74 21.8343 13.6945 21.9294C13.3029 21.976 12.9042 22 12.5 22C12.0958 22 11.6971 21.976 11.3055 21.9294C11.26 21.8343 11.2276 21.7613 11.1958 21.6817C11.1321 21.5224 11.0953 21.4038 11.0026 21.1016C10.7161 20.1668 10.2128 18.4216 9.81884 16.5336C10.7456 16.6663 11.662 16.75 12.5 16.75Z" fill="#0050FF"/>
<path d="M5.87 15.7389C4.63193 15.4309 3.57748 15.1215 2.93425 14.924C3.90246 18.0954 6.40459 20.5975 9.57603 21.5657L9.56849 21.5411C9.2591 20.5316 8.66092 18.4683 8.23515 16.2651C7.40715 16.105 6.60212 15.9211 5.87 15.7389Z" fill="#0050FF"/>
<path d="M22.0411 14.9315C21.0316 15.2409 18.9681 15.8391 16.7649 16.2649C16.3391 18.4681 15.7409 20.5316 15.4315 21.5411L15.424 21.5657C18.5954 20.5975 21.0975 18.0954 22.0657 14.924L22.0411 14.9315Z" fill="#0050FF"/>
<path d="M2.60505 13.26C2.63967 13.2645 2.66788 13.2692 2.67724 13.2713C2.68545 13.2734 2.69829 13.2767 2.70296 13.278L2.71325 13.281L2.71879 13.2826L2.72462 13.2844L2.7295 13.286C2.72676 13.2851 2.6712 13.2712 2.60505 13.26Z" fill="#0050FF"/>
</svg>
