<svg width="41" height="40" viewBox="0 0 41 40" fill="none" xmlns="http://www.w3.org/2000/svg">
<path d="M33.8333 3.33301H7.16659C5.33325 3.33301 3.84992 4.83301 3.84992 6.66634L3.83325 36.6663L10.4999 29.9997H33.8333C35.6666 29.9997 37.1666 28.4997 37.1666 26.6663V6.66634C37.1666 4.83301 35.6666 3.33301 33.8333 3.33301ZM13.8333 23.333H10.4999V19.9997H13.8333V23.333ZM13.8333 18.333H10.4999V14.9997H13.8333V18.333ZM13.8333 13.333H10.4999V9.99967H13.8333V13.333ZM25.4999 23.333H17.1666V19.9997H25.4999V23.333ZM30.4999 18.333H17.1666V14.9997H30.4999V18.333ZM30.4999 13.333H17.1666V9.99967H30.4999V13.333Z" fill="#6494FF"/>
</svg>
