<svg width="60" height="61" viewBox="0 0 60 61" fill="none" xmlns="http://www.w3.org/2000/svg">
<path d="M29.975 5.17139C16.175 5.17139 5 16.3714 5 30.1714C5 43.9714 16.175 55.1714 29.975 55.1714C43.8 55.1714 55 43.9714 55 30.1714C55 16.3714 43.8 5.17139 29.975 5.17139ZM30 50.1714C18.95 50.1714 10 41.2214 10 30.1714C10 19.1214 18.95 10.1714 30 10.1714C41.05 10.1714 50 19.1214 50 30.1714C50 41.2214 41.05 50.1714 30 50.1714ZM38.75 27.6714C40.825 27.6714 42.5 25.9964 42.5 23.9214C42.5 21.8464 40.825 20.1714 38.75 20.1714C36.675 20.1714 35 21.8464 35 23.9214C35 25.9964 36.675 27.6714 38.75 27.6714ZM21.25 27.6714C23.325 27.6714 25 25.9964 25 23.9214C25 21.8464 23.325 20.1714 21.25 20.1714C19.175 20.1714 17.5 21.8464 17.5 23.9214C17.5 25.9964 19.175 27.6714 21.25 27.6714ZM30 43.9214C35.825 43.9214 40.775 40.2714 42.775 35.1714H17.225C19.225 40.2714 24.175 43.9214 30 43.9214Z" fill="#FA8750" fill-opacity="0.85"/>
</svg>
