<?xml version="1.0" encoding="UTF-8"?>
<svg width="60px" height="60px" viewBox="0 0 60 60" version="1.1" xmlns="http://www.w3.org/2000/svg" xmlns:xlink="http://www.w3.org/1999/xlink">
    <title>icons8-telegram_app</title>
    <g id="Website" stroke="none" stroke-width="1" fill="none" fill-rule="evenodd">
        <g id="icons8-telegram_app" fill-rule="nonzero">
            <path d="M30,0 C13.4314575,0 5.32907052e-15,13.4314575 5.32907052e-15,30 C5.32907052e-15,46.5685425 13.4314575,60 30,60 C46.5685425,60 60,46.5685425 60,30 C60,13.4314575 46.5685425,0 30,0 Z" id="Path" fill="#29B6F6"></path>
            <path d="M44.925,16.4999952 L39.306,45.189 C39.306,45.189 39.0645,46.4999952 37.4385,46.4999952 C36.5745,46.4999952 36.129,46.089 36.129,46.089 L23.958,35.9895 L18.003,32.988 L10.3605,30.9555 C10.3605,30.9555 9,30.5625 9,29.4375 C9,28.4999952 10.3995,28.053 10.3995,28.053 L42.3735,15.351 C42.372,15.3495 43.35,14.9985 44.0625,14.9999952 C44.5005,14.9999952 45,15.1875 45,15.75 C45,16.125 44.925,16.4999952 44.925,16.4999952 Z" id="Path" fill="#FFFFFF"></path>
            <path d="M28.5,39.7575 L23.361,44.8185 C23.361,44.8185 23.1375,44.991 22.839,44.9985 C22.7355,45.0015 22.6245,44.985 22.5105,44.934 L23.9565,35.9865 L28.5,39.7575 Z" id="Path" fill="#B0BEC5"></path>
            <path d="M38.8455,21.294 C38.592,20.964 38.124,20.904 37.794,21.1545 L18,33 C18,33 21.159,41.838 21.6405,43.368 C22.1235,44.8995 22.5105,44.9355 22.5105,44.9355 L23.9565,35.988 L38.7045,22.344 C39.0345,22.0935 39.096,21.624 38.8455,21.294 Z" id="Path" fill="#CFD8DC"></path>
        </g>
    </g>
</svg>