<svg width="17" height="13" viewBox="0 0 17 13" fill="none" xmlns="http://www.w3.org/2000/svg">
<path d="M16.7195 2.1684C16.9736 1.86345 16.9324 1.41024 16.6275 1.15611C16.3225 0.901987 15.8693 0.943188 15.6152 1.24814L10.4491 7.44742C9.41139 8.69268 8.6814 9.56597 8.04823 10.1377C7.42982 10.6961 7.00304 10.8736 6.584 10.8736C6.16496 10.8736 5.73818 10.6961 5.11978 10.1377C4.48661 9.56597 3.75661 8.69267 2.71889 7.44741L1.38616 5.84814C1.13204 5.54319 0.678819 5.50199 0.37387 5.75611C0.0689209 6.01024 0.0277192 6.46345 0.281843 6.7684L1.65156 8.41206C2.64369 9.60266 3.43823 10.5561 4.15637 11.2046C4.89817 11.8745 5.65647 12.3111 6.584 12.3111C7.51154 12.3111 8.26983 11.8745 9.01163 11.2046C9.72976 10.5561 10.5243 9.60268 11.5164 8.4121L16.7195 2.1684Z" fill="white"/>
</svg>
