<svg width="40" height="40" viewBox="0 0 40 40" fill="none" xmlns="http://www.w3.org/2000/svg">
<path d="M29.2646 15.8338C29.7251 15.3194 29.6815 14.5292 29.1671 14.0687C28.6528 13.6082 27.8625 13.6519 27.402 14.1662L21.7868 20.4382C20.6489 21.7091 19.8827 22.5605 19.2275 23.1111C18.6034 23.6357 18.2369 23.75 17.9167 23.75C17.5965 23.75 17.2299 23.6357 16.6058 23.1111C15.9507 22.5605 15.1844 21.7091 14.0466 20.4382L12.598 18.8202C12.1375 18.3058 11.3472 18.2622 10.8329 18.7226C10.3185 19.1831 10.2749 19.9734 10.7354 20.4877L12.2459 22.1749C13.3057 23.3587 14.1896 24.346 14.9973 25.0249C15.8516 25.743 16.7732 26.25 17.9167 26.25C19.0601 26.25 19.9817 25.743 20.8361 25.0249C21.6437 24.346 22.5277 23.3587 23.5874 22.1749L29.2646 15.8338Z" fill="#fff"/>
<path fill-rule="evenodd" clip-rule="evenodd" d="M27.4392 3.95621C25.5356 3.74998 23.1363 3.74999 20.0754 3.75H19.9246C16.8637 3.74999 14.4644 3.74998 12.5608 3.95621C10.6182 4.16668 9.04426 4.60387 7.70039 5.58025C6.88682 6.17135 6.17135 6.88682 5.58025 7.70039C4.60387 9.04426 4.16668 10.6182 3.95621 12.5608C3.74998 14.4644 3.74999 16.8637 3.75 19.9246V20.0754C3.74999 23.1363 3.74998 25.5356 3.95621 27.4392C4.16668 29.3818 4.60387 30.9557 5.58025 32.2996C6.17135 33.1132 6.88682 33.8286 7.70039 34.4197C9.04426 35.3961 10.6182 35.8333 12.5608 36.0438C14.4643 36.25 16.8636 36.25 19.9244 36.25H20.0755C23.1363 36.25 25.5357 36.25 27.4392 36.0438C29.3818 35.8333 30.9557 35.3961 32.2996 34.4197C33.1132 33.8287 33.8287 33.1132 34.4197 32.2996C35.3961 30.9557 35.8333 29.3818 36.0438 27.4392C36.25 25.5357 36.25 23.1364 36.25 20.0756V19.9245C36.25 16.8637 36.25 14.4643 36.0438 12.5608C35.8333 10.6182 35.3961 9.04426 34.4197 7.70039C33.8286 6.88682 33.1132 6.17135 32.2996 5.58025C30.9557 4.60387 29.3818 4.16668 27.4392 3.95621ZM9.16986 7.6028C10.0165 6.98765 11.1002 6.62909 12.8301 6.44167C14.5833 6.25172 16.8474 6.25 20 6.25C23.1526 6.25 25.4167 6.25172 27.1699 6.44167C28.8998 6.62909 29.9835 6.98765 30.8301 7.6028C31.4315 8.03969 31.9603 8.56852 32.3972 9.16986C33.0123 10.0165 33.3709 11.1002 33.5583 12.8301C33.7483 14.5833 33.75 16.8474 33.75 20C33.75 23.1526 33.7483 25.4167 33.5583 27.1699C33.3709 28.8998 33.0123 29.9835 32.3972 30.8301C31.9603 31.4315 31.4315 31.9603 30.8301 32.3972C29.9835 33.0123 28.8998 33.3709 27.1699 33.5583C25.4167 33.7483 23.1526 33.75 20 33.75C16.8474 33.75 14.5833 33.7483 12.8301 33.5583C11.1002 33.3709 10.0165 33.0123 9.16986 32.3972C8.56852 31.9603 8.03969 31.4315 7.6028 30.8301C6.98765 29.9835 6.62909 28.8998 6.44167 27.1699C6.25172 25.4167 6.25 23.1526 6.25 20C6.25 16.8474 6.25172 14.5833 6.44167 12.8301C6.62909 11.1002 6.98765 10.0165 7.6028 9.16986C8.03969 8.56852 8.56852 8.03969 9.16986 7.6028Z" fill="#fff"/>
</svg>
