<svg width="104" height="104" viewBox="0 0 104 104" fill="none" xmlns="http://www.w3.org/2000/svg">
<path d="M76.0874 41.1679C77.2846 39.8306 77.1711 37.776 75.8339 36.5787C74.4966 35.3815 72.4419 35.495 71.2447 36.8322L56.6449 53.1394C53.6866 56.4437 51.6943 58.6573 49.9909 60.0889C48.3683 61.4528 47.4152 61.7501 46.5827 61.7501C45.7501 61.7501 44.7971 61.4528 43.1744 60.0889C41.4711 58.6573 39.4788 56.4437 36.5204 53.1393L32.754 48.9325C31.5568 47.5952 29.5021 47.4817 28.1648 48.679C26.8276 49.8762 26.7141 51.9309 27.9113 53.2682L31.8386 57.6547C34.594 60.7325 36.8922 63.2997 38.9922 65.0648C41.2136 66.9319 43.6097 68.2501 46.5827 68.2501C49.5557 68.2501 51.9517 66.9319 54.1732 65.0648C56.2731 63.2998 58.5713 60.7326 61.3266 57.6549L76.0874 41.1679Z" fill="#007F5F"/>
<path fill-rule="evenodd" clip-rule="evenodd" d="M51.9994 5.41675C26.2721 5.41675 5.41602 26.2728 5.41602 52.0001C5.41602 77.7273 26.2721 98.5834 51.9994 98.5834C77.7266 98.5834 98.5827 77.7273 98.5827 52.0001C98.5827 26.2728 77.7266 5.41675 51.9994 5.41675ZM11.916 52.0001C11.916 29.8627 29.8619 11.9167 51.9994 11.9167C74.1368 11.9167 92.0827 29.8627 92.0827 52.0001C92.0827 74.1375 74.1368 92.0834 51.9994 92.0834C29.8619 92.0834 11.916 74.1375 11.916 52.0001Z" fill="#007F5F"/>
</svg>
