<svg width="32" height="32" viewBox="0 0 32 32" fill="none" xmlns="http://www.w3.org/2000/svg">
<ellipse cx="16.0142" cy="16" rx="15.9427" ry="16" fill="#0050FF" fill-opacity="0.1"/>
<g clip-path="url(#clip0)">
<path fill-rule="evenodd" clip-rule="evenodd" d="M23.4874 6.83398H8.54119C7.6278 6.83398 6.88049 7.58398 6.88049 8.50065V23.5006C6.88049 24.4173 7.6278 25.1673 8.54119 25.1673H23.4874C24.4008 25.1673 25.1481 24.4173 25.1481 23.5006V8.50065C25.1481 7.58398 24.4008 6.83398 23.4874 6.83398ZM11.8626 11.834H20.166V14.334L23.4874 11.0007L20.166 7.66732V10.1673H10.2019V15.1673H11.8626V11.834ZM20.166 20.1673H11.8626V17.6673L8.54119 21.0006L11.8626 24.334V21.834H21.8267V16.834H20.166V20.1673ZM16.8447 18.5007V13.5007H16.0143L14.3536 14.334V15.1673H15.5991V18.5007H16.8447Z" fill="#0050FF"/>
</g>
<defs>
<clipPath id="clip0">
<rect width="19.9283" height="20" fill="white" transform="translate(6.05017 6)"/>
</clipPath>
</defs>
</svg>
