<svg width="36" height="37" viewBox="0 0 36 37" fill="none" xmlns="http://www.w3.org/2000/svg">
<path d="M32.9998 21.5C32.9998 18.575 30.8998 16.145 28.1248 15.62L26.0998 9.575C25.4998 7.73 23.7748 6.5 21.8398 6.5H14.1598C12.2248 6.5 10.4998 7.73 9.89984 9.575L8.71484 13.1L6.61484 11L7.04984 10.565C7.63484 9.98 7.63484 9.035 7.04984 8.45C6.46484 7.865 5.51984 7.865 4.93484 8.45L1.93484 11.45C1.34984 12.035 1.34984 12.98 1.93484 13.565C2.51984 14.15 3.46484 14.15 4.04984 13.565L4.49984 13.115L7.18484 15.8C4.76984 16.58 2.99984 18.83 2.99984 21.5C2.99984 23.75 4.24484 25.685 6.07484 26.72C6.41984 28.85 8.26484 30.5 10.4998 30.5C12.4498 30.5 14.0998 29.24 14.7298 27.5H21.2848C21.8998 29.24 23.5498 30.5 25.5148 30.5C27.7498 30.5 29.5948 28.85 29.9398 26.72C31.7548 25.685 32.9998 23.75 32.9998 21.5ZM10.4998 27.5C9.67484 27.5 8.99984 26.825 8.99984 26C8.99984 25.175 9.67484 24.5 10.4998 24.5C11.3248 24.5 11.9998 25.175 11.9998 26C11.9998 26.825 11.3248 27.5 10.4998 27.5ZM16.4998 15.5H11.1148L11.0848 15.47L12.7348 10.52C12.9448 9.905 13.5148 9.5 14.1598 9.5H16.4998V15.5ZM19.4998 9.5H21.8398C22.4848 9.5 23.0548 9.905 23.2648 10.52L24.9148 15.5H19.4998V9.5ZM25.4998 27.5C24.6748 27.5 23.9998 26.825 23.9998 26C23.9998 25.175 24.6748 24.5 25.4998 24.5C26.3248 24.5 26.9998 25.175 26.9998 26C26.9998 26.825 26.3248 27.5 25.4998 27.5Z" fill="#6494FF"/>
</svg>
