<svg width="13" height="18" viewBox="0 0 13 18" fill="none" xmlns="http://www.w3.org/2000/svg">
<path d="M11.0393 6.75072C10.6603 6.75072 10.2814 6.94019 10.0682 7.24809L9.85506 7.55598V7.2244C9.85506 6.56125 9.33401 6.04019 8.67085 6.04019C8.2919 6.04019 7.91295 6.22967 7.69979 6.53756L7.48664 6.84546V1.30335C7.48664 0.640193 6.96558 0.119141 6.30243 0.119141C5.63927 0.119141 5.11822 0.640193 5.11822 1.30335V2.34546L4.90506 2.03756C4.6919 1.72967 4.31295 1.54019 3.93401 1.54019C3.27085 1.54019 2.74979 2.06125 2.74979 2.7244V8.92967C2.134 9.64019 0.855058 11.0612 0.523479 11.5349C0.334005 11.8191 0.144531 12.127 0.144531 12.4823C0.144531 12.8376 0.286637 13.1691 0.523479 13.4297L3.46032 17.1718C3.93401 17.6455 4.54979 17.906 5.21295 17.906H8.55243C10.5656 17.906 12.2235 16.2481 12.2235 14.2349V7.93493C12.2235 7.27177 11.7024 6.75072 11.0393 6.75072Z" fill="#0050FF"/>
<path d="M8.55 18H5.18684C4.5 18 3.83684 17.7395 3.36316 17.2421L0.426316 13.5C0.16579 13.2395 0 12.8842 0 12.4816C0 12.1026 0.189474 11.7947 0.402632 11.4632C0.734211 10.9895 1.89474 9.66316 2.60526 8.88158V2.72368C2.60526 2.01316 3.19737 1.42105 3.90789 1.42105C4.33421 1.42105 4.73684 1.63421 4.97368 1.96579V1.30263C4.97368 0.592105 5.56579 0 6.27632 0C6.98684 0 7.57895 0.592105 7.57895 1.30263V6.46579C7.81579 6.11053 8.21842 5.92105 8.64474 5.92105C9.35526 5.92105 9.92368 6.48947 9.94737 7.17632C10.1842 6.82105 10.5868 6.63158 11.0132 6.63158C11.7237 6.63158 12.3158 7.22368 12.3158 7.93421V14.2105C12.3395 16.2947 10.6342 18 8.55 18ZM3.93158 1.65789C3.33947 1.65789 2.86579 2.13158 2.86579 2.72368V8.97632L2.84211 9C2.29737 9.61579 0.971053 11.1079 0.639474 11.6053C0.426316 11.9132 0.260526 12.1737 0.260526 12.4816C0.260526 12.8132 0.378947 13.0974 0.61579 13.3342L3.55263 17.0763C3.97895 17.5026 4.57105 17.7632 5.21053 17.7632H8.55C10.5158 17.7632 12.1026 16.1763 12.1026 14.2105V7.93421C12.1026 7.34211 11.6289 6.86842 11.0368 6.86842C10.6816 6.86842 10.3737 7.03421 10.1605 7.31842L9.73421 7.93421V7.22368C9.73421 6.63158 9.26053 6.1579 8.66842 6.1579C8.31316 6.1579 8.00526 6.32368 7.79211 6.60789L7.36579 7.22368V1.30263C7.36579 0.710526 6.89211 0.236842 6.3 0.236842C5.70789 0.236842 5.23421 0.710526 5.23421 1.30263V2.72368L4.8079 2.10789C4.59474 1.82368 4.28684 1.65789 3.93158 1.65789Z" fill="white"/>
<path d="M5.00123 2.36914H5.23808V8.52704H5.00123V2.36914ZM2.63281 6.6323H2.86965V12.7902H2.63281V6.6323ZM7.36965 6.86914H7.6065V8.52704H7.36965V6.86914ZM9.73808 7.57967H9.97492V8.52704H9.73808V7.57967Z" fill="white"/>
</svg>
