<svg width="500" height="376" viewBox="0 0 500 376" fill="none" xmlns="http://www.w3.org/2000/svg">
<g clip-path="url(#clip0_1762_34081)">
<path opacity="0.4" d="M421.996 144.581C428.613 144.581 433.977 139.217 433.977 132.6C433.977 125.983 428.613 120.619 421.996 120.619C415.379 120.619 410.015 125.983 410.015 132.6C410.015 139.217 415.379 144.581 421.996 144.581Z" fill="#0050FF"/>
<path d="M169.395 78.6675C178.827 78.6675 186.473 71.0211 186.473 61.5887C186.473 52.1564 178.827 44.5099 169.395 44.5099C159.962 44.5099 152.316 52.1564 152.316 61.5887C152.316 71.0211 159.962 78.6675 169.395 78.6675Z" fill="#0050FF"/>
<path d="M432.03 266.574C422.564 276.938 422.22 292.035 422.22 292.035C422.22 292.035 437.225 290.329 446.691 279.965C456.157 269.601 456.501 254.504 456.501 254.504C456.501 254.504 441.497 256.21 432.03 266.574Z" fill="#3F3D56"/>
<path d="M437.378 269.556C434.513 283.298 422.472 292.411 422.472 292.411C422.472 292.411 415.075 279.246 417.94 265.504C420.804 251.763 432.845 242.65 432.845 242.65C432.845 242.65 440.242 255.815 437.378 269.556Z" fill="#0050FF"/>
<path d="M425.083 127.766V291.573L370.48 336.68H91.1362V164.959L172.644 127.766H425.083Z" fill="#3F3D56"/>
<path opacity="0.1" d="M425.083 127.766V128.422L405.481 141.543L370.48 164.959H91.1362L172.644 127.766H425.083Z" fill="black"/>
<path opacity="0.1" d="M425.083 127.766V291.573L370.48 336.68L370.876 164.563L405.481 141.543L424.766 127.766H425.083Z" fill="black"/>
<path d="M351.488 150.319H181.349L194.011 143.197H357.028L351.488 150.319Z" fill="#2F2E41"/>
<path d="M498.33 345.59C498.33 345.59 501.628 359.383 498.629 359.983C495.631 360.583 480.938 360.389 477.34 360.989C473.742 361.588 466.246 360.583 466.246 357.884C466.246 355.185 474.042 353.386 474.042 353.386C474.042 353.386 485.136 347.389 485.436 347.089C485.736 346.789 498.33 345.59 498.33 345.59Z" fill="#2F2E41"/>
<path d="M495.631 264.331C495.631 264.331 494.731 274.526 494.731 275.425C494.731 276.325 495.631 290.418 494.731 291.017C493.832 291.617 495.331 295.815 495.331 297.314C495.331 298.813 500.129 323.701 498.929 333.296C497.73 342.891 500.728 341.992 499.829 342.891C498.929 343.791 498.929 343.791 498.929 345.59C498.929 347.389 489.334 348.888 489.334 348.888L478.839 282.622L484.237 262.831L495.631 264.331Z" fill="#575A89"/>
<path opacity="0.1" d="M495.631 264.331C495.631 264.331 494.731 274.526 494.731 275.425C494.731 276.325 495.631 290.418 494.731 291.017C493.832 291.617 495.331 295.815 495.331 297.314C495.331 298.813 500.129 323.701 498.929 333.296C497.73 342.891 500.728 341.992 499.829 342.891C498.929 343.791 498.929 343.791 498.929 345.59C498.929 347.389 489.334 348.888 489.334 348.888L478.839 282.622L484.237 262.831L495.631 264.331Z" fill="black"/>
<path d="M494.132 349.788C494.132 349.788 497.13 360.583 494.132 361.182C491.133 361.782 476.441 360.495 472.843 361.095C469.244 361.695 461.748 361.782 461.748 359.083C461.748 356.385 469.544 354.586 469.544 354.586C469.544 354.586 480.639 348.589 480.938 348.289C481.238 347.989 494.132 349.788 494.132 349.788Z" fill="#2F2E41"/>
<path d="M498.33 252.337C498.33 252.337 501.928 261.032 497.73 265.53C493.532 270.028 488.734 279.023 488.734 279.623C488.734 280.223 497.13 339.893 495.931 343.791C494.731 347.689 495.031 350.088 495.331 350.687C495.631 351.287 492.333 354.586 488.734 354.586C485.136 354.586 479.739 351.887 479.139 349.488C478.539 347.089 480.039 326.4 479.739 322.502C479.439 318.604 477.94 312.906 477.34 311.707C476.74 310.508 473.442 309.308 472.842 305.71C472.243 302.112 467.445 256.235 468.944 254.735C470.444 253.236 498.33 252.337 498.33 252.337Z" fill="#575A89"/>
<path d="M475.541 183.371C481.172 183.371 485.736 178.807 485.736 173.176C485.736 167.546 481.172 162.981 475.541 162.981C469.911 162.981 465.346 167.546 465.346 173.176C465.346 178.807 469.911 183.371 475.541 183.371Z" fill="#FFB9B9"/>
<path d="M481.838 178.274C481.838 178.274 479.739 189.368 481.238 190.568C482.737 191.767 469.844 193.566 469.844 193.566C469.844 193.566 468.345 178.873 468.045 177.374C467.745 175.875 481.838 178.274 481.838 178.274Z" fill="#FFB9B9"/>
<path d="M468.045 192.667C468.045 192.667 471.643 182.172 486.336 185.17C486.336 185.17 489.034 186.07 488.135 186.969C487.235 187.869 486.336 187.869 487.535 188.768C488.734 189.668 490.234 188.768 489.334 189.668C488.434 190.568 497.43 195.965 496.83 206.16C496.231 216.355 498.929 230.747 496.83 233.146C494.731 235.545 498.33 246.04 497.73 248.139C497.13 250.238 501.328 252.936 499.529 253.836C497.73 254.735 465.346 260.133 464.447 253.836C463.547 247.539 464.147 252.037 463.247 250.538C462.348 249.038 462.048 246.34 462.647 243.041C463.247 239.743 464.746 231.647 464.147 228.649C463.547 225.65 464.147 200.463 465.946 197.464C467.745 194.466 468.045 192.667 468.045 192.667Z" fill="#0050FF"/>
<path d="M474.342 265.83C474.342 265.83 478.839 282.921 473.142 282.921C467.445 282.921 467.745 265.23 467.745 265.23L474.342 265.83Z" fill="#FFB9B9"/>
<path d="M471.043 173.176C471.043 174.046 472.303 174.598 474.255 174.723H474.258C475.085 174.771 475.915 174.754 476.74 174.676C477.988 174.562 478.504 175.734 478.716 177.281C479.064 179.833 478.578 183.41 479.139 183.971C479.913 184.744 485.553 183.968 487.316 182.214C487.591 181.968 487.773 181.636 487.835 181.272C488.02 180.201 488.548 179.219 489.34 178.475C490.381 177.338 491.862 176.079 493.532 174.076C496.53 170.478 493.532 170.178 492.632 167.479C491.733 164.78 490.234 163.881 490.234 162.082C490.234 160.283 483.337 158.783 477.64 159.083C471.943 159.383 473.142 166.58 473.142 166.58C473.142 166.58 472.803 167.449 472.399 168.571C471.851 169.978 471.406 171.423 471.067 172.894C471.053 172.988 471.045 173.082 471.043 173.176Z" fill="#2F2E41"/>
<path opacity="0.1" d="M472.243 197.164C472.243 197.164 482.438 196.565 483.337 211.557C484.237 226.55 483.937 240.643 483.937 240.942C483.937 241.242 479.739 269.728 475.841 269.728C471.943 269.728 468.944 269.128 468.045 267.629C467.145 266.13 470.444 244.541 470.444 244.541C470.444 244.541 471.943 221.752 469.544 214.556C467.145 207.359 466.845 198.064 472.243 197.164Z" fill="black"/>
<path d="M470.743 195.665C470.743 195.665 480.938 195.065 481.838 210.058C482.737 225.05 482.438 239.143 482.438 239.443C482.438 239.743 478.24 268.229 474.342 268.229C470.444 268.229 467.445 267.629 466.546 266.13C465.646 264.631 468.944 243.041 468.944 243.041C468.944 243.041 470.444 220.253 468.045 213.056C465.646 205.86 465.346 196.565 470.743 195.665Z" fill="#0050FF"/>
<path d="M301.69 49.0946C301.69 49.0946 297.246 36.5061 294.038 40.4554C290.829 44.4047 298.974 51.0692 298.974 51.0692L301.69 49.0946Z" fill="#A0616A"/>
<path d="M322.67 36.7529L319.998 37.7435C319.998 37.7435 318.721 43.4174 319.215 44.4048C319.708 45.3921 319.955 44.6516 319.215 46.6263C318.474 48.6009 316.253 53.7844 316.006 54.5249C315.759 55.2654 301.69 49.8351 301.69 47.1199C301.69 47.1199 298.728 50.5756 297.247 51.3161C297.247 51.3161 313.538 63.164 315.759 64.6451C317.98 66.1261 319.215 65.3855 321.189 63.6577C323.164 61.9299 331.556 47.6136 331.556 47.6136L322.67 36.7529Z" fill="#575A89"/>
<path d="M315.512 124.379C315.512 124.379 315.759 127.094 316.253 127.341C316.746 127.587 320.449 133.758 316.253 134.992C312.057 136.226 309.588 135.733 308.601 136.227C307.614 136.72 290.335 137.708 290.088 134.992C289.842 132.277 298.481 131.784 298.481 131.784C298.481 131.784 306.379 126.6 307.614 123.885C308.848 121.17 315.512 124.379 315.512 124.379Z" fill="#2F2E41"/>
<path d="M365.619 129.315C365.619 129.315 371.543 139.435 370.062 140.67C368.581 141.904 354.158 146.401 352.044 146.594C349.328 146.84 347.354 144.619 349.575 143.385C351.797 142.151 356.487 136.967 356.487 135.239V130.796L365.619 129.315Z" fill="#2F2E41"/>
<path d="M371.296 63.164C371.296 63.164 376.48 69.5817 368.334 79.9486L354.759 97.227C354.759 97.227 363.151 110.556 363.398 117.467C363.645 124.379 365.372 122.898 365.866 125.86C366.36 128.822 368.581 127.341 366.853 129.562C365.126 131.784 358.708 133.758 356.733 132.03C356.054 131.409 355.524 130.642 355.182 129.788C354.84 128.933 354.695 128.012 354.759 127.094C354.759 126.106 351.303 120.429 351.056 118.701C350.809 116.974 341.676 102.904 341.676 102.904C341.676 102.904 338.714 94.5118 342.17 89.822C345.626 85.1321 347.909 78.4806 347.909 78.4806C347.909 78.4806 337.727 90.8093 330.569 93.7713C330.569 93.7713 327.854 94.265 328.347 95.4991C328.841 96.7333 328.348 97.4738 327.607 98.708C326.867 99.9421 321.683 114.258 319.955 117.961C318.227 121.663 318.968 123.885 316.993 125.119C315.019 126.353 306.133 125.366 306.133 124.132C306.133 122.898 307.367 119.689 308.107 117.961C308.848 116.233 314.772 96.2396 314.278 92.784C313.784 89.3283 314.525 84.6385 318.227 82.6638C321.93 80.6891 340.689 64.645 341.676 64.645C342.664 64.645 371.296 63.164 371.296 63.164Z" fill="#2F2E41"/>
<path d="M321.683 24.4113C327.409 24.4113 332.05 19.7698 332.05 14.0443C332.05 8.31876 327.409 3.67731 321.683 3.67731C315.958 3.67731 311.316 8.31876 311.316 14.0443C311.316 19.7698 315.958 24.4113 321.683 24.4113Z" fill="#A0616A"/>
<path d="M330.075 15.0316C330.075 15.0316 333.284 20.7088 337.234 21.4493C341.183 22.1898 326.867 33.5441 326.867 33.5441C326.867 33.5441 323.411 22.6835 320.449 22.1898C317.487 21.6961 330.075 15.0316 330.075 15.0316Z" fill="#A0616A"/>
<path d="M319.955 38.2339C319.955 41.4427 329.582 50.5755 329.582 50.5755L338.715 58.2273C338.715 58.2273 338.961 60.9425 339.949 61.1893C340.936 61.4361 342.17 61.4362 341.183 62.9171C340.196 64.3981 337.727 67.607 339.949 68.1006C340.618 68.2025 341.293 68.2668 341.97 68.2932C342.563 68.3277 343.259 68.3598 344.041 68.3894C345.868 68.4536 348.153 68.4956 350.629 68.4783C351.333 68.4758 352.049 68.4676 352.777 68.4536C362.109 68.2685 372.921 67.1948 372.037 63.6576C370.556 57.7337 371.543 55.759 368.335 52.5502C365.126 49.3413 359.942 38.2339 359.942 38.2339C359.942 38.2339 349.575 20.7087 340.936 20.7087L339.142 20.2373C338.308 20.0176 337.426 20.0658 336.621 20.375C335.816 20.6842 335.129 21.2388 334.657 21.9602C332.924 24.5988 330.191 28.5629 328.594 29.8415C326.126 31.8162 325.741 30.3994 325.741 30.3994C325.741 30.3994 319.955 35.025 319.955 38.2339Z" fill="#575A89"/>
<path d="M341.923 75.7525C341.923 75.7525 334.765 86.86 339.208 88.8347C343.651 90.8093 346.12 77.2335 346.12 77.2335L341.923 75.7525Z" fill="#A0616A"/>
<path d="M328.461 12.8733C328.063 12.8231 327.937 12.3211 327.87 11.9257C327.511 9.80831 325.933 7.80045 323.813 7.45864C323.003 7.35083 322.179 7.41724 321.396 7.65343C320.275 7.96109 319.222 8.47913 318.295 9.17997C317.841 9.59488 317.316 9.92456 316.745 10.1532C316.356 10.2674 314.704 11.0017 314.318 11.126C313.47 11.3991 312.768 12.2873 311.894 12.1114C311.058 11.9432 310.74 10.9336 310.606 10.0915C310.3 8.17289 311.398 5.31019 312.49 3.70315C313.318 2.48363 314.72 1.78179 316.122 1.32519C317.764 0.826661 319.452 0.491354 321.16 0.324129C323.466 0.0517961 325.854 -0.0926914 328.064 0.62008C330.274 1.33285 332.286 3.07645 332.699 5.36146C332.785 5.83745 332.801 6.32499 332.906 6.79707C333.163 7.94871 333.925 8.91672 334.369 10.0097C334.69 10.8125 334.839 11.6735 334.807 12.5373C334.774 13.4011 334.561 14.2485 334.181 15.0249C333.565 16.2626 332.495 17.4521 332.726 18.815L330.821 17.3131C330.546 17.1567 330.333 16.9106 330.217 16.6159C330.101 16.3212 330.09 15.9958 330.185 15.6939L330.462 13.3089C330.558 12.8767 330.515 12.4254 330.339 12.0193C329.492 10.5405 329.124 12.9571 328.461 12.8733Z" fill="#2F2E41"/>
<path opacity="0.1" d="M346.366 58.7211L344.041 68.3895C346.386 68.4734 349.489 68.5179 352.777 68.4537C353.606 65.9656 354.398 63.3714 355.006 60.9426C357.227 52.0566 353.524 38.4807 351.55 32.0631C349.575 25.6454 344.639 23.9176 344.639 23.9176C342.615 24.6294 340.703 25.6268 338.961 26.8796C335.752 29.1011 346.366 58.7211 346.366 58.7211Z" fill="black"/>
<path opacity="0.1" d="M344.392 58.2274L341.97 68.2932C342.563 68.3278 343.259 68.3599 344.041 68.3895C345.868 68.4537 348.154 68.4956 350.629 68.4784C351.52 65.8348 352.382 63.0456 353.031 60.4489C355.252 51.5629 351.55 37.9871 349.575 31.5694C347.601 25.1518 343.281 32.1865 343.281 32.1865C343.281 32.1865 345.009 27.9903 341.8 30.2118C338.591 32.4333 344.392 58.2274 344.392 58.2274Z" fill="black"/>
<path d="M343.651 23.424C343.651 23.424 348.588 25.1518 350.562 31.5694C352.537 37.9871 356.24 51.5629 354.018 60.4489C351.797 69.3349 347.107 80.4424 347.107 80.4424C347.107 80.4424 342.417 76.9867 340.689 77.7272L345.379 58.2274C345.379 58.2274 334.765 28.6075 337.974 26.3859C339.716 25.1331 341.627 24.1357 343.651 23.424Z" fill="#575A89"/>
<path d="M347.478 147.233L279.187 4.92542L165 59.7216L206.995 147.233H347.478Z" fill="#F2F2F2"/>
<path d="M100.269 169.637L97.355 170.564C97.3184 170.405 97.2757 170.247 97.227 170.088C96.8491 168.872 96.6784 171.058 95.697 170.247C95.7671 171.295 94.2585 160.519 94.1122 161.555C94.0513 161.991 94.5786 169.211 94.478 169.637L71.8521 169.854C71.9801 167.675 70.8189 168.513 69.7918 166.59C69.1854 168.397 69.0909 167.087 68.1309 168.723C67.7286 169.415 67.2988 170.079 66.8356 170.728C66.6131 171.048 66.3784 171.362 66.1377 171.673L65.8299 171.771L64.306 141.904C64.306 132.057 72.8395 127.275 79.5444 133.675C83.1069 137.075 91.8204 132.623 93.8288 135.848C95.8342 139.075 96.6114 143.531 96.6114 148.456L100.269 169.637Z" fill="#2F2E41"/>
<path d="M64.5887 339.284L69.4974 339.4L72.2336 317.347L64.9896 317.176L64.5887 339.284Z" fill="#FFB7B7"/>
<path d="M81.4298 349.525C81.4298 350.354 80.8413 351.027 80.1154 351.027H70.372C70.372 351.027 69.4132 347.173 65.5039 345.514L65.2341 351.027H60.2079L60.8169 342.162C60.8169 342.162 59.4723 337.42 62.2646 334.995C65.057 332.571 62.7953 332.909 62.7953 332.909L63.8938 327.422L71.489 328.315L71.5448 336.928L75.2307 345.476L80.637 348.147C81.1182 348.385 81.4297 348.926 81.4297 349.525H81.4298H81.4298Z" fill="#2F2E41"/>
<path d="M79.5231 335.69L84.2417 337.048L92.4844 316.411L85.521 314.407L79.5231 335.69Z" fill="#FFB7B7"/>
<path d="M93.2142 349.87C93.0037 350.672 92.2639 351.173 91.5618 350.989L82.1374 348.516C82.1374 348.516 82.188 344.545 78.8276 341.948L77.1676 347.212L72.3059 345.937L75.1444 337.517C75.1444 337.517 75.0473 332.589 78.3634 330.952C81.6796 329.316 79.4062 329.068 79.4062 329.068L81.861 324.04L88.9809 326.832L86.8495 335.176L88.2454 344.38L92.7971 348.336C93.2022 348.688 93.3661 349.29 93.2141 349.87L93.2141 349.87L93.2142 349.87Z" fill="#2F2E41"/>
<path d="M91.4303 161.574L76.4967 163.098L67.049 217.347L95.6971 221.918L91.4303 161.574Z" fill="white"/>
<path d="M62.782 171.632L64.3059 206.985L50.8961 230.452L60.6487 239.29C60.6487 239.29 78.6299 203.632 79.2395 193.88C79.849 184.127 76.3433 163.978 76.3433 163.978L62.782 171.632Z" fill="#575A89"/>
<path d="M105.449 171.632L103.926 206.985L117.335 230.452L96.6113 239.899C96.6113 239.899 89.6016 203.632 88.9921 193.88C88.3825 184.127 91.8882 163.978 91.8882 163.978L105.449 171.632Z" fill="#575A89"/>
<path d="M68.8775 213.994L61.8679 214.908L57.9059 257.271L63.3917 321.411H72.3667L78.9348 249.957L90.516 276.776L82.0425 321.411L90.516 322.275L107.583 275.862L95.697 221.918L68.8775 213.994Z" fill="#2F2E41"/>
<path d="M97.6455 252.238C97.9771 251.07 98.545 250.074 99.221 249.364L101.677 238.04L107.031 239.367L103.963 250.71C104.165 251.67 104.124 252.816 103.793 253.984C103.035 256.651 101.045 258.423 99.3476 257.941C97.65 257.459 96.888 254.905 97.6455 252.238V252.238Z" fill="#FFB6B6"/>
<path d="M98.3865 169.342C98.3865 169.342 108.272 168.838 108.991 175.393C109.711 181.948 112.014 219.282 112.014 219.282L106.676 244.481L99.0646 243.423L102.428 211.347L98.3865 169.342Z" fill="#575A89"/>
<path d="M13.663 188.922C14.7881 189.389 15.7144 190.071 16.3436 190.828L27.3427 194.598L25.3955 199.779L14.4476 195.397C13.4675 195.486 12.3302 195.312 11.2051 194.845C8.6348 193.778 7.10137 191.588 7.78009 189.952C8.4588 188.317 11.0926 187.855 13.6629 188.922H13.6629H13.663Z" fill="#FFB6B6"/>
<path d="M76.4696 173.198L76.4696 173.198L51.3773 207.069L21.9639 198.97L23.2427 191.297L45.64 195.539L58.1351 176.329C62.2152 168.442 70.2569 166.854 76.4696 173.198V173.198Z" fill="#575A89"/>
<path d="M82.8632 158.488C88.9413 158.488 93.8685 153.561 93.8685 147.483C93.8685 141.405 88.9413 136.478 82.8632 136.478C76.7852 136.478 71.858 141.405 71.858 147.483C71.858 153.561 76.7852 158.488 82.8632 158.488Z" fill="#FFB7B7"/>
<path d="M99.0493 147.085H95.3417L94.3346 145.727C93.8454 145.727 93.485 147.032 93.0168 146.933C91.5886 146.629 90.2778 145.886 89.2038 144.85C89.1131 144.762 89.0191 144.678 88.9219 144.598L88.9235 144.623C89.0093 145.964 87.9026 147.085 86.5581 147.085H79.4084C77.4564 147.085 76.0327 148.932 76.5297 150.819L75.887 173.904C75.887 169.192 55.041 145.134 69.1822 135.503C72.456 133.274 74.8325 133.675 79.5442 133.675C86.7862 129.812 95.8968 133.417 98.2499 141.28C98.7771 143.041 99.0493 144.989 99.0493 147.085Z" fill="#2F2E41"/>
<path d="M266.544 66.1001L226 85.5563L245.456 126.1L286 106.644L266.544 66.1001Z" fill="#3F3D56"/>
<path d="M269.245 38.1004L252.563 85.3361L230.077 77.4713L227 86.1833L258.212 97.1004L278 41.1629L269.245 38.1004Z" fill="#FF9A82"/>
<path d="M209.555 232.101L195.953 263.732L195.794 264.1H191.188L182 241.237H186.955L193.564 257.69L204.548 232.101H209.555Z" fill="white"/>
<path d="M253.11 232.1H248.666V236.545H253.11V232.1Z" fill="white"/>
<path d="M253.11 241.878H248.666V264.1H253.11V241.878Z" fill="white"/>
<path d="M245.998 241.878C239.617 241.878 234.443 246.853 234.443 252.989V264.1H239.064L239.057 252.989C239.06 249.305 242.164 246.318 245.996 246.314V241.88L245.998 241.878ZM266.889 241.878C260.751 241.878 255.776 246.853 255.776 252.989V264.1H260.215V252.989C260.184 250.584 261.45 248.348 263.528 247.137C265.606 245.925 268.175 245.925 270.253 247.137C272.331 248.348 273.596 250.584 273.565 252.989L273.555 264.1H277.998V252.989C277.998 246.854 273.024 241.88 266.889 241.878Z" fill="white"/>
<path d="M216.666 232.1H212.222V236.545H216.666V232.1Z" fill="white"/>
<path d="M216.666 241.878H212.222V264.1H216.666V241.878Z" fill="white"/>
<path d="M230.289 259.536C226.359 259.531 223.175 256.458 223.172 252.667V245.801H232.629V241.24H223.172V232.1H218.444V241.24V245.801V252.667C218.444 258.979 223.746 264.096 230.289 264.1H232.666V259.538L230.289 259.536Z" fill="white"/>
</g>
<defs>
<clipPath id="clip0_1762_34081">
<rect width="500" height="375.799" fill="white" transform="translate(0 0.100403)"/>
</clipPath>
</defs>
</svg>
