<svg width="300" height="291" viewBox="0 0 300 291" fill="none" xmlns="http://www.w3.org/2000/svg">
<g clip-path="url(#clip0_1762_34239)">
<path d="M273.691 277.524C273.37 277.539 273.053 277.455 272.781 277.283C272.51 277.111 272.298 276.86 272.175 276.564C272.051 276.268 272.021 275.941 272.089 275.628C272.157 275.314 272.32 275.029 272.556 274.811L272.663 274.384C272.649 274.35 272.635 274.316 272.621 274.282C272.298 273.519 271.757 272.869 271.065 272.412C270.374 271.956 269.563 271.714 268.734 271.717C267.906 271.72 267.096 271.968 266.408 272.43C265.72 272.891 265.184 273.546 264.866 274.311C263.598 277.366 261.983 280.425 261.586 283.655C261.411 285.083 261.485 286.53 261.804 287.932C258.825 281.434 257.279 274.372 257.269 267.224C257.268 265.43 257.368 263.637 257.567 261.855C257.732 260.393 257.961 258.943 258.253 257.502C259.85 249.686 263.278 242.359 268.256 236.125C270.665 234.811 272.613 232.789 273.838 230.333C274.282 229.45 274.596 228.508 274.769 227.535C274.498 227.571 273.745 223.432 273.95 223.178C273.571 222.603 272.893 222.317 272.479 221.757C270.422 218.967 267.588 219.454 266.108 223.245C262.947 224.84 262.917 227.486 264.856 230.03C266.09 231.649 266.26 233.84 267.342 235.573C267.231 235.715 267.115 235.853 267.004 235.996C264.967 238.614 263.193 241.426 261.705 244.39C262.067 241.069 261.635 237.71 260.445 234.588C259.239 231.679 256.979 229.229 254.989 226.714C252.598 223.693 247.695 225.011 247.274 228.841C247.27 228.878 247.266 228.915 247.262 228.952C247.558 229.119 247.847 229.296 248.13 229.483C248.486 229.721 248.762 230.06 248.921 230.457C249.08 230.854 249.116 231.29 249.024 231.708C248.931 232.126 248.715 232.506 248.402 232.798C248.09 233.091 247.697 233.282 247.274 233.347L247.231 233.354C247.336 234.419 247.522 235.475 247.788 236.513C245.234 246.388 250.747 249.985 258.619 250.146C258.792 250.235 258.962 250.324 259.135 250.409C257.641 254.645 256.703 259.057 256.346 263.535C256.144 266.176 256.156 268.83 256.382 271.47L256.369 271.376C255.798 268.441 254.232 265.792 251.936 263.878C248.524 261.075 243.704 260.043 240.024 257.791C239.633 257.539 239.178 257.405 238.713 257.404C238.248 257.403 237.793 257.535 237.4 257.784C237.008 258.033 236.695 258.39 236.499 258.811C236.302 259.232 236.23 259.701 236.291 260.161C236.296 260.194 236.301 260.227 236.306 260.26C236.855 260.483 237.389 260.741 237.906 261.031C238.201 261.197 238.491 261.374 238.774 261.562C239.13 261.799 239.405 262.139 239.565 262.536C239.724 262.933 239.76 263.369 239.667 263.787C239.575 264.204 239.358 264.584 239.046 264.877C238.734 265.169 238.341 265.361 237.918 265.426L237.874 265.433C237.843 265.437 237.817 265.441 237.785 265.446C238.723 267.684 240.039 269.744 241.675 271.536C243.272 280.157 250.129 280.975 257.465 278.464H257.469C258.274 281.962 259.44 285.366 260.949 288.623H273.379C273.424 288.485 273.464 288.342 273.504 288.204C272.353 288.276 271.198 288.207 270.064 287.999C270.987 286.867 271.909 285.727 272.831 284.595C272.852 284.574 272.871 284.552 272.889 284.528C273.357 283.949 273.829 283.374 274.297 282.795L274.297 282.794C274.322 281.019 274.118 279.248 273.691 277.524L273.691 277.524Z" fill="#F2F2F2"/>
<path d="M252.978 166.989C256.273 155.027 262.418 144.839 272.34 137.002C272.732 136.395 273.35 135.969 274.056 135.817C274.762 135.665 275.5 135.799 276.107 136.191L298.754 150.813C299.36 151.206 299.786 151.823 299.938 152.529C300.091 153.235 299.956 153.973 299.565 154.58L280.203 184.567C279.811 185.174 279.194 185.6 278.487 185.752C277.781 185.904 277.043 185.769 276.436 185.378L253.789 170.756C253.183 170.363 252.757 169.746 252.605 169.04C252.453 168.334 252.587 167.596 252.978 166.989Z" fill="#F2F2F2"/>
<path d="M260.564 159.053C261.412 152.733 266.641 146.272 273.011 139.775C273.379 139.207 273.957 138.808 274.618 138.665C275.279 138.523 275.97 138.649 276.539 139.015L296.002 151.582C296.57 151.949 296.969 152.527 297.111 153.189C297.254 153.85 297.128 154.541 296.762 155.11L279.533 181.794C279.165 182.362 278.587 182.761 277.925 182.903C277.264 183.046 276.573 182.92 276.004 182.554L263.947 174.769C261.417 173.131 259.64 170.557 259.006 167.611C258.371 164.664 258.932 161.587 260.564 159.053Z" fill="white"/>
<path d="M262.3 184.822C259.426 172.752 259.906 160.864 264.827 149.217C264.879 148.497 265.214 147.826 265.76 147.353C266.306 146.879 267.017 146.642 267.738 146.692L294.627 148.6C295.348 148.652 296.018 148.988 296.492 149.533C296.965 150.079 297.203 150.79 297.152 151.511L294.626 187.116C294.574 187.836 294.238 188.507 293.693 188.98C293.147 189.454 292.436 189.691 291.715 189.641L264.825 187.733C264.105 187.681 263.434 187.345 262.961 186.8C262.487 186.254 262.25 185.543 262.3 184.822Z" fill="#F2F2F2"/>
<path d="M265.126 174.214C262.826 168.266 264.296 160.086 266.75 151.324C266.799 150.649 267.113 150.021 267.624 149.578C268.135 149.135 268.801 148.912 269.476 148.959L292.585 150.599C293.26 150.648 293.888 150.962 294.332 151.473C294.775 151.984 294.998 152.65 294.951 153.325L292.702 185.009C292.654 185.683 292.339 186.311 291.828 186.755C291.317 187.198 290.651 187.421 289.976 187.373L275.66 186.358C272.654 186.141 269.857 184.741 267.882 182.464C265.907 180.188 264.916 177.221 265.126 174.214Z" fill="white"/>
<path d="M264.619 110.312L253.099 67.6741C252.606 65.8691 251.422 64.3305 249.805 63.3903C248.187 62.45 246.264 62.1836 244.452 62.6484C243.514 62.8889 242.635 63.3178 241.869 63.909C241.102 64.5002 240.464 65.2413 239.993 66.0872C239.523 66.933 239.229 67.8659 239.131 68.8289C239.032 69.7919 239.131 70.7648 239.421 71.6884L252.745 115.612L259.716 142.643C258.7 143.418 257.948 144.487 257.562 145.704C257.175 146.922 257.173 148.229 257.555 149.448C257.937 150.667 258.685 151.738 259.697 152.517C260.71 153.296 261.938 153.745 263.214 153.802C264.49 153.859 265.753 153.521 266.83 152.836C267.908 152.15 268.749 151.149 269.238 149.969C269.727 148.789 269.841 147.487 269.564 146.24C269.288 144.993 268.634 143.861 267.692 142.998L264.619 110.312Z" fill="#FFB6B6"/>
<path d="M181.54 117.688L193.354 75.1307C193.849 73.3262 193.615 71.3994 192.702 69.766C191.789 68.1327 190.27 66.9238 188.474 66.4002C187.545 66.1293 186.57 66.0505 185.609 66.1686C184.648 66.2868 183.722 66.5994 182.885 67.0873C182.049 67.5753 181.322 68.2284 180.746 69.0068C180.171 69.7853 179.76 70.6727 179.539 71.6151L168.623 116.198L160.848 143.009C159.579 143.158 158.387 143.695 157.434 144.546C156.481 145.396 155.813 146.52 155.521 147.763C155.228 149.007 155.326 150.31 155.8 151.496C156.274 152.682 157.102 153.694 158.171 154.393C159.24 155.092 160.499 155.445 161.776 155.404C163.052 155.364 164.286 154.931 165.308 154.165C166.33 153.398 167.091 152.336 167.489 151.122C167.886 149.908 167.9 148.601 167.529 147.379L181.54 117.688Z" fill="#FFB6B6"/>
<path d="M249.144 281.163L241.616 281.162L238.035 252.126L249.145 252.127L249.144 281.163Z" fill="#FFB6B6"/>
<path d="M249.409 289.016L226.26 289.015V288.722C226.26 286.333 227.209 284.041 228.899 282.351C230.589 280.662 232.88 279.712 235.27 279.712H235.27L239.499 276.504L247.388 279.713L249.409 279.713L249.409 289.016Z" fill="#2F2E41"/>
<path d="M196.169 281.239L188.758 279.917L190.329 250.702L201.267 252.653L196.169 281.239Z" fill="#FFB6B6"/>
<path d="M195.051 289.016L172.262 284.952L172.313 284.664C172.733 282.311 174.069 280.222 176.03 278.855C177.99 277.488 180.412 276.956 182.765 277.375L182.765 277.375L187.491 274.959L194.695 279.503L196.684 279.857L195.051 289.016Z" fill="#2F2E41"/>
<path d="M196.902 147.66C196.902 147.66 189.887 157.597 190.173 160.931C190.459 164.266 192.936 161.606 190.459 164.266C187.981 166.926 186.537 165.142 187.755 168.428C188.972 171.715 189.468 169.587 188.972 171.715C188.477 173.843 189.468 255.246 189.468 255.246H202.369C202.369 255.246 209.644 208.045 208.723 205.841C207.802 203.638 207.823 204.597 208.804 202.255C209.784 199.913 210.707 197.127 210.707 197.127L220.904 168.428L228.77 208.836L238.03 256.852H250.393C250.393 256.852 252.51 186.243 253.446 185.364C254.382 184.484 253.262 182.507 252.088 181.367C250.913 180.228 251.147 179.07 251.526 176.723C251.904 174.375 253.501 173.066 253.446 171.592C253.391 170.119 256.859 146.709 251.409 142.984C245.958 139.26 196.902 147.66 196.902 147.66Z" fill="#2F2E41"/>
<path d="M240.039 48.678L225.608 44.9385L218.872 35.6476L202.874 37.6142L199.468 50.2871L188.079 56.898C208.495 57.0201 197.501 116.167 200.502 119.983C202.944 123.089 188.313 130.476 192.899 135.189C197.484 139.902 195.788 138.016 194.724 143.147C193.66 148.278 185.904 153.708 194.724 153.654C203.544 153.6 256.766 152.84 255.245 146.757C253.724 140.675 253.748 142.219 251.455 138.406C249.163 134.592 247.619 136.723 248.391 131.096C249.163 125.469 246.657 121.116 248.402 118.626C251.082 114.804 248.382 87.2123 245.855 87.9487L240.039 48.678Z" fill="#FF9A82"/>
<path d="M235.919 48.8752C235.919 48.8752 246.475 44.3906 250.276 52.7539C251.491 55.4251 252.513 62.1346 253.498 60.6467C254.483 59.1589 253.533 62.4206 254.142 62.4247C254.687 62.4283 255.524 61.5479 254.891 64.5809C254.693 65.5758 254.75 66.6046 255.057 67.5715C255.364 68.5384 255.911 69.4118 256.646 70.1103L238.299 81.0985L235.919 48.8752Z" fill="#FF9A82"/>
<path d="M196.257 56.4783C196.257 56.4783 185.701 51.9936 181.899 60.357C180.83 62.7091 181.096 67.9354 179.014 67.3486C176.932 66.7619 178.41 68.9727 178.136 69.7407C177.829 70.5967 179.166 73.0191 177.289 72.1714C175.412 71.3237 175.53 77.7134 175.53 77.7134L193.877 88.7016L196.257 56.4783Z" fill="#FF9A82"/>
<path d="M201.262 43.9529L198.221 49.275C198.221 49.275 189.857 53.8368 189.857 54.5971C189.857 55.3574 191.378 61.5656 189.857 66.4447C188.337 71.3238 192.76 80.4996 193.659 88.0505C197.46 119.983 186.156 131.586 183.775 151.916L207.901 158.962C207.901 158.962 211.906 105.537 211.906 93.3726C211.906 81.2077 201.262 43.9529 201.262 43.9529Z" fill="#2F2E41"/>
<path d="M223.311 41.6719L229.526 45.2069C229.526 45.2069 237.659 47.0002 237.756 47.7543C237.854 48.5084 237.882 56.5228 240.014 61.1677C242.145 65.8126 241.558 68.2825 247.298 82.0138C250.231 89.0296 256.964 145.162 256.964 145.162L233.936 155.232C233.936 155.232 223.139 102.757 221.585 90.6914C220.031 78.6262 223.311 41.6719 223.311 41.6719Z" fill="#2F2E41"/>
<path d="M207.77 34.4231C216.452 34.4231 223.491 27.3846 223.491 18.7022C223.491 10.0199 216.452 2.98138 207.77 2.98138C199.088 2.98138 192.049 10.0199 192.049 18.7022C192.049 27.3846 199.088 34.4231 207.77 34.4231Z" fill="#FFB6B6"/>
<path d="M218.116 30.9167C214.4 28.012 219.48 15.2339 213.343 17.9613C213.343 17.9613 205.843 13.1883 204.336 16.3248C202.591 19.9567 196.385 18.3091 192.574 17.0272C192.873 16.3308 193.086 15.6003 193.208 14.852C192.504 15.4064 191.758 15.9056 190.978 16.3453C190.454 16.0656 189.991 15.6856 189.614 15.227C189.242 14.8012 189.01 14.2718 188.948 13.7099C188.885 13.1479 188.997 12.5805 189.266 12.0836C189.901 11.1086 191.21 10.8086 191.98 9.94258C192.069 9.8208 192.127 9.67925 192.15 9.53005C192.172 9.38085 192.158 9.22847 192.108 9.086C192.016 8.73758 192.003 8.3732 192.068 8.01882C192.133 7.66444 192.275 7.32877 192.485 7.03573C192.695 6.7427 192.966 6.4995 193.281 6.32348C193.595 6.14745 193.944 6.04293 194.304 6.01735C194.448 6.02177 194.592 5.99053 194.721 5.92639C195.368 5.53048 195.966 5.05894 196.501 4.52175C195.608 4.56266 196.7 -0.905074 205.556 0.130536C207.786 0.0487199 208.95 2.50778 211.146 2.89645C216.468 -0.144765 221.219 4.2422 223.53 8.43563C225.842 12.6291 228.344 26.1437 218.116 30.9167Z" fill="#2F2E41"/>
<path d="M151.037 8.36395H10.1148C7.43385 8.36618 4.86324 9.43181 2.96699 11.327C1.07073 13.2222 0.00371002 15.7922 0 18.4732V145.455C0.0034863 148.137 1.07027 150.707 2.96641 152.604C4.86255 154.5 7.43327 155.566 10.1148 155.57H151.037C153.718 155.566 156.288 154.499 158.183 152.603C160.078 150.707 161.144 148.136 161.146 145.455V18.4732C161.143 15.7928 160.078 13.2229 158.182 11.3276C156.287 9.43227 153.717 8.3664 151.037 8.36395Z" fill="white"/>
<path d="M86.6475 37.5083H71.5923C70.8529 37.5083 70.1437 37.2146 69.6209 36.6918C69.098 36.1689 68.8043 35.4598 68.8043 34.7204C68.8043 33.9809 69.098 33.2718 69.6209 32.749C70.1437 32.2261 70.8529 31.9324 71.5923 31.9324H86.6475C87.3869 31.9324 88.096 32.2261 88.6189 32.749C89.1417 33.2718 89.4355 33.9809 89.4355 34.7204C89.4355 35.4598 89.1417 36.1689 88.6189 36.6918C88.096 37.2146 87.3869 37.5083 86.6475 37.5083Z" fill="#0050FF"/>
<path d="M286.268 165.607H271.212C270.473 165.607 269.764 165.313 269.241 164.79C268.718 164.267 268.424 163.558 268.424 162.819C268.424 162.079 268.718 161.37 269.241 160.847C269.764 160.324 270.473 160.031 271.212 160.031H286.268C287.007 160.031 287.716 160.324 288.239 160.847C288.762 161.37 289.056 162.079 289.056 162.819C289.056 163.558 288.762 164.267 288.239 164.79C287.716 165.313 287.007 165.607 286.268 165.607Z" fill="#0050FF"/>
<path d="M125.679 95.9069H32.5605C31.821 95.9069 31.1119 95.6132 30.589 95.0903C30.0662 94.5675 29.7725 93.8583 29.7725 93.1189C29.7725 92.3795 30.0662 91.6704 30.589 91.1475C31.1119 90.6247 31.821 90.3309 32.5605 90.3309H125.679C126.419 90.3309 127.128 90.6247 127.651 91.1475C128.174 91.6704 128.467 92.3795 128.467 93.1189C128.467 93.8583 128.174 94.5675 127.651 95.0903C127.128 95.6132 126.419 95.9069 125.679 95.9069Z" fill="#E6E6E6"/>
<path d="M125.679 114.308H32.5605C31.821 114.308 31.1119 114.014 30.589 113.491C30.0662 112.968 29.7725 112.259 29.7725 111.52C29.7725 110.78 30.0662 110.071 30.589 109.548C31.1119 109.025 31.821 108.732 32.5605 108.732H125.679C126.419 108.732 127.128 109.025 127.651 109.548C128.174 110.071 128.467 110.78 128.467 111.52C128.467 112.259 128.174 112.968 127.651 113.491C127.128 114.014 126.419 114.308 125.679 114.308Z" fill="#E6E6E6"/>
<path d="M125.679 132.708H32.5605C31.821 132.708 31.1119 132.415 30.589 131.892C30.0662 131.369 29.7725 130.66 29.7725 129.92C29.7725 129.181 30.0662 128.472 30.589 127.949C31.1119 127.426 31.821 127.132 32.5605 127.132H125.679C126.419 127.132 127.128 127.426 127.651 127.949C128.174 128.472 128.467 129.181 128.467 129.92C128.467 130.66 128.174 131.369 127.651 131.892C127.128 132.415 126.419 132.708 125.679 132.708Z" fill="#E6E6E6"/>
<path d="M106.646 45.8735H51.5946C48.9136 45.8758 46.343 46.9414 44.4467 48.8366C42.5505 50.7318 41.4834 53.3018 41.4797 55.9828V72.5602C41.4832 75.2417 42.55 77.8125 44.4461 79.7086C46.3423 81.6047 48.913 82.6715 51.5946 82.675H106.646C109.327 82.6713 111.897 81.6043 113.792 79.708C115.688 77.8118 116.753 75.2412 116.755 72.5602V55.9828C116.753 53.3024 115.687 50.7325 113.792 48.8372C111.897 46.9418 109.327 45.876 106.646 45.8735ZM115.64 72.5602C115.64 74.947 114.692 77.2361 113.004 78.9239C111.317 80.6116 109.028 81.5598 106.641 81.5598H67.1221C60.6171 81.5598 54.3785 78.9757 49.7788 74.376C45.179 69.7762 42.5949 63.5376 42.5949 57.0326V55.9828C42.5987 53.5976 43.5483 51.3113 45.2354 49.6253C46.9225 47.9392 49.2094 46.991 51.5946 46.9887H106.646C109.031 46.9913 111.317 47.9397 113.003 49.6258C114.689 51.312 115.638 53.5982 115.64 55.9828V72.5602Z" fill="#E6E6E6"/>
<path d="M79.7365 70.2574C84.9717 70.2574 89.2157 66.0135 89.2157 60.7782C89.2157 55.543 84.9717 51.2991 79.7365 51.2991C74.5013 51.2991 70.2573 55.543 70.2573 60.7782C70.2573 66.0135 74.5013 70.2574 79.7365 70.2574Z" fill="#E6E6E6"/>
<path d="M101.544 82.6752L59.1055 82.5246L72.4878 79.179L74.155 73.6755L86.9854 73.603L90.8272 79.0452L100.529 81.56L101.41 81.7886L101.544 82.6752Z" fill="#E6E6E6"/>
<path d="M74.3493 66.8304C76.3835 65.2404 73.6029 58.246 76.962 59.7389C76.962 59.7389 81.0676 57.1263 81.8924 58.8432C82.8476 60.8312 86.2444 59.9293 88.3308 59.2276C88.1668 58.8464 88.0502 58.4466 87.9837 58.037C88.3688 58.3404 88.7769 58.6137 89.2041 58.8544C89.4907 58.7012 89.7443 58.4933 89.9506 58.2422C90.1541 58.0092 90.2815 57.7194 90.3155 57.4118C90.3495 57.1042 90.2886 56.7936 90.1409 56.5216C89.7938 55.9879 89.0772 55.8237 88.6555 55.3497C88.6067 55.283 88.5749 55.2055 88.5627 55.1239C88.5505 55.0422 88.5583 54.9588 88.5854 54.8808C88.6357 54.6901 88.6433 54.4906 88.6076 54.2966C88.572 54.1027 88.494 53.9189 88.3793 53.7585C88.2645 53.5981 88.1158 53.465 87.9437 53.3687C87.7716 53.2723 87.5804 53.2151 87.3837 53.2011C87.3045 53.2035 87.226 53.1864 87.1551 53.1513C86.801 52.9346 86.474 52.6765 86.1809 52.3824C86.6699 52.4048 86.072 49.4119 81.2244 49.9788C80.0039 49.934 79.3665 51.28 78.1647 51.4928C75.2515 49.8281 72.6511 52.2294 71.3859 54.5248C70.1206 56.8202 68.7508 64.2178 74.3493 66.8304Z" fill="#E6E6E6"/>
<path d="M151.037 8.36395H10.1148C7.43385 8.36618 4.86324 9.43181 2.96699 11.327C1.07073 13.2222 0.00371002 15.7922 0 18.4732V145.455C0.0034863 148.137 1.07027 150.707 2.96641 152.604C4.86255 154.5 7.43327 155.566 10.1148 155.57H151.037C153.718 155.566 156.288 154.499 158.183 152.603C160.078 150.707 161.144 148.136 161.146 145.455V18.4732C161.143 15.7928 160.078 13.2229 158.182 11.3276C156.287 9.43227 153.717 8.3664 151.037 8.36395ZM160.031 145.455C160.031 147.842 159.082 150.131 157.395 151.819C155.707 153.507 153.418 154.455 151.031 154.455H73.7149C64.181 154.455 54.7404 152.577 45.9322 148.928C37.124 145.28 29.1207 139.932 22.3792 133.191C15.6376 126.449 10.29 118.446 6.64151 109.638C2.99303 100.829 1.11519 91.3889 1.1152 81.855V18.4732C1.11899 16.088 2.06856 13.8017 3.75565 12.1157C5.44275 10.4296 7.72965 9.48147 10.1148 9.47915H151.037C153.421 9.48169 155.707 10.4301 157.394 12.1163C159.08 13.8024 160.028 16.0886 160.031 18.4732V145.455Z" fill="#E6E6E6"/>
<path d="M298.263 289.919L122.42 290.09C122.245 290.09 122.077 290.019 121.953 289.895C121.829 289.77 121.76 289.602 121.76 289.427C121.76 289.251 121.829 289.083 121.953 288.958C122.077 288.834 122.245 288.764 122.42 288.763L298.263 288.591C298.439 288.592 298.607 288.663 298.731 288.787C298.854 288.911 298.924 289.08 298.924 289.255C298.924 289.431 298.854 289.599 298.731 289.723C298.607 289.848 298.439 289.918 298.263 289.919Z" fill="#CACACA"/>
</g>
<defs>
<clipPath id="clip0_1762_34239">
<rect width="300" height="290.09" fill="white"/>
</clipPath>
</defs>
</svg>
