<svg width="548" height="383" viewBox="0 0 548 383" fill="none" xmlns="http://www.w3.org/2000/svg">
<g clip-path="url(#clip0_3785_52741)">
<path d="M68.2738 340.696L76.7504 340.897L73.5486 366.775L67.8047 366.639L68.2738 340.696Z" fill="#FFB6B6"/>
<path d="M87.5116 378.656L87.5115 378.656C87.5115 377.954 87.147 377.318 86.5839 377.039L80.2577 373.905L75.9447 363.874L75.8793 353.768L66.9918 352.72L65.7064 359.158C65.7064 359.158 68.3529 358.762 65.0854 361.606C61.818 364.451 63.3913 370.016 63.3913 370.016L62.6787 380.418H68.5602L68.8759 373.949C73.4503 375.895 74.5723 380.418 74.5723 380.418H85.9735C86.8229 380.418 87.5115 379.629 87.5115 378.656H87.5116H87.5116Z" fill="#2F2E41"/>
<path d="M80.6908 340.981L89.1674 341.182L85.9656 367.06L80.2217 366.924L80.6908 340.981Z" fill="#FFB6B6"/>
<path d="M99.9286 378.941H99.9285C99.9285 378.238 99.564 377.603 99.0009 377.324L92.6747 374.19L88.3617 364.159L88.2963 354.053L79.4088 353.005L78.1234 359.443C78.1234 359.443 80.7699 359.047 77.5024 361.891C74.235 364.736 75.8083 370.301 75.8083 370.301L75.0957 380.703H80.9772L81.2929 374.234C85.8673 376.18 86.9893 380.703 86.9893 380.703H98.3905C99.2399 380.703 99.9285 379.914 99.9285 378.941L99.9285 378.941H99.9286Z" fill="#2F2E41"/>
<path d="M70.97 189.193L61.3605 212.203C58.1573 219.873 57.1421 228.285 58.4284 236.499L63.0988 349.537H81.5643L89.6243 248.877L91.2149 288.639L72.7294 345.291H90.9105L114.247 288.639L115.977 245.017L107.687 211.166L70.97 189.193L70.97 189.193Z" fill="#2F2E41"/>
<path d="M331.304 90.7376V33.264C331.304 14.8928 316.453 4.63857e-09 298.134 4.63857e-09H176.707C158.387 -0.000303489 143.535 14.8923 143.535 33.2634V348.568C143.535 366.939 158.386 381.832 176.706 381.832H298.132C316.452 381.832 331.303 366.939 331.303 348.568V131.648H331.303C332.457 131.648 333.392 130.71 333.392 129.553L333.394 92.8329C333.394 91.6757 332.458 90.7376 331.304 90.7376L331.304 90.7376V90.7376Z" fill="#3F3D56"/>
<path d="M325.075 30.4982V350.257C305.69 349.063 315.55 374.677 299.926 375.482H176.007C162.112 375.485 150.846 364.191 150.842 350.257V30.4982C150.846 16.5646 162.112 5.2719 176.006 5.27368H185.145C182.656 11.411 202.742 13.4078 204.282 13.4098H267.746C274.353 13.4014 290.292 6.70404 289.712 5.27368H299.921C313.81 5.27606 325.07 16.5651 325.075 30.4934L325.075 30.4982H325.075Z" fill="white"/>
<path d="M142.558 97.7775C141.675 97.7775 140.956 98.4981 140.956 99.3843V112.239C140.956 113.125 141.675 113.846 142.558 113.846C143.442 113.846 144.161 113.125 144.161 112.239V99.3843C144.161 98.4981 143.442 97.7775 142.558 97.7775Z" fill="#3F3D56"/>
<path d="M142.558 136.342C141.675 136.342 140.956 137.063 140.956 137.949V162.855C140.956 163.742 141.675 164.462 142.558 164.462C143.442 164.462 144.161 163.742 144.161 162.855V137.949C144.161 137.063 143.442 136.342 142.558 136.342Z" fill="#3F3D56"/>
<path d="M142.558 171.693C141.675 171.693 140.956 172.414 140.956 173.3V198.206C140.956 199.092 141.675 199.813 142.558 199.813C143.442 199.813 144.161 199.092 144.161 198.206V173.3C144.161 172.414 143.442 171.693 142.558 171.693Z" fill="#3F3D56"/>
<path d="M520.502 361.508L512.898 366.731L489.188 339.805L500.411 332.096L520.502 361.508Z" fill="#FFB6B6"/>
<path d="M494.333 379.232C494.37 379.794 495.126 381.171 495.444 381.636C496.42 383.065 498.367 383.43 499.793 382.451L523.34 366.273C524.312 365.605 524.56 364.273 523.894 363.298L523.222 362.315C523.222 362.315 522.369 358.56 517.482 356.566C517.482 356.566 516.45 361.465 508.945 360.059L506.001 358.575L501.257 372.08L496.432 376.351C495.376 377.285 494.242 377.823 494.333 379.232L494.333 379.232L494.333 379.232Z" fill="#2F2E41"/>
<path d="M464.442 375.374L455.225 375.373L450.841 339.723L462.122 341.131L464.442 375.374Z" fill="#FFB6B6"/>
<path d="M432.864 375.164C432.577 375.649 432.426 377.213 432.426 377.777C432.426 379.509 433.826 380.914 435.554 380.914H464.097C465.275 380.914 466.231 379.956 466.231 378.774V377.582C466.231 377.582 467.643 374 464.736 369.586C464.736 369.586 461.123 373.043 455.724 367.629L454.132 364.736L442.607 373.188L436.22 373.977C434.822 374.149 433.583 373.95 432.864 375.164H432.864V375.164Z" fill="#2F2E41"/>
<path d="M432.127 239.892L432.821 248.299L431.44 254.984L433.954 262.032L437.028 299.298L453.051 363.547L465.286 366.13L459.413 301.952L463.968 249.017L432.127 239.892Z" fill="#2F2E41"/>
<path d="M484.117 203.396L437.326 204.047L432.127 239.89L463.968 254.88L462.953 306.071L498.414 357.548L517.301 346.727L485.653 303.011L494.515 230.115L484.117 203.396H484.117Z" fill="#2F2E41"/>
<path d="M449.48 119.129L441.225 129.753L445.124 211.215L475.668 210.564L480.867 139.529L474.369 121.281L472.017 117.192L469.205 111.897L451.175 113.188L449.48 119.129H449.48V119.129Z" fill="#E6E6E6"/>
<path d="M437.29 169.507L438.94 186.156L436.912 205.314L434.377 210.508L428.582 231.172C428.582 231.172 422.668 240.208 435.665 240.858C448.663 241.507 491.265 237.28 491.265 237.28C491.265 237.28 496.577 237.148 494.262 226.006C490.523 219.561 492.934 210.48 492.934 210.48L488.016 192.312L489.315 175.368L498.414 131.052C490.334 124.685 481.283 120.127 471.444 117.04L462.827 139.763L449.996 118.995L445.122 122.58C438.548 124.308 432.763 126.967 428.187 131.052L437.29 169.507Z" fill="#2F2E41"/>
<path d="M283.033 129.98H191.316C185.029 129.973 179.935 124.864 179.928 118.559V79.0245C179.935 72.7201 185.029 67.6112 191.316 67.6041C220.582 59.473 251.277 60.235 283.033 67.6041C289.32 67.6115 294.414 72.7204 294.421 79.0245V118.559C294.414 124.864 289.32 129.972 283.033 129.98H283.033Z" fill="#F2F2F2"/>
<path d="M292.378 171.414H181.973C180.844 171.413 179.93 170.495 179.929 169.364V141.901C179.93 140.769 180.845 139.852 181.973 139.85H292.378C293.506 139.852 294.421 140.769 294.422 141.901V169.364C294.421 170.496 293.506 171.413 292.378 171.414V171.414ZM181.973 140.671C181.296 140.671 180.747 141.222 180.746 141.901V169.364C180.747 170.043 181.296 170.594 181.973 170.594H292.378C293.055 170.594 293.604 170.043 293.604 169.364V141.901C293.604 141.222 293.055 140.671 292.378 140.671H181.973Z" fill="#E6E6E6"/>
<path d="M216.116 149.889C215.326 149.906 214.698 150.562 214.715 151.354C214.731 152.123 215.349 152.743 216.116 152.759H283.585C284.375 152.79 285.04 152.172 285.07 151.38C285.1 150.587 284.484 149.921 283.694 149.89H216.116V149.889Z" fill="#E6E6E6"/>
<path d="M216.116 158.502C215.326 158.519 214.698 159.175 214.715 159.968C214.731 160.737 215.349 161.356 216.116 161.373H283.585C284.375 161.403 285.04 160.785 285.07 159.993C285.1 159.201 284.484 158.534 283.694 158.504H216.116V158.502Z" fill="#E6E6E6"/>
<path d="M197.164 161.374C200.325 161.374 202.889 158.804 202.889 155.633C202.889 152.462 200.325 149.892 197.164 149.892C194.002 149.892 191.438 152.462 191.438 155.633C191.438 158.804 194.002 161.374 197.164 161.374Z" fill="#E6E6E6"/>
<path d="M292.378 306.214H181.973C180.844 306.213 179.93 305.296 179.929 304.164V276.701C179.93 275.569 180.845 274.652 181.973 274.651H292.378C293.506 274.652 294.421 275.569 294.422 276.701V304.165C294.421 305.296 293.506 306.213 292.378 306.215V306.214ZM181.973 275.471C181.296 275.472 180.747 276.022 180.746 276.701V304.165C180.747 304.844 181.296 305.394 181.973 305.395L279.836 304.428C280.513 304.427 290.782 300.587 290.783 299.907L293.604 276.701C293.604 276.022 293.055 275.472 292.378 275.471H181.973Z" fill="#E6E6E6"/>
<path d="M216.117 288.783C215.327 288.766 214.672 289.395 214.656 290.188C214.639 290.981 215.266 291.637 216.056 291.654C216.077 291.654 216.097 291.654 216.117 291.654H283.586C284.376 291.684 285.041 291.066 285.071 290.274C285.101 289.482 284.485 288.815 283.695 288.785H216.117V288.783V288.783Z" fill="#E6E6E6"/>
<path d="M197.164 296.174C200.325 296.174 202.889 293.604 202.889 290.433C202.889 287.262 200.325 284.692 197.164 284.692C194.002 284.692 191.438 287.262 191.438 290.433C191.438 293.604 194.002 296.174 197.164 296.174Z" fill="#E6E6E6"/>
<path d="M292.378 249.39H181.973C180.844 249.389 179.93 248.471 179.929 247.34V219.877C179.93 218.745 180.845 217.828 181.973 217.826H292.378C293.506 217.828 294.421 218.745 294.422 219.877V247.34C294.421 248.472 293.506 249.389 292.378 249.39V249.39ZM181.973 218.646C181.296 218.647 180.747 219.198 180.746 219.877V247.34C180.747 248.019 181.296 248.57 181.973 248.57L279.836 247.603C280.513 247.602 290.782 243.762 290.783 243.083L293.604 219.877C293.604 219.198 293.055 218.647 292.378 218.646H181.973Z" fill="#E6E6E6"/>
<path d="M216.117 231.959C215.327 231.942 214.672 232.571 214.656 233.364C214.639 234.156 215.266 234.812 216.056 234.829C216.077 234.83 216.097 234.83 216.117 234.829H283.586C284.376 234.859 285.041 234.242 285.071 233.45C285.101 232.657 284.485 231.99 283.695 231.96H216.117V231.959V231.959Z" fill="#E6E6E6"/>
<path d="M197.164 239.35C200.325 239.35 202.889 236.779 202.889 233.609C202.889 230.438 200.325 227.868 197.164 227.868C194.002 227.868 191.438 230.438 191.438 233.609C191.438 236.779 194.002 239.35 197.164 239.35Z" fill="#E6E6E6"/>
<path d="M458.582 111.143C467.49 111.143 474.712 103.902 474.712 94.9683C474.712 86.035 467.49 78.7932 458.582 78.7932C449.674 78.7932 442.452 86.035 442.452 94.9683C442.452 103.902 449.674 111.143 458.582 111.143Z" fill="#FFB6B6"/>
<path d="M470.428 108.258C471.317 108.41 472.36 106.251 473.356 104.148C475.443 99.7445 476.769 96.9455 476.87 92.9891C476.956 89.6171 476.022 90.5021 475.113 83.0053C474.814 80.5327 470.601 80.5374 469.744 79.3633C468.296 77.38 470.518 76.562 466.914 75.3706C460.165 73.1391 457.114 76.6057 452.827 76.9044C452.719 76.9119 450.594 78.9957 449.408 79.1035C447.329 79.2922 444.329 78.9675 442.985 75.7909C441.727 72.8207 440.895 81.5001 442.018 82.5743C442.972 83.4862 444.618 85.7753 444.66 85.9417C444.708 86.1301 440.747 81.7301 440.086 83.5433C439.61 84.8483 441.108 91.5622 442.318 91.8146C443.33 92.0255 445.804 88.681 445.246 90.0527C443.951 93.2339 451.737 95.2637 461.058 88.8781C461.389 88.6517 461.076 89.0128 462.229 91.8146C463.683 95.3481 464.012 95.5396 463.986 96.5128C463.931 98.6196 462.354 99.24 462.815 100.624C463.188 101.745 464.648 102.612 465.743 102.386C466.979 102.13 467.191 100.597 468.086 100.624C468.852 100.647 469.762 101.805 469.843 102.973C470.013 105.434 466.38 106.111 465.743 109.433C465.384 111.308 469.612 108.119 470.428 108.258Z" fill="#2F2E41"/>
<path d="M506.931 237.551C507.001 235.74 506.638 233.938 505.871 232.297L507.532 213.42L498.549 212.89L497.832 232.099C496.984 233.7 496.531 235.482 496.511 237.294C496.398 241.829 498.64 245.562 501.516 245.635C504.393 245.707 506.817 242.089 506.93 237.556L506.931 237.551Z" fill="#FFB6B6"/>
<path d="M487.823 161.433L494.907 183.388L496.94 228.228L508.797 227.985L509.717 178.868C509.717 178.868 503.808 142.574 501.829 134.417C499.85 126.259 481.605 129.282 481.605 129.282L487.823 161.433V161.433V161.433Z" fill="#2F2E41"/>
<path d="M194.027 104.193C197.377 105.308 200.889 106.437 204.464 106.247C206.091 106.16 207.657 105.771 209.133 105.079C210.647 104.369 212.03 103.405 213.562 102.732C219.194 100.261 224.778 104.483 230.03 106.068C232.651 106.859 235.406 107.048 237.969 105.946C240.801 104.73 242.937 102.408 245.269 100.469C250.496 96.1223 257.317 93.7788 264.102 93.956C271.545 94.1504 278.749 97.4471 283.875 102.84C284.304 103.292 284.987 102.606 284.558 102.155C280.078 97.442 274.043 94.2648 267.615 93.302C261.174 92.3371 254.487 93.6263 248.824 96.843C245.958 98.4707 243.659 100.699 241.135 102.778C238.676 104.803 235.942 106.108 232.701 105.678C227.117 104.936 222.314 100.621 216.522 101.013C212.823 101.262 210.182 104.053 206.701 104.943C202.549 106.004 198.209 104.566 194.284 103.259C193.693 103.062 193.439 103.997 194.027 104.193L194.027 104.193V104.193Z" fill="#3F3D56"/>
<path d="M204.511 109.354C206.487 109.354 208.089 107.748 208.089 105.766C208.089 103.785 206.487 102.178 204.511 102.178C202.535 102.178 200.934 103.785 200.934 105.766C200.934 107.748 202.535 109.354 204.511 109.354Z" fill="#A3CDFF"/>
<path d="M235.396 109.513C237.372 109.513 238.974 107.906 238.974 105.925C238.974 103.944 237.372 102.337 235.396 102.337C233.42 102.337 231.818 103.944 231.818 105.925C231.818 107.906 233.42 109.513 235.396 109.513Z" fill="#A3CDFF"/>
<path d="M266.761 97.3426C268.737 97.3426 270.339 95.7363 270.339 93.7549C270.339 91.7735 268.737 90.1672 266.761 90.1672C264.785 90.1672 263.184 91.7735 263.184 93.7549C263.184 95.7363 264.785 97.3426 266.761 97.3426Z" fill="#A3CDFF"/>
<path d="M59.1669 218.225C48.5892 248.426 62.0662 272.221 59.2695 256.872C56.9321 244.044 96.7603 205.01 108.749 213.059C108.498 211.756 100.878 188.271 100.131 188.162C101.176 185.523 99.7192 185.498 99.6599 184.146C99.4333 178.923 100.644 173.502 103.002 167.922C104.547 163.611 104.574 159.907 103.077 156.921C101.788 154.466 99.6227 152.589 97.0141 151.666L89.1582 142.152C87.1118 139.676 84.0938 134.332 80.8871 134.352L63.6731 133.736C63.1812 133.439 57.1366 138.652 51.2512 141.209C44.868 143.986 46.1848 151.564 46.2009 151.661L46.2157 151.752L46.2859 151.816L55.6685 179.51L64.1457 187.477C63.7163 188.726 63.8238 189.664 64.628 190.202C63.4735 191.058 58.3375 216.681 59.1669 217.579V218.225L59.1669 218.225Z" fill="#A3CDFF"/>
<path d="M147.619 163.415C146.339 163.928 145.2 164.74 144.297 165.784L130.665 170.47L133.078 176.909L146.647 171.462C148.022 171.559 149.399 171.324 150.665 170.777C153.851 169.451 155.752 166.729 154.91 164.696C154.068 162.663 150.804 162.09 147.619 163.415V163.415Z" fill="#FFB6B6"/>
<path d="M74.9014 142.75L106 184.845L142.453 174.778L140.868 165.242L113.11 170.514L97.6241 146.641C92.5674 136.838 82.6007 134.864 74.9014 142.749V142.75Z" fill="#A3CDFF"/>
<path d="M298.256 355.015H284.065C281.586 355.015 279.57 352.992 279.57 350.507C276.879 343.177 276.54 336.603 279.57 331.11C279.57 328.625 281.586 326.602 284.065 326.602C288.261 323.55 293.154 324.477 298.256 326.602C300.735 326.602 302.751 328.625 302.751 331.11C301.029 337.325 301.154 343.809 302.751 350.507C302.751 352.992 300.735 355.015 298.256 355.015Z" fill="#A3CDFF"/>
<path d="M296.883 335.235H285.421C285.026 335.235 284.705 334.914 284.705 334.517C284.705 334.12 285.026 333.798 285.421 333.798H296.883C297.279 333.798 297.6 334.12 297.6 334.517C297.6 334.914 297.279 335.235 296.883 335.235Z" fill="white"/>
<path d="M296.883 340.981H285.421C285.026 340.981 284.705 340.659 284.705 340.263C284.705 339.866 285.026 339.544 285.421 339.544H296.883C297.279 339.544 297.6 339.866 297.6 340.263C297.6 340.659 297.279 340.981 296.883 340.981Z" fill="white"/>
<path d="M296.883 346.727H285.421C285.026 346.727 284.705 346.406 284.705 346.009C284.705 345.612 285.026 345.291 285.421 345.291H296.883C297.279 345.291 297.6 345.612 297.6 346.009C297.6 346.406 297.279 346.727 296.883 346.727Z" fill="white"/>
<path d="M548 381.13H0V382.217H548V381.13Z" fill="#E6E6E6"/>
<path d="M427.696 236.045C428.162 240.556 430.86 243.973 433.722 243.675C436.585 243.378 438.528 239.48 438.063 234.968C437.901 233.163 437.311 231.422 436.341 229.892L434.129 210.799L425.215 212.03L428.342 230.719C427.705 232.416 427.483 234.24 427.694 236.041L427.696 236.045Z" fill="#FFB6B6"/>
<path d="M440.813 158.658L444.506 126.118C444.506 126.118 426.082 124.534 424.745 132.822C423.408 141.109 420.345 177.755 420.345 177.755L425.089 226.65L436.929 225.963L435.462 181.101L440.813 158.658V158.658Z" fill="#2F2E41"/>
<path d="M84.8976 130.152L60.0042 132.425L59.2695 106.479L86.3893 105.707L84.8976 130.152Z" fill="#2F2E41"/>
<path d="M72.3102 126.669C79.5253 126.669 85.3743 120.804 85.3743 113.568C85.3743 106.333 79.5253 100.467 72.3102 100.467C65.0951 100.467 59.2461 106.333 59.2461 113.568C59.2461 120.804 65.0951 126.669 72.3102 126.669Z" fill="#FFB6B6"/>
<path d="M82.8193 100.803C82.7273 97.5524 78.6938 97.2004 75.5511 96.3981L72.7013 94.915C69.9041 94.201 66.9363 94.7032 64.5277 96.2982L56.9287 100.915C53.5167 103.174 52.9747 106.826 51.5872 110.683L49.0759 116.329C47.71 120.126 49.515 125.157 50.8957 128.948L51.4742 130.537L50.5695 135.737L66.4053 134.995L67.8129 126.968L65.1098 123.921C64.1507 122.84 64.0729 121.235 64.9229 120.065H64.923C67.9807 115.859 67.414 109.964 67.414 109.964L71.2837 112.081C73.8263 112.429 76.0922 112.391 78.0858 111.973C80.2784 111.514 82.1417 110.595 83.6818 109.225L85.0614 113.879C85.4168 119.671 84.3376 121.208 79.1899 126.873L88.217 132.556L87.8832 129.481C87.089 122.164 89.5103 116.395 89.1709 110.44C88.9362 106.323 86.4943 102.654 82.8194 100.803H82.8194H82.8193Z" fill="#2F2E41"/>
<path d="M84.9816 211.271C83.7061 210.747 82.3242 210.537 80.9514 210.659L67.9012 204.53L65.1748 210.842L78.7062 216.38C79.6282 217.407 80.7821 218.198 82.0714 218.687C85.2808 219.953 88.5346 219.321 89.3375 217.272C90.1404 215.223 88.1909 212.537 84.9815 211.271H84.9816Z" fill="#FFB6B6"/>
<path d="M47.0077 145.738L40.2021 197.68L73.3923 215.842L78.8606 207.88L55.2455 192.329L60.6523 164.369C63.8082 153.797 58.0088 145.432 47.0081 145.737L47.0077 145.738Z" fill="#A3CDFF"/>
</g>
<defs>
<clipPath id="clip0_3785_52741">
<rect width="548" height="383" fill="white"/>
</clipPath>
</defs>
</svg>
