<svg width="471" height="328" viewBox="0 0 471 328" fill="none" xmlns="http://www.w3.org/2000/svg">
<g clip-path="url(#clip0_3257_45700)">
<path d="M58.681 291.771L65.9665 291.944L63.2147 314.105L58.2778 313.989L58.681 291.771Z" fill="#FFB6B6"/>
<path d="M75.2154 324.28L75.2153 324.28C75.2153 323.679 74.9021 323.134 74.4181 322.895L68.9808 320.212L65.2738 311.621L65.2176 302.966L57.5789 302.068L56.4741 307.582C56.4741 307.582 58.7488 307.243 55.9404 309.679C53.132 312.115 54.4843 316.881 54.4843 316.881L53.8718 325.789H58.9269L59.1982 320.249C63.1299 321.916 64.0942 325.789 64.0942 325.789H73.8934C74.6235 325.789 75.2154 325.114 75.2154 324.28H75.2154H75.2154Z" fill="#2F2E41"/>
<path d="M69.3529 292.015L76.6384 292.187L73.8865 314.349L68.9497 314.232L69.3529 292.015Z" fill="#FFB6B6"/>
<path d="M85.8873 324.523H85.8872C85.8872 323.922 85.5739 323.377 85.09 323.139L79.6527 320.455L75.9456 311.864L75.8895 303.209L68.2507 302.312L67.146 307.825C67.146 307.825 69.4206 307.486 66.6123 309.922C63.8039 312.358 65.1562 317.124 65.1562 317.124L64.5437 326.032H69.5988L69.8701 320.492C73.8018 322.159 74.7661 326.032 74.7661 326.032H84.5653C85.2954 326.032 85.8872 325.357 85.8872 324.524L85.8873 324.523H85.8873Z" fill="#2F2E41"/>
<path d="M60.9978 162.024L52.7386 181.73C49.9855 188.298 49.113 195.502 50.2185 202.537L54.2327 299.342H70.1036L77.0311 213.137L78.3981 247.189L62.5101 295.706H78.1365L98.1942 247.189L99.6812 209.831L92.5553 180.842L60.9978 162.024L60.9978 162.024Z" fill="#2F2E41"/>
<path d="M284.752 77.7074V28.4872C284.752 12.7541 271.988 3.97246e-09 256.242 3.97246e-09H151.877C136.132 -0.000259907 123.367 12.7537 123.367 28.4867V298.513C123.367 314.246 136.131 327 151.877 327H256.241C271.987 327 284.751 314.246 284.751 298.513V112.743H284.751C285.743 112.743 286.547 111.94 286.547 110.949L286.548 79.5018C286.548 78.5108 285.744 77.7074 284.752 77.7074L284.752 77.7074V77.7074Z" fill="#3F3D56"/>
<path d="M279.398 26.1188V299.96C262.737 298.937 271.212 320.873 257.783 321.562H151.277C139.334 321.564 129.651 311.893 129.647 299.96V26.1188C129.651 14.1861 139.333 4.51508 151.276 4.5166H159.13C156.991 9.77262 174.255 11.4827 175.578 11.4843H230.125C235.804 11.4771 249.503 5.74156 249.005 4.5166H257.779C269.717 4.51864 279.394 14.1866 279.398 26.1147L279.398 26.1188H279.398Z" fill="white"/>
<path d="M122.527 83.7363C121.768 83.7363 121.15 84.3535 121.15 85.1124V96.1213C121.15 96.8803 121.768 97.4974 122.527 97.4974C123.287 97.4974 123.905 96.8803 123.905 96.1213V85.1124C123.905 84.3535 123.287 83.7363 122.527 83.7363Z" fill="#3F3D56"/>
<path d="M122.527 116.763C121.768 116.763 121.15 117.38 121.15 118.139V139.469C121.15 140.227 121.768 140.845 122.527 140.845C123.287 140.845 123.905 140.227 123.905 139.469V118.139C123.905 117.38 123.287 116.763 122.527 116.763Z" fill="#3F3D56"/>
<path d="M122.527 147.037C121.768 147.037 121.15 147.654 121.15 148.413V169.743C121.15 170.502 121.768 171.119 122.527 171.119C123.287 171.119 123.905 170.502 123.905 169.743V148.413C123.905 147.654 123.287 147.037 122.527 147.037Z" fill="#3F3D56"/>
<path d="M447.366 309.594L440.831 314.067L420.453 291.008L430.098 284.406L447.366 309.594Z" fill="#FFB6B6"/>
<path d="M424.875 324.773C424.906 325.255 425.556 326.434 425.829 326.832C426.669 328.056 428.342 328.368 429.567 327.53L449.805 313.676C450.641 313.104 450.854 311.963 450.282 311.128L449.705 310.286C449.705 310.286 448.971 307.07 444.771 305.362C444.771 305.362 443.884 309.558 437.433 308.354L434.903 307.083L430.826 318.648L426.679 322.306C425.771 323.106 424.796 323.566 424.875 324.773L424.875 324.773L424.875 324.773Z" fill="#2F2E41"/>
<path d="M399.182 321.469L391.261 321.468L387.492 290.938L397.189 292.144L399.182 321.469Z" fill="#FFB6B6"/>
<path d="M372.042 321.29C371.795 321.705 371.665 323.045 371.665 323.527C371.665 325.011 372.869 326.214 374.354 326.214H398.886C399.899 326.214 400.72 325.393 400.72 324.381V323.36C400.72 323.36 401.934 320.293 399.435 316.513C399.435 316.513 396.33 319.473 391.69 314.836L390.321 312.359L380.416 319.598L374.926 320.273C373.725 320.421 372.66 320.25 372.042 321.29H372.042V321.29Z" fill="#2F2E41"/>
<path d="M371.408 205.443L372.004 212.643L370.818 218.368L372.978 224.404L375.621 256.318L389.392 311.341L399.908 313.553L394.86 258.591L398.776 213.257L371.408 205.443Z" fill="#2F2E41"/>
<path d="M416.093 174.188L375.877 174.745L371.408 205.442L398.775 218.278L397.902 262.118L428.381 306.203L444.615 296.936L417.413 259.498L425.03 197.07L416.093 174.188H416.093Z" fill="#2F2E41"/>
<path d="M386.323 102.022L379.228 111.12L382.579 180.884L408.832 180.326L413.3 119.492L407.715 103.865L405.694 100.363L403.276 95.8281L387.78 96.9341L386.323 102.022H386.323V102.022Z" fill="#E6E6E6"/>
<path d="M375.846 145.165L377.265 159.423L375.521 175.83L373.343 180.279L368.362 197.975C368.362 197.975 363.278 205.713 374.449 206.27C385.621 206.826 422.237 203.205 422.237 203.205C422.237 203.205 426.802 203.093 424.813 193.551C421.599 188.031 423.671 180.254 423.671 180.254L419.444 164.695L420.561 150.185L428.381 112.233C421.436 106.779 413.657 102.876 405.201 100.232L397.795 119.693L386.767 101.907L382.578 104.977C376.928 106.457 371.955 108.734 368.022 112.232L375.846 145.165Z" fill="#2F2E41"/>
<path d="M243.264 111.314H164.434C159.031 111.308 154.652 106.933 154.646 101.534V67.6763C154.652 62.2773 159.031 57.902 164.434 57.8959C189.589 50.9325 215.97 51.585 243.264 57.8959C248.667 57.9023 253.046 62.2775 253.052 67.6763V101.534C253.046 106.933 248.667 111.308 243.264 111.314H243.264Z" fill="#F2F2F2"/>
<path d="M251.295 146.798H156.404C155.434 146.797 154.648 146.012 154.647 145.043V121.523C154.648 120.554 155.434 119.769 156.404 119.768H251.295C252.265 119.769 253.051 120.554 253.052 121.523V145.043C253.051 146.012 252.265 146.798 251.295 146.799V146.798ZM156.404 120.47C155.822 120.47 155.35 120.942 155.35 121.523V145.043C155.35 145.625 155.822 146.096 156.404 146.097H251.295C251.877 146.096 252.349 145.625 252.35 145.043V121.523C252.349 120.942 251.877 120.47 251.295 120.47H156.404Z" fill="#E6E6E6"/>
<path d="M185.75 128.364C185.07 128.379 184.531 128.941 184.546 129.619C184.56 130.278 185.091 130.808 185.75 130.822H243.739C244.418 130.848 244.989 130.319 245.015 129.641C245.041 128.962 244.512 128.391 243.833 128.365H185.75V128.364Z" fill="#E6E6E6"/>
<path d="M185.75 135.741C185.07 135.756 184.531 136.317 184.546 136.996C184.56 137.655 185.091 138.185 185.75 138.199H243.739C244.418 138.225 244.989 137.696 245.015 137.018C245.041 136.339 244.512 135.768 243.833 135.742H185.75V135.741Z" fill="#E6E6E6"/>
<path d="M169.46 138.201C172.178 138.201 174.381 135.999 174.381 133.284C174.381 130.568 172.178 128.367 169.46 128.367C166.743 128.367 164.54 130.568 164.54 133.284C164.54 135.999 166.743 138.201 169.46 138.201Z" fill="#E6E6E6"/>
<path d="M251.295 262.241H156.404C155.434 262.24 154.648 261.454 154.647 260.485V236.966C154.648 235.997 155.434 235.211 156.404 235.21H251.295C252.265 235.211 253.051 235.997 253.052 236.966V260.485C253.051 261.455 252.265 262.24 251.295 262.241V262.241ZM156.404 235.912C155.822 235.913 155.35 236.384 155.35 236.966V260.485C155.35 261.067 155.822 261.538 156.404 261.539L240.516 260.711C241.098 260.71 249.924 257.421 249.924 256.84L252.35 236.966C252.349 236.384 251.877 235.913 251.295 235.912H156.404Z" fill="#E6E6E6"/>
<path d="M185.75 247.313C185.07 247.298 184.508 247.837 184.494 248.516C184.479 249.195 185.018 249.757 185.698 249.771C185.715 249.771 185.732 249.771 185.75 249.771H243.739C244.418 249.797 244.989 249.268 245.015 248.589C245.041 247.911 244.512 247.34 243.833 247.314H185.75V247.313V247.313Z" fill="#E6E6E6"/>
<path d="M169.46 253.643C172.178 253.643 174.381 251.442 174.381 248.726C174.381 246.011 172.178 243.81 169.46 243.81C166.743 243.81 164.54 246.011 164.54 248.726C164.54 251.442 166.743 253.643 169.46 253.643Z" fill="#E6E6E6"/>
<path d="M251.295 213.577H156.404C155.434 213.576 154.648 212.79 154.647 211.821V188.302C154.648 187.333 155.434 186.547 156.404 186.546H251.295C252.265 186.547 253.051 187.332 253.052 188.302V211.821C253.051 212.791 252.265 213.576 251.295 213.577V213.577ZM156.404 187.248C155.822 187.249 155.35 187.72 155.35 188.302V211.821C155.35 212.403 155.822 212.874 156.404 212.875L240.516 212.047C241.098 212.046 249.924 208.757 249.924 208.176L252.35 188.302C252.349 187.72 251.877 187.249 251.295 187.248H156.404Z" fill="#E6E6E6"/>
<path d="M185.75 198.649C185.07 198.634 184.508 199.173 184.494 199.852C184.479 200.531 185.018 201.092 185.698 201.107C185.715 201.107 185.732 201.107 185.75 201.107H243.739C244.418 201.133 244.989 200.604 245.015 199.925C245.041 199.247 244.512 198.676 243.833 198.65H185.75V198.649V198.649Z" fill="#E6E6E6"/>
<path d="M169.46 204.979C172.178 204.979 174.381 202.778 174.381 200.062C174.381 197.347 172.178 195.146 169.46 195.146C166.743 195.146 164.54 197.347 164.54 200.062C164.54 202.778 166.743 204.979 169.46 204.979Z" fill="#E6E6E6"/>
<path d="M394.146 95.1822C401.803 95.1822 408.01 88.9803 408.01 81.3299C408.01 73.6794 401.803 67.4775 394.146 67.4775C386.49 67.4775 380.283 73.6794 380.283 81.3299C380.283 88.9803 386.49 95.1822 394.146 95.1822Z" fill="#FFB6B6"/>
<path d="M404.328 92.7119C405.092 92.842 405.988 90.9926 406.845 89.1913C408.638 85.4206 409.778 83.0236 409.865 79.6353C409.939 76.7476 409.136 77.5055 408.355 71.0852C408.098 68.9676 404.477 68.9717 403.74 67.9662C402.495 66.2677 404.405 65.5672 401.308 64.5469C395.508 62.6358 392.884 65.6046 389.201 65.8604C389.108 65.8669 387.281 67.6514 386.261 67.7437C384.474 67.9054 381.897 67.6272 380.741 64.9068C379.66 62.3632 378.944 69.7962 379.91 70.7161C380.73 71.4971 382.145 73.4574 382.181 73.6C382.222 73.7613 378.817 69.9931 378.249 71.546C377.84 72.6635 379.128 78.4133 380.168 78.6294C381.037 78.8101 383.164 75.9459 382.684 77.1206C381.571 79.8449 388.263 81.5833 396.275 76.1147C396.559 75.9207 396.29 76.23 397.281 78.6294C398.531 81.6556 398.813 81.8195 398.791 82.653C398.744 84.4573 397.388 84.9885 397.785 86.1736C398.106 87.1335 399.36 87.8765 400.302 87.6825C401.364 87.4634 401.546 86.1503 402.315 86.1736C402.974 86.1936 403.755 87.1849 403.825 88.1854C403.972 90.2932 400.849 90.8729 400.302 93.7178C399.993 95.3234 403.627 92.5924 404.328 92.7119Z" fill="#2F2E41"/>
<path d="M435.702 203.439C435.762 201.887 435.449 200.344 434.79 198.939L436.218 182.773L428.497 182.319L427.881 198.77C427.152 200.141 426.763 201.666 426.745 203.219C426.649 207.102 428.575 210.299 431.047 210.361C433.52 210.423 435.603 207.325 435.7 203.442L435.702 203.439Z" fill="#FFB6B6"/>
<path d="M419.278 138.251L425.366 157.053L427.114 195.454L437.305 195.246L438.095 153.182C438.095 153.182 433.017 122.1 431.316 115.114C429.615 108.128 413.934 110.717 413.934 110.717L419.278 138.251V138.251V138.251Z" fill="#2F2E41"/>
<path d="M166.764 89.2307C169.643 90.1859 172.661 91.1528 175.735 90.9896C177.133 90.9154 178.478 90.5821 179.747 89.9894C181.048 89.3814 182.237 88.5559 183.554 87.9799C188.394 85.8631 193.194 89.4792 197.708 90.8365C199.96 91.5136 202.329 91.6757 204.532 90.7325C206.966 89.6905 208.802 87.702 210.806 86.0417C215.299 82.3192 221.161 80.3122 226.992 80.464C233.39 80.6304 239.582 83.4537 243.987 88.0718C244.356 88.459 244.943 87.8718 244.574 87.4852C240.724 83.4493 235.536 80.7284 230.012 79.9038C224.476 79.0775 218.729 80.1816 213.861 82.9363C211.398 84.3304 209.422 86.2385 207.252 88.0193C205.139 89.7534 202.79 90.871 200.004 90.5024C195.204 89.8675 191.076 86.1721 186.098 86.5071C182.919 86.7211 180.649 89.1111 177.657 89.873C174.088 90.782 170.358 89.55 166.985 88.4309C166.477 88.2623 166.259 89.0631 166.764 89.2308L166.764 89.2307V89.2307Z" fill="#3F3D56"/>
<path d="M175.775 93.6498C177.473 93.6498 178.85 92.2743 178.85 90.5774C178.85 88.8805 177.473 87.5049 175.775 87.5049C174.077 87.5049 172.7 88.8805 172.7 90.5774C172.7 92.2743 174.077 93.6498 175.775 93.6498Z" fill="#A3CDFF"/>
<path d="M202.321 93.7866C204.019 93.7866 205.395 92.411 205.395 90.7141C205.395 89.0172 204.019 87.6416 202.321 87.6416C200.622 87.6416 199.246 89.0172 199.246 90.7141C199.246 92.411 200.622 93.7866 202.321 93.7866Z" fill="#A3CDFF"/>
<path d="M229.279 83.3637C230.977 83.3637 232.354 81.9881 232.354 80.2912C232.354 78.5943 230.977 77.2188 229.279 77.2188C227.581 77.2188 226.204 78.5943 226.204 80.2912C226.204 81.9881 227.581 83.3637 229.279 83.3637Z" fill="#A3CDFF"/>
<path d="M50.8536 186.887C41.7622 212.752 53.3456 233.129 50.9418 219.984C48.9329 208.999 83.1648 175.57 93.4688 182.463C93.253 181.347 86.7036 161.235 86.0616 161.142C86.9598 158.882 85.7079 158.86 85.657 157.702C85.4622 153.229 86.5027 148.586 88.5294 143.808C89.8576 140.116 89.8809 136.944 88.5936 134.386C87.4859 132.284 85.625 130.677 83.3829 129.887L76.6309 121.739C74.872 119.618 72.278 115.042 69.5219 115.059L54.7267 114.531C54.3039 114.277 49.1087 118.741 44.0502 120.931C38.5639 123.309 39.6957 129.799 39.7095 129.882L39.7222 129.96L39.7826 130.015L47.8468 153.732L55.1329 160.555C54.7638 161.625 54.8562 162.428 55.5475 162.888C54.5551 163.621 50.1408 185.565 50.8536 186.334V186.887L50.8536 186.887Z" fill="#A3CDFF"/>
<path d="M126.877 139.948C125.777 140.387 124.798 141.083 124.022 141.977L112.306 145.99L114.38 151.504L126.042 146.84C127.223 146.922 128.408 146.721 129.496 146.253C132.234 145.117 133.868 142.786 133.144 141.045C132.42 139.304 129.615 138.813 126.877 139.948V139.948Z" fill="#FFB6B6"/>
<path d="M64.3772 122.251L91.1058 158.301L122.437 149.68L121.075 141.513L97.2169 146.028L83.9071 125.583C79.5609 117.188 70.9947 115.498 64.3772 122.25V122.251Z" fill="#A3CDFF"/>
<path d="M256.348 304.034H244.15C242.02 304.034 240.287 302.302 240.287 300.173C237.975 293.896 237.683 288.265 240.287 283.562C240.287 281.433 242.02 279.701 244.15 279.701C247.757 277.087 251.962 277.881 256.348 279.701C258.478 279.701 260.211 281.433 260.211 283.562C258.731 288.884 258.838 294.437 260.211 300.173C260.211 302.302 258.478 304.034 256.348 304.034Z" fill="#A3CDFF"/>
<path d="M255.168 287.095H245.317C244.977 287.095 244.701 286.819 244.701 286.479C244.701 286.14 244.977 285.864 245.317 285.864H255.168C255.508 285.864 255.784 286.14 255.784 286.479C255.784 286.819 255.508 287.095 255.168 287.095Z" fill="white"/>
<path d="M255.168 292.016H245.317C244.977 292.016 244.701 291.74 244.701 291.4C244.701 291.061 244.977 290.785 245.317 290.785H255.168C255.508 290.785 255.784 291.061 255.784 291.4C255.784 291.74 255.508 292.016 255.168 292.016Z" fill="white"/>
<path d="M255.168 296.936H245.317C244.977 296.936 244.701 296.661 244.701 296.321C244.701 295.982 244.977 295.706 245.317 295.706H255.168C255.508 295.706 255.784 295.982 255.784 296.321C255.784 296.661 255.508 296.936 255.168 296.936Z" fill="white"/>
<path d="M471 326.398H0V327.329H471V326.398Z" fill="#E6E6E6"/>
<path d="M367.6 202.148C368 206.011 370.32 208.937 372.78 208.683C375.24 208.428 376.91 205.09 376.51 201.226C376.371 199.68 375.864 198.189 375.03 196.879L373.129 180.527L365.468 181.582L368.155 197.587C367.608 199.04 367.417 200.603 367.598 202.145L367.6 202.148Z" fill="#FFB6B6"/>
<path d="M378.874 135.874L382.048 108.007C382.048 108.007 366.213 106.65 365.064 113.748C363.914 120.845 361.282 152.229 361.282 152.229L365.359 194.102L375.535 193.514L374.275 155.094L378.874 135.874V135.874Z" fill="#2F2E41"/>
<path d="M72.969 111.462L51.5733 113.408L50.9419 91.1886L74.2511 90.5273L72.969 111.462Z" fill="#2F2E41"/>
<path d="M62.1496 108.479C68.3509 108.479 73.3781 103.456 73.3781 97.2596C73.3781 91.0632 68.3509 86.04 62.1496 86.04C55.9483 86.04 50.9211 91.0632 50.9211 97.2596C50.9211 103.456 55.9483 108.479 62.1496 108.479Z" fill="#FFB6B6"/>
<path d="M71.1821 86.3272C71.103 83.5433 67.6362 83.2419 64.9351 82.5548L62.4858 81.2847C60.0816 80.6732 57.5308 81.1033 55.4606 82.4692L48.9294 86.4227C45.9968 88.3577 45.5309 91.4852 44.3384 94.7884L42.18 99.6236C41.006 102.875 42.5573 107.184 43.744 110.431L44.2413 111.791L43.4637 116.244L57.0744 115.609L58.2842 108.735L55.9609 106.125C55.1366 105.2 55.0697 103.825 55.8003 102.823H55.8003C58.4284 99.2211 57.9413 94.173 57.9413 94.173L61.2673 95.9858C63.4527 96.2837 65.4002 96.251 67.1137 95.8933C68.9982 95.4998 70.5997 94.713 71.9233 93.5401L73.1091 97.5253C73.4146 102.485 72.487 103.802 68.0626 108.653L75.8213 113.52L75.5344 110.887C74.8518 104.621 76.9329 99.6801 76.6412 94.5806C76.4394 91.0544 74.3407 87.9128 71.1821 86.3272H71.1821H71.1821Z" fill="#2F2E41"/>
<path d="M73.0405 180.931C71.9443 180.483 70.7566 180.303 69.5766 180.407L58.3602 175.158L56.0168 180.564L67.6469 185.307C68.4394 186.187 69.4311 186.864 70.5393 187.283C73.2977 188.367 76.0943 187.825 76.7844 186.071C77.4745 184.316 75.7989 182.016 73.0405 180.931H73.0405Z" fill="#FFB6B6"/>
<path d="M40.4027 124.809L34.5535 169.292L63.08 184.846L67.78 178.028L47.4831 164.709L52.1302 140.765C54.8426 131.711 49.858 124.547 40.4031 124.809L40.4027 124.809Z" fill="#A3CDFF"/>
</g>
<defs>
<clipPath id="clip0_3257_45700">
<rect width="471" height="328" fill="white"/>
</clipPath>
</defs>
</svg>
