<svg width="300" height="255" viewBox="0 0 300 255" fill="none" xmlns="http://www.w3.org/2000/svg">
<g clip-path="url(#clip0_1762_34287)">
<path d="M176.174 65.4287H167.28C166.827 65.4282 166.392 65.2478 166.071 64.9272C165.75 64.6065 165.57 64.1718 165.57 63.7183V54.8241C165.57 54.3706 165.75 53.9358 166.071 53.6152C166.392 53.2945 166.827 53.1142 167.28 53.1136H176.174C176.628 53.1142 177.062 53.2945 177.383 53.6152C177.704 53.9358 177.884 54.3706 177.885 54.8241V63.7183C177.884 64.1718 177.704 64.6065 177.383 64.9272C177.062 65.2478 176.628 65.4282 176.174 65.4287ZM167.28 53.7978C167.008 53.7981 166.747 53.9063 166.555 54.0987C166.362 54.2911 166.254 54.552 166.254 54.8241V63.7183C166.254 63.9904 166.362 64.2513 166.555 64.4437C166.747 64.6361 167.008 64.7443 167.28 64.7446H176.174C176.446 64.7443 176.707 64.6361 176.9 64.4437C177.092 64.2513 177.2 63.9904 177.201 63.7183V54.8241C177.2 54.552 177.092 54.2911 176.9 54.0987C176.707 53.9063 176.446 53.7981 176.174 53.7978H167.28Z" fill="#E6E6E6"/>
<path d="M72.5221 12.4054H63.6279C63.1744 12.4049 62.7397 12.2245 62.419 11.9039C62.0984 11.5832 61.918 11.1485 61.9175 10.695V1.80076C61.918 1.34729 62.0984 0.912534 62.419 0.591878C62.7397 0.271223 63.1744 0.0908508 63.6279 0.090332H72.5221C72.9756 0.0908508 73.4104 0.271223 73.731 0.591878C74.0517 0.912534 74.2321 1.34729 74.2326 1.80076V10.695C74.2321 11.1485 74.0517 11.5832 73.731 11.9039C73.4104 12.2245 72.9756 12.4049 72.5221 12.4054ZM63.6279 0.774504C63.3558 0.774801 63.095 0.88302 62.9026 1.07542C62.7102 1.26781 62.6019 1.52867 62.6017 1.80076V10.695C62.6019 10.9671 62.7102 11.2279 62.9026 11.4203C63.095 11.6127 63.3558 11.721 63.6279 11.7213H72.5221C72.7942 11.721 73.0551 11.6127 73.2475 11.4203C73.4399 11.2279 73.5481 10.9671 73.5484 10.695V1.80076C73.5481 1.52867 73.4399 1.26781 73.2475 1.07542C73.0551 0.88302 72.7942 0.774801 72.5221 0.774504H63.6279Z" fill="#E6E6E6"/>
<path d="M170.701 60.9816H161.807C161.353 60.9811 160.918 60.8007 160.598 60.4801C160.277 60.1594 160.097 59.7246 160.096 59.2712V50.3769C160.097 49.9235 160.277 49.4887 160.598 49.1681C160.918 48.8474 161.353 48.667 161.807 48.6665H170.701C171.154 48.667 171.589 48.8474 171.91 49.1681C172.23 49.4887 172.411 49.9235 172.411 50.3769V59.2712C172.411 59.7246 172.23 60.1594 171.91 60.4801C171.589 60.8007 171.154 60.9811 170.701 60.9816ZM161.807 49.3507C161.535 49.351 161.274 49.4592 161.081 49.6516C160.889 49.844 160.781 50.1048 160.78 50.3769V59.2712C160.781 59.5433 160.889 59.8041 161.081 59.9965C161.274 60.1889 161.535 60.2971 161.807 60.2974H170.701C170.973 60.2971 171.234 60.1889 171.426 59.9965C171.619 59.8041 171.727 59.5433 171.727 59.2712V50.3769C171.727 50.1048 171.619 49.844 171.426 49.6516C171.234 49.4592 170.973 49.351 170.701 49.3507H161.807Z" fill="#E6E6E6"/>
<path d="M16.0781 135.214H7.18382C6.73034 135.214 6.29559 135.033 5.97493 134.713C5.65428 134.392 5.47391 133.957 5.47339 133.504V124.61C5.47391 124.156 5.65428 123.721 5.97493 123.401C6.29559 123.08 6.73034 122.9 7.18382 122.899H16.0781C16.5315 122.9 16.9663 123.08 17.2869 123.401C17.6076 123.721 17.788 124.156 17.7885 124.61V133.504C17.788 133.957 17.6076 134.392 17.2869 134.713C16.9663 135.033 16.5315 135.214 16.0781 135.214ZM7.18382 123.583C6.91173 123.584 6.65087 123.692 6.45847 123.884C6.26608 124.077 6.15786 124.338 6.15756 124.61V133.504C6.15786 133.776 6.26608 134.037 6.45847 134.229C6.65087 134.422 6.91173 134.53 7.18382 134.53H16.0781C16.3501 134.53 16.611 134.422 16.8034 134.229C16.9958 134.037 17.104 133.776 17.1043 133.504V124.61C17.104 124.338 16.9958 124.077 16.8034 123.884C16.611 123.692 16.3501 123.584 16.0781 123.583H7.18382Z" fill="#E6E6E6"/>
<path d="M10.6047 130.767H1.71043C1.25695 130.767 0.822202 130.586 0.501546 130.266C0.180891 129.945 0.000518791 129.51 0 129.057V120.163C0.000518791 119.709 0.180891 119.274 0.501546 118.954C0.822202 118.633 1.25695 118.453 1.71043 118.452H10.6047C11.0581 118.453 11.4929 118.633 11.8135 118.954C12.1342 119.274 12.3146 119.709 12.3151 120.163V129.057C12.3146 129.51 12.1342 129.945 11.8135 130.266C11.4929 130.586 11.0581 130.767 10.6047 130.767ZM1.71043 119.136C1.43834 119.137 1.17748 119.245 0.985084 119.437C0.792688 119.63 0.684469 119.89 0.684172 120.163V129.057C0.684469 129.329 0.792688 129.59 0.985084 129.782C1.17748 129.975 1.43834 130.083 1.71043 130.083H10.6047C10.8768 130.083 11.1376 129.975 11.33 129.782C11.5224 129.59 11.6306 129.329 11.6309 129.057V120.163C11.6306 119.89 11.5224 119.63 11.33 119.437C11.1376 119.245 10.8768 119.137 10.6047 119.136H1.71043Z" fill="#E6E6E6"/>
<path d="M31.6189 29.5229H113.93C117.902 29.5229 121.756 30.8743 124.858 33.3549C127.96 35.8355 130.126 39.2977 130.999 43.1724L172.59 227.648C173.043 229.66 173.051 231.747 172.613 233.763C172.175 235.778 171.301 237.674 170.053 239.316C168.805 240.958 167.212 242.307 165.388 243.269C163.563 244.231 161.55 244.782 159.49 244.883L74.8734 249.052C70.3424 249.276 65.885 247.843 62.333 245.021C58.7809 242.199 56.3768 238.181 55.5693 233.717L31.9768 103.291L30.2216 103.793L25.7074 79.0718L27.5141 78.6201L20.9286 42.2134C20.6466 40.6541 20.712 39.0517 21.1202 37.5205C21.5284 35.9893 22.2694 34.567 23.2904 33.3551C24.3113 32.1431 25.5871 31.1713 27.0267 30.5089C28.4663 29.8465 30.0343 29.5099 31.6189 29.523V29.5229Z" fill="#3F3D56"/>
<path d="M103.094 33.4998H112.702C115.461 33.4998 118.138 34.4434 120.287 36.1742C122.436 37.9049 123.928 40.3185 124.517 43.0144L164.437 225.985C164.667 227.039 164.667 228.129 164.437 229.183C164.206 230.236 163.752 231.227 163.103 232.089C162.455 232.95 161.628 233.661 160.679 234.174C159.731 234.687 158.683 234.989 157.607 235.059L73.2641 240.587C70.8846 240.743 68.5311 240.017 66.6525 238.548C64.774 237.08 63.502 234.971 63.0793 232.624L29.0145 43.5059C28.794 42.2818 28.8449 41.0243 29.1635 39.822C29.482 38.6198 30.0606 37.5021 30.8583 36.5478C31.656 35.5936 32.6535 34.8261 33.7802 34.2994C34.9069 33.7727 36.1355 33.4998 37.3793 33.4998H46.4942C47.3764 33.4998 48.2339 33.7906 48.9341 34.3272C49.6344 34.8638 50.1381 35.6163 50.3675 36.4682C50.57 37.2202 51.0147 37.8846 51.6329 38.3583C52.251 38.832 53.0081 39.0888 53.787 39.0888H97.0585C98.5836 39.0888 100.052 38.5131 101.171 37.4769C102.29 36.4407 102.977 35.0203 103.094 33.4998L103.094 33.4998Z" fill="white"/>
<path d="M35.5769 64.6099H127.077L136.824 108.532L44.1291 110.242L35.5769 64.6099Z" fill="#0050FF"/>
<path d="M122.467 147.787H144.008L144.692 151.911H123.151L122.467 147.787Z" fill="#0050FF"/>
<path d="M139.994 126.75L48.6345 128.684L48.6436 129.114L140.003 127.18L139.994 126.75Z" fill="#2F2E41"/>
<path d="M142.788 139.433L49.7087 141.582L49.7187 142.012L142.797 139.863L142.788 139.433Z" fill="#2F2E41"/>
<path d="M131.361 191.917H152.903L153.587 196.04H132.045L131.361 191.917Z" fill="#0050FF"/>
<path d="M148.888 170.879L57.5288 172.813L57.5379 173.243L148.897 171.309L148.888 170.879Z" fill="#2F2E41"/>
<path d="M151.682 183.562L58.603 185.711L58.613 186.141L151.692 183.992L151.682 183.562Z" fill="#2F2E41"/>
<path d="M210.574 250.226L206.499 250.226L204.56 234.504L210.575 234.505L210.574 250.226Z" fill="#A0616A"/>
<path d="M211.614 254.177L198.471 254.176V254.01C198.472 252.654 199.011 251.353 199.97 250.393C200.929 249.434 202.23 248.895 203.587 248.895H203.587L211.614 248.895L211.614 254.177Z" fill="#2F2E41"/>
<path d="M261.209 247.557L257.241 248.491L251.75 233.633L257.605 232.254L261.209 247.557Z" fill="#A0616A"/>
<path d="M263.126 251.165L250.334 254.177L250.296 254.015C249.985 252.695 250.211 251.305 250.925 250.151C251.639 248.997 252.782 248.174 254.102 247.863L254.102 247.863L261.916 246.023L263.126 251.165Z" fill="#2F2E41"/>
<path d="M209.741 183.916C209.749 183.096 209.992 163.762 215.292 156.451L215.37 156.343L233.84 158.891L233.427 162.949C234.239 163.739 240.63 170.417 242.475 186.229L262.079 238.882L252.965 239.71L225.987 182.234L211.71 244.711H202.675L209.741 183.916Z" fill="#2F2E41"/>
<path d="M213.128 157.164L214.934 147.686C214.58 147.231 213.014 145.046 213.363 142.485C213.59 140.814 214.588 139.349 216.328 138.129L221.008 127.209L221.071 127.172C221.386 126.987 228.837 122.678 232.899 126.743C233.001 126.822 243.002 134.761 238.986 145.471L234.028 160.346L213.128 157.164Z" fill="#FF9A82"/>
<path d="M206.847 169.988C207.333 169.932 207.802 169.771 208.22 169.514C208.637 169.258 208.994 168.913 209.264 168.504C209.533 168.095 209.71 167.632 209.782 167.147C209.853 166.662 209.818 166.168 209.677 165.698L219.342 158.735L213.556 156.535L205.266 163.484C204.493 163.772 203.852 164.334 203.466 165.063C203.079 165.791 202.973 166.637 203.168 167.438C203.362 168.24 203.845 168.942 204.523 169.412C205.201 169.882 206.028 170.087 206.847 169.988Z" fill="#A0616A"/>
<path d="M208.623 158.724L223.377 147.1L218.991 132.114C218.784 131.404 218.725 130.659 218.819 129.926C218.913 129.193 219.156 128.487 219.534 127.852C219.884 127.253 220.356 126.734 220.918 126.329C221.48 125.923 222.121 125.639 222.8 125.495C225.326 124.96 227.619 126.375 229.613 129.699L229.628 129.729C229.958 130.536 237.645 149.536 231.776 153.599C226.035 157.574 212.722 163.36 212.588 163.418L212.432 163.486L208.623 158.724Z" fill="#FF9A82"/>
<path d="M228.232 122.791C233.168 122.791 237.17 118.789 237.17 113.853C237.17 108.917 233.168 104.915 228.232 104.915C223.296 104.915 219.294 108.917 219.294 113.853C219.294 118.789 223.296 122.791 228.232 122.791Z" fill="#A0616A"/>
<path d="M242.244 110.662C246.611 110.662 250.151 107.122 250.151 102.755C250.151 98.3883 246.611 94.8481 242.244 94.8481C237.877 94.8481 234.337 98.3883 234.337 102.755C234.337 107.122 237.877 110.662 242.244 110.662Z" fill="#2F2E41"/>
<path d="M249.065 109.303C248.041 110.043 246.856 110.526 245.607 110.714C244.358 110.901 243.083 110.787 241.887 110.381C240.691 109.974 239.611 109.287 238.735 108.377C237.859 107.467 237.214 106.361 236.854 105.151C236.99 106.236 237.35 107.28 237.911 108.218C238.471 109.157 239.22 109.969 240.11 110.604C241 111.238 242.012 111.681 243.082 111.905C244.152 112.128 245.257 112.128 246.327 111.903C247.396 111.678 248.408 111.234 249.297 110.598C250.186 109.963 250.934 109.15 251.494 108.21C252.053 107.271 252.412 106.226 252.547 105.142C252.682 104.057 252.59 102.956 252.279 101.908C252.456 103.316 252.251 104.745 251.685 106.046C251.12 107.347 250.215 108.472 249.065 109.303Z" fill="#2F2E41"/>
<path d="M217.86 109.312C219.24 106.84 219.768 105.808 221.548 104.305C223.122 102.976 225.058 102.586 226.619 103.845C228.467 103.047 230.522 102.866 232.48 103.329C234.439 103.792 236.195 104.875 237.489 106.416C238.784 107.957 239.546 109.874 239.664 111.883C239.782 113.892 239.248 115.885 238.143 117.566C237.037 119.248 235.419 120.528 233.528 121.217C231.638 121.905 229.575 121.965 227.647 121.389C225.719 120.812 224.029 119.628 222.827 118.014C221.626 116.4 220.977 114.441 220.977 112.429C220.978 112.076 221 111.723 221.041 111.372C219.683 111.181 219.217 109.502 217.86 109.312Z" fill="#2F2E41"/>
<path d="M299.658 254.602H169.323C169.232 254.602 169.145 254.566 169.081 254.502C169.017 254.438 168.981 254.351 168.981 254.26C168.981 254.17 169.017 254.083 169.081 254.018C169.145 253.954 169.232 253.918 169.323 253.918H299.658C299.749 253.918 299.836 253.954 299.9 254.018C299.964 254.083 300 254.17 300 254.26C300 254.351 299.964 254.438 299.9 254.502C299.836 254.566 299.749 254.602 299.658 254.602Z" fill="#3F3D56"/>
</g>
<defs>
<clipPath id="clip0_1762_34287">
<rect width="300" height="254.512" fill="white" transform="translate(0 0.090332)"/>
</clipPath>
</defs>
</svg>
