<svg width="300" height="314" viewBox="0 0 300 314" fill="none" xmlns="http://www.w3.org/2000/svg">
<g clip-path="url(#clip0_1762_34207)">
<path d="M275.149 267.988L261.407 280.625L272.328 262.32C263.724 246.735 249.652 233.265 249.652 233.265C249.652 233.265 220.458 261.205 220.458 283.167C220.458 305.129 233.529 312.798 249.652 312.798C265.775 312.798 278.846 305.129 278.846 283.167C278.846 278.279 277.397 273.094 275.149 267.988Z" fill="#F2F2F2"/>
<path d="M257.873 281.309V282.391C257.809 294.975 255.684 304.793 251.516 311.706C251.456 311.808 251.392 311.905 251.333 312.006L250.866 311.722L250.421 311.444C255.046 303.978 256.682 293.426 256.741 282.45C256.746 282.097 256.752 281.738 256.746 281.379C256.73 276.732 256.446 272.032 255.99 267.466C255.958 267.112 255.92 266.753 255.883 266.394C255.25 260.37 254.338 254.615 253.404 249.615C253.34 249.261 253.27 248.907 253.2 248.559C251.585 240.102 249.938 233.976 249.563 232.62C249.52 232.454 249.493 232.363 249.488 232.342L249.997 232.197L250.003 232.192L250.518 232.047C250.523 232.068 250.614 232.374 250.764 232.942C251.338 235.064 252.83 240.825 254.295 248.425C254.359 248.768 254.429 249.121 254.493 249.475C255.255 253.532 256.001 258.066 256.591 262.825C256.741 264.02 256.875 265.199 256.993 266.362C257.036 266.721 257.074 267.08 257.106 267.434C257.599 272.37 257.855 276.995 257.873 281.309Z" fill="white"/>
<path d="M254.295 248.425C253.935 248.473 253.57 248.521 253.2 248.559C252.195 248.662 251.185 248.714 250.174 248.714C245.867 248.72 241.614 247.76 237.728 245.906C237.502 246.19 237.277 246.474 237.046 246.763C241.135 248.757 245.625 249.791 250.174 249.786C251.253 249.786 252.331 249.728 253.404 249.614C253.769 249.577 254.134 249.529 254.493 249.475C257.46 249.05 260.346 248.177 263.051 246.887C262.82 246.592 262.594 246.303 262.375 246.018C259.815 247.214 257.092 248.024 254.295 248.425Z" fill="white"/>
<path d="M256.993 266.362C256.623 266.383 256.253 266.394 255.883 266.394C255.77 266.4 255.652 266.4 255.539 266.4C250.872 266.4 246.275 265.272 242.138 263.114C238.002 260.956 234.449 257.83 231.783 254.004C231.568 254.32 231.354 254.636 231.145 254.958C233.923 258.829 237.585 261.984 241.828 264.16C246.07 266.336 250.77 267.471 255.539 267.471C255.69 267.471 255.84 267.471 255.99 267.466C256.366 267.461 256.736 267.45 257.106 267.434C262.834 267.141 268.357 265.206 273.013 261.86C272.842 261.544 272.67 261.228 272.493 260.912C267.967 264.196 262.581 266.09 256.993 266.362Z" fill="white"/>
<path d="M257.873 281.309C257.498 281.341 257.122 281.362 256.747 281.378C256.344 281.395 255.942 281.405 255.539 281.405C249.268 281.398 243.168 279.362 238.153 275.602C233.137 271.842 229.475 266.56 227.716 260.547C227.475 260.981 227.233 261.41 227.003 261.844C228.985 267.843 232.809 273.065 237.932 276.769C243.054 280.473 249.215 282.47 255.539 282.477C255.942 282.477 256.344 282.472 256.741 282.45C257.122 282.44 257.498 282.418 257.873 282.391C265.459 281.799 272.536 278.348 277.67 272.739C277.558 272.343 277.429 271.952 277.3 271.555C272.341 277.206 265.372 280.705 257.873 281.309Z" fill="white"/>
<mask id="path-6-inside-1_1762_34207" fill="white">
<path d="M225.733 68.4116L76.2687 49.3769C75.866 49.3253 75.4605 49.299 75.0546 49.2982C74.6544 49.2975 74.2547 49.3227 73.8579 49.3737C73.4617 49.4246 73.0693 49.5013 72.6831 49.6033C72.2924 49.7075 71.9089 49.8368 71.5349 49.9904C71.1684 50.1407 70.8115 50.313 70.466 50.5065C70.1158 50.7014 69.7775 50.9168 69.4527 51.1516C69.1205 51.3925 68.8023 51.6521 68.4995 51.929C68.1869 52.2139 67.8899 52.5154 67.6096 52.8321C67.3219 53.1583 67.0512 53.4989 66.7984 53.8527C66.5431 54.211 66.3035 54.5836 66.0796 54.9707C65.8558 55.3591 65.648 55.7629 65.4564 56.1822C65.2648 56.6015 65.09 57.0351 64.932 57.4828C64.7684 57.9455 64.625 58.4186 64.5019 58.902C64.3788 59.3854 64.2759 59.8772 64.1932 60.3774C64.1123 60.8772 64.0503 61.3851 64.0072 61.9012C63.9642 62.4173 63.9426 62.9396 63.9426 63.4681C63.9443 63.9963 63.9659 64.5227 64.0072 65.0474C64.0486 65.5721 64.1106 66.0925 64.1932 66.6086C64.2767 67.1268 64.3801 67.6399 64.5032 68.1478C64.6263 68.6557 64.7697 69.1578 64.9333 69.6541C65.0913 70.1337 65.2661 70.6023 65.4577 71.0599C65.6493 71.5179 65.857 71.9635 66.0809 72.3965C66.3048 72.8296 66.5444 73.2502 66.7997 73.6584C67.0546 74.0683 67.325 74.4626 67.6109 74.8415C67.8967 75.2204 68.1934 75.5819 68.5008 75.926C68.8082 76.2679 69.126 76.5904 69.454 76.8936C69.7821 77.1968 70.1199 77.48 70.4673 77.7432C70.811 78.0038 71.1677 78.2467 71.5362 78.4709C71.9072 78.697 72.2905 78.9023 72.6844 79.0857C73.0665 79.2636 73.4588 79.4189 73.8591 79.5509C74.2513 79.6802 74.6509 79.7855 75.0559 79.8663C75.4568 79.9461 75.8623 80.0011 76.27 80.0308L225.734 90.9519C226.169 90.9835 226.606 90.9399 227.026 90.8229C227.239 90.7635 227.448 90.6867 227.649 90.5932C227.859 90.4957 228.061 90.3824 228.254 90.2545C228.45 90.1249 228.636 89.9827 228.813 89.8288C228.999 89.6672 229.175 89.4949 229.34 89.3127C229.515 89.1201 229.68 88.9186 229.833 88.7089C229.992 88.493 230.145 88.2629 230.291 88.0186C230.437 87.7743 230.576 87.5195 230.706 87.2541C230.837 86.9888 230.959 86.7131 231.072 86.4271C231.187 86.1415 231.292 85.846 231.389 85.5407C231.486 85.2353 231.574 84.921 231.654 84.5975C231.738 84.263 231.81 83.9223 231.871 83.5757C231.931 83.229 231.983 82.8772 232.026 82.5203C232.068 82.1633 232.099 81.8016 232.12 81.4352C232.141 81.0688 232.151 80.6983 232.151 80.3237C232.15 79.9495 232.139 79.577 232.12 79.2063C232.101 78.8356 232.069 78.4677 232.026 78.1025C231.985 77.7374 231.933 77.3753 231.871 77.0162C231.809 76.6571 231.736 76.3018 231.654 75.9504C231.574 75.6107 231.486 75.2787 231.389 74.9544C231.293 74.6344 231.187 74.3192 231.072 74.0086C230.957 73.6981 230.835 73.3971 230.706 73.1055C230.576 72.8143 230.438 72.5318 230.291 72.2578C230.144 71.9839 229.992 71.7232 229.833 71.4759C229.675 71.2286 229.51 70.9942 229.34 70.7727C229.17 70.5512 228.995 70.3439 228.813 70.1508C228.637 69.9616 228.45 69.782 228.254 69.6128C228.062 69.447 227.86 69.2934 227.649 69.1528C227.45 69.0201 227.242 68.9015 227.026 68.798C226.819 68.6991 226.606 68.6163 226.386 68.5503C226.173 68.4863 225.954 68.4399 225.733 68.4116"/>
</mask>
<path d="M225.733 68.4116L76.2687 49.3769C75.866 49.3253 75.4605 49.299 75.0546 49.2982C74.6544 49.2975 74.2547 49.3227 73.8579 49.3737C73.4617 49.4246 73.0693 49.5013 72.6831 49.6033C72.2924 49.7075 71.9089 49.8368 71.5349 49.9904C71.1684 50.1407 70.8115 50.313 70.466 50.5065C70.1158 50.7014 69.7775 50.9168 69.4527 51.1516C69.1205 51.3925 68.8023 51.6521 68.4995 51.929C68.1869 52.2139 67.8899 52.5154 67.6096 52.8321C67.3219 53.1583 67.0512 53.4989 66.7984 53.8527C66.5431 54.211 66.3035 54.5836 66.0796 54.9707C65.8558 55.3591 65.648 55.7629 65.4564 56.1822C65.2648 56.6015 65.09 57.0351 64.932 57.4828C64.7684 57.9455 64.625 58.4186 64.5019 58.902C64.3788 59.3854 64.2759 59.8772 64.1932 60.3774C64.1123 60.8772 64.0503 61.3851 64.0072 61.9012C63.9642 62.4173 63.9426 62.9396 63.9426 63.4681C63.9443 63.9963 63.9659 64.5227 64.0072 65.0474C64.0486 65.5721 64.1106 66.0925 64.1932 66.6086C64.2767 67.1268 64.3801 67.6399 64.5032 68.1478C64.6263 68.6557 64.7697 69.1578 64.9333 69.6541C65.0913 70.1337 65.2661 70.6023 65.4577 71.0599C65.6493 71.5179 65.857 71.9635 66.0809 72.3965C66.3048 72.8296 66.5444 73.2502 66.7997 73.6584C67.0546 74.0683 67.325 74.4626 67.6109 74.8415C67.8967 75.2204 68.1934 75.5819 68.5008 75.926C68.8082 76.2679 69.126 76.5904 69.454 76.8936C69.7821 77.1968 70.1199 77.48 70.4673 77.7432C70.811 78.0038 71.1677 78.2467 71.5362 78.4709C71.9072 78.697 72.2905 78.9023 72.6844 79.0857C73.0665 79.2636 73.4588 79.4189 73.8591 79.5509C74.2513 79.6802 74.6509 79.7855 75.0559 79.8663C75.4568 79.9461 75.8623 80.0011 76.27 80.0308L225.734 90.9519C226.169 90.9835 226.606 90.9399 227.026 90.8229C227.239 90.7635 227.448 90.6867 227.649 90.5932C227.859 90.4957 228.061 90.3824 228.254 90.2545C228.45 90.1249 228.636 89.9827 228.813 89.8288C228.999 89.6672 229.175 89.4949 229.34 89.3127C229.515 89.1201 229.68 88.9186 229.833 88.7089C229.992 88.493 230.145 88.2629 230.291 88.0186C230.437 87.7743 230.576 87.5195 230.706 87.2541C230.837 86.9888 230.959 86.7131 231.072 86.4271C231.187 86.1415 231.292 85.846 231.389 85.5407C231.486 85.2353 231.574 84.921 231.654 84.5975C231.738 84.263 231.81 83.9223 231.871 83.5757C231.931 83.229 231.983 82.8772 232.026 82.5203C232.068 82.1633 232.099 81.8016 232.12 81.4352C232.141 81.0688 232.151 80.6983 232.151 80.3237C232.15 79.9495 232.139 79.577 232.12 79.2063C232.101 78.8356 232.069 78.4677 232.026 78.1025C231.985 77.7374 231.933 77.3753 231.871 77.0162C231.809 76.6571 231.736 76.3018 231.654 75.9504C231.574 75.6107 231.486 75.2787 231.389 74.9544C231.293 74.6344 231.187 74.3192 231.072 74.0086C230.957 73.6981 230.835 73.3971 230.706 73.1055C230.576 72.8143 230.438 72.5318 230.291 72.2578C230.144 71.9839 229.992 71.7232 229.833 71.4759C229.675 71.2286 229.51 70.9942 229.34 70.7727C229.17 70.5512 228.995 70.3439 228.813 70.1508C228.637 69.9616 228.45 69.782 228.254 69.6128C228.062 69.447 227.86 69.2934 227.649 69.1528C227.45 69.0201 227.242 68.9015 227.026 68.798C226.819 68.6991 226.606 68.6163 226.386 68.5503C226.173 68.4863 225.954 68.4399 225.733 68.4116" fill="white"/>
<path d="M76.2687 49.3769L76.1416 50.3688L76.1423 50.3689L76.2687 49.3769ZM75.0546 49.2982L75.0566 48.2982L75.0563 48.2982L75.0546 49.2982ZM73.8579 49.3737L73.7305 48.3818V48.3818L73.8579 49.3737ZM72.6831 49.6033L72.4276 48.6365L72.4255 48.6371L72.6831 49.6033ZM71.5349 49.9904L71.9142 50.9156L71.9147 50.9154L71.5349 49.9904ZM70.466 50.5065L70.9524 51.3803L70.9547 51.379L70.466 50.5065ZM69.4527 51.1516L68.8668 50.3412L68.8657 50.3421L69.4527 51.1516ZM68.4995 51.929L69.1732 52.668L69.1744 52.6669L68.4995 51.929ZM67.6096 52.8321L66.8607 52.1694L66.8596 52.1707L67.6096 52.8321ZM66.7984 53.8527L65.9848 53.2714L65.9841 53.2723L66.7984 53.8527ZM66.0796 54.9707L65.214 54.47L65.2133 54.4713L66.0796 54.9707ZM64.932 57.4828L65.8748 57.8161L65.875 57.8156L64.932 57.4828ZM64.1932 60.3774L63.2066 60.2143L63.2061 60.2175L64.1932 60.3774ZM63.9426 63.4681L62.9426 63.4681L62.9426 63.4714L63.9426 63.4681ZM64.1932 66.6086L63.2058 66.7667L63.206 66.7677L64.1932 66.6086ZM64.9333 69.6541L65.8831 69.3412L65.883 69.3411L64.9333 69.6541ZM65.4577 71.0599L66.3802 70.674L66.3801 70.6737L65.4577 71.0599ZM66.7997 73.6584L67.6489 73.1303L67.6475 73.1281L66.7997 73.6584ZM68.5008 75.926L67.7551 76.5922L67.7572 76.5945L68.5008 75.926ZM70.4673 77.7432L71.0715 76.9464L71.0712 76.9461L70.4673 77.7432ZM71.5362 78.4709L72.0566 77.617L72.056 77.6167L71.5362 78.4709ZM72.6844 79.0857L72.2623 79.9923L72.2624 79.9923L72.6844 79.0857ZM73.8591 79.5509L74.1723 78.6012L74.1722 78.6011L73.8591 79.5509ZM75.0559 79.8663L74.8602 80.847L74.8606 80.8471L75.0559 79.8663ZM76.27 80.0308L76.3429 79.0335L76.3428 79.0335L76.27 80.0308ZM225.734 90.9519L225.661 91.9493L225.662 91.9493L225.734 90.9519ZM227.026 90.8229L226.758 89.8594L226.757 89.8596L227.026 90.8229ZM227.649 90.5932L227.227 89.6864V89.6864L227.649 90.5932ZM228.254 90.2545L227.702 89.421L227.701 89.4211L228.254 90.2545ZM228.813 89.8288L228.157 89.0743L228.157 89.0743L228.813 89.8288ZM229.34 89.3127L228.6 88.6406L228.6 88.6407L229.34 89.3127ZM229.833 88.7089L229.028 88.1162L229.026 88.1181L229.833 88.7089ZM230.706 87.2541L229.809 86.8129L229.809 86.813L230.706 87.2541ZM231.072 86.4271L230.144 86.0561L230.143 86.0578L231.072 86.4271ZM231.654 84.5975L230.684 84.3542L230.683 84.3584L231.654 84.5975ZM232.026 82.5203L233.019 82.64L233.02 82.6365L232.026 82.5203ZM232.151 80.3237H233.151L233.151 80.3202L232.151 80.3237ZM232.026 78.1025L231.033 78.2162L231.033 78.2196L232.026 78.1025ZM231.654 75.9504L230.68 76.1787L230.68 76.1794L231.654 75.9504ZM231.389 74.9544L232.347 74.6681L232.347 74.667L231.389 74.9544ZM230.706 73.1055L231.621 72.7005L231.619 72.6977L230.706 73.1055ZM229.833 71.4759L230.675 70.9364L230.675 70.9364L229.833 71.4759ZM228.813 70.1508L228.082 70.8333L228.084 70.8352L228.813 70.1508ZM228.254 69.6128L227.6 70.3695L227.6 70.3696L228.254 69.6128ZM227.649 69.1528L227.094 69.9849L227.095 69.9853L227.649 69.1528ZM227.026 68.798L227.458 67.8964L227.458 67.8962L227.026 68.798ZM226.386 68.5503L226.675 67.5928L226.673 67.5924L226.386 68.5503ZM225.859 67.4196L76.395 48.3849L76.1423 50.3689L225.606 69.4036L225.859 67.4196ZM76.3957 48.385C75.9516 48.3281 75.5044 48.2991 75.0566 48.2982L75.0525 50.2982C75.4167 50.299 75.7804 50.3225 76.1416 50.3688L76.3957 48.385ZM75.0563 48.2982C74.613 48.2974 74.1701 48.3254 73.7305 48.3818L73.9852 50.3655C74.3393 50.3201 74.6959 50.2976 75.0528 50.2982L75.0563 48.2982ZM73.7305 48.3818C73.2911 48.4382 72.8558 48.5233 72.4276 48.6366L72.9387 50.5701C73.2827 50.4792 73.6323 50.4109 73.9852 50.3655L73.7305 48.3818ZM72.4255 48.6371C71.9932 48.7524 71.5688 48.8954 71.155 49.0654L71.9147 50.9154C72.2489 50.7782 72.5917 50.6627 72.9408 50.5696L72.4255 48.6371ZM71.1555 49.0652C70.7516 49.2308 70.3582 49.4207 69.9774 49.634L70.9547 51.379C71.2649 51.2053 71.5853 51.0505 71.9142 50.9156L71.1555 49.0652ZM69.9797 49.6327C69.5951 49.8468 69.2235 50.0834 68.8668 50.3412L70.0387 51.962C70.3315 51.7503 70.6366 51.556 70.9524 51.3803L69.9797 49.6327ZM68.8657 50.3421C68.5029 50.6052 68.1553 50.8886 67.8246 51.1911L69.1744 52.6669C69.4493 52.4155 69.7382 52.1799 70.0398 51.9612L68.8657 50.3421ZM67.8258 51.19C67.4868 51.499 67.1647 51.8259 66.8607 52.1694L68.3584 53.4949C68.615 53.2049 68.887 52.9289 69.1732 52.668L67.8258 51.19ZM66.8596 52.1707C66.5494 52.5224 66.2574 52.8898 65.9848 53.2714L67.6121 54.434C67.845 54.108 68.0945 53.7941 68.3596 53.4936L66.8596 52.1707ZM65.9841 53.2723C65.7101 53.6567 65.4534 54.056 65.214 54.47L66.9453 55.4714C67.1536 55.1112 67.3761 54.7652 67.6128 54.4331L65.9841 53.2723ZM65.2133 54.4713C64.9733 54.8876 64.7512 55.3195 64.5469 55.7666L66.366 56.5978C66.5449 56.2063 66.7383 55.8305 66.946 55.4701L65.2133 54.4713ZM64.5469 55.7666C64.3425 56.2138 64.1566 56.675 63.989 57.15L65.875 57.8156C66.0234 57.3951 66.1871 56.9892 66.366 56.5978L64.5469 55.7666ZM63.9892 57.1494C63.8154 57.6411 63.6633 58.143 63.5329 58.6552L65.471 59.1489C65.5868 58.6942 65.7214 58.25 65.8748 57.8161L63.9892 57.1494ZM63.5329 58.6552C63.4026 59.1667 63.2938 59.6865 63.2066 60.2143L65.1798 60.5405C65.2579 60.068 65.355 59.6041 65.471 59.1489L63.5329 58.6552ZM63.2061 60.2175C63.1209 60.7433 63.0558 61.2768 63.0107 61.818L65.0038 61.9843C65.0447 61.4933 65.1036 61.011 65.1803 60.5373L63.2061 60.2175ZM63.0107 61.818C62.9653 62.3623 62.9426 62.9124 62.9426 63.4681L64.9426 63.4681C64.9426 62.9668 64.9631 62.4722 65.0038 61.9843L63.0107 61.818ZM62.9426 63.4714C62.9444 64.0246 62.967 64.5761 63.0103 65.1259L65.0041 64.9688C64.9648 64.4693 64.9443 63.968 64.9426 63.4649L62.9426 63.4714ZM63.0103 65.1259C63.0537 65.6771 63.1189 66.224 63.2058 66.7667L65.1806 66.4504C65.1022 65.9609 65.0434 65.4671 65.0041 64.9688L63.0103 65.1259ZM63.206 66.7677C63.2936 67.3115 63.402 67.8501 63.5313 68.3834L65.475 67.9122C65.3581 67.4297 65.2599 66.9421 65.1805 66.4494L63.206 66.7677ZM63.5313 68.3834C63.6608 68.9175 63.8116 69.4454 63.9836 69.9672L65.883 69.3411C65.7278 68.8703 65.5918 68.394 65.475 67.9122L63.5313 68.3834ZM63.9835 69.9671C64.1495 70.4709 64.3334 70.964 64.5353 71.4461L66.3801 70.6737C66.1988 70.2405 66.0331 69.7964 65.8831 69.3412L63.9835 69.9671ZM64.5352 71.4458C64.737 71.9282 64.9561 72.3983 65.1926 72.8558L66.9692 71.9373C66.758 71.5286 66.5616 71.1076 66.3802 70.674L64.5352 71.4458ZM65.1926 72.8558C65.4289 73.3128 65.682 73.7571 65.9519 74.1887L67.6475 73.1281C67.4069 72.7433 67.1808 72.3465 66.9692 71.9373L65.1926 72.8558ZM65.9505 74.1865C66.221 74.6214 66.5083 75.0406 66.8126 75.4438L68.4091 74.2392C68.1416 73.8847 67.8882 73.5151 67.6489 73.1303L65.9505 74.1865ZM66.8126 75.4438C67.1146 75.8441 67.4288 76.227 67.7551 76.5922L69.2465 75.2597C68.958 74.9368 68.6788 74.5967 68.4091 74.2392L66.8126 75.4438ZM67.7572 76.5945C68.0846 76.9587 68.424 77.3033 68.7753 77.628L70.1328 76.1592C69.828 75.8776 69.5318 75.577 69.2444 75.2574L67.7572 76.5945ZM68.7753 77.628C69.1267 77.9528 69.4894 78.257 69.8635 78.5404L71.0712 76.9461C70.7503 76.7031 70.4375 76.4409 70.1328 76.1592L68.7753 77.628ZM69.8631 78.5401C70.2339 78.8212 70.6188 79.0833 71.0163 79.3252L72.056 77.6167C71.7167 77.4101 71.388 77.1864 71.0715 76.9464L69.8631 78.5401ZM71.0157 79.3248C71.4185 79.5703 71.8346 79.7931 72.2623 79.9923L73.1065 78.1792C72.7464 78.0115 72.3958 77.8238 72.0566 77.617L71.0157 79.3248ZM72.2624 79.9923C72.68 80.1867 73.1087 80.3564 73.5461 80.5006L74.1722 78.6011C73.8089 78.4814 73.4531 78.3405 73.1064 78.1791L72.2624 79.9923ZM73.546 80.5006C73.9766 80.6425 74.4155 80.7582 74.8602 80.847L75.2516 78.8857C74.8864 78.8128 74.526 78.7178 74.1723 78.6012L73.546 80.5006ZM74.8606 80.8471C75.302 80.9349 75.7483 80.9954 76.1971 81.0282L76.3428 79.0335C75.9762 79.0067 75.6116 78.9573 75.2511 78.8856L74.8606 80.8471ZM76.1971 81.0282L225.661 91.9493L225.807 89.9546L76.3429 79.0335L76.1971 81.0282ZM225.662 91.9493C226.211 91.9892 226.763 91.9341 227.294 91.7862L226.757 89.8596C226.448 89.9457 226.127 89.9778 225.807 89.9546L225.662 91.9493ZM227.294 91.7864C227.56 91.7124 227.82 91.6166 228.07 91.5001L227.227 89.6864C227.076 89.7568 226.919 89.8147 226.758 89.8594L227.294 91.7864ZM228.07 91.5001C228.326 91.3814 228.572 91.2436 228.807 91.088L227.701 89.4211C227.55 89.5213 227.392 89.61 227.227 89.6864L228.07 91.5001ZM228.807 91.088C229.038 90.9344 229.26 90.7658 229.47 90.5832L228.157 89.0743C228.013 89.1997 227.861 89.3155 227.702 89.421L228.807 91.088ZM229.47 90.5832C229.685 90.3958 229.889 90.196 230.081 89.9847L228.6 88.6407C228.461 88.7938 228.313 88.9386 228.157 89.0743L229.47 90.5832ZM230.081 89.9847C230.279 89.7663 230.466 89.5376 230.64 89.2996L229.026 88.1181C228.893 88.2996 228.751 88.474 228.6 88.6406L230.081 89.9847ZM230.639 89.3015C230.817 89.0587 230.987 88.8023 231.149 88.5326L229.433 87.5046C229.302 87.7235 229.167 87.9272 229.028 88.1162L230.639 89.3015ZM231.149 88.5326C231.31 88.2637 231.461 87.9845 231.604 87.6953L229.809 86.813C229.69 87.0545 229.565 87.2849 229.433 87.5046L231.149 88.5326ZM231.604 87.6953C231.746 87.4055 231.879 87.1058 232.002 86.7964L230.143 86.0578C230.039 86.3204 229.927 86.572 229.809 86.8129L231.604 87.6953ZM232.001 86.7981C232.125 86.4891 232.238 86.1707 232.342 85.8431L230.436 85.2383C230.346 85.5214 230.249 85.794 230.144 86.0561L232.001 86.7981ZM232.342 85.8431C232.446 85.516 232.54 85.1805 232.625 84.8367L230.683 84.3584C230.608 84.6614 230.526 84.9546 230.436 85.2383L232.342 85.8431ZM232.624 84.8409C232.714 84.4824 232.791 84.1182 232.856 83.7482L230.886 83.4032C230.829 83.7265 230.762 84.0435 230.684 84.3542L232.624 84.8409ZM232.856 83.7482C232.92 83.3837 232.974 83.0143 233.019 82.64L231.033 82.4006C230.993 82.7402 230.943 83.0744 230.886 83.4032L232.856 83.7482ZM233.02 82.6365C233.064 82.2592 233.097 81.8775 233.118 81.4915L231.122 81.3789C231.102 81.7258 231.072 82.0675 231.033 82.4041L233.02 82.6365ZM233.118 81.4915C233.14 81.106 233.151 80.7167 233.151 80.3237H231.151C231.151 80.6798 231.141 81.0316 231.122 81.3789L233.118 81.4915ZM233.151 80.3202C233.15 79.9299 233.139 79.5412 233.119 79.1541L231.121 79.2585C231.14 79.6129 231.15 79.9691 231.151 80.3271L233.151 80.3202ZM233.119 79.1541C233.098 78.762 233.065 78.3724 233.019 77.9854L231.033 78.2196C231.074 78.563 231.103 78.9092 231.121 79.2585L233.119 79.1541ZM233.02 77.9889C232.976 77.605 232.921 77.2241 232.856 76.846L230.885 77.1863C230.944 77.5265 230.993 77.8698 231.033 78.2162L233.02 77.9889ZM232.856 76.846C232.791 76.4674 232.714 76.0925 232.627 75.7214L230.68 76.1794C230.758 76.5111 230.827 76.8468 230.885 77.1863L232.856 76.846ZM232.627 75.7222C232.543 75.3636 232.45 75.0122 232.347 74.6681L230.431 75.2406C230.522 75.5451 230.605 75.8578 230.68 76.1787L232.627 75.7222ZM232.347 74.667C232.245 74.327 232.133 73.9919 232.01 73.6615L230.135 74.3558C230.242 74.6465 230.341 74.9418 230.431 75.2418L232.347 74.667ZM232.01 73.6615C231.888 73.3322 231.758 73.0118 231.621 72.7005L229.792 73.5105C229.912 73.7824 230.027 74.0641 230.135 74.3558L232.01 73.6615ZM231.619 72.6977C231.48 72.3852 231.331 72.0811 231.172 71.7855L229.41 72.7302C229.545 72.9824 229.673 73.2434 229.793 73.5132L231.619 72.6977ZM231.172 71.7855C231.014 71.49 230.848 71.2068 230.675 70.9364L228.991 72.0153C229.135 72.2396 229.274 72.4777 229.41 72.7302L231.172 71.7855ZM230.675 70.9364C230.502 70.6665 230.322 70.4088 230.133 70.1637L228.547 71.3817C228.699 71.5796 228.847 71.7907 228.991 72.0154L230.675 70.9364ZM230.133 70.1637C229.944 69.9175 229.748 69.6849 229.542 69.4664L228.084 70.8352C228.242 71.003 228.396 71.185 228.547 71.3817L230.133 70.1637ZM229.544 69.4684C229.343 69.253 229.131 69.0486 228.908 68.856L227.6 70.3696C227.769 70.5155 227.93 70.6703 228.082 70.8333L229.544 69.4684ZM228.908 68.8561C228.684 68.663 228.449 68.4841 228.203 68.3204L227.095 69.9853C227.271 70.1027 227.44 70.231 227.6 70.3695L228.908 68.8561ZM228.204 68.3208C227.965 68.162 227.716 68.0202 227.458 67.8964L226.593 69.6997C226.767 69.7829 226.934 69.8782 227.094 69.9849L228.204 68.3208ZM227.458 67.8962C227.205 67.775 226.943 67.6736 226.675 67.5928L226.098 69.5079C226.268 69.559 226.434 69.6232 226.594 69.6998L227.458 67.8962ZM226.673 67.5924C226.407 67.5127 226.135 67.4549 225.86 67.4197L225.606 69.4035C225.773 69.4249 225.938 69.4599 226.099 69.5082L226.673 67.5924Z" fill="white" mask="url(#path-6-inside-1_1762_34207)"/>
<mask id="path-8-inside-2_1762_34207" fill="white">
<path d="M225.733 111.342L76.2687 107.766C75.4579 107.746 74.6479 107.829 73.8579 108.012C73.4593 108.105 73.067 108.222 72.6831 108.364C72.2906 108.508 71.9071 108.676 71.5348 108.867C71.1672 109.055 70.8104 109.263 70.466 109.491C70.115 109.723 69.7768 109.974 69.4527 110.243C69.1202 110.518 68.8021 110.811 68.4995 111.119C68.1917 111.432 67.895 111.765 67.6096 112.117C67.3241 112.471 67.0537 112.839 66.7984 113.223C66.5431 113.606 66.3035 114.003 66.0796 114.415C65.8558 114.826 65.648 115.252 65.4564 115.691C65.2648 116.13 65.09 116.581 64.932 117.045C64.7684 117.526 64.625 118.014 64.5019 118.51C64.3788 119.006 64.2759 119.508 64.1932 120.017C64.1123 120.526 64.0503 121.04 64.0072 121.561C63.9641 122.081 63.9426 122.606 63.9426 123.134C63.9443 123.663 63.9659 124.187 64.0072 124.707C64.0485 125.227 64.1105 125.741 64.1932 126.249C64.2767 126.755 64.3801 127.255 64.5032 127.751C64.6263 128.246 64.7697 128.733 64.9333 129.212C65.0913 129.678 65.2661 130.129 65.4577 130.567C65.6493 131.005 65.857 131.429 66.0809 131.839C66.3048 132.25 66.5444 132.645 66.7997 133.027C67.0546 133.407 67.325 133.773 67.6109 134.124C67.8967 134.475 68.1934 134.805 68.5008 135.116C68.8033 135.423 69.1215 135.713 69.454 135.987C69.7781 136.253 70.1164 136.502 70.4673 136.732C70.8118 136.957 71.1686 137.163 71.5361 137.349C71.9085 137.538 72.292 137.703 72.6844 137.845C73.0684 137.984 73.4608 138.099 73.8591 138.189C74.2535 138.279 74.6532 138.343 75.0558 138.383C75.4593 138.421 75.8648 138.434 76.27 138.422L225.733 133.88C225.952 133.873 226.171 133.848 226.386 133.804C226.604 133.76 226.818 133.698 227.026 133.619C227.241 133.537 227.449 133.439 227.649 133.325C227.86 133.205 228.062 133.071 228.254 132.924C228.45 132.774 228.637 132.612 228.813 132.44C228.999 132.259 229.175 132.069 229.34 131.87C229.51 131.667 229.674 131.448 229.833 131.215C229.992 130.981 230.145 130.735 230.291 130.477C230.437 130.218 230.576 129.948 230.706 129.67C230.837 129.391 230.959 129.103 231.072 128.805C231.186 128.503 231.292 128.195 231.389 127.882C231.486 127.569 231.574 127.246 231.654 126.914C231.738 126.575 231.81 126.228 231.871 125.875C231.931 125.522 231.983 125.165 232.026 124.804C232.068 124.441 232.099 124.076 232.12 123.707C232.141 123.338 232.151 122.967 232.151 122.592C232.15 122.221 232.139 121.85 232.12 121.48C232.101 121.11 232.069 120.744 232.026 120.383C231.984 120.021 231.933 119.664 231.871 119.313C231.809 118.962 231.736 118.614 231.654 118.27C231.574 117.938 231.485 117.614 231.388 117.3C231.291 116.985 231.186 116.679 231.072 116.382C230.959 116.086 230.837 115.798 230.707 115.52C230.576 115.242 230.438 114.973 230.292 114.715C230.145 114.457 229.992 114.212 229.834 113.98C229.675 113.748 229.511 113.531 229.341 113.328C229.176 113.129 229 112.94 228.814 112.761C228.637 112.59 228.45 112.429 228.255 112.281C228.062 112.134 227.86 112.002 227.65 111.883C227.449 111.771 227.241 111.675 227.026 111.594C226.818 111.516 226.604 111.456 226.386 111.413C226.171 111.371 225.952 111.347 225.733 111.342Z"/>
</mask>
<path d="M76.2687 107.766L76.244 108.766L76.2448 108.766L76.2687 107.766ZM73.8579 108.012L73.6319 107.038L73.6313 107.038L73.8579 108.012ZM72.6831 108.364L73.0287 109.302L73.0289 109.302L72.6831 108.364ZM71.5348 108.867L71.9905 109.757L71.9906 109.757L71.5348 108.867ZM70.466 109.491L69.9143 108.657L69.9143 108.657L70.466 109.491ZM69.4527 110.243L68.8148 109.473L68.8146 109.473L69.4527 110.243ZM68.4995 111.119L69.2126 111.82L69.213 111.819L68.4995 111.119ZM67.6096 112.117L66.8323 111.488L66.8315 111.489L67.6096 112.117ZM66.7984 113.223L67.6306 113.777L67.6306 113.777L66.7984 113.223ZM65.4564 115.691L64.5399 115.291L64.5399 115.291L65.4564 115.691ZM64.932 117.045L65.8786 117.368L65.8786 117.368L64.932 117.045ZM64.1932 120.017L63.2061 119.857L63.2056 119.86L64.1932 120.017ZM63.9426 123.134L62.9426 123.134L62.9426 123.137L63.9426 123.134ZM64.1932 126.249L63.2062 126.41L63.2066 126.412L64.1932 126.249ZM64.9333 129.212L65.8802 128.891L65.8797 128.889L64.9333 129.212ZM66.0809 131.839L65.2031 132.318L65.2031 132.318L66.0809 131.839ZM66.7997 133.027L65.9686 133.583L65.9691 133.584L66.7997 133.027ZM68.5008 135.116L69.2122 134.414L69.2119 134.413L68.5008 135.116ZM69.454 135.987L68.8187 136.759L68.819 136.759L69.454 135.987ZM70.4673 136.732L69.9193 137.568L69.9194 137.568L70.4673 136.732ZM71.5361 137.349L71.9875 136.457L71.9871 136.457L71.5361 137.349ZM72.6844 137.845L72.344 138.786L72.3441 138.786L72.6844 137.845ZM73.8591 138.189L74.081 137.214L74.0796 137.214L73.8591 138.189ZM75.0558 138.383L74.959 139.378L74.9607 139.378L75.0558 138.383ZM76.27 138.422L76.2396 137.422L76.2395 137.422L76.27 138.422ZM225.733 133.88L225.763 134.879L225.763 134.879L225.733 133.88ZM226.386 133.804L226.585 134.784L226.585 134.784L226.386 133.804ZM227.026 133.619L227.382 134.554L227.383 134.553L227.026 133.619ZM227.649 133.325L227.155 132.456L227.154 132.456L227.649 133.325ZM228.254 132.924L227.646 132.13L227.646 132.13L228.254 132.924ZM228.813 132.44L228.116 131.723L228.116 131.724L228.813 132.44ZM229.34 131.87L228.573 131.228L228.571 131.231L229.34 131.87ZM230.291 130.477L231.161 130.971L231.162 130.968L230.291 130.477ZM231.072 128.805L232.007 129.162L232.008 129.158L231.072 128.805ZM231.654 126.914L230.683 126.675L230.681 126.681L231.654 126.914ZM232.026 124.804L233.019 124.922L233.02 124.918L232.026 124.804ZM232.151 122.592H233.151L233.151 122.589L232.151 122.592ZM232.026 120.383L231.033 120.498L231.033 120.502L232.026 120.383ZM231.654 118.27L232.626 118.036L232.626 118.035L231.654 118.27ZM231.072 116.382L230.138 116.739L230.139 116.74L231.072 116.382ZM230.292 114.715L231.161 114.222L231.161 114.221L230.292 114.715ZM229.341 113.328L228.573 113.968L228.574 113.97L229.341 113.328ZM228.814 112.761L228.119 113.479L228.119 113.48L228.814 112.761ZM228.255 112.281L227.649 113.077L227.65 113.077L228.255 112.281ZM227.65 111.883L228.14 111.012L228.138 111.011L227.65 111.883ZM227.026 111.594L226.675 112.531L226.676 112.531L227.026 111.594ZM226.386 111.413L226.579 110.432L226.578 110.432L226.386 111.413ZM225.757 110.342L76.2926 106.766L76.2448 108.766L225.709 112.342L225.757 110.342ZM76.2934 106.766C75.3983 106.744 74.5041 106.836 73.6319 107.038L74.0838 108.986C74.7917 108.822 75.5175 108.748 76.244 108.766L76.2934 106.766ZM73.6313 107.038C73.1924 107.14 72.7602 107.269 72.3373 107.425L73.0289 109.302C73.3738 109.175 73.7263 109.069 74.0844 108.986L73.6313 107.038ZM72.3375 107.425C71.9074 107.584 71.4871 107.768 71.0791 107.977L71.9906 109.757C72.3271 109.585 72.6738 109.433 73.0287 109.302L72.3375 107.425ZM71.0792 107.977C70.6785 108.182 70.2896 108.409 69.9143 108.657L71.0178 110.325C71.3312 110.118 71.6559 109.928 71.9905 109.757L71.0792 107.977ZM69.9143 108.657C69.5334 108.909 69.1664 109.181 68.8148 109.473L70.0907 111.013C70.3872 110.767 70.6967 110.538 71.0178 110.325L69.9143 108.657ZM68.8146 109.473C68.4558 109.77 68.1125 110.086 67.786 110.418L69.213 111.819C69.4916 111.536 69.7846 111.266 70.0908 111.013L68.8146 109.473ZM67.7864 110.418C67.4553 110.754 67.1373 111.111 66.8323 111.488L68.3869 112.747C68.6527 112.418 68.928 112.109 69.2126 111.82L67.7864 110.418ZM66.8315 111.489C66.5267 111.867 66.2382 112.26 65.9662 112.668L67.6306 113.777C67.8692 113.419 68.1216 113.075 68.3876 112.746L66.8315 111.489ZM65.9662 112.668C65.6941 113.077 65.4391 113.499 65.2012 113.937L66.9581 114.893C67.1679 114.507 67.3921 114.135 67.6306 113.777L65.9662 112.668ZM65.2012 113.937C64.9632 114.374 64.7428 114.826 64.5399 115.291L66.373 116.091C66.5533 115.677 66.7483 115.278 66.9581 114.893L65.2012 113.937ZM64.5399 115.291C64.3369 115.756 64.1521 116.233 63.9854 116.723L65.8786 117.368C66.0279 116.929 66.1927 116.504 66.373 116.091L64.5399 115.291ZM63.9854 116.723C63.8126 117.23 63.6613 117.746 63.5314 118.269L65.4724 118.751C65.5888 118.282 65.7242 117.821 65.8786 117.368L63.9854 116.723ZM63.5314 118.269C63.4016 118.792 63.2932 119.321 63.2061 119.857L65.1803 120.177C65.2586 119.695 65.356 119.22 65.4724 118.751L63.5314 118.269ZM63.2056 119.86C63.1207 120.394 63.0557 120.933 63.0106 121.478L65.0038 121.643C65.0448 121.147 65.1038 120.658 65.1808 120.174L63.2056 119.86ZM63.0106 121.478C62.9653 122.026 62.9426 122.578 62.9426 123.134L64.9426 123.134C64.9426 122.633 64.963 122.136 65.0038 121.643L63.0106 121.478ZM62.9426 123.137C62.9444 123.691 62.967 124.241 63.0103 124.786L65.0041 124.628C64.9648 124.133 64.9443 123.634 64.9426 123.131L62.9426 123.137ZM63.0103 124.786C63.0538 125.333 63.1191 125.874 63.2062 126.41L65.1802 126.089C65.102 125.608 65.0433 125.121 65.0041 124.628L63.0103 124.786ZM63.2066 126.412C63.2944 126.944 63.4032 127.471 63.5328 127.992L65.4736 127.509C65.357 127.04 65.259 126.566 65.1798 126.086L63.2066 126.412ZM63.5328 127.992C63.6627 128.514 63.814 129.029 63.9869 129.535L65.8797 128.889C65.7253 128.437 65.5899 127.977 65.4736 127.509L63.5328 127.992ZM63.9864 129.534C64.1533 130.025 64.3383 130.503 64.5416 130.968L66.3738 130.166C66.1939 129.755 66.0293 129.33 65.8802 128.891L63.9864 129.534ZM64.5416 130.968C64.7445 131.432 64.965 131.882 65.2031 132.318L66.9587 131.36C66.749 130.976 66.554 130.578 66.3738 130.166L64.5416 130.968ZM65.2031 132.318C65.4412 132.754 65.6963 133.176 65.9686 133.583L67.6308 132.471C67.3925 132.115 67.1685 131.745 66.9587 131.36L65.2031 132.318ZM65.9691 133.584C66.2411 133.989 66.5299 134.38 66.8355 134.755L68.3862 133.492C68.1201 133.165 67.8681 132.825 67.6303 132.47L65.9691 133.584ZM66.8355 134.755C67.1409 135.13 67.4589 135.485 67.7897 135.819L69.2119 134.413C68.9278 134.126 68.6525 133.819 68.3862 133.492L66.8355 134.755ZM67.7894 135.819C68.1161 136.15 68.4597 136.464 68.8187 136.759L70.0893 135.214C69.7833 134.963 69.4906 134.695 69.2122 134.414L67.7894 135.819ZM68.819 136.759C69.1709 137.048 69.5382 137.319 69.9193 137.568L71.0154 135.895C70.6945 135.685 70.3853 135.458 70.0891 135.214L68.819 136.759ZM69.9194 137.568C70.2951 137.814 70.6843 138.039 71.0852 138.242L71.9871 136.457C71.6529 136.288 71.3284 136.1 71.0152 135.895L69.9194 137.568ZM71.0848 138.241C71.4932 138.448 71.9137 138.63 72.344 138.786L73.0248 136.905C72.6703 136.777 72.3239 136.627 71.9875 136.457L71.0848 138.241ZM72.3441 138.786C72.7673 138.939 73.1997 139.065 73.6387 139.164L74.0796 137.214C73.7218 137.133 73.3695 137.03 73.0247 136.905L72.3441 138.786ZM73.6373 139.164C74.0729 139.263 74.5144 139.335 74.959 139.378L75.1526 137.387C74.7921 137.352 74.4342 137.294 74.081 137.214L73.6373 139.164ZM74.9607 139.378C75.4059 139.421 75.8534 139.435 76.3004 139.422L76.2395 137.422C75.8763 137.434 75.5127 137.422 75.1509 137.387L74.9607 139.378ZM76.3004 139.422L225.763 134.879L225.702 132.88L76.2396 137.422L76.3004 139.422ZM225.763 134.879C226.039 134.871 226.314 134.839 226.585 134.784L226.188 132.824C226.028 132.856 225.866 132.875 225.702 132.88L225.763 134.879ZM226.585 134.784C226.856 134.729 227.123 134.652 227.382 134.554L226.67 132.685C226.513 132.744 226.352 132.791 226.188 132.824L226.585 134.784ZM227.383 134.553C227.645 134.453 227.899 134.333 228.143 134.194L227.154 132.456C226.999 132.544 226.836 132.621 226.669 132.685L227.383 134.553ZM228.143 134.194C228.394 134.052 228.634 133.893 228.863 133.717L227.646 132.13C227.49 132.25 227.326 132.358 227.155 132.456L228.143 134.194ZM228.863 133.717C229.09 133.543 229.306 133.356 229.511 133.156L228.116 131.724C227.967 131.868 227.81 132.004 227.646 132.13L228.863 133.717ZM229.511 133.157C229.722 132.951 229.922 132.735 230.11 132.508L228.571 131.231C228.428 131.403 228.276 131.567 228.116 131.723L229.511 133.157ZM230.108 132.511C230.3 132.281 230.484 132.036 230.66 131.777L229.006 130.652C228.865 130.86 228.72 131.052 228.573 131.228L230.108 132.511ZM230.66 131.777C230.835 131.52 231.002 131.251 231.161 130.971L229.421 129.984C229.287 130.22 229.149 130.442 229.006 130.652L230.66 131.777ZM231.162 130.968C231.321 130.686 231.471 130.394 231.612 130.094L229.801 129.246C229.68 129.502 229.553 129.749 229.42 129.986L231.162 130.968ZM231.612 130.094C231.753 129.792 231.885 129.482 232.007 129.162L230.138 128.448C230.033 128.724 229.92 128.99 229.801 129.246L231.612 130.094ZM232.008 129.158C232.129 128.837 232.241 128.51 232.344 128.178L230.434 127.587C230.343 127.881 230.244 128.169 230.137 128.452L232.008 129.158ZM232.344 128.178C232.448 127.843 232.542 127.5 232.626 127.148L230.681 126.681C230.606 126.993 230.524 127.295 230.434 127.587L232.344 128.178ZM232.624 127.154C232.714 126.791 232.791 126.421 232.856 126.045L230.885 125.706C230.828 126.036 230.761 126.359 230.683 126.675L232.624 127.154ZM232.856 126.045C232.92 125.674 232.974 125.3 233.019 124.922L231.033 124.685C230.992 125.03 230.943 125.37 230.885 125.706L232.856 126.045ZM233.02 124.918C233.064 124.536 233.097 124.151 233.118 123.763L231.121 123.651C231.102 124 231.072 124.346 231.033 124.689L233.02 124.918ZM233.118 123.763C233.14 123.375 233.151 122.985 233.151 122.592H231.151C231.151 122.948 231.141 123.301 231.121 123.651L233.118 123.763ZM233.151 122.589C233.15 122.201 233.139 121.814 233.119 121.428L231.121 121.532C231.14 121.886 231.15 122.241 231.151 122.596L233.151 122.589ZM233.119 121.428C233.098 121.036 233.065 120.648 233.019 120.265L231.033 120.502C231.074 120.84 231.103 121.184 231.121 121.532L233.119 121.428ZM233.02 120.269C232.976 119.887 232.921 119.511 232.855 119.139L230.886 119.487C230.944 119.818 230.993 120.155 231.033 120.498L233.02 120.269ZM232.855 119.139C232.79 118.768 232.713 118.4 232.626 118.036L230.681 118.504C230.759 118.828 230.827 119.155 230.886 119.487L232.855 119.139ZM232.626 118.035C232.541 117.684 232.447 117.341 232.344 117.006L230.432 117.594C230.523 117.888 230.606 118.192 230.682 118.504L232.626 118.035ZM232.344 117.006C232.241 116.67 232.128 116.343 232.006 116.025L230.139 116.74C230.244 117.015 230.342 117.3 230.432 117.594L232.344 117.006ZM232.007 116.026C231.885 115.707 231.754 115.397 231.612 115.095L229.801 115.944C229.921 116.2 230.033 116.464 230.138 116.739L232.007 116.026ZM231.612 115.095C231.471 114.794 231.321 114.503 231.161 114.222L229.422 115.209C229.555 115.444 229.682 115.689 229.801 115.944L231.612 115.095ZM231.161 114.221C231.001 113.94 230.834 113.672 230.659 113.416L229.008 114.544C229.15 114.752 229.288 114.973 229.422 115.209L231.161 114.221ZM230.659 113.416C230.484 113.159 230.3 112.915 230.108 112.686L228.574 113.97C228.722 114.146 228.867 114.338 229.008 114.544L230.659 113.416ZM230.109 112.687C229.921 112.461 229.72 112.246 229.509 112.042L228.119 113.48C228.279 113.634 228.431 113.797 228.573 113.968L230.109 112.687ZM229.509 112.042C229.304 111.843 229.087 111.657 228.86 111.484L227.65 113.077C227.814 113.202 227.971 113.336 228.119 113.479L229.509 112.042ZM228.86 111.485C228.631 111.311 228.39 111.153 228.14 111.012L227.16 112.755C227.33 112.851 227.494 112.958 227.649 113.077L228.86 111.485ZM228.138 111.011C227.893 110.874 227.638 110.756 227.375 110.657L226.676 112.531C226.843 112.594 227.005 112.669 227.161 112.756L228.138 111.011ZM227.377 110.658C227.117 110.561 226.851 110.485 226.579 110.432L226.193 112.394C226.357 112.426 226.518 112.472 226.675 112.531L227.377 110.658ZM226.578 110.432C226.307 110.379 226.032 110.349 225.756 110.342L225.709 112.342C225.872 112.346 226.035 112.363 226.195 112.394L226.578 110.432Z" fill="white" mask="url(#path-8-inside-2_1762_34207)"/>
<mask id="path-10-inside-3_1762_34207" fill="white">
<path d="M225.733 151.589L76.2687 162.508C75.861 162.538 75.4555 162.593 75.0546 162.673C74.6496 162.753 74.25 162.859 73.8579 162.988C73.4575 163.12 73.0653 163.275 72.6831 163.453C72.2892 163.637 71.9059 163.842 71.5349 164.068C71.1664 164.292 70.8097 164.535 70.466 164.796C70.1182 165.061 69.7804 165.344 69.4527 165.645C69.1251 165.948 68.8074 166.27 68.4995 166.613C68.1917 166.956 67.895 167.317 67.6096 167.697C67.3241 168.079 67.0538 168.474 66.7984 168.882C66.5431 169.29 66.3035 169.71 66.0796 170.144C65.8558 170.577 65.648 171.023 65.4564 171.48C65.2648 171.938 65.09 172.406 64.932 172.886C64.7684 173.381 64.625 173.884 64.5019 174.392C64.3788 174.901 64.2759 175.413 64.1932 175.93C64.1123 176.447 64.0503 176.967 64.0072 177.491C63.9642 178.016 63.9426 178.542 63.9426 179.071C63.9443 179.599 63.9659 180.122 64.0072 180.638C64.0486 181.154 64.1106 181.662 64.1932 182.162C64.2767 182.664 64.3801 183.156 64.5032 183.638C64.6263 184.121 64.7697 184.594 64.9333 185.057C65.0913 185.505 65.2661 185.939 65.4577 186.358C65.6493 186.777 65.857 187.181 66.0809 187.569C66.3048 187.958 66.5444 188.33 66.7997 188.687C67.0525 189.041 67.3232 189.382 67.6109 189.708C67.8911 190.025 68.1882 190.326 68.5008 190.611C68.8036 190.888 69.1218 191.148 69.454 191.388C69.7788 191.623 70.1171 191.839 70.4673 192.034C70.8128 192.227 71.1697 192.399 71.5362 192.55C71.9102 192.703 72.2937 192.833 72.6844 192.937C73.0706 193.039 73.463 193.116 73.8591 193.166C74.256 193.217 74.6557 193.243 75.0559 193.242C75.4618 193.241 75.8673 193.215 76.27 193.163L225.733 174.133C225.954 174.105 226.173 174.058 226.386 173.994C226.606 173.928 226.819 173.845 227.026 173.747C227.242 173.643 227.45 173.524 227.649 173.392C227.86 173.251 228.062 173.098 228.254 172.932C228.45 172.763 228.637 172.583 228.813 172.394C228.992 172.2 229.168 171.993 229.34 171.772C229.51 171.551 229.674 171.316 229.833 171.069C229.992 170.821 230.145 170.56 230.291 170.287C230.437 170.015 230.576 169.732 230.706 169.439C230.837 169.146 230.959 168.845 231.072 168.536C231.187 168.226 231.292 167.909 231.389 167.584C231.486 167.26 231.574 166.928 231.654 166.588C231.738 166.237 231.81 165.881 231.871 165.522C231.931 165.163 231.983 164.801 232.026 164.436C232.068 164.07 232.099 163.703 232.12 163.332C232.141 162.961 232.151 162.588 232.151 162.214C232.149 161.841 232.139 161.472 232.119 161.106C232.1 160.739 232.069 160.377 232.026 160.02C231.984 159.662 231.933 159.31 231.871 158.963C231.809 158.616 231.736 158.276 231.654 157.941C231.574 157.617 231.486 157.303 231.389 156.998C231.293 156.693 231.188 156.398 231.073 156.112C230.958 155.826 230.836 155.55 230.707 155.285C230.576 155.021 230.436 154.767 230.29 154.522C230.143 154.277 229.99 154.047 229.832 153.832C229.678 153.622 229.514 153.421 229.339 153.228C229.174 153.046 228.998 152.873 228.812 152.712C228.635 152.558 228.448 152.416 228.253 152.286C228.06 152.158 227.858 152.045 227.648 151.947C227.447 151.854 227.238 151.777 227.024 151.718C226.605 151.601 226.168 151.557 225.733 151.589"/>
</mask>
<path d="M76.2687 162.508L76.3415 163.505L76.3415 163.505L76.2687 162.508ZM75.0546 162.673L74.8594 161.692L74.8589 161.692L75.0546 162.673ZM73.8579 162.988L74.1709 163.938L74.171 163.938L73.8579 162.988ZM72.6831 163.453L72.2611 162.546L72.261 162.547L72.6831 163.453ZM71.5349 164.068L72.0548 164.922L72.0553 164.922L71.5349 164.068ZM70.466 164.796L69.8618 163.999L69.8596 164L70.466 164.796ZM69.4527 165.645L68.7761 164.909L68.7746 164.91L69.4527 165.645ZM67.6096 167.697L66.8099 167.097L66.8089 167.098L67.6096 167.697ZM66.7984 168.882L67.6462 169.412L67.6462 169.412L66.7984 168.882ZM66.0796 170.144L65.1913 169.684L65.1911 169.685L66.0796 170.144ZM64.932 172.886L65.8816 173.2L65.8818 173.199L64.932 172.886ZM64.1932 175.93L63.2058 175.771L63.2052 175.775L64.1932 175.93ZM63.9426 179.071L62.9426 179.071L62.9426 179.074L63.9426 179.071ZM64.1932 182.162L63.2066 182.325L63.2068 182.326L64.1932 182.162ZM64.5032 183.638L63.5342 183.885L64.5032 183.638ZM64.9333 185.057L65.8764 184.725L65.8763 184.725L64.9333 185.057ZM65.4577 186.358L66.3673 185.942L66.3671 185.942L65.4577 186.358ZM66.7997 188.687L67.6134 188.106L67.6131 188.106L66.7997 188.687ZM67.6109 189.708L66.8609 190.369L66.862 190.371L67.6109 189.708ZM68.5008 190.611L69.1757 189.873L69.1745 189.872L68.5008 190.611ZM69.454 191.388L68.867 192.198L68.8681 192.199L69.454 191.388ZM70.4673 192.034L70.956 191.161L70.9536 191.16L70.4673 192.034ZM71.5362 192.55L71.9161 191.625L71.9155 191.624L71.5362 192.55ZM72.6844 192.937L72.4268 193.903L72.4289 193.904L72.6844 192.937ZM73.8591 193.166L73.7318 194.158H73.7318L73.8591 193.166ZM75.0559 193.242L75.0576 194.242L75.0579 194.242L75.0559 193.242ZM76.27 193.163L76.1437 192.171L76.1429 192.171L76.27 193.163ZM225.733 174.133L225.859 175.125L225.86 175.125L225.733 174.133ZM226.386 173.994L226.673 174.952L226.675 174.952L226.386 173.994ZM227.026 173.747L227.458 174.648L227.458 174.648L227.026 173.747ZM227.649 173.392L227.095 172.559L227.094 172.56L227.649 173.392ZM228.254 172.932L227.6 172.175L227.6 172.175L228.254 172.932ZM228.813 172.394L229.544 173.076L229.547 173.073L228.813 172.394ZM229.34 171.772L230.129 172.386L230.134 172.381L229.34 171.772ZM230.291 170.287L229.411 169.813L229.409 169.815L230.291 170.287ZM231.072 168.536L232.011 168.881L232.011 168.881L231.072 168.536ZM231.654 166.588L230.681 166.356L230.68 166.36L231.654 166.588ZM232.026 164.436L233.019 164.553L233.02 164.549L232.026 164.436ZM232.151 162.214H233.151L233.151 162.209L232.151 162.214ZM232.026 160.02L231.032 160.135L231.033 160.14L232.026 160.02ZM231.654 157.941L230.683 158.18L230.683 158.181L231.654 157.941ZM231.389 156.998L230.435 157.297L230.436 157.301L231.389 156.998ZM230.707 155.285L231.606 154.847L231.602 154.838L230.707 155.285ZM229.832 153.832L229.025 154.423L229.027 154.425L229.832 153.832ZM229.339 153.228L228.598 153.9L228.599 153.9L229.339 153.228ZM228.812 152.712L228.156 153.466V153.466L228.812 152.712ZM228.253 152.286L227.7 153.12L227.7 153.12L228.253 152.286ZM227.648 151.947L228.069 151.041L228.069 151.041L227.648 151.947ZM227.024 151.718L226.756 152.681L226.757 152.681L227.024 151.718ZM225.66 150.591L76.1958 161.511L76.3415 163.505L225.806 152.586L225.66 150.591ZM76.1958 161.511C75.747 161.543 75.3007 161.604 74.8594 161.692L75.2498 163.653C75.6103 163.582 75.9749 163.532 76.3415 163.505L76.1958 161.511ZM74.8589 161.692C74.4142 161.781 73.9753 161.896 73.5447 162.038L74.171 163.938C74.5246 163.821 74.8851 163.726 75.2503 163.653L74.8589 161.692ZM73.5448 162.038C73.1074 162.182 72.6787 162.352 72.2611 162.546L73.1051 164.36C73.4518 164.198 73.8076 164.057 74.1709 163.938L73.5448 162.038ZM72.261 162.547C71.8334 162.746 71.4172 162.969 71.0144 163.214L72.0553 164.922C72.3945 164.715 72.7451 164.527 73.1053 164.36L72.261 162.547ZM71.015 163.214C70.6175 163.456 70.2326 163.718 69.8618 163.999L71.0702 165.592C71.3868 165.352 71.7154 165.129 72.0548 164.922L71.015 163.214ZM69.8596 164C69.487 164.285 69.1259 164.587 68.7761 164.909L70.1293 166.382C70.4349 166.101 70.7493 165.837 71.0725 165.591L69.8596 164ZM68.7746 164.91C68.4232 165.235 68.0836 165.579 67.7555 165.945L69.2435 167.281C69.5312 166.961 69.827 166.661 70.1309 166.38L68.7746 164.91ZM67.7555 165.945C67.4275 166.31 67.1123 166.694 66.8099 167.097L68.4093 168.298C68.6777 167.94 68.9558 167.601 69.2435 167.281L67.7555 165.945ZM66.8089 167.098C66.5066 167.502 66.2205 167.92 65.9506 168.351L67.6462 169.412C67.887 169.027 68.1416 168.655 68.4102 168.296L66.8089 167.098ZM65.9507 168.351C65.6807 168.783 65.4276 169.227 65.1913 169.684L66.968 170.603C67.1795 170.194 67.4056 169.797 67.6462 169.412L65.9507 168.351ZM65.1911 169.685C64.9548 170.142 64.7358 170.612 64.534 171.094L66.3788 171.866C66.5603 171.433 66.7568 171.012 66.9682 170.602L65.1911 169.685ZM64.534 171.094C64.3322 171.576 64.1483 172.069 63.9823 172.573L65.8818 173.199C66.0318 172.744 66.1975 172.3 66.3788 171.866L64.534 171.094ZM63.9825 172.572C63.8103 173.094 63.6595 173.622 63.53 174.157L65.4738 174.628C65.5906 174.145 65.7265 173.669 65.8816 173.2L63.9825 172.572ZM63.53 174.157C63.4007 174.691 63.2926 175.229 63.2058 175.771L65.1806 176.088C65.2591 175.598 65.3569 175.111 65.4738 174.628L63.53 174.157ZM63.2052 175.775C63.1205 176.316 63.0556 176.861 63.0106 177.41L65.0039 177.573C65.0449 177.073 65.104 176.577 65.1812 176.084L63.2052 175.775ZM63.0106 177.41C62.9653 177.961 62.9426 178.515 62.9426 179.071L64.9426 179.071C64.9426 178.569 64.9631 178.07 65.0039 177.573L63.0106 177.41ZM62.9426 179.074C62.9444 179.628 62.967 180.175 63.0104 180.717L65.004 180.558C64.9648 180.068 64.9443 179.571 64.9426 179.067L62.9426 179.074ZM63.0104 180.717C63.0539 181.261 63.1193 181.797 63.2066 182.325L65.1798 181.999C65.1018 181.527 65.0432 181.047 65.004 180.558L63.0104 180.717ZM63.2068 182.326C63.2949 182.855 63.404 183.375 63.5342 183.885L65.4721 183.391C65.3561 182.936 65.2586 182.472 65.1796 181.998L63.2068 182.326ZM63.5342 183.885C63.6646 184.396 63.8166 184.898 63.9903 185.39L65.8763 184.725C65.7227 184.289 65.588 183.845 65.4721 183.391L63.5342 183.885ZM63.9902 185.39C64.1579 185.865 64.3438 186.327 64.5483 186.774L66.3671 185.942C66.1884 185.551 66.0247 185.146 65.8764 184.725L63.9902 185.39ZM64.5481 186.773C64.7525 187.221 64.9745 187.652 65.2146 188.069L66.9473 187.07C66.7395 186.71 66.5461 186.334 66.3673 185.942L64.5481 186.773ZM65.2146 188.069C65.4544 188.485 65.7116 188.885 65.9864 189.269L67.6131 188.106C67.3772 187.776 67.1552 187.431 66.9473 187.07L65.2146 188.069ZM65.986 189.269C66.2587 189.65 66.5507 190.018 66.8609 190.369L68.3608 189.046C68.0958 188.746 67.8463 188.432 67.6134 188.106L65.986 189.269ZM66.862 190.371C67.166 190.714 67.4882 191.041 67.8271 191.35L69.1745 189.872C68.8883 189.611 68.6163 189.335 68.3597 189.045L66.862 190.371ZM67.8259 191.349C68.1566 191.651 68.5041 191.935 68.867 192.198L70.0411 190.579C69.7395 190.36 69.4506 190.125 69.1757 189.873L67.8259 191.349ZM68.8681 192.199C69.2248 192.457 69.5964 192.693 69.981 192.907L70.9536 191.16C70.6379 190.984 70.3328 190.79 70.04 190.578L68.8681 192.199ZM69.9787 192.906C70.3595 193.119 70.7529 193.309 71.1568 193.475L71.9155 191.624C71.5866 191.49 71.2661 191.335 70.956 191.161L69.9787 192.906ZM71.1563 193.475C71.5701 193.645 71.9945 193.788 72.4268 193.903L72.9421 191.97C72.5929 191.877 72.2502 191.762 71.9161 191.625L71.1563 193.475ZM72.4289 193.904C72.8572 194.017 73.2924 194.102 73.7318 194.158L73.9865 192.175C73.6336 192.129 73.284 192.061 72.94 191.97L72.4289 193.904ZM73.7318 194.158C74.1714 194.215 74.6143 194.243 75.0576 194.242L75.0541 192.242C74.6972 192.243 74.3406 192.22 73.9865 192.175L73.7318 194.158ZM75.0579 194.242C75.5057 194.241 75.9529 194.212 76.397 194.155L76.1429 192.171C75.7817 192.218 75.418 192.241 75.0538 192.242L75.0579 194.242ZM76.3963 194.155L225.859 175.125L225.607 173.141L76.1437 192.171L76.3963 194.155ZM225.86 175.125C226.135 175.09 226.407 175.032 226.673 174.952L226.099 173.036C225.938 173.085 225.773 173.12 225.606 173.141L225.86 175.125ZM226.675 174.952C226.943 174.871 227.205 174.77 227.458 174.648L226.594 172.845C226.434 172.921 226.268 172.986 226.098 173.037L226.675 174.952ZM227.458 174.648C227.716 174.524 227.965 174.383 228.204 174.224L227.094 172.56C226.934 172.666 226.767 172.762 226.593 172.845L227.458 174.648ZM228.203 174.224C228.449 174.06 228.684 173.882 228.908 173.688L227.6 172.175C227.44 172.314 227.271 172.442 227.095 172.559L228.203 174.224ZM228.908 173.689C229.131 173.496 229.343 173.292 229.544 173.076L228.082 171.711C227.93 171.874 227.769 172.029 227.6 172.175L228.908 173.689ZM229.547 173.073C229.747 172.857 229.941 172.628 230.129 172.386L228.551 171.157C228.396 171.357 228.238 171.543 228.079 171.715L229.547 173.073ZM230.134 172.381C230.321 172.136 230.502 171.879 230.675 171.609L228.991 170.529C228.847 170.754 228.699 170.965 228.547 171.163L230.134 172.381ZM230.675 171.609C230.849 171.338 231.015 171.054 231.173 170.759L229.409 169.815C229.275 170.067 229.135 170.304 228.991 170.529L230.675 171.609ZM231.171 170.761C231.33 170.466 231.48 170.161 231.62 169.845L229.793 169.033C229.672 169.304 229.545 169.564 229.411 169.813L231.171 170.761ZM231.62 169.845C231.759 169.532 231.89 169.21 232.011 168.881L230.134 168.191C230.028 168.479 229.914 168.76 229.793 169.033L231.62 169.845ZM232.011 168.881C232.132 168.551 232.244 168.214 232.347 167.871L230.431 167.298C230.34 167.603 230.241 167.901 230.134 168.191L232.011 168.881ZM232.347 167.871C232.45 167.527 232.543 167.175 232.627 166.817L230.68 166.36C230.605 166.681 230.522 166.994 230.431 167.298L232.347 167.871ZM232.626 166.82C232.715 166.447 232.792 166.07 232.857 165.689L230.885 165.355C230.828 165.693 230.76 166.026 230.681 166.356L232.626 166.82ZM232.857 165.689C232.92 165.313 232.974 164.934 233.019 164.553L231.033 164.319C230.992 164.667 230.943 165.013 230.885 165.355L232.857 165.689ZM233.02 164.549C233.064 164.165 233.097 163.777 233.118 163.387L231.121 163.276C231.102 163.628 231.072 163.976 231.033 164.322L233.02 164.549ZM233.118 163.387C233.14 162.998 233.151 162.607 233.151 162.214H231.151C231.151 162.57 231.141 162.924 231.121 163.276L233.118 163.387ZM233.151 162.209C233.149 161.821 233.138 161.435 233.118 161.053L231.121 161.158C231.139 161.509 231.149 161.862 231.151 162.218L233.151 162.209ZM233.118 161.053C233.097 160.664 233.064 160.28 233.018 159.901L231.033 160.14C231.073 160.474 231.102 160.814 231.121 161.158L233.118 161.053ZM233.019 159.906C232.975 159.528 232.921 159.155 232.855 158.787L230.886 159.139C230.945 159.465 230.993 159.797 231.032 160.135L233.019 159.906ZM232.855 158.787C232.789 158.419 232.712 158.058 232.624 157.701L230.683 158.181C230.76 158.494 230.828 158.813 230.886 159.139L232.855 158.787ZM232.625 157.702C232.54 157.358 232.446 157.022 232.342 156.695L230.436 157.301C230.526 157.584 230.608 157.877 230.683 158.18L232.625 157.702ZM232.343 156.699C232.24 156.37 232.126 156.05 232.001 155.739L230.145 156.485C230.25 156.746 230.347 157.016 230.435 157.297L232.343 156.699ZM232.001 155.739C231.878 155.432 231.746 155.134 231.606 154.847L229.808 155.722C229.926 155.965 230.039 156.22 230.145 156.485L232.001 155.739ZM231.602 154.838C231.459 154.553 231.308 154.276 231.148 154.008L229.432 155.036C229.565 155.258 229.692 155.49 229.812 155.731L231.602 154.838ZM231.148 154.008C230.986 153.738 230.815 153.481 230.637 153.239L229.027 154.425C229.165 154.613 229.3 154.816 229.432 155.036L231.148 154.008ZM230.639 153.241C230.464 153.003 230.278 152.774 230.08 152.556L228.599 153.9C228.75 154.067 228.892 154.241 229.025 154.423L230.639 153.241ZM230.08 152.556C229.888 152.345 229.684 152.145 229.468 151.958L228.156 153.466C228.312 153.602 228.46 153.747 228.598 153.9L230.08 152.556ZM229.468 151.958C229.259 151.775 229.037 151.606 228.805 151.453L227.7 153.12C227.859 153.225 228.012 153.341 228.156 153.466L229.468 151.958ZM228.805 151.453C228.571 151.297 228.325 151.159 228.069 151.041L227.226 152.854C227.391 152.931 227.549 153.019 227.7 153.12L228.805 151.453ZM228.069 151.041C227.818 150.924 227.559 150.828 227.292 150.754L226.757 152.681C226.918 152.726 227.075 152.784 227.226 152.854L228.069 151.041ZM227.293 150.754C226.762 150.607 226.21 150.551 225.66 150.591L225.805 152.586C226.125 152.563 226.447 152.595 226.756 152.681L227.293 150.754Z" fill="white" mask="url(#path-10-inside-3_1762_34207)"/>
<path d="M144.267 153.589C145.213 155.162 146.705 156.332 148.459 156.878C150.213 157.425 152.106 157.308 153.78 156.552C155.453 155.796 156.791 154.452 157.538 152.776C158.285 151.099 158.39 149.207 157.833 147.459L186.801 88.0117L172.935 79.6151L147.918 142.76C147.822 142.797 147.728 142.836 147.635 142.877C147.543 142.918 147.45 142.96 147.358 143.004C147.266 143.049 147.175 143.095 147.084 143.144C146.994 143.193 146.904 143.244 146.814 143.298C145.111 144.326 143.885 145.987 143.407 147.916C142.929 149.846 143.238 151.887 144.266 153.589L144.267 153.589Z" fill="#9E616A"/>
<path d="M181.271 110.935L160.692 105.666C160.692 105.666 161.364 104.149 162.456 101.635C163.548 99.1218 165.074 95.6167 166.79 91.6373C168.506 87.6579 170.411 83.2116 172.271 78.8164C174.13 74.4213 175.939 70.0788 177.463 66.3148C178.986 62.5508 180.717 60.2966 182.456 59.0331C183.896 57.9402 185.709 57.4587 187.502 57.6932C188.896 57.9006 190.228 58.4071 191.407 59.1778C191.965 59.5247 192.489 59.9225 192.974 60.3661L197.745 69.0336L181.271 110.935Z" fill="#CCCCCC"/>
<mask id="path-14-inside-4_1762_34207" fill="white">
<path d="M16.579 106.227C16.0806 106.264 15.5847 106.328 15.0936 106.42C14.5993 106.513 14.1105 106.633 13.6295 106.779C13.1412 106.928 12.6613 107.103 12.1919 107.304C11.7116 107.51 11.2423 107.74 10.786 107.995C10.3395 108.245 9.90316 108.518 9.47692 108.813C9.05067 109.107 8.6367 109.424 8.235 109.762C7.83374 110.1 7.44431 110.46 7.06672 110.842C6.68913 111.224 6.32534 111.628 5.97531 112.052C5.62527 112.476 5.29353 112.915 4.98008 113.37C4.66664 113.824 4.37258 114.293 4.0979 114.775C3.82579 115.258 3.57133 115.754 3.33453 116.263C3.09773 116.772 2.88247 117.293 2.68872 117.826C2.4868 118.379 2.31006 118.937 2.1585 119.501C2.00695 120.066 1.88058 120.635 1.77941 121.208C1.6778 121.782 1.6016 122.36 1.55079 122.941C1.49999 123.523 1.4746 124.106 1.47461 124.693C1.47461 125.279 1.5 125.858 1.55079 126.429C1.60158 127 1.67778 127.562 1.77941 128.116C1.88058 128.669 2.00695 129.213 2.1585 129.746C2.31005 130.28 2.48615 130.803 2.68679 131.315C2.88225 131.809 3.09752 132.287 3.3326 132.749C3.56496 133.206 3.82016 133.651 4.09724 134.083C4.36999 134.506 4.66446 134.916 4.97944 135.309C5.29143 135.699 5.62384 136.073 5.97529 136.429C6.32093 136.779 6.68528 137.11 7.06672 137.42C7.44024 137.724 7.83049 138.007 8.23564 138.267C9.0352 138.781 9.89112 139.202 10.7866 139.521C11.7046 139.849 12.6586 140.066 13.6282 140.166C14.1146 140.217 14.6034 140.238 15.0923 140.231C15.589 140.224 16.0849 140.189 16.5777 140.126C17.0748 140.062 17.5681 139.972 18.0553 139.854C18.5439 139.736 19.0258 139.592 19.4987 139.421C19.977 139.249 20.4459 139.051 20.9034 138.83C21.3695 138.604 21.8239 138.354 22.2647 138.083C22.694 137.815 23.1121 137.528 23.5189 137.222C23.9258 136.916 24.3199 136.589 24.7014 136.243C25.0829 135.896 25.4512 135.531 25.8064 135.146C26.1616 134.762 26.503 134.358 26.8307 133.936C27.1605 133.514 27.4709 133.079 27.7619 132.632C28.053 132.185 28.3255 131.726 28.5796 131.255C28.8336 130.784 29.0687 130.302 29.2848 129.809C29.5009 129.316 29.6979 128.813 29.8757 128.3C30.06 127.768 30.2212 127.232 30.3594 126.691C30.4976 126.151 30.613 125.606 30.7056 125.058C30.7977 124.509 30.867 123.957 30.9135 123.403C30.96 122.849 30.9833 122.292 30.9833 121.733C30.9829 121.174 30.9596 120.622 30.9135 120.076C30.8675 119.531 30.7982 118.993 30.7056 118.463C30.6135 117.934 30.4981 117.413 30.3594 116.9C30.2208 116.386 30.0596 115.882 29.8757 115.388C29.697 114.91 29.5001 114.446 29.2848 113.997C29.0665 113.549 28.8304 113.114 28.5763 112.692C28.0735 111.859 27.4887 111.079 26.8307 110.361C26.5078 110.009 26.1667 109.673 25.809 109.356C25.4567 109.044 25.0878 108.752 24.704 108.48C24.3238 108.211 23.9291 107.963 23.5215 107.738C23.1142 107.512 22.6947 107.31 22.2648 107.131C21.3771 106.762 20.4489 106.499 19.4994 106.348C19.0215 106.271 18.5395 106.223 18.056 106.204C17.5634 106.184 17.07 106.192 16.5783 106.228"/>
</mask>
<path d="M15.0936 106.42L15.2774 107.403L15.2781 107.403L15.0936 106.42ZM13.6295 106.779L13.3381 105.823L13.3377 105.823L13.6295 106.779ZM12.1919 107.304L12.5852 108.224L12.5853 108.224L12.1919 107.304ZM10.786 107.995L10.299 107.121L10.2963 107.123L10.786 107.995ZM8.235 109.762L8.8788 110.527L8.87936 110.527L8.235 109.762ZM5.97531 112.052L5.2041 111.415L5.2041 111.415L5.97531 112.052ZM4.0979 114.775L3.22901 114.28L3.22666 114.284L4.0979 114.775ZM2.68872 117.826L3.62799 118.169L3.62853 118.168L2.68872 117.826ZM1.77941 121.208L2.76408 121.383L2.76421 121.382L1.77941 121.208ZM1.47461 124.693H2.47461V124.693L1.47461 124.693ZM1.77941 128.116L2.76311 127.936L2.76297 127.935L1.77941 128.116ZM2.68679 131.315L1.75577 131.68L1.75689 131.683L2.68679 131.315ZM3.3326 132.749L4.22407 132.296L4.22382 132.295L3.3326 132.749ZM4.09724 134.083L3.25571 134.623L3.25653 134.624L4.09724 134.083ZM4.97944 135.309L5.76092 134.685L5.75984 134.683L4.97944 135.309ZM5.97529 136.429L5.26388 137.132L5.26403 137.132L5.97529 136.429ZM7.06672 137.42L6.43555 138.196L6.43561 138.196L7.06672 137.42ZM8.23564 138.267L8.77642 137.426L8.77624 137.426L8.23564 138.267ZM10.7866 139.521L11.1228 138.579L11.1225 138.579L10.7866 139.521ZM13.6282 140.166L13.5247 141.161L13.5257 141.161L13.6282 140.166ZM15.0923 140.231L15.0783 139.231L15.0777 139.231L15.0923 140.231ZM16.5777 140.126L16.4514 139.134L16.4507 139.134L16.5777 140.126ZM18.0553 139.854L18.29 140.826L18.2902 140.826L18.0553 139.854ZM19.4987 139.421L19.8375 140.362L19.8377 140.362L19.4987 139.421ZM20.9034 138.83L20.4672 137.93L20.4672 137.93L20.9034 138.83ZM22.2647 138.083L22.7895 138.934L22.7936 138.931L22.2647 138.083ZM24.7014 136.243L25.3739 136.983L25.3739 136.983L24.7014 136.243ZM26.8307 133.936L26.0428 133.32L26.0406 133.323L26.8307 133.936ZM28.5796 131.255L29.4597 131.73L29.4597 131.73L28.5796 131.255ZM29.8757 128.3L28.9309 127.972L28.9308 127.972L29.8757 128.3ZM30.7056 125.058L31.6916 125.224L31.6918 125.223L30.7056 125.058ZM30.9833 121.733L31.9833 121.733L31.9833 121.732L30.9833 121.733ZM30.7056 118.463L29.7204 118.635L29.7205 118.636L30.7056 118.463ZM29.8757 115.388L30.813 115.04L30.8125 115.038L29.8757 115.388ZM29.2848 113.997L30.1867 113.565L30.1838 113.559L29.2848 113.997ZM28.5763 112.692L29.4328 112.176L29.4324 112.175L28.5763 112.692ZM26.8307 110.361L26.0932 111.037L26.0939 111.038L26.8307 110.361ZM25.809 109.356L26.4726 108.608L26.4713 108.607L25.809 109.356ZM24.704 108.48L25.2819 107.664L25.2817 107.664L24.704 108.48ZM23.5215 107.738L24.0057 106.863L24.0057 106.863L23.5215 107.738ZM22.2648 107.131L21.8806 108.055L21.8811 108.055L22.2648 107.131ZM19.4994 106.348L19.6568 105.36L19.6566 105.36L19.4994 106.348ZM18.056 106.204L18.0967 105.205L18.0964 105.205L18.056 106.204ZM16.5055 105.23C15.9699 105.269 15.4369 105.339 14.9091 105.438L15.2781 107.403C15.7325 107.318 16.1913 107.258 16.6525 107.224L16.5055 105.23ZM14.9098 105.438C14.3792 105.537 13.8545 105.665 13.3381 105.823L13.9209 107.736C14.3666 107.6 14.8194 107.489 15.2774 107.403L14.9098 105.438ZM13.3377 105.823C12.8149 105.982 12.3011 106.17 11.7985 106.385L12.5853 108.224C13.0215 108.037 13.4675 107.874 13.9213 107.736L13.3377 105.823ZM11.7987 106.385C11.2863 106.604 10.7857 106.85 10.299 107.121L11.2729 108.868C11.6988 108.631 12.1369 108.415 12.5852 108.224L11.7987 106.385ZM10.2963 107.123C9.82249 107.389 9.35981 107.678 8.90834 107.99L10.0455 109.635C10.4465 109.358 10.8565 109.102 11.2756 108.866L10.2963 107.123ZM8.90834 107.99C8.45558 108.303 8.01634 108.639 7.59065 108.997L8.87936 110.527C9.25706 110.209 9.64577 109.911 10.0455 109.635L8.90834 107.99ZM7.5912 108.997C7.16584 109.355 6.75386 109.736 6.35521 110.139L7.77823 111.545C8.13475 111.184 8.50163 110.845 8.8788 110.527L7.5912 108.997ZM6.35521 110.139C5.95626 110.543 5.57259 110.969 5.2041 111.415L6.74651 112.688C7.07808 112.287 7.422 111.905 7.77823 111.545L6.35521 110.139ZM5.2041 111.415C4.83565 111.861 4.48655 112.324 4.15681 112.802L5.80335 113.937C6.10051 113.506 6.41489 113.09 6.74651 112.688L5.2041 111.415ZM4.15681 112.802C3.82706 113.28 3.51779 113.773 3.22902 114.28L4.96677 115.27C5.22737 114.812 5.50622 114.368 5.80335 113.937L4.15681 112.802ZM3.22666 114.284C2.94167 114.79 2.67538 115.309 2.42778 115.841L4.24128 116.685C4.46728 116.199 4.70992 115.726 4.96914 115.266L3.22666 114.284ZM2.42778 115.841C2.17869 116.377 1.95242 116.925 1.74891 117.484L3.62853 118.168C3.81252 117.662 4.01677 117.167 4.24128 116.685L2.42778 115.841ZM1.74945 117.483C1.53755 118.063 1.35194 118.649 1.19273 119.242L3.12427 119.761C3.26817 119.225 3.43605 118.695 3.62799 118.169L1.74945 117.483ZM1.19273 119.242C1.0336 119.834 0.900877 120.432 0.794602 121.035L2.76421 121.382C2.86028 120.837 2.98029 120.297 3.12427 119.761L1.19273 119.242ZM0.79473 121.034C0.687985 121.637 0.607943 122.243 0.554587 122.854L2.547 123.028C2.59525 122.476 2.66761 121.928 2.76408 121.383L0.79473 121.034ZM0.554587 122.854C0.501243 123.465 0.474594 124.078 0.474609 124.693L2.47461 124.693C2.4746 124.135 2.49873 123.581 2.547 123.028L0.554587 122.854ZM0.474609 124.693C0.474609 125.308 0.501257 125.916 0.554723 126.517L2.54686 126.34C2.49875 125.799 2.47461 125.25 2.47461 124.693H0.474609ZM0.554723 126.517C0.608203 127.119 0.688524 127.712 0.795847 128.296L2.76297 127.935C2.66704 127.413 2.59496 126.881 2.54686 126.34L0.554723 126.517ZM0.795705 128.295C0.90255 128.88 1.03613 129.455 1.19653 130.02L3.12047 129.473C2.97777 128.971 2.85862 128.458 2.76311 127.936L0.795705 128.295ZM1.19653 130.02C1.35683 130.584 1.54324 131.138 1.75577 131.68L3.6178 130.95C3.42907 130.468 3.26328 129.976 3.12047 129.473L1.19653 130.02ZM1.75689 131.683C1.9636 132.205 2.19171 132.712 2.44138 133.202L4.22382 132.295C4.00333 131.862 3.8009 131.413 3.61669 130.947L1.75689 131.683ZM2.44112 133.202C2.68867 133.689 2.96053 134.163 3.25571 134.623L4.93877 133.543C4.67979 133.139 4.44126 132.723 4.22407 132.296L2.44112 133.202ZM3.25653 134.624C3.54793 135.077 3.86254 135.514 4.19904 135.934L5.75984 134.683C5.46638 134.317 5.19204 133.936 4.93796 133.541L3.25653 134.624ZM4.19797 135.933C4.5319 136.351 4.8877 136.751 5.26388 137.132L6.6867 135.726C6.35998 135.396 6.05096 135.048 5.76092 134.685L4.19797 135.933ZM5.26403 137.132C5.63504 137.508 6.02612 137.863 6.43555 138.196L7.69788 136.645C7.34443 136.357 7.00682 136.05 6.68655 135.726L5.26403 137.132ZM6.43561 138.196C6.83806 138.523 7.25853 138.828 7.69504 139.108L8.77624 137.426C8.40245 137.186 8.04242 136.925 7.69783 136.644L6.43561 138.196ZM7.69487 139.108C8.55868 139.664 9.48337 140.118 10.4508 140.463L11.1225 138.579C10.2989 138.286 9.51172 137.899 8.77642 137.426L7.69487 139.108ZM10.4505 140.463C11.4437 140.818 12.4757 141.052 13.5247 141.161L13.7317 139.172C12.8415 139.079 11.9656 138.88 11.1228 138.579L10.4505 140.463ZM13.5257 141.161C14.051 141.215 14.5789 141.239 15.1069 141.231L15.0777 139.231C14.6279 139.238 14.1781 139.218 13.7307 139.172L13.5257 141.161ZM15.1063 141.231C15.6408 141.223 16.1744 141.186 16.7046 141.118L16.4507 139.134C15.9954 139.192 15.5372 139.225 15.0783 139.231L15.1063 141.231ZM16.7039 141.118C17.2376 141.05 17.7671 140.952 18.29 140.826L17.8206 138.882C17.3692 138.991 16.9121 139.075 16.4514 139.134L16.7039 141.118ZM18.2902 140.826C18.814 140.7 19.3305 140.545 19.8375 140.362L19.1599 138.48C18.721 138.638 18.2739 138.773 17.8204 138.882L18.2902 140.826ZM19.8377 140.362C20.3491 140.178 20.8504 139.967 21.3395 139.73L20.4672 137.93C20.0414 138.136 19.6049 138.32 19.1596 138.481L19.8377 140.362ZM21.3395 139.73C21.836 139.489 22.3199 139.223 22.7895 138.934L21.7399 137.231C21.3278 137.486 20.903 137.719 20.4672 137.93L21.3395 139.73ZM22.7936 138.931C23.2479 138.648 23.6901 138.345 24.1203 138.021L22.9176 136.423C22.534 136.712 22.1401 136.982 21.7358 137.234L22.7936 138.931ZM24.1203 138.021C24.552 137.696 24.9699 137.35 25.3739 136.983L24.0289 135.503C23.67 135.829 23.2995 136.136 22.9176 136.423L24.1203 138.021ZM25.3739 136.983C25.7773 136.616 26.1663 136.23 26.5409 135.825L25.0719 134.468C24.7361 134.831 24.3885 135.176 24.0289 135.503L25.3739 136.983ZM26.5409 135.825C26.916 135.419 27.2759 134.993 27.6208 134.549L26.0406 133.323C25.7301 133.723 25.4072 134.105 25.0719 134.468L26.5409 135.825ZM27.6185 134.552C27.966 134.107 28.2933 133.649 28.6001 133.178L26.9238 132.087C26.6485 132.51 26.3549 132.921 26.0428 133.32L27.6185 134.552ZM28.6001 133.178C28.9061 132.707 29.1927 132.225 29.4597 131.73L27.6994 130.78C27.4584 131.227 27.1998 131.662 26.9238 132.087L28.6001 133.178ZM29.4597 131.73C29.7267 131.235 29.9736 130.728 30.2006 130.211L28.369 129.407C28.1637 129.876 27.9405 130.333 27.6994 130.78L29.4597 131.73ZM30.2006 130.211C30.4275 129.693 30.6342 129.165 30.8207 128.627L28.9308 127.972C28.7616 128.461 28.5743 128.939 28.369 129.407L30.2006 130.211ZM30.8206 128.627C31.0139 128.069 31.1831 127.507 31.3283 126.939L29.3906 126.444C29.2593 126.957 29.1061 127.466 28.9309 127.972L30.8206 128.627ZM31.3283 126.939C31.4733 126.372 31.5945 125.8 31.6916 125.224L29.7195 124.891C29.6316 125.412 29.522 125.93 29.3906 126.444L31.3283 126.939ZM31.6918 125.223C31.7885 124.647 31.8612 124.069 31.91 123.487L29.917 123.32C29.8728 123.846 29.807 124.371 29.7194 124.892L31.6918 125.223ZM31.91 123.487C31.9589 122.904 31.9833 122.32 31.9833 121.733L29.9833 121.733C29.9833 122.264 29.9612 122.793 29.917 123.32L31.91 123.487ZM31.9833 121.732C31.9828 121.146 31.9585 120.566 31.91 119.992L29.9171 120.16C29.9608 120.677 29.9829 121.202 29.9833 121.734L31.9833 121.732ZM31.91 119.992C31.8615 119.418 31.7884 118.851 31.6907 118.291L29.7205 118.636C29.8079 119.136 29.8735 119.644 29.9171 120.16L31.91 119.992ZM31.6908 118.292C31.5935 117.733 31.4715 117.182 31.3249 116.639L29.394 117.16C29.5246 117.644 29.6335 118.136 29.7204 118.635L31.6908 118.292ZM31.3249 116.639C31.1783 116.096 31.0076 115.563 30.813 115.04L28.9385 115.737C29.1115 116.202 29.2633 116.676 29.394 117.16L31.3249 116.639ZM30.8125 115.038C30.6237 114.533 30.4151 114.042 30.1867 113.565L28.3829 114.429C28.585 114.851 28.7704 115.287 28.939 115.738L30.8125 115.038ZM30.1838 113.559C29.9527 113.084 29.7024 112.623 29.4328 112.176L27.7199 113.208C27.9583 113.604 28.1803 114.013 28.3858 114.435L30.1838 113.559ZM29.4324 112.175C28.8952 111.286 28.2704 110.451 27.5675 109.685L26.0939 111.038C26.7069 111.706 27.2518 112.433 27.7203 113.209L29.4324 112.175ZM27.5682 109.686C27.2219 109.308 26.8562 108.948 26.4726 108.608L25.1454 110.104C25.4772 110.398 25.7936 110.71 26.0932 111.037L27.5682 109.686ZM26.4713 108.607C26.0921 108.271 25.695 107.957 25.2819 107.664L24.1262 109.296C24.4806 109.547 24.8213 109.817 25.1467 110.105L26.4713 108.607ZM25.2817 107.664C24.8715 107.374 24.4455 107.106 24.0057 106.863L23.0373 108.613C23.4126 108.82 23.7762 109.049 24.1263 109.297L25.2817 107.664ZM24.0057 106.863C23.5658 106.619 23.1127 106.401 22.6484 106.208L21.8811 108.055C22.2767 108.219 22.6627 108.405 23.0374 108.613L24.0057 106.863ZM22.6489 106.208C21.6885 105.809 20.6842 105.524 19.6568 105.36L19.3419 107.335C20.2136 107.474 21.0658 107.716 21.8806 108.055L22.6489 106.208ZM19.6566 105.36C19.1402 105.278 18.6193 105.226 18.0967 105.205L18.0152 107.203C18.4597 107.221 18.9028 107.265 19.3421 107.335L19.6566 105.36ZM18.0964 105.205C17.5658 105.183 17.0344 105.192 16.5048 105.231L16.6519 107.226C17.1057 107.192 17.561 107.185 18.0156 107.203L18.0964 105.205Z" fill="white" mask="url(#path-14-inside-4_1762_34207)"/>
<mask id="path-16-inside-5_1762_34207" fill="white">
<path d="M16.579 166.868C16.0806 166.904 15.5847 166.969 15.0936 167.061C14.5993 167.154 14.1105 167.273 13.6295 167.42C13.1412 167.569 12.6613 167.744 12.1919 167.945C11.7116 168.15 11.2423 168.381 10.786 168.635C10.3395 168.886 9.90316 169.159 9.47692 169.453C9.05067 169.748 8.6367 170.064 8.235 170.403C7.83374 170.74 7.44431 171.1 7.06672 171.483C6.68913 171.865 6.32534 172.268 5.97531 172.692C5.62527 173.116 5.29353 173.556 4.98008 174.01C4.66664 174.465 4.37258 174.933 4.0979 175.415C3.82579 175.898 3.57133 176.394 3.33453 176.904C3.09773 177.413 2.88247 177.934 2.68872 178.467C2.4868 179.019 2.31006 179.578 2.1585 180.142C2.00695 180.706 1.88058 181.275 1.77941 181.849C1.6778 182.423 1.6016 183 1.55079 183.582C1.49999 184.163 1.4746 184.747 1.47461 185.333C1.47461 185.92 1.5 186.498 1.55079 187.069C1.60158 187.64 1.67778 188.203 1.77941 188.756C1.88058 189.31 2.00695 189.853 2.1585 190.387C2.31005 190.921 2.48615 191.444 2.68679 191.955C2.88225 192.45 3.09752 192.928 3.3326 193.39C3.56496 193.847 3.82016 194.292 4.09724 194.724C4.36999 195.147 4.66446 195.556 4.97944 195.949C5.29143 196.34 5.62384 196.714 5.97529 197.07C6.32093 197.42 6.68528 197.75 7.06672 198.061C7.44025 198.365 7.83049 198.647 8.23564 198.908C9.0352 199.422 9.89113 199.843 10.7866 200.162C11.7046 200.49 12.6586 200.706 13.6282 200.807C14.1146 200.857 14.6034 200.879 15.0923 200.872C15.589 200.865 16.0849 200.829 16.5777 200.766C17.0748 200.703 17.5681 200.612 18.0553 200.495C18.5439 200.377 19.0258 200.232 19.4987 200.062C19.977 199.89 20.4459 199.692 20.9034 199.47C21.3695 199.244 21.8239 198.995 22.2647 198.723C22.694 198.456 23.1121 198.169 23.5189 197.863C23.9258 197.557 24.3199 197.23 24.7014 196.883C25.0829 196.537 25.4512 196.171 25.8064 195.787C26.1616 195.402 26.503 194.999 26.8307 194.577C27.1605 194.155 27.4709 193.72 27.7619 193.273C28.053 192.826 28.3255 192.366 28.5796 191.895C28.8336 191.425 29.0687 190.943 29.2848 190.45C29.5009 189.957 29.6979 189.454 29.8757 188.94C30.06 188.409 30.2212 187.873 30.3594 187.332C30.4976 186.791 30.613 186.247 30.7056 185.698C30.7977 185.15 30.867 184.598 30.9135 184.044C30.96 183.489 30.9833 182.933 30.9833 182.374C30.9829 181.814 30.9596 181.262 30.9135 180.717C30.8675 180.172 30.7982 179.634 30.7056 179.104C30.6135 178.575 30.4981 178.054 30.3594 177.54C30.2208 177.027 30.0596 176.523 29.8757 176.029C29.697 175.551 29.5001 175.087 29.2848 174.637C29.0665 174.189 28.8304 173.754 28.5763 173.333C28.0735 172.5 27.4887 171.719 26.8307 171.002C26.5078 170.649 26.1667 170.314 25.809 169.996C25.4567 169.685 25.0878 169.393 24.704 169.121C24.3238 168.852 23.9291 168.604 23.5215 168.378C23.1142 168.153 22.6947 167.951 22.2648 167.772C21.3771 167.403 20.4489 167.14 19.4994 166.988C19.0215 166.912 18.5395 166.864 18.056 166.844C17.5634 166.824 17.07 166.833 16.5783 166.869"/>
</mask>
<path d="M15.0936 167.061L15.2774 168.044L15.2781 168.044L15.0936 167.061ZM13.6295 167.42L13.3381 166.463L13.3377 166.463L13.6295 167.42ZM12.1919 167.945L12.5852 168.864L12.5853 168.864L12.1919 167.945ZM10.786 168.635L10.299 167.762L10.2963 167.763L10.786 168.635ZM8.235 170.403L8.8788 171.168L8.87936 171.168L8.235 170.403ZM5.97531 172.692L5.20411 172.056L5.2041 172.056L5.97531 172.692ZM4.0979 175.415L3.22901 174.92L3.22666 174.925L4.0979 175.415ZM2.68872 178.467L3.62799 178.81L3.62853 178.808L2.68872 178.467ZM1.77941 181.849L2.76408 182.023L2.76421 182.023L1.77941 181.849ZM1.47461 185.333H2.47461V185.333L1.47461 185.333ZM1.77941 188.756L2.76311 188.576L2.76297 188.576L1.77941 188.756ZM2.68679 191.955L1.75577 192.32L1.75689 192.323L2.68679 191.955ZM3.3326 193.39L4.22407 192.936L4.22382 192.936L3.3326 193.39ZM4.09724 194.724L3.25571 195.264L3.25653 195.265L4.09724 194.724ZM4.97944 195.949L5.76092 195.325L5.75984 195.324L4.97944 195.949ZM5.97529 197.07L5.26388 197.773L5.26403 197.773L5.97529 197.07ZM7.06672 198.061L6.43555 198.836L6.43562 198.837L7.06672 198.061ZM8.23564 198.908L8.77641 198.067L8.77625 198.067L8.23564 198.908ZM10.7866 200.162L11.1228 199.22L11.1225 199.22L10.7866 200.162ZM13.6282 200.807L13.5247 201.802L13.5257 201.802L13.6282 200.807ZM15.0923 200.872L15.0783 199.872L15.0777 199.872L15.0923 200.872ZM16.5777 200.766L16.4514 199.774L16.4507 199.775L16.5777 200.766ZM18.0553 200.495L18.29 201.467L18.2902 201.467L18.0553 200.495ZM19.4987 200.062L19.8375 201.003L19.8377 201.003L19.4987 200.062ZM20.9034 199.47L20.4673 198.57L20.4672 198.571L20.9034 199.47ZM22.2647 198.723L22.7896 199.575L22.7936 199.572L22.2647 198.723ZM24.7014 196.883L25.3739 197.624L25.3739 197.624L24.7014 196.883ZM26.8307 194.577L26.0428 193.961L26.0406 193.964L26.8307 194.577ZM28.5796 191.895L29.4597 192.37L29.4597 192.37L28.5796 191.895ZM29.8757 188.94L28.9309 188.613L28.9308 188.613L29.8757 188.94ZM30.7056 185.698L31.6916 185.865L31.6918 185.864L30.7056 185.698ZM30.9833 182.374L31.9833 182.374L31.9833 182.373L30.9833 182.374ZM30.7056 179.104L29.7204 179.276L29.7205 179.276L30.7056 179.104ZM29.8757 176.029L30.813 175.68L30.8125 175.679L29.8757 176.029ZM29.2848 174.637L30.1867 174.205L30.1838 174.199L29.2848 174.637ZM28.5763 173.333L29.4328 172.817L29.4324 172.816L28.5763 173.333ZM26.8307 171.002L26.0932 171.677L26.0939 171.678L26.8307 171.002ZM25.809 169.996L26.4726 169.248L26.4713 169.247L25.809 169.996ZM24.704 169.121L25.2819 168.305L25.2817 168.305L24.704 169.121ZM23.5215 168.378L24.0057 167.504L24.0057 167.503L23.5215 168.378ZM22.2648 167.772L21.8806 168.695L21.8811 168.696L22.2648 167.772ZM19.4994 166.988L19.6568 166.001L19.6566 166.001L19.4994 166.988ZM18.056 166.844L18.0967 165.845L18.0964 165.845L18.056 166.844ZM16.5055 165.87C15.9699 165.91 15.4369 165.979 14.9091 166.078L15.2781 168.044C15.7325 167.959 16.1913 167.899 16.6525 167.865L16.5055 165.87ZM14.9098 166.078C14.3792 166.177 13.8545 166.306 13.3381 166.463L13.9209 168.376C14.3666 168.241 14.8194 168.13 15.2774 168.044L14.9098 166.078ZM13.3377 166.463C12.8149 166.623 12.301 166.811 11.7985 167.026L12.5853 168.864C13.0215 168.678 13.4675 168.515 13.9213 168.376L13.3377 166.463ZM11.7987 167.026C11.2863 167.245 10.7857 167.49 10.299 167.762L11.2729 169.509C11.6988 169.271 12.1368 169.056 12.5852 168.864L11.7987 167.026ZM10.2963 167.763C9.82248 168.029 9.3598 168.319 8.90835 168.631L10.0455 170.276C10.4465 169.999 10.8566 169.743 11.2756 169.507L10.2963 167.763ZM8.90835 168.631C8.45558 168.944 8.01634 169.279 7.59064 169.638L8.87936 171.168C9.25706 170.849 9.64576 170.552 10.0455 170.276L8.90835 168.631ZM7.5912 169.638C7.16585 169.996 6.75386 170.376 6.35521 170.78L7.77823 172.185C8.13475 171.824 8.50163 171.485 8.8788 171.168L7.5912 169.638ZM6.35521 170.78C5.95627 171.184 5.5726 171.609 5.20411 172.056L6.7465 173.329C7.07807 172.927 7.42199 172.546 7.77823 172.185L6.35521 170.78ZM5.2041 172.056C4.83565 172.502 4.48654 172.964 4.15681 173.443L5.80335 174.578C6.10051 174.147 6.41489 173.731 6.74651 173.329L5.2041 172.056ZM4.15681 173.443C3.82706 173.921 3.51779 174.414 3.22902 174.92L4.96677 175.91C5.22737 175.453 5.50622 175.009 5.80335 174.578L4.15681 173.443ZM3.22666 174.925C2.94167 175.43 2.67538 175.95 2.42778 176.482L4.24128 177.325C4.46728 176.839 4.70992 176.366 4.96914 175.906L3.22666 174.925ZM2.42778 176.482C2.17869 177.018 1.95242 177.565 1.74891 178.125L3.62853 178.808C3.81251 178.302 4.01677 177.808 4.24128 177.325L2.42778 176.482ZM1.74945 178.124C1.53754 178.704 1.35194 179.29 1.19273 179.883L3.12427 180.402C3.26817 179.866 3.43605 179.335 3.62799 178.81L1.74945 178.124ZM1.19273 179.883C1.0336 180.475 0.900878 181.073 0.794602 181.675L2.76421 182.023C2.86028 181.478 2.98029 180.938 3.12427 180.402L1.19273 179.883ZM0.79473 181.675C0.687985 182.277 0.607943 182.884 0.554587 183.495L2.547 183.669C2.59525 183.117 2.66761 182.568 2.76408 182.023L0.79473 181.675ZM0.554587 183.495C0.501243 184.105 0.474594 184.718 0.474609 185.333L2.47461 185.333C2.4746 184.776 2.49873 184.221 2.547 183.669L0.554587 183.495ZM0.474609 185.333C0.474609 185.948 0.501257 186.557 0.554723 187.158L2.54686 186.981C2.49875 186.44 2.47461 185.891 2.47461 185.333H0.474609ZM0.554723 187.158C0.608203 187.759 0.688524 188.352 0.795846 188.937L2.76297 188.576C2.66704 188.053 2.59496 187.522 2.54686 186.981L0.554723 187.158ZM0.795706 188.936C0.90255 189.521 1.03613 190.095 1.19653 190.66L3.12047 190.114C2.97777 189.611 2.85862 189.099 2.76311 188.576L0.795706 188.936ZM1.19653 190.66C1.35683 191.225 1.54323 191.778 1.75577 192.32L3.6178 191.59C3.42907 191.109 3.26328 190.617 3.12047 190.114L1.19653 190.66ZM1.75689 192.323C1.9636 192.846 2.19171 193.353 2.44138 193.843L4.22382 192.936C4.00333 192.503 3.8009 192.053 3.61669 191.588L1.75689 192.323ZM2.44113 193.843C2.68867 194.33 2.96054 194.804 3.25572 195.264L4.93877 194.183C4.67978 193.78 4.44126 193.364 4.22407 192.936L2.44113 193.843ZM3.25653 195.265C3.54793 195.718 3.86254 196.155 4.19904 196.575L5.75984 195.324C5.46637 194.958 5.19204 194.577 4.93796 194.182L3.25653 195.265ZM4.19797 196.573C4.5319 196.991 4.8877 197.392 5.26388 197.773L6.6867 196.367C6.35998 196.036 6.05096 195.689 5.76092 195.325L4.19797 196.573ZM5.26403 197.773C5.63504 198.148 6.02612 198.503 6.43555 198.836L7.69788 197.285C7.34443 196.998 7.00682 196.691 6.68655 196.367L5.26403 197.773ZM6.43562 198.837C6.83807 199.164 7.25853 199.469 7.69504 199.749L8.77625 198.067C8.40245 197.826 8.04242 197.565 7.69782 197.285L6.43562 198.837ZM7.69487 199.749C8.55868 200.304 9.48336 200.759 10.4508 201.104L11.1225 199.22C10.2989 198.926 9.51172 198.539 8.77641 198.067L7.69487 199.749ZM10.4505 201.104C11.4437 201.458 12.4758 201.693 13.5247 201.802L13.7317 199.812C12.8415 199.72 11.9656 199.521 11.1228 199.22L10.4505 201.104ZM13.5257 201.802C14.0509 201.856 14.5789 201.879 15.1069 201.871L15.0777 199.872C14.628 199.878 14.1782 199.858 13.7307 199.812L13.5257 201.802ZM15.1063 201.871C15.6408 201.864 16.1744 201.826 16.7046 201.758L16.4507 199.775C15.9954 199.833 15.5372 199.865 15.0783 199.872L15.1063 201.871ZM16.7039 201.758C17.2376 201.69 17.7671 201.593 18.29 201.467L17.8206 199.523C17.3692 199.632 16.9121 199.716 16.4514 199.774L16.7039 201.758ZM18.2902 201.467C18.814 201.34 19.3305 201.185 19.8375 201.003L19.1599 199.121C18.721 199.279 18.2739 199.413 17.8204 199.523L18.2902 201.467ZM19.8377 201.003C20.3491 200.818 20.8504 200.607 21.3395 200.37L20.4672 198.571C20.0414 198.777 19.6049 198.961 19.1597 199.121L19.8377 201.003ZM21.3395 200.37C21.8359 200.13 22.3199 199.864 22.7895 199.575L21.7399 197.872C21.3278 198.126 20.903 198.359 20.4673 198.57L21.3395 200.37ZM22.7936 199.572C23.2479 199.289 23.6902 198.985 24.1203 198.662L22.9176 197.064C22.5339 197.352 22.14 197.623 21.7359 197.875L22.7936 199.572ZM24.1203 198.662C24.552 198.337 24.9699 197.991 25.3739 197.624L24.0289 196.143C23.67 196.47 23.2995 196.776 22.9176 197.064L24.1203 198.662ZM25.3739 197.624C25.7773 197.257 26.1663 196.871 26.5409 196.465L25.0719 195.108C24.7361 195.472 24.3885 195.817 24.0289 196.143L25.3739 197.624ZM26.5409 196.465C26.916 196.059 27.2759 195.634 27.6208 195.19L26.0406 193.964C25.7301 194.364 25.4072 194.745 25.0719 195.108L26.5409 196.465ZM27.6185 195.192C27.966 194.748 28.2932 194.29 28.6001 193.818L26.9238 192.727C26.6485 193.15 26.3549 193.561 26.0428 193.961L27.6185 195.192ZM28.6001 193.818C28.9061 193.348 29.1927 192.865 29.4597 192.37L27.6995 191.421C27.4584 191.868 27.1998 192.303 26.9238 192.727L28.6001 193.818ZM29.4597 192.37C29.7267 191.875 29.9736 191.369 30.2006 190.851L28.369 190.048C28.1637 190.516 27.9405 190.974 27.6994 191.421L29.4597 192.37ZM30.2006 190.851C30.4275 190.334 30.6342 189.806 30.8207 189.267L28.9308 188.613C28.7616 189.102 28.5743 189.58 28.369 190.048L30.2006 190.851ZM30.8206 189.268C31.0139 188.71 31.1831 188.147 31.3283 187.58L29.3906 187.084C29.2593 187.598 29.1061 188.107 28.9309 188.613L30.8206 189.268ZM31.3283 187.58C31.4733 187.012 31.5945 186.441 31.6916 185.865L29.7195 185.532C29.6316 186.053 29.522 186.57 29.3906 187.084L31.3283 187.58ZM31.6918 185.864C31.7885 185.288 31.8612 184.709 31.91 184.127L29.917 183.96C29.8728 184.487 29.807 185.011 29.7194 185.533L31.6918 185.864ZM31.91 184.127C31.9589 183.545 31.9833 182.96 31.9833 182.374L29.9833 182.374C29.9833 182.905 29.9612 183.434 29.917 183.96L31.91 184.127ZM31.9833 182.373C31.9828 181.786 31.9585 181.206 31.91 180.633L29.9171 180.801C29.9608 181.318 29.9829 181.842 29.9833 182.374L31.9833 182.373ZM31.91 180.633C31.8615 180.058 31.7884 179.492 31.6907 178.932L29.7205 179.276C29.8079 179.776 29.8735 180.285 29.9171 180.801L31.91 180.633ZM31.6908 178.933C31.5935 178.374 31.4715 177.823 31.3249 177.28L29.394 177.801C29.5246 178.285 29.6335 178.776 29.7204 179.276L31.6908 178.933ZM31.3249 177.28C31.1783 176.737 31.0076 176.204 30.813 175.68L28.9385 176.378C29.1115 176.843 29.2633 177.317 29.394 177.801L31.3249 177.28ZM30.8125 175.679C30.6236 175.173 30.4151 174.682 30.1867 174.205L28.3829 175.069C28.585 175.491 28.7704 175.928 28.939 176.379L30.8125 175.679ZM30.1838 174.199C29.9527 173.725 29.7024 173.264 29.4328 172.817L27.7199 173.849C27.9583 174.245 28.1803 174.654 28.3858 175.075L30.1838 174.199ZM29.4324 172.816C28.8952 171.926 28.2704 171.092 27.5675 170.326L26.0939 171.678C26.7069 172.346 27.2518 173.074 27.7203 173.85L29.4324 172.816ZM27.5682 170.327C27.2219 169.949 26.8562 169.589 26.4726 169.248L25.1454 170.744C25.4772 171.039 25.7936 171.35 26.0932 171.677L27.5682 170.327ZM26.4713 169.247C26.0921 168.912 25.695 168.597 25.2819 168.305L24.1262 169.937C24.4806 170.188 24.8213 170.458 25.1467 170.746L26.4713 169.247ZM25.2817 168.305C24.8715 168.014 24.4455 167.747 24.0057 167.504L23.0373 169.253C23.4126 169.461 23.7762 169.689 24.1263 169.937L25.2817 168.305ZM24.0057 167.503C23.5658 167.26 23.1127 167.041 22.6484 166.849L21.8811 168.696C22.2767 168.86 22.6627 169.046 23.0374 169.253L24.0057 167.503ZM22.6489 166.849C21.6885 166.449 20.6842 166.165 19.6568 166.001L19.3419 167.976C20.2136 168.115 21.0658 168.356 21.8806 168.695L22.6489 166.849ZM19.6566 166.001C19.1401 165.918 18.6193 165.867 18.0967 165.845L18.0152 167.844C18.4597 167.862 18.9028 167.906 19.3421 167.976L19.6566 166.001ZM18.0964 165.845C17.5658 165.824 17.0344 165.833 16.5048 165.872L16.6519 167.866C17.1056 167.833 17.5609 167.825 18.0156 167.844L18.0964 165.845Z" fill="white" mask="url(#path-16-inside-5_1762_34207)"/>
<path d="M17.6051 40.0996L17.6393 40.0593L16.5938 40.0338C16.0792 40.0213 15.5643 40.0381 15.0517 40.0841L15.0516 40.0841C14.5407 40.1299 14.033 40.2051 13.5307 40.3093L13.5301 40.3094C13.0253 40.4148 12.527 40.5489 12.0377 40.7112C11.5413 40.8754 11.0545 41.0672 10.5796 41.2859C10.1154 41.4995 9.66289 41.7374 9.22389 41.9988L9.22388 41.9988C8.7809 42.2625 8.35194 42.549 7.93876 42.8572C7.5195 43.17 7.11637 43.5037 6.73089 43.8571L6.73082 43.8572C6.33937 44.2163 5.96354 44.5966 5.6033 44.9981C5.24259 45.4001 4.90081 45.8197 4.57799 46.2569C4.25523 46.694 3.95252 47.1469 3.66987 47.6156L3.66986 47.6156L3.66786 47.6189C3.38763 48.0919 3.12619 48.5765 2.88356 49.0727C2.63967 49.5715 2.41818 50.0862 2.21899 50.6167M17.6051 40.0996L1.28742 53.9972C1.39127 53.4184 1.521 52.8468 1.67662 52.2825C1.8322 51.7182 2.013 51.163 2.21899 50.6167M17.6051 40.0996C17.7785 40.1167 17.9516 40.1371 18.1243 40.1609L18.1245 40.1609C18.6294 40.2307 19.13 40.3291 19.6237 40.4558L19.6238 40.4558C20.1183 40.5828 20.6052 40.7375 21.0822 40.9193C21.5639 41.1029 22.0351 41.3128 22.4937 41.5481C22.9401 41.7769 23.3744 42.0286 23.7949 42.3021L23.7955 42.3025C24.2177 42.578 24.6257 42.8746 25.0179 43.1913C25.4117 43.5082 25.792 43.8464 26.159 44.2058C26.5261 44.5654 26.8774 44.9445 27.2129 45.343M17.6051 40.0996L20.9009 73.557M2.21899 50.6167C2.21902 50.6166 2.21905 50.6166 2.21909 50.6165L2.68692 50.7929L2.21882 50.6172C2.21888 50.617 2.21894 50.6169 2.21899 50.6167ZM1.77954 60.9889L1.28741 61.0773L1.77954 60.9889ZM1.77954 60.9889L1.28748 61.0777C1.28747 61.0776 1.28746 61.0776 1.28745 61.0775L1.77954 60.9889ZM20.9009 73.557L21.0815 74.0233C21.5631 73.8368 22.0343 73.624 22.4927 73.386M20.9009 73.557C21.3656 73.3771 21.82 73.1718 22.2623 72.9422M20.9009 73.557L24.7015 71.3411C24.3221 71.649 23.9274 71.9378 23.519 72.2062C23.113 72.4728 22.6935 72.7185 22.2623 72.9422M22.4927 73.386C22.939 73.1544 23.3732 72.9001 23.7935 72.6241L23.7936 72.624C24.216 72.3464 24.6242 72.0478 25.0166 71.7293L25.0167 71.7293C25.4108 71.4093 25.791 71.0688 26.1575 70.7076C26.524 70.3463 26.876 69.9646 27.2134 69.5624C27.5531 69.1602 27.8728 68.7433 28.1727 68.3118C28.4722 67.8807 28.7526 67.4355 29.0139 66.9764M22.4927 73.386C22.4926 73.386 22.4926 73.386 22.4925 73.3861L22.2623 72.9422M22.4927 73.386L22.2623 72.9422M29.0139 66.9764C29.014 66.9762 29.0141 66.976 29.0142 66.9758L28.5797 66.7285L29.0139 66.9764ZM29.0139 66.9764C29.2763 66.5168 29.5183 66.0442 29.7398 65.5588C29.9608 65.0744 30.1629 64.5787 30.3461 64.0715L30.3465 64.0705C30.5357 63.5432 30.7013 63.0087 30.8432 62.4672C30.9851 61.926 31.1035 61.3786 31.1985 60.8251L31.1986 60.8244C31.2931 60.2691 31.3642 59.7094 31.4119 59.1454C31.4596 58.5811 31.4834 58.0125 31.4834 57.4395V57.4391C31.483 56.8668 31.4592 56.2987 31.4119 55.7347C31.3647 55.1705 31.2936 54.6121 31.1986 54.0594C31.104 53.5061 30.9855 52.9589 30.8431 52.4178C30.7008 51.8769 30.5352 51.3435 30.3464 50.8175L30.3461 50.8167C30.1629 50.3089 29.9607 49.8134 29.7396 49.3301C29.5179 48.8456 29.2746 48.3736 29.0098 47.914M29.0098 47.914C29.0099 47.9141 29.0099 47.9142 29.01 47.9143L28.5765 48.1634L29.0097 47.9138C29.0097 47.9139 29.0098 47.914 29.0098 47.914ZM29.0098 47.914C28.7487 47.4595 28.4684 47.0173 28.1691 46.5875C27.8693 46.1568 27.5505 45.742 27.2129 45.343M27.2129 45.343C27.213 45.3432 27.2132 45.3434 27.2133 45.3435L26.8308 45.6655L27.2124 45.3425C27.2126 45.3427 27.2127 45.3429 27.2129 45.343ZM16.3117 39.4164L16.5648 39.4233C18.6586 39.4805 20.7122 40.0114 22.5709 40.976C24.4258 41.945 26.0699 43.2719 27.4081 44.8797L27.4086 44.8803C28.8138 46.5635 29.9081 48.4829 30.6406 50.5488C32.2134 55.0081 32.2134 59.8704 30.6406 64.3296C29.9072 66.4021 28.8127 68.3287 27.4078 70.0204L27.4074 70.0209C26.0686 71.6368 24.4243 72.9734 22.5682 73.9544C20.7117 74.9307 18.6582 75.4751 16.5614 75.5468L16.3117 39.4164ZM16.3117 39.4164C14.2857 39.4008 12.28 39.8318 10.438 40.6798C8.48924 41.5844 6.74713 42.8789 5.31948 44.4832L5.31898 44.4838C3.7959 46.1901 2.60366 48.1643 1.80298 50.3059C0.0656909 54.9675 0.0656713 60.0979 1.80293 64.7595C2.60263 66.894 3.79481 68.8605 5.31805 70.5575L5.31851 70.558C6.74626 72.153 8.48843 73.4362 10.4359 74.3274M16.3117 39.4164L10.4359 74.3274M10.4359 74.3274C12.3566 75.1985 14.4524 75.6158 16.5607 75.5468L10.4359 74.3274ZM1.2874 53.9973L1.77954 54.0856L1.2874 53.9973ZM4.98213 68.4923L4.58014 68.7896C4.58025 68.7897 4.58036 68.7899 4.58047 68.79C4.58058 68.7902 4.58068 68.7903 4.58079 68.7905L4.98213 68.4923ZM9.47379 72.5894L9.22009 73.0202C9.65934 73.2789 10.112 73.514 10.5763 73.7246L10.7829 73.2693L9.47379 72.5894ZM15.0905 74.395L15.0492 74.8933C15.0492 74.8933 15.0493 74.8933 15.0493 74.8933L15.0905 74.395Z" stroke="white"/>
<path d="M16.5803 62.0476L11.4932 51.4613L12.7008 50.6755L16.8909 59.3723L34.4842 38.7158L35.5492 39.8493L16.5803 62.0476Z" fill="white"/>
<path d="M201.721 271.05L189.127 271.001L193.188 303.871L201.721 303.914V271.05Z" fill="#9E616A"/>
<path d="M203.897 312.185L176.399 312.04V311.693C176.398 310.988 176.467 310.284 176.604 309.593C176.875 308.228 177.414 306.931 178.19 305.777C178.978 304.607 179.988 303.602 181.164 302.821C182.323 302.051 183.624 301.518 184.992 301.254C185.685 301.121 186.389 301.056 187.095 301.06L203.897 301.143V312.185Z" fill="#2F2E41"/>
<path d="M161.398 270.894L148.841 270.845L152.889 303.671L161.398 303.713V270.894Z" fill="#9E616A"/>
<path d="M163.568 311.971L136.143 311.827V311.48C136.142 310.776 136.211 310.074 136.348 309.384C136.618 308.022 137.155 306.726 137.929 305.573C138.715 304.404 139.723 303.401 140.896 302.62C142.052 301.851 143.35 301.32 144.714 301.057C145.405 300.923 146.108 300.859 146.812 300.863L163.568 300.945V311.971Z" fill="#2F2E41"/>
<path d="M160.864 136.543L139.748 215.262L147.477 290.719L164.591 291.19L160.865 223.056L182.215 189.055L186.846 291.654L202.37 290.557L211.006 202.343C213.939 195.455 216.09 188.26 217.419 180.894C218.463 175.111 218.971 169.245 218.936 163.369C218.918 159.414 218.614 155.464 218.025 151.553C217.815 150.095 217.53 148.649 217.172 147.22L210.876 140.844L160.864 136.543Z" fill="#2F2E41"/>
<path d="M188.842 149.709C185.291 149.709 181.959 149.595 178.937 149.37C175.851 149.159 172.781 148.755 169.745 148.162C167.16 147.679 164.642 146.888 162.247 145.804C160.319 144.972 158.642 143.65 157.384 141.97L157.24 141.761L163.012 104.239L169.236 62.0507C169.645 59.2588 171.068 56.7149 173.234 54.9032C175.4 53.0915 178.156 52.1385 180.98 52.2256L200.473 52.8223C201.934 52.867 203.372 53.2045 204.701 53.8147C206.03 54.4249 207.222 55.2954 208.208 56.3745C209.194 57.4536 209.953 58.7195 210.44 60.097C210.927 61.4745 211.132 62.9356 211.043 64.3938L208.484 106.351L217.923 147.737L217.254 147.83C216.985 147.866 215.949 148.002 214.327 148.185C212.206 148.423 210.04 148.637 207.89 148.822C204.848 149.084 201.871 149.29 199.043 149.435C195.455 149.617 192.017 149.706 188.842 149.709Z" fill="#FF9A82"/>
<path d="M178.025 44.7702C178.02 44.7702 178.015 44.7702 178.009 44.7702C177.6 44.7699 177.196 44.6892 176.818 44.5326C176.44 44.376 176.097 44.1467 175.808 43.8577C175.519 43.5686 175.29 43.2255 175.134 42.848C174.977 42.4705 174.897 42.066 174.897 41.6575V24.2975C174.894 21.1872 175.517 18.1082 176.729 15.2433C179.103 9.65262 183.545 5.19256 189.129 2.7926C192.661 1.27937 196.513 0.664725 200.341 1.00371C204.169 1.3427 207.854 2.62472 211.064 4.735C214.274 6.84528 216.91 9.71791 218.737 13.0957C220.563 16.4734 221.522 20.2509 221.528 24.0897V41.4762C221.528 41.8946 221.444 42.3089 221.281 42.6942C220.961 43.4458 220.363 44.0449 219.611 44.3663C219.225 44.5308 218.81 44.6161 218.391 44.6173L178.022 44.7702H178.025Z" fill="#2F2E41"/>
<path d="M208.74 18.3437C210.366 21.3104 211.076 24.692 210.779 28.0613C210.482 31.4306 209.193 34.6365 207.073 37.274C204.953 39.9116 202.099 41.8626 198.87 42.8806C195.641 43.8986 192.182 43.9379 188.931 42.9935C186.778 42.3755 184.769 41.3369 183.021 39.9379C181.273 38.5388 179.82 36.8071 178.746 34.8432C177.124 31.8777 176.417 28.4989 176.715 25.1327C177.012 21.7665 178.301 18.5636 180.418 15.9279C182.535 13.2922 185.386 11.3417 188.612 10.3223C191.837 9.30294 195.292 9.2603 198.542 10.1998C200.697 10.8155 202.708 11.8525 204.459 13.2506C206.209 14.6487 207.665 16.3801 208.74 18.3444V18.3437Z" fill="#9E616A"/>
<path d="M169.385 25.7103C169.383 23.2505 169.876 20.8153 170.834 18.5495C172.711 14.1287 176.224 10.6021 180.64 8.70507C182.906 7.73534 185.344 7.23074 187.808 7.22131L191.287 7.20389C191.326 7.20366 191.365 7.20356 191.404 7.20359C193.813 7.20507 196.197 7.68042 198.422 8.60252C200.647 9.52462 202.668 10.8754 204.37 12.5777C206.072 14.2801 207.422 16.3006 208.342 18.524C209.263 20.7474 209.735 23.1301 209.734 25.5361V25.8838L202.376 25.9135L199.867 18.9114L199.365 25.927L195.564 25.9438L194.299 22.4111L194.045 25.9483L169.388 26.0586L169.385 25.7103Z" fill="#2F2E41"/>
<path d="M139.761 62.2303C138.629 62.507 137.57 63.0253 136.658 63.7497C135.945 64.3134 135.335 64.9964 134.855 65.7684C133.91 67.2963 133.494 69.0921 133.67 70.8795C133.759 71.7825 134.004 72.6632 134.395 73.4825C134.876 74.5034 135.569 75.4108 136.427 76.1447C137.285 76.8786 138.289 77.4223 139.373 77.7399C140.458 78.0575 141.597 78.1418 142.716 77.9872C143.835 77.8326 144.909 77.4427 145.866 76.8431C145.936 76.7976 146.006 76.7514 146.075 76.7046C146.144 76.6578 146.212 76.61 146.279 76.5612C146.346 76.5124 146.412 76.4627 146.477 76.4124C146.542 76.362 146.606 76.3109 146.67 76.259L187.274 90.6946C188.524 91.1385 189.883 91.165 191.149 90.7701C192.415 90.3752 193.518 89.5803 194.292 88.505L203.919 75.1912L192.28 67.3625L186.173 74.2931L149.013 66.9092C148.972 66.813 148.93 66.7173 148.887 66.6221C148.844 66.5269 148.798 66.4321 148.751 66.3377C148.703 66.2436 148.654 66.1499 148.603 66.0568C148.552 65.9636 148.498 65.8712 148.441 65.7796C147.554 64.3487 146.237 63.2347 144.678 62.5971C143.119 61.9596 141.398 61.8312 139.761 62.2303Z" fill="#9E616A"/>
<path d="M186.828 69.9223C188.043 68.4081 189.741 66.4421 191.466 64.4922C193.192 62.5422 194.943 60.6096 196.263 59.1638C197.584 57.718 198.473 56.7598 198.473 56.7598C199.692 54.9185 201.512 53.5554 203.623 52.9023C205.734 52.2491 208.006 52.346 210.054 53.1766C212.101 54.0072 213.798 55.5202 214.856 57.4587C215.913 59.3972 216.266 61.6416 215.855 63.8106C215.62 65.0594 215.135 66.2477 214.428 67.3041C214.428 67.3041 213.103 69.0357 211.104 71.6202C209.104 74.2048 206.429 77.6453 203.73 81.0658C201.032 84.4862 198.307 87.889 196.206 90.4008C194.105 92.9126 192.626 94.5353 192.418 94.3963L185.089 72.6351C184.881 72.4961 185.613 71.4365 186.828 69.9223Z" fill="#FF9A82"/>
<path d="M191.178 44.2231C191.062 44.7843 191.107 45.3666 191.307 45.9036C191.407 46.1785 191.545 46.438 191.718 46.6745C191.865 46.8761 192.036 47.0595 192.227 47.221C192.791 47.6976 193.507 47.9576 194.247 47.9545C194.293 47.954 194.339 47.9527 194.385 47.9506C194.431 47.9484 194.477 47.9452 194.523 47.9409C194.57 47.937 194.616 47.9319 194.662 47.9254C194.708 47.919 194.754 47.9117 194.801 47.9035L197.412 47.4293L201.01 39.7525V46.7842L212.884 44.6489V14.8091L192.978 14.9046L193.47 15.4755C195.103 17.3912 196.176 19.7199 196.57 22.2054C196.956 24.7228 196.907 27.2877 196.426 29.7887C195.959 32.3194 195.249 34.7994 194.307 37.1946C193.483 39.3165 192.538 41.3892 191.475 43.4025C191.338 43.6608 191.238 43.937 191.178 44.2231Z" fill="#2F2E41"/>
<path d="M53.2977 313.087H299.354C299.525 313.087 299.69 313.019 299.811 312.898C299.932 312.777 300 312.613 300 312.442C300 312.271 299.932 312.107 299.811 311.986C299.69 311.865 299.525 311.797 299.354 311.797H53.2977C53.1264 311.797 52.9621 311.865 52.841 311.986C52.7199 312.107 52.6519 312.271 52.6519 312.442C52.6519 312.613 52.7199 312.777 52.841 312.898C52.9621 313.019 53.1264 313.087 53.2977 313.087Z" fill="#CACACA"/>
</g>
<defs>
<clipPath id="clip0_1762_34207">
<rect width="300" height="312.174" fill="white" transform="translate(0 0.913025)"/>
</clipPath>
</defs>
</svg>
