<svg width="200" height="160" viewBox="0 0 200 160" fill="none" xmlns="http://www.w3.org/2000/svg">
<g clip-path="url(#clip0_3510_49174)">
<path d="M168.553 153.217C169.341 153.266 169.776 152.288 169.18 151.718L169.12 151.482C169.128 151.463 169.136 151.445 169.144 151.426C169.613 150.305 170.907 149.774 172.03 150.239C175.58 151.707 171.832 155.08 172.114 157.362C172.212 158.15 175.298 158.193 175.124 158.967C176.765 155.379 177.628 151.461 177.626 147.522C177.626 146.532 177.571 145.543 177.46 144.555C177.369 143.748 177.243 142.945 177.08 142.15C176.2 137.852 174.295 133.758 171.549 130.339C170.229 129.618 171.034 128.49 170.369 127.139C170.13 126.651 167.998 126.64 167.91 126.106C168.005 126.118 169.383 124.688 168.928 123.98C168.628 123.515 168.721 122.922 169.106 122.524C169.144 122.485 169.179 122.444 169.212 122.4C170.348 120.858 171.915 121.126 172.733 123.221C174.48 124.102 174.498 125.564 173.426 126.97C172.745 127.865 172.651 129.075 172.053 130.033C172.115 130.112 172.179 130.189 172.241 130.267C173.37 131.715 174.347 133.27 175.17 134.905C174.937 133.088 175.28 130.899 175.865 129.488C176.535 127.869 177.797 126.506 178.902 125.106C180.222 123.433 182.909 124.192 183.142 126.31C183.144 126.33 183.147 126.351 183.149 126.371C182.985 126.463 182.825 126.561 182.669 126.665C181.777 127.255 182.086 128.637 183.143 128.8L183.167 128.803C183.108 129.392 181.02 131.246 180.872 131.819C182.285 137.274 181.228 137.994 176.883 138.085L176.654 138.41C177.066 139.594 177.398 140.806 177.646 142.034C177.881 143.174 178.044 144.326 178.135 145.483C178.249 146.943 178.24 148.411 178.117 149.868L178.124 149.817C178.436 148.211 179.308 146.711 180.573 145.672C182.457 144.123 185.121 143.552 187.154 142.306C188.133 141.706 189.388 142.48 189.217 143.615L189.209 143.67C188.906 143.793 188.611 143.936 188.325 144.096C188.162 144.188 188.001 144.287 187.845 144.39C186.953 144.98 187.262 146.363 188.319 146.525L188.343 146.529C188.361 146.531 188.375 146.534 188.393 146.536C187.873 147.77 182.928 149.51 182.022 150.497C181.142 155.262 181.574 155.12 177.52 153.734H177.518C177.075 155.664 176.428 157.55 175.597 159.348L168.727 159.35C168.703 159.274 168.681 159.195 168.658 159.119C169.294 159.158 169.934 159.121 170.559 159.005C170.049 158.38 169.539 157.75 169.03 157.125C169.017 157.112 169.007 157.1 168.998 157.088L168.99 157.078L168.283 154.75C168.338 154.234 168.429 153.721 168.553 153.217L168.553 153.217V153.217V153.217Z" fill="#F2F2F2"/>
<path d="M95.963 159.294L35.1792 159.315C32.1256 159.316 29.3903 157.738 27.8625 155.094C27.0986 153.772 26.7165 152.322 26.716 150.871C26.7155 149.421 27.0967 147.97 27.8596 146.647L58.2322 91.3559C59.7583 88.7106 62.4925 87.1309 65.5461 87.1299C68.5998 87.1288 71.3351 88.7066 72.863 91.3508L103.278 146.628C104.04 147.947 104.421 149.396 104.421 150.845C104.421 152.295 104.04 153.746 103.277 155.068C101.751 157.713 99.0166 159.293 95.963 159.294H95.963H95.963ZM27.4801 150.87C27.48 152.191 34.1872 149.345 34.8821 150.548C36.272 152.954 32.4008 158.554 35.179 158.553C35.179 158.553 101.228 157.094 102.616 154.687C103.31 153.484 103.657 152.164 103.657 150.845C103.656 149.525 103.309 148.205 102.614 147.003L72.1988 91.7253C70.8128 89.3268 68.3245 87.8913 65.5464 87.8923C62.7695 87.8932 27.4802 149.55 27.4801 150.87H27.4801Z" fill="#3F3D56"/>
<path d="M96.638 158.532C95.8761 160.057 131.56 159.588 131.982 159.588C131.982 159.588 142.012 159.366 142.223 159.001C142.328 158.818 142.381 158.618 142.381 158.418C142.381 158.217 142.328 158.017 142.223 157.834L137.604 149.44C137.393 149.076 137.016 148.858 136.594 148.858C136.576 148.858 136.55 148.874 136.517 148.903C130.356 154.409 122.762 158.049 114.5 158.172C105.715 158.303 96.6864 158.435 96.638 158.532H96.638Z" fill="#3F3D56"/>
<path d="M2.85327e-08 159.547C8.77027e-05 159.798 0.2022 160 0.453798 160L199.547 159.931C199.798 159.931 200 159.729 200 159.477C200 159.226 199.798 159.024 199.546 159.024L0.453485 159.093C0.201887 159.093 -8.76456e-05 159.295 2.85327e-08 159.547H2.85327e-08Z" fill="#CCCCCC"/>
<path d="M153.955 157.345L150.507 157.346L148.862 144.048L153.951 144.046L153.955 157.345Z" fill="#A0616A"/>
<path d="M142.142 157.271C142.035 157.452 141.979 158.036 141.979 158.246C141.979 158.892 142.503 159.416 143.149 159.416L153.827 159.412C154.268 159.412 154.625 159.054 154.625 158.613L154.625 158.169C154.625 158.169 155.152 156.833 154.064 155.186C154.064 155.186 152.713 156.476 150.693 154.457L150.097 153.378L145.787 156.533L143.398 156.828C142.875 156.892 142.411 156.818 142.142 157.271H142.142Z" fill="#2F2E41"/>
<path d="M140.735 145.971L137.469 147.076L131.652 135.005L136.472 133.374L140.735 145.971Z" fill="#A0616A"/>
<path d="M129.521 149.684C129.477 149.89 129.611 150.461 129.678 150.66C129.885 151.272 130.549 151.6 131.162 151.393L141.275 147.97C141.693 147.828 141.917 147.375 141.776 146.958L141.633 146.537C141.633 146.537 141.705 145.102 140.147 143.891C140.147 143.891 139.28 145.545 136.72 144.28L135.81 143.449L132.737 147.817L130.568 148.862C130.093 149.091 129.631 149.169 129.521 149.684L129.521 149.684Z" fill="#2F2E41"/>
<path d="M135.409 68.8263L128.722 90.9738L120.827 110.895L133.326 139.345L137.96 137.284L132.415 111.149L144.044 93.4148L149.471 148.776L154.106 148.517L160.391 81.6928L161.288 67.1436L135.409 68.8263Z" fill="#2F2E41"/>
<path d="M155.606 19.7651L145.822 21.571L145.051 25.9489L139.129 28.7834L136.05 60.9724C136.05 60.9724 130.903 67.6692 135.023 69.7278L161.288 67.1437C161.288 67.1437 162.574 62.3825 161.286 61.9308C159.998 61.4791 159.994 50.1064 159.994 50.1064L165.909 26.7142L157.153 23.6271L155.606 19.7651Z" fill="#E6E6E6"/>
<path d="M149.835 19.6803C154.199 19.6803 157.736 16.1428 157.736 11.7791C157.736 7.41542 154.199 3.87793 149.835 3.87793C145.471 3.87793 141.934 7.41542 141.934 11.7791C141.934 16.1428 145.471 19.6803 149.835 19.6803Z" fill="#A0616A"/>
<path d="M155.067 12.952C154.437 13.2972 155.035 14.9451 154.641 15.0876C154.186 15.2523 152.525 13.3619 152.504 11.2445C152.498 10.6037 152.646 10.296 152.504 9.53617C152.318 8.54228 151.749 7.37003 151.222 7.40115C150.909 7.4196 150.604 7.86134 150.581 8.25555C150.549 8.80806 151.086 9.02552 151.009 9.32314C150.862 9.89001 148.608 10.2814 147.806 9.32425C147.177 8.57387 147.659 7.25639 147.378 7.18893C147.17 7.13921 146.948 7.86456 146.097 8.6842C145.776 8.993 145.3 9.45226 145.03 9.32521C144.639 9.1416 144.923 7.84761 144.815 7.83046C144.727 7.81625 144.671 8.72576 144.175 9.53905C143.539 10.5839 142.226 11.3893 141.613 11.0348C141.238 10.8176 141.208 10.2129 141.186 9.75363C141.138 8.78611 139.732 6.5606 140.096 5.52558C140.836 3.419 142.105 4.90394 142.679 4.20092C143.455 3.2492 144.152 3.7609 145.454 2.70514C146.726 1.67377 146.737 0.637158 147.589 0.56894C148.356 0.507507 148.629 1.32571 149.511 1.20891C150.259 1.10997 150.421 0.475361 151.006 0.567755C151.541 0.652341 151.576 1.21139 152.287 1.4215C152.741 1.55563 152.841 1.36148 153.355 1.42113C154.425 1.54523 155.143 2.51927 155.277 2.70174C155.796 3.40513 155.595 3.70176 156.132 4.4098C156.596 5.0204 157.622 4.76111 158.008 5.06607C159.27 6.06254 159.812 7.90022 159.823 9.99474C159.83 11.4597 159.639 12.1999 159.213 14.049C158.89 15.453 157.39 17.2675 156.564 18.0766C156.342 18.2938 155.72 18.9026 155.283 18.7177C154.869 18.5424 154.856 17.7542 154.855 17.6501C154.854 17.2922 154.949 16.8492 155.709 15.7279C156.507 14.55 156.825 14.4156 156.776 14.0191C156.691 13.3184 155.57 12.6769 155.067 12.952H155.067Z" fill="#2F2E41"/>
<path d="M127.507 86.6161C127.261 88.6756 128.124 90.4719 129.434 90.6284C130.745 90.7849 132.007 89.2423 132.253 87.1828C132.36 86.2813 132.255 85.4303 131.994 84.7451L132.926 76.0056L128.816 75.6553L128.333 84.3079C127.917 84.9122 127.614 85.7146 127.507 86.6161H127.507H127.507Z" fill="#A0616A"/>
<path d="M139.322 28.5752C139.322 28.5752 137.193 28.6055 135.783 31.3594C135.033 32.8227 131.025 60.188 131.025 60.188L127.332 82.6053L133.622 82.637L138.524 61.4073L142.647 49.0945L139.322 28.5752L139.322 28.5752Z" fill="#E6E6E6"/>
<path d="M157.024 83.327C156.422 85.3117 156.957 87.2314 158.22 87.6147C159.483 87.998 160.995 86.6999 161.598 84.7152C161.862 83.8464 161.907 82.9901 161.769 82.2697L164.216 73.8281L160.23 72.7642L158.241 81.1989C157.726 81.7211 157.288 82.4583 157.024 83.3271V83.327Z" fill="#A0616A"/>
<path d="M161.403 27.1017C161.403 27.1017 164.492 24.7832 167.068 28.3873C169.644 31.9915 170.685 61.6039 170.685 61.6039L163.481 79.8891L158.073 78.0885L163.215 55.6839L154.197 38.6919L161.403 27.1017H161.403Z" fill="#E6E6E6"/>
<path d="M83.2826 147.101C98.6511 147.101 111.11 134.642 111.11 119.274C111.11 103.905 98.6511 91.4468 83.2826 91.4468C67.9142 91.4468 55.4556 103.905 55.4556 119.274C55.4556 134.642 67.9142 147.101 83.2826 147.101Z" fill="#0050FF"/>
<path d="M83.2877 136.332C84.6987 136.332 85.8426 135.188 85.8426 133.777C85.8426 132.366 84.6987 131.222 83.2877 131.222C81.8766 131.222 80.7327 132.366 80.7327 133.777C80.7327 135.188 81.8766 136.332 83.2877 136.332Z" fill="white"/>
<path d="M83.2767 102.215C83.042 103.775 83.4626 104.101 83.4649 110.825C83.4672 117.548 84.8623 126.562 83.2852 126.563C81.7081 126.564 81.1313 107.96 75.6549 106.313C69.2163 104.377 84.0365 97.1669 83.2767 102.215Z" fill="white"/>
<path d="M45.9348 133.481L43.4207 138.793C46.4601 136.614 51.2074 134.735 54.9852 133.729C51.4652 132.029 47.1581 129.287 44.5849 126.573L46.031 132.186C29.0778 128.733 16.9035 115.727 16.8984 100.829L16.286 100.619C16.2914 116.18 28.2973 129.956 45.9348 133.481V133.481Z" fill="#3F3D56"/>
</g>
<defs>
<clipPath id="clip0_3510_49174">
<rect width="200" height="159.442" fill="white" transform="translate(0 0.558594)"/>
</clipPath>
</defs>
</svg>
