<svg width="350" height="255" viewBox="0 0 350 255" fill="none" xmlns="http://www.w3.org/2000/svg">
<g clip-path="url(#clip0_1992_40411)">
<path opacity="0.1" d="M326.751 121.437C326.945 119.214 327.046 116.956 327.046 114.674C327.046 78.9422 302.803 49.9742 272.898 49.9742C263.377 49.9742 254.4 52.9291 246.632 58.1002C225.464 41.684 197.829 31.7653 167.596 31.7653C118.402 31.7653 76.0872 58.0542 57.3133 95.7557C56.2725 95.6834 55.2219 95.644 54.1614 95.644C24.2406 95.644 0 124.609 0 160.34C0 173.473 3.2833 185.697 8.91088 195.901C8.91088 228.047 34.6684 254.116 66.4409 254.116H106.497L106.674 253.811C109.029 249.989 114.666 249.034 118.593 251.204C119.63 251.775 120.596 252.517 121.755 252.78C126.394 253.765 129.51 246.302 134.205 247.028C136.562 247.392 138.401 249.828 140.772 249.579C142.344 249.411 143.536 248.095 145.014 247.537C147.381 246.637 149.781 247.885 151.439 249.91C152.401 247.143 152.394 243.863 153.951 241.325C156.305 237.503 161.942 236.548 165.869 238.718C166.907 239.289 167.872 240.031 169.031 240.294C173.67 241.279 176.786 233.816 181.481 234.541C183.839 234.906 185.677 237.342 188.048 237.093C189.621 236.925 190.812 235.609 192.29 235.05C195.974 233.648 199.746 237.454 200.652 241.289C201.004 242.978 201.189 244.698 201.207 246.424C204.386 244.884 207.071 240.553 210.699 241.115C213.057 241.479 214.895 243.915 217.266 243.666C218.839 243.498 220.031 242.182 221.508 241.623C225.192 240.221 228.964 244.027 229.871 247.862C230.353 249.897 230.386 252.012 230.468 254.1H296.84C321.793 254.1 342.012 233.639 342.012 208.397C347.075 198.547 350 186.964 350 174.56C350 152.562 340.807 133.125 326.751 121.437Z" fill="#ECEFF8"/>
<path d="M193.379 36.3193L202.529 27.1689L211.772 36.3193H205.491V43.3159H199.66V36.3653L193.379 36.3193Z" fill="white"/>
<path d="M242.15 131.724C241.764 129.732 240.767 127.91 239.297 126.511C237.828 125.112 235.96 124.205 233.952 123.916C231.943 123.627 229.895 123.971 228.091 124.9C226.287 125.828 224.817 127.295 223.885 129.097C221.897 129.314 220.067 130.284 218.773 131.808C217.478 133.333 216.817 135.296 216.926 137.293C217.034 139.29 217.904 141.169 219.356 142.544C220.808 143.92 222.732 144.686 224.732 144.686H241.694C243.42 144.681 245.073 143.994 246.295 142.775C247.517 141.556 248.208 139.904 248.218 138.179C248.224 136.531 247.598 134.943 246.47 133.743C245.341 132.542 243.795 131.819 242.15 131.724ZM234.648 135.572V140.516H230.488V135.558H226.039L232.563 129.035L239.083 135.558L234.648 135.572Z" fill="white"/>
<path d="M203.668 66.9775C202.749 62.2516 200.378 57.9286 196.884 54.6088C193.391 51.2889 188.947 49.137 184.172 48.4517C179.397 47.7665 174.526 48.582 170.236 50.785C165.946 52.988 162.45 56.4691 160.234 60.745C155.506 61.2589 151.155 63.5614 148.077 67.1787C144.998 70.796 143.426 75.4531 143.684 80.1917C143.942 84.9303 146.011 89.39 149.464 92.6531C152.917 95.9163 157.492 97.7348 162.248 97.7345H202.583C206.687 97.7222 210.62 96.0927 213.526 93.2008C216.431 90.3088 218.074 86.3886 218.097 82.2937C218.112 78.3837 216.624 74.6169 213.94 71.7679C211.256 68.919 207.58 67.2046 203.668 66.9775ZM185.828 76.108V87.8405H175.935V76.0768H165.356L180.87 60.597L196.376 76.0768L185.828 76.108Z" fill="white"/>
<path d="M292.056 212.82C291.67 210.828 290.673 209.006 289.204 207.607C287.734 206.208 285.866 205.301 283.858 205.012C281.85 204.723 279.801 205.067 277.997 205.995C276.193 206.924 274.723 208.391 273.791 210.193C271.803 210.41 269.973 211.38 268.679 212.904C267.384 214.429 266.723 216.392 266.832 218.389C266.94 220.386 267.81 222.265 269.262 223.64C270.714 225.016 272.638 225.782 274.638 225.782H291.6C293.326 225.777 294.98 225.09 296.202 223.871C297.423 222.652 298.114 221 298.124 219.274C298.13 217.627 297.504 216.039 296.376 214.838C295.247 213.638 293.701 212.915 292.056 212.82ZM284.554 216.668V221.612H280.394V216.654H275.945L282.469 210.131L288.99 216.654L284.554 216.668Z" fill="white"/>
<path d="M105.604 158.147C105.001 155.071 103.456 152.259 101.183 150.101C98.9097 147.942 96.0213 146.545 92.9182 146.102C89.8151 145.659 86.651 146.192 83.8647 147.628C81.0783 149.064 78.8078 151.331 77.3679 154.115C74.2967 154.453 71.4715 155.954 69.4729 158.31C67.4743 160.666 66.4542 163.698 66.6224 166.783C66.7906 169.868 68.1342 172.771 70.377 174.896C72.6199 177.021 75.5916 178.206 78.6812 178.208H104.898C107.57 178.199 110.13 177.133 112.019 175.244C113.907 173.354 114.971 170.793 114.978 168.122C114.987 165.576 114.02 163.124 112.277 161.269C110.533 159.414 108.146 158.297 105.604 158.147ZM94.0109 164.09V171.753H87.5592V164.09H80.7037L90.7867 154.01L100.86 164.09H94.0109Z" fill="white"/>
<path d="M220.966 180.572V172.593L224.643 176.271L225.563 175.318L220.309 170.065L215.056 175.318L215.975 176.238L219.653 172.593V180.572H220.966Z" fill="white"/>
<path d="M37.4295 191.406V183.428L41.1068 187.105L42.0261 186.153L36.7728 180.9L31.5195 186.153L32.4389 187.072L36.1162 183.428V191.406H37.4295Z" fill="white"/>
<path d="M220.638 105.385V99.4066L223.396 102.165L224.085 101.452L220.146 97.5122L216.206 101.452L216.895 102.142L219.653 99.4066V105.385H220.638Z" fill="white"/>
<path d="M148.734 62.0467V56.0679L151.492 58.8258L152.181 58.1134L148.241 54.1735L144.301 58.1134L144.991 58.8028L147.749 56.0679V62.0467H148.734Z" fill="white"/>
<path d="M121.81 121.145V115.166L124.568 117.924L125.258 117.212L121.318 113.272L117.378 117.212L118.067 117.901L120.825 115.166V121.145H121.81Z" fill="white"/>
<path d="M290.572 148.724V142.745L293.33 145.503L294.02 144.791L290.08 140.851L286.14 144.791L286.829 145.48L289.587 142.745V148.724H290.572Z" fill="white"/>
<path d="M115.901 201.584V195.606L118.659 198.363L119.348 197.651L115.408 193.711L111.468 197.651L112.158 198.34L114.916 195.606V201.584H115.901Z" fill="white"/>
<path d="M259.052 98.1688C260.14 98.1688 261.022 97.2869 261.022 96.1989C261.022 95.1109 260.14 94.2289 259.052 94.2289C257.965 94.2289 257.083 95.1109 257.083 96.1989C257.083 97.2869 257.965 98.1688 259.052 98.1688Z" fill="white"/>
<path d="M73.5461 92.9157C74.6341 92.9157 75.5161 92.0337 75.5161 90.9457C75.5161 89.8577 74.6341 88.9758 73.5461 88.9758C72.4582 88.9758 71.5762 89.8577 71.5762 90.9457C71.5762 92.0337 72.4582 92.9157 73.5461 92.9157Z" fill="white"/>
<path d="M131.66 142.821C132.748 142.821 133.63 141.939 133.63 140.851C133.63 139.763 132.748 138.881 131.66 138.881C130.572 138.881 129.69 139.763 129.69 140.851C129.69 141.939 130.572 142.821 131.66 142.821Z" fill="white"/>
<path d="M303.705 175.325C304.249 175.325 304.69 174.884 304.69 174.34C304.69 173.796 304.249 173.355 303.705 173.355C303.161 173.355 302.72 173.796 302.72 174.34C302.72 174.884 303.161 175.325 303.705 175.325Z" fill="white"/>
<path d="M229.831 202.576C230.375 202.576 230.816 202.135 230.816 201.591C230.816 201.047 230.375 200.606 229.831 200.606C229.287 200.606 228.846 201.047 228.846 201.591C228.846 202.135 229.287 202.576 229.831 202.576Z" fill="white"/>
<path d="M103.424 225.559C103.968 225.559 104.409 225.118 104.409 224.574C104.409 224.03 103.968 223.589 103.424 223.589C102.88 223.589 102.439 224.03 102.439 224.574C102.439 225.118 102.88 225.559 103.424 225.559Z" fill="white"/>
<path d="M31.5197 145.776C32.0637 145.776 32.5046 145.335 32.5046 144.791C32.5046 144.247 32.0637 143.806 31.5197 143.806C30.9757 143.806 30.5347 144.247 30.5347 144.791C30.5347 145.335 30.9757 145.776 31.5197 145.776Z" fill="white"/>
<path d="M41.0411 124.763C41.5851 124.763 42.0261 124.322 42.0261 123.778C42.0261 123.234 41.5851 122.793 41.0411 122.793C40.4971 122.793 40.0562 123.234 40.0562 123.778C40.0562 124.322 40.4971 124.763 41.0411 124.763Z" fill="white"/>
<path d="M252.814 235.08C253.358 235.08 253.799 234.639 253.799 234.095C253.799 233.551 253.358 233.11 252.814 233.11C252.27 233.11 251.829 233.551 251.829 234.095C251.829 234.639 252.27 235.08 252.814 235.08Z" fill="white"/>
<path d="M70.5909 200.934C71.1349 200.934 71.5759 200.493 71.5759 199.949C71.5759 199.405 71.1349 198.964 70.5909 198.964C70.047 198.964 69.606 199.405 69.606 199.949C69.606 200.493 70.047 200.934 70.5909 200.934Z" fill="white"/>
<path d="M93.2457 110.645C93.7897 110.645 94.2307 110.204 94.2307 109.66C94.2307 109.116 93.7897 108.675 93.2457 108.675C92.7017 108.675 92.2607 109.116 92.2607 109.66C92.2607 110.204 92.7017 110.645 93.2457 110.645Z" fill="white"/>
<path d="M126.9 74.6937H121.811V69.6047H121.154V74.6937H116.065V75.3503H121.154V80.4394H121.811V75.3503H126.9V74.6937Z" fill="white"/>
<path d="M250.844 168.722H247.761V165.639H247.361V168.722H244.278V169.123H247.361V172.206H247.761V169.123H250.844V168.722Z" fill="white"/>
<path d="M232.13 226.179H229.047V223.096H228.646V226.179H225.563V226.58H228.646V229.663H229.047V226.58H232.13V226.179Z" fill="white"/>
<path d="M78.799 218.956H75.716V215.873H75.3154V218.956H72.2324V219.357H75.3154V222.439H75.716V219.357H78.799V218.956Z" fill="white"/>
<path d="M194.715 215.07V209.091L197.473 211.849L198.162 211.137L194.222 207.197L190.282 211.137L190.972 211.826L193.73 209.091V215.07H194.715Z" fill="white"/>
<path d="M178.207 216.986C178.751 216.986 179.192 216.545 179.192 216.001C179.192 215.457 178.751 215.016 178.207 215.016C177.663 215.016 177.222 215.457 177.222 216.001C177.222 216.545 177.663 216.986 178.207 216.986Z" fill="white"/>
<path d="M148.56 215.683C149.104 215.683 149.545 215.242 149.545 214.698C149.545 214.154 149.104 213.713 148.56 213.713C148.016 213.713 147.575 214.154 147.575 214.698C147.575 215.242 148.016 215.683 148.56 215.683Z" fill="white"/>
<path d="M166.811 218.099H163.728V215.016H163.328V218.099H160.245V218.499H163.328V221.582H163.728V218.499H166.811V218.099Z" fill="white"/>
<path d="M179.897 165.497V153.622L185.382 159.1L186.754 157.685L178.918 149.859L171.082 157.685L172.453 159.054L177.938 153.622V165.497H179.897Z" fill="white"/>
<path d="M191.325 179.831C192.407 179.831 193.284 178.956 193.284 177.877C193.284 176.797 192.407 175.922 191.325 175.922C190.243 175.922 189.366 176.797 189.366 177.877C189.366 178.956 190.243 179.831 191.325 179.831Z" fill="white"/>
<path d="M132.556 177.225C133.638 177.225 134.515 176.35 134.515 175.27C134.515 174.191 133.638 173.316 132.556 173.316C131.474 173.316 130.597 174.191 130.597 175.27C130.597 176.35 131.474 177.225 132.556 177.225Z" fill="white"/>
<path d="M168.47 182.04H162.339V175.922H161.542V182.04H155.411V182.835H161.542V188.953H162.339V182.835H168.47V182.04Z" fill="white"/>
<path d="M57.1296 161.171H54.0466V158.088H53.646V161.171H50.563V161.571H53.646V164.654H54.0466V161.571H57.1296V161.171Z" fill="white"/>
<path d="M167.163 129.829L176.316 120.675L185.556 129.829H179.278V136.826H173.444V129.872L167.163 129.829Z" fill="#0050FF"/>
<g opacity="0.1">
<path opacity="0.1" d="M188.747 90.2628C191.239 84.4482 196.105 78.384 199.132 78.4201C203.072 78.4661 210.171 88.8575 210.975 95.493L211.06 88.3651C210.991 81.8314 203.295 70.2481 199.142 70.1989C196.154 70.1628 191.38 76.0693 188.859 81.815L188.747 90.2628Z" fill="black"/>
<path opacity="0.1" d="M142.958 95.7721H143.155C143.375 89.2417 150.973 77.8423 155.123 77.8916C157.835 77.9244 162.054 82.8722 164.677 88.1221L165.314 34.8155H165.508C165.764 25.2415 173.431 8.48388 177.581 8.54955C181.501 8.59552 188.534 23.7214 189.328 33.4693L189.404 26.9029C189.368 17.3257 181.734 0.384135 177.584 0.334886C173.434 0.285638 165.764 17.0433 165.511 26.6172H165.318L164.681 79.9239C162.054 74.6707 157.838 69.7262 155.126 69.6933C150.976 69.6441 143.379 81.0435 143.159 87.5738H142.962L141.396 218.841H141.494L142.958 95.7721Z" fill="black"/>
</g>
</g>
<defs>
<clipPath id="clip0_1992_40411">
<rect width="350" height="254.11" fill="white"/>
</clipPath>
</defs>
</svg>
