<svg width="40" height="40" viewBox="0 0 40 40" fill="none" xmlns="http://www.w3.org/2000/svg">
<path d="M34.9999 16.8667H23.6999L28.2666 12.1667C23.7166 7.66667 16.3499 7.5 11.7999 12C7.24993 16.5167 7.24993 23.8 11.7999 28.3167C16.3499 32.8333 23.7166 32.8333 28.2666 28.3167C30.5333 26.0833 31.6666 23.4667 31.6666 20.1667H34.9999C34.9999 23.4667 33.5333 27.75 30.5999 30.65C24.7499 36.45 15.2499 36.45 9.39993 30.65C3.56659 24.8667 3.51659 15.4667 9.36659 9.68333C15.2166 3.9 24.5999 3.9 30.4499 9.68333L34.9999 5V16.8667ZM20.8333 13.3333V20.4167L26.6666 23.8833L25.4666 25.9L18.3333 21.6667V13.3333H20.8333Z" fill="#6494FF"/>
</svg>
