<svg width="56" height="56" viewBox="0 0 56 56" fill="none" xmlns="http://www.w3.org/2000/svg">
<path fill-rule="evenodd" clip-rule="evenodd" d="M26.25 39.6667C26.25 40.6332 27.0335 41.4167 28 41.4167C28.9665 41.4167 29.75 40.6332 29.75 39.6667L29.75 21H35C37.1677 21 38.2515 21 39.1584 21.1436C44.1505 21.9343 48.0657 25.8495 48.8564 30.8416C49 31.7485 49 32.8323 49 35C49 37.1677 49 38.2515 48.8564 39.1584C48.0657 44.1505 44.1505 48.0657 39.1584 48.8564C38.2515 49 37.1677 49 35 49H21C18.8323 49 17.7485 49 16.8416 48.8564C11.8495 48.0657 7.9343 44.1505 7.14364 39.1584C7 38.2515 7 37.1677 7 35C7 32.8323 7 31.7485 7.14364 30.8416C7.9343 25.8495 11.8495 21.9343 16.8416 21.1436C17.7485 21 18.8323 21 21 21H26.25L26.25 39.6667ZM26.25 21L26.25 9.77555C25.4971 10.5396 24.6021 11.6643 23.2996 13.307L20.0379 17.4206C19.4374 18.1779 18.3367 18.3051 17.5794 17.7046C16.8221 17.1041 16.6949 16.0034 17.2954 15.2461L20.6233 11.0489C21.8674 9.47976 22.894 8.18496 23.8129 7.26254C24.7558 6.31597 25.8024 5.53129 27.1398 5.31821C27.4247 5.27281 27.7121 5.25 28 5.25C28.2879 5.25 28.5753 5.27281 28.8602 5.31821C30.1976 5.53129 31.2442 6.31597 32.1871 7.26254C33.106 8.18495 34.1326 9.47975 35.3767 11.0489L38.7046 15.2461C39.3051 16.0034 39.1779 17.1041 38.4206 17.7046C37.6633 18.3051 36.5625 18.1779 35.9621 17.4206L32.7004 13.307C31.3979 11.6643 30.5029 10.5396 29.75 9.77555L29.75 21H26.25Z" fill="#5C5F62"/>
</svg>
