<svg id="Layer_1" data-name="Layer 1" xmlns="http://www.w3.org/2000/svg" viewBox="0 0 664.2 223.06"><title>vitrin logo</title><rect x="457.01" width="31.91" height="31.8" style="fill:#fff"/><rect x="457.01" y="63.68" width="31.91" height="159.35" style="fill:#fff"/><path d="M441,63.66a79.67,79.67,0,0,0-79.65,79.68V223H393.2l0-79.65A47.91,47.91,0,0,1,441,95.46h0V63.66Z" style="fill:#fff"/><path d="M584.53,63.66a79.67,79.67,0,0,0-79.66,79.68V223h31.85l-.05-79.65a47.87,47.87,0,1,1,95.74,0L632.34,223H664.2V143.34A79.69,79.69,0,0,0,584.53,63.66Z" style="fill:#fff"/><rect x="201.88" width="31.91" height="31.8" style="fill:#fff"/><rect x="201.88" y="63.68" width="31.91" height="159.35" style="fill:#fff"/><path d="M329.41,191.27a47.92,47.92,0,0,1-47.86-47.88V95.53h63.58V63.73H281.55V0H249.76v63.7h0v31.8h0v47.86a79.66,79.66,0,0,0,79.65,79.67h16V191.27Z" style="fill:#fff"/><polygon points="151.53 0 80.24 178.38 34.39 63.68 0 63.68 63.76 223.06 80.24 223.06 96.73 223.06 185.92 0 151.53 0" style="fill:#fff"/></svg>