<svg width="36" height="37" viewBox="0 0 36 37" fill="none" xmlns="http://www.w3.org/2000/svg">
<g clip-path="url(#clip0_4024_16783)">
<path d="M30 18.5C30 14.69 28.215 11.285 25.44 9.095L24 0.5H12L10.575 9.095C7.785 11.285 6 14.675 6 18.5C6 22.325 7.785 25.715 10.575 27.905L12 36.5H24L25.44 27.905C28.215 25.715 30 22.31 30 18.5ZM9 18.5C9 13.535 13.035 9.5 18 9.5C22.965 9.5 27 13.535 27 18.5C27 23.465 22.965 27.5 18 27.5C13.035 27.5 9 23.465 9 18.5Z" fill="#6494FF"/>
</g>
<defs>
<clipPath id="clip0_4024_16783">
<rect width="36" height="36" fill="white" transform="translate(0 0.5)"/>
</clipPath>
</defs>
</svg>
