<svg width="22" height="23" viewBox="0 0 22 23" fill="none" xmlns="http://www.w3.org/2000/svg">
<path fill-rule="evenodd" clip-rule="evenodd" d="M8.03696 8.30673C8.43981 5.84437 9.16074 3.34495 9.51169 2.20236C9.99581 2.12411 10.4929 2.08337 11 2.08337C11.5071 2.08337 12.0042 2.12411 12.4883 2.20236C12.8393 3.34495 13.5602 5.84437 13.963 8.30673C12.9175 8.47551 11.8962 8.58337 11 8.58337C10.1038 8.58337 9.08249 8.47551 8.03696 8.30673ZM15.4383 8.03419C15.1049 6.00928 14.5709 3.98038 14.1856 2.64635C16.3675 3.44681 18.1653 5.04679 19.2225 7.09174C18.2361 7.3757 16.878 7.73765 15.4383 8.03419ZM15.6435 9.52331C17.2515 9.19606 18.7612 8.78857 19.8034 8.48517C20.0932 9.38166 20.25 10.3386 20.25 11.3334C20.25 11.8405 20.2093 12.3376 20.131 12.8217C19.2243 13.1002 17.4586 13.6131 15.5337 14.0144C15.6657 13.0927 15.75 12.1758 15.75 11.3334C15.75 10.756 15.7104 10.1451 15.6435 9.52331ZM15.265 15.5984C16.9522 15.2721 18.5648 14.8431 19.687 14.5189C18.7532 17.0646 16.7313 19.0865 14.1856 20.0204C14.5097 18.8982 14.9387 17.2855 15.265 15.5984ZM13.6811 15.867C13.2798 17.792 12.7668 19.5577 12.4883 20.4644C12.0042 20.5426 11.5071 20.5834 11 20.5834C10.4929 20.5834 9.99581 20.5426 9.51168 20.4644C9.23317 19.5577 8.72025 17.792 8.31893 15.867C9.24069 15.9991 10.1576 16.0834 11 16.0834C11.8424 16.0834 12.7593 15.9991 13.6811 15.867ZM6.73495 15.5984C7.0613 17.2855 7.49031 18.8982 7.81445 20.0204C5.26873 19.0865 3.24683 17.0646 2.31296 14.5189C3.4352 14.8431 5.04784 15.2721 6.73495 15.5984ZM6.46634 14.0144C4.54141 13.6131 2.77568 13.1002 1.86899 12.8217C1.79073 12.3376 1.75 11.8405 1.75 11.3334C1.75 10.3386 1.90677 9.38166 2.19658 8.48518C3.23878 8.78857 4.74846 9.19606 6.35654 9.52331C6.28957 10.1451 6.25 10.756 6.25 11.3334C6.25 12.1758 6.33431 13.0927 6.46634 14.0144ZM6.56166 8.03419C5.12204 7.73765 3.76388 7.3757 2.77748 7.09175C3.83467 5.04679 5.63247 3.44681 7.81443 2.64635C7.42911 3.98038 6.89509 6.00928 6.56166 8.03419ZM7.75 11.3334C7.75 10.8526 7.78109 10.3343 7.83638 9.79376C8.91915 9.96719 10.0112 10.0834 11 10.0834C11.9888 10.0834 13.0809 9.96719 14.1636 9.79376C14.2189 10.3343 14.25 10.8526 14.25 11.3334C14.25 12.2315 14.1416 13.256 13.9719 14.3053C12.9226 14.475 11.8981 14.5834 11 14.5834C10.1019 14.5834 9.0774 14.475 8.02808 14.3053C7.85836 13.256 7.75 12.2315 7.75 11.3334ZM11 0.583374C10.2383 0.583374 9.49434 0.66271 8.77616 0.813828C5.25736 1.55426 2.37486 4.01327 1.04429 7.27098C0.53198 8.5253 0.25 9.89734 0.25 11.3334C0.25 12.0951 0.329336 12.839 0.480454 13.5572C1.35435 17.7103 4.62304 20.979 8.77616 21.8529C9.49434 22.004 10.2383 22.0834 11 22.0834C11.7617 22.0834 12.5057 22.004 13.2238 21.8529C17.377 20.979 20.6456 17.7103 21.5195 13.5572C21.6707 12.839 21.75 12.0951 21.75 11.3334C21.75 9.89846 21.4685 8.52744 20.9569 7.27392C19.6269 4.01475 16.7437 1.55448 13.2238 0.813829C12.5057 0.66271 11.7617 0.583374 11 0.583374Z" fill="#0050FF"/>
</svg>
