<svg width="40" height="40" viewBox="0 0 40 40" fill="none" xmlns="http://www.w3.org/2000/svg">
<path fill-rule="evenodd" clip-rule="evenodd" d="M14.4901 15.3673C15.1826 10.8485 16.5672 6.15499 17.1324 4.34074C18.0621 4.17165 19.0204 4.08325 20 4.08325C20.9795 4.08325 21.9379 4.17165 22.8675 4.34074C23.4328 6.15499 24.8173 10.8485 25.5099 15.3673C23.5828 15.6974 21.6707 15.9166 20 15.9166C18.3293 15.9166 16.4171 15.6974 14.4901 15.3673ZM26.9855 15.0945C26.3657 11.0762 25.2224 6.95539 24.5598 4.74581C28.9253 6.04886 32.5063 9.17622 34.416 13.2439C32.636 13.7687 29.8852 14.5211 26.9855 15.0945ZM27.1903 16.583C30.2662 15.9791 33.1761 15.1765 34.9912 14.6381C35.5901 16.3126 35.9166 18.1174 35.9166 19.9999C35.9166 20.9795 35.8282 21.9378 35.6592 22.8675C34.1581 23.3351 30.6776 24.3664 26.9551 25.1005C27.233 23.3442 27.4166 21.5862 27.4166 19.9999C27.4166 18.9202 27.3316 17.7629 27.1903 16.583ZM26.6809 26.6808C30.0941 26.0398 33.3685 25.1252 35.2541 24.5597C33.7248 29.6832 29.6833 33.7248 24.5597 35.254C25.1252 33.3684 26.0398 30.094 26.6809 26.6808ZM25.1006 26.955C24.3664 30.6776 23.3352 34.158 22.8675 35.6591C21.9379 35.8282 20.9795 35.9166 20 35.9166C19.0204 35.9166 18.0621 35.8282 17.1324 35.6591C16.6648 34.158 15.6335 30.6776 14.8994 26.955C16.6557 27.233 18.4137 27.4166 20 27.4166C21.5862 27.4166 23.3442 27.233 25.1006 26.955ZM13.3191 26.6808C13.9601 30.0941 14.8747 33.3684 15.4402 35.254C10.3167 33.7248 6.27512 29.6832 4.74587 24.5597C6.63147 25.1252 9.90585 26.0398 13.3191 26.6808ZM13.0449 25.1005C9.32235 24.3664 5.84186 23.3351 4.3408 22.8675C4.17171 21.9378 4.08331 20.9795 4.08331 19.9999C4.08331 18.1174 4.40981 16.3126 5.00879 14.6381C6.82391 15.1765 9.73374 15.9791 12.8096 16.583C12.6683 17.7629 12.5833 18.9202 12.5833 19.9999C12.5833 21.5862 12.7669 23.3442 13.0449 25.1005ZM13.0144 15.0945C10.1147 14.5212 7.36393 13.7687 5.58391 13.2439C7.49366 9.17622 11.0747 6.04885 15.4402 4.74581C14.7775 6.95539 13.6342 11.0762 13.0144 15.0945ZM14.0833 19.9999C14.0833 19.0214 14.1586 17.9579 14.288 16.8545C16.246 17.188 18.2302 17.4166 20 17.4166C21.7697 17.4166 23.7539 17.188 25.712 16.8545C25.8414 17.9579 25.9166 19.0214 25.9166 19.9999C25.9166 21.6348 25.7067 23.5015 25.3881 25.388C23.5015 25.7067 21.6348 25.9166 20 25.9166C18.3652 25.9166 16.4984 25.7067 14.6119 25.388C14.2932 23.5015 14.0833 21.6348 14.0833 19.9999ZM20 2.58325C18.7653 2.58325 17.5598 2.71185 16.3965 2.95663C10.6967 4.15598 6.02588 8.14 3.87001 13.4183C3.04025 15.4499 2.58331 17.6725 2.58331 19.9999C2.58331 21.2346 2.71191 22.4401 2.95669 23.6034C4.37237 30.3313 9.66865 35.6275 16.3965 37.0432C17.5598 37.288 18.7653 37.4166 20 37.4166C21.2347 37.4166 22.4401 37.288 23.6034 37.0432C30.3313 35.6275 35.6276 30.3313 37.0433 23.6034C37.2881 22.4401 37.4166 21.2346 37.4166 19.9999C37.4166 17.6743 36.9604 15.4533 36.1319 13.4231C33.9769 8.14239 29.3049 4.15634 23.6034 2.95663C22.4401 2.71185 21.2347 2.58325 20 2.58325Z" fill="#5C5F62"/>
</svg>
