<svg width="41" height="40" viewBox="0 0 41 40" fill="none" xmlns="http://www.w3.org/2000/svg">
<path d="M25.7734 17.4333C25.8646 18.3264 25.9168 19.1909 25.9168 19.9999C25.9168 21.5144 25.7338 23.2245 25.4539 24.9536C23.7247 25.2335 22.0147 25.4166 20.5002 25.4166C18.9925 25.4166 17.2829 25.2341 15.5464 24.953C15.2665 23.2241 15.0835 21.5143 15.0835 19.9999C15.0835 19.1912 15.1357 18.3267 15.227 17.4333C17.0495 17.725 18.8676 17.9166 20.5002 17.9166C22.1328 17.9166 23.9509 17.725 25.7734 17.4333Z" fill="#5C5F62"/>
<path d="M28.2386 16.9831C28.3513 18.0283 28.4168 19.046 28.4168 19.9999C28.4168 21.3919 28.2775 22.9189 28.0556 24.4686C31.2025 23.812 34.1113 22.9731 35.6695 22.4955C36.1731 22.3412 36.3709 22.2798 36.6364 22.1736C36.769 22.1205 36.8907 22.0665 37.0491 21.9908C37.1269 21.338 37.1668 20.6736 37.1668 19.9999C37.1668 18.219 36.8875 16.5033 36.3703 14.8943L36.2355 14.9367C34.6063 15.4324 31.556 16.3086 28.2386 16.9831Z" fill="#5C5F62"/>
<path d="M35.4234 12.5705C33.7855 13.0669 30.943 13.8736 27.8968 14.5016C27.1951 10.2368 25.9652 5.98326 25.3735 4.05703C29.7736 5.40034 33.4007 8.51526 35.4234 12.5705Z" fill="#5C5F62"/>
<path d="M25.4393 14.9559C23.7149 15.2345 22.0102 15.4166 20.5002 15.4166C18.9902 15.4166 17.2855 15.2345 15.5612 14.9559C16.2219 10.9206 17.4015 6.79842 18.0046 4.8306C18.1589 4.327 18.2203 4.12919 18.3265 3.86369C18.3795 3.73107 18.4335 3.60941 18.5093 3.45093C19.1621 3.37323 19.8264 3.33325 20.5002 3.33325C21.2039 3.33325 21.8975 3.37687 22.5784 3.46156C22.5928 3.5168 22.6062 3.56625 22.6194 3.61302C22.6584 3.75124 22.7195 3.94548 22.822 4.27141L22.8328 4.30565C23.347 5.93996 24.7095 10.4984 25.4393 14.9559Z" fill="#5C5F62"/>
<path d="M13.1034 14.5015C13.8019 10.2556 15.0237 6.02494 15.6143 4.09803L15.6269 4.05701C11.2268 5.40032 7.59969 8.51524 5.5769 12.5705C7.21474 13.0669 10.0572 13.8735 13.1034 14.5015Z" fill="#5C5F62"/>
<path d="M4.63007 14.8943C4.11283 16.5033 3.8335 18.219 3.8335 19.9999C3.8335 20.6966 3.87624 21.3833 3.95926 22.0576L4.22192 22.1451L4.22401 22.1458L4.22659 22.1467L4.2284 22.1473C4.31294 22.1753 6.79073 22.9935 10.0538 23.8054C10.9745 24.0345 11.9495 24.2609 12.9447 24.4684C12.7228 22.9187 12.5835 21.3918 12.5835 19.9999C12.5835 19.0457 12.649 18.028 12.7616 16.9831C9.44346 16.3084 6.39251 15.4319 4.7636 14.9362L4.75228 14.9328L4.63007 14.8943Z" fill="#5C5F62"/>
<path d="M20.5002 27.9166C21.8921 27.9166 23.4191 27.7773 24.9689 27.5553C24.3122 30.7022 23.4733 33.6111 22.9958 35.1692C22.8414 35.6728 22.78 35.8706 22.6738 36.1361C22.6208 36.2688 22.5668 36.3904 22.4911 36.5489C21.8383 36.6266 21.1739 36.6666 20.5002 36.6666C19.8264 36.6666 19.1621 36.6266 18.5093 36.5489C18.4335 36.3904 18.3796 36.2688 18.3265 36.1361C18.2203 35.8707 18.1589 35.6728 18.0046 35.1692C17.5271 33.6112 16.6882 30.7026 16.0316 27.5559C17.5762 27.7771 19.1034 27.9166 20.5002 27.9166Z" fill="#5C5F62"/>
<path d="M9.45017 26.2314C7.38672 25.718 5.62929 25.2023 4.55725 24.8732C6.17092 30.1589 10.3411 34.3291 15.6269 35.9428L15.6143 35.9018C15.0987 34.2193 14.1017 30.7803 13.3921 27.1085C12.0121 26.8416 10.6704 26.535 9.45017 26.2314Z" fill="#5C5F62"/>
<path d="M36.4021 24.8858C34.7195 25.4014 31.2803 26.3985 27.6083 27.1081C26.8987 30.7801 25.9017 34.2192 25.386 35.9018L25.3734 35.9428C30.6592 34.3291 34.8294 30.1589 36.4431 24.8732L36.4021 24.8858Z" fill="#5C5F62"/>
<path d="M4.00858 22.0998C4.06628 22.1074 4.1133 22.1152 4.1289 22.1188C4.14258 22.1222 4.16399 22.1278 4.17175 22.13L4.18891 22.1349L4.19814 22.1377L4.20786 22.1407L4.216 22.1432C4.21143 22.1418 4.11883 22.1186 4.00858 22.0998Z" fill="#5C5F62"/>
</svg>
