<svg width="40" height="40" viewBox="0 0 40 40" fill="none" xmlns="http://www.w3.org/2000/svg">
<g clip-path="url(#clip0_1249_7449)">
<path d="M29.1786 23.8451L29.1636 23.9701C25.4986 22.1435 25.1152 21.9001 24.6419 22.6101C24.3136 23.1018 23.3569 24.2168 23.0686 24.5468C22.7769 24.8718 22.4869 24.8968 21.9919 24.6718C21.4919 24.4218 19.8869 23.8968 17.9869 22.1968C16.5069 20.8718 15.5136 19.2468 15.2202 18.7468C14.7319 17.9035 15.7536 17.7835 16.6836 16.0235C16.8502 15.6735 16.7652 15.3985 16.6419 15.1501C16.5169 14.9001 15.5219 12.4501 15.1052 11.4735C14.7052 10.5001 14.2936 10.6235 13.9852 10.6235C13.0252 10.5401 12.3236 10.5535 11.7052 11.1968C9.01523 14.1535 9.69356 17.2035 11.9952 20.4468C16.5186 26.3668 18.9286 27.4568 23.3352 28.9701C24.5252 29.3485 25.6102 29.2951 26.4686 29.1718C27.4252 29.0201 29.4136 27.9701 29.8286 26.7951C30.2536 25.6201 30.2536 24.6451 30.1286 24.4201C30.0052 24.1951 29.6786 24.0701 29.1786 23.8451Z" fill="#0050ff"/>
<path d="M34.2 5.74832C21.385 -6.64001 0.176667 2.34499 0.168333 19.8217C0.168333 23.315 1.08333 26.7217 2.82667 29.73L0 40L10.5583 37.2467C23.7333 44.3633 39.9933 34.9133 40 19.8317C40 14.5383 37.9333 9.55666 34.175 5.81332L34.2 5.74832ZM36.67 19.7767C36.66 32.4983 22.695 40.4433 11.65 33.95L11.05 33.5933L4.8 35.2183L6.475 29.1433L6.07667 28.5183C-0.796667 17.5767 7.1 3.27666 20.12 3.27666C24.5433 3.27666 28.695 5.00166 31.8217 8.12666C34.9467 11.225 36.67 15.3767 36.67 19.7767Z" fill="#0050ff" />
</g>
<defs>
<clipPath id="clip0_1249_7449">
<rect width="40" height="40" fill="#0050ff"/>
</clipPath>
</defs>
</svg>