<svg width="24" height="24" viewBox="0 0 24 24" fill="none" xmlns="http://www.w3.org/2000/svg">
<g clip-path="url(#clip0_62_687)">
<path d="M17.5071 14.3071L17.4981 14.3821C15.2991 13.2861 15.0691 13.1401 14.7851 13.5661C14.5881 13.8611 14.0141 14.5301 13.8411 14.7281C13.6661 14.9231 13.4921 14.9381 13.1951 14.8031C12.8951 14.6531 11.9321 14.3381 10.7921 13.3181C9.90414 12.5231 9.30814 11.5481 9.13214 11.2481C8.83914 10.7421 9.45214 10.6701 10.0101 9.61411C10.1101 9.40411 10.0591 9.23911 9.98514 9.09011C9.91014 8.94011 9.31314 7.47011 9.06314 6.88411C8.82314 6.30011 8.57614 6.37411 8.39114 6.37411C7.81514 6.32411 7.39414 6.33211 7.02314 6.71811C5.40914 8.49211 5.81614 10.3221 7.19714 12.2681C9.91114 15.8201 11.3571 16.4741 14.0011 17.3821C14.7151 17.6091 15.3661 17.5771 15.8811 17.5031C16.4551 17.4121 17.6481 16.7821 17.8971 16.0771C18.1521 15.3721 18.1521 14.7871 18.0771 14.6521C18.0031 14.5171 17.8071 14.4421 17.5071 14.3071Z" fill="#5C5F62"/>
<path d="M20.52 3.44904C12.831 -3.98396 0.106 1.40703 0.101 11.893C0.101 13.989 0.65 16.033 1.696 17.838L0 24L6.335 22.348C14.24 26.618 23.996 20.948 24 11.899C24 8.72304 22.76 5.73404 20.505 3.48804L20.52 3.44904ZM22.002 11.866C21.996 19.499 13.617 24.266 6.99 20.37L6.63 20.156L2.88 21.131L3.885 17.486L3.646 17.111C-0.478 10.546 4.26 1.96604 12.072 1.96604C14.726 1.96604 17.217 3.00104 19.093 4.87604C20.968 6.73504 22.002 9.22604 22.002 11.866Z" fill="#5C5F62"/>
</g>
<defs>
<clipPath id="clip0_62_687">
<rect width="24" height="24" fill="white"/>
</clipPath>
</defs>
</svg>
