<svg width="25" height="24" viewBox="0 0 25 24" fill="none" xmlns="http://www.w3.org/2000/svg">
<g clip-path="url(#clip0_618_4397)">
<path fill-rule="evenodd" clip-rule="evenodd" d="M6.79587 5.27023C7.15445 2.43916 9.57157 0.25 12.5 0.25C15.4322 0.25 17.8517 2.44477 18.2055 5.28111C19.5696 5.33464 20.6017 5.48655 21.4705 5.96618C22.2141 6.37668 22.8524 6.94388 23.3449 7.62249C22.9797 7.97882 22.5914 8.36268 22.5521 8.40193L18.9194 12.0346C17.2378 13.7163 16.0288 14.923 14.9859 15.7187C13.9604 16.5011 13.1843 16.815 12.3787 16.815C11.5731 16.815 10.7969 16.5011 9.77144 15.7187C8.72863 14.9231 7.51961 13.7163 5.83795 12.0346L1.56033 7.757C2.06459 7.01872 2.73732 6.40352 3.5295 5.96618C4.39484 5.48844 5.43038 5.32678 6.79587 5.27023ZM8.31688 5.24492C8.49058 5.24531 8.66951 5.24625 8.85347 5.24722C9.11262 5.24858 9.38176 5.25 9.66034 5.25H15.3453C15.8249 5.25 16.2705 5.25 16.6845 5.25239C16.3312 3.2617 14.5921 1.75 12.5 1.75C10.4105 1.75 8.67317 3.25792 8.31688 5.24492Z" fill="#0050FF"/>
<path d="M24.0792 8.99614L19.9395 13.1359C18.3072 14.7681 17.0281 16.0473 15.8958 16.9112C14.7369 17.7955 13.6441 18.315 12.3787 18.315C11.1132 18.315 10.0205 17.7955 8.86157 16.9112C7.72933 16.0474 6.45016 14.7682 4.81793 13.1359L0.860642 9.17863C0.668697 9.80855 0.616435 10.4962 0.636994 11.2951C0.661425 12.2444 0.792444 13.4235 0.959944 14.931L0.967342 14.9976C1.1042 16.2294 1.21173 17.1971 1.35966 17.9736C1.51059 18.7659 1.71303 19.4163 2.06929 19.9991C2.65736 20.961 3.51525 21.7289 4.53626 22.2071C5.15481 22.4968 5.82359 22.6262 6.62766 22.6887C7.41572 22.75 8.38932 22.75 9.62853 22.75H15.3712C16.6104 22.75 17.5843 22.75 18.3723 22.6887C19.1764 22.6262 19.8452 22.4968 20.4637 22.2071C21.4848 21.7289 22.3427 20.961 22.9307 19.9991C23.287 19.4163 23.4894 18.7659 23.6404 17.9736C23.7883 17.1972 23.8958 16.2296 24.0326 14.998L24.0401 14.9311C24.2075 13.424 24.3386 12.2443 24.363 11.2951C24.3856 10.4183 24.3204 9.67564 24.0792 8.99614Z" fill="#0050FF"/>
</g>
<defs>
<clipPath id="clip0_618_4397">
<rect width="24" height="24" fill="white" transform="translate(0.5)"/>
</clipPath>
</defs>
</svg>
