<svg width="24" height="24" viewBox="0 0 24 24" fill="none" xmlns="http://www.w3.org/2000/svg">
<path fill-rule="evenodd" clip-rule="evenodd" d="M6.29575 5.27023C6.65433 2.43916 9.07145 0.25 11.9999 0.25C14.9321 0.25 17.3516 2.44477 17.7054 5.28111C19.0695 5.33464 20.1016 5.48655 20.9704 5.96618C21.714 6.37668 22.3523 6.94388 22.8448 7.62249C22.4796 7.97882 22.0913 8.36268 22.052 8.40193L18.4193 12.0346C16.7377 13.7163 15.5286 14.923 14.4858 15.7187C13.4603 16.5011 12.6842 16.815 11.8786 16.815C11.073 16.815 10.2968 16.5011 9.27132 15.7187C8.22851 14.9231 7.01949 13.7163 5.33783 12.0346L1.06021 7.757C1.56447 7.01872 2.2372 6.40352 3.02938 5.96618C3.89472 5.48844 4.93025 5.32678 6.29575 5.27023ZM7.81676 5.24492C7.99046 5.24531 8.16939 5.24625 8.35334 5.24722C8.6125 5.24858 8.88164 5.25 9.16022 5.25H14.8451C15.3248 5.25 15.7704 5.25 16.1843 5.25239C15.8311 3.2617 14.092 1.75 11.9999 1.75C9.91037 1.75 8.17304 3.25792 7.81676 5.24492Z" fill="#5C5F62"/>
<path d="M23.5791 8.99614L19.4394 13.1359C17.8071 14.7681 16.5279 16.0473 15.3957 16.9112C14.2368 17.7955 13.144 18.315 11.8786 18.315C10.6131 18.315 9.52038 17.7955 8.36145 16.9112C7.22921 16.0474 5.95004 14.7682 4.31781 13.1359L0.36052 9.17863C0.168574 9.80855 0.116313 10.4962 0.136872 11.2951C0.161303 12.2444 0.292322 13.4235 0.459822 14.931L0.46722 14.9976C0.60408 16.2294 0.711604 17.1971 0.859537 17.9736C1.01046 18.7659 1.21291 19.4163 1.56917 19.9991C2.15723 20.961 3.01512 21.7289 4.03614 22.2071C4.65469 22.4968 5.32347 22.6262 6.12754 22.6887C6.9156 22.75 7.88919 22.75 9.1284 22.75H14.8711C16.1103 22.75 17.0842 22.75 17.8722 22.6887C18.6763 22.6262 19.3451 22.4968 19.9636 22.2071C20.9846 21.7289 21.8425 20.961 22.4306 19.9991C22.7869 19.4163 22.9893 18.7659 23.1402 17.9736C23.2881 17.1972 23.3957 16.2296 23.5325 14.998L23.5399 14.9311C23.7074 13.424 23.8385 12.2443 23.8629 11.2951C23.8855 10.4183 23.8203 9.67564 23.5791 8.99614Z" fill="#5C5F62"/>
</svg>
