<svg width="100" height="100" viewBox="0 0 100 100" fill="none" xmlns="http://www.w3.org/2000/svg">
<path d="M70.875 58.3333H67.5417L66.4167 57.2083C70.5 52.4583 72.9584 46.3333 72.9584 39.5833C72.9584 24.625 60.8334 12.5 45.875 12.5C30.9167 12.5 18.7917 25 18.7917 39.5833H8.33337L24.3334 56.25L41.6667 39.5833H27.125C27.125 29.1667 35.5417 20.8333 45.875 20.8333C56.2084 20.8333 64.625 29.2083 64.625 39.5833C64.625 49.9167 56.2084 58.3333 45.875 58.3333C43.1667 58.3333 40.625 57.75 38.2917 56.75L32.125 62.9167C36.1667 65.2917 40.8334 66.6667 45.875 66.6667C52.5834 66.6667 58.7084 64.2083 63.4584 60.125L64.5834 61.25V64.5417L85.4584 85.3333L91.6667 79.1667L70.875 58.3333Z" fill="white"/>
</svg>
