<svg width="24" height="18" viewBox="0 0 24 18" fill="none" xmlns="http://www.w3.org/2000/svg">
<path d="M23.469 2.92889L23.4991 3.12489C23.209 2.09589 22.4261 1.30189 21.431 1.01289L21.41 1.00789C19.539 0.499892 12.0101 0.499892 12.0101 0.499892C12.0101 0.499892 4.50005 0.489892 2.61005 1.00789C1.59605 1.30189 0.81205 2.09589 0.52705 3.10389L0.52205 3.12489C-0.17695 6.77589 -0.18195 11.1629 0.55305 15.0719L0.52205 14.8739C0.81205 15.9029 1.59505 16.6969 2.59005 16.9859L2.61105 16.9909C4.48005 17.4999 12.0111 17.4999 12.0111 17.4999C12.0111 17.4999 19.52 17.4999 21.411 16.9909C22.426 16.6969 23.2101 15.9029 23.4951 14.8949L23.5 14.8739C23.8181 13.1759 24 11.2219 24 9.22589C24 9.15289 24 9.07889 23.9991 9.00489C24 8.93689 24 8.85589 24 8.77489C24 6.77789 23.8181 4.82389 23.469 2.92889ZM9.60805 12.6509V5.35789L15.8741 9.00989L9.60805 12.6509Z" fill="#5C5F62"/>
</svg>
