<svg xmlns="http://www.w3.org/2000/svg" xmlns:xlink="http://www.w3.org/1999/xlink" width="14" height="12" xmlns:v="https://vecta.io/nano"><style><![CDATA[.B{stroke-linecap:round}.C{stroke-linejoin:round}]]></style><defs><filter id="A"><feColorMatrix in="SourceGraphic" values="0 0 0 0 0.000000 0 0 0 0 0.000000 0 0 0 0 0.000000 0 0 0 1.000000 0"/></filter><path id="B" d="M11.93 2.16l-1-1.82A7.25 7.25 0 0 0 11.17 4m-.81 2L10 4.14a4.91 4.91 0 0 0-.75 3.24m2.12-3.21A4.62 4.62 0 0 1 13 3.3c-.64 3-2.5 2.5-2.5 2.5M9.43 7.34l1.66-.25C9.26 9 8.19 8.58 8.19 8.58"/><path id="C" d="M1.35 2.41L2.26.57a7.33 7.33 0 0 1-.1 3.68M3 6.18l.34-1.85a5 5 0 0 1 .83 3.21M2 4.4a4.66 4.66 0 0 0-1.66-.81C1.05 6.52 2.88 6 2.88 6M4 7.5l-1.65-.18C4.18 9.19 5.23 8.7 5.23 8.7"/></defs><g fill="none" filter="url(#A)" transform="translate(-85 -2)" class="B C"><g transform="translate(85 2)" stroke="#7ce8dd"><g stroke-width=".683"><path d="M12.14.87a10.71 10.71 0 0 1-4.92 8.22 11.14 11.14 0 0 0-1.66 2"/><use xlink:href="#B"/><path d="M12.14.87a10.71 10.71 0 0 1-4.92 8.22 11.14 11.14 0 0 0-1.66 2"/><use xlink:href="#B"/></g><g stroke-width=".678"><path d="M1.1 1.14a10.68 10.68 0 0 0 5.1 8 10.6 10.6 0 0 1 1.69 1.9"/><use xlink:href="#C"/><path d="M1.1 1.14a10.68 10.68 0 0 0 5.1 8 10.6 10.6 0 0 1 1.69 1.9"/><use xlink:href="#C"/></g></g></g></svg>