<?xml version="1.0" encoding="UTF-8"?>
<svg width="60px" height="60px" viewBox="0 0 60 60" version="1.1" xmlns="http://www.w3.org/2000/svg" xmlns:xlink="http://www.w3.org/1999/xlink">
    <title>Group 38</title>
    <g id="Website" stroke="none" stroke-width="1" fill="none" fill-rule="evenodd">
        <g id="Group-38">
            <circle id="Oval-Copy-2" fill="#FFFFFF" cx="30" cy="30" r="30"></circle>
            <g id="icons8-gmail-2" transform="translate(13.000000, 17.000000)" fill-rule="nonzero">
                <g id="icons8-gmail">
                    <path d="M34,6.13636364 L29.75,8.54707792 L25.5,12.711039 L25.5,27 L31.45,27 C32.85845,27 34,25.8226948 34,24.3701299 L34,6.13636364 Z" id="Path" fill="#4CAF50"></path>
                    <path d="M0,6.13636364 L3.0719,7.63538961 L8.5,12.711039 L8.5,27 L2.55,27 C1.14155,27 0,25.8226948 0,24.3701299 L0,6.13636364 Z" id="Path" fill="#1E88E5"></path>
                    <polygon id="Path" fill="#E53935" points="25.8105316 2.45454545 17 9.57141292 8.18946838 2.45454545 7.38851096 7.45791895 8.18946838 13.237678 17 20.3545455 25.8105316 13.237678 26.611489 7.45791895"></polygon>
                    <path d="M0,3.69573248 L0,7.05095541 L8.5,13.5 L8.5,2.75159236 L5.8446,0.738630573 C5.2122,0.258821656 4.4438,0 3.6533,0 L3.6533,0 C1.6354,0 0,1.6543949 0,3.69573248 Z" id="Path" fill="#C62828"></path>
                    <path d="M34,3.69573248 L34,7.05095541 L25.5,13.5 L25.5,2.75159236 L28.1554,0.738630573 C28.7878,0.258821656 29.5562,0 30.3467,0 L30.3467,0 C32.3646,0 34,1.6543949 34,3.69573248 Z" id="Path" fill="#FBC02D"></path>
                </g>
            </g>
        </g>
    </g>
</svg>