<svg width="32" height="32" viewBox="0 0 32 32" fill="none" xmlns="http://www.w3.org/2000/svg">
<ellipse cx="15.9856" cy="16" rx="15.9427" ry="16" fill="#0050FF" fill-opacity="0.1"/>
<path d="M12.6646 7.66602C11.7512 7.66602 11.0039 8.41602 11.0039 9.33268L11.0122 11.9827C11.0122 12.4243 11.1866 12.841 11.4938 13.1577L14.3253 15.9993L11.4938 18.8577C11.1866 19.166 11.0122 19.591 11.0122 20.0327L11.0039 22.666C11.0039 23.5827 11.7512 24.3327 12.6646 24.3327H19.3074C20.2208 24.3327 20.9681 23.5827 20.9681 22.666V20.0327C20.9681 19.591 20.7937 19.166 20.4865 18.8577L17.6467 15.9993L20.4782 13.166C20.7937 12.8493 20.9681 12.4243 20.9681 11.9827V9.33268C20.9681 8.41602 20.2208 7.66602 19.3074 7.66602H12.6646ZM19.3074 20.091V21.8327C19.3074 22.291 18.9337 22.666 18.477 22.666H13.4949C13.0383 22.666 12.6646 22.291 12.6646 21.8327V20.091C12.6646 19.866 12.7559 19.6577 12.9054 19.4994L15.986 16.416L19.0666 19.5077C19.216 19.6577 19.3074 19.8743 19.3074 20.091Z" fill="#0050FF"/>
</svg>
