<svg width="12" height="14" viewBox="0 0 12 14" fill="none" xmlns="http://www.w3.org/2000/svg">
<path fill-rule="evenodd" clip-rule="evenodd" d="M8.96501 1.24413C8.38144 0.907177 7.89481 0.626204 7.47851 0.455101C7.03909 0.274501 6.60132 0.182547 6.13468 0.307582C5.66804 0.432618 5.33489 0.731139 5.04465 1.10725C4.76967 1.46359 4.48872 1.95023 4.15181 2.53382L1.2451 7.56831C1.04968 7.90615 0.890045 8.18212 0.809359 8.47846C0.797833 8.5208 0.787918 8.56355 0.779739 8.60696C0.714313 8.95421 0.767703 9.30283 0.835224 9.74373L0.853419 9.86292C0.978058 10.6814 1.08079 11.3561 1.23574 11.8677C1.3978 12.4028 1.64691 12.8659 2.13687 13.1488C2.62682 13.4317 3.15247 13.4159 3.69688 13.2887C4.21743 13.167 4.85308 12.9187 5.62426 12.6174L5.73656 12.5735C6.15216 12.4116 6.48077 12.2835 6.74879 12.0532C7.01681 11.8229 7.1929 11.5173 7.4156 11.1308L10.3222 6.09632C10.6592 5.51276 10.9402 5.02613 11.1113 4.60982C11.2919 4.1704 11.3838 3.73263 11.2588 3.26599C11.1338 2.79935 10.8352 2.46621 10.4591 2.17596C10.1028 1.90098 9.61615 1.62004 9.03255 1.28313L8.96501 1.24413ZM9.04722 6.05473L4.82534 3.61723L2.25776 8.06441C1.97805 8.5489 1.91075 8.6801 1.88529 8.81525C1.85982 8.95041 1.87476 9.09711 1.95899 9.65017C2.09192 10.523 2.18375 11.1167 2.31244 11.5416C2.43677 11.9521 2.56497 12.0969 2.69937 12.1745C2.83376 12.2521 3.02328 12.2907 3.44094 12.1932C3.87329 12.0921 4.43337 11.8748 5.25572 11.5535C5.7768 11.35 5.91131 11.2895 6.01562 11.1999C6.11994 11.1103 6.19992 10.9864 6.47964 10.5019L9.04722 6.05473ZM9.60854 5.07977C9.81933 4.70833 9.97134 4.42398 10.0707 4.18215C10.2035 3.85916 10.2079 3.69067 10.1721 3.55716C10.1363 3.42365 10.0483 3.27995 9.77182 3.0666C9.48243 2.84328 9.06242 2.59941 8.43628 2.23791C7.81014 1.8764 7.38894 1.6346 7.05084 1.49564C6.72785 1.36289 6.55936 1.35847 6.42585 1.39425C6.29234 1.43002 6.14863 1.51809 5.93529 1.79456C5.77555 2.00154 5.60531 2.27536 5.38902 2.64363L9.60854 5.07977Z" fill="#5C5F62"/>
</svg>
