<svg width="64" height="64" viewBox="0 0 64 64" fill="none" xmlns="http://www.w3.org/2000/svg">
<path d="M52.1164 11.8868C46.7438 6.51444 39.6008 3.55566 32.003 3.55566C24.4053 3.55566 17.2623 6.51444 11.8897 11.8868C6.51737 17.2593 3.55859 24.4023 3.55859 32.0001C3.55859 39.5979 6.51737 46.7409 11.8897 52.1134C17.2623 57.4858 24.4053 60.4446 32.003 60.4446C37.2045 60.4446 42.2938 59.027 46.721 56.3453C47.7707 55.7093 48.1063 54.3429 47.4704 53.2932C46.8344 52.2433 45.468 51.908 44.4183 52.5439C40.6857 54.805 36.3925 56.0001 32.003 56.0001C18.7694 56.0001 8.00304 45.2338 8.00304 32.0001C8.00304 18.7664 18.7694 8.00011 32.003 8.00011C45.2367 8.00011 56.003 18.7664 56.003 32.0001C56.003 36.7322 54.5958 41.3383 51.9335 45.3206C51.2514 46.3408 51.5255 47.7209 52.5457 48.403C53.5662 49.0853 54.9462 48.811 55.6282 47.7908C58.781 43.075 60.4475 37.6146 60.4475 32.0001C60.4475 24.4023 57.4887 17.2593 52.1164 11.8868Z" fill="#335363"/>
<path d="M25.1425 45.0667C25.4785 45.2483 25.8404 45.3344 26.1972 45.3344C26.9871 45.3344 27.7521 44.9121 28.154 44.1685L40.166 21.9463C40.7497 20.8665 40.3476 19.5182 39.2679 18.9348C38.188 18.3511 36.8397 18.7533 36.2564 19.8329L24.2444 42.0551C23.6607 43.1348 24.0628 44.4831 25.1425 45.0667Z" fill="#335363"/>
<path d="M28.3338 24.2225C28.3338 21.1592 25.8415 18.667 22.7782 18.667C19.7149 18.667 17.2227 21.1592 17.2227 24.2225C17.2227 27.2859 19.7149 29.7781 22.7782 29.7781C25.8415 29.7781 28.3338 27.2859 28.3338 24.2225ZM22.7782 25.3337C22.1655 25.3337 21.6671 24.8352 21.6671 24.2225C21.6671 23.6099 22.1655 23.1114 22.7782 23.1114C23.3909 23.1114 23.8893 23.6099 23.8893 24.2225C23.8893 24.8352 23.3909 25.3337 22.7782 25.3337Z" fill="#335363"/>
<path d="M41.1141 45.3338C44.1775 45.3338 46.6697 42.8415 46.6697 39.7782C46.6697 36.7149 44.1775 34.2227 41.1141 34.2227C38.0508 34.2227 35.5586 36.7149 35.5586 39.7782C35.5586 42.8415 38.0508 45.3338 41.1141 45.3338ZM41.1141 38.6671C41.7268 38.6671 42.2253 39.1655 42.2253 39.7782C42.2253 40.3909 41.7268 40.8893 41.1141 40.8893C40.5015 40.8893 40.003 40.3909 40.003 39.7782C40.003 39.1655 40.5015 38.6671 41.1141 38.6671Z" fill="#335363"/>
</svg>
