<svg width="24" height="24" viewBox="0 0 24 24" fill="none" xmlns="http://www.w3.org/2000/svg">
<path d="M19 1H9C7.9 1 7 1.9 7 3V6H9V4H19V20H9V18H7V21C7 22.1 7.9 23 9 23H19C20.1 23 21 22.1 21 21V3C21 1.9 20.1 1 19 1Z" fill="black" fill-opacity="0.54"/>
<path d="M6 15C5.45 15 5.005 15.45 5.005 16C5.005 16.55 5.45 17 6 17C6.55 17 7 16.55 7 16C7 15.45 6.55 15 6 15ZM3 7V8H4L5.8 11.795L5.125 13.02C5.045 13.16 5 13.325 5 13.5C5 14.05 5.45 14.5 6 14.5H12V13.5H6.21C6.14 13.5 6.085 13.445 6.085 13.375L6.1 13.315L6.55 12.5H10.275C10.65 12.5 10.98 12.295 11.15 11.985L12.94 8.74C12.98 8.67 13 8.585 13 8.5C13 8.225 12.775 8 12.5 8H5.105L4.635 7H3ZM11 15C10.45 15 10.005 15.45 10.005 16C10.005 16.55 10.45 17 11 17C11.55 17 12 16.55 12 16C12 15.45 11.55 15 11 15Z" fill="black" fill-opacity="0.54"/>
</svg>