<svg width="11" height="9" viewBox="0 0 11 9" fill="none" xmlns="http://www.w3.org/2000/svg">
<path d="M5 0.5C4.4475 0.5 4 0.9475 4 1.5V2H11V1.5C11 0.9475 10.5525 0.5 10 0.5H5ZM3 2.5L0.929688 3.93848C0.660688 4.12498 0.5 4.43129 0.5 4.75879V8C0.5 8.5525 0.9475 9 1.5 9H4.29102C4.85102 9 5.37407 8.71991 5.68457 8.25391L7.36523 6.3623C7.55623 6.0983 7.54963 5.7399 7.34863 5.4834L6.98438 5.01562L4.30176 6.68848C3.73426 7.04198 3 6.63382 3 5.96582V2.5ZM4 3V5C4 5.217 4.07098 5.41608 4.18848 5.58008L6.45508 4.16797L7.21875 3.69141L7.77246 4.40039L8.1377 4.86719C8.3947 5.19619 8.51109 5.59902 8.49609 5.99902H10C10.5525 5.99902 11 5.55152 11 4.99902V3H4Z" fill="white"/>
</svg>
