<svg width="40" height="40" viewBox="0 0 40 40" fill="none" xmlns="http://www.w3.org/2000/svg">
<rect width="40" height="40" rx="4" transform="matrix(-1 0 0 1 40 0)" fill="#8C9196"/>
<path d="M20 34C22.3694 33.9872 24.7001 33.4061 26.7908 32.3068C28.8814 31.2075 30.6693 29.6231 32 27.6904C32 23.7468 24 21.5779 20 21.5779C16 21.5779 8 23.7468 8 27.6904C9.33074 29.6231 11.1187 31.2075 13.2094 32.3068C15.3 33.4061 17.6306 33.9872 20 34ZM20 6.00099C19.208 5.98655 18.4213 6.12968 17.6868 6.42184C16.9522 6.71399 16.2848 7.14917 15.7247 7.70136C15.1646 8.25355 14.7232 8.91141 14.4269 9.63561C14.1305 10.3598 13.9853 11.1355 14 11.9163C14 13.4851 14.6322 14.9897 15.7574 16.099C16.8827 17.2083 18.4087 17.8316 20 17.8316C21.5913 17.8316 23.1175 17.2083 24.2427 16.099C25.3679 14.9897 26 13.4851 26 11.9163C26.0147 11.1355 25.8696 10.3598 25.5732 9.63561C25.2769 8.91141 24.8355 8.25355 24.2754 7.70136C23.7153 7.14917 23.0479 6.71399 22.3134 6.42184C21.5788 6.12968 20.792 5.98655 20 6.00099Z" fill="white"/>
</svg>
