<svg width="12" height="12" viewBox="0 0 12 12" fill="none" xmlns="http://www.w3.org/2000/svg">
<path fill-rule="evenodd" clip-rule="evenodd" d="M3.9178 2.1378C4.57319 0.120735 7.42679 0.120735 8.08217 2.1378C8.27487 2.73084 8.82751 3.13235 9.45107 3.13235C11.5719 3.13235 12.4537 5.84629 10.7379 7.0929C10.2335 7.45942 10.0224 8.10909 10.2151 8.70213C10.8704 10.7192 8.56183 12.3965 6.84601 11.1499C6.34154 10.7834 5.65844 10.7834 5.15397 11.1499C3.43815 12.3965 1.12954 10.7192 1.78492 8.70213C1.97761 8.10909 1.76652 7.45942 1.26205 7.0929C-0.453763 5.84629 0.428049 3.13235 2.54891 3.13235C3.17247 3.13235 3.72511 2.73084 3.9178 2.1378ZM7.35515 3.8227C7.2887 3.62655 7.07582 3.52139 6.87966 3.58784C6.6835 3.65429 6.57835 3.86717 6.64479 4.06333C6.86034 4.69966 7.47168 5.11683 8.1462 5.11683C8.35331 5.11683 8.5212 4.94894 8.5212 4.74183C8.5212 4.53472 8.35331 4.36683 8.1462 4.36683C7.77646 4.36683 7.46229 4.13902 7.35515 3.8227Z" fill="#FFC453"/>
</svg>
