<svg version="1.0" xmlns="http://www.w3.org/2000/svg"
     width="512.000000pt" height="512.000000pt" viewBox="0 0 512.000000 512.000000"
     preserveAspectRatio="xMidYMid meet">

    <g transform="translate(0.000000,512.000000) scale(0.100000,-0.100000)"
       fill="#fff" stroke="none">
        <path d="M2353 4420 c-655 -83 -1203 -474 -1479 -1056 -401 -842 -126 -1839
651 -2359 688 -461 1601 -410 2240 127 507 426 750 1094 636 1748 -135 776
-744 1384 -1521 1521 -131 23 -412 33 -527 19z m492 -154 c674 -123 1190 -585
1377 -1231 96 -334 89 -683 -22 -1018 -244 -735 -946 -1219 -1715 -1184 -772
36 -1417 564 -1603 1312 -38 152 -47 228 -47 415 0 198 9 268 55 445 159 608
638 1079 1255 1233 70 18 121 27 260 46 62 9 363 -3 440 -18z"/>
        <path d="M2485 3764 c-44 -24 -775 -753 -791 -791 -34 -79 -2 -169 75 -210 40
-21 57 -23 178 -23 l133 0 0 -232 c0 -223 1 -235 23 -273 12 -21 42 -53 65
-70 l44 -30 337 -3 336 -3 45 24 c25 13 59 43 75 66 l30 43 3 239 3 239 132 0
c118 0 138 3 177 23 74 37 109 126 80 204 -14 37 -744 769 -792 794 -45 23
-112 24 -153 3z m454 -488 c263 -263 362 -368 358 -380 -6 -14 -30 -16 -176
-16 -237 0 -215 30 -219 -306 -3 -230 -5 -271 -19 -286 -15 -17 -42 -18 -323
-18 -281 0 -308 1 -323 18 -14 15 -16 56 -19 286 -4 336 18 306 -219 306 -146
0 -170 2 -176 16 -4 12 95 117 358 380 200 200 371 364 379 364 8 0 179 -164
379 -364z"/>
        <path d="M2197 1855 c-22 -7 -50 -24 -64 -37 -47 -44 -53 -68 -53 -215 0 -124
3 -142 23 -177 14 -25 39 -48 66 -63 44 -23 47 -23 389 -23 331 0 348 1 389
21 29 14 52 35 68 63 23 40 25 52 25 180 0 151 -7 174 -60 219 -17 15 -47 31
-68 37 -59 16 -668 12 -715 -5z m686 -138 c15 -11 17 -27 15 -122 l-3 -110
-335 0 -335 0 -3 110 c-2 95 0 111 15 122 24 19 622 19 646 0z"/>
    </g>
</svg>
