<svg width="18" height="19" viewBox="0 0 18 19" fill="none" xmlns="http://www.w3.org/2000/svg">
<path d="M9.59993 16.0595C9.23993 16.3395 8.72993 16.3395 8.36993 16.0595L2.21993 11.2795C1.85993 10.9995 1.35993 10.9995 0.999932 11.2795C0.489932 11.6795 0.489932 12.4495 0.999932 12.8495L7.75993 18.1095C8.47993 18.6695 9.48993 18.6695 10.2199 18.1095L16.9799 12.8495C17.4899 12.4495 17.4899 11.6795 16.9799 11.2795L16.9699 11.2695C16.6099 10.9895 16.1099 10.9895 15.7499 11.2695L9.59993 16.0595ZM10.2299 13.0395L16.9899 7.77953C17.4999 7.37953 17.4999 6.59953 16.9899 6.19953L10.2299 0.939531C9.50993 0.379531 8.49993 0.379531 7.76993 0.939531L1.00993 6.20953C0.499932 6.60953 0.499932 7.38953 1.00993 7.78953L7.76993 13.0495C8.48993 13.6095 9.50993 13.6095 10.2299 13.0395Z" fill="#CCCCCC"/>
</svg>
