<svg width="64" height="64" viewBox="0 0 64 64" fill="none" xmlns="http://www.w3.org/2000/svg">
<path d="M41.6969 32.3031C40.5923 32.3031 39.6969 33.1985 39.6969 34.3031C39.6969 35.4076 40.5923 36.3031 41.6969 36.3031H48.9696C50.0742 36.3031 50.9696 35.4076 50.9696 34.3031C50.9696 33.1985 50.0742 32.3031 48.9696 32.3031H41.6969Z" fill="#00A47C"/>
<path fill-rule="evenodd" clip-rule="evenodd" d="M52.3932 9.00657C52.5996 10.1905 52.6496 11.5974 52.6635 13.207C52.8948 13.3277 53.1218 13.4561 53.3449 13.5928C55.4081 14.8572 57.1428 16.5918 58.4071 18.655C59.7991 20.9266 60.3053 23.5594 60.5145 26.9056C60.6666 29.3399 60.6666 32.3008 60.6666 35.9374V36.0127C60.6666 38.0981 60.6666 39.9557 60.6392 41.609C60.5538 46.75 60.2209 50.3851 58.4071 53.345C57.1428 55.4082 55.4081 57.1428 53.3449 58.4071C51.3747 59.6145 49.1398 60.1526 46.4103 60.4121C43.7325 60.6667 40.3807 60.6667 36.1051 60.6667H27.8949C23.6193 60.6667 20.2673 60.6667 17.5895 60.4121C14.8601 60.1526 12.6251 59.6145 10.655 58.4071C8.59177 57.1428 6.8571 55.4082 5.59278 53.345C4.38545 51.3748 3.84736 49.1398 3.58784 46.4104C3.33323 43.7325 3.33324 40.3806 3.33326 36.1049L3.33347 34.703C3.29834 33.3852 3.30913 31.912 3.32076 30.3236C3.32689 29.4863 3.33326 28.6171 3.33326 27.7217L3.33326 27.606C3.33324 23.0401 3.33322 19.4566 3.62879 16.6125C3.93025 13.7117 4.55713 11.3456 5.97093 9.31693C6.82512 8.09123 7.86142 7.00992 9.0436 6.11448C11.0124 4.62319 13.3164 3.96025 16.126 3.64289C18.8672 3.33328 22.3156 3.3333 26.6838 3.33332L41.2654 3.33332C43.3948 3.33322 45.1998 3.33315 46.6387 3.53484C48.1756 3.75026 49.5861 4.22949 50.7147 5.40606C51.6943 6.42733 52.1584 7.6594 52.3932 9.00657ZM41.1247 7.33332C43.4332 7.33332 44.955 7.33793 46.0835 7.49611C47.1456 7.64499 47.5588 7.89436 47.828 8.17499C48.0769 8.43452 48.3015 8.82634 48.4526 9.69348C48.5537 10.2733 48.6088 10.9819 48.638 11.8885C47.5374 11.687 46.3495 11.5629 45.0556 11.4831C42.6289 11.3333 39.6798 11.3333 36.0617 11.3333H27.895C23.6193 11.3333 20.2674 11.3333 17.5895 11.5879C14.8601 11.8474 12.6251 12.3855 10.655 13.5928C9.59287 14.2437 8.61784 15.0192 7.74921 15.9C8.04191 13.9604 8.52124 12.6534 9.25263 11.6039C9.87018 10.7178 10.6153 9.94195 11.4588 9.30305C12.626 8.4189 14.127 7.89412 16.575 7.61762C19.0655 7.33631 22.2881 7.33332 26.8081 7.33332H41.1247ZM12.7449 17.0034C13.981 16.2459 15.5315 15.8016 17.9682 15.5699C20.4346 15.3354 23.5966 15.3333 27.9999 15.3333H35.9999C39.6923 15.3333 42.5197 15.3342 44.8093 15.4755C47.0967 15.6166 48.6959 15.8918 49.9565 16.3705C50.4287 16.5498 50.856 16.7589 51.2549 17.0034C52.7799 17.9379 54.062 19.22 54.9965 20.745C55.6542 21.8182 56.0732 23.1226 56.3243 25.0303H41.6969C36.5757 25.0303 32.4242 29.1819 32.4242 34.3031C32.4242 39.4242 36.5757 43.5758 41.6969 43.5758H56.5849C56.4308 47.47 56.0058 49.608 54.9965 51.255C54.062 52.7799 52.7799 54.0621 51.2549 54.9966C50.0188 55.754 48.4684 56.1984 46.0317 56.43C43.5653 56.6645 40.4032 56.6667 35.9999 56.6667H27.9999C23.5966 56.6667 20.4346 56.6645 17.9682 56.43C15.5315 56.1984 13.981 55.754 12.7449 54.9966C11.22 54.0621 9.93784 52.7799 9.00334 51.255C8.24588 50.0189 7.80156 48.4684 7.56988 46.0318C7.33537 43.5653 7.33326 40.4033 7.33326 36C7.33326 31.5967 7.33537 28.4347 7.56988 25.9682C7.80156 23.5316 8.24588 21.9811 9.00334 20.745C9.93784 19.22 11.22 17.9379 12.7449 17.0034ZM36.4242 34.3031C36.4242 31.391 38.7849 29.0303 41.6969 29.0303H56.6068C56.6661 30.9608 56.6666 33.2384 56.6666 36C56.6666 37.2904 56.6666 38.4773 56.6603 39.5758H41.6969C38.7849 39.5758 36.4242 37.2151 36.4242 34.3031Z" fill="#00A47C"/>
</svg>
